<?xml version="1.0" standalone="no"?><!DOCTYPE svg PUBLIC "-//W3C//DTD SVG 1.1//EN" "http://www.w3.org/Graphics/SVG/1.1/DTD/svg11.dtd"><svg t="1671330662547" class="icon" viewBox="0 0 1024 1024" version="1.1" xmlns="http://www.w3.org/2000/svg" p-id="8684" xmlns:xlink="http://www.w3.org/1999/xlink" width="200" height="200"><path d="M847 1024H177A100 100 0 0 1 77 924V100A100 100 0 0 1 177 0h495a101 101 0 0 1 79 39l175 227a101 101 0 0 1 21 61v597a100 100 0 0 1-100 100zM177 80a20 20 0 0 0-20 20v824a20 20 0 0 0 20 20h670a20 20 0 0 0 20-20V327a20 20 0 0 0-4-12L687 88a20 20 0 0 0-16-8z" fill="" p-id="8685"></path><path d="M674 349H286a100 100 0 0 1-100-100V40a40 40 0 0 1 80 0v209a20 20 0 0 0 20 20h388a20 20 0 0 0 20-20V96a40 40 0 1 1 80 0v153a100 100 0 0 1-100 100zM598 565H224a40 40 0 0 1 0-80h374a40 40 0 0 1 0 80zM798 565h-80a40 40 0 0 1 0-80h80a40 40 0 0 1 0 80zM308 718h-84a40 40 0 0 1 0-80h84a40 40 0 0 1 0 80zM798 718H428a40 40 0 0 1 0-80h370a40 40 0 0 1 0 80zM518 871H224a40 40 0 0 1 0-80h294a40 40 0 0 1 0 80zM798 871H638a40 40 0 0 1 0-80h160a40 40 0 0 1 0 80z" fill="" p-id="8686"></path><path d="M406 245h-68a40 40 0 0 1 0-80h68a40 40 0 0 1 0 80z" fill="" p-id="8687"></path></svg>