<?xml version="1.0" standalone="no"?><!DOCTYPE svg PUBLIC "-//W3C//DTD SVG 1.1//EN" "http://www.w3.org/Graphics/SVG/1.1/DTD/svg11.dtd"><svg t="1669968858462" class="icon" viewBox="0 0 1024 1024" version="1.1" xmlns="http://www.w3.org/2000/svg" p-id="10383" xmlns:xlink="http://www.w3.org/1999/xlink" width="200" height="200"><path d="M448 768h128v-128h-128v128z m-192-384h128v-128h-128v128z m192 192h128v-128h-128v128z m-192 192h128v-128h-128v128z m0-192h128v-128h-128v128zM832 0H192a192 192 0 0 0-192 192v640c0 105.984 85.952 192 192 192h640c105.984 0 192-86.016 192-192V192c0-106.048-86.016-192-192-192z m64 832c0 35.392-28.608 64-64 64H192a64 64 0 0 1-64-64V192c0-35.328 28.672-64 64-64h640a64 64 0 0 1 64 64v640zM640 576h128v-128h-128v128z m0-192h128v-128h-128v128z m-192 0h128v-128h-128v128z m192 384h128v-128h-128v128z" fill="" p-id="10384"></path></svg>