<?xml version="1.0" standalone="no"?><!DOCTYPE svg PUBLIC "-//W3C//DTD SVG 1.1//EN" "http://www.w3.org/Graphics/SVG/1.1/DTD/svg11.dtd"><svg t="1669968884990" class="icon" viewBox="0 0 1024 1024" version="1.1" xmlns="http://www.w3.org/2000/svg" p-id="11634" xmlns:xlink="http://www.w3.org/1999/xlink" width="200" height="200"><path d="M938.508349 198.580607v-64.993653C938.508349 59.894151 878.614198 0 804.921394 0H216.57885C142.986037 0 83.091886 59.894151 83.091886 133.586954v60.794063L0 436.657358v409.160043C0 944.107802 79.692218 1023.90001 178.082609 1023.90001h639.437555v0.09999c0.399961 0 0.699932-0.09999 0.999902-0.09999h33.096768v-3.299678c97.390489-16.398399 171.983205-100.690167 172.083195-202.580217l0.199981-381.962699-85.391661-237.476809zM216.57885 88.991309H804.921394c24.497608 0 44.495655 19.998047 44.495655 44.495655v54.594669H172.083195v-54.594669c0-24.497608 19.998047-44.495655 44.495655-44.495655z m550.846206 318.768871l-4.799531 13.998633v512.949907H178.082609c-49.095206 0-88.991309-39.896104-88.991309-88.99131v-363.964456h304.270286c24.597598 0 44.495655-19.898057 44.495655-44.495655s-19.898057-44.495655-44.495655-44.495655H109.189337l39.596133-115.688702h663.335221l-44.695635 130.687238z m167.183674 409.959965c0 52.694854-35.196563 96.690558-82.991896 111.489112V436.657358l37.99629-110.889171 45.195586 125.687726-0.19998 366.264232z" p-id="11635"></path></svg>