<?xml version="1.0" standalone="no"?><!DOCTYPE svg PUBLIC "-//W3C//DTD SVG 1.1//EN" "http://www.w3.org/Graphics/SVG/1.1/DTD/svg11.dtd"><svg t="1671330619250" class="icon" viewBox="0 0 1024 1024" version="1.1" xmlns="http://www.w3.org/2000/svg" p-id="6630" xmlns:xlink="http://www.w3.org/1999/xlink" width="200" height="200"><path d="M259.2 391.7c-1.8-11.3-11.4-19.6-22.8-19.9-23.6-0.7-46.5-9.5-64.7-25.1-43.7-37.6-48.8-103.7-11.2-147.4 37.5-43.7 103.6-48.8 147.4-11.3 18.3 15.7 30.4 36.9 34.7 60.2 2.1 11.2 11.8 19.4 23.2 19.4H389c14.5 0 25.6-12.9 23.4-27.1-6.3-40.8-27-78.3-58.8-105.6-73-62.7-183.4-54.2-246.1 18.8-62.6 73-54.2 183.4 18.8 246.1 31.9 27.4 72.2 42.1 113.6 42.1h0.3c14.2 0 25-12.9 22.8-26.9l-3.8-23.3z" p-id="6631"></path><path d="M958.6 458.2c-2.3-14.5-13.1-25.9-27.4-29l-612.1-135c-12.8-2.8-26.1 1.6-34.6 11.6-8.5 9.9-10.9 23.7-6.1 35.9l226.5 584.4c5.3 13.7 18.2 22.6 32.9 22.7h0.2c14.6 0 27.6-8.8 33-22.5l109.2-276.5 261.4-155.4c12.7-7.5 19.3-21.7 17-36.2zM634.4 595.6c-6.7 4-12 10.2-14.9 17.5l-81.2 205.5-171.4-442.2L831 478.8 634.4 595.6z" p-id="6632"></path></svg>