<?xml version="1.0" standalone="no"?><!DOCTYPE svg PUBLIC "-//W3C//DTD SVG 1.1//EN" "http://www.w3.org/Graphics/SVG/1.1/DTD/svg11.dtd"><svg t="1669725541908" class="icon" viewBox="0 0 1024 1024" version="1.1" xmlns="http://www.w3.org/2000/svg" p-id="4336" xmlns:xlink="http://www.w3.org/1999/xlink" width="200" height="200"><path d="M268.864 962.528c-13.216 0-26.336-4.16-37.664-12.416a63.36 63.36 0 0 1-25.024-64.224l47.072-235.36-170.656-170.656a64 64 0 0 1 31.36-107.712l217.024-48.224 125.056-225.088a64 64 0 0 1 111.904-0.064l125.056 225.088 217.024 48.224a63.936 63.936 0 0 1 31.36 107.712l-170.656 170.656 47.072 235.328a63.488 63.488 0 0 1-25.024 64.256 63.232 63.232 0 0 1-68.8 4.256L512 836.608l-211.968 117.76a64 64 0 0 1-31.168 8.16zM512 768c5.344 0 10.72 1.344 15.52 4.032l227.488 126.4-50.4-252.128a32.064 32.064 0 0 1 8.736-28.896l182.784-182.784-231.104-51.36a31.904 31.904 0 0 1-21.024-15.68l-132.128-237.824-131.936 237.824a32 32 0 0 1-21.024 15.68l-231.104 51.36 182.784 182.784a31.968 31.968 0 0 1 8.736 28.896l-50.432 252.128 227.52-126.4c4.864-2.688 10.24-4.032 15.584-4.032z" p-id="4337"></path><path d="M319.328 522.368c-14.656 0-27.904-10.144-31.232-25.056a32.032 32.032 0 0 1 24.32-38.176l102.496-22.784 69.088-124.352a31.968 31.968 0 1 1 55.936 31.104L463.904 480a32 32 0 0 1-21.024 15.68l-116.576 25.92a32.352 32.352 0 0 1-6.976 0.768z" p-id="4338"></path></svg>