<svg xmlns="http://www.w3.org/2000/svg" viewBox="0 0 1024 1024" version="1.1"><path d="M512 512m-501.76 0a501.76 501.76 0 1 0 1003.52 0 501.76 501.76 0 1 0-1003.52 0Z" fill="#8CEEF9" p-id="6505"></path><path d="M512 1013.76c140.6976 0 267.8784-57.9584 359.0144-151.1424H152.9856C244.1216 955.8016 371.3024 1013.76 512 1013.76z" fill="#0ABFB2" p-id="6506"></path><path d="M512 1024c-139.0592 0-269.1072-54.8864-366.1824-154.2144-2.8672-2.8672-3.6864-7.3728-2.048-11.0592 1.6384-3.8912 5.3248-6.3488 9.4208-6.3488h717.824c4.096 0 7.7824 2.4576 9.4208 6.3488 1.6384 3.8912 0.8192 8.192-2.048 11.0592-97.28 99.328-227.328 154.2144-366.3872 154.2144zM178.176 872.8576c91.136 84.3776 208.6912 130.6624 333.824 130.6624s242.688-46.2848 333.824-130.6624H178.176z" fill="#1C1D21" p-id="6507"></path><path d="M512 1024c-136.8064 0-265.4208-53.248-362.0864-149.9136C53.248 777.4208 0 648.8064 0 512S53.248 246.5792 149.9136 149.9136C246.5792 53.248 375.1936 0 512 0s265.4208 53.248 362.0864 149.9136C970.752 246.5792 1024 375.1936 1024 512s-53.248 265.4208-149.9136 362.0864C777.4208 970.752 648.8064 1024 512 1024z m0-1003.52C241.0496 20.48 20.48 241.0496 20.48 512s220.5696 491.52 491.52 491.52 491.52-220.5696 491.52-491.52S782.9504 20.48 512 20.48z" fill="#1C1D21" p-id="6508"></path><path d="M653.7216 354.304m-86.8352 0a86.8352 86.8352 0 1 0 173.6704 0 86.8352 86.8352 0 1 0-173.6704 0Z" fill="#D66112" p-id="6509"></path><path d="M607.6416 395.264c0-47.9232 38.912-86.8352 86.8352-86.8352 13.5168 0 26.2144 3.072 37.4784 8.3968-13.9264-29.2864-43.8272-49.3568-78.4384-49.3568-47.9232 0-86.8352 38.912-86.8352 86.8352 0 34.6112 20.2752 64.512 49.3568 78.4384-5.3248-11.4688-8.3968-24.1664-8.3968-37.4784z" fill="#FF8939" p-id="6510"></path><path d="M653.7216 451.3792c-53.6576 0-97.0752-43.6224-97.0752-97.0752 0-53.6576 43.6224-97.0752 97.0752-97.0752s97.0752 43.6224 97.0752 97.0752c0 53.4528-43.6224 97.0752-97.0752 97.0752z m0-173.8752c-42.1888 0-76.5952 34.4064-76.5952 76.5952s34.4064 76.5952 76.5952 76.5952 76.5952-34.4064 76.5952-76.5952-34.4064-76.5952-76.5952-76.5952z" fill="#1C1D21" p-id="6511"></path><path d="M743.8336 479.232m-96.8704 0a96.8704 96.8704 0 1 0 193.7408 0 96.8704 96.8704 0 1 0-193.7408 0Z" fill="#D66112" p-id="6512"></path><path d="M692.6336 524.9024c0-53.4528 43.4176-96.8704 96.8704-96.8704 14.9504 0 29.0816 3.4816 41.7792 9.4208-15.5648-32.5632-48.7424-55.0912-87.2448-55.0912-53.4528 0-96.8704 43.4176-96.8704 96.8704 0 38.5024 22.528 71.68 55.0912 87.2448-6.144-12.4928-9.6256-26.624-9.6256-41.5744z" fill="#FF8939" p-id="6513"></path><path d="M749.7728 470.4256h-12.0832c-0.6144 0-1.2288-0.6144-1.2288-1.2288v-13.9264c0-0.6144 0.6144-1.2288 1.2288-1.2288H759.808c4.9152 0 8.8064-3.8912 8.8064-8.8064s-3.8912-8.8064-8.8064-8.8064h-7.5776v-15.1552c0-3.6864-3.072-6.7584-6.7584-6.7584s-6.7584 3.072-6.7584 6.7584v15.1552h-1.024c-10.4448 0-18.8416 8.3968-18.8416 18.8416v13.9264c0 10.4448 8.3968 18.8416 18.8416 18.8416h12.0832c0.6144 0 1.2288 0.6144 1.2288 1.2288v13.9264c0 0.6144-0.6144 1.2288-1.2288 1.2288h-22.1184c-4.9152 0-8.8064 3.8912-8.8064 8.8064s3.8912 8.8064 8.8064 8.8064h11.0592v15.1552c0 3.6864 3.072 6.7584 6.7584 6.7584s6.7584-3.072 6.7584-6.7584v-15.36c9.216-1.2288 16.384-9.216 16.384-18.6368v-13.9264c0-10.4448-8.3968-18.8416-18.8416-18.8416z" fill="#FFF0CC" p-id="6514"></path><path d="M743.8336 586.3424c-58.9824 0-107.1104-47.9232-107.1104-107.1104s47.9232-107.1104 107.1104-107.1104 107.1104 47.9232 107.1104 107.1104-48.128 107.1104-107.1104 107.1104z m0-193.536c-47.7184 0-86.6304 38.912-86.6304 86.6304 0 47.7184 38.912 86.6304 86.6304 86.6304 47.7184 0 86.6304-38.912 86.6304-86.6304-0.2048-47.9232-38.912-86.6304-86.6304-86.6304z" fill="#1C1D21" p-id="6515"></path><path d="M633.2416 551.3216l-294.912 36.6592c-22.528 2.8672-43.008-13.1072-45.6704-35.6352l-18.432-147.6608c-2.8672-22.528 13.1072-43.008 35.6352-45.6704l294.912-36.6592c22.528-2.8672 43.008 13.1072 45.6704 35.6352l18.432 147.6608c2.8672 22.3232-13.1072 42.8032-35.6352 45.6704z" fill="#AAADAD" p-id="6516"></path><path d="M315.392 414.3104c-5.12 0-9.4208-3.8912-10.24-9.0112l-0.6144-4.3008c-0.6144-5.5296 3.2768-10.6496 8.8064-11.4688 5.7344-0.6144 10.6496 3.2768 11.4688 8.8064l0.6144 4.3008c0.6144 5.5296-3.2768 10.6496-8.8064 11.4688-0.4096 0-0.8192 0.2048-1.2288 0.2048zM333.2096 557.4656c-5.12 0-9.4208-3.8912-10.24-9.0112l-13.1072-105.472c-0.6144-5.5296 3.2768-10.6496 8.8064-11.4688 5.5296-0.6144 10.6496 3.2768 11.4688 8.8064l13.1072 105.472c0.6144 5.5296-3.2768 10.6496-8.8064 11.4688-0.2048 0.2048-0.8192 0.2048-1.2288 0.2048z" fill="#E0E0E0" p-id="6517"></path><path d="M336.962081 471.817071a36.2496 36.2496 0 1 0 71.946083-8.938406 36.2496 36.2496 0 1 0-71.946083 8.938406Z" fill="#508DEF" p-id="6518"></path><path d="M372.9408 513.8432c-23.1424 0-43.2128-17.2032-46.08-40.7552-3.072-25.3952 14.9504-48.7424 40.3456-51.8144 25.3952-3.072 48.7424 14.9504 51.8144 40.3456 1.4336 12.288-1.8432 24.576-9.4208 34.2016-7.5776 9.8304-18.6368 15.9744-30.9248 17.6128-2.048 0.4096-3.8912 0.4096-5.7344 0.4096z m0-72.4992c-1.024 0-2.048 0-3.2768 0.2048-14.1312 1.8432-24.3712 14.7456-22.528 29.0816 1.8432 14.1312 14.7456 24.3712 29.0816 22.528 6.9632-0.8192 13.1072-4.3008 17.408-9.8304s6.144-12.288 5.3248-19.2512c-1.8432-13.1072-13.1072-22.7328-26.0096-22.7328z" fill="#1C1D21" p-id="6519"></path><path d="M333.2096 598.4256c-25.3952 0-47.5136-19.0464-50.7904-44.8512l-18.432-147.6608c-1.6384-13.5168 2.048-27.0336 10.4448-37.6832s20.48-17.6128 33.9968-19.2512l294.912-36.6592c28.0576-3.4816 53.6576 16.384 57.1392 44.4416l18.432 147.6608c1.6384 13.5168-2.048 27.0336-10.4448 37.6832s-20.48 17.6128-33.9968 19.2512l-1.2288-10.24 1.2288 10.24-294.912 36.6592c-2.048 0.4096-4.3008 0.4096-6.3488 0.4096z m276.6848-266.0352c-1.2288 0-2.4576 0-3.8912 0.2048l-294.912 36.6592c-8.192 1.024-15.36 5.12-20.48 11.6736s-7.168 14.5408-6.3488 22.7328l18.432 147.6608c2.048 16.7936 17.408 28.8768 34.2016 26.624l294.912-36.6592c8.192-1.024 15.36-5.12 20.48-11.6736s7.168-14.5408 6.3488-22.7328l-18.432-147.6608c-1.6384-15.5648-14.9504-26.8288-30.3104-26.8288z" fill="#1C1D21" p-id="6520"></path><path d="M397.995566 464.25246a36.2496 36.2496 0 1 0 71.946083-8.938406 36.2496 36.2496 0 1 0-71.946083 8.938406Z" fill="#FF9E5C" p-id="6521"></path><path d="M433.9712 506.2656c-23.1424 0-43.2128-17.2032-46.08-40.7552-1.4336-12.288 1.8432-24.576 9.4208-34.2016s18.6368-15.9744 30.9248-17.6128c12.288-1.4336 24.576 1.8432 34.2016 9.4208 9.8304 7.5776 15.9744 18.6368 17.6128 30.9248 1.4336 12.288-1.8432 24.576-9.4208 34.2016s-18.6368 15.9744-30.9248 17.6128c-1.8432 0.4096-3.8912 0.4096-5.7344 0.4096z m0.2048-72.4992c-1.024 0-2.2528 0-3.2768 0.2048-6.9632 0.8192-13.1072 4.3008-17.408 9.8304-4.3008 5.5296-6.144 12.288-5.3248 19.2512 1.8432 14.1312 14.7456 24.3712 29.0816 22.528 6.9632-0.8192 13.1072-4.3008 17.408-9.8304 4.3008-5.5296 6.144-12.288 5.3248-19.2512-0.8192-6.9632-4.3008-13.1072-9.8304-17.408-4.7104-3.4816-10.24-5.3248-15.9744-5.3248zM513.2288 452.4032c-5.12 0-9.4208-3.8912-10.24-9.0112-0.6144-5.5296 3.2768-10.6496 8.8064-11.4688l8.6016-1.024c5.5296-0.6144 10.6496 3.2768 11.4688 8.8064s-3.2768 10.6496-8.8064 11.4688l-8.6016 1.024c-0.4096 0.2048-0.8192 0.2048-1.2288 0.2048zM561.3568 446.464c-5.12 0-9.4208-3.8912-10.24-9.0112-0.6144-5.5296 3.2768-10.6496 8.8064-11.4688l8.6016-1.024c5.5296-0.6144 10.6496 3.2768 11.4688 8.8064 0.6144 5.5296-3.2768 10.6496-8.8064 11.4688l-8.6016 1.024c-0.4096 0.2048-0.8192 0.2048-1.2288 0.2048zM518.5536 496.0256c-5.12 0-9.4208-3.8912-10.24-9.0112-0.6144-5.5296 3.2768-10.6496 8.8064-11.4688l8.6016-1.024c5.5296-0.6144 10.6496 3.2768 11.4688 8.8064s-3.2768 10.6496-8.8064 11.4688l-8.6016 1.024c-0.2048 0.2048-0.6144 0.2048-1.2288 0.2048zM566.8864 490.0864c-5.12 0-9.4208-3.8912-10.24-9.0112-0.6144-5.5296 3.2768-10.6496 8.8064-11.4688l8.6016-1.024c5.7344-0.6144 10.6496 3.2768 11.4688 8.8064s-3.2768 10.6496-8.8064 11.4688l-8.6016 1.024c-0.4096 0.2048-0.8192 0.2048-1.2288 0.2048zM609.6896 440.5248c-5.12 0-9.4208-3.8912-10.24-9.0112-0.6144-5.5296 3.2768-10.6496 8.8064-11.4688l8.6016-1.024c5.5296-0.6144 10.6496 3.2768 11.4688 8.8064s-3.2768 10.6496-8.8064 11.4688l-8.6016 1.024c-0.4096 0.2048-0.8192 0.2048-1.2288 0.2048z" fill="#1C1D21" p-id="6522"></path><path d="M694.272 862.6176H273.6128c-22.528 0-40.96-18.432-40.96-40.96v-237.568c0-22.528 18.432-40.96 40.96-40.96H694.272c22.528 0 40.96 18.432 40.96 40.96v237.568c0 22.528-18.2272 40.96-40.96 40.96z" fill="#C67552" p-id="6523"></path><path d="M289.3824 543.1296h-15.7696c-22.528 0-40.96 18.432-40.96 40.96v237.568c0 22.528 18.432 40.96 40.96 40.96h15.7696v-319.488z" fill="#D66112" p-id="6524"></path><path d="M336.6912 581.2224c-5.7344 0-10.24-4.5056-10.24-10.24v-27.8528c0-5.7344 4.5056-10.24 10.24-10.24s10.24 4.5056 10.24 10.24v27.8528c0 5.5296-4.7104 10.24-10.24 10.24zM336.6912 622.1824c-5.7344 0-10.24-4.5056-10.24-10.24V606.208c0-5.7344 4.5056-10.24 10.24-10.24s10.24 4.5056 10.24 10.24v5.7344c0 5.5296-4.7104 10.24-10.24 10.24zM336.6912 831.8976c-5.7344 0-10.24-4.5056-10.24-10.24v-174.8992c0-5.7344 4.5056-10.24 10.24-10.24s10.24 4.5056 10.24 10.24v174.8992c0 5.5296-4.7104 10.24-10.24 10.24z" fill="#FFA364" p-id="6525"></path><path d="M291.4304 581.2224c-5.7344 0-10.24-4.5056-10.24-10.24v-27.8528c0-5.7344 4.5056-10.24 10.24-10.24s10.24 4.5056 10.24 10.24v27.8528c0 5.5296-4.5056 10.24-10.24 10.24zM291.4304 654.1312c-5.7344 0-10.24-4.5056-10.24-10.24v-27.8528c0-5.7344 4.5056-10.24 10.24-10.24s10.24 4.5056 10.24 10.24v27.8528c0 5.5296-4.5056 10.24-10.24 10.24zM291.4304 727.04c-5.7344 0-10.24-4.5056-10.24-10.24v-27.8528c0-5.7344 4.5056-10.24 10.24-10.24s10.24 4.5056 10.24 10.24V716.8c0 5.5296-4.5056 10.24-10.24 10.24zM291.4304 799.9488c-5.7344 0-10.24-4.5056-10.24-10.24V761.856c0-5.7344 4.5056-10.24 10.24-10.24s10.24 4.5056 10.24 10.24v27.8528c0 5.5296-4.5056 10.24-10.24 10.24zM291.4304 872.8576c-5.7344 0-10.24-4.5056-10.24-10.24v-27.8528c0-5.7344 4.5056-10.24 10.24-10.24s10.24 4.5056 10.24 10.24v27.8528c0 5.5296-4.5056 10.24-10.24 10.24z" fill="#1C1D21" p-id="6526"></path><path d="M694.272 872.8576H273.6128c-28.2624 0-51.2-22.9376-51.2-51.2v-237.568c0-28.2624 22.9376-51.2 51.2-51.2H694.272c28.2624 0 51.2 22.9376 51.2 51.2v237.568c0 28.2624-22.9376 51.2-51.2 51.2z m-420.6592-319.488c-16.9984 0-30.72 13.7216-30.72 30.72v237.568c0 16.9984 13.7216 30.72 30.72 30.72H694.272c16.9984 0 30.72-13.7216 30.72-30.72v-237.568c0-16.9984-13.7216-30.72-30.72-30.72H273.6128z" fill="#1C1D21" p-id="6527"></path><path d="M644.096 741.9904h86.8352c12.0832 0 22.1184-9.8304 22.1184-22.1184v-34.4064c0-12.0832-9.8304-22.1184-22.1184-22.1184h-86.8352c-21.7088 0-39.3216 17.6128-39.3216 39.3216 0 21.9136 17.6128 39.3216 39.3216 39.3216z" fill="#FF8939" p-id="6528"></path><path d="M730.9312 752.2304h-86.8352c-27.2384 0-49.5616-22.1184-49.5616-49.5616s22.1184-49.5616 49.5616-49.5616h86.8352c17.8176 0 32.3584 14.5408 32.3584 32.3584v34.4064c-0.2048 18.0224-14.5408 32.3584-32.3584 32.3584zM644.096 673.792c-15.9744 0-29.0816 13.1072-29.0816 29.0816s13.1072 29.0816 29.0816 29.0816h86.8352c6.5536 0 11.8784-5.3248 11.8784-11.8784v-34.4064c0-6.5536-5.3248-11.8784-11.8784-11.8784h-86.8352z" fill="#1C1D21" p-id="6529"></path></svg>