<svg xmlns="http://www.w3.org/2000/svg" viewBox="0 0 1024 1024" version="1.1"><path d="M512 512m-501.76 0a501.76 501.76 0 1 0 1003.52 0 501.76 501.76 0 1 0-1003.52 0Z" fill="#8CEEF9" p-id="6583"></path><path d="M512 370.0736m-150.1184 0a150.1184 150.1184 0 1 0 300.2368 0 150.1184 150.1184 0 1 0-300.2368 0Z" fill="#D66112" p-id="6584"></path><path d="M432.5376 440.9344c0-82.944 67.1744-150.1184 150.1184-150.1184 23.1424 0 45.056 5.3248 64.7168 14.7456-24.1664-50.5856-75.776-85.4016-135.5776-85.4016-82.944 0-150.1184 67.1744-150.1184 150.1184 0 59.8016 34.816 111.2064 85.4016 135.5776-9.216-19.8656-14.5408-41.7792-14.5408-64.9216z" fill="#FF8939" p-id="6585"></path><path d="M408.576 271.5648c-2.6624 0-5.3248-1.024-7.3728-3.2768-3.8912-4.096-3.6864-10.6496 0.4096-14.5408 3.2768-3.072 6.5536-5.9392 10.0352-8.8064 4.3008-3.4816 10.8544-2.8672 14.336 1.6384s2.8672 10.8544-1.6384 14.336c-3.072 2.4576-5.9392 4.9152-8.6016 7.5776-2.2528 2.2528-4.7104 3.072-7.168 3.072z" fill="#1C1D21" p-id="6586"></path><path d="M512 530.432c-88.4736 0-160.3584-71.8848-160.3584-160.3584 0-26.8288 6.7584-53.248 19.456-76.8 2.6624-4.9152 9.0112-6.7584 13.9264-4.096 4.9152 2.6624 6.7584 9.0112 4.096 13.9264-11.0592 20.48-16.9984 43.6224-16.9984 66.9696 0 77.2096 62.6688 139.8784 139.8784 139.8784s139.8784-62.6688 139.8784-139.8784-62.6688-139.8784-139.8784-139.8784c-12.288 0-24.3712 1.6384-36.0448 4.7104-5.5296 1.4336-11.0592-1.8432-12.4928-7.3728-1.4336-5.5296 1.8432-11.0592 7.3728-12.4928 13.312-3.4816 27.2384-5.3248 41.1648-5.3248 88.4736 0 160.3584 71.8848 160.3584 160.3584S600.4736 530.432 512 530.432z" fill="#1C1D21" p-id="6587"></path><path d="M521.216 356.352h-18.6368c-1.024 0-1.8432-0.8192-1.8432-1.8432v-21.7088c0-1.024 0.8192-1.8432 1.8432-1.8432h34.2016a13.7216 13.7216 0 0 0 0-27.4432h-11.6736v-23.552c0-5.7344-4.7104-10.4448-10.4448-10.4448s-10.4448 4.7104-10.4448 10.4448v23.552h-1.6384c-16.1792 0-29.2864 13.1072-29.2864 29.2864v21.7088c0 16.1792 13.1072 29.2864 29.2864 29.2864h18.6368c1.024 0 1.8432 0.8192 1.8432 1.8432v21.7088c0 1.024-0.8192 1.8432-1.8432 1.8432h-34.2016a13.7216 13.7216 0 0 0 0 27.4432h17.2032v23.552c0 5.7344 4.7104 10.4448 10.4448 10.4448s10.4448-4.7104 10.4448-10.4448v-23.7568c14.336-1.8432 25.3952-14.1312 25.3952-29.0816v-21.7088c0-16.1792-13.1072-29.2864-29.2864-29.2864z" fill="#FFF0CC" p-id="6588"></path><path d="M512 1024c-136.8064 0-265.4208-53.248-362.0864-149.9136S0 648.8064 0 512 53.248 246.5792 149.9136 149.9136 375.1936 0 512 0s265.4208 53.248 362.0864 149.9136S1024 375.1936 1024 512s-53.248 265.4208-149.9136 362.0864S648.8064 1024 512 1024z m0-1003.52C241.0496 20.48 20.48 241.0496 20.48 512s220.5696 491.52 491.52 491.52 491.52-220.5696 491.52-491.52S782.9504 20.48 512 20.48z" fill="#1C1D21" p-id="6589"></path><path d="M661.9136 583.68H362.0864c-30.1056 0-54.6816 24.576-54.6816 54.6816v331.776c62.464 27.8528 131.6864 43.4176 204.5952 43.4176s142.1312-15.5648 204.5952-43.4176v-331.776c0-30.1056-24.576-54.6816-54.6816-54.6816z" fill="#FFECE9" p-id="6590"></path><path d="M348.3648 996.7616c-5.7344 0-10.24-4.5056-10.24-10.24V676.0448c0-5.7344 4.5056-10.24 10.24-10.24s10.24 4.5056 10.24 10.24v310.4768c0 5.5296-4.5056 10.24-10.24 10.24z" fill="#FFFFFF" p-id="6591"></path><path d="M618.7008 495.8208H405.2992c-16.7936 0-30.5152 13.7216-30.5152 30.5152v57.344h274.6368v-57.344c0-16.7936-13.7216-30.5152-30.72-30.5152z" fill="#FFECE9" p-id="6592"></path><path d="M307.4048 719.0528h409.1904v195.9936H307.4048z" fill="#FF3E63" p-id="6593"></path><path d="M429.056 593.92c-5.7344 0-10.24-4.5056-10.24-10.24v-88.064c0-5.7344 4.5056-10.24 10.24-10.24s10.24 4.5056 10.24 10.24v88.064c0 5.7344-4.5056 10.24-10.24 10.24zM484.352 593.92c-5.7344 0-10.24-4.5056-10.24-10.24v-88.064c0-5.7344 4.5056-10.24 10.24-10.24s10.24 4.5056 10.24 10.24v88.064c0 5.7344-4.5056 10.24-10.24 10.24zM539.648 593.92c-5.7344 0-10.24-4.5056-10.24-10.24v-88.064c0-5.7344 4.5056-10.24 10.24-10.24s10.24 4.5056 10.24 10.24v88.064c0 5.7344-4.5056 10.24-10.24 10.24zM594.944 593.92c-5.7344 0-10.24-4.5056-10.24-10.24v-88.064c0-5.7344 4.5056-10.24 10.24-10.24s10.24 4.5056 10.24 10.24v88.064c0 5.7344-4.5056 10.24-10.24 10.24z" fill="#1C1D21" p-id="6594"></path><path d="M649.4208 593.92H374.5792c-5.7344 0-10.24-4.5056-10.24-10.24v-57.344c0-22.528 18.2272-40.7552 40.7552-40.7552h213.6064c22.528 0 40.7552 18.2272 40.7552 40.7552v57.344c0.2048 5.7344-4.5056 10.24-10.0352 10.24z m-264.6016-20.48H638.976v-47.104c0-11.264-9.216-20.2752-20.2752-20.2752H405.2992c-11.264 0-20.2752 9.216-20.2752 20.2752v47.104z" fill="#1C1D21" p-id="6595"></path><path d="M553.984 797.4912h-22.3232v-22.3232c0-10.8544-8.8064-19.456-19.456-19.456s-19.456 8.8064-19.456 19.456v22.3232h-22.3232c-10.8544 0-19.456 8.8064-19.456 19.456 0 10.8544 8.8064 19.456 19.456 19.456h22.3232v22.3232c0 10.8544 8.8064 19.456 19.456 19.456s19.456-8.8064 19.456-19.456v-22.3232h22.3232c10.8544 0 19.456-8.8064 19.456-19.456s-8.8064-19.456-19.456-19.456z" fill="#FFFFFF" p-id="6596"></path><path d="M512 888.6272c-16.384 0-29.696-13.312-29.696-29.696v-12.0832h-12.0832c-16.384 0-29.696-13.312-29.696-29.696s13.312-29.696 29.696-29.696h12.0832v-12.0832c0-16.384 13.312-29.696 29.696-29.696s29.696 13.312 29.696 29.696v12.0832h12.0832c16.384 0 29.696 13.312 29.696 29.696s-13.312 29.696-29.696 29.696h-12.0832v12.0832c0 16.384-13.312 29.696-29.696 29.696z m-41.984-80.896c-5.12 0-9.216 4.096-9.216 9.216s4.096 9.216 9.216 9.216h22.3232c5.7344 0 10.24 4.5056 10.24 10.24v22.3232c0 5.12 4.096 9.216 9.216 9.216s9.216-4.096 9.216-9.216v-22.3232c0-5.7344 4.5056-10.24 10.24-10.24h22.3232c5.12 0 9.216-4.096 9.216-9.216s-4.096-9.216-9.216-9.216h-22.3232c-5.7344 0-10.24-4.5056-10.24-10.24v-22.3232c0-5.12-4.096-9.216-9.216-9.216s-9.216 4.096-9.216 9.216v22.3232c0 5.7344-4.5056 10.24-10.24 10.24h-22.3232z" fill="#1C1D21" p-id="6597"></path><path d="M348.3648 925.2864c-5.7344 0-10.24-4.5056-10.24-10.24v-195.9936c0-5.7344 4.5056-10.24 10.24-10.24s10.24 4.5056 10.24 10.24v195.9936c0 5.7344-4.5056 10.24-10.24 10.24z" fill="#FFAEC3" p-id="6598"></path><path d="M716.5952 925.2864H307.4048c-5.7344 0-10.24-4.5056-10.24-10.24v-195.9936c0-5.7344 4.5056-10.24 10.24-10.24h409.1904c5.7344 0 10.24 4.5056 10.24 10.24v195.9936c0 5.7344-4.5056 10.24-10.24 10.24z m-398.9504-20.48h388.7104v-175.5136H317.6448v175.5136z" fill="#1C1D21" p-id="6599"></path><path d="M512 1024c-72.704 0-142.9504-14.9504-208.6912-44.4416-3.6864-1.6384-6.144-5.3248-6.144-9.4208v-331.776c0-35.84 29.0816-64.9216 64.9216-64.9216h299.8272c35.84 0 64.9216 29.0816 64.9216 64.9216v331.776c0 4.096-2.4576 7.7824-6.144 9.4208C654.9504 1009.0496 584.704 1024 512 1024z m-194.3552-60.416c61.44 26.4192 126.7712 39.936 194.3552 39.936s132.9152-13.5168 194.3552-39.936V638.3616c0-24.576-19.8656-44.4416-44.4416-44.4416H362.0864c-24.576 0-44.4416 19.8656-44.4416 44.4416v325.2224z m398.9504 6.7584z" fill="#1C1D21" p-id="6600"></path><path d="M348.3648 649.4208c-5.7344 0-10.24-4.5056-10.24-10.24v-4.7104c0-5.7344 4.5056-10.24 10.24-10.24s10.24 4.5056 10.24 10.24v4.7104c0 5.5296-4.5056 10.24-10.24 10.24z" fill="#FFFFFF" p-id="6601"></path><path d="M512 164.0448c-5.7344 0-10.24-4.5056-10.24-10.24v-16.384c0-5.7344 4.5056-10.24 10.24-10.24s10.24 4.5056 10.24 10.24v16.384c0 5.5296-4.5056 10.24-10.24 10.24zM664.9856 227.328c-2.6624 0-5.3248-1.024-7.168-3.072-4.096-4.096-4.096-10.4448 0-14.5408l11.6736-11.6736c4.096-4.096 10.4448-4.096 14.5408 0s4.096 10.4448 0 14.5408l-11.6736 11.6736c-2.048 2.048-4.7104 3.072-7.3728 3.072zM744.8576 380.3136h-16.384c-5.7344 0-10.24-4.5056-10.24-10.24s4.5056-10.24 10.24-10.24h16.384c5.7344 0 10.24 4.5056 10.24 10.24s-4.7104 10.24-10.24 10.24zM295.5264 380.3136h-16.384c-5.7344 0-10.24-4.5056-10.24-10.24s4.5056-10.24 10.24-10.24h16.384c5.7344 0 10.24 4.5056 10.24 10.24s-4.5056 10.24-10.24 10.24zM359.0144 227.328c-2.6624 0-5.3248-1.024-7.168-3.072l-11.6736-11.6736c-4.096-4.096-4.096-10.4448 0-14.5408s10.4448-4.096 14.5408 0l11.6736 11.6736c4.096 4.096 4.096 10.4448 0 14.5408-2.2528 2.048-4.7104 3.072-7.3728 3.072zM593.1008 179.8144c-1.2288 0-2.6624-0.2048-3.8912-0.8192-5.3248-2.048-7.7824-7.9872-5.7344-13.312l6.144-15.1552c2.048-5.3248 7.9872-7.7824 13.312-5.7344s7.7824 7.9872 5.7344 13.312l-6.144 15.1552c-1.6384 4.096-5.3248 6.5536-9.4208 6.5536zM711.2704 295.936c-3.8912 0-7.7824-2.2528-9.4208-6.144-2.2528-5.12 0.2048-11.264 5.3248-13.5168l15.1552-6.3488c5.12-2.2528 11.264 0.2048 13.5168 5.3248 2.2528 5.12-0.2048 11.264-5.3248 13.5168l-15.1552 6.3488c-1.4336 0.4096-2.8672 0.8192-4.096 0.8192zM297.7792 471.4496c-3.8912 0-7.7824-2.2528-9.4208-6.144-2.2528-5.12 0.2048-11.264 5.3248-13.5168l15.1552-6.3488c5.12-2.2528 11.264 0.2048 13.5168 5.3248s-0.2048 11.264-5.3248 13.5168l-15.1552 6.3488c-1.4336 0.4096-2.8672 0.8192-4.096 0.8192zM727.8592 467.5584c-1.2288 0-2.6624-0.2048-3.8912-0.8192l-15.1552-6.144c-5.3248-2.048-7.7824-7.9872-5.7344-13.312s7.9872-7.7824 13.312-5.7344l15.1552 6.144c5.3248 2.048 7.7824 7.9872 5.7344 13.312-1.6384 4.096-5.3248 6.5536-9.4208 6.5536zM311.296 299.4176c-1.2288 0-2.6624-0.2048-3.8912-0.8192l-15.1552-6.144c-5.3248-2.048-7.7824-7.9872-5.7344-13.312s7.9872-7.7824 13.312-5.7344l15.1552 6.144c5.3248 2.048 7.7824 7.9872 5.7344 13.312-1.4336 4.096-5.3248 6.5536-9.4208 6.5536zM427.4176 181.248c-3.8912 0-7.7824-2.2528-9.4208-6.144l-6.3488-15.1552c-2.2528-5.12 0.2048-11.264 5.3248-13.5168 5.12-2.2528 11.264 0.2048 13.5168 5.3248l6.3488 15.1552c2.2528 5.12-0.2048 11.264-5.3248 13.5168-1.4336 0.4096-2.6624 0.8192-4.096 0.8192z" fill="#1C1D21" p-id="6602"></path><path d="M814.2848 712.9088c-18.6368 0-33.792-15.1552-33.792-33.792v-79.872c0-18.6368 15.1552-33.792 33.792-33.792s33.792 15.1552 33.792 33.792v79.872c0 18.6368-15.1552 33.792-33.792 33.792z" fill="#508DEF" p-id="6603"></path><path d="M814.2848 723.1488c-24.3712 0-44.032-19.6608-44.032-44.032v-79.872c0-24.3712 19.6608-44.032 44.032-44.032s44.032 19.6608 44.032 44.032v79.872c0 24.1664-19.6608 44.032-44.032 44.032z m0-147.456c-12.9024 0-23.552 10.6496-23.552 23.552v79.872c0 12.9024 10.6496 23.552 23.552 23.552s23.552-10.6496 23.552-23.552v-79.872c0-13.1072-10.4448-23.552-23.552-23.552z" fill="#1C1D21" p-id="6604"></path><path d="M814.2848 712.9088c18.6368 0 33.792-15.1552 33.792-33.792v-39.936h-67.584v39.936c0 18.6368 15.1552 33.792 33.792 33.792z" fill="#0ABFB2" p-id="6605"></path><path d="M814.2848 723.1488c-24.3712 0-44.032-19.6608-44.032-44.032v-39.936c0-5.7344 4.5056-10.24 10.24-10.24h67.584c5.7344 0 10.24 4.5056 10.24 10.24v39.936c0 24.1664-19.6608 44.032-44.032 44.032z m-23.552-73.728v29.696c0 12.9024 10.6496 23.552 23.552 23.552s23.552-10.6496 23.552-23.552v-29.696h-47.104z" fill="#1C1D21" p-id="6606"></path><path d="M197.2224 658.8416m-54.0672 0a54.0672 54.0672 0 1 0 108.1344 0 54.0672 54.0672 0 1 0-108.1344 0Z" fill="#FFECE9" p-id="6607"></path><path d="M197.2224 723.1488c-35.4304 0-64.3072-28.8768-64.3072-64.3072 0-35.4304 28.8768-64.3072 64.3072-64.3072s64.3072 28.8768 64.3072 64.3072c0 35.4304-28.8768 64.3072-64.3072 64.3072z m0-108.1344c-24.1664 0-43.8272 19.6608-43.8272 43.8272 0 24.1664 19.6608 43.8272 43.8272 43.8272s43.8272-19.6608 43.8272-43.8272c0-24.1664-19.6608-43.8272-43.8272-43.8272z" fill="#1C1D21" p-id="6608"></path><path d="M251.2896 669.0816H143.1552c-5.7344 0-10.24-4.5056-10.24-10.24s4.5056-10.24 10.24-10.24h108.1344c5.7344 0 10.24 4.5056 10.24 10.24s-4.7104 10.24-10.24 10.24z" fill="#1C1D21" p-id="6609"></path></svg>