<svg xmlns="http://www.w3.org/2000/svg" viewBox="0 0 1024 1024" version="1.1"><path d="M512 512m-501.76 0a501.76 501.76 0 1 0 1003.52 0 501.76 501.76 0 1 0-1003.52 0Z" fill="#8CEEF9" p-id="6837"></path><path d="M512 1024c-136.8064 0-265.4208-53.248-362.0864-149.9136C53.248 777.4208 0 648.8064 0 512S53.248 246.5792 149.9136 149.9136C246.5792 53.248 375.1936 0 512 0s265.4208 53.248 362.0864 149.9136C970.752 246.5792 1024 375.1936 1024 512s-53.248 265.4208-149.9136 362.0864C777.4208 970.752 648.8064 1024 512 1024z m0-1003.52C241.0496 20.48 20.48 241.0496 20.48 512s220.5696 491.52 491.52 491.52 491.52-220.5696 491.52-491.52S782.9504 20.48 512 20.48z" fill="#1C1D21" p-id="6838"></path><path d="M332.8 438.6816c0-98.9184 80.2816-179.2 179.2-179.2s179.2 80.2816 179.2 179.2v184.9344h-358.4v-184.9344z" fill="#FF3E63" p-id="6839"></path><path d="M691.2 633.856h-358.4c-5.7344 0-10.24-4.5056-10.24-10.24v-184.9344c0-104.448 84.992-189.44 189.44-189.44s189.44 84.992 189.44 189.44v184.9344c0 5.7344-4.7104 10.24-10.24 10.24z m-348.16-20.48h337.92v-174.6944c0-93.184-75.776-168.96-168.96-168.96s-168.96 75.776-168.96 168.96v174.6944z" fill="#1C1D21" p-id="6840"></path><path d="M714.1376 471.8592c-11.8784 0-21.7088-9.6256-21.7088-21.7088 0-99.5328-81.1008-180.6336-180.6336-180.6336s-180.6336 81.1008-180.6336 180.6336c0 11.8784-9.6256 21.7088-21.7088 21.7088s-21.7088-9.6256-21.7088-21.7088c0-123.4944 100.352-223.8464 223.8464-223.8464s223.8464 100.352 223.8464 223.8464c0.4096 11.8784-9.216 21.7088-21.2992 21.7088z" fill="#AAADAD" p-id="6841"></path><path d="M714.1376 482.0992c-17.6128 0-31.9488-14.336-31.9488-31.9488 0-94.0032-76.3904-170.3936-170.3936-170.3936s-170.3936 76.3904-170.3936 170.3936c0 17.6128-14.336 31.9488-31.9488 31.9488s-31.9488-14.336-31.9488-31.9488c0-129.024 105.0624-234.0864 234.0864-234.0864s234.0864 105.0624 234.0864 234.0864c0.4096 17.6128-13.9264 31.9488-31.5392 31.9488zM512 259.2768c105.2672 0 190.8736 85.6064 190.8736 190.8736 0 6.3488 5.12 11.4688 11.4688 11.4688s11.4688-5.12 11.4688-11.4688c0-117.76-95.8464-213.6064-213.6064-213.6064s-213.6064 95.8464-213.6064 213.6064c0 6.3488 5.12 11.4688 11.4688 11.4688s11.4688-5.12 11.4688-11.4688c-0.4096-105.2672 85.1968-190.8736 190.464-190.8736z" fill="#1C1D21" p-id="6842"></path><path d="M568.9344 623.616h-113.8688v-91.3408c0-12.4928 10.0352-22.528 22.528-22.528h68.8128c12.4928 0 22.528 10.0352 22.528 22.528v91.3408z" fill="#C67552" p-id="6843"></path><path d="M568.9344 633.856h-113.8688c-5.7344 0-10.24-4.5056-10.24-10.24v-91.3408c0-18.0224 14.7456-32.768 32.768-32.768h68.8128c18.0224 0 32.768 14.7456 32.768 32.768v91.3408c0 5.7344-4.5056 10.24-10.24 10.24z m-103.6288-20.48h93.3888v-81.1008c0-6.7584-5.5296-12.288-12.288-12.288h-68.8128c-6.7584 0-12.288 5.5296-12.288 12.288v81.1008z" fill="#1C1D21" p-id="6844"></path><path d="M568.9344 559.9232h-113.8688c-5.7344 0-10.24-4.5056-10.24-10.24s4.5056-10.24 10.24-10.24h113.8688c5.7344 0 10.24 4.5056 10.24 10.24s-4.5056 10.24-10.24 10.24z" fill="#1C1D21" p-id="6845"></path><path d="M470.6304 466.7392h-67.9936c-5.12 0-9.216-4.096-9.216-9.216v-67.9936c0-5.12 4.096-9.216 9.216-9.216h67.9936c5.12 0 9.216 4.096 9.216 9.216v67.9936c0 5.12-4.096 9.216-9.216 9.216zM621.3632 466.7392h-67.9936c-5.12 0-9.216-4.096-9.216-9.216v-67.9936c0-5.12 4.096-9.216 9.216-9.216h67.9936c5.12 0 9.216 4.096 9.216 9.216v67.9936c0 5.12-4.096 9.216-9.216 9.216z" fill="#FFECE9" p-id="6846"></path><path d="M470.6304 476.9792h-67.9936c-10.6496 0-19.456-8.8064-19.456-19.456v-67.9936c0-10.6496 8.8064-19.456 19.456-19.456h67.9936c10.6496 0 19.456 8.8064 19.456 19.456v67.9936c0 10.6496-8.6016 19.456-19.456 19.456z m-66.9696-20.48h65.9456v-65.9456h-65.9456v65.9456z" fill="#1C1D21" p-id="6847"></path><path d="M479.8464 433.7664h-86.4256c-5.7344 0-10.24-4.5056-10.24-10.24s4.5056-10.24 10.24-10.24h86.4256c5.7344 0 10.24 4.5056 10.24 10.24s-4.5056 10.24-10.24 10.24z" fill="#1C1D21" p-id="6848"></path><path d="M436.6336 476.9792c-5.7344 0-10.24-4.5056-10.24-10.24v-86.4256c0-5.7344 4.5056-10.24 10.24-10.24s10.24 4.5056 10.24 10.24v86.4256c0 5.7344-4.5056 10.24-10.24 10.24zM621.3632 476.9792h-67.9936c-10.6496 0-19.456-8.8064-19.456-19.456v-67.9936c0-10.6496 8.8064-19.456 19.456-19.456h67.9936c10.6496 0 19.456 8.8064 19.456 19.456v67.9936c0 10.6496-8.8064 19.456-19.456 19.456z m-66.9696-20.48h65.9456v-65.9456h-65.9456v65.9456z" fill="#1C1D21" p-id="6849"></path><path d="M630.5792 433.7664h-86.4256c-5.7344 0-10.24-4.5056-10.24-10.24s4.5056-10.24 10.24-10.24h86.4256c5.7344 0 10.24 4.5056 10.24 10.24s-4.5056 10.24-10.24 10.24z" fill="#1C1D21" p-id="6850"></path><path d="M587.3664 476.9792c-5.7344 0-10.24-4.5056-10.24-10.24v-86.4256c0-5.7344 4.5056-10.24 10.24-10.24s10.24 4.5056 10.24 10.24v86.4256c0 5.7344-4.7104 10.24-10.24 10.24zM512 633.856c-5.7344 0-10.24-4.5056-10.24-10.24v-73.9328c0-5.7344 4.5056-10.24 10.24-10.24s10.24 4.5056 10.24 10.24v73.9328c0 5.7344-4.5056 10.24-10.24 10.24zM482.7136 519.9872h-44.8512c-5.7344 0-10.24-4.5056-10.24-10.24s4.5056-10.24 10.24-10.24h44.8512c5.7344 0 10.24 4.5056 10.24 10.24s-4.5056 10.24-10.24 10.24zM409.6 519.9872h-3.4816c-5.7344 0-10.24-4.5056-10.24-10.24s4.5056-10.24 10.24-10.24h3.4816c5.7344 0 10.24 4.5056 10.24 10.24s-4.5056 10.24-10.24 10.24zM586.1376 519.9872h-44.8512c-5.7344 0-10.24-4.5056-10.24-10.24s4.5056-10.24 10.24-10.24h44.8512c5.7344 0 10.24 4.5056 10.24 10.24s-4.5056 10.24-10.24 10.24zM617.8816 519.9872H614.4c-5.7344 0-10.24-4.5056-10.24-10.24s4.5056-10.24 10.24-10.24h3.4816c5.7344 0 10.24 4.5056 10.24 10.24s-4.5056 10.24-10.24 10.24z" fill="#1C1D21" p-id="6851"></path><path d="M256.2048 430.4896v-17.8176c0-24.7808-5.9392-49.152-17.6128-70.8608-11.4688 21.9136-17.6128 46.2848-17.6128 70.8608v17.8176h35.2256z" fill="#FF9E5C" p-id="6852"></path><path d="M256.2048 440.7296h-35.2256c-5.7344 0-10.24-4.5056-10.24-10.24v-17.8176c0-26.2144 6.5536-52.4288 18.8416-75.776 1.8432-3.2768 5.3248-5.5296 9.0112-5.5296s7.3728 2.048 9.0112 5.5296c12.288 23.1424 18.8416 49.3568 18.8416 75.776v17.8176c0 5.5296-4.7104 10.24-10.24 10.24z m-24.9856-20.48h14.7456v-7.5776c0-15.36-2.4576-30.5152-7.3728-44.8512-4.9152 14.5408-7.3728 29.696-7.3728 44.8512v7.5776z" fill="#1C1D21" p-id="6853"></path><path d="M223.8464 522.0352l-33.9968-37.4784v28.8768c0 14.9504 5.3248 29.0816 14.7456 39.7312l33.9968 37.4784v-28.8768c0-14.9504-5.3248-29.2864-14.7456-39.7312zM223.8464 416.1536l-33.9968-37.4784V407.552c0 14.9504 5.3248 29.0816 14.7456 39.7312l33.9968 37.4784v-28.8768c0-14.9504-5.3248-29.2864-14.7456-39.7312zM253.3376 522.0352l33.9968-37.4784v28.8768c0 14.9504-5.3248 29.0816-14.7456 39.7312l-33.9968 37.4784v-28.8768c0-14.9504 5.3248-29.2864 14.7456-39.7312zM253.3376 416.1536l33.9968-37.4784V407.552c0 14.9504-5.3248 29.0816-14.7456 39.7312l-33.9968 37.4784v-28.8768c0-14.9504 5.3248-29.2864 14.7456-39.7312z" fill="#FF9E5C" p-id="6854"></path><path d="M238.592 600.6784c-2.8672 0-5.5296-1.2288-7.5776-3.2768l-33.792-37.4784c-11.264-12.4928-17.408-29.0816-17.408-46.4896v-28.8768c0-4.3008 2.6624-7.9872 6.5536-9.6256 3.8912-1.4336 8.3968-0.4096 11.264 2.6624l33.792 37.4784c11.264 12.4928 17.408 29.0816 17.408 46.4896v28.8768c0 4.3008-2.6624 7.9872-6.5536 9.6256-1.2288 0.4096-2.4576 0.6144-3.6864 0.6144z m-38.5024-89.4976v2.2528c0 12.288 4.5056 24.1664 12.288 32.768l15.9744 17.8176v-2.2528c0-12.288-4.5056-24.1664-12.288-32.768l-15.9744-17.8176zM238.592 494.7968c-2.8672 0-5.5296-1.2288-7.5776-3.2768l-33.792-37.4784c-11.264-12.4928-17.408-29.0816-17.408-46.4896v-28.8768c0-4.3008 2.6624-7.9872 6.5536-9.6256 3.8912-1.4336 8.3968-0.4096 11.264 2.6624l33.792 37.4784c11.264 12.4928 17.408 29.0816 17.408 46.4896v28.8768c0 4.3008-2.6624 7.9872-6.5536 9.6256-1.2288 0.4096-2.4576 0.6144-3.6864 0.6144z m-38.5024-89.7024v2.2528c0 12.288 4.5056 24.1664 12.288 32.768l15.9744 17.8176v-2.2528c0-12.288-4.5056-24.1664-12.288-32.768l-15.9744-17.8176z" fill="#1C1D21" p-id="6855"></path><path d="M238.592 600.6784c-1.2288 0-2.4576-0.2048-3.6864-0.6144-3.8912-1.4336-6.5536-5.3248-6.5536-9.6256v-28.8768c0-17.6128 6.144-33.9968 17.408-46.4896l33.9968-37.4784c2.8672-3.072 7.3728-4.3008 11.264-2.6624 3.8912 1.4336 6.5536 5.3248 6.5536 9.6256v28.8768c0 17.6128-6.144 33.9968-17.408 46.4896l-33.9968 37.4784c-2.048 2.2528-4.7104 3.2768-7.5776 3.2768z m22.528-71.68c-7.7824 8.6016-12.288 20.48-12.288 32.768v2.2528l15.9744-17.8176c7.7824-8.6016 12.288-20.48 12.288-32.768v-2.2528l-15.9744 17.8176zM238.592 494.7968c-1.2288 0-2.4576-0.2048-3.6864-0.6144-3.8912-1.4336-6.5536-5.3248-6.5536-9.6256v-28.8768c0-17.6128 6.144-33.9968 17.408-46.4896l33.9968-37.4784c2.8672-3.072 7.3728-4.3008 11.264-2.6624 3.8912 1.4336 6.5536 5.3248 6.5536 9.6256V407.552c0 17.6128-6.144 33.9968-17.408 46.4896L246.1696 491.52c-2.048 2.048-4.7104 3.2768-7.5776 3.2768z m22.528-71.8848c-7.7824 8.6016-12.288 20.48-12.288 32.768v2.2528l15.9744-17.8176c7.7824-8.6016 12.288-20.48 12.288-32.768v-2.2528l-15.9744 17.8176z" fill="#1C1D21" p-id="6856"></path><path d="M238.7968 649.216c-5.7344 0-10.24-4.5056-10.24-10.24v-161.792c0-5.7344 4.5056-10.24 10.24-10.24s10.24 4.5056 10.24 10.24v161.792c0 5.7344-4.5056 10.24-10.24 10.24z" fill="#1C1D21" p-id="6857"></path><path d="M158.72 430.4896v-17.8176c0-24.7808-5.9392-49.152-17.6128-70.8608-11.4688 21.9136-17.6128 46.2848-17.6128 70.8608v17.8176h35.2256z" fill="#FF9E5C" p-id="6858"></path><path d="M158.72 440.7296H123.4944c-5.7344 0-10.24-4.5056-10.24-10.24v-17.8176c0-26.2144 6.5536-52.4288 18.8416-75.776 1.8432-3.2768 5.3248-5.5296 9.0112-5.5296s7.3728 2.048 9.0112 5.5296c12.288 23.1424 18.8416 49.3568 18.8416 75.776v17.8176c0 5.5296-4.5056 10.24-10.24 10.24z m-24.9856-20.48h14.7456v-7.5776c0-15.36-2.4576-30.5152-7.3728-44.8512-4.9152 14.5408-7.3728 29.696-7.3728 44.8512v7.5776z" fill="#1C1D21" p-id="6859"></path><path d="M126.3616 522.0352l-33.9968-37.4784v28.8768c0 14.9504 5.3248 29.0816 14.7456 39.7312l33.9968 37.4784v-28.8768c0-14.9504-5.3248-29.2864-14.7456-39.7312zM126.3616 416.1536l-33.9968-37.4784V407.552c0 14.9504 5.3248 29.0816 14.7456 39.7312l33.9968 37.4784v-28.8768c0-14.9504-5.3248-29.2864-14.7456-39.7312zM156.0576 522.0352l33.9968-37.4784v28.8768c0 14.9504-5.3248 29.0816-14.7456 39.7312L141.312 590.6432v-28.8768c-0.2048-14.9504 5.12-29.2864 14.7456-39.7312zM156.0576 416.1536l33.9968-37.4784V407.552c0 14.9504-5.3248 29.0816-14.7456 39.7312L141.312 484.7616v-28.8768c-0.2048-14.9504 5.12-29.2864 14.7456-39.7312z" fill="#FF9E5C" p-id="6860"></path><path d="M141.1072 600.6784c-2.8672 0-5.5296-1.2288-7.5776-3.2768l-33.792-37.4784c-11.264-12.4928-17.408-29.0816-17.408-46.4896v-28.8768c0-4.3008 2.6624-7.9872 6.5536-9.6256 3.8912-1.4336 8.3968-0.4096 11.264 2.6624l33.792 37.4784c11.264 12.4928 17.408 29.0816 17.408 46.4896v28.8768c0 4.3008-2.6624 7.9872-6.5536 9.6256-1.2288 0.4096-2.4576 0.6144-3.6864 0.6144z m-38.5024-89.4976v2.2528c0 12.288 4.5056 24.1664 12.288 32.768l15.9744 17.8176v-2.2528c0-12.288-4.5056-24.1664-12.288-32.768l-15.9744-17.8176zM141.1072 494.7968c-2.8672 0-5.5296-1.2288-7.5776-3.2768l-33.792-37.4784c-11.264-12.4928-17.408-29.0816-17.408-46.4896v-28.8768c0-4.3008 2.6624-7.9872 6.5536-9.6256 3.8912-1.4336 8.3968-0.4096 11.264 2.6624l33.792 37.4784c11.264 12.4928 17.408 29.0816 17.408 46.4896v28.8768c0 4.3008-2.6624 7.9872-6.5536 9.6256-1.2288 0.4096-2.4576 0.6144-3.6864 0.6144z m-38.5024-89.7024v2.2528c0 12.288 4.5056 24.1664 12.288 32.768l15.9744 17.8176v-2.2528c0-12.288-4.5056-24.1664-12.288-32.768l-15.9744-17.8176z" fill="#1C1D21" p-id="6861"></path><path d="M141.1072 600.6784c-1.2288 0-2.4576-0.2048-3.6864-0.6144-3.8912-1.4336-6.5536-5.3248-6.5536-9.6256v-28.8768c0-17.6128 6.144-33.9968 17.408-46.4896L182.272 477.5936c2.8672-3.072 7.3728-4.3008 11.264-2.6624 3.8912 1.4336 6.5536 5.3248 6.5536 9.6256v28.8768c0 17.6128-6.144 33.9968-17.408 46.4896l-33.9968 37.4784c-1.8432 2.2528-4.7104 3.2768-7.5776 3.2768z m22.528-71.68c-7.7824 8.6016-12.288 20.48-12.288 32.768v2.2528l15.9744-17.8176c7.7824-8.6016 12.288-20.48 12.288-32.768v-2.2528l-15.9744 17.8176zM141.1072 494.7968c-1.2288 0-2.4576-0.2048-3.6864-0.6144-3.8912-1.4336-6.5536-5.3248-6.5536-9.6256v-28.8768c0-17.6128 6.144-33.9968 17.408-46.4896L182.272 371.712c2.8672-3.072 7.3728-4.3008 11.264-2.6624 3.8912 1.4336 6.5536 5.3248 6.5536 9.6256V407.552c0 17.6128-6.144 33.9968-17.408 46.4896L148.6848 491.52c-1.8432 2.048-4.7104 3.2768-7.5776 3.2768z m22.528-71.8848c-7.7824 8.6016-12.288 20.48-12.288 32.768v2.2528l15.9744-17.8176c7.7824-8.6016 12.288-20.48 12.288-32.768v-2.2528l-15.9744 17.8176z" fill="#1C1D21" p-id="6862"></path><path d="M141.312 668.8768c-5.7344 0-10.24-4.5056-10.24-10.24V477.184c0-5.7344 4.5056-10.24 10.24-10.24s10.24 4.5056 10.24 10.24v181.4528c0 5.5296-4.5056 10.24-10.24 10.24z" fill="#1C1D21" p-id="6863"></path><path d="M900.5056 430.4896v-17.8176c0-24.7808-5.9392-49.152-17.6128-70.8608-11.4688 21.9136-17.6128 46.2848-17.6128 70.8608v17.8176h35.2256z" fill="#FF9E5C" p-id="6864"></path><path d="M900.5056 440.7296h-35.2256c-5.7344 0-10.24-4.5056-10.24-10.24v-17.8176c0-26.2144 6.5536-52.4288 18.8416-75.776 1.8432-3.2768 5.3248-5.5296 9.0112-5.5296 3.8912 0 7.3728 2.048 9.0112 5.5296 12.288 23.3472 18.8416 49.3568 18.8416 75.776v17.8176c0 5.5296-4.7104 10.24-10.24 10.24z m-24.9856-20.48h14.7456v-7.5776c0-15.36-2.4576-30.5152-7.3728-44.8512-4.9152 14.5408-7.3728 29.696-7.3728 44.8512v7.5776z" fill="#1C1D21" p-id="6865"></path><path d="M867.9424 522.0352l-33.9968-37.4784v28.8768c0 14.9504 5.3248 29.0816 14.7456 39.7312l33.9968 37.4784v-28.8768c0.2048-14.9504-5.12-29.2864-14.7456-39.7312zM867.9424 416.1536l-33.9968-37.4784V407.552c0 14.9504 5.3248 29.0816 14.7456 39.7312l33.9968 37.4784v-28.8768c0.2048-14.9504-5.12-29.2864-14.7456-39.7312zM897.6384 522.0352l33.9968-37.4784v28.8768c0 14.9504-5.3248 29.0816-14.7456 39.7312l-33.9968 37.4784v-28.8768c0-14.9504 5.3248-29.2864 14.7456-39.7312zM897.6384 416.1536l33.9968-37.4784V407.552c0 14.9504-5.3248 29.0816-14.7456 39.7312l-33.9968 37.4784v-28.8768c0-14.9504 5.3248-29.2864 14.7456-39.7312z" fill="#FF9E5C" p-id="6866"></path><path d="M882.8928 600.6784c-2.8672 0-5.5296-1.2288-7.5776-3.2768l-33.9968-37.4784c-11.264-12.4928-17.408-29.0816-17.408-46.4896v-28.8768c0-4.3008 2.6624-7.9872 6.5536-9.6256 3.8912-1.4336 8.3968-0.4096 11.264 2.6624l33.9968 37.4784c11.264 12.4928 17.408 29.0816 17.408 46.4896v28.8768c0 4.3008-2.6624 7.9872-6.5536 9.6256-1.2288 0.4096-2.4576 0.6144-3.6864 0.6144z m-38.5024-89.4976v2.2528c0 12.288 4.5056 24.1664 12.288 32.768l15.9744 17.8176v-2.2528c0-12.288-4.5056-24.1664-12.288-32.768l-15.9744-17.8176zM882.8928 494.7968c-2.8672 0-5.5296-1.2288-7.5776-3.2768l-33.9968-37.4784c-11.264-12.4928-17.408-29.0816-17.408-46.4896v-28.8768c0-4.3008 2.6624-7.9872 6.5536-9.6256 3.8912-1.4336 8.3968-0.4096 11.264 2.6624l33.9968 37.4784c11.264 12.4928 17.408 29.0816 17.408 46.4896v28.8768c0 4.3008-2.6624 7.9872-6.5536 9.6256-1.2288 0.4096-2.4576 0.6144-3.6864 0.6144z m-38.5024-89.7024v2.2528c0 12.288 4.5056 24.1664 12.288 32.768l15.9744 17.8176v-2.2528c0-12.288-4.5056-24.1664-12.288-32.768l-15.9744-17.8176z" fill="#1C1D21" p-id="6867"></path><path d="M882.8928 600.6784c-1.2288 0-2.4576-0.2048-3.6864-0.6144-3.8912-1.4336-6.5536-5.3248-6.5536-9.6256v-28.8768c0-17.6128 6.144-33.9968 17.408-46.4896l33.792-37.4784c2.8672-3.072 7.3728-4.3008 11.264-2.6624 3.8912 1.4336 6.5536 5.3248 6.5536 9.6256v28.8768c0 17.6128-6.144 33.9968-17.408 46.4896l-33.792 37.4784c-2.048 2.2528-4.7104 3.2768-7.5776 3.2768z m38.5024-89.4976l-15.9744 17.8176c-7.7824 8.6016-12.288 20.48-12.288 32.768v2.2528l15.9744-17.8176c7.7824-8.6016 12.288-20.48 12.288-32.768v-2.2528z m-23.7568 10.8544zM882.8928 494.7968c-1.2288 0-2.4576-0.2048-3.6864-0.6144-3.8912-1.4336-6.5536-5.3248-6.5536-9.6256v-28.8768c0-17.6128 6.144-33.9968 17.408-46.4896l33.792-37.4784c2.8672-3.072 7.3728-4.3008 11.264-2.6624 3.8912 1.4336 6.5536 5.3248 6.5536 9.6256V407.552c0 17.6128-6.144 33.9968-17.408 46.4896L890.4704 491.52c-2.048 2.048-4.7104 3.2768-7.5776 3.2768z m38.5024-89.7024l-15.9744 17.8176c-7.7824 8.6016-12.288 20.48-12.288 32.768v2.2528l15.9744-17.8176c7.7824-8.6016 12.288-20.48 12.288-32.768v-2.2528z m-23.7568 11.0592z" fill="#1C1D21" p-id="6868"></path><path d="M883.0976 668.8768c-5.7344 0-10.24-4.5056-10.24-10.24V477.184c0-5.7344 4.5056-10.24 10.24-10.24s10.24 4.5056 10.24 10.24v181.4528c0 5.7344-4.5056 10.24-10.24 10.24z" fill="#1C1D21" p-id="6869"></path><path d="M803.0208 430.4896v-17.8176c0-24.7808-5.9392-49.152-17.6128-70.8608-11.4688 21.9136-17.6128 46.2848-17.6128 70.8608v17.8176h35.2256z" fill="#FF9E5C" p-id="6870"></path><path d="M803.0208 440.7296h-35.2256c-5.7344 0-10.24-4.5056-10.24-10.24v-17.8176c0-26.2144 6.5536-52.4288 18.8416-75.776 1.8432-3.2768 5.3248-5.5296 9.0112-5.5296s7.3728 2.048 9.0112 5.5296c12.288 23.1424 18.8416 49.3568 18.8416 75.776v17.8176c0 5.5296-4.7104 10.24-10.24 10.24z m-24.9856-20.48h14.7456v-7.5776c0-15.36-2.4576-30.5152-7.3728-44.8512-4.9152 14.5408-7.3728 29.696-7.3728 44.8512v7.5776z" fill="#1C1D21" p-id="6871"></path><path d="M770.6624 522.0352l-33.9968-37.4784v28.8768c0 14.9504 5.3248 29.0816 14.7456 39.7312l33.9968 37.4784v-28.8768c0-14.9504-5.3248-29.2864-14.7456-39.7312zM770.6624 416.1536l-33.9968-37.4784V407.552c0 14.9504 5.3248 29.0816 14.7456 39.7312l33.9968 37.4784v-28.8768c0-14.9504-5.3248-29.2864-14.7456-39.7312zM800.1536 522.0352l33.9968-37.4784v28.8768c0 14.9504-5.3248 29.0816-14.7456 39.7312l-33.9968 37.4784v-28.8768c0-14.9504 5.3248-29.2864 14.7456-39.7312zM800.1536 416.1536l33.9968-37.4784V407.552c0 14.9504-5.3248 29.0816-14.7456 39.7312l-33.9968 37.4784v-28.8768c0-14.9504 5.3248-29.2864 14.7456-39.7312z" fill="#FF9E5C" p-id="6872"></path><path d="M785.408 600.6784c-2.8672 0-5.5296-1.2288-7.5776-3.2768l-33.9968-37.4784c-11.264-12.4928-17.408-29.0816-17.408-46.4896v-28.8768c0-4.3008 2.6624-7.9872 6.5536-9.6256 3.8912-1.4336 8.3968-0.4096 11.264 2.6624l33.9968 37.4784c11.264 12.4928 17.408 29.0816 17.408 46.4896v28.8768c0 4.3008-2.6624 7.9872-6.5536 9.6256-1.2288 0.4096-2.4576 0.6144-3.6864 0.6144z m-38.5024-89.4976v2.2528c0 12.288 4.5056 24.1664 12.288 32.768l15.9744 17.8176v-2.2528c0-12.288-4.5056-24.1664-12.288-32.768l-15.9744-17.8176zM785.408 494.7968c-2.8672 0-5.5296-1.2288-7.5776-3.2768l-33.9968-37.4784c-11.264-12.4928-17.408-29.0816-17.408-46.4896v-28.8768c0-4.3008 2.6624-7.9872 6.5536-9.6256 3.8912-1.4336 8.3968-0.4096 11.264 2.6624l33.9968 37.4784c11.264 12.4928 17.408 29.0816 17.408 46.4896v28.8768c0 4.3008-2.6624 7.9872-6.5536 9.6256-1.2288 0.4096-2.4576 0.6144-3.6864 0.6144z m-38.5024-89.7024v2.2528c0 12.288 4.5056 24.1664 12.288 32.768l15.9744 17.8176v-2.2528c0-12.288-4.5056-24.1664-12.288-32.768l-15.9744-17.8176z" fill="#1C1D21" p-id="6873"></path><path d="M785.408 600.6784c-1.2288 0-2.4576-0.2048-3.6864-0.6144-3.8912-1.4336-6.5536-5.3248-6.5536-9.6256v-28.8768c0-17.6128 6.144-33.9968 17.408-46.4896l33.792-37.4784c2.8672-3.072 7.3728-4.3008 11.264-2.6624 3.8912 1.4336 6.5536 5.3248 6.5536 9.6256v28.8768c0 17.6128-6.144 33.9968-17.408 46.4896l-33.792 37.4784c-2.048 2.2528-4.7104 3.2768-7.5776 3.2768z m38.5024-89.4976l-15.9744 17.8176c-7.7824 8.6016-12.288 20.48-12.288 32.768v2.2528l15.9744-17.8176c7.7824-8.6016 12.288-20.48 12.288-32.768v-2.2528z m-23.7568 10.8544zM785.408 494.7968c-1.2288 0-2.4576-0.2048-3.6864-0.6144-3.8912-1.4336-6.5536-5.3248-6.5536-9.6256v-28.8768c0-17.6128 6.144-33.9968 17.408-46.4896l33.792-37.4784c2.8672-3.072 7.3728-4.3008 11.264-2.6624 3.8912 1.4336 6.5536 5.3248 6.5536 9.6256V407.552c0 17.6128-6.144 33.9968-17.408 46.4896L792.9856 491.52c-2.048 2.048-4.7104 3.2768-7.5776 3.2768z m38.5024-89.7024l-15.9744 17.8176c-7.7824 8.6016-12.288 20.48-12.288 32.768v2.2528l15.9744-17.8176c7.7824-8.6016 12.288-20.48 12.288-32.768v-2.2528z m-23.7568 11.0592z" fill="#1C1D21" p-id="6874"></path><path d="M785.6128 649.4208c-5.7344 0-10.24-4.5056-10.24-10.24v-154.624c0-5.7344 4.5056-10.24 10.24-10.24s10.24 4.5056 10.24 10.24v154.624c0 5.7344-4.5056 10.24-10.24 10.24z" fill="#1C1D21" p-id="6875"></path><path d="M512 616.2432c-163.84 0-321.9456 24.1664-471.04 69.0176C111.616 876.9536 295.7312 1013.76 512 1013.76s400.384-136.8064 471.04-328.4992c-149.0944-44.8512-307.2-69.0176-471.04-69.0176z" fill="#C67552" p-id="6876"></path><path d="M512 1024c-106.9056 0-209.3056-32.5632-296.1408-94.208-84.7872-60.416-148.6848-143.5648-184.5248-241.0496-1.024-2.6624-0.8192-5.5296 0.4096-8.192s3.4816-4.5056 6.144-5.3248c153.1904-46.08 312.5248-69.4272 473.9072-69.4272s320.7168 23.3472 473.9072 69.4272c2.6624 0.8192 4.9152 2.6624 6.144 5.3248s1.4336 5.5296 0.4096 8.192c-35.84 97.28-99.7376 180.6336-184.5248 240.8448C721.3056 991.4368 618.9056 1024 512 1024zM54.4768 692.0192C128 878.7968 310.4768 1003.52 512 1003.52s384-124.7232 457.5232-311.5008c-148.0704-43.4176-301.8752-65.536-457.5232-65.536s-309.4528 22.1184-457.5232 65.536z" fill="#1C1D21" p-id="6877"></path><path d="M333.0048 677.4784c-5.12 0-9.6256-3.8912-10.24-9.0112-0.6144-5.5296 3.4816-10.6496 9.0112-11.264 7.3728-0.8192 14.7456-1.6384 22.3232-2.2528 5.5296-0.6144 10.6496 3.4816 11.264 9.216 0.6144 5.5296-3.4816 10.6496-9.216 11.264-7.3728 0.6144-14.7456 1.4336-21.9136 2.2528-0.4096-0.2048-0.8192-0.2048-1.2288-0.2048zM96.6656 722.3296c-4.5056 0-8.6016-3.072-9.8304-7.5776-1.4336-5.5296 1.8432-11.0592 7.168-12.4928 54.8864-14.7456 111.0016-26.8288 167.3216-35.6352 5.5296-0.8192 10.8544 2.8672 11.6736 8.6016 0.8192 5.5296-2.8672 10.8544-8.6016 11.6736-55.5008 8.8064-111.0016 20.48-165.0688 35.0208-0.8192 0.2048-1.6384 0.4096-2.6624 0.4096z" fill="#FFA364" p-id="6878"></path><path d="M653.312 817.152v-21.7088c0-6.3488-5.12-11.4688-11.4688-11.4688h-6.5536c-5.3248 0-9.8304-3.4816-11.0592-8.6016-2.6624-9.4208-6.3488-18.432-11.0592-26.624-2.4576-4.5056-1.6384-10.0352 1.8432-13.7216l4.7104-4.7104c4.5056-4.5056 4.5056-11.8784 0-16.384l-15.36-15.36c-4.5056-4.5056-11.8784-4.5056-16.384 0l-4.7104 4.7104c-3.6864 3.6864-9.216 4.5056-13.7216 1.8432-8.192-4.7104-17.2032-8.3968-26.624-11.0592-5.12-1.4336-8.6016-5.9392-8.6016-11.0592v-6.5536c0-6.3488-5.12-11.4688-11.4688-11.4688h-21.7088c-6.3488 0-11.4688 5.12-11.4688 11.4688v6.5536c0 5.3248-3.4816 9.8304-8.6016 11.0592-9.4208 2.6624-18.432 6.3488-26.624 11.0592-4.5056 2.4576-10.0352 1.6384-13.7216-1.8432l-4.7104-4.7104c-4.5056-4.5056-11.8784-4.5056-16.384 0l-15.36 15.36c-4.5056 4.5056-4.5056 11.8784 0 16.384l4.7104 4.7104c3.6864 3.6864 4.5056 9.216 1.8432 13.7216-4.7104 8.192-8.3968 17.2032-11.0592 26.624-1.4336 5.12-5.9392 8.6016-11.0592 8.6016h-6.5536c-6.3488 0-11.4688 5.12-11.4688 11.4688V817.152c0 6.3488 5.12 11.4688 11.4688 11.4688h6.5536c5.3248 0 9.8304 3.4816 11.0592 8.6016 2.6624 9.4208 6.3488 18.432 11.0592 26.624 2.4576 4.5056 1.6384 10.0352-1.8432 13.7216l-4.7104 4.7104c-4.5056 4.5056-4.5056 11.8784 0 16.384l15.36 15.36c4.5056 4.5056 11.8784 4.5056 16.384 0l4.7104-4.7104c3.6864-3.6864 9.216-4.5056 13.7216-1.8432 8.192 4.7104 17.2032 8.3968 26.624 11.0592 5.12 1.4336 8.6016 5.9392 8.6016 11.0592v6.5536c0 6.3488 5.12 11.4688 11.4688 11.4688h21.7088c6.3488 0 11.4688-5.12 11.4688-11.4688v-6.5536c0-5.3248 3.4816-9.8304 8.6016-11.0592 9.4208-2.6624 18.432-6.3488 26.624-11.0592 4.5056-2.4576 10.0352-1.6384 13.7216 1.8432l4.7104 4.7104c4.5056 4.5056 11.8784 4.5056 16.384 0l15.36-15.36c4.5056-4.5056 4.5056-11.8784 0-16.384l-4.7104-4.7104c-3.6864-3.6864-4.5056-9.216-1.8432-13.7216 4.7104-8.192 8.3968-17.2032 11.0592-26.624 1.4336-5.12 5.9392-8.6016 11.0592-8.6016h6.5536c6.3488 0 11.4688-5.12 11.4688-11.4688z" fill="#FFECE9" p-id="6879"></path><path d="M522.8544 957.8496h-21.7088c-12.0832 0-21.7088-9.8304-21.7088-21.7088v-6.5536c0-0.6144-0.6144-1.024-1.024-1.2288-10.0352-2.8672-19.8656-6.7584-28.8768-12.0832-0.4096-0.2048-1.024-0.2048-1.4336 0.2048l-4.7104 4.7104c-8.3968 8.3968-22.3232 8.3968-30.72 0l-15.36-15.36c-8.3968-8.3968-8.3968-22.3232 0-30.72l4.7104-4.7104c0.4096-0.4096 0.4096-1.024 0.2048-1.4336-5.12-9.0112-9.216-18.8416-12.0832-28.8768-0.2048-0.6144-0.6144-1.024-1.2288-1.024h-6.5536c-12.0832 0-21.7088-9.8304-21.7088-21.7088v-21.7088c0-12.0832 9.8304-21.7088 21.7088-21.7088h6.5536c0.6144 0 1.024-0.6144 1.2288-1.024 2.8672-10.0352 6.7584-19.8656 12.0832-29.0816 0.2048-0.4096 0.2048-1.024-0.2048-1.4336l-4.7104-4.7104c-8.3968-8.3968-8.3968-22.3232 0-30.72l15.36-15.36c4.096-4.096 9.6256-6.3488 15.36-6.3488s11.264 2.2528 15.36 6.3488l4.7104 4.7104c0.4096 0.4096 1.024 0.4096 1.4336 0.2048 9.216-5.12 18.8416-9.216 28.8768-12.0832 0.6144-0.2048 1.024-0.6144 1.024-1.2288v-6.5536c0-12.0832 9.8304-21.7088 21.7088-21.7088h21.7088c12.0832 0 21.7088 9.8304 21.7088 21.7088v6.5536c0 0.6144 0.6144 1.024 1.024 1.2288 10.0352 2.8672 19.8656 6.7584 28.8768 12.0832 0.4096 0.2048 1.024 0.2048 1.4336-0.2048l4.7104-4.7104c4.096-4.096 9.6256-6.3488 15.36-6.3488s11.264 2.2528 15.36 6.3488l15.36 15.36c8.3968 8.3968 8.3968 22.3232 0 30.72l-4.7104 4.7104c-0.4096 0.4096-0.4096 1.024-0.2048 1.4336 5.12 9.216 9.216 18.8416 12.0832 29.0816 0.2048 0.6144 0.6144 1.024 1.2288 1.024h6.5536c12.0832 0 21.7088 9.8304 21.7088 21.7088V817.152c0 12.0832-9.8304 21.7088-21.7088 21.7088h-6.5536c-0.6144 0-1.024 0.6144-1.2288 1.024-2.8672 10.0352-6.7584 19.8656-12.0832 28.8768-0.2048 0.4096-0.2048 1.024 0.2048 1.4336l4.7104 4.7104c8.3968 8.3968 8.3968 22.3232 0 30.72l-15.36 15.36c-8.3968 8.3968-22.3232 8.3968-30.72 0l-4.7104-4.7104c-0.4096-0.4096-1.024-0.6144-1.4336-0.2048-9.216 5.12-18.8416 9.216-28.8768 12.0832-0.6144 0.2048-1.024 0.6144-1.024 1.2288v6.5536c0 12.0832-9.6256 21.9136-21.7088 21.9136z m-73.9328-62.2592c3.6864 0 7.3728 0.8192 10.6496 2.8672 7.5776 4.3008 15.7696 7.7824 24.1664 10.0352 9.4208 2.6624 16.1792 11.264 16.1792 21.0944v6.5536c0 0.6144 0.6144 1.2288 1.2288 1.2288h21.7088c0.6144 0 1.2288-0.6144 1.2288-1.2288v-6.5536c0-9.8304 6.5536-18.432 16.1792-21.0944 8.3968-2.2528 16.5888-5.7344 24.1664-10.0352 8.3968-4.9152 19.0464-3.2768 26.0096 3.4816l4.7104 4.7104c0.4096 0.4096 1.2288 0.4096 1.8432 0l15.36-15.36c0.4096-0.4096 0.4096-1.2288 0-1.8432l-4.7104-4.7104c-6.9632-6.9632-8.3968-17.6128-3.4816-26.0096 4.3008-7.5776 7.7824-15.7696 10.0352-24.1664 2.6624-9.4208 11.264-16.1792 21.0944-16.1792h6.5536c0.6144 0 1.2288-0.6144 1.2288-1.2288v-21.7088c0-0.6144-0.6144-1.2288-1.2288-1.2288h-6.5536c-9.8304 0-18.432-6.5536-21.0944-16.1792-2.2528-8.3968-5.7344-16.5888-10.0352-24.1664-4.7104-8.3968-3.2768-19.0464 3.4816-26.0096l4.7104-4.7104c0.4096-0.4096 0.4096-1.2288 0-1.8432l-15.36-15.36c-0.4096-0.4096-1.2288-0.4096-1.8432 0l-4.7104 4.7104c-6.9632 6.9632-17.6128 8.3968-26.0096 3.4816-7.5776-4.3008-15.7696-7.7824-24.1664-10.0352-9.4208-2.6624-16.1792-11.264-16.1792-21.0944v-6.5536c0-0.6144-0.6144-1.2288-1.2288-1.2288h-21.7088c-0.6144 0-1.2288 0.6144-1.2288 1.2288v6.5536c0 9.8304-6.5536 18.432-16.1792 21.0944-8.3968 2.2528-16.5888 5.7344-24.1664 10.0352-8.3968 4.7104-19.0464 3.2768-26.0096-3.4816l-4.7104-4.7104c-0.4096-0.4096-1.2288-0.4096-1.8432 0l-15.36 15.36c-0.4096 0.4096-0.4096 1.2288 0 1.8432l4.7104 4.7104c6.9632 6.9632 8.3968 17.6128 3.4816 26.0096-4.3008 7.5776-7.7824 15.7696-10.0352 24.1664-2.6624 9.4208-11.264 16.1792-21.0944 16.1792h-6.5536c-0.6144 0-1.2288 0.6144-1.2288 1.2288V817.152c0 0.6144 0.6144 1.2288 1.2288 1.2288h6.5536c9.8304 0 18.432 6.5536 21.0944 16.1792 2.2528 8.3968 5.7344 16.5888 10.0352 24.1664 4.7104 8.3968 3.2768 19.0464-3.4816 26.0096l-4.7104 4.7104c-0.4096 0.4096-0.4096 1.2288 0 1.8432l15.36 15.36c0.4096 0.4096 1.2288 0.4096 1.8432 0l4.7104-4.7104c4.096-4.3008 9.6256-6.3488 15.36-6.3488z" fill="#1C1D21" p-id="6880"></path><path d="M512 806.2976m-60.2112 0a60.2112 60.2112 0 1 0 120.4224 0 60.2112 60.2112 0 1 0-120.4224 0Z" fill="#FF8939" p-id="6881"></path><path d="M512 876.7488c-38.912 0-70.4512-31.5392-70.4512-70.4512s31.5392-70.4512 70.4512-70.4512 70.4512 31.5392 70.4512 70.4512-31.5392 70.4512-70.4512 70.4512z m0-120.6272c-27.648 0-49.9712 22.528-49.9712 49.9712 0 27.648 22.528 49.9712 49.9712 49.9712s49.9712-22.528 49.9712-49.9712c0-27.4432-22.3232-49.9712-49.9712-49.9712z" fill="#1C1D21" p-id="6882"></path></svg>