<svg xmlns="http://www.w3.org/2000/svg" viewBox="0 0 1024 1024" version="1.1"><path d="M512 512m-501.76 0a501.76 501.76 0 1 0 1003.52 0 501.76 501.76 0 1 0-1003.52 0Z" fill="#508DEF" p-id="6663"></path><path d="M391.9872 399.36v-106.496h-108.9536v106.496c-63.2832 0-114.688 51.4048-114.688 114.688v363.52c88.6784 83.3536 207.4624 134.7584 338.3296 136.192V514.048c0-63.2832-51.4048-114.688-114.688-114.688z" fill="#FFECE9" p-id="6664"></path><path d="M323.9936 346.112c-5.7344 0-10.24-4.5056-10.24-10.24v-2.048c0-5.7344 4.5056-10.24 10.24-10.24s10.24 4.5056 10.24 10.24v2.048c0 5.7344-4.7104 10.24-10.24 10.24zM209.3056 869.5808c-5.7344 0-10.24-4.5056-10.24-10.24V514.048c0-46.2848 37.6832-83.968 83.968-83.968h30.72v-57.344c0-5.7344 4.5056-10.24 10.24-10.24s10.24 4.5056 10.24 10.24v67.584c0 5.7344-4.5056 10.24-10.24 10.24h-40.96c-35.0208 0-63.488 28.4672-63.488 63.488v345.2928c0 5.7344-4.7104 10.24-10.24 10.24z" fill="#FFFFFF" p-id="6665"></path><path d="M512 1024c-136.8064 0-265.4208-53.248-362.0864-149.9136C53.248 777.4208 0 648.8064 0 512S53.248 246.5792 149.9136 149.9136C246.5792 53.248 375.1936 0 512 0s265.4208 53.248 362.0864 149.9136C970.752 246.5792 1024 375.1936 1024 512s-53.248 265.4208-149.9136 362.0864C777.4208 970.752 648.8064 1024 512 1024z m0-1003.52C241.0496 20.48 20.48 241.0496 20.48 512s220.5696 491.52 491.52 491.52 491.52-220.5696 491.52-491.52S782.9504 20.48 512 20.48z" fill="#1C1D21" p-id="6666"></path><path d="M392.6016 292.864h-110.3872c-7.9872 0-14.336-6.3488-14.336-14.336v-49.152c0-7.9872 6.3488-14.336 14.336-14.336h110.3872c7.9872 0 14.336 6.3488 14.336 14.336v49.152c0 7.9872-6.3488 14.336-14.336 14.336z" fill="#C67552" p-id="6667"></path><path d="M506.6752 1024s-0.2048 0 0 0c-129.024-1.4336-251.4944-50.7904-345.2928-139.0592-2.048-1.8432-3.2768-4.7104-3.2768-7.3728V514.048c0-65.536 50.5856-119.1936 114.688-124.5184V292.864c0-5.7344 4.5056-10.24 10.24-10.24h108.9536c5.7344 0 10.24 4.5056 10.24 10.24v96.6656c64.1024 5.3248 114.688 58.9824 114.688 124.5184v499.712c0 2.6624-1.024 5.3248-3.072 7.3728-1.8432 1.6384-4.5056 2.8672-7.168 2.8672zM178.5856 873.0624c87.04 80.4864 199.4752 126.5664 317.8496 130.2528V514.048c0-57.5488-46.8992-104.448-104.448-104.448-5.7344 0-10.24-4.5056-10.24-10.24v-96.256h-88.4736v96.256c0 5.7344-4.5056 10.24-10.24 10.24-57.5488 0-104.448 46.8992-104.448 104.448v359.0144z" fill="#1C1D21" p-id="6668"></path><path d="M478.4128 545.3824c-15.5648 0-28.2624-12.6976-28.2624-28.2624 0 15.5648-12.6976 28.2624-28.2624 28.2624s-28.2624-12.6976-28.2624-28.2624c0 15.5648-12.6976 28.2624-28.2624 28.2624s-28.2624-12.6976-28.2624-28.2624c0 15.5648-12.6976 28.2624-28.2624 28.2624-15.5648 0-28.2624-12.6976-28.2624-28.2624 0 15.5648-12.6976 28.2624-28.2624 28.2624-15.5648 0-28.2624-12.6976-28.2624-28.2624 0 15.5648-12.6976 28.2624-28.2624 28.2624s-28.2624-12.6976-28.2624-28.2624v360.448c88.6784 83.3536 207.4624 134.7584 338.3296 136.192V517.12c0.8192 15.5648-11.8784 28.2624-27.4432 28.2624z" fill="#FF8939" p-id="6669"></path><path d="M209.3056 647.168c-5.7344 0-10.24-4.5056-10.24-10.24v-94.6176c0-5.7344 4.5056-10.24 10.24-10.24s10.24 4.5056 10.24 10.24V636.928c0 5.7344-4.7104 10.24-10.24 10.24zM209.3056 869.5808c-5.7344 0-10.24-4.5056-10.24-10.24V815.104c0-5.7344 4.5056-10.24 10.24-10.24s10.24 4.5056 10.24 10.24v44.2368c0 5.7344-4.7104 10.24-10.24 10.24z" fill="#FFC9A4" p-id="6670"></path><path d="M506.6752 1024s-0.2048 0 0 0c-129.024-1.4336-251.4944-50.7904-345.2928-139.0592-2.048-1.8432-3.2768-4.7104-3.2768-7.3728v-360.448c0-5.7344 4.5056-10.24 10.24-10.24s10.24 4.5056 10.24 10.24c0 9.8304 7.9872 18.0224 18.0224 18.0224 9.8304 0 18.0224-7.9872 18.0224-18.0224 0-5.7344 4.5056-10.24 10.24-10.24s10.24 4.5056 10.24 10.24c0 9.8304 7.9872 18.0224 18.0224 18.0224 9.8304 0 18.0224-7.9872 18.0224-18.0224 0-5.7344 4.5056-10.24 10.24-10.24s10.24 4.5056 10.24 10.24c0 9.8304 7.9872 18.0224 18.0224 18.0224 9.8304 0 18.0224-7.9872 18.0224-18.0224 0-5.7344 4.5056-10.24 10.24-10.24s10.24 4.5056 10.24 10.24c0 9.8304 7.9872 18.0224 18.0224 18.0224 9.8304 0 18.0224-7.9872 18.0224-18.0224 0-5.7344 4.5056-10.24 10.24-10.24s10.24 4.5056 10.24 10.24c0 9.8304 7.9872 18.0224 18.0224 18.0224 9.8304 0 18.0224-7.9872 18.0224-18.0224 0-5.7344 4.5056-10.24 10.24-10.24s10.24 4.5056 10.24 10.24c0 9.8304 7.9872 18.0224 18.0224 18.0224 9.8304 0 18.0224-7.9872 18.0224-18.0224 0-4.3008 2.6624-8.192 6.5536-9.6256 4.096-1.4336 8.6016-0.4096 11.264 2.8672 1.6384 1.8432 2.6624 4.3008 2.6624 6.7584V1013.76c0 2.6624-1.024 5.3248-3.072 7.3728-2.6624 1.6384-5.3248 2.8672-7.9872 2.8672zM178.5856 873.0624c87.04 80.4864 199.4752 126.5664 317.8496 130.2528V551.1168c-5.3248 2.8672-11.4688 4.5056-18.0224 4.5056-11.0592 0-21.0944-4.7104-28.2624-12.288-6.9632 7.5776-16.9984 12.288-28.2624 12.288-11.0592 0-21.0944-4.7104-28.2624-12.288-6.9632 7.5776-16.9984 12.288-28.2624 12.288-11.0592 0-21.0944-4.7104-28.2624-12.288-6.9632 7.5776-16.9984 12.288-28.2624 12.288-11.0592 0-21.0944-4.7104-28.2624-12.288-6.9632 7.5776-16.9984 12.288-28.2624 12.288-11.0592 0-21.0944-4.7104-28.2624-12.288-6.9632 7.5776-16.9984 12.288-28.2624 12.288-6.5536 0-12.4928-1.6384-18.0224-4.5056v321.9456zM392.6016 303.104h-110.3872c-13.5168 0-24.576-11.0592-24.576-24.576v-49.152c0-13.5168 11.0592-24.576 24.576-24.576h110.3872c13.5168 0 24.576 11.0592 24.576 24.576v49.152c0 13.5168-11.0592 24.576-24.576 24.576z m-110.3872-77.824c-2.2528 0-4.096 1.8432-4.096 4.096v49.152c0 2.2528 1.8432 4.096 4.096 4.096h110.3872c2.2528 0 4.096-1.8432 4.096-4.096v-49.152c0-2.2528-1.8432-4.096-4.096-4.096h-110.3872z" fill="#1C1D21" p-id="6671"></path><path d="M168.3456 636.928h338.3296v176.128H168.3456z" fill="#AAADAD" p-id="6672"></path><path d="M209.3056 825.344c-5.7344 0-10.24-4.5056-10.24-10.24v-184.32c0-5.7344 4.5056-10.24 10.24-10.24s10.24 4.5056 10.24 10.24v184.32c0 5.7344-4.7104 10.24-10.24 10.24z" fill="#E0E0E0" p-id="6673"></path><path d="M506.6752 823.296H168.3456c-5.7344 0-10.24-4.5056-10.24-10.24v-176.128c0-5.7344 4.5056-10.24 10.24-10.24h338.3296c5.7344 0 10.24 4.5056 10.24 10.24v176.128c0 5.7344-4.7104 10.24-10.24 10.24zM178.5856 802.816h317.8496v-155.648H178.5856v155.648z" fill="#1C1D21" p-id="6674"></path><path d="M771.6864 863.232L707.1744 823.296c-25.6-15.7696-40.96-43.6224-40.96-73.5232v-8.192c0-14.5408 8.6016-27.4432 21.7088-33.5872 55.9104-26.2144 94.6176-83.1488 94.6176-149.0944v-76.3904c0-90.9312-73.728-164.6592-164.6592-164.6592-90.9312 0-164.6592 73.728-164.6592 164.6592v76.3904c0 65.9456 38.7072 122.6752 94.6176 149.0944 13.1072 6.144 21.7088 19.0464 21.7088 33.5872v8.192c0 29.9008-15.5648 57.7536-40.96 73.5232l-64.512 39.936c-47.3088 29.2864-77.824 78.6432-83.1488 133.3248 41.7792 11.264 85.8112 17.408 131.2768 17.408 116.3264 0 223.232-39.5264 308.4288-105.8816-13.312-17.8176-29.9008-32.9728-48.9472-44.8512z" fill="#FFC5B3" p-id="6675"></path><path d="M432.5376 555.6224h20.8896v-87.04h-20.8896c-21.9136 0-39.5264 17.6128-39.5264 39.5264v7.9872c-0.2048 21.7088 17.6128 39.5264 39.5264 39.5264zM804.4544 555.6224h-20.8896v-87.04h20.8896c21.9136 0 39.5264 17.6128 39.5264 39.5264v7.9872c0 21.7088-17.6128 39.5264-39.5264 39.5264z" fill="#FFC5B3" p-id="6676"></path><path d="M453.2224 565.8624h-20.8896c-27.4432 0-49.7664-22.3232-49.7664-49.7664v-7.9872c0-27.4432 22.3232-49.7664 49.7664-49.7664h20.8896c5.7344 0 10.24 4.5056 10.24 10.24v87.04c0 5.5296-4.5056 10.24-10.24 10.24z m-20.6848-87.04c-16.1792 0-29.2864 13.1072-29.2864 29.2864v7.9872c0 16.1792 13.1072 29.2864 29.2864 29.2864h10.6496v-66.56h-10.6496zM804.4544 565.8624h-20.8896c-5.7344 0-10.24-4.5056-10.24-10.24v-87.04c0-5.7344 4.5056-10.24 10.24-10.24h20.8896c27.4432 0 49.7664 22.3232 49.7664 49.7664v7.9872c0 27.4432-22.3232 49.7664-49.7664 49.7664z m-10.6496-20.48h10.6496c16.1792 0 29.2864-13.1072 29.2864-29.2864v-7.9872c0-16.1792-13.1072-29.2864-29.2864-29.2864h-10.6496v66.56z" fill="#1C1D21" p-id="6677"></path><path d="M512 1024c-45.2608 0-90.3168-5.9392-133.9392-17.8176-4.9152-1.2288-7.9872-5.9392-7.5776-10.8544 5.7344-57.7536 38.7072-110.3872 88.064-140.9024l64.512-39.936c22.7328-13.9264 36.2496-38.2976 36.2496-64.9216v-8.192c0-10.4448-6.144-19.6608-15.7696-24.3712-61.0304-28.672-100.5568-90.9312-100.5568-158.3104v-76.3904c0-96.4608 78.4384-174.8992 174.8992-174.8992 46.6944 0 90.7264 18.2272 123.6992 51.2s51.2 77.0048 51.2 123.6992v76.3904c0 67.3792-39.5264 129.6384-100.5568 158.3104-9.8304 4.5056-15.7696 13.9264-15.7696 24.3712v8.192c0 26.624 13.5168 50.9952 36.2496 64.9216l64.512 39.936c20.0704 12.4928 37.4784 28.2624 51.6096 47.3088 3.2768 4.5056 2.4576 10.8544-1.8432 14.1312C736.0512 986.5216 627.3024 1024 512 1024z m-120.0128-35.2256c39.1168 9.8304 79.4624 14.7456 120.0128 14.7456 107.1104 0 208.4864-33.5872 293.888-97.4848-11.264-13.312-24.576-24.7808-39.7312-34.2016l-64.512-39.936c-28.672-17.8176-45.8752-48.5376-45.8752-82.3296v-8.192c0-18.2272 10.8544-35.0208 27.648-42.8032 53.8624-25.3952 88.6784-80.2816 88.6784-139.8784v-76.3904c0-41.1648-15.9744-80.0768-45.2608-109.1584-29.0816-29.0816-67.9936-45.2608-109.1584-45.2608-85.1968 0-154.4192 69.2224-154.4192 154.4192v76.3904c0 59.5968 34.816 114.4832 88.6784 139.8784 16.7936 7.9872 27.648 24.7808 27.648 42.8032v8.192c0 33.792-17.2032 64.512-45.8752 82.3296l-64.512 39.936c-41.3696 25.6-69.8368 68.8128-77.2096 116.9408z" fill="#1C1D21" p-id="6678"></path><path d="M771.6864 863.232l-44.032-27.2384c-34.4064 11.8784-71.2704 18.432-109.7728 18.432-38.5024 0-75.3664-6.5536-109.7728-18.432l-44.032 27.2384c-47.3088 29.2864-77.824 78.6432-83.1488 133.3248 41.7792 11.264 85.8112 17.408 131.2768 17.408 116.3264 0 223.232-39.5264 308.4288-105.8816-13.312-17.8176-29.9008-32.9728-48.9472-44.8512z" fill="#FF3E63" p-id="6679"></path><path d="M512 1024c-45.2608 0-90.3168-5.9392-133.9392-17.8176-4.9152-1.2288-7.9872-5.9392-7.5776-10.8544 5.7344-57.7536 38.7072-110.3872 88.064-140.9024l44.032-27.2384c2.6624-1.6384 5.7344-2.048 8.8064-1.024 34.2016 11.8784 70.0416 17.8176 106.496 17.8176 36.4544 0 72.2944-5.9392 106.496-17.8176 2.8672-1.024 6.144-0.6144 8.8064 1.024l44.032 27.2384c20.0704 12.4928 37.4784 28.2624 51.6096 47.3088 3.2768 4.5056 2.4576 10.8544-1.8432 14.1312C736.0512 986.5216 627.3024 1024 512 1024z m-120.0128-35.2256c39.1168 9.8304 79.4624 14.7456 120.0128 14.7456 107.1104 0 208.4864-33.5872 293.888-97.4848-11.264-13.312-24.576-24.7808-39.7312-34.2016l-39.936-24.576c-35.0208 11.6736-71.4752 17.408-108.544 17.408s-73.5232-5.9392-108.544-17.408l-39.936 24.576c-41.3696 25.6-69.8368 68.8128-77.2096 116.9408z" fill="#1C1D21" p-id="6680"></path><path d="M453.8368 468.5824H524.288c52.0192 0 94.208-42.1888 94.208-94.208l-0.6144-56.32c-86.2208-0.2048-156.8768 66.1504-164.0448 150.528z" fill="#AA4D2D" p-id="6681"></path><path d="M618.496 317.8496l-0.6144 56.32c0 52.0192 42.1888 94.208 94.208 94.208h69.8368c-7.168-83.968-77.6192-150.1184-163.4304-150.528z" fill="#AA4D2D" p-id="6682"></path><path d="M524.0832 478.8224h-70.4512c-2.8672 0-5.5296-1.2288-7.5776-3.2768s-2.8672-4.9152-2.6624-7.7824c3.6864-43.4176 23.3472-83.7632 55.7056-113.664 32.3584-29.9008 74.5472-46.4896 118.5792-46.4896 5.5296 0 10.24 4.5056 10.24 10.0352l0.6144 56.32c0.2048 57.9584-46.6944 104.8576-104.448 104.8576z m-58.7776-20.48h58.7776c46.2848 0 83.968-37.6832 83.968-83.968l-0.6144-45.6704c-71.0656 4.5056-130.8672 58.9824-142.1312 129.6384z" fill="#1C1D21" p-id="6683"></path><path d="M781.9264 478.8224h-69.8368c-57.5488 0-104.448-46.8992-104.448-104.448l0.6144-56.32c0-5.5296 4.7104-10.0352 10.24-10.0352 44.032 0.2048 86.016 16.7936 118.1696 46.4896 31.9488 29.696 51.8144 70.0416 55.5008 113.4592 0.2048 2.8672-0.8192 5.7344-2.6624 7.7824s-4.7104 3.072-7.5776 3.072z m-153.3952-150.3232l-0.6144 45.8752c0 46.2848 37.6832 83.968 83.968 83.968H770.048c-10.8544-71.4752-69.2224-124.928-141.5168-129.8432z" fill="#1C1D21" p-id="6684"></path><path d="M758.784 383.1808m-40.7552 0a40.7552 40.7552 0 1 0 81.5104 0 40.7552 40.7552 0 1 0-81.5104 0Z" fill="#8CEEF9" p-id="6685"></path><path d="M848.6912 277.0944m-40.7552 0a40.7552 40.7552 0 1 0 81.5104 0 40.7552 40.7552 0 1 0-81.5104 0Z" fill="#8CEEF9" p-id="6686"></path><path d="M613.5808 183.0912m-56.32 0a56.32 56.32 0 1 0 112.64 0 56.32 56.32 0 1 0-112.64 0Z" fill="#8CEEF9" p-id="6687"></path><path d="M758.784 434.176c-28.0576 0-50.9952-22.9376-50.9952-50.9952s22.9376-50.9952 50.9952-50.9952 50.9952 22.9376 50.9952 50.9952-22.9376 50.9952-50.9952 50.9952z m0-81.5104c-16.7936 0-30.5152 13.7216-30.5152 30.5152s13.7216 30.5152 30.5152 30.5152 30.5152-13.7216 30.5152-30.5152-13.7216-30.5152-30.5152-30.5152zM848.6912 328.0896c-28.0576 0-50.9952-22.9376-50.9952-50.9952s22.9376-50.9952 50.9952-50.9952 50.9952 22.9376 50.9952 50.9952-22.9376 50.9952-50.9952 50.9952z m0-81.5104c-16.7936 0-30.5152 13.7216-30.5152 30.5152s13.7216 30.5152 30.5152 30.5152 30.5152-13.7216 30.5152-30.5152-13.7216-30.5152-30.5152-30.5152zM613.5808 249.4464c-36.6592 0-66.56-29.9008-66.56-66.56s29.9008-66.56 66.56-66.56 66.56 29.9008 66.56 66.56-29.9008 66.56-66.56 66.56z m0-112.4352c-25.3952 0-46.08 20.6848-46.08 46.08s20.6848 46.08 46.08 46.08 46.08-20.6848 46.08-46.08-20.6848-46.08-46.08-46.08zM910.7456 434.176c-5.7344 0-10.24-4.5056-10.24-10.24v-42.5984c0-5.7344 4.5056-10.24 10.24-10.24s10.24 4.5056 10.24 10.24V423.936c0 5.7344-4.5056 10.24-10.24 10.24z" fill="#1C1D21" p-id="6688"></path><path d="M932.0448 412.8768h-42.5984c-5.7344 0-10.24-4.5056-10.24-10.24s4.5056-10.24 10.24-10.24h42.5984c5.7344 0 10.24 4.5056 10.24 10.24s-4.5056 10.24-10.24 10.24zM512 308.6336c-5.7344 0-10.24-4.5056-10.24-10.24v-42.5984c0-5.7344 4.5056-10.24 10.24-10.24s10.24 4.5056 10.24 10.24v42.5984c0 5.7344-4.5056 10.24-10.24 10.24z" fill="#1C1D21" p-id="6689"></path><path d="M533.2992 287.3344h-42.5984c-5.7344 0-10.24-4.5056-10.24-10.24s4.5056-10.24 10.24-10.24h42.5984c5.7344 0 10.24 4.5056 10.24 10.24s-4.5056 10.24-10.24 10.24zM753.2544 214.6304c-5.7344 0-10.24-4.5056-10.24-10.24V161.792c0-5.7344 4.5056-10.24 10.24-10.24s10.24 4.5056 10.24 10.24v42.5984c0 5.5296-4.7104 10.24-10.24 10.24z" fill="#1C1D21" p-id="6690"></path><path d="M774.5536 193.3312h-42.5984c-5.7344 0-10.24-4.5056-10.24-10.24s4.5056-10.24 10.24-10.24h42.5984c5.7344 0 10.24 4.5056 10.24 10.24s-4.7104 10.24-10.24 10.24z" fill="#1C1D21" p-id="6691"></path><path d="M618.496 665.8048c-14.1312 0-25.3952-11.4688-25.3952-25.3952V612.352c0-14.1312 11.4688-25.3952 25.3952-25.3952 14.1312 0 25.3952 11.4688 25.3952 25.3952v27.8528c0 14.336-11.4688 25.6-25.3952 25.6z" fill="#FFAEC3" p-id="6692"></path><path d="M618.496 676.0448c-19.6608 0-35.6352-15.9744-35.6352-35.6352V612.352c0-19.6608 15.9744-35.6352 35.6352-35.6352s35.6352 15.9744 35.6352 35.6352v27.8528c0 19.8656-15.9744 35.84-35.6352 35.84z m0-78.848c-8.3968 0-15.1552 6.7584-15.1552 15.1552v27.8528c0 8.3968 6.7584 15.1552 15.1552 15.1552s15.1552-6.7584 15.1552-15.1552V612.352c0-8.3968-6.7584-15.1552-15.1552-15.1552z" fill="#1C1D21" p-id="6693"></path></svg>