<svg xmlns="http://www.w3.org/2000/svg" viewBox="0 0 1024 1024" version="1.1"><path d="M512 512m-501.76 0a501.76 501.76 0 1 0 1003.52 0 501.76 501.76 0 1 0-1003.52 0Z" fill="#8CEEF9" p-id="7145"></path><path d="M567.7056 464.896h-111.8208v-38.5024c0-11.264 9.216-20.48 20.48-20.48h70.8608c11.264 0 20.48 9.216 20.48 20.48V464.896zM654.336 464.896H369.4592c-11.264 0-20.48 9.216-20.48 20.48v21.504c0 11.264 9.216 20.48 20.48 20.48h284.8768c11.264 0 20.48-9.216 20.48-20.48V485.376c0-11.264-9.216-20.48-20.48-20.48zM386.8672 527.36H636.928v321.9456H386.8672z" fill="#AAADAD" p-id="7146"></path><path d="M512 1024c-136.8064 0-265.4208-53.248-362.0864-149.9136C53.248 777.4208 0 648.8064 0 512S53.248 246.5792 149.9136 149.9136C246.5792 53.248 375.1936 0 512 0s265.4208 53.248 362.0864 149.9136C970.752 246.5792 1024 375.1936 1024 512s-53.248 265.4208-149.9136 362.0864C777.4208 970.752 648.8064 1024 512 1024z m0-1003.52C241.0496 20.48 20.48 241.0496 20.48 512s220.5696 491.52 491.52 491.52 491.52-220.5696 491.52-491.52S782.9504 20.48 512 20.48z" fill="#1C1D21" p-id="7147"></path><path d="M140.4928 849.3056C232.2432 950.272 364.7488 1013.76 512 1013.76s279.7568-63.488 371.5072-164.4544H140.4928z" fill="#C67552" p-id="7148"></path><path d="M512 1024c-73.5232 0-144.384-15.1552-210.7392-45.2608-64.1024-29.0816-120.832-70.2464-168.3456-122.6752-2.6624-3.072-3.4816-7.3728-1.8432-11.0592 1.6384-3.6864 5.3248-6.144 9.4208-6.144h743.0144c4.096 0 7.7824 2.4576 9.4208 6.144 1.6384 3.6864 1.024 7.9872-1.8432 11.0592-47.5136 52.4288-104.2432 93.5936-168.3456 122.6752-66.3552 30.1056-137.216 45.2608-210.7392 45.2608zM164.4544 859.5456c91.7504 91.7504 217.088 143.9744 347.5456 143.9744s255.7952-52.224 347.5456-143.9744H164.4544z" fill="#1C1D21" p-id="7149"></path><path d="M450.9696 170.3936v65.7408c0 30.9248 24.9856 55.9104 55.9104 55.9104h10.0352c30.9248 0 55.9104-24.9856 55.9104-55.9104V170.3936h-121.856z" fill="#FF8939" p-id="7150"></path><path d="M516.9152 302.2848h-10.0352c-36.4544 0-66.1504-29.696-66.1504-66.1504v-10.0352c0-5.7344 4.5056-10.24 10.24-10.24s10.24 4.5056 10.24 10.24v10.0352c0 25.1904 20.48 45.6704 45.6704 45.6704h10.0352c25.1904 0 45.6704-20.48 45.6704-45.6704V180.6336h-101.1712V188.416c0 5.7344-4.5056 10.24-10.24 10.24s-10.24-4.5056-10.24-10.24v-18.0224c0-5.7344 4.5056-10.24 10.24-10.24h121.6512c5.7344 0 10.24 4.5056 10.24 10.24v65.7408c0 36.4544-29.696 66.1504-66.1504 66.1504z" fill="#1C1D21" p-id="7151"></path><path d="M511.7952 416.1536c-5.7344 0-10.24-4.5056-10.24-10.24v-113.8688c0-5.7344 4.5056-10.24 10.24-10.24s10.24 4.5056 10.24 10.24v113.8688c0 5.7344-4.5056 10.24-10.24 10.24zM482.5088 180.6336c-5.7344 0-10.24-4.5056-10.24-10.24V131.6864c0-5.7344 4.5056-10.24 10.24-10.24s10.24 4.5056 10.24 10.24v38.7072c0 5.7344-4.5056 10.24-10.24 10.24zM541.2864 180.6336c-5.7344 0-10.24-4.5056-10.24-10.24V131.6864c0-5.7344 4.5056-10.24 10.24-10.24s10.24 4.5056 10.24 10.24v38.7072c0 5.7344-4.7104 10.24-10.24 10.24z" fill="#1C1D21" p-id="7152"></path><path d="M512 626.0736c-37.4784 17.6128-62.8736 50.3808-62.8736 88.064s25.1904 70.4512 62.8736 88.064c37.4784-17.6128 62.8736-50.3808 62.8736-88.064s-25.3952-70.4512-62.8736-88.064z" fill="#0ABFB2" p-id="7153"></path><path d="M512 591.872c-5.7344 0-10.24-4.5056-10.24-10.24v-54.272c0-5.7344 4.5056-10.24 10.24-10.24s10.24 4.5056 10.24 10.24V581.632c0 5.7344-4.5056 10.24-10.24 10.24zM512 859.5456c-5.7344 0-10.24-4.5056-10.24-10.24V627.3024c0-5.7344 4.5056-10.24 10.24-10.24s10.24 4.5056 10.24 10.24v222.0032c0 5.5296-4.5056 10.24-10.24 10.24zM449.1264 623.616c-5.7344 0-10.24-4.5056-10.24-10.24v-86.016c0-5.7344 4.5056-10.24 10.24-10.24s10.24 4.5056 10.24 10.24v86.016c0 5.7344-4.5056 10.24-10.24 10.24zM574.8736 623.616c-5.7344 0-10.24-4.5056-10.24-10.24v-86.016c0-5.7344 4.5056-10.24 10.24-10.24s10.24 4.5056 10.24 10.24v86.016c0 5.7344-4.7104 10.24-10.24 10.24zM449.1264 859.5456c-5.7344 0-10.24-4.5056-10.24-10.24V808.96c0-5.7344 4.5056-10.24 10.24-10.24s10.24 4.5056 10.24 10.24v40.3456c0 5.5296-4.5056 10.24-10.24 10.24zM574.8736 859.5456c-5.7344 0-10.24-4.5056-10.24-10.24V808.96c0-5.7344 4.5056-10.24 10.24-10.24s10.24 4.5056 10.24 10.24v40.3456c0 5.5296-4.7104 10.24-10.24 10.24zM567.7056 475.136h-111.8208c-5.7344 0-10.24-4.5056-10.24-10.24v-38.5024c0-16.9984 13.7216-30.72 30.72-30.72h70.8608c16.9984 0 30.72 13.7216 30.72 30.72V464.896c0 5.5296-4.5056 10.24-10.24 10.24z m-101.376-20.48h91.3408v-28.2624c0-5.7344-4.5056-10.24-10.24-10.24h-70.8608c-5.7344 0-10.24 4.5056-10.24 10.24V454.656z" fill="#1C1D21" p-id="7154"></path><path d="M654.336 537.6H369.4592c-16.9984 0-30.72-13.7216-30.72-30.72V485.376c0-16.9984 13.7216-30.72 30.72-30.72h284.8768c16.9984 0 30.72 13.7216 30.72 30.72v21.504c0 16.7936-13.7216 30.72-30.72 30.72zM369.4592 475.136c-5.7344 0-10.24 4.5056-10.24 10.24v21.504c0 5.7344 4.5056 10.24 10.24 10.24h284.8768c5.7344 0 10.24-4.5056 10.24-10.24V485.376c0-5.7344-4.5056-10.24-10.24-10.24H369.4592z" fill="#1C1D21" p-id="7155"></path><path d="M636.928 859.5456H386.8672c-5.7344 0-10.24-4.5056-10.24-10.24V527.36c0-5.7344 4.5056-10.24 10.24-10.24H636.928c5.7344 0 10.24 4.5056 10.24 10.24v321.9456c0 5.5296-4.5056 10.24-10.24 10.24z m-239.8208-20.48H626.688V537.6H397.1072v301.4656z" fill="#1C1D21" p-id="7156"></path><path d="M512 812.4416c-1.4336 0-3.072-0.4096-4.3008-1.024-42.3936-19.8656-68.608-57.1392-68.608-97.4848s26.4192-77.6192 68.608-97.4848c2.6624-1.2288 5.9392-1.2288 8.6016 0 42.3936 19.8656 68.608 57.1392 68.608 97.4848s-26.4192 77.6192-68.608 97.4848c-1.2288 0.8192-2.8672 1.024-4.3008 1.024z m0-175.104c-32.5632 16.7936-52.6336 45.8752-52.6336 76.8s20.0704 59.8016 52.6336 76.8c32.5632-16.7936 52.6336-45.8752 52.6336-76.8s-20.0704-59.8016-52.6336-76.8z" fill="#1C1D21" p-id="7157"></path><path d="M512 742.1952c-2.4576 0-5.12-0.8192-6.9632-2.8672L450.56 688.128c-4.096-3.8912-4.3008-10.4448-0.4096-14.5408 3.8912-4.096 10.4448-4.3008 14.5408-0.4096l54.4768 51.2c4.096 3.8912 4.3008 10.4448 0.4096 14.5408-2.048 2.2528-4.9152 3.2768-7.5776 3.2768z" fill="#1C1D21" p-id="7158"></path><path d="M512 742.1952c-2.6624 0-5.5296-1.024-7.3728-3.2768-3.8912-4.096-3.6864-10.6496 0.4096-14.5408l54.4768-51.2c4.096-3.8912 10.6496-3.6864 14.5408 0.4096 3.8912 4.096 3.6864 10.6496-0.4096 14.5408l-54.4768 51.2c-2.048 2.048-4.7104 2.8672-7.168 2.8672z" fill="#1C1D21" p-id="7159"></path><path d="M768.6144 626.0736c-37.4784 17.6128-62.8736 50.3808-62.8736 88.064s25.1904 70.4512 62.8736 88.064c37.4784-17.6128 62.8736-50.3808 62.8736-88.064s-25.1904-70.4512-62.8736-88.064z" fill="#0ABFB2" p-id="7160"></path><path d="M768.6144 859.5456c-5.7344 0-10.24-4.5056-10.24-10.24V627.3024c0-5.7344 4.5056-10.24 10.24-10.24s10.24 4.5056 10.24 10.24v222.0032c0 5.5296-4.5056 10.24-10.24 10.24z" fill="#1C1D21" p-id="7161"></path><path d="M768.6144 812.4416c-1.4336 0-3.072-0.4096-4.3008-1.024-42.3936-19.8656-68.608-57.1392-68.608-97.4848s26.4192-77.6192 68.608-97.4848c2.6624-1.2288 5.9392-1.2288 8.6016 0 42.3936 19.8656 68.608 57.1392 68.608 97.4848s-26.4192 77.6192-68.608 97.4848c-1.2288 0.8192-2.6624 1.024-4.3008 1.024z m0-175.104c-32.5632 16.7936-52.6336 45.8752-52.6336 76.8s20.0704 59.8016 52.6336 76.8c32.5632-16.7936 52.6336-45.8752 52.6336-76.8s-20.0704-59.8016-52.6336-76.8z" fill="#1C1D21" p-id="7162"></path><path d="M768.6144 742.1952c-2.4576 0-5.12-0.8192-6.9632-2.8672l-54.4768-51.2c-4.096-3.8912-4.3008-10.4448-0.4096-14.5408 3.8912-4.096 10.4448-4.3008 14.5408-0.4096l54.4768 51.2c4.096 3.8912 4.3008 10.4448 0.4096 14.5408-2.048 2.2528-4.7104 3.2768-7.5776 3.2768z" fill="#1C1D21" p-id="7163"></path><path d="M768.6144 742.1952c-2.6624 0-5.5296-1.024-7.3728-3.2768-3.8912-4.096-3.6864-10.6496 0.4096-14.5408l54.4768-51.2c4.096-3.8912 10.6496-3.6864 14.5408 0.4096 3.8912 4.096 3.6864 10.6496-0.4096 14.5408l-54.4768 51.2c-2.048 2.048-4.5056 2.8672-7.168 2.8672z" fill="#1C1D21" p-id="7164"></path><path d="M255.3856 626.0736c-37.4784 17.6128-62.8736 50.3808-62.8736 88.064s25.1904 70.4512 62.8736 88.064c37.4784-17.6128 62.8736-50.3808 62.8736-88.064-0.2048-37.6832-25.3952-70.4512-62.8736-88.064z" fill="#0ABFB2" p-id="7165"></path><path d="M255.3856 859.5456c-5.7344 0-10.24-4.5056-10.24-10.24V627.3024c0-5.7344 4.5056-10.24 10.24-10.24s10.24 4.5056 10.24 10.24v222.0032c0 5.5296-4.7104 10.24-10.24 10.24z" fill="#1C1D21" p-id="7166"></path><path d="M255.3856 812.4416c-1.4336 0-3.072-0.4096-4.3008-1.024-42.3936-19.8656-68.608-57.1392-68.608-97.4848s26.4192-77.6192 68.608-97.4848c2.6624-1.2288 5.9392-1.2288 8.6016 0 42.3936 19.8656 68.608 57.1392 68.608 97.4848s-26.4192 77.6192-68.608 97.4848c-1.4336 0.8192-2.8672 1.024-4.3008 1.024z m0-175.104c-32.5632 16.7936-52.6336 45.8752-52.6336 76.8s20.0704 59.8016 52.6336 76.8c32.5632-16.7936 52.6336-45.8752 52.6336-76.8s-20.0704-59.8016-52.6336-76.8z" fill="#1C1D21" p-id="7167"></path><path d="M255.3856 742.1952c-2.4576 0-5.12-0.8192-6.9632-2.8672l-54.4768-51.2c-4.096-3.8912-4.3008-10.4448-0.4096-14.5408 3.8912-4.096 10.4448-4.3008 14.5408-0.4096l54.4768 51.2c4.096 3.8912 4.3008 10.4448 0.4096 14.5408-2.2528 2.2528-4.9152 3.2768-7.5776 3.2768z" fill="#1C1D21" p-id="7168"></path><path d="M255.3856 742.1952c-2.6624 0-5.5296-1.024-7.3728-3.2768-3.8912-4.096-3.6864-10.6496 0.4096-14.5408l54.4768-51.2c4.096-3.8912 10.6496-3.6864 14.5408 0.4096s3.6864 10.6496-0.4096 14.5408l-54.4768 51.2c-2.2528 2.048-4.7104 2.8672-7.168 2.8672z" fill="#1C1D21" p-id="7169"></path></svg>