<svg xmlns="http://www.w3.org/2000/svg" viewBox="0 0 1024 1024" version="1.1"><path d="M512 512m-501.76 0a501.76 501.76 0 1 0 1003.52 0 501.76 501.76 0 1 0-1003.52 0Z" fill="#8CEEF9" p-id="6936"></path><path d="M512 1024c-136.8064 0-265.4208-53.248-362.0864-149.9136S0 648.8064 0 512 53.248 246.5792 149.9136 149.9136 375.1936 0 512 0s265.4208 53.248 362.0864 149.9136S1024 375.1936 1024 512s-53.248 265.4208-149.9136 362.0864S648.8064 1024 512 1024z m0-1003.52C241.0496 20.48 20.48 241.0496 20.48 512s220.5696 491.52 491.52 491.52 491.52-220.5696 491.52-491.52S782.9504 20.48 512 20.48z" fill="#1C1D21" p-id="6937"></path><path d="M512 515.4816m-221.5936 0a221.5936 221.5936 0 1 0 443.1872 0 221.5936 221.5936 0 1 0-443.1872 0Z" fill="#DCFDFF" p-id="6938"></path><path d="M512 515.4816m-163.4304 0a163.4304 163.4304 0 1 0 326.8608 0 163.4304 163.4304 0 1 0-326.8608 0Z" fill="#FF9E5C" p-id="6939"></path><path d="M512 689.152c-95.8464 0-173.6704-77.824-173.6704-173.6704s77.824-173.6704 173.6704-173.6704 173.6704 77.824 173.6704 173.6704-77.824 173.6704-173.6704 173.6704z m0-326.8608c-84.5824 0-153.1904 68.8128-153.1904 153.1904s68.8128 153.1904 153.1904 153.1904 153.1904-68.8128 153.1904-153.1904-68.608-153.1904-153.1904-153.1904zM441.9584 315.392c-4.3008 0-8.192-2.6624-9.6256-6.9632-1.8432-5.3248 1.024-11.264 6.5536-12.9024 3.4816-1.2288 7.168-2.2528 10.8544-3.2768 5.5296-1.4336 11.0592 1.6384 12.6976 7.168 1.4336 5.5296-1.6384 11.0592-7.168 12.6976-3.2768 1.024-6.5536 1.8432-9.8304 3.072-1.2288 0-2.4576 0.2048-3.4816 0.2048zM290.4064 525.7216c-5.7344 0-10.24-4.5056-10.24-10.24 0-3.8912 0-7.9872 0.2048-11.8784 3.8912-77.2096 45.8752-147.0464 112.2304-186.7776 4.9152-2.8672 11.0592-1.4336 14.1312 3.4816 2.8672 4.9152 1.4336 11.0592-3.4816 14.1312-60.416 36.4544-98.7136 100.1472-102.1952 170.3936-0.2048 3.6864-0.2048 7.168-0.2048 10.8544-0.2048 5.3248-4.7104 10.0352-10.4448 10.0352zM300.6464 592.4864c-4.3008 0-8.3968-2.8672-9.8304-7.168-1.2288-4.096-2.4576-8.192-3.4816-12.4928-1.4336-5.5296 1.8432-11.0592 7.3728-12.4928 5.5296-1.4336 11.0592 1.8432 12.4928 7.3728 1.024 3.8912 2.048 7.5776 3.2768 11.264 1.6384 5.3248-1.2288 11.0592-6.7584 12.9024-0.8192 0.6144-2.048 0.6144-3.072 0.6144z" fill="#1C1D21" p-id="6940"></path><path d="M512 747.1104c-76.8 0-148.48-37.888-191.6928-101.5808-3.2768-4.7104-2.048-11.0592 2.6624-14.1312s11.0592-2.048 14.1312 2.6624c39.5264 57.9584 104.8576 92.5696 174.8992 92.5696 116.5312 0 211.3536-94.8224 211.3536-211.3536 0-116.5312-94.8224-211.3536-211.3536-211.3536-5.12 0-10.24 0.2048-15.1552 0.6144-5.7344 0.4096-10.4448-3.8912-10.8544-9.4208-0.4096-5.7344 3.8912-10.4448 9.4208-10.8544 5.5296-0.4096 11.0592-0.6144 16.7936-0.6144 127.7952 0 231.8336 104.0384 231.8336 231.8336S639.7952 747.1104 512 747.1104z" fill="#1C1D21" p-id="6941"></path><path d="M710.4512 399.9744c37.4784-80.896 22.9376-179.8144-43.8272-246.5792-4.3008-4.3008-8.6016-8.3968-13.312-12.0832 60.6208 72.2944 56.9344 180.4288-11.0592 248.4224-13.312 13.312-28.2624 24.1664-44.032 32.5632-1.6384 0.8192-3.072 1.6384-4.7104 2.4576-51.2 25.3952-111.8208 25.3952-163.0208 0-1.6384-0.8192-3.072-1.6384-4.7104-2.4576-15.7696-8.3968-30.72-19.2512-44.032-32.5632-67.9936-67.9936-71.68-175.9232-11.0592-248.4224-4.5056 3.8912-9.0112 7.9872-13.312 12.0832-66.56 66.56-81.3056 165.6832-43.8272 246.5792-113.664 7.5776-203.5712 102.4-203.5712 218.112 0 6.144 0.2048 12.0832 0.8192 18.0224 8.3968-94.0032 87.2448-167.7312 183.5008-167.7312 95.6416 0 174.2848 72.9088 183.296 166.2976 0 1.2288 0.2048 2.6624 0.4096 3.8912 0.4096 4.5056 0.6144 9.216 0.6144 13.9264 0 96.256-73.728 175.104-167.7312 183.5008 5.9392 0.4096 11.8784 0.8192 18.0224 0.8192 76.8 0 144.5888-39.7312 183.5008-99.7376 38.912 60.0064 106.496 99.7376 183.5008 99.7376 6.144 0 12.0832-0.2048 18.0224-0.8192-94.0032-8.3968-167.7312-87.2448-167.7312-183.5008 0-4.7104 0.2048-9.216 0.6144-13.9264 0.2048-1.2288 0.2048-2.6624 0.4096-3.8912 9.0112-93.3888 87.6544-166.2976 183.296-166.2976 96.256 0 175.104 73.728 183.5008 167.7312 0.4096-5.9392 0.8192-11.8784 0.8192-18.0224-0.8192-115.712-90.7264-210.5344-204.3904-218.112z" fill="#FF3E63" p-id="6942"></path><path d="M695.5008 846.848c-72.704 0-140.288-34.2016-183.5008-91.9552-43.2128 57.9584-110.592 91.9552-183.5008 91.9552-6.144 0-12.4928-0.2048-18.8416-0.8192-5.3248-0.4096-9.4208-4.9152-9.4208-10.24s4.096-9.8304 9.4208-10.24c90.3168-7.9872 158.5152-82.5344 158.5152-173.2608 0-4.3008-0.2048-8.8064-0.4096-13.1072-0.2048-1.2288-0.2048-2.4576-0.4096-3.8912-8.6016-89.4976-83.1488-157.0816-173.056-157.0816-90.7264 0-165.2736 68.1984-173.2608 158.5152-0.4096 5.3248-4.9152 9.4208-10.24 9.4208s-9.8304-4.096-10.24-9.4208c-0.6144-6.3488-0.8192-12.6976-0.8192-18.8416 0-115.0976 86.4256-212.1728 199.0656-226.9184-32.5632-83.968-12.6976-180.6336 51.4048-244.9408 4.3008-4.3008 9.0112-8.6016 13.9264-12.6976 4.096-3.4816 10.0352-3.2768 13.9264 0.6144 3.6864 3.6864 4.096 9.8304 0.6144 13.9264-58.1632 69.4272-53.6576 170.3936 10.4448 234.496 12.288 12.288 26.2144 22.7328 41.5744 30.72 1.6384 0.8192 3.072 1.6384 4.7104 2.4576 48.128 23.7568 105.6768 23.7568 153.8048 0 1.6384-0.8192 3.072-1.6384 4.7104-2.4576 15.1552-7.9872 29.2864-18.432 41.5744-30.72 64.1024-64.1024 68.608-165.0688 10.4448-234.496-3.4816-4.096-3.072-10.0352 0.6144-13.9264 3.6864-3.6864 9.8304-3.8912 13.9264-0.6144 4.9152 4.096 9.4208 8.3968 13.9264 12.6976 64.3072 64.3072 84.1728 160.9728 51.4048 244.9408 112.64 14.7456 199.0656 111.616 199.0656 226.9184 0 6.144-0.2048 12.4928-0.8192 18.8416-0.4096 5.3248-4.9152 9.4208-10.24 9.4208s-9.8304-4.096-10.24-9.4208c-7.9872-90.3168-82.5344-158.5152-173.2608-158.5152-90.112 0-164.4544 67.584-173.056 157.0816 0 1.4336-0.2048 2.6624-0.4096 4.096-0.4096 4.096-0.4096 8.6016-0.4096 12.9024 0 90.7264 68.1984 165.2736 158.5152 173.2608 5.3248 0.4096 9.4208 4.9152 9.4208 10.24s-4.096 9.8304-9.4208 10.24c-6.9632 0.6144-13.312 0.8192-19.456 0.8192zM512 726.6304c3.4816 0 6.7584 1.8432 8.6016 4.7104 23.9616 36.864 58.1632 64.512 97.4848 80.2816-11.264-7.9872-21.9136-17.2032-31.3344-27.4432-33.1776-36.0448-51.4048-82.7392-51.4048-131.6864 0-4.9152 0.2048-9.8304 0.6144-14.7456 0.2048-1.4336 0.2048-2.6624 0.4096-3.8912v-0.2048c4.5056-47.9232 26.8288-92.16 62.464-124.7232 35.84-32.768 82.5344-50.7904 131.072-50.7904 48.9472 0 95.6416 18.2272 131.6864 51.4048 10.24 9.4208 19.2512 19.6608 27.2384 30.9248-29.0816-71.8848-97.4848-124.5184-178.9952-130.048-3.2768-0.2048-6.3488-2.048-8.192-4.9152-1.6384-2.8672-1.8432-6.5536-0.4096-9.6256 25.1904-54.272 24.9856-115.9168 2.6624-168.96 2.2528 13.312 3.072 27.0336 2.6624 40.96-2.048 48.7424-22.1184 94.8224-56.7296 129.4336-13.7216 13.7216-29.4912 25.3952-46.4896 34.4064 0 0-0.2048 0-0.2048 0.2048-1.4336 0.8192-2.8672 1.4336-4.5056 2.2528 0 0-0.2048 0-0.2048 0.2048-53.8624 26.624-118.1696 26.624-172.032 0 0 0-0.2048 0-0.2048-0.2048-1.4336-0.8192-2.8672-1.6384-4.5056-2.2528 0 0-0.2048 0-0.2048-0.2048-16.9984-9.0112-32.768-20.6848-46.4896-34.4064-34.6112-34.6112-54.6816-80.4864-56.7296-129.4336-0.6144-13.7216 0.4096-27.4432 2.6624-40.96-22.528 53.248-22.528 114.688 2.6624 168.96 1.4336 3.072 1.2288 6.5536-0.4096 9.6256-1.6384 2.8672-4.7104 4.7104-8.192 4.9152-81.5104 5.5296-149.7088 58.1632-178.9952 130.048 7.7824-11.0592 16.9984-21.504 27.2384-30.9248 36.0448-33.1776 82.7392-51.4048 131.6864-51.4048 48.7424 0 95.232 18.0224 131.072 50.7904 35.6352 32.5632 57.7536 76.8 62.464 124.7232v0.2048c0 1.2288 0.2048 2.4576 0.4096 3.6864 0.4096 5.12 0.6144 10.0352 0.6144 14.9504 0 48.9472-18.2272 95.6416-51.4048 131.6864-9.6256 10.4448-20.0704 19.6608-31.3344 27.4432 39.3216-15.7696 73.5232-43.4176 97.4848-80.2816 1.024-2.8672 4.3008-4.7104 7.7824-4.7104z" fill="#1C1D21" p-id="6943"></path><path d="M512 515.4816m-31.1296 0a31.1296 31.1296 0 1 0 62.2592 0 31.1296 31.1296 0 1 0-62.2592 0Z" fill="#DCFDFF" p-id="6944"></path><path d="M512 556.6464c-11.0592 0-21.504-4.3008-29.2864-12.0832-7.7824-7.7824-12.0832-18.2272-12.0832-29.2864s4.3008-21.504 12.0832-29.2864c7.7824-7.7824 18.2272-12.0832 29.2864-12.0832s21.504 4.3008 29.2864 12.0832c7.7824 7.7824 12.0832 18.2272 12.0832 29.2864s-4.3008 21.504-12.0832 29.2864c-7.7824 7.7824-18.2272 12.0832-29.2864 12.0832z m0-62.0544c-5.5296 0-10.8544 2.2528-14.7456 6.144-8.192 8.192-8.192 21.2992 0 29.4912 3.8912 3.8912 9.216 6.144 14.7456 6.144s10.8544-2.2528 14.7456-6.144c8.192-8.192 8.192-21.2992 0-29.4912-3.8912-3.8912-9.216-6.144-14.7456-6.144z" fill="#1C1D21" p-id="6945"></path><path d="M512 494.592c-5.7344 0-10.24-4.5056-10.24-10.24v-60.0064c0-5.7344 4.5056-10.24 10.24-10.24s10.24 4.5056 10.24 10.24v60.0064c0 5.7344-4.5056 10.24-10.24 10.24zM512 403.8656c-5.7344 0-10.24-4.5056-10.24-10.24v-5.7344c0-5.7344 4.5056-10.24 10.24-10.24s10.24 4.5056 10.24 10.24v5.7344c0 5.5296-4.5056 10.24-10.24 10.24zM434.5856 575.2832c-3.2768 0-6.3488-1.4336-8.3968-4.3008-3.2768-4.7104-2.2528-11.0592 2.4576-14.336l48.128-34.2016c4.7104-3.2768 11.0592-2.2528 14.336 2.4576 3.2768 4.7104 2.2528 11.0592-2.4576 14.336L440.5248 573.44c-1.8432 1.2288-3.8912 1.8432-5.9392 1.8432zM404.8896 596.3776c-3.2768 0-6.3488-1.4336-8.3968-4.3008-3.2768-4.7104-2.2528-11.0592 2.4576-14.336l4.7104-3.2768c4.5056-3.2768 11.0592-2.2528 14.336 2.4576 3.2768 4.7104 2.2528 11.0592-2.4576 14.336l-4.7104 3.2768c-1.8432 1.2288-3.8912 1.8432-5.9392 1.8432z" fill="#1C1D21" p-id="6946"></path><path d="M589.4144 575.2832c-2.048 0-4.096-0.6144-5.9392-1.8432l-48.128-34.2016c-4.7104-3.2768-5.7344-9.6256-2.4576-14.336 3.2768-4.7104 9.6256-5.7344 14.336-2.4576l48.128 34.2016c4.7104 3.2768 5.7344 9.6256 2.4576 14.336-2.048 2.6624-5.12 4.3008-8.3968 4.3008zM619.1104 596.3776c-2.048 0-4.096-0.6144-5.9392-1.8432l-4.7104-3.2768c-4.7104-3.2768-5.7344-9.6256-2.4576-14.336 3.2768-4.7104 9.6256-5.7344 14.336-2.4576l4.7104 3.2768c4.7104 3.2768 5.7344 9.6256 2.4576 14.336-2.048 2.8672-5.12 4.3008-8.3968 4.3008z" fill="#1C1D21" p-id="6947"></path></svg>