<svg xmlns="http://www.w3.org/2000/svg" viewBox="0 0 1024 1024" version="1.1"><path d="M512 512m-501.76 0a501.76 501.76 0 1 0 1003.52 0 501.76 501.76 0 1 0-1003.52 0Z" fill="#8CEEF9" p-id="7293"></path><path d="M389.12 233.6768m-34.816 0a34.816 34.816 0 1 0 69.632 0 34.816 34.816 0 1 0-69.632 0Z" fill="#FFC5B3" p-id="7294"></path><path d="M389.12 278.7328c-24.7808 0-45.056-20.2752-45.056-45.056s20.2752-45.056 45.056-45.056 45.056 20.2752 45.056 45.056-20.2752 45.056-45.056 45.056z m0-69.632c-13.5168 0-24.576 11.0592-24.576 24.576s11.0592 24.576 24.576 24.576 24.576-11.0592 24.576-24.576-11.0592-24.576-24.576-24.576z" fill="#1C1D21" p-id="7295"></path><path d="M634.88 233.6768m-34.816 0a34.816 34.816 0 1 0 69.632 0 34.816 34.816 0 1 0-69.632 0Z" fill="#FFC5B3" p-id="7296"></path><path d="M634.88 278.7328c-24.7808 0-45.056-20.2752-45.056-45.056s20.2752-45.056 45.056-45.056 45.056 20.2752 45.056 45.056-20.0704 45.056-45.056 45.056z m0-69.632c-13.5168 0-24.576 11.0592-24.576 24.576s11.0592 24.576 24.576 24.576 24.576-11.0592 24.576-24.576-10.8544-24.576-24.576-24.576z" fill="#1C1D21" p-id="7297"></path><path d="M512 1024c-136.8064 0-265.4208-53.248-362.0864-149.9136S0 648.8064 0 512 53.248 246.5792 149.9136 149.9136C246.5792 53.248 375.1936 0 512 0s265.4208 53.248 362.0864 149.9136C970.752 246.5792 1024 375.1936 1024 512s-53.248 265.4208-149.9136 362.0864S648.8064 1024 512 1024z m0-1003.52C241.0496 20.48 20.48 241.0496 20.48 512s220.5696 491.52 491.52 491.52 491.52-220.5696 491.52-491.52S782.9504 20.48 512 20.48z" fill="#1C1D21" p-id="7298"></path><path d="M703.2832 872.448H320.7168c-11.264 0-20.48-9.216-20.48-20.48V341.4016c0-11.264 9.216-20.48 20.48-20.48h382.5664c11.264 0 20.48 9.216 20.48 20.48V851.968c0 11.264-9.216 20.48-20.48 20.48z" fill="#FFECE9" p-id="7299"></path><path d="M300.2368 424.96c-5.7344 0-10.24-4.5056-10.24-10.24v-14.336c0-5.7344 4.5056-10.24 10.24-10.24s10.24 4.5056 10.24 10.24v14.336c0 5.7344-4.5056 10.24-10.24 10.24zM320.7168 882.688c-16.9984 0-30.72-13.7216-30.72-30.72V453.4272c0-5.7344 4.5056-10.24 10.24-10.24s10.24 4.5056 10.24 10.24V851.968c0 5.7344 4.5056 10.24 10.24 10.24s10.24 4.5056 10.24 10.24-4.5056 10.24-10.24 10.24zM703.2832 882.688c-5.7344 0-10.24-4.5056-10.24-10.24s4.5056-10.24 10.24-10.24 10.24-4.5056 10.24-10.24V341.4016c0-5.7344-4.5056-10.24-10.24-10.24H638.976c-5.7344 0-10.24-4.5056-10.24-10.24s4.5056-10.24 10.24-10.24h64.1024c16.9984 0 30.72 13.7216 30.72 30.72V851.968c0.2048 16.9984-13.5168 30.72-30.5152 30.72zM300.2368 361.472c-5.7344 0-10.24-4.5056-10.24-10.24v-9.8304c0-16.9984 13.7216-30.72 30.72-30.72H385.024c5.7344 0 10.24 4.5056 10.24 10.24s-4.5056 10.24-10.24 10.24h-64.1024c-5.7344 0-10.24 4.5056-10.24 10.24v9.8304c-0.2048 5.7344-4.7104 10.24-10.4448 10.24z" fill="#1C1D21" p-id="7300"></path><path d="M341.1968 387.4816c-5.7344 0-10.24-4.5056-10.24-10.24v-15.36c0-5.7344 4.5056-10.24 10.24-10.24s10.24 4.5056 10.24 10.24v15.36c0 5.7344-4.5056 10.24-10.24 10.24zM341.1968 841.728c-5.7344 0-10.24-4.5056-10.24-10.24V419.2256c0-5.7344 4.5056-10.24 10.24-10.24s10.24 4.5056 10.24 10.24V831.488c0 5.7344-4.5056 10.24-10.24 10.24z" fill="#FFFFFF" p-id="7301"></path><path d="M598.6304 404.8896H374.784c-5.7344 0-10.24-4.5056-10.24-10.24s4.5056-10.24 10.24-10.24h223.8464c5.7344 0 10.24 4.5056 10.24 10.24s-4.5056 10.24-10.24 10.24zM649.216 404.8896h-10.8544c-5.7344 0-10.24-4.5056-10.24-10.24s4.5056-10.24 10.24-10.24h10.8544c5.7344 0 10.24 4.5056 10.24 10.24s-4.5056 10.24-10.24 10.24zM598.6304 463.4624H374.784c-5.7344 0-10.24-4.5056-10.24-10.24s4.5056-10.24 10.24-10.24h223.8464c5.7344 0 10.24 4.5056 10.24 10.24s-4.5056 10.24-10.24 10.24zM649.216 463.4624h-10.8544c-5.7344 0-10.24-4.5056-10.24-10.24s4.5056-10.24 10.24-10.24h10.8544c5.7344 0 10.24 4.5056 10.24 10.24s-4.5056 10.24-10.24 10.24zM598.6304 522.24H374.784c-5.7344 0-10.24-4.5056-10.24-10.24s4.5056-10.24 10.24-10.24h223.8464c5.7344 0 10.24 4.5056 10.24 10.24s-4.5056 10.24-10.24 10.24zM649.216 522.24h-10.8544c-5.7344 0-10.24-4.5056-10.24-10.24s4.5056-10.24 10.24-10.24h10.8544c5.7344 0 10.24 4.5056 10.24 10.24s-4.5056 10.24-10.24 10.24zM598.6304 581.0176H374.784c-5.7344 0-10.24-4.5056-10.24-10.24s4.5056-10.24 10.24-10.24h223.8464c5.7344 0 10.24 4.5056 10.24 10.24s-4.5056 10.24-10.24 10.24zM649.216 581.0176h-10.8544c-5.7344 0-10.24-4.5056-10.24-10.24s4.5056-10.24 10.24-10.24h10.8544c5.7344 0 10.24 4.5056 10.24 10.24s-4.5056 10.24-10.24 10.24zM598.6304 639.5904H374.784c-5.7344 0-10.24-4.5056-10.24-10.24s4.5056-10.24 10.24-10.24h223.8464c5.7344 0 10.24 4.5056 10.24 10.24s-4.5056 10.24-10.24 10.24zM649.216 639.5904h-10.8544c-5.7344 0-10.24-4.5056-10.24-10.24s4.5056-10.24 10.24-10.24h10.8544c5.7344 0 10.24 4.5056 10.24 10.24s-4.5056 10.24-10.24 10.24z" fill="#1C1D21" p-id="7302"></path><path d="M247.6032 719.6672v-156.672c0-14.5408-11.8784-26.4192-26.4192-26.4192-14.5408 0-26.4192 11.8784-26.4192 26.4192v156.672h52.8384z" fill="#FFC5B3" p-id="7303"></path><path d="M247.3984 761.4464v-198.4512c0-14.5408 11.8784-26.4192 26.4192-26.4192 14.5408 0 26.4192 11.8784 26.4192 26.4192v198.4512h-52.8384z" fill="#FFC5B3" p-id="7304"></path><path d="M247.6032 729.9072H194.56c-5.7344 0-10.24-4.5056-10.24-10.24v-156.672c0-20.2752 16.384-36.6592 36.6592-36.6592 20.2752 0 36.6592 16.384 36.6592 36.6592v156.672c0.2048 5.7344-4.5056 10.24-10.0352 10.24z m-42.8032-20.48h32.5632v-146.432c0-9.0112-7.3728-16.1792-16.1792-16.1792s-16.1792 7.3728-16.1792 16.1792v146.432z" fill="#1C1D21" p-id="7305"></path><path d="M300.2368 771.6864h-53.0432c-5.7344 0-10.24-4.5056-10.24-10.24v-198.4512c0-20.2752 16.384-36.6592 36.6592-36.6592s36.6592 16.384 36.6592 36.6592v198.4512c0.2048 5.5296-4.3008 10.24-10.0352 10.24z m-42.5984-20.48h32.5632v-188.2112c0-9.0112-7.3728-16.1792-16.1792-16.1792s-16.1792 7.3728-16.1792 16.1792v188.2112z" fill="#1C1D21" p-id="7306"></path><path d="M405.9136 1002.496l-0.4096-120.4224c0-23.7568-10.8544-46.08-29.4912-60.6208l-151.9616-120.2176c-18.6368-14.7456-29.4912-37.2736-29.4912-61.0304v-77.2096c0-14.5408-11.8784-26.4192-26.4192-26.4192-14.5408 0-26.4192 11.8784-26.4192 26.4192v148.0704c0 20.6848 8.192 40.3456 22.7328 54.8864l107.1104 107.1104c14.5408 14.5408 22.7328 34.4064 22.7328 54.8864v36.0448c35.0208 17.2032 72.4992 30.1056 111.616 38.5024z" fill="#FFC5B3" p-id="7307"></path><path d="M405.9136 1012.736c-0.8192 0-1.4336 0-2.2528-0.2048-39.5264-8.3968-77.824-21.7088-113.8688-39.1168-3.4816-1.6384-5.7344-5.3248-5.7344-9.216v-36.0448c0-18.0224-6.9632-35.0208-19.8656-47.7184l-107.1104-107.1104c-16.5888-16.5888-25.8048-38.7072-25.8048-62.2592v-148.0704c0-20.2752 16.384-36.6592 36.6592-36.6592 20.2752 0 36.6592 16.384 36.6592 36.6592v77.2096c0 20.6848 9.4208 40.1408 25.6 52.8384l151.9616 120.2176c21.0944 16.7936 33.3824 41.7792 33.3824 68.608l0.4096 120.4224c0 3.072-1.4336 5.9392-3.8912 7.9872-1.4336 1.6384-3.8912 2.4576-6.144 2.4576z m-101.376-55.0912c29.0816 13.5168 59.8016 24.3712 91.136 31.9488l-0.4096-107.52c0-20.6848-9.4208-39.936-25.6-52.6336l-151.9616-120.2176C196.4032 692.4288 184.32 667.2384 184.32 640.2048v-77.2096c0-9.0112-7.3728-16.1792-16.1792-16.1792s-16.1792 7.3728-16.1792 16.1792v148.0704c0 18.0224 6.9632 35.0208 19.8656 47.7184l107.1104 107.1104c16.5888 16.5888 25.8048 38.7072 25.8048 62.2592v29.4912z" fill="#1C1D21" p-id="7308"></path><path d="M776.3968 719.6672v-156.672c0-14.5408 11.8784-26.4192 26.4192-26.4192 14.5408 0 26.4192 11.8784 26.4192 26.4192v156.672h-52.8384z" fill="#FFC5B3" p-id="7309"></path><path d="M776.6016 761.4464v-198.4512c0-14.5408-11.8784-26.4192-26.4192-26.4192-14.5408 0-26.4192 11.8784-26.4192 26.4192v198.4512h52.8384z" fill="#FFC5B3" p-id="7310"></path><path d="M829.44 729.9072h-53.0432c-5.7344 0-10.24-4.5056-10.24-10.24v-156.672c0-20.2752 16.384-36.6592 36.6592-36.6592 20.2752 0 36.6592 16.384 36.6592 36.6592v156.672c0.2048 5.7344-4.3008 10.24-10.0352 10.24z m-42.8032-20.48H819.2v-146.432c0-9.0112-7.3728-16.1792-16.1792-16.1792s-16.1792 7.3728-16.1792 16.1792v146.432z" fill="#1C1D21" p-id="7311"></path><path d="M776.6016 771.6864h-53.0432c-5.7344 0-10.24-4.5056-10.24-10.24v-198.4512c0-20.2752 16.384-36.6592 36.6592-36.6592s36.6592 16.384 36.6592 36.6592v198.4512c0.2048 5.5296-4.3008 10.24-10.0352 10.24z m-42.5984-20.48h32.5632v-188.2112c0-9.0112-7.3728-16.1792-16.1792-16.1792s-16.1792 7.3728-16.1792 16.1792v188.2112z" fill="#1C1D21" p-id="7312"></path><path d="M882.4832 562.9952c0-14.5408-11.8784-26.4192-26.4192-26.4192-14.5408 0-26.4192 11.8784-26.4192 26.4192v77.2096c0 23.7568-10.8544 46.2848-29.4912 61.0304L647.9872 821.248c-18.6368 14.7456-29.4912 37.0688-29.4912 60.6208l-0.4096 120.4224c39.1168-8.3968 76.5952-21.2992 111.616-38.2976v-36.0448c0-20.6848 8.192-40.3456 22.7328-54.8864l107.1104-107.1104c14.5408-14.5408 22.7328-34.4064 22.7328-54.8864v-148.0704z" fill="#FFC5B3" p-id="7313"></path><path d="M618.0864 1012.736c-2.2528 0-4.7104-0.8192-6.3488-2.2528-2.4576-2.048-3.8912-4.9152-3.8912-7.9872l0.4096-120.4224c0-27.0336 12.288-52.0192 33.3824-68.608l151.9616-120.2176c16.1792-12.9024 25.6-32.1536 25.6-52.8384V563.2c0-20.2752 16.384-36.6592 36.6592-36.6592 20.2752 0 36.6592 16.384 36.6592 36.6592v148.0704c0 23.552-9.216 45.6704-25.8048 62.2592L759.808 880.2304c-12.6976 12.6976-19.8656 29.696-19.8656 47.7184v36.0448c0 3.8912-2.2528 7.5776-5.7344 9.216-36.2496 17.408-74.5472 30.5152-113.8688 39.1168-0.8192 0.4096-1.6384 0.4096-2.2528 0.4096zM855.8592 546.816c-9.0112 0-16.1792 7.3728-16.1792 16.1792v77.2096c0 27.0336-12.0832 52.224-33.3824 69.0176L654.336 829.44c-16.1792 12.9024-25.6 31.9488-25.6 52.6336l-0.4096 107.52c31.3344-7.5776 62.0544-18.2272 91.136-31.9488v-29.696c0-23.552 9.216-45.6704 25.8048-62.2592l107.1104-107.1104c12.6976-12.6976 19.8656-29.696 19.8656-47.7184v-148.0704c0-8.8064-7.3728-15.9744-16.384-15.9744z m-126.1568 417.3824z" fill="#1C1D21" p-id="7314"></path><path d="M540.2624 969.3184L512 937.5744l-28.2624 31.744V862.208h56.5248z" fill="#FF3E63" p-id="7315"></path><path d="M540.2624 979.5584c-2.8672 0-5.7344-1.2288-7.5776-3.4816L512 952.9344l-20.6848 23.1424c-2.8672 3.072-7.3728 4.3008-11.264 2.6624-3.8912-1.4336-6.5536-5.3248-6.5536-9.6256V862.208c0-5.7344 4.5056-10.24 10.24-10.24h56.7296c5.7344 0 10.24 4.5056 10.24 10.24v107.1104c0 4.3008-2.6624 7.9872-6.5536 9.6256-1.2288 0.4096-2.6624 0.6144-3.8912 0.6144zM512 927.3344c2.8672 0 5.7344 1.2288 7.5776 3.4816l10.4448 11.6736V872.448h-36.2496v70.0416l10.4448-11.6736c2.048-2.2528 4.9152-3.4816 7.7824-3.4816z" fill="#1C1D21" p-id="7316"></path><path d="M512 822.8864m-56.7296 0a56.7296 56.7296 0 1 0 113.4592 0 56.7296 56.7296 0 1 0-113.4592 0Z" fill="#FF9E5C" p-id="7317"></path><path d="M512 889.856c-36.864 0-66.9696-30.1056-66.9696-66.9696 0-36.864 30.1056-66.9696 66.9696-66.9696s66.9696 30.1056 66.9696 66.9696c0 36.864-30.1056 66.9696-66.9696 66.9696z m0-113.4592c-25.6 0-46.4896 20.8896-46.4896 46.4896s20.8896 46.4896 46.4896 46.4896 46.4896-20.8896 46.4896-46.4896-20.8896-46.4896-46.4896-46.4896z" fill="#1C1D21" p-id="7318"></path><path d="M512 233.6768m-117.5552 0a117.5552 117.5552 0 1 0 235.1104 0 117.5552 117.5552 0 1 0-235.1104 0Z" fill="#FFC5B3" p-id="7319"></path><path d="M512 361.472c-70.4512 0-127.7952-57.344-127.7952-127.7952s57.344-127.7952 127.7952-127.7952 127.7952 57.344 127.7952 127.7952-57.344 127.7952-127.7952 127.7952z m0-235.3152c-59.1872 0-107.3152 48.128-107.3152 107.3152s48.128 107.3152 107.3152 107.3152 107.3152-48.128 107.3152-107.3152-48.128-107.3152-107.3152-107.3152z" fill="#1C1D21" p-id="7320"></path><path d="M512 315.8016c-16.384 0-31.5392-8.8064-39.7312-22.9376-2.8672-4.9152-1.2288-11.0592 3.6864-13.9264 4.9152-2.8672 11.0592-1.2288 13.9264 3.6864 4.5056 7.7824 12.9024 12.6976 21.9136 12.6976s17.408-4.9152 21.9136-12.6976c2.8672-4.9152 9.0112-6.5536 13.9264-3.6864 4.9152 2.8672 6.5536 9.0112 3.6864 13.9264-7.7824 14.1312-22.9376 22.9376-39.3216 22.9376zM572.0064 225.4848c-3.4816 0-6.9632-1.8432-8.8064-5.12-1.8432-3.072-4.9152-4.9152-8.6016-4.9152s-6.7584 1.8432-8.6016 4.9152c-2.8672 4.9152-9.0112 6.5536-13.9264 3.6864-4.9152-2.8672-6.5536-9.0112-3.6864-13.9264 5.3248-9.4208 15.36-15.1552 26.2144-15.1552s20.8896 5.7344 26.2144 15.1552c2.8672 4.9152 1.2288 11.0592-3.6864 13.9264-1.6384 1.024-3.4816 1.4336-5.12 1.4336zM486.8096 225.4848c-3.4816 0-6.9632-1.8432-8.8064-5.12-1.8432-3.072-4.9152-4.9152-8.6016-4.9152s-6.7584 1.8432-8.6016 4.9152c-2.8672 4.9152-9.0112 6.5536-13.9264 3.6864-4.9152-2.8672-6.5536-9.0112-3.6864-13.9264 5.3248-9.4208 15.36-15.1552 26.2144-15.1552s20.8896 5.7344 26.2144 15.1552c2.8672 4.9152 1.2288 11.0592-3.6864 13.9264-1.6384 1.024-3.4816 1.4336-5.12 1.4336zM508.928 126.1568c-5.7344 0-10.24-4.5056-10.24-10.24V94.6176c0-20.0704 16.1792-36.2496 36.2496-36.2496 5.7344 0 10.24 4.5056 10.24 10.24s-4.5056 10.24-10.24 10.24c-8.6016 0-15.7696 7.168-15.7696 15.7696v21.2992c0 5.7344-4.7104 10.24-10.24 10.24zM434.176 882.688h-29.2864c-5.7344 0-10.24-4.5056-10.24-10.24s4.5056-10.24 10.24-10.24H434.176c5.7344 0 10.24 4.5056 10.24 10.24s-4.5056 10.24-10.24 10.24zM618.0864 882.688h-29.2864c-5.7344 0-10.24-4.5056-10.24-10.24s4.5056-10.24 10.24-10.24h29.2864c5.7344 0 10.24 4.5056 10.24 10.24s-4.7104 10.24-10.24 10.24z" fill="#1C1D21" p-id="7321"></path></svg>