<svg xmlns="http://www.w3.org/2000/svg" viewBox="0 0 1024 1024" version="1.1"><path d="M512 512m-501.76 0a501.76 501.76 0 1 0 1003.52 0 501.76 501.76 0 1 0-1003.52 0Z" fill="#0ABFB2" p-id="7001"></path><path d="M512 1024c-136.8064 0-265.4208-53.248-362.0864-149.9136C53.248 777.4208 0 648.8064 0 512S53.248 246.5792 149.9136 149.9136C246.5792 53.248 375.1936 0 512 0s265.4208 53.248 362.0864 149.9136C970.752 246.5792 1024 375.1936 1024 512s-53.248 265.4208-149.9136 362.0864C777.4208 970.752 648.8064 1024 512 1024z m0-1003.52C241.0496 20.48 20.48 241.0496 20.48 512s220.5696 491.52 491.52 491.52 491.52-220.5696 491.52-491.52S782.9504 20.48 512 20.48z" fill="#1C1D21" p-id="7002"></path><path d="M512 132.5056m-66.56 0a66.56 66.56 0 1 0 133.12 0 66.56 66.56 0 1 0-133.12 0Z" fill="#FF3E63" p-id="7003"></path><path d="M242.688 285.2864m-66.56 0a66.56 66.56 0 1 0 133.12 0 66.56 66.56 0 1 0-133.12 0Z" fill="#FF9E5C" p-id="7004"></path><path d="M782.336 285.2864m-66.56 0a66.56 66.56 0 1 0 133.12 0 66.56 66.56 0 1 0-133.12 0Z" fill="#508DEF" p-id="7005"></path><path d="M198.4512 248.6272c-2.6624 0-5.5296-1.024-7.3728-3.2768-3.8912-4.096-3.6864-10.6496 0.4096-14.5408 1.6384-1.4336 3.072-2.8672 4.7104-4.096 4.5056-3.4816 10.8544-2.8672 14.336 1.6384s2.8672 10.8544-1.6384 14.336c-1.2288 1.024-2.4576 2.048-3.4816 3.072-2.048 1.8432-4.5056 2.8672-6.9632 2.8672z" fill="#1C1D21" p-id="7006"></path><path d="M242.688 360.0384c-41.1648 0-74.752-33.5872-74.752-74.752 0-6.5536 0.8192-12.9024 2.4576-19.2512 1.4336-5.5296 6.9632-8.8064 12.4928-7.3728 5.5296 1.4336 8.8064 6.9632 7.168 12.4928-1.2288 4.5056-1.8432 9.216-1.8432 13.9264 0 29.9008 24.3712 54.272 54.272 54.272s54.272-24.3712 54.272-54.272-24.3712-54.272-54.272-54.272c-3.072 0-6.144 0.2048-9.0112 0.8192-5.5296 1.024-10.8544-2.8672-11.8784-8.3968s2.8672-10.8544 8.3968-11.8784c4.096-0.6144 8.192-1.024 12.4928-1.024 41.1648 0 74.752 33.5872 74.752 74.752s-33.3824 74.9568-74.5472 74.9568zM467.7632 95.8464c-2.6624 0-5.5296-1.024-7.3728-3.2768-3.8912-4.096-3.6864-10.6496 0.4096-14.5408 1.6384-1.4336 3.072-2.8672 4.7104-4.096 4.5056-3.4816 10.8544-2.8672 14.336 1.6384s2.8672 10.8544-1.6384 14.336c-1.2288 1.024-2.4576 2.048-3.4816 3.072-1.8432 1.8432-4.5056 2.8672-6.9632 2.8672z" fill="#1C1D21" p-id="7007"></path><path d="M512 207.2576c-41.1648 0-74.752-33.5872-74.752-74.752 0-6.5536 0.8192-12.9024 2.4576-19.2512 1.4336-5.5296 6.9632-8.8064 12.4928-7.3728 5.5296 1.4336 8.8064 6.9632 7.168 12.4928-1.2288 4.5056-1.8432 9.216-1.8432 13.9264 0 29.9008 24.3712 54.272 54.272 54.272s54.272-24.3712 54.272-54.272-24.1664-54.0672-54.0672-54.0672c-3.072 0-6.144 0.2048-9.0112 0.8192-5.5296 1.024-10.8544-2.8672-11.8784-8.3968s2.8672-10.8544 8.3968-11.8784c4.096-0.6144 8.192-1.024 12.4928-1.024 41.1648 0 74.752 33.5872 74.752 74.752s-33.5872 74.752-74.752 74.752zM738.0992 248.6272c-2.6624 0-5.5296-1.024-7.3728-3.2768-3.8912-4.096-3.6864-10.6496 0.4096-14.5408 1.6384-1.4336 3.072-2.8672 4.7104-4.096 4.5056-3.4816 10.8544-2.8672 14.336 1.6384s2.8672 10.8544-1.6384 14.336c-1.2288 1.024-2.4576 2.048-3.4816 3.072-2.048 1.8432-4.5056 2.8672-6.9632 2.8672z" fill="#1C1D21" p-id="7008"></path><path d="M782.336 360.0384c-41.1648 0-74.752-33.5872-74.752-74.752 0-6.5536 0.8192-12.9024 2.4576-19.2512 1.4336-5.5296 6.9632-8.8064 12.4928-7.3728 5.5296 1.4336 8.8064 6.9632 7.168 12.4928-1.2288 4.5056-1.8432 9.216-1.8432 13.9264 0 29.9008 24.3712 54.272 54.272 54.272s54.272-24.3712 54.272-54.272-24.3712-54.272-54.272-54.272c-3.072 0-6.144 0.2048-9.0112 0.8192-5.5296 1.024-10.8544-2.8672-11.8784-8.3968s2.8672-10.8544 8.3968-11.8784c4.096-0.6144 8.192-1.024 12.4928-1.024 41.1648 0 74.752 33.5872 74.752 74.752s-33.3824 74.9568-74.5472 74.9568z" fill="#1C1D21" p-id="7009"></path><path d="M405.504 1002.2912c18.8416 4.096 38.2976 7.168 57.7536 9.0112l35.6352-117.9648-93.3888-54.6816v163.6352zM560.7424 1011.3024c19.6608-1.8432 38.912-4.9152 57.7536-9.0112v-163.6352l-93.5936 54.6816 35.84 117.9648z" fill="#FFC5B3" p-id="7010"></path><path d="M463.2576 1021.5424h-1.024c-19.6608-1.8432-39.5264-4.9152-58.9824-9.216-4.7104-1.024-7.9872-5.12-7.9872-10.0352v-163.6352c0-3.6864 2.048-6.9632 5.12-8.8064 3.2768-1.8432 7.168-1.8432 10.24 0l93.5936 54.6816c4.096 2.4576 5.9392 7.3728 4.7104 11.8784L473.088 1014.3744c-1.2288 4.3008-5.3248 7.168-9.8304 7.168zM415.744 994.0992c13.312 2.6624 26.8288 4.7104 40.1408 6.3488l30.9248-102.1952-71.0656-41.7792v137.6256zM560.7424 1021.5424c-4.5056 0-8.3968-2.8672-9.8304-7.168l-35.6352-117.9648c-1.4336-4.5056 0.6144-9.4208 4.7104-11.8784l93.5936-54.6816c3.072-1.8432 7.168-1.8432 10.24 0 3.2768 1.8432 5.12 5.12 5.12 8.8064v163.6352c0 4.9152-3.2768 9.0112-7.9872 10.0352-19.456 4.3008-39.3216 7.3728-58.9824 9.216h-1.2288z m-23.552-123.2896l30.9248 102.1952c13.5168-1.4336 26.8288-3.6864 40.1408-6.3488v-137.4208l-71.0656 41.5744z" fill="#1C1D21" p-id="7011"></path><path d="M762.88 415.9488c-13.9264-4.9152-29.4912 2.4576-35.0208 16.384L686.08 534.3232c-9.216 22.3232-26.4192 40.5504-48.128 50.9952l-1.6384 0.8192c-22.7328 10.8544-49.152 9.8304-71.4752-2.048-4.3008-2.2528-9.0112-4.3008-13.7216-6.144-8.6016-3.072-14.5408-11.264-14.5408-20.48 0-9.6256 6.5536-18.0224 15.7696-20.8896 62.2592-18.2272 106.9056-77.6192 102.6048-146.6368-4.5056-72.9088-62.2592-129.8432-135.168-133.7344-82.5344-4.3008-150.9376 61.44-150.9376 142.9504 0 65.1264 43.4176 120.0128 103.0144 137.4208 9.216 2.6624 15.7696 11.0592 15.7696 20.8896 0 9.216-5.9392 17.2032-14.5408 20.48-4.7104 1.6384-9.216 3.6864-13.7216 6.144-22.3232 11.6736-48.7424 12.9024-71.4752 2.048l-1.6384-0.8192c-21.9136-10.4448-39.1168-28.672-48.128-50.9952l-41.7792-101.9904c-5.7344-13.7216-21.0944-21.2992-35.0208-16.384-14.9504 5.3248-22.3232 21.9136-16.384 36.4544l50.9952 124.5184c7.9872 19.456 21.9136 35.84 39.936 46.6944 40.3456 24.1664 64.7168 68.1984 63.8976 115.3024l-0.6144 41.3696h226.0992l-0.6144-41.3696c-0.8192-47.104 23.552-90.9312 63.8976-115.3024 18.0224-10.8544 31.9488-27.2384 39.936-46.6944l50.9952-124.5184c5.7344-14.336-1.6384-31.1296-16.5888-36.4544z" fill="#FFC5B3" p-id="7012"></path><path d="M625.0496 790.528H398.9504c-2.6624 0-5.3248-1.024-7.3728-3.072s-3.072-4.7104-2.8672-7.3728l0.6144-41.3696c0.8192-43.2128-21.9136-83.968-58.9824-106.2912-19.6608-11.8784-35.4304-30.1056-44.2368-51.4048l-50.9952-124.5184c-3.8912-9.6256-3.8912-20.2752 0.4096-29.9008 4.3008-9.6256 12.0832-16.7936 21.9136-20.2752 19.0464-6.7584 40.1408 2.8672 48.128 22.1184l41.7792 101.9904c8.192 20.0704 23.552 36.2496 43.2128 45.6704l1.6384 0.8192c19.6608 9.4208 42.3936 8.8064 62.2592-1.8432 4.7104-2.4576 9.8304-4.7104 14.9504-6.5536 4.7104-1.6384 7.7824-5.9392 7.7824-10.8544 0-5.12-3.4816-9.6256-8.3968-11.0592-64.9216-19.0464-110.3872-79.4624-110.3872-147.2512 0-42.5984 16.9984-82.1248 47.9232-111.4112 30.9248-29.2864 71.2704-44.032 113.8688-41.984 77.6192 4.096 139.8784 65.7408 144.7936 143.36 2.2528 35.84-7.5776 70.0416-28.2624 98.9184-19.8656 27.8528-48.9472 48.5376-81.7152 58.1632-5.12 1.4336-8.3968 5.9392-8.3968 11.0592 0 4.9152 3.072 9.0112 7.7824 10.8544 5.12 1.8432 10.0352 4.096 14.9504 6.5536 20.0704 10.4448 42.8032 11.264 62.2592 1.8432l1.6384-0.8192c19.6608-9.4208 35.0208-25.6 43.2128-45.6704l41.7792-101.9904c7.7824-19.2512 28.8768-28.8768 48.128-22.1184 9.8304 3.4816 17.6128 10.6496 21.9136 20.2752 4.3008 9.6256 4.5056 20.0704 0.4096 29.9008l-50.9952 124.5184c-8.8064 21.2992-24.3712 39.5264-44.2368 51.4048-37.0688 22.3232-59.5968 63.0784-58.9824 106.2912l0.6144 41.3696c0 2.6624-1.024 5.3248-2.8672 7.3728s-4.5056 3.2768-7.168 3.2768z m-215.6544-20.48h205.2096l-0.6144-30.9248c-0.8192-50.5856 25.3952-98.0992 68.8128-124.1088 15.9744-9.6256 28.672-24.3712 35.84-41.7792l50.9952-124.5184c1.8432-4.5056 1.8432-9.216-0.2048-13.7216-2.048-4.3008-5.5296-7.7824-10.0352-9.216-8.6016-3.072-18.6368 1.6384-22.1184 10.4448l-41.7792 101.9904c-10.24 24.7808-29.0816 44.8512-53.248 56.32l-1.6384 0.8192c-25.1904 12.0832-55.296 11.264-80.6912-2.048-3.8912-2.048-8.192-3.8912-12.288-5.5296-12.6976-4.7104-21.2992-16.7936-21.2992-30.1056 0-14.336 9.216-26.624 23.1424-30.72 60.0064-17.6128 99.328-73.5232 95.232-136.192-4.3008-67.1744-58.1632-120.6272-125.5424-124.1088-36.864-1.8432-71.8848 10.8544-98.7136 36.2496-26.8288 25.3952-41.3696 59.5968-41.3696 96.4608 0 58.7776 39.3216 111.2064 95.6416 127.5904 13.7216 3.8912 23.1424 16.5888 23.1424 30.72 0 13.312-8.6016 25.3952-21.2992 30.1056-4.3008 1.6384-8.3968 3.4816-12.288 5.5296-25.3952 13.312-55.5008 14.1312-80.6912 2.048l-1.6384-0.8192c-24.1664-11.4688-43.008-31.5392-53.248-56.32L286.72 436.224c-3.6864-8.8064-13.5168-13.5168-22.1184-10.4448-4.5056 1.6384-8.192 4.9152-10.0352 9.216-2.048 4.3008-2.048 9.216-0.2048 13.7216l50.9952 124.5184c7.168 17.2032 19.8656 32.1536 35.84 41.7792 43.4176 26.0096 69.632 73.5232 68.8128 124.1088l-0.6144 30.9248z" fill="#1C1D21" p-id="7013"></path><path d="M484.5568 627.9168c-4.096 0-7.7824-2.4576-9.4208-6.3488-2.2528-5.12 0.2048-11.264 5.5296-13.312l3.072-1.2288c5.3248-2.048 11.264 0.8192 13.1072 6.144 2.048 5.3248-0.8192 11.264-6.144 13.1072-0.8192 0.2048-1.6384 0.6144-2.2528 0.8192-1.2288 0.4096-2.6624 0.8192-3.8912 0.8192zM421.2736 644.9152c-5.3248 0-10.8544-0.4096-15.9744-1.024-5.5296-0.6144-9.6256-5.7344-9.0112-11.4688 0.6144-5.5296 5.7344-9.6256 11.4688-8.8064 13.7216 1.6384 28.0576 0.8192 41.7792-2.8672 5.5296-1.4336 11.0592 1.8432 12.4928 7.3728 1.4336 5.5296-1.8432 11.0592-7.3728 12.4928-10.8544 2.8672-22.1184 4.3008-33.3824 4.3008zM409.8048 409.6c-5.7344 0-10.24-4.5056-10.24-10.24 0-3.4816 0.2048-6.9632 0.4096-10.4448 0.6144-5.5296 5.5296-9.8304 11.0592-9.216 5.5296 0.6144 9.8304 5.5296 9.216 11.0592-0.2048 2.8672-0.4096 5.7344-0.4096 8.6016 0.2048 5.7344-4.5056 10.24-10.0352 10.24zM435.8144 477.5936c-2.8672 0-5.5296-1.2288-7.5776-3.4816-9.216-10.4448-16.384-22.1184-21.2992-35.0208-2.048-5.3248 0.6144-11.264 5.9392-13.312s11.264 0.6144 13.312 5.9392c4.096 10.6496 9.8304 20.2752 17.408 28.672 3.6864 4.3008 3.4816 10.6496-0.8192 14.5408-2.048 1.8432-4.5056 2.6624-6.9632 2.6624zM625.0496 780.288v43.4176c0 15.1552-8.8064 28.8768-22.528 35.4304L528.384 893.3376c-10.4448 4.9152-22.528 4.9152-32.9728 0l-74.1376-34.4064c-13.7216-6.3488-22.528-20.2752-22.528-35.4304V780.288h226.304z" fill="#FFECE9" p-id="7014"></path><path d="M512 907.264c-7.168 0-14.1312-1.6384-20.6848-4.5056L417.1776 868.352c-17.2032-7.9872-28.4672-25.6-28.4672-44.6464V780.288c0-5.7344 4.5056-10.24 10.24-10.24h226.0992c5.7344 0 10.24 4.5056 10.24 10.24v43.4176c0 19.0464-11.264 36.6592-28.4672 44.6464l-74.1376 34.4064c-6.5536 3.072-13.5168 4.5056-20.6848 4.5056z m-102.8096-116.736v33.1776c0 11.0592 6.5536 21.2992 16.5888 26.0096l74.1376 34.4064c7.7824 3.6864 16.5888 3.6864 24.1664 0l74.1376-34.4064c10.0352-4.7104 16.5888-14.9504 16.5888-26.0096V790.528H409.1904z" fill="#1C1D21" p-id="7015"></path><path d="M376.4224 353.0752c10.4448 3.4816 21.504 5.5296 33.1776 5.5296 56.5248 0 102.4-45.8752 102.4-102.4-62.8736 0-116.3264 40.5504-135.5776 96.8704z" fill="#AA4D2D" p-id="7016"></path><path d="M614.4 358.6048c11.6736 0 22.7328-2.048 33.1776-5.5296-18.2272-54.272-67.9936-93.5936-127.7952-96.6656-2.6624-0.2048-5.12-0.2048-7.7824-0.2048 0 56.5248 45.8752 102.4 102.4 102.4z" fill="#AA4D2D" p-id="7017"></path><path d="M409.6 368.8448c-12.4928 0-24.576-2.048-36.4544-6.144-5.3248-1.8432-8.192-7.5776-6.3488-12.9024 21.2992-62.0544 79.4624-103.8336 145.2032-103.8336 5.7344 0 10.24 4.5056 10.24 10.24 0 62.0544-50.5856 112.64-112.64 112.64z m-19.456-22.528c6.3488 1.4336 12.9024 2.048 19.456 2.048 47.104 0 86.2208-35.6352 91.5456-81.5104-48.7424 4.096-91.5456 34.6112-111.0016 79.4624z" fill="#1C1D21" p-id="7018"></path><path d="M614.4 368.8448c-62.0544 0-112.64-50.5856-112.64-112.64 0-2.6624 1.024-5.3248 3.072-7.168 1.8432-1.8432 4.5056-3.072 7.168-3.072 2.8672 0 5.5296 0 8.192 0.2048 63.0784 3.2768 116.9408 44.032 137.0112 103.6288 1.8432 5.3248-1.024 11.0592-6.3488 12.9024-11.6736 4.096-23.9616 6.144-36.4544 6.144z m-91.5456-101.9904c5.3248 45.8752 44.2368 81.5104 91.5456 81.5104 6.5536 0 13.312-0.6144 19.6608-2.048-19.2512-45.056-61.6448-75.5712-111.2064-79.4624z" fill="#1C1D21" p-id="7019"></path><path d="M512 753.0496c-5.7344 0-10.24-4.5056-10.24-10.24v-12.288c0-5.7344 4.5056-10.24 10.24-10.24s10.24 4.5056 10.24 10.24v12.288c0 5.5296-4.5056 10.24-10.24 10.24z" fill="#1C1D21" p-id="7020"></path><path d="M512 504.832c-14.5408 0-28.2624-7.7824-35.6352-20.48-2.8672-4.9152-1.2288-11.0592 3.6864-13.9264 4.9152-2.8672 11.0592-1.2288 13.9264 3.6864 3.6864 6.3488 10.4448 10.24 17.8176 10.24s14.1312-3.8912 17.8176-10.24c2.8672-4.9152 9.0112-6.5536 13.9264-3.6864s6.5536 9.0112 3.6864 13.9264c-6.9632 12.6976-20.6848 20.48-35.2256 20.48z" fill="#1C1D21" p-id="7021"></path></svg>