<svg xmlns="http://www.w3.org/2000/svg" viewBox="0 0 1024 1024" version="1.1"><path d="M512 512m-501.76 0a501.76 501.76 0 1 0 1003.52 0 501.76 501.76 0 1 0-1003.52 0Z" fill="#508DEF" p-id="7465"></path><path d="M661.7088 668.8768l-62.8736-38.7072c-24.7808-15.36-39.936-42.3936-39.936-71.68v-25.3952c0-14.1312 8.3968-26.624 21.0944-32.768 54.4768-25.6 92.16-80.896 92.16-145.2032v-73.728C672.3584 192.512 600.4736 120.832 512 120.832s-160.3584 71.8848-160.3584 160.3584v73.728c0 64.1024 37.6832 119.6032 92.16 145.2032 12.6976 5.9392 21.0944 18.6368 21.0944 32.768v25.3952c0 29.2864-15.1552 56.32-39.936 71.68l-62.8736 38.7072c-50.9952 31.5392-81.92 87.04-81.92 146.8416v141.5168C349.5936 993.28 428.4416 1013.76 512 1013.76s162.4064-20.48 231.6288-56.5248v-141.5168c0-59.8016-30.9248-115.5072-81.92-146.8416z" fill="#FFC5B3" p-id="7466"></path><path d="M531.6608 655.7696c-11.264 10.0352-28.0576 10.0352-39.3216 0l-47.7184-42.3936c-5.5296 6.3488-12.0832 12.0832-19.456 16.5888l-62.8736 38.7072c-50.9952 31.5392-81.92 87.04-81.92 146.8416v141.5168C349.5936 993.28 428.4416 1013.76 512 1013.76s162.4064-20.48 231.6288-56.5248v-141.5168c0-59.8016-30.9248-115.5072-81.92-146.8416l-62.8736-38.7072c-7.3728-4.5056-13.9264-10.24-19.456-16.5888l-47.7184 42.1888z" fill="#AAADAD" p-id="7467"></path><path d="M512 1024c-136.8064 0-265.4208-53.248-362.0864-149.9136S0 648.8064 0 512 53.248 246.5792 149.9136 149.9136 375.1936 0 512 0s265.4208 53.248 362.0864 149.9136S1024 375.1936 1024 512s-53.248 265.4208-149.9136 362.0864S648.8064 1024 512 1024z m0-1003.52C241.0496 20.48 20.48 241.0496 20.48 512s220.5696 491.52 491.52 491.52 491.52-220.5696 491.52-491.52S782.9504 20.48 512 20.48z" fill="#1C1D21" p-id="7468"></path><path d="M335.2576 345.7024h16.384v-84.7872h-16.384c-23.3472 0-42.3936 19.0464-42.3936 42.3936 0 23.3472 19.0464 42.3936 42.3936 42.3936zM689.9712 345.7024h-16.384v-84.7872h16.384c23.3472 0 42.3936 19.0464 42.3936 42.3936 0 23.3472-19.0464 42.3936-42.3936 42.3936z" fill="#FFC5B3" p-id="7469"></path><path d="M351.8464 355.9424h-16.384c-29.0816 0-52.6336-23.552-52.6336-52.6336s23.552-52.6336 52.6336-52.6336h16.384c5.7344 0 10.24 4.5056 10.24 10.24v84.7872c0 5.5296-4.7104 10.24-10.24 10.24z m-16.5888-84.7872c-17.8176 0-32.1536 14.336-32.1536 32.1536s14.336 32.1536 32.1536 32.1536h6.144v-64.3072h-6.144zM689.9712 355.9424h-16.384c-5.7344 0-10.24-4.5056-10.24-10.24v-84.7872c0-5.7344 4.5056-10.24 10.24-10.24h16.384c29.0816 0 52.6336 23.552 52.6336 52.6336s-23.7568 52.6336-52.6336 52.6336z m-6.3488-20.48h6.144c17.8176 0 32.1536-14.336 32.1536-32.1536s-14.336-32.1536-32.1536-32.1536h-6.144v64.3072z" fill="#1C1D21" p-id="7470"></path><path d="M512 1024c-82.1248 0-163.84-20.0704-236.3392-57.7536-3.4816-1.8432-5.5296-5.3248-5.5296-9.0112v-141.5168c0-63.8976 32.3584-122.0608 86.8352-155.648l62.8736-38.7072c21.9136-13.5168 35.0208-37.0688 35.0208-63.0784v-25.3952c0-10.0352-5.9392-19.0464-15.36-23.3472-59.5968-28.0576-98.0992-88.6784-98.0992-154.4192v-73.728c0-94.0032 76.5952-170.5984 170.5984-170.5984 45.6704 0 88.4736 17.8176 120.6272 49.9712s49.9712 75.1616 49.9712 120.6272v73.728c0 65.7408-38.5024 126.3616-98.0992 154.4192-9.4208 4.5056-15.36 13.5168-15.36 23.3472v25.3952c0 25.8048 13.1072 49.3568 35.0208 63.0784l62.8736 38.7072c54.272 33.5872 86.8352 91.7504 86.8352 155.648v141.5168c0 3.8912-2.048 7.3728-5.5296 9.0112C675.84 1003.9296 594.1248 1024 512 1024z m-221.3888-73.1136C358.8096 985.2928 435.2 1003.52 512 1003.52s153.1904-18.2272 221.3888-52.6336v-135.168c0-56.7296-28.8768-108.3392-77.0048-138.24l-62.8736-38.7072c-28.0576-17.408-44.8512-47.3088-44.8512-80.4864v-25.3952c0-17.8176 10.6496-34.2016 27.0336-41.984 52.4288-24.576 86.2208-78.0288 86.2208-135.9872v-73.728c0-40.1408-15.5648-77.824-44.032-106.0864C589.824 146.6368 552.1408 131.072 512 131.072c-82.7392 0-150.1184 67.3792-150.1184 150.1184v73.728c0 57.9584 33.792 111.2064 86.2208 135.9872 16.384 7.7824 27.0336 24.1664 27.0336 41.984v25.3952c0 32.9728-16.7936 63.0784-44.8512 80.4864l-62.8736 38.7072c-48.3328 29.9008-77.0048 81.5104-77.0048 138.24v135.168z m453.0176 6.3488z" fill="#1C1D21" p-id="7471"></path><path d="M464.896 532.0704v1.024c0 12.0832 9.8304 21.9136 21.9136 21.9136h50.176c12.0832 0 21.9136-9.8304 21.9136-21.9136 0-13.9264 7.7824-26.8288 20.48-32.5632 35.6352-16.5888 64.1024-45.8752 79.6672-81.92l-99.7376-28.2624c-31.1296-8.8064-63.8976-8.8064-94.8224 0l-99.7376 28.2624c15.5648 36.0448 44.032 65.3312 79.6672 81.92 12.4928 5.7344 20.48 17.8176 20.48 31.5392zM656.384 200.704c-9.0112-71.68-70.2464-127.1808-144.384-127.1808S376.6272 129.024 367.616 200.704h288.768z" fill="#AAADAD" p-id="7472"></path><path d="M367.616 210.944c-2.8672 0-5.7344-1.2288-7.7824-3.4816-1.8432-2.2528-2.8672-5.12-2.4576-7.9872 3.4816-27.0336 14.1312-53.0432 30.72-74.752 3.4816-4.5056 9.8304-5.3248 14.336-1.8432 4.5056 3.4816 5.3248 9.8304 1.8432 14.336-12.0832 15.7696-20.48 33.9968-24.576 53.4528h264.3968C630.784 129.2288 575.8976 83.968 511.7952 83.968c-5.7344 0-10.24-4.5056-10.24-10.24s4.5056-10.24 10.24-10.24c78.2336 0 144.7936 58.5728 154.624 135.9872 0.4096 2.8672-0.6144 5.9392-2.4576 7.9872s-4.7104 3.4816-7.7824 3.4816H367.616z" fill="#1C1D21" p-id="7473"></path><path d="M420.2496 116.3264c-3.072 0-5.9392-1.2288-7.9872-3.6864-3.4816-4.3008-2.8672-10.8544 1.4336-14.336 5.5296-4.5056 11.4688-8.8064 17.6128-12.4928 4.9152-2.8672 11.0592-1.4336 14.1312 3.4816 2.8672 4.9152 1.4336 11.0592-3.4816 14.1312-5.3248 3.2768-10.4448 6.9632-15.36 10.8544-1.8432 1.4336-4.096 2.048-6.3488 2.048zM473.7024 88.8832c-4.5056 0-8.6016-3.072-9.8304-7.5776-1.4336-5.5296 1.6384-11.0592 7.168-12.4928 2.6624-0.8192 5.3248-1.4336 8.192-2.048 5.5296-1.2288 11.0592 2.2528 12.0832 7.7824s-2.2528 11.0592-7.7824 12.0832c-2.4576 0.6144-4.7104 1.024-6.9632 1.6384-1.2288 0.6144-2.048 0.6144-2.8672 0.6144z" fill="#1C1D21" p-id="7474"></path><path d="M660.8896 200.704H363.1104c-10.0352 0-18.2272-8.192-18.2272-18.2272v-4.096c0-10.0352 8.192-18.2272 18.2272-18.2272h297.5744c10.0352 0 18.2272 8.192 18.2272 18.2272v4.096c0 10.0352-7.9872 18.2272-18.0224 18.2272z" fill="#AAADAD" p-id="7475"></path><path d="M660.8896 210.944H363.1104c-15.7696 0-28.4672-12.6976-28.4672-28.4672v-4.096c0-15.7696 12.6976-28.4672 28.4672-28.4672h297.5744c15.7696 0 28.4672 12.6976 28.4672 28.4672v4.096c0 15.7696-12.6976 28.4672-28.2624 28.4672zM363.1104 170.5984c-4.3008 0-7.9872 3.4816-7.9872 7.9872v4.096c0 4.3008 3.4816 7.9872 7.9872 7.9872h297.5744c4.3008 0 7.9872-3.4816 7.9872-7.9872v-4.096c0-4.3008-3.4816-7.9872-7.9872-7.9872H363.1104z" fill="#1C1D21" p-id="7476"></path><path d="M352.8704 260.9152h318.0544v63.488H352.8704z" fill="#AAADAD" p-id="7477"></path><path d="M582.0416 292.6592m-31.744 0a31.744 31.744 0 1 0 63.488 0 31.744 31.744 0 1 0-63.488 0Z" fill="#FFECE9" p-id="7478"></path><path d="M441.9584 292.6592m-31.744 0a31.744 31.744 0 1 0 63.488 0 31.744 31.744 0 1 0-63.488 0Z" fill="#FFECE9" p-id="7479"></path><path d="M582.0416 334.4384c-23.1424 0-41.984-18.8416-41.984-41.984s18.8416-41.984 41.984-41.984 41.984 18.8416 41.984 41.984-18.8416 41.984-41.984 41.984z m0-63.2832c-11.8784 0-21.504 9.6256-21.504 21.504s9.6256 21.504 21.504 21.504 21.504-9.6256 21.504-21.504-9.6256-21.504-21.504-21.504zM441.9584 334.4384c-23.1424 0-41.984-18.8416-41.984-41.984s18.8416-41.984 41.984-41.984 41.984 18.8416 41.984 41.984-18.8416 41.984-41.984 41.984z m0-63.2832c-11.8784 0-21.504 9.6256-21.504 21.504s9.6256 21.504 21.504 21.504 21.504-9.6256 21.504-21.504-9.6256-21.504-21.504-21.504z" fill="#1C1D21" p-id="7480"></path><path d="M280.3712 815.7184v27.0336h463.2576v-27.2384c0-4.3008-0.2048-8.6016-0.4096-12.9024H280.7808c-0.2048 4.5056-0.4096 8.8064-0.4096 13.1072zM531.6608 655.7696c-3.072 2.6624-6.3488 4.5056-10.0352 5.7344h128.4096l-50.9952-31.5392c-4.096-2.4576-7.7824-5.3248-11.264-8.3968h-17.408l-38.7072 34.2016z" fill="#E0E0E0" p-id="7481"></path><path d="M502.3744 661.504c-3.6864-1.2288-6.9632-3.072-10.0352-5.7344l-38.5024-34.2016h-17.408c-3.4816 3.072-7.3728 5.9392-11.264 8.3968l-51.2 31.5392h128.4096z" fill="#FFECE9" p-id="7482"></path><path d="M314.7776 712.0896c-9.216 12.288-16.7936 25.8048-22.3232 39.936h439.0912c-5.7344-14.336-13.1072-27.648-22.3232-39.936H314.7776zM280.3712 893.5424h463.2576v39.936H280.3712z" fill="#E0E0E0" p-id="7483"></path><path d="M512 1024c-82.1248 0-163.84-20.0704-236.3392-57.7536-3.4816-1.8432-5.5296-5.3248-5.5296-9.0112v-141.5168c0-63.8976 32.3584-122.0608 86.8352-155.648l62.8736-38.7072c6.3488-3.8912 12.0832-8.8064 17.2032-14.7456 1.6384-1.8432 3.8912-3.072 6.3488-3.4816 3.072-0.4096 5.9392 0.4096 8.192 2.4576l47.7184 42.3936c7.3728 6.5536 18.432 6.5536 25.8048 0l47.7184-42.3936c1.8432-1.6384 4.3008-2.6624 6.7584-2.6624 3.072 0 5.9392 1.2288 7.7824 3.4816 4.9152 5.7344 10.6496 10.6496 17.2032 14.7456l62.8736 38.7072c54.272 33.5872 86.8352 91.7504 86.8352 155.648v141.5168c0 3.8912-2.048 7.3728-5.5296 9.0112C675.84 1003.9296 594.1248 1024 512 1024z m-221.3888-73.1136C358.8096 985.2928 435.2 1003.52 512 1003.52s153.1904-18.2272 221.3888-52.6336v-135.168c0-56.7296-28.8768-108.3392-77.0048-138.24l-62.8736-38.7072c-5.3248-3.2768-10.24-6.9632-14.7456-11.264l-40.5504 35.84c-15.1552 13.312-37.888 13.312-52.8384 0l-40.5504-35.84c-4.5056 4.3008-9.4208 7.9872-14.7456 11.264l-62.8736 38.7072c-48.3328 29.9008-77.0048 81.5104-77.0048 138.24v135.168z" fill="#1C1D21" p-id="7484"></path><path d="M638.3616 1008.0256c-5.7344 0-10.24-4.5056-10.24-10.24V892.928c0-5.7344 4.5056-10.24 10.24-10.24s10.24 4.5056 10.24 10.24v104.8576c0 5.5296-4.7104 10.24-10.24 10.24zM638.3616 866.304c-5.7344 0-10.24-4.5056-10.24-10.24v-4.096c0-5.7344 4.5056-10.24 10.24-10.24s10.24 4.5056 10.24 10.24v4.096c0 5.7344-4.7104 10.24-10.24 10.24z" fill="#1C1D21" p-id="7485"></path><path d="M359.6288 779.8784c52.0192-23.552 87.4496-77.2096 83.968-138.6496-4.096-72.4992-62.8736-130.8672-135.168-134.7584-82.5344-4.3008-150.9376 61.44-150.9376 142.9504 0 58.1632 34.6112 108.1344 84.3776 130.4576 11.4688 5.12 18.6368 16.5888 18.6368 29.0816v21.9136c0 9.216-7.3728 16.5888-16.5888 16.5888h-14.336c-24.3712 0-45.056 16.1792-51.6096 38.5024 68.4032 61.2352 153.6 103.8336 248.0128 120.2176v-104.8576c0-29.696-24.1664-53.8624-53.8624-53.8624h-14.336c-9.216 0-16.5888-7.3728-16.5888-16.5888V808.96c-0.4096-12.4928 7.168-23.9616 18.432-29.0816z" fill="#FFC5B3" p-id="7486"></path><path d="M425.7792 1016.6272c-0.6144 0-1.2288 0-1.8432-0.2048-94.0032-16.384-181.6576-58.7776-253.1328-122.6752-2.8672-2.6624-4.096-6.7584-3.072-10.4448 7.9872-27.0336 33.1776-45.8752 61.44-45.8752h14.336c3.4816 0 6.3488-2.8672 6.3488-6.3488V808.96c0-8.3968-4.9152-16.1792-12.4928-19.6608-54.8864-24.7808-90.3168-79.6672-90.3168-139.8784 0-42.5984 16.9984-82.1248 47.9232-111.4112 30.9248-29.2864 71.2704-44.2368 113.8688-41.984 37.4784 2.048 73.1136 17.8176 99.9424 44.6464 26.8288 26.8288 42.8032 62.2592 45.056 99.7376 3.6864 63.8976-31.744 122.2656-89.9072 148.6848-7.7824 3.4816-12.9024 11.264-12.9024 19.8656v22.1184c0 3.4816 2.8672 6.3488 6.3488 6.3488h14.336c35.4304 0 64.1024 28.672 64.1024 64.1024v104.8576c0 3.072-1.4336 5.9392-3.6864 7.7824-1.6384 1.6384-3.8912 2.4576-6.3488 2.4576zM189.8496 883.0976c64.512 56.1152 142.336 94.208 225.6896 110.7968v-92.5696c0-23.9616-19.6608-43.6224-43.6224-43.6224h-14.336c-14.7456 0-26.8288-12.0832-26.8288-26.8288V808.96c0-16.5888 9.8304-31.5392 24.7808-38.5024 50.3808-22.9376 81.1008-73.5232 77.824-128.8192-3.8912-67.7888-57.7536-121.4464-125.5424-125.1328-36.864-1.8432-71.8848 10.8544-98.7136 36.2496C182.272 578.1504 167.7312 612.352 167.7312 649.216c0 52.224 30.72 99.7376 78.4384 121.2416 14.9504 6.7584 24.576 21.7088 24.576 38.2976v21.9136c0 14.7456-12.0832 26.8288-26.8288 26.8288h-14.336c-17.2032 0.4096-32.768 10.4448-39.7312 25.6z m169.7792-103.2192z" fill="#1C1D21" p-id="7487"></path><path d="M165.0688 603.136c10.4448 3.4816 21.504 5.5296 33.1776 5.5296 56.5248 0 102.4-45.8752 102.4-102.4-62.8736 0-116.3264 40.5504-135.5776 96.8704z" fill="#AA4D2D" p-id="7488"></path><path d="M403.0464 608.6656c11.6736 0 22.7328-2.048 33.1776-5.5296-18.2272-54.272-67.9936-93.5936-127.7952-96.6656-2.6624-0.2048-5.12-0.2048-7.7824-0.2048 0 56.5248 45.8752 102.4 102.4 102.4z" fill="#AA4D2D" p-id="7489"></path><path d="M198.2464 618.9056c-12.4928 0-24.576-2.048-36.4544-6.144-5.3248-1.8432-8.192-7.5776-6.3488-12.9024 21.2992-62.0544 79.4624-103.8336 145.2032-103.8336 5.7344 0 10.24 4.5056 10.24 10.24 0 62.0544-50.5856 112.64-112.64 112.64z m-19.456-22.528c6.3488 1.4336 12.9024 2.048 19.456 2.048 47.104 0 86.2208-35.6352 91.5456-81.5104-48.7424 3.8912-91.5456 34.4064-111.0016 79.4624z" fill="#1C1D21" p-id="7490"></path><path d="M403.0464 618.9056c-62.0544 0-112.64-50.5856-112.64-112.64 0-5.7344 4.5056-10.24 10.24-10.24 2.6624 0 5.5296 0 8.192 0.2048 63.0784 3.2768 116.9408 44.032 137.0112 103.6288 1.8432 5.3248-1.024 11.0592-6.3488 12.9024-11.6736 4.096-23.9616 6.144-36.4544 6.144z m-91.5456-101.9904c5.3248 45.8752 44.2368 81.5104 91.5456 81.5104 6.5536 0 13.312-0.6144 19.6608-2.048-19.2512-45.056-61.6448-75.5712-111.2064-79.4624zM466.1248 282.4192c-2.6624 0-5.3248-1.024-7.168-3.072l-40.96-40.96c-4.096-4.096-4.096-10.4448 0-14.5408s10.4448-4.096 14.5408 0l40.96 40.96c4.096 4.096 4.096 10.4448 0 14.5408-2.048 2.048-4.7104 3.072-7.3728 3.072zM557.8752 282.4192c-2.6624 0-5.3248-1.024-7.168-3.072-4.096-4.096-4.096-10.4448 0-14.5408l40.96-40.96c4.096-4.096 10.4448-4.096 14.5408 0s4.096 10.4448 0 14.5408l-40.96 40.96c-2.2528 2.048-4.7104 3.072-7.3728 3.072z" fill="#1C1D21" p-id="7491"></path><path d="M198.4512 659.6608c-5.7344 0-10.24-4.5056-10.24-10.24 0-3.4816 0.2048-6.9632 0.4096-10.4448 0.6144-5.7344 5.5296-9.8304 11.0592-9.216 5.5296 0.6144 9.8304 5.5296 9.216 11.0592-0.2048 2.8672-0.4096 5.7344-0.4096 8.6016 0.2048 5.7344-4.5056 10.24-10.0352 10.24zM224.4608 727.6544c-2.8672 0-5.5296-1.2288-7.5776-3.4816-9.216-10.4448-16.384-22.1184-21.2992-35.0208-2.048-5.3248 0.6144-11.264 5.9392-13.312s11.264 0.6144 13.312 5.9392c4.096 10.6496 9.8304 20.2752 17.408 28.672 3.6864 4.3008 3.4816 10.6496-0.8192 14.5408-2.048 1.8432-4.5056 2.6624-6.9632 2.6624z" fill="#FFECE9" p-id="7492"></path><path d="M285.0816 780.288H169.5744c-22.3232 0-40.5504-18.2272-40.5504-40.5504s18.2272-40.5504 40.5504-40.5504h115.5072c22.3232 0 40.5504 18.2272 40.5504 40.5504s-18.2272 40.5504-40.5504 40.5504z" fill="#AAADAD" p-id="7493"></path><path d="M285.0816 790.528H169.5744C141.5168 790.528 118.784 767.7952 118.784 739.7376s22.7328-50.7904 50.7904-50.7904h115.5072c28.0576 0 50.7904 22.7328 50.7904 50.7904S313.1392 790.528 285.0816 790.528z m-115.5072-81.1008c-16.5888 0-30.3104 13.5168-30.3104 30.3104S152.7808 770.048 169.5744 770.048h115.5072c16.5888 0 30.3104-13.5168 30.3104-30.3104s-13.5168-30.3104-30.3104-30.3104H169.5744z" fill="#1C1D21" p-id="7494"></path><path d="M285.0816 699.1872h-23.7568V780.288h23.7568c22.3232 0 40.5504-18.2272 40.5504-40.5504s-18.2272-40.5504-40.5504-40.5504z" fill="#FFC5B3" p-id="7495"></path><path d="M285.0816 790.528h-23.7568c-5.7344 0-10.24-4.5056-10.24-10.24v-81.1008c0-5.7344 4.5056-10.24 10.24-10.24h23.7568c28.0576 0 50.7904 22.7328 50.7904 50.7904S313.1392 790.528 285.0816 790.528z m-13.312-20.48h13.5168c16.5888 0 30.3104-13.5168 30.3104-30.3104s-13.5168-30.3104-30.3104-30.3104h-13.5168V770.048z" fill="#1C1D21" p-id="7496"></path><path d="M404.8896 417.792c-3.6864 0-7.3728-2.048-9.216-5.7344-8.8064-17.8176-13.312-37.4784-13.312-57.1392v-30.72c0-5.7344 4.5056-10.24 10.24-10.24s10.24 4.5056 10.24 10.24v30.72c0 16.5888 3.8912 33.1776 11.264 48.128 2.4576 5.12 0.4096 11.264-4.7104 13.7216-1.4336 0.6144-3.072 1.024-4.5056 1.024z" fill="#FFECE9" p-id="7497"></path><path d="M461.2096 473.2928c-1.4336 0-2.8672-0.4096-4.3008-1.024-26.624-12.4928-48.3328-33.9968-61.44-60.6208-2.4576-5.12-0.4096-11.264 4.7104-13.7216 5.12-2.4576 11.264-0.4096 13.7216 4.7104 10.8544 22.528 29.2864 40.5504 51.6096 51.2 5.12 2.4576 7.3728 8.6016 4.9152 13.7216-1.6384 3.4816-5.3248 5.7344-9.216 5.7344z" fill="#E0E0E0" p-id="7498"></path><path d="M671.1296 334.4384H352.8704c-5.7344 0-10.24-4.5056-10.24-10.24v-63.488c0-5.7344 4.5056-10.24 10.24-10.24h318.0544c5.7344 0 10.24 4.5056 10.24 10.24v63.488c0.2048 5.7344-4.5056 10.24-10.0352 10.24z m-308.0192-20.48h297.5744v-43.008H363.1104v43.008zM536.9856 565.248h-50.176c-17.8176 0-32.1536-14.5408-32.1536-32.1536v-1.024c0-9.4208-5.7344-18.2272-14.5408-22.3232-38.0928-17.6128-68.1984-48.7424-84.7872-87.2448-1.2288-2.6624-1.024-5.7344 0.2048-8.3968 1.2288-2.6624 3.6864-4.7104 6.5536-5.5296l99.7376-28.2624c32.768-9.216 67.584-9.216 100.5568 0l99.7376 28.2624c2.8672 0.8192 5.12 2.8672 6.5536 5.5296 1.2288 2.6624 1.2288 5.7344 0.2048 8.3968-16.5888 38.5024-46.6944 69.4272-84.7872 87.2448-8.8064 4.096-14.5408 13.312-14.5408 23.3472-0.2048 17.6128-14.7456 32.1536-32.5632 32.1536z m-157.696-140.288c15.36 29.0816 39.7312 52.224 69.632 66.1504 15.9744 7.3728 26.4192 23.552 26.4192 40.96v1.024c0 6.5536 5.3248 11.6736 11.6736 11.6736h50.176c6.5536 0 11.6736-5.3248 11.6736-11.6736 0-18.0224 10.4448-34.4064 26.4192-41.984 29.9008-13.9264 54.272-37.0688 69.632-66.1504l-88.064-24.9856c-29.2864-8.192-60.2112-8.192-89.2928 0l-88.2688 24.9856z" fill="#1C1D21" p-id="7499"></path></svg>