<svg xmlns="http://www.w3.org/2000/svg" viewBox="0 0 1024 1024" version="1.1"><path d="M512 512m-501.76 0a501.76 501.76 0 1 0 1003.52 0 501.76 501.76 0 1 0-1003.52 0Z" fill="#8CEEF9" p-id="7075"></path><path d="M512 1024c-136.8064 0-265.4208-53.248-362.0864-149.9136C53.248 777.4208 0 648.8064 0 512S53.248 246.5792 149.9136 149.9136C246.5792 53.248 375.1936 0 512 0s265.4208 53.248 362.0864 149.9136C970.752 246.5792 1024 375.1936 1024 512s-53.248 265.4208-149.9136 362.0864C777.4208 970.752 648.8064 1024 512 1024z m0-1003.52C241.0496 20.48 20.48 241.0496 20.48 512s220.5696 491.52 491.52 491.52 491.52-220.5696 491.52-491.52S782.9504 20.48 512 20.48z" fill="#1C1D21" p-id="7076"></path><path d="M793.3952 821.6576c0 38.912-31.5392 70.4512-70.4512 70.4512s-70.4512-31.5392-70.4512-70.4512c0 38.912-31.5392 70.4512-70.4512 70.4512s-70.4512-31.5392-70.4512-70.4512c0 38.912-31.5392 70.4512-70.4512 70.4512S370.688 860.5696 370.688 821.6576c0 38.912-31.5392 70.4512-70.4512 70.4512s-70.4512-31.5392-70.4512-70.4512c0 31.744-20.8896 58.368-49.7664 67.1744 89.088 77.824 205.0048 124.928 331.9808 124.928s242.8928-47.104 331.1616-124.928c-28.672-8.8064-49.7664-35.4304-49.7664-67.1744z" fill="#508DEF" p-id="7077"></path><path d="M512 1024c-124.5184 0-244.5312-45.2608-337.92-127.3856-2.8672-2.4576-4.096-6.144-3.2768-9.8304 0.8192-3.6864 3.4816-6.5536 6.9632-7.5776 25.3952-7.7824 42.3936-30.9248 42.3936-57.5488 0-5.7344 4.5056-10.24 10.24-10.24s10.24 4.5056 10.24 10.24c0 33.1776 27.0336 60.2112 60.2112 60.2112s60.2112-27.0336 60.2112-60.2112c0-5.7344 4.5056-10.24 10.24-10.24s10.24 4.5056 10.24 10.24c0 33.1776 27.0336 60.2112 60.2112 60.2112s60.2112-27.0336 60.2112-60.2112c0-5.7344 4.5056-10.24 10.24-10.24s10.24 4.5056 10.24 10.24c0 33.1776 27.0336 60.2112 60.2112 60.2112s60.2112-27.0336 60.2112-60.2112c0-5.7344 4.5056-10.24 10.24-10.24s10.24 4.5056 10.24 10.24c0 33.1776 27.0336 60.2112 60.2112 60.2112s60.2112-27.0336 60.2112-60.2112c0-5.7344 4.5056-10.24 10.24-10.24s10.24 4.5056 10.24 10.24c0 26.624 16.9984 49.7664 42.3936 57.5488 3.4816 1.024 6.144 4.096 6.9632 7.5776 0.8192 3.6864-0.4096 7.3728-3.2768 9.8304C756.5312 978.7392 636.5184 1024 512 1024zM200.0896 891.6992C287.744 963.9936 397.9264 1003.52 512 1003.52s224.256-39.5264 311.9104-111.8208c-12.9024-7.3728-23.552-18.0224-30.5152-30.72-13.9264 24.576-40.1408 41.1648-70.2464 41.1648-30.1056 0-56.5248-16.5888-70.4512-41.3696-13.7216 24.576-40.1408 41.3696-70.4512 41.3696s-56.5248-16.5888-70.4512-41.3696c-13.7216 24.576-40.1408 41.3696-70.4512 41.3696s-56.5248-16.5888-70.4512-41.3696c-13.7216 24.576-40.1408 41.3696-70.4512 41.3696-30.1056 0-56.5248-16.5888-70.2464-41.1648-6.7584 12.6976-17.2032 23.552-30.1056 30.72z" fill="#1C1D21" p-id="7078"></path><path d="M576.3072 366.592H505.4464c-20.6848 0-40.5504-8.192-55.296-22.528-22.1184-21.504-52.4288-34.816-85.8112-34.816s-63.488 13.312-85.8112 34.816c-14.9504 14.336-34.6112 22.528-55.296 22.528H31.744c-12.0832 39.7312-19.2512 81.7152-20.8896 124.928h205.6192c22.1184 0 43.008 9.216 58.1632 25.3952 22.528 23.9616 54.4768 38.912 89.7024 38.912s67.3792-14.9504 89.7024-38.912c15.1552-15.9744 36.0448-25.3952 58.1632-25.3952h1.024c22.3232 0 40.3456 18.0224 40.3456 40.3456V643.072h131.072v-168.3456c-0.2048-59.8016-48.5376-108.1344-108.3392-108.1344z" fill="#FF8939" p-id="7079"></path><path d="M684.4416 653.312h-131.072c-5.7344 0-10.24-4.5056-10.24-10.24v-111.2064c0-16.5888-13.5168-30.1056-30.1056-30.1056h-1.024c-18.8416 0-37.2736 7.9872-50.5856 22.1184-25.1904 26.624-60.6208 41.984-97.28 41.984s-72.0896-15.36-97.28-41.984c-13.312-14.1312-31.744-22.1184-50.5856-22.1184H10.6496c-2.8672 0-5.5296-1.2288-7.3728-3.072-1.8432-2.048-2.8672-4.7104-2.8672-7.5776 1.8432-43.4176 9.0112-86.2208 21.504-127.3856 1.2288-4.3008 5.3248-7.3728 9.8304-7.3728H223.232c18.0224 0 35.2256-6.9632 48.3328-19.6608 24.9856-24.1664 57.9584-37.6832 92.7744-37.6832 34.816 0 67.7888 13.312 92.7744 37.6832 13.1072 12.6976 30.3104 19.6608 48.3328 19.6608h78.4384c61.0304 0 110.7968 49.7664 110.7968 110.7968V643.072c0 5.7344-4.7104 10.24-10.24 10.24z m-120.832-20.48h110.592v-165.6832c0-49.7664-40.5504-90.3168-90.3168-90.3168h-78.4384c-23.3472 0-45.4656-9.0112-62.464-25.6-21.0944-20.48-49.152-31.744-78.6432-31.744-29.4912 0-57.344 11.264-78.6432 31.744-16.9984 16.384-39.1168 25.6-62.464 25.6H39.3216c-9.6256 33.9968-15.7696 69.0176-17.8176 104.448h194.9696c24.576 0 48.3328 10.4448 65.536 28.672 21.504 22.9376 50.7904 35.6352 82.3296 35.6352 31.5392 0 60.6208-12.6976 82.3296-35.6352 16.9984-18.2272 40.96-28.672 65.536-28.672h1.024c27.8528 0 50.5856 22.7328 50.5856 50.5856V632.832z" fill="#1C1D21" p-id="7080"></path><path d="M331.776 237.3632h56.32V309.248H331.776z" fill="#FF8939" p-id="7081"></path><path d="M388.096 319.488H331.776c-5.7344 0-10.24-4.5056-10.24-10.24v-71.8848c0-5.7344 4.5056-10.24 10.24-10.24h56.32c5.7344 0 10.24 4.5056 10.24 10.24V309.248c0 5.7344-4.5056 10.24-10.24 10.24zM342.016 299.008h35.84v-51.4048H342.016V299.008z" fill="#1C1D21" p-id="7082"></path><path d="M468.992 237.3632H259.4816c-19.2512 0-34.816-15.5648-34.816-34.816s15.5648-34.816 34.816-34.816H468.992c19.2512 0 34.816 15.5648 34.816 34.816s-15.5648 34.816-34.816 34.816z" fill="#FF8939" p-id="7083"></path><path d="M468.992 247.6032H259.4816c-24.7808 0-45.056-20.2752-45.056-45.056s20.2752-45.056 45.056-45.056H468.992c24.7808 0 45.056 20.2752 45.056 45.056s-20.2752 45.056-45.056 45.056z m-209.5104-69.632c-13.5168 0-24.576 11.0592-24.576 24.576s11.0592 24.576 24.576 24.576H468.992c13.5168 0 24.576-11.0592 24.576-24.576s-11.0592-24.576-24.576-24.576H259.4816z" fill="#1C1D21" p-id="7084"></path><path d="M557.8752 1011.712c42.8032-3.8912 84.1728-13.1072 123.2896-27.2384V706.56h-123.2896v305.152z" fill="#508DEF" p-id="7085"></path><path d="M601.2928 924.672c-5.7344 0-10.24-4.5056-10.24-10.24V794.624c0-5.7344 4.5056-10.24 10.24-10.24s10.24 4.5056 10.24 10.24v119.808c0 5.7344-4.5056 10.24-10.24 10.24zM601.2928 1013.76c-5.7344 0-10.24-4.5056-10.24-10.24v-46.08c0-5.7344 4.5056-10.24 10.24-10.24s10.24 4.5056 10.24 10.24V1003.52c0 5.7344-4.5056 10.24-10.24 10.24zM601.2928 760.6272c-5.7344 0-10.24-4.5056-10.24-10.24v-5.5296c0-5.7344 4.5056-10.24 10.24-10.24s10.24 4.5056 10.24 10.24v5.5296c0 5.5296-4.5056 10.24-10.24 10.24z" fill="#ABD1FF" p-id="7086"></path><path d="M694.8864 706.56h-150.9376c-10.8544 0-19.8656-8.8064-19.8656-19.8656v-23.9616c0-10.8544 8.8064-19.8656 19.8656-19.8656h150.9376c10.8544 0 19.8656 8.8064 19.8656 19.8656v23.9616c0 11.0592-8.8064 19.8656-19.8656 19.8656z" fill="#FF8939" p-id="7087"></path><path d="M694.8864 716.8h-150.9376c-16.5888 0-30.1056-13.5168-30.1056-30.1056v-23.9616c0-16.5888 13.5168-30.1056 30.1056-30.1056h150.9376c16.5888 0 30.1056 13.5168 30.1056 30.1056v23.9616c0 16.5888-13.5168 30.1056-30.1056 30.1056z m-150.7328-63.488c-5.3248 0-9.6256 4.3008-9.6256 9.6256v23.9616c0 5.3248 4.3008 9.6256 9.6256 9.6256h150.9376c5.3248 0 9.6256-4.3008 9.6256-9.6256v-23.9616c0-5.3248-4.3008-9.6256-9.6256-9.6256h-150.9376zM681.1648 800.3584c-5.7344 0-10.24-4.5056-10.24-10.24v-15.36c0-5.7344 4.5056-10.24 10.24-10.24s10.24 4.5056 10.24 10.24v15.36c0 5.5296-4.5056 10.24-10.24 10.24z" fill="#1C1D21" p-id="7088"></path><path d="M557.8752 1021.952c-2.4576 0-4.9152-1.024-6.9632-2.6624-2.048-1.8432-3.2768-4.7104-3.2768-7.5776V706.56c0-5.7344 4.5056-10.24 10.24-10.24h123.2896c5.7344 0 10.24 4.5056 10.24 10.24v29.696c0 5.7344-4.5056 10.24-10.24 10.24s-10.24-4.5056-10.24-10.24V716.8h-102.8096v283.4432c35.0208-3.8912 69.4272-11.6736 102.8096-23.1424V839.68c0-5.7344 4.5056-10.24 10.24-10.24s10.24 4.5056 10.24 10.24v144.7936c0 4.3008-2.6624 8.192-6.7584 9.6256-40.3456 14.5408-82.7392 23.7568-125.7472 27.648-0.4096 0.2048-0.6144 0.2048-1.024 0.2048zM230.8096 792.576c-5.7344 0-10.24-4.5056-10.24-10.24v-7.7824c0-5.7344 4.5056-10.24 10.24-10.24s10.24 4.5056 10.24 10.24v7.7824c0 5.7344-4.7104 10.24-10.24 10.24zM371.712 792.576c-5.7344 0-10.24-4.5056-10.24-10.24v-7.7824c0-5.7344 4.5056-10.24 10.24-10.24s10.24 4.5056 10.24 10.24v7.7824c0 5.7344-4.5056 10.24-10.24 10.24zM512 792.576c-5.7344 0-10.24-4.5056-10.24-10.24v-7.7824c0-5.7344 4.5056-10.24 10.24-10.24s10.24 4.5056 10.24 10.24v7.7824c0 5.7344-4.5056 10.24-10.24 10.24zM792.9856 792.576c-5.7344 0-10.24-4.5056-10.24-10.24v-7.7824c0-5.7344 4.5056-10.24 10.24-10.24s10.24 4.5056 10.24 10.24v7.7824c0 5.7344-4.7104 10.24-10.24 10.24z" fill="#1C1D21" p-id="7089"></path><path d="M11.0592 539.2384h61.44c25.1904 0 45.6704-20.48 45.6704-45.6704v-131.072c0-25.1904-20.48-45.6704-45.6704-45.6704H49.5616C24.3712 376.832 10.24 442.7776 10.24 512c0 9.216 0.2048 18.2272 0.8192 27.2384z" fill="#FF8939" p-id="7090"></path><path d="M72.2944 549.4784h-61.44c-5.5296 0-10.0352-4.3008-10.24-9.6256C0.2048 530.432 0 521.0112 0 512c0-69.0176 13.5168-136.192 40.1408-199.2704 1.6384-3.8912 5.3248-6.3488 9.4208-6.3488h22.7328c30.9248 0 55.9104 25.1904 55.9104 55.9104v131.072c0.2048 31.1296-24.9856 56.1152-55.9104 56.1152z m-51.6096-20.48h51.6096c19.6608 0 35.4304-15.9744 35.4304-35.4304v-131.072c0-19.6608-15.9744-35.4304-35.4304-35.4304h-15.9744C32.5632 385.6384 20.48 447.8976 20.48 512c0 5.5296 0 11.264 0.2048 16.9984zM169.3696 427.6224c-5.7344 0-10.24-4.5056-10.24-10.24V366.592c0-5.7344 4.5056-10.24 10.24-10.24s10.24 4.5056 10.24 10.24v50.7904c0 5.7344-4.7104 10.24-10.24 10.24zM169.3696 464.2816c-5.7344 0-10.24-4.5056-10.24-10.24v-4.5056c0-5.7344 4.5056-10.24 10.24-10.24s10.24 4.5056 10.24 10.24v4.5056c0 5.5296-4.7104 10.24-10.24 10.24zM605.5936 604.16h-52.224c-5.7344 0-10.24-4.5056-10.24-10.24s4.5056-10.24 10.24-10.24h52.224c5.7344 0 10.24 4.5056 10.24 10.24s-4.7104 10.24-10.24 10.24zM644.7104 604.16h-3.4816c-5.7344 0-10.24-4.5056-10.24-10.24s4.5056-10.24 10.24-10.24h3.4816c5.7344 0 10.24 4.5056 10.24 10.24s-4.5056 10.24-10.24 10.24z" fill="#1C1D21" p-id="7091"></path></svg>