<svg xmlns="http://www.w3.org/2000/svg" viewBox="0 0 1024 1024" version="1.1"><path d="M512 512m-501.76 0a501.76 501.76 0 1 0 1003.52 0 501.76 501.76 0 1 0-1003.52 0Z" fill="#8CEEF9" p-id="7223"></path><path d="M512 1024c-136.8064 0-265.4208-53.248-362.0864-149.9136C53.248 777.4208 0 648.8064 0 512S53.248 246.5792 149.9136 149.9136C246.5792 53.248 375.1936 0 512 0s265.4208 53.248 362.0864 149.9136C970.752 246.5792 1024 375.1936 1024 512s-53.248 265.4208-149.9136 362.0864C777.4208 970.752 648.8064 1024 512 1024z m0-1003.52C241.0496 20.48 20.48 241.0496 20.48 512s220.5696 491.52 491.52 491.52 491.52-220.5696 491.52-491.52S782.9504 20.48 512 20.48z" fill="#1C1D21" p-id="7224"></path><path d="M512 276.6848c205.4144 0 355.5328 135.9872 415.5392 201.3184 17.6128 19.2512 17.6128 48.7424 0 67.9936-60.0064 65.1264-210.1248 201.3184-415.5392 201.3184S156.4672 611.1232 96.4608 545.9968c-17.6128-19.2512-17.6128-48.7424 0-67.9936 60.0064-65.1264 210.1248-201.3184 415.5392-201.3184z" fill="#FF8939" p-id="7225"></path><path d="M512 512m-235.3152 0a235.3152 235.3152 0 1 0 470.6304 0 235.3152 235.3152 0 1 0-470.6304 0Z" fill="#508DEF" p-id="7226"></path><path d="M624.2304 512s-0.6144 68.4032-16.9984 124.3136c0 0 55.296 21.504 67.584 45.4656 0 0 78.0288-67.9936 65.3312-169.7792h-115.9168z" fill="#0ABFB2" p-id="7227"></path><path d="M512 757.5552c-135.3728 0-245.5552-110.1824-245.5552-245.5552S376.6272 266.4448 512 266.4448 757.5552 376.6272 757.5552 512 647.3728 757.5552 512 757.5552z m0-470.6304c-124.1088 0-225.0752 100.9664-225.0752 225.0752S387.8912 737.0752 512 737.0752 737.0752 636.1088 737.0752 512 636.1088 286.9248 512 286.9248z" fill="#1C1D21" p-id="7228"></path><path d="M348.5696 618.9056c-3.4816 0-6.9632-1.8432-8.8064-5.12-18.2272-30.72-27.8528-65.9456-27.8528-101.7856 0-45.8752 15.9744-90.9312 45.056-126.5664 28.672-35.0208 68.8128-59.5968 112.8448-69.2224 5.5296-1.2288 11.0592 2.2528 12.0832 7.7824s-2.2528 11.0592-7.7824 12.0832c-82.1248 17.8176-141.7216 91.5456-141.7216 175.7184 0 32.1536 8.6016 63.6928 24.9856 91.3408 2.8672 4.9152 1.2288 11.0592-3.4816 14.1312-1.8432 1.024-3.6864 1.6384-5.3248 1.6384z" fill="#ABD1FF" p-id="7229"></path><path d="M495.616 276.6848s-97.0752 2.048-155.2384 74.5472c0 0 31.744 34.4064 72.0896 52.4288-0.2048-0.2048 10.0352-103.2192 83.1488-126.976zM512 512h-112.2304s-0.2048 79.872 16.9984 124.3136c0 0 57.1392-26.8288 95.4368-20.0704V512zM611.7376 403.456s-49.3568 24.1664-99.7376 22.1184v-141.5168c0 0.2048 65.9456-17.6128 99.7376 119.3984zM416.5632 636.3136s-49.7664 16.9984-67.584 45.4656c0 0 66.7648 62.2592 139.4688 64.3072 0 0-56.5248-27.0336-71.8848-109.7728z" fill="#0ABFB2" p-id="7230"></path><path d="M512 757.5552c-63.6928 0-124.1088-24.3712-169.984-68.4032-2.048-1.8432-3.072-4.5056-3.072-7.3728s1.2288-5.5296 3.072-7.3728c45.8752-44.032 106.2912-68.4032 169.984-68.4032s124.1088 24.3712 169.984 68.4032c2.048 1.8432 3.072 4.5056 3.072 7.3728s-1.2288 5.5296-3.072 7.3728c-45.8752 44.032-106.2912 68.4032-169.984 68.4032z m-147.6608-75.776c40.96 35.84 92.9792 55.296 147.6608 55.296s106.7008-19.6608 147.6608-55.296c-40.96-35.84-92.9792-55.296-147.6608-55.296s-106.7008 19.456-147.6608 55.296z" fill="#1C1D21" p-id="7231"></path><path d="M512 757.5552c-5.7344 0-10.24-4.5056-10.24-10.24V276.6848c0-5.7344 4.5056-10.24 10.24-10.24s10.24 4.5056 10.24 10.24v470.6304c0 5.5296-4.5056 10.24-10.24 10.24z" fill="#1C1D21" p-id="7232"></path><path d="M747.3152 522.24H276.6848c-5.7344 0-10.24-4.5056-10.24-10.24s4.5056-10.24 10.24-10.24h470.6304c5.7344 0 10.24 4.5056 10.24 10.24s-4.7104 10.24-10.24 10.24zM261.9392 356.1472c-3.4816 0-6.9632-1.8432-9.0112-5.12-2.8672-4.9152-1.024-11.264 3.8912-13.9264 4.9152-2.8672 10.0352-5.5296 15.1552-8.192 4.9152-2.6624 11.264-0.8192 13.9264 4.3008 2.6624 4.9152 0.8192 11.264-4.3008 13.9264-4.9152 2.6624-9.8304 5.3248-14.5408 7.9872-1.6384 0.4096-3.4816 1.024-5.12 1.024z" fill="#1C1D21" p-id="7233"></path><path d="M512 757.5552c-91.136 0-181.248-26.2144-267.4688-77.6192-70.8608-42.1888-123.6992-92.3648-155.648-126.976-21.0944-22.9376-21.0944-58.9824 0-81.92 24.3712-26.4192 64.3072-65.536 117.3504-102.4 4.7104-3.2768 11.0592-2.048 14.336 2.6624 3.2768 4.7104 2.048 11.0592-2.6624 14.336-51.4048 35.84-90.3168 73.728-114.0736 99.328-13.9264 15.1552-13.9264 38.912 0 54.0672 54.8864 59.5968 204.3904 198.0416 408.1664 198.0416s353.28-138.4448 408.1664-198.0416c13.9264-15.1552 13.9264-38.912 0-54.0672-54.8864-59.5968-204.3904-198.0416-408.1664-198.0416-63.2832 0-126.7712 13.312-188.6208 39.7312-5.12 2.2528-11.264-0.2048-13.5168-5.3248-2.2528-5.12 0.2048-11.264 5.3248-13.5168 64.3072-27.4432 130.4576-41.3696 196.608-41.3696 91.136 0 181.248 26.2144 267.4688 77.6192 70.8608 42.1888 123.6992 92.3648 155.648 126.976 21.0944 22.9376 21.0944 58.9824 0 81.92-31.9488 34.6112-84.7872 84.7872-155.648 126.976-86.016 51.4048-176.128 77.6192-267.264 77.6192z" fill="#1C1D21" p-id="7234"></path><path d="M512 757.5552c-91.136 0-181.248-26.2144-267.4688-77.6192-70.8608-42.1888-123.6992-92.3648-155.648-126.976-21.0944-22.9376-21.0944-58.9824 0-81.92 31.9488-34.6112 84.7872-84.7872 155.648-126.976 86.4256-51.6096 176.3328-77.6192 267.4688-77.6192s181.248 26.2144 267.4688 77.6192c70.8608 42.1888 123.6992 92.3648 155.648 126.976 21.0944 22.9376 21.0944 58.9824 0 81.92-24.3712 26.4192-64.3072 65.536-117.3504 102.4-4.7104 3.2768-11.0592 2.048-14.336-2.6624-3.2768-4.7104-2.048-11.0592 2.6624-14.336 51.4048-35.84 90.3168-73.728 114.0736-99.328 13.9264-15.1552 13.9264-38.912 0-54.0672-54.8864-59.5968-204.3904-198.0416-408.1664-198.0416S158.72 425.3696 103.8336 484.9664c-13.9264 15.1552-13.9264 38.912 0 54.0672 54.8864 59.5968 204.3904 198.0416 408.1664 198.0416 63.2832 0 126.7712-13.312 188.6208-39.7312 5.12-2.2528 11.264 0.2048 13.5168 5.3248 2.2528 5.12-0.2048 11.264-5.3248 13.5168-64.512 27.4432-130.6624 41.3696-196.8128 41.3696z" fill="#1C1D21" p-id="7235"></path><path d="M129.6384 518.9632c-2.4576 0-4.9152-0.8192-6.9632-2.6624-4.096-3.8912-4.5056-10.24-0.6144-14.5408 13.7216-14.9504 36.2496-37.6832 65.7408-62.0544 4.3008-3.6864 10.8544-3.072 14.336 1.4336 3.6864 4.3008 3.072 10.8544-1.4336 14.336-28.4672 23.552-50.3808 45.6704-63.6928 60.2112-1.8432 2.2528-4.5056 3.2768-7.3728 3.2768zM240.0256 423.5264c-3.2768 0-6.5536-1.6384-8.3968-4.5056-3.2768-4.7104-2.048-11.0592 2.6624-14.336 3.6864-2.4576 7.5776-5.12 11.264-7.5776 4.7104-3.072 11.0592-1.8432 14.1312 2.8672s1.8432 11.0592-2.8672 14.1312c-3.6864 2.4576-7.168 4.9152-10.8544 7.3728-2.048 1.4336-4.096 2.048-5.9392 2.048z" fill="#FFC9A4" p-id="7236"></path><path d="M374.3744 391.3728c-2.4576 0-5.12-1.024-6.9632-2.8672-4.096-3.8912-4.3008-10.4448-0.4096-14.5408 18.6368-19.6608 40.7552-35.0208 65.536-45.8752 5.12-2.2528 11.264 0.2048 13.5168 5.3248s-0.2048 11.264-5.3248 13.5168c-22.3232 9.6256-41.984 23.552-58.7776 41.1648-2.2528 2.2528-4.9152 3.2768-7.5776 3.2768z" fill="#5AFFDF" p-id="7237"></path><path d="M512 757.5552c-68.8128 0-122.4704-107.9296-122.4704-245.5552s53.8624-245.5552 122.4704-245.5552 122.4704 107.9296 122.4704 245.5552-53.6576 245.5552-122.4704 245.5552z m0-470.6304c-55.296 0-101.9904 103.0144-101.9904 225.0752S456.704 737.0752 512 737.0752s101.9904-103.0144 101.9904-225.0752S567.296 286.9248 512 286.9248z" fill="#1C1D21" p-id="7238"></path><path d="M512 435.8144c-67.584 0-132.9152-28.2624-179.2-77.6192-3.6864-3.8912-3.6864-10.0352 0-13.9264 46.2848-49.3568 111.616-77.6192 179.2-77.6192s132.9152 28.2624 179.2 77.6192c3.6864 3.8912 3.6864 10.0352 0 13.9264-46.2848 49.3568-111.616 77.6192-179.2 77.6192z m-157.4912-84.5824c42.1888 41.5744 97.6896 64.3072 157.4912 64.3072s115.0976-22.7328 157.4912-64.3072c-42.1888-41.5744-97.6896-64.3072-157.4912-64.3072s-115.0976 22.7328-157.4912 64.3072z" fill="#1C1D21" p-id="7239"></path></svg>