<svg xmlns="http://www.w3.org/2000/svg" viewBox="0 0 1024 1024" version="1.1"><path d="M512 512m-501.76 0a501.76 501.76 0 1 0 1003.52 0 501.76 501.76 0 1 0-1003.52 0Z" fill="#508DEF" p-id="8432"></path><path d="M512 1024c-136.8064 0-265.4208-53.248-362.0864-149.9136C53.248 777.4208 0 648.8064 0 512S53.248 246.5792 149.9136 149.9136C246.5792 53.248 375.1936 0 512 0s265.4208 53.248 362.0864 149.9136C970.752 246.5792 1024 375.1936 1024 512s-53.248 265.4208-149.9136 362.0864C777.4208 970.752 648.8064 1024 512 1024z m0-1003.52C241.0496 20.48 20.48 241.0496 20.48 512s220.5696 491.52 491.52 491.52 491.52-220.5696 491.52-491.52S782.9504 20.48 512 20.48z" fill="#1C1D21" p-id="8433"></path><path d="M512 1013.76c117.1456 0 224.8704-40.1408 310.272-107.52h-620.544C287.1296 973.6192 394.8544 1013.76 512 1013.76z" fill="#AAADAD" p-id="8434"></path><path d="M512 1024c-116.1216 0-225.6896-37.888-316.6208-109.568-3.4816-2.6624-4.7104-7.3728-3.2768-11.4688 1.4336-4.096 5.3248-6.9632 9.6256-6.9632h620.544c4.3008 0 8.192 2.6624 9.6256 6.9632 1.4336 4.096 0 8.6016-3.2768 11.4688-90.9312 71.68-200.4992 109.568-316.6208 109.568z m-279.3472-107.52c82.1248 56.9344 178.176 87.04 279.3472 87.04s197.0176-29.9008 279.3472-87.04H232.6528z" fill="#1C1D21" p-id="8435"></path><path d="M725.1968 848.2816H299.008c-16.9984 0-30.72-13.7216-30.72-30.72V353.4848c0-16.9984 13.7216-30.72 30.72-30.72h426.1888c16.9984 0 30.72 13.7216 30.72 30.72v464.0768c0 16.7936-13.7216 30.72-30.72 30.72z" fill="#E0E0E0" p-id="8436"></path><path d="M327.4752 389.3248c-5.7344 0-10.24-4.5056-10.24-10.24v-15.5648c0-5.7344 4.5056-10.24 10.24-10.24s10.24 4.5056 10.24 10.24v15.5648c0 5.7344-4.7104 10.24-10.24 10.24zM327.4752 817.5616c-5.7344 0-10.24-4.5056-10.24-10.24V437.248c0-5.7344 4.5056-10.24 10.24-10.24s10.24 4.5056 10.24 10.24v370.0736c0 5.5296-4.7104 10.24-10.24 10.24z" fill="#FFFFFF" p-id="8437"></path><path d="M268.288 558.2848c-5.7344 0-10.24-4.5056-10.24-10.24v-8.3968c0-5.7344 4.5056-10.24 10.24-10.24s10.24 4.5056 10.24 10.24v8.3968c0 5.7344-4.5056 10.24-10.24 10.24z" fill="#1C1D21" p-id="8438"></path><path d="M725.1968 858.5216H299.008c-22.528 0-40.96-18.432-40.96-40.96V586.5472c0-5.7344 4.5056-10.24 10.24-10.24s10.24 4.5056 10.24 10.24v231.0144c0 11.264 9.216 20.48 20.48 20.48h426.1888c11.264 0 20.48-9.216 20.48-20.48V353.4848c0-11.264-9.216-20.48-20.48-20.48H299.008c-11.264 0-20.48 9.216-20.48 20.48v148.8896c0 5.7344-4.5056 10.24-10.24 10.24s-10.24-4.5056-10.24-10.24v-148.8896c0-22.528 18.432-40.96 40.96-40.96h426.1888c22.528 0 40.96 18.432 40.96 40.96v464.0768c0 22.528-18.432 40.96-40.96 40.96z" fill="#1C1D21" p-id="8439"></path><path d="M728.6784 322.7648H690.176v525.5168h38.5024c15.1552 0 27.2384-12.288 27.2384-27.2384v-471.04c0-15.1552-12.0832-27.2384-27.2384-27.2384z" fill="#AAADAD" p-id="8440"></path><path d="M728.6784 858.5216H690.176c-5.7344 0-10.24-4.5056-10.24-10.24V322.7648c0-5.7344 4.5056-10.24 10.24-10.24h38.5024c20.6848 0 37.4784 16.7936 37.4784 37.4784v471.04c0 20.48-16.7936 37.4784-37.4784 37.4784z m-28.2624-20.48h28.2624c9.4208 0 16.9984-7.5776 16.9984-16.9984v-471.04c0-9.4208-7.5776-16.9984-16.9984-16.9984H700.416v505.0368zM491.52 678.912c-5.7344 0-10.24-4.5056-10.24-10.24v-166.2976c0-5.7344 4.5056-10.24 10.24-10.24s10.24 4.5056 10.24 10.24v166.2976c0 5.5296-4.5056 10.24-10.24 10.24z" fill="#1C1D21" p-id="8441"></path><path d="M432.7424 654.5408c-2.6624 0-5.3248-1.024-7.168-3.072-4.096-4.096-4.096-10.4448 0-14.5408l117.5552-117.5552c4.096-4.096 10.4448-4.096 14.5408 0s4.096 10.4448 0 14.5408l-117.5552 117.5552c-2.048 2.048-4.7104 3.072-7.3728 3.072z" fill="#1C1D21" p-id="8442"></path><path d="M574.6688 595.7632h-166.2976c-5.7344 0-10.24-4.5056-10.24-10.24s4.5056-10.24 10.24-10.24h166.2976c5.7344 0 10.24 4.5056 10.24 10.24s-4.5056 10.24-10.24 10.24z" fill="#1C1D21" p-id="8443"></path><path d="M550.2976 654.5408c-2.6624 0-5.3248-1.024-7.168-3.072l-117.5552-117.5552c-4.096-4.096-4.096-10.4448 0-14.5408s10.4448-4.096 14.5408 0l117.5552 117.5552c4.096 4.096 4.096 10.4448 0 14.5408-2.048 2.048-4.7104 3.072-7.3728 3.072z" fill="#1C1D21" p-id="8444"></path><path d="M491.52 585.5232m-45.8752 0a45.8752 45.8752 0 1 0 91.7504 0 45.8752 45.8752 0 1 0-91.7504 0Z" fill="#AAADAD" p-id="8445"></path><path d="M491.52 678.912c-51.4048 0-93.3888-41.984-93.3888-93.3888s41.984-93.3888 93.3888-93.3888 93.3888 41.984 93.3888 93.3888-41.7792 93.3888-93.3888 93.3888z m0-166.2976c-40.1408 0-72.9088 32.768-72.9088 72.9088s32.768 72.9088 72.9088 72.9088 72.9088-32.768 72.9088-72.9088-32.5632-72.9088-72.9088-72.9088z" fill="#1C1D21" p-id="8446"></path><path d="M491.52 641.4336c-30.9248 0-56.1152-25.1904-56.1152-56.1152s25.1904-56.1152 56.1152-56.1152c30.9248 0 56.1152 25.1904 56.1152 56.1152s-25.1904 56.1152-56.1152 56.1152z m0-91.5456c-19.6608 0-35.6352 15.9744-35.6352 35.6352s15.9744 35.6352 35.6352 35.6352 35.6352-15.9744 35.6352-35.6352-15.9744-35.6352-35.6352-35.6352z" fill="#1C1D21" p-id="8447"></path><path d="M491.52 585.5232m-10.0352 0a10.0352 10.0352 0 1 0 20.0704 0 10.0352 10.0352 0 1 0-20.0704 0Z" fill="#1C1D21" p-id="8448"></path><path d="M278.3232 467.968h-20.0704c-8.6016 0-15.36-6.9632-15.36-15.36 0-8.6016 6.9632-15.36 15.36-15.36h20.0704c8.6016 0 15.36 6.9632 15.36 15.36 0 8.6016-6.9632 15.36-15.36 15.36z" fill="#E0E0E0" p-id="8449"></path><path d="M278.3232 478.208h-20.0704c-14.1312 0-25.6-11.4688-25.6-25.6s11.4688-25.6 25.6-25.6h20.0704c14.1312 0 25.6 11.4688 25.6 25.6s-11.4688 25.6-25.6 25.6z m-20.0704-30.72c-2.8672 0-5.12 2.2528-5.12 5.12s2.2528 5.12 5.12 5.12h20.0704c2.8672 0 5.12-2.2528 5.12-5.12s-2.2528-5.12-5.12-5.12h-20.0704z" fill="#1C1D21" p-id="8450"></path><path d="M278.3232 733.7984h-20.0704c-8.6016 0-15.36-6.9632-15.36-15.36 0-8.6016 6.9632-15.36 15.36-15.36h20.0704c8.6016 0 15.36 6.9632 15.36 15.36s-6.9632 15.36-15.36 15.36z" fill="#E0E0E0" p-id="8451"></path><path d="M278.3232 744.0384h-20.0704c-14.1312 0-25.6-11.4688-25.6-25.6s11.4688-25.6 25.6-25.6h20.0704c14.1312 0 25.6 11.4688 25.6 25.6s-11.4688 25.6-25.6 25.6z m-20.0704-30.9248c-2.8672 0-5.12 2.2528-5.12 5.12s2.2528 5.12 5.12 5.12h20.0704c2.8672 0 5.12-2.2528 5.12-5.12s-2.2528-5.12-5.12-5.12h-20.0704z" fill="#1C1D21" p-id="8452"></path><path d="M555.2128 848.2816H616.448v58.1632h-61.2352z" fill="#E0E0E0" p-id="8453"></path><path d="M616.448 916.48h-61.2352c-5.7344 0-10.24-4.5056-10.24-10.24v-58.1632c0-5.7344 4.5056-10.24 10.24-10.24H616.448c5.7344 0 10.24 4.5056 10.24 10.24v58.1632c0 5.7344-4.5056 10.24-10.24 10.24z m-50.9952-20.48H606.208v-37.6832h-40.7552v37.6832z" fill="#1C1D21" p-id="8454"></path><path d="M302.8992 848.2816h61.2352v58.1632h-61.2352z" fill="#E0E0E0" p-id="8455"></path><path d="M364.1344 848.2816h38.0928v58.1632h-38.0928z" fill="#AAADAD" p-id="8456"></path><path d="M364.1344 916.48h-61.2352c-5.7344 0-10.24-4.5056-10.24-10.24v-58.1632c0-5.7344 4.5056-10.24 10.24-10.24h61.2352c5.7344 0 10.24 4.5056 10.24 10.24v58.1632c0 5.7344-4.5056 10.24-10.24 10.24z m-50.9952-20.48h40.7552v-37.6832h-40.7552v37.6832z" fill="#1C1D21" p-id="8457"></path><path d="M402.2272 916.48h-38.0928c-5.7344 0-10.24-4.5056-10.24-10.24v-58.1632c0-5.7344 4.5056-10.24 10.24-10.24h38.0928c5.7344 0 10.24 4.5056 10.24 10.24v58.1632c0 5.7344-4.5056 10.24-10.24 10.24z m-27.8528-20.48h17.6128v-37.6832h-17.6128v37.6832z" fill="#1C1D21" p-id="8458"></path><path d="M525.1072 252.3136h-26.4192c-7.168 0-13.1072-5.9392-13.1072-13.1072V106.7008c0-7.168 5.9392-13.1072 13.1072-13.1072h26.4192c7.168 0 13.1072 5.9392 13.1072 13.1072v132.7104c0 7.168-5.7344 12.9024-13.1072 12.9024z" fill="#8CEEF9" p-id="8459"></path><path d="M525.1072 262.5536h-26.4192c-12.9024 0-23.3472-10.4448-23.3472-23.3472V106.7008c0-12.9024 10.4448-23.3472 23.3472-23.3472h26.4192c12.9024 0 23.3472 10.4448 23.3472 23.3472v132.7104c0 12.6976-10.4448 23.1424-23.3472 23.1424z m-26.2144-158.72c-1.6384 0-2.8672 1.2288-2.8672 2.8672v132.7104c0 1.6384 1.2288 2.8672 2.8672 2.8672h26.4192c1.6384 0 2.8672-1.2288 2.8672-2.8672V106.7008c0-1.6384-1.2288-2.8672-2.8672-2.8672h-26.4192z" fill="#1C1D21" p-id="8460"></path><path d="M538.2144 79.6672v13.9264h-52.4288v-13.9264c0-14.5408 11.6736-26.2144 26.2144-26.2144 14.5408 0 26.2144 11.6736 26.2144 26.2144z" fill="#FF8939" p-id="8461"></path><path d="M538.2144 103.8336h-52.4288c-5.7344 0-10.24-4.5056-10.24-10.24v-13.9264c0-20.0704 16.384-36.4544 36.4544-36.4544s36.4544 16.384 36.4544 36.4544v13.9264c0 5.7344-4.5056 10.24-10.24 10.24z m-42.1888-20.48h31.9488v-3.6864c0-8.8064-7.168-15.9744-15.9744-15.9744s-15.9744 7.168-15.9744 15.9744v3.6864z" fill="#1C1D21" p-id="8462"></path><path d="M534.9376 286.9248h-46.08c-9.8304 0-18.0224 7.9872-18.0224 18.0224 0 9.8304 7.9872 18.0224 18.0224 18.0224h46.08c9.8304 0 18.0224-7.9872 18.0224-18.0224s-7.9872-18.0224-18.0224-18.0224z" fill="#8CEEF9" p-id="8463"></path><path d="M534.9376 333.0048h-46.08c-15.5648 0-28.2624-12.6976-28.2624-28.2624s12.6976-28.2624 28.2624-28.2624h46.08c15.5648 0 28.2624 12.6976 28.2624 28.2624s-12.6976 28.2624-28.2624 28.2624z m-45.8752-35.84c-4.3008 0-7.7824 3.4816-7.7824 7.7824s3.4816 7.7824 7.7824 7.7824h46.08c4.3008 0 7.7824-3.4816 7.7824-7.7824s-3.4816-7.7824-7.7824-7.7824h-46.08z" fill="#1C1D21" p-id="8464"></path><path d="M512 297.1648c-5.7344 0-10.24-4.5056-10.24-10.24v-34.4064c0-5.7344 4.5056-10.24 10.24-10.24s10.24 4.5056 10.24 10.24v34.4064c0 5.5296-4.5056 10.24-10.24 10.24zM502.3744 148.2752h-16.5888c-5.7344 0-10.24-4.5056-10.24-10.24s4.5056-10.24 10.24-10.24h16.5888c5.7344 0 10.24 4.5056 10.24 10.24s-4.5056 10.24-10.24 10.24zM502.3744 183.296h-16.5888c-5.7344 0-10.24-4.5056-10.24-10.24s4.5056-10.24 10.24-10.24h16.5888c5.7344 0 10.24 4.5056 10.24 10.24s-4.5056 10.24-10.24 10.24zM502.3744 218.112h-16.5888c-5.7344 0-10.24-4.5056-10.24-10.24s4.5056-10.24 10.24-10.24h16.5888c5.7344 0 10.24 4.5056 10.24 10.24s-4.5056 10.24-10.24 10.24z" fill="#1C1D21" p-id="8465"></path><path d="M618.496 685.4656V884.736c0 11.8784 9.6256 21.7088 21.7088 21.7088h50.5856c11.8784 0 21.7088-9.6256 21.7088-21.7088v-199.2704c0-16.9984-13.7216-30.72-30.72-30.72H649.216c-16.9984 0-30.72 13.7216-30.72 30.72z" fill="#8CEEF9" p-id="8466"></path><path d="M690.7904 916.48h-50.5856c-17.6128 0-31.9488-14.336-31.9488-31.9488v-199.2704c0-22.528 18.432-40.96 40.96-40.96h32.5632c22.528 0 40.96 18.432 40.96 40.96V884.736c-0.2048 17.6128-14.5408 31.744-31.9488 31.744z m-41.7792-251.4944c-11.264 0-20.48 9.216-20.48 20.48V884.736c0 6.3488 5.12 11.4688 11.4688 11.4688h50.5856c6.3488 0 11.4688-5.12 11.4688-11.4688v-199.2704c0-11.264-9.216-20.48-20.48-20.48h-32.5632z" fill="#1C1D21" p-id="8467"></path><path d="M697.9584 606.6176H632.832c-7.9872 0-14.336 6.3488-14.336 14.336v19.456c0 7.9872 6.3488 14.336 14.336 14.336h65.3312c7.9872 0 14.336-6.3488 14.336-14.336v-19.456c-0.2048-7.9872-6.5536-14.336-14.5408-14.336z" fill="#FF8939" p-id="8468"></path><path d="M697.9584 664.9856H632.832c-13.5168 0-24.576-11.0592-24.576-24.576v-19.456c0-13.5168 11.0592-24.576 24.576-24.576h65.3312c13.5168 0 24.576 11.0592 24.576 24.576v19.456c-0.2048 13.5168-11.264 24.576-24.7808 24.576zM632.832 616.8576c-2.2528 0-4.096 1.8432-4.096 4.096v19.456c0 2.2528 1.8432 4.096 4.096 4.096h65.3312c2.2528 0 4.096-1.8432 4.096-4.096v-19.456c0-2.2528-1.8432-4.096-4.096-4.096H632.832z" fill="#1C1D21" p-id="8469"></path><path d="M641.8432 882.688m-23.552 0a23.552 23.552 0 1 0 47.104 0 23.552 23.552 0 1 0-47.104 0Z" fill="#FF3E63" p-id="8470"></path><path d="M688.9472 882.688m-23.552 0a23.552 23.552 0 1 0 47.104 0 23.552 23.552 0 1 0-47.104 0Z" fill="#FF3E63" p-id="8471"></path><path d="M641.8432 835.584m-23.552 0a23.552 23.552 0 1 0 47.104 0 23.552 23.552 0 1 0-47.104 0Z" fill="#FF3E63" p-id="8472"></path><path d="M688.9472 835.584m-23.552 0a23.552 23.552 0 1 0 47.104 0 23.552 23.552 0 1 0-47.104 0Z" fill="#FF3E63" p-id="8473"></path><path d="M641.8432 788.48m-23.552 0a23.552 23.552 0 1 0 47.104 0 23.552 23.552 0 1 0-47.104 0Z" fill="#FF3E63" p-id="8474"></path><path d="M688.9472 788.48m-23.552 0a23.552 23.552 0 1 0 47.104 0 23.552 23.552 0 1 0-47.104 0Z" fill="#FF3E63" p-id="8475"></path><path d="M641.8432 916.48c-18.6368 0-33.792-15.1552-33.792-33.792s15.1552-33.792 33.792-33.792 33.792 15.1552 33.792 33.792-15.1552 33.792-33.792 33.792z m0-47.104c-7.3728 0-13.312 5.9392-13.312 13.312s5.9392 13.312 13.312 13.312 13.312-5.9392 13.312-13.312-5.9392-13.312-13.312-13.312z" fill="#1C1D21" p-id="8476"></path><path d="M688.9472 916.48c-18.6368 0-33.792-15.1552-33.792-33.792s15.1552-33.792 33.792-33.792 33.792 15.1552 33.792 33.792-15.1552 33.792-33.792 33.792z m0-47.104c-7.3728 0-13.312 5.9392-13.312 13.312s5.9392 13.312 13.312 13.312 13.312-5.9392 13.312-13.312-5.9392-13.312-13.312-13.312zM641.8432 869.376c-18.6368 0-33.792-15.1552-33.792-33.792s15.1552-33.792 33.792-33.792 33.792 15.1552 33.792 33.792-15.1552 33.792-33.792 33.792z m0-47.104c-7.3728 0-13.312 5.9392-13.312 13.312s5.9392 13.312 13.312 13.312 13.312-5.9392 13.312-13.312-5.9392-13.312-13.312-13.312z" fill="#1C1D21" p-id="8477"></path><path d="M688.9472 869.376c-18.6368 0-33.792-15.1552-33.792-33.792s15.1552-33.792 33.792-33.792 33.792 15.1552 33.792 33.792-15.1552 33.792-33.792 33.792z m0-47.104c-7.3728 0-13.312 5.9392-13.312 13.312s5.9392 13.312 13.312 13.312 13.312-5.9392 13.312-13.312-5.9392-13.312-13.312-13.312zM641.8432 822.272c-18.6368 0-33.792-15.1552-33.792-33.792s15.1552-33.792 33.792-33.792 33.792 15.1552 33.792 33.792-15.1552 33.792-33.792 33.792z m0-47.104c-7.3728 0-13.312 5.9392-13.312 13.312s5.9392 13.312 13.312 13.312 13.312-5.9392 13.312-13.312-5.9392-13.312-13.312-13.312z" fill="#1C1D21" p-id="8478"></path><path d="M688.9472 822.272c-18.6368 0-33.792-15.1552-33.792-33.792s15.1552-33.792 33.792-33.792 33.792 15.1552 33.792 33.792-15.1552 33.792-33.792 33.792z m0-47.104c-7.3728 0-13.312 5.9392-13.312 13.312s5.9392 13.312 13.312 13.312 13.312-5.9392 13.312-13.312-5.9392-13.312-13.312-13.312z" fill="#1C1D21" p-id="8479"></path><path d="M641.8432 741.376m-23.552 0a23.552 23.552 0 1 0 47.104 0 23.552 23.552 0 1 0-47.104 0Z" fill="#FF3E63" p-id="8480"></path><path d="M688.9472 741.376m-23.552 0a23.552 23.552 0 1 0 47.104 0 23.552 23.552 0 1 0-47.104 0Z" fill="#FF3E63" p-id="8481"></path><path d="M641.8432 775.168c-18.6368 0-33.792-15.1552-33.792-33.792s15.1552-33.792 33.792-33.792 33.792 15.1552 33.792 33.792-15.1552 33.792-33.792 33.792z m0-47.104c-7.3728 0-13.312 5.9392-13.312 13.312s5.9392 13.312 13.312 13.312 13.312-5.9392 13.312-13.312-5.9392-13.312-13.312-13.312z" fill="#1C1D21" p-id="8482"></path><path d="M688.9472 775.168c-18.6368 0-33.792-15.1552-33.792-33.792s15.1552-33.792 33.792-33.792 33.792 15.1552 33.792 33.792-15.1552 33.792-33.792 33.792z m0-47.104c-7.3728 0-13.312 5.9392-13.312 13.312s5.9392 13.312 13.312 13.312 13.312-5.9392 13.312-13.312-5.9392-13.312-13.312-13.312z" fill="#1C1D21" p-id="8483"></path><path d="M819.4048 654.7456h-32.5632c-16.9984 0-30.72 13.7216-30.72 30.72V884.736c0 11.8784 9.6256 21.7088 21.7088 21.7088h44.4416c9.6256-7.5776 18.8416-15.36 27.648-23.552v-197.4272c0.2048-16.9984-13.5168-30.72-30.5152-30.72z" fill="#8CEEF9" p-id="8484"></path><path d="M822.272 916.48h-44.4416c-17.6128 0-31.9488-14.336-31.9488-31.9488v-199.2704c0-22.528 18.432-40.96 40.96-40.96h32.5632c22.528 0 40.96 18.432 40.96 40.96V882.688c0 2.8672-1.2288 5.5296-3.2768 7.5776-9.216 8.3968-18.6368 16.384-28.2624 23.9616-2.048 1.6384-4.3008 2.2528-6.5536 2.2528z m-35.4304-251.4944c-11.264 0-20.48 9.216-20.48 20.48V884.736c0 6.3488 5.12 11.4688 11.4688 11.4688h40.96c7.168-5.7344 14.1312-11.6736 21.0944-17.8176v-192.7168c0-11.264-9.216-20.48-20.48-20.48h-32.5632zM850.1248 882.688z" fill="#1C1D21" p-id="8485"></path><path d="M835.7888 606.6176h-65.3312c-7.9872 0-14.336 6.3488-14.336 14.336v19.456c0 7.9872 6.3488 14.336 14.336 14.336h65.3312c7.9872 0 14.336-6.3488 14.336-14.336v-19.456c0-7.9872-6.5536-14.336-14.336-14.336z" fill="#FF8939" p-id="8486"></path><path d="M835.7888 664.9856h-65.3312c-13.5168 0-24.576-11.0592-24.576-24.576v-19.456c0-13.5168 11.0592-24.576 24.576-24.576h65.3312c13.5168 0 24.576 11.0592 24.576 24.576v19.456c0 13.5168-11.0592 24.576-24.576 24.576z m-65.3312-48.128c-2.2528 0-4.096 1.8432-4.096 4.096v19.456c0 2.2528 1.8432 4.096 4.096 4.096h65.3312c2.2528 0 4.096-1.8432 4.096-4.096v-19.456c0-2.2528-1.8432-4.096-4.096-4.096h-65.3312z" fill="#1C1D21" p-id="8487"></path><path d="M779.4688 882.688m-23.552 0a23.552 23.552 0 1 0 47.104 0 23.552 23.552 0 1 0-47.104 0Z" fill="#FF3E63" p-id="8488"></path><path d="M826.5728 859.136c-13.1072 0-23.552 10.6496-23.552 23.552 0 11.6736 8.6016 21.2992 19.6608 23.1424 9.4208-7.3728 18.6368-15.1552 27.4432-23.3472 0-12.9024-10.4448-23.3472-23.552-23.3472z" fill="#FF3E63" p-id="8489"></path><path d="M779.4688 835.584m-23.552 0a23.552 23.552 0 1 0 47.104 0 23.552 23.552 0 1 0-47.104 0Z" fill="#FF3E63" p-id="8490"></path><path d="M826.5728 835.584m-23.552 0a23.552 23.552 0 1 0 47.104 0 23.552 23.552 0 1 0-47.104 0Z" fill="#FF3E63" p-id="8491"></path><path d="M779.4688 788.48m-23.552 0a23.552 23.552 0 1 0 47.104 0 23.552 23.552 0 1 0-47.104 0Z" fill="#FF3E63" p-id="8492"></path><path d="M826.5728 788.48m-23.552 0a23.552 23.552 0 1 0 47.104 0 23.552 23.552 0 1 0-47.104 0Z" fill="#FF3E63" p-id="8493"></path><path d="M779.4688 916.48c-18.6368 0-33.792-15.1552-33.792-33.792s15.1552-33.792 33.792-33.792 33.792 15.1552 33.792 33.792-15.1552 33.792-33.792 33.792z m0-47.104c-7.3728 0-13.312 5.9392-13.312 13.312s5.9392 13.312 13.312 13.312 13.312-5.9392 13.312-13.312-5.9392-13.312-13.312-13.312z" fill="#1C1D21" p-id="8494"></path><path d="M822.6816 916.2752c-0.6144 0-1.2288 0-1.6384-0.2048-16.384-2.6624-28.2624-16.7936-28.2624-33.3824 0-18.6368 15.1552-33.792 33.792-33.792s33.792 15.1552 33.792 33.5872c0 2.8672-1.2288 5.7344-3.2768 7.5776-9.0112 8.192-18.432 16.1792-28.0576 23.7568-1.8432 1.6384-4.096 2.4576-6.3488 2.4576z m3.8912-46.8992c-7.3728 0-13.312 5.9392-13.312 13.312 0 5.12 2.8672 9.6256 7.168 11.8784 6.3488-5.12 12.6976-10.4448 18.8416-15.9744-1.6384-5.3248-6.7584-9.216-12.6976-9.216z" fill="#1C1D21" p-id="8495"></path><path d="M779.4688 869.376c-18.6368 0-33.792-15.1552-33.792-33.792s15.1552-33.792 33.792-33.792 33.792 15.1552 33.792 33.792-15.1552 33.792-33.792 33.792z m0-47.104c-7.3728 0-13.312 5.9392-13.312 13.312s5.9392 13.312 13.312 13.312 13.312-5.9392 13.312-13.312-5.9392-13.312-13.312-13.312z" fill="#1C1D21" p-id="8496"></path><path d="M826.5728 869.376c-18.6368 0-33.792-15.1552-33.792-33.792s15.1552-33.792 33.792-33.792 33.792 15.1552 33.792 33.792-15.1552 33.792-33.792 33.792z m0-47.104c-7.3728 0-13.312 5.9392-13.312 13.312s5.9392 13.312 13.312 13.312 13.312-5.9392 13.312-13.312-5.9392-13.312-13.312-13.312zM779.4688 822.272c-18.6368 0-33.792-15.1552-33.792-33.792s15.1552-33.792 33.792-33.792 33.792 15.1552 33.792 33.792-15.1552 33.792-33.792 33.792z m0-47.104c-7.3728 0-13.312 5.9392-13.312 13.312s5.9392 13.312 13.312 13.312 13.312-5.9392 13.312-13.312-5.9392-13.312-13.312-13.312z" fill="#1C1D21" p-id="8497"></path><path d="M826.5728 822.272c-18.6368 0-33.792-15.1552-33.792-33.792s15.1552-33.792 33.792-33.792 33.792 15.1552 33.792 33.792-15.1552 33.792-33.792 33.792z m0-47.104c-7.3728 0-13.312 5.9392-13.312 13.312s5.9392 13.312 13.312 13.312 13.312-5.9392 13.312-13.312-5.9392-13.312-13.312-13.312z" fill="#1C1D21" p-id="8498"></path><path d="M779.4688 741.376m-23.552 0a23.552 23.552 0 1 0 47.104 0 23.552 23.552 0 1 0-47.104 0Z" fill="#FF3E63" p-id="8499"></path><path d="M826.5728 741.376m-23.552 0a23.552 23.552 0 1 0 47.104 0 23.552 23.552 0 1 0-47.104 0Z" fill="#FF3E63" p-id="8500"></path><path d="M779.4688 775.168c-18.6368 0-33.792-15.1552-33.792-33.792s15.1552-33.792 33.792-33.792 33.792 15.1552 33.792 33.792-15.1552 33.792-33.792 33.792z m0-47.104c-7.3728 0-13.312 5.9392-13.312 13.312s5.9392 13.312 13.312 13.312 13.312-5.9392 13.312-13.312-5.9392-13.312-13.312-13.312z" fill="#1C1D21" p-id="8501"></path><path d="M826.5728 775.168c-18.6368 0-33.792-15.1552-33.792-33.792s15.1552-33.792 33.792-33.792 33.792 15.1552 33.792 33.792-15.1552 33.792-33.792 33.792z m0-47.104c-7.3728 0-13.312 5.9392-13.312 13.312s5.9392 13.312 13.312 13.312 13.312-5.9392 13.312-13.312-5.9392-13.312-13.312-13.312z" fill="#1C1D21" p-id="8502"></path></svg>