<svg xmlns="http://www.w3.org/2000/svg" viewBox="0 0 1024 1024" version="1.1"><path d="M512 512m-501.76 0a501.76 501.76 0 1 0 1003.52 0 501.76 501.76 0 1 0-1003.52 0Z" fill="#8CEEF9" p-id="8087"></path><path d="M378.0608 702.6688H118.784c-14.9504 0-27.0336 12.0832-27.0336 27.0336v56.1152c18.0224 27.4432 38.5024 53.248 61.44 76.5952h252.1088v-132.7104c-0.2048-14.9504-12.288-27.0336-27.2384-27.0336z" fill="#AAADAD" p-id="8088"></path><path d="M405.0944 872.8576H152.9856c-2.6624 0-5.3248-1.024-7.3728-3.072-23.3472-23.9616-44.4416-50.176-62.6688-78.2336-1.024-1.6384-1.6384-3.6864-1.6384-5.5296v-56.1152c0-20.6848 16.7936-37.2736 37.2736-37.2736h259.2768c20.6848 0 37.2736 16.7936 37.2736 37.2736v132.7104c0.2048 5.5296-4.3008 10.24-10.0352 10.24z m-247.6032-20.48h237.3632v-122.4704c0-9.216-7.5776-16.7936-16.7936-16.7936H118.784c-9.216 0-16.7936 7.5776-16.7936 16.7936v53.0432c16.1792 24.576 34.816 47.9232 55.5008 69.4272z" fill="#1C1D21" p-id="8089"></path><path d="M932.4544 786.0224v-56.1152c0-14.9504-12.0832-27.0336-27.0336-27.0336H645.9392c-14.9504 0-27.0336 12.0832-27.0336 27.0336v132.7104h252.1088c22.7328-23.552 43.4176-49.152 61.44-76.5952z" fill="#AAADAD" p-id="8090"></path><path d="M871.0144 872.8576H618.9056c-5.7344 0-10.24-4.5056-10.24-10.24v-132.7104c0-20.6848 16.7936-37.2736 37.2736-37.2736H905.216c20.6848 0 37.2736 16.7936 37.2736 37.2736v56.1152c0 2.048-0.6144 3.8912-1.6384 5.5296-18.2272 27.8528-39.3216 54.272-62.6688 78.2336-1.8432 1.8432-4.5056 3.072-7.168 3.072z m-241.8688-20.48h237.3632c20.48-21.504 39.3216-44.6464 55.5008-69.4272v-53.0432c0-9.216-7.5776-16.7936-16.7936-16.7936H645.9392c-9.216 0-16.7936 7.5776-16.7936 16.7936v122.4704z m303.3088-66.3552z" fill="#1C1D21" p-id="8091"></path><path d="M837.2224 397.7216h15.7696c18.6368 0 33.792 15.1552 33.792 33.792v288.5632c0 15.9744-11.0592 29.696-26.624 32.9728l-44.2368 9.8304c-26.624 5.9392-54.272 5.9392-80.896 0l-44.2368-9.8304c-15.5648-3.4816-26.624-17.2032-26.624-32.9728V431.7184c0-18.6368 15.1552-33.792 33.792-33.792h139.264zM310.0672 397.7216h15.7696c18.6368 0 33.792 15.1552 33.792 33.792v288.5632c0 15.9744-11.0592 29.696-26.624 32.9728l-44.2368 9.8304c-26.624 5.9392-54.272 5.9392-80.896 0l-44.2368-9.8304c-15.5648-3.4816-26.624-17.2032-26.624-32.9728V431.7184c0-18.6368 15.1552-33.792 33.792-33.792h139.264z" fill="#AAADAD" p-id="8092"></path><path d="M177.9712 544.1536c-5.7344 0-10.24-4.5056-10.24-10.24v-95.0272c0-5.7344 4.5056-10.24 10.24-10.24s10.24 4.5056 10.24 10.24v95.0272c0 5.5296-4.5056 10.24-10.24 10.24zM177.9712 586.5472c-5.7344 0-10.24-4.5056-10.24-10.24v-7.5776c0-5.7344 4.5056-10.24 10.24-10.24s10.24 4.5056 10.24 10.24v7.5776c0 5.7344-4.5056 10.24-10.24 10.24zM177.9712 724.7872c-5.7344 0-10.24-4.5056-10.24-10.24v-102.6048c0-5.7344 4.5056-10.24 10.24-10.24s10.24 4.5056 10.24 10.24v102.6048c0 5.5296-4.5056 10.24-10.24 10.24zM846.0288 544.1536c-5.7344 0-10.24-4.5056-10.24-10.24v-95.0272c0-5.7344 4.5056-10.24 10.24-10.24s10.24 4.5056 10.24 10.24v95.0272c0 5.5296-4.7104 10.24-10.24 10.24zM846.0288 586.5472c-5.7344 0-10.24-4.5056-10.24-10.24v-7.5776c0-5.7344 4.5056-10.24 10.24-10.24s10.24 4.5056 10.24 10.24v7.5776c0 5.7344-4.7104 10.24-10.24 10.24zM846.0288 724.7872c-5.7344 0-10.24-4.5056-10.24-10.24v-102.6048c0-5.7344 4.5056-10.24 10.24-10.24s10.24 4.5056 10.24 10.24v102.6048c0 5.5296-4.7104 10.24-10.24 10.24z" fill="#E0E0E0" p-id="8093"></path><path d="M775.5776 777.6256c-14.336 0-28.672-1.6384-42.5984-4.7104l-44.2368-9.8304c-20.2752-4.5056-34.6112-22.1184-34.6112-43.008V431.7184c0-24.3712 19.8656-44.032 44.032-44.032h154.8288c24.3712 0 44.032 19.8656 44.032 44.032v288.5632c0 20.8896-14.1312 38.5024-34.6112 43.008l-44.2368 9.8304c-13.7216 3.072-28.0576 4.5056-42.5984 4.5056z m-77.4144-369.664c-13.1072 0-23.552 10.6496-23.552 23.552v288.5632c0 11.264 7.5776 20.6848 18.432 23.1424l44.2368 9.8304c24.9856 5.5296 51.6096 5.5296 76.5952 0l44.2368-9.8304c10.8544-2.4576 18.432-11.8784 18.432-23.1424V431.7184c0-13.1072-10.6496-23.552-23.552-23.552h-154.8288z" fill="#1C1D21" p-id="8094"></path><path d="M664.3712 480.4608l7.168-1.6384c68.608-14.9504 139.6736-14.9504 208.0768 0l7.168 1.6384-22.3232 13.5168c-54.6816 33.3824-123.4944 33.3824-178.176 0l-21.9136-13.5168z" fill="#C67552" p-id="8095"></path><path d="M775.5776 529.2032c-32.5632 0-65.3312-8.8064-94.4128-26.624l-22.3232-13.5168c-3.4816-2.2528-5.5296-6.3488-4.7104-10.4448s3.8912-7.3728 7.9872-8.3968l7.168-1.6384c69.4272-15.1552 142.9504-15.1552 212.5824 0l7.168 1.6384c4.096 0.8192 7.168 4.096 7.9872 8.3968s-1.2288 8.192-4.7104 10.4448l-22.3232 13.5168c-29.0816 17.8176-61.6448 26.624-94.4128 26.624z m-83.5584-44.032c51.6096 31.3344 115.712 31.3344 167.3216 0-55.0912-9.6256-112.2304-9.6256-167.3216 0z" fill="#1C1D21" p-id="8096"></path><path d="M775.5776 552.96c-5.7344 0-10.24-4.5056-10.24-10.24v-23.7568c0-5.7344 4.5056-10.24 10.24-10.24s10.24 4.5056 10.24 10.24V542.72c0 5.7344-4.5056 10.24-10.24 10.24z" fill="#1C1D21" p-id="8097"></path><path d="M775.5776 542.72l-28.2624 82.3296c-4.5056 13.1072 0.6144 27.4432 12.0832 35.0208 9.8304 6.3488 22.528 6.3488 32.3584 0 11.6736-7.3728 16.5888-21.9136 12.0832-35.0208L775.5776 542.72z" fill="#C67552" p-id="8098"></path><path d="M775.5776 675.0208c-7.5776 0-15.1552-2.048-21.7088-6.3488-15.5648-10.0352-22.3232-29.2864-16.384-46.8992l28.2624-82.3296c1.4336-4.096 5.3248-6.9632 9.6256-6.9632s8.192 2.8672 9.6256 6.9632l28.2624 82.3296c6.144 17.6128-0.6144 36.864-16.384 46.8992-6.144 4.096-13.7216 6.3488-21.2992 6.3488z m0-100.7616l-18.6368 54.0672c-2.8672 8.6016 0.4096 18.0224 7.9872 22.9376 6.5536 4.096 14.7456 4.096 21.2992 0 7.5776-4.9152 10.8544-14.336 7.9872-22.9376l-18.6368-54.0672zM805.6832 712.9088h-59.8016c-5.7344 0-10.24-4.5056-10.24-10.24s4.5056-10.24 10.24-10.24h59.8016c5.7344 0 10.24 4.5056 10.24 10.24s-4.7104 10.24-10.24 10.24zM248.4224 777.6256c-14.336 0-28.672-1.6384-42.5984-4.7104l-44.2368-9.8304c-20.2752-4.5056-34.6112-22.1184-34.6112-43.008V431.7184c0-24.3712 19.8656-44.032 44.032-44.032h154.8288c24.3712 0 44.032 19.8656 44.032 44.032v288.5632c0 20.8896-14.1312 38.5024-34.6112 43.008l-44.2368 9.8304c-13.9264 3.072-28.2624 4.5056-42.5984 4.5056zM171.008 407.9616c-13.1072 0-23.552 10.6496-23.552 23.552v288.5632c0 11.264 7.5776 20.6848 18.432 23.1424l44.2368 9.8304c24.9856 5.5296 51.6096 5.5296 76.5952 0l44.2368-9.8304c10.8544-2.4576 18.432-11.8784 18.432-23.1424V431.7184c0-13.1072-10.6496-23.552-23.552-23.552H171.008z" fill="#1C1D21" p-id="8099"></path><path d="M137.0112 480.4608l7.168-1.6384c68.608-14.9504 139.6736-14.9504 208.0768 0l7.168 1.6384-22.3232 13.5168c-54.6816 33.3824-123.4944 33.3824-178.176 0l-21.9136-13.5168z" fill="#C67552" p-id="8100"></path><path d="M248.4224 529.2032c-32.5632 0-65.3312-8.8064-94.4128-26.624l-22.3232-13.5168c-3.4816-2.2528-5.5296-6.3488-4.7104-10.4448s3.8912-7.3728 7.9872-8.3968l7.168-1.6384c69.4272-15.1552 142.9504-15.1552 212.5824 0l7.168 1.6384c4.096 0.8192 7.168 4.096 7.9872 8.3968s-1.2288 8.192-4.7104 10.4448l-22.3232 13.5168c-29.2864 17.8176-61.8496 26.624-94.4128 26.624z m-83.7632-44.032c51.6096 31.3344 115.712 31.3344 167.3216 0-55.0912-9.6256-112.2304-9.6256-167.3216 0z" fill="#1C1D21" p-id="8101"></path><path d="M248.4224 552.96c-5.7344 0-10.24-4.5056-10.24-10.24v-23.7568c0-5.7344 4.5056-10.24 10.24-10.24s10.24 4.5056 10.24 10.24V542.72c0 5.7344-4.7104 10.24-10.24 10.24z" fill="#1C1D21" p-id="8102"></path><path d="M248.4224 542.72l-28.2624 82.3296c-4.5056 13.1072 0.6144 27.4432 12.0832 35.0208 9.8304 6.3488 22.528 6.3488 32.3584 0 11.6736-7.3728 16.5888-21.9136 12.0832-35.0208L248.4224 542.72z" fill="#C67552" p-id="8103"></path><path d="M248.4224 675.0208c-7.5776 0-15.1552-2.048-21.7088-6.3488-15.5648-10.0352-22.3232-29.2864-16.384-46.8992l28.2624-82.3296c1.4336-4.096 5.3248-6.9632 9.6256-6.9632s8.192 2.8672 9.6256 6.9632l28.2624 82.3296c6.144 17.6128-0.6144 36.864-16.384 46.8992-6.3488 4.096-13.7216 6.3488-21.2992 6.3488z m0-100.7616l-18.6368 54.0672c-2.8672 8.6016 0.4096 18.0224 7.9872 22.9376 6.5536 4.096 14.7456 4.096 21.2992 0 7.5776-4.9152 10.8544-14.336 7.9872-22.9376l-18.6368-54.0672zM278.3232 712.9088h-59.8016c-5.7344 0-10.24-4.5056-10.24-10.24s4.5056-10.24 10.24-10.24h59.8016c5.7344 0 10.24 4.5056 10.24 10.24s-4.7104 10.24-10.24 10.24z" fill="#1C1D21" p-id="8104"></path><path d="M512 1013.76c140.6976 0 267.8784-57.9584 359.0144-151.1424H152.9856C244.1216 955.8016 371.3024 1013.76 512 1013.76z" fill="#0ABFB2" p-id="8105"></path><path d="M512 1024c-139.0592 0-269.1072-54.8864-366.1824-154.2144-2.8672-2.8672-3.6864-7.3728-2.048-11.0592 1.6384-3.8912 5.3248-6.3488 9.4208-6.3488h717.824c4.096 0 7.7824 2.4576 9.4208 6.3488 1.6384 3.8912 0.8192 8.192-2.048 11.0592-97.28 99.328-227.328 154.2144-366.3872 154.2144zM178.176 872.8576c91.136 84.3776 208.6912 130.6624 333.824 130.6624s242.688-46.2848 333.824-130.6624H178.176z" fill="#1C1D21" p-id="8106"></path><path d="M512 1024c-136.8064 0-265.4208-53.248-362.0864-149.9136C53.248 777.4208 0 648.8064 0 512S53.248 246.5792 149.9136 149.9136C246.5792 53.248 375.1936 0 512 0s265.4208 53.248 362.0864 149.9136C970.752 246.5792 1024 375.1936 1024 512s-53.248 265.4208-149.9136 362.0864C777.4208 970.752 648.8064 1024 512 1024z m0-1003.52C241.0496 20.48 20.48 241.0496 20.48 512s220.5696 491.52 491.52 491.52 491.52-220.5696 491.52-491.52S782.9504 20.48 512 20.48z" fill="#1C1D21" p-id="8107"></path><path d="M707.9936 757.76H316.0064c-22.528 0-40.96 18.432-40.96 40.96v155.648c70.656 37.888 151.1424 59.392 236.9536 59.392s166.2976-21.504 236.9536-59.392v-155.648c0-22.528-18.432-40.96-40.96-40.96z" fill="#E0E0E0" p-id="8108"></path><path d="M512 1024c-84.3776 0-167.936-20.8896-241.8688-60.6208-3.2768-1.8432-5.3248-5.3248-5.3248-9.0112v-155.648c0-28.2624 22.9376-51.2 51.2-51.2h391.9872c28.2624 0 51.2 22.9376 51.2 51.2v155.648c0 3.6864-2.048 7.168-5.3248 9.0112C679.936 1003.1104 596.3776 1024 512 1024z m-226.7136-75.776c69.632 36.2496 147.8656 55.296 226.7136 55.296s157.0816-19.0464 226.7136-55.296v-149.504c0-16.9984-13.7216-30.72-30.72-30.72H316.0064c-16.9984 0-30.72 13.7216-30.72 30.72v149.504z m463.6672 6.144z" fill="#1C1D21" p-id="8109"></path><path d="M316.0064 815.104c-5.7344 0-10.24-4.5056-10.24-10.24v-6.144c0-5.7344 4.5056-10.24 10.24-10.24s10.24 4.5056 10.24 10.24v6.144c0 5.7344-4.5056 10.24-10.24 10.24zM316.0064 939.4176c-5.7344 0-10.24-4.5056-10.24-10.24V837.632c0-5.7344 4.5056-10.24 10.24-10.24s10.24 4.5056 10.24 10.24v91.5456c0 5.5296-4.5056 10.24-10.24 10.24z" fill="#FFFFFF" p-id="8110"></path><path d="M628.9408 825.344H395.0592c-28.2624 0-51.2-22.9376-51.2-51.2V348.16c0-28.2624 22.9376-51.2 51.2-51.2h234.0864c28.2624 0 51.2 22.9376 51.2 51.2v425.984c-0.2048 28.2624-22.9376 51.2-51.4048 51.2z" fill="#E0E0E0" p-id="8111"></path><path d="M571.392 307.2h-14.1312c-5.7344 0-10.24-4.5056-10.24-10.24s4.5056-10.24 10.24-10.24h14.1312c5.7344 0 10.24 4.5056 10.24 10.24s-4.5056 10.24-10.24 10.24z" fill="#1C1D21" p-id="8112"></path><path d="M512 865.8944c-21.2992 0-42.5984-2.2528-63.488-6.9632l-66.9696-14.7456c-28.2624-6.3488-48.128-30.9248-48.128-60.0064V348.16c0-33.792 27.648-61.44 61.44-61.44h122.0608c5.7344 0 10.24 4.5056 10.24 10.24s-4.5056 10.24-10.24 10.24h-122.0608c-22.528 0-40.96 18.432-40.96 40.96v436.0192c0 19.456 13.1072 35.84 32.1536 39.936l66.9696 14.7456c38.5024 8.6016 79.4624 8.6016 117.9648 0l66.9696-14.7456c18.8416-4.096 32.1536-20.6848 32.1536-39.936V348.16c0-22.528-18.432-40.96-40.96-40.96h-23.7568c-5.7344 0-10.24-4.5056-10.24-10.24s4.5056-10.24 10.24-10.24h23.7568c33.792 0 61.44 27.648 61.44 61.44v436.0192c0 29.0816-19.8656 53.6576-48.128 60.0064l-66.9696 14.7456c-20.8896 4.7104-42.1888 6.9632-63.488 6.9632z" fill="#1C1D21" p-id="8113"></path><path d="M384.8192 364.1344c-5.7344 0-10.24-4.5056-10.24-10.24V348.16c0-5.7344 4.5056-10.24 10.24-10.24s10.24 4.5056 10.24 10.24v5.7344c0 5.5296-4.7104 10.24-10.24 10.24zM384.8192 495.616c-5.7344 0-10.24-4.5056-10.24-10.24v-98.304c0-5.7344 4.5056-10.24 10.24-10.24s10.24 4.5056 10.24 10.24v98.304c0 5.7344-4.7104 10.24-10.24 10.24zM384.8192 547.84c-5.7344 0-10.24-4.5056-10.24-10.24V524.288c0-5.7344 4.5056-10.24 10.24-10.24s10.24 4.5056 10.24 10.24v13.312c0 5.7344-4.7104 10.24-10.24 10.24zM384.8192 784.384c-5.7344 0-10.24-4.5056-10.24-10.24v-199.68c0-5.7344 4.5056-10.24 10.24-10.24s10.24 4.5056 10.24 10.24V774.144c0 5.7344-4.7104 10.24-10.24 10.24z" fill="#FFFFFF" p-id="8114"></path><path d="M343.8592 421.888l10.8544-2.4576c103.6288-22.7328 210.944-22.7328 314.5728 0l10.8544 2.4576-33.5872 20.48c-82.7392 50.3808-186.5728 50.3808-269.312 0l-33.3824-20.48z" fill="#AAADAD" p-id="8115"></path><path d="M512 490.496c-48.3328 0-96.8704-13.1072-139.8784-39.3216l-33.5872-20.48c-3.4816-2.2528-5.5296-6.3488-4.7104-10.4448 0.6144-4.096 3.8912-7.3728 7.9872-8.3968l10.8544-2.4576c104.2432-22.9376 214.6304-22.9376 319.0784 0l10.8544 2.4576c4.096 0.8192 7.168 4.096 7.9872 8.3968 0.6144 4.096-1.2288 8.192-4.7104 10.4448l-33.5872 20.48c-43.4176 26.2144-91.9552 39.3216-140.288 39.3216z m-140.9024-63.8976l11.6736 6.9632c79.6672 48.5376 178.7904 48.5376 258.6624 0l11.6736-6.9632c-92.7744-18.432-189.44-18.432-282.0096 0z" fill="#1C1D21" p-id="8116"></path><path d="M512 526.336c-5.7344 0-10.24-4.5056-10.24-10.24v-36.0448c0-5.7344 4.5056-10.24 10.24-10.24s10.24 4.5056 10.24 10.24V516.096c0 5.7344-4.5056 10.24-10.24 10.24z" fill="#1C1D21" p-id="8117"></path><path d="M512 516.096l-42.8032 124.3136c-6.7584 19.6608 0.8192 41.5744 18.432 52.8384 14.9504 9.6256 33.9968 9.6256 48.9472 0 17.6128-11.264 25.1904-33.1776 18.432-52.8384L512 516.096z" fill="#AAADAD" p-id="8118"></path><path d="M512 710.656c-10.4448 0-20.8896-2.8672-29.9008-8.8064-21.7088-13.9264-30.9248-40.5504-22.528-64.7168l42.8032-124.3136c1.4336-4.096 5.3248-6.9632 9.6256-6.9632s8.192 2.8672 9.6256 6.9632l42.8032 124.3136c8.3968 24.3712-0.8192 50.9952-22.528 64.7168-9.0112 5.9392-19.456 8.8064-29.9008 8.8064z m0-163.0208l-33.1776 96.256c-5.3248 15.36 0.6144 32.1536 14.1312 40.96 11.4688 7.3728 26.4192 7.3728 37.888 0 13.7216-8.8064 19.456-25.6 14.1312-40.96l-32.9728-96.256zM557.2608 768h-90.5216c-5.7344 0-10.24-4.5056-10.24-10.24s4.5056-10.24 10.24-10.24h90.5216c5.7344 0 10.24 4.5056 10.24 10.24s-4.5056 10.24-10.24 10.24zM365.7728 1002.496c-5.7344 0-10.24-4.5056-10.24-10.24v-61.0304c0-5.7344 4.5056-10.24 10.24-10.24s10.24 4.5056 10.24 10.24v61.0304c0 5.7344-4.5056 10.24-10.24 10.24zM365.7728 907.264c-5.7344 0-10.24-4.5056-10.24-10.24v-11.264c0-5.7344 4.5056-10.24 10.24-10.24s10.24 4.5056 10.24 10.24v11.264c0 5.7344-4.5056 10.24-10.24 10.24zM658.2272 1002.496c-5.7344 0-10.24-4.5056-10.24-10.24v-61.0304c0-5.7344 4.5056-10.24 10.24-10.24s10.24 4.5056 10.24 10.24v61.0304c0 5.7344-4.5056 10.24-10.24 10.24zM658.2272 907.264c-5.7344 0-10.24-4.5056-10.24-10.24v-11.264c0-5.7344 4.5056-10.24 10.24-10.24s10.24 4.5056 10.24 10.24v11.264c0 5.7344-4.5056 10.24-10.24 10.24zM152.9856 872.8576c-5.7344 0-10.24-4.5056-10.24-10.24v-53.0432c0-5.7344 4.5056-10.24 10.24-10.24s10.24 4.5056 10.24 10.24v53.0432c0 5.5296-4.5056 10.24-10.24 10.24zM871.0144 872.8576c-5.7344 0-10.24-4.5056-10.24-10.24v-53.0432c0-5.7344 4.5056-10.24 10.24-10.24s10.24 4.5056 10.24 10.24v53.0432c0 5.5296-4.7104 10.24-10.24 10.24z" fill="#1C1D21" p-id="8119"></path></svg>