<svg xmlns="http://www.w3.org/2000/svg" viewBox="0 0 1024 1024" version="1.1"><path d="M512 512m-501.76 0a501.76 501.76 0 1 0 1003.52 0 501.76 501.76 0 1 0-1003.52 0Z" fill="#8CEEF9" p-id="7747"></path><path d="M512 1024c-136.8064 0-265.4208-53.248-362.0864-149.9136C53.248 777.4208 0 648.8064 0 512S53.248 246.5792 149.9136 149.9136C246.5792 53.248 375.1936 0 512 0s265.4208 53.248 362.0864 149.9136C970.752 246.5792 1024 375.1936 1024 512s-53.248 265.4208-149.9136 362.0864C777.4208 970.752 648.8064 1024 512 1024z m0-1003.52C241.0496 20.48 20.48 241.0496 20.48 512s220.5696 491.52 491.52 491.52 491.52-220.5696 491.52-491.52S782.9504 20.48 512 20.48z" fill="#1C1D21" p-id="7748"></path><path d="M512 379.6992m-132.3008 0a132.3008 132.3008 0 1 0 264.6016 0 132.3008 132.3008 0 1 0-264.6016 0Z" fill="#D66112" p-id="7749"></path><path d="M441.9584 441.9584c0-73.1136 59.1872-132.3008 132.3008-132.3008 20.48 0 39.7312 4.7104 57.1392 12.9024-21.2992-44.4416-66.7648-75.3664-119.3984-75.3664-73.1136 0-132.3008 59.1872-132.3008 132.3008 0 52.6336 30.72 98.0992 75.3664 119.3984-8.3968-16.9984-13.1072-36.4544-13.1072-56.9344z" fill="#FF8939" p-id="7750"></path><path d="M520.192 367.616h-16.384c-0.8192 0-1.6384-0.6144-1.6384-1.6384v-19.2512c0-0.8192 0.6144-1.6384 1.6384-1.6384h30.1056c6.7584 0 12.0832-5.3248 12.0832-12.0832 0-6.7584-5.3248-12.0832-12.0832-12.0832h-10.24v-20.6848c0-5.12-4.096-9.216-9.216-9.216s-9.216 4.096-9.216 9.216v20.6848h-1.4336c-14.1312 0-25.8048 11.4688-25.8048 25.8048v19.2512c0 14.1312 11.4688 25.8048 25.8048 25.8048h16.384c0.8192 0 1.6384 0.6144 1.6384 1.6384v19.2512c0 0.8192-0.6144 1.6384-1.6384 1.6384h-30.1056c-6.7584 0-12.0832 5.3248-12.0832 12.0832 0 6.7584 5.3248 12.0832 12.0832 12.0832h15.1552v20.6848c0 5.12 4.096 9.216 9.216 9.216s9.216-4.096 9.216-9.216V438.272c12.6976-1.6384 22.3232-12.4928 22.3232-25.6v-19.2512c0-14.336-11.4688-25.8048-25.8048-25.8048z" fill="#FFF0CC" p-id="7751"></path><path d="M512 522.24c-78.6432 0-142.5408-63.8976-142.5408-142.5408s63.8976-142.5408 142.5408-142.5408 142.5408 63.8976 142.5408 142.5408S590.6432 522.24 512 522.24z m0-264.6016c-67.3792 0-122.0608 54.6816-122.0608 122.0608S444.6208 501.76 512 501.76s122.0608-54.6816 122.0608-122.0608-54.6816-122.0608-122.0608-122.0608z" fill="#1C1D21" p-id="7752"></path><path d="M357.7856 529.408c-28.0576 28.0576-73.728 28.0576-101.7856 0-28.0576-28.0576-28.0576-73.728 0-101.7856l101.7856 101.7856z" fill="#FF8939" p-id="7753"></path><path d="M306.7904 560.7424c-21.9136 0-42.5984-8.6016-58.1632-24.1664-15.5648-15.5648-24.1664-36.2496-24.1664-58.1632s8.6016-42.5984 24.1664-58.1632c4.096-4.096 10.4448-4.096 14.5408 0l19.0464 19.0464c4.096 4.096 4.096 10.4448 0 14.5408s-10.4448 4.096-14.5408 0l-11.264-11.264c-7.3728 10.4448-11.4688 22.7328-11.4688 35.84 0 16.5888 6.3488 31.9488 18.0224 43.6224s27.2384 18.0224 43.6224 18.0224c13.1072 0 25.3952-4.096 35.84-11.4688l-9.6256-9.6256c-4.096-4.096-4.096-10.4448 0-14.5408s10.4448-4.096 14.5408 0l17.408 17.408c4.096 4.096 4.096 10.4448 0 14.5408-15.36 15.9744-36.0448 24.3712-57.9584 24.3712z" fill="#1C1D21" p-id="7754"></path><path d="M309.6576 491.7248c-2.6624 0-5.3248-1.024-7.168-3.072l-7.9872-7.9872c-4.096-4.096-4.096-10.4448 0-14.5408s10.4448-4.096 14.5408 0l7.9872 7.9872c4.096 4.096 4.096 10.4448 0 14.5408-2.048 2.048-4.7104 3.072-7.3728 3.072z" fill="#1C1D21" p-id="7755"></path><path d="M666.2144 529.408c28.0576 28.0576 73.728 28.0576 101.7856 0 28.0576-28.0576 28.0576-73.728 0-101.7856l-101.7856 101.7856z" fill="#D66112" p-id="7756"></path><path d="M718.4384 487.6288c-2.6624 0-5.3248-1.024-7.168-3.072-4.096-4.096-4.096-10.4448 0-14.5408l6.144-6.144c4.096-4.096 10.4448-4.096 14.5408 0s4.096 10.4448 0 14.5408l-6.144 6.144c-2.2528 2.048-4.7104 3.072-7.3728 3.072z" fill="#1C1D21" p-id="7757"></path><path d="M717.2096 560.7424c-21.9136 0-42.5984-8.6016-58.1632-24.1664-4.096-4.096-4.096-10.4448 0-14.5408l23.3472-23.3472c4.096-4.096 10.4448-4.096 14.5408 0s4.096 10.4448 0 14.5408l-15.5648 15.5648c10.4448 7.3728 22.7328 11.4688 35.84 11.4688 16.384 0 31.9488-6.3488 43.6224-18.0224s18.0224-27.2384 18.0224-43.6224c0-13.1072-4.096-25.3952-11.4688-35.84l-12.288 12.288c-4.096 4.096-10.4448 4.096-14.5408 0s-4.096-10.4448 0-14.5408l20.0704-20.0704c1.8432-1.8432 4.5056-3.072 7.168-3.072s5.3248 1.024 7.168 3.072c15.5648 15.5648 24.1664 36.2496 24.1664 58.1632s-8.6016 42.5984-24.1664 58.1632c-15.1552 15.5648-35.84 23.9616-57.7536 23.9616z" fill="#1C1D21" p-id="7758"></path><path d="M726.4256 635.4944c-39.7312-39.7312-104.2432-39.7312-144.1792 0-39.7312 39.7312-39.7312 104.2432 0 144.1792s104.2432 39.7312 144.1792 0c39.7312-39.7312 39.7312-104.2432 0-144.1792z m-31.1296 113.0496c-22.528 22.528-59.392 22.528-81.92 0s-22.528-59.392 0-81.92 59.392-22.528 81.92 0c22.7328 22.7328 22.7328 59.392 0 81.92z" fill="#AAADAD" p-id="7759"></path><path d="M609.28 616.2432L207.6672 214.4256c49.7664 111.0016 119.3984 212.1728 205.4144 298.1888l149.9136 149.9136c4.7104-9.8304 11.264-18.8416 19.2512-27.0336 8.192-7.9872 17.408-14.5408 27.0336-19.2512z" fill="#E0E0E0" p-id="7760"></path><path d="M654.336 819.6096c-28.672 0-57.344-10.8544-79.2576-32.768-43.6224-43.6224-43.6224-114.8928 0-158.5152 43.6224-43.6224 114.8928-43.6224 158.5152 0 43.6224 43.6224 43.6224 114.8928 0 158.5152-21.7088 21.9136-50.5856 32.768-79.2576 32.768z m0-203.5712c-23.552 0-46.8992 9.0112-64.7168 26.8288-35.6352 35.6352-35.6352 93.7984 0 129.6384 35.6352 35.6352 93.7984 35.6352 129.6384 0 35.6352-35.6352 35.6352-93.7984 0-129.6384-18.0224-18.0224-41.3696-26.8288-64.9216-26.8288z" fill="#1C1D21" p-id="7761"></path><path d="M654.336 775.7824c-18.2272 0-35.4304-7.168-48.128-20.0704-26.624-26.624-26.624-69.8368 0-96.4608s69.8368-26.624 96.4608 0 26.624 69.8368 0 96.4608c-12.9024 12.9024-30.1056 20.0704-48.3328 20.0704z m0-115.9168c-12.288 0-24.3712 4.7104-33.792 13.9264-18.6368 18.6368-18.6368 48.9472 0 67.3792 9.0112 9.0112 20.8896 13.9264 33.792 13.9264 12.6976 0 24.7808-4.9152 33.792-13.9264s13.9264-20.8896 13.9264-33.792c0-12.6976-4.9152-24.7808-13.9264-33.792-9.216-9.0112-21.504-13.7216-33.792-13.7216zM433.5616 450.7648c-2.6624 0-5.3248-1.024-7.168-3.072l-5.5296-5.5296c-4.096-4.096-4.096-10.4448 0-14.5408s10.4448-4.096 14.5408 0l5.5296 5.5296c4.096 4.096 4.096 10.4448 0 14.5408-2.048 2.048-4.7104 3.072-7.3728 3.072z" fill="#1C1D21" p-id="7762"></path><path d="M562.9952 672.768c-2.6624 0-5.3248-1.024-7.168-3.072l-149.9136-149.9136c-87.2448-87.2448-157.0816-188.6208-207.6672-301.2608-2.048-4.5056-0.6144-9.8304 3.4816-12.6976s9.6256-2.2528 13.1072 1.2288l198.8608 198.8608c4.096 4.096 4.096 10.4448 0 14.5408s-10.4448 4.096-14.5408 0l-155.8528-155.8528c46.4896 88.6784 105.8816 169.5744 176.9472 240.64l140.4928 140.4928c4.096-6.3488 9.0112-12.0832 14.336-17.6128 5.3248-5.3248 11.264-10.24 17.6128-14.336l-144.384-144.384c-4.096-4.096-4.096-10.4448 0-14.5408s10.4448-4.096 14.5408 0l153.8048 153.8048c2.2528 2.2528 3.4816 5.7344 2.8672 9.0112-0.6144 3.2768-2.6624 6.144-5.5296 7.5776-9.0112 4.5056-17.2032 10.24-24.3712 17.408s-12.9024 15.36-17.408 24.3712c-1.4336 2.8672-4.3008 5.12-7.5776 5.5296-0.6144 0.2048-1.024 0.2048-1.6384 0.2048z" fill="#1C1D21" p-id="7763"></path><path d="M297.5744 779.6736c39.7312 39.7312 104.2432 39.7312 144.1792 0s39.7312-104.2432 0-144.1792c-39.7312-39.7312-104.2432-39.7312-144.1792 0-39.7312 39.936-39.7312 104.448 0 144.1792z m31.1296-113.0496c22.528-22.528 59.392-22.528 81.92 0s22.528 59.392 0 81.92-59.392 22.528-81.92 0-22.7328-59.1872 0-81.92z" fill="#AAADAD" p-id="7764"></path><path d="M414.72 616.2432l401.8176-401.8176c-49.7664 111.0016-119.3984 212.1728-205.4144 298.1888l-149.9136 149.9136c-4.7104-9.8304-11.264-18.8416-19.2512-27.0336-8.3968-7.9872-17.6128-14.5408-27.2384-19.2512z" fill="#E0E0E0" p-id="7765"></path><path d="M369.664 819.6096c-28.672 0-57.344-10.8544-79.2576-32.768-43.6224-43.6224-43.6224-114.8928 0-158.5152 43.6224-43.6224 114.8928-43.6224 158.5152 0 43.6224 43.6224 43.6224 114.8928 0 158.5152-21.9136 21.9136-50.5856 32.768-79.2576 32.768z m-64.9216-47.104c35.6352 35.6352 93.7984 35.6352 129.6384 0 35.6352-35.6352 35.6352-93.7984 0-129.6384-35.6352-35.6352-93.7984-35.6352-129.6384 0-35.6352 35.6352-35.6352 93.7984 0 129.6384z" fill="#1C1D21" p-id="7766"></path><path d="M369.664 775.7824c-18.2272 0-35.4304-7.168-48.128-20.0704-26.624-26.624-26.624-69.8368 0-96.4608s69.8368-26.624 96.4608 0 26.624 69.8368 0 96.4608c-13.1072 12.9024-30.1056 20.0704-48.3328 20.0704z m0-115.9168c-12.288 0-24.3712 4.7104-33.792 13.9264-9.0112 9.0112-13.9264 20.8896-13.9264 33.792 0 12.6976 4.9152 24.7808 13.9264 33.792s20.8896 13.9264 33.792 13.9264c12.6976 0 24.7808-4.9152 33.792-13.9264 18.6368-18.6368 18.6368-48.9472 0-67.3792-9.4208-9.4208-21.7088-14.1312-33.792-14.1312zM721.3056 319.8976c-2.6624 0-5.3248-1.024-7.168-3.072-4.096-4.096-4.096-10.4448 0-14.5408l6.5536-6.5536c4.096-4.096 10.4448-4.096 14.5408 0s4.096 10.4448 0 14.5408l-6.5536 6.5536c-2.2528 2.048-4.7104 3.072-7.3728 3.072z" fill="#1C1D21" p-id="7767"></path><path d="M461.0048 672.768c-0.6144 0-1.024 0-1.6384-0.2048-3.2768-0.6144-6.144-2.6624-7.5776-5.5296-4.5056-9.0112-10.24-17.2032-17.408-24.3712s-15.36-12.9024-24.3712-17.408c-2.8672-1.4336-5.12-4.3008-5.5296-7.5776-0.6144-3.2768 0.6144-6.5536 2.8672-9.0112l275.8656-275.8656c4.096-4.096 10.4448-4.096 14.5408 0s4.096 10.4448 0 14.5408L431.3088 613.9904c6.3488 4.096 12.0832 9.0112 17.6128 14.336 5.3248 5.3248 10.24 11.264 14.336 17.6128l140.4928-140.4928c71.2704-71.2704 130.4576-151.9616 176.9472-240.64l-17.2032 17.2032c-4.096 4.096-10.4448 4.096-14.5408 0s-4.096-10.4448 0-14.5408l60.2112-60.2112c3.4816-3.4816 9.0112-4.096 13.1072-1.2288s5.5296 8.192 3.4816 12.6976c-50.3808 112.64-120.2176 214.016-207.6672 301.2608l-149.9136 149.9136c-1.8432 1.8432-4.5056 2.8672-7.168 2.8672z" fill="#1C1D21" p-id="7768"></path></svg>