<svg xmlns="http://www.w3.org/2000/svg" viewBox="0 0 1024 1024" version="1.1"><path d="M512 512m-501.76 0a501.76 501.76 0 1 0 1003.52 0 501.76 501.76 0 1 0-1003.52 0Z" fill="#0ABFB2" p-id="8976"></path><path d="M800.768 855.8592h-178.7904c-22.528 0-40.96-18.432-40.96-40.96V388.5056c0-22.528 18.432-40.96 40.96-40.96H800.768c22.528 0 40.96 18.432 40.96 40.96v426.3936c0 22.528-18.432 40.96-40.96 40.96z" fill="#E0E0E0" p-id="8977"></path><path d="M624.4352 405.0944c-5.7344 0-10.24-4.5056-10.24-10.24v-6.3488c0-5.7344 4.5056-10.24 10.24-10.24s10.24 4.5056 10.24 10.24v6.3488c0 5.5296-4.7104 10.24-10.24 10.24zM624.4352 479.232c-5.7344 0-10.24-4.5056-10.24-10.24v-39.936c0-5.7344 4.5056-10.24 10.24-10.24s10.24 4.5056 10.24 10.24V468.992c0 5.7344-4.7104 10.24-10.24 10.24z" fill="#FFFFFF" p-id="8978"></path><path d="M820.0192 485.9904c-12.0832 0-21.7088-9.8304-21.7088-21.7088 0 12.0832-9.8304 21.7088-21.7088 21.7088-12.0832 0-21.7088-9.8304-21.7088-21.7088 0 12.0832-9.6256 21.7088-21.7088 21.7088s-21.7088-9.8304-21.7088-21.7088c0 12.0832-9.8304 21.7088-21.7088 21.7088-12.0832 0-21.7088-9.8304-21.7088-21.7088 0 12.0832-9.8304 21.7088-21.7088 21.7088s-21.7088-9.8304-21.7088-21.7088c0 12.0832-9.6256 21.7088-21.7088 21.7088-12.0832 0-21.7088-9.8304-21.7088-21.7088v350.6176c0 22.528 18.432 40.96 40.96 40.96H800.768c22.528 0 40.96-18.432 40.96-40.96V464.2816c0 11.8784-9.8304 21.7088-21.7088 21.7088z" fill="#508DEF" p-id="8979"></path><path d="M624.4352 520.192c-5.7344 0-10.24-4.5056-10.24-10.24v-22.9376c0-5.7344 4.5056-10.24 10.24-10.24s10.24 4.5056 10.24 10.24V509.952c0 5.7344-4.7104 10.24-10.24 10.24zM624.4352 565.248c-5.7344 0-10.24-4.5056-10.24-10.24v-8.192c0-5.7344 4.5056-10.24 10.24-10.24s10.24 4.5056 10.24 10.24v8.192c0 5.7344-4.7104 10.24-10.24 10.24zM624.4352 825.1392c-5.7344 0-10.24-4.5056-10.24-10.24V586.3424c0-5.7344 4.5056-10.24 10.24-10.24s10.24 4.5056 10.24 10.24v228.352c0 5.7344-4.7104 10.4448-10.24 10.4448z" fill="#ABD1FF" p-id="8980"></path><path d="M402.0224 855.8592H223.232c-22.528 0-40.96-18.432-40.96-40.96V388.5056c0-22.528 18.432-40.96 40.96-40.96h178.7904c22.528 0 40.96 18.432 40.96 40.96v426.3936c0 22.528-18.2272 40.96-40.96 40.96z" fill="#E0E0E0" p-id="8981"></path><path d="M421.2736 485.9904c-12.0832 0-21.7088-9.8304-21.7088-21.7088 0 12.0832-9.8304 21.7088-21.7088 21.7088-12.0832 0-21.7088-9.8304-21.7088-21.7088 0 12.0832-9.6256 21.7088-21.7088 21.7088s-21.7088-9.8304-21.7088-21.7088c0 12.0832-9.8304 21.7088-21.7088 21.7088-12.0832 0-21.7088-9.8304-21.7088-21.7088 0 12.0832-9.8304 21.7088-21.7088 21.7088s-21.7088-9.8304-21.7088-21.7088c0 12.0832-9.6256 21.7088-21.7088 21.7088-12.0832 0-21.7088-9.8304-21.7088-21.7088v350.6176c0 22.528 18.432 40.96 40.96 40.96h178.7904c22.528 0 40.96-18.432 40.96-40.96V464.2816c-0.2048 11.8784-9.8304 21.7088-21.9136 21.7088z" fill="#8CEEF9" p-id="8982"></path><path d="M225.6896 520.192c-5.7344 0-10.24-4.5056-10.24-10.24v-22.9376c0-5.7344 4.5056-10.24 10.24-10.24s10.24 4.5056 10.24 10.24V509.952c0 5.7344-4.5056 10.24-10.24 10.24zM225.6896 565.248c-5.7344 0-10.24-4.5056-10.24-10.24v-8.192c0-5.7344 4.5056-10.24 10.24-10.24s10.24 4.5056 10.24 10.24v8.192c0 5.7344-4.5056 10.24-10.24 10.24zM225.6896 825.1392c-5.7344 0-10.24-4.5056-10.24-10.24V586.3424c0-5.7344 4.5056-10.24 10.24-10.24s10.24 4.5056 10.24 10.24v228.352c0 5.7344-4.5056 10.4448-10.24 10.4448z" fill="#DCFDFF" p-id="8983"></path><path d="M225.6896 405.0944c-5.7344 0-10.24-4.5056-10.24-10.24v-6.3488c0-5.7344 4.5056-10.24 10.24-10.24s10.24 4.5056 10.24 10.24v6.3488c0 5.5296-4.5056 10.24-10.24 10.24zM225.6896 479.232c-5.7344 0-10.24-4.5056-10.24-10.24v-39.936c0-5.7344 4.5056-10.24 10.24-10.24s10.24 4.5056 10.24 10.24V468.992c0 5.7344-4.5056 10.24-10.24 10.24z" fill="#FFFFFF" p-id="8984"></path><path d="M312.7296 111.2064l-47.7184 92.3648c-9.216 17.8176-7.5776 39.3216 4.096 55.7056 21.2992 29.9008 65.9456 29.9008 87.2448 0 11.6736-16.384 13.312-37.888 4.096-55.7056l-47.7184-92.3648z" fill="#8CEEF9" p-id="8985"></path><path d="M711.2704 111.2064L663.552 203.5712c-9.216 17.8176-7.5776 39.3216 4.096 55.7056 21.2992 29.9008 65.9456 29.9008 87.2448 0 11.6736-16.384 13.312-37.888 4.096-55.7056l-47.7184-92.3648z" fill="#508DEF" p-id="8986"></path><path d="M512 1024c-136.8064 0-265.4208-53.248-362.0864-149.9136C53.248 777.4208 0 648.8064 0 512S53.248 246.5792 149.9136 149.9136C246.5792 53.248 375.1936 0 512 0s265.4208 53.248 362.0864 149.9136C970.752 246.5792 1024 375.1936 1024 512s-53.248 265.4208-149.9136 362.0864C777.4208 970.752 648.8064 1024 512 1024z m0-1003.52C241.0496 20.48 20.48 241.0496 20.48 512s220.5696 491.52 491.52 491.52 491.52-220.5696 491.52-491.52S782.9504 20.48 512 20.48z" fill="#1C1D21" p-id="8987"></path><path d="M312.7296 292.0448c-20.8896 0-39.7312-9.8304-52.0192-26.8288-13.9264-19.6608-15.7696-45.056-4.7104-66.3552L303.5136 106.496c1.8432-3.4816 5.3248-5.5296 9.0112-5.5296s7.3728 2.048 9.0112 5.5296l47.7184 92.3648c11.0592 21.2992 9.216 46.8992-4.7104 66.3552-12.0832 17.2032-30.9248 26.8288-51.8144 26.8288z m0-158.5152l-38.5024 74.752c-7.5776 14.5408-6.144 31.744 3.2768 45.056 8.192 11.4688 21.0944 18.2272 35.2256 18.2272 14.1312 0 27.0336-6.5536 35.2256-18.2272 9.4208-13.312 10.6496-30.5152 3.2768-45.056l-38.5024-74.752zM711.2704 292.0448c-20.8896 0-39.7312-9.8304-52.0192-26.8288-13.9264-19.6608-15.7696-45.056-4.7104-66.3552L702.2592 106.496c1.8432-3.4816 5.3248-5.5296 9.0112-5.5296s7.3728 2.048 9.0112 5.5296L768 199.0656c11.0592 21.2992 9.216 46.8992-4.7104 66.3552-12.0832 16.9984-31.1296 26.624-52.0192 26.624z m0-158.5152l-38.5024 74.752c-7.5776 14.5408-6.144 31.744 3.2768 45.056 8.192 11.4688 21.0944 18.2272 35.2256 18.2272 14.1312 0 27.0336-6.5536 35.2256-18.2272 9.4208-13.312 10.6496-30.5152 3.2768-45.056l-38.5024-74.752z" fill="#1C1D21" p-id="8988"></path><path d="M344.6784 586.3424m-21.504 0a21.504 21.504 0 1 0 43.008 0 21.504 21.504 0 1 0-43.008 0Z" fill="#DCFDFF" p-id="8989"></path><path d="M284.8768 687.7184m-21.504 0a21.504 21.504 0 1 0 43.008 0 21.504 21.504 0 1 0-43.008 0Z" fill="#DCFDFF" p-id="8990"></path><path d="M365.9776 784.384m-21.504 0a21.504 21.504 0 1 0 43.008 0 21.504 21.504 0 1 0-43.008 0Z" fill="#DCFDFF" p-id="8991"></path><path d="M344.6784 618.0864c-17.408 0-31.744-14.1312-31.744-31.744s14.1312-31.744 31.744-31.744 31.744 14.1312 31.744 31.744-14.336 31.744-31.744 31.744z m0-42.8032c-6.144 0-11.264 5.12-11.264 11.264s5.12 11.264 11.264 11.264 11.264-5.12 11.264-11.264-5.12-11.264-11.264-11.264zM284.8768 719.4624c-17.408 0-31.744-14.1312-31.744-31.744s14.1312-31.744 31.744-31.744 31.744 14.1312 31.744 31.744-14.1312 31.744-31.744 31.744z m0-43.008c-6.144 0-11.264 5.12-11.264 11.264s5.12 11.264 11.264 11.264 11.264-5.12 11.264-11.264-4.9152-11.264-11.264-11.264zM365.9776 816.128c-17.408 0-31.744-14.1312-31.744-31.744s14.1312-31.744 31.744-31.744 31.744 14.1312 31.744 31.744-14.1312 31.744-31.744 31.744z m0-43.008c-6.144 0-11.264 5.12-11.264 11.264s5.12 11.264 11.264 11.264 11.264-5.12 11.264-11.264-4.9152-11.264-11.264-11.264z" fill="#1C1D21" p-id="8992"></path><path d="M877.3632 855.8592H146.6368C238.1824 953.1392 368.0256 1013.76 512 1013.76c143.9744 0 273.8176-60.6208 365.3632-157.9008z" fill="#C67552" p-id="8993"></path><path d="M512 1024c-71.8848 0-141.312-14.5408-206.6432-43.4176-62.8736-27.8528-118.9888-67.3792-166.2976-117.76-2.8672-3.072-3.4816-7.3728-1.8432-11.0592 1.6384-3.6864 5.3248-6.144 9.4208-6.144h730.7264c4.096 0 7.7824 2.4576 9.4208 6.144s0.8192 8.192-1.8432 11.0592c-47.3088 50.3808-103.424 89.9072-166.2976 117.76C653.312 1009.4592 583.8848 1024 512 1024zM171.008 866.0992C262.9632 954.9824 383.1808 1003.52 512 1003.52s249.0368-48.5376 340.992-137.4208h-681.984zM442.9824 489.472c-5.7344 0-10.24-4.5056-10.24-10.24v-90.7264c0-16.9984-13.7216-30.72-30.72-30.72H223.232c-16.9984 0-30.72 13.7216-30.72 30.72v89.7024c0 5.7344-4.5056 10.24-10.24 10.24s-10.24-4.5056-10.24-10.24v-89.7024c0-28.2624 22.9376-51.2 51.2-51.2h178.7904c28.2624 0 51.2 22.9376 51.2 51.2V479.232c0 5.7344-4.5056 10.24-10.24 10.24z" fill="#1C1D21" p-id="8994"></path><path d="M402.0224 866.0992H223.232c-28.2624 0-51.2-22.9376-51.2-51.2v-121.856c0-5.7344 4.5056-10.24 10.24-10.24s10.24 4.5056 10.24 10.24v121.856c0 16.9984 13.7216 30.72 30.72 30.72h178.7904c16.9984 0 30.72-13.7216 30.72-30.72V493.9776c-3.4816 1.4336-7.3728 2.048-11.4688 2.048-8.3968 0-15.9744-3.2768-21.7088-8.6016-5.7344 5.3248-13.312 8.6016-21.7088 8.6016s-15.9744-3.2768-21.7088-8.6016c-5.7344 5.3248-13.312 8.6016-21.7088 8.6016s-15.9744-3.2768-21.7088-8.6016c-5.7344 5.3248-13.312 8.6016-21.7088 8.6016s-15.9744-3.2768-21.7088-8.6016c-5.7344 5.3248-13.312 8.6016-21.7088 8.6016s-15.9744-3.2768-21.7088-8.6016c-5.7344 5.3248-13.312 8.6016-21.7088 8.6016-4.096 0-7.9872-0.8192-11.4688-2.048v18.0224c0 5.7344-4.5056 10.24-10.24 10.24s-10.24-4.5056-10.24-10.24v-47.7184c0-5.7344 4.5056-10.24 10.24-10.24s10.24 4.5056 10.24 10.24c0 6.3488 5.12 11.4688 11.4688 11.4688 6.3488 0 11.4688-5.12 11.4688-11.4688 0-5.7344 4.5056-10.24 10.24-10.24s10.24 4.5056 10.24 10.24c0 6.3488 5.12 11.4688 11.4688 11.4688 6.3488 0 11.4688-5.12 11.4688-11.4688 0-5.7344 4.5056-10.24 10.24-10.24s10.24 4.5056 10.24 10.24c0 6.3488 5.12 11.4688 11.4688 11.4688 6.3488 0 11.4688-5.12 11.4688-11.4688 0-5.7344 4.5056-10.24 10.24-10.24s10.24 4.5056 10.24 10.24c0 6.3488 5.12 11.4688 11.4688 11.4688 6.3488 0 11.4688-5.12 11.4688-11.4688 0-5.7344 4.5056-10.24 10.24-10.24s10.24 4.5056 10.24 10.24c0 6.3488 5.12 11.4688 11.4688 11.4688 6.3488 0 11.4688-5.12 11.4688-11.4688 0-5.7344 4.5056-10.24 10.24-10.24s10.24 4.5056 10.24 10.24c0 6.3488 5.12 11.4688 11.4688 11.4688 6.3488 0 11.4688-5.12 11.4688-11.4688 0-4.3008 2.6624-7.9872 6.5536-9.6256 3.8912-1.4336 8.3968-0.4096 11.264 2.6624 1.6384 1.8432 2.6624 4.3008 2.6624 6.7584v350.6176c0 28.4672-22.9376 51.4048-51.2 51.4048z" fill="#1C1D21" p-id="8995"></path><path d="M182.272 670.3104c-5.7344 0-10.24-4.5056-10.24-10.24v-58.9824c0-5.7344 4.5056-10.24 10.24-10.24s10.24 4.5056 10.24 10.24v58.9824c0 5.5296-4.5056 10.24-10.24 10.24zM182.272 572.416c-5.7344 0-10.24-4.5056-10.24-10.24v-14.336c0-5.7344 4.5056-10.24 10.24-10.24s10.24 4.5056 10.24 10.24v14.336c0 5.7344-4.5056 10.24-10.24 10.24zM841.728 489.472c-5.7344 0-10.24-4.5056-10.24-10.24v-90.7264c0-16.9984-13.7216-30.72-30.72-30.72h-178.7904c-16.9984 0-30.72 13.7216-30.72 30.72v89.7024c0 5.7344-4.5056 10.24-10.24 10.24s-10.24-4.5056-10.24-10.24v-89.7024c0-28.2624 22.9376-51.2 51.2-51.2H800.768c28.2624 0 51.2 22.9376 51.2 51.2V479.232c0 5.7344-4.5056 10.24-10.24 10.24z" fill="#1C1D21" p-id="8996"></path><path d="M800.768 866.0992h-178.7904c-28.2624 0-51.2-22.9376-51.2-51.2v-121.856c0-5.7344 4.5056-10.24 10.24-10.24s10.24 4.5056 10.24 10.24v121.856c0 16.9984 13.7216 30.72 30.72 30.72H800.768c16.9984 0 30.72-13.7216 30.72-30.72V493.9776c-3.4816 1.4336-7.3728 2.048-11.4688 2.048-8.3968 0-15.9744-3.2768-21.7088-8.6016-5.7344 5.3248-13.312 8.6016-21.7088 8.6016s-15.9744-3.2768-21.7088-8.6016c-5.7344 5.3248-13.312 8.6016-21.7088 8.6016s-15.9744-3.2768-21.7088-8.6016c-5.7344 5.3248-13.312 8.6016-21.7088 8.6016s-15.9744-3.2768-21.7088-8.6016c-5.7344 5.3248-13.312 8.6016-21.7088 8.6016s-15.9744-3.2768-21.7088-8.6016c-5.7344 5.3248-13.312 8.6016-21.7088 8.6016-4.096 0-7.9872-0.8192-11.4688-2.048v18.0224c0 5.7344-4.5056 10.24-10.24 10.24s-10.24-4.5056-10.24-10.24v-47.7184c0-5.7344 4.5056-10.24 10.24-10.24s10.24 4.5056 10.24 10.24c0 6.3488 5.12 11.4688 11.4688 11.4688 6.3488 0 11.4688-5.12 11.4688-11.4688 0-5.7344 4.5056-10.24 10.24-10.24s10.24 4.5056 10.24 10.24c0 6.3488 5.12 11.4688 11.4688 11.4688 6.3488 0 11.4688-5.12 11.4688-11.4688 0-5.7344 4.5056-10.24 10.24-10.24s10.24 4.5056 10.24 10.24c0 6.3488 5.12 11.4688 11.4688 11.4688 6.3488 0 11.4688-5.12 11.4688-11.4688 0-5.7344 4.5056-10.24 10.24-10.24s10.24 4.5056 10.24 10.24c0 6.3488 5.12 11.4688 11.4688 11.4688 6.3488 0 11.4688-5.12 11.4688-11.4688 0-5.7344 4.5056-10.24 10.24-10.24s10.24 4.5056 10.24 10.24c0 6.3488 5.12 11.4688 11.4688 11.4688 6.3488 0 11.4688-5.12 11.4688-11.4688 0-5.7344 4.5056-10.24 10.24-10.24s10.24 4.5056 10.24 10.24c0 6.3488 5.12 11.4688 11.4688 11.4688 6.3488 0 11.4688-5.12 11.4688-11.4688 0-4.3008 2.6624-7.9872 6.5536-9.6256 3.8912-1.4336 8.3968-0.4096 11.264 2.6624 1.6384 1.8432 2.6624 4.3008 2.6624 6.9632v350.6176c0 28.2624-22.9376 51.2-51.2 51.2z" fill="#1C1D21" p-id="8997"></path><path d="M581.0176 670.3104c-5.7344 0-10.24-4.5056-10.24-10.24v-58.9824c0-5.7344 4.5056-10.24 10.24-10.24s10.24 4.5056 10.24 10.24v58.9824c0 5.5296-4.7104 10.24-10.24 10.24zM312.7296 242.688c-5.7344 0-10.24-4.5056-10.24-10.24v-3.6864c0-5.7344 4.5056-10.24 10.24-10.24s10.24 4.5056 10.24 10.24v3.6864c0 5.7344-4.7104 10.24-10.24 10.24zM312.7296 206.848c-5.7344 0-10.24-4.5056-10.24-10.24v-3.6864c0-5.7344 4.5056-10.24 10.24-10.24s10.24 4.5056 10.24 10.24V196.608c0 5.5296-4.7104 10.24-10.24 10.24z" fill="#1C1D21" p-id="8998"></path><path d="M430.6944 556.032h162.816V604.16h-162.816z" fill="#8CEEF9" p-id="8999"></path><path d="M593.5104 614.4h-162.816c-5.7344 0-10.24-4.5056-10.24-10.24s4.5056-10.24 10.24-10.24h162.816c5.7344 0 10.24 4.5056 10.24 10.24s-4.7104 10.24-10.24 10.24zM593.5104 566.272h-162.816c-5.7344 0-10.24-4.5056-10.24-10.24s4.5056-10.24 10.24-10.24h162.816c5.7344 0 10.24 4.5056 10.24 10.24s-4.7104 10.24-10.24 10.24z" fill="#1C1D21" p-id="9000"></path><path d="M430.6944 652.288h162.816V700.416h-162.816z" fill="#8CEEF9" p-id="9001"></path><path d="M593.5104 710.656h-162.816c-5.7344 0-10.24-4.5056-10.24-10.24s4.5056-10.24 10.24-10.24h162.816c5.7344 0 10.24 4.5056 10.24 10.24s-4.7104 10.24-10.24 10.24zM593.5104 662.528h-162.816c-5.7344 0-10.24-4.5056-10.24-10.24s4.5056-10.24 10.24-10.24h162.816c5.7344 0 10.24 4.5056 10.24 10.24s-4.7104 10.24-10.24 10.24z" fill="#1C1D21" p-id="9002"></path></svg>