<svg xmlns="http://www.w3.org/2000/svg" viewBox="0 0 1024 1024" version="1.1"><path d="M512 512m-501.76 0a501.76 501.76 0 1 0 1003.52 0 501.76 501.76 0 1 0-1003.52 0Z" fill="#8CEEF9" p-id="8556"></path><path d="M512 1013.76c169.984 0 320.1024-84.3776 410.8288-213.6064H101.1712C191.8976 929.3824 342.016 1013.76 512 1013.76z" fill="#FF8939" p-id="8557"></path><path d="M581.632 472.6784l53.8624-67.9936-15.9744-14.1312-85.6064 72.0896-6.9632-119.808h-29.9008l-6.9632 119.808-85.6064-72.0896-15.9744 14.1312 53.8624 67.9936c28.2624 35.84 42.3936 80.6912 39.936 126.1568l-11.6736 200.9088h82.944l-11.6736-200.9088c-2.6624-45.4656 11.4688-90.3168 39.7312-126.1568z" fill="#AA4D2D" p-id="8558"></path><path d="M553.3696 809.984h-82.944c-2.8672 0-5.5296-1.2288-7.3728-3.2768-1.8432-2.048-2.8672-4.7104-2.8672-7.5776l11.6736-200.9088c2.4576-43.008-10.8544-85.4016-37.6832-119.3984l-53.8624-67.9936c-3.2768-4.3008-2.8672-10.4448 1.2288-13.9264l15.9744-14.1312c3.8912-3.4816 9.4208-3.4816 13.312-0.2048l70.0416 58.9824 5.7344-99.328c0.4096-5.3248 4.7104-9.6256 10.24-9.6256h29.9008c5.3248 0 9.8304 4.3008 10.24 9.6256l5.7344 99.328 70.0416-58.9824c3.8912-3.2768 9.6256-3.2768 13.312 0.2048l15.9744 14.1312c4.096 3.6864 4.5056 9.8304 1.2288 13.9264L589.824 479.0272c-26.8288 33.792-40.1408 76.1856-37.6832 119.3984l11.6736 200.9088c0.2048 2.8672-0.8192 5.5296-2.8672 7.5776-2.048 2.048-4.7104 3.072-7.5776 3.072z m-71.8848-20.48H542.72l-11.0592-190.0544c-2.8672-48.128 12.0832-95.4368 41.984-133.12l47.9232-60.416-2.048-1.8432-78.848 66.56c-2.8672 2.4576-7.168 3.072-10.6496 1.6384-3.4816-1.4336-5.9392-4.9152-6.144-8.8064l-6.3488-110.1824h-10.6496l-6.3488 110.1824c-0.2048 3.8912-2.6624 7.3728-6.144 8.8064-3.4816 1.4336-7.7824 1.024-10.6496-1.6384l-78.848-66.56-2.048 1.8432 47.9232 60.416c29.9008 37.888 44.8512 84.992 41.984 133.12l-11.264 190.0544z" fill="#1C1D21" p-id="8559"></path><path d="M317.0304 693.8624c-29.696-17.8176-49.7664-51.2-49.7664-89.2928s20.0704-71.4752 49.7664-89.2928c29.696 17.8176 49.7664 51.2 49.7664 89.2928 0 38.2976-20.0704 71.4752-49.7664 89.2928z" fill="#FF8939" p-id="8560"></path><path d="M317.0304 704.1024c-1.8432 0-3.6864-0.4096-5.3248-1.4336-33.792-20.2752-54.8864-57.7536-54.8864-98.0992s21.0944-77.824 54.8864-98.0992c3.2768-1.8432 7.3728-1.8432 10.4448 0 33.792 20.2752 54.8864 57.7536 54.8864 98.0992s-21.0944 77.824-54.8864 98.0992c-1.6384 1.024-3.4816 1.4336-5.12 1.4336z m0-176.5376c-24.576 17.2032-39.5264 46.08-39.5264 77.0048s14.9504 60.0064 39.5264 77.0048c24.576-17.2032 39.5264-46.08 39.5264-77.0048s-15.1552-59.8016-39.5264-77.0048z" fill="#1C1D21" p-id="8561"></path><path d="M317.0304 696.9344c-5.7344 0-10.24-4.5056-10.24-10.24V475.9552c0-5.7344 4.5056-10.24 10.24-10.24s10.24 4.5056 10.24 10.24v210.7392c0 5.5296-4.7104 10.24-10.24 10.24z" fill="#1C1D21" p-id="8562"></path><path d="M273.6128 648.8064c-2.2528 0-4.7104-0.8192-6.5536-2.4576-4.3008-3.6864-4.9152-10.0352-1.2288-14.336l43.2128-51.8144c3.6864-4.3008 10.0352-4.9152 14.336-1.2288 4.3008 3.6864 4.9152 10.0352 1.2288 14.336l-43.008 51.8144c-2.048 2.2528-4.9152 3.6864-7.9872 3.6864z" fill="#1C1D21" p-id="8563"></path><path d="M360.2432 648.8064c-2.8672 0-5.9392-1.2288-7.7824-3.6864L309.248 593.3056c-3.6864-4.3008-3.072-10.8544 1.2288-14.336 4.3008-3.6864 10.8544-3.072 14.336 1.2288l43.2128 51.8144c3.6864 4.3008 3.072 10.8544-1.2288 14.336-2.048 1.6384-4.3008 2.4576-6.5536 2.4576z" fill="#1C1D21" p-id="8564"></path><path d="M706.9696 693.8624c-29.696-17.8176-49.7664-51.2-49.7664-89.2928s20.0704-71.4752 49.7664-89.2928c29.696 17.8176 49.7664 51.2 49.7664 89.2928 0.2048 38.2976-19.8656 71.4752-49.7664 89.2928z" fill="#FF8939" p-id="8565"></path><path d="M706.9696 704.1024c-1.8432 0-3.6864-0.4096-5.3248-1.4336-33.792-20.2752-54.8864-57.7536-54.8864-98.0992s21.0944-77.824 54.8864-98.0992c3.2768-1.8432 7.3728-1.8432 10.4448 0 33.792 20.2752 54.8864 57.7536 54.8864 98.0992s-21.0944 77.824-54.8864 98.0992c-1.4336 1.024-3.2768 1.4336-5.12 1.4336z m0-176.5376c-24.576 17.2032-39.5264 46.08-39.5264 77.0048s14.9504 60.0064 39.5264 77.0048c24.576-17.2032 39.5264-46.08 39.5264-77.0048s-14.9504-59.8016-39.5264-77.0048z" fill="#1C1D21" p-id="8566"></path><path d="M706.9696 696.9344c-5.7344 0-10.24-4.5056-10.24-10.24V475.9552c0-5.7344 4.5056-10.24 10.24-10.24s10.24 4.5056 10.24 10.24v210.7392c0 5.5296-4.5056 10.24-10.24 10.24z" fill="#1C1D21" p-id="8567"></path><path d="M663.7568 648.8064c-2.2528 0-4.7104-0.8192-6.5536-2.4576-4.3008-3.6864-4.9152-10.0352-1.2288-14.336l43.2128-51.8144c3.6864-4.3008 10.0352-4.9152 14.336-1.2288 4.3008 3.6864 4.9152 10.0352 1.2288 14.336L671.744 645.12c-2.048 2.2528-4.9152 3.6864-7.9872 3.6864z" fill="#1C1D21" p-id="8568"></path><path d="M750.3872 648.8064c-2.8672 0-5.9392-1.2288-7.7824-3.6864l-43.2128-51.8144c-3.6864-4.3008-3.072-10.8544 1.2288-14.336 4.3008-3.6864 10.8544-3.072 14.336 1.2288l43.2128 51.8144c3.6864 4.3008 3.072 10.8544-1.2288 14.336-2.048 1.6384-4.3008 2.4576-6.5536 2.4576z" fill="#1C1D21" p-id="8569"></path><path d="M512 166.5024m-58.1632 0a58.1632 58.1632 0 1 0 116.3264 0 58.1632 58.1632 0 1 0-116.3264 0Z" fill="#FF8939" p-id="8570"></path><path d="M512 235.1104c-37.6832 0-68.4032-30.72-68.4032-68.4032S474.3168 98.304 512 98.304s68.4032 30.72 68.4032 68.4032-30.72 68.4032-68.4032 68.4032z m0-116.5312c-26.4192 0-47.9232 21.504-47.9232 47.9232 0 26.4192 21.504 47.9232 47.9232 47.9232 26.4192 0 47.9232-21.504 47.9232-47.9232 0-26.4192-21.504-47.9232-47.9232-47.9232zM512 71.68c-5.7344 0-10.24-4.5056-10.24-10.24v-7.9872c0-5.7344 4.5056-10.24 10.24-10.24s10.24 4.5056 10.24 10.24V61.44c0 5.7344-4.5056 10.24-10.24 10.24zM512 289.792c-5.7344 0-10.24-4.5056-10.24-10.24v-7.9872c0-5.7344 4.5056-10.24 10.24-10.24s10.24 4.5056 10.24 10.24v7.9872c0 5.7344-4.5056 10.24-10.24 10.24zM586.3424 102.4c-2.6624 0-5.3248-1.024-7.168-3.072-4.096-4.096-4.096-10.4448 0-14.5408l5.5296-5.5296c4.096-4.096 10.4448-4.096 14.5408 0s4.096 10.4448 0 14.5408l-5.5296 5.5296c-2.048 2.048-4.7104 3.072-7.3728 3.072zM432.128 256.8192c-2.6624 0-5.3248-1.024-7.168-3.072-4.096-4.096-4.096-10.4448 0-14.5408l5.5296-5.5296c4.096-4.096 10.4448-4.096 14.5408 0s4.096 10.4448 0 14.5408l-5.5296 5.5296c-2.2528 2.048-4.7104 3.072-7.3728 3.072zM625.0496 176.7424h-7.9872c-5.7344 0-10.24-4.5056-10.24-10.24s4.5056-10.24 10.24-10.24h7.9872c5.7344 0 10.24 4.5056 10.24 10.24s-4.5056 10.24-10.24 10.24zM406.9376 176.7424h-7.9872c-5.7344 0-10.24-4.5056-10.24-10.24s4.5056-10.24 10.24-10.24h7.9872c5.7344 0 10.24 4.5056 10.24 10.24s-4.7104 10.24-10.24 10.24zM591.872 256.8192c-2.6624 0-5.3248-1.024-7.168-3.072l-5.5296-5.5296c-4.096-4.096-4.096-10.4448 0-14.5408s10.4448-4.096 14.5408 0l5.5296 5.5296c4.096 4.096 4.096 10.4448 0 14.5408-2.048 2.048-4.7104 3.072-7.3728 3.072zM437.6576 102.4c-2.6624 0-5.3248-1.024-7.168-3.072l-5.5296-5.5296c-4.096-4.096-4.096-10.4448 0-14.5408s10.4448-4.096 14.5408 0l5.5296 5.5296c4.096 4.096 4.096 10.4448 0 14.5408-2.048 2.048-4.7104 3.072-7.3728 3.072zM374.3744 956.416c-5.7344 0-10.24-4.5056-10.24-10.24v-12.9024c0-5.7344 4.5056-10.24 10.24-10.24s10.24 4.5056 10.24 10.24v12.9024c0 5.7344-4.5056 10.24-10.24 10.24zM374.3744 864.4608h-92.9792c-5.7344 0-10.24-4.5056-10.24-10.24s4.5056-10.24 10.24-10.24h92.9792c5.7344 0 10.24 4.5056 10.24 10.24s-4.5056 10.24-10.24 10.24zM232.448 864.4608h-11.0592c-5.7344 0-10.24-4.5056-10.24-10.24s4.5056-10.24 10.24-10.24h11.0592c5.7344 0 10.24 4.5056 10.24 10.24s-4.7104 10.24-10.24 10.24zM437.8624 915.456c-2.6624 0-5.3248-1.024-7.168-3.072-4.096-4.096-4.096-10.4448 0-14.5408l30.3104-30.3104v-67.7888c0-5.7344 4.5056-10.24 10.24-10.24s10.24 4.5056 10.24 10.24v71.8848c0 2.6624-1.024 5.3248-3.072 7.168l-33.3824 33.3824c-1.8432 2.2528-4.5056 3.2768-7.168 3.2768zM649.6256 956.416c-5.7344 0-10.24-4.5056-10.24-10.24v-12.9024c0-5.7344 4.5056-10.24 10.24-10.24s10.24 4.5056 10.24 10.24v12.9024c0 5.7344-4.7104 10.24-10.24 10.24zM742.6048 864.4608h-92.9792c-5.7344 0-10.24-4.5056-10.24-10.24s4.5056-10.24 10.24-10.24h92.9792c5.7344 0 10.24 4.5056 10.24 10.24s-4.5056 10.24-10.24 10.24zM802.6112 864.4608h-11.0592c-5.7344 0-10.24-4.5056-10.24-10.24s4.5056-10.24 10.24-10.24h11.0592c5.7344 0 10.24 4.5056 10.24 10.24s-4.5056 10.24-10.24 10.24zM586.1376 915.456c-2.6624 0-5.3248-1.024-7.168-3.072l-33.3824-33.3824c-1.8432-1.8432-3.072-4.5056-3.072-7.168v-71.8848c0-5.7344 4.5056-10.24 10.24-10.24s10.24 4.5056 10.24 10.24v67.7888l30.3104 30.3104c4.096 4.096 4.096 10.4448 0 14.5408-2.048 1.8432-4.7104 2.8672-7.168 2.8672z" fill="#1C1D21" p-id="8571"></path><path d="M374.3744 910.7456c-5.7344 0-10.24-4.5056-10.24-10.24v-46.2848c0-2.6624 1.024-5.3248 3.072-7.168l54.4768-54.4768c4.096-4.096 10.4448-4.096 14.5408 0s4.096 10.4448 0 14.5408l-51.4048 51.4048v41.984c-0.2048 5.5296-4.7104 10.24-10.4448 10.24zM649.6256 910.7456c-5.7344 0-10.24-4.5056-10.24-10.24v-41.984l-51.4048-51.4048c-4.096-4.096-4.096-10.4448 0-14.5408s10.4448-4.096 14.5408 0l54.4768 54.4768c1.8432 1.8432 3.072 4.5056 3.072 7.168v46.2848c-0.2048 5.5296-4.9152 10.24-10.4448 10.24z" fill="#1C1D21" p-id="8572"></path><path d="M512 1024c-166.5024 0-323.1744-81.5104-419.2256-217.9072-2.2528-3.072-2.4576-7.168-0.6144-10.6496s5.3248-5.5296 9.0112-5.5296h821.6576c3.8912 0 7.3728 2.048 9.0112 5.5296s1.4336 7.5776-0.6144 10.6496C835.1744 942.4896 678.5024 1024 512 1024zM121.4464 810.3936C214.2208 931.6352 358.8096 1003.52 512 1003.52s297.7792-71.8848 390.5536-193.1264H121.4464z" fill="#1C1D21" p-id="8573"></path><path d="M512 1024c-136.8064 0-265.4208-53.248-362.0864-149.9136C53.248 777.4208 0 648.8064 0 512S53.248 246.5792 149.9136 149.9136C246.5792 53.248 375.1936 0 512 0s265.4208 53.248 362.0864 149.9136C970.752 246.5792 1024 375.1936 1024 512s-53.248 265.4208-149.9136 362.0864C777.4208 970.752 648.8064 1024 512 1024z m0-1003.52C241.0496 20.48 20.48 241.0496 20.48 512s220.5696 491.52 491.52 491.52 491.52-220.5696 491.52-491.52S782.9504 20.48 512 20.48z" fill="#1C1D21" p-id="8574"></path><path d="M223.6416 390.5536l-85.6064 72.0896-6.9632-119.808H100.9664l-6.9632 119.808-71.68-60.416c-2.4576 10.6496-4.5056 21.504-6.144 32.3584l30.1056 38.0928c28.2624 35.84 42.3936 80.6912 39.936 126.1568L76.8 761.856c7.5776 13.1072 15.5648 25.8048 24.1664 38.0928h56.5248l-11.6736-200.9088c-2.6624-45.4656 11.4688-90.5216 39.936-126.1568l53.8624-67.9936-15.9744-14.336z" fill="#AA4D2D" p-id="8575"></path><path d="M157.4912 809.984H100.9664c-3.2768 0-6.5536-1.6384-8.3968-4.3008-8.8064-12.6976-17.2032-25.8048-24.7808-38.7072-1.024-1.6384-1.4336-3.6864-1.4336-5.7344l9.4208-162.816c2.4576-43.008-10.8544-85.4016-37.6832-119.3984L8.192 440.9344c-1.8432-2.2528-2.4576-5.12-2.048-7.9872 1.6384-10.8544 3.6864-21.9136 6.3488-32.9728 0.8192-3.4816 3.2768-6.3488 6.7584-7.3728 3.4816-1.2288 7.168-0.4096 9.8304 1.8432l56.1152 47.3088 5.7344-99.328c0.4096-5.3248 4.7104-9.6256 10.24-9.6256H131.072c5.3248 0 9.8304 4.3008 10.24 9.6256l5.7344 99.328 70.0416-58.9824c3.8912-3.2768 9.6256-3.2768 13.312 0.2048l15.9744 14.1312c4.096 3.6864 4.5056 9.8304 1.2288 13.9264l-53.8624 67.9936c-26.8288 33.792-40.1408 76.1856-37.6832 119.3984l11.6736 200.9088c0.2048 2.8672-0.8192 5.5296-2.8672 7.5776-1.8432 2.048-4.5056 3.072-7.3728 3.072z m-51.2-20.48h40.3456l-11.0592-190.0544c-2.8672-48.128 12.0832-95.4368 41.984-133.12l47.9232-60.416-2.048-1.8432-78.848 66.56c-2.8672 2.4576-7.168 3.072-10.6496 1.6384-3.4816-1.4336-5.9392-4.9152-6.144-8.8064l-6.3488-110.1824H110.592l-6.3488 110.1824c-0.2048 3.8912-2.6624 7.3728-6.144 8.8064-3.4816 1.4336-7.7824 1.024-10.6496-1.6384l-58.5728-49.3568c-0.6144 3.4816-1.2288 7.168-1.8432 10.6496l27.2384 34.6112c29.9008 37.888 44.8512 84.992 41.984 133.12l-9.216 159.744c5.9392 10.0352 12.4928 20.2752 19.2512 30.1056z" fill="#1C1D21" p-id="8576"></path><path d="M1007.8208 434.5856c-1.6384-10.8544-3.6864-21.7088-6.144-32.3584l-71.68 60.416-6.9632-119.808H892.928l-6.9632 119.808-85.6064-72.0896-15.9744 14.1312 53.8624 67.9936c28.2624 35.84 42.3936 80.6912 39.936 126.1568l-11.6736 200.9088h56.5248c8.6016-12.288 16.7936-24.9856 24.1664-38.0928l-9.4208-162.816c-2.6624-45.4656 11.4688-90.5216 39.936-126.1568l30.1056-38.0928z" fill="#AA4D2D" p-id="8577"></path><path d="M923.0336 809.984h-56.5248c-2.8672 0-5.5296-1.2288-7.3728-3.2768-1.8432-2.048-2.8672-4.7104-2.8672-7.5776l11.6736-200.9088c2.4576-43.008-10.8544-85.4016-37.6832-119.3984l-53.8624-67.9936c-3.2768-4.3008-2.8672-10.4448 1.2288-13.9264l15.9744-14.1312c3.8912-3.4816 9.4208-3.4816 13.312-0.2048l70.0416 58.9824 5.7344-99.328c0.4096-5.3248 4.7104-9.6256 10.24-9.6256h29.9008c5.3248 0 9.8304 4.3008 10.24 9.6256l5.7344 99.328 56.1152-47.3088c2.6624-2.2528 6.5536-3.072 9.8304-1.8432 3.4816 1.2288 5.9392 3.8912 6.7584 7.3728 2.4576 11.0592 4.5056 22.1184 6.3488 32.9728 0.4096 2.8672-0.4096 5.7344-2.048 7.9872l-30.1056 38.0928c-26.8288 33.792-40.1408 76.1856-37.6832 119.3984l9.4208 162.816c0.2048 2.048-0.4096 3.8912-1.4336 5.7344-7.5776 13.1072-15.7696 26.2144-24.7808 38.7072-1.6384 2.8672-4.9152 4.5056-8.192 4.5056z m-45.6704-20.48h40.3456c6.7584-10.0352 13.312-20.0704 19.2512-30.3104l-9.216-159.744c-2.8672-48.128 12.0832-95.4368 41.984-133.12l27.2384-34.6112c-0.6144-3.4816-1.2288-6.9632-1.8432-10.6496l-58.5728 49.3568c-2.8672 2.4576-7.168 3.072-10.6496 1.6384-3.4816-1.4336-5.9392-4.9152-6.144-8.8064l-6.3488-110.1824h-10.6496l-6.3488 110.1824c-0.2048 3.8912-2.6624 7.3728-6.144 8.8064-3.4816 1.4336-7.7824 1.024-10.6496-1.6384L800.768 403.8656l-2.048 1.8432 47.9232 60.416c29.9008 37.888 44.8512 84.992 41.984 133.12l-11.264 190.2592z" fill="#1C1D21" p-id="8578"></path></svg>