<svg xmlns="http://www.w3.org/2000/svg" viewBox="0 0 1024 1024" version="1.1"><path d="M512 512m-501.76 0a501.76 501.76 0 1 0 1003.52 0 501.76 501.76 0 1 0-1003.52 0Z" fill="#8CEEF9" p-id="10013"></path><path d="M582.656 299.8272c-16.7936 16.7936-44.2368 16.7936-61.2352 0L451.1744 229.376c-16.7936-16.7936-16.7936-44.2368 0-61.2352 16.7936-16.7936 44.2368-16.7936 61.2352 0l70.2464 70.2464c16.7936 16.9984 16.7936 44.4416 0 61.44z" fill="#0ABFB2" p-id="10014"></path><path d="M521.4208 299.8272c17.2032 17.2032 45.4656 16.7936 62.2592-1.024 15.9744-17.2032 14.7456-44.2368-1.8432-60.8256l-34.2016-34.2016h-0.2048l-61.0304 61.0304v0.2048l35.0208 34.816z" fill="#508DEF" p-id="10015"></path><path d="M190.542526 584.460849a68.8128 68.8128 0 1 0 97.314296-97.317693 68.8128 68.8128 0 1 0-97.314296 97.317693Z" fill="#E0E0E0" p-id="10016"></path><path d="M313.1392 302.6944l-12.9024 12.9024c-7.9872 7.9872-7.9872 20.8896 0 28.8768l17.408 17.408 41.984-41.984-17.408-17.408c-8.192-7.7824-21.0944-7.7824-29.0816 0.2048z" fill="#FF8939" p-id="10017"></path><path d="M701.8496 611.328L608.6656 704.512l-294.912-295.3216c-12.0832-12.0832-12.0832-31.5392 0-43.4176l49.5616-49.5616c12.0832-12.0832 31.5392-12.0832 43.4176 0l295.1168 295.1168z" fill="#FFC5B3" p-id="10018"></path><path d="M354.7136 402.6368c-2.6624 0-5.3248-1.024-7.168-3.072l-4.7104-4.7104c-4.096-4.096-4.096-10.4448 0-14.5408s10.4448-4.096 14.5408 0l4.7104 4.7104c4.096 4.096 4.096 10.4448 0 14.5408-2.2528 2.048-4.9152 3.072-7.3728 3.072zM608.6656 656.5888c-2.6624 0-5.3248-1.024-7.168-3.072L378.88 431.104c-4.096-4.096-4.096-10.4448 0-14.5408s10.4448-4.096 14.5408 0l222.6176 222.6176c4.096 4.096 4.096 10.4448 0 14.5408-2.048 1.8432-4.7104 2.8672-7.3728 2.8672zM738.7136 574.2592l-166.912 166.912c-8.192 8.192-8.192 21.7088 0 29.9008s21.7088 8.192 29.9008 0l166.912-166.912c8.192-8.192 8.192-21.7088 0-29.9008s-21.7088-8.192-29.9008 0zM799.3344 700.2112l-101.5808 101.5808c-9.0112 9.0112-9.0112 23.9616 0 32.9728 9.0112 9.0112 23.9616 9.0112 32.9728 0l101.5808-101.5808c9.0112-9.0112 9.0112-23.9616 0-32.9728-9.0112-9.0112-23.7568-9.0112-32.9728 0zM663.564288 709.376l43.155456-43.155456 63.2832 63.2832-43.153408 43.155456z" fill="#FFECE9" p-id="10019"></path><path d="M449.87392 545.613824l93.116416-93.114368 158.859264 158.861312-93.114368 93.114368z" fill="#FF3E63" p-id="10020"></path><path d="M608.6656 714.5472c-2.6624 0-5.3248-1.024-7.168-3.072l-295.1168-294.912c-7.7824-7.7824-12.0832-18.0224-12.0832-28.8768s4.3008-21.2992 12.0832-28.8768l49.5616-49.5616c7.7824-7.7824 18.0224-12.0832 28.8768-12.0832 10.8544 0 21.2992 4.3008 28.8768 12.0832 4.096 4.096 4.096 10.4448 0 14.5408s-10.4448 4.096-14.5408 0c-3.8912-3.8912-9.0112-5.9392-14.5408-5.9392-5.5296 0-10.6496 2.048-14.5408 5.9392l-49.5616 49.5616c-3.8912 3.8912-5.9392 9.0112-5.9392 14.5408s2.048 10.6496 5.9392 14.5408L608.256 690.176l78.6432-78.6432-227.5328-228.1472c-4.096-4.096-4.096-10.4448 0-14.5408s10.4448-4.096 14.5408 0l235.1104 235.1104c4.096 4.096 4.096 10.4448 0 14.5408l-93.184 93.184c-1.8432 1.8432-4.3008 2.8672-7.168 2.8672z" fill="#1C1D21" p-id="10021"></path><path d="M439.9104 359.6288c-2.6624 0-5.3248-1.024-7.168-3.072l-6.7584-6.7584c-4.096-4.096-4.096-10.4448 0-14.5408s10.4448-4.096 14.5408 0l6.7584 6.7584c4.096 4.096 4.096 10.4448 0 14.5408-2.048 2.048-4.7104 3.072-7.3728 3.072zM608.6656 714.5472c-2.6624 0-5.3248-1.024-7.168-3.072l-158.72-158.72c-1.8432-1.8432-3.072-4.5056-3.072-7.168s1.024-5.3248 3.072-7.168l93.184-93.184c4.096-4.096 10.4448-4.096 14.5408 0l158.72 158.72c4.096 4.096 4.096 10.4448 0 14.5408l-93.184 93.184c-2.048 1.8432-4.5056 2.8672-7.3728 2.8672z m-144.1792-168.96l144.384 144.384 78.6432-78.6432-144.5888-144.384-78.4384 78.6432z" fill="#1C1D21" p-id="10022"></path><path d="M586.752 787.6608c-7.9872 0-16.1792-3.072-22.1184-9.216-12.288-12.288-12.288-32.1536 0-44.4416l166.912-166.912c12.288-12.288 32.1536-12.288 44.4416 0s12.288 32.1536 0 44.4416l-166.912 166.912c-6.144 6.144-14.1312 9.216-22.3232 9.216zM753.664 578.3552c-2.8672 0-5.7344 1.2288-7.7824 3.2768l-166.912 166.912c-4.3008 4.3008-4.3008 11.264 0 15.36 4.3008 4.3008 11.264 4.3008 15.36 0l166.912-166.912c2.048-2.048 3.2768-4.7104 3.2768-7.7824s-1.2288-5.7344-3.2768-7.7824c-1.8432-1.8432-4.7104-3.072-7.5776-3.072zM714.3424 851.968c-8.6016 0-17.2032-3.2768-23.7568-9.8304-6.3488-6.3488-9.8304-14.7456-9.8304-23.7568 0-9.0112 3.4816-17.408 9.8304-23.7568l101.5808-101.5808c6.3488-6.3488 14.7456-9.8304 23.7568-9.8304 9.0112 0 17.408 3.4816 23.7568 9.8304 6.3488 6.3488 9.8304 14.7456 9.8304 23.7568 0 9.0112-3.4816 17.408-9.8304 23.7568l-101.5808 101.5808c-6.5536 6.5536-15.1552 9.8304-23.7568 9.8304z m101.5808-148.2752c-3.4816 0-6.7584 1.4336-9.216 3.8912l-101.5808 101.5808c-2.4576 2.4576-3.8912 5.7344-3.8912 9.216 0 3.4816 1.4336 6.7584 3.8912 9.216 5.12 5.12 13.312 5.12 18.432 0l101.5808-101.5808c2.4576-2.4576 3.8912-5.7344 3.8912-9.216 0-3.4816-1.4336-6.7584-3.8912-9.216-2.4576-2.4576-5.7344-3.8912-9.216-3.8912z m-16.5888-3.4816zM317.6448 372.1216c-2.6624 0-5.3248-1.024-7.168-3.072l-17.408-17.408c-11.8784-11.8784-11.8784-31.5392 0-43.4176l12.9024-12.9024c11.8784-11.8784 31.5392-11.8784 43.4176 0l17.408 17.408c4.096 4.096 4.096 10.4448 0 14.5408l-41.984 41.984c-2.048 2.048-4.7104 2.8672-7.168 2.8672z m2.6624-62.2592l-12.9024 12.9024c-3.8912 4.096-3.8912 10.4448 0 14.5408l10.24 10.24 27.4432-27.4432-10.24-10.24c-4.096-3.8912-10.4448-3.8912-14.5408 0z" fill="#1C1D21" p-id="10023"></path><path d="M306.5856 319.2832c-2.6624 0-5.3248-1.024-7.168-3.072l-50.9952-50.9952c-4.096-4.096-4.096-10.4448 0-14.5408s10.4448-4.096 14.5408 0l50.9952 50.9952c4.096 4.096 4.096 10.4448 0 14.5408-2.048 2.2528-4.7104 3.072-7.3728 3.072zM727.04 782.9504c-2.6624 0-5.3248-1.024-7.168-3.072l-63.2832-63.2832c-4.096-4.096-4.096-10.4448 0-14.5408l43.2128-43.2128c1.8432-1.8432 4.5056-3.072 7.168-3.072s5.3248 1.024 7.168 3.072l63.2832 63.2832c4.096 4.096 4.096 10.4448 0 14.5408l-43.2128 43.2128c-1.8432 2.048-4.5056 3.072-7.168 3.072z m-48.9472-73.728l48.9472 48.9472 28.672-28.672-48.9472-48.9472-28.672 28.672zM382.976 488.8576c-2.6624 0-5.3248-1.024-7.168-3.072-4.096-4.096-4.096-10.4448 0-14.5408l16.7936-16.7936c4.096-4.096 10.4448-4.096 14.5408 0s4.096 10.4448 0 14.5408l-16.7936 16.7936c-2.048 2.048-4.7104 3.072-7.3728 3.072zM416.5632 522.24c-2.6624 0-5.3248-1.024-7.168-3.072-4.096-4.096-4.096-10.4448 0-14.5408l16.7936-16.7936c4.096-4.096 10.4448-4.096 14.5408 0s4.096 10.4448 0 14.5408l-16.7936 16.7936c-2.2528 2.048-4.9152 3.072-7.3728 3.072zM449.9456 555.8272c-2.6624 0-5.3248-1.024-7.168-3.072-4.096-4.096-4.096-10.4448 0-14.5408l16.7936-16.7936c4.096-4.096 10.4448-4.096 14.5408 0s4.096 10.4448 0 14.5408l-16.7936 16.7936c-2.2528 2.048-4.7104 3.072-7.3728 3.072zM483.328 589.2096c-2.6624 0-5.3248-1.024-7.168-3.072-4.096-4.096-4.096-10.4448 0-14.5408l16.7936-16.7936c4.096-4.096 10.4448-4.096 14.5408 0s4.096 10.4448 0 14.5408l-16.7936 16.7936c-2.048 2.048-4.7104 3.072-7.3728 3.072zM349.5936 455.4752c-2.6624 0-5.3248-1.024-7.168-3.072-4.096-4.096-4.096-10.4448 0-14.5408l16.7936-16.7936c4.096-4.096 10.4448-4.096 14.5408 0s4.096 10.4448 0 14.5408l-16.7936 16.7936c-2.2528 2.048-4.7104 3.072-7.3728 3.072zM232.2432 244.9408c-2.6624 0-5.3248-1.024-7.168-3.072l-7.7824-7.7824c-4.096-4.096-4.096-10.4448 0-14.5408s10.4448-4.096 14.5408 0l7.7824 7.7824c4.096 4.096 4.096 10.4448 0 14.5408-2.2528 2.048-4.7104 3.072-7.3728 3.072zM551.936 322.56c-13.7216 0-27.4432-5.12-37.888-15.5648l-70.2464-70.2464c-10.0352-10.0352-15.7696-23.552-15.7696-37.888s5.5296-27.648 15.7696-37.888c10.0352-10.0352 23.552-15.7696 37.888-15.7696s27.648 5.5296 37.888 15.7696L589.824 231.424c10.0352 10.0352 15.7696 23.552 15.7696 37.888S600.064 296.96 589.824 307.2c-10.4448 10.24-24.1664 15.36-37.888 15.36zM481.6896 165.888c-8.8064 0-17.2032 3.4816-23.3472 9.6256s-9.6256 14.5408-9.6256 23.3472c0 8.8064 3.4816 17.2032 9.6256 23.3472l70.2464 70.2464c12.9024 12.9024 33.792 12.9024 46.6944 0l7.168 7.168-7.168-7.168c6.144-6.144 9.6256-14.5408 9.6256-23.3472 0-8.8064-3.4816-17.2032-9.6256-23.3472l-70.2464-70.2464c-6.144-6.144-14.5408-9.6256-23.3472-9.6256z" fill="#1C1D21" p-id="10024"></path><path d="M551.936 322.7648c-14.336 0-27.648-5.5296-37.888-15.7696l-35.0208-35.0208c-1.8432-1.8432-3.072-4.5056-3.072-7.3728 0-2.6624 1.024-5.3248 3.072-7.3728l61.0304-61.0304c4.096-4.096 10.6496-4.096 14.5408 0l34.2016 34.2016c20.6848 20.6848 21.504 54.272 2.048 75.1616-10.0352 10.6496-23.552 16.7936-38.2976 16.9984 0 0.2048-0.2048 0.2048-0.6144 0.2048z m-51.2-58.1632l27.8528 27.8528c6.3488 6.3488 14.7456 9.8304 23.9616 9.6256 9.0112-0.2048 17.408-3.8912 23.552-10.4448 12.0832-12.9024 11.264-33.792-1.6384-46.6944l-27.0336-27.0336-46.6944 46.6944z" fill="#1C1D21" p-id="10025"></path><path d="M714.5472 494.1824c-16.7936-16.7936-16.7936-44.2368 0-61.2352l70.2464-70.2464c16.7936-16.7936 44.2368-16.7936 61.2352 0 16.7936 16.7936 16.7936 44.2368 0 61.2352l-70.2464 70.2464c-16.9984 16.7936-44.4416 16.7936-61.2352 0z" fill="#0ABFB2" p-id="10026"></path><path d="M714.5472 432.9472c-17.2032 17.2032-16.7936 45.4656 1.024 62.2592 17.2032 15.9744 44.2368 14.7456 60.8256-1.8432l34.2016-34.2016v-0.2048L749.568 397.9264h-0.2048l-34.816 35.0208z" fill="#FF8939" p-id="10027"></path><path d="M745.0624 517.12c-14.336 0-27.648-5.5296-37.888-15.7696-20.8896-20.8896-20.8896-54.8864 0-75.5712l70.2464-70.2464c10.0352-10.0352 23.552-15.7696 37.888-15.7696s27.648 5.5296 37.888 15.7696c20.8896 20.8896 20.8896 54.8864 0 75.5712l-70.2464 70.2464c-10.24 10.24-23.552 15.7696-37.888 15.7696z m70.2464-156.8768c-8.8064 0-17.2032 3.4816-23.3472 9.6256L721.7152 440.32c-12.9024 12.9024-12.9024 33.792 0 46.6944 6.144 6.144 14.5408 9.6256 23.3472 9.6256s17.2032-3.4816 23.3472-9.6256l70.2464-70.2464c12.9024-12.9024 12.9024-33.792 0-46.6944-6.144-6.3488-14.5408-9.8304-23.3472-9.8304z" fill="#1C1D21" p-id="10028"></path><path d="M744.6528 516.7104c-13.1072 0-26.0096-4.7104-36.0448-13.9264-10.6496-10.0352-16.7936-23.552-16.9984-38.2976-0.2048-14.5408 5.3248-28.4672 15.5648-38.7072l35.0208-35.0208c1.8432-1.8432 4.5056-3.072 7.3728-3.072s5.3248 1.024 7.3728 3.072l61.0304 61.0304 0.2048 0.2048c3.8912 4.096 3.6864 10.4448-0.2048 14.5408l-34.2016 34.2016c-10.6496 10.6496-24.9856 15.9744-39.1168 15.9744zM721.7152 440.32c-6.3488 6.3488-9.8304 14.9504-9.6256 23.9616 0.2048 9.0112 3.8912 17.408 10.4448 23.552 12.9024 12.0832 33.792 11.264 46.6944-1.6384l27.0336-27.0336-46.6944-46.8992-27.8528 28.0576zM239.2064 614.8096c-21.0944 0-40.96-8.192-55.9104-23.1424-14.9504-14.9504-23.1424-34.816-23.1424-55.9104s8.192-40.96 23.1424-55.9104c14.9504-14.9504 34.816-23.1424 55.9104-23.1424s40.96 8.192 55.9104 23.1424c14.9504 14.9504 23.1424 34.816 23.1424 55.9104s-8.192 40.96-23.1424 55.9104c-14.9504 14.9504-34.816 23.1424-55.9104 23.1424z m0-137.4208c-15.5648 0-30.3104 6.144-41.3696 17.2032-11.0592 11.0592-17.2032 25.8048-17.2032 41.3696s6.144 30.3104 17.2032 41.3696c11.0592 11.0592 25.8048 17.2032 41.3696 17.2032s30.3104-6.144 41.3696-17.2032c11.0592-11.0592 17.2032-25.8048 17.2032-41.3696s-6.144-30.3104-17.2032-41.3696c-11.0592-11.264-25.6-17.2032-41.3696-17.2032z" fill="#1C1D21" p-id="10029"></path><path d="M190.6688 594.5344c-2.6624 0-5.3248-1.024-7.168-3.072-4.096-4.096-4.096-10.4448 0-14.5408l44.6464-44.6464c4.096-4.096 10.4448-4.096 14.5408 0s4.096 10.4448 0 14.5408l-44.6464 44.6464c-2.048 2.2528-4.7104 3.072-7.3728 3.072zM260.5056 524.9024c-2.6624 0-5.3248-1.024-7.168-3.072-4.096-4.096-4.096-10.4448 0-14.5408l3.6864-3.6864c4.096-4.096 10.4448-4.096 14.5408 0s4.096 10.4448 0 14.5408l-3.6864 3.6864c-2.2528 2.048-4.9152 3.072-7.3728 3.072z" fill="#1C1D21" p-id="10030"></path><path d="M512 1024c-136.8064 0-265.4208-53.248-362.0864-149.9136C53.248 777.4208 0 648.8064 0 512S53.248 246.5792 149.9136 149.9136C246.5792 53.248 375.1936 0 512 0s265.4208 53.248 362.0864 149.9136C970.752 246.5792 1024 375.1936 1024 512s-53.248 265.4208-149.9136 362.0864C777.4208 970.752 648.8064 1024 512 1024z m0-1003.52C241.0496 20.48 20.48 241.0496 20.48 512s220.5696 491.52 491.52 491.52 491.52-220.5696 491.52-491.52S782.9504 20.48 512 20.48z" fill="#1C1D21" p-id="10031"></path><path d="M888.4224 180.4288C796.4672 75.9808 661.9136 10.24 512 10.24 234.9056 10.24 10.24 234.9056 10.24 512s224.6656 501.76 501.76 501.76 501.76-224.6656 501.76-501.76c0-127.1808-47.3088-243.3024-125.3376-331.5712zM512 70.4512c110.592 0 211.5584 40.5504 288.9728 107.7248L178.176 800.9728C111.0016 723.5584 70.4512 622.592 70.4512 512c0-243.9168 197.632-441.5488 441.5488-441.5488z m0 883.0976c-110.592 0-211.5584-40.5504-288.9728-107.7248L845.824 223.0272c67.1744 77.4144 107.7248 178.3808 107.7248 288.9728 0 243.9168-197.632 441.5488-441.5488 441.5488z" fill="#FF3E63" p-id="10032"></path><path d="M608.6656 656.5888c-2.6624 0-5.3248-1.024-7.168-3.072l-93.184-93.184c-4.096-4.096-4.096-10.4448 0-14.5408s10.4448-4.096 14.5408 0l93.184 93.184c4.096 4.096 4.096 10.4448 0 14.5408-2.048 2.048-4.7104 3.072-7.3728 3.072z" fill="#FFAEC3" p-id="10033"></path><path d="M512 1024c-136.8064 0-265.4208-53.248-362.0864-149.9136S0 648.8064 0 512 53.248 246.5792 149.9136 149.9136 375.1936 0 512 0c146.8416 0 286.9248 63.2832 384.2048 173.4656C978.5344 267.0592 1024 387.2768 1024 512c0 136.8064-53.248 265.4208-149.9136 362.0864S648.8064 1024 512 1024z m0-1003.52C241.0496 20.48 20.48 241.0496 20.48 512s220.5696 491.52 491.52 491.52 491.52-220.5696 491.52-491.52c0-119.6032-43.6224-235.1104-122.6752-324.8128C787.456 81.3056 653.1072 20.48 512 20.48z m0 943.3088c-108.7488 0-213.6064-39.1168-295.7312-110.1824-2.048-1.8432-3.4816-4.5056-3.4816-7.3728s1.024-5.5296 3.072-7.5776l622.7968-622.7968c2.048-2.048 4.7104-3.072 7.5776-3.072 2.8672 0 5.5296 1.4336 7.3728 3.4816 71.0656 81.92 110.1824 186.9824 110.1824 295.7312 0 120.6272-46.8992 234.0864-132.3008 319.488-85.4016 85.1968-198.8608 132.3008-319.488 132.3008z m-273.8176-118.5792c77.0048 63.2832 173.8752 98.0992 273.8176 98.0992 237.7728 0 431.3088-193.536 431.3088-431.3088 0-100.1472-34.816-196.8128-98.0992-273.8176L238.1824 845.2096zM178.176 811.2128h-0.4096c-2.8672 0-5.5296-1.4336-7.3728-3.4816-71.0656-81.92-110.1824-186.9824-110.1824-295.7312 0-120.6272 46.8992-234.0864 132.3008-319.488 85.4016-85.4016 198.8608-132.3008 319.488-132.3008 108.7488 0 213.6064 39.1168 295.7312 110.1824 2.048 1.8432 3.4816 4.5056 3.4816 7.3728s-1.024 5.5296-3.072 7.5776L185.344 808.1408c-1.8432 2.048-4.5056 3.072-7.168 3.072zM512 80.6912C274.2272 80.6912 80.6912 274.2272 80.6912 512c0 99.9424 34.816 196.8128 98.0992 273.8176L785.8176 178.7904C708.8128 115.5072 611.9424 80.6912 512 80.6912z" fill="#1C1D21" p-id="10034"></path><path d="M516.9152 622.592c-2.6624 0-5.3248-1.024-7.168-3.072-4.096-4.096-4.096-10.4448 0-14.5408l16.7936-16.7936c4.096-4.096 10.4448-4.096 14.5408 0s4.096 10.4448 0 14.5408l-16.7936 16.7936c-2.2528 2.048-4.9152 3.072-7.3728 3.072zM550.2976 656.1792c-2.6624 0-5.3248-1.024-7.168-3.072-4.096-4.096-4.096-10.4448 0-14.5408l16.7936-16.7936c4.096-4.096 10.4448-4.096 14.5408 0s4.096 10.4448 0 14.5408l-16.7936 16.7936c-2.048 2.048-4.7104 3.072-7.3728 3.072z" fill="#1C1D21" p-id="10035"></path></svg>