<svg xmlns="http://www.w3.org/2000/svg" viewBox="0 0 1024 1024" version="1.1"><path d="M512 512m-501.76 0a501.76 501.76 0 1 0 1003.52 0 501.76 501.76 0 1 0-1003.52 0Z" fill="#8CEEF9" p-id="10998"></path><path d="M260.7104 492.1344c-24.576-24.576-24.576-64.3072 0-88.6784s64.3072-24.576 88.6784 0l-88.6784 88.6784zM763.2896 492.1344c24.576-24.576 24.576-64.3072 0-88.6784s-64.3072-24.576-88.6784 0l88.6784 88.6784z" fill="#AAADAD" p-id="10999"></path><path d="M512 179.6096c-65.3312 0-118.3744 53.0432-118.3744 118.3744v128.6144h236.544v-128.6144c0.2048-65.536-52.8384-118.3744-118.1696-118.3744z" fill="#FF3E63" p-id="11000"></path><path d="M630.3744 436.6336H393.6256c-5.7344 0-10.24-4.5056-10.24-10.24v-128.6144c0-70.8608 57.7536-128.6144 128.6144-128.6144s128.6144 57.7536 128.6144 128.6144v128.6144c0 5.5296-4.7104 10.24-10.24 10.24z m-226.5088-20.48h216.064v-118.3744c0-59.5968-48.5376-108.1344-108.1344-108.1344s-108.1344 48.5376-108.1344 108.1344v118.3744z" fill="#1C1D21" p-id="11001"></path><path d="M434.5856 420.0448c-5.7344 0-10.24-4.5056-10.24-10.24v-112.0256c0-27.0336 12.288-52.224 33.5872-68.8128 4.5056-3.4816 10.8544-2.6624 14.336 1.6384 3.4816 4.5056 2.6624 10.8544-1.6384 14.336-16.384 12.9024-25.8048 32.1536-25.8048 52.8384v112.0256c0 5.5296-4.5056 10.24-10.24 10.24z" fill="#FFAEC3" p-id="11002"></path><path d="M490.9056 321.9456h42.3936v69.0176h-42.3936z" fill="#AAADAD" p-id="11003"></path><path d="M533.0944 400.9984h-42.3936c-5.7344 0-10.24-4.5056-10.24-10.24v-69.0176c0-5.7344 4.5056-10.24 10.24-10.24h42.3936c5.7344 0 10.24 4.5056 10.24 10.24v69.0176c0 5.7344-4.5056 10.24-10.24 10.24z m-31.9488-20.48h21.9136v-48.5376h-21.9136v48.5376z" fill="#1C1D21" p-id="11004"></path><path d="M505.4464 231.0144c-5.3248 0-9.8304-4.096-10.24-9.4208-0.4096-5.7344 3.6864-10.6496 9.4208-11.0592 2.4576-0.2048 4.9152-0.4096 7.5776-0.4096 5.7344 0 10.24 4.5056 10.24 10.24s-4.5056 10.24-10.24 10.24c-1.8432 0-3.8912 0-5.7344 0.2048-0.6144 0.2048-0.8192 0.2048-1.024 0.2048z" fill="#FFAEC3" p-id="11005"></path><path d="M377.856 756.5312l-67.1744 67.1744c-11.264 11.264-11.264 29.2864 0 40.5504s29.2864 11.264 40.5504 0l67.1744-67.1744-40.5504-40.5504zM646.144 756.5312l67.1744 67.1744c11.264 11.264 11.264 29.2864 0 40.5504s-29.2864 11.264-40.5504 0l-67.1744-67.1744 40.5504-40.5504z" fill="#AAADAD" p-id="11006"></path><path d="M330.9568 882.688c-10.0352 0-19.8656-3.6864-27.4432-11.264-15.1552-15.1552-15.1552-39.7312 0-54.8864l67.1744-67.1744c1.8432-1.8432 4.5056-3.072 7.168-3.072s5.3248 1.024 7.168 3.072l40.5504 40.5504c4.096 4.096 4.096 10.4448 0 14.5408L358.4 871.2192c-7.5776 7.5776-17.6128 11.4688-27.4432 11.4688z m46.8992-111.8208l-60.0064 60.0064c-7.168 7.168-7.168 18.8416 0 26.0096s18.8416 7.168 26.0096 0l60.0064-60.0064-26.0096-26.0096zM693.0432 882.688c-10.0352 0-19.8656-3.6864-27.4432-11.264l-67.1744-67.1744c-4.096-4.096-4.096-10.4448 0-14.5408l40.5504-40.5504c1.8432-1.8432 4.5056-3.072 7.168-3.072s5.3248 1.024 7.168 3.072l67.1744 67.1744c15.1552 15.1552 15.1552 39.7312 0 54.8864-7.5776 7.5776-17.408 11.4688-27.4432 11.4688z m-72.9088-85.8112l60.0064 60.0064c7.168 7.168 18.8416 7.168 26.0096 0s7.168-18.8416 0-26.0096l-60.0064-60.0064-26.0096 26.0096z" fill="#1C1D21" p-id="11007"></path><path d="M512 1024c-136.8064 0-265.4208-53.248-362.0864-149.9136S0 648.8064 0 512 53.248 246.5792 149.9136 149.9136 375.1936 0 512 0s265.4208 53.248 362.0864 149.9136S1024 375.1936 1024 512s-53.248 265.4208-149.9136 362.0864S648.8064 1024 512 1024z m0-1003.52C241.0496 20.48 20.48 241.0496 20.48 512s220.5696 491.52 491.52 491.52 491.52-220.5696 491.52-491.52S782.9504 20.48 512 20.48z" fill="#1C1D21" p-id="11008"></path><path d="M304.3328 771.8912c-3.072 0-6.144-1.4336-8.192-4.096-28.0576-37.888-45.6704-82.7392-50.7904-129.6384-0.6144-5.5296 3.4816-10.6496 9.0112-11.264 5.7344-0.6144 10.6496 3.4816 11.264 9.0112 4.7104 43.2128 21.0944 84.5824 46.8992 119.6032 3.2768 4.5056 2.4576 11.0592-2.048 14.336-1.8432 1.4336-3.8912 2.048-6.144 2.048zM256.6144 582.4512c-0.4096 0-1.024 0-1.4336-0.2048-5.5296-0.8192-9.4208-5.9392-8.6016-11.6736 1.4336-10.0352 3.4816-20.2752 6.144-30.1056 1.4336-5.5296 6.9632-8.8064 12.4928-7.3728 5.5296 1.4336 8.8064 6.9632 7.3728 12.4928-2.4576 9.0112-4.3008 18.432-5.5296 27.648-1.2288 5.5296-5.5296 9.216-10.4448 9.216z" fill="#1C1D21" p-id="11009"></path><path d="M512 608.6656m-217.088 0a217.088 217.088 0 1 0 434.176 0 217.088 217.088 0 1 0-434.176 0Z" fill="#FFECE9" p-id="11010"></path><path d="M299.2128 575.8976c-0.6144 0-1.4336 0-2.048-0.2048-5.5296-1.024-9.216-6.5536-7.9872-12.0832 1.024-4.7104 2.048-9.4208 3.2768-14.1312 1.4336-5.5296 7.168-8.6016 12.4928-7.168 5.5296 1.4336 8.8064 7.168 7.168 12.4928-1.2288 4.3008-2.048 8.6016-3.072 12.9024-0.8192 4.9152-5.12 8.192-9.8304 8.192z" fill="#1C1D21" p-id="11011"></path><path d="M512 835.9936c-57.1392 0-111.8208-21.2992-153.8048-60.0064-41.7792-38.2976-67.584-90.5216-72.704-146.8416-0.4096-5.7344 3.6864-10.6496 9.216-11.0592 5.7344-0.4096 10.6496 3.6864 11.0592 9.216 9.6256 107.3152 98.0992 188.0064 206.0288 188.0064 114.0736 0 206.848-92.7744 206.848-206.848s-92.7744-206.848-206.848-206.848c-79.0528 0-150.1184 44.032-185.344 114.8928-2.4576 5.12-8.6016 7.168-13.7216 4.5056-5.12-2.4576-7.168-8.6016-4.5056-13.7216 38.7072-77.824 116.736-126.1568 203.5712-126.1568 125.3376 0 227.328 101.9904 227.328 227.328S637.3376 835.9936 512 835.9936zM719.4624 771.8912c-2.048 0-4.3008-0.6144-6.144-2.048-4.5056-3.2768-5.5296-9.8304-2.048-14.336 26.0096-35.0208 42.1888-76.3904 46.8992-119.6032 0.6144-5.5296 5.7344-9.6256 11.264-9.0112 5.5296 0.6144 9.6256 5.7344 9.0112 11.264-5.12 46.6944-22.7328 91.5456-50.7904 129.6384-1.8432 2.6624-4.9152 4.096-8.192 4.096zM767.3856 582.4512c-5.12 0-9.4208-3.6864-10.0352-8.8064-1.2288-9.216-3.2768-18.6368-5.5296-27.648-1.4336-5.5296 1.8432-11.0592 7.3728-12.4928 5.5296-1.4336 11.0592 1.8432 12.4928 7.3728 2.6624 9.8304 4.7104 19.8656 6.144 30.1056 0.8192 5.5296-3.072 10.8544-8.6016 11.6736-0.8192-0.2048-1.2288-0.2048-1.8432-0.2048z" fill="#1C1D21" p-id="11012"></path><path d="M446.2592 455.4752c-4.096 0-7.9872-2.4576-9.4208-6.3488-2.048-5.3248 0.4096-11.264 5.7344-13.312 3.072-1.2288 5.9392-2.2528 9.0112-3.2768 5.3248-1.8432 11.264 1.024 13.1072 6.3488 1.8432 5.3248-1.024 11.264-6.3488 13.1072-2.6624 1.024-5.3248 1.8432-7.9872 3.072-1.6384 0.2048-2.8672 0.4096-4.096 0.4096zM423.936 771.2768c-1.8432 0-3.4816-0.4096-5.12-1.4336-57.5488-33.3824-93.184-95.232-93.184-161.3824 0-61.0304 30.1056-118.3744 80.4864-153.3952 4.7104-3.2768 11.0592-2.048 14.336 2.6624 3.2768 4.7104 2.048 11.0592-2.6624 14.336-44.8512 31.1296-71.68 82.1248-71.68 136.6016 0 58.9824 31.744 113.8688 82.944 143.5648 4.9152 2.8672 6.5536 9.0112 3.6864 13.9264-1.8432 3.2768-5.3248 5.12-8.8064 5.12z" fill="#FFFFFF" p-id="11013"></path><path d="M512 608.6656m-28.672 0a28.672 28.672 0 1 0 57.344 0 28.672 28.672 0 1 0-57.344 0Z" fill="#AAADAD" p-id="11014"></path><path d="M512 647.5776c-21.504 0-38.912-17.408-38.912-38.912s17.408-38.912 38.912-38.912 38.912 17.408 38.912 38.912-17.408 38.912-38.912 38.912z m0-57.344c-10.24 0-18.432 8.192-18.432 18.432s8.192 18.432 18.432 18.432 18.432-8.192 18.432-18.432-8.192-18.432-18.432-18.432z" fill="#1C1D21" p-id="11015"></path><path d="M163.0208 872.448c90.3168 87.4496 213.4016 141.312 348.9792 141.312s258.6624-53.8624 348.9792-141.312H163.0208z" fill="#0ABFB2" p-id="11016"></path><path d="M512 1024c-133.7344 0-260.096-51.2-356.1472-144.1792-3.072-2.8672-3.8912-7.3728-2.4576-11.264 1.6384-3.8912 5.3248-6.3488 9.4208-6.3488h697.9584c4.096 0 7.9872 2.4576 9.4208 6.3488 1.6384 3.8912 0.6144 8.3968-2.4576 11.264C772.096 972.8 645.7344 1024 512 1024zM189.2352 882.688c89.4976 78.0288 203.1616 120.832 322.7648 120.832s233.2672-42.8032 322.7648-120.832H189.2352zM512 452.1984c-5.7344 0-10.24-4.5056-10.24-10.24v-10.8544c0-5.7344 4.5056-10.24 10.24-10.24s10.24 4.5056 10.24 10.24v10.8544c0 5.7344-4.5056 10.24-10.24 10.24zM512 796.2624c-5.7344 0-10.24-4.5056-10.24-10.24v-10.8544c0-5.7344 4.5056-10.24 10.24-10.24s10.24 4.5056 10.24 10.24v10.8544c0 5.7344-4.5056 10.24-10.24 10.24zM629.76 501.1456c-2.6624 0-5.3248-1.024-7.168-3.072-4.096-4.096-4.096-10.4448 0-14.5408l7.7824-7.7824c4.096-4.096 10.4448-4.096 14.5408 0s4.096 10.4448 0 14.5408l-7.7824 7.7824c-2.048 2.048-4.7104 3.072-7.3728 3.072zM386.4576 744.2432c-2.6624 0-5.3248-1.024-7.168-3.072-4.096-4.096-4.096-10.4448 0-14.5408l7.7824-7.7824c4.096-4.096 10.4448-4.096 14.5408 0s4.096 10.4448 0 14.5408l-7.7824 7.7824c-2.048 2.2528-4.7104 3.072-7.3728 3.072zM689.5616 618.9056h-10.8544c-5.7344 0-10.24-4.5056-10.24-10.24s4.5056-10.24 10.24-10.24h10.8544c5.7344 0 10.24 4.5056 10.24 10.24s-4.7104 10.24-10.24 10.24zM345.4976 618.9056h-10.8544c-5.7344 0-10.24-4.5056-10.24-10.24s4.5056-10.24 10.24-10.24h10.8544c5.7344 0 10.24 4.5056 10.24 10.24s-4.7104 10.24-10.24 10.24zM637.5424 744.2432c-2.6624 0-5.3248-1.024-7.168-3.072l-7.7824-7.7824c-4.096-4.096-4.096-10.4448 0-14.5408s10.4448-4.096 14.5408 0l7.7824 7.7824c4.096 4.096 4.096 10.4448 0 14.5408-2.2528 2.2528-4.7104 3.072-7.3728 3.072zM394.24 501.1456c-2.6624 0-5.3248-1.024-7.168-3.072l-7.7824-7.7824c-4.096-4.096-4.096-10.4448 0-14.5408s10.4448-4.096 14.5408 0l7.7824 7.7824c4.096 4.096 4.096 10.4448 0 14.5408-2.2528 2.048-4.7104 3.072-7.3728 3.072zM483.328 618.9056h-59.392c-5.7344 0-10.24-4.5056-10.24-10.24s4.5056-10.24 10.24-10.24h59.392c5.7344 0 10.24 4.5056 10.24 10.24s-4.5056 10.24-10.24 10.24zM512 590.2336c-5.7344 0-10.24-4.5056-10.24-10.24v-89.088c0-5.7344 4.5056-10.24 10.24-10.24s10.24 4.5056 10.24 10.24v89.088c0 5.5296-4.5056 10.24-10.24 10.24z" fill="#1C1D21" p-id="11017"></path><path d="M512 303.9232m-36.2496 0a36.2496 36.2496 0 1 0 72.4992 0 36.2496 36.2496 0 1 0-72.4992 0Z" fill="#FFAEC3" p-id="11018"></path><path d="M512 350.6176c-25.6 0-46.4896-20.8896-46.4896-46.4896s20.8896-46.4896 46.4896-46.4896 46.4896 20.8896 46.4896 46.4896c0 25.3952-20.8896 46.4896-46.4896 46.4896z m0-72.704c-14.336 0-26.0096 11.6736-26.0096 26.0096s11.6736 26.0096 26.0096 26.0096 26.0096-11.6736 26.0096-26.0096-11.6736-26.0096-26.0096-26.0096zM260.7104 502.3744c-2.6624 0-5.3248-1.024-7.168-3.072-28.4672-28.4672-28.4672-74.752 0-103.2192s74.752-28.4672 103.2192 0c1.8432 1.8432 3.072 4.5056 3.072 7.168s-1.024 5.3248-3.072 7.168l-88.6784 88.6784c-2.2528 2.2528-4.9152 3.2768-7.3728 3.2768z m44.2368-107.1104c-13.5168 0-26.8288 5.12-37.0688 15.36-18.0224 18.0224-20.2752 45.8752-6.5536 66.3552l72.9088-72.9088c-8.8064-5.7344-19.0464-8.8064-29.2864-8.8064z" fill="#1C1D21" p-id="11019"></path><path d="M336.6912 489.6768c-2.6624 0-5.3248-1.024-7.168-3.072l-31.744-31.744c-4.096-4.096-4.096-10.4448 0-14.5408s10.4448-4.096 14.5408 0l31.744 31.744c4.096 4.096 4.096 10.4448 0 14.5408-2.048 2.2528-4.7104 3.072-7.3728 3.072zM822.0672 446.8736c-5.12 0-9.6256-3.8912-10.24-9.216-2.2528-21.504-11.4688-40.7552-26.8288-56.1152-6.9632-6.9632-15.1552-12.9024-23.9616-17.408-5.12-2.4576-6.9632-8.8064-4.5056-13.7216 2.4576-5.12 8.8064-6.9632 13.7216-4.5056 10.6496 5.5296 20.48 12.4928 29.0816 21.0944 18.2272 18.2272 29.9008 42.5984 32.768 68.4032 0.6144 5.5296-3.4816 10.6496-9.0112 11.264-0.2048 0.2048-0.6144 0.2048-1.024 0.2048zM728.2688 354.7136h-0.8192c-2.6624-0.2048-5.5296-0.4096-8.192-0.4096-5.7344 0-10.24-4.5056-10.24-10.24s4.5056-10.24 10.24-10.24c3.2768 0 6.7584 0.2048 10.0352 0.4096 5.7344 0.4096 9.8304 5.5296 9.216 11.0592-0.6144 5.3248-5.12 9.4208-10.24 9.4208zM763.2896 502.3744c-2.6624 0-5.3248-1.024-7.168-3.072l-88.6784-88.6784c-1.8432-1.8432-3.072-4.5056-3.072-7.168s1.024-5.3248 3.072-7.168c28.4672-28.4672 74.752-28.4672 103.2192 0s28.4672 74.752 0 103.2192c-2.048 1.8432-4.7104 2.8672-7.3728 2.8672z m-73.5232-98.304l72.9088 72.9088c13.7216-20.48 11.4688-48.3328-6.5536-66.3552-18.0224-18.0224-45.8752-20.0704-66.3552-6.5536zM201.9328 446.8736h-1.024c-5.5296-0.6144-9.6256-5.7344-9.0112-11.264 2.8672-25.8048 14.336-49.9712 32.768-68.4032 8.6016-8.6016 18.432-15.7696 29.0816-21.0944 5.12-2.6624 11.264-0.6144 13.7216 4.5056 2.4576 5.12 0.6144 11.264-4.5056 13.7216-8.8064 4.5056-16.7936 10.24-23.9616 17.408-15.1552 15.1552-24.576 34.6112-26.8288 56.1152-0.6144 5.12-5.12 9.0112-10.24 9.0112zM295.7312 354.7136c-5.3248 0-9.6256-4.096-10.24-9.4208-0.4096-5.7344 3.6864-10.6496 9.216-11.0592 3.2768-0.2048 6.7584-0.4096 10.0352-0.4096 5.7344 0 10.24 4.5056 10.24 10.24s-4.5056 10.24-10.24 10.24c-2.8672 0-5.5296 0.2048-8.192 0.4096h-0.8192z" fill="#1C1D21" p-id="11020"></path><path d="M687.3088 489.6768c-2.6624 0-5.3248-1.024-7.168-3.072-4.096-4.096-4.096-10.4448 0-14.5408l31.744-31.744c4.096-4.096 10.4448-4.096 14.5408 0s4.096 10.4448 0 14.5408l-31.744 31.744c-2.2528 2.2528-4.7104 3.072-7.3728 3.072zM350.0032 296.96h-21.0944c-5.7344 0-10.24-4.5056-10.24-10.24s4.5056-10.24 10.24-10.24h21.0944c5.7344 0 10.24 4.5056 10.24 10.24s-4.5056 10.24-10.24 10.24zM695.0912 296.96h-21.0944c-5.7344 0-10.24-4.5056-10.24-10.24s4.5056-10.24 10.24-10.24h21.0944c5.7344 0 10.24 4.5056 10.24 10.24s-4.5056 10.24-10.24 10.24zM626.4832 182.4768c-2.6624 0-5.3248-1.024-7.168-3.072-4.096-4.096-4.096-10.4448 0-14.5408l14.9504-14.9504c4.096-4.096 10.4448-4.096 14.5408 0s4.096 10.4448 0 14.5408l-14.9504 14.9504c-2.048 2.048-4.7104 3.072-7.3728 3.072zM512 134.9632c-5.7344 0-10.24-4.5056-10.24-10.24V103.6288c0-5.7344 4.5056-10.24 10.24-10.24s10.24 4.5056 10.24 10.24v21.0944c0 5.7344-4.5056 10.24-10.24 10.24zM397.5168 182.4768c-2.6624 0-5.3248-1.024-7.168-3.072l-14.9504-14.9504c-4.096-4.096-4.096-10.4448 0-14.5408s10.4448-4.096 14.5408 0l14.9504 14.9504c4.096 4.096 4.096 10.4448 0 14.5408-2.2528 2.048-4.7104 3.072-7.3728 3.072z" fill="#1C1D21" p-id="11021"></path></svg>