<svg xmlns="http://www.w3.org/2000/svg" viewBox="0 0 1024 1024" version="1.1"><path d="M512 512m-501.76 0a501.76 501.76 0 1 0 1003.52 0 501.76 501.76 0 1 0-1003.52 0Z" fill="#8CEEF9" p-id="7657"></path><path d="M656.5888 198.656h-84.3776v35.2256l30.3104 36.864-41.984 53.8624v-52.6336L530.432 250.2656V198.656h-65.9456c-16.9984 0-30.72 13.7216-30.72 30.72v473.7024h253.5424V229.376c0-16.7936-13.7216-30.72-30.72-30.72z" fill="#FFC5B3" p-id="7658"></path><path d="M474.7264 323.3792c-5.7344 0-10.24-4.5056-10.24-10.24v-39.3216c0-5.7344 4.5056-10.24 10.24-10.24s10.24 4.5056 10.24 10.24v39.3216c0 5.5296-4.7104 10.24-10.24 10.24z m0-71.0656c-5.7344 0-10.24-4.5056-10.24-10.24V239.616c0-5.7344 4.5056-10.24 10.24-10.24s10.24 4.5056 10.24 10.24v2.4576c0 5.7344-4.7104 10.24-10.24 10.24z" fill="#FFECE9" p-id="7659"></path><path d="M683.6224 227.5328v475.5456h64.512V227.5328c0-15.9744-12.9024-28.8768-28.8768-28.8768h-64.512c15.9744 0 28.8768 13.1072 28.8768 28.8768z" fill="#C67552" p-id="7660"></path><path d="M748.1344 713.3184h-64.512c-5.7344 0-10.24-4.5056-10.24-10.24V227.5328c0-10.24-8.3968-18.6368-18.6368-18.6368-5.7344 0-10.24-4.5056-10.24-10.24s4.5056-10.24 10.24-10.24h64.512c21.504 0 39.1168 17.6128 39.1168 39.1168v475.5456c0 5.7344-4.5056 10.24-10.24 10.24z m-54.272-20.48h44.032V227.5328c0-10.24-8.3968-18.6368-18.6368-18.6368h-30.3104c3.072 5.5296 4.7104 11.8784 4.7104 18.6368v465.3056z" fill="#1C1D21" p-id="7661"></path><path d="M491.3152 359.2192h138.24v71.0656h-138.24z" fill="#8CEEF9" p-id="7662"></path><path d="M629.5552 359.2192h-138.24v71.0656z" fill="#FFECE9" p-id="7663"></path><path d="M629.5552 440.5248h-138.24c-5.7344 0-10.24-4.5056-10.24-10.24v-71.0656c0-5.7344 4.5056-10.24 10.24-10.24h138.24c5.7344 0 10.24 4.5056 10.24 10.24v71.0656c0 5.7344-4.5056 10.24-10.24 10.24z m-128-20.48h117.76v-50.5856h-117.76v50.5856z" fill="#1C1D21" p-id="7664"></path><path d="M560.5376 440.5248c-5.7344 0-10.24-4.5056-10.24-10.24v-71.0656c0-5.7344 4.5056-10.24 10.24-10.24s10.24 4.5056 10.24 10.24v71.0656c0 5.7344-4.7104 10.24-10.24 10.24z" fill="#1C1D21" p-id="7665"></path><path d="M491.3152 462.2336h138.24v71.0656h-138.24z" fill="#8CEEF9" p-id="7666"></path><path d="M629.5552 462.2336h-138.24v71.2704z" fill="#FFECE9" p-id="7667"></path><path d="M629.5552 543.744h-138.24c-5.7344 0-10.24-4.5056-10.24-10.24v-71.0656c0-5.7344 4.5056-10.24 10.24-10.24h138.24c5.7344 0 10.24 4.5056 10.24 10.24v71.0656c0 5.5296-4.5056 10.24-10.24 10.24z m-128-20.48h117.76v-50.5856h-117.76v50.5856z" fill="#1C1D21" p-id="7668"></path><path d="M560.5376 543.744c-5.7344 0-10.24-4.5056-10.24-10.24v-71.0656c0-5.7344 4.5056-10.24 10.24-10.24s10.24 4.5056 10.24 10.24v71.0656c0 5.5296-4.7104 10.24-10.24 10.24z" fill="#1C1D21" p-id="7669"></path><path d="M205.4144 379.0848c-32.9728 19.0464-55.296 54.6816-55.296 95.6416 0 40.96 22.1184 76.5952 55.296 95.6416 32.9728-19.0464 55.296-54.6816 55.296-95.6416 0-40.7552-22.3232-76.3904-55.296-95.6416z" fill="#0ABFB2" p-id="7670"></path><path d="M205.4144 580.608c-1.8432 0-3.4816-0.4096-5.12-1.4336-37.2736-21.504-60.416-61.6448-60.416-104.448s23.1424-82.944 60.416-104.448c3.2768-1.8432 7.168-1.8432 10.24 0 37.2736 21.504 60.416 61.6448 60.416 104.448s-23.1424 82.944-60.416 104.448c-1.4336 1.024-3.2768 1.4336-5.12 1.4336z m0-189.44c-27.8528 18.432-45.056 49.9712-45.056 83.5584s16.9984 65.1264 45.056 83.5584c27.8528-18.432 45.056-49.9712 45.056-83.5584s-16.9984-65.1264-45.056-83.5584z" fill="#1C1D21" p-id="7671"></path><path d="M205.4144 713.3184c-5.7344 0-10.24-4.5056-10.24-10.24V379.0848c0-5.7344 4.5056-10.24 10.24-10.24s10.24 4.5056 10.24 10.24v323.9936c0 5.7344-4.5056 10.24-10.24 10.24z" fill="#1C1D21" p-id="7672"></path><path d="M328.0896 499.712c-24.1664-6.5536-51.2-0.2048-70.2464 18.8416-19.0464 19.0464-25.1904 45.8752-18.8416 70.2464 24.1664 6.5536 51.2 0.2048 70.2464-18.8416 19.0464-19.0464 25.1904-46.08 18.8416-70.2464z" fill="#0ABFB2" p-id="7673"></path><path d="M257.6384 601.2928c-7.168 0-14.336-0.8192-21.2992-2.8672-3.4816-1.024-6.3488-3.6864-7.168-7.168-7.5776-28.4672 0.6144-59.1872 21.504-80.0768 20.8896-20.8896 51.6096-29.0816 80.0768-21.504 3.4816 1.024 6.3488 3.6864 7.168 7.168 7.5776 28.4672-0.6144 59.1872-21.504 80.0768-15.5648 15.9744-36.864 24.3712-58.7776 24.3712z m-10.0352-21.2992c19.6608 3.2768 40.1408-3.2768 54.4768-17.408 14.336-14.336 20.6848-34.6112 17.408-54.4768-19.6608-3.2768-40.1408 3.2768-54.4768 17.408-14.1312 14.5408-20.6848 34.816-17.408 54.4768z" fill="#1C1D21" p-id="7674"></path><path d="M205.4144 632.4224c-2.6624 0-5.3248-1.024-7.168-3.072-4.096-4.096-4.096-10.4448 0-14.5408l122.6752-122.6752c4.096-4.096 10.4448-4.096 14.5408 0s4.096 10.4448 0 14.5408l-122.6752 122.6752c-2.048 2.048-4.7104 3.072-7.3728 3.072z" fill="#1C1D21" p-id="7675"></path><path d="M82.944 499.712c24.1664-6.5536 51.2-0.2048 70.2464 18.8416 19.0464 19.0464 25.1904 45.8752 18.8416 70.2464-24.1664 6.5536-51.2 0.2048-70.2464-18.8416-19.0464-19.0464-25.3952-46.08-18.8416-70.2464z" fill="#0ABFB2" p-id="7676"></path><path d="M153.1904 601.2928c-21.7088 0-43.008-8.6016-58.7776-24.1664-20.8896-20.8896-29.0816-51.6096-21.504-80.0768 1.024-3.4816 3.6864-6.3488 7.168-7.168 28.4672-7.5776 59.1872 0.6144 80.0768 21.504s29.0816 51.6096 21.504 80.0768c-1.024 3.4816-3.6864 6.3488-7.168 7.168-6.9632 1.8432-14.1312 2.6624-21.2992 2.6624z m-61.6448-92.9792c-3.2768 19.6608 3.2768 40.1408 17.408 54.4768 14.336 14.336 34.6112 20.6848 54.4768 17.408 3.2768-19.6608-3.2768-40.1408-17.408-54.4768-14.336-14.336-34.816-20.6848-54.4768-17.408z" fill="#1C1D21" p-id="7677"></path><path d="M205.4144 632.4224c-2.6624 0-5.3248-1.024-7.168-3.072l-122.6752-122.6752c-4.096-4.096-4.096-10.4448 0-14.5408s10.4448-4.096 14.5408 0l122.6752 122.6752c4.096 4.096 4.096 10.4448 0 14.5408-2.048 2.048-4.7104 3.072-7.3728 3.072z" fill="#1C1D21" p-id="7678"></path><path d="M848.896 379.0848c-32.9728 19.0464-55.296 54.6816-55.296 95.6416 0 40.96 22.1184 76.5952 55.296 95.6416 32.9728-19.0464 55.296-54.6816 55.296-95.6416 0-40.7552-22.3232-76.3904-55.296-95.6416z" fill="#0ABFB2" p-id="7679"></path><path d="M848.896 580.608c-1.8432 0-3.4816-0.4096-5.12-1.4336-37.2736-21.504-60.416-61.6448-60.416-104.448s23.1424-82.944 60.416-104.448c3.2768-1.8432 7.168-1.8432 10.24 0 37.2736 21.504 60.416 61.6448 60.416 104.448s-23.1424 82.944-60.416 104.448c-1.4336 1.024-3.2768 1.4336-5.12 1.4336z m0-189.44c-27.8528 18.432-45.056 49.9712-45.056 83.5584s16.9984 65.1264 45.056 83.5584c27.8528-18.432 45.056-49.9712 45.056-83.5584s-16.9984-65.1264-45.056-83.5584z" fill="#1C1D21" p-id="7680"></path><path d="M848.896 713.3184c-5.7344 0-10.24-4.5056-10.24-10.24V379.0848c0-5.7344 4.5056-10.24 10.24-10.24s10.24 4.5056 10.24 10.24v323.9936c0 5.7344-4.5056 10.24-10.24 10.24z" fill="#1C1D21" p-id="7681"></path><path d="M971.5712 499.712c-24.1664-6.5536-51.2-0.2048-70.2464 18.8416-19.0464 19.0464-25.1904 45.8752-18.8416 70.2464 24.1664 6.5536 51.2 0.2048 70.2464-18.8416s25.1904-46.08 18.8416-70.2464z" fill="#0ABFB2" p-id="7682"></path><path d="M901.12 601.2928c-7.168 0-14.336-0.8192-21.2992-2.8672-3.4816-1.024-6.3488-3.6864-7.168-7.168-7.5776-28.4672 0.6144-59.1872 21.504-80.0768 20.8896-20.8896 51.6096-29.0816 80.0768-21.504 3.4816 1.024 6.3488 3.6864 7.168 7.168 7.5776 28.4672-0.6144 59.1872-21.504 80.0768-15.5648 15.9744-36.864 24.3712-58.7776 24.3712z m-10.0352-21.2992c19.6608 3.2768 40.1408-3.2768 54.4768-17.408 14.336-14.336 20.6848-34.6112 17.408-54.4768-19.6608-3.2768-40.1408 3.2768-54.4768 17.408-14.1312 14.5408-20.6848 34.816-17.408 54.4768z" fill="#1C1D21" p-id="7683"></path><path d="M848.896 632.4224c-2.6624 0-5.3248-1.024-7.168-3.072-4.096-4.096-4.096-10.4448 0-14.5408l122.6752-122.6752c4.096-4.096 10.4448-4.096 14.5408 0s4.096 10.4448 0 14.5408l-122.6752 122.6752c-2.048 2.048-4.7104 3.072-7.3728 3.072z" fill="#1C1D21" p-id="7684"></path><path d="M726.4256 499.712c24.1664-6.5536 51.2-0.2048 70.2464 18.8416 19.0464 19.0464 25.1904 45.8752 18.8416 70.2464-24.1664 6.5536-51.2 0.2048-70.2464-18.8416-19.0464-19.0464-25.3952-46.08-18.8416-70.2464z" fill="#0ABFB2" p-id="7685"></path><path d="M796.672 601.2928c-21.7088 0-43.008-8.6016-58.7776-24.1664-20.8896-20.8896-29.0816-51.6096-21.504-80.0768 1.024-3.4816 3.6864-6.3488 7.168-7.168 28.4672-7.5776 59.1872 0.6144 80.0768 21.504s29.0816 51.6096 21.504 80.0768c-1.024 3.4816-3.6864 6.3488-7.168 7.168-6.9632 1.8432-14.1312 2.6624-21.2992 2.6624z m-61.6448-92.9792c-3.2768 19.6608 3.2768 40.1408 17.408 54.4768 14.336 14.336 34.6112 20.6848 54.4768 17.408 3.2768-19.6608-3.2768-40.1408-17.408-54.4768-14.336-14.336-34.816-20.6848-54.4768-17.408z" fill="#1C1D21" p-id="7686"></path><path d="M848.896 632.4224c-2.6624 0-5.3248-1.024-7.168-3.072l-122.6752-122.6752c-4.096-4.096-4.096-10.4448 0-14.5408s10.4448-4.096 14.5408 0l122.6752 122.6752c4.096 4.096 4.096 10.4448 0 14.5408-2.048 2.048-4.7104 3.072-7.3728 3.072z" fill="#1C1D21" p-id="7687"></path><path d="M512 1024c-136.8064 0-265.4208-53.248-362.0864-149.9136C53.248 777.4208 0 648.8064 0 512S53.248 246.5792 149.9136 149.9136C246.5792 53.248 375.1936 0 512 0s265.4208 53.248 362.0864 149.9136C970.752 246.5792 1024 375.1936 1024 512s-53.248 265.4208-149.9136 362.0864C777.4208 970.752 648.8064 1024 512 1024z m0-1003.52C241.0496 20.48 20.48 241.0496 20.48 512s220.5696 491.52 491.52 491.52 491.52-220.5696 491.52-491.52S782.9504 20.48 512 20.48z" fill="#1C1D21" p-id="7688"></path><path d="M374.5792 703.0784v71.8848l33.9968 53.6576-53.8624 98.0992v-88.6784l-56.7296-43.008v-91.9552H47.9232C123.0848 885.3504 302.4896 1013.76 512 1013.76s388.9152-128.4096 464.0768-310.6816H374.5792z" fill="#AAADAD" p-id="7689"></path><path d="M512 1024c-103.424 0-203.1616-30.72-288.1536-88.6784-83.1488-56.7296-147.2512-135.7824-185.344-228.352-1.2288-3.072-1.024-6.7584 1.024-9.6256 1.8432-2.8672 5.12-4.5056 8.6016-4.5056h250.0608c5.7344 0 10.24 4.5056 10.24 10.24v86.8352l52.6336 39.936c2.4576 1.8432 4.096 4.9152 4.096 8.192v48.9472l31.744-57.7536-30.72-48.7424c-1.024-1.6384-1.6384-3.4816-1.6384-5.5296v-71.8848c0-5.7344 4.5056-10.24 10.24-10.24h601.4976c3.4816 0 6.5536 1.6384 8.6016 4.5056 1.8432 2.8672 2.2528 6.3488 1.024 9.6256-38.2976 92.5696-102.1952 171.6224-185.344 228.352C715.1616 993.28 615.424 1024 512 1024zM63.488 713.3184C142.7456 890.0608 317.2352 1003.52 512 1003.52s369.2544-113.4592 448.512-290.2016H384.8192V772.096l32.5632 51.2c2.048 3.072 2.048 7.168 0.4096 10.4448L363.7248 931.84c-2.2528 4.096-6.9632 6.144-11.4688 4.9152-4.5056-1.2288-7.7824-5.3248-7.7824-9.8304v-83.7632l-52.6336-39.936c-2.4576-1.8432-4.096-4.9152-4.096-8.192v-81.7152H63.488z" fill="#1C1D21" p-id="7690"></path><path d="M602.5216 703.0784h-83.968v-98.5088c0-5.7344 4.5056-10.24 10.24-10.24h63.488c5.7344 0 10.24 4.5056 10.24 10.24v98.5088z" fill="#C67552" p-id="7691"></path><path d="M602.5216 713.3184h-83.968c-5.7344 0-10.24-4.5056-10.24-10.24v-98.5088c0-11.264 9.216-20.48 20.48-20.48h63.488c11.264 0 20.48 9.216 20.48 20.48v98.5088c0 5.7344-4.7104 10.24-10.24 10.24z m-73.728-20.48h63.488v-88.2688h-63.488v88.2688z" fill="#1C1D21" p-id="7692"></path><path d="M687.3088 713.3184H433.7664c-5.7344 0-10.24-4.5056-10.24-10.24V229.376c0-22.528 18.432-40.96 40.96-40.96H530.432c5.7344 0 10.24 4.5056 10.24 10.24v46.2848l25.8048 18.6368c2.6624 1.8432 4.3008 4.9152 4.3008 8.3968V294.912l18.6368-23.7568-25.1904-30.5152c-1.4336-1.8432-2.2528-4.096-2.2528-6.5536V198.656c0-5.7344 4.5056-10.24 10.24-10.24h84.3776c22.528 0 40.96 18.432 40.96 40.96v473.7024c0 5.7344-4.7104 10.24-10.24 10.24z m-243.3024-20.48h233.0624V229.376c0-11.264-9.216-20.48-20.48-20.48h-74.1376v21.2992L610.304 264.192c3.072 3.6864 3.072 9.0112 0.2048 12.9024l-41.984 53.8624c-2.6624 3.4816-7.3728 4.7104-11.4688 3.4816-4.096-1.4336-6.9632-5.3248-6.9632-9.6256v-47.3088l-25.8048-18.6368c-2.6624-1.8432-4.3008-4.9152-4.3008-8.3968V208.896h-55.7056c-11.264 0-20.48 9.216-20.48 20.48v463.4624z" fill="#1C1D21" p-id="7693"></path></svg>