<svg xmlns="http://www.w3.org/2000/svg" viewBox="0 0 1024 1024" version="1.1"><path d="M512 512m-501.76 0a501.76 501.76 0 1 0 1003.52 0 501.76 501.76 0 1 0-1003.52 0Z" fill="#8CEEF9" p-id="7553"></path><path d="M512 1024c-136.8064 0-265.4208-53.248-362.0864-149.9136C53.248 777.4208 0 648.8064 0 512S53.248 246.5792 149.9136 149.9136C246.5792 53.248 375.1936 0 512 0s265.4208 53.248 362.0864 149.9136C970.752 246.5792 1024 375.1936 1024 512s-53.248 265.4208-149.9136 362.0864C777.4208 970.752 648.8064 1024 512 1024z m0-1003.52C241.0496 20.48 20.48 241.0496 20.48 512s220.5696 491.52 491.52 491.52 491.52-220.5696 491.52-491.52S782.9504 20.48 512 20.48z" fill="#1C1D21" p-id="7554"></path><path d="M293.888 963.9936v-75.776H180.0192c34.2016 30.1056 72.4992 55.7056 113.8688 75.776z" fill="#C67552" p-id="7555"></path><path d="M293.888 974.2336c-1.4336 0-3.072-0.4096-4.5056-1.024-41.984-20.2752-81.1008-46.2848-116.1216-77.4144-3.2768-2.8672-4.3008-7.3728-2.8672-11.264 1.4336-3.8912 5.3248-6.5536 9.6256-6.5536h113.8688c5.7344 0 10.24 4.5056 10.24 10.24v75.776c0 3.4816-1.8432 6.7584-4.7104 8.6016-1.6384 1.2288-3.4816 1.6384-5.5296 1.6384z m-85.6064-75.776c23.552 18.6368 48.9472 35.0208 75.3664 48.9472v-48.9472h-75.3664z" fill="#1C1D21" p-id="7556"></path><path d="M303.7184 850.7392h-161.792c12.0832 13.1072 24.7808 25.6 38.0928 37.4784h123.4944c10.4448 0 18.6368-8.3968 18.6368-18.6368 0.2048-10.4448-8.192-18.8416-18.432-18.8416z" fill="#C67552" p-id="7557"></path><path d="M303.7184 898.4576H180.0192c-2.4576 0-4.9152-0.8192-6.7584-2.6624-13.7216-12.0832-26.8288-24.9856-38.912-38.2976-2.6624-3.072-3.4816-7.3728-1.8432-11.0592s5.3248-6.144 9.4208-6.144h161.792c15.9744 0 28.8768 12.9024 28.8768 28.8768 0 16.384-12.9024 29.2864-28.8768 29.2864z m-119.808-20.48h119.6032c4.7104 0 8.3968-3.8912 8.3968-8.3968 0-4.7104-3.8912-8.3968-8.3968-8.3968H165.888c5.9392 5.7344 11.8784 11.264 18.0224 16.7936z" fill="#1C1D21" p-id="7558"></path><path d="M202.752 608.256m-103.8336 0a103.8336 103.8336 0 1 0 207.6672 0 103.8336 103.8336 0 1 0-207.6672 0Z" fill="#D66112" p-id="7559"></path><path d="M147.8656 657.2032c0-57.344 46.4896-103.8336 103.8336-103.8336 15.9744 0 31.1296 3.6864 44.6464 10.0352-16.7936-34.816-52.4288-58.9824-93.5936-58.9824-57.344 0-103.8336 46.4896-103.8336 103.8336 0 41.3696 24.1664 77.0048 58.9824 93.5936-6.3488-13.5168-10.0352-28.672-10.0352-44.6464z" fill="#FF8939" p-id="7560"></path><path d="M202.752 722.3296c-62.8736 0-114.0736-51.2-114.0736-114.0736s51.2-114.0736 114.0736-114.0736 114.0736 51.2 114.0736 114.0736-51.2 114.0736-114.0736 114.0736z m0-207.6672c-51.6096 0-93.5936 41.984-93.5936 93.5936s41.984 93.5936 93.5936 93.5936 93.5936-41.984 93.5936-93.5936-41.984-93.5936-93.5936-93.5936z" fill="#1C1D21" p-id="7561"></path><path d="M209.1008 598.8352h-12.9024c-0.6144 0-1.2288-0.6144-1.2288-1.2288v-14.9504c0-0.6144 0.6144-1.2288 1.2288-1.2288h23.552c5.3248 0 9.4208-4.3008 9.4208-9.4208 0-5.3248-4.3008-9.4208-9.4208-9.4208h-7.9872v-16.1792c0-3.8912-3.2768-7.168-7.168-7.168s-7.168 3.2768-7.168 7.168v16.1792h-1.2288c-11.0592 0-20.2752 9.0112-20.2752 20.2752v14.9504c0 11.0592 9.0112 20.2752 20.2752 20.2752h12.9024c0.6144 0 1.2288 0.6144 1.2288 1.2288v14.9504c0 0.6144-0.6144 1.2288-1.2288 1.2288H185.5488c-5.3248 0-9.4208 4.3008-9.4208 9.4208 0 5.3248 4.3008 9.4208 9.4208 9.4208h11.8784v16.1792c0 3.8912 3.2768 7.168 7.168 7.168s7.168-3.2768 7.168-7.168v-16.384c9.8304-1.2288 17.6128-9.8304 17.6128-20.0704v-14.9504c0-11.264-9.0112-20.2752-20.2752-20.2752z" fill="#FFF0CC" p-id="7562"></path><path d="M513.6384 559.9232m-103.8336 0a103.8336 103.8336 0 1 0 207.6672 0 103.8336 103.8336 0 1 0-207.6672 0Z" fill="#D66112" p-id="7563"></path><path d="M458.752 608.8704c0-57.344 46.4896-103.8336 103.8336-103.8336 15.9744 0 31.1296 3.6864 44.6464 10.0352-16.7936-34.816-52.4288-58.9824-93.5936-58.9824-57.344 0-103.8336 46.4896-103.8336 103.8336 0 41.3696 24.1664 77.0048 58.9824 93.5936-6.3488-13.5168-10.0352-28.672-10.0352-44.6464z" fill="#FF8939" p-id="7564"></path><path d="M513.6384 673.9968c-62.8736 0-114.0736-51.2-114.0736-114.0736s51.2-114.0736 114.0736-114.0736 114.0736 51.2 114.0736 114.0736-51.2 114.0736-114.0736 114.0736z m0-207.4624c-51.6096 0-93.5936 41.984-93.5936 93.5936s41.984 93.5936 93.5936 93.5936c51.6096 0 93.5936-41.984 93.5936-93.5936s-41.984-93.5936-93.5936-93.5936z" fill="#1C1D21" p-id="7565"></path><path d="M519.9872 550.5024h-12.9024c-0.6144 0-1.2288-0.6144-1.2288-1.2288v-14.9504c0-0.6144 0.6144-1.2288 1.2288-1.2288h23.552c5.3248 0 9.4208-4.3008 9.4208-9.4208 0-5.3248-4.3008-9.4208-9.4208-9.4208h-7.9872V497.664c0-3.8912-3.2768-7.168-7.168-7.168s-7.168 3.2768-7.168 7.168v16.1792h-1.2288c-11.0592 0-20.2752 9.0112-20.2752 20.2752v14.9504c0 11.0592 9.0112 20.2752 20.2752 20.2752h12.9024c0.6144 0 1.2288 0.6144 1.2288 1.2288v14.9504c0 0.6144-0.6144 1.2288-1.2288 1.2288h-23.552c-5.3248 0-9.4208 4.3008-9.4208 9.4208 0 5.3248 4.3008 9.4208 9.4208 9.4208h11.8784v16.1792c0 3.8912 3.2768 7.168 7.168 7.168s7.168-3.2768 7.168-7.168v-16.384c9.8304-1.2288 17.6128-9.8304 17.6128-20.0704v-14.9504c0-10.8544-9.0112-19.8656-20.2752-19.8656z" fill="#FFF0CC" p-id="7566"></path><path d="M823.0912 391.3728m-103.8336 0a103.8336 103.8336 0 1 0 207.6672 0 103.8336 103.8336 0 1 0-207.6672 0Z" fill="#D66112" p-id="7567"></path><path d="M768.4096 440.32c0-57.344 46.4896-103.8336 103.8336-103.8336 15.9744 0 31.1296 3.6864 44.6464 10.0352-16.7936-34.816-52.4288-58.9824-93.5936-58.9824-57.344 0-103.8336 46.4896-103.8336 103.8336 0 41.3696 24.1664 77.0048 58.9824 93.5936-6.5536-13.5168-10.0352-28.672-10.0352-44.6464z" fill="#FF8939" p-id="7568"></path><path d="M823.0912 505.2416c-62.8736 0-114.0736-51.2-114.0736-114.0736s51.2-114.0736 114.0736-114.0736 114.0736 51.2 114.0736 114.0736-51.2 114.0736-114.0736 114.0736z m0-207.4624c-51.6096 0-93.5936 41.984-93.5936 93.5936s41.984 93.5936 93.5936 93.5936c51.6096 0 93.5936-41.984 93.5936-93.5936s-41.984-93.5936-93.5936-93.5936z" fill="#1C1D21" p-id="7569"></path><path d="M829.6448 381.7472h-12.9024c-0.6144 0-1.2288-0.6144-1.2288-1.2288v-14.9504c0-0.6144 0.6144-1.2288 1.2288-1.2288h23.552c5.3248 0 9.4208-4.3008 9.4208-9.4208 0-5.3248-4.3008-9.4208-9.4208-9.4208h-7.9872v-16.1792c0-3.8912-3.2768-7.168-7.168-7.168s-7.168 3.2768-7.168 7.168v16.1792h-1.2288c-11.0592 0-20.2752 9.0112-20.2752 20.2752v14.9504c0 11.0592 9.0112 20.2752 20.2752 20.2752h12.9024c0.6144 0 1.2288 0.6144 1.2288 1.2288v14.9504c0 0.6144-0.6144 1.2288-1.2288 1.2288h-23.552c-5.3248 0-9.4208 4.3008-9.4208 9.4208 0 5.3248 4.3008 9.4208 9.4208 9.4208h11.8784v16.1792c0 3.8912 3.2768 7.168 7.168 7.168s7.168-3.2768 7.168-7.168v-16.384c9.8304-1.2288 17.6128-9.8304 17.6128-20.0704v-14.9504c0-11.0592-9.216-20.2752-20.2752-20.2752z" fill="#FFF0CC" p-id="7570"></path><path d="M143.36 746.0864c-4.3008 16.1792-0.2048 34.2016 12.4928 46.8992 12.6976 12.6976 30.72 16.7936 46.8992 12.4928 4.3008-16.1792 0.2048-34.2016-12.4928-46.8992-12.6976-12.6976-30.72-16.7936-46.8992-12.4928z" fill="#0ABFB2" p-id="7571"></path><path d="M190.2592 817.3568c-15.36 0-30.5152-6.144-41.5744-17.2032-14.7456-14.7456-20.6848-36.4544-15.1552-56.7296 1.024-3.4816 3.6864-6.3488 7.168-7.168 20.2752-5.3248 41.984 0.4096 56.7296 15.1552 14.7456 14.7456 20.6848 36.4544 15.1552 56.7296-1.024 3.4816-3.6864 6.3488-7.168 7.168-5.12 1.4336-10.0352 2.048-15.1552 2.048z m-38.0928-62.464c-1.024 11.264 2.8672 22.7328 11.0592 30.9248s19.456 12.0832 30.9248 11.0592c1.024-11.264-2.8672-22.7328-11.0592-30.9248s-19.6608-12.0832-30.9248-11.0592z" fill="#1C1D21" p-id="7572"></path><path d="M265.4208 746.0864c4.3008 16.1792 0.2048 34.2016-12.4928 46.8992-12.6976 12.6976-30.72 16.7936-46.8992 12.4928-4.3008-16.1792-0.2048-34.2016 12.4928-46.8992 12.6976-12.6976 30.72-16.7936 46.8992-12.4928z" fill="#0ABFB2" p-id="7573"></path><path d="M218.5216 817.3568c-5.12 0-10.0352-0.6144-15.1552-2.048-3.4816-1.024-6.3488-3.6864-7.168-7.168-5.3248-20.2752 0.4096-41.984 15.1552-56.7296 14.7456-14.7456 36.4544-20.6848 56.7296-15.1552 3.4816 1.024 6.3488 3.6864 7.168 7.168 5.3248 20.2752-0.4096 41.984-15.1552 56.7296-11.0592 11.264-26.2144 17.2032-41.5744 17.2032z m-3.6864-20.6848c11.264 1.024 22.7328-2.8672 30.9248-11.0592s12.0832-19.456 11.0592-30.9248c-11.264-1.024-22.7328 2.8672-30.9248 11.0592-8.192 8.3968-12.0832 19.6608-11.0592 30.9248z" fill="#1C1D21" p-id="7574"></path><path d="M204.5952 860.9792c-5.7344 0-10.24-4.5056-10.24-10.24v-132.5056c0-5.7344 4.5056-10.24 10.24-10.24s10.24 4.5056 10.24 10.24v132.5056c0 5.7344-4.5056 10.24-10.24 10.24z" fill="#1C1D21" p-id="7575"></path><path d="M420.864 1005.3632c29.4912 5.5296 60.0064 8.3968 91.136 8.3968s61.6448-2.8672 91.136-8.3968v-167.3216h-182.4768v167.3216z" fill="#C67552" p-id="7576"></path><path d="M461.824 893.1328c-5.7344 0-10.24-4.5056-10.24-10.24v-3.8912c0-5.7344 4.5056-10.24 10.24-10.24s10.24 4.5056 10.24 10.24v3.8912c0 5.7344-4.7104 10.24-10.24 10.24zM461.824 980.3776c-5.7344 0-10.24-4.5056-10.24-10.24v-50.176c0-5.7344 4.5056-10.24 10.24-10.24s10.24 4.5056 10.24 10.24v50.176c0 5.5296-4.7104 10.24-10.24 10.24z" fill="#FFA364" p-id="7577"></path><path d="M512 1024c-31.1296 0-62.464-2.8672-92.9792-8.3968-4.9152-0.8192-8.3968-5.12-8.3968-10.0352v-167.3216c0-5.7344 4.5056-10.24 10.24-10.24h182.4768c5.7344 0 10.24 4.5056 10.24 10.24v42.8032c0 5.7344-4.5056 10.24-10.24 10.24s-10.24-4.5056-10.24-10.24v-32.5632h-161.9968v148.48c53.4528 8.8064 108.544 8.8064 161.9968 0v-64.7168c0-5.7344 4.5056-10.24 10.24-10.24s10.24 4.5056 10.24 10.24V1005.568c0 4.9152-3.4816 9.216-8.3968 10.0352-30.72 5.5296-62.0544 8.3968-93.184 8.3968z" fill="#1C1D21" p-id="7578"></path><path d="M612.9664 838.0416h-201.728c-10.4448 0-18.6368-8.3968-18.6368-18.6368 0-10.4448 8.3968-18.6368 18.6368-18.6368h201.728c10.4448 0 18.6368 8.3968 18.6368 18.6368s-8.3968 18.6368-18.6368 18.6368z" fill="#C67552" p-id="7579"></path><path d="M612.9664 848.2816h-201.728c-15.9744 0-28.8768-12.9024-28.8768-28.8768S395.264 790.528 411.2384 790.528h201.728c15.9744 0 28.8768 12.9024 28.8768 28.8768s-12.9024 28.8768-28.8768 28.8768z m-201.9328-37.4784c-4.7104 0-8.3968 3.8912-8.3968 8.3968 0 4.7104 3.8912 8.3968 8.3968 8.3968h201.728c4.7104 0 8.3968-3.8912 8.3968-8.3968 0-4.7104-3.8912-8.3968-8.3968-8.3968h-201.728z" fill="#1C1D21" p-id="7580"></path><path d="M452.608 695.9104c-4.3008 16.1792-0.2048 34.2016 12.4928 46.8992 12.6976 12.6976 30.72 16.7936 46.8992 12.4928 4.3008-16.1792 0.2048-34.2016-12.4928-46.8992-12.6976-12.4928-30.72-16.7936-46.8992-12.4928z" fill="#0ABFB2" p-id="7581"></path><path d="M499.5072 767.1808c-15.36 0-30.5152-6.144-41.5744-17.2032-14.7456-14.7456-20.6848-36.4544-15.1552-56.7296 1.024-3.4816 3.6864-6.3488 7.168-7.168 20.2752-5.3248 41.984 0.4096 56.7296 15.1552 14.7456 14.7456 20.6848 36.4544 15.1552 56.7296-1.024 3.4816-3.6864 6.3488-7.168 7.168-5.12 1.4336-10.0352 2.048-15.1552 2.048z m-38.0928-62.464c-1.024 11.264 2.8672 22.7328 11.0592 30.9248s19.456 12.0832 30.9248 11.0592c1.024-11.264-2.8672-22.7328-11.0592-30.9248s-19.6608-12.0832-30.9248-11.0592z" fill="#1C1D21" p-id="7582"></path><path d="M574.6688 695.9104c4.3008 16.1792 0.2048 34.2016-12.4928 46.8992-12.6976 12.6976-30.72 16.7936-46.8992 12.4928-4.3008-16.1792-0.2048-34.2016 12.4928-46.8992 12.6976-12.4928 30.72-16.7936 46.8992-12.4928z" fill="#0ABFB2" p-id="7583"></path><path d="M527.7696 767.1808c-5.12 0-10.0352-0.6144-15.1552-2.048-3.4816-1.024-6.3488-3.6864-7.168-7.168-5.3248-20.2752 0.4096-41.984 15.1552-56.7296 14.7456-14.7456 36.4544-20.6848 56.7296-15.1552 3.4816 1.024 6.3488 3.6864 7.168 7.168 5.3248 20.2752-0.4096 41.984-15.1552 56.7296-11.0592 11.264-26.2144 17.2032-41.5744 17.2032z m-3.6864-20.48c11.264 1.024 22.7328-2.8672 30.9248-11.0592s12.0832-19.456 11.0592-30.9248c-11.264-1.024-22.7328 2.8672-30.9248 11.0592s-12.0832 19.456-11.0592 30.9248z" fill="#1C1D21" p-id="7584"></path><path d="M513.8432 810.8032c-5.7344 0-10.24-4.5056-10.24-10.24v-132.5056c0-5.7344 4.5056-10.24 10.24-10.24s10.24 4.5056 10.24 10.24v132.5056c0 5.7344-4.5056 10.24-10.24 10.24z" fill="#1C1D21" p-id="7585"></path><path d="M730.112 963.9936c72.0896-34.816 134.5536-86.4256 182.4768-149.7088v-139.8784h-182.4768v289.5872z" fill="#C67552" p-id="7586"></path><path d="M730.112 974.2336c-1.8432 0-3.6864-0.6144-5.5296-1.6384-3.072-1.8432-4.7104-5.12-4.7104-8.6016V674.4064c0-5.7344 4.5056-10.24 10.24-10.24h182.4768c5.7344 0 10.24 4.5056 10.24 10.24v139.8784c0 2.2528-0.8192 4.3008-2.048 6.144-48.9472 64.7168-113.2544 117.5552-186.1632 152.7808-1.6384 0.8192-3.072 1.024-4.5056 1.024z m10.24-289.5872v262.7584c62.8736-32.9728 118.5792-80.0768 161.9968-136.6016v-126.1568h-161.9968z" fill="#1C1D21" p-id="7587"></path><path d="M922.2144 674.4064h-201.728c-10.4448 0-18.6368-8.3968-18.6368-18.6368 0-10.4448 8.3968-18.6368 18.6368-18.6368h201.728c10.4448 0 18.6368 8.3968 18.6368 18.6368s-8.3968 18.6368-18.6368 18.6368z" fill="#C67552" p-id="7588"></path><path d="M922.2144 684.6464h-201.728c-15.9744 0-28.8768-12.9024-28.8768-28.8768s12.9024-28.8768 28.8768-28.8768h201.728c15.9744 0 28.8768 12.9024 28.8768 28.8768s-12.9024 28.8768-28.8768 28.8768zM720.2816 647.168c-4.7104 0-8.3968 3.8912-8.3968 8.3968s3.8912 8.3968 8.3968 8.3968h201.728c4.7104 0 8.3968-3.8912 8.3968-8.3968s-3.8912-8.3968-8.3968-8.3968h-201.728z" fill="#1C1D21" p-id="7589"></path><path d="M761.856 532.2752c-4.3008 16.1792-0.2048 34.2016 12.4928 46.8992 12.6976 12.6976 30.72 16.7936 46.8992 12.4928 4.3008-16.1792 0.2048-34.2016-12.4928-46.8992-12.6976-12.4928-30.72-16.7936-46.8992-12.4928z" fill="#0ABFB2" p-id="7590"></path><path d="M808.7552 603.5456c-15.36 0-30.5152-6.144-41.5744-17.2032-14.7456-14.7456-20.6848-36.4544-15.1552-56.7296 1.024-3.4816 3.6864-6.3488 7.168-7.168 20.2752-5.3248 41.984 0.4096 56.7296 15.1552 14.7456 14.7456 20.6848 36.4544 15.1552 56.7296-1.024 3.4816-3.6864 6.3488-7.168 7.168-5.12 1.4336-10.0352 2.048-15.1552 2.048z m-38.0928-62.464c-1.024 11.264 2.8672 22.7328 11.0592 30.9248s19.6608 12.0832 30.9248 11.0592c1.024-11.264-2.8672-22.7328-11.0592-30.9248s-19.6608-12.0832-30.9248-11.0592z" fill="#1C1D21" p-id="7591"></path><path d="M883.9168 532.2752c4.3008 16.1792 0.2048 34.2016-12.4928 46.8992-12.6976 12.6976-30.72 16.7936-46.8992 12.4928-4.3008-16.1792-0.2048-34.2016 12.4928-46.8992 12.6976-12.4928 30.72-16.7936 46.8992-12.4928z" fill="#0ABFB2" p-id="7592"></path><path d="M837.0176 603.5456c-5.12 0-10.0352-0.6144-15.1552-2.048-3.4816-1.024-6.3488-3.6864-7.168-7.168-5.3248-20.2752 0.4096-41.984 15.1552-56.7296 14.7456-14.7456 36.4544-20.6848 56.7296-15.1552 3.4816 1.024 6.3488 3.6864 7.168 7.168 5.3248 20.2752-0.4096 41.984-15.1552 56.7296-11.0592 11.264-26.2144 17.2032-41.5744 17.2032z m-3.6864-20.6848c11.264 1.024 22.7328-2.8672 30.9248-11.0592s12.0832-19.456 11.0592-30.9248c-11.264-1.024-22.7328 2.8672-30.9248 11.0592-8.192 8.3968-12.0832 19.6608-11.0592 30.9248z" fill="#1C1D21" p-id="7593"></path><path d="M823.0912 647.168c-5.7344 0-10.24-4.5056-10.24-10.24v-132.5056c0-5.7344 4.5056-10.24 10.24-10.24s10.24 4.5056 10.24 10.24V636.928c0 5.7344-4.5056 10.24-10.24 10.24zM189.44 410.8288c-4.9152 0-9.216-3.4816-10.0352-8.3968-1.024-5.5296 2.6624-10.8544 8.192-11.8784l291.2256-52.4288L770.4576 190.464c5.12-2.4576 11.264-0.6144 13.7216 4.5056 2.4576 5.12 0.6144 11.264-4.5056 13.7216l-292.864 148.48c-0.8192 0.4096-1.8432 0.8192-2.8672 1.024l-292.864 52.6336h-1.6384z" fill="#1C1D21" p-id="7594"></path><path d="M189.44 446.6688C164.0448 446.6688 143.36 425.984 143.36 400.5888s20.6848-46.08 46.08-46.08 46.08 20.6848 46.08 46.08-20.6848 46.08-46.08 46.08z m0-71.68c-14.1312 0-25.6 11.4688-25.6 25.6s11.4688 25.6 25.6 25.6 25.6-11.4688 25.6-25.6-11.4688-25.6-25.6-25.6z" fill="#1C1D21" p-id="7595"></path><path d="M189.44 400.5888m-35.84 0a35.84 35.84 0 1 0 71.68 0 35.84 35.84 0 1 0-71.68 0Z" fill="#FF3E63" p-id="7596"></path><path d="M482.304 347.9552m-35.84 0a35.84 35.84 0 1 0 71.68 0 35.84 35.84 0 1 0-71.68 0Z" fill="#FF3E63" p-id="7597"></path><path d="M774.9632 199.68m-35.84 0a35.84 35.84 0 1 0 71.68 0 35.84 35.84 0 1 0-71.68 0Z" fill="#FF3E63" p-id="7598"></path><path d="M189.44 446.6688C164.0448 446.6688 143.36 425.984 143.36 400.5888s20.6848-46.08 46.08-46.08 46.08 20.6848 46.08 46.08-20.6848 46.08-46.08 46.08z m0-71.68c-14.1312 0-25.6 11.4688-25.6 25.6s11.4688 25.6 25.6 25.6 25.6-11.4688 25.6-25.6-11.4688-25.6-25.6-25.6z" fill="#1C1D21" p-id="7599"></path><path d="M482.304 394.0352c-25.3952 0-46.08-20.6848-46.08-46.08s20.6848-46.08 46.08-46.08 46.08 20.6848 46.08 46.08-20.6848 46.08-46.08 46.08z m0-71.68c-14.1312 0-25.6 11.4688-25.6 25.6s11.4688 25.6 25.6 25.6 25.6-11.4688 25.6-25.6-11.4688-25.6-25.6-25.6z" fill="#1C1D21" p-id="7600"></path><path d="M774.9632 245.76c-25.3952 0-46.08-20.6848-46.08-46.08S749.568 153.6 774.9632 153.6s46.08 20.6848 46.08 46.08-20.48 46.08-46.08 46.08z m0-71.68c-14.1312 0-25.6 11.4688-25.6 25.6s11.4688 25.6 25.6 25.6 25.6-11.4688 25.6-25.6S789.0944 174.08 774.9632 174.08z" fill="#1C1D21" p-id="7601"></path><path d="M771.072 729.4976c-5.7344 0-10.24-4.5056-10.24-10.24v-3.8912c0-5.7344 4.5056-10.24 10.24-10.24s10.24 4.5056 10.24 10.24v3.8912c0 5.7344-4.7104 10.24-10.24 10.24z" fill="#FFA364" p-id="7602"></path><path d="M771.072 860.9792c-5.7344 0-10.24-4.5056-10.24-10.24v-94.6176c0-5.7344 4.5056-10.24 10.24-10.24s10.24 4.5056 10.24 10.24v94.6176c0 5.7344-4.7104 10.24-10.24 10.24z" fill="#FFA364" p-id="7603"></path></svg>