<svg xmlns="http://www.w3.org/2000/svg" viewBox="0 0 1024 1024" version="1.1"><path d="M512 512m-501.76 0a501.76 501.76 0 1 0 1003.52 0 501.76 501.76 0 1 0-1003.52 0Z" fill="#0ABFB2" p-id="8269"></path><path d="M512 823.9104c-76.3904-46.6944-172.4416-46.6944-248.6272 0V275.456c76.3904-46.6944 172.4416-46.6944 248.6272 0v548.4544z" fill="#AA4D2D" p-id="8270"></path><path d="M512 823.9104c76.3904-46.6944 172.4416-46.6944 248.6272 0V275.456c-76.3904-46.6944-172.4416-46.6944-248.6272 0v548.4544z" fill="#AA4D2D" p-id="8271"></path><path d="M263.3728 834.1504c-3.4816 0-6.7584-1.6384-8.8064-4.9152-2.8672-4.9152-1.4336-11.0592 3.4816-14.1312 80.0768-48.9472 179.4048-48.9472 259.2768 0 4.9152 2.8672 6.3488 9.216 3.4816 14.1312-2.8672 4.9152-9.216 6.3488-14.1312 3.4816-73.3184-45.056-164.6592-45.056-237.9776 0-1.6384 1.024-3.4816 1.4336-5.3248 1.4336z" fill="#1C1D21" p-id="8272"></path><path d="M760.6272 834.1504c-1.8432 0-3.6864-0.4096-5.3248-1.4336-73.3184-45.056-164.6592-45.056-237.9776 0-4.9152 2.8672-11.0592 1.4336-14.1312-3.4816-2.8672-4.9152-1.4336-11.0592 3.4816-14.1312 80.0768-48.9472 179.4048-48.9472 259.2768 0 4.9152 2.8672 6.3488 9.216 3.4816 14.1312-2.048 3.2768-5.3248 4.9152-8.8064 4.9152z" fill="#1C1D21" p-id="8273"></path><path d="M512 1024c-136.8064 0-265.4208-53.248-362.0864-149.9136C53.248 777.4208 0 648.8064 0 512S53.248 246.5792 149.9136 149.9136C246.5792 53.248 375.1936 0 512 0s265.4208 53.248 362.0864 149.9136C970.752 246.5792 1024 375.1936 1024 512s-53.248 265.4208-149.9136 362.0864C777.4208 970.752 648.8064 1024 512 1024z m0-1003.52C241.0496 20.48 20.48 241.0496 20.48 512s220.5696 491.52 491.52 491.52 491.52-220.5696 491.52-491.52S782.9504 20.48 512 20.48z" fill="#1C1D21" p-id="8274"></path><path d="M512 758.1696c-76.3904-46.6944-172.4416-46.6944-248.6272 0V209.7152c76.3904-46.6944 172.4416-46.6944 248.6272 0v548.4544z" fill="#FFECE9" p-id="8275"></path><path d="M304.3328 262.144c-5.7344 0-10.24-4.5056-10.24-10.24v-17.8176c0-5.7344 4.5056-10.24 10.24-10.24s10.24 4.5056 10.24 10.24v17.8176c0 5.7344-4.7104 10.24-10.24 10.24zM304.3328 705.1264c-5.7344 0-10.24-4.5056-10.24-10.24V290.4064c0-5.7344 4.5056-10.24 10.24-10.24s10.24 4.5056 10.24 10.24v404.6848c0 5.5296-4.7104 10.0352-10.24 10.0352z" fill="#FFFFFF" p-id="8276"></path><path d="M512 758.1696c76.3904-46.6944 172.4416-46.6944 248.6272 0V209.7152c-76.3904-46.6944-172.4416-46.6944-248.6272 0v548.4544z" fill="#FFECE9" p-id="8277"></path><path d="M263.3728 244.3264c-5.7344 0-10.24-4.5056-10.24-10.24v-24.3712c0-3.4816 1.8432-6.9632 4.9152-8.8064 80.0768-48.9472 179.4048-48.9472 259.2768 0 3.072 1.8432 4.9152 5.12 4.9152 8.8064V233.472c0 5.7344-4.5056 10.24-10.24 10.24s-10.24-4.5056-10.24-10.24v-18.0224c-70.8608-41.1648-157.2864-41.1648-228.1472 0v18.6368c0 5.7344-4.7104 10.24-10.24 10.24zM263.3728 289.9968c-5.7344 0-10.24-4.5056-10.24-10.24v-11.6736c0-5.7344 4.5056-10.24 10.24-10.24s10.24 4.5056 10.24 10.24v11.6736c0 5.7344-4.7104 10.24-10.24 10.24zM263.3728 394.24c-5.7344 0-10.24-4.5056-10.24-10.24V323.584c0-5.7344 4.5056-10.24 10.24-10.24s10.24 4.5056 10.24 10.24v60.416c0 5.7344-4.7104 10.24-10.24 10.24zM263.3728 768.4096c-1.6384 0-3.4816-0.4096-4.9152-1.2288-3.2768-1.8432-5.3248-5.3248-5.3248-9.0112V429.056c0-5.7344 4.5056-10.24 10.24-10.24s10.24 4.5056 10.24 10.24v311.5008c71.68-37.2736 156.4672-37.2736 228.1472 0V692.224c0-5.7344 4.5056-10.24 10.24-10.24s10.24 4.5056 10.24 10.24v65.9456c0 3.6864-2.048 7.168-5.3248 9.0112-3.2768 1.8432-7.168 1.6384-10.4448-0.2048-73.3184-45.056-164.6592-45.056-237.9776 0-1.4336 1.024-3.2768 1.4336-5.12 1.4336zM512 662.9376c-5.7344 0-10.24-4.5056-10.24-10.24V275.456c0-5.7344 4.5056-10.24 10.24-10.24s10.24 4.5056 10.24 10.24v377.0368c0 5.7344-4.5056 10.4448-10.24 10.4448z" fill="#1C1D21" p-id="8278"></path><path d="M512 768.4096c-3.4816 0-6.7584-1.6384-8.8064-4.9152-2.8672-4.9152-1.4336-11.0592 3.4816-14.1312 74.9568-45.8752 166.7072-48.7424 243.712-8.8064V215.4496c-72.4992-41.984-161.3824-40.96-233.0624 2.8672-4.9152 2.8672-11.0592 1.4336-14.1312-3.4816-2.8672-4.9152-1.4336-11.0592 3.4816-14.1312C586.752 151.7568 686.08 151.7568 765.952 200.704c3.072 1.8432 4.9152 5.12 4.9152 8.8064v548.4544c0 3.6864-2.048 7.168-5.3248 9.0112-3.2768 1.8432-7.168 1.6384-10.4448-0.2048-73.3184-45.056-164.6592-45.056-237.9776 0-1.4336 1.2288-3.2768 1.6384-5.12 1.6384z" fill="#1C1D21" p-id="8279"></path><path d="M787.2512 516.096c-14.5408 0-26.4192 11.8784-26.4192 26.4192v156.672h53.0432v-156.672c-0.2048-14.5408-12.0832-26.4192-26.624-26.4192z" fill="#FFC5B3" p-id="8280"></path><path d="M813.6704 709.4272h-53.0432c-5.7344 0-10.24-4.5056-10.24-10.24v-156.672c0-20.2752 16.384-36.6592 36.6592-36.6592s36.6592 16.384 36.6592 36.6592v156.672c0.2048 5.7344-4.3008 10.24-10.0352 10.24z m-42.5984-20.48h32.5632v-146.432c0-9.0112-7.3728-16.1792-16.1792-16.1792s-16.1792 7.3728-16.1792 16.1792v146.432z" fill="#1C1D21" p-id="8281"></path><path d="M840.2944 516.096c-14.5408 0-26.4192 11.8784-26.4192 26.4192v77.2096c0 23.7568-10.8544 46.2848-29.4912 61.0304l-151.9616 120.2176c-18.6368 14.7456-29.4912 37.0688-29.4912 60.6208l-0.4096 143.9744c38.912-7.168 76.3904-18.6368 111.616-34.2016v-63.6928c0-20.6848 8.192-40.3456 22.7328-54.8864l107.1104-107.1104c14.5408-14.5408 22.7328-34.4064 22.7328-54.8864V542.72c0-14.7456-11.8784-26.624-26.4192-26.624z" fill="#FFC5B3" p-id="8282"></path><path d="M602.5216 1015.808c-2.4576 0-4.7104-0.8192-6.5536-2.4576-2.2528-2.048-3.6864-4.9152-3.6864-7.7824l0.4096-143.9744c0-27.0336 12.288-52.0192 33.3824-68.608l151.9616-120.2176c16.1792-12.9024 25.6-32.1536 25.6-52.8384V542.72c0-20.2752 16.384-36.6592 36.6592-36.6592 20.2752 0 36.6592 16.384 36.6592 36.6592v148.0704c0 23.552-9.216 45.6704-25.8048 62.2592L744.0384 860.16c-12.6976 12.6976-19.8656 29.696-19.8656 47.7184v63.6928c0 4.096-2.4576 7.7824-6.144 9.4208-36.4544 15.9744-74.752 27.8528-113.8688 34.816h-1.6384z m237.7728-489.472c-9.0112 0-16.1792 7.3728-16.1792 16.1792v77.2096c0 27.0336-12.0832 52.224-33.3824 69.0176L638.5664 808.96c-16.1792 12.9024-25.6 31.9488-25.6 52.6336l-0.4096 131.4816c31.1296-6.5536 61.6448-15.9744 91.136-28.4672v-56.9344c0-23.552 9.216-45.6704 25.8048-62.2592l107.1104-107.1104c12.6976-12.6976 19.8656-29.696 19.8656-47.7184v-148.0704c0-8.8064-7.3728-16.1792-16.1792-16.1792z m-126.3616 445.0304z" fill="#1C1D21" p-id="8283"></path><path d="M236.7488 516.096c14.5408 0 26.4192 11.8784 26.4192 26.4192v156.672h-53.0432v-156.672c0.2048-14.5408 12.0832-26.4192 26.624-26.4192z" fill="#FFC5B3" p-id="8284"></path><path d="M263.168 709.4272h-53.0432c-5.7344 0-10.24-4.5056-10.24-10.24v-156.672c0-20.2752 16.384-36.6592 36.6592-36.6592s36.6592 16.384 36.6592 36.6592v156.672c0.2048 5.7344-4.3008 10.24-10.0352 10.24z m-42.5984-20.48h32.5632v-146.432c0-9.0112-7.3728-16.1792-16.1792-16.1792s-16.1792 7.3728-16.1792 16.1792v146.432z" fill="#1C1D21" p-id="8285"></path><path d="M421.4784 1005.568l-0.4096-143.9744c0-23.7568-10.8544-46.08-29.4912-60.6208L239.616 680.7552c-18.6368-14.7456-29.4912-37.2736-29.4912-61.0304v-77.2096c0-14.5408-11.8784-26.4192-26.4192-26.4192-14.5408 0-26.4192 11.8784-26.4192 26.4192v148.0704c0 20.6848 8.192 40.3456 22.7328 54.8864l107.1104 107.1104c14.5408 14.5408 22.7328 34.4064 22.7328 54.8864v63.6928c35.4304 15.7696 72.704 27.4432 111.616 34.4064z" fill="#FFC5B3" p-id="8286"></path><path d="M421.4784 1015.808c-0.6144 0-1.2288 0-1.8432-0.2048-39.1168-7.168-77.4144-18.8416-113.8688-34.816-3.6864-1.6384-6.144-5.3248-6.144-9.4208v-63.6928c0-18.0224-6.9632-35.0208-19.8656-47.7184l-107.1104-107.1104c-16.5888-16.5888-25.8048-38.7072-25.8048-62.2592v-148.0704c0-20.2752 16.384-36.6592 36.6592-36.6592 20.2752 0 36.6592 16.384 36.6592 36.6592v77.2096c0 20.6848 9.4208 40.1408 25.6 52.8384l151.9616 120.2176c21.0944 16.7936 33.3824 41.7792 33.3824 68.608l0.4096 143.9744c0 3.072-1.4336 5.9392-3.6864 7.7824-1.6384 1.8432-3.8912 2.6624-6.3488 2.6624z m-101.1712-51.2c29.2864 12.4928 60.0064 21.9136 91.136 28.4672l-0.4096-131.4816c0-20.6848-9.4208-39.936-25.6-52.6336L233.472 688.7424c-21.2992-16.7936-33.3824-41.984-33.3824-69.0176v-77.2096c0-9.0112-7.3728-16.1792-16.1792-16.1792s-16.1792 7.3728-16.1792 16.1792v148.0704c0 18.0224 6.9632 35.0208 19.8656 47.7184l107.1104 107.1104c16.5888 16.5888 25.8048 38.7072 25.8048 62.2592V964.608z" fill="#1C1D21" p-id="8287"></path><path d="M512 466.3296m-160.3584 0a160.3584 160.3584 0 1 0 320.7168 0 160.3584 160.3584 0 1 0-320.7168 0Z" fill="#508DEF" p-id="8288"></path><path d="M588.5952 466.3296s-0.4096 46.6944-11.4688 84.5824c0 0 37.6832 14.7456 46.08 30.9248 0 0 53.0432-46.2848 44.4416-115.712h-79.0528zM500.736 306.176s-66.1504 1.4336-105.8816 50.7904c0 0 21.504 23.552 49.152 35.6352 0 0 6.9632-70.2464 56.7296-86.4256zM512 466.3296h-76.5952s-0.2048 54.4768 11.4688 84.5824c0 0 38.912-18.2272 64.9216-13.7216v-70.8608zM579.9936 392.6016s-33.5872 16.5888-67.9936 15.1552V311.296s44.8512-12.0832 67.9936 81.3056zM447.0784 551.1168s-33.9968 11.6736-46.08 30.9248c0 0 45.4656 42.3936 95.0272 43.8272 0 0-38.7072-18.432-48.9472-74.752z" fill="#0ABFB2" p-id="8289"></path><path d="M512 636.928c-44.2368 0-86.2208-16.7936-118.1696-47.5136-2.048-1.8432-3.072-4.5056-3.072-7.3728s1.2288-5.5296 3.072-7.3728c31.9488-30.72 73.9328-47.5136 118.1696-47.5136s86.2208 16.7936 118.1696 47.5136c2.048 1.8432 3.072 4.5056 3.072 7.3728s-1.2288 5.5296-3.072 7.3728c-31.9488 30.72-73.9328 47.5136-118.1696 47.5136z m-95.6416-54.8864c26.8288 22.3232 60.416 34.4064 95.6416 34.4064s68.8128-12.0832 95.6416-34.4064c-26.8288-22.3232-60.416-34.4064-95.6416-34.4064s-68.8128 12.0832-95.6416 34.4064z" fill="#1C1D21" p-id="8290"></path><path d="M512 636.928c-5.7344 0-10.24-4.5056-10.24-10.24V306.176c0-5.7344 4.5056-10.24 10.24-10.24s10.24 4.5056 10.24 10.24V626.688c0 5.7344-4.5056 10.24-10.24 10.24z" fill="#1C1D21" p-id="8291"></path><path d="M672.3584 476.5696H351.6416c-5.7344 0-10.24-4.5056-10.24-10.24s4.5056-10.24 10.24-10.24h320.512c5.7344 0 10.24 4.5056 10.24 10.24s-4.5056 10.24-10.0352 10.24z" fill="#1C1D21" p-id="8292"></path><path d="M512 636.928c-48.7424 0-86.8352-74.9568-86.8352-170.5984s38.0928-170.5984 86.8352-170.5984 86.8352 74.9568 86.8352 170.5984S560.7424 636.928 512 636.928z m0-320.512c-31.9488 0-66.3552 60.2112-66.3552 150.1184S480.0512 616.448 512 616.448s66.3552-60.2112 66.3552-150.1184-34.4064-149.9136-66.3552-149.9136z" fill="#1C1D21" p-id="8293"></path><path d="M512 417.792c-46.8992 0-92.3648-19.6608-124.5184-54.0672-3.6864-3.8912-3.6864-10.0352 0-13.9264 32.1536-34.2016 77.4144-54.0672 124.5184-54.0672s92.3648 19.6608 124.5184 54.0672c3.6864 3.8912 3.6864 10.0352 0 13.9264-32.1536 34.4064-77.6192 54.0672-124.5184 54.0672z m-102.6048-60.8256C437.248 382.976 473.2928 397.312 512 397.312s74.752-14.336 102.6048-40.5504c-27.8528-26.2144-63.8976-40.5504-102.6048-40.5504s-74.752 14.5408-102.6048 40.7552z" fill="#1C1D21" p-id="8294"></path><path d="M512 636.928c-94.0032 0-170.5984-76.5952-170.5984-170.5984s76.5952-170.5984 170.5984-170.5984 170.5984 76.5952 170.5984 170.5984S606.0032 636.928 512 636.928z m0-320.512c-82.7392 0-150.1184 67.3792-150.1184 150.1184S429.2608 616.448 512 616.448s150.1184-67.3792 150.1184-150.1184-67.3792-149.9136-150.1184-149.9136zM512 834.1504c-5.7344 0-10.24-4.5056-10.24-10.24v-73.5232c0-5.7344 4.5056-10.24 10.24-10.24s10.24 4.5056 10.24 10.24v73.5232c0 5.7344-4.5056 10.24-10.24 10.24z" fill="#1C1D21" p-id="8295"></path></svg>