<svg xmlns="http://www.w3.org/2000/svg" viewBox="0 0 1024 1024" version="1.1"><path d="M512 512m-501.76 0a501.76 501.76 0 1 0 1003.52 0 501.76 501.76 0 1 0-1003.52 0Z" fill="#8CEEF9" p-id="8349"></path><path d="M148.48 857.7024c83.3536 87.6544 198.2464 145.2032 326.4512 154.624h74.5472c128.2048-9.4208 242.8928-66.9696 326.4512-154.624H148.48z" fill="#C67552" p-id="8350"></path><path d="M512 1024c-136.8064 0-265.4208-53.248-362.0864-149.9136S0 648.8064 0 512 53.248 246.5792 149.9136 149.9136 375.1936 0 512 0s265.4208 53.248 362.0864 149.9136S1024 375.1936 1024 512s-53.248 265.4208-149.9136 362.0864S648.8064 1024 512 1024z m0-1003.52C241.0496 20.48 20.48 241.0496 20.48 512s220.5696 491.52 491.52 491.52 491.52-220.5696 491.52-491.52S782.9504 20.48 512 20.48z" fill="#1C1D21" p-id="8351"></path><path d="M400.9984 669.2864h222.208v193.536H400.9984z" fill="#AAADAD" p-id="8352"></path><path d="M450.7648 734.0032c-5.7344 0-10.24-4.5056-10.24-10.24v-4.7104c0-5.7344 4.5056-10.24 10.24-10.24s10.24 4.5056 10.24 10.24v4.7104c0 5.7344-4.5056 10.24-10.24 10.24zM450.7648 840.0896c-5.7344 0-10.24-4.5056-10.24-10.24v-61.0304c0-5.7344 4.5056-10.24 10.24-10.24s10.24 4.5056 10.24 10.24v61.0304c0 5.7344-4.5056 10.24-10.24 10.24z" fill="#E0E0E0" p-id="8353"></path><path d="M623.0016 773.5296c-5.7344 0-10.24-4.5056-10.24-10.24V745.472c0-5.7344 4.5056-10.24 10.24-10.24s10.24 4.5056 10.24 10.24v17.8176c0 5.7344-4.5056 10.24-10.24 10.24zM623.0016 866.9184c-5.7344 0-10.24-4.5056-10.24-10.24v-52.0192c0-5.7344 4.5056-10.24 10.24-10.24s10.24 4.5056 10.24 10.24v52.0192c0 5.7344-4.5056 10.24-10.24 10.24zM400.9984 867.328c-5.5296 0-10.24-4.5056-10.24-10.24-0.4096-63.0784-0.4096-126.3616-0.4096-187.5968 0-5.7344 4.5056-10.24 10.24-10.24h221.7984c5.7344 0 10.24 4.5056 10.24 10.24s-4.5056 10.24-10.24 10.24H410.8288c0 58.1632 0 117.9648 0.4096 177.3568 0 5.5296-4.5056 10.24-10.24 10.24z" fill="#1C1D21" p-id="8354"></path><path d="M638.976 669.2864H385.024c-10.4448 0-18.6368-8.3968-18.6368-18.6368v-8.192c0-10.4448 8.3968-18.6368 18.6368-18.6368h253.952c10.4448 0 18.6368 8.3968 18.6368 18.6368v8.192c0 10.24-8.3968 18.6368-18.6368 18.6368z" fill="#AAADAD" p-id="8355"></path><path d="M638.976 679.5264H385.024c-15.9744 0-28.8768-12.9024-28.8768-28.8768v-8.192c0-15.9744 12.9024-28.8768 28.8768-28.8768h253.952c15.9744 0 28.8768 12.9024 28.8768 28.8768v8.192c0 15.7696-12.9024 28.8768-28.8768 28.8768z m-253.952-45.6704c-4.7104 0-8.3968 3.8912-8.3968 8.3968v8.192c0 4.7104 3.8912 8.3968 8.3968 8.3968h253.952c4.7104 0 8.3968-3.8912 8.3968-8.3968v-8.192c0-4.7104-3.8912-8.3968-8.3968-8.3968H385.024z" fill="#1C1D21" p-id="8356"></path><path d="M622.3872 722.5344c-5.7344 0-10.24-4.5056-10.24-10.24v-42.8032c0-5.7344 4.5056-10.24 10.24-10.24s10.24 4.5056 10.24 10.24v42.8032c0 5.7344-4.5056 10.24-10.24 10.24zM549.2736 1022.5664h-75.3664c-126.7712-9.216-245.1456-65.3312-333.0048-157.696-2.8672-2.8672-3.6864-7.3728-2.048-11.0592 1.6384-3.6864 5.3248-6.144 9.4208-6.144h727.2448c4.096 0 7.7824 2.4576 9.4208 6.144 1.6384 3.6864 0.8192 8.192-2.048 11.0592-87.8592 92.3648-206.2336 148.48-333.0048 157.696h-0.6144z m-74.1376-20.48h73.728c113.4592-8.3968 219.7504-55.7056 302.08-134.144h-677.888c82.3296 78.4384 188.6208 125.7472 302.08 134.144z" fill="#1C1D21" p-id="8357"></path><path d="M660.0704 229.9904c0-84.1728-70.2464-151.9616-155.2384-148.0704-26.0096 1.2288-50.3808 9.216-71.2704 22.3232-39.936 24.9856-67.3792 68.608-69.632 118.3744-2.8672 59.1872 29.0816 111.0016 77.2096 137.216 12.0832 6.5536 19.456 19.2512 19.456 33.1776v45.056c0 13.312 10.8544 23.9616 23.9616 23.9616h54.6816c13.312 0 23.9616-10.8544 23.9616-23.9616v-45.056c0-13.7216 7.3728-26.4192 19.456-32.9728 46.2848-24.9856 77.4144-73.728 77.4144-130.048z" fill="#FF9E5C" p-id="8358"></path><path d="M539.2384 472.4736h-54.6816c-18.8416 0-34.2016-15.36-34.2016-34.2016v-45.056c0-10.0352-5.5296-19.2512-14.1312-24.1664-53.6576-29.2864-85.4016-85.6064-82.5344-146.8416 1.6384-34.2016 14.1312-66.3552 36.0448-92.9792 3.6864-4.3008 10.0352-4.9152 14.336-1.4336 4.3008 3.6864 4.9152 10.0352 1.4336 14.336-19.0464 23.1424-29.9008 51.2-31.3344 80.896-2.4576 53.248 24.9856 102.1952 71.8848 127.7952 15.36 8.3968 24.7808 24.576 24.7808 41.984v45.056c0 7.5776 6.144 13.7216 13.7216 13.7216h54.6816c7.5776 0 13.7216-6.144 13.7216-13.7216v-45.056c0-17.6128 9.4208-33.792 24.7808-41.984a137.97376 137.97376 0 0 0 72.0896-121.2416c0-38.0928-15.1552-73.5232-42.8032-99.7376C579.584 103.6288 543.3344 90.112 505.2416 91.9552c-5.5296 0.2048-10.8544 0.8192-16.1792 1.6384-5.5296 1.024-10.8544-2.8672-11.8784-8.3968-1.024-5.5296 2.8672-10.8544 8.3968-11.8784 6.144-1.024 12.4928-1.6384 18.6368-2.048 43.8272-2.048 85.4016 13.5168 116.9408 43.6224 31.5392 30.1056 49.152 70.8608 49.152 114.688 0 57.9584-31.744 111.4112-82.7392 139.0592-8.8064 4.7104-14.1312 13.9264-14.1312 24.1664v45.056c0.2048 19.2512-15.1552 34.6112-34.2016 34.6112z" fill="#1C1D21" p-id="8359"></path><path d="M433.5616 114.688c-3.4816 0-6.7584-1.6384-8.6016-4.7104-3.072-4.7104-1.6384-11.0592 3.2768-14.1312 5.7344-3.6864 11.8784-6.9632 18.0224-9.8304 5.12-2.4576 11.264-0.2048 13.5168 5.12 2.4576 5.12 0.2048 11.264-5.12 13.5168-5.3248 2.4576-10.6496 5.3248-15.7696 8.6016-1.4336 1.024-3.2768 1.4336-5.3248 1.4336z" fill="#1C1D21" p-id="8360"></path><path d="M506.88 133.3248c-5.5296 0-10.0352-4.3008-10.24-9.8304-0.2048-5.7344 4.096-10.4448 9.8304-10.6496 1.8432 0 3.8912-0.2048 5.7344-0.2048 5.7344 0 10.24 4.5056 10.24 10.24s-4.5056 10.24-10.24 10.24c-1.6384 0-3.072 0-4.7104 0.2048h-0.6144zM404.8896 235.1104h-0.4096c-5.7344-0.2048-10.0352-5.12-9.8304-10.6496 2.2528-45.8752 31.5392-86.6304 74.752-103.6288 5.3248-2.048 11.264 0.6144 13.312 5.7344s-0.6144 11.264-5.7344 13.312c-35.84 14.1312-60.0064 47.7184-61.8496 85.6064-0.2048 5.3248-4.7104 9.6256-10.24 9.6256z" fill="#FFC5B3" p-id="8361"></path><path d="M460.5952 393.216v45.056c0 13.312 10.8544 23.9616 23.9616 23.9616h54.6816c13.312 0 23.9616-10.8544 23.9616-23.9616v-45.056h-102.6048z" fill="#AAADAD" p-id="8362"></path><path d="M539.2384 472.4736h-54.6816c-18.8416 0-34.2016-15.36-34.2016-34.2016v-45.056c0-5.7344 4.5056-10.24 10.24-10.24H563.2c5.7344 0 10.24 4.5056 10.24 10.24v45.056c0.2048 18.8416-15.1552 34.2016-34.2016 34.2016zM470.8352 403.456v34.816c0 7.5776 6.144 13.7216 13.7216 13.7216h54.6816c7.5776 0 13.7216-6.144 13.7216-13.7216v-34.816h-82.1248z" fill="#1C1D21" p-id="8363"></path><path d="M487.424 307.2m-24.576 0a24.576 24.576 0 1 0 49.152 0 24.576 24.576 0 1 0-49.152 0Z" fill="#FFC5B3" p-id="8364"></path><path d="M536.576 307.2m-24.576 0a24.576 24.576 0 1 0 49.152 0 24.576 24.576 0 1 0-49.152 0Z" fill="#FFC5B3" p-id="8365"></path><path d="M487.424 342.016c-19.2512 0-34.816-15.5648-34.816-34.816s15.5648-34.816 34.816-34.816 34.816 15.5648 34.816 34.816-15.5648 34.816-34.816 34.816z m0-49.152c-7.9872 0-14.336 6.3488-14.336 14.336s6.3488 14.336 14.336 14.336 14.336-6.3488 14.336-14.336-6.3488-14.336-14.336-14.336z" fill="#1C1D21" p-id="8366"></path><path d="M536.576 342.016c-19.2512 0-34.816-15.5648-34.816-34.816s15.5648-34.816 34.816-34.816 34.816 15.5648 34.816 34.816-15.5648 34.816-34.816 34.816z m0-49.152c-7.9872 0-14.336 6.3488-14.336 14.336s6.3488 14.336 14.336 14.336 14.336-6.3488 14.336-14.336-6.3488-14.336-14.336-14.336z" fill="#1C1D21" p-id="8367"></path><path d="M512 403.456c-5.7344 0-10.24-4.5056-10.24-10.24v-98.7136c0-5.7344 4.5056-10.24 10.24-10.24s10.24 4.5056 10.24 10.24V393.216c0 5.7344-4.5056 10.24-10.24 10.24zM512 633.856c-5.7344 0-10.24-4.5056-10.24-10.24v-159.5392c0-5.7344 4.5056-10.24 10.24-10.24s10.24 4.5056 10.24 10.24v159.5392c0 5.7344-4.5056 10.24-10.24 10.24z" fill="#1C1D21" p-id="8368"></path><path d="M672.1536 484.7616c-30.5152-18.432-66.3552-20.8896-93.3888-2.8672-27.0336 18.0224-38.5024 51.8144-33.1776 87.2448 30.5152 18.432 66.3552 20.8896 93.3888 2.8672 27.0336-18.0224 38.5024-52.0192 33.1776-87.2448z" fill="#0ABFB2" p-id="8369"></path><path d="M512 601.9072c-3.2768 0-6.5536-1.6384-8.6016-4.5056-3.072-4.7104-1.8432-11.0592 2.8672-14.1312l159.1296-106.2912c4.7104-3.072 11.0592-1.8432 14.1312 2.8672s1.8432 11.0592-2.8672 14.1312L517.7344 600.064c-1.8432 1.2288-3.6864 1.8432-5.7344 1.8432z" fill="#1C1D21" p-id="8370"></path><path d="M596.992 594.5344c-18.8416 0-38.2976-5.5296-56.7296-16.5888-2.6624-1.6384-4.3008-4.3008-4.9152-7.168-6.144-40.5504 8.192-77.824 37.6832-97.28 29.2864-19.6608 69.2224-18.6368 104.2432 2.6624 2.6624 1.6384 4.3008 4.3008 4.9152 7.168 6.144 40.5504-8.192 77.824-37.6832 97.28-13.9264 9.216-30.3104 13.9264-47.5136 13.9264z m-41.7792-31.744c27.0336 14.7456 56.5248 14.9504 78.0288 0.6144s32.5632-41.7792 29.2864-72.2944c-27.0336-14.7456-56.5248-14.9504-78.0288-0.6144s-32.5632 41.5744-29.2864 72.2944z" fill="#1C1D21" p-id="8371"></path><path d="M596.1728 545.792c-0.6144 0-1.2288 0-1.6384-0.2048-5.5296-1.024-9.4208-6.144-8.3968-11.8784l10.6496-63.6928c1.024-5.5296 6.144-9.4208 11.8784-8.3968 5.5296 1.024 9.4208 6.144 8.3968 11.8784l-10.6496 63.6928c-1.024 4.9152-5.3248 8.6016-10.24 8.6016z" fill="#1C1D21" p-id="8372"></path><path d="M659.0464 560.3328c-0.8192 0-1.6384 0-2.2528-0.2048l-62.8736-14.5408c-5.5296-1.2288-9.0112-6.7584-7.5776-12.288 1.2288-5.5296 6.7584-9.0112 12.288-7.5776l62.8736 14.5408c5.5296 1.2288 9.0112 6.7584 7.5776 12.288-1.2288 4.5056-5.5296 7.7824-10.0352 7.7824z" fill="#1C1D21" p-id="8373"></path><path d="M351.8464 484.7616c30.5152-18.432 66.3552-20.8896 93.3888-2.8672 27.0336 18.0224 38.5024 51.8144 33.1776 87.2448-30.5152 18.432-66.3552 20.8896-93.3888 2.8672-27.0336-18.0224-38.5024-52.0192-33.1776-87.2448z" fill="#0ABFB2" p-id="8374"></path><path d="M512 601.9072c-2.048 0-3.8912-0.6144-5.7344-1.6384l-159.1296-106.2912c-4.7104-3.072-5.9392-9.4208-2.8672-14.1312 3.072-4.7104 9.4208-5.9392 14.1312-2.8672l159.1296 106.2912c4.7104 3.072 5.9392 9.4208 2.8672 14.1312-1.8432 2.8672-5.12 4.5056-8.3968 4.5056z" fill="#1C1D21" p-id="8375"></path><path d="M427.008 594.5344c-17.2032 0-33.5872-4.7104-47.5136-13.9264-29.2864-19.6608-43.6224-56.9344-37.6832-97.28 0.4096-3.072 2.2528-5.7344 4.9152-7.168 35.0208-21.0944 74.9568-22.1184 104.2432-2.6624 29.2864 19.6608 43.6224 56.9344 37.6832 97.28-0.4096 3.072-2.2528 5.7344-4.9152 7.168-18.432 11.0592-38.0928 16.5888-56.7296 16.5888z m-65.536-103.424c-3.2768 30.5152 7.7824 57.9584 29.2864 72.2944 21.504 14.336 50.9952 13.9264 78.0288-0.6144 3.2768-30.5152-7.7824-57.9584-29.2864-72.2944-21.504-14.5408-50.9952-14.1312-78.0288 0.6144z" fill="#1C1D21" p-id="8376"></path><path d="M427.8272 545.792c-4.9152 0-9.216-3.4816-10.0352-8.6016l-10.6496-63.6928c-1.024-5.5296 2.8672-10.8544 8.3968-11.8784 5.5296-1.024 10.8544 2.8672 11.8784 8.3968l10.6496 63.6928c1.024 5.5296-2.8672 10.8544-8.3968 11.8784-0.6144 0-1.2288 0.2048-1.8432 0.2048z" fill="#1C1D21" p-id="8377"></path><path d="M364.9536 560.3328c-4.7104 0-8.8064-3.2768-10.0352-7.9872-1.2288-5.5296 2.048-11.0592 7.5776-12.288l62.8736-14.5408c5.5296-1.2288 11.0592 2.048 12.288 7.5776 1.2288 5.5296-2.048 11.0592-7.5776 12.288l-62.8736 14.5408c-0.6144 0.2048-1.4336 0.4096-2.2528 0.4096z" fill="#1C1D21" p-id="8378"></path></svg>