<svg xmlns="http://www.w3.org/2000/svg" viewBox="0 0 1024 1024" version="1.1"><path d="M512 512m-501.76 0a501.76 501.76 0 1 0 1003.52 0 501.76 501.76 0 1 0-1003.52 0Z" fill="#FFECE9" p-id="7915"></path><path d="M512 1024c-136.8064 0-265.4208-53.248-362.0864-149.9136S0 648.8064 0 512 53.248 246.5792 149.9136 149.9136 375.1936 0 512 0s265.4208 53.248 362.0864 149.9136S1024 375.1936 1024 512s-53.248 265.4208-149.9136 362.0864S648.8064 1024 512 1024z m0-1003.52C241.0496 20.48 20.48 241.0496 20.48 512s220.5696 491.52 491.52 491.52 491.52-220.5696 491.52-491.52S782.9504 20.48 512 20.48z" fill="#1C1D21" p-id="7916"></path><path d="M581.4272 283.4432m-177.5616 0a177.5616 177.5616 0 1 0 355.1232 0 177.5616 177.5616 0 1 0-355.1232 0Z" fill="#508DEF" p-id="7917"></path><path d="M666.2144 283.4432s-0.6144 51.6096-12.6976 93.7984c0 0 41.7792 16.384 50.9952 34.2016 0 0 58.7776-51.4048 49.152-128h-87.4496z" fill="#0ABFB2" p-id="7918"></path><path d="M581.4272 471.2448c-103.6288 0-187.8016-84.1728-187.8016-187.8016s84.1728-187.8016 187.8016-187.8016 187.8016 84.1728 187.8016 187.8016-84.1728 187.8016-187.8016 187.8016z m0-355.1232c-92.16 0-167.3216 75.1616-167.3216 167.3216s75.1616 167.3216 167.3216 167.3216 167.3216-75.1616 167.3216-167.3216-74.9568-167.3216-167.3216-167.3216z" fill="#1C1D21" p-id="7919"></path><path d="M569.1392 105.8816s-73.3184 1.6384-117.1456 56.1152c0 0 23.9616 26.0096 54.272 39.5264 0 0.2048 7.7824-77.6192 62.8736-95.6416zM581.4272 283.4432h-84.7872s-0.2048 60.2112 12.6976 93.7984c0 0 43.2128-20.2752 71.8848-15.1552v-78.6432zM656.7936 201.728s-37.2736 18.2272-75.1616 16.7936V111.616c-0.2048 0 49.5616-13.312 75.1616 90.112zM509.5424 377.2416s-37.6832 12.9024-50.9952 34.2016c0 0 50.3808 46.8992 105.2672 48.5376 0 0.2048-42.8032-20.0704-54.272-82.7392z" fill="#0ABFB2" p-id="7920"></path><path d="M581.4272 471.2448c-48.7424 0-94.8224-18.6368-130.048-52.4288-2.048-1.8432-3.072-4.5056-3.072-7.3728s1.2288-5.5296 3.072-7.3728c35.2256-33.792 81.3056-52.224 130.048-52.224 48.7424 0 94.8224 18.6368 130.048 52.224 2.048 1.8432 3.072 4.5056 3.072 7.3728s-1.2288 5.5296-3.072 7.3728c-35.0208 33.9968-81.3056 52.4288-130.048 52.4288zM473.9072 411.648c30.1056 25.3952 67.9936 39.3216 107.7248 39.3216s77.6192-13.9264 107.7248-39.3216c-30.1056-25.3952-67.9936-39.3216-107.7248-39.3216s-77.6192 13.9264-107.7248 39.3216z" fill="#1C1D21" p-id="7921"></path><path d="M581.4272 471.2448c-5.7344 0-10.24-4.5056-10.24-10.24V105.8816c0-5.7344 4.5056-10.24 10.24-10.24s10.24 4.5056 10.24 10.24v355.1232c0 5.7344-4.5056 10.24-10.24 10.24z" fill="#1C1D21" p-id="7922"></path><path d="M581.4272 471.2448c-53.248 0-95.0272-82.5344-95.0272-187.8016s41.7792-187.8016 95.0272-187.8016 95.0272 82.5344 95.0272 187.8016-41.5744 187.8016-95.0272 187.8016z m0-355.1232c-18.2272 0-36.6592 16.7936-50.7904 46.08-15.36 32.1536-23.7568 75.1616-23.7568 121.2416s8.3968 88.8832 23.7568 121.2416c13.9264 29.2864 32.5632 46.08 50.7904 46.08s36.6592-16.7936 50.7904-46.08c15.36-32.1536 23.7568-75.1616 23.7568-121.2416s-8.3968-88.8832-23.7568-121.2416c-13.9264-29.0816-32.5632-46.08-50.7904-46.08z" fill="#1C1D21" p-id="7923"></path><path d="M758.9888 293.6832H403.8656c-5.7344 0-10.24-4.5056-10.24-10.24s4.5056-10.24 10.24-10.24h355.1232c5.7344 0 10.24 4.5056 10.24 10.24s-4.5056 10.24-10.24 10.24zM581.4272 228.5568c-51.8144 0-101.5808-21.7088-137.0112-59.392-3.6864-3.8912-3.6864-10.0352 0-13.9264 35.4304-37.6832 85.4016-59.392 137.0112-59.392 51.8144 0 101.5808 21.7088 137.0112 59.392 3.6864 3.8912 3.6864 10.0352 0 13.9264-35.2256 37.6832-85.1968 59.392-137.0112 59.392z m-115.0976-66.3552c31.1296 29.696 71.68 45.8752 115.0976 45.8752s83.968-16.1792 115.0976-45.8752c-31.1296-29.696-71.68-45.8752-115.0976-45.8752s-83.968 16.1792-115.0976 45.8752z" fill="#1C1D21" p-id="7924"></path><path d="M238.486365 600.975527a172.2368 172.2368 0 1 0 243.575367-243.58387 172.2368 172.2368 0 1 0-243.575367 243.58387Z" fill="#8CEEF9" p-id="7925"></path><path d="M755.712 874.7008c-13.9264 13.9264-36.864 13.9264-50.7904 0L480.256 649.8304l50.7904-50.7904L755.712 823.9104c14.1312 14.1312 14.1312 36.864 0 50.7904z" fill="#C67552" p-id="7926"></path><path d="M554.5984 734.6176c-2.6624 0-5.3248-1.024-7.168-3.072l-5.5296-5.5296c-4.096-4.096-4.096-10.4448 0-14.5408s10.4448-4.096 14.5408 0l5.5296 5.5296c4.096 4.096 4.096 10.4448 0 14.5408-2.2528 2.048-4.7104 3.072-7.3728 3.072z" fill="#1C1D21" p-id="7927"></path><path d="M730.3168 895.3856c-11.8784 0-23.552-4.5056-32.5632-13.5168l-125.1328-125.1328c-4.096-4.096-4.096-10.4448 0-14.5408s10.4448-4.096 14.5408 0l125.1328 125.1328c10.0352 10.0352 26.2144 10.0352 36.2496 0 10.0352-10.0352 10.0352-26.2144 0-36.2496L531.0464 613.5808l-36.2496 36.2496 38.0928 38.0928c4.096 4.096 4.096 10.4448 0 14.5408s-10.4448 4.096-14.5408 0L473.088 657.2032c-1.8432-1.8432-3.072-4.5056-3.072-7.168s1.024-5.3248 3.072-7.168l50.7904-50.7904c4.096-4.096 10.4448-4.096 14.5408 0l224.8704 224.8704c18.0224 18.0224 18.0224 47.3088 0 65.3312-9.216 8.8064-21.0944 13.1072-32.9728 13.1072z" fill="#1C1D21" p-id="7928"></path><path d="M193.9456 312.9344c-91.9552 91.9552-91.9552 241.0496 0 333.2096 91.9552 91.9552 241.0496 91.9552 333.2096 0s91.9552-241.0496 0-333.2096c-91.9552-91.9552-241.2544-91.9552-333.2096 0z m288.768 288.768c-67.3792 67.3792-176.7424 67.3792-244.3264 0s-67.3792-176.7424 0-244.3264 176.7424-67.3792 244.3264 0 67.3792 176.7424 0 244.3264z" fill="#AAADAD" p-id="7929"></path><path d="M360.6528 725.1968c-62.8736 0-125.952-23.9616-173.8752-71.8848-49.3568-49.3568-75.3664-117.5552-71.68-187.1872 0.2048-5.7344 5.12-10.0352 10.8544-9.6256 5.7344 0.2048 10.0352 5.12 9.6256 10.8544-3.4816 63.8976 20.48 126.3616 65.7408 171.6224 87.8592 87.8592 230.8096 87.8592 318.6688 0 87.8592-87.8592 87.8592-230.8096 0-318.6688-87.8592-87.8592-230.8096-87.8592-318.6688 0-3.6864 3.6864-7.3728 7.7824-10.8544 11.6736-3.6864 4.3008-10.24 4.7104-14.5408 1.024-4.3008-3.6864-4.7104-10.24-1.024-14.5408 3.6864-4.3008 7.7824-8.6016 11.8784-12.6976 95.8464-95.8464 251.6992-95.8464 347.5456 0 95.8464 95.8464 95.8464 251.6992 0 347.5456-47.9232 47.9232-110.7968 71.8848-173.6704 71.8848z" fill="#1C1D21" p-id="7930"></path><path d="M130.048 441.344c-0.6144 0-1.4336 0-2.048-0.2048-5.5296-1.2288-9.0112-6.5536-7.9872-12.0832 1.8432-8.3968 3.8912-16.7936 6.5536-24.7808 1.6384-5.3248 7.5776-8.3968 12.9024-6.5536 5.3248 1.6384 8.3968 7.5776 6.5536 12.9024-2.4576 7.3728-4.5056 15.1552-5.9392 22.7328-1.024 4.7104-5.3248 7.9872-10.0352 7.9872zM149.0944 386.048c-1.4336 0-3.072-0.4096-4.5056-1.024-5.12-2.4576-7.168-8.6016-4.7104-13.7216 1.024-2.048 2.048-4.3008 3.2768-6.3488 2.6624-4.9152 8.8064-6.9632 13.9264-4.3008 4.9152 2.6624 6.9632 8.8064 4.3008 13.9264-1.024 1.8432-2.048 3.8912-3.072 5.9392-1.8432 3.4816-5.5296 5.5296-9.216 5.5296zM360.6528 662.528c-48.9472 0-94.8224-19.0464-129.4336-53.6576C196.608 574.2592 177.5616 528.384 177.5616 479.4368s19.0464-94.8224 53.6576-129.4336c34.6112-34.6112 80.4864-53.6576 129.4336-53.6576s94.8224 19.0464 129.4336 53.6576c34.6112 34.6112 53.6576 80.4864 53.6576 129.4336s-19.0464 94.8224-53.6576 129.4336c-34.6112 34.6112-80.6912 53.6576-129.4336 53.6576z m0-345.4976c-41.5744 0-83.1488 15.7696-114.8928 47.5136-63.488 63.488-63.488 166.5024 0 229.7856 63.2832 63.2832 166.5024 63.2832 229.7856 0 63.2832-63.2832 63.2832-166.5024 0-229.7856-31.744-31.5392-73.3184-47.5136-114.8928-47.5136z" fill="#1C1D21" p-id="7931"></path><path d="M261.7344 399.9744c-2.4576 0-4.9152-0.8192-6.9632-2.6624-4.096-3.8912-4.5056-10.24-0.6144-14.5408 1.6384-1.6384 3.072-3.4816 4.7104-5.12 4.096-4.096 10.4448-4.096 14.5408 0s4.096 10.4448 0 14.5408c-1.4336 1.4336-2.8672 2.8672-4.096 4.3008-2.048 2.4576-4.7104 3.4816-7.5776 3.4816zM266.24 584.0896c-2.6624 0-5.3248-1.024-7.168-3.072-27.2384-27.2384-42.1888-63.2832-42.1888-101.5808 0-24.576 6.144-48.7424 18.0224-69.8368 2.6624-4.9152 9.0112-6.7584 13.9264-3.8912 4.9152 2.6624 6.7584 9.0112 3.8912 13.9264-10.0352 18.2272-15.36 38.912-15.36 59.8016 0 32.9728 12.9024 63.8976 36.0448 87.04 4.096 4.096 4.096 10.4448 0 14.5408-2.048 2.048-4.5056 3.072-7.168 3.072z" fill="#DCFDFF" p-id="7932"></path><path d="M360.2432 431.104m-43.6224 0a43.6224 43.6224 0 1 0 87.2448 0 43.6224 43.6224 0 1 0-87.2448 0Z" fill="#FF9E5C" p-id="7933"></path><path d="M360.2432 484.9664c-29.696 0-53.8624-24.1664-53.8624-53.8624s24.1664-53.8624 53.8624-53.8624 53.8624 24.1664 53.8624 53.8624-24.1664 53.8624-53.8624 53.8624z m0-87.4496c-18.432 0-33.3824 14.9504-33.3824 33.3824s14.9504 33.3824 33.3824 33.3824 33.3824-14.9504 33.3824-33.3824-14.9504-33.3824-33.3824-33.3824z" fill="#1C1D21" p-id="7934"></path><path d="M355.7376 441.344c-5.7344 0-10.24-4.5056-10.24-10.24 0-8.192 6.5536-14.7456 14.7456-14.7456 5.7344 0 10.24 4.5056 10.24 10.24 0 3.8912-2.2528 7.3728-5.5296 9.216-1.8432 3.2768-5.3248 5.5296-9.216 5.5296z" fill="#FFC5B3" p-id="7935"></path><path d="M360.2432 363.1104c-5.7344 0-10.24-4.5056-10.24-10.24V348.16c0-5.7344 4.5056-10.24 10.24-10.24s10.24 4.5056 10.24 10.24v4.7104c0 5.7344-4.7104 10.24-10.24 10.24zM415.5392 386.048c-2.6624 0-5.3248-1.024-7.168-3.072-4.096-4.096-4.096-10.4448 0-14.5408l3.2768-3.2768c4.096-4.096 10.4448-4.096 14.5408 0s4.096 10.4448 0 14.5408l-3.2768 3.2768c-2.048 2.048-4.7104 3.072-7.3728 3.072zM301.4656 499.9168c-2.6624 0-5.3248-1.024-7.168-3.072-4.096-4.096-4.096-10.4448 0-14.5408l3.2768-3.2768c4.096-4.096 10.4448-4.096 14.5408 0s4.096 10.4448 0 14.5408l-3.2768 3.2768c-2.048 2.048-4.7104 3.072-7.3728 3.072zM443.1872 441.344h-4.7104c-5.7344 0-10.24-4.5056-10.24-10.24s4.5056-10.24 10.24-10.24h4.7104c5.7344 0 10.24 4.5056 10.24 10.24s-4.7104 10.24-10.24 10.24zM282.0096 441.344h-4.7104c-5.7344 0-10.24-4.5056-10.24-10.24s4.5056-10.24 10.24-10.24h4.7104c5.7344 0 10.24 4.5056 10.24 10.24s-4.7104 10.24-10.24 10.24zM418.816 499.9168c-2.6624 0-5.3248-1.024-7.168-3.072l-3.2768-3.2768c-4.096-4.096-4.096-10.4448 0-14.5408s10.4448-4.096 14.5408 0l3.2768 3.2768c4.096 4.096 4.096 10.4448 0 14.5408-2.048 2.048-4.7104 3.072-7.3728 3.072zM304.9472 386.048c-2.6624 0-5.3248-1.024-7.168-3.072l-3.2768-3.2768c-4.096-4.096-4.096-10.4448 0-14.5408s10.4448-4.096 14.5408 0l3.2768 3.2768c4.096 4.096 4.096 10.4448 0 14.5408-2.2528 2.048-4.9152 3.072-7.3728 3.072zM360.2432 621.1584c-5.7344 0-10.24-4.5056-10.24-10.24v-136.192c0-5.7344 4.5056-10.24 10.24-10.24s10.24 4.5056 10.24 10.24v136.192c0 5.7344-4.7104 10.24-10.24 10.24z" fill="#1C1D21" p-id="7936"></path><path d="M306.9952 519.3728c14.1312-3.6864 29.696-0.2048 40.7552 10.8544 11.0592 11.0592 14.7456 26.8288 10.8544 40.7552-14.1312 3.6864-29.696 0.2048-40.7552-10.8544-11.0592-10.8544-14.5408-26.624-10.8544-40.7552z" fill="#0ABFB2" p-id="7937"></path><path d="M347.9552 582.8608c-13.7216 0-27.2384-5.3248-37.2736-15.36-13.1072-13.1072-18.432-32.5632-13.5168-50.7904 1.024-3.4816 3.6864-6.3488 7.168-7.168 18.0224-4.9152 37.4784 0.4096 50.7904 13.5168 13.1072 13.1072 18.432 32.5632 13.5168 50.7904-1.024 3.4816-3.6864 6.3488-7.168 7.168-4.5056 1.2288-9.0112 1.8432-13.5168 1.8432zM315.8016 528.384c-0.6144 9.0112 2.6624 18.2272 9.216 24.7808 6.5536 6.5536 15.5648 9.8304 24.7808 9.216 0.6144-9.0112-2.6624-18.2272-9.216-24.7808-6.5536-6.5536-15.5648-9.8304-24.7808-9.216z" fill="#1C1D21" p-id="7938"></path><path d="M361.6768 571.1872c14.1312 3.6864 29.696 0.2048 40.7552-10.8544 11.0592-11.0592 14.7456-26.8288 10.8544-40.7552-14.1312-3.6864-29.696-0.2048-40.7552 10.8544-11.0592 11.0592-14.7456 26.624-10.8544 40.7552z" fill="#0ABFB2" p-id="7939"></path><path d="M372.5312 582.8608c-4.5056 0-9.0112-0.6144-13.5168-1.8432-3.4816-1.024-6.3488-3.6864-7.168-7.168-4.9152-18.0224 0.4096-37.4784 13.5168-50.7904 13.1072-13.1072 32.5632-18.432 50.7904-13.5168 3.4816 1.024 6.3488 3.6864 7.168 7.168 4.9152 18.0224-0.4096 37.4784-13.5168 50.7904-10.0352 10.0352-23.552 15.36-37.2736 15.36z m-2.048-20.48c9.0112 0.6144 18.2272-2.6624 24.7808-9.216 6.5536-6.5536 9.8304-15.5648 9.216-24.7808-9.216-0.6144-18.2272 2.6624-24.7808 9.216-6.3488 6.5536-9.8304 15.5648-9.216 24.7808z" fill="#1C1D21" p-id="7940"></path></svg>