<svg xmlns="http://www.w3.org/2000/svg" viewBox="0 0 1024 1024" version="1.1"><path d="M512 512m-501.76 0a501.76 501.76 0 1 0 1003.52 0 501.76 501.76 0 1 0-1003.52 0Z" fill="#FFECE9" p-id="10089"></path><path d="M512 1024c-136.8064 0-265.4208-53.248-362.0864-149.9136C53.248 777.4208 0 648.8064 0 512S53.248 246.5792 149.9136 149.9136C246.5792 53.248 375.1936 0 512 0s265.4208 53.248 362.0864 149.9136C970.752 246.5792 1024 375.1936 1024 512s-53.248 265.4208-149.9136 362.0864C777.4208 970.752 648.8064 1024 512 1024z m0-1003.52C241.0496 20.48 20.48 241.0496 20.48 512s220.5696 491.52 491.52 491.52 491.52-220.5696 491.52-491.52S782.9504 20.48 512 20.48z" fill="#1C1D21" p-id="10090"></path><path d="M976.0768 703.0784l-69.8368-32.1536c-137.6256-63.488-254.5664-164.6592-336.896-291.84h-114.688c-82.3296 127.1808-199.2704 228.352-336.896 291.84l-69.8368 32.1536C123.0848 885.3504 302.4896 1013.76 512 1013.76s388.9152-128.4096 464.0768-310.6816z" fill="#C67552" p-id="10091"></path><path d="M512 1024c-103.424 0-203.1616-30.72-288.1536-88.6784-83.1488-56.7296-147.2512-135.7824-185.344-228.352-2.048-5.12 0.2048-10.8544 5.12-13.1072l69.8368-32.1536c136.192-62.6688 251.0848-162.2016 332.5952-287.9488 1.8432-2.8672 5.12-4.7104 8.6016-4.7104h114.688c3.4816 0 6.7584 1.8432 8.6016 4.7104 81.5104 125.7472 196.608 225.28 332.5952 287.9488l69.8368 32.1536c3.6864 1.6384 5.9392 5.3248 5.9392 9.216 0 1.4336-0.2048 2.6624-0.8192 3.8912-38.2976 92.5696-102.4 171.6224-185.344 228.1472C714.9568 993.28 615.424 1024 512 1024zM61.2352 708.1984C139.4688 888.0128 315.392 1003.52 512 1003.52s372.5312-115.5072 450.7648-295.3216l-60.8256-28.0576c-138.0352-63.488-254.7712-164.0448-338.1248-290.816h-103.6288c-83.3536 126.7712-200.2944 227.328-338.1248 290.816l-60.8256 28.0576z" fill="#1C1D21" p-id="10092"></path><path d="M636.928 468.7872c-0.2048-0.2048-0.2048-0.4096-0.4096-0.4096-3.6864-4.3008-7.3728-8.6016-10.8544-12.9024-0.8192-1.024-1.6384-1.8432-2.4576-2.8672-2.8672-3.4816-5.7344-7.168-8.6016-10.6496-0.8192-1.024-1.6384-2.048-2.4576-3.2768-2.8672-3.6864-5.7344-7.3728-8.3968-11.0592-1.4336-1.8432-2.8672-3.6864-4.096-5.5296l-0.4096-0.4096c-19.456-26.0096-29.696-57.9584-29.9008-90.5216l-0.4096-124.3136h-113.664v123.4944c0 32.768-10.6496 64.9216-30.1056 91.3408-0.2048 0.2048-0.2048 0.4096-0.4096 0.4096-1.4336 1.8432-2.8672 3.6864-4.096 5.5296l-8.6016 11.0592c-0.8192 1.2288-1.8432 2.2528-2.6624 3.4816-2.6624 3.4816-5.5296 6.9632-8.3968 10.4448-0.8192 1.024-1.6384 1.8432-2.2528 2.8672-3.6864 4.3008-7.168 8.6016-11.0592 12.9024-0.2048 0.2048-0.2048 0.4096-0.4096 0.4096-7.9872 9.216-16.1792 18.2272-24.7808 27.2384h2.4576v77.0048c0 16.5888 12.6976 30.72 29.0816 31.5392 17.6128 0.8192 32.1536-13.1072 32.1536-30.5152v-65.9456c0-14.9504 11.4688-27.648 26.2144-28.4672 15.9744-0.8192 29.0816 11.8784 29.0816 27.648v130.6624c0 16.9984 13.7216 30.72 30.72 30.72s30.72-13.7216 30.72-30.72V507.904c0-14.9504 11.4688-27.648 26.2144-28.4672 15.9744-0.8192 29.0816 11.8784 29.0816 27.648v65.7408c0 16.5888 12.6976 30.72 29.0816 31.5392 17.6128 0.8192 32.1536-13.1072 32.1536-30.5152v-77.824h2.4576c-8.8064-8.8064-16.9984-17.8176-24.9856-27.2384z" fill="#FF3E63" p-id="10093"></path><path d="M569.1392 331.1616l-0.4096-124.1088h-113.664V331.1616h114.0736z" fill="#FF8939" p-id="10094"></path><path d="M455.0656 274.2272c-5.7344 0-10.24-4.5056-10.24-10.24v-2.8672c0-5.5296-4.5056-10.24-10.24-10.24-5.5296 0-10.24 4.5056-10.24 10.24s-4.5056 10.24-10.24 10.24-10.24-4.5056-10.24-10.24c0-16.7936 13.7216-30.72 30.72-30.72s30.72 13.7216 30.72 30.72v2.8672c0 5.7344-4.5056 10.24-10.24 10.24z" fill="#1C1D21" p-id="10095"></path><path d="M455.0656 279.1424c-5.7344 0-10.24-4.5056-10.24-10.24V200.704c0-5.5296-4.5056-10.24-10.24-10.24-5.5296 0-10.24 4.5056-10.24 10.24s-4.5056 10.24-10.24 10.24-10.24-4.5056-10.24-10.24c0-16.7936 13.7216-30.72 30.72-30.72s30.72 13.7216 30.72 30.72v68.1984c0 5.7344-4.5056 10.24-10.24 10.24zM568.9344 274.2272c-5.7344 0-10.24-4.5056-10.24-10.24v-2.8672c0-16.7936 13.7216-30.72 30.72-30.72s30.72 13.7216 30.72 30.72c0 5.7344-4.5056 10.24-10.24 10.24s-10.24-4.5056-10.24-10.24c0-5.5296-4.5056-10.24-10.24-10.24-5.5296 0-10.24 4.5056-10.24 10.24v2.8672c0 5.7344-4.7104 10.24-10.24 10.24z" fill="#1C1D21" p-id="10096"></path><path d="M568.9344 279.1424c-5.7344 0-10.24-4.5056-10.24-10.24V200.704c0-16.7936 13.7216-30.72 30.72-30.72s30.72 13.7216 30.72 30.72c0 5.7344-4.5056 10.24-10.24 10.24s-10.24-4.5056-10.24-10.24c0-5.5296-4.5056-10.24-10.24-10.24-5.5296 0-10.24 4.5056-10.24 10.24v68.1984c0 5.7344-4.7104 10.24-10.24 10.24z" fill="#1C1D21" p-id="10097"></path><path d="M512 1013.76c161.3824 0 304.7424-76.1856 396.6976-194.56-7.3728-2.6624-15.36-4.3008-23.552-4.3008-20.8896 0-39.5264 9.6256-51.8144 24.576-12.288-14.9504-30.9248-24.576-51.8144-24.576-20.8896 0-39.5264 9.6256-51.8144 24.576-12.288-14.9504-30.9248-24.576-51.8144-24.576s-39.5264 9.6256-51.8144 24.576c-12.288-14.9504-30.9248-24.576-51.8144-24.576-20.8896 0-39.5264 9.6256-51.8144 24.576-12.288-14.9504-30.9248-24.576-51.8144-24.576s-39.5264 9.6256-51.8144 24.576c-12.288-14.9504-30.9248-24.576-51.8144-24.576-20.8896 0-39.5264 9.6256-51.8144 24.576-12.288-14.9504-30.9248-24.576-51.8144-24.576s-39.5264 9.6256-51.8144 24.576c-12.288-14.9504-30.9248-24.576-51.8144-24.576-13.9264 0-26.8288 4.3008-37.4784 11.4688C212.992 940.6464 353.8944 1013.76 512 1013.76z" fill="#0ABFB2" p-id="10098"></path><path d="M512 1024c-155.648 0-301.056-69.632-398.9504-191.0784-1.8432-2.2528-2.6624-5.12-2.048-7.9872 0.4096-2.8672 2.048-5.3248 4.3008-6.9632 12.6976-8.6016 27.648-13.312 43.2128-13.312 19.456 0 37.6832 7.168 51.8144 20.0704 14.1312-12.9024 32.5632-20.0704 51.8144-20.0704s37.6832 7.168 51.8144 20.0704c14.1312-12.9024 32.5632-20.0704 51.8144-20.0704s37.6832 7.168 51.8144 20.0704c14.1312-12.9024 32.5632-20.0704 51.8144-20.0704s37.6832 7.168 51.8144 20.0704c14.1312-12.9024 32.5632-20.0704 51.8144-20.0704s37.6832 7.168 51.8144 20.0704c14.1312-12.9024 32.5632-20.0704 51.8144-20.0704s37.6832 7.168 51.8144 20.0704c14.1312-12.9024 32.5632-20.0704 51.8144-20.0704s37.6832 7.168 51.8144 20.0704c14.1312-12.9024 32.5632-20.0704 51.8144-20.0704 9.4208 0 18.432 1.6384 27.2384 4.9152 3.072 1.2288 5.3248 3.6864 6.3488 6.7584 0.8192 3.072 0.2048 6.5536-1.8432 9.0112-46.8992 60.416-107.52 110.3872-175.7184 144.384-70.4512 36.0448-147.456 54.272-227.9424 54.272zM136.8064 829.6448C230.6048 940.2368 366.592 1003.52 512 1003.52c147.6608 0 284.672-64.7168 378.4704-177.9712-1.8432-0.2048-3.6864-0.2048-5.5296-0.2048-16.9984 0-33.1776 7.5776-44.032 20.8896-2.048 2.4576-4.9152 3.6864-7.9872 3.6864s-5.9392-1.4336-7.9872-3.6864c-10.8544-13.312-26.8288-20.8896-44.032-20.8896-16.9984 0-33.1776 7.5776-44.032 20.8896-2.048 2.4576-4.9152 3.6864-7.9872 3.6864s-5.9392-1.4336-7.9872-3.6864c-10.8544-13.312-26.8288-20.8896-44.032-20.8896s-33.1776 7.5776-44.032 20.8896c-1.8432 2.4576-4.9152 3.6864-7.9872 3.6864s-5.9392-1.4336-7.9872-3.6864c-10.8544-13.312-26.8288-20.8896-44.032-20.8896-16.9984 0-33.1776 7.5776-44.032 20.8896-2.048 2.4576-4.9152 3.6864-7.9872 3.6864s-5.9392-1.4336-7.9872-3.6864c-10.8544-13.312-26.8288-20.8896-44.032-20.8896-16.9984 0-33.1776 7.5776-44.032 20.8896-1.8432 2.4576-4.9152 3.6864-7.9872 3.6864s-5.9392-1.4336-7.9872-3.6864c-10.8544-13.312-26.8288-20.8896-44.032-20.8896-16.9984 0-33.1776 7.5776-44.032 20.8896-1.8432 2.4576-4.9152 3.6864-7.9872 3.6864s-5.9392-1.4336-7.9872-3.6864c-10.8544-13.312-26.8288-20.8896-44.032-20.8896-16.9984 0-33.1776 7.5776-44.032 20.8896-1.8432 2.4576-4.9152 3.6864-7.9872 3.6864s-5.9392-1.4336-7.9872-3.6864c-10.8544-13.312-26.8288-20.8896-44.032-20.8896-5.5296 0-12.9024 1.4336-19.8656 4.3008z" fill="#1C1D21" p-id="10099"></path><path d="M803.84 878.7968c-2.8672 0-5.9392-1.2288-7.9872-3.6864l-2.4576-2.8672c-3.072-3.6864-7.5776-5.9392-12.288-5.9392s-9.216 2.048-12.288 5.9392c-3.4816 4.3008-10.0352 5.12-14.336 1.4336-4.3008-3.4816-5.12-10.0352-1.4336-14.336 6.9632-8.3968 17.2032-13.312 28.0576-13.312s21.0944 4.9152 28.0576 13.312l2.4576 2.8672c3.6864 4.3008 2.8672 10.8544-1.4336 14.336-1.8432 1.4336-4.096 2.2528-6.3488 2.2528zM697.7536 875.7248c-2.8672 0-5.9392-1.2288-7.9872-3.6864-3.072-3.6864-7.5776-5.9392-12.288-5.9392s-9.216 2.048-12.288 5.9392c-3.6864 4.3008-10.0352 5.12-14.336 1.4336-4.3008-3.6864-4.9152-10.0352-1.4336-14.336 6.9632-8.3968 17.2032-13.312 28.0576-13.312 10.8544 0 21.0944 4.9152 28.0576 13.312 3.6864 4.3008 2.8672 10.8544-1.4336 14.336-1.8432 1.6384-4.096 2.2528-6.3488 2.2528zM593.92 875.7248c-2.8672 0-5.9392-1.2288-7.9872-3.6864-3.072-3.6864-7.5776-5.9392-12.288-5.9392s-9.216 2.048-12.288 5.9392c-3.4816 4.3008-10.0352 5.12-14.336 1.4336-4.3008-3.4816-5.12-10.0352-1.4336-14.336 6.9632-8.3968 17.2032-13.312 28.0576-13.312s21.0944 4.9152 28.0576 13.312c3.6864 4.3008 2.8672 10.8544-1.4336 14.336-1.8432 1.6384-4.096 2.2528-6.3488 2.2528zM449.7408 875.7248c-2.2528 0-4.5056-0.8192-6.5536-2.2528-4.3008-3.6864-5.12-10.0352-1.4336-14.336 6.9632-8.3968 17.2032-13.312 28.0576-13.312 10.8544 0 21.0944 4.9152 28.0576 13.312 3.6864 4.3008 2.8672 10.8544-1.4336 14.336-4.3008 3.6864-10.8544 2.8672-14.336-1.4336-3.072-3.6864-7.5776-5.9392-12.288-5.9392s-9.216 2.048-12.288 5.9392c-1.8432 2.4576-4.9152 3.6864-7.7824 3.6864zM386.2528 875.7248c-2.8672 0-5.9392-1.2288-7.9872-3.6864-3.072-3.6864-7.5776-5.9392-12.288-5.9392s-9.216 2.048-12.288 5.9392c-3.4816 4.3008-10.0352 5.12-14.336 1.4336-4.3008-3.4816-5.12-10.0352-1.4336-14.336 6.9632-8.3968 17.2032-13.312 28.0576-13.312s21.0944 4.9152 28.0576 13.312c3.6864 4.3008 2.8672 10.8544-1.4336 14.336-1.6384 1.6384-3.8912 2.2528-6.3488 2.2528zM282.624 875.7248c-2.8672 0-5.9392-1.2288-7.9872-3.6864-3.072-3.6864-7.5776-5.9392-12.288-5.9392s-9.216 2.048-12.288 5.9392c-3.4816 4.3008-10.0352 5.12-14.336 1.4336-4.3008-3.4816-5.12-10.0352-1.4336-14.336 6.9632-8.3968 17.2032-13.312 28.0576-13.312s21.0944 4.9152 28.0576 13.312c3.6864 4.3008 2.8672 10.8544-1.4336 14.336-1.8432 1.6384-4.096 2.2528-6.3488 2.2528z" fill="#5AFFDF" p-id="10100"></path><path d="M545.792 295.5264c-8.192 11.8784-13.9264 24.3712-16.7936 37.2736-2.8672-12.6976-8.3968-25.3952-16.7936-37.2736-8.192 11.8784-13.9264 24.3712-16.7936 37.2736-2.8672-12.6976-8.3968-25.3952-16.7936-37.2736-12.4928 18.0224-19.0464 37.4784-19.0464 57.1392h105.2672c0-19.6608-6.5536-39.1168-19.0464-57.1392z" fill="#FF3E63" p-id="10101"></path><path d="M512 678.912c-22.528 0-40.96-18.432-40.96-40.96v-130.6624c0-4.7104-1.8432-9.216-5.3248-12.6976-3.4816-3.2768-8.192-5.12-12.9024-4.7104-9.216 0.4096-16.5888 8.6016-16.5888 18.2272v65.9456c0 11.264-4.5056 21.7088-12.6976 29.4912-8.192 7.7824-18.8416 11.6736-30.1056 11.264-21.9136-1.024-38.912-19.2512-38.912-41.7792v-70.2464c-0.6144-0.8192-1.2288-1.6384-1.6384-2.6624-1.6384-3.6864-0.8192-8.192 2.048-11.0592 8.192-8.6016 16.384-17.6128 24.3712-26.8288l0.4096-0.4096c3.4816-4.096 6.9632-8.192 10.8544-12.9024 0.8192-1.024 1.4336-1.8432 2.2528-2.8672 2.8672-3.4816 5.5296-6.7584 8.192-10.24l2.6624-3.4816c2.8672-3.6864 5.7344-7.3728 8.3968-11.0592 1.4336-1.8432 2.6624-3.6864 4.096-5.5296l0.4096-0.4096c18.2272-24.3712 28.2624-54.6816 28.2624-85.1968v-89.9072c0-5.7344 4.5056-10.24 10.24-10.24s10.24 4.5056 10.24 10.24v89.9072c0 34.816-11.4688 69.4272-32.1536 97.28l-0.4096 0.4096c-1.4336 1.8432-2.8672 3.8912-4.3008 5.7344-2.8672 3.6864-5.7344 7.5776-8.6016 11.264l-2.6624 3.4816-8.6016 10.4448c-0.8192 1.024-1.6384 1.8432-2.4576 2.8672-3.8912 4.7104-7.5776 9.0112-11.0592 13.1072l-0.2048 0.4096-0.2048 0.2048c-6.3488 7.3728-13.1072 14.7456-19.6608 21.9136v75.5712c0 11.264 8.6016 20.6848 19.456 21.2992 5.7344 0.2048 11.0592-1.6384 15.1552-5.5296 4.096-3.8912 6.3488-9.216 6.3488-14.7456V507.904c0-20.6848 15.7696-37.6832 36.0448-38.7072 10.4448-0.4096 20.48 3.2768 28.0576 10.4448 7.5776 7.168 11.6736 16.9984 11.6736 27.4432v130.6624c0 11.264 9.216 20.48 20.48 20.48s20.48-9.216 20.48-20.48v-130.048c0-20.6848 15.7696-37.6832 36.0448-38.7072 10.4448-0.4096 20.48 3.2768 28.0576 10.4448 7.5776 7.168 11.6736 16.9984 11.6736 27.4432v65.7408c0 11.264 8.6016 20.6848 19.456 21.2992 5.5296 0.2048 11.0592-1.6384 15.1552-5.5296 4.096-3.8912 6.3488-9.216 6.3488-14.7456v-76.3904c-6.7584-7.168-13.312-14.5408-19.8656-21.9136l-0.8192-0.2048c-3.4816-3.8912-7.168-8.192-11.0592-13.1072l-2.4576-2.8672c-2.8672-3.6864-5.9392-7.168-8.8064-10.8544l-2.6624-3.2768-8.6016-11.0592-4.3008-5.5296-0.4096-0.4096c-20.48-27.4432-31.744-61.8496-31.744-96.4608l-0.4096-90.9312c0-5.7344 4.5056-10.24 10.24-10.24s10.24 4.5056 10.24 10.24l0.4096 90.9312c0 30.5152 10.0352 60.416 27.8528 84.3776l0.4096 0.4096c1.2288 1.8432 2.6624 3.6864 4.096 5.3248 2.6624 3.6864 5.5296 7.168 8.3968 10.8544l2.4576 3.2768c2.8672 3.4816 5.7344 6.9632 8.6016 10.6496l2.2528 2.8672c3.8912 4.7104 7.3728 8.8064 10.8544 12.6976l0.4096 0.4096c7.9872 9.216 16.1792 18.2272 24.3712 26.8288 2.8672 2.8672 3.6864 7.3728 2.048 11.0592-0.4096 1.024-1.024 1.8432-1.6384 2.6624v71.2704c0 11.264-4.5056 21.7088-12.6976 29.4912-8.192 7.7824-18.8416 11.6736-30.1056 11.264-21.9136-1.024-38.912-19.2512-38.912-41.7792v-65.7408c0-4.7104-1.8432-9.216-5.3248-12.6976-3.4816-3.2768-7.9872-5.12-12.9024-4.7104-9.216 0.4096-16.5888 8.6016-16.5888 18.2272v130.048c0.2048 22.1184-18.2272 40.5504-40.7552 40.5504zM475.7504 164.2496c-5.7344 0-10.24-4.5056-10.24-10.24v-18.0224c0-27.8528-22.7328-50.5856-50.5856-50.5856-5.7344 0-10.24-4.5056-10.24-10.24s4.5056-10.24 10.24-10.24c39.3216 0 71.0656 31.9488 71.0656 71.0656v18.0224c0 5.7344-4.5056 10.24-10.24 10.24zM548.2496 164.2496c-5.7344 0-10.24-4.5056-10.24-10.24v-18.0224c0-39.3216 31.9488-71.0656 71.0656-71.0656 5.7344 0 10.24 4.5056 10.24 10.24s-4.5056 10.24-10.24 10.24c-27.8528 0-50.5856 22.7328-50.5856 50.5856v18.0224c0 5.7344-4.7104 10.24-10.24 10.24zM512 164.2496c-5.7344 0-10.24-4.5056-10.24-10.24V93.184c0-5.7344 4.5056-10.24 10.24-10.24s10.24 4.5056 10.24 10.24v60.8256c0 5.7344-4.7104 10.24-10.24 10.24zM512 70.0416c-5.7344 0-10.24-4.5056-10.24-10.24v-7.5776c0-5.7344 4.5056-10.24 10.24-10.24s10.24 4.5056 10.24 10.24v7.5776c0 5.7344-4.7104 10.24-10.24 10.24zM318.0544 212.1728c-5.7344 0-10.24-4.5056-10.24-10.24 0-39.3216 31.9488-71.0656 71.0656-71.0656h18.0224c5.7344 0 10.24 4.5056 10.24 10.24s-4.5056 10.24-10.24 10.24H378.88c-27.8528 0-50.5856 22.7328-50.5856 50.5856 0 5.7344-4.5056 10.24-10.24 10.24zM318.0544 262.5536c-5.7344 0-10.24-4.5056-10.24-10.24v-11.6736c0-5.7344 4.5056-10.24 10.24-10.24s10.24 4.5056 10.24 10.24v11.6736c0 5.7344-4.5056 10.24-10.24 10.24zM705.9456 212.1728c-5.7344 0-10.24-4.5056-10.24-10.24 0-27.8528-22.7328-50.5856-50.5856-50.5856h-18.0224c-5.7344 0-10.24-4.5056-10.24-10.24s4.5056-10.24 10.24-10.24h18.0224c39.3216 0 71.0656 31.9488 71.0656 71.0656 0 5.7344-4.5056 10.24-10.24 10.24zM705.9456 262.5536c-5.7344 0-10.24-4.5056-10.24-10.24v-11.6736c0-5.7344 4.5056-10.24 10.24-10.24s10.24 4.5056 10.24 10.24v11.6736c0 5.7344-4.5056 10.24-10.24 10.24z" fill="#1C1D21" p-id="10102"></path><path d="M514.2528 774.5536h-4.5056c-15.7696 0-28.4672-12.6976-28.4672-28.4672s12.6976-28.4672 28.4672-28.4672h4.5056c15.7696 0 28.4672 12.6976 28.4672 28.4672s-12.9024 28.4672-28.4672 28.4672z" fill="#FF3E63" p-id="10103"></path><path d="M514.2528 784.7936h-4.5056c-21.2992 0-38.7072-17.408-38.7072-38.7072s17.408-38.7072 38.7072-38.7072h4.5056c21.2992 0 38.7072 17.408 38.7072 38.7072s-17.408 38.7072-38.7072 38.7072z m-4.5056-56.9344c-10.0352 0-18.2272 8.192-18.2272 18.2272s8.192 18.2272 18.2272 18.2272h4.5056c10.0352 0 18.2272-8.192 18.2272-18.2272s-8.192-18.2272-18.2272-18.2272h-4.5056z" fill="#1C1D21" p-id="10104"></path><path d="M395.0592 707.584h-4.5056c-15.7696 0-28.4672-12.6976-28.4672-28.4672s12.6976-28.4672 28.4672-28.4672h4.5056c15.7696 0 28.4672 12.6976 28.4672 28.4672s-12.6976 28.4672-28.4672 28.4672z" fill="#FF3E63" p-id="10105"></path><path d="M395.0592 717.824h-4.5056c-21.2992 0-38.7072-17.408-38.7072-38.7072s17.408-38.7072 38.7072-38.7072h4.5056c21.2992 0 38.7072 17.408 38.7072 38.7072s-17.2032 38.7072-38.7072 38.7072z m-4.3008-56.7296c-10.0352 0-18.2272 8.192-18.2272 18.2272s8.192 18.2272 18.2272 18.2272h4.5056c10.0352 0 18.2272-8.192 18.2272-18.2272s-8.192-18.2272-18.2272-18.2272h-4.5056z" fill="#1C1D21" p-id="10106"></path><path d="M633.2416 707.584H628.736c-15.7696 0-28.4672-12.6976-28.4672-28.4672s12.6976-28.4672 28.4672-28.4672h4.5056c15.7696 0 28.4672 12.6976 28.4672 28.4672s-12.9024 28.4672-28.4672 28.4672z" fill="#FF3E63" p-id="10107"></path><path d="M633.2416 717.824H628.736c-21.2992 0-38.7072-17.408-38.7072-38.7072s17.408-38.7072 38.7072-38.7072h4.5056c21.2992 0 38.7072 17.408 38.7072 38.7072s-17.408 38.7072-38.7072 38.7072z m-4.5056-56.7296c-10.0352 0-18.2272 8.192-18.2272 18.2272s8.192 18.2272 18.2272 18.2272h4.5056c10.0352 0 18.2272-8.192 18.2272-18.2272s-8.192-18.2272-18.2272-18.2272H628.736z" fill="#1C1D21" p-id="10108"></path><path d="M304.5376 614.1952c-3.072 0-5.9392-1.4336-7.9872-3.8912-3.4816-4.5056-2.6624-10.8544 1.6384-14.336 4.5056-3.4816 8.8064-7.168 13.312-10.6496 4.3008-3.6864 10.8544-3.072 14.336 1.4336 3.6864 4.3008 3.072 10.8544-1.4336 14.336l-13.5168 11.0592c-1.8432 1.4336-4.096 2.048-6.3488 2.048zM102.4 733.3888c-3.8912 0-7.5776-2.2528-9.216-5.9392-2.4576-5.12-0.2048-11.264 5.12-13.5168l32.5632-14.9504c42.5984-19.6608 83.5584-42.8032 121.856-69.0176 4.7104-3.2768 11.0592-2.048 14.336 2.6624 3.2768 4.7104 2.048 11.0592-2.6624 14.336-39.3216 26.8288-81.3056 50.5856-124.928 70.656L106.496 732.3648c-1.2288 0.6144-2.6624 1.024-4.096 1.024z" fill="#FFA364" p-id="10109"></path><path d="M506.2656 244.3264v-2.048c0-5.3248-3.8912-10.0352-9.216-10.6496-6.144-0.6144-11.264 4.3008-11.264 10.24v2.4576c0 5.7344 4.5056 10.24 10.24 10.24s10.24-4.5056 10.24-10.24zM496.0256 270.336c-5.7344 0-10.24 4.5056-10.24 10.24v49.9712c0 39.3216-12.9024 78.2336-36.2496 109.568l-0.2048 0.2048c-3.2768 4.5056-2.8672 10.8544 1.4336 14.336 1.8432 1.6384 4.096 2.2528 6.5536 2.2528 3.072 0 6.144-1.4336 8.192-4.096l0.4096-0.6144c26.0096-35.0208 40.3456-78.2336 40.3456-121.856V280.576c0-5.7344-4.5056-10.24-10.24-10.24z" fill="#FFC9A4" p-id="10110"></path><path d="M495.4112 332.8c-1.8432-8.6016-5.12-16.9984-9.4208-25.3952v23.1424c0 7.3728-0.4096 14.7456-1.4336 22.1184-3.8912 31.5392-15.9744 61.8496-34.816 87.4496l-0.4096 0.6144c-3.2768 4.5056-2.4576 10.8544 2.048 14.336 1.8432 1.4336 3.8912 2.048 6.144 2.048 3.072 0 6.144-1.4336 8.192-4.096l0.4096-0.6144c21.504-29.0816 35.0208-63.6928 39.1168-99.5328 0.8192-7.3728 1.2288-14.7456 1.2288-22.1184v-25.8048c-5.3248 8.8064-9.0112 18.2272-11.0592 27.8528z" fill="#FFAEC3" p-id="10111"></path></svg>