<svg xmlns="http://www.w3.org/2000/svg" viewBox="0 0 1024 1024" version="1.1"><path d="M512 512m-501.76 0a501.76 501.76 0 1 0 1003.52 0 501.76 501.76 0 1 0-1003.52 0Z" fill="#FFECE9" p-id="9737"></path><path d="M512 223.232m-144.1792 0a144.1792 144.1792 0 1 0 288.3584 0 144.1792 144.1792 0 1 0-288.3584 0Z" fill="#FF9E5C" p-id="9738"></path><path d="M1013.76 512H10.24c0 277.0944 224.6656 501.76 501.76 501.76s501.76-224.6656 501.76-501.76z" fill="#C67552" p-id="9739"></path><path d="M512 1024c-136.8064 0-265.4208-53.248-362.0864-149.9136C53.248 777.4208 0 648.8064 0 512c0-5.7344 4.5056-10.24 10.24-10.24h245.76c5.7344 0 10.24 4.5056 10.24 10.24s-4.5056 10.24-10.24 10.24H20.48c5.5296 266.24 223.8464 481.28 491.52 481.28s485.9904-215.04 491.3152-481.28H727.4496c-5.7344 0-10.24-4.5056-10.24-10.24s4.5056-10.24 10.24-10.24H1013.76c5.7344 0 10.24 4.5056 10.24 10.24 0 136.8064-53.248 265.4208-149.9136 362.0864C777.4208 970.752 648.8064 1024 512 1024z" fill="#1C1D21" p-id="9740"></path><path d="M630.1696 522.24H319.2832c-5.7344 0-10.24-4.5056-10.24-10.24s4.5056-10.24 10.24-10.24h310.8864c5.7344 0 10.24 4.5056 10.24 10.24s-4.7104 10.24-10.24 10.24zM680.96 522.24h-9.8304c-5.7344 0-10.24-4.5056-10.24-10.24s4.5056-10.24 10.24-10.24h9.8304c5.7344 0 10.24 4.5056 10.24 10.24s-4.5056 10.24-10.24 10.24z" fill="#1C1D21" p-id="9741"></path><path d="M512 1024c-136.8064 0-265.4208-53.248-362.0864-149.9136C53.248 777.4208 0 648.8064 0 512S53.248 246.5792 149.9136 149.9136C246.5792 53.248 375.1936 0 512 0s265.4208 53.248 362.0864 149.9136C970.752 246.5792 1024 375.1936 1024 512s-53.248 265.4208-149.9136 362.0864C777.4208 970.752 648.8064 1024 512 1024z m0-1003.52C241.0496 20.48 20.48 241.0496 20.48 512s220.5696 491.52 491.52 491.52 491.52-220.5696 491.52-491.52S782.9504 20.48 512 20.48z" fill="#1C1D21" p-id="9742"></path><path d="M436.6336 110.7968c-3.4816 0-6.7584-1.6384-8.8064-4.9152-2.8672-4.9152-1.4336-11.0592 3.2768-14.1312 2.6624-1.6384 5.5296-3.2768 8.192-4.7104 4.9152-2.6624 11.264-0.8192 13.9264 4.3008 2.6624 4.9152 0.8192 11.264-4.3008 13.9264-2.4576 1.2288-4.7104 2.6624-7.168 4.096-1.4336 0.8192-3.2768 1.4336-5.12 1.4336zM379.2896 177.152c-1.4336 0-2.6624-0.2048-4.096-0.8192-5.12-2.2528-7.5776-8.192-5.3248-13.5168 7.9872-18.6368 19.456-35.4304 33.9968-49.7664 4.096-3.8912 10.4448-3.8912 14.5408 0.2048 3.8912 4.096 3.8912 10.4448-0.2048 14.5408-12.6976 12.4928-22.528 26.8288-29.4912 43.2128-1.6384 3.8912-5.3248 6.144-9.4208 6.144z" fill="#1C1D21" p-id="9743"></path><path d="M512 377.6512c-85.1968 0-154.4192-69.2224-154.4192-154.4192 0-5.9392 0.4096-11.8784 1.024-17.8176 0.6144-5.5296 5.7344-9.6256 11.264-9.0112 5.5296 0.6144 9.6256 5.7344 9.0112 11.264-0.6144 5.12-0.8192 10.24-0.8192 15.36 0 73.728 60.0064 133.9392 133.9392 133.9392s133.9392-60.0064 133.9392-133.9392S585.728 89.4976 512 89.4976c-11.0592 0-21.9136 1.4336-32.5632 3.8912-5.5296 1.4336-11.0592-2.048-12.4928-7.3728-1.4336-5.5296 2.048-11.0592 7.3728-12.4928 12.0832-3.072 24.7808-4.5056 37.4784-4.5056 85.1968 0 154.4192 69.2224 154.4192 154.4192s-69.0176 154.2144-154.2144 154.2144z" fill="#1C1D21" p-id="9744"></path><path d="M428.8512 172.6464c-2.048 0-4.3008-0.6144-6.144-2.048-4.5056-3.2768-5.5296-9.8304-2.2528-14.336 21.2992-29.0816 55.5008-46.4896 91.5456-46.4896 5.7344 0 10.24 4.5056 10.24 10.24s-4.5056 10.24-10.24 10.24c-29.4912 0-57.344 14.1312-74.9568 38.0928-2.048 2.8672-5.12 4.3008-8.192 4.3008z" fill="#FFC5B3" p-id="9745"></path><path d="M564.0192 267.8784L604.16 217.088l-11.8784-10.4448-63.8976 53.8624-5.12-89.2928h-22.3232l-5.12 89.2928-63.8976-53.8624-12.0832 10.4448 40.1408 50.7904c21.0944 26.624 31.744 60.2112 29.696 94.208l-8.6016 149.9136h61.8496l-8.6016-149.9136c-2.048-33.9968 8.6016-67.3792 29.696-94.208z" fill="#D66112" p-id="9746"></path><path d="M542.9248 522.24h-61.8496c-2.8672 0-5.5296-1.2288-7.3728-3.2768-1.8432-2.048-2.8672-4.7104-2.8672-7.5776l8.6016-149.9136c1.8432-31.5392-7.9872-62.464-27.4432-87.2448l-40.1408-50.7904c-3.2768-4.3008-2.8672-10.4448 1.2288-13.9264l11.8784-10.4448c3.8912-3.4816 9.4208-3.4816 13.312-0.2048l48.3328 40.7552 4.096-69.0176c0.4096-5.3248 4.7104-9.6256 10.24-9.6256h22.3232c5.3248 0 9.8304 4.3008 10.24 9.6256l4.096 69.0176L585.728 198.8608c3.8912-3.2768 9.6256-3.2768 13.312 0.2048l11.8784 10.4448c4.096 3.6864 4.5056 9.8304 1.2288 13.9264l-40.1408 50.7904c-19.6608 24.7808-29.2864 55.7056-27.4432 87.2448l8.6016 149.9136c0.2048 2.8672-0.8192 5.5296-2.8672 7.5776-1.8432 2.048-4.5056 3.2768-7.3728 3.2768z m-50.9952-20.48h40.1408l-7.9872-139.0592c-2.048-36.4544 9.216-72.4992 31.9488-101.1712l26.0096-32.768-47.104 39.5264c-2.8672 2.4576-7.168 3.072-10.6496 1.6384-3.4816-1.4336-5.9392-4.9152-6.144-8.8064l-4.7104-79.6672h-3.072l-4.7104 79.6672c-0.2048 3.8912-2.6624 7.3728-6.144 8.8064-3.4816 1.4336-7.7824 0.8192-10.6496-1.6384l-46.8992-39.5264 26.0096 32.768c22.7328 28.672 33.9968 64.512 31.9488 101.1712l-7.9872 139.0592z m72.0896-233.8816z" fill="#1C1D21" p-id="9747"></path><path d="M274.0224 304.3328l34.2016-43.2128-10.0352-9.0112-54.4768 45.8752-4.5056-75.9808h-19.0464l-4.5056 75.9808-54.4768-45.8752-10.0352 9.0112 34.2016 43.2128c18.0224 22.7328 27.0336 51.2 25.1904 80.0768L203.3664 512H256l-7.3728-127.5904c-1.6384-28.8768 7.3728-57.344 25.3952-80.0768z" fill="#D66112" p-id="9748"></path><path d="M256 522.24H203.3664c-2.8672 0-5.5296-1.2288-7.3728-3.2768-1.8432-2.048-2.8672-4.7104-2.8672-7.5776l7.3728-127.5904c1.4336-26.4192-6.7584-52.4288-23.1424-73.1136L143.36 267.4688c-3.2768-4.3008-2.8672-10.4448 1.2288-13.9264l10.0352-9.0112c3.8912-3.2768 9.4208-3.4816 13.312-0.2048l38.7072 32.5632 3.2768-55.7056c0.4096-5.3248 4.7104-9.6256 10.24-9.6256h19.0464c5.3248 0 9.8304 4.3008 10.24 9.6256l3.2768 55.7056 38.7072-32.5632c3.8912-3.2768 9.6256-3.2768 13.312 0.2048l10.0352 9.0112c4.096 3.6864 4.5056 9.8304 1.2288 13.9264l-34.2016 43.2128c-16.384 20.6848-24.576 46.6944-23.1424 73.1136l7.3728 127.5904c0.2048 2.8672-0.8192 5.5296-2.8672 7.5776-1.6384 2.048-4.3008 3.2768-7.168 3.2768z m-41.7792-20.48h30.9248l-6.7584-116.736c-1.8432-31.5392 7.9872-62.464 27.4432-87.04l12.6976-16.1792-28.4672 23.9616c-2.8672 2.4576-7.168 3.072-10.6496 1.6384-3.4816-1.4336-5.9392-4.9152-6.144-8.8064l-3.6864-63.8976-3.6864 63.8976c-0.2048 3.8912-2.6624 7.3728-6.144 8.8064-3.4816 1.4336-7.5776 1.024-10.6496-1.6384l-28.4672-23.9616 12.6976 16.1792c19.456 24.7808 29.2864 55.7056 27.4432 87.04l-6.5536 116.736z" fill="#1C1D21" p-id="9749"></path><path d="M325.2224 437.6576l-5.9392 74.3424h94.0032l-5.9392-74.3424z" fill="#D66112" p-id="9750"></path><path d="M413.2864 522.24h-94.0032c-2.8672 0-5.5296-1.2288-7.5776-3.2768-1.8432-2.048-2.8672-4.9152-2.6624-7.7824l5.9392-74.3424c0.4096-5.3248 4.9152-9.4208 10.24-9.4208h82.1248c5.3248 0 9.8304 4.096 10.24 9.4208l5.9392 74.3424c0.2048 2.8672-0.8192 5.7344-2.6624 7.7824-2.048 2.048-4.7104 3.2768-7.5776 3.2768z m-82.944-20.48h71.8848l-4.3008-53.8624h-63.2832l-4.3008 53.8624z" fill="#1C1D21" p-id="9751"></path><path d="M383.7952 461.2096h-35.0208c-13.1072 0-23.552-10.4448-23.552-23.552s10.4448-23.552 23.552-23.552h35.0208c13.1072 0 23.552 10.4448 23.552 23.552s-10.6496 23.552-23.552 23.552z" fill="#FFC5B3" p-id="9752"></path><path d="M383.7952 471.4496h-35.0208c-18.6368 0-33.792-15.1552-33.792-33.792s15.1552-33.792 33.792-33.792h35.0208c18.6368 0 33.792 15.1552 33.792 33.792s-15.1552 33.792-33.792 33.792z m-35.0208-47.104c-7.3728 0-13.312 5.9392-13.312 13.312s5.9392 13.312 13.312 13.312h35.0208c7.3728 0 13.312-5.9392 13.312-13.312s-5.9392-13.312-13.312-13.312h-35.0208z" fill="#1C1D21" p-id="9753"></path><path d="M78.0288 437.6576L72.0896 512h94.0032l-5.9392-74.3424z" fill="#D66112" p-id="9754"></path><path d="M166.0928 522.24H72.0896c-2.8672 0-5.5296-1.2288-7.5776-3.2768-1.8432-2.048-2.8672-4.9152-2.6624-7.7824l5.9392-74.3424c0.4096-5.3248 4.9152-9.4208 10.24-9.4208h82.1248c5.3248 0 9.8304 4.096 10.24 9.4208l5.9392 74.3424c0.2048 2.8672-0.8192 5.7344-2.6624 7.7824s-4.7104 3.2768-7.5776 3.2768z m-82.944-20.48h71.8848l-4.3008-53.8624H87.4496L83.1488 501.76z" fill="#1C1D21" p-id="9755"></path><path d="M136.6016 461.2096H101.5808c-13.1072 0-23.552-10.4448-23.552-23.552s10.4448-23.552 23.552-23.552h35.0208c13.1072 0 23.552 10.4448 23.552 23.552s-10.4448 23.552-23.552 23.552z" fill="#FFC5B3" p-id="9756"></path><path d="M136.6016 471.4496H101.5808c-18.6368 0-33.792-15.1552-33.792-33.792s15.1552-33.792 33.792-33.792h35.0208c18.6368 0 33.792 15.1552 33.792 33.792s-15.1552 33.792-33.792 33.792z m-35.0208-47.104c-7.3728 0-13.312 5.9392-13.312 13.312s5.9392 13.312 13.312 13.312h35.0208c7.3728 0 13.312-5.9392 13.312-13.312s-5.9392-13.312-13.312-13.312H101.5808zM374.3744 750.1824c-5.7344 0-10.24-4.5056-10.24-10.24V727.04c0-5.7344 4.5056-10.24 10.24-10.24s10.24 4.5056 10.24 10.24v12.9024c0 5.7344-4.5056 10.24-10.24 10.24zM374.3744 576.7168h-92.9792c-5.7344 0-10.24-4.5056-10.24-10.24s4.5056-10.24 10.24-10.24h92.9792c5.7344 0 10.24 4.5056 10.24 10.24s-4.5056 10.24-10.24 10.24zM232.448 576.7168h-11.0592c-5.7344 0-10.24-4.5056-10.24-10.24s4.5056-10.24 10.24-10.24h11.0592c5.7344 0 10.24 4.5056 10.24 10.24s-4.7104 10.24-10.24 10.24zM437.8624 627.5072c-2.6624 0-5.3248-1.024-7.168-3.072-4.096-4.096-4.096-10.4448 0-14.5408l30.3104-30.3104v-67.584c0-5.7344 4.5056-10.24 10.24-10.24s10.24 4.5056 10.24 10.24v71.8848c0 2.6624-1.024 5.3248-3.072 7.168L445.2352 624.64c-2.048 1.8432-4.7104 2.8672-7.3728 2.8672zM649.6256 750.1824c-5.7344 0-10.24-4.5056-10.24-10.24V727.04c0-5.7344 4.5056-10.24 10.24-10.24s10.24 4.5056 10.24 10.24v12.9024c0 5.7344-4.7104 10.24-10.24 10.24zM742.6048 576.7168h-92.9792c-5.7344 0-10.24-4.5056-10.24-10.24s4.5056-10.24 10.24-10.24h92.9792c5.7344 0 10.24 4.5056 10.24 10.24s-4.5056 10.24-10.24 10.24zM802.6112 576.7168h-11.0592c-5.7344 0-10.24-4.5056-10.24-10.24s4.5056-10.24 10.24-10.24h11.0592c5.7344 0 10.24 4.5056 10.24 10.24s-4.5056 10.24-10.24 10.24zM586.1376 627.5072c-2.6624 0-5.3248-1.024-7.168-3.072l-33.3824-33.3824c-1.8432-1.8432-3.072-4.5056-3.072-7.168V512c0-5.7344 4.5056-10.24 10.24-10.24s10.24 4.5056 10.24 10.24v67.7888l30.3104 30.3104c4.096 4.096 4.096 10.4448 0 14.5408-2.048 1.8432-4.7104 2.8672-7.168 2.8672z" fill="#1C1D21" p-id="9757"></path><path d="M374.3744 691.6096c-5.7344 0-10.24-4.5056-10.24-10.24v-114.8928c0-2.6624 1.024-5.3248 3.072-7.168l54.4768-54.4768c4.096-4.096 10.4448-4.096 14.5408 0s4.096 10.4448 0 14.5408l-51.4048 51.4048v110.592c-0.2048 5.5296-4.7104 10.24-10.4448 10.24zM649.6256 691.6096c-5.7344 0-10.24-4.5056-10.24-10.24v-110.592l-51.4048-51.4048c-4.096-4.096-4.096-10.4448 0-14.5408s10.4448-4.096 14.5408 0l54.4768 54.4768c1.8432 1.8432 3.072 4.5056 3.072 7.168v114.8928c-0.2048 5.5296-4.9152 10.24-10.4448 10.24z" fill="#1C1D21" p-id="9758"></path><path d="M294.912 674.2016h-13.9264c-11.264 0-20.48-9.216-20.48-20.48v-13.9264c0-11.264 9.216-20.48 20.48-20.48h13.9264c11.264 0 20.48 9.216 20.48 20.48v13.9264c0 11.4688-9.0112 20.48-20.48 20.48z" fill="#AAADAD" p-id="9759"></path><path d="M294.912 684.4416h-13.9264c-16.9984 0-30.72-13.7216-30.72-30.72v-13.9264c0-16.9984 13.7216-30.72 30.72-30.72h13.9264c16.9984 0 30.72 13.7216 30.72 30.72v13.9264c0 16.9984-13.7216 30.72-30.72 30.72z m-13.7216-54.6816c-5.7344 0-10.24 4.5056-10.24 10.24v13.9264c0 5.7344 4.5056 10.24 10.24 10.24h13.9264c5.7344 0 10.24-4.5056 10.24-10.24v-13.9264c0-5.7344-4.5056-10.24-10.24-10.24h-13.9264z" fill="#1C1D21" p-id="9760"></path><path d="M742.8096 674.2016H729.088c-11.264 0-20.48-9.216-20.48-20.48v-13.9264c0-11.264 9.216-20.48 20.48-20.48h13.9264c11.264 0 20.48 9.216 20.48 20.48v13.9264c-0.2048 11.4688-9.4208 20.48-20.6848 20.48z" fill="#AAADAD" p-id="9761"></path><path d="M742.8096 684.4416H729.088c-16.9984 0-30.72-13.7216-30.72-30.72v-13.9264c0-16.9984 13.7216-30.72 30.72-30.72h13.9264c16.9984 0 30.72 13.7216 30.72 30.72v13.9264c-0.2048 16.9984-13.9264 30.72-30.9248 30.72z m-13.7216-54.6816c-5.7344 0-10.24 4.5056-10.24 10.24v13.9264c0 5.7344 4.5056 10.24 10.24 10.24h13.9264c5.7344 0 10.24-4.5056 10.24-10.24v-13.9264c0-5.7344-4.5056-10.24-10.24-10.24H729.088z" fill="#1C1D21" p-id="9762"></path><path d="M888.2176 674.2016H874.496c-11.264 0-20.48-9.216-20.48-20.48v-13.9264c0-11.264 9.216-20.48 20.48-20.48h13.9264c11.264 0 20.48 9.216 20.48 20.48v13.9264c-0.2048 11.4688-9.4208 20.48-20.6848 20.48z" fill="#AAADAD" p-id="9763"></path><path d="M888.2176 684.4416H874.496c-16.9984 0-30.72-13.7216-30.72-30.72v-13.9264c0-16.9984 13.7216-30.72 30.72-30.72h13.9264c16.9984 0 30.72 13.7216 30.72 30.72v13.9264c-0.2048 16.9984-13.9264 30.72-30.9248 30.72z m-13.7216-54.6816c-5.7344 0-10.24 4.5056-10.24 10.24v13.9264c0 5.7344 4.5056 10.24 10.24 10.24h13.9264c5.7344 0 10.24-4.5056 10.24-10.24v-13.9264c0-5.7344-4.5056-10.24-10.24-10.24H874.496z" fill="#1C1D21" p-id="9764"></path><path d="M149.504 674.2016h-13.9264c-11.264 0-20.48-9.216-20.48-20.48v-13.9264c0-11.264 9.216-20.48 20.48-20.48H149.504c11.264 0 20.48 9.216 20.48 20.48v13.9264c0 11.4688-9.0112 20.48-20.48 20.48z" fill="#AAADAD" p-id="9765"></path><path d="M149.504 684.4416h-13.9264c-16.9984 0-30.72-13.7216-30.72-30.72v-13.9264c0-16.9984 13.7216-30.72 30.72-30.72H149.504c16.9984 0 30.72 13.7216 30.72 30.72v13.9264c0 16.9984-13.7216 30.72-30.72 30.72z m-13.7216-54.6816c-5.7344 0-10.24 4.5056-10.24 10.24v13.9264c0 5.7344 4.5056 10.24 10.24 10.24H149.504c5.7344 0 10.24-4.5056 10.24-10.24v-13.9264c0-5.7344-4.5056-10.24-10.24-10.24h-13.7216z" fill="#1C1D21" p-id="9766"></path><path d="M518.9632 739.9424h-13.9264c-11.264 0-20.48-9.216-20.48-20.48v-13.9264c0-11.264 9.216-20.48 20.48-20.48h13.9264c11.264 0 20.48 9.216 20.48 20.48v13.9264c0 11.4688-9.216 20.48-20.48 20.48z" fill="#AAADAD" p-id="9767"></path><path d="M518.9632 750.1824h-13.9264c-16.9984 0-30.72-13.7216-30.72-30.72v-13.9264c0-16.9984 13.7216-30.72 30.72-30.72h13.9264c16.9984 0 30.72 13.7216 30.72 30.72v13.9264c0 16.9984-13.9264 30.72-30.72 30.72z m-13.9264-54.6816c-5.7344 0-10.24 4.5056-10.24 10.24v13.9264c0 5.7344 4.5056 10.24 10.24 10.24h13.9264c5.7344 0 10.24-4.5056 10.24-10.24v-13.9264c0-5.7344-4.5056-10.24-10.24-10.24h-13.9264z" fill="#1C1D21" p-id="9768"></path><path d="M518.9632 858.5216h-13.9264c-11.264 0-20.48-9.216-20.48-20.48v-13.9264c0-11.264 9.216-20.48 20.48-20.48h13.9264c11.264 0 20.48 9.216 20.48 20.48v13.9264c0 11.264-9.216 20.48-20.48 20.48z" fill="#AAADAD" p-id="9769"></path><path d="M518.9632 868.7616h-13.9264c-16.9984 0-30.72-13.7216-30.72-30.72v-13.9264c0-16.9984 13.7216-30.72 30.72-30.72h13.9264c16.9984 0 30.72 13.7216 30.72 30.72v13.9264c0 16.7936-13.9264 30.72-30.72 30.72z m-13.9264-54.8864c-5.7344 0-10.24 4.5056-10.24 10.24v13.9264c0 5.7344 4.5056 10.24 10.24 10.24h13.9264c5.7344 0 10.24-4.5056 10.24-10.24v-13.9264c0-5.7344-4.5056-10.24-10.24-10.24h-13.9264z" fill="#1C1D21" p-id="9770"></path><path d="M294.912 858.5216h-13.9264c-11.264 0-20.48-9.216-20.48-20.48v-13.9264c0-11.264 9.216-20.48 20.48-20.48h13.9264c11.264 0 20.48 9.216 20.48 20.48v13.9264c0 11.264-9.0112 20.48-20.48 20.48z" fill="#AAADAD" p-id="9771"></path><path d="M294.912 868.7616h-13.9264c-16.9984 0-30.72-13.7216-30.72-30.72v-13.9264c0-16.9984 13.7216-30.72 30.72-30.72h13.9264c16.9984 0 30.72 13.7216 30.72 30.72v13.9264c0 16.7936-13.7216 30.72-30.72 30.72z m-13.7216-54.8864c-5.7344 0-10.24 4.5056-10.24 10.24v13.9264c0 5.7344 4.5056 10.24 10.24 10.24h13.9264c5.7344 0 10.24-4.5056 10.24-10.24v-13.9264c0-5.7344-4.5056-10.24-10.24-10.24h-13.9264z" fill="#1C1D21" p-id="9772"></path><path d="M742.8096 858.5216H729.088c-11.264 0-20.48-9.216-20.48-20.48v-13.9264c0-11.264 9.216-20.48 20.48-20.48h13.9264c11.264 0 20.48 9.216 20.48 20.48v13.9264c-0.2048 11.264-9.4208 20.48-20.6848 20.48z" fill="#AAADAD" p-id="9773"></path><path d="M742.8096 868.7616H729.088c-16.9984 0-30.72-13.7216-30.72-30.72v-13.9264c0-16.9984 13.7216-30.72 30.72-30.72h13.9264c16.9984 0 30.72 13.7216 30.72 30.72v13.9264c-0.2048 16.7936-13.9264 30.72-30.9248 30.72z m-13.7216-54.8864c-5.7344 0-10.24 4.5056-10.24 10.24v13.9264c0 5.7344 4.5056 10.24 10.24 10.24h13.9264c5.7344 0 10.24-4.5056 10.24-10.24v-13.9264c0-5.7344-4.5056-10.24-10.24-10.24H729.088z" fill="#1C1D21" p-id="9774"></path><path d="M878.592 511.1808l-60.8256-148.8896-60.8256 148.8896z" fill="#AAADAD" p-id="9775"></path><path d="M878.592 521.4208h-121.6512c-3.4816 0-6.5536-1.6384-8.6016-4.5056-1.8432-2.8672-2.2528-6.3488-1.024-9.6256l60.8256-149.0944c1.6384-3.8912 5.3248-6.3488 9.4208-6.3488s7.9872 2.4576 9.4208 6.3488l60.8256 149.0944c1.2288 3.072 1.024 6.7584-1.024 9.6256-1.6384 2.8672-4.9152 4.5056-8.192 4.5056z m-106.496-20.48h91.136l-45.6704-111.616-45.4656 111.616z" fill="#1C1D21" p-id="9776"></path><path d="M817.7664 372.5312c-5.7344 0-10.24-4.5056-10.24-10.24v-77.0048c0-5.7344 4.5056-10.24 10.24-10.24s10.24 4.5056 10.24 10.24v77.0048c0 5.5296-4.7104 10.24-10.24 10.24z" fill="#1C1D21" p-id="9777"></path><path d="M896.4096 304.128L731.5456 264.192l7.3728-30.5152 134.3488 32.5632c16.7936 4.096 27.2384 21.0944 23.1424 37.888z" fill="#AAADAD" p-id="9778"></path><path d="M896.4096 314.368c-0.8192 0-1.6384 0-2.4576-0.2048L729.088 274.0224a9.8304 9.8304 0 0 1-6.3488-4.7104c-1.4336-2.2528-1.8432-5.12-1.2288-7.7824l7.3728-30.5152c1.4336-5.5296 6.9632-8.8064 12.288-7.5776l134.3488 32.5632c10.8544 2.6624 19.8656 9.216 25.8048 18.8416 5.7344 9.4208 7.5776 20.6848 4.9152 31.5392a9.8304 9.8304 0 0 1-4.7104 6.3488c-1.4336 1.2288-3.2768 1.6384-5.12 1.6384z m-152.3712-57.7536l142.336 34.6112c-0.6144-1.8432-1.2288-3.6864-2.4576-5.5296-2.8672-4.9152-7.5776-8.192-13.1072-9.6256L746.496 245.76l-2.4576 10.8544z" fill="#1C1D21" p-id="9779"></path><path d="M705.7408 336.2816l7.9872 1.8432 33.1776-136.8064-7.9872-1.8432c-14.1312-3.4816-28.2624 5.12-31.744 19.2512l-20.8896 86.016c-3.2768 13.9264 5.3248 28.2624 19.456 31.5392z" fill="#AAADAD" p-id="9780"></path><path d="M713.5232 348.5696c-0.8192 0-1.6384 0-2.4576-0.2048l-7.9872-1.8432c-9.4208-2.2528-17.408-8.192-22.528-16.384-5.12-8.3968-6.5536-18.0224-4.3008-27.648l20.8896-86.016c4.7104-19.456 24.576-31.5392 44.032-26.8288l7.9872 1.8432c2.6624 0.6144 4.9152 2.2528 6.3488 4.7104 1.4336 2.2528 1.8432 5.12 1.2288 7.7824l-33.1776 136.8064c-1.2288 4.5056-5.3248 7.7824-10.0352 7.7824z m19.2512-139.6736c-7.168 0-13.7216 4.9152-15.5648 12.288L696.32 307.2c-1.024 4.096-0.4096 8.3968 1.8432 12.0832 1.8432 3.072 4.5056 5.3248 7.7824 6.5536l28.4672-116.736c-0.6144-0.2048-1.024-0.2048-1.6384-0.2048z" fill="#1C1D21" p-id="9781"></path><path d="M919.552 330.5472h-56.5248v-34.4064h35.6352c11.4688 0 20.8896 9.4208 20.8896 20.8896v13.5168z" fill="#AAADAD" p-id="9782"></path><path d="M919.552 340.7872h-56.5248c-5.7344 0-10.24-4.5056-10.24-10.24v-34.4064c0-5.7344 4.5056-10.24 10.24-10.24h35.6352c17.2032 0 31.1296 13.9264 31.1296 31.1296v13.5168c0 5.5296-4.5056 10.24-10.24 10.24z m-46.2848-20.48H909.312v-3.2768c0-5.9392-4.7104-10.6496-10.6496-10.6496h-25.3952v13.9264z" fill="#1C1D21" p-id="9783"></path><path d="M919.552 424.3456c-5.7344 0-10.24-4.5056-10.24-10.24v-83.5584c0-5.7344 4.5056-10.24 10.24-10.24s10.24 4.5056 10.24 10.24v83.5584c0 5.7344-4.5056 10.24-10.24 10.24zM713.5232 424.3456c-5.7344 0-10.24-4.5056-10.24-10.24v-75.9808c0-5.7344 4.5056-10.24 10.24-10.24s10.24 4.5056 10.24 10.24v75.9808c0 5.7344-4.5056 10.24-10.24 10.24zM919.552 466.3296c-5.7344 0-10.24-4.5056-10.24-10.24v-6.144c0-5.7344 4.5056-10.24 10.24-10.24s10.24 4.5056 10.24 10.24v6.144c0 5.5296-4.5056 10.24-10.24 10.24zM713.5232 466.3296c-5.7344 0-10.24-4.5056-10.24-10.24v-6.144c0-5.7344 4.5056-10.24 10.24-10.24s10.24 4.5056 10.24 10.24v6.144c0 5.5296-4.5056 10.24-10.24 10.24z" fill="#1C1D21" p-id="9784"></path></svg>