<svg xmlns="http://www.w3.org/2000/svg" viewBox="0 0 1024 1024" version="1.1"><path d="M512 512m-501.76 0a501.76 501.76 0 1 0 1003.52 0 501.76 501.76 0 1 0-1003.52 0Z" fill="#8CEEF9" p-id="8173"></path><path d="M512 1024c-136.8064 0-265.4208-53.248-362.0864-149.9136S0 648.8064 0 512 53.248 246.5792 149.9136 149.9136 375.1936 0 512 0s265.4208 53.248 362.0864 149.9136S1024 375.1936 1024 512s-53.248 265.4208-149.9136 362.0864S648.8064 1024 512 1024z m0-1003.52C241.0496 20.48 20.48 241.0496 20.48 512s220.5696 491.52 491.52 491.52 491.52-220.5696 491.52-491.52S782.9504 20.48 512 20.48z" fill="#1C1D21" p-id="8174"></path><path d="M1004.7488 607.4368H19.2512C63.8976 838.8608 267.4688 1013.76 512 1013.76s448.1024-174.8992 492.7488-406.3232z" fill="#0ABFB2" p-id="8175"></path><path d="M512 1024C267.0592 1024 55.5008 849.7152 9.216 609.28c-0.6144-3.072 0.2048-6.144 2.2528-8.3968s4.9152-3.6864 7.9872-3.6864h985.2928c3.072 0 5.9392 1.4336 7.9872 3.6864s2.6624 5.5296 2.2528 8.3968C968.4992 849.7152 756.9408 1024 512 1024zM31.9488 617.6768C81.1008 841.9328 280.9856 1003.52 512 1003.52s430.8992-161.5872 480.0512-385.8432H31.9488z" fill="#1C1D21" p-id="8176"></path><path d="M208.4864 676.864V520.192c0-14.5408-11.8784-26.4192-26.4192-26.4192-14.5408 0-26.4192 11.8784-26.4192 26.4192v156.672h52.8384z" fill="#FFC5B3" p-id="8177"></path><path d="M208.2816 718.6432V520.192c0-14.5408 11.8784-26.4192 26.4192-26.4192 14.5408 0 26.4192 11.8784 26.4192 26.4192v198.4512h-52.8384z" fill="#FFC5B3" p-id="8178"></path><path d="M208.4864 687.104H155.648c-5.7344 0-10.24-4.5056-10.24-10.24V520.192c0-20.2752 16.384-36.6592 36.6592-36.6592 20.2752 0 36.6592 16.384 36.6592 36.6592v156.672c0 5.7344-4.5056 10.24-10.24 10.24z m-42.5984-20.48h32.5632V520.192c0-9.0112-7.3728-16.1792-16.1792-16.1792s-16.384 7.3728-16.384 16.1792v146.432z" fill="#1C1D21" p-id="8179"></path><path d="M261.3248 728.8832h-53.0432c-5.7344 0-10.24-4.5056-10.24-10.24V520.192c0-20.2752 16.384-36.6592 36.6592-36.6592 20.2752 0 36.6592 16.384 36.6592 36.6592v198.4512c0.2048 5.7344-4.3008 10.24-10.0352 10.24z m-42.8032-20.48h32.5632V520.192c0-9.0112-7.3728-16.1792-16.1792-16.1792s-16.1792 7.3728-16.1792 16.1792v188.2112z" fill="#1C1D21" p-id="8180"></path><path d="M366.7968 992.4608l-0.4096-153.1904c0-23.7568-10.8544-46.08-29.4912-60.6208l-151.9616-120.2176c-18.6368-14.7456-29.4912-37.2736-29.4912-61.0304V520.192c0-14.5408-11.8784-26.4192-26.4192-26.4192-14.5408 0-26.4192 11.8784-26.4192 26.4192v148.0704c0 20.6848 8.192 40.3456 22.7328 54.8864l107.1104 107.1104c14.5408 14.5408 22.7328 34.4064 22.7328 54.8864v57.7536c34.816 20.8896 72.2944 37.6832 111.616 49.5616z" fill="#FFC5B3" p-id="8181"></path><path d="M366.7968 1002.7008c-1.024 0-2.048-0.2048-2.8672-0.4096-39.7312-12.0832-78.0288-28.8768-113.8688-50.176-3.072-1.8432-4.9152-5.12-4.9152-8.8064v-57.7536c0-18.0224-6.9632-35.0208-19.8656-47.7184l-107.1104-107.1104c-16.5888-16.5888-25.8048-38.7072-25.8048-62.2592V520.192c0-20.2752 16.384-36.6592 36.6592-36.6592 20.2752 0 36.6592 16.384 36.6592 36.6592v77.2096c0 20.6848 9.4208 40.1408 25.6 52.8384l151.9616 120.2176c21.0944 16.7936 33.3824 41.7792 33.3824 68.608l0.4096 153.1904c0 3.2768-1.4336 6.3488-4.096 8.192-1.8432 1.4336-3.8912 2.2528-6.144 2.2528z m-101.1712-65.3312c28.8768 16.7936 59.392 30.5152 91.136 41.1648l-0.2048-139.0592c0-20.6848-9.4208-39.936-25.6-52.6336l-151.9616-120.2176C157.4912 649.6256 145.408 624.4352 145.408 597.4016V520.192c0-9.0112-7.3728-16.1792-16.1792-16.1792s-16.1792 7.3728-16.1792 16.1792v148.0704c0 18.0224 6.9632 35.0208 19.8656 47.7184l107.1104 107.1104c16.5888 16.5888 25.8048 38.7072 25.8048 62.2592v52.0192z" fill="#1C1D21" p-id="8182"></path><path d="M815.5136 676.864V520.192c0-14.5408 11.8784-26.4192 26.4192-26.4192 14.5408 0 26.4192 11.8784 26.4192 26.4192v156.672h-52.8384z" fill="#FFC5B3" p-id="8183"></path><path d="M815.7184 718.6432V520.192c0-14.5408-11.8784-26.4192-26.4192-26.4192-14.5408 0-26.4192 11.8784-26.4192 26.4192v198.4512h52.8384z" fill="#FFC5B3" p-id="8184"></path><path d="M868.352 687.104h-53.0432c-5.7344 0-10.24-4.5056-10.24-10.24V520.192c0-20.2752 16.384-36.6592 36.6592-36.6592 20.2752 0 36.6592 16.384 36.6592 36.6592v156.672c0.2048 5.7344-4.3008 10.24-10.0352 10.24z m-42.5984-20.48H858.112V520.192c0-9.0112-7.3728-16.1792-16.1792-16.1792s-16.1792 7.3728-16.1792 16.1792v146.432z" fill="#1C1D21" p-id="8185"></path><path d="M815.7184 728.8832h-53.0432c-5.7344 0-10.24-4.5056-10.24-10.24V520.192c0-20.2752 16.384-36.6592 36.6592-36.6592 20.2752 0 36.6592 16.384 36.6592 36.6592v198.4512c0.2048 5.7344-4.5056 10.24-10.0352 10.24z m-42.8032-20.48h32.5632V520.192c0-9.0112-7.3728-16.1792-16.1792-16.1792s-16.1792 7.3728-16.1792 16.1792v188.2112z" fill="#1C1D21" p-id="8186"></path><path d="M921.3952 668.2624V520.192c0-14.5408-11.8784-26.4192-26.4192-26.4192-14.5408 0-26.4192 11.8784-26.4192 26.4192v77.2096c0 23.7568-10.8544 46.2848-29.4912 61.0304l-151.9616 120.2176c-18.6368 14.7456-29.4912 37.0688-29.4912 60.6208l-0.4096 153.1904c39.5264-11.8784 76.8-28.4672 111.616-49.152v-57.7536c0-20.6848 8.192-40.3456 22.7328-54.8864l107.1104-107.1104c14.5408-14.9504 22.7328-34.6112 22.7328-55.296z" fill="#FFC5B3" p-id="8187"></path><path d="M657.2032 1002.7008c-2.2528 0-4.3008-0.6144-6.144-2.048-2.6624-1.8432-4.096-4.9152-4.096-8.192l0.4096-153.1904c0-27.0336 12.288-52.0192 33.3824-68.608l151.9616-120.2176c16.1792-12.9024 25.6-32.1536 25.6-52.8384V520.192c0-20.2752 16.384-36.6592 36.6592-36.6592 20.2752 0 36.6592 16.384 36.6592 36.6592v148.0704c0 23.552-9.216 45.6704-25.8048 62.2592L798.72 837.632c-12.6976 12.6976-19.8656 29.696-19.8656 47.7184v57.7536c0 3.6864-1.8432 6.9632-4.9152 8.8064-35.84 21.2992-74.1376 38.2976-113.8688 50.176-1.024 0.4096-1.8432 0.6144-2.8672 0.6144zM894.976 504.0128c-9.0112 0-16.1792 7.3728-16.1792 16.1792v77.2096c0 27.0336-12.0832 52.224-33.3824 69.0176l-151.9616 120.2176c-16.1792 12.9024-25.6 31.9488-25.6 52.6336l-0.2048 139.0592c31.5392-10.4448 62.2592-24.3712 91.136-41.1648v-52.0192c0-23.552 9.216-45.6704 25.8048-62.2592l107.1104-107.1104c12.6976-12.6976 19.8656-29.696 19.8656-47.7184V520.192c-0.4096-8.8064-7.7824-16.1792-16.5888-16.1792z m-126.3616 439.0912z" fill="#1C1D21" p-id="8188"></path><path d="M501.1456 303.7184m-48.128 0a48.128 48.128 0 1 0 96.256 0 48.128 48.128 0 1 0-96.256 0Z" fill="#FF8939" p-id="8189"></path><path d="M574.8736 425.5744c0-40.7552-32.9728-73.728-73.728-73.728s-73.728 32.9728-73.728 73.728v63.2832h31.744v118.5792H542.72v-118.5792h31.744v-63.2832z" fill="#FF8939" p-id="8190"></path><path d="M641.6384 332.3904m-43.6224 0a43.6224 43.6224 0 1 0 87.2448 0 43.6224 43.6224 0 1 0-87.2448 0Z" fill="#FF8939" p-id="8191"></path><path d="M708.1984 442.5728c0-36.864-29.9008-66.7648-66.7648-66.7648s-66.7648 29.9008-66.7648 66.7648v57.344h28.8768v107.52h75.776v-107.52h28.8768v-57.344z" fill="#FF8939" p-id="8192"></path><path d="M370.4832 363.9296m-35.84 0a35.84 35.84 0 1 0 71.68 0 35.84 35.84 0 1 0-71.68 0Z" fill="#FF8939" p-id="8193"></path><path d="M425.3696 454.4512c0-30.3104-24.576-54.8864-54.8864-54.8864s-54.8864 24.576-54.8864 54.8864v47.104h23.7568v105.8816h62.2592v-105.8816h23.7568v-47.104z" fill="#FF8939" p-id="8194"></path><path d="M501.1456 362.0864c-32.1536 0-58.368-26.2144-58.368-58.368s26.2144-58.368 58.368-58.368 58.368 26.2144 58.368 58.368-26.2144 58.368-58.368 58.368z m0-96.256c-20.8896 0-37.888 16.9984-37.888 37.888s16.9984 37.888 37.888 37.888 37.888-16.9984 37.888-37.888-16.9984-37.888-37.888-37.888z" fill="#1C1D21" p-id="8195"></path><path d="M542.9248 617.6768h-83.5584c-5.7344 0-10.24-4.5056-10.24-10.24v-108.3392h-21.504c-5.7344 0-10.24-4.5056-10.24-10.24v-63.2832c0-46.2848 37.6832-83.968 83.968-83.968s83.968 37.6832 83.968 83.968v63.2832c0 5.7344-4.5056 10.24-10.24 10.24h-21.504v108.3392c-0.4096 5.7344-4.9152 10.24-10.6496 10.24z m-73.3184-20.48h63.0784v-108.3392c0-5.7344 4.5056-10.24 10.24-10.24h21.504v-53.0432c0-35.0208-28.4672-63.488-63.488-63.488s-63.488 28.4672-63.488 63.488v53.0432h21.504c5.7344 0 10.24 4.5056 10.24 10.24v108.3392zM641.6384 386.048c-29.696 0-53.8624-24.1664-53.8624-53.8624s24.1664-53.8624 53.8624-53.8624 53.8624 24.1664 53.8624 53.8624-24.3712 53.8624-53.8624 53.8624z m0-87.04c-18.432 0-33.3824 14.9504-33.3824 33.3824s14.9504 33.3824 33.3824 33.3824 33.3824-14.9504 33.3824-33.3824-15.1552-33.3824-33.3824-33.3824z" fill="#1C1D21" p-id="8196"></path><path d="M679.3216 617.6768h-75.776c-5.7344 0-10.24-4.5056-10.24-10.24v-97.28h-18.6368c-5.7344 0-10.24-4.5056-10.24-10.24v-57.344c0-42.3936 34.6112-77.0048 77.0048-77.0048s77.0048 34.6112 77.0048 77.0048v57.344c0 5.7344-4.5056 10.24-10.24 10.24h-18.6368v97.28c0 5.7344-4.5056 10.24-10.24 10.24z m-65.3312-20.48h55.296v-97.28c0-5.7344 4.5056-10.24 10.24-10.24h18.6368v-47.104c0-31.1296-25.3952-56.5248-56.5248-56.5248s-56.5248 25.3952-56.5248 56.5248v47.104h18.6368c5.7344 0 10.24 4.5056 10.24 10.24v97.28zM370.4832 410.0096c-25.3952 0-46.08-20.6848-46.08-46.08s20.6848-46.08 46.08-46.08 46.08 20.6848 46.08 46.08-20.6848 46.08-46.08 46.08z m0-71.68c-14.1312 0-25.6 11.4688-25.6 25.6s11.4688 25.6 25.6 25.6 25.6-11.4688 25.6-25.6-11.4688-25.6-25.6-25.6z" fill="#1C1D21" p-id="8197"></path><path d="M401.6128 617.6768h-62.2592c-5.7344 0-10.24-4.5056-10.24-10.24v-95.6416h-13.5168c-5.7344 0-10.24-4.5056-10.24-10.24v-47.104c0-35.84 29.0816-65.1264 65.1264-65.1264 35.84 0 65.1264 29.0816 65.1264 65.1264v47.104c0 5.7344-4.5056 10.24-10.24 10.24h-13.5168v95.6416c0 5.7344-4.5056 10.24-10.24 10.24z m-52.0192-20.48h41.7792v-95.6416c0-5.7344 4.5056-10.24 10.24-10.24h13.5168v-36.864c0-24.576-20.0704-44.6464-44.6464-44.6464s-44.6464 20.0704-44.6464 44.6464v36.864h13.5168c5.7344 0 10.24 4.5056 10.24 10.24v95.6416z" fill="#1C1D21" p-id="8198"></path><path d="M668.2624 186.9824l-146.2272-112.64c-12.288-9.4208-29.4912-9.4208-41.7792 0l-146.2272 112.64c-11.8784 9.216-5.3248 28.0576 9.6256 28.0576h314.9824c15.1552 0 21.504-19.0464 9.6256-28.0576z" fill="#C67552" p-id="8199"></path><path d="M658.6368 225.28H343.6544c-11.264 0-20.8896-6.9632-24.576-17.6128-3.6864-10.6496-0.2048-22.1184 8.8064-28.8768l146.2272-112.64c15.9744-12.288 38.2976-12.288 54.272 0l146.2272 112.64c9.0112 6.9632 12.288 18.2272 8.8064 28.8768-3.8912 10.6496-13.5168 17.6128-24.7808 17.6128z m-157.4912-147.8656c-5.12 0-10.24 1.6384-14.5408 4.9152l-146.2272 112.64c-2.8672 2.048-2.2528 4.9152-1.8432 6.144 0.4096 1.024 1.6384 3.6864 5.12 3.6864h314.9824c3.4816 0 4.7104-2.6624 5.12-3.6864s1.024-3.8912-1.8432-6.144l-146.2272-112.64c-4.096-3.072-9.4208-4.9152-14.5408-4.9152z" fill="#1C1D21" p-id="8200"></path><path d="M489.0624 127.7952c-3.072 0-6.144-1.4336-8.192-3.8912-3.4816-4.5056-2.6624-10.8544 1.8432-14.336l2.4576-2.048c4.5056-3.4816 10.8544-2.6624 14.336 1.8432s2.6624 10.8544-1.8432 14.336l-2.4576 2.048c-1.8432 1.4336-4.096 2.048-6.144 2.048zM421.4784 179.8144c-3.072 0-6.144-1.4336-8.192-4.096-3.4816-4.5056-2.6624-10.8544 1.8432-14.336L449.3312 135.168c4.5056-3.4816 10.8544-2.6624 14.336 1.8432 3.4816 4.5056 2.6624 10.8544-1.8432 14.336l-33.9968 26.2144c-2.048 1.6384-4.096 2.2528-6.3488 2.2528z" fill="#FF9E5C" p-id="8201"></path><path d="M182.0672 285.696c-18.8416 10.8544-31.3344 31.1296-31.3344 54.4768 0 23.3472 12.6976 43.6224 31.3344 54.4768 18.8416-10.8544 31.3344-31.1296 31.3344-54.4768 0-23.3472-12.4928-43.6224-31.3344-54.4768z" fill="#0ABFB2" p-id="8202"></path><path d="M182.0672 404.6848c-1.8432 0-3.4816-0.4096-5.12-1.4336-22.528-13.1072-36.4544-37.2736-36.4544-63.2832s13.9264-50.176 36.4544-63.2832c3.2768-1.8432 7.168-1.8432 10.24 0 22.528 13.1072 36.4544 37.2736 36.4544 63.2832s-13.9264 50.176-36.4544 63.2832c-1.6384 1.024-3.2768 1.4336-5.12 1.4336z m0-106.7008c-13.1072 9.8304-21.0944 25.6-21.0944 42.1888s7.9872 32.3584 21.0944 42.1888c13.1072-9.8304 21.0944-25.6 21.0944-42.1888s-7.9872-32.3584-21.0944-42.1888z" fill="#1C1D21" p-id="8203"></path><path d="M182.0672 501.76c-5.7344 0-10.24-4.5056-10.24-10.24v-91.7504c0-5.7344 4.5056-10.24 10.24-10.24s10.24 4.5056 10.24 10.24V491.52c0 5.7344-4.5056 10.24-10.24 10.24z" fill="#1C1D21" p-id="8204"></path><path d="M111.616 353.28c18.6368-4.9152 39.3216-0.2048 54.0672 14.5408 14.7456 14.7456 19.456 35.4304 14.5408 54.0672-18.6368 4.9152-39.3216 0.2048-54.0672-14.5408-14.7456-14.7456-19.456-35.4304-14.5408-54.0672z" fill="#0ABFB2" p-id="8205"></path><path d="M165.6832 433.9712c-17.408 0-34.4064-6.7584-46.8992-19.456-16.5888-16.5888-23.1424-41.1648-17.2032-63.8976 1.024-3.4816 3.6864-6.3488 7.168-7.168 22.7328-6.144 47.3088 0.4096 63.8976 17.2032 16.5888 16.5888 23.1424 41.1648 17.2032 63.8976-1.024 3.4816-3.6864 6.3488-7.168 7.168-5.5296 1.4336-11.264 2.2528-16.9984 2.2528z m-45.2608-71.8848c-1.8432 13.9264 3.072 28.0576 13.1072 38.0928 10.0352 10.0352 24.1664 14.7456 38.0928 13.1072 1.8432-13.9264-3.072-28.0576-13.1072-38.0928-10.0352-10.24-24.3712-14.9504-38.0928-13.1072z" fill="#1C1D21" p-id="8206"></path><path d="M183.9104 421.888c18.6368 4.9152 39.3216 0.2048 54.0672-14.5408 14.7456-14.7456 19.456-35.4304 14.5408-54.0672-18.6368-4.9152-39.3216-0.2048-54.0672 14.5408-14.7456 14.5408-19.456 35.2256-14.5408 54.0672z" fill="#0ABFB2" p-id="8207"></path><path d="M198.2464 433.9712c-5.7344 0-11.4688-0.8192-16.9984-2.2528-3.4816-1.024-6.3488-3.6864-7.168-7.168-6.144-22.7328 0.4096-47.3088 17.2032-63.8976 16.5888-16.5888 41.1648-23.1424 63.8976-17.2032 3.4816 1.024 6.3488 3.6864 7.168 7.168 6.144 22.7328-0.4096 47.3088-17.2032 63.8976-12.4928 12.6976-29.4912 19.456-46.8992 19.456z m-5.5296-20.8896c13.9264 1.8432 28.0576-3.072 38.0928-13.1072 10.0352-10.0352 14.7456-24.1664 13.1072-38.0928-13.9264-1.8432-28.0576 3.072-38.0928 13.1072-10.24 10.0352-14.9504 24.1664-13.1072 38.0928z" fill="#1C1D21" p-id="8208"></path><path d="M841.9328 285.696c-18.8416 10.8544-31.3344 31.1296-31.3344 54.4768 0 23.3472 12.6976 43.6224 31.3344 54.4768 18.8416-10.8544 31.3344-31.1296 31.3344-54.4768 0-23.3472-12.4928-43.6224-31.3344-54.4768z" fill="#0ABFB2" p-id="8209"></path><path d="M841.9328 404.6848c-1.8432 0-3.4816-0.4096-5.12-1.4336-22.528-13.1072-36.4544-37.2736-36.4544-63.2832s13.9264-50.176 36.4544-63.2832c3.072-1.8432 7.168-1.8432 10.24 0 22.528 13.1072 36.4544 37.2736 36.4544 63.2832s-13.9264 50.176-36.4544 63.2832c-1.6384 1.024-3.2768 1.4336-5.12 1.4336z m0-106.7008c-13.1072 9.8304-21.0944 25.6-21.0944 42.1888s7.9872 32.3584 21.0944 42.1888c13.1072-9.8304 21.0944-25.6 21.0944-42.1888s-7.9872-32.3584-21.0944-42.1888z" fill="#1C1D21" p-id="8210"></path><path d="M841.9328 501.76c-5.7344 0-10.24-4.5056-10.24-10.24v-91.7504c0-5.7344 4.5056-10.24 10.24-10.24s10.24 4.5056 10.24 10.24V491.52c0 5.7344-4.5056 10.24-10.24 10.24z" fill="#1C1D21" p-id="8211"></path><path d="M771.4816 353.28c18.6368-4.9152 39.3216-0.2048 54.0672 14.5408 14.7456 14.7456 19.456 35.4304 14.5408 54.0672-18.6368 4.9152-39.3216 0.2048-54.0672-14.5408-14.7456-14.7456-19.456-35.4304-14.5408-54.0672z" fill="#0ABFB2" p-id="8212"></path><path d="M825.7536 433.9712c-17.408 0-34.4064-6.7584-46.8992-19.456-16.5888-16.5888-23.1424-41.1648-17.2032-63.8976 1.024-3.4816 3.6864-6.3488 7.168-7.168 22.7328-6.144 47.3088 0.4096 63.8976 17.2032 16.5888 16.5888 23.1424 41.1648 17.2032 63.8976-1.024 3.4816-3.6864 6.3488-7.168 7.168-5.7344 1.4336-11.4688 2.2528-16.9984 2.2528zM780.288 362.0864c-1.8432 13.9264 3.072 28.0576 13.1072 38.0928 10.0352 10.0352 24.1664 14.7456 38.0928 13.1072 1.8432-13.9264-3.072-28.0576-13.1072-38.0928-10.0352-10.24-24.1664-14.9504-38.0928-13.1072z" fill="#1C1D21" p-id="8213"></path><path d="M843.776 421.888c18.6368 4.9152 39.3216 0.2048 54.0672-14.5408 14.7456-14.7456 19.456-35.4304 14.5408-54.0672-18.6368-4.9152-39.3216-0.2048-54.0672 14.5408-14.5408 14.5408-19.456 35.2256-14.5408 54.0672z" fill="#0ABFB2" p-id="8214"></path><path d="M858.3168 433.9712c-5.7344 0-11.4688-0.8192-16.9984-2.2528-3.4816-1.024-6.3488-3.6864-7.168-7.168-6.144-22.7328 0.4096-47.3088 17.2032-63.8976 16.5888-16.5888 41.1648-23.1424 63.8976-17.2032 3.4816 1.024 6.3488 3.6864 7.168 7.168 6.144 22.7328-0.4096 47.3088-17.2032 63.8976-12.6976 12.6976-29.696 19.456-46.8992 19.456z m-5.7344-20.8896c13.9264 1.8432 28.0576-3.072 38.0928-13.1072s14.7456-24.1664 13.1072-38.0928c-13.9264-1.8432-28.0576 3.072-38.0928 13.1072s-14.9504 24.1664-13.1072 38.0928z" fill="#1C1D21" p-id="8215"></path></svg>