<svg xmlns="http://www.w3.org/2000/svg" viewBox="0 0 1024 1024" version="1.1"><path d="M512 512m-501.76 0a501.76 501.76 0 1 0 1003.52 0 501.76 501.76 0 1 0-1003.52 0Z" fill="#FFECE9" p-id="12379"></path><path d="M512 1024c-136.8064 0-265.4208-53.248-362.0864-149.9136C53.248 777.4208 0 648.8064 0 512S53.248 246.5792 149.9136 149.9136C246.5792 53.248 375.1936 0 512 0s265.4208 53.248 362.0864 149.9136C970.752 246.5792 1024 375.1936 1024 512s-53.248 265.4208-149.9136 362.0864C777.4208 970.752 648.8064 1024 512 1024z m0-1003.52C241.0496 20.48 20.48 241.0496 20.48 512s220.5696 491.52 491.52 491.52 491.52-220.5696 491.52-491.52S782.9504 20.48 512 20.48z" fill="#1C1D21" p-id="12380"></path><path d="M512 1013.76c117.1456 0 224.8704-40.1408 310.272-107.52h-620.544C287.1296 973.6192 394.8544 1013.76 512 1013.76z" fill="#0ABFB2" p-id="12381"></path><path d="M512 1024c-116.1216 0-225.6896-37.888-316.6208-109.568-3.4816-2.6624-4.7104-7.3728-3.2768-11.4688 1.4336-4.096 5.3248-6.9632 9.6256-6.9632h620.544c4.3008 0 8.192 2.6624 9.6256 6.9632 1.4336 4.096 0 8.6016-3.2768 11.4688-90.9312 71.68-200.4992 109.568-316.6208 109.568z m-279.3472-107.52c82.1248 56.9344 178.176 87.04 279.3472 87.04s197.0176-29.9008 279.3472-87.04H232.6528z" fill="#1C1D21" p-id="12382"></path><path d="M725.1968 848.2816H299.008c-16.9984 0-30.72-13.7216-30.72-30.72V353.4848c0-16.9984 13.7216-30.72 30.72-30.72h426.1888c16.9984 0 30.72 13.7216 30.72 30.72v464.0768c0 16.7936-13.7216 30.72-30.72 30.72z" fill="#E0E0E0" p-id="12383"></path><path d="M268.288 558.2848c-5.7344 0-10.24-4.5056-10.24-10.24v-8.3968c0-5.7344 4.5056-10.24 10.24-10.24s10.24 4.5056 10.24 10.24v8.3968c0 5.7344-4.5056 10.24-10.24 10.24z" fill="#1C1D21" p-id="12384"></path><path d="M725.1968 858.5216H299.008c-22.528 0-40.96-18.432-40.96-40.96V586.5472c0-5.7344 4.5056-10.24 10.24-10.24s10.24 4.5056 10.24 10.24v231.0144c0 11.264 9.216 20.48 20.48 20.48h426.1888c11.264 0 20.48-9.216 20.48-20.48V353.4848c0-11.264-9.216-20.48-20.48-20.48H299.008c-11.264 0-20.48 9.216-20.48 20.48v148.8896c0 5.7344-4.5056 10.24-10.24 10.24s-10.24-4.5056-10.24-10.24v-148.8896c0-22.528 18.432-40.96 40.96-40.96h426.1888c22.528 0 40.96 18.432 40.96 40.96v464.0768c0 22.528-18.432 40.96-40.96 40.96z" fill="#1C1D21" p-id="12385"></path><path d="M728.6784 322.7648H690.176v525.5168h38.5024c15.1552 0 27.2384-12.288 27.2384-27.2384v-471.04c0-15.1552-12.0832-27.2384-27.2384-27.2384z" fill="#AAADAD" p-id="12386"></path><path d="M728.6784 858.5216H690.176c-5.7344 0-10.24-4.5056-10.24-10.24V322.7648c0-5.7344 4.5056-10.24 10.24-10.24h38.5024c20.6848 0 37.4784 16.7936 37.4784 37.4784v471.04c0 20.48-16.7936 37.4784-37.4784 37.4784z m-28.2624-20.48h28.2624c9.4208 0 16.9984-7.5776 16.9984-16.9984v-471.04c0-9.4208-7.5776-16.9984-16.9984-16.9984H700.416v505.0368zM491.52 678.912c-5.7344 0-10.24-4.5056-10.24-10.24v-166.2976c0-5.7344 4.5056-10.24 10.24-10.24s10.24 4.5056 10.24 10.24v166.2976c0 5.5296-4.5056 10.24-10.24 10.24z" fill="#1C1D21" p-id="12387"></path><path d="M432.7424 654.5408c-2.6624 0-5.3248-1.024-7.168-3.072-4.096-4.096-4.096-10.4448 0-14.5408l117.5552-117.5552c4.096-4.096 10.4448-4.096 14.5408 0s4.096 10.4448 0 14.5408l-117.5552 117.5552c-2.048 2.048-4.7104 3.072-7.3728 3.072z" fill="#1C1D21" p-id="12388"></path><path d="M574.6688 595.7632h-166.2976c-5.7344 0-10.24-4.5056-10.24-10.24s4.5056-10.24 10.24-10.24h166.2976c5.7344 0 10.24 4.5056 10.24 10.24s-4.5056 10.24-10.24 10.24z" fill="#1C1D21" p-id="12389"></path><path d="M550.2976 654.5408c-2.6624 0-5.3248-1.024-7.168-3.072l-117.5552-117.5552c-4.096-4.096-4.096-10.4448 0-14.5408s10.4448-4.096 14.5408 0l117.5552 117.5552c4.096 4.096 4.096 10.4448 0 14.5408-2.048 2.048-4.7104 3.072-7.3728 3.072z" fill="#1C1D21" p-id="12390"></path><path d="M491.52 585.5232m-45.8752 0a45.8752 45.8752 0 1 0 91.7504 0 45.8752 45.8752 0 1 0-91.7504 0Z" fill="#AAADAD" p-id="12391"></path><path d="M491.52 678.912c-51.4048 0-93.3888-41.984-93.3888-93.3888s41.984-93.3888 93.3888-93.3888 93.3888 41.984 93.3888 93.3888-41.7792 93.3888-93.3888 93.3888z m0-166.2976c-40.1408 0-72.9088 32.768-72.9088 72.9088s32.768 72.9088 72.9088 72.9088 72.9088-32.768 72.9088-72.9088-32.5632-72.9088-72.9088-72.9088z" fill="#1C1D21" p-id="12392"></path><path d="M491.52 641.4336c-30.9248 0-56.1152-25.1904-56.1152-56.1152s25.1904-56.1152 56.1152-56.1152c30.9248 0 56.1152 25.1904 56.1152 56.1152s-25.1904 56.1152-56.1152 56.1152z m0-91.5456c-19.6608 0-35.6352 15.9744-35.6352 35.6352s15.9744 35.6352 35.6352 35.6352 35.6352-15.9744 35.6352-35.6352-15.9744-35.6352-35.6352-35.6352z" fill="#1C1D21" p-id="12393"></path><path d="M491.52 585.5232m-10.0352 0a10.0352 10.0352 0 1 0 20.0704 0 10.0352 10.0352 0 1 0-20.0704 0Z" fill="#1C1D21" p-id="12394"></path><path d="M278.3232 467.968h-20.0704c-8.6016 0-15.36-6.9632-15.36-15.36 0-8.6016 6.9632-15.36 15.36-15.36h20.0704c8.6016 0 15.36 6.9632 15.36 15.36 0 8.6016-6.9632 15.36-15.36 15.36z" fill="#E0E0E0" p-id="12395"></path><path d="M278.3232 478.208h-20.0704c-14.1312 0-25.6-11.4688-25.6-25.6s11.4688-25.6 25.6-25.6h20.0704c14.1312 0 25.6 11.4688 25.6 25.6s-11.4688 25.6-25.6 25.6z m-20.0704-30.72c-2.8672 0-5.12 2.2528-5.12 5.12s2.2528 5.12 5.12 5.12h20.0704c2.8672 0 5.12-2.2528 5.12-5.12s-2.2528-5.12-5.12-5.12h-20.0704z" fill="#1C1D21" p-id="12396"></path><path d="M278.3232 733.7984h-20.0704c-8.6016 0-15.36-6.9632-15.36-15.36 0-8.6016 6.9632-15.36 15.36-15.36h20.0704c8.6016 0 15.36 6.9632 15.36 15.36s-6.9632 15.36-15.36 15.36z" fill="#E0E0E0" p-id="12397"></path><path d="M278.3232 744.0384h-20.0704c-14.1312 0-25.6-11.4688-25.6-25.6s11.4688-25.6 25.6-25.6h20.0704c14.1312 0 25.6 11.4688 25.6 25.6s-11.4688 25.6-25.6 25.6z m-20.0704-30.9248c-2.8672 0-5.12 2.2528-5.12 5.12s2.2528 5.12 5.12 5.12h20.0704c2.8672 0 5.12-2.2528 5.12-5.12s-2.2528-5.12-5.12-5.12h-20.0704z" fill="#1C1D21" p-id="12398"></path><path d="M555.2128 848.2816H616.448v58.1632h-61.2352z" fill="#E0E0E0" p-id="12399"></path><path d="M616.448 916.48h-61.2352c-5.7344 0-10.24-4.5056-10.24-10.24v-58.1632c0-5.7344 4.5056-10.24 10.24-10.24H616.448c5.7344 0 10.24 4.5056 10.24 10.24v58.1632c0 5.7344-4.5056 10.24-10.24 10.24z m-50.9952-20.48H606.208v-37.6832h-40.7552v37.6832z" fill="#1C1D21" p-id="12400"></path><path d="M302.8992 848.2816h61.2352v58.1632h-61.2352z" fill="#E0E0E0" p-id="12401"></path><path d="M364.1344 848.2816h38.0928v58.1632h-38.0928z" fill="#AAADAD" p-id="12402"></path><path d="M364.1344 916.48h-61.2352c-5.7344 0-10.24-4.5056-10.24-10.24v-58.1632c0-5.7344 4.5056-10.24 10.24-10.24h61.2352c5.7344 0 10.24 4.5056 10.24 10.24v58.1632c0 5.7344-4.5056 10.24-10.24 10.24z m-50.9952-20.48h40.7552v-37.6832h-40.7552v37.6832z" fill="#1C1D21" p-id="12403"></path><path d="M402.2272 916.48h-38.0928c-5.7344 0-10.24-4.5056-10.24-10.24v-58.1632c0-5.7344 4.5056-10.24 10.24-10.24h38.0928c5.7344 0 10.24 4.5056 10.24 10.24v58.1632c0 5.7344-4.5056 10.24-10.24 10.24z m-27.8528-20.48h17.6128v-37.6832h-17.6128v37.6832z" fill="#1C1D21" p-id="12404"></path><path d="M616.6528 606.6176V884.736c0 11.8784 9.6256 21.7088 21.7088 21.7088h50.5856c11.8784 0 21.7088-9.6256 21.7088-21.7088V606.6176c0-16.9984-13.7216-30.72-30.72-30.72h-32.5632c-16.9984 0-30.72 13.7216-30.72 30.72z" fill="#8CEEF9" p-id="12405"></path><path d="M688.9472 916.48h-50.5856c-17.6128 0-31.9488-14.336-31.9488-31.9488V606.6176c0-22.528 18.432-40.96 40.96-40.96H679.936c22.528 0 40.96 18.432 40.96 40.96V884.736c0 17.6128-14.336 31.744-31.9488 31.744z m-41.5744-330.3424c-11.264 0-20.48 9.216-20.48 20.48V884.736c0 6.3488 5.12 11.4688 11.4688 11.4688h50.5856c6.3488 0 11.4688-5.12 11.4688-11.4688V606.6176c0-11.264-9.216-20.48-20.48-20.48h-32.5632z" fill="#1C1D21" p-id="12406"></path><path d="M696.32 527.7696h-65.3312c-7.9872 0-14.336 6.3488-14.336 14.336v19.456c0 7.9872 6.3488 14.336 14.336 14.336H696.32c7.9872 0 14.336-6.3488 14.336-14.336v-19.456c0-7.9872-6.3488-14.336-14.336-14.336z" fill="#FF8939" p-id="12407"></path><path d="M696.32 586.1376h-65.3312c-13.5168 0-24.576-11.0592-24.576-24.576v-19.456c0-13.5168 11.0592-24.576 24.576-24.576H696.32c13.5168 0 24.576 11.0592 24.576 24.576v19.456c0 13.7216-11.0592 24.576-24.576 24.576z m-65.3312-48.128c-2.2528 0-4.096 1.8432-4.096 4.096v19.456c0 2.2528 1.8432 4.096 4.096 4.096H696.32c2.2528 0 4.096-1.8432 4.096-4.096v-19.456c0-2.2528-1.8432-4.096-4.096-4.096h-65.3312z" fill="#1C1D21" p-id="12408"></path><path d="M640.2048 882.688m-23.552 0a23.552 23.552 0 1 0 47.104 0 23.552 23.552 0 1 0-47.104 0Z" fill="#C67552" p-id="12409"></path><path d="M687.3088 882.688m-23.552 0a23.552 23.552 0 1 0 47.104 0 23.552 23.552 0 1 0-47.104 0Z" fill="#C67552" p-id="12410"></path><path d="M640.2048 835.584m-23.552 0a23.552 23.552 0 1 0 47.104 0 23.552 23.552 0 1 0-47.104 0Z" fill="#C67552" p-id="12411"></path><path d="M687.3088 835.584m-23.552 0a23.552 23.552 0 1 0 47.104 0 23.552 23.552 0 1 0-47.104 0Z" fill="#C67552" p-id="12412"></path><path d="M640.2048 788.48m-23.552 0a23.552 23.552 0 1 0 47.104 0 23.552 23.552 0 1 0-47.104 0Z" fill="#C67552" p-id="12413"></path><path d="M687.3088 788.48m-23.552 0a23.552 23.552 0 1 0 47.104 0 23.552 23.552 0 1 0-47.104 0Z" fill="#C67552" p-id="12414"></path><path d="M640.2048 916.48c-18.6368 0-33.792-15.1552-33.792-33.792s15.1552-33.792 33.792-33.792 33.792 15.1552 33.792 33.792-15.1552 33.792-33.792 33.792z m0-47.104c-7.3728 0-13.312 5.9392-13.312 13.312s5.9392 13.312 13.312 13.312 13.312-5.9392 13.312-13.312-6.144-13.312-13.312-13.312z" fill="#1C1D21" p-id="12415"></path><path d="M687.3088 916.48c-18.6368 0-33.792-15.1552-33.792-33.792s15.1552-33.792 33.792-33.792 33.792 15.1552 33.792 33.792-15.1552 33.792-33.792 33.792z m0-47.104c-7.3728 0-13.312 5.9392-13.312 13.312s5.9392 13.312 13.312 13.312 13.312-5.9392 13.312-13.312-5.9392-13.312-13.312-13.312zM640.2048 869.376c-18.6368 0-33.792-15.1552-33.792-33.792s15.1552-33.792 33.792-33.792 33.792 15.1552 33.792 33.792-15.1552 33.792-33.792 33.792z m0-47.104c-7.3728 0-13.312 5.9392-13.312 13.312s5.9392 13.312 13.312 13.312 13.312-5.9392 13.312-13.312-6.144-13.312-13.312-13.312z" fill="#1C1D21" p-id="12416"></path><path d="M687.3088 869.376c-18.6368 0-33.792-15.1552-33.792-33.792s15.1552-33.792 33.792-33.792 33.792 15.1552 33.792 33.792-15.1552 33.792-33.792 33.792z m0-47.104c-7.3728 0-13.312 5.9392-13.312 13.312s5.9392 13.312 13.312 13.312 13.312-5.9392 13.312-13.312-5.9392-13.312-13.312-13.312zM640.2048 822.272c-18.6368 0-33.792-15.1552-33.792-33.792s15.1552-33.792 33.792-33.792 33.792 15.1552 33.792 33.792-15.1552 33.792-33.792 33.792z m0-47.104c-7.3728 0-13.312 5.9392-13.312 13.312s5.9392 13.312 13.312 13.312 13.312-5.9392 13.312-13.312-6.144-13.312-13.312-13.312z" fill="#1C1D21" p-id="12417"></path><path d="M687.3088 822.272c-18.6368 0-33.792-15.1552-33.792-33.792s15.1552-33.792 33.792-33.792 33.792 15.1552 33.792 33.792-15.1552 33.792-33.792 33.792z m0-47.104c-7.3728 0-13.312 5.9392-13.312 13.312s5.9392 13.312 13.312 13.312 13.312-5.9392 13.312-13.312-5.9392-13.312-13.312-13.312z" fill="#1C1D21" p-id="12418"></path><path d="M819.4048 575.8976h-32.5632c-16.9984 0-30.72 13.7216-30.72 30.72V884.736c0 11.8784 9.6256 21.7088 21.7088 21.7088h44.4416c9.6256-7.5776 18.8416-15.36 27.648-23.552V606.6176c0.2048-16.9984-13.5168-30.72-30.5152-30.72z" fill="#8CEEF9" p-id="12419"></path><path d="M822.272 916.48h-44.4416c-17.6128 0-31.9488-14.336-31.9488-31.9488V606.6176c0-22.528 18.432-40.96 40.96-40.96h32.5632c22.528 0 40.96 18.432 40.96 40.96V882.688c0 2.8672-1.2288 5.5296-3.2768 7.5776-9.216 8.3968-18.6368 16.384-28.2624 23.9616-2.048 1.6384-4.3008 2.2528-6.5536 2.2528z m-35.4304-330.3424c-11.264 0-20.48 9.216-20.48 20.48V884.736c0 6.3488 5.12 11.4688 11.4688 11.4688h40.96c7.168-5.7344 14.1312-11.6736 21.0944-17.8176V606.6176c0-11.264-9.216-20.48-20.48-20.48h-32.5632zM850.1248 882.688z" fill="#1C1D21" p-id="12420"></path><path d="M835.7888 527.7696h-65.3312c-7.9872 0-14.336 6.3488-14.336 14.336v19.456c0 7.9872 6.3488 14.336 14.336 14.336h65.3312c7.9872 0 14.336-6.3488 14.336-14.336v-19.456c0-7.9872-6.5536-14.336-14.336-14.336z" fill="#FF8939" p-id="12421"></path><path d="M835.7888 586.1376h-65.3312c-13.5168 0-24.576-11.0592-24.576-24.576v-19.456c0-13.5168 11.0592-24.576 24.576-24.576h65.3312c13.5168 0 24.576 11.0592 24.576 24.576v19.456c0 13.7216-11.0592 24.576-24.576 24.576z m-65.3312-48.128c-2.2528 0-4.096 1.8432-4.096 4.096v19.456c0 2.2528 1.8432 4.096 4.096 4.096h65.3312c2.2528 0 4.096-1.8432 4.096-4.096v-19.456c0-2.2528-1.8432-4.096-4.096-4.096h-65.3312z" fill="#1C1D21" p-id="12422"></path><path d="M779.4688 882.688m-23.552 0a23.552 23.552 0 1 0 47.104 0 23.552 23.552 0 1 0-47.104 0Z" fill="#C67552" p-id="12423"></path><path d="M826.5728 859.136c-13.1072 0-23.552 10.6496-23.552 23.552 0 11.6736 8.6016 21.2992 19.6608 23.1424 9.4208-7.3728 18.6368-15.1552 27.4432-23.3472 0-12.9024-10.4448-23.3472-23.552-23.3472z" fill="#C67552" p-id="12424"></path><path d="M779.4688 835.584m-23.552 0a23.552 23.552 0 1 0 47.104 0 23.552 23.552 0 1 0-47.104 0Z" fill="#C67552" p-id="12425"></path><path d="M826.5728 835.584m-23.552 0a23.552 23.552 0 1 0 47.104 0 23.552 23.552 0 1 0-47.104 0Z" fill="#C67552" p-id="12426"></path><path d="M779.4688 788.48m-23.552 0a23.552 23.552 0 1 0 47.104 0 23.552 23.552 0 1 0-47.104 0Z" fill="#C67552" p-id="12427"></path><path d="M826.5728 788.48m-23.552 0a23.552 23.552 0 1 0 47.104 0 23.552 23.552 0 1 0-47.104 0Z" fill="#C67552" p-id="12428"></path><path d="M779.4688 916.48c-18.6368 0-33.792-15.1552-33.792-33.792s15.1552-33.792 33.792-33.792 33.792 15.1552 33.792 33.792-15.1552 33.792-33.792 33.792z m0-47.104c-7.3728 0-13.312 5.9392-13.312 13.312s5.9392 13.312 13.312 13.312 13.312-5.9392 13.312-13.312-5.9392-13.312-13.312-13.312z" fill="#1C1D21" p-id="12429"></path><path d="M822.6816 916.2752c-0.6144 0-1.2288 0-1.6384-0.2048-16.384-2.6624-28.2624-16.7936-28.2624-33.3824 0-18.6368 15.1552-33.792 33.792-33.792s33.792 15.1552 33.792 33.5872c0 2.8672-1.2288 5.7344-3.2768 7.5776-9.0112 8.192-18.432 16.1792-28.0576 23.7568-1.8432 1.6384-4.096 2.4576-6.3488 2.4576z m3.8912-46.8992c-7.3728 0-13.312 5.9392-13.312 13.312 0 5.12 2.8672 9.6256 7.168 11.8784 6.3488-5.12 12.6976-10.4448 18.8416-15.9744-1.6384-5.3248-6.7584-9.216-12.6976-9.216z" fill="#1C1D21" p-id="12430"></path><path d="M779.4688 869.376c-18.6368 0-33.792-15.1552-33.792-33.792s15.1552-33.792 33.792-33.792 33.792 15.1552 33.792 33.792-15.1552 33.792-33.792 33.792z m0-47.104c-7.3728 0-13.312 5.9392-13.312 13.312s5.9392 13.312 13.312 13.312 13.312-5.9392 13.312-13.312-5.9392-13.312-13.312-13.312z" fill="#1C1D21" p-id="12431"></path><path d="M826.5728 869.376c-18.6368 0-33.792-15.1552-33.792-33.792s15.1552-33.792 33.792-33.792 33.792 15.1552 33.792 33.792-15.1552 33.792-33.792 33.792z m0-47.104c-7.3728 0-13.312 5.9392-13.312 13.312s5.9392 13.312 13.312 13.312 13.312-5.9392 13.312-13.312-5.9392-13.312-13.312-13.312zM779.4688 822.272c-18.6368 0-33.792-15.1552-33.792-33.792s15.1552-33.792 33.792-33.792 33.792 15.1552 33.792 33.792-15.1552 33.792-33.792 33.792z m0-47.104c-7.3728 0-13.312 5.9392-13.312 13.312s5.9392 13.312 13.312 13.312 13.312-5.9392 13.312-13.312-5.9392-13.312-13.312-13.312z" fill="#1C1D21" p-id="12432"></path><path d="M826.5728 822.272c-18.6368 0-33.792-15.1552-33.792-33.792s15.1552-33.792 33.792-33.792 33.792 15.1552 33.792 33.792-15.1552 33.792-33.792 33.792z m0-47.104c-7.3728 0-13.312 5.9392-13.312 13.312s5.9392 13.312 13.312 13.312 13.312-5.9392 13.312-13.312-5.9392-13.312-13.312-13.312z" fill="#1C1D21" p-id="12433"></path><path d="M512 232.0384m-155.648 0a155.648 155.648 0 1 0 311.296 0 155.648 155.648 0 1 0-311.296 0Z" fill="#8CEEF9" p-id="12434"></path><path d="M512 398.1312c-91.5456 0-165.888-74.3424-165.888-165.888s74.3424-165.888 165.888-165.888 165.888 74.3424 165.888 165.888-74.3424 165.888-165.888 165.888z m0-311.5008c-80.2816 0-145.408 65.3312-145.408 145.408s65.3312 145.408 145.408 145.408 145.408-65.3312 145.408-145.408-65.1264-145.408-145.408-145.408z" fill="#1C1D21" p-id="12435"></path><path d="M385.4336 322.7648c28.2624 39.3216 74.3424 65.1264 126.5664 65.1264s98.304-25.6 126.5664-65.1264H385.4336z" fill="#C67552" p-id="12436"></path><path d="M512 398.1312c-53.248 0-103.8336-26.0096-134.9632-69.4272-2.2528-3.072-2.4576-7.168-0.8192-10.6496 1.8432-3.4816 5.3248-5.5296 9.0112-5.5296h253.1328c3.8912 0 7.3728 2.048 9.0112 5.5296 1.8432 3.4816 1.4336 7.5776-0.8192 10.6496-30.72 43.4176-81.3056 69.4272-134.5536 69.4272z m-104.8576-65.1264c27.2384 28.2624 65.1264 44.6464 104.8576 44.6464s77.6192-16.384 104.8576-44.6464H407.1424z" fill="#1C1D21" p-id="12437"></path><path d="M448.512 156.0576c-12.0832 6.9632-20.0704 19.8656-20.0704 34.816 0 14.9504 7.9872 27.8528 20.0704 34.816 12.0832-6.9632 20.0704-19.8656 20.0704-34.816 0-14.7456-7.9872-27.8528-20.0704-34.816z" fill="#0ABFB2" p-id="12438"></path><path d="M448.512 235.9296c-1.8432 0-3.4816-0.4096-5.12-1.4336-15.5648-9.0112-25.1904-25.8048-25.1904-43.6224 0-18.0224 9.6256-34.6112 25.1904-43.6224 3.072-1.8432 7.168-1.8432 10.24 0 15.5648 9.0112 25.1904 25.8048 25.1904 43.6224s-9.6256 34.6112-25.1904 43.6224c-1.4336 1.024-3.2768 1.4336-5.12 1.4336z m0-67.1744c-6.144 5.5296-9.8304 13.7216-9.8304 22.1184 0 8.6016 3.6864 16.5888 9.8304 22.1184 6.144-5.5296 9.8304-13.7216 9.8304-22.1184s-3.4816-16.5888-9.8304-22.1184z" fill="#1C1D21" p-id="12439"></path><path d="M448.512 333.0048c-5.7344 0-10.24-4.5056-10.24-10.24v-97.0752c0-5.7344 4.5056-10.24 10.24-10.24s10.24 4.5056 10.24 10.24v97.0752c0 5.5296-4.5056 10.24-10.24 10.24z" fill="#1C1D21" p-id="12440"></path><path d="M403.456 199.2704c11.8784-3.2768 25.1904-0.2048 34.6112 9.216 9.4208 9.4208 12.4928 22.7328 9.216 34.6112-11.8784 3.2768-25.1904 0.2048-34.6112-9.216-9.216-9.216-12.288-22.528-9.216-34.6112z" fill="#0ABFB2" p-id="12441"></path><path d="M438.0672 254.5664c-12.0832 0-23.9616-4.7104-32.5632-13.5168-11.6736-11.6736-16.1792-28.672-11.8784-44.4416 1.024-3.4816 3.6864-6.3488 7.168-7.168 15.7696-4.3008 32.9728 0.4096 44.4416 11.8784 11.6736 11.6736 16.1792 28.672 11.8784 44.4416-1.024 3.4816-3.6864 6.3488-7.168 7.168-3.8912 1.2288-7.7824 1.6384-11.8784 1.6384z m-25.6-46.2848c0 6.7584 2.6624 13.5168 7.3728 18.2272 4.9152 4.9152 11.4688 7.3728 18.0224 7.5776h0.2048c0-6.7584-2.6624-13.5168-7.3728-18.2272-4.7104-4.9152-11.264-7.5776-18.2272-7.5776 0.2048 0 0.2048 0 0 0z" fill="#1C1D21" p-id="12442"></path><path d="M449.7408 243.3024c11.8784 3.2768 25.1904 0.2048 34.6112-9.216 9.4208-9.4208 12.4928-22.7328 9.216-34.6112-11.8784-3.2768-25.1904-0.2048-34.6112 9.216-9.216 9.216-12.288 22.528-9.216 34.6112z" fill="#0ABFB2" p-id="12443"></path><path d="M458.9568 254.5664c-3.8912 0-7.9872-0.4096-11.8784-1.6384-3.4816-1.024-6.3488-3.6864-7.168-7.168-4.3008-15.7696 0.4096-32.9728 11.8784-44.4416 11.6736-11.6736 28.672-16.1792 44.4416-11.8784 3.4816 1.024 6.3488 3.6864 7.168 7.168 4.3008 15.7696-0.4096 32.9728-11.8784 44.4416-8.6016 8.8064-20.48 13.5168-32.5632 13.5168z m-0.2048-20.48c6.7584 0 13.5168-2.6624 18.2272-7.3728 4.9152-4.9152 7.5776-11.4688 7.3728-18.2272h-0.2048c-6.7584 0-13.312 2.6624-18.0224 7.3728-4.7104 4.9152-7.3728 11.4688-7.3728 18.2272zM448.512 296.5504c-18.2272 0-35.4304-6.7584-47.104-18.8416-3.8912-4.096-3.8912-10.4448 0-14.5408 4.096-3.8912 10.4448-3.8912 14.5408 0 7.9872 7.9872 19.8656 12.6976 32.5632 12.6976s24.576-4.7104 32.5632-12.6976c3.8912-4.096 10.4448-4.096 14.5408 0 4.096 3.8912 4.096 10.4448 0 14.5408-11.6736 12.0832-28.8768 18.8416-47.104 18.8416z" fill="#1C1D21" p-id="12444"></path><path d="M575.488 156.0576c-12.0832 6.9632-20.0704 19.8656-20.0704 34.816 0 14.9504 7.9872 27.8528 20.0704 34.816 12.0832-6.9632 20.0704-19.8656 20.0704-34.816 0-14.7456-8.192-27.8528-20.0704-34.816z" fill="#0ABFB2" p-id="12445"></path><path d="M575.488 235.9296c-1.8432 0-3.4816-0.4096-5.12-1.4336-15.5648-9.0112-25.1904-25.8048-25.1904-43.6224s9.6256-34.6112 25.1904-43.6224c3.072-1.8432 7.168-1.8432 10.24 0 15.5648 9.0112 25.1904 25.8048 25.1904 43.6224 0 18.0224-9.6256 34.6112-25.1904 43.6224-1.6384 1.024-3.4816 1.4336-5.12 1.4336z m0-67.1744c-6.144 5.5296-9.8304 13.7216-9.8304 22.1184s3.6864 16.5888 9.8304 22.1184c6.144-5.5296 9.8304-13.7216 9.8304-22.1184 0-8.3968-3.6864-16.5888-9.8304-22.1184z" fill="#1C1D21" p-id="12446"></path><path d="M575.488 333.0048c-5.7344 0-10.24-4.5056-10.24-10.24v-97.0752c0-5.7344 4.5056-10.24 10.24-10.24s10.24 4.5056 10.24 10.24v97.0752c0 5.5296-4.7104 10.24-10.24 10.24z" fill="#1C1D21" p-id="12447"></path><path d="M530.432 199.2704c11.8784-3.2768 25.1904-0.2048 34.6112 9.216 9.4208 9.4208 12.4928 22.7328 9.216 34.6112-11.8784 3.2768-25.1904 0.2048-34.6112-9.216-9.4208-9.216-12.4928-22.528-9.216-34.6112z" fill="#0ABFB2" p-id="12448"></path><path d="M565.0432 254.5664c-12.0832 0-23.9616-4.7104-32.5632-13.5168-11.6736-11.6736-16.1792-28.672-11.8784-44.4416 1.024-3.4816 3.6864-6.3488 7.168-7.168 15.7696-4.3008 32.9728 0.4096 44.4416 11.8784 11.6736 11.6736 16.1792 28.672 11.8784 44.4416-1.024 3.4816-3.6864 6.3488-7.168 7.168-3.8912 1.2288-7.9872 1.6384-11.8784 1.6384z m-25.6-46.2848c0 6.7584 2.6624 13.5168 7.3728 18.2272 4.9152 4.9152 11.4688 7.5776 18.2272 7.3728 0-6.7584-2.6624-13.5168-7.3728-18.2272-4.9152-4.7104-11.6736-7.3728-18.2272-7.3728z" fill="#1C1D21" p-id="12449"></path><path d="M576.7168 243.3024c11.8784 3.2768 25.1904 0.2048 34.6112-9.216 9.4208-9.4208 12.4928-22.7328 9.216-34.6112-11.8784-3.2768-25.1904-0.2048-34.6112 9.216-9.4208 9.216-12.4928 22.528-9.216 34.6112z" fill="#0ABFB2" p-id="12450"></path><path d="M585.9328 254.5664c-3.8912 0-7.9872-0.4096-11.8784-1.6384-3.4816-1.024-6.3488-3.6864-7.168-7.168-4.3008-15.7696 0.4096-32.9728 11.8784-44.4416 11.6736-11.6736 28.672-16.1792 44.4416-11.8784 3.4816 1.024 6.3488 3.6864 7.168 7.168 4.3008 15.7696-0.4096 32.9728-11.8784 44.4416-8.8064 8.8064-20.6848 13.5168-32.5632 13.5168z m-0.2048-20.48c6.9632 0 13.5168-2.6624 18.2272-7.3728 4.9152-4.9152 7.5776-11.4688 7.3728-18.2272h-0.2048c-6.7584 0-13.312 2.6624-18.0224 7.3728-4.9152 4.9152-7.5776 11.4688-7.3728 18.2272zM575.488 296.5504c-18.2272 0-35.4304-6.7584-47.104-18.8416-3.8912-4.096-3.8912-10.4448 0-14.5408 4.096-3.8912 10.4448-3.8912 14.5408 0 7.9872 7.9872 19.8656 12.6976 32.5632 12.6976s24.576-4.7104 32.5632-12.6976c3.8912-4.096 10.4448-4.096 14.5408 0 4.096 3.8912 4.096 10.4448 0 14.5408-11.8784 12.0832-28.8768 18.8416-47.104 18.8416z" fill="#1C1D21" p-id="12451"></path><path d="M327.4752 389.3248c-5.7344 0-10.24-4.5056-10.24-10.24v-15.5648c0-5.7344 4.5056-10.24 10.24-10.24s10.24 4.5056 10.24 10.24v15.5648c0 5.7344-4.7104 10.24-10.24 10.24zM327.4752 817.5616c-5.7344 0-10.24-4.5056-10.24-10.24V437.248c0-5.7344 4.5056-10.24 10.24-10.24s10.24 4.5056 10.24 10.24v370.0736c0 5.5296-4.7104 10.24-10.24 10.24z" fill="#FFFFFF" p-id="12452"></path></svg>