<svg xmlns="http://www.w3.org/2000/svg" viewBox="0 0 1024 1024" version="1.1"><path d="M512 512m-501.76 0a501.76 501.76 0 1 0 1003.52 0 501.76 501.76 0 1 0-1003.52 0Z" fill="#8CEEF9" p-id="9505"></path><path d="M826.5728 613.376L551.3216 401.6128c-23.1424-17.8176-55.5008-17.8176-78.6432 0L197.4272 613.376c-22.3232 17.2032-10.24 52.8384 18.0224 52.8384H280.576v290.816c30.1056 15.7696 62.0544 28.4672 95.232 37.6832V731.9552h88.4736v279.552c15.7696 1.4336 31.5392 2.2528 47.7184 2.2528s31.9488-0.8192 47.7184-2.2528V731.9552h88.4736v263.168c33.3824-9.4208 65.1264-22.1184 95.232-37.6832v-290.816h65.1264c28.2624-0.2048 40.3456-36.0448 18.0224-53.248z" fill="#AAADAD" p-id="9506"></path><path d="M512 1024c-136.8064 0-265.4208-53.248-362.0864-149.9136C53.248 777.4208 0 648.8064 0 512S53.248 246.5792 149.9136 149.9136C246.5792 53.248 375.1936 0 512 0s265.4208 53.248 362.0864 149.9136C970.752 246.5792 1024 375.1936 1024 512s-53.248 265.4208-149.9136 362.0864C777.4208 970.752 648.8064 1024 512 1024z m0-1003.52C241.0496 20.48 20.48 241.0496 20.48 512s220.5696 491.52 491.52 491.52 491.52-220.5696 491.52-491.52S782.9504 20.48 512 20.48z" fill="#1C1D21" p-id="9507"></path><path d="M512 1024c-15.9744 0-32.3584-0.8192-48.5376-2.2528-5.3248-0.4096-9.216-4.9152-9.216-10.24V742.1952h-67.9936v252.928c0 3.2768-1.4336 6.144-4.096 8.192-2.4576 1.8432-5.9392 2.6624-9.0112 1.6384-33.5872-9.4208-66.1504-22.3232-97.28-38.5024-3.4816-1.8432-5.5296-5.3248-5.5296-9.0112v-280.576h-54.8864c-17.2032 0-32.1536-10.6496-37.6832-27.0336-5.5296-16.384-0.4096-33.792 13.312-44.2368l275.2512-211.7632c26.8288-20.6848 64.3072-20.6848 91.136 0l275.2512 211.7632c13.7216 10.6496 19.0464 27.8528 13.312 44.2368-5.5296 16.384-20.2752 27.0336-37.6832 27.0336H753.664v280.576c0 3.8912-2.048 7.3728-5.5296 9.0112-30.9248 16.1792-63.6928 29.0816-97.28 38.5024-3.072 0.8192-6.3488 0.2048-9.0112-1.6384-2.4576-1.8432-4.096-4.9152-4.096-8.192V742.1952h-67.9936v269.312c0 5.3248-4.096 9.6256-9.216 10.24-16.1792 1.4336-32.5632 2.2528-48.5376 2.2528z m-37.4784-21.9136c12.4928 1.024 25.1904 1.4336 37.4784 1.4336s24.7808-0.4096 37.4784-1.4336V731.9552c0-5.7344 4.5056-10.24 10.24-10.24h88.4736c5.7344 0 10.24 4.5056 10.24 10.24v249.4464c25.6-7.9872 50.7904-18.2272 74.752-30.3104v-284.672c0-5.7344 4.5056-10.24 10.24-10.24h65.1264c10.24 0 16.1792-6.7584 18.2272-13.1072 2.2528-6.3488 1.6384-15.36-6.5536-21.504L544.9728 409.8048c-19.456-14.9504-46.6944-14.9504-66.1504 0L203.776 621.568c-7.9872 6.144-8.6016 15.1552-6.5536 21.504 2.2528 6.3488 7.9872 13.1072 18.2272 13.1072H280.576c5.7344 0 10.24 4.5056 10.24 10.24v284.672c24.1664 12.0832 49.152 22.3232 74.752 30.3104V731.9552c0-5.7344 4.5056-10.24 10.24-10.24h88.4736c5.7344 0 10.24 4.5056 10.24 10.24v270.1312z" fill="#1C1D21" p-id="9508"></path><path d="M318.0544 582.4512c-3.072 0-6.144-1.4336-8.192-4.096-3.4816-4.5056-2.6624-10.8544 1.8432-14.336l2.4576-1.8432c4.5056-3.4816 10.8544-2.6624 14.336 1.8432 3.4816 4.5056 2.6624 10.8544-1.8432 14.336l-2.4576 1.8432c-1.6384 1.6384-3.8912 2.2528-6.144 2.2528zM423.936 635.6992h-160.3584c-6.5536 0-12.288-4.096-14.336-10.24s0-12.9024 5.12-16.9984l31.5392-24.3712c4.5056-3.4816 10.8544-2.6624 14.336 1.8432 3.4816 4.5056 2.6624 10.8544-1.8432 14.336l-19.2512 14.7456H423.936c5.7344 0 10.24 4.5056 10.24 10.24s-4.5056 10.4448-10.24 10.4448z" fill="#E0E0E0" p-id="9509"></path><path d="M751.8208 364.9536v-36.864c0-10.8544-8.8064-19.456-19.456-19.456h-11.264c-8.8064 0-16.5888-5.9392-18.8416-14.5408-4.3008-15.9744-10.6496-31.1296-18.8416-45.2608-4.3008-7.5776-2.8672-17.2032 3.2768-23.3472l7.9872-7.9872c7.5776-7.5776 7.5776-20.0704 0-27.648L668.672 163.84c-7.5776-7.5776-20.0704-7.5776-27.648 0l-7.9872 7.9872c-6.144 6.144-15.7696 7.5776-23.3472 3.2768-14.1312-7.9872-29.2864-14.336-45.2608-18.8416-8.6016-2.4576-14.5408-10.0352-14.5408-18.8416v-11.264c0-10.8544-8.8064-19.456-19.456-19.456h-36.864c-10.8544 0-19.456 8.8064-19.456 19.456v11.264c0 8.8064-5.9392 16.5888-14.5408 18.8416-15.9744 4.3008-31.1296 10.6496-45.2608 18.8416-7.5776 4.3008-17.2032 2.8672-23.3472-3.2768L382.976 163.84c-7.5776-7.5776-20.0704-7.5776-27.648 0l-26.0096 26.0096c-7.5776 7.5776-7.5776 20.0704 0 27.648l7.9872 7.9872c6.144 6.144 7.5776 15.7696 3.2768 23.3472-7.9872 14.1312-14.336 29.2864-18.8416 45.2608-2.4576 8.6016-10.0352 14.5408-18.8416 14.5408h-11.264c-10.8544 0-19.456 8.8064-19.456 19.456v36.864c0 10.8544 8.8064 19.456 19.456 19.456h11.264c8.8064 0 16.5888 5.9392 18.8416 14.5408 4.3008 15.9744 10.6496 31.1296 18.8416 45.2608 4.3008 7.5776 2.8672 17.2032-3.2768 23.3472l-7.9872 7.9872c-7.5776 7.5776-7.5776 20.0704 0 27.648l26.0096 26.0096c7.5776 7.5776 20.0704 7.5776 27.648 0l7.9872-7.9872c6.144-6.144 15.7696-7.5776 23.3472-3.2768 14.1312 7.9872 29.2864 14.336 45.2608 18.8416 8.6016 2.4576 14.5408 10.0352 14.5408 18.8416v11.264c0 10.8544 8.8064 19.456 19.456 19.456h36.864c10.8544 0 19.456-8.8064 19.456-19.456v-11.264c0-8.8064 5.9392-16.5888 14.5408-18.8416 15.9744-4.3008 31.1296-10.6496 45.2608-18.8416 7.5776-4.3008 17.2032-2.8672 23.3472 3.2768l7.9872 7.9872c7.5776 7.5776 20.0704 7.5776 27.648 0l26.0096-26.0096c7.5776-7.5776 7.5776-20.0704 0-27.648l-7.9872-7.9872c-6.144-6.144-7.5776-15.7696-3.2768-23.3472 7.9872-14.1312 14.336-29.2864 18.8416-45.2608 2.4576-8.6016 10.0352-14.5408 18.8416-14.5408h11.264c10.6496 0 19.456-8.6016 19.456-19.456z" fill="#FF8939" p-id="9510"></path><path d="M530.432 596.5824h-36.864c-16.384 0-29.696-13.312-29.696-29.696v-11.264c0-4.096-2.8672-7.7824-6.9632-9.0112-16.5888-4.5056-32.5632-11.264-47.5136-19.6608-3.4816-2.048-7.9872-1.4336-11.0592 1.6384l-7.9872 7.9872c-11.6736 11.6736-30.5152 11.6736-42.1888 0l-26.0096-26.0096c-11.6736-11.6736-11.6736-30.5152 0-42.1888l7.9872-7.9872c2.8672-2.8672 3.6864-7.3728 1.6384-11.0592-8.6016-14.9504-15.1552-30.9248-19.6608-47.5136-1.2288-4.096-4.9152-6.9632-9.0112-6.9632h-11.264c-16.384 0-29.696-13.312-29.696-29.696v-36.864c0-16.384 13.312-29.696 29.696-29.696h11.264c4.096 0 7.7824-2.8672 9.0112-6.9632 4.5056-16.5888 11.264-32.5632 19.6608-47.5136 2.048-3.4816 1.4336-7.9872-1.6384-11.0592l-7.9872-7.9872c-11.6736-11.6736-11.6736-30.5152 0-42.1888L348.16 156.672c11.6736-11.6736 30.5152-11.6736 42.1888 0l7.9872 7.9872c2.8672 2.8672 7.5776 3.6864 11.0592 1.6384 14.9504-8.6016 30.9248-15.1552 47.5136-19.6608 4.096-1.2288 6.9632-4.9152 6.9632-9.0112v-11.264c0-16.384 13.312-29.696 29.696-29.696h36.864c16.384 0 29.696 13.312 29.696 29.696v11.264c0 4.096 2.8672 7.7824 6.9632 9.0112 16.5888 4.5056 32.5632 11.264 47.5136 19.6608 3.4816 2.048 7.9872 1.4336 11.0592-1.6384l7.9872-7.9872c11.6736-11.6736 30.5152-11.6736 42.1888 0l26.0096 26.0096c11.6736 11.6736 11.6736 30.5152 0 42.1888l-7.9872 7.9872c-2.8672 2.8672-3.6864 7.3728-1.6384 11.0592 8.6016 14.9504 15.1552 30.9248 19.6608 47.5136 1.2288 4.096 4.9152 6.9632 9.0112 6.9632h11.264c16.384 0 29.696 13.312 29.696 29.696v36.864c0 16.384-13.312 29.696-29.696 29.696H720.896c-4.096 0-7.7824 2.8672-9.0112 6.9632-4.5056 16.5888-11.264 32.5632-19.6608 47.5136-2.048 3.4816-1.4336 7.9872 1.6384 11.0592l7.9872 7.9872c11.6736 11.6736 11.6736 30.5152 0 42.1888L675.84 536.3712c-11.6736 11.6736-30.5152 11.6736-42.1888 0l-7.9872-7.9872c-2.8672-2.8672-7.5776-3.6864-11.0592-1.6384-14.9504 8.6016-30.9248 15.1552-47.5136 19.6608-4.096 1.2288-6.9632 4.9152-6.9632 9.0112v11.264c0 16.5888-13.312 29.9008-29.696 29.9008z m-125.5424-91.3408c4.9152 0 10.0352 1.2288 14.5408 3.8912 13.5168 7.7824 27.8528 13.7216 42.8032 17.8176 13.1072 3.4816 22.1184 15.36 22.1184 28.672v11.264c0 5.12 4.096 9.216 9.216 9.216h36.864c5.12 0 9.216-4.096 9.216-9.216v-11.264c0-13.312 9.0112-25.1904 22.1184-28.672 14.9504-4.096 29.2864-10.0352 42.8032-17.8176 11.4688-6.5536 26.2144-4.5056 35.6352 4.9152l7.9872 7.9872c3.6864 3.6864 9.6256 3.6864 13.1072 0l26.0096-26.0096c3.6864-3.6864 3.6864-9.6256 0-13.1072l-7.9872-7.9872c-9.4208-9.4208-11.4688-24.1664-4.9152-35.6352 7.7824-13.5168 13.7216-27.8528 17.8176-42.8032 3.4816-13.1072 15.36-22.1184 28.672-22.1184h11.264c5.12 0 9.216-4.096 9.216-9.216v-36.864c0-5.12-4.096-9.216-9.216-9.216H720.896c-13.312 0-25.1904-9.0112-28.672-22.1184-4.096-14.9504-10.0352-29.2864-17.8176-42.8032-6.5536-11.4688-4.5056-26.2144 4.9152-35.6352l7.9872-7.9872c3.6864-3.6864 3.6864-9.6256 0-13.1072l-26.0096-26.0096c-3.6864-3.6864-9.6256-3.6864-13.1072 0l-7.9872 7.9872c-9.4208 9.4208-24.1664 11.4688-35.6352 4.9152-13.5168-7.7824-27.8528-13.7216-42.8032-17.8176-13.1072-3.4816-22.1184-15.36-22.1184-28.672v-11.264c0-5.12-4.096-9.216-9.216-9.216h-36.864c-5.12 0-9.216 4.096-9.216 9.216v11.264c0 13.312-9.0112 25.1904-22.1184 28.672-14.9504 4.096-29.2864 10.0352-42.8032 17.8176-11.4688 6.5536-26.2144 4.5056-35.6352-4.9152l-7.9872-7.9872c-3.6864-3.6864-9.6256-3.6864-13.1072 0l-26.0096 26.0096c-3.6864 3.6864-3.6864 9.6256 0 13.1072l7.9872 7.9872c9.4208 9.4208 11.4688 24.1664 4.9152 35.6352-7.7824 13.5168-13.7216 27.8528-17.8176 42.8032-3.4816 13.1072-15.36 22.1184-28.672 22.1184h-11.264c-5.12 0-9.216 4.096-9.216 9.216v36.864c0 5.12 4.096 9.216 9.216 9.216h11.264c13.312 0 25.1904 9.0112 28.672 22.1184 4.096 14.9504 10.0352 29.2864 17.8176 42.8032 6.5536 11.4688 4.5056 26.2144-4.9152 35.6352l-7.9872 7.9872c-3.6864 3.6864-3.6864 9.6256 0 13.1072l26.0096 26.0096c3.6864 3.6864 9.6256 3.6864 13.1072 0l7.9872-7.9872c5.7344-5.9392 13.312-8.8064 21.0944-8.8064z" fill="#1C1D21" p-id="9511"></path><path d="M512 346.5216m-142.1312 0a142.1312 142.1312 0 1 0 284.2624 0 142.1312 142.1312 0 1 0-284.2624 0Z" fill="#0ABFB2" p-id="9512"></path><path d="M512 498.8928c-83.968 0-152.3712-68.4032-152.3712-152.3712S428.032 194.1504 512 194.1504s152.3712 68.4032 152.3712 152.3712-68.4032 152.3712-152.3712 152.3712z m0-284.2624c-72.704 0-131.8912 59.1872-131.8912 131.8912s59.1872 131.8912 131.8912 131.8912 131.8912-59.1872 131.8912-131.8912-59.1872-131.8912-131.8912-131.8912z" fill="#1C1D21" p-id="9513"></path><path d="M519.7824 335.0528h-15.36c-0.8192 0-1.4336-0.6144-1.4336-1.4336v-18.0224c0-0.8192 0.6144-1.4336 1.4336-1.4336h28.2624c6.3488 0 11.4688-5.12 11.4688-11.4688 0-6.3488-5.12-11.4688-11.4688-11.4688h-9.6256v-19.456c0-4.7104-3.8912-8.6016-8.6016-8.6016-4.7104 0-8.6016 3.8912-8.6016 8.6016v19.456h-1.4336c-13.312 0-24.3712 10.8544-24.3712 24.3712v18.0224c0 13.312 10.8544 24.3712 24.3712 24.3712h15.36c0.8192 0 1.4336 0.6144 1.4336 1.4336v18.0224c0 0.8192-0.6144 1.4336-1.4336 1.4336H491.52c-6.3488 0-11.4688 5.12-11.4688 11.4688 0 6.3488 5.12 11.4688 11.4688 11.4688h14.336v19.456c0 4.7104 3.8912 8.6016 8.6016 8.6016 4.7104 0 8.6016-3.8912 8.6016-8.6016V401.408c11.8784-1.6384 21.0944-11.6736 21.0944-23.9616v-18.0224c-0.2048-13.312-11.0592-24.3712-24.3712-24.3712z" fill="#FFECE9" p-id="9514"></path><path d="M514.2528 263.168c4.7104 0 8.6016 3.8912 8.6016 8.6016v19.456h9.6256c6.3488 0 11.4688 5.12 11.4688 11.4688 0 6.3488-5.12 11.4688-11.4688 11.4688h-28.2624c-0.8192 0-1.4336 0.6144-1.4336 1.4336v18.0224c0 0.8192 0.6144 1.4336 1.4336 1.4336h15.36c13.312 0 24.3712 10.8544 24.3712 24.3712v18.0224c0 12.288-9.216 22.528-21.0944 23.9616v19.6608c0 4.7104-3.8912 8.6016-8.6016 8.6016-4.7104 0-8.6016-3.8912-8.6016-8.6016v-19.456h-14.336c-6.3488 0-11.4688-5.12-11.4688-11.4688 0-6.3488 5.12-11.4688 11.4688-11.4688h28.2624c0.8192 0 1.4336-0.6144 1.4336-1.4336v-18.0224c0-0.8192-0.6144-1.4336-1.4336-1.4336h-15.36c-13.312 0-24.3712-10.8544-24.3712-24.3712V315.392c0-13.312 10.8544-24.3712 24.3712-24.3712h1.4336v-19.456c0-4.5056 3.8912-8.3968 8.6016-8.3968m0-20.48c-15.9744 0-29.0816 13.1072-29.0816 29.0816v3.2768c-15.1552 7.168-25.6 22.528-25.6 40.5504v18.0224c0 12.0832 4.9152 23.1424 12.6976 31.1296-7.7824 5.7344-12.6976 15.1552-12.6976 25.3952 0 15.36 11.0592 28.4672 25.6 31.3344 0.2048 15.9744 13.1072 28.672 29.0816 28.672 15.9744 0 29.0816-13.1072 29.0816-29.0816v-5.9392c12.6976-7.9872 21.0944-22.1184 21.0944-37.888v-18.0224c0-12.0832-4.9152-23.1424-12.6976-31.1296 7.7824-5.7344 12.6976-15.1552 12.6976-25.3952 0-13.7216-8.8064-25.6-21.0944-29.9008v-1.024c0-15.9744-12.9024-29.0816-29.0816-29.0816zM610.304 676.6592H280.576c-5.7344 0-10.24-4.5056-10.24-10.24s4.5056-10.24 10.24-10.24h329.728c5.7344 0 10.24 4.5056 10.24 10.24s-4.5056 10.24-10.24 10.24zM660.8896 676.6592h-14.336c-5.7344 0-10.24-4.5056-10.24-10.24s4.5056-10.24 10.24-10.24h14.336c5.7344 0 10.24 4.5056 10.24 10.24s-4.7104 10.24-10.24 10.24zM743.424 676.6592h-26.624c-5.7344 0-10.24-4.5056-10.24-10.24s4.5056-10.24 10.24-10.24h26.624c5.7344 0 10.24 4.5056 10.24 10.24s-4.5056 10.24-10.24 10.24z" fill="#1C1D21" p-id="9515"></path></svg>