<svg xmlns="http://www.w3.org/2000/svg" viewBox="0 0 1024 1024" version="1.1"><path d="M512 512m-501.76 0a501.76 501.76 0 1 0 1003.52 0 501.76 501.76 0 1 0-1003.52 0Z" fill="#8CEEF9" p-id="11696"></path><path d="M662.528 590.0288l7.168 64.512c0.8192 7.7824 10.6496 10.6496 15.5648 4.5056l1.4336-1.8432c4.5056-5.7344 13.7216-3.6864 15.36 3.4816l7.7824 32.768c1.8432 7.7824 12.288 9.216 16.1792 2.2528 2.6624-4.7104 8.8064-5.9392 12.9024-2.6624l30.72 23.552c6.9632 5.3248 16.7936-1.8432 13.5168-10.0352l-14.1312-36.0448c-2.048-4.9152 1.024-10.4448 6.144-11.6736 7.7824-1.8432 9.216-12.288 2.2528-16.1792l-29.2864-16.384c-6.3488-3.6864-5.7344-12.9024 1.024-15.7696l2.2528-1.024c7.168-2.8672 7.168-13.1072 0-16.1792l-60.0064-24.7808c-2.8672-1.2288-6.144-0.8192-8.6016 1.024l-16.7936 12.6976c-2.6624 1.8432-3.8912 4.7104-3.4816 7.7824z" fill="#0ABFB2" p-id="11697"></path><path d="M774.9632 728.4736c-4.096 0-8.192-1.2288-11.4688-3.8912l-29.2864-22.528c-4.096 5.9392-11.0592 9.0112-18.2272 7.9872-7.7824-1.024-13.9264-6.7584-15.7696-14.336l-6.9632-29.696c-4.9152 5.7344-12.4928 7.9872-19.6608 5.9392-7.3728-2.048-12.6976-8.3968-13.7216-16.1792l-7.168-64.512c-0.8192-6.5536 2.048-13.312 7.3728-17.2032l16.7936-12.6976c5.3248-4.096 12.4928-4.9152 18.6368-2.4576l60.0064 24.7808c7.168 2.8672 11.6736 9.8304 11.6736 17.6128 0 7.5776-4.5056 14.1312-11.264 17.2032l26.624 14.9504c6.9632 3.8912 10.6496 11.4688 9.4208 19.2512-1.024 7.168-5.9392 13.1072-12.6976 15.36l13.5168 34.4064c3.072 7.9872 0.6144 16.9984-6.3488 22.1184-3.4816 2.6624-7.5776 3.8912-11.4688 3.8912z m-41.3696-47.7184c4.096 0 8.192 1.4336 11.4688 3.8912l26.4192 20.2752-12.0832-30.9248c-2.048-5.12-1.6384-10.8544 0.8192-15.7696 2.048-3.8912 5.3248-6.7584 9.216-8.6016l-26.4192-14.7456c-6.3488-3.6864-10.0352-10.4448-9.6256-17.8176 0.4096-6.9632 4.5056-12.9024 10.6496-15.9744L688.128 578.1504l-15.36 11.6736 6.7584 60.2112c4.5056-5.12 11.4688-7.3728 18.2272-5.9392 7.168 1.6384 12.6976 6.9632 14.336 14.1312l6.9632 29.4912c2.6624-3.2768 6.5536-5.5296 10.6496-6.3488 1.4336-0.4096 2.6624-0.6144 3.8912-0.6144z m-61.0304-91.7504z" fill="#1C1D21" p-id="11698"></path><path d="M515.4816 786.8416l11.264-67.3792c1.4336-8.192-7.7824-13.7216-14.5408-9.0112l-2.048 1.4336c-6.144 4.5056-14.9504-0.2048-14.5408-7.7824l1.6384-35.2256c0.4096-8.3968-9.6256-12.9024-15.5648-6.9632-3.8912 3.8912-10.4448 3.4816-13.9264-1.024l-24.1664-32.5632c-5.5296-7.5776-17.408-2.8672-16.5888 6.3488l3.8912 40.5504c0.6144 5.5296-3.8912 10.24-9.6256 10.0352-8.3968-0.4096-12.9024 9.6256-6.9632 15.5648l24.7808 24.9856c5.3248 5.5296 2.048 14.7456-5.5296 15.5648l-2.6624 0.2048c-8.192 0.8192-11.0592 11.264-4.7104 16.384l53.6576 42.3936c2.4576 2.048 5.9392 2.4576 9.0112 1.4336l20.6848-7.9872c3.2768-1.024 5.5296-3.6864 5.9392-6.9632z" fill="#0ABFB2" p-id="11699"></path><path d="M485.9904 812.6464c-4.3008 0-8.6016-1.4336-12.0832-4.096l-53.6576-42.3936c-6.144-4.9152-8.8064-12.9024-6.5536-20.6848 2.2528-7.5776 8.6016-13.1072 16.5888-13.9264h0.4096l-23.3472-23.552c-5.7344-5.7344-7.168-14.1312-3.8912-21.504 3.072-6.9632 9.8304-11.4688 17.408-11.4688l-3.8912-39.3216c-0.8192-8.8064 4.096-16.7936 12.288-20.0704 8.192-3.2768 17.408-0.6144 22.528 6.5536l23.552 31.744c5.7344-4.9152 13.7216-6.3488 20.6848-3.072a19.2512 19.2512 0 0 1 11.4688 18.6368l-1.4336 32.9728 0.4096-0.2048c6.3488-4.7104 14.9504-4.9152 21.7088-0.8192s10.24 11.8784 9.0112 19.6608l-11.264 67.3792c-1.2288 6.7584-5.7344 12.4928-12.0832 14.9504l-20.6848 7.9872c-2.4576 0.8192-4.9152 1.2288-7.168 1.2288zM434.9952 751.616l50.9952 40.3456 19.456-7.5776 10.8544-64.3072c-6.144 4.5056-13.9264 4.9152-20.6848 1.4336-6.5536-3.4816-10.4448-10.4448-10.24-18.0224l1.4336-32.768c-3.6864 2.8672-8.3968 4.3008-13.312 3.8912-5.5296-0.4096-10.8544-3.2768-14.1312-7.7824l-21.9136-29.4912 3.6864 36.6592c0.6144 5.5296-1.4336 11.264-5.3248 15.36-3.2768 3.4816-7.7824 5.5296-12.4928 5.9392l23.1424 23.3472c5.3248 5.3248 6.9632 13.1072 4.5056 20.0704-2.2528 7.168-8.6016 12.0832-15.9744 12.9024z m70.4512 33.5872z" fill="#1C1D21" p-id="11700"></path><path d="M511.5904 337.3056m-249.4464 0a249.4464 249.4464 0 1 0 498.8928 0 249.4464 249.4464 0 1 0-498.8928 0Z" fill="#FFECE9" p-id="11701"></path><path d="M499.712 184.1152c-5.3248 0-9.8304-4.096-10.24-9.4208-0.4096-5.7344 3.8912-10.4448 9.4208-10.8544 4.096-0.2048 8.3968-0.4096 12.4928-0.4096 5.7344 0 10.24 4.5056 10.24 10.24s-4.5056 10.24-10.24 10.24c-3.6864 0-7.3728 0.2048-11.0592 0.4096 0-0.2048-0.4096-0.2048-0.6144-0.2048zM410.4192 218.7264c-3.072 0-5.9392-1.4336-7.9872-3.8912-3.4816-4.5056-2.6624-10.8544 1.6384-14.336 13.7216-10.8544 28.672-19.456 44.8512-25.6 5.3248-2.048 11.264 0.6144 13.312 5.9392s-0.6144 11.264-5.9392 13.312c-14.336 5.5296-27.648 13.1072-39.7312 22.528-1.8432 1.2288-3.8912 2.048-6.144 2.048zM375.808 439.0912c-3.2768 0-6.5536-1.6384-8.3968-4.5056-19.456-28.8768-29.696-62.464-29.696-97.28 0-37.2736 11.6736-72.704 33.5872-102.8096 3.2768-4.5056 9.8304-5.5296 14.336-2.2528s5.5296 9.8304 2.2528 14.336c-19.456 26.4192-29.696 57.7536-29.696 90.5216 0 30.72 9.0112 60.416 26.2144 85.8112 3.072 4.7104 1.8432 11.0592-2.6624 14.1312-2.048 1.4336-4.096 2.048-5.9392 2.048z" fill="#FFFFFF" p-id="11702"></path><path d="M511.5904 87.8592C373.9648 87.8592 262.144 199.68 262.144 337.3056s111.616 249.4464 249.4464 249.4464S761.0368 475.136 761.0368 337.3056 649.216 87.8592 511.5904 87.8592z m0 454.2464c-113.0496 0-204.8-91.7504-204.8-204.8s91.7504-204.8 204.8-204.8 204.8 91.7504 204.8 204.8-91.7504 204.8-204.8 204.8z" fill="#AAADAD" p-id="11703"></path><path d="M258.6624 945.152C333.0048 988.7744 419.6352 1013.76 512 1013.76s178.9952-24.9856 253.3376-68.608V813.056H258.6624v132.096zM779.264 813.056h-534.528c-11.264 0-20.48-9.216-20.48-20.48v-13.312c0-11.264 9.216-20.48 20.48-20.48h534.528c11.264 0 20.48 9.216 20.48 20.48v13.312c0 11.264-9.216 20.48-20.48 20.48z" fill="#E0E0E0" p-id="11704"></path><path d="M512 1024c-136.8064 0-265.4208-53.248-362.0864-149.9136C53.248 777.4208 0 648.8064 0 512S53.248 246.5792 149.9136 149.9136C246.5792 53.248 375.1936 0 512 0s265.4208 53.248 362.0864 149.9136C970.752 246.5792 1024 375.1936 1024 512s-53.248 265.4208-149.9136 362.0864C777.4208 970.752 648.8064 1024 512 1024z m0-1003.52C241.0496 20.48 20.48 241.0496 20.48 512s220.5696 491.52 491.52 491.52 491.52-220.5696 491.52-491.52S782.9504 20.48 512 20.48z" fill="#1C1D21" p-id="11705"></path><path d="M512 1024c-90.9312 0-180.4288-24.1664-258.6624-70.0416-3.072-1.8432-5.12-5.12-5.12-8.8064V813.056c0-5.7344 4.5056-10.24 10.24-10.24h506.6752c5.7344 0 10.24 4.5056 10.24 10.24v132.096c0 3.6864-1.8432 6.9632-5.12 8.8064-77.824 45.8752-167.3216 70.0416-258.2528 70.0416z m-243.0976-84.7872c73.728 41.984 157.696 64.3072 243.0976 64.3072s169.3696-22.1184 243.0976-64.3072V823.296H268.9024v115.9168z" fill="#1C1D21" p-id="11706"></path><path d="M299.6224 931.2256c-5.7344 0-10.24-4.5056-10.24-10.24V854.016c0-5.7344 4.5056-10.24 10.24-10.24s10.24 4.5056 10.24 10.24v66.9696c0 5.7344-4.7104 10.24-10.24 10.24z" fill="#FFFFFF" p-id="11707"></path><path d="M779.264 823.296h-534.528c-16.9984 0-30.72-13.7216-30.72-30.72v-13.312c0-16.9984 13.7216-30.72 30.72-30.72h534.528c16.9984 0 30.72 13.7216 30.72 30.72v13.312c0 16.9984-13.7216 30.72-30.72 30.72z m-534.528-54.272c-5.7344 0-10.24 4.5056-10.24 10.24v13.312c0 5.7344 4.5056 10.24 10.24 10.24h534.528c5.7344 0 10.24-4.5056 10.24-10.24v-13.312c0-5.7344-4.5056-10.24-10.24-10.24h-534.528z" fill="#1C1D21" p-id="11708"></path><path d="M393.8304 868.352c-13.7216 0-24.9856 11.0592-24.9856 24.9856v99.7376c16.1792 4.9152 32.9728 8.8064 49.7664 12.0832v-111.8208c0.2048-13.9264-11.0592-24.9856-24.7808-24.9856zM512 868.352c-13.7216 0-24.9856 11.0592-24.9856 24.9856v119.808a508.57984 508.57984 0 0 0 49.9712 0v-119.808c0-13.9264-11.264-24.9856-24.9856-24.9856zM630.1696 868.352c-13.7216 0-24.9856 11.0592-24.9856 24.9856v111.8208c16.9984-3.2768 33.5872-7.168 49.7664-12.0832v-99.7376c0-13.9264-11.0592-24.9856-24.7808-24.9856z" fill="#AAADAD" p-id="11709"></path><path d="M418.816 1015.3984c-0.6144 0-1.2288 0-1.8432-0.2048-16.9984-3.2768-34.2016-7.3728-50.7904-12.288-4.3008-1.2288-7.3728-5.3248-7.3728-9.8304v-99.7376c0-19.456 15.7696-35.2256 35.2256-35.2256s35.2256 15.7696 35.2256 35.2256v111.8208c0 3.072-1.4336 5.9392-3.6864 7.7824-2.048 1.6384-4.5056 2.4576-6.7584 2.4576z m-39.5264-30.1056c9.6256 2.6624 19.456 5.12 29.2864 7.168v-99.328c0-7.9872-6.5536-14.7456-14.7456-14.7456s-14.7456 6.5536-14.7456 14.7456v92.16zM512 1024c-8.3968 0-16.9984-0.2048-25.3952-0.6144-5.5296-0.2048-9.8304-4.7104-9.8304-10.24v-119.808c0-19.456 15.7696-35.2256 35.2256-35.2256s35.2256 15.7696 35.2256 35.2256v119.808c0 5.5296-4.3008 10.0352-9.8304 10.24-8.3968 0.4096-16.9984 0.6144-25.3952 0.6144z m24.9856-10.8544z m-39.7312-9.8304c9.8304 0.2048 19.456 0.2048 29.2864 0v-109.9776c0-7.9872-6.5536-14.7456-14.7456-14.7456s-14.7456 6.5536-14.7456 14.7456v109.9776zM605.184 1015.3984c-2.4576 0-4.7104-0.8192-6.5536-2.4576-2.2528-2.048-3.6864-4.9152-3.6864-7.7824v-111.8208c0-19.456 15.7696-35.2256 35.2256-35.2256s35.2256 15.7696 35.2256 35.2256v99.7376c0 4.5056-3.072 8.6016-7.3728 9.8304-16.7936 4.9152-33.792 9.0112-50.7904 12.288-0.8192 0-1.4336 0.2048-2.048 0.2048z m49.7664-22.3232zM630.1696 878.592c-7.9872 0-14.7456 6.5536-14.7456 14.7456v99.328c9.8304-2.048 19.6608-4.5056 29.2864-7.168v-92.16c0-8.192-6.5536-14.7456-14.5408-14.7456zM512 596.992c-143.1552 0-259.6864-116.5312-259.6864-259.6864S368.8448 77.6192 512 77.6192s259.6864 116.5312 259.6864 259.6864S655.1552 596.992 512 596.992z m0-498.8928c-131.8912 0-239.2064 107.3152-239.2064 239.2064S380.1088 576.512 512 576.512s239.2064-107.3152 239.2064-239.2064S643.8912 98.0992 512 98.0992z" fill="#1C1D21" p-id="11710"></path><path d="M710.4512 398.5408c-0.8192 0-1.6384-0.2048-2.4576-0.4096-5.5296-1.4336-8.8064-6.9632-7.3728-12.4928 4.096-15.7696 6.144-32.1536 6.144-48.5376 0-107.3152-87.2448-194.56-194.56-194.56-75.9808 0-145.408 44.6464-176.9472 113.664-2.4576 5.12-8.3968 7.3728-13.5168 5.12-5.12-2.4576-7.3728-8.3968-5.12-13.5168 34.816-76.3904 111.4112-125.5424 195.3792-125.5424 118.5792 0 215.04 96.4608 215.04 215.04 0 18.2272-2.2528 36.2496-6.7584 53.6576-1.024 4.5056-5.3248 7.5776-9.8304 7.5776zM477.7984 549.6832c-0.6144 0-1.2288 0-1.6384-0.2048-71.68-12.0832-132.096-58.9824-161.1776-125.952-2.2528-5.12 0-11.264 5.3248-13.5168 5.12-2.2528 11.264 0 13.5168 5.3248 26.4192 60.416 81.1008 103.0144 145.8176 113.8688 5.5296 1.024 9.4208 6.144 8.3968 11.8784-1.024 4.9152-5.3248 8.6016-10.24 8.6016z" fill="#1C1D21" p-id="11711"></path><path d="M634.6752 419.4304l-24.9856-24.9856c-7.5776-7.5776-19.6608-7.5776-27.2384 0-7.5776 7.5776-7.5776 19.6608 0 27.2384l24.9856 24.9856c7.5776 7.5776 19.6608 7.5776 27.2384 0 7.5776-7.5776 7.5776-19.6608 0-27.2384z" fill="#FFFFFF" p-id="11712"></path><path d="M686.8992 471.4496L661.9136 446.464c-7.5776-7.5776-19.6608-7.5776-27.2384 0-7.5776 7.5776-7.5776 19.6608 0 27.2384l24.9856 24.9856c7.5776 7.5776 19.6608 7.5776 27.2384 0 7.3728-7.5776 7.3728-19.6608 0-27.2384z" fill="#FFFFFF" p-id="11713"></path><path d="M738.9184 523.4688l-24.9856-24.9856c-7.5776-7.5776-19.6608-7.5776-27.2384 0-7.5776 7.5776-7.5776 19.6608 0 27.2384l24.9856 24.9856c7.5776 7.5776 19.6608 7.5776 27.2384 0 7.3728-7.5776 7.3728-19.6608 0-27.2384zM687.9232 418.4064l-24.9856-24.9856c-7.5776-7.5776-19.6608-7.5776-27.2384 0-7.5776 7.5776-7.5776 19.6608 0 27.2384l24.9856 24.9856c7.5776 7.5776 19.6608 7.5776 27.2384 0 7.5776-7.5776 7.5776-19.8656 0-27.2384z" fill="#FFFFFF" p-id="11714"></path><path d="M739.9424 470.4256l-24.9856-24.9856c-7.5776-7.5776-19.6608-7.5776-27.2384 0-7.5776 7.5776-7.5776 19.6608 0 27.2384L712.704 497.664c7.5776 7.5776 19.6608 7.5776 27.2384 0 7.5776-7.5776 7.5776-19.8656 0-27.2384zM606.4128 499.712L581.632 474.9312c-7.5776-7.5776-19.6608-7.5776-27.2384 0-7.5776 7.5776-7.5776 19.6608 0 27.2384l24.9856 24.9856c7.5776 7.5776 19.6608 7.5776 27.2384 0 7.3728-7.7824 7.3728-19.8656-0.2048-27.4432z" fill="#FFFFFF" p-id="11715"></path><path d="M607.6416 446.6688l-24.9856-24.9856c-7.5776-7.5776-19.6608-7.5776-27.2384 0-7.5776 7.5776-7.5776 19.6608 0 27.2384l24.9856 24.9856c7.5776 7.5776 19.6608 7.5776 27.2384 0 7.3728-7.5776 7.3728-19.8656 0-27.2384z" fill="#FFFFFF" p-id="11716"></path><path d="M659.6608 498.688l-24.9856-24.9856c-7.5776-7.5776-19.6608-7.5776-27.2384 0-7.5776 7.5776-7.5776 19.6608 0 27.2384l24.9856 24.9856c7.5776 7.5776 19.6608 7.5776 27.2384 0 7.5776-7.5776 7.5776-19.6608 0-27.2384z" fill="#FFFFFF" p-id="11717"></path><path d="M711.68 550.7072l-24.9856-24.9856c-7.5776-7.5776-19.6608-7.5776-27.2384 0-7.5776 7.5776-7.5776 19.6608 0 27.2384l24.9856 24.9856c7.5776 7.5776 19.6608 7.5776 27.2384 0s7.5776-19.6608 0-27.2384z" fill="#FFFFFF" p-id="11718"></path><path d="M621.1584 462.4384c-7.7824 0-15.36-3.072-20.8896-8.6016L575.488 429.056c-5.5296-5.5296-8.6016-12.9024-8.6016-20.8896s3.072-15.36 8.6016-20.8896c5.5296-5.5296 12.9024-8.6016 20.8896-8.6016 7.7824 0 15.36 3.072 20.8896 8.6016l24.9856 24.9856c11.4688 11.4688 11.4688 30.1056 0 41.5744-5.7344 5.5296-13.1072 8.6016-21.0944 8.6016z m-24.7808-63.2832c-2.4576 0-4.7104 1.024-6.3488 2.6624-1.6384 1.6384-2.6624 3.8912-2.6624 6.3488s1.024 4.7104 2.6624 6.3488l24.9856 24.9856c1.6384 1.6384 3.8912 2.6624 6.3488 2.6624s4.7104-1.024 6.3488-2.6624c3.4816-3.4816 3.4816-9.216 0-12.6976l-24.9856-24.9856c-1.8432-1.6384-4.096-2.6624-6.3488-2.6624z" fill="#1C1D21" p-id="11719"></path><path d="M673.1776 514.4576c-7.7824 0-15.1552-3.072-20.8896-8.6016l-24.9856-24.9856c-5.5296-5.5296-8.6016-12.9024-8.6016-20.8896 0-7.7824 3.072-15.36 8.6016-20.8896 5.5296-5.5296 12.9024-8.6016 20.8896-8.6016 7.7824 0 15.1552 3.072 20.8896 8.6016l24.9856 24.9856c5.5296 5.5296 8.6016 12.9024 8.6016 20.8896s-3.072 15.36-8.6016 20.8896c-5.5296 5.5296-12.9024 8.6016-20.8896 8.6016z m-24.7808-63.2832c-2.4576 0-4.7104 1.024-6.3488 2.6624-1.6384 1.6384-2.6624 3.8912-2.6624 6.3488 0 2.4576 1.024 4.7104 2.6624 6.3488l24.9856 24.9856c1.6384 1.6384 3.8912 2.6624 6.3488 2.6624s4.7104-1.024 6.3488-2.6624c1.6384-1.6384 2.6624-3.8912 2.6624-6.3488s-1.024-4.7104-2.6624-6.3488l-24.9856-24.9856c-1.8432-1.6384-4.096-2.6624-6.3488-2.6624z" fill="#1C1D21" p-id="11720"></path><path d="M725.1968 566.6816c-7.7824 0-15.1552-3.072-20.8896-8.6016l-24.9856-24.9856c-11.4688-11.4688-11.4688-30.1056 0-41.5744 11.4688-11.4688 30.1056-11.4688 41.5744 0l24.9856 24.9856c5.5296 5.5296 8.6016 12.9024 8.6016 20.8896 0 7.7824-3.072 15.36-8.6016 20.8896-5.3248 5.3248-12.6976 8.3968-20.6848 8.3968z m-24.7808-63.488c-2.2528 0-4.5056 0.8192-6.3488 2.6624-3.4816 3.4816-3.4816 9.216 0 12.6976l24.9856 24.9856c1.6384 1.6384 3.8912 2.6624 6.3488 2.6624s4.7104-1.024 6.3488-2.6624c1.6384-1.6384 2.6624-3.8912 2.6624-6.3488 0-2.4576-1.024-4.7104-2.6624-6.3488L706.7648 505.856c-1.8432-1.6384-4.096-2.6624-6.3488-2.6624zM674.4064 461.4144c-7.7824 0-15.1552-3.072-20.8896-8.6016L628.736 427.8272c-11.4688-11.4688-11.4688-30.1056 0-41.5744 11.4688-11.4688 30.1056-11.4688 41.5744 0l24.9856 24.9856c5.5296 5.5296 8.6016 12.9024 8.6016 20.8896s-3.072 15.36-8.6016 20.8896c-5.7344 5.3248-13.1072 8.3968-20.8896 8.3968z m-24.9856-63.2832c-2.2528 0-4.5056 0.8192-6.3488 2.6624-3.4816 3.4816-3.4816 9.216 0 12.6976l24.9856 24.9856c1.6384 1.6384 3.8912 2.6624 6.3488 2.6624s4.7104-1.024 6.3488-2.6624c1.6384-1.6384 2.6624-3.8912 2.6624-6.3488s-1.024-4.7104-2.6624-6.3488l-24.9856-24.9856c-1.6384-1.8432-4.096-2.6624-6.3488-2.6624z" fill="#1C1D21" p-id="11721"></path><path d="M726.4256 513.4336c-7.7824 0-15.36-3.072-20.8896-8.6016l-24.9856-24.9856c-11.4688-11.4688-11.4688-30.1056 0-41.5744 5.5296-5.5296 12.9024-8.6016 20.8896-8.6016 7.7824 0 15.36 3.072 20.8896 8.6016l24.9856 24.9856c5.5296 5.5296 8.6016 12.9024 8.6016 20.8896s-3.072 15.36-8.6016 20.8896c-5.7344 5.3248-13.1072 8.3968-20.8896 8.3968z m-24.9856-63.2832c-2.4576 0-4.7104 1.024-6.3488 2.6624-3.4816 3.4816-3.4816 9.216 0 12.6976l24.9856 24.9856c1.6384 1.6384 3.8912 2.6624 6.3488 2.6624s4.7104-1.024 6.3488-2.6624c1.6384-1.6384 2.6624-3.8912 2.6624-6.3488s-1.024-4.7104-2.6624-6.3488l-24.9856-24.9856c-1.6384-1.8432-3.8912-2.6624-6.3488-2.6624zM592.896 542.72c-7.7824 0-15.36-3.072-20.8896-8.6016l-24.9856-24.9856c-11.4688-11.4688-11.4688-30.1056 0-41.5744 5.5296-5.5296 12.9024-8.6016 20.8896-8.6016 7.7824 0 15.36 3.072 20.8896 8.6016l24.9856 24.9856c11.4688 11.4688 11.4688 30.1056 0 41.5744-5.7344 5.7344-13.1072 8.6016-20.8896 8.6016z m-24.9856-63.2832c-2.4576 0-4.7104 1.024-6.3488 2.6624-3.4816 3.4816-3.4816 9.216 0 12.6976l24.9856 24.9856c1.6384 1.6384 3.8912 2.6624 6.3488 2.6624s4.7104-1.024 6.3488-2.6624c3.4816-3.4816 3.4816-9.216 0-12.6976l-24.9856-24.9856c-1.6384-1.6384-3.8912-2.6624-6.3488-2.6624z" fill="#1C1D21" p-id="11722"></path><path d="M594.1248 489.6768c-7.5776 0-15.1552-2.8672-20.8896-8.6016l-24.9856-24.9856c-5.5296-5.5296-8.6016-12.9024-8.6016-20.8896s3.072-15.36 8.6016-20.8896c5.5296-5.5296 12.9024-8.6016 20.8896-8.6016 7.7824 0 15.1552 3.072 20.8896 8.6016l24.9856 24.9856c11.4688 11.4688 11.4688 30.1056 0 41.5744-5.9392 5.9392-13.5168 8.8064-20.8896 8.8064z m-24.9856-63.2832c-2.4576 0-4.7104 1.024-6.3488 2.6624-1.6384 1.6384-2.6624 3.8912-2.6624 6.3488s1.024 4.7104 2.6624 6.3488l24.9856 24.9856c3.4816 3.4816 9.216 3.4816 12.6976 0 3.4816-3.4816 3.4816-9.216 0-12.6976L575.488 429.056c-1.6384-1.8432-3.8912-2.6624-6.3488-2.6624z" fill="#1C1D21" p-id="11723"></path><path d="M646.144 541.696c-7.7824 0-15.1552-3.072-20.8896-8.6016l-24.9856-24.9856c-5.5296-5.5296-8.6016-12.9024-8.6016-20.8896s3.072-15.36 8.6016-20.8896c5.5296-5.5296 12.9024-8.6016 20.8896-8.6016 7.7824 0 15.1552 3.072 20.8896 8.6016l24.9856 24.9856c5.5296 5.5296 8.6016 12.9024 8.6016 20.8896 0 7.7824-3.072 15.36-8.6016 20.8896-5.7344 5.5296-13.1072 8.6016-20.8896 8.6016z m-24.9856-63.2832c-2.4576 0-4.7104 1.024-6.3488 2.6624-1.6384 1.6384-2.6624 3.8912-2.6624 6.3488s1.024 4.7104 2.6624 6.3488l24.9856 24.9856c1.6384 1.6384 3.8912 2.6624 6.3488 2.6624s4.7104-1.024 6.3488-2.6624c1.6384-1.6384 2.6624-3.8912 2.6624-6.3488s-1.024-4.7104-2.6624-6.3488l-24.9856-24.9856c-1.6384-1.8432-3.8912-2.6624-6.3488-2.6624z" fill="#1C1D21" p-id="11724"></path><path d="M698.1632 593.7152c-7.7824 0-15.36-3.072-20.8896-8.6016l-24.9856-24.9856c-11.4688-11.4688-11.4688-30.1056 0-41.5744 5.5296-5.5296 12.9024-8.6016 20.8896-8.6016 7.7824 0 15.36 3.072 20.8896 8.6016l24.9856 24.9856c5.5296 5.5296 8.6016 12.9024 8.6016 20.8896s-3.072 15.36-8.6016 20.8896c-5.7344 5.3248-13.1072 8.3968-20.8896 8.3968zM673.1776 530.432c-2.4576 0-4.7104 1.024-6.3488 2.6624-3.4816 3.4816-3.4816 9.216 0 12.6976l24.9856 24.9856c1.6384 1.6384 3.8912 2.6624 6.3488 2.6624s4.7104-1.024 6.3488-2.6624c1.6384-1.6384 2.6624-3.8912 2.6624-6.3488s-1.024-4.7104-2.6624-6.3488l-24.9856-24.9856c-1.6384-1.6384-3.8912-2.6624-6.3488-2.6624z" fill="#1C1D21" p-id="11725"></path><path d="M539.648 497.664L477.184 441.5488c0.6144-0.4096 1.024-1.024 1.4336-1.4336 7.7824-8.6016 7.168-22.1184-1.4336-29.9008-8.6016-7.7824-22.1184-7.168-29.9008 1.4336-6.144 6.7584-6.9632 16.384-3.072 24.1664-7.9872-3.2768-17.6128-1.4336-23.552 5.5296-7.7824 8.6016-7.168 22.1184 1.4336 29.9008 8.6016 7.7824 22.1184 7.168 29.9008-1.4336 0.4096-0.6144 1.024-1.024 1.4336-1.6384l62.2592 56.32 23.9616-26.8288z" fill="#FFFFFF" p-id="11726"></path><path d="M515.8912 534.3232c-2.4576 0-4.9152-0.8192-6.7584-2.6624l-55.296-49.9712c-11.6736 7.5776-27.4432 6.7584-38.2976-3.072-12.9024-11.6736-13.9264-31.5392-2.2528-44.4416 4.9152-5.5296 11.6736-8.8064 18.6368-10.0352 0.4096-7.168 3.072-14.1312 7.9872-19.456 5.5296-6.144 13.312-9.8304 21.7088-10.24 8.3968-0.4096 16.384 2.4576 22.7328 7.9872 10.8544 9.8304 13.312 25.3952 6.9632 37.6832l55.296 49.9712c2.048 1.8432 3.2768 4.3008 3.2768 7.168 0.2048 2.6624-0.8192 5.3248-2.6624 7.3728l-23.7568 26.2144c-2.048 2.2528-4.9152 3.4816-7.5776 3.4816z m-62.464-76.8c2.4576 0 4.9152 1.024 6.9632 2.6624l54.6816 49.3568 10.0352-11.0592-54.6816-49.3568c-2.048-1.8432-3.2768-4.7104-3.2768-7.5776s1.2288-5.7344 3.2768-7.5776l0.8192-0.8192c4.096-4.5056 3.6864-11.4688-0.8192-15.5648-2.2528-2.048-4.9152-2.8672-7.9872-2.8672-2.8672 0.2048-5.5296 1.4336-7.5776 3.6864-3.072 3.4816-3.6864 8.3968-1.6384 12.4928 2.048 3.8912 1.4336 8.3968-1.4336 11.6736-2.8672 3.2768-7.3728 4.3008-11.4688 2.6624-4.3008-1.6384-9.216-0.6144-12.288 2.8672-4.096 4.5056-3.6864 11.4688 0.8192 15.5648s11.4688 3.6864 15.5648-0.8192c0.2048-0.2048 0.4096-0.6144 0.8192-0.8192 1.6384-2.2528 4.3008-3.8912 7.168-4.096 0.4096-0.4096 0.8192-0.4096 1.024-0.4096z" fill="#1C1D21" p-id="11727"></path><path d="M640.6144 537.8048L539.648 497.664l-23.7568 26.2144 50.176 96.4608c3.2768 6.144 7.3728 11.4688 12.0832 15.9744 6.3488-7.7824 15.9744-12.6976 26.8288-12.6976 15.9744 0 29.2864 10.6496 33.5872 25.3952 9.0112-3.072 17.2032-8.6016 24.1664-16.1792 27.648-30.72 16.1792-79.6672-22.1184-95.0272z" fill="#FF8939" p-id="11728"></path><path d="M638.3616 659.2512c-1.6384 0-3.2768-0.4096-4.7104-1.2288-2.4576-1.2288-4.3008-3.6864-5.12-6.3488-2.8672-10.6496-12.6976-18.0224-23.552-18.0224-7.3728 0-14.336 3.2768-19.0464 9.0112-1.8432 2.2528-4.5056 3.4816-7.168 3.6864-2.8672 0.2048-5.5296-0.8192-7.5776-2.6624-5.7344-5.3248-10.4448-11.6736-14.1312-18.6368l-50.176-96.4608c-2.048-3.8912-1.4336-8.3968 1.4336-11.6736l23.7568-26.2144c2.8672-3.2768 7.3728-4.3008 11.4688-2.6624l100.9664 40.1408c21.0944 8.3968 36.864 26.624 41.984 48.9472 5.12 22.1184-0.8192 45.4656-16.1792 62.464-7.9872 8.8064-17.408 15.1552-28.4672 19.0464-1.024 0.4096-2.2528 0.6144-3.4816 0.6144z m-33.3824-45.8752c15.9744 0 30.72 8.6016 38.7072 21.9136 4.3008-2.4576 7.9872-5.7344 11.4688-9.4208 10.8544-12.0832 15.1552-28.0576 11.4688-44.032-3.6864-15.9744-14.5408-28.4672-29.696-34.4064L542.3104 509.952l-14.1312 15.7696 46.8992 90.112c1.024 2.048 2.2528 4.096 3.6864 5.9392 7.5776-5.5296 16.7936-8.3968 26.2144-8.3968z" fill="#1C1D21" p-id="11729"></path><path d="M419.6352 294.912h-166.5024c-10.8544 0-19.8656 8.8064-19.8656 19.8656 0 10.8544 8.8064 19.8656 19.8656 19.8656h166.5024c0 13.5168 11.0592 24.576 24.576 24.576h43.4176c24.576 0 44.4416-19.8656 44.4416-44.4416s-19.8656-44.4416-44.4416-44.4416h-43.4176c-13.5168 0-24.576 10.8544-24.576 24.576z" fill="#E0E0E0" p-id="11730"></path><path d="M487.6288 369.2544h-43.4176c-15.5648 0-28.8768-10.4448-33.3824-24.576h-157.9008c-16.5888 0-30.1056-13.5168-30.1056-30.1056s13.5168-30.1056 30.1056-30.1056h157.9008c4.3008-14.1312 17.6128-24.576 33.3824-24.576h43.4176c30.1056 0 54.6816 24.576 54.6816 54.6816s-24.576 54.6816-54.6816 54.6816zM253.1328 305.152c-5.3248 0-9.6256 4.3008-9.6256 9.6256s4.3008 9.6256 9.6256 9.6256h166.5024c5.7344 0 10.24 4.5056 10.24 10.24 0 7.9872 6.3488 14.336 14.336 14.336h43.4176c18.8416 0 34.2016-15.36 34.2016-34.2016s-15.36-34.2016-34.2016-34.2016h-43.4176c-7.9872 0-14.336 6.3488-14.336 14.336 0 5.7344-4.5056 10.24-10.24 10.24h-166.5024z" fill="#1C1D21" p-id="11731"></path><path d="M240.64 262.144h-163.84c-14.9504 25.8048-27.4432 53.248-37.6832 81.7152H137.216V364.544c0 30.72 27.4432 54.0672 57.7536 49.3568l68.1984-10.8544c24.1664-3.8912 42.1888-24.7808 42.1888-49.3568v-27.0336c-0.2048-35.6352-29.0816-64.512-64.7168-64.512z" fill="#FFC5B3" p-id="11732"></path><path d="M187.1872 424.5504c-14.1312 0-28.0576-5.12-39.1168-14.336C134.7584 398.7456 126.976 382.1568 126.976 364.544v-10.4448H39.1168c-3.2768 0-6.3488-1.6384-8.3968-4.3008-1.8432-2.6624-2.4576-6.144-1.2288-9.4208 10.24-28.8768 23.1424-56.9344 38.5024-83.3536 1.8432-3.072 5.12-5.12 8.8064-5.12h163.84c41.1648 0 74.752 33.5872 74.752 74.752v27.0336c0 29.696-21.2992 54.6816-50.7904 59.392L196.608 423.936c-3.2768 0.4096-6.3488 0.6144-9.4208 0.6144z m-133.3248-91.136H137.216c5.7344 0 10.24 4.5056 10.24 10.24V364.544c0 11.6736 5.12 22.528 13.9264 30.1056 8.8064 7.5776 20.48 10.8544 31.9488 9.0112l68.1984-10.8544c19.456-3.072 33.3824-19.456 33.3824-39.1168v-27.0336c0-29.9008-24.3712-54.272-54.272-54.272H82.7392c-10.8544 19.456-20.6848 39.936-28.8768 61.0304z" fill="#1C1D21" p-id="11733"></path><path d="M264.192 336.896c-5.7344 0-10.24-4.5056-10.24-10.24 0-7.3728-5.9392-13.312-13.312-13.312H178.176c-5.7344 0-10.24-4.5056-10.24-10.24s4.5056-10.24 10.24-10.24h62.464c18.6368 0 33.792 15.1552 33.792 33.792 0 5.5296-4.5056 10.24-10.24 10.24z" fill="#FFECE9" p-id="11734"></path><path d="M256.8192 414.1056c-5.7344 0-10.24-4.5056-10.24-10.24V364.544c0-5.7344 4.5056-10.24 10.24-10.24s10.24 4.5056 10.24 10.24v39.3216c0 5.7344-4.5056 10.24-10.24 10.24zM210.944 421.2736c-5.7344 0-10.24-4.5056-10.24-10.24V372.736c0-5.7344 4.5056-10.24 10.24-10.24s10.24 4.5056 10.24 10.24v38.2976c0 5.7344-4.5056 10.24-10.24 10.24zM640.6144 314.368c-2.6624 0-5.3248-1.024-7.168-3.072l-6.9632-6.9632c-4.096-4.096-4.096-10.4448 0-14.5408s10.4448-4.096 14.5408 0l6.9632 6.9632c4.096 4.096 4.096 10.4448 0 14.5408-2.048 2.2528-4.7104 3.072-7.3728 3.072zM606.6176 280.576c-2.6624 0-5.3248-1.024-7.168-3.072L569.7536 247.808c-4.096-4.096-4.096-10.4448 0-14.5408s10.4448-4.096 14.5408 0l29.696 29.696c4.096 4.096 4.096 10.4448 0 14.5408-2.048 2.048-4.7104 3.072-7.3728 3.072zM633.6512 366.592c-2.6624 0-5.3248-1.024-7.168-3.072l-6.9632-6.9632c-4.096-4.096-4.096-10.4448 0-14.5408s10.4448-4.096 14.5408 0l6.9632 6.9632c4.096 4.096 4.096 10.4448 0 14.5408-2.048 2.048-4.7104 3.072-7.3728 3.072zM599.6544 332.5952c-2.6624 0-5.3248-1.024-7.168-3.072L552.96 289.9968c-4.096-4.096-4.096-10.4448 0-14.5408s10.4448-4.096 14.5408 0l39.5264 39.5264c4.096 4.096 4.096 10.4448 0 14.5408-2.048 2.048-4.7104 3.072-7.3728 3.072z" fill="#1C1D21" p-id="11735"></path><path d="M145.408 313.344h-7.7824c-5.7344 0-10.24-4.5056-10.24-10.24s4.5056-10.24 10.24-10.24H145.408c5.7344 0 10.24 4.5056 10.24 10.24s-4.5056 10.24-10.24 10.24z" fill="#FFECE9" p-id="11736"></path><path d="M630.1696 600.2688c-5.7344 0-10.24-4.5056-10.24-10.24v-3.4816c0-5.7344 4.5056-10.24 10.24-10.24s10.24 4.5056 10.24 10.24v3.4816c0 5.7344-4.5056 10.24-10.24 10.24zM575.488 568.32c-5.7344 0-10.24-4.5056-10.24-10.24v-3.4816c0-5.7344 4.5056-10.24 10.24-10.24s10.24 4.5056 10.24 10.24v3.4816c0 5.5296-4.5056 10.24-10.24 10.24z" fill="#1C1D21" p-id="11737"></path></svg>