<svg xmlns="http://www.w3.org/2000/svg" viewBox="0 0 1024 1024" version="1.1"><path d="M512 512m-501.76 0a501.76 501.76 0 1 0 1003.52 0 501.76 501.76 0 1 0-1003.52 0Z" fill="#8CEEF9" p-id="14600"></path><path d="M501.76 347.7504l-29.2864-18.0224c-11.6736-7.168-18.6368-19.8656-18.6368-33.3824V284.672h-43.8272v11.6736c0 13.5168-6.9632 26.2144-18.6368 33.3824l-29.2864 18.0224c-23.7568 14.7456-38.0928 40.5504-38.0928 68.4032v159.9488h216.064v-159.9488c-0.2048-27.8528-14.5408-53.8624-38.2976-68.4032z" fill="#FFC5B3" p-id="14601"></path><path d="M398.336 267.8784c6.3488 2.8672 10.4448 9.216 10.4448 16.1792v5.12h46.2848v-5.12c0-6.9632 4.096-13.1072 10.4448-16.1792 26.8288-12.6976 45.4656-39.936 45.4656-71.4752V159.9488c0-43.6224-35.4304-79.0528-79.0528-79.0528s-79.0528 35.4304-79.0528 79.0528v36.4544c0 31.5392 18.6368 58.9824 45.4656 71.4752z" fill="#FFC5B3" p-id="14602"></path><path d="M512 1024c-136.8064 0-265.4208-53.248-362.0864-149.9136C53.248 777.4208 0 648.8064 0 512S53.248 246.5792 149.9136 149.9136C246.5792 53.248 375.1936 0 512 0s265.4208 53.248 362.0864 149.9136C970.752 246.5792 1024 375.1936 1024 512s-53.248 265.4208-149.9136 362.0864C777.4208 970.752 648.8064 1024 512 1024z m0-1003.52C241.0496 20.48 20.48 241.0496 20.48 512s220.5696 491.52 491.52 491.52 491.52-220.5696 491.52-491.52S782.9504 20.48 512 20.48z" fill="#1C1D21" p-id="14603"></path><path d="M342.6304 197.4272h10.24V144.384h-10.24c-14.7456 0-26.624 11.8784-26.624 26.624 0 14.5408 11.8784 26.4192 26.624 26.4192z" fill="#FFC5B3" p-id="14604"></path><path d="M352.8704 207.6672h-10.24c-20.2752 0-36.864-16.5888-36.864-36.864s16.5888-36.864 36.864-36.864h10.24c5.7344 0 10.24 4.5056 10.24 10.24v53.0432c0 5.9392-4.5056 10.4448-10.24 10.4448z m-10.24-53.0432c-9.0112 0-16.384 7.3728-16.384 16.384s7.3728 16.384 16.384 16.384v-32.768z" fill="#1C1D21" p-id="14605"></path><path d="M521.216 144.384h-10.24v53.0432h10.24c14.7456 0 26.624-11.8784 26.624-26.624 0-14.5408-11.8784-26.4192-26.624-26.4192z" fill="#FFC5B3" p-id="14606"></path><path d="M521.216 207.6672h-10.24c-5.7344 0-10.24-4.5056-10.24-10.24V144.384c0-5.7344 4.5056-10.24 10.24-10.24h10.24c20.2752 0 36.864 16.5888 36.864 36.864s-16.5888 36.6592-36.864 36.6592z m0-20.48c9.0112 0 16.384-7.3728 16.384-16.384s-7.3728-16.384-16.384-16.384v32.768z" fill="#1C1D21" p-id="14607"></path><path d="M431.9232 80.896c-40.3456 0-73.5232 30.1056-78.4384 69.0176C422.0928 149.9136 432.128 114.688 432.128 114.688s10.0352 34.816 78.0288 35.2256c-4.7104-38.912-38.0928-69.0176-78.2336-69.0176z" fill="#FF8939" p-id="14608"></path><path d="M353.4848 160.1536c-2.8672 0-5.7344-1.2288-7.5776-3.4816-2.048-2.2528-2.8672-5.12-2.4576-7.9872 5.5296-44.4416 43.6224-78.0288 88.4736-78.0288 44.8512 0 82.944 33.5872 88.4736 78.0288 0.4096 2.8672-0.6144 5.9392-2.4576 7.9872-1.8432 2.2528-4.7104 3.4816-7.5776 3.4816-44.6464-0.2048-66.9696-14.7456-78.0288-26.8288-11.264 12.288-33.792 26.8288-78.848 26.8288z m78.4384-69.0176c-30.3104 0-56.7296 19.8656-65.536 48.128 47.9232-3.6864 55.9104-27.0336 56.1152-27.4432 1.2288-4.5056 5.3248-7.5776 9.8304-7.5776h0.2048c4.7104 0 8.6016 3.072 9.6256 7.5776 0.8192 2.048 9.6256 23.7568 55.5008 27.4432-9.0112-28.0576-35.4304-48.128-65.7408-48.128zM539.8528 586.3424H323.7888c-5.7344 0-10.24-4.5056-10.24-10.24v-159.9488c0-31.744 16.1792-60.6208 43.008-77.2096l29.2864-18.0224c8.6016-5.3248 13.7216-14.5408 13.7216-24.7808v-11.6736c0-5.7344 4.5056-10.24 10.24-10.24h43.8272c5.7344 0 10.24 4.5056 10.24 10.24v11.6736c0 10.24 5.12 19.456 13.7216 24.7808l29.2864 18.0224c27.0336 16.5888 43.008 45.4656 43.008 77.2096v159.9488c0.2048 5.7344-4.3008 10.24-10.0352 10.24z m-205.824-20.48h195.584v-149.7088c0-24.576-12.4928-46.8992-33.3824-59.8016l-29.2864-18.0224c-14.7456-9.0112-23.552-24.7808-23.552-42.1888v-1.4336h-23.3472v1.4336c0 17.2032-8.8064 32.9728-23.552 42.1888l-29.2864 18.0224c-20.8896 12.9024-33.3824 35.2256-33.3824 59.8016v149.7088z" fill="#1C1D21" p-id="14609"></path><path d="M455.0656 299.4176h-46.2848c-5.7344 0-10.24-4.5056-10.24-10.24v-5.12c0-2.8672-1.8432-5.5296-4.5056-6.7584-31.1296-14.7456-51.4048-46.4896-51.4048-80.896V159.9488c0-49.152 40.1408-89.2928 89.2928-89.2928s89.2928 40.1408 89.2928 89.2928v36.4544c0 34.4064-20.0704 66.1504-51.4048 80.896-2.8672 1.2288-4.5056 3.8912-4.5056 6.7584v5.12c0 5.5296-4.5056 10.24-10.24 10.24z m-36.6592-20.48h26.8288c1.6384-8.6016 7.5776-16.384 15.7696-20.2752 23.9616-11.264 39.5264-35.84 39.5264-62.2592V159.9488c0-37.888-30.9248-68.8128-68.8128-68.8128s-68.8128 30.9248-68.8128 68.8128v36.4544c0 26.624 15.5648 50.9952 39.5264 62.2592 8.3968 3.8912 14.336 11.4688 15.9744 20.2752z" fill="#1C1D21" p-id="14610"></path><path d="M323.7888 635.4944v-311.296H282.624v311.0912c0 11.4688 9.216 20.6848 20.6848 20.6848 11.264 0 20.48-9.216 20.48-20.48z" fill="#C67552" p-id="14611"></path><path d="M303.3088 666.2144c-16.9984 0-30.9248-13.9264-30.9248-30.9248V324.1984c0-5.7344 4.5056-10.24 10.24-10.24h41.3696c5.7344 0 10.24 4.5056 10.24 10.24v311.0912c-0.2048 17.2032-13.9264 30.9248-30.9248 30.9248z m-10.4448-331.776v300.8512c0 5.7344 4.7104 10.4448 10.4448 10.4448s10.4448-4.7104 10.4448-10.4448V334.4384H292.864z" fill="#1C1D21" p-id="14612"></path><path d="M484.5568 209.1008c-11.0592 0-21.7088 4.9152-29.0816 13.312-5.7344 6.5536-14.1312 10.6496-23.552 10.6496s-17.8176-4.096-23.552-10.6496c-7.3728-8.3968-18.0224-13.312-29.0816-13.312h-25.8048c0 42.8032 34.6112 77.4144 77.4144 77.4144h1.8432c42.8032 0 77.4144-34.6112 77.4144-77.4144h-25.6z" fill="#FF8939" p-id="14613"></path><path d="M432.7424 296.96h-1.8432c-48.3328 0-87.6544-39.3216-87.6544-87.6544 0-5.7344 4.5056-10.24 10.24-10.24h25.8048c13.9264 0 27.2384 6.144 36.6592 16.5888 4.096 4.5056 9.8304 7.168 15.9744 7.168s11.8784-2.6624 15.9744-7.168c9.4208-10.6496 22.9376-16.5888 36.6592-16.5888h25.8048c5.7344 0 10.24 4.5056 10.24 10.24 0 48.128-39.5264 87.6544-87.8592 87.6544zM364.544 219.3408c4.9152 32.1536 32.768 56.9344 66.56 56.9344h1.8432c33.5872 0 61.44-24.7808 66.56-56.9344h-14.7456c-7.9872 0-15.7696 3.6864-21.504 9.8304-7.9872 8.8064-19.2512 13.9264-31.1296 13.9264-11.8784 0-23.3472-5.12-31.1296-13.9264-5.5296-6.3488-13.5168-9.8304-21.504-9.8304H364.544z" fill="#1C1D21" p-id="14614"></path><path d="M539.8528 576.1024v-159.9488c0-27.8528-14.5408-53.8624-38.0928-68.4032l-19.8656-12.288c-15.5648 5.3248-32.3584 8.3968-49.7664 8.3968s-34.2016-2.8672-49.9712-8.3968l-19.8656 12.288c-23.7568 14.7456-38.0928 40.5504-38.0928 68.4032v159.9488h215.6544z" fill="#D66112" p-id="14615"></path><path d="M379.4944 395.6736c-3.072 0-5.9392-1.2288-7.9872-3.8912-3.4816-4.3008-2.8672-10.8544 1.4336-14.336 1.6384-1.4336 3.4816-2.6624 5.3248-3.6864 4.9152-2.8672 11.0592-1.4336 14.1312 3.2768s1.4336 11.0592-3.2768 14.1312c-1.024 0.6144-2.048 1.4336-3.072 2.2528-2.048 1.6384-4.3008 2.2528-6.5536 2.2528zM364.7488 586.3424c-5.7344 0-10.24-4.5056-10.24-10.24v-159.9488c0-5.7344 4.5056-10.24 10.24-10.24s10.24 4.5056 10.24 10.24v159.9488c0 5.7344-4.5056 10.24-10.24 10.24z" fill="#FF8939" p-id="14616"></path><path d="M539.8528 586.3424H323.7888c-5.7344 0-10.24-4.5056-10.24-10.24v-159.9488c0-31.744 16.1792-60.6208 43.008-77.2096l19.8656-12.288c2.6624-1.6384 5.7344-2.048 8.8064-1.024 14.9504 5.12 30.5152 7.7824 46.4896 7.7824 15.9744 0 31.5392-2.6624 46.4896-7.7824 2.8672-1.024 6.144-0.6144 8.8064 1.024l19.8656 12.288c27.0336 16.5888 43.008 45.4656 43.008 77.2096v159.9488c0.2048 5.7344-4.3008 10.24-10.0352 10.24z m-205.824-20.48h195.584v-149.7088c0-24.576-12.4928-46.8992-33.3824-59.8016l-15.9744-9.8304c-15.5648 4.9152-31.9488 7.3728-48.5376 7.3728s-32.768-2.4576-48.5376-7.3728l-15.9744 9.8304c-20.8896 12.9024-33.3824 35.2256-33.3824 59.8016v149.7088z" fill="#1C1D21" p-id="14617"></path><path d="M400.9984 906.24V690.9952c0-10.24 8.192-18.432 18.432-18.432H444.416c10.24 0 18.432 8.192 18.432 18.432v215.2448h77.2096V576.1024H323.7888v330.1376h77.2096z" fill="#D66112" p-id="14618"></path><path d="M462.6432 856.064h77.2096v50.176h-77.2096zM323.7888 856.064h77.2096v50.176h-77.2096z" fill="#FFC5B3" p-id="14619"></path><path d="M539.8528 916.48h-77.2096c-5.7344 0-10.24-4.5056-10.24-10.24V856.064c0-5.7344 4.5056-10.24 10.24-10.24h77.2096c5.7344 0 10.24 4.5056 10.24 10.24v50.176c0 5.7344-4.5056 10.24-10.24 10.24z m-66.9696-20.48h56.7296V866.304h-56.7296v29.696zM400.9984 916.48h-77.2096c-5.7344 0-10.24-4.5056-10.24-10.24V856.064c0-5.7344 4.5056-10.24 10.24-10.24h77.2096c5.7344 0 10.24 4.5056 10.24 10.24v50.176c0 5.7344-4.5056 10.24-10.24 10.24z m-66.9696-20.48h56.7296V866.304h-56.7296v29.696z" fill="#1C1D21" p-id="14620"></path><path d="M512 1013.76c117.1456 0 224.8704-40.1408 310.272-107.52h-620.544C287.1296 973.6192 394.8544 1013.76 512 1013.76z" fill="#0ABFB2" p-id="14621"></path><path d="M512 1024c-116.1216 0-225.6896-37.888-316.6208-109.568-3.4816-2.6624-4.7104-7.3728-3.2768-11.4688s5.3248-6.9632 9.6256-6.9632h620.544c4.3008 0 8.192 2.6624 9.6256 6.9632s0 8.6016-3.2768 11.4688c-90.9312 71.68-200.4992 109.568-316.6208 109.568z m-279.3472-107.52c82.1248 56.9344 178.176 87.04 279.3472 87.04 101.1712 0 197.0176-29.9008 279.3472-87.04H232.6528z" fill="#1C1D21" p-id="14622"></path><path d="M744.448 841.3184m-65.1264 0a65.1264 65.1264 0 1 0 130.2528 0 65.1264 65.1264 0 1 0-130.2528 0Z" fill="#AAADAD" p-id="14623"></path><path d="M744.448 916.48c-41.5744 0-75.3664-33.792-75.3664-75.3664s33.792-75.3664 75.3664-75.3664 75.3664 33.792 75.3664 75.3664-33.792 75.3664-75.3664 75.3664z m0-130.048c-30.3104 0-54.8864 24.576-54.8864 54.8864s24.576 54.8864 54.8864 54.8864 54.8864-24.576 54.8864-54.8864-24.576-54.8864-54.8864-54.8864z" fill="#1C1D21" p-id="14624"></path><path d="M720.4864 851.5584c-5.7344 0-10.24-4.5056-10.24-10.24 0-18.8416 15.36-34.4064 34.4064-34.4064 5.7344 0 10.24 4.5056 10.24 10.24s-4.5056 10.24-10.24 10.24c-7.5776 0-13.9264 6.144-13.9264 13.9264 0 5.7344-4.7104 10.24-10.24 10.24z" fill="#E0E0E0" p-id="14625"></path><path d="M569.9584 847.4624h-20.2752c-5.7344 0-10.24-4.5056-10.24-10.24s4.5056-10.24 10.24-10.24h20.2752c5.7344 0 10.24 4.5056 10.24 10.24s-4.7104 10.24-10.24 10.24zM624.64 847.4624h-20.2752c-5.7344 0-10.24-4.5056-10.24-10.24s4.5056-10.24 10.24-10.24h20.2752c5.7344 0 10.24 4.5056 10.24 10.24s-4.5056 10.24-10.24 10.24zM679.5264 847.4624h-20.2752c-5.7344 0-10.24-4.5056-10.24-10.24s4.5056-10.24 10.24-10.24h20.2752c5.7344 0 10.24 4.5056 10.24 10.24s-4.7104 10.24-10.24 10.24z" fill="#1C1D21" p-id="14626"></path><path d="M318.6688 514.8672h-24.576c-11.264 0-20.48-9.216-20.48-20.48v-12.4928c0-11.264 9.216-20.48 20.48-20.48h24.576c14.7456 0 26.8288 11.8784 26.8288 26.8288 0 14.5408-11.8784 26.624-26.8288 26.624z" fill="#FFC5B3" p-id="14627"></path><path d="M318.6688 525.1072h-24.576c-16.9984 0-30.72-13.7216-30.72-30.72v-12.4928c0-16.9984 13.7216-30.72 30.72-30.72h24.576c20.48 0 37.0688 16.5888 37.0688 37.0688s-16.5888 36.864-37.0688 36.864z m-24.3712-53.6576c-5.7344 0-10.24 4.5056-10.24 10.24v12.4928c0 5.7344 4.5056 10.24 10.24 10.24h24.576c9.0112 0 16.5888-7.3728 16.5888-16.5888 0-9.0112-7.3728-16.5888-16.5888-16.5888h-24.576z" fill="#1C1D21" p-id="14628"></path><path d="M130.6624 368.4352c41.984-41.984 98.9184-65.536 158.3104-65.536h24.7808c5.7344 0 10.24 4.5056 10.24 10.24v32.768H243.712c-19.8656 0-39.5264 2.6624-58.5728 7.7824l-54.4768 14.7456z" fill="#E0E0E0" p-id="14629"></path><path d="M130.6624 378.6752c-3.6864 0-6.9632-1.8432-8.8064-5.12-2.2528-4.096-1.6384-9.0112 1.6384-12.288 44.2368-44.2368 103.0144-68.608 165.6832-68.608h24.7808c11.264 0 20.48 9.216 20.48 20.48v32.768c0 5.7344-4.5056 10.24-10.24 10.24H243.712c-18.8416 0-37.6832 2.4576-55.9104 7.3728L133.12 378.2656c-0.8192 0.2048-1.6384 0.4096-2.4576 0.4096z m158.3104-65.7408c-40.7552 0-79.872 11.4688-113.664 32.5632l7.3728-2.048c19.8656-5.3248 40.5504-8.192 61.2352-8.192h69.8368v-22.528h-24.7808z" fill="#1C1D21" p-id="14630"></path><path d="M364.7488 609.6896c-5.7344 0-10.24-4.5056-10.24-10.24v-23.1424c0-5.7344 4.5056-10.24 10.24-10.24s10.24 4.5056 10.24 10.24v23.1424c0 5.5296-4.5056 10.24-10.24 10.24zM364.7488 666.2144c-5.7344 0-10.24-4.5056-10.24-10.24V638.976c0-5.7344 4.5056-10.24 10.24-10.24s10.24 4.5056 10.24 10.24v16.9984c0 5.7344-4.5056 10.24-10.24 10.24z" fill="#FF8939" p-id="14631"></path><path d="M539.8528 652.4928c-5.7344 0-10.24-4.5056-10.24-10.24V638.976c0-5.7344 4.5056-10.24 10.24-10.24s10.24 4.5056 10.24 10.24v3.2768c0 5.7344-4.5056 10.24-10.24 10.24z" fill="#1C1D21" p-id="14632"></path><path d="M539.8528 916.48h-77.2096c-5.7344 0-10.24-4.5056-10.24-10.24V690.9952c0-4.5056-3.6864-8.192-8.192-8.192h-24.9856c-4.5056 0-8.192 3.6864-8.192 8.192v215.2448c0 5.7344-4.5056 10.24-10.24 10.24H323.584c-5.7344 0-10.24-4.5056-10.24-10.24V576.1024c0-5.7344 4.5056-10.24 10.24-10.24h216.064c5.7344 0 10.24 4.5056 10.24 10.24v27.2384c0 5.7344-4.5056 10.24-10.24 10.24s-10.24-4.5056-10.24-10.24v-16.9984H333.824v309.6576h56.7296V690.9952c0-15.7696 12.9024-28.672 28.672-28.672H444.416c15.7696 0 28.672 12.9024 28.672 28.672v205.0048h56.7296V679.1168c0-5.7344 4.5056-10.24 10.24-10.24s10.24 4.5056 10.24 10.24v227.1232c-0.2048 5.7344-4.7104 10.24-10.4448 10.24z" fill="#1C1D21" p-id="14633"></path><path d="M453.0176 841.728v-26.624c0-7.9872 6.3488-14.336 14.336-14.336h67.9936c7.9872 0 14.336 6.3488 14.336 14.336v26.624c0 7.9872-6.3488 14.336-14.336 14.336h-67.9936c-7.9872 0-14.336-6.3488-14.336-14.336z" fill="#AAADAD" p-id="14634"></path><path d="M535.3472 866.304h-67.9936c-13.5168 0-24.576-11.0592-24.576-24.576v-26.624c0-13.5168 11.0592-24.576 24.576-24.576h67.9936c13.5168 0 24.576 11.0592 24.576 24.576v26.624c0 13.5168-11.0592 24.576-24.576 24.576z m-67.9936-55.296c-2.2528 0-4.096 1.8432-4.096 4.096v26.624c0 2.2528 1.8432 4.096 4.096 4.096h67.9936c2.2528 0 4.096-1.8432 4.096-4.096v-26.624c0-2.2528-1.8432-4.096-4.096-4.096h-67.9936z" fill="#1C1D21" p-id="14635"></path><path d="M364.7488 768.6144c-5.7344 0-10.24-4.5056-10.24-10.24V694.272c0-5.7344 4.5056-10.24 10.24-10.24s10.24 4.5056 10.24 10.24v64.1024c0 5.7344-4.5056 10.24-10.24 10.24z" fill="#FF8939" p-id="14636"></path></svg>