<svg xmlns="http://www.w3.org/2000/svg" viewBox="0 0 1024 1024" version="1.1"><path d="M512 512m-501.76 0a501.76 501.76 0 1 0 1003.52 0 501.76 501.76 0 1 0-1003.52 0Z" fill="#8CEEF9" p-id="10334"></path><path d="M512 1024c-136.8064 0-265.4208-53.248-362.0864-149.9136S0 648.8064 0 512 53.248 246.5792 149.9136 149.9136 375.1936 0 512 0s265.4208 53.248 362.0864 149.9136S1024 375.1936 1024 512s-53.248 265.4208-149.9136 362.0864S648.8064 1024 512 1024z m0-1003.52C241.0496 20.48 20.48 241.0496 20.48 512s220.5696 491.52 491.52 491.52 491.52-220.5696 491.52-491.52S782.9504 20.48 512 20.48z" fill="#1C1D21" p-id="10335"></path><path d="M1013.76 512H10.24c0 277.0944 224.6656 501.76 501.76 501.76s501.76-224.6656 501.76-501.76z" fill="#C67552" p-id="10336"></path><path d="M512 1024c-136.8064 0-265.4208-53.248-362.0864-149.9136S0 648.8064 0 512c0-5.7344 4.5056-10.24 10.24-10.24h304.128c5.7344 0 10.24 4.5056 10.24 10.24s-4.5056 10.24-10.24 10.24H20.6848C26.0096 788.48 244.3264 1003.52 512 1003.52s485.9904-215.04 491.3152-481.28H398.9504c-5.7344 0-10.24-4.5056-10.24-10.24s4.5056-10.24 10.24-10.24H1013.76c5.7344 0 10.24 4.5056 10.24 10.24 0 136.8064-53.248 265.4208-149.9136 362.0864S648.8064 1024 512 1024z" fill="#1C1D21" p-id="10337"></path><path d="M542.1056 780.4928c0-1.2288 0-2.4576-0.2048-3.6864H700.416c-0.2048 1.2288-0.2048 2.4576-0.2048 3.6864 0 14.9504 12.0832 27.0336 27.0336 27.0336 14.9504 0 27.0336-12.0832 27.0336-27.0336 0-8.8064-4.3008-16.7936-10.8544-21.7088 6.5536-4.9152 10.8544-12.6976 10.8544-21.7088 0-14.9504-12.0832-27.0336-27.0336-27.0336-14.9504 0-27.0336 12.0832-27.0336 27.0336 0 1.2288 0 2.4576 0.2048 3.6864h-158.72c0.2048-1.2288 0.2048-2.4576 0.2048-3.6864 0-14.9504-12.0832-27.0336-27.0336-27.0336-14.9504 0-27.0336 12.0832-27.0336 27.0336 0 8.8064 4.3008 16.7936 10.8544 21.7088-6.5536 4.9152-10.8544 12.6976-10.8544 21.7088 0 14.9504 12.0832 27.0336 27.0336 27.0336 15.1552-0.2048 27.2384-12.288 27.2384-27.0336z" fill="#E0E0E0" p-id="10338"></path><path d="M727.2448 817.5616c-18.2272 0-33.5872-13.312-36.6592-30.5152h-138.8544c-3.072 17.408-18.432 30.5152-36.6592 30.5152-20.48 0-37.2736-16.7936-37.2736-37.2736 0-7.7824 2.4576-15.36 6.9632-21.7088-4.5056-6.3488-6.9632-13.9264-6.9632-21.7088 0-20.48 16.7936-37.2736 37.2736-37.2736 18.2272 0 33.5872 13.312 36.6592 30.5152H595.968c5.7344 0 10.24 4.5056 10.24 10.24s-4.5056 10.24-10.24 10.24h-54.0672c-2.8672 0-5.7344-1.2288-7.7824-3.4816-1.8432-2.2528-2.8672-5.12-2.4576-8.192 0.2048-0.8192 0.2048-1.6384 0.2048-2.2528 0-9.216-7.5776-16.7936-16.7936-16.7936s-16.7936 7.5776-16.7936 16.7936c0 5.3248 2.4576 10.24 6.7584 13.5168 2.6624 1.8432 4.096 4.9152 4.096 8.192s-1.6384 6.3488-4.096 8.192c-4.3008 3.2768-6.7584 8.192-6.7584 13.5168 0 9.216 7.5776 16.7936 16.7936 16.7936s16.7936-7.5776 16.7936-16.7936c0-0.8192 0-1.4336-0.2048-2.2528-0.4096-2.8672 0.4096-5.9392 2.4576-8.192 1.8432-2.2528 4.7104-3.4816 7.7824-3.4816H700.416c2.8672 0 5.7344 1.2288 7.7824 3.4816 1.8432 2.2528 2.8672 5.12 2.4576 8.192-0.2048 0.8192-0.2048 1.4336-0.2048 2.2528 0 9.216 7.5776 16.7936 16.7936 16.7936s16.7936-7.5776 16.7936-16.7936c0-5.3248-2.4576-10.24-6.7584-13.5168-2.6624-1.8432-4.096-4.9152-4.096-8.192s1.6384-6.3488 4.096-8.192c4.3008-3.2768 6.7584-8.192 6.7584-13.5168 0-9.216-7.5776-16.7936-16.7936-16.7936s-16.7936 7.5776-16.7936 16.7936c0 0.6144 0 1.4336 0.2048 2.2528 0.4096 2.8672-0.4096 5.9392-2.4576 8.192-1.8432 2.2528-4.7104 3.4816-7.7824 3.4816h-26.624c-5.7344 0-10.24-4.5056-10.24-10.24s4.5056-10.24 10.24-10.24h16.7936c3.072-17.408 18.432-30.5152 36.6592-30.5152 20.48 0 37.2736 16.7936 37.2736 37.2736 0 7.7824-2.4576 15.36-6.9632 21.7088 4.5056 6.3488 6.9632 13.9264 6.9632 21.7088-0.2048 20.6848-16.7936 37.2736-37.2736 37.2736z" fill="#1C1D21" p-id="10339"></path><path d="M638.3616 751.0016h-8.8064c-5.7344 0-10.24-4.5056-10.24-10.24s4.5056-10.24 10.24-10.24h8.8064c5.7344 0 10.24 4.5056 10.24 10.24s-4.7104 10.24-10.24 10.24z" fill="#1C1D21" p-id="10340"></path><path d="M542.1056 877.568c0-1.2288 0-2.4576-0.2048-3.6864H700.416c-0.2048 1.2288-0.2048 2.4576-0.2048 3.6864 0 14.9504 12.0832 27.0336 27.0336 27.0336 14.9504 0 27.0336-12.0832 27.0336-27.0336 0-8.8064-4.3008-16.7936-10.8544-21.7088 6.5536-4.9152 10.8544-12.6976 10.8544-21.7088 0-14.9504-12.0832-27.0336-27.0336-27.0336-14.9504 0-27.0336 12.0832-27.0336 27.0336 0 1.2288 0 2.4576 0.2048 3.6864h-158.72c0.2048-1.2288 0.2048-2.4576 0.2048-3.6864 0-14.9504-12.0832-27.0336-27.0336-27.0336-14.9504 0-27.0336 12.0832-27.0336 27.0336 0 8.8064 4.3008 16.7936 10.8544 21.7088-6.5536 4.9152-10.8544 12.6976-10.8544 21.7088 0 14.9504 12.0832 27.0336 27.0336 27.0336 15.1552 0 27.2384-12.0832 27.2384-27.0336z" fill="#E0E0E0" p-id="10341"></path><path d="M629.3504 884.3264h-3.072c-5.7344 0-10.24-4.5056-10.24-10.24s4.5056-10.24 10.24-10.24h3.072c5.7344 0 10.24 4.5056 10.24 10.24s-4.5056 10.24-10.24 10.24z" fill="#1C1D21" p-id="10342"></path><path d="M727.2448 914.8416c-18.2272 0-33.5872-13.312-36.6592-30.5152h-25.3952c-5.7344 0-10.24-4.5056-10.24-10.24s4.5056-10.24 10.24-10.24H700.416c2.8672 0 5.7344 1.2288 7.7824 3.4816 1.8432 2.2528 2.8672 5.12 2.4576 8.192-0.2048 0.8192-0.2048 1.6384-0.2048 2.2528 0 9.216 7.5776 16.7936 16.7936 16.7936s16.7936-7.5776 16.7936-16.7936c0-5.3248-2.4576-10.24-6.7584-13.5168-2.6624-1.8432-4.096-4.9152-4.096-8.192s1.6384-6.3488 4.096-8.192c4.3008-3.2768 6.7584-8.192 6.7584-13.5168 0-9.216-7.5776-16.7936-16.7936-16.7936s-16.7936 7.5776-16.7936 16.7936c0 0.8192 0 1.4336 0.2048 2.2528 0.4096 2.8672-0.4096 5.9392-2.4576 8.192-1.8432 2.2528-4.7104 3.4816-7.7824 3.4816h-158.72c-2.8672 0-5.7344-1.2288-7.7824-3.4816-1.8432-2.2528-2.8672-5.12-2.4576-8.192 0.2048-0.8192 0.2048-1.6384 0.2048-2.2528 0-9.216-7.5776-16.7936-16.7936-16.7936s-16.7936 7.5776-16.7936 16.7936c0 5.3248 2.4576 10.24 6.7584 13.5168 2.6624 1.8432 4.096 4.9152 4.096 8.192s-1.6384 6.3488-4.096 8.192c-4.3008 3.2768-6.7584 8.192-6.7584 13.5168 0 9.216 7.5776 16.7936 16.7936 16.7936s16.7936-7.5776 16.7936-16.7936c0-0.6144 0-1.4336-0.2048-2.2528-0.4096-2.8672 0.4096-5.9392 2.4576-8.192 1.8432-2.2528 4.7104-3.4816 7.7824-3.4816h45.2608c5.7344 0 10.24 4.5056 10.24 10.24s-4.5056 10.24-10.24 10.24h-35.4304c-3.072 17.408-18.432 30.5152-36.6592 30.5152-20.48 0-37.2736-16.7936-37.2736-37.2736 0-7.7824 2.4576-15.36 6.9632-21.7088-4.5056-6.3488-6.9632-13.9264-6.9632-21.7088 0-20.48 16.7936-37.2736 37.2736-37.2736 18.2272 0 33.5872 13.312 36.6592 30.5152h138.8544c3.072-17.408 18.432-30.5152 36.6592-30.5152 20.48 0 37.2736 16.7936 37.2736 37.2736 0 7.7824-2.4576 15.36-6.9632 21.7088 4.5056 6.3488 6.9632 13.9264 6.9632 21.7088 0 20.6848-16.5888 37.2736-37.0688 37.2736z" fill="#1C1D21" p-id="10343"></path><path d="M243.9168 840.0896h201.5232c23.552 0 42.8032-19.0464 42.8032-42.8032v-77.4144c0-23.552-19.0464-42.5984-42.5984-42.5984h-54.8864c-23.552 0-42.5984 19.0464-42.5984 42.5984v22.7328h-104.2432c-20.8896 0-37.888 16.9984-37.888 37.888v21.7088c0 20.8896 16.9984 37.888 37.888 37.888z" fill="#E0E0E0" p-id="10344"></path><path d="M387.072 850.3296h-7.168c-5.7344 0-10.24-4.5056-10.24-10.24s4.5056-10.24 10.24-10.24h7.168c5.7344 0 10.24 4.5056 10.24 10.24s-4.5056 10.24-10.24 10.24z" fill="#1C1D21" p-id="10345"></path><path d="M445.44 850.3296h-19.0464c-5.7344 0-10.24-4.5056-10.24-10.24s4.5056-10.24 10.24-10.24h19.0464c17.8176 0 32.5632-14.5408 32.5632-32.5632v-77.4144c0-17.8176-14.5408-32.3584-32.3584-32.3584h-54.8864c-17.8176 0-32.3584 14.5408-32.3584 32.3584v22.7328c0 5.7344-4.5056 10.24-10.24 10.24h-104.2432c-15.1552 0-27.648 12.4928-27.648 27.648v21.7088c0 15.1552 12.4928 27.648 27.648 27.648h93.5936c5.7344 0 10.24 4.5056 10.24 10.24s-4.5056 10.24-10.24 10.24h-93.5936c-26.624 0-48.128-21.504-48.128-48.128v-21.7088c0-26.624 21.504-48.128 48.128-48.128H337.92v-12.4928c0-29.0816 23.7568-52.8384 52.8384-52.8384h54.8864c29.0816 0 52.8384 23.7568 52.8384 52.8384v77.4144c-0.2048 29.2864-23.9616 53.0432-53.0432 53.0432z" fill="#1C1D21" p-id="10346"></path><path d="M305.7664 801.5872h-99.7376c-5.7344 0-10.24-4.5056-10.24-10.24s4.5056-10.24 10.24-10.24h99.7376c5.7344 0 10.24 4.5056 10.24 10.24s-4.5056 10.24-10.24 10.24zM345.2928 801.5872h-4.9152c-5.7344 0-10.24-4.5056-10.24-10.24s4.5056-10.24 10.24-10.24h4.9152c5.7344 0 10.24 4.5056 10.24 10.24s-4.5056 10.24-10.24 10.24z" fill="#1C1D21" p-id="10347"></path><path d="M412.0576 754.2784h-12.9024c-7.5776 0-13.7216-6.144-13.7216-13.7216v-12.9024c0-7.5776 6.144-13.7216 13.7216-13.7216h12.9024c7.5776 0 13.7216 6.144 13.7216 13.7216v12.9024c0.2048 7.3728-6.144 13.7216-13.7216 13.7216z" fill="#C67552" p-id="10348"></path><path d="M412.0576 764.5184h-12.9024c-13.312 0-23.9616-10.8544-23.9616-23.9616v-12.9024c0-13.312 10.8544-23.9616 23.9616-23.9616h12.9024c13.312 0 23.9616 10.8544 23.9616 23.9616v12.9024c0.2048 13.1072-10.6496 23.9616-23.9616 23.9616z m-12.9024-40.7552c-2.048 0-3.4816 1.6384-3.4816 3.4816v12.9024c0 2.048 1.6384 3.4816 3.4816 3.4816h12.9024c2.048 0 3.4816-1.6384 3.4816-3.4816v-12.9024c0-2.048-1.6384-3.4816-3.4816-3.4816h-12.9024z" fill="#1C1D21" p-id="10349"></path><path d="M405.9136 622.1824h-13.9264c-11.264 0-20.48-9.216-20.48-20.48V587.776c0-11.264 9.216-20.48 20.48-20.48h13.9264c11.264 0 20.48 9.216 20.48 20.48v13.9264c0 11.264-9.216 20.48-20.48 20.48z" fill="#AAADAD" p-id="10350"></path><path d="M460.5952 622.1824h-13.9264c-11.264 0-20.48-9.216-20.48-20.48V587.776c0-11.264 9.216-20.48 20.48-20.48h13.9264c11.264 0 20.48 9.216 20.48 20.48v13.9264c0 11.264-9.0112 20.48-20.48 20.48z" fill="#AAADAD" p-id="10351"></path><path d="M515.4816 622.1824h-13.9264c-11.264 0-20.48-9.216-20.48-20.48V587.776c0-11.264 9.216-20.48 20.48-20.48h13.9264c11.264 0 20.48 9.216 20.48 20.48v13.9264c0 11.264-9.216 20.48-20.48 20.48z" fill="#AAADAD" p-id="10352"></path><path d="M570.1632 622.1824h-13.9264c-11.264 0-20.48-9.216-20.48-20.48V587.776c0-11.264 9.216-20.48 20.48-20.48h13.9264c11.264 0 20.48 9.216 20.48 20.48v13.9264c0 11.264-9.0112 20.48-20.48 20.48zM625.0496 622.1824h-13.9264c-11.264 0-20.48-9.216-20.48-20.48V587.776c0-11.264 9.216-20.48 20.48-20.48h13.9264c11.264 0 20.48 9.216 20.48 20.48v13.9264c0 11.264-9.216 20.48-20.48 20.48zM460.5952 676.864h-13.9264c-11.264 0-20.48-9.216-20.48-20.48v-13.9264c0-11.264 9.216-20.48 20.48-20.48h13.9264c11.264 0 20.48 9.216 20.48 20.48v13.9264c0 11.264-9.0112 20.48-20.48 20.48z" fill="#AAADAD" p-id="10353"></path><path d="M515.4816 676.864h-13.9264c-11.264 0-20.48-9.216-20.48-20.48v-13.9264c0-11.264 9.216-20.48 20.48-20.48h13.9264c11.264 0 20.48 9.216 20.48 20.48v13.9264c0 11.264-9.216 20.48-20.48 20.48z" fill="#AAADAD" p-id="10354"></path><path d="M570.1632 676.864h-13.9264c-11.264 0-20.48-9.216-20.48-20.48v-13.9264c0-11.264 9.216-20.48 20.48-20.48h13.9264c11.264 0 20.48 9.216 20.48 20.48v13.9264c0 11.264-9.0112 20.48-20.48 20.48z" fill="#AAADAD" p-id="10355"></path><path d="M405.9136 632.4224h-13.9264c-16.9984 0-30.72-13.7216-30.72-30.72V587.776c0-16.9984 13.7216-30.72 30.72-30.72h13.9264c16.9984 0 30.72 13.7216 30.72 30.72v13.9264c0 16.7936-13.7216 30.72-30.72 30.72z m-13.9264-54.8864c-5.7344 0-10.24 4.5056-10.24 10.24v13.9264c0 5.7344 4.5056 10.24 10.24 10.24h13.9264c5.7344 0 10.24-4.5056 10.24-10.24V587.776c0-5.7344-4.5056-10.24-10.24-10.24h-13.9264z" fill="#1C1D21" p-id="10356"></path><path d="M460.5952 632.4224h-13.9264c-16.9984 0-30.72-13.7216-30.72-30.72V587.776c0-16.9984 13.7216-30.72 30.72-30.72h13.9264c16.9984 0 30.72 13.7216 30.72 30.72v13.9264c0 16.7936-13.7216 30.72-30.72 30.72z m-13.7216-54.8864c-5.7344 0-10.24 4.5056-10.24 10.24v13.9264c0 5.7344 4.5056 10.24 10.24 10.24h13.9264c5.7344 0 10.24-4.5056 10.24-10.24V587.776c0-5.7344-4.5056-10.24-10.24-10.24h-13.9264z" fill="#1C1D21" p-id="10357"></path><path d="M515.4816 632.4224h-13.9264c-16.9984 0-30.72-13.7216-30.72-30.72V587.776c0-16.9984 13.7216-30.72 30.72-30.72h13.9264c16.9984 0 30.72 13.7216 30.72 30.72v13.9264c0 16.7936-13.7216 30.72-30.72 30.72z m-13.9264-54.8864c-5.7344 0-10.24 4.5056-10.24 10.24v13.9264c0 5.7344 4.5056 10.24 10.24 10.24h13.9264c5.7344 0 10.24-4.5056 10.24-10.24V587.776c0-5.7344-4.5056-10.24-10.24-10.24h-13.9264z" fill="#1C1D21" p-id="10358"></path><path d="M570.1632 632.4224h-13.9264c-16.9984 0-30.72-13.7216-30.72-30.72V587.776c0-16.9984 13.7216-30.72 30.72-30.72h13.9264c16.9984 0 30.72 13.7216 30.72 30.72v13.9264c0 16.7936-13.7216 30.72-30.72 30.72z m-13.7216-54.8864c-5.7344 0-10.24 4.5056-10.24 10.24v13.9264c0 5.7344 4.5056 10.24 10.24 10.24h13.9264c5.7344 0 10.24-4.5056 10.24-10.24V587.776c0-5.7344-4.5056-10.24-10.24-10.24h-13.9264z" fill="#1C1D21" p-id="10359"></path><path d="M625.0496 632.4224h-13.9264c-16.9984 0-30.72-13.7216-30.72-30.72V587.776c0-16.9984 13.7216-30.72 30.72-30.72h13.9264c16.9984 0 30.72 13.7216 30.72 30.72v13.9264c0 16.7936-13.7216 30.72-30.72 30.72z m-13.9264-54.8864c-5.7344 0-10.24 4.5056-10.24 10.24v13.9264c0 5.7344 4.5056 10.24 10.24 10.24h13.9264c5.7344 0 10.24-4.5056 10.24-10.24V587.776c0-5.7344-4.5056-10.24-10.24-10.24h-13.9264zM460.5952 687.104h-13.9264c-16.9984 0-30.72-13.7216-30.72-30.72v-13.9264c0-16.9984 13.7216-30.72 30.72-30.72h13.9264c16.9984 0 30.72 13.7216 30.72 30.72v13.9264c0 16.9984-13.7216 30.72-30.72 30.72z m-13.7216-54.6816c-5.7344 0-10.24 4.5056-10.24 10.24v13.9264c0 5.7344 4.5056 10.24 10.24 10.24h13.9264c5.7344 0 10.24-4.5056 10.24-10.24v-13.9264c0-5.7344-4.5056-10.24-10.24-10.24h-13.9264z" fill="#1C1D21" p-id="10360"></path><path d="M515.4816 687.104h-13.9264c-16.9984 0-30.72-13.7216-30.72-30.72v-13.9264c0-16.9984 13.7216-30.72 30.72-30.72h13.9264c16.9984 0 30.72 13.7216 30.72 30.72v13.9264c0 16.9984-13.7216 30.72-30.72 30.72z m-13.9264-54.6816c-5.7344 0-10.24 4.5056-10.24 10.24v13.9264c0 5.7344 4.5056 10.24 10.24 10.24h13.9264c5.7344 0 10.24-4.5056 10.24-10.24v-13.9264c0-5.7344-4.5056-10.24-10.24-10.24h-13.9264z" fill="#1C1D21" p-id="10361"></path><path d="M570.1632 687.104h-13.9264c-16.9984 0-30.72-13.7216-30.72-30.72v-13.9264c0-16.9984 13.7216-30.72 30.72-30.72h13.9264c16.9984 0 30.72 13.7216 30.72 30.72v13.9264c0 16.9984-13.7216 30.72-30.72 30.72z m-13.7216-54.6816c-5.7344 0-10.24 4.5056-10.24 10.24v13.9264c0 5.7344 4.5056 10.24 10.24 10.24h13.9264c5.7344 0 10.24-4.5056 10.24-10.24v-13.9264c0-5.7344-4.5056-10.24-10.24-10.24h-13.9264z" fill="#1C1D21" p-id="10362"></path><path d="M901.7344 470.4256V356.352c11.0592-0.4096 20.0704-9.6256 20.0704-20.6848 0-11.264-8.8064-20.2752-20.0704-20.6848H766.976c-11.0592 0.4096-20.0704 9.6256-20.0704 20.6848 0 11.264 8.8064 20.2752 20.0704 20.6848v114.0736c-11.0592 0.4096-20.0704 9.6256-20.0704 20.6848 0 11.264 8.8064 20.2752 20.0704 20.6848H901.7344c11.0592-0.4096 20.0704-9.6256 20.0704-20.6848 0-11.0592-8.8064-20.2752-20.0704-20.6848z" fill="#AAADAD" p-id="10363"></path><path d="M901.7344 522.24h-134.7584c-0.6144 0-1.024 0-1.6384-0.2048-16.1792-1.2288-28.672-14.5408-28.672-30.9248 0-13.312 8.192-24.576 20.0704-29.0816V364.544c-11.6736-4.5056-20.0704-15.7696-20.0704-29.0816 0-16.384 12.4928-29.696 28.672-30.9248 0.4096 0 1.024-0.2048 1.6384-0.2048h134.7584c0.6144 0 1.024 0 1.6384 0.2048 16.1792 1.2288 28.672 14.5408 28.672 30.9248 0 13.312-8.192 24.576-20.0704 29.0816v97.6896c11.6736 4.5056 20.0704 15.7696 20.0704 29.0816 0 16.384-12.4928 29.696-28.672 30.9248h-1.6384zM768 501.76h133.5296c5.7344-0.2048 10.24-4.9152 10.24-10.6496s-4.5056-10.24-10.24-10.4448c-5.5296-0.2048-9.8304-4.7104-9.8304-10.24V356.352c0-5.5296 4.3008-10.0352 9.8304-10.24 5.7344-0.2048 10.24-4.9152 10.24-10.6496s-4.5056-10.24-10.24-10.4448h-134.144c-5.7344 0.2048-10.24 4.9152-10.24 10.4448s4.5056 10.24 10.24 10.6496c5.5296 0.2048 9.8304 4.7104 9.8304 10.24v114.0736c0 5.5296-4.3008 10.0352-9.8304 10.24-5.7344 0.2048-10.24 4.9152-10.24 10.4448s4.5056 10.24 10.24 10.6496h0.6144z" fill="#1C1D21" p-id="10364"></path><path d="M834.3552 390.144L813.056 431.3088c-4.096 7.9872-3.4816 17.6128 1.8432 24.7808 9.6256 13.312 29.2864 13.312 38.912 0 5.12-7.3728 5.9392-16.7936 1.8432-24.7808l-21.2992-41.1648z" fill="#E0E0E0" p-id="10365"></path><path d="M834.3552 476.3648c-11.0592 0-21.2992-5.3248-27.8528-14.336-7.3728-10.4448-8.3968-24.1664-2.6624-35.4304l21.2992-41.1648c1.8432-3.4816 5.3248-5.5296 9.0112-5.5296 3.8912 0 7.3728 2.048 9.0112 5.5296l21.2992 41.1648c5.9392 11.4688 4.9152 24.9856-2.6624 35.4304-5.9392 9.0112-16.384 14.336-27.4432 14.336z m0-63.8976l-12.0832 23.552c-2.4576 4.5056-2.048 10.0352 1.024 14.1312 2.6624 3.6864 6.5536 5.7344 11.0592 5.7344s8.6016-2.048 11.0592-5.7344c3.072-4.096 3.4816-9.6256 1.024-14.1312l-12.0832-23.552zM790.3232 366.592h-23.3472c-5.7344 0-10.24-4.5056-10.24-10.24s4.5056-10.24 10.24-10.24h23.3472c5.7344 0 10.24 4.5056 10.24 10.24s-4.5056 10.24-10.24 10.24zM834.3552 366.592h-10.8544c-5.7344 0-10.24-4.5056-10.24-10.24s4.5056-10.24 10.24-10.24h10.8544c5.7344 0 10.24 4.5056 10.24 10.24s-4.5056 10.24-10.24 10.24z" fill="#1C1D21" p-id="10366"></path><path d="M257.024 470.4256V356.352c11.0592-0.4096 20.0704-9.6256 20.0704-20.6848 0-11.264-8.8064-20.2752-20.0704-20.6848H122.2656c-11.0592 0.4096-20.0704 9.6256-20.0704 20.6848 0 11.264 8.8064 20.2752 20.0704 20.6848v114.0736c-11.0592 0.4096-20.0704 9.6256-20.0704 20.6848 0 11.264 8.8064 20.2752 20.0704 20.6848H257.024c11.0592-0.4096 20.0704-9.6256 20.0704-20.6848-0.2048-11.0592-9.0112-20.2752-20.0704-20.6848z" fill="#AAADAD" p-id="10367"></path><path d="M257.024 522.24H122.2656c-0.6144 0-1.024 0-1.6384-0.2048-16.1792-1.2288-28.672-14.5408-28.672-30.9248 0-13.312 8.192-24.576 20.0704-29.0816V364.544c-11.6736-4.5056-20.0704-15.7696-20.0704-29.0816 0-16.384 12.4928-29.696 28.672-30.9248 0.4096 0 1.024-0.2048 1.6384-0.2048h134.7584c0.6144 0 1.024 0 1.6384 0.2048 16.1792 1.2288 28.672 14.5408 28.672 30.9248 0 13.312-8.192 24.576-20.0704 29.0816v97.6896c11.6736 4.5056 20.0704 15.7696 20.0704 29.0816 0 16.384-12.4928 29.696-28.672 30.9248h-1.6384z m-133.9392-20.48h133.5296c5.7344-0.2048 10.24-4.9152 10.24-10.6496s-4.5056-10.24-10.24-10.4448c-5.5296-0.2048-9.8304-4.7104-9.8304-10.24V356.352c0-5.5296 4.3008-10.0352 9.8304-10.24 5.7344-0.2048 10.24-4.9152 10.24-10.6496s-4.5056-10.24-10.24-10.4448H122.4704c-5.7344 0.2048-10.24 4.9152-10.24 10.4448s4.5056 10.24 10.24 10.6496c5.5296 0.2048 9.8304 4.7104 9.8304 10.24v114.0736c0 5.5296-4.3008 10.0352-9.8304 10.24-5.7344 0.2048-10.24 4.9152-10.24 10.4448s4.5056 10.24 10.24 10.6496h0.6144z" fill="#1C1D21" p-id="10368"></path><path d="M189.6448 390.144l-21.2992 41.1648c-4.096 7.9872-3.4816 17.6128 1.8432 24.7808 9.6256 13.312 29.2864 13.312 38.912 0 5.12-7.3728 5.9392-16.7936 1.8432-24.7808l-21.2992-41.1648z" fill="#E0E0E0" p-id="10369"></path><path d="M189.6448 476.3648c-11.0592 0-21.2992-5.3248-27.8528-14.336-7.3728-10.4448-8.3968-24.1664-2.6624-35.4304l21.2992-41.1648c1.8432-3.4816 5.3248-5.5296 9.0112-5.5296s7.3728 2.048 9.0112 5.5296l21.2992 41.1648c5.9392 11.4688 4.9152 24.9856-2.6624 35.4304-6.144 9.0112-16.5888 14.336-27.4432 14.336z m0-63.8976l-12.0832 23.552c-2.4576 4.5056-2.048 10.0352 1.024 14.1312 2.6624 3.6864 6.5536 5.7344 11.0592 5.7344s8.6016-2.048 11.0592-5.7344c3.072-4.096 3.4816-9.6256 1.024-14.1312l-12.0832-23.552zM145.6128 366.592H122.2656c-5.7344 0-10.24-4.5056-10.24-10.24s4.5056-10.24 10.24-10.24h23.3472c5.7344 0 10.24 4.5056 10.24 10.24s-4.5056 10.24-10.24 10.24zM189.6448 366.592h-10.8544c-5.7344 0-10.24-4.5056-10.24-10.24s4.5056-10.24 10.24-10.24h10.8544c5.7344 0 10.24 4.5056 10.24 10.24s-4.7104 10.24-10.24 10.24z" fill="#1C1D21" p-id="10370"></path><path d="M598.6304 512L512 299.6224 425.3696 512z" fill="#AAADAD" p-id="10371"></path><path d="M598.6304 522.24h-173.4656c-3.4816 0-6.5536-1.6384-8.6016-4.5056-1.8432-2.8672-2.2528-6.3488-1.024-9.6256l86.6304-212.3776c1.6384-3.8912 5.3248-6.3488 9.4208-6.3488s7.9872 2.4576 9.4208 6.3488L608.256 508.1088c1.2288 3.072 1.024 6.7584-1.024 9.6256-1.8432 2.8672-5.12 4.5056-8.6016 4.5056z m-158.1056-20.48h142.9504L512 326.8608 440.5248 501.76z" fill="#1C1D21" p-id="10372"></path><path d="M510.5664 421.6832c-1.2288 0-2.6624-0.2048-3.8912-0.8192-5.3248-2.048-7.7824-8.192-5.5296-13.312l1.4336-3.4816c2.048-5.3248 8.192-7.7824 13.312-5.5296 5.3248 2.048 7.7824 8.192 5.5296 13.312l-1.4336 3.4816c-1.4336 3.8912-5.3248 6.3488-9.4208 6.3488zM486.1952 481.28c-1.2288 0-2.6624-0.2048-3.8912-0.8192-5.3248-2.048-7.7824-8.192-5.5296-13.312l12.0832-29.696c2.048-5.3248 8.192-7.7824 13.312-5.5296 5.3248 2.048 7.7824 8.192 5.5296 13.312l-12.0832 29.696c-1.4336 3.8912-5.3248 6.3488-9.4208 6.3488z" fill="#E0E0E0" p-id="10373"></path><path d="M512 309.8624c-5.7344 0-10.24-4.5056-10.24-10.24V189.8496c0-5.7344 4.5056-10.24 10.24-10.24s10.24 4.5056 10.24 10.24v109.7728c0 5.7344-4.5056 10.24-10.24 10.24z" fill="#1C1D21" p-id="10374"></path><path d="M624.2304 217.088L389.3248 159.9488l10.6496-43.6224 191.2832 46.4896c23.9616 5.9392 38.7072 30.1056 32.9728 54.272zM370.8928 235.3152l36.2496-148.6848c-20.0704-4.9152-40.3456 7.3728-45.056 27.4432l-18.432 76.1856c-5.12 20.0704 7.168 40.3456 27.2384 45.056z" fill="#AAADAD" p-id="10375"></path><path d="M624.2304 227.328c-0.8192 0-1.6384 0-2.4576-0.2048l-234.9056-57.344c-5.5296-1.4336-8.8064-6.9632-7.5776-12.288l10.6496-43.6224a9.8304 9.8304 0 0 1 4.7104-6.3488c2.2528-1.4336 5.12-1.8432 7.7824-1.2288l191.2832 46.4896c14.336 3.4816 26.4192 12.288 33.9968 24.7808 7.5776 12.4928 10.0352 27.2384 6.5536 41.5744a9.8304 9.8304 0 0 1-4.7104 6.3488c-1.6384 1.2288-3.4816 1.8432-5.3248 1.8432zM401.6128 152.3712l213.4016 51.8144c-0.4096-5.5296-2.048-10.8544-4.9152-15.7696-4.7104-7.7824-12.288-13.5168-21.2992-15.5648l-181.4528-44.032-5.7344 23.552z" fill="#1C1D21" p-id="10376"></path><path d="M370.8928 245.5552c-0.8192 0-1.6384 0-2.4576-0.2048-12.288-3.072-22.7328-10.6496-29.4912-21.504-6.5536-10.8544-8.6016-23.552-5.5296-36.0448l18.432-76.1856c3.072-12.288 10.6496-22.7328 21.504-29.4912 10.8544-6.5536 23.552-8.6016 36.0448-5.5296 5.5296 1.4336 8.8064 6.9632 7.5776 12.288L380.928 237.7728c-1.2288 4.7104-5.3248 7.7824-10.0352 7.7824z m23.3472-149.504c-3.4816 0.6144-6.9632 1.8432-10.0352 3.6864-6.144 3.6864-10.4448 9.6256-12.288 16.7936l-18.432 76.1856c-1.6384 6.9632-0.6144 14.336 3.2768 20.48 1.8432 3.072 4.3008 5.7344 7.3728 7.9872l30.1056-125.1328z" fill="#1C1D21" p-id="10377"></path><path d="M370.8928 354.0992c-5.7344 0-10.24-4.5056-10.24-10.24v-108.544c0-5.7344 4.5056-10.24 10.24-10.24s10.24 4.5056 10.24 10.24v108.544c0 5.7344-4.5056 10.24-10.24 10.24z" fill="#1C1D21" p-id="10378"></path><path d="M576.512 205.4144h75.776v46.08h-75.776z" fill="#AAADAD" p-id="10379"></path><path d="M652.288 261.7344h-75.776c-5.7344 0-10.24-4.5056-10.24-10.24v-46.08c0-5.7344 4.5056-10.24 10.24-10.24h75.776c5.7344 0 10.24 4.5056 10.24 10.24v46.08c0 5.7344-4.5056 10.24-10.24 10.24z m-65.536-20.48h55.296v-25.6h-55.296v25.6z" fill="#1C1D21" p-id="10380"></path><path d="M576.512 325.0176c-5.7344 0-10.24-4.5056-10.24-10.24v-63.0784c0-5.7344 4.5056-10.24 10.24-10.24s10.24 4.5056 10.24 10.24v63.0784c0 5.5296-4.5056 10.24-10.24 10.24z" fill="#1C1D21" p-id="10381"></path><path d="M652.288 325.0176c-5.7344 0-10.24-4.5056-10.24-10.24v-63.0784c0-5.7344 4.5056-10.24 10.24-10.24s10.24 4.5056 10.24 10.24v63.0784c0 5.5296-4.5056 10.24-10.24 10.24z" fill="#1C1D21" p-id="10382"></path><path d="M576.512 360.2432c-5.7344 0-10.24-4.5056-10.24-10.24v-4.5056c0-5.7344 4.5056-10.24 10.24-10.24s10.24 4.5056 10.24 10.24v4.5056c0 5.7344-4.5056 10.24-10.24 10.24z" fill="#1C1D21" p-id="10383"></path><path d="M652.288 360.2432c-5.7344 0-10.24-4.5056-10.24-10.24v-4.5056c0-5.7344 4.5056-10.24 10.24-10.24s10.24 4.5056 10.24 10.24v4.5056c0 5.7344-4.5056 10.24-10.24 10.24z" fill="#1C1D21" p-id="10384"></path><path d="M371.5072 396.288c-5.7344 0-10.24-4.5056-10.24-10.24V376.832c0-5.7344 4.5056-10.24 10.24-10.24s10.24 4.5056 10.24 10.24v9.216c0 5.7344-4.5056 10.24-10.24 10.24z" fill="#1C1D21" p-id="10385"></path></svg>