<svg xmlns="http://www.w3.org/2000/svg" viewBox="0 0 1024 1024" version="1.1"><path d="M512 512m-501.76 0a501.76 501.76 0 1 0 1003.52 0 501.76 501.76 0 1 0-1003.52 0Z" fill="#8CEEF9" p-id="10654"></path><path d="M512 1024c-136.8064 0-265.4208-53.248-362.0864-149.9136C53.248 777.4208 0 648.8064 0 512S53.248 246.5792 149.9136 149.9136C246.5792 53.248 375.1936 0 512 0s265.4208 53.248 362.0864 149.9136C970.752 246.5792 1024 375.1936 1024 512s-53.248 265.4208-149.9136 362.0864C777.4208 970.752 648.8064 1024 512 1024z m0-1003.52C241.0496 20.48 20.48 241.0496 20.48 512s220.5696 491.52 491.52 491.52 491.52-220.5696 491.52-491.52S782.9504 20.48 512 20.48z" fill="#1C1D21" p-id="10655"></path><path d="M512 512m-414.5152 0a414.5152 414.5152 0 1 0 829.0304 0 414.5152 414.5152 0 1 0-829.0304 0Z" fill="#FFC5B3" p-id="10656"></path><path d="M410.8288 179.2c-4.5056 0-8.6016-2.8672-9.8304-7.3728-1.6384-5.3248 1.4336-11.0592 6.9632-12.6976 5.7344-1.6384 11.4688-3.2768 17.2032-4.7104 5.5296-1.2288 11.0592 2.048 12.288 7.5776 1.2288 5.5296-2.048 11.0592-7.5776 12.288-5.5296 1.2288-11.0592 2.8672-16.384 4.3008-0.6144 0.4096-1.6384 0.6144-2.6624 0.6144zM154.4192 522.24c-5.7344 0-10.24-4.5056-10.24-10.24 0-138.0352 76.1856-263.3728 199.0656-326.8608 5.12-2.6624 11.264-0.6144 13.7216 4.3008 2.6624 5.12 0.6144 11.264-4.3008 13.7216-115.9168 60.0064-188.0064 178.176-188.0064 308.6336 0 5.9392-4.5056 10.4448-10.24 10.4448z" fill="#FFECE9" p-id="10657"></path><path d="M342.8352 143.7696c-3.8912 0-7.5776-2.2528-9.4208-6.144-2.2528-5.12 0-11.264 5.12-13.5168 3.4816-1.4336 6.9632-3.072 10.24-4.5056 5.3248-2.2528 11.264 0.2048 13.312 5.5296 2.2528 5.12-0.2048 11.264-5.5296 13.312-3.2768 1.4336-6.5536 2.6624-9.8304 4.3008-1.024 0.6144-2.4576 1.024-3.8912 1.024zM203.3664 245.5552c-2.4576 0-4.9152-0.8192-6.7584-2.6624-4.3008-3.6864-4.5056-10.24-0.8192-14.5408 29.2864-32.768 63.488-60.6208 101.1712-82.944 4.9152-2.8672 11.0592-1.2288 13.9264 3.6864 2.8672 4.9152 1.2288 11.0592-3.6864 13.9264-36.0448 21.0944-68.4032 47.7184-96.4608 78.848-1.8432 2.6624-4.7104 3.6864-7.3728 3.6864z" fill="#1C1D21" p-id="10658"></path><path d="M512 936.7552c-234.2912 0-424.7552-190.464-424.7552-424.7552 0-78.6432 21.7088-155.4432 62.6688-222.208 2.8672-4.9152 9.216-6.3488 14.1312-3.2768 4.9152 2.8672 6.3488 9.216 3.2768 14.1312-39.1168 63.488-59.5968 136.6016-59.5968 211.5584 0 222.8224 181.4528 404.2752 404.2752 404.2752S916.2752 734.8224 916.2752 512 734.8224 107.7248 512 107.7248c-27.4432 0-54.8864 2.6624-81.5104 8.192-6.144 1.2288-12.4928 2.6624-18.432 4.3008-5.5296 1.4336-11.0592-1.8432-12.4928-7.3728-1.4336-5.5296 1.8432-11.0592 7.3728-12.4928 6.3488-1.6384 12.9024-3.072 19.456-4.5056 28.0576-5.7344 56.7296-8.6016 85.6064-8.6016 234.2912 0 424.7552 190.464 424.7552 424.7552s-190.464 424.7552-424.7552 424.7552z" fill="#1C1D21" p-id="10659"></path><path d="M406.7328 581.2224h-31.1296v-41.3696c39.1168-10.0352 68.1984-45.6704 68.1984-88.064 0-50.176-40.7552-90.9312-90.9312-90.9312s-90.9312 40.7552-90.9312 90.9312c0 42.1888 29.0816 77.824 68.1984 88.064v41.3696H299.008c-12.4928 0-22.7328 10.24-22.7328 22.7328s10.24 22.7328 22.7328 22.7328h31.1296v40.7552c0 12.4928 10.24 22.7328 22.7328 22.7328s22.7328-10.24 22.7328-22.7328V626.688h31.1296c12.4928 0 22.7328-10.24 22.7328-22.7328s-10.24-22.7328-22.7328-22.7328z m-99.1232-129.2288c0-24.9856 20.2752-45.4656 45.4656-45.4656 24.9856 0 45.4656 20.2752 45.4656 45.4656 0 24.9856-20.2752 45.4656-45.4656 45.4656-25.1904-0.2048-45.4656-20.48-45.4656-45.4656zM733.7984 470.016h34.4064l-51.2 51.2c-34.816-20.48-80.4864-15.7696-110.3872 14.1312-35.4304 35.4304-35.4304 93.184 0 128.6144 35.4304 35.4304 93.184 35.4304 128.6144 0 29.9008-29.9008 34.6112-75.5712 14.1312-110.3872l51.2-51.2v34.4064c0 12.4928 10.24 22.7328 22.7328 22.7328s22.7328-10.24 22.7328-22.7328l0.2048-89.4976c0-0.8192 0-1.4336-0.2048-2.2528v-0.2048c0-0.6144-0.2048-1.2288-0.2048-2.048v-0.2048c-0.2048-0.6144-0.2048-1.2288-0.4096-1.8432v-0.2048c-0.2048-0.6144-0.4096-1.2288-0.6144-2.048-0.2048-0.6144-0.6144-1.4336-1.024-2.048-0.4096-0.6144-0.6144-1.2288-1.024-1.8432 0-0.2048-0.2048-0.2048-0.2048-0.4096-0.4096-0.4096-0.6144-1.024-1.024-1.4336-0.4096-0.6144-1.024-1.2288-1.4336-1.6384s-1.024-1.024-1.6384-1.4336c-0.4096-0.4096-1.024-0.8192-1.4336-1.024-0.2048 0-0.2048-0.2048-0.4096-0.2048-0.6144-0.4096-1.2288-0.8192-1.8432-1.024-0.6144-0.4096-1.2288-0.6144-2.048-1.024-0.6144-0.2048-1.2288-0.4096-2.048-0.6144h-0.2048c-0.6144-0.2048-1.2288-0.4096-1.8432-0.4096h-0.2048c-0.6144-0.2048-1.2288-0.2048-2.048-0.2048h-0.2048c-0.8192 0-1.4336-0.2048-2.2528-0.2048l-89.4976 0.2048c-12.4928 0-22.7328 10.24-22.7328 22.7328-0.6144 11.8784 9.6256 22.1184 22.1184 22.1184z m-30.9248 161.3824c-17.6128 17.6128-46.4896 17.6128-64.1024 0-17.6128-17.6128-17.6128-46.4896 0-64.1024 17.6128-17.6128 46.4896-17.6128 64.1024 0s17.8176 46.4896 0 64.1024z" fill="#FF3E63" p-id="10660"></path><path d="M352.8704 700.6208c-18.2272 0-32.9728-14.7456-32.9728-32.9728v-30.5152h-20.6848c-18.2272 0-32.9728-14.7456-32.9728-32.9728s14.7456-32.9728 32.9728-32.9728h20.6848v-23.552c-40.5504-13.9264-68.1984-52.224-68.1984-95.6416 0-55.7056 45.4656-101.1712 101.1712-101.1712s101.1712 45.4656 101.1712 101.1712c0 43.4176-27.648 81.7152-68.1984 95.6416v23.552h20.8896c18.2272 0 32.9728 14.7456 32.9728 32.9728s-14.7456 32.9728-32.9728 32.9728h-20.8896V667.648c0.2048 18.0224-14.7456 32.9728-32.9728 32.9728z m-53.6576-109.1584c-6.9632 0-12.4928 5.5296-12.4928 12.4928s5.5296 12.4928 12.4928 12.4928h30.9248c5.7344 0 10.24 4.5056 10.24 10.24v40.7552c0 6.9632 5.5296 12.4928 12.4928 12.4928s12.4928-5.5296 12.4928-12.4928V626.688c0-5.7344 4.5056-10.24 10.24-10.24h31.1296c6.9632 0 12.4928-5.5296 12.4928-12.4928s-5.5296-12.4928-12.4928-12.4928h-31.1296c-5.7344 0-10.24-4.5056-10.24-10.24v-41.3696c0-4.7104 3.072-8.8064 7.5776-9.8304 35.6352-9.216 60.416-41.3696 60.416-78.0288 0-44.4416-36.2496-80.6912-80.6912-80.6912s-80.6912 36.2496-80.6912 80.6912c0 36.864 24.7808 68.8128 60.416 78.0288 4.5056 1.2288 7.5776 5.3248 7.5776 9.8304v41.3696c0 5.7344-4.5056 10.24-10.24 10.24h-30.5152z m53.6576-83.968c-30.72 0-55.7056-24.9856-55.7056-55.7056s24.9856-55.7056 55.7056-55.7056 55.7056 24.9856 55.7056 55.7056-24.9856 55.7056-55.7056 55.7056z m0-90.7264c-19.456 0-35.2256 15.7696-35.2256 35.2256s15.7696 35.2256 35.2256 35.2256 35.2256-15.7696 35.2256-35.2256-15.7696-35.2256-35.2256-35.2256zM670.9248 700.6208c-25.8048 0-51.8144-9.8304-71.4752-29.4912-19.0464-19.0464-29.4912-44.4416-29.4912-71.4752s10.4448-52.4288 29.4912-71.4752c30.72-30.72 77.2096-38.2976 115.9168-19.456l28.2624-28.2624h-9.6256c-18.2272 0-32.9728-14.7456-32.9728-32.9728 0-8.8064 3.4816-17.2032 9.6256-23.3472 6.144-6.3488 14.5408-9.6256 23.3472-9.8304l89.4976-0.2048h0.2048c1.024 0 2.048 0 3.072 0.2048h0.6144c0.8192 0 1.8432 0.2048 2.6624 0.4096 0.2048 0 0.4096 0 0.6144 0.2048l2.4576 0.6144c0.2048 0 0.2048 0 0.4096 0.2048 0.8192 0.2048 1.8432 0.6144 2.6624 1.024 0 0 0.2048 0 0.2048 0.2048 1.024 0.4096 1.8432 0.8192 2.6624 1.2288 0 0 0.2048 0 0.2048 0.2048 0.8192 0.4096 1.6384 1.024 2.4576 1.4336 0.2048 0.2048 0.4096 0.2048 0.6144 0.4096 0.6144 0.4096 1.4336 1.024 2.048 1.4336 0.8192 0.6144 1.6384 1.4336 2.4576 2.2528 0.8192 0.8192 1.4336 1.6384 2.2528 2.4576 0.6144 0.6144 1.024 1.2288 1.4336 2.048 0.2048 0.2048 0.2048 0.4096 0.4096 0.6144 0.6144 0.8192 1.024 1.6384 1.6384 2.4576 0 0 0 0.2048 0.2048 0.2048 0.4096 0.8192 1.024 1.8432 1.2288 2.8672v0.2048c0.4096 0.8192 0.6144 1.6384 1.024 2.6624v0.2048c0.2048 1.024 0.4096 1.8432 0.6144 2.6624 0 0.2048 0 0.4096 0.2048 0.6144 0.2048 1.024 0.4096 1.8432 0.4096 2.6624v0.6144c0 1.024 0.2048 2.048 0.2048 3.072v0.2048L856.064 536.576c0 8.8064-3.4816 17.2032-9.8304 23.3472-6.144 6.144-14.5408 9.6256-23.3472 9.6256-18.2272 0-32.9728-14.9504-32.9728-33.1776v-9.6256L761.856 555.2128c18.8416 38.5024 11.264 85.1968-19.456 115.9168-19.6608 19.456-45.6704 29.4912-71.4752 29.4912z m0-181.8624c-20.8896 0-41.5744 7.9872-57.1392 23.552-15.1552 15.1552-23.552 35.4304-23.552 57.1392 0 21.504 8.3968 41.7792 23.552 57.1392 31.5392 31.5392 82.7392 31.5392 114.0736 0 26.0096-26.0096 31.1296-66.3552 12.4928-98.0992-2.4576-4.096-1.6384-9.216 1.6384-12.4928l51.2-51.2c2.8672-2.8672 7.3728-3.8912 11.264-2.2528 3.8912 1.6384 6.3488 5.3248 6.3488 9.4208v34.4064c0 6.9632 5.5296 12.4928 12.4928 12.4928 6.9632 0 12.4928-5.5296 12.4928-12.4928l0.2048-89.4976v-0.2048-1.024-0.4096c0-0.2048 0-0.6144-0.2048-0.8192v-0.4096c0-0.4096-0.2048-0.6144-0.2048-0.8192v-0.4096c0-0.2048-0.2048-0.6144-0.4096-0.8192-0.2048-0.4096-0.2048-0.6144-0.4096-1.024v-0.2048c-0.2048-0.2048-0.4096-0.6144-0.4096-0.8192 0-0.2048-0.2048-0.2048-0.2048-0.4096-0.2048-0.2048-0.4096-0.6144-0.6144-0.8192-0.2048-0.4096-0.6144-0.6144-0.8192-1.024-0.2048-0.2048-0.6144-0.6144-1.024-0.8192-0.2048-0.2048-0.6144-0.4096-0.8192-0.6144 0 0-0.2048-0.2048-0.4096-0.2048-0.2048-0.2048-0.6144-0.4096-0.8192-0.4096h-0.2048c-0.4096-0.2048-0.6144-0.4096-1.024-0.4096-0.4096-0.2048-0.6144-0.2048-1.024-0.4096h-0.2048c-0.2048 0-0.6144-0.2048-0.8192-0.2048h-0.4096c-0.2048 0-0.6144 0-0.8192-0.2048h-1.4336-0.2048l-89.4976 0.2048c-3.2768 0-6.5536 1.2288-8.8064 3.6864s-3.6864 5.5296-3.6864 8.8064c0 6.9632 5.7344 12.4928 12.4928 12.4928h34.4064c4.096 0 7.7824 2.4576 9.4208 6.3488 1.6384 3.8912 0.8192 8.192-2.2528 11.264l-51.2 51.2c-3.2768 3.2768-8.3968 3.8912-12.4928 1.6384-12.9024-7.5776-27.0336-11.264-40.96-11.264z m155.8528-104.6528z m-155.8528 240.8448c-14.336 0-28.4672-5.3248-39.3216-16.1792-10.4448-10.4448-16.1792-24.3712-16.1792-39.3216s5.7344-28.8768 16.1792-39.3216 24.3712-16.1792 39.3216-16.1792 28.8768 5.7344 39.3216 16.1792c21.7088 21.7088 21.7088 56.9344 0 78.6432-10.8544 10.8544-25.1904 16.1792-39.3216 16.1792z m0-90.7264c-9.4208 0-18.2272 3.6864-24.7808 10.24-6.5536 6.5536-10.24 15.36-10.24 24.7808s3.6864 18.2272 10.24 24.7808c13.7216 13.7216 36.0448 13.7216 49.7664 0s13.7216-36.0448 0-49.7664c-6.7584-6.3488-15.5648-10.0352-24.9856-10.0352z m31.9488 67.1744z" fill="#1C1D21" p-id="10661"></path><path d="M432.5376 739.328h-159.1296c-13.5168 0-24.576-11.0592-24.576-24.576s11.0592-24.576 24.576-24.576h159.1296c13.5168 0 24.576 11.0592 24.576 24.576s-11.0592 24.576-24.576 24.576zM296.3456 965.2224c35.6352 16.9984 73.5232 29.9008 113.0496 38.0928V739.328h-113.0496v225.8944zM750.592 739.328h-159.1296c-13.5168 0-24.576-11.0592-24.576-24.576s11.0592-24.576 24.576-24.576h159.1296c13.5168 0 24.576 11.0592 24.576 24.576s-11.0592 24.576-24.576 24.576zM614.6048 1003.3152c39.5264-8.192 77.4144-21.0944 113.0496-38.0928V739.328h-113.0496v263.9872z" fill="#FF8939" p-id="10662"></path><path d="M432.5376 749.568h-23.1424c-5.7344 0-10.24-4.5056-10.24-10.24s4.5056-10.24 10.24-10.24h23.1424c7.7824 0 14.336-6.3488 14.336-14.336s-6.3488-14.336-14.336-14.336h-159.1296c-7.7824 0-14.336 6.3488-14.336 14.336s6.3488 14.336 14.336 14.336H344.064c5.7344 0 10.24 4.5056 10.24 10.24s-4.5056 10.24-10.24 10.24h-70.656c-19.2512 0-34.816-15.5648-34.816-34.816s15.5648-34.816 34.816-34.816h159.1296c19.2512 0 34.816 15.5648 34.816 34.816s-15.5648 34.816-34.816 34.816z" fill="#1C1D21" p-id="10663"></path><path d="M409.3952 1013.5552c-0.6144 0-1.4336 0-2.048-0.2048-39.7312-8.192-78.6432-21.2992-115.3024-38.912-3.4816-1.6384-5.7344-5.3248-5.7344-9.216V739.328c0-5.7344 4.5056-10.24 10.24-10.24s10.24 4.5056 10.24 10.24v219.3408c29.696 13.7216 60.8256 24.3712 92.5696 31.744V739.328c0-5.7344 4.5056-10.24 10.24-10.24s10.24 4.5056 10.24 10.24v263.9872c0 3.072-1.4336 5.9392-3.6864 7.9872-2.048 1.4336-4.3008 2.2528-6.7584 2.2528zM614.6048 1013.5552c-2.2528 0-4.7104-0.8192-6.5536-2.2528-2.4576-1.8432-3.6864-4.9152-3.6864-7.9872V739.328c0-5.7344 4.5056-10.24 10.24-10.24s10.24 4.5056 10.24 10.24v251.0848c31.744-7.3728 62.8736-18.2272 92.5696-31.744V739.328c0-5.7344 4.5056-10.24 10.24-10.24s10.24 4.5056 10.24 10.24v225.8944c0 3.8912-2.2528 7.5776-5.7344 9.216-36.6592 17.6128-75.5712 30.5152-115.3024 38.912-1.024 0-1.6384 0.2048-2.2528 0.2048z" fill="#1C1D21" p-id="10664"></path><path d="M376.0128 749.568h-2.8672c-5.7344 0-10.24-4.5056-10.24-10.24s4.5056-10.24 10.24-10.24h2.8672c5.7344 0 10.24 4.5056 10.24 10.24s-4.5056 10.24-10.24 10.24zM750.592 749.568h-23.1424c-5.7344 0-10.24-4.5056-10.24-10.24s4.5056-10.24 10.24-10.24h23.1424c7.7824 0 14.336-6.3488 14.336-14.336s-6.3488-14.336-14.336-14.336h-159.1296c-7.7824 0-14.336 6.3488-14.336 14.336s6.3488 14.336 14.336 14.336h70.656c5.7344 0 10.24 4.5056 10.24 10.24s-4.5056 10.24-10.24 10.24h-70.656c-19.2512 0-34.816-15.5648-34.816-34.816s15.5648-34.816 34.816-34.816h159.1296c19.2512 0 34.816 15.5648 34.816 34.816s-15.5648 34.816-34.816 34.816z" fill="#1C1D21" p-id="10665"></path><path d="M694.272 749.568h-2.8672c-5.7344 0-10.24-4.5056-10.24-10.24s4.5056-10.24 10.24-10.24h2.8672c5.7344 0 10.24 4.5056 10.24 10.24s-4.7104 10.24-10.24 10.24zM352.8704 808.3456h-56.5248c-5.7344 0-10.24-4.5056-10.24-10.24s4.5056-10.24 10.24-10.24h56.5248c5.7344 0 10.24 4.5056 10.24 10.24s-4.5056 10.24-10.24 10.24zM352.8704 862.8224h-56.5248c-5.7344 0-10.24-4.5056-10.24-10.24s4.5056-10.24 10.24-10.24h56.5248c5.7344 0 10.24 4.5056 10.24 10.24s-4.5056 10.24-10.24 10.24zM352.8704 917.504h-56.5248c-5.7344 0-10.24-4.5056-10.24-10.24s4.5056-10.24 10.24-10.24h56.5248c5.7344 0 10.24 4.5056 10.24 10.24s-4.5056 10.24-10.24 10.24zM671.1296 808.3456h-56.5248c-5.7344 0-10.24-4.5056-10.24-10.24s4.5056-10.24 10.24-10.24h56.5248c5.7344 0 10.24 4.5056 10.24 10.24s-4.7104 10.24-10.24 10.24zM671.1296 862.8224h-56.5248c-5.7344 0-10.24-4.5056-10.24-10.24s4.5056-10.24 10.24-10.24h56.5248c5.7344 0 10.24 4.5056 10.24 10.24s-4.7104 10.24-10.24 10.24zM671.1296 917.504h-56.5248c-5.7344 0-10.24-4.5056-10.24-10.24s4.5056-10.24 10.24-10.24h56.5248c5.7344 0 10.24 4.5056 10.24 10.24s-4.7104 10.24-10.24 10.24z" fill="#1C1D21" p-id="10666"></path></svg>