<svg xmlns="http://www.w3.org/2000/svg" viewBox="0 0 1024 1024" version="1.1"><path d="M512 512m-501.76 0a501.76 501.76 0 1 0 1003.52 0 501.76 501.76 0 1 0-1003.52 0Z" fill="#8CEEF9" p-id="10720"></path><path d="M512 1024c-136.8064 0-265.4208-53.248-362.0864-149.9136C53.248 777.4208 0 648.8064 0 512S53.248 246.5792 149.9136 149.9136C246.5792 53.248 375.1936 0 512 0s265.4208 53.248 362.0864 149.9136C970.752 246.5792 1024 375.1936 1024 512s-53.248 265.4208-149.9136 362.0864C777.4208 970.752 648.8064 1024 512 1024z m0-1003.52C241.0496 20.48 20.48 241.0496 20.48 512s220.5696 491.52 491.52 491.52 491.52-220.5696 491.52-491.52S782.9504 20.48 512 20.48z" fill="#1C1D21" p-id="10721"></path><path d="M654.9504 193.9456V158.72c0-8.8064-7.168-15.9744-15.9744-15.9744h-35.4304c-8.8064 0-15.9744 7.168-15.9744 15.9744v33.9968c0 41.1648-32.5632 75.776-73.728 76.5952-42.1888 0.8192-76.8-33.1776-76.8-75.3664V158.72c0-8.8064-7.168-15.9744-15.9744-15.9744h-35.4304c-8.8064 0-15.9744 7.168-15.9744 15.9744v35.4304c0 43.6224 19.6608 82.944 50.7904 109.1584-30.3104 25.8048-49.9712 63.8976-50.5856 106.496v2.4576c0.8192 42.5984 20.2752 80.896 50.5856 106.496-30.9248 26.2144-50.7904 65.3312-50.7904 109.1584v35.4304c0 8.8064 7.168 15.9744 15.9744 15.9744h35.4304c8.8064 0 15.9744-7.168 15.9744-15.9744v-33.9968c0-41.1648 32.5632-75.776 73.728-76.5952 42.1888-0.8192 76.8 33.1776 76.8 75.3664V663.552c0 8.8064 7.168 15.9744 15.9744 15.9744H638.976c8.8064 0 15.9744-7.168 15.9744-15.9744v-35.4304c0-43.6224-19.6608-82.944-50.7904-109.1584 30.3104-25.8048 49.9712-63.8976 50.5856-106.496v-1.2288-1.2288c-0.8192-42.5984-20.2752-80.896-50.5856-106.496 31.1296-26.624 50.7904-65.7408 50.7904-109.568zM512 484.9664c-41.1648 0-74.5472-33.1776-75.1616-73.9328 0.6144-40.96 34.2016-73.9328 75.1616-73.9328s74.5472 33.1776 75.1616 73.9328c-0.6144 40.96-33.9968 73.9328-75.1616 73.9328z" fill="#FF3E63" p-id="10722"></path><path d="M587.3664 694.0672c-5.7344 0-10.24-4.5056-10.24-10.24v-55.9104c0-17.6128-6.9632-33.9968-19.456-46.4896-12.4928-12.288-29.0816-18.8416-46.6944-18.6368-35.2256 0.6144-63.6928 30.3104-63.6928 66.3552v54.4768c0 5.7344-4.5056 10.24-10.24 10.24s-10.24-4.5056-10.24-10.24v-54.4768c0-46.8992 37.6832-85.8112 83.968-86.8352 23.1424-0.4096 45.056 8.192 61.44 24.576 16.5888 16.1792 25.6 37.888 25.6 61.0304v55.9104c-0.2048 5.5296-4.9152 10.24-10.4448 10.24z m67.584-20.48c-5.7344 0-10.24-4.5056-10.24-10.24v-35.4304c0-39.1168-17.2032-75.9808-47.104-101.376-2.2528-2.048-3.6864-4.7104-3.6864-7.7824s1.2288-5.9392 3.6864-7.7824c29.2864-24.7808 46.4896-60.8256 47.104-98.9184v-0.6144-0.2048-0.4096-0.6144c-0.6144-38.0928-17.8176-74.1376-47.104-98.9184-2.2528-2.048-3.6864-4.7104-3.6864-7.7824s1.2288-5.9392 3.6864-7.7824c29.9008-25.3952 47.104-62.2592 47.104-101.376V138.24c0-5.7344 4.5056-10.24 10.24-10.24s10.24 4.5056 10.24 10.24v55.9104c0 41.1648-16.5888 80.2816-45.8752 109.1584 28.2624 27.8528 44.6464 65.536 45.6704 105.2672v5.5296c-1.024 39.7312-17.408 77.4144-45.6704 105.2672 29.2864 28.672 45.8752 67.9936 45.8752 109.1584v35.4304c0 4.9152-4.5056 9.6256-10.24 9.6256z m-285.9008 0c-5.7344 0-10.24-4.5056-10.24-10.24v-35.4304c0-41.1648 16.5888-80.2816 45.8752-109.1584a153.27232 153.27232 0 0 1-45.6704-105.2672v-1.4336V410.4192v-1.024-1.4336c1.024-39.7312 17.408-77.4144 45.6704-105.2672-29.2864-28.672-45.8752-67.9936-45.8752-109.1584v-55.296c0-5.7344 4.5056-10.24 10.24-10.24s10.24 4.5056 10.24 10.24v55.9104c0 39.1168 17.2032 75.9808 47.104 101.376 2.2528 2.048 3.6864 4.7104 3.6864 7.7824s-1.2288 5.9392-3.6864 7.7824c-29.2864 24.7808-46.4896 60.8256-47.104 98.9184V411.8528c0.6144 38.0928 17.8176 74.1376 47.104 98.9184 2.2528 2.048 3.6864 4.7104 3.6864 7.7824s-1.2288 5.9392-3.6864 7.7824c-29.9008 25.3952-47.104 62.2592-47.104 101.376v35.4304c0 5.7344-4.5056 10.4448-10.24 10.4448z m0-263.7824z m142.9504 85.4016c-46.2848 0-84.7872-37.6832-85.4016-84.1728v-0.4096c0.8192-46.2848 39.1168-84.1728 85.4016-84.1728s84.7872 37.6832 85.4016 84.1728v0.4096c-0.6144 46.4896-39.1168 84.1728-85.4016 84.1728z m-64.9216-84.1728c0.6144 35.2256 29.9008 63.6928 64.9216 63.6928s64.3072-28.672 64.9216-63.6928c-0.6144-35.2256-29.9008-63.6928-64.9216-63.6928s-64.3072 28.4672-64.9216 63.6928z m64.9216-131.4816c-22.528 0-43.6224-8.6016-59.8016-24.576-16.5888-16.1792-25.6-37.888-25.6-61.0304V138.24c0-5.7344 4.5056-10.24 10.24-10.24s10.24 4.5056 10.24 10.24v55.9104c0 17.6128 6.9632 33.9968 19.456 46.4896 12.4928 12.288 29.2864 19.0464 46.6944 18.6368 35.2256-0.6144 63.6928-30.3104 63.6928-66.3552V138.24c0-5.7344 4.5056-10.24 10.24-10.24s10.24 4.5056 10.24 10.24v54.4768c0 46.8992-37.6832 85.8112-83.968 86.8352h-1.4336z" fill="#1C1D21" p-id="10723"></path><path d="M587.3664 184.9344h-88.6784c-5.7344 0-10.24-4.5056-10.24-10.24s4.5056-10.24 10.24-10.24h88.6784c5.7344 0 10.24 4.5056 10.24 10.24s-4.7104 10.24-10.24 10.24zM461.4144 184.9344h-24.576c-5.7344 0-10.24-4.5056-10.24-10.24s4.5056-10.24 10.24-10.24h24.576c5.7344 0 10.24 4.5056 10.24 10.24s-4.7104 10.24-10.24 10.24zM582.656 229.7856h-59.8016c-5.7344 0-10.24-4.5056-10.24-10.24s4.5056-10.24 10.24-10.24h59.8016c5.7344 0 10.24 4.5056 10.24 10.24s-4.7104 10.24-10.24 10.24zM485.376 229.7856h-5.12c-5.7344 0-10.24-4.5056-10.24-10.24s4.5056-10.24 10.24-10.24h5.12c5.7344 0 10.24 4.5056 10.24 10.24s-4.5056 10.24-10.24 10.24zM587.3664 658.432h-88.6784c-5.7344 0-10.24-4.5056-10.24-10.24s4.5056-10.24 10.24-10.24h88.6784c5.7344 0 10.24 4.5056 10.24 10.24s-4.7104 10.24-10.24 10.24zM461.4144 658.432h-24.576c-5.7344 0-10.24-4.5056-10.24-10.24s4.5056-10.24 10.24-10.24h24.576c5.7344 0 10.24 4.5056 10.24 10.24s-4.7104 10.24-10.24 10.24zM582.656 613.5808h-59.8016c-5.7344 0-10.24-4.5056-10.24-10.24s4.5056-10.24 10.24-10.24h59.8016c5.7344 0 10.24 4.5056 10.24 10.24s-4.7104 10.24-10.24 10.24zM485.376 613.5808h-5.12c-5.7344 0-10.24-4.5056-10.24-10.24s4.5056-10.24 10.24-10.24h5.12c5.7344 0 10.24 4.5056 10.24 10.24s-4.5056 10.24-10.24 10.24zM582.656 443.5968h-48.5376c-5.7344 0-10.24-4.5056-10.24-10.24s4.5056-10.24 10.24-10.24h48.5376c5.7344 0 10.24 4.5056 10.24 10.24s-4.5056 10.24-10.24 10.24zM582.656 398.7456h-77.6192c-5.7344 0-10.24-4.5056-10.24-10.24s4.5056-10.24 10.24-10.24h77.6192c5.7344 0 10.24 4.5056 10.24 10.24s-4.5056 10.24-10.24 10.24zM460.5952 398.7456h-20.0704c-5.7344 0-10.24-4.5056-10.24-10.24s4.5056-10.24 10.24-10.24h20.0704c5.7344 0 10.24 4.5056 10.24 10.24s-4.5056 10.24-10.24 10.24zM489.8816 443.5968h-49.3568c-5.7344 0-10.24-4.5056-10.24-10.24s4.5056-10.24 10.24-10.24h49.3568c5.7344 0 10.24 4.5056 10.24 10.24s-4.5056 10.24-10.24 10.24z" fill="#1C1D21" p-id="10724"></path><path d="M734.208 535.1424c-14.5408 0-26.4192 11.8784-26.4192 26.4192v156.672h53.0432v-156.672c-0.2048-14.5408-12.0832-26.4192-26.624-26.4192z" fill="#FFC5B3" p-id="10725"></path><path d="M681.3696 535.1424c-14.5408 0-26.4192 11.8784-26.4192 26.4192v198.4512l53.0432-4.3008v-194.1504c-0.2048-14.5408-11.8784-26.4192-26.624-26.4192z" fill="#FFC5B3" p-id="10726"></path><path d="M760.6272 728.4736h-53.0432c-5.7344 0-10.24-4.5056-10.24-10.24v-156.672c0-20.2752 16.384-36.6592 36.6592-36.6592 20.2752 0 36.6592 16.384 36.6592 36.6592v156.672c0.2048 5.7344-4.3008 10.24-10.0352 10.24z m-42.5984-20.48h32.5632v-146.432c0-9.0112-7.3728-16.1792-16.1792-16.1792s-16.1792 7.3728-16.1792 16.1792v146.432z" fill="#1C1D21" p-id="10727"></path><path d="M654.9504 770.2528c-2.6624 0-5.12-1.024-6.9632-2.6624-2.048-1.8432-3.2768-4.7104-3.2768-7.5776v-198.4512c0-20.2752 16.384-36.6592 36.6592-36.6592s36.6592 16.384 36.6592 36.6592V755.712c0 5.3248-4.096 9.8304-9.4208 10.24l-53.0432 4.3008h-0.6144z m52.8384-14.5408z m-26.4192-210.3296c-9.0112 0-16.1792 7.3728-16.1792 16.1792v187.392l32.5632-2.6624v-184.7296c-0.2048-9.0112-7.3728-16.1792-16.384-16.1792z" fill="#1C1D21" p-id="10728"></path><path d="M316.2112 718.2336v-156.672c0-14.5408-11.8784-26.4192-26.4192-26.4192-14.5408 0-26.4192 11.8784-26.4192 26.4192v156.672h52.8384zM316.2112 760.0128v-198.4512c0-14.5408 11.8784-26.4192 26.4192-26.4192 14.5408 0 26.4192 11.8784 26.4192 26.4192v198.4512h-52.8384z" fill="#FFC5B3" p-id="10729"></path><path d="M316.2112 728.4736h-53.0432c-5.7344 0-10.24-4.5056-10.24-10.24v-156.672c0-20.2752 16.384-36.6592 36.6592-36.6592 20.2752 0 36.6592 16.384 36.6592 36.6592v156.672c0.2048 5.7344-4.3008 10.24-10.0352 10.24z m-42.5984-20.48h32.5632v-146.432c0-9.0112-7.3728-16.1792-16.1792-16.1792s-16.1792 7.3728-16.1792 16.1792v146.432z" fill="#1C1D21" p-id="10730"></path><path d="M369.0496 770.2528h-53.0432c-5.7344 0-10.24-4.5056-10.24-10.24v-198.4512c0-20.2752 16.384-36.6592 36.6592-36.6592 20.2752 0 36.6592 16.384 36.6592 36.6592v198.4512c0.2048 5.7344-4.3008 10.24-10.0352 10.24z m-42.5984-20.48h32.5632v-188.2112c0-9.0112-7.3728-16.1792-16.1792-16.1792s-16.1792 7.3728-16.1792 16.1792v188.2112z" fill="#1C1D21" p-id="10731"></path><path d="M168.5504 877.7728C258.2528 962.1504 379.0848 1013.76 512 1013.76s253.7472-51.6096 343.4496-135.9872c-102.1952-38.0928-219.136-59.8016-343.4496-59.8016S270.7456 839.68 168.5504 877.7728z" fill="#0ABFB2" p-id="10732"></path><path d="M512 1024c-130.6624 0-255.1808-49.3568-350.4128-138.8544-2.6624-2.4576-3.6864-5.9392-3.072-9.4208 0.6144-3.4816 3.072-6.3488 6.5536-7.5776 105.8816-39.5264 225.8944-60.416 346.9312-60.416s241.0496 20.8896 346.9312 60.416c3.2768 1.2288 5.7344 4.096 6.5536 7.5776 0.6144 3.4816-0.4096 6.9632-3.072 9.4208C767.1808 974.6432 642.6624 1024 512 1024zM188.0064 881.664C277.7088 960.3072 392.192 1003.52 512 1003.52s234.2912-43.2128 323.9936-121.856c-99.7376-35.0208-211.3536-53.248-323.9936-53.248s-224.256 18.2272-323.9936 53.248z" fill="#1C1D21" p-id="10733"></path><path d="M444.8256 820.0192L292.864 699.8016c-18.6368-14.7456-29.4912-37.2736-29.4912-61.0304v-77.2096c0-14.5408-11.8784-26.4192-26.4192-26.4192-14.5408 0-26.4192 11.8784-26.4192 26.4192v148.0704c0 20.6848 8.192 40.3456 22.7328 54.8864l107.1104 107.1104c14.5408 14.5408 22.7328 34.4064 22.7328 54.8864V991.232c35.6352 11.0592 73.1136 18.2272 111.616 21.0944l-0.4096-131.6864c0-23.552-11.0592-46.08-29.4912-60.6208zM683.6224 871.6288l107.1104-107.1104c14.5408-14.5408 22.7328-34.4064 22.7328-54.8864v-148.0704c0-14.5408-11.8784-26.4192-26.4192-26.4192-14.5408 0-26.4192 11.8784-26.4192 26.4192v77.2096c0 23.7568-10.8544 46.2848-29.4912 61.0304l-151.9616 120.2176c-18.6368 14.7456-29.4912 37.0688-29.4912 60.6208l-0.4096 131.6864c38.7072-2.8672 75.9808-10.0352 111.616-21.0944v-64.512c0-20.6848 8.192-40.3456 22.7328-55.0912z" fill="#FFC5B3" p-id="10734"></path><path d="M474.7264 1022.5664h-0.8192c-38.7072-2.8672-77.2096-10.0352-114.0736-21.504-4.3008-1.2288-7.168-5.3248-7.168-9.8304v-64.512c0-18.0224-6.9632-35.0208-19.8656-47.7184l-107.1104-107.1104c-16.5888-16.5888-25.8048-38.7072-25.8048-62.2592v-148.0704c0-20.2752 16.384-36.6592 36.6592-36.6592s36.6592 16.384 36.6592 36.6592v77.2096c0 20.6848 9.4208 40.1408 25.6 52.8384l151.9616 120.2176c21.0944 16.7936 33.3824 41.7792 33.3824 68.608l0.4096 131.6864c0 2.8672-1.2288 5.5296-3.2768 7.5776-1.4336 2.048-3.8912 2.8672-6.5536 2.8672z m-101.376-38.912c29.696 8.6016 60.2112 14.5408 91.136 17.6128l-0.4096-120.6272c0-20.6848-9.4208-39.936-25.6-52.6336l-151.9616-120.2176c-21.2992-16.7936-33.3824-41.984-33.3824-69.0176v-77.2096c0-9.0112-7.3728-16.1792-16.1792-16.1792s-16.1792 7.3728-16.1792 16.1792v148.0704c0 18.0224 6.9632 35.0208 19.8656 47.7184l107.1104 107.1104c16.5888 16.5888 25.8048 38.7072 25.8048 62.2592v56.9344zM549.2736 1022.5664c-2.6624 0-5.12-1.024-6.9632-2.6624-2.048-1.8432-3.2768-4.7104-3.2768-7.5776l0.4096-131.6864c0-27.0336 12.288-52.0192 33.3824-68.608l151.9616-120.2176c16.1792-12.9024 25.6-32.1536 25.6-52.8384v-77.2096c0-20.2752 16.384-36.6592 36.6592-36.6592s36.6592 16.384 36.6592 36.6592v148.0704c0 23.552-9.216 45.6704-25.8048 62.2592l-107.1104 107.1104c-12.6976 12.6976-19.8656 29.696-19.8656 47.7184V991.232c0 4.5056-2.8672 8.3968-7.168 9.8304-36.864 11.4688-75.1616 18.6368-114.0736 21.504h-0.4096z m237.7728-477.184c-9.0112 0-16.1792 7.3728-16.1792 16.1792v77.2096c0 27.0336-12.0832 52.224-33.3824 69.0176l-151.9616 120.2176c-16.1792 12.9024-25.6 31.9488-25.6 52.6336l-0.4096 120.6272c30.9248-3.072 61.44-8.8064 91.136-17.6128v-56.9344c0-23.552 9.216-45.6704 25.8048-62.2592l107.1104-107.1104c12.6976-12.6976 19.8656-29.696 19.8656-47.7184v-148.0704c0-9.0112-7.3728-16.1792-16.384-16.1792z m-103.424 326.2464zM587.3664 749.9776c-5.7344 0-10.24-4.5056-10.24-10.24v-6.7584c0-5.7344 4.5056-10.24 10.24-10.24s10.24 4.5056 10.24 10.24v6.7584c0 5.5296-4.7104 10.24-10.24 10.24zM436.6336 744.2432c-5.7344 0-10.24-4.5056-10.24-10.24v-6.7584c0-5.7344 4.5056-10.24 10.24-10.24s10.24 4.5056 10.24 10.24v6.7584c0 5.7344-4.5056 10.24-10.24 10.24zM587.3664 105.0624c-5.7344 0-10.24-4.5056-10.24-10.24V88.064c0-5.7344 4.5056-10.24 10.24-10.24s10.24 4.5056 10.24 10.24v6.7584c0 5.5296-4.7104 10.24-10.24 10.24zM436.6336 105.0624c-5.7344 0-10.24-4.5056-10.24-10.24V88.064c0-5.7344 4.5056-10.24 10.24-10.24s10.24 4.5056 10.24 10.24v6.7584c0 5.5296-4.5056 10.24-10.24 10.24zM654.9504 105.0624c-5.7344 0-10.24-4.5056-10.24-10.24V88.064c0-5.7344 4.5056-10.24 10.24-10.24s10.24 4.5056 10.24 10.24v6.7584c0 5.5296-4.5056 10.24-10.24 10.24zM369.0496 105.0624c-5.7344 0-10.24-4.5056-10.24-10.24V88.064c0-5.7344 4.5056-10.24 10.24-10.24s10.24 4.5056 10.24 10.24v6.7584c0 5.5296-4.5056 10.24-10.24 10.24z" fill="#1C1D21" p-id="10735"></path><path d="M764.928 335.872m-23.7568 0a23.7568 23.7568 0 1 0 47.5136 0 23.7568 23.7568 0 1 0-47.5136 0Z" fill="#FF3E63" p-id="10736"></path><path d="M216.4736 444.2112m-23.7568 0a23.7568 23.7568 0 1 0 47.5136 0 23.7568 23.7568 0 1 0-47.5136 0Z" fill="#FF3E63" p-id="10737"></path><path d="M764.928 369.8688c-18.8416 0-33.9968-15.36-33.9968-33.9968s15.36-33.9968 33.9968-33.9968 33.9968 15.36 33.9968 33.9968-15.1552 33.9968-33.9968 33.9968z m0-47.7184c-7.5776 0-13.5168 6.144-13.5168 13.5168s6.144 13.5168 13.5168 13.5168 13.5168-6.144 13.5168-13.5168-5.9392-13.5168-13.5168-13.5168zM216.4736 478.4128c-18.8416 0-33.9968-15.36-33.9968-33.9968 0-18.8416 15.36-33.9968 33.9968-33.9968 18.8416 0 33.9968 15.36 33.9968 33.9968 0 18.6368-15.36 33.9968-33.9968 33.9968z m0-47.7184c-7.5776 0-13.5168 6.144-13.5168 13.5168 0 7.5776 6.144 13.5168 13.5168 13.5168 7.5776 0 13.5168-6.144 13.5168-13.5168 0-7.3728-6.144-13.5168-13.5168-13.5168zM841.728 479.8464c-5.7344 0-10.24-4.5056-10.24-10.24v-50.5856c0-5.7344 4.5056-10.24 10.24-10.24s10.24 4.5056 10.24 10.24v50.5856c0 5.5296-4.5056 10.24-10.24 10.24z" fill="#1C1D21" p-id="10738"></path><path d="M866.9184 454.4512h-50.5856c-5.7344 0-10.24-4.5056-10.24-10.24s4.5056-10.24 10.24-10.24h50.5856c5.7344 0 10.24 4.5056 10.24 10.24s-4.5056 10.24-10.24 10.24zM281.1904 311.9104c-5.7344 0-10.24-4.5056-10.24-10.24v-50.5856c0-5.7344 4.5056-10.24 10.24-10.24s10.24 4.5056 10.24 10.24v50.5856c0 5.7344-4.5056 10.24-10.24 10.24z" fill="#1C1D21" p-id="10739"></path><path d="M306.5856 286.72H256c-5.7344 0-10.24-4.5056-10.24-10.24s4.5056-10.24 10.24-10.24h50.5856c5.7344 0 10.24 4.5056 10.24 10.24s-4.7104 10.24-10.24 10.24z" fill="#1C1D21" p-id="10740"></path></svg>