<svg xmlns="http://www.w3.org/2000/svg" viewBox="0 0 1024 1024" version="1.1"><path d="M512 512m-501.76 0a501.76 501.76 0 1 0 1003.52 0 501.76 501.76 0 1 0-1003.52 0Z" fill="#8CEEF9" p-id="11612"></path><path d="M512 1024c-136.8064 0-265.4208-53.248-362.0864-149.9136S0 648.8064 0 512 53.248 246.5792 149.9136 149.9136 375.1936 0 512 0s265.4208 53.248 362.0864 149.9136S1024 375.1936 1024 512s-53.248 265.4208-149.9136 362.0864S648.8064 1024 512 1024z m0-1003.52C241.0496 20.48 20.48 241.0496 20.48 512s220.5696 491.52 491.52 491.52 491.52-220.5696 491.52-491.52S782.9504 20.48 512 20.48z" fill="#1C1D21" p-id="11613"></path><path d="M512 378.4704m-293.2736 0a293.2736 293.2736 0 1 0 586.5472 0 293.2736 293.2736 0 1 0-586.5472 0Z" fill="#508DEF" p-id="11614"></path><path d="M652.0832 378.4704s-0.8192 85.4016-21.0944 155.0336c0 0 69.0176 26.8288 84.1728 56.5248 0 0 97.0752-84.7872 81.3056-211.5584h-144.384zM491.52 85.1968s-121.0368 2.6624-193.536 92.7744c0 0 39.5264 43.008 89.7024 65.3312 0 0 12.6976-128.4096 103.8336-158.1056zM512 378.4704h-140.0832s-0.2048 99.5328 21.0944 155.0336c0 0 71.2704-33.5872 118.784-25.1904v-129.8432zM636.3136 243.3024s-61.6448 30.3104-124.3136 27.648V94.4128s82.1248-22.1184 124.3136 148.8896zM393.216 533.504s-62.0544 21.0944-84.1728 56.5248c0 0 83.1488 77.6192 173.8752 80.2816-0.2048 0-70.8608-33.5872-89.7024-136.8064z" fill="#0ABFB2" p-id="11615"></path><path d="M512 681.984c-78.848 0-153.3952-30.1056-210.1248-84.5824-2.048-1.8432-3.072-4.5056-3.072-7.3728s1.2288-5.5296 3.072-7.3728c56.7296-54.4768 131.4816-84.5824 210.1248-84.5824s153.3952 30.1056 210.1248 84.5824c2.048 1.8432 3.072 4.5056 3.072 7.3728s-1.2288 5.5296-3.072 7.3728C665.3952 651.8784 590.848 681.984 512 681.984z m-188.0064-91.9552c51.8144 46.08 118.1696 71.4752 188.0064 71.4752s136.192-25.3952 188.0064-71.4752c-51.8144-46.08-118.1696-71.4752-188.0064-71.4752s-136.192 25.3952-188.0064 71.4752z" fill="#1C1D21" p-id="11616"></path><path d="M512 681.984c-5.7344 0-10.24-4.5056-10.24-10.24V85.1968c0-5.7344 4.5056-10.24 10.24-10.24s10.24 4.5056 10.24 10.24V671.744c0 5.7344-4.5056 10.24-10.24 10.24z" fill="#1C1D21" p-id="11617"></path><path d="M512 681.984c-41.5744 0-80.0768-32.5632-108.3392-91.7504-27.0336-56.7296-41.984-131.8912-41.984-211.7632s14.9504-155.0336 41.984-211.7632c28.2624-59.1872 66.7648-91.7504 108.3392-91.7504s80.0768 32.5632 108.3392 91.7504c27.0336 56.7296 41.984 131.8912 41.984 211.7632s-14.9504 155.0336-41.984 211.7632C592.0768 649.4208 553.5744 681.984 512 681.984z m0-586.5472c-33.1776 0-65.1264 28.4672-89.7024 80.0768-25.8048 54.0672-39.936 126.1568-39.936 202.9568s14.1312 148.8896 39.936 202.9568c24.576 51.6096 56.5248 80.0768 89.7024 80.0768s65.1264-28.4672 89.7024-80.0768c25.8048-54.0672 39.936-126.1568 39.936-202.9568s-14.1312-148.8896-39.936-202.9568c-24.576-51.6096-56.5248-80.0768-89.7024-80.0768zM257.4336 242.688c-1.6384 0-3.4816-0.4096-5.12-1.4336-4.9152-2.8672-6.5536-9.0112-3.6864-13.9264l2.4576-4.3008c2.8672-4.9152 9.216-6.3488 14.1312-3.4816 4.9152 2.8672 6.3488 9.216 3.4816 14.1312-0.8192 1.2288-1.6384 2.6624-2.2528 3.8912-1.8432 3.2768-5.3248 5.12-9.0112 5.12zM230.1952 307.4048c-1.024 0-1.8432-0.2048-2.8672-0.4096-5.5296-1.6384-8.6016-7.168-6.9632-12.6976 3.2768-11.264 7.168-22.528 11.6736-33.1776 2.2528-5.12 8.192-7.5776 13.312-5.5296 5.12 2.2528 7.5776 8.192 5.5296 13.312-4.3008 10.0352-7.9872 20.48-10.8544 30.9248-1.4336 4.7104-5.5296 7.5776-9.8304 7.5776z" fill="#1C1D21" p-id="11618"></path><path d="M512 681.984c-167.3216 0-303.5136-136.192-303.5136-303.5136 0-15.5648 1.2288-31.1296 3.4816-46.2848 0.8192-5.5296 6.144-9.4208 11.6736-8.6016 5.5296 0.8192 9.4208 6.144 8.6016 11.6736-2.2528 14.1312-3.2768 28.672-3.2768 43.2128 0 156.0576 126.976 283.0336 283.0336 283.0336s283.0336-126.976 283.0336-283.0336S668.0576 95.4368 512 95.4368c-86.016 0-166.5024 38.5024-220.5696 105.472-3.4816 4.3008-10.0352 5.12-14.336 1.6384-4.3008-3.4816-5.12-10.0352-1.6384-14.336 57.9584-71.8848 144.1792-113.0496 236.3392-113.0496 167.3216 0 303.5136 136.192 303.5136 303.5136 0.2048 167.1168-135.9872 303.3088-303.3088 303.3088z" fill="#1C1D21" p-id="11619"></path><path d="M617.0624 795.0336l-44.032-27.2384c-17.408-10.8544-28.0576-29.9008-28.0576-50.3808v-5.5296c0-9.8304 5.9392-18.6368 14.9504-22.9376 38.2976-18.0224 64.7168-56.7296 64.7168-101.7856v-52.224c0-62.0544-50.3808-112.4352-112.4352-112.4352-62.0544 0-112.4352 50.3808-112.4352 112.4352v52.224c0 45.056 26.4192 83.7632 64.7168 101.7856 9.0112 4.3008 14.9504 13.1072 14.9504 22.9376v5.5296c0 20.48-10.6496 39.5264-28.0576 50.3808l-44.032 27.2384c-35.6352 22.1184-57.5488 61.0304-57.5488 103.0144v88.8832c50.9952 17.408 105.6768 26.8288 162.4064 26.8288 56.9344 0 111.616-9.4208 162.6112-27.0336v-88.8832c-0.2048-41.7792-21.9136-80.6912-57.7536-102.8096z" fill="#FF8939" p-id="11620"></path><path d="M617.0624 795.0336l-30.1056-18.6368c-23.552 8.192-48.7424 12.6976-74.9568 12.6976s-51.6096-4.5056-74.9568-12.6976l-30.1056 18.6368c-35.6352 22.1184-57.5488 61.0304-57.5488 103.0144v88.8832c50.9952 17.408 105.6768 26.8288 162.4064 26.8288 56.9344 0 111.616-9.4208 162.6112-27.0336v-88.8832c0.2048-41.7792-21.504-80.6912-57.344-102.8096z" fill="#FF3E63" p-id="11621"></path><path d="M417.792 1014.784c-5.7344 0-10.24-4.7104-10.24-10.4448v-3.6864c0.2048-12.6976 0.2048-12.6976 0-25.8048v-3.6864c0-5.7344 4.5056-10.24 10.0352-10.4448 5.7344-0.2048 10.24 4.5056 10.4448 10.0352v3.6864c0.2048 13.5168 0.2048 13.5168 0 26.4192v3.6864c0 5.9392-4.7104 10.24-10.24 10.24zM417.792 955.392c-5.7344 0-10.24-4.5056-10.24-10.24v-4.7104c0-5.7344 4.5056-10.24 10.24-10.24s10.24 4.5056 10.24 10.24v4.7104c0 5.7344-4.5056 10.24-10.24 10.24zM606.4128 1014.784c-5.5296 0-10.0352-4.5056-10.24-10.0352v-3.6864c-0.4096-12.9024-0.4096-13.1072 0-26.624V970.752c0.2048-5.5296 4.7104-10.0352 10.24-10.0352h0.2048c5.7344 0.2048 10.0352 4.9152 10.0352 10.4448v3.6864c-0.4096 13.1072-0.4096 13.1072 0 25.6v3.6864c0.2048 5.7344-4.3008 10.4448-10.0352 10.4448 0 0.2048-0.2048 0.2048-0.2048 0.2048zM606.4128 955.392c-5.7344 0-10.24-4.5056-10.24-10.24v-4.7104c0-5.7344 4.5056-10.24 10.24-10.24s10.24 4.5056 10.24 10.24v4.7104c0 5.7344-4.7104 10.24-10.24 10.24z" fill="#1C1D21" p-id="11622"></path><path d="M289.5872 795.0336l-44.032-27.2384c-17.408-10.8544-28.0576-29.9008-28.0576-50.3808v-5.5296c0-9.8304 5.9392-18.6368 14.9504-22.9376 38.2976-18.0224 64.7168-56.7296 64.7168-101.7856v-52.224c0-62.0544-50.3808-112.4352-112.4352-112.4352-62.0544 0-112.4352 50.3808-112.4352 112.4352v52.224c0 45.056 26.4192 83.7632 64.7168 101.7856 9.0112 4.3008 14.9504 13.1072 14.9504 22.9376v5.5296c0 20.48-10.6496 39.5264-28.0576 50.3808l-31.3344 19.2512c60.2112 91.5456 149.504 162.2016 254.7712 198.8608v-88.064c-0.2048-41.7792-21.9136-80.6912-57.7536-102.8096z" fill="#FFC5B3" p-id="11623"></path><path d="M289.5872 795.0336l-30.1056-18.6368c-23.552 8.192-48.7424 12.6976-74.9568 12.6976s-51.6096-4.5056-74.9568-12.6976l-17.2032 10.6496c60.2112 91.5456 149.504 162.2016 254.7712 198.8608v-88.064c0-41.7792-21.7088-80.6912-57.5488-102.8096z" fill="#0ABFB2" p-id="11624"></path><path d="M872.448 717.4144v-5.5296c0-9.8304 5.9392-18.6368 14.9504-22.9376 38.2976-18.0224 64.7168-56.7296 64.7168-101.7856v-52.224c0-62.0544-50.3808-112.4352-112.4352-112.4352-62.0544 0-112.4352 50.3808-112.4352 112.4352v52.224c0 45.056 26.4192 83.7632 64.7168 101.7856 9.0112 4.3008 14.9504 13.1072 14.9504 22.9376v5.5296c0 20.48-10.6496 39.5264-28.0576 50.3808l-44.032 27.2384c-35.6352 22.1184-57.5488 61.0304-57.5488 103.0144v87.8592c105.2672-36.6592 194.56-107.3152 254.7712-198.8608l-31.1296-19.2512c-17.8176-10.8544-28.4672-29.9008-28.4672-50.3808z" fill="#C67552" p-id="11625"></path><path d="M512 1024c-56.7296 0-112.4352-9.216-165.6832-27.4432-4.096-1.4336-6.9632-5.3248-6.9632-9.6256v-88.8832c0-45.8752 23.3472-87.6544 62.2592-111.8208l44.032-27.2384c14.5408-9.0112 23.1424-24.576 23.1424-41.5744v-5.5296c0-5.7344-3.4816-11.0592-9.0112-13.7216-42.8032-20.0704-70.4512-63.6928-70.4512-111.2064v-52.224c0-67.584 55.0912-122.6752 122.6752-122.6752s122.6752 55.0912 122.6752 122.6752v52.224c0 47.3088-27.648 90.9312-70.4512 111.2064-5.5296 2.6624-9.0112 7.7824-9.0112 13.7216v5.5296c0 16.9984 8.6016 32.5632 23.1424 41.5744l44.032 27.2384c39.1168 24.1664 62.2592 65.9456 62.2592 111.8208v88.8832c0 4.3008-2.8672 8.192-6.9632 9.6256C624.64 1014.784 568.7296 1024 512 1024z m-152.1664-44.4416c48.9472 15.9744 100.1472 23.9616 152.1664 23.9616s103.2192-8.192 152.3712-24.1664v-81.5104c0-38.7072-19.6608-73.9328-52.6336-94.4128L567.7056 776.192c-20.6848-12.6976-32.9728-34.816-32.9728-58.9824v-5.5296c0-13.7216 8.192-26.2144 20.6848-32.1536 35.6352-16.7936 58.7776-53.0432 58.7776-92.5696v-52.224c0-56.32-45.8752-102.1952-102.1952-102.1952s-102.1952 45.8752-102.1952 102.1952v52.224c0 39.5264 23.1424 75.776 58.7776 92.5696 12.4928 5.9392 20.6848 18.6368 20.6848 32.1536v5.5296c0 24.1664-12.288 46.2848-32.9728 58.9824l-44.032 27.2384c-32.9728 20.2752-52.6336 55.7056-52.6336 94.4128v81.7152z m314.7776 7.168z" fill="#1C1D21" p-id="11626"></path><path d="M459.9808 820.6336c-3.4816 0-6.7584-1.6384-8.8064-4.9152-3.072-4.7104-1.4336-11.0592 3.2768-14.1312l12.6976-7.7824c5.9392-3.6864 11.4688-7.9872 16.384-12.9024 4.096-4.096 10.4448-3.8912 14.5408 0 4.096 4.096 3.8912 10.4448 0 14.5408-5.9392 5.9392-12.9024 11.4688-20.0704 15.9744l-12.6976 7.7824c-1.6384 1.024-3.4816 1.4336-5.3248 1.4336zM422.912 843.9808c-3.072 0-6.144-1.4336-8.192-4.096-3.2768-4.5056-2.4576-11.0592 2.048-14.336 2.048-1.4336 4.3008-3.072 6.3488-4.3008 4.7104-3.072 11.0592-1.4336 14.1312 3.2768s1.4336 11.0592-3.2768 14.1312c-1.6384 1.024-3.2768 2.2528-4.9152 3.2768-1.8432 1.2288-4.096 2.048-6.144 2.048zM390.5536 966.8608c-5.7344 0-10.24-4.5056-10.24-10.24v-58.5728c0-13.312 2.8672-26.2144 8.3968-38.0928 2.4576-5.12 8.3968-7.3728 13.5168-4.9152 5.12 2.4576 7.3728 8.3968 4.9152 13.5168-4.3008 9.216-6.5536 19.2512-6.5536 29.4912v58.5728c0.2048 5.7344-4.5056 10.24-10.0352 10.24zM564.6336 820.6336c-1.8432 0-3.6864-0.4096-5.3248-1.4336l-12.6976-7.7824c-7.3728-4.5056-14.1312-9.8304-20.0704-15.9744-4.096-4.096-4.096-10.4448 0-14.5408s10.4448-4.096 14.5408 0c4.9152 4.9152 10.4448 9.216 16.384 12.9024l12.6976 7.7824c4.7104 3.072 6.3488 9.216 3.2768 14.1312-1.8432 3.2768-5.3248 4.9152-8.8064 4.9152zM601.7024 843.9808c-2.048 0-4.3008-0.6144-6.144-2.048-1.6384-1.2288-3.2768-2.2528-4.9152-3.2768-4.7104-3.072-6.3488-9.216-3.2768-14.1312 3.072-4.7104 9.216-6.3488 14.1312-3.2768 2.2528 1.4336 4.3008 2.8672 6.3488 4.3008 4.5056 3.2768 5.5296 9.8304 2.048 14.336-1.8432 2.6624-4.9152 4.096-8.192 4.096zM634.0608 966.8608c-5.7344 0-10.24-4.5056-10.24-10.24v-58.5728c0-10.4448-2.2528-20.2752-6.5536-29.4912-2.4576-5.12-0.2048-11.264 4.9152-13.5168s11.264-0.2048 13.5168 4.9152c5.5296 11.8784 8.3968 24.7808 8.3968 38.0928v58.5728c0.2048 5.7344-4.3008 10.24-10.0352 10.24z" fill="#FFAEC3" p-id="11627"></path><path d="M347.136 996.352c-1.2288 0-2.2528-0.2048-3.2768-0.6144-105.8816-36.864-198.2464-108.9536-259.8912-202.9568-1.4336-2.2528-2.048-5.12-1.4336-7.7824 0.6144-2.6624 2.2528-5.12 4.7104-6.5536l31.3344-19.2512c14.5408-9.0112 23.1424-24.576 23.1424-41.5744v-5.5296c0-5.7344-3.4816-11.0592-9.0112-13.7216-42.8032-20.0704-70.4512-63.6928-70.4512-111.2064v-52.224c0-67.584 55.0912-122.6752 122.6752-122.6752s122.6752 55.0912 122.6752 122.6752v52.224c0 47.3088-27.648 90.9312-70.4512 111.2064-5.5296 2.6624-9.0112 7.7824-9.0112 13.7216v5.5296c0 16.9984 8.6016 32.5632 23.1424 41.5744l44.032 27.2384c39.1168 24.1664 62.2592 65.9456 62.2592 111.8208v88.064c0 3.2768-1.6384 6.3488-4.3008 8.3968-2.048 0.8192-4.096 1.6384-6.144 1.6384zM106.7008 790.1184c56.5248 82.1248 137.4208 145.8176 230.1952 181.248v-73.3184c0-38.7072-19.6608-73.9328-52.6336-94.4128l-44.032-27.2384c-20.6848-12.6976-32.9728-34.816-32.9728-58.9824v-5.5296c0-13.7216 8.192-26.2144 20.6848-32.1536 35.6352-16.7936 58.7776-53.0432 58.7776-92.5696v-52.224c0-56.32-45.8752-102.1952-102.1952-102.1952s-102.1952 45.8752-102.1952 102.1952v52.224c0 39.5264 23.1424 75.776 58.7776 92.5696C153.6 685.6704 161.792 698.368 161.792 711.8848v5.5296c0 24.1664-12.288 46.2848-32.9728 58.9824l-22.1184 13.7216zM677.0688 996.1472c-2.048 0-4.096-0.6144-5.9392-1.8432-2.6624-1.8432-4.3008-5.12-4.3008-8.3968v-87.8592c0-45.8752 23.3472-87.6544 62.2592-111.8208l44.032-27.2384c14.5408-9.0112 23.1424-24.576 23.1424-41.5744v-5.5296c0-5.7344-3.4816-11.0592-9.0112-13.7216-42.8032-20.0704-70.4512-63.6928-70.4512-111.2064v-52.224c0-67.584 55.0912-122.6752 122.6752-122.6752s122.6752 55.0912 122.6752 122.6752v52.224c0 47.3088-27.648 90.9312-70.4512 111.2064-5.5296 2.6624-9.0112 7.7824-9.0112 13.7216v5.5296c0 16.9984 8.6016 32.5632 23.1424 41.5744l31.1296 19.2512c2.2528 1.4336 4.096 3.8912 4.7104 6.5536 0.6144 2.6624 0 5.5296-1.4336 7.7824-61.8496 94.0032-154.0096 166.0928-259.8912 202.9568-1.024 0.4096-2.2528 0.6144-3.2768 0.6144z m162.4064-563.4048c-56.32 0-102.1952 45.8752-102.1952 102.1952v52.224c0 39.5264 23.1424 75.776 58.7776 92.5696 12.4928 5.9392 20.6848 18.6368 20.6848 32.1536v5.5296c0 24.1664-12.288 46.2848-32.9728 58.9824l-44.032 27.2384c-32.9728 20.2752-52.6336 55.7056-52.6336 94.4128v73.3184c92.5696-35.4304 173.4656-99.1232 229.9904-181.248l-22.1184-13.7216c-20.6848-12.6976-32.9728-34.816-32.9728-58.9824v-5.5296c0-13.7216 8.192-26.2144 20.6848-32.1536 35.6352-16.7936 58.7776-53.0432 58.7776-92.5696v-52.224c0.4096-56.32-45.4656-102.1952-101.9904-102.1952z" fill="#1C1D21" p-id="11628"></path><path d="M839.4752 789.0944c-26.2144 0-51.6096-4.5056-74.9568-12.6976l-30.1056 18.6368c-35.6352 22.1184-57.5488 61.0304-57.5488 103.0144v87.8592c105.2672-36.6592 194.56-107.3152 254.7712-198.8608l-17.2032-10.6496c-23.3472 8.192-48.5376 12.6976-74.9568 12.6976z" fill="#508DEF" p-id="11629"></path><path d="M170.1888 831.2832c-2.8672 0-5.5296-1.2288-7.5776-3.2768-6.7584-7.3728-13.312-15.1552-19.456-22.9376-0.2048-0.2048-0.4096-0.6144-0.6144-0.8192l-8.6016-13.312c-3.072-4.7104-1.6384-11.0592 3.072-14.1312s11.0592-1.6384 14.1312 3.072l8.192 12.9024c5.9392 7.3728 12.0832 14.5408 18.2272 21.504 3.8912 4.096 3.4816 10.6496-0.6144 14.5408-1.8432 1.4336-4.3008 2.4576-6.7584 2.4576zM215.04 874.496c-2.2528 0-4.7104-0.8192-6.5536-2.4576-2.6624-2.2528-5.3248-4.5056-7.7824-6.7584-4.3008-3.6864-4.7104-10.24-0.8192-14.5408s10.24-4.7104 14.5408-0.8192c2.4576 2.2528 4.9152 4.3008 7.5776 6.5536 4.3008 3.6864 4.9152 10.0352 1.2288 14.336-2.4576 2.4576-5.3248 3.6864-8.192 3.6864zM307.6096 935.3216c-1.4336 0-3.072-0.4096-4.5056-1.024-20.0704-10.0352-39.7312-21.504-58.368-34.4064-4.7104-3.2768-5.7344-9.6256-2.6624-14.336 3.2768-4.7104 9.6256-5.7344 14.336-2.6624 17.8176 12.288 36.4544 23.3472 55.7056 32.9728 5.12 2.4576 7.168 8.6016 4.7104 13.7216-1.8432 3.4816-5.5296 5.7344-9.216 5.7344z" fill="#5AFFDF" p-id="11630"></path><path d="M177.5616 474.112c-5.12 0-9.6256-3.8912-10.24-9.0112-0.6144-5.5296 3.2768-10.6496 9.0112-11.4688 3.4816-0.4096 7.168-0.6144 10.4448-0.6144 5.7344 0 10.24 4.5056 10.24 10.24s-4.5056 10.24-10.24 10.24c-2.6624 0-5.3248 0.2048-8.192 0.4096-0.4096 0.2048-0.8192 0.2048-1.024 0.2048zM117.5552 619.52c-5.12 0-9.6256-3.8912-10.24-9.0112l-0.2048-1.024c-5.5296-36.6592-9.6256-69.4272-0.2048-100.5568 0.2048-0.4096 0.2048-0.8192 0.4096-1.2288 0.6144-1.6384 1.2288-3.072 1.8432-4.5056l0.2048-0.4096c0.2048-0.6144 0.4096-1.024 0.6144-1.6384l0.6144-1.2288c7.168-12.288 14.7456-21.9136 23.552-29.0816 4.3008-3.6864 10.8544-3.072 14.336 1.4336 3.6864 4.3008 3.072 10.8544-1.4336 14.336-6.5536 5.5296-12.6976 13.1072-18.432 22.9376 0 0.2048-0.2048 0.4096-0.2048 0.6144l-0.2048 0.4096c-0.6144 1.4336-1.2288 3.072-1.8432 4.5056-7.7824 26.8288-4.096 57.1392 1.024 90.9312l0.2048 0.6144v0.8192c0.6144 5.5296-3.2768 10.6496-9.0112 11.4688-0.2048 0.6144-0.6144 0.6144-1.024 0.6144z" fill="#FFECE9" p-id="11631"></path><path d="M347.136 996.352c-1.2288 0-2.2528-0.2048-3.2768-0.6144-105.8816-36.864-198.2464-108.9536-259.8912-202.9568-1.4336-2.2528-2.048-5.12-1.4336-7.7824 0.6144-2.6624 2.2528-5.12 4.7104-6.5536l31.3344-19.2512c14.5408-9.0112 23.1424-24.576 23.1424-41.5744v-5.5296c0-5.7344-3.4816-11.0592-9.0112-13.7216-42.8032-20.0704-70.4512-63.6928-70.4512-111.2064v-52.224c0-67.584 55.0912-122.6752 122.6752-122.6752s122.6752 55.0912 122.6752 122.6752v52.224c0 47.3088-27.648 90.9312-70.4512 111.2064-5.5296 2.6624-9.0112 7.7824-9.0112 13.7216v5.5296c0 16.9984 8.6016 32.5632 23.1424 41.5744l44.032 27.2384c39.1168 24.1664 62.2592 65.9456 62.2592 111.8208v88.064c0 3.2768-1.6384 6.3488-4.3008 8.3968-2.048 0.8192-4.096 1.6384-6.144 1.6384zM106.7008 790.1184c56.5248 82.1248 137.4208 145.8176 230.1952 181.248v-73.3184c0-38.7072-19.6608-73.9328-52.6336-94.4128l-44.032-27.2384c-20.6848-12.6976-32.9728-34.816-32.9728-58.9824v-5.5296c0-13.7216 8.192-26.2144 20.6848-32.1536 35.6352-16.7936 58.7776-53.0432 58.7776-92.5696v-52.224c0-56.32-45.8752-102.1952-102.1952-102.1952s-102.1952 45.8752-102.1952 102.1952v52.224c0 39.5264 23.1424 75.776 58.7776 92.5696C153.6 685.6704 161.792 698.368 161.792 711.8848v5.5296c0 24.1664-12.288 46.2848-32.9728 58.9824l-22.1184 13.7216z" fill="#1C1D21" p-id="11632"></path><path d="M177.5616 474.112c-5.12 0-9.6256-3.8912-10.24-9.0112-0.6144-5.5296 3.2768-10.6496 9.0112-11.4688 3.4816-0.4096 7.168-0.6144 10.4448-0.6144 5.7344 0 10.24 4.5056 10.24 10.24s-4.5056 10.24-10.24 10.24c-2.6624 0-5.3248 0.2048-8.192 0.4096-0.4096 0.2048-0.8192 0.2048-1.024 0.2048zM117.5552 619.52c-5.12 0-9.6256-3.8912-10.24-9.0112l-0.2048-1.024c-5.5296-36.6592-9.6256-69.4272-0.2048-100.5568 0.2048-0.4096 0.2048-0.8192 0.4096-1.2288 0.6144-1.6384 1.2288-3.072 1.8432-4.5056l0.2048-0.4096c0.2048-0.6144 0.4096-1.024 0.6144-1.6384l0.6144-1.2288c7.168-12.288 14.7456-21.9136 23.552-29.0816 4.3008-3.6864 10.8544-3.072 14.336 1.4336 3.6864 4.3008 3.072 10.8544-1.4336 14.336-6.5536 5.5296-12.6976 13.1072-18.432 22.9376 0 0.2048-0.2048 0.4096-0.2048 0.6144l-0.2048 0.4096c-0.6144 1.4336-1.2288 3.072-1.8432 4.5056-7.7824 26.8288-4.096 57.1392 1.024 90.9312l0.2048 0.6144v0.8192c0.6144 5.5296-3.2768 10.6496-9.0112 11.4688-0.2048 0.6144-0.6144 0.6144-1.024 0.6144z" fill="#FFECE9" p-id="11633"></path><path d="M347.136 996.352c-1.2288 0-2.2528-0.2048-3.2768-0.6144-105.8816-36.864-198.2464-108.9536-259.8912-202.9568-1.4336-2.2528-2.048-5.12-1.4336-7.7824s2.2528-5.12 4.7104-6.5536l17.2032-10.6496c2.6624-1.6384 5.7344-2.048 8.8064-1.024 22.9376 7.9872 47.104 12.0832 71.68 12.0832s48.7424-4.096 71.68-12.0832c2.8672-1.024 6.144-0.6144 8.8064 1.024l30.1056 18.6368c38.912 24.1664 62.2592 65.9456 62.2592 111.8208v88.064c0 3.2768-1.6384 6.3488-4.3008 8.3968-2.2528 0.8192-4.3008 1.6384-6.3488 1.6384zM106.7008 790.1184c56.5248 82.1248 137.4208 145.8176 230.1952 181.248v-73.3184c0-38.7072-19.6608-73.9328-52.6336-94.4128l-26.0096-15.9744c-23.7568 7.7824-48.5376 11.6736-73.728 11.6736s-49.9712-3.8912-73.728-11.6736l-4.096 2.4576z" fill="#1C1D21" p-id="11634"></path><path d="M853.8112 831.2832c-2.4576 0-4.9152-0.8192-6.9632-2.6624-4.096-3.8912-4.5056-10.24-0.6144-14.5408 6.3488-6.9632 12.4928-14.1312 18.2272-21.504l8.192-12.9024c3.072-4.7104 9.4208-6.144 14.1312-3.072 4.7104 3.072 6.144 9.4208 3.072 14.1312l-8.6016 13.312c-0.2048 0.2048-0.4096 0.6144-0.6144 0.8192-6.144 7.7824-12.6976 15.5648-19.456 22.9376a9.4208 9.4208 0 0 1-7.3728 3.4816zM808.96 874.496c-2.8672 0-5.7344-1.2288-7.7824-3.6864-3.6864-4.3008-3.072-10.8544 1.2288-14.336 2.4576-2.048 5.12-4.3008 7.5776-6.5536 4.3008-3.6864 10.6496-3.2768 14.5408 0.8192 3.6864 4.3008 3.2768 10.6496-0.8192 14.5408-2.6624 2.2528-5.12 4.5056-7.7824 6.7584-2.2528 1.6384-4.5056 2.4576-6.9632 2.4576zM716.5952 935.3216c-3.6864 0-7.3728-2.048-9.216-5.7344-2.4576-5.12-0.4096-11.264 4.7104-13.7216 19.2512-9.6256 38.0928-20.6848 55.7056-32.9728 4.7104-3.2768 11.0592-2.048 14.336 2.6624 3.2768 4.7104 2.048 11.0592-2.6624 14.336-18.6368 12.9024-38.0928 24.3712-58.368 34.4064-1.4336 0.6144-3.072 1.024-4.5056 1.024z" fill="#ABD1FF" p-id="11635"></path><path d="M512 1024c-56.7296 0-112.4352-9.216-165.6832-27.4432-4.096-1.4336-6.9632-5.3248-6.9632-9.6256v-88.8832c0-45.8752 23.3472-87.6544 62.2592-111.8208l30.1056-18.6368c2.6624-1.6384 5.7344-2.048 8.8064-1.024 22.9376 7.9872 47.104 12.0832 71.68 12.0832s48.7424-4.096 71.68-12.0832c2.8672-1.024 6.144-0.6144 8.8064 1.024l30.1056 18.6368c38.912 24.1664 62.2592 65.9456 62.2592 111.8208v88.8832c0 4.3008-2.8672 8.192-6.9632 9.6256C624.64 1014.784 568.7296 1024 512 1024z m-152.1664-44.4416c48.9472 15.9744 100.1472 23.9616 152.1664 23.9616s103.2192-8.192 152.3712-24.1664v-81.5104c0-38.7072-19.6608-73.9328-52.6336-94.4128l-26.0096-15.9744c-23.7568 7.7824-48.5376 11.6736-73.728 11.6736s-49.9712-3.8912-73.728-11.6736l-26.0096 15.9744c-32.9728 20.2752-52.6336 55.7056-52.6336 94.4128v81.7152z m314.7776 7.168z" fill="#1C1D21" p-id="11636"></path><path d="M505.2416 474.112c-5.12 0-9.6256-3.8912-10.24-9.0112-0.6144-5.5296 3.2768-10.6496 9.0112-11.4688 3.4816-0.4096 7.168-0.6144 10.4448-0.6144 5.7344 0 10.24 4.5056 10.24 10.24s-4.5056 10.24-10.24 10.24c-2.6624 0-5.3248 0.2048-8.192 0.4096-0.2048 0.2048-0.6144 0.2048-1.024 0.2048zM445.2352 619.52c-5.12 0-9.6256-3.8912-10.24-9.0112l-0.2048-1.024c-5.7344-36.6592-9.6256-69.4272-0.2048-100.5568 0.2048-0.4096 0.2048-0.8192 0.4096-1.2288 0.6144-1.6384 1.2288-3.072 1.8432-4.5056l0.2048-0.6144c0.2048-0.6144 0.4096-1.024 0.6144-1.4336l0.6144-1.2288c7.168-12.288 14.7456-21.9136 23.552-29.0816 4.3008-3.6864 10.8544-3.072 14.336 1.4336 3.6864 4.3008 3.072 10.8544-1.4336 14.336-6.5536 5.5296-12.6976 13.1072-18.432 22.9376 0 0.2048-0.2048 0.4096-0.2048 0.6144l-0.2048 0.6144c-0.6144 1.4336-1.2288 2.8672-1.8432 4.5056-7.7824 26.8288-4.096 57.1392 1.024 91.136l0.2048 0.6144v1.024c0.6144 5.5296-3.2768 10.6496-9.0112 11.4688h-1.024z" fill="#FFC5B3" p-id="11637"></path><path d="M832.3072 474.112c-5.12 0-9.6256-3.8912-10.24-9.0112-0.6144-5.5296 3.2768-10.6496 9.0112-11.4688 3.4816-0.4096 7.168-0.6144 10.4448-0.6144 5.7344 0 10.24 4.5056 10.24 10.24s-4.5056 10.24-10.24 10.24c-2.6624 0-5.3248 0.2048-8.192 0.4096-0.2048 0.2048-0.6144 0.2048-1.024 0.2048zM772.3008 619.52c-5.12 0-9.6256-3.8912-10.24-9.0112l-0.2048-1.024c-5.7344-36.6592-9.6256-69.4272-0.2048-100.5568 0.2048-0.4096 0.2048-0.8192 0.4096-1.2288 0.6144-1.6384 1.2288-3.072 1.8432-4.5056l0.2048-0.6144c0.2048-0.6144 0.4096-1.024 0.6144-1.4336l0.6144-1.2288c7.168-12.288 14.7456-21.9136 23.552-29.0816 4.3008-3.6864 10.8544-3.072 14.336 1.4336 3.6864 4.3008 3.072 10.8544-1.4336 14.336-6.5536 5.5296-12.6976 13.1072-18.432 22.9376 0 0.2048-0.2048 0.4096-0.2048 0.6144l-0.2048 0.6144c-0.6144 1.4336-1.2288 2.8672-1.8432 4.5056-7.7824 26.8288-4.096 57.1392 1.024 91.136l0.2048 0.6144v1.024c0.6144 5.5296-3.2768 10.6496-9.0112 11.4688h-1.024z" fill="#FFA364" p-id="11638"></path><path d="M677.0688 996.1472c-2.048 0-4.096-0.6144-5.9392-1.8432-2.6624-1.8432-4.3008-5.12-4.3008-8.3968v-87.8592c0-45.8752 23.3472-87.6544 62.2592-111.8208l30.1056-18.6368c2.6624-1.6384 5.7344-2.048 8.8064-1.024 22.9376 7.9872 47.104 12.0832 71.68 12.0832s48.7424-4.096 71.68-12.0832c2.8672-1.024 6.144-0.6144 8.8064 1.024l17.2032 10.6496c2.2528 1.4336 4.096 3.8912 4.7104 6.5536 0.6144 2.6624 0 5.5296-1.4336 7.7824-61.8496 94.0032-154.0096 166.0928-259.8912 202.9568-1.4336 0.4096-2.6624 0.6144-3.6864 0.6144z m88.6784-208.4864l-26.0096 15.9744c-32.9728 20.2752-52.6336 55.7056-52.6336 94.4128v73.3184c92.5696-35.4304 173.4656-99.1232 229.9904-181.248l-3.8912-2.4576c-23.7568 7.7824-48.5376 11.6736-73.728 11.6736s-49.9712-3.8912-73.728-11.6736z" fill="#1C1D21" p-id="11639"></path><path d="M259.6864 388.7104c-5.7344 0-10.24-4.5056-10.24-10.24 0-87.2448 43.2128-168.5504 115.9168-217.7024 4.7104-3.072 11.0592-1.8432 14.1312 2.6624 3.072 4.7104 1.8432 11.0592-2.6624 14.1312-66.9696 45.2608-106.9056 120.2176-106.9056 200.704 0 5.9392-4.5056 10.4448-10.24 10.4448z" fill="#ABD1FF" p-id="11640"></path><path d="M328.0896 216.064c-2.4576 0-5.12-0.8192-6.9632-2.8672-4.096-3.8912-4.3008-10.4448-0.4096-14.5408 13.312-14.336 28.4672-27.0336 44.6464-37.888 4.7104-3.072 11.0592-1.8432 14.1312 2.6624 3.072 4.7104 1.8432 11.0592-2.6624 14.1312-14.9504 10.0352-28.672 21.9136-41.1648 35.0208-2.048 2.2528-4.7104 3.4816-7.5776 3.4816z" fill="#5AFFDF" p-id="11641"></path><path d="M805.2736 388.7104H218.7264c-5.7344 0-10.24-4.5056-10.24-10.24s4.5056-10.24 10.24-10.24h586.5472c5.7344 0 10.24 4.5056 10.24 10.24s-4.5056 10.24-10.24 10.24zM512 280.9856c-83.5584 0-164.2496-35.0208-221.5936-96.0512-3.6864-3.8912-3.6864-10.0352 0-13.9264 57.1392-61.0304 138.0352-96.0512 221.5936-96.0512s164.2496 35.0208 221.5936 96.0512c3.6864 3.8912 3.6864 10.0352 0 13.9264-57.344 61.0304-138.0352 96.0512-221.5936 96.0512z m-199.8848-103.0144c53.4528 53.248 123.904 82.5344 199.8848 82.5344s146.432-29.2864 199.8848-82.5344c-53.4528-53.248-123.904-82.5344-199.8848-82.5344s-146.432 29.2864-199.8848 82.5344zM182.0672 658.6368c-14.5408 0-28.2624-7.7824-35.6352-20.48-2.8672-4.9152-1.2288-11.0592 3.6864-13.9264 4.9152-2.8672 11.0592-1.2288 13.9264 3.6864 3.6864 6.3488 10.4448 10.24 17.8176 10.24s14.1312-3.8912 17.8176-10.24c2.8672-4.9152 9.0112-6.5536 13.9264-3.6864 4.9152 2.8672 6.5536 9.0112 3.6864 13.9264-6.9632 12.6976-20.48 20.48-35.2256 20.48zM512 658.6368c-14.5408 0-28.2624-7.7824-35.6352-20.48-2.8672-4.9152-1.2288-11.0592 3.6864-13.9264 4.9152-2.8672 11.0592-1.2288 13.9264 3.6864 3.6864 6.3488 10.4448 10.24 17.8176 10.24 7.3728 0 14.1312-3.8912 17.8176-10.24 2.8672-4.9152 9.0112-6.5536 13.9264-3.6864 4.9152 2.8672 6.5536 9.0112 3.6864 13.9264-6.9632 12.6976-20.48 20.48-35.2256 20.48zM841.728 658.6368c-14.5408 0-28.2624-7.7824-35.6352-20.48-2.8672-4.9152-1.2288-11.0592 3.6864-13.9264 4.9152-2.8672 11.0592-1.2288 13.9264 3.6864 3.6864 6.3488 10.4448 10.24 17.8176 10.24s14.1312-3.8912 17.8176-10.24c2.8672-4.9152 9.0112-6.5536 13.9264-3.6864 4.9152 2.8672 6.5536 9.0112 3.6864 13.9264-6.9632 12.6976-20.6848 20.48-35.2256 20.48z" fill="#1C1D21" p-id="11642"></path></svg>