<svg xmlns="http://www.w3.org/2000/svg" viewBox="0 0 1024 1024" version="1.1"><path d="M512 512m-501.76 0a501.76 501.76 0 1 0 1003.52 0 501.76 501.76 0 1 0-1003.52 0Z" fill="#508DEF" p-id="12293"></path><path d="M667.4432 862.6176H356.5568c-22.528 0-40.96-18.432-40.96-40.96V202.752c0-22.528 18.432-40.96 40.96-40.96h310.8864c22.528 0 40.96 18.432 40.96 40.96v618.9056c0 22.528-18.2272 40.96-40.96 40.96z" fill="#E0E0E0" p-id="12294"></path><path d="M356.5568 759.6032V247.1936c0-11.264 9.216-20.48 20.48-20.48h269.9264c11.264 0 20.48 9.216 20.48 20.48V759.808c0 11.264-9.216 20.48-20.48 20.48H377.0368c-11.264-0.2048-20.48-9.4208-20.48-20.6848z" fill="#ABD1FF" p-id="12295"></path><path d="M397.5168 611.5328c-5.7344 0-10.24-4.5056-10.24-10.24v-9.6256c0-5.7344 4.5056-10.24 10.24-10.24s10.24 4.5056 10.24 10.24v9.6256c0 5.5296-4.7104 10.24-10.24 10.24zM397.5168 749.3632c-5.7344 0-10.24-4.5056-10.24-10.24v-85.1968c0-5.7344 4.5056-10.24 10.24-10.24s10.24 4.5056 10.24 10.24v85.1968c0 5.7344-4.7104 10.24-10.24 10.24z" fill="#DCFDFF" p-id="12296"></path><path d="M615.8336 332.5952l-26.624-43.8272c-2.048-3.4816-5.7344-5.5296-9.8304-5.5296h-134.5536c-4.096 0-7.7824 2.048-9.8304 5.5296l-26.624 43.8272c-2.8672 4.7104 0.6144 10.4448 5.9392 10.4448h195.7888c5.12 0 8.3968-5.9392 5.7344-10.4448z" fill="#FF3E63" p-id="12297"></path><path d="M615.8336 332.5952l-26.624-43.8272c-2.048-3.4816-5.7344-5.5296-9.8304-5.5296h-22.528v60.0064h53.248c5.12-0.2048 8.3968-6.144 5.7344-10.6496z" fill="#FFECE9" p-id="12298"></path><path d="M440.32 343.04h143.5648V434.176H440.32z" fill="#FFECE9" p-id="12299"></path><path d="M583.68 444.416h-143.36c-5.7344 0-10.24-4.5056-10.24-10.24v-91.136c0-5.7344 4.5056-10.24 10.24-10.24h143.36c5.7344 0 10.24 4.5056 10.24 10.24V434.176c0 5.7344-4.5056 10.24-10.24 10.24z m-133.12-20.48h122.88v-70.656h-122.88V423.936z" fill="#1C1D21" p-id="12300"></path><path d="M512 1024c-136.8064 0-265.4208-53.248-362.0864-149.9136C53.248 777.4208 0 648.8064 0 512S53.248 246.5792 149.9136 149.9136C246.5792 53.248 375.1936 0 512 0s265.4208 53.248 362.0864 149.9136C970.752 246.5792 1024 375.1936 1024 512s-53.248 265.4208-149.9136 362.0864C777.4208 970.752 648.8064 1024 512 1024z m0-1003.52C241.0496 20.48 20.48 241.0496 20.48 512s220.5696 491.52 491.52 491.52 491.52-220.5696 491.52-491.52S782.9504 20.48 512 20.48z" fill="#1C1D21" p-id="12301"></path><path d="M667.4432 872.8576H356.5568c-28.2624 0-51.2-22.9376-51.2-51.2V540.8768c0-5.7344 4.5056-10.24 10.24-10.24s10.24 4.5056 10.24 10.24v280.7808c0 16.9984 13.7216 30.72 30.72 30.72h310.8864c16.9984 0 30.72-13.7216 30.72-30.72V540.8768c0-5.7344 4.5056-10.24 10.24-10.24s10.24 4.5056 10.24 10.24v280.7808c0 28.2624-22.9376 51.2-51.2 51.2zM708.4032 476.16c-5.7344 0-10.24-4.5056-10.24-10.24V202.752c0-16.9984-13.7216-30.72-30.72-30.72H356.5568c-16.9984 0-30.72 13.7216-30.72 30.72v14.336c0 5.7344-4.5056 10.24-10.24 10.24s-10.24-4.5056-10.24-10.24v-14.336c0-28.2624 22.9376-51.2 51.2-51.2h310.8864c28.2624 0 51.2 22.9376 51.2 51.2v263.168c0 5.7344-4.5056 10.24-10.24 10.24zM315.5968 274.432c-5.7344 0-10.24-4.5056-10.24-10.24v-12.288c0-5.7344 4.5056-10.24 10.24-10.24s10.24 4.5056 10.24 10.24v12.288c0 5.7344-4.7104 10.24-10.24 10.24zM315.5968 476.16c-5.7344 0-10.24-4.5056-10.24-10.24v-152.7808c0-5.7344 4.5056-10.24 10.24-10.24s10.24 4.5056 10.24 10.24v152.7808c0 5.7344-4.7104 10.24-10.24 10.24z" fill="#1C1D21" p-id="12302"></path><path d="M646.9632 790.3232H377.0368c-16.9984 0-30.72-13.7216-30.72-30.72V540.8768c0-5.7344 4.5056-10.24 10.24-10.24s10.24 4.5056 10.24 10.24v218.7264c0 5.7344 4.5056 10.24 10.24 10.24h269.9264c5.7344 0 10.24-4.5056 10.24-10.24V540.8768c0-5.7344 4.5056-10.24 10.24-10.24s10.24 4.5056 10.24 10.24v218.7264c0 16.9984-13.7216 30.72-30.72 30.72zM667.4432 476.16c-5.7344 0-10.24-4.5056-10.24-10.24V247.1936c0-5.7344-4.5056-10.24-10.24-10.24H377.0368c-5.7344 0-10.24 4.5056-10.24 10.24v218.7264c0 5.7344-4.5056 10.24-10.24 10.24s-10.24-4.5056-10.24-10.24V247.1936c0-16.9984 13.7216-30.72 30.72-30.72h269.9264c16.9984 0 30.72 13.7216 30.72 30.72v218.7264c0 5.7344-4.5056 10.24-10.24 10.24z" fill="#1C1D21" p-id="12303"></path><path d="M512 1013.76c140.6976 0 267.8784-57.9584 359.0144-151.1424H152.9856C244.1216 955.8016 371.3024 1013.76 512 1013.76z" fill="#0ABFB2" p-id="12304"></path><path d="M512 1024c-139.0592 0-269.1072-54.8864-366.1824-154.2144-2.8672-2.8672-3.6864-7.3728-2.048-11.0592 1.6384-3.8912 5.3248-6.3488 9.4208-6.3488h717.824c4.096 0 7.7824 2.4576 9.4208 6.3488 1.6384 3.8912 0.8192 8.192-2.048 11.0592-97.28 99.328-227.328 154.2144-366.3872 154.2144zM178.176 872.8576c91.136 84.3776 208.6912 130.6624 333.824 130.6624s242.688-46.2848 333.824-130.6624H178.176z" fill="#1C1D21" p-id="12305"></path><path d="M512 821.248m-41.1648 0a41.1648 41.1648 0 1 0 82.3296 0 41.1648 41.1648 0 1 0-82.3296 0Z" fill="#FFFFFF" p-id="12306"></path><path d="M512 872.8576c-28.4672 0-51.4048-23.1424-51.4048-51.4048 0-28.4672 23.1424-51.4048 51.4048-51.4048s51.4048 23.1424 51.4048 51.4048-22.9376 51.4048-51.4048 51.4048z m0-82.5344c-16.9984 0-30.9248 13.9264-30.9248 30.9248s13.9264 30.9248 30.9248 30.9248 30.9248-13.9264 30.9248-30.9248-13.9264-30.9248-30.9248-30.9248z" fill="#1C1D21" p-id="12307"></path><path d="M133.7344 503.3984m-31.3344 0a31.3344 31.3344 0 1 0 62.6688 0 31.3344 31.3344 0 1 0-62.6688 0Z" fill="#FF8939" p-id="12308"></path><path d="M212.3776 653.9264m-31.3344 0a31.3344 31.3344 0 1 0 62.6688 0 31.3344 31.3344 0 1 0-62.6688 0Z" fill="#FF8939" p-id="12309"></path><path d="M187.8016 392.6016m-31.3344 0a31.3344 31.3344 0 1 0 62.6688 0 31.3344 31.3344 0 1 0-62.6688 0Z" fill="#FF8939" p-id="12310"></path><path d="M133.7344 544.9728c-22.9376 0-41.5744-18.6368-41.5744-41.5744s18.6368-41.5744 41.5744-41.5744c22.9376 0 41.5744 18.6368 41.5744 41.5744s-18.6368 41.5744-41.5744 41.5744z m0-62.6688c-11.6736 0-21.0944 9.4208-21.0944 21.0944 0 11.6736 9.4208 21.0944 21.0944 21.0944s21.0944-9.4208 21.0944-21.0944c0-11.6736-9.4208-21.0944-21.0944-21.0944zM212.3776 695.7056c-22.9376 0-41.5744-18.6368-41.5744-41.5744s18.6368-41.5744 41.5744-41.5744c22.9376 0 41.5744 18.6368 41.5744 41.5744s-18.6368 41.5744-41.5744 41.5744z m0-62.8736c-11.6736 0-21.0944 9.4208-21.0944 21.0944 0 11.6736 9.4208 21.0944 21.0944 21.0944S233.472 665.6 233.472 653.9264c0-11.6736-9.4208-21.0944-21.0944-21.0944zM187.8016 434.176c-22.9376 0-41.5744-18.6368-41.5744-41.5744s18.6368-41.5744 41.5744-41.5744c22.9376 0 41.5744 18.6368 41.5744 41.5744S210.7392 434.176 187.8016 434.176z m0-62.8736c-11.6736 0-21.0944 9.4208-21.0944 21.0944 0 11.6736 9.4208 21.0944 21.0944 21.0944s21.0944-9.4208 21.0944-21.0944c0-11.4688-9.4208-21.0944-21.0944-21.0944zM515.6864 204.8h-7.5776c-5.7344 0-10.24-4.5056-10.24-10.24s4.5056-10.24 10.24-10.24h7.5776c5.7344 0 10.24 4.5056 10.24 10.24s-4.5056 10.24-10.24 10.24zM555.6224 204.8h-2.048c-5.7344 0-10.24-4.5056-10.24-10.24s4.5056-10.24 10.24-10.24h2.048c5.7344 0 10.24 4.5056 10.24 10.24s-4.5056 10.24-10.24 10.24z" fill="#1C1D21" p-id="12311"></path><path d="M512 503.3984m-97.8944 0a97.8944 97.8944 0 1 0 195.7888 0 97.8944 97.8944 0 1 0-195.7888 0Z" fill="#D66112" p-id="12312"></path><path d="M460.1856 549.4784c0-54.0672 43.8272-97.8944 97.8944-97.8944 15.1552 0 29.4912 3.4816 42.1888 9.6256C584.4992 428.2368 550.912 405.504 512 405.504c-54.0672 0-97.8944 43.8272-97.8944 97.8944 0 38.912 22.7328 72.4992 55.7056 88.2688-6.144-12.6976-9.6256-27.0336-9.6256-42.1888z" fill="#FF8939" p-id="12313"></path><path d="M518.144 494.3872h-12.288c-0.6144 0-1.2288-0.6144-1.2288-1.2288v-14.1312c0-0.6144 0.6144-1.2288 1.2288-1.2288h22.3232c4.9152 0 9.0112-4.096 9.0112-9.0112 0-4.9152-4.096-9.0112-9.0112-9.0112h-7.5776V444.416c0-3.6864-3.072-6.7584-6.7584-6.7584s-6.7584 3.072-6.7584 6.7584v15.36h-1.2288c-10.4448 0-19.0464 8.6016-19.0464 19.0464v14.1312c0 10.4448 8.6016 19.0464 19.0464 19.0464h12.0832c0.6144 0 1.2288 0.6144 1.2288 1.2288v14.1312c0 0.6144-0.6144 1.2288-1.2288 1.2288H495.616c-4.9152 0-9.0112 4.096-9.0112 9.0112 0 4.9152 4.096 9.0112 9.0112 9.0112h11.264v15.36c0 3.6864 3.072 6.7584 6.7584 6.7584s6.7584-3.072 6.7584-6.7584v-15.5648c9.4208-1.2288 16.5888-9.216 16.5888-18.8416v-14.1312c0.2048-10.4448-8.3968-19.0464-18.8416-19.0464z" fill="#FFF0CC" p-id="12314"></path><path d="M512 611.5328c-59.5968 0-108.1344-48.5376-108.1344-108.1344S452.4032 395.264 512 395.264s108.1344 48.5376 108.1344 108.1344-48.5376 108.1344-108.1344 108.1344z m0-195.7888c-48.3328 0-87.6544 39.3216-87.6544 87.6544 0 48.3328 39.3216 87.6544 87.6544 87.6544s87.6544-39.3216 87.6544-87.6544c0-48.3328-39.3216-87.6544-87.6544-87.6544z" fill="#1C1D21" p-id="12315"></path><path d="M414.1056 513.6384H165.0688c-5.7344 0-10.24-4.5056-10.24-10.24s4.5056-10.24 10.24-10.24h249.0368c5.7344 0 10.24 4.5056 10.24 10.24s-4.5056 10.24-10.24 10.24z" fill="#1C1D21" p-id="12316"></path><path d="M261.5296 510.976c-5.7344 0-10.24-4.5056-10.24-10.24v-97.8944H219.136c-5.7344 0-10.24-4.5056-10.24-10.24s4.5056-10.24 10.24-10.24h42.3936c5.7344 0 10.24 4.5056 10.24 10.24v108.1344c0 5.5296-4.7104 10.24-10.24 10.24zM212.3776 632.832c-5.7344 0-10.24-4.5056-10.24-10.24v-119.1936c0-5.7344 4.5056-10.24 10.24-10.24s10.24 4.5056 10.24 10.24V622.592c0 5.7344-4.7104 10.24-10.24 10.24z" fill="#1C1D21" p-id="12317"></path><path d="M890.2656 503.3984m-31.3344 0a31.3344 31.3344 0 1 0 62.6688 0 31.3344 31.3344 0 1 0-62.6688 0Z" fill="#FF8939" p-id="12318"></path><path d="M811.6224 653.9264m-31.3344 0a31.3344 31.3344 0 1 0 62.6688 0 31.3344 31.3344 0 1 0-62.6688 0Z" fill="#FF8939" p-id="12319"></path><path d="M836.1984 392.6016m-31.3344 0a31.3344 31.3344 0 1 0 62.6688 0 31.3344 31.3344 0 1 0-62.6688 0Z" fill="#FF8939" p-id="12320"></path><path d="M890.2656 544.9728c-22.9376 0-41.5744-18.6368-41.5744-41.5744s18.6368-41.5744 41.5744-41.5744 41.5744 18.6368 41.5744 41.5744-18.6368 41.5744-41.5744 41.5744z m0-62.6688c-11.6736 0-21.0944 9.4208-21.0944 21.0944 0 11.6736 9.4208 21.0944 21.0944 21.0944s21.0944-9.4208 21.0944-21.0944c0.2048-11.6736-9.4208-21.0944-21.0944-21.0944zM811.6224 695.7056c-22.9376 0-41.5744-18.6368-41.5744-41.5744s18.6368-41.5744 41.5744-41.5744c22.9376 0 41.5744 18.6368 41.5744 41.5744s-18.6368 41.5744-41.5744 41.5744z m0-62.8736c-11.6736 0-21.0944 9.4208-21.0944 21.0944 0 11.6736 9.4208 21.0944 21.0944 21.0944s21.0944-9.4208 21.0944-21.0944c0.2048-11.6736-9.4208-21.0944-21.0944-21.0944zM836.1984 434.176c-22.9376 0-41.5744-18.6368-41.5744-41.5744s18.6368-41.5744 41.5744-41.5744c22.9376 0 41.5744 18.6368 41.5744 41.5744s-18.6368 41.5744-41.5744 41.5744z m0-62.8736c-11.6736 0-21.0944 9.4208-21.0944 21.0944 0 11.6736 9.4208 21.0944 21.0944 21.0944s21.0944-9.4208 21.0944-21.0944c0.2048-11.4688-9.4208-21.0944-21.0944-21.0944z" fill="#1C1D21" p-id="12321"></path><path d="M858.9312 513.6384H609.8944c-5.7344 0-10.24-4.5056-10.24-10.24s4.5056-10.24 10.24-10.24h249.0368c5.7344 0 10.24 4.5056 10.24 10.24s-4.5056 10.24-10.24 10.24z" fill="#1C1D21" p-id="12322"></path><path d="M465.5104 283.0336H512v60.0064h-46.4896z" fill="#FFECE9" p-id="12323"></path><path d="M762.4704 510.976c-5.7344 0-10.24-4.5056-10.24-10.24v-108.1344c0-5.7344 4.5056-10.24 10.24-10.24H804.864c5.7344 0 10.24 4.5056 10.24 10.24s-4.5056 10.24-10.24 10.24h-32.1536v97.8944c0 5.5296-4.5056 10.24-10.24 10.24zM811.6224 632.832c-5.7344 0-10.24-4.5056-10.24-10.24v-119.1936c0-5.7344 4.5056-10.24 10.24-10.24s10.24 4.5056 10.24 10.24V622.592c0 5.7344-4.5056 10.24-10.24 10.24zM465.5104 353.28c-5.7344 0-10.24-4.5056-10.24-10.24v-60.0064c0-5.7344 4.5056-10.24 10.24-10.24s10.24 4.5056 10.24 10.24v60.0064c0 5.5296-4.5056 10.24-10.24 10.24zM512 353.28c-5.7344 0-10.24-4.5056-10.24-10.24v-60.0064c0-5.7344 4.5056-10.24 10.24-10.24s10.24 4.5056 10.24 10.24v60.0064c0 5.5296-4.5056 10.24-10.24 10.24zM558.4896 353.28c-5.7344 0-10.24-4.5056-10.24-10.24v-60.0064c0-5.7344 4.5056-10.24 10.24-10.24s10.24 4.5056 10.24 10.24v60.0064c0 5.5296-4.7104 10.24-10.24 10.24z" fill="#1C1D21" p-id="12324"></path><path d="M609.8944 353.28h-195.7888c-6.144 0-11.8784-3.2768-14.9504-8.8064-3.072-5.3248-2.8672-12.0832 0.2048-17.408l26.624-43.8272c3.8912-6.5536 11.0592-10.4448 18.6368-10.4448h134.5536c7.5776 0 14.7456 4.096 18.6368 10.4448l26.624 43.8272c3.2768 5.3248 3.2768 11.8784 0.2048 17.408s-8.6016 8.8064-14.7456 8.8064z m-2.8672-15.36z m-186.9824-5.12h183.9104l-23.552-38.912c-0.2048-0.4096-0.6144-0.6144-1.024-0.6144h-134.5536c-0.4096 0-0.8192 0.2048-1.024 0.6144l-23.7568 38.912zM512 415.744c-5.7344 0-10.24-4.5056-10.24-10.24v-23.1424c0-5.7344 4.5056-10.24 10.24-10.24s10.24 4.5056 10.24 10.24V405.504c0 5.7344-4.5056 10.24-10.24 10.24z" fill="#1C1D21" p-id="12325"></path></svg>