<svg xmlns="http://www.w3.org/2000/svg" viewBox="0 0 1024 1024" version="1.1"><path d="M512 512m-501.76 0a501.76 501.76 0 1 0 1003.52 0 501.76 501.76 0 1 0-1003.52 0Z" fill="#8CEEF9" p-id="8714"></path><path d="M512 1024c-136.8064 0-265.4208-53.248-362.0864-149.9136C53.248 777.4208 0 648.8064 0 512S53.248 246.5792 149.9136 149.9136C246.5792 53.248 375.1936 0 512 0s265.4208 53.248 362.0864 149.9136C970.752 246.5792 1024 375.1936 1024 512s-53.248 265.4208-149.9136 362.0864C777.4208 970.752 648.8064 1024 512 1024z m0-1003.52C241.0496 20.48 20.48 241.0496 20.48 512s220.5696 491.52 491.52 491.52 491.52-220.5696 491.52-491.52S782.9504 20.48 512 20.48z" fill="#1C1D21" p-id="8715"></path><path d="M512 633.0368m-293.2736 0a293.2736 293.2736 0 1 0 586.5472 0 293.2736 293.2736 0 1 0-586.5472 0Z" fill="#508DEF" p-id="8716"></path><path d="M652.0832 633.0368s-0.8192 85.4016-21.0944 155.0336c0 0 69.0176 26.8288 84.1728 56.5248 0 0 97.0752-84.7872 81.3056-211.5584h-144.384z" fill="#508DEF" p-id="8717"></path><path d="M491.52 339.7632s-121.0368 2.6624-193.536 92.7744c0 0 39.5264 43.008 89.7024 65.3312 0 0 12.6976-128.4096 103.8336-158.1056zM512 633.0368h-140.0832s-0.2048 99.5328 21.0944 155.0336c0 0 71.2704-33.5872 118.784-25.1904v-129.8432z" fill="#0ABFB2" p-id="8718"></path><path d="M512 633.0368h140.0832s0.2048 99.5328-21.0944 155.0336c0 0-71.2704-33.5872-118.784-25.1904v-129.8432zM636.3136 497.8688s-61.6448 30.3104-124.3136 27.648v-176.3328c0-0.2048 82.1248-22.1184 124.3136 148.6848zM393.216 788.0704s-62.0544 21.0944-84.1728 56.5248c0 0 83.1488 77.6192 173.8752 80.2816-0.2048 0-70.8608-33.5872-89.7024-136.8064z" fill="#AAADAD" p-id="8719"></path><path d="M628.3264 788.0704s62.0544 21.0944 84.1728 56.5248c0 0-83.1488 77.6192-173.8752 80.2816 0 0 70.656-33.5872 89.7024-136.8064z" fill="#0ABFB2" p-id="8720"></path><path d="M512 936.5504c-78.848 0-153.3952-30.1056-210.1248-84.5824-2.048-1.8432-3.072-4.5056-3.072-7.3728s1.2288-5.5296 3.072-7.3728c56.7296-54.4768 131.4816-84.5824 210.1248-84.5824s153.3952 30.1056 210.1248 84.5824c2.048 1.8432 3.072 4.5056 3.072 7.3728s-1.2288 5.5296-3.072 7.3728c-56.7296 54.4768-131.2768 84.5824-210.1248 84.5824z m-188.0064-91.9552c51.8144 46.08 118.1696 71.4752 188.0064 71.4752s136.192-25.3952 188.0064-71.4752c-51.8144-46.08-118.1696-71.4752-188.0064-71.4752s-136.192 25.3952-188.0064 71.4752z" fill="#1C1D21" p-id="8721"></path><path d="M512 936.5504c-5.7344 0-10.24-4.5056-10.24-10.24V339.7632c0-5.7344 4.5056-10.24 10.24-10.24s10.24 4.5056 10.24 10.24v586.5472c0 5.7344-4.5056 10.24-10.24 10.24z" fill="#1C1D21" p-id="8722"></path><path d="M512 936.5504c-41.5744 0-80.0768-32.5632-108.3392-91.7504-27.0336-56.7296-41.984-131.8912-41.984-211.7632s14.9504-155.0336 41.984-211.7632c28.2624-59.1872 66.7648-91.7504 108.3392-91.7504s80.0768 32.5632 108.3392 91.7504c27.0336 56.7296 41.984 131.8912 41.984 211.7632s-14.9504 155.0336-41.984 211.7632c-28.2624 59.1872-66.7648 91.7504-108.3392 91.7504z m0-586.5472c-33.1776 0-65.1264 28.4672-89.7024 80.0768-25.8048 54.0672-39.936 126.1568-39.936 202.9568s14.1312 148.8896 39.936 202.9568c24.576 51.6096 56.5248 80.0768 89.7024 80.0768s65.1264-28.4672 89.7024-80.0768c25.8048-54.0672 39.936-126.1568 39.936-202.9568s-14.1312-148.8896-39.936-202.9568c-24.576-51.6096-56.5248-80.0768-89.7024-80.0768zM257.4336 497.2544c-1.6384 0-3.4816-0.4096-5.12-1.4336-4.9152-2.8672-6.5536-9.0112-3.6864-13.9264l2.4576-4.3008c2.8672-4.9152 9.216-6.3488 14.1312-3.4816 4.9152 2.8672 6.3488 9.216 3.4816 14.1312-0.8192 1.2288-1.6384 2.6624-2.2528 3.8912-1.8432 3.2768-5.3248 5.12-9.0112 5.12zM230.1952 561.9712c-1.024 0-1.8432-0.2048-2.8672-0.4096-5.5296-1.6384-8.6016-7.168-6.9632-12.6976 3.2768-11.264 7.168-22.528 11.6736-33.1776 2.2528-5.12 8.192-7.5776 13.312-5.5296 5.12 2.2528 7.5776 8.192 5.5296 13.312-4.3008 10.0352-7.9872 20.48-10.8544 30.9248-1.4336 4.7104-5.5296 7.5776-9.8304 7.5776z" fill="#1C1D21" p-id="8723"></path><path d="M512 936.5504c-167.3216 0-303.5136-136.192-303.5136-303.5136 0-15.5648 1.2288-31.1296 3.4816-46.2848 0.8192-5.5296 6.144-9.4208 11.6736-8.6016 5.5296 0.8192 9.4208 6.144 8.6016 11.6736-2.2528 14.1312-3.2768 28.672-3.2768 43.2128 0 156.0576 126.976 283.0336 283.0336 283.0336s283.0336-126.976 283.0336-283.0336-126.976-283.0336-283.0336-283.0336c-86.016 0-166.2976 38.5024-220.5696 105.472-3.4816 4.5056-10.0352 5.12-14.336 1.6384-4.3008-3.4816-5.12-10.0352-1.6384-14.336 57.9584-71.8848 144.1792-113.0496 236.3392-113.0496 167.3216 0 303.5136 136.192 303.5136 303.5136S679.3216 936.5504 512 936.5504z" fill="#1C1D21" p-id="8724"></path><path d="M263.168 601.7024c-0.6144 0-1.024 0-1.6384-0.2048-5.5296-1.024-9.4208-6.144-8.3968-11.8784 11.6736-70.4512 52.6336-134.144 112.2304-174.2848 4.7104-3.072 11.0592-1.8432 14.1312 2.6624 3.072 4.7104 1.8432 11.0592-2.6624 14.1312-54.8864 37.2736-92.7744 95.8464-103.6288 160.768-0.8192 5.12-5.12 8.8064-10.0352 8.8064z" fill="#ABD1FF" p-id="8725"></path><path d="M328.0896 470.6304c-2.4576 0-5.12-0.8192-6.9632-2.8672-4.096-3.8912-4.3008-10.4448-0.4096-14.5408 13.312-14.336 28.4672-27.0336 44.6464-37.888 4.7104-3.072 11.0592-1.8432 14.1312 2.6624 3.072 4.7104 1.8432 11.0592-2.6624 14.1312-14.9504 10.0352-28.672 21.9136-41.1648 35.0208-2.048 2.2528-4.7104 3.4816-7.5776 3.4816z" fill="#5AFFDF" p-id="8726"></path><path d="M805.2736 643.2768H218.7264c-5.7344 0-10.24-4.5056-10.24-10.24s4.5056-10.24 10.24-10.24h586.5472c5.7344 0 10.24 4.5056 10.24 10.24s-4.5056 10.24-10.24 10.24zM512 535.552c-83.5584 0-164.2496-35.0208-221.5936-96.0512-3.6864-3.8912-3.6864-10.0352 0-13.9264 57.1392-61.0304 138.0352-96.0512 221.5936-96.0512s164.2496 35.0208 221.5936 96.0512c3.6864 3.8912 3.6864 10.0352 0 13.9264-57.344 61.0304-138.0352 96.0512-221.5936 96.0512z m-199.8848-103.0144c53.4528 53.248 123.904 82.5344 199.8848 82.5344s146.432-29.2864 199.8848-82.5344c-53.4528-53.248-123.904-82.5344-199.8848-82.5344s-146.432 29.2864-199.8848 82.5344z" fill="#1C1D21" p-id="8727"></path><path d="M541.2864 557.4656V144.384h-58.368v413.0816c-20.2752 10.6496-33.9968 31.744-33.9968 56.1152 0 34.816 28.2624 63.2832 63.2832 63.2832s63.2832-28.2624 63.2832-63.2832c-0.2048-24.3712-14.1312-45.4656-34.2016-56.1152z" fill="#FF3E63" p-id="8728"></path><path d="M482.7136 144.384h58.368v60.0064h-58.368z" fill="#FFECE9" p-id="8729"></path><path d="M500.1216 484.7616h-17.408c-5.7344 0-10.24-4.5056-10.24-10.24s4.5056-10.24 10.24-10.24h17.408c5.7344 0 10.24 4.5056 10.24 10.24s-4.5056 10.24-10.24 10.24zM500.1216 441.9584h-17.408c-5.7344 0-10.24-4.5056-10.24-10.24s4.5056-10.24 10.24-10.24h17.408c5.7344 0 10.24 4.5056 10.24 10.24s-4.5056 10.24-10.24 10.24zM500.1216 399.36h-17.408c-5.7344 0-10.24-4.5056-10.24-10.24s4.5056-10.24 10.24-10.24h17.408c5.7344 0 10.24 4.5056 10.24 10.24s-4.5056 10.24-10.24 10.24z" fill="#1C1D21" p-id="8730"></path><path d="M512 686.8992c-18.6368 0-36.2496-6.9632-49.9712-19.6608-14.7456-13.9264-23.3472-33.3824-23.3472-53.6576 0-25.3952 12.9024-48.5376 33.9968-62.0544V154.624h-4.5056c-5.7344 0-10.24-4.5056-10.24-10.24s4.5056-10.24 10.24-10.24h5.3248c10.8544 0 19.6608 8.8064 19.6608 19.6608v403.456c0 3.8912-2.048 7.3728-5.5296 9.0112-17.6128 9.216-28.4672 27.2384-28.4672 46.8992 0 14.7456 5.9392 28.672 16.7936 38.7072 10.8544 10.0352 24.9856 15.1552 39.936 14.1312 26.624-1.8432 47.7184-23.3472 49.152-49.9712 1.024-20.6848-10.0352-40.3456-28.4672-49.9712-3.4816-1.8432-5.5296-5.3248-5.5296-9.0112V153.6c0-10.8544 8.8064-19.6608 19.6608-19.6608h5.3248c5.7344 0 10.24 4.5056 10.24 10.24s-4.5056 10.24-10.24 10.24h-4.5056v396.9024c22.1184 14.1312 35.2256 39.3216 33.9968 65.9456-2.048 36.864-31.3344 66.7648-68.1984 69.2224-1.8432 0.4096-3.6864 0.4096-5.3248 0.4096z" fill="#1C1D21" p-id="8731"></path></svg>