<svg xmlns="http://www.w3.org/2000/svg" viewBox="0 0 1024 1024" version="1.1"><path d="M512 512m-501.76 0a501.76 501.76 0 1 0 1003.52 0 501.76 501.76 0 1 0-1003.52 0Z" fill="#8CEEF9" p-id="12796"></path><path d="M351.8464 527.9744v-116.9408c0-10.8544-8.8064-19.8656-19.8656-19.8656-10.8544 0-19.8656 8.8064-19.8656 19.8656v116.9408h39.7312z" fill="#FFC5B3" p-id="12797"></path><path d="M351.6416 559.104v-148.0704c0-10.8544 8.8064-19.8656 19.8656-19.8656 10.8544 0 19.8656 8.8064 19.8656 19.8656V559.104h-39.7312z" fill="#FFC5B3" p-id="12798"></path><path d="M351.8464 538.2144h-39.5264c-5.7344 0-10.24-4.5056-10.24-10.24v-116.9408c0-16.5888 13.5168-30.1056 30.1056-30.1056s30.1056 13.5168 30.1056 30.1056v116.9408c-0.2048 5.7344-4.7104 10.24-10.4448 10.24z m-29.2864-20.48h19.0464v-106.7008c0-5.3248-4.3008-9.6256-9.6256-9.6256s-9.6256 4.3008-9.6256 9.6256v106.7008z" fill="#1C1D21" p-id="12799"></path><path d="M391.168 569.344h-39.5264c-5.7344 0-10.24-4.5056-10.24-10.24v-148.0704c0-16.5888 13.5168-30.1056 30.1056-30.1056s30.1056 13.5168 30.1056 30.1056V559.104c-0.2048 5.7344-4.7104 10.24-10.4448 10.24z m-29.2864-20.48h19.0464v-137.8304c0-5.3248-4.3008-9.6256-9.6256-9.6256s-9.6256 4.3008-9.6256 9.6256V548.864z" fill="#1C1D21" p-id="12800"></path><path d="M470.2208 739.1232l-0.4096-89.9072c0-17.6128-8.192-34.4064-22.1184-45.2608l-113.4592-89.7024c-13.9264-11.0592-22.1184-27.8528-22.1184-45.4656v-57.5488c0-10.8544-8.8064-19.8656-19.8656-19.8656-10.8544 0-19.8656 8.8064-19.8656 19.8656v110.3872c0 15.36 6.144 30.1056 16.9984 40.96l80.0768 80.0768c10.8544 10.8544 16.9984 25.6 16.9984 40.96V710.656c26.624 12.4928 54.4768 22.3232 83.7632 28.4672z" fill="#FFC5B3" p-id="12801"></path><path d="M470.2208 749.3632c-0.8192 0-1.4336 0-2.2528-0.2048-29.696-6.3488-58.368-16.1792-85.6064-29.2864-3.4816-1.6384-5.7344-5.3248-5.7344-9.216v-27.0336c0-12.6976-4.9152-24.7808-13.9264-33.792L282.624 569.7536c-12.9024-12.9024-20.0704-30.1056-20.0704-48.3328v-110.3872c0-16.5888 13.5168-30.1056 30.1056-30.1056s30.1056 13.5168 30.1056 30.1056v57.5488c0 14.7456 6.5536 28.2624 18.2272 37.4784l113.4592 89.7024c16.384 12.9024 25.8048 32.3584 26.0096 53.248l0.4096 89.9072c0 3.072-1.4336 5.9392-3.8912 7.9872-2.2528 1.6384-4.5056 2.4576-6.7584 2.4576z m-73.1136-45.2608c20.0704 9.216 41.1648 16.7936 62.8736 22.1184l-0.2048-77.0048c0-14.5408-6.7584-28.2624-18.2272-37.2736L327.8848 522.24c-16.384-13.1072-26.0096-32.5632-26.0096-53.4528v-57.5488c0-5.3248-4.3008-9.6256-9.6256-9.6256s-9.6256 4.3008-9.6256 9.6256v110.3872c0 12.6976 4.9152 24.7808 13.9264 33.792l80.0768 80.0768c12.9024 12.9024 20.0704 30.1056 20.0704 48.3328v20.2752z" fill="#1C1D21" p-id="12802"></path><path d="M672.1536 527.9744v-116.9408c0-10.8544 8.8064-19.8656 19.8656-19.8656 10.8544 0 19.8656 8.8064 19.8656 19.8656v116.9408h-39.7312z" fill="#FFC5B3" p-id="12803"></path><path d="M672.3584 559.104v-148.0704c0-10.8544-8.8064-19.8656-19.8656-19.8656-10.8544 0-19.8656 8.8064-19.8656 19.8656V559.104h39.7312z" fill="#FFC5B3" p-id="12804"></path><path d="M711.68 538.2144h-39.5264c-5.7344 0-10.24-4.5056-10.24-10.24v-116.9408c0-16.5888 13.5168-30.1056 30.1056-30.1056s30.1056 13.5168 30.1056 30.1056v116.9408c-0.2048 5.7344-4.7104 10.24-10.4448 10.24z m-29.2864-20.48h19.0464v-106.7008c0-5.3248-4.3008-9.6256-9.6256-9.6256s-9.6256 4.3008-9.6256 9.6256v106.7008z" fill="#1C1D21" p-id="12805"></path><path d="M672.3584 569.344H632.832c-5.7344 0-10.24-4.5056-10.24-10.24v-148.0704c0-16.5888 13.5168-30.1056 30.1056-30.1056s30.1056 13.5168 30.1056 30.1056V559.104c-0.2048 5.7344-4.9152 10.24-10.4448 10.24zM643.072 548.864h19.0464v-137.8304c0-5.3248-4.3008-9.6256-9.6256-9.6256s-9.6256 4.3008-9.6256 9.6256V548.864z" fill="#1C1D21" p-id="12806"></path><path d="M751.2064 411.0336c0-10.8544-8.8064-19.8656-19.8656-19.8656-10.8544 0-19.8656 8.8064-19.8656 19.8656v57.5488c0 17.8176-8.192 34.4064-22.1184 45.4656l-113.4592 89.7024c-13.9264 11.0592-21.9136 27.648-22.1184 45.2608l-0.4096 89.9072c29.2864-6.3488 57.1392-15.9744 83.3536-28.672v-27.0336c0-15.36 6.144-30.1056 16.9984-40.96l80.0768-80.0768c10.8544-10.8544 16.9984-25.6 16.9984-40.96v-110.1824z" fill="#FFC5B3" p-id="12807"></path><path d="M553.7792 749.3632c-2.2528 0-4.7104-0.8192-6.3488-2.2528-2.4576-2.048-3.8912-4.9152-3.8912-7.9872l0.4096-89.9072c0-20.8896 9.4208-40.3456 26.0096-53.248l113.4592-89.7024c11.4688-9.216 18.2272-22.7328 18.2272-37.4784v-57.5488c0-16.5888 13.5168-30.1056 30.1056-30.1056s30.1056 13.5168 30.1056 30.1056v110.3872c0 18.2272-7.168 35.4304-20.0704 48.3328l-80.2816 79.872c-9.0112 9.0112-13.9264 21.0944-13.9264 33.792V710.656c0 3.8912-2.2528 7.5776-5.7344 9.216-27.2384 13.1072-56.1152 22.9376-85.6064 29.2864-1.024 0.2048-1.6384 0.2048-2.4576 0.2048z m177.7664-347.7504c-5.3248 0-9.6256 4.3008-9.6256 9.6256v57.5488c0 21.0944-9.4208 40.5504-26.0096 53.4528l-113.4592 89.7024c-11.4688 9.0112-18.0224 22.7328-18.2272 37.2736l-0.2048 77.0048c21.504-5.5296 42.5984-12.9024 62.8736-22.1184v-20.48c0-18.2272 7.168-35.4304 20.0704-48.3328l80.0768-80.0768c9.0112-9.0112 13.9264-21.0944 13.9264-33.792v-110.3872c0-5.3248-4.3008-9.4208-9.4208-9.4208zM637.1328 710.656z" fill="#1C1D21" p-id="12808"></path><path d="M512 1024c-136.8064 0-265.4208-53.248-362.0864-149.9136C53.248 777.4208 0 648.8064 0 512S53.248 246.5792 149.9136 149.9136C246.5792 53.248 375.1936 0 512 0s265.4208 53.248 362.0864 149.9136C970.752 246.5792 1024 375.1936 1024 512s-53.248 265.4208-149.9136 362.0864C777.4208 970.752 648.8064 1024 512 1024z m0-1003.52C241.0496 20.48 20.48 241.0496 20.48 512s220.5696 491.52 491.52 491.52 491.52-220.5696 491.52-491.52S782.9504 20.48 512 20.48z" fill="#1C1D21" p-id="12809"></path><path d="M512 675.0208c-145.6128 0-263.7824 117.9648-263.7824 263.7824v0.2048C325.0176 986.3168 415.3344 1013.76 512 1013.76s186.9824-27.4432 263.5776-74.752v-0.2048c0.2048-145.8176-117.9648-263.7824-263.5776-263.7824z" fill="#508DEF" p-id="12810"></path><path d="M512 1024c-95.232 0-188.416-26.4192-269.1072-76.3904-3.072-1.8432-4.7104-5.12-4.9152-8.6016v-0.4096c0-151.1424 122.88-274.0224 274.0224-274.0224s274.0224 122.88 274.0224 274.0224v0.2048c0 3.4816-1.8432 6.7584-4.9152 8.6016C700.416 997.5808 607.232 1024 512 1024z m-253.3376-90.7264c76.3904 46.08 163.84 70.2464 253.3376 70.2464s177.152-24.3712 253.3376-70.2464c-2.8672-137.216-115.5072-248.0128-253.3376-248.0128-137.8304 0-250.4704 110.7968-253.3376 248.0128z m516.9152 5.7344z" fill="#1C1D21" p-id="12811"></path><path d="M292.4544 911.9744c-0.6144 0-1.2288 0-1.6384-0.2048-5.5296-1.024-9.4208-6.144-8.3968-11.8784 10.0352-60.0064 42.8032-113.0496 92.16-149.2992 4.5056-3.2768 11.0592-2.4576 14.336 2.2528 3.2768 4.5056 2.4576 11.0592-2.2528 14.336-45.056 33.1776-74.9568 81.5104-84.1728 136.192-0.8192 5.12-5.12 8.6016-10.0352 8.6016z" fill="#ABD1FF" p-id="12812"></path><path d="M493.568 675.0208s-108.7488 2.4576-174.08 83.5584c0 0 35.4304 38.7072 80.6912 58.5728 0 0 11.4688-115.5072 93.3888-142.1312zM386.048 938.5984s0 27.2384 3.072 60.0064c39.3216 9.8304 80.4864 15.1552 122.6752 15.1552v-75.1616h-125.7472zM623.8208 817.152s-55.296 27.2384-111.8208 24.7808v-158.5152s73.9328-19.8656 111.8208 133.7344z" fill="#0ABFB2" p-id="12813"></path><path d="M512 1024c-5.7344 0-10.24-4.5056-10.24-10.24V675.0208c0-5.7344 4.5056-10.24 10.24-10.24s10.24 4.5056 10.24 10.24V1013.76c0 5.7344-4.5056 10.24-10.24 10.24z" fill="#1C1D21" p-id="12814"></path><path d="M512 1024c-42.1888 0-84.3776-5.12-125.1328-15.36-4.096-1.024-7.168-4.5056-7.7824-8.8064-2.2528-19.8656-3.2768-40.5504-3.2768-61.0304 0-71.8848 13.5168-139.6736 37.888-190.8736 25.6-53.6576 60.416-83.1488 98.304-83.1488s72.704 29.4912 98.304 83.1488c24.3712 51.2 37.888 118.9888 37.888 190.8736 0 20.6848-1.024 41.1648-3.2768 61.0304-0.4096 4.3008-3.4816 7.7824-7.7824 8.8064-40.7552 10.24-82.944 15.36-125.1328 15.36z m-113.2544-33.5872c73.9328 17.408 152.3712 17.408 226.304 0 1.6384-16.9984 2.4576-34.4064 2.4576-51.8144 0-137.4208-53.0432-253.5424-115.712-253.5424s-115.712 116.1216-115.712 253.5424c0.2048 17.408 1.024 34.816 2.6624 51.8144z m235.9296 8.192z" fill="#1C1D21" p-id="12815"></path><path d="M350.0032 796.2624c-2.4576 0-5.12-1.024-6.9632-2.8672-4.096-3.8912-4.3008-10.4448-0.4096-14.5408 9.8304-10.24 20.48-19.8656 31.9488-28.2624 4.5056-3.2768 11.0592-2.4576 14.336 2.2528 3.2768 4.5056 2.4576 11.0592-2.2528 14.336-10.4448 7.5776-20.2752 16.384-29.0816 25.8048-2.2528 2.2528-4.9152 3.2768-7.5776 3.2768z" fill="#8CEEF9" p-id="12816"></path><path d="M775.7824 948.8384H248.4224c-5.7344 0-10.24-4.5056-10.24-10.24s4.5056-10.24 10.24-10.24h527.36c5.7344 0 10.24 4.5056 10.24 10.24s-4.7104 10.24-10.24 10.24zM512 852.1728c-75.3664 0-148.2752-31.5392-199.8848-86.6304-3.6864-3.8912-3.6864-10.0352 0-13.9264 51.6096-55.0912 124.5184-86.6304 199.8848-86.6304s148.2752 31.5392 199.8848 86.6304c3.6864 3.8912 3.6864 10.0352 0 13.9264-51.6096 55.0912-124.5184 86.6304-199.8848 86.6304z m-178.176-93.7984c47.7184 47.3088 110.592 73.3184 178.176 73.3184s130.4576-26.0096 178.176-73.3184c-47.7184-47.3088-110.592-73.3184-178.176-73.3184s-130.4576 26.0096-178.176 73.3184z" fill="#1C1D21" p-id="12817"></path><path d="M888.0128 345.088m-25.6 0a25.6 25.6 0 1 0 51.2 0 25.6 25.6 0 1 0-51.2 0Z" fill="#FF8939" p-id="12818"></path><path d="M824.1152 467.3536m-25.6 0a25.6 25.6 0 1 0 51.2 0 25.6 25.6 0 1 0-51.2 0Z" fill="#FF8939" p-id="12819"></path><path d="M843.9808 254.976m-25.6 0a25.6 25.6 0 1 0 51.2 0 25.6 25.6 0 1 0-51.2 0Z" fill="#FF8939" p-id="12820"></path><path d="M888.0128 380.7232c-19.6608 0-35.84-15.9744-35.84-35.84S868.352 309.248 888.0128 309.248s35.84 15.9744 35.84 35.84-16.1792 35.6352-35.84 35.6352z m0-50.9952c-8.3968 0-15.36 6.7584-15.36 15.36s6.7584 15.36 15.36 15.36 15.36-6.7584 15.36-15.36-6.9632-15.36-15.36-15.36zM824.1152 503.1936c-19.6608 0-35.84-15.9744-35.84-35.84s15.9744-35.84 35.84-35.84c19.6608 0 35.84 15.9744 35.84 35.84s-16.1792 35.84-35.84 35.84z m0-51.2c-8.3968 0-15.36 6.7584-15.36 15.36 0 8.3968 6.7584 15.36 15.36 15.36s15.36-6.7584 15.36-15.36c0-8.3968-6.9632-15.36-15.36-15.36zM843.9808 290.6112c-19.6608 0-35.84-15.9744-35.84-35.84s15.9744-35.84 35.84-35.84c19.6608 0 35.84 15.9744 35.84 35.84s-15.9744 35.84-35.84 35.84z m0-50.9952c-8.3968 0-15.36 6.7584-15.36 15.36s6.7584 15.36 15.36 15.36 15.36-6.7584 15.36-15.36-6.7584-15.36-15.36-15.36z" fill="#1C1D21" p-id="12821"></path><path d="M862.4128 355.328h-150.7328c-5.7344 0-10.24-4.5056-10.24-10.24s4.5056-10.24 10.24-10.24h150.7328c5.7344 0 10.24 4.5056 10.24 10.24s-4.5056 10.24-10.24 10.24z" fill="#1C1D21" p-id="12822"></path><path d="M784.1792 353.0752c-5.7344 0-10.24-4.5056-10.24-10.24v-87.8592c0-5.7344 4.5056-10.24 10.24-10.24h34.4064c5.7344 0 10.24 4.5056 10.24 10.24s-4.5056 10.24-10.24 10.24h-24.1664v77.6192c0 5.5296-4.5056 10.24-10.24 10.24zM824.1152 451.9936c-5.7344 0-10.24-4.5056-10.24-10.24v-96.8704c0-5.7344 4.5056-10.24 10.24-10.24s10.24 4.5056 10.24 10.24v96.8704c0 5.7344-4.5056 10.24-10.24 10.24z" fill="#1C1D21" p-id="12823"></path><path d="M135.9872 345.088m-25.6 0a25.6 25.6 0 1 0 51.2 0 25.6 25.6 0 1 0-51.2 0Z" fill="#FF8939" p-id="12824"></path><path d="M199.8848 467.3536m-25.6 0a25.6 25.6 0 1 0 51.2 0 25.6 25.6 0 1 0-51.2 0Z" fill="#FF8939" p-id="12825"></path><path d="M180.0192 254.976m-25.6 0a25.6 25.6 0 1 0 51.2 0 25.6 25.6 0 1 0-51.2 0Z" fill="#FF8939" p-id="12826"></path><path d="M135.9872 380.7232c-19.6608 0-35.84-15.9744-35.84-35.84S116.3264 309.248 135.9872 309.248s35.84 15.9744 35.84 35.84-16.1792 35.6352-35.84 35.6352z m0-50.9952c-8.3968 0-15.36 6.7584-15.36 15.36s6.7584 15.36 15.36 15.36 15.36-6.7584 15.36-15.36-6.9632-15.36-15.36-15.36zM199.8848 503.1936c-19.6608 0-35.84-15.9744-35.84-35.84s15.9744-35.84 35.84-35.84c19.6608 0 35.84 15.9744 35.84 35.84s-16.1792 35.84-35.84 35.84z m0-51.2c-8.3968 0-15.36 6.7584-15.36 15.36 0 8.3968 6.7584 15.36 15.36 15.36s15.36-6.7584 15.36-15.36c0-8.3968-6.9632-15.36-15.36-15.36zM180.0192 290.6112c-19.6608 0-35.84-15.9744-35.84-35.84S160.1536 219.136 180.0192 219.136c19.6608 0 35.84 15.9744 35.84 35.84s-16.1792 35.6352-35.84 35.6352z m0-50.9952c-8.3968 0-15.36 6.7584-15.36 15.36s6.7584 15.36 15.36 15.36 15.36-6.7584 15.36-15.36-6.9632-15.36-15.36-15.36z" fill="#1C1D21" p-id="12827"></path><path d="M312.32 355.328H161.5872c-5.7344 0-10.24-4.5056-10.24-10.24s4.5056-10.24 10.24-10.24h150.7328c5.7344 0 10.24 4.5056 10.24 10.24s-4.7104 10.24-10.24 10.24z" fill="#1C1D21" p-id="12828"></path><path d="M239.8208 353.0752c-5.7344 0-10.24-4.5056-10.24-10.24v-77.6192h-24.1664c-5.7344 0-10.24-4.5056-10.24-10.24s4.5056-10.24 10.24-10.24h34.4064c5.7344 0 10.24 4.5056 10.24 10.24v87.8592c0 5.5296-4.5056 10.24-10.24 10.24zM199.8848 451.9936c-5.7344 0-10.24-4.5056-10.24-10.24v-96.8704c0-5.7344 4.5056-10.24 10.24-10.24s10.24 4.5056 10.24 10.24v96.8704c0 5.7344-4.5056 10.24-10.24 10.24z" fill="#1C1D21" p-id="12829"></path><path d="M570.368 220.3648h-116.9408c-10.8544 0-19.6608-8.8064-19.6608-19.6608V144.1792c0-25.3952 20.6848-46.08 46.08-46.08h64.3072c25.3952 0 46.08 20.6848 46.08 46.08V200.704c0 10.8544-8.8064 19.6608-19.8656 19.6608z m-103.6288-35.84h90.5216v-45.056c0-3.072-2.4576-5.5296-5.5296-5.5296h-79.4624c-3.072 0-5.5296 2.4576-5.5296 5.5296v45.056z" fill="#C67552" p-id="12830"></path><path d="M570.368 230.6048h-116.9408c-16.5888 0-29.9008-13.5168-29.9008-29.9008V144.1792c0-31.1296 25.1904-56.32 56.32-56.32h64.3072c31.1296 0 56.32 25.1904 56.32 56.32V200.704c0 16.384-13.5168 29.9008-30.1056 29.9008z m-90.5216-122.2656c-19.6608 0-35.84 16.1792-35.84 35.84V200.704c0 5.3248 4.3008 9.4208 9.4208 9.4208h116.9408c5.3248 0 9.4208-4.3008 9.4208-9.4208V144.1792c0-19.6608-16.1792-35.84-35.84-35.84h-64.1024z m77.4144 86.4256h-90.5216c-5.7344 0-10.24-4.5056-10.24-10.24v-45.056c0-8.6016 7.168-15.7696 15.7696-15.7696h79.4624c8.6016 0 15.7696 7.168 15.7696 15.7696v45.056c0 5.7344-4.5056 10.24-10.24 10.24z m-80.2816-20.48h70.0416V144.1792h-70.0416v30.1056z" fill="#1C1D21" p-id="12831"></path><path d="M670.72 455.2704h-317.44c-22.528 0-40.96-18.432-40.96-40.96v-192.9216c0-22.528 18.432-40.96 40.96-40.96h317.6448c22.528 0 40.96 18.432 40.96 40.96v192.9216c-0.2048 22.528-18.432 40.96-41.1648 40.96z" fill="#C67552" p-id="12832"></path><path d="M483.1232 465.5104h-13.1072c-5.7344 0-10.24-4.5056-10.24-10.24s4.5056-10.24 10.24-10.24h13.1072c5.7344 0 10.24 4.5056 10.24 10.24s-4.5056 10.24-10.24 10.24z" fill="#1C1D21" p-id="12833"></path><path d="M670.72 465.5104H520.192c-5.7344 0-10.24-4.5056-10.24-10.24s4.5056-10.24 10.24-10.24h150.528c16.9984 0 30.72-13.7216 30.72-30.72v-192.9216c0-16.9984-13.7216-30.72-30.72-30.72h-317.44c-16.9984 0-30.72 13.7216-30.72 30.72v192.9216c0 16.9984 13.7216 30.72 30.72 30.72h71.68c5.7344 0 10.24 4.5056 10.24 10.24s-4.5056 10.24-10.24 10.24h-71.68c-28.2624 0-51.2-22.9376-51.2-51.2v-192.9216c0-28.2624 22.9376-51.2 51.2-51.2h317.6448c28.2624 0 51.2 22.9376 51.2 51.2v192.9216c-0.2048 28.2624-23.1424 51.2-51.4048 51.2z" fill="#1C1D21" p-id="12834"></path><path d="M353.28 239.616c-5.7344 0-10.24-4.5056-10.24-10.24v-7.9872c0-5.7344 4.5056-10.24 10.24-10.24s10.24 4.5056 10.24 10.24v7.9872c0 5.7344-4.7104 10.24-10.24 10.24zM353.28 424.5504c-5.7344 0-10.24-4.5056-10.24-10.24V262.144c0-5.7344 4.5056-10.24 10.24-10.24s10.24 4.5056 10.24 10.24v152.1664c0 5.5296-4.7104 10.24-10.24 10.24z" fill="#FF9E5C" p-id="12835"></path><path d="M512 318.8736c-11.6736 0-23.3472-1.024-35.0208-3.072l-166.5024-28.672c-4.9152-0.8192-8.6016-5.12-8.6016-10.0352v-55.7056c0-28.2624 22.9376-51.2 51.2-51.2h317.6448c28.2624 0 51.2 22.9376 51.2 51.2v55.7056c0 4.9152-3.6864 9.216-8.6016 10.0352l-166.5024 28.672c-11.4688 2.048-23.1424 3.072-34.816 3.072z m-189.44-50.3808l158.1056 27.2384c20.8896 3.6864 41.984 3.6864 62.8736 0l158.1056-27.2384v-47.104c0-16.9984-13.7216-30.72-30.72-30.72H353.28c-16.9984 0-30.72 13.7216-30.72 30.72v47.104z m389.12 8.6016z" fill="#1C1D21" p-id="12836"></path><path d="M512 308.6336m-28.8768 0a28.8768 28.8768 0 1 0 57.7536 0 28.8768 28.8768 0 1 0-57.7536 0Z" fill="#FF9E5C" p-id="12837"></path><path d="M512 347.7504c-21.504 0-39.1168-17.6128-39.1168-39.1168s17.6128-39.1168 39.1168-39.1168 39.1168 17.6128 39.1168 39.1168-17.6128 39.1168-39.1168 39.1168z m0-57.5488c-10.24 0-18.6368 8.3968-18.6368 18.6368s8.3968 18.6368 18.6368 18.6368 18.6368-8.3968 18.6368-18.6368-8.3968-18.6368-18.6368-18.6368z" fill="#1C1D21" p-id="12838"></path></svg>