<svg xmlns="http://www.w3.org/2000/svg" viewBox="0 0 1024 1024" version="1.1"><path d="M512 512m-501.76 0a501.76 501.76 0 1 0 1003.52 0 501.76 501.76 0 1 0-1003.52 0Z" fill="#508DEF" p-id="9264"></path><path d="M667.4432 862.6176H356.5568c-22.528 0-40.96-18.432-40.96-40.96V202.752c0-22.528 18.432-40.96 40.96-40.96h310.8864c22.528 0 40.96 18.432 40.96 40.96v618.9056c0 22.528-18.2272 40.96-40.96 40.96z" fill="#E0E0E0" p-id="9265"></path><path d="M356.5568 759.6032V247.1936c0-11.264 9.216-20.48 20.48-20.48h269.9264c11.264 0 20.48 9.216 20.48 20.48V759.808c0 11.264-9.216 20.48-20.48 20.48H377.0368c-11.264-0.2048-20.48-9.4208-20.48-20.6848z" fill="#ABD1FF" p-id="9266"></path><path d="M397.5168 611.5328c-5.7344 0-10.24-4.5056-10.24-10.24v-9.6256c0-5.7344 4.5056-10.24 10.24-10.24s10.24 4.5056 10.24 10.24v9.6256c0 5.5296-4.7104 10.24-10.24 10.24zM397.5168 749.3632c-5.7344 0-10.24-4.5056-10.24-10.24v-85.1968c0-5.7344 4.5056-10.24 10.24-10.24s10.24 4.5056 10.24 10.24v85.1968c0 5.7344-4.7104 10.24-10.24 10.24z" fill="#DCFDFF" p-id="9267"></path><path d="M512 1024c-136.8064 0-265.4208-53.248-362.0864-149.9136C53.248 777.4208 0 648.8064 0 512S53.248 246.5792 149.9136 149.9136C246.5792 53.248 375.1936 0 512 0s265.4208 53.248 362.0864 149.9136C970.752 246.5792 1024 375.1936 1024 512s-53.248 265.4208-149.9136 362.0864C777.4208 970.752 648.8064 1024 512 1024z m0-1003.52C241.0496 20.48 20.48 241.0496 20.48 512s220.5696 491.52 491.52 491.52 491.52-220.5696 491.52-491.52S782.9504 20.48 512 20.48z" fill="#1C1D21" p-id="9268"></path><path d="M667.4432 872.8576H356.5568c-28.2624 0-51.2-22.9376-51.2-51.2V540.8768c0-5.7344 4.5056-10.24 10.24-10.24s10.24 4.5056 10.24 10.24v280.7808c0 16.9984 13.7216 30.72 30.72 30.72h310.8864c16.9984 0 30.72-13.7216 30.72-30.72V540.8768c0-5.7344 4.5056-10.24 10.24-10.24s10.24 4.5056 10.24 10.24v280.7808c0 28.2624-22.9376 51.2-51.2 51.2zM708.4032 476.16c-5.7344 0-10.24-4.5056-10.24-10.24V202.752c0-16.9984-13.7216-30.72-30.72-30.72H356.5568c-16.9984 0-30.72 13.7216-30.72 30.72v14.336c0 5.7344-4.5056 10.24-10.24 10.24s-10.24-4.5056-10.24-10.24v-14.336c0-28.2624 22.9376-51.2 51.2-51.2h310.8864c28.2624 0 51.2 22.9376 51.2 51.2v263.168c0 5.7344-4.5056 10.24-10.24 10.24zM315.5968 274.432c-5.7344 0-10.24-4.5056-10.24-10.24v-12.288c0-5.7344 4.5056-10.24 10.24-10.24s10.24 4.5056 10.24 10.24v12.288c0 5.7344-4.7104 10.24-10.24 10.24zM315.5968 476.16c-5.7344 0-10.24-4.5056-10.24-10.24v-152.7808c0-5.7344 4.5056-10.24 10.24-10.24s10.24 4.5056 10.24 10.24v152.7808c0 5.7344-4.7104 10.24-10.24 10.24z" fill="#1C1D21" p-id="9269"></path><path d="M646.9632 790.3232H377.0368c-16.9984 0-30.72-13.7216-30.72-30.72V540.8768c0-5.7344 4.5056-10.24 10.24-10.24s10.24 4.5056 10.24 10.24v218.7264c0 5.7344 4.5056 10.24 10.24 10.24h269.9264c5.7344 0 10.24-4.5056 10.24-10.24V540.8768c0-5.7344 4.5056-10.24 10.24-10.24s10.24 4.5056 10.24 10.24v218.7264c0 16.9984-13.7216 30.72-30.72 30.72zM667.4432 476.16c-5.7344 0-10.24-4.5056-10.24-10.24V247.1936c0-5.7344-4.5056-10.24-10.24-10.24H377.0368c-5.7344 0-10.24 4.5056-10.24 10.24v218.7264c0 5.7344-4.5056 10.24-10.24 10.24s-10.24-4.5056-10.24-10.24V247.1936c0-16.9984 13.7216-30.72 30.72-30.72h269.9264c16.9984 0 30.72 13.7216 30.72 30.72v218.7264c0 5.7344-4.5056 10.24-10.24 10.24z" fill="#1C1D21" p-id="9270"></path><path d="M512 1013.76c140.6976 0 267.8784-57.9584 359.0144-151.1424H152.9856C244.1216 955.8016 371.3024 1013.76 512 1013.76z" fill="#0ABFB2" p-id="9271"></path><path d="M512 1024c-139.0592 0-269.1072-54.8864-366.1824-154.2144-2.8672-2.8672-3.6864-7.3728-2.048-11.0592s5.3248-6.3488 9.4208-6.3488h717.824c4.096 0 7.7824 2.4576 9.4208 6.3488 1.6384 3.8912 0.8192 8.192-2.048 11.0592-97.28 99.328-227.328 154.2144-366.3872 154.2144zM178.176 872.8576c91.136 84.3776 208.6912 130.6624 333.824 130.6624s242.688-46.2848 333.824-130.6624H178.176z" fill="#1C1D21" p-id="9272"></path><path d="M512 821.248m-41.1648 0a41.1648 41.1648 0 1 0 82.3296 0 41.1648 41.1648 0 1 0-82.3296 0Z" fill="#FFFFFF" p-id="9273"></path><path d="M512 872.8576c-28.4672 0-51.4048-23.1424-51.4048-51.4048 0-28.4672 23.1424-51.4048 51.4048-51.4048s51.4048 23.1424 51.4048 51.4048-22.9376 51.4048-51.4048 51.4048z m0-82.5344c-16.9984 0-30.9248 13.9264-30.9248 30.9248s13.9264 30.9248 30.9248 30.9248 30.9248-13.9264 30.9248-30.9248-13.9264-30.9248-30.9248-30.9248z" fill="#1C1D21" p-id="9274"></path><path d="M133.7344 503.3984m-31.3344 0a31.3344 31.3344 0 1 0 62.6688 0 31.3344 31.3344 0 1 0-62.6688 0Z" fill="#FF8939" p-id="9275"></path><path d="M212.3776 653.9264m-31.3344 0a31.3344 31.3344 0 1 0 62.6688 0 31.3344 31.3344 0 1 0-62.6688 0Z" fill="#FF8939" p-id="9276"></path><path d="M187.8016 392.6016m-31.3344 0a31.3344 31.3344 0 1 0 62.6688 0 31.3344 31.3344 0 1 0-62.6688 0Z" fill="#FF8939" p-id="9277"></path><path d="M133.7344 544.9728c-22.9376 0-41.5744-18.6368-41.5744-41.5744s18.6368-41.5744 41.5744-41.5744c22.9376 0 41.5744 18.6368 41.5744 41.5744s-18.6368 41.5744-41.5744 41.5744z m0-62.6688c-11.6736 0-21.0944 9.4208-21.0944 21.0944 0 11.6736 9.4208 21.0944 21.0944 21.0944s21.0944-9.4208 21.0944-21.0944c0-11.6736-9.4208-21.0944-21.0944-21.0944zM212.3776 695.7056c-22.9376 0-41.5744-18.6368-41.5744-41.5744s18.6368-41.5744 41.5744-41.5744c22.9376 0 41.5744 18.6368 41.5744 41.5744s-18.6368 41.5744-41.5744 41.5744z m0-62.8736c-11.6736 0-21.0944 9.4208-21.0944 21.0944 0 11.6736 9.4208 21.0944 21.0944 21.0944S233.472 665.6 233.472 653.9264c0-11.6736-9.4208-21.0944-21.0944-21.0944zM187.8016 434.176c-22.9376 0-41.5744-18.6368-41.5744-41.5744s18.6368-41.5744 41.5744-41.5744c22.9376 0 41.5744 18.6368 41.5744 41.5744S210.7392 434.176 187.8016 434.176z m0-62.8736c-11.6736 0-21.0944 9.4208-21.0944 21.0944 0 11.6736 9.4208 21.0944 21.0944 21.0944s21.0944-9.4208 21.0944-21.0944c0-11.4688-9.4208-21.0944-21.0944-21.0944zM515.6864 204.8h-7.5776c-5.7344 0-10.24-4.5056-10.24-10.24s4.5056-10.24 10.24-10.24h7.5776c5.7344 0 10.24 4.5056 10.24 10.24s-4.5056 10.24-10.24 10.24zM555.6224 204.8h-2.048c-5.7344 0-10.24-4.5056-10.24-10.24s4.5056-10.24 10.24-10.24h2.048c5.7344 0 10.24 4.5056 10.24 10.24s-4.5056 10.24-10.24 10.24z" fill="#1C1D21" p-id="9278"></path><path d="M414.1056 513.6384H165.0688c-5.7344 0-10.24-4.5056-10.24-10.24s4.5056-10.24 10.24-10.24h249.0368c5.7344 0 10.24 4.5056 10.24 10.24s-4.5056 10.24-10.24 10.24z" fill="#1C1D21" p-id="9279"></path><path d="M261.5296 510.976c-5.7344 0-10.24-4.5056-10.24-10.24v-97.8944H219.136c-5.7344 0-10.24-4.5056-10.24-10.24s4.5056-10.24 10.24-10.24h42.3936c5.7344 0 10.24 4.5056 10.24 10.24v108.1344c0 5.5296-4.7104 10.24-10.24 10.24zM212.3776 632.832c-5.7344 0-10.24-4.5056-10.24-10.24v-119.1936c0-5.7344 4.5056-10.24 10.24-10.24s10.24 4.5056 10.24 10.24V622.592c0 5.7344-4.7104 10.24-10.24 10.24z" fill="#1C1D21" p-id="9280"></path><path d="M890.2656 503.3984m-31.3344 0a31.3344 31.3344 0 1 0 62.6688 0 31.3344 31.3344 0 1 0-62.6688 0Z" fill="#FF8939" p-id="9281"></path><path d="M811.6224 653.9264m-31.3344 0a31.3344 31.3344 0 1 0 62.6688 0 31.3344 31.3344 0 1 0-62.6688 0Z" fill="#FF8939" p-id="9282"></path><path d="M836.1984 392.6016m-31.3344 0a31.3344 31.3344 0 1 0 62.6688 0 31.3344 31.3344 0 1 0-62.6688 0Z" fill="#FF8939" p-id="9283"></path><path d="M890.2656 544.9728c-22.9376 0-41.5744-18.6368-41.5744-41.5744s18.6368-41.5744 41.5744-41.5744 41.5744 18.6368 41.5744 41.5744-18.6368 41.5744-41.5744 41.5744z m0-62.6688c-11.6736 0-21.0944 9.4208-21.0944 21.0944 0 11.6736 9.4208 21.0944 21.0944 21.0944s21.0944-9.4208 21.0944-21.0944c0.2048-11.6736-9.4208-21.0944-21.0944-21.0944zM811.6224 695.7056c-22.9376 0-41.5744-18.6368-41.5744-41.5744s18.6368-41.5744 41.5744-41.5744c22.9376 0 41.5744 18.6368 41.5744 41.5744s-18.6368 41.5744-41.5744 41.5744z m0-62.8736c-11.6736 0-21.0944 9.4208-21.0944 21.0944 0 11.6736 9.4208 21.0944 21.0944 21.0944s21.0944-9.4208 21.0944-21.0944c0.2048-11.6736-9.4208-21.0944-21.0944-21.0944zM836.1984 434.176c-22.9376 0-41.5744-18.6368-41.5744-41.5744s18.6368-41.5744 41.5744-41.5744c22.9376 0 41.5744 18.6368 41.5744 41.5744s-18.6368 41.5744-41.5744 41.5744z m0-62.8736c-11.6736 0-21.0944 9.4208-21.0944 21.0944 0 11.6736 9.4208 21.0944 21.0944 21.0944s21.0944-9.4208 21.0944-21.0944c0.2048-11.4688-9.4208-21.0944-21.0944-21.0944z" fill="#1C1D21" p-id="9284"></path><path d="M858.9312 513.6384H609.8944c-5.7344 0-10.24-4.5056-10.24-10.24s4.5056-10.24 10.24-10.24h249.0368c5.7344 0 10.24 4.5056 10.24 10.24s-4.5056 10.24-10.24 10.24z" fill="#1C1D21" p-id="9285"></path><path d="M762.4704 510.976c-5.7344 0-10.24-4.5056-10.24-10.24v-108.1344c0-5.7344 4.5056-10.24 10.24-10.24H804.864c5.7344 0 10.24 4.5056 10.24 10.24s-4.5056 10.24-10.24 10.24h-32.1536v97.8944c0 5.5296-4.5056 10.24-10.24 10.24zM811.6224 632.832c-5.7344 0-10.24-4.5056-10.24-10.24v-119.1936c0-5.7344 4.5056-10.24 10.24-10.24s10.24 4.5056 10.24 10.24V622.592c0 5.7344-4.5056 10.24-10.24 10.24z" fill="#1C1D21" p-id="9286"></path><path d="M589.4144 448.1024h-154.8288c-11.264 0-20.48 9.216-20.48 20.48v69.632c0 11.264 9.216 20.48 20.48 20.48h25.1904v71.0656l60.416-71.0656h69.2224c11.264 0 20.48-9.216 20.48-20.48v-69.632c0-11.264-9.216-20.48-20.48-20.48z" fill="#FFFFFF" p-id="9287"></path><path d="M459.776 640c-1.2288 0-2.4576-0.2048-3.4816-0.6144-4.096-1.4336-6.7584-5.3248-6.7584-9.6256v-60.8256h-14.9504c-16.9984 0-30.72-13.7216-30.72-30.72v-69.632c0-16.9984 13.7216-30.72 30.72-30.72h154.8288c16.9984 0 30.72 13.7216 30.72 30.72v69.632c0 16.9984-13.7216 30.72-30.72 30.72h-64.512l-57.344 67.3792c-2.048 2.4576-4.9152 3.6864-7.7824 3.6864z m-25.1904-181.6576c-5.7344 0-10.24 4.5056-10.24 10.24v69.632c0 5.7344 4.5056 10.24 10.24 10.24h25.1904c5.7344 0 10.24 4.5056 10.24 10.24v43.2128l42.3936-49.7664c1.8432-2.2528 4.7104-3.6864 7.7824-3.6864h69.2224c5.7344 0 10.24-4.5056 10.24-10.24v-69.632c0-5.7344-4.5056-10.24-10.24-10.24h-154.8288z" fill="#1C1D21" p-id="9288"></path><path d="M458.3424 507.2896c0-7.3728 5.12-12.6976 12.0832-12.6976 6.9632 0 11.8784 5.3248 11.8784 12.6976 0 7.168-4.7104 12.6976-12.0832 12.6976-7.168 0-11.8784-5.5296-11.8784-12.6976zM499.9168 507.2896c0-7.3728 5.12-12.6976 12.0832-12.6976 6.9632 0 11.8784 5.3248 11.8784 12.6976 0 7.168-4.7104 12.6976-12.0832 12.6976-6.9632 0-11.8784-5.5296-11.8784-12.6976zM541.696 507.2896c0-7.3728 5.12-12.6976 12.0832-12.6976 6.9632 0 11.8784 5.3248 11.8784 12.6976 0 7.168-4.7104 12.6976-12.0832 12.6976-6.9632 0-11.8784-5.5296-11.8784-12.6976z" p-id="9289"></path></svg>