<svg xmlns="http://www.w3.org/2000/svg" viewBox="0 0 1024 1024" version="1.1"><path d="M512 512m-501.76 0a501.76 501.76 0 1 0 1003.52 0 501.76 501.76 0 1 0-1003.52 0Z" fill="#8CEEF9" p-id="10248"></path><path d="M765.5424 926.72v-83.1488h40.1408v73.5232M218.3168 918.9376v-75.3664h40.1408v83.1488" fill="#FFC5B3" p-id="10249"></path><path d="M482.0992 270.9504V120.2176h59.5968v212.5824c0 7.7824-6.144 13.9264-13.9264 13.9264h-31.744c-7.7824 0-13.9264-6.144-13.9264-13.9264v-61.8496z" fill="#FFECE9" p-id="10250"></path><path d="M512 1024c-136.8064 0-265.4208-53.248-362.0864-149.9136C53.248 777.4208 0 648.8064 0 512S53.248 246.5792 149.9136 149.9136C246.5792 53.248 375.1936 0 512 0s265.4208 53.248 362.0864 149.9136C970.752 246.5792 1024 375.1936 1024 512s-53.248 265.4208-149.9136 362.0864C777.4208 970.752 648.8064 1024 512 1024z m0-1003.52C241.0496 20.48 20.48 241.0496 20.48 512s220.5696 491.52 491.52 491.52 491.52-220.5696 491.52-491.52S782.9504 20.48 512 20.48z" fill="#1C1D21" p-id="10251"></path><path d="M512 1024c-103.424 0-203.1616-30.72-288.1536-88.8832-3.6864-2.4576-5.3248-7.168-4.096-11.4688 1.2288-4.3008 5.3248-7.168 9.8304-7.168h564.8384c4.5056 0 8.3968 2.8672 9.8304 7.168s-0.2048 9.0112-4.096 11.4688C715.1616 993.28 615.424 1024 512 1024z m-247.1936-87.04c74.9568 43.6224 159.744 66.56 247.1936 66.56s172.2368-22.9376 247.1936-66.56H264.8064z" fill="#1C1D21" p-id="10252"></path><path d="M482.0992 120.2176h59.5968v101.7856h-59.5968z" fill="#FF8939" p-id="10253"></path><path d="M527.9744 356.9664h-31.744c-13.312 0-24.1664-10.8544-24.1664-24.1664V120.2176c0-5.7344 4.5056-10.24 10.24-10.24h59.5968c5.7344 0 10.24 4.5056 10.24 10.24v212.5824c0 13.312-10.8544 24.1664-24.1664 24.1664zM492.3392 130.4576v202.3424c0 2.048 1.6384 3.6864 3.6864 3.6864h31.744c2.048 0 3.6864-1.6384 3.6864-3.6864V130.4576h-39.1168z" fill="#1C1D21" p-id="10254"></path><path d="M482.0992 297.984v34.816c0 7.7824 6.144 13.9264 13.9264 13.9264h31.744c7.7824 0 13.9264-6.144 13.9264-13.9264v-34.816h-59.5968z" fill="#AAADAD" p-id="10255"></path><path d="M527.9744 356.9664h-31.744c-13.312 0-24.1664-10.8544-24.1664-24.1664v-34.816c0-5.7344 4.5056-10.24 10.24-10.24h59.5968c5.7344 0 10.24 4.5056 10.24 10.24v34.816c0 13.312-10.8544 24.1664-24.1664 24.1664z m-35.6352-48.7424v24.576c0 2.048 1.6384 3.6864 3.6864 3.6864h31.744c2.048 0 3.6864-1.6384 3.6864-3.6864v-24.576h-39.1168zM541.9008 232.2432h-59.5968c-5.7344 0-10.24-4.5056-10.24-10.24V120.2176c0-5.7344 4.5056-10.24 10.24-10.24h59.5968c5.7344 0 10.24 4.5056 10.24 10.24v101.7856c0 5.5296-4.7104 10.24-10.24 10.24z m-49.5616-20.48h39.1168V130.4576h-39.1168v81.3056z" fill="#1C1D21" p-id="10256"></path><path d="M541.9008 232.2432h-10.6496c-5.7344 0-10.24-4.5056-10.24-10.24s4.5056-10.24 10.24-10.24h10.6496c5.7344 0 10.24 4.5056 10.24 10.24s-4.7104 10.24-10.24 10.24zM564.224 130.4576h-104.6528c-5.7344 0-10.24-4.5056-10.24-10.24s4.5056-10.24 10.24-10.24h104.6528c5.7344 0 10.24 4.5056 10.24 10.24s-4.5056 10.24-10.24 10.24zM551.936 63.6928h-79.872c-5.7344 0-10.24-4.5056-10.24-10.24s4.5056-10.24 10.24-10.24h79.872c5.7344 0 10.24 4.5056 10.24 10.24s-4.5056 10.24-10.24 10.24z" fill="#1C1D21" p-id="10257"></path><path d="M489.472 926.72v-103.8336h45.056v103.8336" fill="#FFC5B3" p-id="10258"></path><path d="M534.528 936.96c-5.7344 0-10.24-4.5056-10.24-10.24v-93.5936h-24.576v93.5936c0 5.7344-4.5056 10.24-10.24 10.24s-10.24-4.5056-10.24-10.24v-103.8336c0-5.7344 4.5056-10.24 10.24-10.24h45.056c5.7344 0 10.24 4.5056 10.24 10.24v103.8336c0 5.7344-4.5056 10.24-10.24 10.24z" fill="#1C1D21" p-id="10259"></path><path d="M575.488 795.0336v-186.5728c0-60.0064-14.1312-119.3984-40.96-173.056-9.216-18.432-35.4304-18.432-44.6464 0-27.0336 53.6576-40.96 113.0496-40.96 173.056v186.5728c0 35.0208 28.4672 63.488 63.488 63.488 34.6112 0 63.0784-28.4672 63.0784-63.488z" fill="#FF9E5C" p-id="10260"></path><path d="M512 868.7616c-40.5504 0-73.728-32.9728-73.728-73.728v-186.5728c0-30.9248 3.6864-61.6448 10.8544-91.7504 1.2288-5.5296 6.7584-8.8064 12.288-7.5776 5.5296 1.2288 8.8064 6.7584 7.5776 12.288-6.7584 28.4672-10.24 57.7536-10.24 87.04v186.5728c0 29.2864 23.7568 53.248 53.248 53.248s53.248-23.7568 53.248-53.248v-186.5728c0-58.1632-13.7216-116.5312-39.936-168.5504-2.4576-5.12-0.4096-11.264 4.5056-13.7216 5.12-2.4576 11.264-0.4096 13.7216 4.5056 27.648 54.8864 42.1888 116.3264 42.1888 177.5616v186.5728c0 40.7552-33.1776 73.9328-73.728 73.9328z" fill="#1C1D21" p-id="10261"></path><path d="M469.1968 494.3872c-1.024 0-2.2528-0.2048-3.2768-0.6144-5.3248-1.8432-8.192-7.5776-6.3488-12.9024 1.2288-3.8912 2.6624-7.7824 4.096-11.6736 2.048-5.3248 7.9872-7.9872 13.1072-5.9392 5.3248 2.048 7.9872 7.9872 5.9392 13.1072-1.4336 3.6864-2.6624 7.3728-3.8912 11.0592-1.4336 4.3008-5.3248 6.9632-9.6256 6.9632zM486.4 452.1984c-1.4336 0-3.072-0.4096-4.5056-1.024-5.12-2.4576-7.168-8.6016-4.9152-13.7216 1.024-2.2528 2.2528-4.5056 3.2768-6.7584 2.4576-5.12 8.6016-7.168 13.7216-4.5056s7.168 8.6016 4.5056 13.7216c-1.024 2.048-2.048 4.3008-3.072 6.3488-1.4336 3.6864-5.12 5.9392-9.0112 5.9392z" fill="#1C1D21" p-id="10262"></path><path d="M512 858.5216v-35.4304l-60.2112-162.6112c-20.8896-56.1152-74.3424-93.3888-134.3488-93.3888 41.7792 26.8288 66.9696 73.1136 66.9696 122.6752V731.136c0 13.7216 2.2528 27.2384 6.5536 40.1408v0.2048c17.2032 51.6096 65.9456 87.04 121.0368 87.04z" fill="#0ABFB2" p-id="10263"></path><path d="M512 868.7616c-59.5968 0-112.2304-37.888-130.8672-94.4128-4.7104-14.1312-6.9632-28.672-6.9632-43.4176v-41.3696c0-46.2848-23.3472-88.8832-62.2592-114.0736-3.8912-2.4576-5.5296-7.168-4.3008-11.4688 1.2288-4.3008 5.3248-7.3728 9.8304-7.3728 63.8976 0 121.6512 40.3456 143.9744 100.1472l60.2112 162.6112c0.4096 1.2288 0.6144 2.2528 0.6144 3.4816v35.4304c0 5.7344-4.5056 10.4448-10.24 10.4448z m-160.768-287.3344c27.648 28.672 43.2128 66.9696 43.2128 107.9296v41.3696c0 12.4928 2.048 24.9856 5.9392 36.864 14.9504 45.056 54.8864 76.1856 101.1712 80.0768v-22.9376l-59.5968-160.9728c-14.9504-40.96-49.5616-71.4752-90.7264-82.3296z" fill="#1C1D21" p-id="10264"></path><path d="M425.3696 722.944c-5.7344 0-10.24-4.5056-10.24-10.24v-5.7344c0-5.7344 4.5056-10.24 10.24-10.24s10.24 4.5056 10.24 10.24v5.7344c0 5.5296-4.7104 10.24-10.24 10.24zM459.776 810.3936c-2.048 0-4.3008-0.6144-6.144-2.048-15.7696-11.8784-27.4432-28.0576-33.5872-46.8992v-0.2048c-1.6384-4.9152-2.8672-9.8304-3.6864-14.9504-0.8192-5.5296 2.8672-10.8544 8.3968-11.6736 5.5296-0.8192 10.8544 2.8672 11.6736 8.3968 0.6144 3.8912 1.6384 7.9872 2.8672 11.8784v0.2048c4.9152 14.9504 14.1312 27.648 26.624 37.0688 4.5056 3.4816 5.3248 9.8304 2.048 14.336-2.048 2.4576-5.12 3.8912-8.192 3.8912z" fill="#8CEEF9" p-id="10265"></path><path d="M512 858.5216v-35.4304l-60.2112-162.6112c-20.8896-56.1152-74.3424-93.3888-134.3488-93.3888 41.7792 26.8288 66.9696 73.1136 66.9696 122.6752V731.136c0 13.7216 2.2528 27.2384 6.5536 40.1408v0.2048c17.2032 51.6096 65.9456 87.04 121.0368 87.04z" fill="#0ABFB2" p-id="10266"></path><path d="M512 868.7616c-59.5968 0-112.2304-37.888-130.8672-94.4128-4.7104-14.1312-6.9632-28.672-6.9632-43.4176v-41.3696c0-46.2848-23.3472-88.8832-62.2592-114.0736-3.8912-2.4576-5.5296-7.168-4.3008-11.4688 1.2288-4.3008 5.3248-7.3728 9.8304-7.3728 63.8976 0 121.6512 40.3456 143.9744 100.1472l60.2112 162.6112c0.4096 1.2288 0.6144 2.2528 0.6144 3.4816v35.4304c0 5.7344-4.5056 10.4448-10.24 10.4448z m-160.768-287.3344c27.648 28.672 43.2128 66.9696 43.2128 107.9296v41.3696c0 12.4928 2.048 24.9856 5.9392 36.864 14.9504 45.056 54.8864 76.1856 101.1712 80.0768v-22.9376l-59.5968-160.9728c-14.9504-40.96-49.5616-71.4752-90.7264-82.3296z" fill="#1C1D21" p-id="10267"></path><path d="M425.3696 722.944c-5.7344 0-10.24-4.5056-10.24-10.24v-5.7344c0-5.7344 4.5056-10.24 10.24-10.24s10.24 4.5056 10.24 10.24v5.7344c0 5.5296-4.7104 10.24-10.24 10.24zM459.776 810.3936c-2.048 0-4.3008-0.6144-6.144-2.048-15.7696-11.8784-27.4432-28.0576-33.5872-46.8992v-0.2048c-1.6384-4.9152-2.8672-9.8304-3.6864-14.9504-0.8192-5.5296 2.8672-10.8544 8.3968-11.6736 5.5296-0.8192 10.8544 2.8672 11.6736 8.3968 0.6144 3.8912 1.6384 7.9872 2.8672 11.8784v0.2048c4.9152 14.9504 14.1312 27.648 26.624 37.0688 4.5056 3.4816 5.3248 9.8304 2.048 14.336-2.048 2.4576-5.12 3.8912-8.192 3.8912z" fill="#8CEEF9" p-id="10268"></path><path d="M512 858.5216v-35.4304l60.2112-162.6112c20.8896-56.1152 74.3424-93.3888 134.3488-93.3888-41.7792 26.8288-66.9696 73.1136-66.9696 122.6752V731.136c0 13.7216-2.2528 27.2384-6.5536 40.1408v0.2048c-17.2032 51.6096-65.9456 87.04-121.0368 87.04z" fill="#0ABFB2" p-id="10269"></path><path d="M512 868.7616c-5.7344 0-10.24-4.5056-10.24-10.24v-35.4304c0-1.2288 0.2048-2.4576 0.6144-3.4816l60.2112-162.6112c22.1184-59.8016 80.0768-100.1472 143.9744-100.1472 4.5056 0 8.6016 3.072 9.8304 7.3728 1.2288 4.3008-0.4096 9.0112-4.3008 11.4688-38.912 24.9856-62.2592 67.584-62.2592 114.0736V731.136c0 14.7456-2.2528 29.2864-6.9632 43.4176-18.6368 56.1152-71.2704 94.208-130.8672 94.208z m10.24-44.032v22.9376c46.4896-4.096 86.2208-35.2256 101.1712-80.0768 4.096-12.0832 5.9392-24.576 5.9392-37.0688v-41.3696c0-40.96 15.7696-79.2576 43.2128-107.9296-41.1648 10.8544-75.5712 41.3696-90.9312 82.3296l-59.392 161.1776z" fill="#1C1D21" p-id="10270"></path><path d="M598.6304 722.944c-5.7344 0-10.24-4.5056-10.24-10.24v-5.7344c0-5.7344 4.5056-10.24 10.24-10.24s10.24 4.5056 10.24 10.24v5.7344c0 5.5296-4.5056 10.24-10.24 10.24zM564.224 810.3936c-3.072 0-6.144-1.4336-8.192-4.096-3.4816-4.5056-2.4576-10.8544 2.048-14.336 12.4928-9.4208 21.7088-22.1184 26.624-37.0688v-0.2048c1.2288-3.8912 2.2528-7.7824 2.8672-11.6736 0.8192-5.5296 6.144-9.4208 11.6736-8.3968 5.5296 0.8192 9.4208 6.144 8.3968 11.6736-0.8192 5.12-2.048 10.0352-3.6864 14.9504v0.2048c-6.144 18.8416-17.8176 35.0208-33.5872 46.8992-1.8432 1.2288-4.096 2.048-6.144 2.048z" fill="#8CEEF9" p-id="10271"></path><path d="M488.0384 768.2048c-5.7344 0-10.24-4.5056-10.24-10.24v-105.0624c0-5.7344 4.5056-10.24 10.24-10.24s10.24 4.5056 10.24 10.24v105.0624c0 5.7344-4.7104 10.24-10.24 10.24zM488.0384 613.9904c-5.7344 0-10.24-4.5056-10.24-10.24v-12.9024c0-5.7344 4.5056-10.24 10.24-10.24s10.24 4.5056 10.24 10.24v12.9024c0 5.7344-4.7104 10.24-10.24 10.24zM488.0384 569.344c-5.7344 0-10.24-4.5056-10.24-10.24v-8.8064c0-5.7344 4.5056-10.24 10.24-10.24s10.24 4.5056 10.24 10.24v8.8064c0 5.7344-4.7104 10.24-10.24 10.24zM535.9616 768.2048c-5.7344 0-10.24-4.5056-10.24-10.24v-90.9312c0-5.7344 4.5056-10.24 10.24-10.24s10.24 4.5056 10.24 10.24v90.9312c0 5.7344-4.5056 10.24-10.24 10.24zM535.9616 644.3008c-5.7344 0-10.24-4.5056-10.24-10.24v-10.8544c0-5.7344 4.5056-10.24 10.24-10.24s10.24 4.5056 10.24 10.24v10.8544c0 5.7344-4.5056 10.24-10.24 10.24zM535.9616 602.3168c-5.7344 0-10.24-4.5056-10.24-10.24v-31.5392c0-5.7344 4.5056-10.24 10.24-10.24s10.24 4.5056 10.24 10.24v31.5392c0 5.7344-4.5056 10.24-10.24 10.24zM238.3872 560.7424c-5.7344 0-10.24-4.5056-10.24-10.24v-8.3968c0-15.1552-11.6736-29.9008-30.9248-39.7312-5.12-2.4576-7.168-8.6016-4.5056-13.7216 2.4576-5.12 8.6016-7.168 13.7216-4.5056 13.9264 6.9632 24.7808 16.1792 32.1536 26.624 7.3728-10.4448 18.2272-19.6608 32.1536-26.624 5.12-2.4576 11.264-0.4096 13.7216 4.5056 2.4576 5.12 0.4096 11.264-4.5056 13.7216-19.456 9.6256-30.9248 24.576-30.9248 39.7312v8.3968c-0.4096 5.5296-4.9152 10.24-10.6496 10.24zM258.4576 936.96c-5.7344 0-10.24-4.5056-10.24-10.24v-72.9088h-19.6608v65.1264c0 5.7344-4.5056 10.24-10.24 10.24s-10.24-4.5056-10.24-10.24v-75.3664c0-5.7344 4.5056-10.24 10.24-10.24h40.1408c5.7344 0 10.24 4.5056 10.24 10.24v83.1488c0 5.7344-4.5056 10.24-10.24 10.24z" fill="#1C1D21" p-id="10272"></path><path d="M282.4192 824.1152v-168.96c0-41.5744-9.8304-82.7392-28.4672-119.808-6.3488-12.6976-24.576-12.6976-30.9248 0-18.8416 37.0688-28.4672 78.2336-28.4672 119.808v168.96c0 24.1664 19.6608 43.8272 43.8272 43.8272 24.3712 0.2048 44.032-19.456 44.032-43.8272z" fill="#0ABFB2" p-id="10273"></path><path d="M238.3872 878.3872c-29.9008 0-54.0672-24.3712-54.0672-54.0672V655.36c0-43.008 10.24-86.016 29.4912-124.5184 4.7104-9.4208 14.1312-15.1552 24.576-15.1552s19.8656 5.7344 24.576 15.1552c19.2512 38.5024 29.4912 81.5104 29.4912 124.5184v168.96c0.2048 29.696-24.1664 54.0672-54.0672 54.0672z m0-342.4256c-1.2288 0-4.5056 0.4096-6.3488 3.8912-17.8176 35.6352-27.2384 75.3664-27.2384 115.3024v168.96c0 18.6368 15.1552 33.5872 33.5872 33.5872s33.5872-15.1552 33.5872-33.5872v-168.96c0-39.7312-9.4208-79.6672-27.2384-115.3024-1.6384-3.4816-4.9152-3.8912-6.3488-3.8912z" fill="#1C1D21" p-id="10274"></path><path d="M238.3872 584.704c-5.7344 0-10.24-4.5056-10.24-10.24v-106.9056c0-5.7344 4.5056-10.24 10.24-10.24s10.24 4.5056 10.24 10.24v106.9056c0 5.7344-4.5056 10.24-10.24 10.24zM238.3872 627.3024c-5.7344 0-10.24-4.5056-10.24-10.24v-11.6736c0-5.7344 4.5056-10.24 10.24-10.24s10.24 4.5056 10.24 10.24v11.6736c0 5.7344-4.5056 10.24-10.24 10.24zM238.3872 878.3872c-5.7344 0-10.24-4.5056-10.24-10.24V649.216c0-5.7344 4.5056-10.24 10.24-10.24s10.24 4.5056 10.24 10.24v218.9312c0 5.5296-4.5056 10.24-10.24 10.24zM785.6128 560.7424c-5.7344 0-10.24-4.5056-10.24-10.24v-8.3968c0-15.1552-11.6736-29.9008-30.9248-39.7312-5.12-2.4576-7.168-8.6016-4.5056-13.7216 2.4576-5.12 8.6016-7.168 13.7216-4.5056 13.9264 6.9632 24.7808 16.1792 32.1536 26.624 7.3728-10.4448 18.2272-19.6608 32.1536-26.624 5.12-2.4576 11.264-0.4096 13.7216 4.5056 2.4576 5.12 0.4096 11.264-4.5056 13.7216-19.456 9.6256-30.9248 24.576-30.9248 39.7312v8.3968c-0.4096 5.5296-5.12 10.24-10.6496 10.24zM765.5424 936.96c-5.7344 0-10.24-4.5056-10.24-10.24v-83.1488c0-5.7344 4.5056-10.24 10.24-10.24h40.1408c5.7344 0 10.24 4.5056 10.24 10.24v73.728c0 5.7344-4.5056 10.24-10.24 10.24s-10.24-4.5056-10.24-10.24v-63.488h-19.6608v72.9088c0 5.7344-4.7104 10.24-10.24 10.24z" fill="#1C1D21" p-id="10275"></path><path d="M829.44 824.1152v-168.96c0-41.5744-9.8304-82.7392-28.4672-119.808-6.3488-12.6976-24.576-12.6976-30.9248 0-18.6368 37.2736-28.4672 78.2336-28.4672 119.808v168.96c0 24.1664 19.6608 43.8272 43.8272 43.8272 24.3712 0.2048 44.032-19.456 44.032-43.8272z" fill="#0ABFB2" p-id="10276"></path><path d="M785.6128 878.3872c-29.9008 0-54.0672-24.3712-54.0672-54.0672V655.36c0-43.008 10.24-86.016 29.4912-124.5184 4.7104-9.4208 14.1312-15.1552 24.576-15.1552s19.8656 5.7344 24.576 15.1552C829.44 569.344 839.68 612.352 839.68 655.36v168.96c0 29.696-24.3712 54.0672-54.0672 54.0672z m0-342.4256c-1.2288 0-4.5056 0.4096-6.3488 3.8912-17.8176 35.6352-27.2384 75.3664-27.2384 115.3024v168.96c0 18.6368 15.1552 33.5872 33.5872 33.5872s33.5872-15.1552 33.5872-33.5872v-168.96c0-39.7312-9.4208-79.6672-27.2384-115.3024-1.8432-3.4816-5.12-3.8912-6.3488-3.8912z" fill="#1C1D21" p-id="10277"></path><path d="M785.6128 584.704c-5.7344 0-10.24-4.5056-10.24-10.24v-106.9056c0-5.7344 4.5056-10.24 10.24-10.24s10.24 4.5056 10.24 10.24v106.9056c0 5.7344-4.7104 10.24-10.24 10.24zM785.6128 627.3024c-5.7344 0-10.24-4.5056-10.24-10.24v-11.6736c0-5.7344 4.5056-10.24 10.24-10.24s10.24 4.5056 10.24 10.24v11.6736c0 5.7344-4.7104 10.24-10.24 10.24zM785.6128 878.3872c-5.7344 0-10.24-4.5056-10.24-10.24V649.216c0-5.7344 4.5056-10.24 10.24-10.24s10.24 4.5056 10.24 10.24v218.9312c0 5.5296-4.7104 10.24-10.24 10.24zM512 130.4576c-5.7344 0-10.24-4.5056-10.24-10.24V53.4528c0-5.7344 4.5056-10.24 10.24-10.24s10.24 4.5056 10.24 10.24v66.7648c0 5.7344-4.5056 10.24-10.24 10.24zM512 398.336c-5.7344 0-10.24-4.5056-10.24-10.24v-41.3696c0-5.7344 4.5056-10.24 10.24-10.24s10.24 4.5056 10.24 10.24v41.3696c0 5.7344-4.5056 10.24-10.24 10.24z" fill="#1C1D21" p-id="10278"></path><path d="M512 1013.76c104.8576 0 201.9328-32.1536 282.4192-87.04H229.5808C310.0672 981.6064 407.1424 1013.76 512 1013.76z" fill="#C67552" p-id="10279"></path><path d="M512 1024c-103.424 0-203.1616-30.72-288.1536-88.8832-3.6864-2.4576-5.3248-7.168-4.096-11.4688 1.2288-4.3008 5.3248-7.168 9.8304-7.168h564.8384c4.5056 0 8.3968 2.8672 9.8304 7.168s-0.2048 9.0112-4.096 11.4688C715.1616 993.28 615.424 1024 512 1024z m-247.1936-87.04c74.9568 43.6224 159.744 66.56 247.1936 66.56s172.2368-22.9376 247.1936-66.56H264.8064z" fill="#1C1D21" p-id="10280"></path></svg>