<svg xmlns="http://www.w3.org/2000/svg" viewBox="0 0 1024 1024" version="1.1"><path d="M512 512m-501.76 0a501.76 501.76 0 1 0 1003.52 0 501.76 501.76 0 1 0-1003.52 0Z" fill="#8CEEF9" p-id="11075"></path><path d="M512 1024c-136.8064 0-265.4208-53.248-362.0864-149.9136C53.248 777.4208 0 648.8064 0 512S53.248 246.5792 149.9136 149.9136C246.5792 53.248 375.1936 0 512 0s265.4208 53.248 362.0864 149.9136C970.752 246.5792 1024 375.1936 1024 512s-53.248 265.4208-149.9136 362.0864C777.4208 970.752 648.8064 1024 512 1024z m0-1003.52C241.0496 20.48 20.48 241.0496 20.48 512s220.5696 491.52 491.52 491.52 491.52-220.5696 491.52-491.52S782.9504 20.48 512 20.48z" fill="#1C1D21" p-id="11076"></path><path d="M512 641.8432m-284.4672 0a284.4672 284.4672 0 1 0 568.9344 0 284.4672 284.4672 0 1 0-568.9344 0Z" fill="#FFECE9" p-id="11077"></path><path d="M433.7664 378.6752c-4.5056 0-8.6016-2.8672-9.8304-7.3728-1.6384-5.5296 1.6384-11.0592 6.9632-12.6976 10.0352-2.8672 20.2752-5.3248 30.72-6.9632 5.5296-1.024 10.8544 2.8672 11.8784 8.3968 1.024 5.5296-2.8672 10.8544-8.3968 11.8784-9.6256 1.6384-19.2512 3.8912-28.4672 6.5536-1.024 0-1.8432 0.2048-2.8672 0.2048zM388.9152 908.6976c-1.4336 0-3.072-0.4096-4.5056-1.024-13.1072-6.3488-25.8048-13.5168-37.888-21.7088-65.1264-44.2368-109.1584-111.0016-124.1088-188.416-14.7456-77.2096 1.2288-155.8528 45.4656-220.9792 30.3104-44.8512 72.4992-80.2816 121.4464-102.8096 5.12-2.2528 11.264 0 13.5168 5.12s0 11.264-5.12 13.5168c-45.6704 20.8896-84.7872 53.8624-113.0496 95.6416-41.1648 60.6208-56.1152 133.7344-42.3936 205.6192 13.7216 71.8848 54.8864 134.144 115.5072 175.3088 11.264 7.5776 23.1424 14.5408 35.2256 20.2752 5.12 2.4576 7.168 8.6016 4.7104 13.7216-1.4336 3.4816-4.9152 5.7344-8.8064 5.7344zM471.2448 933.6832c-0.4096 0-1.024 0-1.4336-0.2048-16.9984-2.4576-33.5872-6.3488-49.9712-11.6736-5.3248-1.8432-8.192-7.5776-6.5536-12.9024 1.8432-5.3248 7.5776-8.192 12.9024-6.5536 15.1552 4.9152 30.72 8.6016 46.4896 10.8544 5.5296 0.8192 9.4208 5.9392 8.6016 11.6736-0.6144 5.12-5.12 8.8064-10.0352 8.8064zM512.6144 936.5504c-5.7344 0-10.24-4.5056-10.24-10.24s4.5056-10.24 10.24-10.24c3.8912 0 7.7824-0.2048 11.8784-0.2048 5.5296-0.2048 10.4448 4.096 10.6496 9.8304 0.2048 5.7344-4.096 10.4448-9.8304 10.6496-4.096 0.2048-8.3968 0.2048-12.6976 0.2048zM609.4848 919.3472c-4.096 0-8.192-2.6624-9.6256-6.7584-1.8432-5.3248 0.8192-11.264 6.144-13.1072 54.272-19.8656 100.352-55.7056 132.9152-103.6288 75.1616-111.0016 58.1632-263.3728-39.936-354.5088-4.096-3.8912-4.3008-10.24-0.6144-14.5408 3.8912-4.096 10.24-4.3008 14.5408-0.6144 50.9952 47.3088 83.5584 111.8208 91.7504 181.248 8.192 70.2464-9.0112 141.1072-48.7424 199.68-35.0208 51.6096-84.3776 90.112-142.9504 111.4112-1.024 0.6144-2.2528 0.8192-3.4816 0.8192zM671.5392 416.5632c-2.048 0-3.8912-0.6144-5.7344-1.8432-5.12-3.4816-10.6496-6.9632-15.9744-10.0352-18.6368-10.8544-38.5024-19.456-58.9824-25.6-5.3248-1.6384-8.3968-7.3728-6.7584-12.6976 1.6384-5.3248 7.3728-8.3968 12.6976-6.7584 22.1184 6.5536 43.4176 15.9744 63.488 27.648 5.7344 3.2768 11.4688 6.9632 17.2032 10.8544 4.7104 3.072 5.9392 9.6256 2.6624 14.1312-2.048 2.8672-5.12 4.3008-8.6016 4.3008zM553.7792 370.688c-0.4096 0-1.024 0-1.4336-0.2048-2.6624-0.4096-5.12-0.8192-7.7824-1.024-5.5296-0.6144-9.6256-5.7344-9.0112-11.4688 0.6144-5.5296 5.7344-9.6256 11.4688-9.0112 2.8672 0.4096 5.5296 0.6144 8.3968 1.024 5.5296 0.8192 9.4208 5.9392 8.6016 11.6736-0.8192 5.3248-5.12 9.0112-10.24 9.0112z" fill="#1C1D21" p-id="11078"></path><path d="M512 641.8432m-221.5936 0a221.5936 221.5936 0 1 0 443.1872 0 221.5936 221.5936 0 1 0-443.1872 0Z" fill="#508DEF" p-id="11079"></path><path d="M355.5328 561.7664c-1.8432 0-3.4816-0.4096-5.12-1.4336-4.9152-2.8672-6.5536-9.0112-3.6864-13.9264 1.024-1.6384 2.048-3.4816 3.072-5.12 3.072-4.7104 9.216-6.3488 14.1312-3.2768 4.7104 3.072 6.3488 9.216 3.2768 14.1312-1.024 1.4336-1.8432 3.072-2.6624 4.5056-2.048 3.2768-5.3248 5.12-9.0112 5.12zM356.1472 743.424c-3.4816 0-6.9632-1.8432-8.8064-5.12-17.2032-29.0816-26.2144-62.464-26.2144-96.4608 0-21.9136 3.6864-43.2128 10.8544-63.6928 1.8432-5.3248 7.7824-8.192 13.1072-6.144 5.3248 1.8432 8.192 7.7824 6.144 13.1072-6.5536 18.2272-9.8304 37.2736-9.8304 56.9344 0 30.3104 8.192 60.0064 23.3472 86.2208 2.8672 4.9152 1.2288 11.0592-3.6864 13.9264-1.4336 0.8192-3.072 1.2288-4.9152 1.2288z" fill="#ABD1FF" p-id="11080"></path><path d="M617.8816 641.8432s-0.6144 64.512-15.9744 117.1456c0 0 52.0192 20.2752 63.6928 42.8032 0 0 73.5232-64.1024 61.44-159.9488h-109.1584z" fill="#508DEF" p-id="11081"></path><path d="M496.4352 420.2496s-91.5456 2.048-146.2272 70.2464c0 0 29.9008 32.5632 67.7888 49.3568 0-0.2048 9.6256-97.28 78.4384-119.6032zM512 641.8432h-105.8816s-0.2048 75.1616 15.9744 117.1456c0 0 53.8624-25.3952 89.9072-19.0464v-98.0992zM606.0032 539.648s-46.4896 22.9376-94.0032 20.8896v-133.3248s62.0544-16.5888 94.0032 112.4352zM422.0928 758.9888s-46.8992 15.9744-63.6928 42.8032c0 0 62.8736 58.5728 131.2768 60.6208 0.2048 0-53.248-25.3952-67.584-103.424zM599.8592 758.9888s46.8992 15.9744 63.6928 42.8032c0 0-62.8736 58.5728-131.2768 60.6208-0.2048 0 53.248-25.3952 67.584-103.424z" fill="#0ABFB2" p-id="11082"></path><path d="M512 873.6768c-60.2112 0-117.1456-22.9376-160.5632-64.512-2.048-1.8432-3.072-4.5056-3.072-7.3728s1.2288-5.5296 3.072-7.3728c43.4176-41.5744 100.352-64.512 160.5632-64.512s117.1456 22.9376 160.5632 64.512c2.048 1.8432 3.072 4.5056 3.072 7.3728s-1.2288 5.5296-3.072 7.3728c-43.4176 41.5744-100.352 64.512-160.5632 64.512z m-138.24-71.8848c38.5024 33.3824 87.04 51.6096 138.24 51.6096s99.9424-18.2272 138.24-51.6096c-38.5024-33.3824-87.04-51.6096-138.24-51.6096s-99.9424 18.2272-138.24 51.6096z" fill="#1C1D21" p-id="11083"></path><path d="M512 873.6768c-5.7344 0-10.24-4.5056-10.24-10.24V420.2496c0-5.7344 4.5056-10.24 10.24-10.24s10.24 4.5056 10.24 10.24v443.1872c0 5.7344-4.5056 10.24-10.24 10.24z" fill="#1C1D21" p-id="11084"></path><path d="M512 873.6768c-65.1264 0-116.1216-101.7856-116.1216-231.8336s50.9952-231.8336 116.1216-231.8336 116.1216 101.7856 116.1216 231.8336-50.9952 231.8336-116.1216 231.8336z m0-443.1872c-51.8144 0-95.6416 96.8704-95.6416 211.3536 0 114.4832 43.8272 211.3536 95.6416 211.3536s95.6416-96.8704 95.6416-211.3536c0-114.4832-43.8272-211.3536-95.6416-211.3536zM301.8752 581.2224c-1.024 0-2.2528-0.2048-3.2768-0.6144-5.3248-1.8432-8.192-7.5776-6.3488-12.9024 1.8432-5.12 3.6864-10.4448 5.9392-15.36 2.2528-5.12 8.192-7.5776 13.312-5.5296 5.12 2.2528 7.5776 8.192 5.5296 13.312-1.8432 4.5056-3.6864 9.4208-5.3248 14.1312-1.4336 4.3008-5.5296 6.9632-9.8304 6.9632z" fill="#1C1D21" p-id="11085"></path><path d="M512 873.6768c-127.7952 0-231.8336-104.0384-231.8336-231.8336 0-11.8784 0.8192-23.7568 2.6624-35.2256 0.8192-5.5296 6.144-9.4208 11.6736-8.6016 5.5296 0.8192 9.4208 6.144 8.6016 11.6736-1.6384 10.6496-2.4576 21.504-2.4576 32.1536 0 116.5312 94.8224 211.3536 211.3536 211.3536s211.3536-94.8224 211.3536-211.3536S628.5312 430.4896 512 430.4896c-64.3072 0-124.3136 28.672-164.6592 78.848-3.4816 4.3008-10.0352 5.12-14.336 1.6384-4.3008-3.4816-5.12-10.0352-1.6384-14.336 44.2368-54.8864 110.1824-86.4256 180.6336-86.4256 127.7952 0 231.8336 104.0384 231.8336 231.8336S639.7952 873.6768 512 873.6768z" fill="#1C1D21" p-id="11086"></path><path d="M733.5936 652.0832H290.4064c-5.7344 0-10.24-4.5056-10.24-10.24s4.5056-10.24 10.24-10.24h443.1872c5.7344 0 10.24 4.5056 10.24 10.24s-4.5056 10.24-10.24 10.24zM512 570.7776c-63.8976 0-125.5424-26.8288-169.1648-73.3184-3.6864-3.8912-3.6864-10.0352 0-13.9264 43.6224-46.6944 105.472-73.3184 169.1648-73.3184s125.5424 26.8288 169.1648 73.3184c3.6864 3.8912 3.6864 10.0352 0 13.9264-43.6224 46.4896-105.2672 73.3184-169.1648 73.3184z m-147.456-80.4864c39.7312 38.7072 91.5456 60.0064 147.456 60.0064s107.7248-21.2992 147.456-60.0064c-39.7312-38.7072-91.5456-60.0064-147.456-60.0064s-107.7248 21.2992-147.456 60.0064z" fill="#1C1D21" p-id="11087"></path><path d="M512 177.5616m-65.9456 0a65.9456 65.9456 0 1 0 131.8912 0 65.9456 65.9456 0 1 0-131.8912 0Z" fill="#FF8939" p-id="11088"></path><path d="M512 253.7472c-41.984 0-76.1856-34.2016-76.1856-76.1856s34.2016-76.1856 76.1856-76.1856 76.1856 34.2016 76.1856 76.1856-34.2016 76.1856-76.1856 76.1856z m0-132.096c-30.72 0-55.7056 24.9856-55.7056 55.7056s24.9856 55.7056 55.7056 55.7056 55.7056-24.9856 55.7056-55.7056S542.72 121.6512 512 121.6512zM512 83.5584c-5.7344 0-10.24-4.5056-10.24-10.24V65.536c0-5.7344 4.5056-10.24 10.24-10.24s10.24 4.5056 10.24 10.24v7.7824c0 5.7344-4.5056 10.24-10.24 10.24zM512 299.6224c-5.7344 0-10.24-4.5056-10.24-10.24v-7.7824c0-5.7344 4.5056-10.24 10.24-10.24s10.24 4.5056 10.24 10.24v7.7824c0 5.7344-4.5056 10.24-10.24 10.24zM585.728 114.0736c-2.6624 0-5.3248-1.024-7.168-3.072-4.096-4.096-4.096-10.4448 0-14.5408l5.5296-5.5296c4.096-4.096 10.4448-4.096 14.5408 0s4.096 10.4448 0 14.5408l-5.5296 5.5296c-2.2528 2.048-4.9152 3.072-7.3728 3.072zM432.7424 266.8544c-2.6624 0-5.3248-1.024-7.168-3.072-4.096-4.096-4.096-10.4448 0-14.5408l5.5296-5.5296c4.096-4.096 10.4448-4.096 14.5408 0s4.096 10.4448 0 14.5408l-5.5296 5.5296c-2.048 2.048-4.7104 3.072-7.3728 3.072zM624.0256 187.8016h-7.7824c-5.7344 0-10.24-4.5056-10.24-10.24s4.5056-10.24 10.24-10.24h7.7824c5.7344 0 10.24 4.5056 10.24 10.24s-4.7104 10.24-10.24 10.24zM407.7568 187.8016h-7.7824c-5.7344 0-10.24-4.5056-10.24-10.24s4.5056-10.24 10.24-10.24h7.7824c5.7344 0 10.24 4.5056 10.24 10.24s-4.5056 10.24-10.24 10.24zM591.2576 266.8544c-2.6624 0-5.3248-1.024-7.168-3.072l-5.5296-5.5296c-4.096-4.096-4.096-10.4448 0-14.5408s10.4448-4.096 14.5408 0l5.5296 5.5296c4.096 4.096 4.096 10.4448 0 14.5408-2.2528 2.048-4.9152 3.072-7.3728 3.072zM438.272 114.0736c-2.6624 0-5.3248-1.024-7.168-3.072l-5.5296-5.5296c-4.096-4.096-4.096-10.4448 0-14.5408s10.4448-4.096 14.5408 0l5.5296 5.5296c4.096 4.096 4.096 10.4448 0 14.5408-2.048 2.048-4.7104 3.072-7.3728 3.072z" fill="#1C1D21" p-id="11089"></path></svg>