<svg xmlns="http://www.w3.org/2000/svg" viewBox="0 0 1024 1024" version="1.1"><path d="M512 512m-501.76 0a501.76 501.76 0 1 0 1003.52 0 501.76 501.76 0 1 0-1003.52 0Z" fill="#8CEEF9" p-id="12506"></path><path d="M368.4352 370.8928h357.1712c27.2384 0 50.3808 21.2992 50.9952 48.5376 0.8192 28.2624-21.9136 51.2-49.9712 51.2h-13.1072v351.232c0 14.9504-12.0832 27.0336-27.0336 27.0336H407.552c-14.9504 0-27.0336-12.0832-27.0336-27.0336V470.8352h-13.1072c-28.0576 0-50.5856-23.1424-49.9712-51.2 0.6144-27.2384 23.7568-48.7424 50.9952-48.7424z" fill="#C67552" p-id="12507"></path><path d="M686.4896 859.3408H407.552c-20.6848 0-37.2736-16.7936-37.2736-37.2736V481.0752h-2.8672c-16.384 0-31.744-6.5536-43.008-18.2272-11.4688-11.6736-17.408-27.2384-16.9984-43.6224 0.8192-32.3584 28.2624-58.5728 61.2352-58.5728h357.1712c32.9728 0 60.416 26.2144 61.2352 58.5728 0.4096 16.384-5.7344 31.9488-16.9984 43.6224-11.4688 11.6736-26.624 18.2272-43.008 18.2272h-2.8672v340.992c-0.4096 20.6848-17.2032 37.2736-37.6832 37.2736zM368.4352 381.1328c-21.9136 0-40.3456 17.408-40.7552 38.7072-0.2048 10.8544 3.6864 21.0944 11.264 28.672 7.5776 7.7824 17.6128 12.0832 28.4672 12.0832h13.1072c5.7344 0 10.24 4.5056 10.24 10.24v351.232c0 9.216 7.5776 16.7936 16.7936 16.7936h278.7328c9.216 0 16.7936-7.5776 16.7936-16.7936V470.8352c0-5.7344 4.5056-10.24 10.24-10.24h13.1072c10.8544 0 20.8896-4.3008 28.4672-12.0832 7.5776-7.7824 11.4688-18.0224 11.264-28.672-0.6144-21.2992-18.8416-38.7072-40.7552-38.7072H368.4352z" fill="#1C1D21" p-id="12508"></path><path d="M298.3936 370.8928h357.1712c27.2384 0 50.3808 21.2992 50.9952 48.5376 0.8192 28.2624-21.9136 51.2-49.9712 51.2h-13.1072v351.232c0 14.9504-12.0832 27.0336-27.0336 27.0336H337.5104c-14.9504 0-27.0336-12.0832-27.0336-27.0336V470.8352h-13.1072c-28.0576 0-50.5856-23.1424-49.9712-51.2 0.6144-27.2384 23.552-48.7424 50.9952-48.7424z" fill="#FFC5B3" p-id="12509"></path><path d="M616.2432 859.3408H337.5104c-20.6848 0-37.2736-16.7936-37.2736-37.2736V481.0752h-2.8672c-16.384 0-31.744-6.5536-43.008-18.2272-11.4688-11.6736-17.408-27.2384-16.9984-43.6224 0.8192-32.3584 28.2624-58.5728 61.2352-58.5728H655.36c32.9728 0 60.416 26.2144 61.2352 58.5728 0.4096 16.384-5.7344 31.9488-16.9984 43.6224-11.4688 11.6736-26.624 18.2272-43.008 18.2272h-2.8672v340.992c-0.2048 20.6848-16.7936 37.2736-37.4784 37.2736zM298.3936 381.1328c-21.9136 0-40.3456 17.408-40.7552 38.7072-0.2048 10.8544 3.6864 21.0944 11.264 28.672 7.5776 7.7824 17.6128 12.0832 28.4672 12.0832h13.1072c5.7344 0 10.24 4.5056 10.24 10.24v351.232c0 9.216 7.5776 16.7936 16.7936 16.7936h278.7328c9.216 0 16.7936-7.5776 16.7936-16.7936V470.8352c0-5.7344 4.5056-10.24 10.24-10.24h13.1072c10.8544 0 20.8896-4.3008 28.4672-12.0832 7.5776-7.7824 11.4688-18.0224 11.264-28.672-0.6144-21.2992-18.8416-38.7072-40.7552-38.7072H298.3936z" fill="#1C1D21" p-id="12510"></path><path d="M410.624 544.9728m-24.3712 0a24.3712 24.3712 0 1 0 48.7424 0 24.3712 24.3712 0 1 0-48.7424 0Z" fill="#EFA692" p-id="12511"></path><path d="M386.048 762.4704m-24.3712 0a24.3712 24.3712 0 1 0 48.7424 0 24.3712 24.3712 0 1 0-48.7424 0Z" fill="#EFA692" p-id="12512"></path><path d="M547.0208 547.4304m-17.2032 0a17.2032 17.2032 0 1 0 34.4064 0 17.2032 17.2032 0 1 0-34.4064 0Z" fill="#EFA692" p-id="12513"></path><path d="M578.1504 661.504m-24.3712 0a24.3712 24.3712 0 1 0 48.7424 0 24.3712 24.3712 0 1 0-48.7424 0Z" fill="#EFA692" p-id="12514"></path><path d="M579.584 429.4656m-13.9264 0a13.9264 13.9264 0 1 0 27.8528 0 13.9264 13.9264 0 1 0-27.8528 0Z" fill="#EFA692" p-id="12515"></path><path d="M404.0704 646.5536m-17.6128 0a17.6128 17.6128 0 1 0 35.2256 0 17.6128 17.6128 0 1 0-35.2256 0Z" fill="#EFA692" p-id="12516"></path><path d="M401.408 429.4656m-17.6128 0a17.6128 17.6128 0 1 0 35.2256 0 17.6128 17.6128 0 1 0-35.2256 0Z" fill="#EFA692" p-id="12517"></path><path d="M490.0864 633.6512m-12.9024 0a12.9024 12.9024 0 1 0 25.8048 0 12.9024 12.9024 0 1 0-25.8048 0Z" fill="#EFA692" p-id="12518"></path><path d="M565.6576 775.3728m-12.9024 0a12.9024 12.9024 0 1 0 25.8048 0 12.9024 12.9024 0 1 0-25.8048 0Z" fill="#EFA692" p-id="12519"></path><path d="M493.3632 463.4624m-9.6256 0a9.6256 9.6256 0 1 0 19.2512 0 9.6256 9.6256 0 1 0-19.2512 0Z" fill="#EFA692" p-id="12520"></path><path d="M461.2096 737.8944m-9.6256 0a9.6256 9.6256 0 1 0 19.2512 0 9.6256 9.6256 0 1 0-19.2512 0Z" fill="#EFA692" p-id="12521"></path><path d="M713.5232 481.0752h-110.7968c-5.7344 0-10.24-4.5056-10.24-10.24s4.5056-10.24 10.24-10.24h110.7968c5.7344 0 10.24 4.5056 10.24 10.24s-4.5056 10.24-10.24 10.24zM350.0032 481.0752h-39.5264c-5.7344 0-10.24-4.5056-10.24-10.24s4.5056-10.24 10.24-10.24h39.5264c5.7344 0 10.24 4.5056 10.24 10.24s-4.7104 10.24-10.24 10.24zM401.408 481.0752h-11.264c-5.7344 0-10.24-4.5056-10.24-10.24s4.5056-10.24 10.24-10.24h11.264c5.7344 0 10.24 4.5056 10.24 10.24s-4.7104 10.24-10.24 10.24z" fill="#1C1D21" p-id="12522"></path><path d="M512 1024c-136.8064 0-265.4208-53.248-362.0864-149.9136C53.248 777.4208 0 648.8064 0 512S53.248 246.5792 149.9136 149.9136C246.5792 53.248 375.1936 0 512 0s265.4208 53.248 362.0864 149.9136C970.752 246.5792 1024 375.1936 1024 512s-53.248 265.4208-149.9136 362.0864C777.4208 970.752 648.8064 1024 512 1024z m0-1003.52C241.0496 20.48 20.48 241.0496 20.48 512s220.5696 491.52 491.52 491.52 491.52-220.5696 491.52-491.52S782.9504 20.48 512 20.48z" fill="#1C1D21" p-id="12523"></path><path d="M140.4928 849.3056C232.2432 950.272 364.7488 1013.76 512 1013.76s279.7568-63.488 371.5072-164.4544H140.4928z" fill="#C67552" p-id="12524"></path><path d="M512 1024c-73.5232 0-144.384-15.1552-210.7392-45.2608-64.1024-29.0816-120.832-70.2464-168.3456-122.6752-2.6624-3.072-3.4816-7.3728-1.8432-11.0592 1.6384-3.6864 5.3248-6.144 9.4208-6.144h743.0144c4.096 0 7.7824 2.4576 9.4208 6.144 1.6384 3.6864 1.024 7.9872-1.8432 11.0592-47.5136 52.4288-104.2432 93.5936-168.3456 122.6752-66.3552 30.1056-137.216 45.2608-210.7392 45.2608zM164.4544 859.5456c91.7504 91.7504 217.088 143.9744 347.5456 143.9744s255.7952-52.224 347.5456-143.9744H164.4544z" fill="#1C1D21" p-id="12525"></path><path d="M711.68 847.872l-15.9744-3.4816c-3.8912-0.8192-7.7824-0.8192-11.6736 0l-15.9744 3.4816c-29.9008 6.5536-59.392-12.288-66.1504-41.984l-20.6848-90.3168c-10.0352-43.8272 29.9008-82.7392 73.5232-71.68l22.9376 5.9392c8.192 2.048 16.5888 2.048 24.7808 0l22.9376-5.9392c43.6224-11.264 83.5584 27.648 73.5232 71.68L778.24 805.888c-7.168 29.696-36.6592 48.5376-66.56 41.984z" fill="#FF3E63" p-id="12526"></path><path d="M656.1792 859.3408c-30.1056 0-57.5488-20.8896-64.512-51.2l-20.6848-90.3168c-5.5296-24.1664 1.8432-48.7424 19.456-66.1504 17.8176-17.2032 42.5984-23.9616 66.56-17.8176l22.9376 5.9392c6.3488 1.6384 13.1072 1.6384 19.6608 0l22.9376-5.9392c23.9616-6.144 48.9472 0.4096 66.56 17.8176 17.8176 17.2032 24.9856 41.984 19.456 66.1504l-20.6848 90.3168c-7.9872 35.0208-43.2128 57.5488-78.4384 49.7664l-15.9744-3.4816c-2.4576-0.6144-4.9152-0.6144-7.3728 0l-15.9744 3.4816c-4.7104 1.024-9.216 1.4336-13.9264 1.4336z m33.5872-25.8048c2.6624 0 5.3248 0.2048 7.9872 0.8192l15.9744 3.4816c24.3712 5.3248 48.5376-10.0352 54.0672-34.4064l20.6848-90.3168c3.8912-16.9984-1.2288-34.6112-13.9264-46.8992-12.4928-12.288-30.1056-16.9984-47.104-12.4928l-22.9376 5.9392c-9.8304 2.4576-20.0704 2.4576-29.696 0l-22.9376-5.9392c-16.9984-4.3008-34.6112 0.4096-47.104 12.4928-12.4928 12.288-17.8176 29.696-13.9264 46.8992l20.6848 90.3168c5.5296 24.1664 29.696 39.5264 54.0672 34.4064l15.9744-3.4816c2.8672-0.4096 5.5296-0.8192 8.192-0.8192z" fill="#1C1D21" p-id="12527"></path><path d="M610.304 338.7392l-3.2768-25.3952c-2.048-16.9984-18.6368-28.0576-35.2256-23.9616L382.1568 337.92c-8.192 2.048-13.7216 10.0352-12.6976 18.6368 1.024 8.3968 8.3968 14.7456 16.7936 14.7456l195.7888-0.4096c17.2032-0.2048 30.3104-15.1552 28.2624-32.1536z" fill="#FF8939" p-id="12528"></path><path d="M386.4576 381.5424c-13.7216 0-25.1904-10.24-27.0336-23.7568-1.6384-13.5168 6.9632-26.4192 20.2752-29.696l189.6448-48.3328c10.6496-2.6624 22.1184-0.8192 31.3344 5.5296 9.216 6.144 15.1552 16.1792 16.5888 27.0336l3.2768 25.3952c1.4336 11.0592-2.048 22.1184-9.216 30.3104-7.3728 8.3968-17.8176 13.1072-28.8768 13.1072l-195.9936 0.4096z m192.512-82.7392c-1.4336 0-3.072 0.2048-4.5056 0.6144l-189.6448 48.3328c-3.2768 0.8192-5.3248 3.8912-4.9152 7.3728 0.4096 3.2768 3.2768 5.9392 6.5536 5.9392l195.7888-0.4096c5.3248 0 10.0352-2.2528 13.5168-6.144 3.4816-3.8912 5.12-9.0112 4.3008-14.336l-3.2768-25.3952c-0.6144-5.3248-3.4816-9.8304-7.7824-12.6976a16.7936 16.7936 0 0 0-10.0352-3.2768z" fill="#1C1D21" p-id="12529"></path><path d="M557.4656 333.824c-5.12 0-9.4208-3.6864-10.24-9.0112l-3.6864-29.4912c-0.6144-5.5296 3.2768-10.6496 8.8064-11.4688 5.5296-0.6144 10.6496 3.2768 11.4688 8.8064l3.6864 29.4912c0.6144 5.5296-3.2768 10.6496-8.8064 11.4688-0.2048 0.2048-0.6144 0.2048-1.2288 0.2048zM488.0384 342.6304c-5.12 0-9.4208-3.6864-10.24-9.0112l-2.6624-20.8896c-0.6144-5.5296 3.2768-10.6496 8.8064-11.4688 5.7344-0.6144 10.6496 3.2768 11.4688 8.8064l2.6624 20.8896c0.6144 5.5296-3.2768 10.6496-8.8064 11.4688-0.4096 0.2048-0.8192 0.2048-1.2288 0.2048z" fill="#1C1D21" p-id="12530"></path><path d="M671.9488 378.6752c1.8432-16.5888-4.3008-34.2016-16.9984-45.4656s-29.0816-13.5168-42.8032-7.3728c-1.8432 16.5888 4.3008 34.2016 16.9984 45.4656 12.6976 11.264 29.0816 13.5168 42.8032 7.3728z" fill="#0ABFB2" p-id="12531"></path><path d="M656.7936 259.2768c5.9392 15.7696 4.5056 33.9968-5.12 48.128-9.6256 14.1312-24.7808 20.2752-39.5264 17.8176-5.9392-15.7696-4.5056-33.9968 5.12-48.128 9.4208-14.1312 24.7808-20.2752 39.5264-17.8176z" fill="#0ABFB2" p-id="12532"></path><path d="M656.384 392.192c-12.0832 0-24.1664-4.5056-33.9968-13.312-14.7456-12.9024-22.528-33.792-20.48-54.0672 0.4096-3.6864 2.6624-6.7584 5.9392-8.192 17.8176-7.9872 38.5024-4.5056 53.6576 9.0112 14.7456 12.9024 22.528 33.792 20.48 54.0672-0.4096 3.6864-2.6624 6.7584-5.9392 8.192-6.3488 2.8672-13.1072 4.3008-19.6608 4.3008z m15.5648-13.5168z m-49.7664-45.2608c0.4096 11.6736 5.5296 22.9376 13.7216 30.3104 7.7824 6.7584 16.9984 9.4208 26.0096 7.5776-0.4096-11.6736-5.5296-22.9376-13.7216-30.3104-7.7824-6.7584-16.9984-9.4208-26.0096-7.5776z" fill="#1C1D21" p-id="12533"></path><path d="M618.496 336.0768c-2.6624 0-5.5296-0.2048-8.192-0.6144-3.6864-0.6144-6.5536-3.072-7.7824-6.5536-7.168-19.2512-4.7104-41.3696 6.144-57.5488 11.4688-16.9984 30.5152-25.3952 49.7664-22.1184 3.6864 0.6144 6.5536 3.072 7.7824 6.5536 7.168 19.2512 4.7104 41.3696-6.144 57.5488-9.8304 14.5408-25.1904 22.7328-41.5744 22.7328z m30.5152-66.9696c-9.216 0.4096-17.6128 5.3248-23.3472 13.7216-6.144 9.216-8.192 21.2992-5.7344 32.768 9.216-0.4096 17.6128-5.3248 23.3472-13.7216 6.144-9.216 8.192-21.2992 5.7344-32.768z" fill="#1C1D21" p-id="12534"></path><path d="M690.176 315.8016c-9.0112-11.8784-23.7568-18.6368-39.7312-16.5888-15.7696 2.048-28.4672 12.288-34.2016 26.0096 9.0112 11.8784 23.7568 18.6368 39.7312 16.5888 15.7696-2.048 28.4672-12.288 34.2016-26.0096z" fill="#0ABFB2" p-id="12535"></path><path d="M650.6496 352.256c-16.384 0-32.3584-7.7824-42.3936-21.0944-2.2528-2.8672-2.6624-6.7584-1.2288-10.24 7.3728-17.408 23.552-29.9008 42.3936-32.1536 18.8416-2.4576 37.6832 5.5296 49.152 20.6848 2.2528 2.8672 2.6624 6.7584 1.2288 10.24-7.3728 17.408-23.552 29.9008-42.3936 32.1536-2.4576 0.4096-4.7104 0.4096-6.7584 0.4096zM628.736 323.584c6.9632 6.144 16.384 9.216 26.0096 7.9872 9.4208-1.2288 17.8176-6.5536 23.1424-14.336-6.9632-6.144-16.384-9.216-26.0096-7.9872-9.6256 1.2288-18.0224 6.5536-23.1424 14.336z" fill="#1C1D21" p-id="12536"></path><path d="M624.8448 715.776c-4.7104 0-8.8064-3.2768-10.0352-7.9872-1.8432-7.7824 0-15.36 4.9152-21.504 2.2528-2.8672 9.0112-9.8304 19.6608-9.8304 5.7344 0 10.24 4.5056 10.24 10.24s-4.5056 10.24-10.24 10.24c-1.8432 0-3.2768 1.4336-3.6864 2.048-1.024 1.2288-1.2288 2.4576-0.8192 4.096 1.2288 5.5296-2.2528 11.0592-7.7824 12.288-0.8192 0.4096-1.4336 0.4096-2.2528 0.4096zM645.5296 806.0928c-4.7104 0-8.8064-3.2768-10.0352-7.9872l-10.4448-46.08c-1.2288-5.5296 2.2528-11.0592 7.7824-12.288 5.5296-1.2288 11.0592 2.2528 12.288 7.7824l10.4448 46.08c1.2288 5.5296-2.2528 11.0592-7.7824 12.288-0.8192 0-1.6384 0.2048-2.2528 0.2048z" fill="#FFAEC3" p-id="12537"></path><path d="M754.0736 582.8608c-16.7936-4.5056-35.6352-0.2048-48.9472 13.1072s-17.6128 31.9488-13.1072 48.9472c16.7936 4.5056 35.6352 0.2048 48.9472-13.1072s17.6128-32.1536 13.1072-48.9472z" fill="#0ABFB2" p-id="12538"></path><path d="M705.1264 656.7936c-5.3248 0-10.4448-0.6144-15.5648-2.048-3.4816-1.024-6.3488-3.6864-7.168-7.168-5.5296-20.8896 0.4096-43.4176 15.7696-58.7776s37.888-21.2992 58.7776-15.7696c3.4816 1.024 6.3488 3.6864 7.168 7.168 5.5296 20.8896-0.4096 43.4176-15.7696 58.7776-11.6736 11.4688-27.2384 17.8176-43.2128 17.8176z m-4.3008-20.6848c12.0832 1.2288 24.1664-2.8672 32.9728-11.6736 8.6016-8.6016 12.9024-20.8896 11.4688-32.9728-12.0832-1.2288-24.1664 2.8672-32.768 11.6736-8.8064 8.8064-12.9024 20.8896-11.6736 32.9728z" fill="#1C1D21" p-id="12539"></path><path d="M361.2672 848.2816h-136.3968V593.1008c0-7.9872 6.3488-14.336 14.336-14.336h107.7248c7.9872 0 14.336 6.3488 14.336 14.336v255.1808z" fill="#8CEEF9" p-id="12540"></path><path d="M224.8704 650.4448h136.3968v197.8368h-136.3968z" fill="#FFECE9" p-id="12541"></path><path d="M361.2672 858.5216h-136.3968c-5.7344 0-10.24-4.5056-10.24-10.24V593.1008c0-13.5168 11.0592-24.576 24.576-24.576h107.7248c13.5168 0 24.576 11.0592 24.576 24.576v255.3856c0 5.5296-4.5056 10.0352-10.24 10.0352z m-126.1568-20.48h115.9168V593.1008c0-2.2528-1.8432-4.096-4.096-4.096h-107.7248c-2.2528 0-4.096 1.8432-4.096 4.096v244.9408z" fill="#1C1D21" p-id="12542"></path><path d="M269.7216 813.6704c-5.7344 0-10.24-4.5056-10.24-10.24v-179.8144c0-5.7344 4.5056-10.24 10.24-10.24s10.24 4.5056 10.24 10.24v179.8144c0 5.7344-4.5056 10.24-10.24 10.24z" fill="#FFFFFF" p-id="12543"></path><path d="M269.7216 660.6848c-5.7344 0-10.24-4.5056-10.24-10.24v-26.8288c0-5.7344 4.5056-10.24 10.24-10.24s10.24 4.5056 10.24 10.24v26.8288c0 5.5296-4.5056 10.24-10.24 10.24z" fill="#DCFDFF" p-id="12544"></path><path d="M361.2672 858.5216h-136.3968c-5.7344 0-10.24-4.5056-10.24-10.24v-197.8368c0-5.7344 4.5056-10.24 10.24-10.24h136.3968c5.7344 0 10.24 4.5056 10.24 10.24v197.8368c0 5.7344-4.5056 10.24-10.24 10.24z m-126.1568-20.48h115.9168v-177.3568h-115.9168v177.3568z" fill="#1C1D21" p-id="12545"></path><path d="M586.5472 915.0464l-127.1808-37.2736v-43.4176l127.1808-37.2736c39.5264-11.6736 79.0528 18.0224 79.0528 59.1872 0 40.7552-39.5264 70.2464-79.0528 58.7776z" fill="#E06C1E" p-id="12546"></path><path d="M604.16 927.744c-6.7584 0-13.7216-1.024-20.48-2.8672l-127.1808-37.2736c-4.3008-1.2288-7.3728-5.3248-7.3728-9.8304v-43.4176c0-4.5056 3.072-8.6016 7.3728-9.8304l127.1808-37.2736c21.9136-6.3488 45.056-2.2528 63.2832 11.4688 18.2272 13.7216 28.8768 34.6112 28.8768 57.5488 0 22.9376-10.4448 43.8272-28.8768 57.5488-12.4928 9.0112-27.4432 13.9264-42.8032 13.9264z m-14.7456-22.528c15.7696 4.5056 32.1536 1.6384 45.2608-8.192 13.1072-9.8304 20.6848-24.7808 20.6848-41.1648 0-16.384-7.5776-31.3344-20.6848-41.1648-13.1072-9.8304-29.4912-12.6976-45.2608-8.192L469.6064 841.728v28.2624l119.808 35.2256z" fill="#1C1D21" p-id="12547"></path><path d="M459.3664 834.1504H374.784v-0.8192c0-12.9024-10.4448-23.3472-23.3472-23.3472-12.9024 0-23.3472 10.4448-23.3472 23.3472 0 10.8544 7.3728 19.8656 17.408 22.528-10.0352 2.6624-17.408 11.6736-17.408 22.528 0 12.9024 10.4448 23.3472 23.3472 23.3472 12.9024 0 23.3472-10.4448 23.3472-23.3472v-0.8192h84.5824v-43.4176z" fill="#FFECE9" p-id="12548"></path><path d="M351.4368 911.7696c-18.432 0-33.5872-14.9504-33.5872-33.5872 0-8.6016 3.2768-16.384 8.6016-22.528-5.5296-5.9392-8.6016-13.9264-8.6016-22.528 0-18.432 14.9504-33.5872 33.5872-33.5872 15.1552 0 28.0576 10.24 32.1536 24.1664h75.776c5.7344 0 10.24 4.5056 10.24 10.24v43.4176c0 5.7344-4.5056 10.24-10.24 10.24h-75.776c-4.096 14.1312-16.9984 24.1664-32.1536 24.1664z m0-91.5456c-7.168 0-13.1072 5.9392-13.1072 13.1072 0 5.9392 3.8912 11.0592 9.6256 12.6976 4.5056 1.2288 7.5776 5.3248 7.5776 9.8304s-3.072 8.8064-7.5776 9.8304c-5.7344 1.4336-9.6256 6.7584-9.6256 12.6976 0 7.168 5.9392 13.1072 13.1072 13.1072s13.1072-5.9392 13.1072-13.1072v-0.4096c-0.2048-2.8672 1.024-5.5296 2.8672-7.5776 1.8432-2.048 4.5056-3.072 7.3728-3.072h74.3424v-22.9376H374.784c-2.8672 0-5.5296-1.2288-7.3728-3.072-1.8432-2.048-2.8672-4.7104-2.8672-7.5776v-0.4096c0-7.168-5.9392-13.1072-13.1072-13.1072z" fill="#1C1D21" p-id="12549"></path></svg>