<svg xmlns="http://www.w3.org/2000/svg" viewBox="0 0 1024 1024" version="1.1"><path d="M512 512m-501.76 0a501.76 501.76 0 1 0 1003.52 0 501.76 501.76 0 1 0-1003.52 0Z" fill="#8CEEF9" p-id="12957"></path><path d="M512 1024c-136.8064 0-265.4208-53.248-362.0864-149.9136S0 648.8064 0 512 53.248 246.5792 149.9136 149.9136 375.1936 0 512 0s265.4208 53.248 362.0864 149.9136S1024 375.1936 1024 512s-53.248 265.4208-149.9136 362.0864S648.8064 1024 512 1024z m0-1003.52C241.0496 20.48 20.48 241.0496 20.48 512s220.5696 491.52 491.52 491.52 491.52-220.5696 491.52-491.52S782.9504 20.48 512 20.48z" fill="#1C1D21" p-id="12958"></path><path d="M703.2832 872.448H320.7168c-11.264 0-20.48-9.216-20.48-20.48V341.4016c0-11.264 9.216-20.48 20.48-20.48h382.5664c11.264 0 20.48 9.216 20.48 20.48V851.968c0 11.264-9.216 20.48-20.48 20.48z" fill="#FFECE9" p-id="12959"></path><path d="M300.2368 424.96c-5.7344 0-10.24-4.5056-10.24-10.24v-14.336c0-5.7344 4.5056-10.24 10.24-10.24s10.24 4.5056 10.24 10.24v14.336c0 5.7344-4.5056 10.24-10.24 10.24z" fill="#1C1D21" p-id="12960"></path><path d="M703.2832 882.688H320.7168c-16.9984 0-30.72-13.7216-30.72-30.72V453.4272c0-5.7344 4.5056-10.24 10.24-10.24s10.24 4.5056 10.24 10.24V851.968c0 5.7344 4.5056 10.24 10.24 10.24h382.5664c5.7344 0 10.24-4.5056 10.24-10.24V341.4016c0-5.7344-4.5056-10.24-10.24-10.24H320.7168c-5.7344 0-10.24 4.5056-10.24 10.24v9.8304c0 5.7344-4.5056 10.24-10.24 10.24s-10.24-4.5056-10.24-10.24v-9.8304c0-16.9984 13.7216-30.72 30.72-30.72h382.5664c16.9984 0 30.72 13.7216 30.72 30.72V851.968c0 16.9984-13.7216 30.72-30.72 30.72z" fill="#1C1D21" p-id="12961"></path><path d="M341.1968 387.4816c-5.7344 0-10.24-4.5056-10.24-10.24v-15.36c0-5.7344 4.5056-10.24 10.24-10.24s10.24 4.5056 10.24 10.24v15.36c0 5.7344-4.5056 10.24-10.24 10.24zM341.1968 841.728c-5.7344 0-10.24-4.5056-10.24-10.24V419.2256c0-5.7344 4.5056-10.24 10.24-10.24s10.24 4.5056 10.24 10.24V831.488c0 5.7344-4.5056 10.24-10.24 10.24z" fill="#FFFFFF" p-id="12962"></path><path d="M626.0736 339.3536c0 63.488-51.8144 114.8928-115.712 114.0736-62.6688-0.8192-112.64-53.0432-112.64-115.712V223.232c0-19.2512 15.5648-34.816 34.816-34.816h158.5152c19.2512 0 34.816 15.5648 34.816 34.816v116.1216z" fill="#0ABFB2" p-id="12963"></path><path d="M512 463.6672h-1.6384c-67.584-0.8192-122.6752-57.344-122.6752-125.952V223.232c0-24.7808 20.2752-45.056 45.056-45.056h158.5152c24.7808 0 45.056 20.2752 45.056 45.056v116.1216c0 33.5872-13.1072 64.9216-37.0688 88.4736-23.3472 23.1424-54.272 35.84-87.2448 35.84zM432.7424 198.656c-13.5168 0-24.576 11.0592-24.576 24.576v114.4832c0 57.5488 45.8752 104.8576 102.4 105.472 28.0576 0.4096 54.4768-10.24 74.3424-29.9008 19.8656-19.6608 30.9248-45.8752 30.9248-73.9328V223.232c0-13.5168-11.0592-24.576-24.576-24.576h-158.5152zM598.6304 522.24H374.784c-5.7344 0-10.24-4.5056-10.24-10.24s4.5056-10.24 10.24-10.24h223.8464c5.7344 0 10.24 4.5056 10.24 10.24s-4.5056 10.24-10.24 10.24zM649.216 522.24h-10.8544c-5.7344 0-10.24-4.5056-10.24-10.24s4.5056-10.24 10.24-10.24h10.8544c5.7344 0 10.24 4.5056 10.24 10.24s-4.5056 10.24-10.24 10.24zM598.6304 581.0176H374.784c-5.7344 0-10.24-4.5056-10.24-10.24s4.5056-10.24 10.24-10.24h223.8464c5.7344 0 10.24 4.5056 10.24 10.24s-4.5056 10.24-10.24 10.24zM649.216 581.0176h-10.8544c-5.7344 0-10.24-4.5056-10.24-10.24s4.5056-10.24 10.24-10.24h10.8544c5.7344 0 10.24 4.5056 10.24 10.24s-4.5056 10.24-10.24 10.24zM598.6304 639.5904H374.784c-5.7344 0-10.24-4.5056-10.24-10.24s4.5056-10.24 10.24-10.24h223.8464c5.7344 0 10.24 4.5056 10.24 10.24s-4.5056 10.24-10.24 10.24zM649.216 639.5904h-10.8544c-5.7344 0-10.24-4.5056-10.24-10.24s4.5056-10.24 10.24-10.24h10.8544c5.7344 0 10.24 4.5056 10.24 10.24s-4.5056 10.24-10.24 10.24zM598.6304 698.368H374.784c-5.7344 0-10.24-4.5056-10.24-10.24s4.5056-10.24 10.24-10.24h223.8464c5.7344 0 10.24 4.5056 10.24 10.24s-4.5056 10.24-10.24 10.24zM649.216 698.368h-10.8544c-5.7344 0-10.24-4.5056-10.24-10.24s4.5056-10.24 10.24-10.24h10.8544c5.7344 0 10.24 4.5056 10.24 10.24s-4.5056 10.24-10.24 10.24zM598.6304 757.1456H374.784c-5.7344 0-10.24-4.5056-10.24-10.24s4.5056-10.24 10.24-10.24h223.8464c5.7344 0 10.24 4.5056 10.24 10.24s-4.5056 10.24-10.24 10.24zM649.216 757.1456h-10.8544c-5.7344 0-10.24-4.5056-10.24-10.24s4.5056-10.24 10.24-10.24h10.8544c5.7344 0 10.24 4.5056 10.24 10.24s-4.5056 10.24-10.24 10.24z" fill="#1C1D21" p-id="12964"></path><path d="M553.984 296.3456h-22.3232v-22.3232c0-10.8544-8.8064-19.456-19.456-19.456s-19.456 8.8064-19.456 19.456v22.3232h-22.3232c-10.8544 0-19.456 8.8064-19.456 19.456 0 10.8544 8.8064 19.456 19.456 19.456h22.3232v22.3232c0 10.8544 8.8064 19.456 19.456 19.456s19.456-8.8064 19.456-19.456v-22.3232h22.3232c10.8544 0 19.456-8.8064 19.456-19.456 0-10.8544-8.8064-19.456-19.456-19.456z" fill="#FFFFFF" p-id="12965"></path><path d="M512 387.4816c-16.384 0-29.696-13.312-29.696-29.696v-12.0832h-12.0832c-16.384 0-29.696-13.312-29.696-29.696s13.312-29.696 29.696-29.696h12.0832v-12.0832c0-16.384 13.312-29.696 29.696-29.696s29.696 13.312 29.696 29.696v12.0832h12.0832c16.384 0 29.696 13.312 29.696 29.696s-13.312 29.696-29.696 29.696h-12.0832v12.0832c0 16.384-13.312 29.696-29.696 29.696z m-41.984-80.896c-5.12 0-9.216 4.096-9.216 9.216s4.096 9.216 9.216 9.216h22.3232c5.7344 0 10.24 4.5056 10.24 10.24v22.3232c0 5.12 4.096 9.216 9.216 9.216s9.216-4.096 9.216-9.216v-22.3232c0-5.7344 4.5056-10.24 10.24-10.24h22.3232c5.12 0 9.216-4.096 9.216-9.216s-4.096-9.216-9.216-9.216h-22.3232c-5.7344 0-10.24-4.5056-10.24-10.24v-22.3232c0-5.12-4.096-9.216-9.216-9.216s-9.216 4.096-9.216 9.216v22.3232c0 5.7344-4.5056 10.24-10.24 10.24h-22.3232z" fill="#1C1D21" p-id="12966"></path><path d="M247.6032 719.6672v-156.672c0-14.5408-11.8784-26.4192-26.4192-26.4192-14.5408 0-26.4192 11.8784-26.4192 26.4192v156.672h52.8384z" fill="#FFC5B3" p-id="12967"></path><path d="M247.3984 761.4464v-198.4512c0-14.5408 11.8784-26.4192 26.4192-26.4192 14.5408 0 26.4192 11.8784 26.4192 26.4192v198.4512h-52.8384z" fill="#FFC5B3" p-id="12968"></path><path d="M247.6032 729.9072H194.56c-5.7344 0-10.24-4.5056-10.24-10.24v-156.672c0-20.2752 16.384-36.6592 36.6592-36.6592 20.2752 0 36.6592 16.384 36.6592 36.6592v156.672c0.2048 5.7344-4.5056 10.24-10.0352 10.24z m-42.8032-20.48h32.5632v-146.432c0-9.0112-7.3728-16.1792-16.1792-16.1792s-16.1792 7.3728-16.1792 16.1792v146.432z" fill="#1C1D21" p-id="12969"></path><path d="M300.2368 771.6864h-53.0432c-5.7344 0-10.24-4.5056-10.24-10.24v-198.4512c0-20.2752 16.384-36.6592 36.6592-36.6592s36.6592 16.384 36.6592 36.6592v198.4512c0.2048 5.5296-4.3008 10.24-10.0352 10.24z m-42.5984-20.48h32.5632v-188.2112c0-9.0112-7.3728-16.1792-16.1792-16.1792s-16.1792 7.3728-16.1792 16.1792v188.2112z" fill="#1C1D21" p-id="12970"></path><path d="M405.9136 1002.496l-0.4096-120.4224c0-23.7568-10.8544-46.08-29.4912-60.6208l-151.9616-120.2176c-18.6368-14.7456-29.4912-37.2736-29.4912-61.0304v-77.2096c0-14.5408-11.8784-26.4192-26.4192-26.4192-14.5408 0-26.4192 11.8784-26.4192 26.4192v148.0704c0 20.6848 8.192 40.3456 22.7328 54.8864l107.1104 107.1104c14.5408 14.5408 22.7328 34.4064 22.7328 54.8864v36.0448c35.0208 17.2032 72.4992 30.1056 111.616 38.5024z" fill="#FFC5B3" p-id="12971"></path><path d="M405.9136 1012.736c-0.8192 0-1.4336 0-2.2528-0.2048-39.5264-8.3968-77.824-21.7088-113.8688-39.1168-3.4816-1.6384-5.7344-5.3248-5.7344-9.216v-36.0448c0-18.0224-6.9632-35.0208-19.8656-47.7184l-107.1104-107.1104c-16.5888-16.5888-25.8048-38.7072-25.8048-62.2592v-148.0704c0-20.2752 16.384-36.6592 36.6592-36.6592 20.2752 0 36.6592 16.384 36.6592 36.6592v77.2096c0 20.6848 9.4208 40.1408 25.6 52.8384l151.9616 120.2176c21.0944 16.7936 33.3824 41.7792 33.3824 68.608l0.4096 120.4224c0 3.072-1.4336 5.9392-3.8912 7.9872-1.4336 1.6384-3.8912 2.4576-6.144 2.4576z m-101.376-55.0912c29.0816 13.5168 59.8016 24.3712 91.136 31.9488l-0.4096-107.52c0-20.6848-9.4208-39.936-25.6-52.6336l-151.9616-120.2176C196.4032 692.4288 184.32 667.2384 184.32 640.2048v-77.2096c0-9.0112-7.3728-16.1792-16.1792-16.1792s-16.1792 7.3728-16.1792 16.1792v148.0704c0 18.0224 6.9632 35.0208 19.8656 47.7184l107.1104 107.1104c16.5888 16.5888 25.8048 38.7072 25.8048 62.2592v29.4912z" fill="#1C1D21" p-id="12972"></path><path d="M776.3968 719.6672v-156.672c0-14.5408 11.8784-26.4192 26.4192-26.4192 14.5408 0 26.4192 11.8784 26.4192 26.4192v156.672h-52.8384z" fill="#FFC5B3" p-id="12973"></path><path d="M776.6016 761.4464v-198.4512c0-14.5408-11.8784-26.4192-26.4192-26.4192-14.5408 0-26.4192 11.8784-26.4192 26.4192v198.4512h52.8384z" fill="#FFC5B3" p-id="12974"></path><path d="M829.44 729.9072h-53.0432c-5.7344 0-10.24-4.5056-10.24-10.24v-156.672c0-20.2752 16.384-36.6592 36.6592-36.6592 20.2752 0 36.6592 16.384 36.6592 36.6592v156.672c0.2048 5.7344-4.3008 10.24-10.0352 10.24z m-42.8032-20.48H819.2v-146.432c0-9.0112-7.3728-16.1792-16.1792-16.1792s-16.1792 7.3728-16.1792 16.1792v146.432z" fill="#1C1D21" p-id="12975"></path><path d="M776.6016 771.6864h-53.0432c-5.7344 0-10.24-4.5056-10.24-10.24v-198.4512c0-20.2752 16.384-36.6592 36.6592-36.6592s36.6592 16.384 36.6592 36.6592v198.4512c0.2048 5.5296-4.3008 10.24-10.0352 10.24z m-42.5984-20.48h32.5632v-188.2112c0-9.0112-7.3728-16.1792-16.1792-16.1792s-16.1792 7.3728-16.1792 16.1792v188.2112z" fill="#1C1D21" p-id="12976"></path><path d="M882.4832 562.9952c0-14.5408-11.8784-26.4192-26.4192-26.4192-14.5408 0-26.4192 11.8784-26.4192 26.4192v77.2096c0 23.7568-10.8544 46.2848-29.4912 61.0304L647.9872 821.248c-18.6368 14.7456-29.4912 37.0688-29.4912 60.6208l-0.4096 120.4224c39.1168-8.3968 76.5952-21.2992 111.616-38.2976v-36.0448c0-20.6848 8.192-40.3456 22.7328-54.8864l107.1104-107.1104c14.5408-14.5408 22.7328-34.4064 22.7328-54.8864v-148.0704z" fill="#FFC5B3" p-id="12977"></path><path d="M618.0864 1012.736c-2.2528 0-4.7104-0.8192-6.3488-2.2528-2.4576-2.048-3.8912-4.9152-3.8912-7.9872l0.4096-120.4224c0-27.0336 12.288-52.0192 33.3824-68.608l151.9616-120.2176c16.1792-12.9024 25.6-32.1536 25.6-52.8384V563.2c0-20.2752 16.384-36.6592 36.6592-36.6592 20.2752 0 36.6592 16.384 36.6592 36.6592v148.0704c0 23.552-9.216 45.6704-25.8048 62.2592L759.808 880.2304c-12.6976 12.6976-19.8656 29.696-19.8656 47.7184v36.0448c0 3.8912-2.2528 7.5776-5.7344 9.216-36.2496 17.408-74.5472 30.5152-113.8688 39.1168-0.8192 0.4096-1.6384 0.4096-2.2528 0.4096zM855.8592 546.816c-9.0112 0-16.1792 7.3728-16.1792 16.1792v77.2096c0 27.0336-12.0832 52.224-33.3824 69.0176L654.336 829.44c-16.1792 12.9024-25.6 31.9488-25.6 52.6336l-0.4096 107.52c31.3344-7.5776 62.0544-18.2272 91.136-31.9488v-29.696c0-23.552 9.216-45.6704 25.8048-62.2592l107.1104-107.1104c12.6976-12.6976 19.8656-29.696 19.8656-47.7184v-148.0704c0-8.8064-7.3728-15.9744-16.384-15.9744z m-126.1568 417.3824z" fill="#1C1D21" p-id="12978"></path></svg>