<svg xmlns="http://www.w3.org/2000/svg" viewBox="0 0 1024 1024" version="1.1"><path d="M512 512m-501.76 0a501.76 501.76 0 1 0 1003.52 0 501.76 501.76 0 1 0-1003.52 0Z" fill="#8CEEF9" p-id="10165"></path><path d="M506.0608 188.0064H563.2v605.5936h-57.1392z" fill="#FF3E63" p-id="10166"></path><path d="M562.9952 803.84H505.856c-5.7344 0-10.24-4.5056-10.24-10.24V188.0064c0-5.7344 4.5056-10.24 10.24-10.24h57.1392c5.7344 0 10.24 4.5056 10.24 10.24v605.5936c0 5.7344-4.5056 10.24-10.24 10.24z m-46.6944-20.48H552.96V198.2464h-36.6592v585.1136z" fill="#1C1D21" p-id="10167"></path><path d="M512 1024c-136.8064 0-265.4208-53.248-362.0864-149.9136C53.248 777.4208 0 648.8064 0 512S53.248 246.5792 149.9136 149.9136C246.5792 53.248 375.1936 0 512 0s265.4208 53.248 362.0864 149.9136C970.752 246.5792 1024 375.1936 1024 512s-53.248 265.4208-149.9136 362.0864C777.4208 970.752 648.8064 1024 512 1024z m0-1003.52C241.0496 20.48 20.48 241.0496 20.48 512s220.5696 491.52 491.52 491.52 491.52-220.5696 491.52-491.52S782.9504 20.48 512 20.48z" fill="#1C1D21" p-id="10168"></path><path d="M512 512m-501.76 0a501.76 501.76 0 1 0 1003.52 0 501.76 501.76 0 1 0-1003.52 0Z" fill="#0ABFB2" p-id="10169"></path><path d="M506.0608 188.0064H563.2v605.5936h-57.1392z" fill="#508DEF" p-id="10170"></path><path d="M506.0608 803.84c-5.7344 0-10.24-4.5056-10.24-10.24V188.0064c0-5.7344 4.5056-10.24 10.24-10.24s10.24 4.5056 10.24 10.24v605.5936c0 5.7344-4.7104 10.24-10.24 10.24zM562.9952 803.84c-5.7344 0-10.24-4.5056-10.24-10.24V188.0064c0-5.7344 4.5056-10.24 10.24-10.24s10.24 4.5056 10.24 10.24v605.5936c0 5.7344-4.5056 10.24-10.24 10.24z" fill="#1C1D21" p-id="10171"></path><path d="M562.9952 188.0064h57.1392v605.5936h-57.1392z" fill="#FFAEC3" p-id="10172"></path><path d="M562.9952 803.84c-5.7344 0-10.24-4.5056-10.24-10.24V188.0064c0-5.7344 4.5056-10.24 10.24-10.24s10.24 4.5056 10.24 10.24v605.5936c0 5.7344-4.5056 10.24-10.24 10.24zM620.1344 803.84c-5.7344 0-10.24-4.5056-10.24-10.24V188.0064c0-5.7344 4.5056-10.24 10.24-10.24s10.24 4.5056 10.24 10.24v605.5936c0 5.7344-4.5056 10.24-10.24 10.24z" fill="#1C1D21" p-id="10173"></path><path d="M512 1024c-136.8064 0-265.4208-53.248-362.0864-149.9136C53.248 777.4208 0 648.8064 0 512S53.248 246.5792 149.9136 149.9136C246.5792 53.248 375.1936 0 512 0s265.4208 53.248 362.0864 149.9136C970.752 246.5792 1024 375.1936 1024 512s-53.248 265.4208-149.9136 362.0864C777.4208 970.752 648.8064 1024 512 1024z m0-1003.52C241.0496 20.48 20.48 241.0496 20.48 512s220.5696 491.52 491.52 491.52 491.52-220.5696 491.52-491.52S782.9504 20.48 512 20.48z" fill="#1C1D21" p-id="10174"></path><path d="M445.0304 300.2368c-151.3472 0-274.0224 122.6752-274.0224 274.0224v121.856c0 20.8896 22.1184 34.2016 40.5504 24.576l116.5312-60.8256c29.696-15.5648 62.6688-23.552 96.256-23.552h20.48l0.2048 0.2048H503.808c32.768 0 59.1872-26.4192 59.1872-59.1872V359.424c0-32.768-26.4192-59.1872-59.1872-59.1872h-58.7776zM562.9952 584.0896V359.424c0-32.768 26.4192-59.1872 59.1872-59.1872h191.2832c31.744 0 50.5856 35.6352 32.5632 61.8496l-58.7776 85.1968c-10.24 14.9504-18.6368 31.3344-24.3712 48.5376l-32.768 96.0512c-10.4448 30.9248-39.5264 51.6096-72.0896 51.6096h-35.6352c-32.768-0.2048-59.392-26.8288-59.392-59.392z" fill="#FF3E63" p-id="10175"></path><path d="M198.656 734.0032c-6.7584 0-13.5168-1.8432-19.6608-5.5296-11.4688-6.9632-18.2272-19.0464-18.2272-32.5632v-121.856c0-26.4192 3.6864-52.6336 10.8544-78.0288 1.6384-5.5296 7.168-8.6016 12.6976-6.9632 5.5296 1.6384 8.6016 7.168 6.9632 12.6976-6.7584 23.3472-10.0352 47.7184-10.0352 72.2944v121.856c0 6.3488 3.072 11.6736 8.3968 14.9504 5.3248 3.2768 11.6736 3.4816 17.2032 0.6144l116.5312-60.8256c30.9248-16.1792 65.9456-24.7808 100.9664-24.7808h20.48c0.8192 0 1.6384 0 2.4576 0.2048H503.808c27.0336 0 48.9472-21.9136 48.9472-48.9472V359.424c0-27.0336-21.9136-48.9472-48.9472-48.9472h-58.7776c-35.4304 0-69.8368 6.9632-102.1952 20.48-5.12 2.2528-11.264-0.2048-13.312-5.5296-2.2528-5.12 0.2048-11.264 5.5296-13.312 35.0208-14.7456 72.0896-22.1184 110.1824-22.1184H503.808c38.2976 0 69.4272 31.1296 69.4272 69.4272v217.9072c0 38.2976-31.1296 69.4272-69.4272 69.4272h-58.7776c-0.8192 0-1.6384 0-2.4576-0.2048h-18.2272c-31.744 0-63.2832 7.7824-91.3408 22.3232l-116.5312 60.8256c-5.7344 2.8672-11.6736 4.3008-17.8176 4.3008z" fill="#1C1D21" p-id="10176"></path><path d="M197.0176 467.5584c-1.4336 0-2.8672-0.4096-4.3008-1.024-5.12-2.4576-7.3728-8.6016-4.9152-13.7216 16.7936-35.6352 40.3456-66.7648 70.0416-92.7744 4.3008-3.6864 10.6496-3.2768 14.5408 1.024 3.6864 4.3008 3.2768 10.6496-1.024 14.5408-27.648 24.1664-49.3568 53.0432-64.9216 86.2208-1.8432 3.6864-5.5296 5.7344-9.4208 5.7344zM295.7312 354.7136c-3.2768 0-6.5536-1.6384-8.6016-4.7104-3.072-4.7104-1.8432-11.0592 3.072-14.1312 1.8432-1.2288 3.4816-2.2528 5.3248-3.4816 4.7104-3.072 11.0592-1.4336 14.1312 3.2768s1.4336 11.0592-3.2768 14.1312l-4.9152 3.072c-1.8432 1.2288-3.8912 1.8432-5.7344 1.8432z" fill="#1C1D21" p-id="10177"></path><path d="M430.8992 351.8464c-5.3248 0-9.8304-4.096-10.24-9.6256-0.4096-5.7344 3.8912-10.4448 9.6256-10.8544 4.9152-0.2048 9.8304-0.4096 14.5408-0.4096 5.7344 0 10.24 4.5056 10.24 10.24s-4.5056 10.24-10.24 10.24c-4.5056 0-9.0112 0.2048-13.312 0.4096h-0.6144zM211.968 584.4992c-5.7344 0-10.24-4.5056-10.24-10.24 0-53.6576 17.2032-104.448 49.5616-147.0464 31.3344-41.1648 75.776-71.8848 125.3376-86.4256 5.5296-1.6384 11.0592 1.4336 12.6976 6.9632 1.6384 5.3248-1.4336 11.0592-6.9632 12.6976-94.208 27.648-160.1536 115.712-160.1536 213.8112 0 5.5296-4.7104 10.24-10.24 10.24z" fill="#FFAEC3" p-id="10178"></path><path d="M658.0224 653.5168h-35.6352c-38.2976 0-69.4272-31.1296-69.4272-69.4272V359.424c0-38.2976 31.1296-69.4272 69.4272-69.4272h191.2832c18.6368 0 35.4304 10.24 44.032 26.624 8.6016 16.384 7.3728 36.0448-3.072 51.4048l-58.7776 85.1968c-9.8304 14.1312-17.6128 29.696-23.1424 45.8752l-32.768 96.0512c-12.0832 34.816-45.056 58.368-81.92 58.368z m-35.84-343.04c-27.0336 0-48.9472 21.9136-48.9472 48.9472v224.6656c0 27.0336 21.9136 48.9472 48.9472 48.9472h35.6352c28.2624 0 53.248-18.0224 62.464-44.6464l32.768-96.0512c6.144-18.0224 14.7456-35.2256 25.6-50.9952l58.7776-85.1968c6.3488-9.0112 6.9632-20.48 1.8432-30.1056-5.12-9.8304-14.7456-15.5648-25.8048-15.5648h-191.2832z" fill="#1C1D21" p-id="10179"></path><path d="M603.9552 594.3296c-5.7344 0-10.24-4.5056-10.24-10.24V359.424c0-15.7696 12.6976-28.4672 28.4672-28.4672h24.576c5.7344 0 10.24 4.5056 10.24 10.24s-4.5056 10.24-10.24 10.24h-24.576c-4.5056 0-7.9872 3.6864-7.9872 7.9872v224.6656c0 5.5296-4.5056 10.24-10.24 10.24zM691.2 351.8464h-6.7584c-5.7344 0-10.24-4.5056-10.24-10.24s4.5056-10.24 10.24-10.24h6.7584c5.7344 0 10.24 4.5056 10.24 10.24s-4.5056 10.24-10.24 10.24z" fill="#FFAEC3" p-id="10180"></path><path d="M334.0288 549.6832c-5.7344 0-10.24-4.5056-10.24-10.24v-96.6656c0-5.7344 4.5056-10.24 10.24-10.24s10.24 4.5056 10.24 10.24v96.6656c0 5.5296-4.5056 10.24-10.24 10.24z" fill="#1C1D21" p-id="10181"></path><path d="M299.8272 535.552c-2.6624 0-5.3248-1.024-7.168-3.072-4.096-4.096-4.096-10.4448 0-14.5408l68.4032-68.4032c4.096-4.096 10.4448-4.096 14.5408 0s4.096 10.4448 0 14.5408L306.9952 532.48c-1.8432 2.048-4.5056 3.072-7.168 3.072z" fill="#1C1D21" p-id="10182"></path><path d="M382.3616 501.3504h-96.6656c-5.7344 0-10.24-4.5056-10.24-10.24s4.5056-10.24 10.24-10.24h96.6656c5.7344 0 10.24 4.5056 10.24 10.24s-4.5056 10.24-10.24 10.24z" fill="#1C1D21" p-id="10183"></path><path d="M368.2304 535.552c-2.6624 0-5.3248-1.024-7.168-3.072l-68.4032-68.4032c-4.096-4.096-4.096-10.4448 0-14.5408s10.4448-4.096 14.5408 0l68.4032 68.4032c4.096 4.096 4.096 10.4448 0 14.5408-2.2528 2.048-4.7104 3.072-7.3728 3.072z" fill="#1C1D21" p-id="10184"></path><path d="M334.0288 491.1104m-32.9728 0a32.9728 32.9728 0 1 0 65.9456 0 32.9728 32.9728 0 1 0-65.9456 0Z" fill="#C67552" p-id="10185"></path><path d="M334.0288 534.3232c-23.7568 0-43.2128-19.456-43.2128-43.2128 0-23.7568 19.456-43.2128 43.2128-43.2128s43.2128 19.456 43.2128 43.2128c0 23.7568-19.456 43.2128-43.2128 43.2128z m0-65.9456c-12.4928 0-22.7328 10.24-22.7328 22.7328s10.24 22.7328 22.7328 22.7328 22.7328-10.24 22.7328-22.7328-10.24-22.7328-22.7328-22.7328zM471.2448 549.6832c-5.7344 0-10.24-4.5056-10.24-10.24v-96.6656c0-5.7344 4.5056-10.24 10.24-10.24s10.24 4.5056 10.24 10.24v96.6656c0 5.5296-4.5056 10.24-10.24 10.24z" fill="#1C1D21" p-id="10186"></path><path d="M437.0432 535.552c-2.6624 0-5.3248-1.024-7.168-3.072-4.096-4.096-4.096-10.4448 0-14.5408l68.4032-68.4032c4.096-4.096 10.4448-4.096 14.5408 0s4.096 10.4448 0 14.5408L444.416 532.48c-2.048 2.048-4.7104 3.072-7.3728 3.072z" fill="#1C1D21" p-id="10187"></path><path d="M519.5776 501.3504h-96.6656c-5.7344 0-10.24-4.5056-10.24-10.24s4.5056-10.24 10.24-10.24h96.6656c5.7344 0 10.24 4.5056 10.24 10.24s-4.5056 10.24-10.24 10.24z" fill="#1C1D21" p-id="10188"></path><path d="M505.4464 535.552c-2.6624 0-5.3248-1.024-7.168-3.072l-68.4032-68.4032c-4.096-4.096-4.096-10.4448 0-14.5408s10.4448-4.096 14.5408 0l68.4032 68.4032c4.096 4.096 4.096 10.4448 0 14.5408-2.048 2.048-4.7104 3.072-7.3728 3.072z" fill="#1C1D21" p-id="10189"></path><path d="M471.2448 491.1104m-32.9728 0a32.9728 32.9728 0 1 0 65.9456 0 32.9728 32.9728 0 1 0-65.9456 0Z" fill="#C67552" p-id="10190"></path><path d="M471.2448 534.3232c-23.7568 0-43.2128-19.456-43.2128-43.2128 0-23.7568 19.456-43.2128 43.2128-43.2128s43.2128 19.456 43.2128 43.2128c0 23.7568-19.2512 43.2128-43.2128 43.2128z m0-65.9456c-12.4928 0-22.7328 10.24-22.7328 22.7328s10.24 22.7328 22.7328 22.7328 22.7328-10.24 22.7328-22.7328-10.24-22.7328-22.7328-22.7328zM754.0736 434.7904h-151.552c-5.7344 0-10.24-4.5056-10.24-10.24s4.5056-10.24 10.24-10.24h151.552c5.7344 0 10.24 4.5056 10.24 10.24s-4.5056 10.24-10.24 10.24z" fill="#1C1D21" p-id="10191"></path><path d="M678.2976 478.8224c-5.7344 0-10.24-4.5056-10.24-10.24v-88.064c0-5.7344 4.5056-10.24 10.24-10.24s10.24 4.5056 10.24 10.24v88.064c0 5.7344-4.5056 10.24-10.24 10.24zM639.5904 478.8224c-5.7344 0-10.24-4.5056-10.24-10.24v-88.064c0-5.7344 4.5056-10.24 10.24-10.24s10.24 4.5056 10.24 10.24v88.064c0 5.7344-4.5056 10.24-10.24 10.24zM717.0048 478.8224c-5.7344 0-10.24-4.5056-10.24-10.24v-88.064c0-5.7344 4.5056-10.24 10.24-10.24s10.24 4.5056 10.24 10.24v88.064c0 5.7344-4.5056 10.24-10.24 10.24z" fill="#1C1D21" p-id="10192"></path><path d="M714.1376 447.0784h-71.4752c-12.288 0-22.3232-10.0352-22.3232-22.3232s10.0352-22.3232 22.3232-22.3232h71.4752c12.288 0 22.3232 10.0352 22.3232 22.3232s-10.0352 22.3232-22.3232 22.3232z" fill="#C67552" p-id="10193"></path><path d="M714.1376 457.3184h-71.4752c-18.0224 0-32.5632-14.5408-32.5632-32.5632s14.5408-32.5632 32.5632-32.5632h71.4752c18.0224 0 32.5632 14.5408 32.5632 32.5632s-14.7456 32.5632-32.5632 32.5632z m-71.4752-44.8512c-6.7584 0-12.0832 5.5296-12.0832 12.0832 0 6.7584 5.5296 12.0832 12.0832 12.0832h71.4752c6.7584 0 12.0832-5.5296 12.0832-12.0832 0-6.7584-5.5296-12.0832-12.0832-12.0832h-71.4752z" fill="#1C1D21" p-id="10194"></path></svg>