<svg xmlns="http://www.w3.org/2000/svg" viewBox="0 0 1024 1024" version="1.1"><path d="M512 512m-501.76 0a501.76 501.76 0 1 0 1003.52 0 501.76 501.76 0 1 0-1003.52 0Z" fill="#508DEF" p-id="13910"></path><path d="M512 1024c-136.8064 0-265.4208-53.248-362.0864-149.9136C53.248 777.4208 0 648.8064 0 512S53.248 246.5792 149.9136 149.9136C246.5792 53.248 375.1936 0 512 0s265.4208 53.248 362.0864 149.9136C970.752 246.5792 1024 375.1936 1024 512s-53.248 265.4208-149.9136 362.0864C777.4208 970.752 648.8064 1024 512 1024z m0-1003.52C241.0496 20.48 20.48 241.0496 20.48 512s220.5696 491.52 491.52 491.52 491.52-220.5696 491.52-491.52S782.9504 20.48 512 20.48z" fill="#1C1D21" p-id="13911"></path><path d="M140.4928 849.3056C232.2432 950.272 364.7488 1013.76 512 1013.76s279.7568-63.488 371.5072-164.4544H140.4928z" fill="#0ABFB2" p-id="13912"></path><path d="M512 1024c-73.5232 0-144.384-15.1552-210.7392-45.2608-64.1024-29.0816-120.832-70.2464-168.3456-122.6752-2.6624-3.072-3.4816-7.3728-1.8432-11.0592 1.6384-3.6864 5.3248-6.144 9.4208-6.144h743.0144c4.096 0 7.7824 2.4576 9.4208 6.144 1.6384 3.6864 1.024 7.9872-1.8432 11.0592-47.5136 52.4288-104.2432 93.5936-168.3456 122.6752-66.3552 30.1056-137.216 45.2608-210.7392 45.2608zM164.4544 859.5456c91.7504 91.7504 217.088 143.9744 347.5456 143.9744s255.7952-52.224 347.5456-143.9744H164.4544z" fill="#1C1D21" p-id="13913"></path><path d="M642.048 440.7296c-18.2272-5.7344-35.84-13.312-53.0432-21.2992l-37.888-17.8176c-9.216-4.096-15.1552-13.1072-15.1552-23.1424v-13.1072c0-7.3728 4.3008-13.7216 11.0592-16.9984 28.2624-13.312 47.7184-41.984 47.7184-75.1616v-38.0928c0-45.8752-37.0688-82.944-82.944-82.944s-82.944 37.0688-82.944 82.944v38.0928c0 33.1776 19.456 61.8496 47.7184 75.1616 6.5536 3.072 11.0592 9.6256 11.0592 16.9984v13.1072c0 10.0352-5.9392 19.0464-15.1552 23.1424L434.176 419.84c-16.9984 7.9872-34.2016 15.5648-52.224 21.0944-15.36 4.7104-26.624 19.2512-26.624 36.2496v76.8h313.344V477.184c0-17.408-11.0592-31.744-26.624-36.4544z" fill="#FFC5B3" p-id="13914"></path><path d="M668.672 563.8144h-313.344c-5.7344 0-10.24-4.5056-10.24-10.24v-76.8c0-21.0944 13.5168-39.7312 33.792-45.8752 19.0464-5.9392 37.2736-14.1312 50.7904-20.6848l38.2976-18.2272s0.2048 0 0.2048-0.2048c5.5296-2.4576 9.0112-7.7824 9.0112-13.7216v-13.1072c0-3.2768-2.048-6.144-5.12-7.5776-32.5632-15.36-53.6576-48.5376-53.6576-84.3776v-38.0928c0-51.4048 41.7792-93.184 93.184-93.184s93.184 41.7792 93.184 93.184v38.0928c0 36.0448-21.0944 69.0176-53.6576 84.3776-3.072 1.4336-5.12 4.5056-5.12 7.5776v13.1072c0 5.9392 3.4816 11.4688 9.0112 13.7216h0.2048l37.888 17.8176c13.9264 6.5536 32.3584 14.9504 51.8144 20.8896 20.2752 6.3488 33.792 24.7808 33.792 45.8752v76.8c0.2048 6.144-4.3008 10.6496-10.0352 10.6496z m-303.104-20.48h292.864v-66.56c0-12.0832-7.7824-22.7328-19.456-26.4192-20.48-6.3488-39.936-15.1552-54.4768-21.9136l-37.888-17.8176c-12.9024-5.7344-21.0944-18.432-21.0944-32.5632v-13.1072c0-11.0592 6.5536-21.2992 16.7936-26.2144 25.3952-11.8784 41.7792-37.888 41.7792-65.9456v-38.0928c0-40.1408-32.5632-72.704-72.704-72.704s-72.704 32.5632-72.704 72.704v38.0928c0 28.0576 16.384 53.8624 41.7792 65.9456 10.24 4.7104 16.7936 15.1552 16.7936 26.2144v13.1072c0 13.9264-8.192 26.8288-21.0944 32.3584l-38.0928 18.0224c-14.1312 6.7584-33.1776 15.36-53.4528 21.7088-11.6736 3.6864-19.456 14.1312-19.456 26.4192v66.7648z" fill="#1C1D21" p-id="13915"></path><path d="M582.2464 172.2368v-15.1552c0-38.912-31.5392-70.4512-70.4512-70.4512s-70.4512 31.5392-70.4512 70.4512v15.1552h140.9024z" fill="#AAADAD" p-id="13916"></path><path d="M582.2464 182.4768h-140.9024c-5.7344 0-10.24-4.5056-10.24-10.24v-15.1552c0-44.4416 36.2496-80.6912 80.6912-80.6912s80.6912 36.2496 80.6912 80.6912v15.1552c0 5.7344-4.7104 10.24-10.24 10.24z m-130.6624-20.48h120.4224v-4.9152c0-33.1776-27.0336-60.2112-60.2112-60.2112s-60.2112 27.0336-60.2112 60.2112v4.9152z" fill="#1C1D21" p-id="13917"></path><path d="M643.6864 441.1392c-17.408-6.144-34.816-12.4928-51.4048-20.48l-41.1648-19.2512c-0.4096-0.2048-0.6144-0.4096-1.024-0.6144-22.9376 15.5648-53.0432 15.7696-76.1856 0.2048l-0.4096-0.2048c-0.4096 0.2048-0.6144 0.4096-1.024 0.6144l-41.1648 19.456c-16.384 7.7824-33.5872 14.1312-50.7904 20.2752-14.5408 5.3248-24.9856 19.2512-24.9856 35.6352v76.8h313.344v-76.8c-0.2048-16.384-10.6496-30.3104-25.1904-35.6352z" fill="#AAADAD" p-id="13918"></path><path d="M668.672 563.8144h-313.344c-5.7344 0-10.24-4.5056-10.24-10.24v-76.8c0-20.2752 12.9024-38.5024 31.9488-45.2608 17.2032-6.144 33.792-12.288 49.7664-19.8656l41.1648-19.456s0.2048 0 0.2048-0.2048l0.6144-0.2048c3.2768-1.6384 7.168-1.4336 10.24 0.6144l0.4096 0.2048c19.6608 13.1072 45.2608 13.1072 64.9216-0.2048 3.072-2.048 6.9632-2.2528 10.24-0.6144l0.6144 0.4096h0.2048l41.1648 19.2512c15.9744 7.5776 32.3584 13.5168 50.5856 20.0704 19.0464 6.7584 31.9488 24.9856 31.9488 45.2608v76.8c-0.2048 5.7344-4.7104 10.24-10.4448 10.24z m-303.104-20.48h292.864v-66.56c0-11.6736-7.3728-22.1184-18.2272-26.0096-18.6368-6.7584-35.6352-12.9024-52.4288-20.8896l-37.0688-17.408c-24.1664 13.9264-53.8624 13.9264-78.0288 0l-37.2736 17.6128c-16.7936 7.9872-33.9968 14.336-51.6096 20.6848-10.8544 3.8912-18.2272 14.336-18.2272 26.0096v66.56zM535.7568 322.3552c-3.4816 0-6.9632-1.8432-8.8064-5.12-3.072-5.3248-8.8064-8.6016-14.7456-8.6016s-11.6736 3.2768-14.7456 8.6016c-2.8672 4.9152-9.0112 6.5536-13.9264 3.6864-4.9152-2.8672-6.5536-9.0112-3.6864-13.9264 6.7584-11.4688 19.2512-18.8416 32.5632-18.8416s25.8048 7.168 32.5632 18.8416c2.8672 4.9152 1.2288 11.0592-3.6864 13.9264-2.048 1.024-3.8912 1.4336-5.5296 1.4336z" fill="#1C1D21" p-id="13919"></path><path d="M666.0096 849.3056H290.4064V574.0544c0-11.264 9.216-20.48 20.48-20.48h355.1232v295.7312z" fill="#FF8939" p-id="13920"></path><path d="M331.3664 641.024c-5.7344 0-10.24-4.5056-10.24-10.24v-36.2496c0-5.7344 4.5056-10.24 10.24-10.24s10.24 4.5056 10.24 10.24V630.784c0 5.7344-4.5056 10.24-10.24 10.24z" fill="#FFC9A4" p-id="13921"></path><path d="M666.0096 849.3056h67.584V574.0544c0-11.264-9.216-20.48-20.48-20.48h-47.104v295.7312z" fill="#E06C1E" p-id="13922"></path><path d="M666.0096 859.5456H290.4064c-5.7344 0-10.24-4.5056-10.24-10.24V574.0544c0-16.9984 13.7216-30.72 30.72-30.72h355.1232c5.7344 0 10.24 4.5056 10.24 10.24v295.7312c0 5.5296-4.5056 10.24-10.24 10.24z m-365.3632-20.48h355.1232V563.8144H310.8864c-5.7344 0-10.24 4.5056-10.24 10.24v265.0112z" fill="#1C1D21" p-id="13923"></path><path d="M733.7984 859.5456h-67.584c-5.7344 0-10.24-4.5056-10.24-10.24V553.5744c0-5.7344 4.5056-10.24 10.24-10.24h47.104c16.9984 0 30.72 13.7216 30.72 30.72v275.2512c0 5.5296-4.7104 10.24-10.24 10.24z m-57.5488-20.48h47.104V574.0544c0-5.7344-4.5056-10.24-10.24-10.24h-36.864v275.2512zM414.72 562.176c-5.7344 0-10.24-4.5056-10.24-10.24v-50.7904c0-5.7344 4.5056-10.24 10.24-10.24s10.24 4.5056 10.24 10.24v50.7904c0 5.5296-4.5056 10.24-10.24 10.24zM609.28 562.176c-5.7344 0-10.24-4.5056-10.24-10.24v-50.7904c0-5.7344 4.5056-10.24 10.24-10.24s10.24 4.5056 10.24 10.24v50.7904c0 5.5296-4.5056 10.24-10.24 10.24z" fill="#1C1D21" p-id="13924"></path><path d="M589.4144 214.2208h-154.624c-11.0592 0-19.8656-9.0112-19.8656-19.8656V192.512c0-11.0592 9.0112-19.8656 19.8656-19.8656h154.624c11.0592 0 20.0704 9.0112 20.0704 19.8656v1.8432c-0.2048 10.8544-9.0112 19.8656-20.0704 19.8656z" fill="#AAADAD" p-id="13925"></path><path d="M414.9248 276.8896h14.1312v-48.128h-14.1312c-12.6976 0-22.9376 10.24-22.9376 22.9376v2.2528c-0.2048 12.4928 10.24 22.9376 22.9376 22.9376z" fill="#FFC5B3" p-id="13926"></path><path d="M429.056 286.9248h-14.1312c-18.2272 0-33.1776-14.9504-33.1776-33.1776v-2.2528c0-18.2272 14.9504-33.1776 33.1776-33.1776h14.1312c5.7344 0 10.24 4.5056 10.24 10.24v48.128c0 5.7344-4.7104 10.24-10.24 10.24z m-14.1312-48.128c-6.9632 0-12.6976 5.7344-12.6976 12.6976v2.2528c0 6.9632 5.7344 12.6976 12.6976 12.6976h3.8912v-27.648h-3.8912z" fill="#1C1D21" p-id="13927"></path><path d="M609.28 228.5568h-14.1312v48.128h14.1312c12.6976 0 22.9376-10.24 22.9376-22.9376v-2.2528c0-12.6976-10.24-22.9376-22.9376-22.9376z" fill="#FFC5B3" p-id="13928"></path><path d="M609.28 286.9248h-14.1312c-5.7344 0-10.24-4.5056-10.24-10.24v-48.128c0-5.7344 4.5056-10.24 10.24-10.24h14.1312c18.2272 0 33.1776 14.9504 33.1776 33.1776v2.2528c0 18.432-14.9504 33.1776-33.1776 33.1776z m-3.8912-20.48h3.8912c6.9632 0 12.6976-5.7344 12.6976-12.6976v-2.2528c0-6.9632-5.7344-12.6976-12.6976-12.6976h-3.8912v27.648z" fill="#1C1D21" p-id="13929"></path><path d="M601.9072 469.4016c12.9024 0 23.3472-10.4448 23.3472-23.3472v-11.6736c-11.264-4.096-22.3232-8.6016-32.9728-13.7216l-13.7216-6.3488v31.744c0 12.9024 10.4448 23.3472 23.3472 23.3472z" fill="#FFC5B3" p-id="13930"></path><path d="M601.9072 479.6416c-18.432 0-33.5872-15.1552-33.5872-33.5872v-31.744c0-3.4816 1.8432-6.7584 4.7104-8.6016 2.8672-1.8432 6.7584-2.048 9.8304-0.6144l13.7216 6.3488c9.216 4.3008 19.456 8.6016 32.3584 13.312 4.096 1.4336 6.5536 5.3248 6.5536 9.6256v11.6736c0 18.6368-14.9504 33.5872-33.5872 33.5872z m-13.1072-49.152v15.5648c0 7.168 5.9392 13.1072 13.1072 13.1072s13.1072-5.9392 13.1072-13.1072v-4.5056c-9.8304-3.8912-18.432-7.3728-26.2144-11.0592z" fill="#1C1D21" p-id="13931"></path><path d="M517.3248 553.5744H464.896v-27.4432c0-13.9264 11.264-24.9856 24.9856-24.9856h2.4576c13.9264 0 24.9856 11.264 24.9856 24.9856v27.4432z" fill="#FFC5B3" p-id="13932"></path><path d="M517.3248 563.8144H464.896c-5.7344 0-10.24-4.5056-10.24-10.24v-27.4432c0-19.456 15.7696-35.2256 35.2256-35.2256h2.4576c19.456 0 35.2256 15.7696 35.2256 35.2256v27.4432c0 5.7344-4.5056 10.24-10.24 10.24z m-42.1888-20.48h31.9488v-17.2032c0-8.192-6.5536-14.7456-14.7456-14.7456h-2.4576c-8.192 0-14.7456 6.5536-14.7456 14.7456v17.2032z" fill="#1C1D21" p-id="13933"></path><path d="M303.5136 797.696c-14.336 0-25.8048 11.4688-25.8048 25.8048s11.4688 25.8048 25.8048 25.8048h188.8256v-51.6096h-188.8256z" fill="#AA4D2D" p-id="13934"></path><path d="M492.544 859.5456h-188.8256c-19.8656 0-36.0448-16.1792-36.0448-36.0448 0-19.8656 16.1792-36.0448 36.0448-36.0448h188.8256c5.7344 0 10.24 4.5056 10.24 10.24v51.6096c0 5.5296-4.7104 10.24-10.24 10.24z m-189.0304-51.6096c-8.6016 0-15.5648 6.9632-15.5648 15.5648s6.9632 15.5648 15.5648 15.5648h178.5856v-31.1296h-178.5856z" fill="#1C1D21" p-id="13935"></path><path d="M492.544 823.5008m-25.8048 0a25.8048 25.8048 0 1 0 51.6096 0 25.8048 25.8048 0 1 0-51.6096 0Z" fill="#FFC5B3" p-id="13936"></path><path d="M492.544 859.5456c-19.8656 0-36.0448-16.1792-36.0448-36.0448 0-19.8656 16.1792-36.0448 36.0448-36.0448s36.0448 16.1792 36.0448 36.0448c0 19.8656-16.1792 36.0448-36.0448 36.0448z m0-51.6096c-8.6016 0-15.5648 6.9632-15.5648 15.5648s6.9632 15.5648 15.5648 15.5648 15.5648-6.9632 15.5648-15.5648-6.9632-15.5648-15.5648-15.5648z" fill="#1C1D21" p-id="13937"></path><path d="M250.6752 797.696c-14.336 0-25.8048 11.4688-25.8048 25.8048s11.4688 25.8048 25.8048 25.8048h188.8256v-51.6096h-188.8256z" fill="#AA4D2D" p-id="13938"></path><path d="M439.5008 859.5456h-188.8256c-19.8656 0-36.0448-16.1792-36.0448-36.0448 0-19.8656 16.1792-36.0448 36.0448-36.0448h188.8256c5.7344 0 10.24 4.5056 10.24 10.24v51.6096c0 5.5296-4.7104 10.24-10.24 10.24z m-188.8256-51.6096c-8.6016 0-15.5648 6.9632-15.5648 15.5648s6.9632 15.5648 15.5648 15.5648h178.5856v-31.1296h-178.5856z" fill="#1C1D21" p-id="13939"></path><path d="M439.5008 823.5008m-25.8048 0a25.8048 25.8048 0 1 0 51.6096 0 25.8048 25.8048 0 1 0-51.6096 0Z" fill="#FFC5B3" p-id="13940"></path><path d="M439.5008 859.5456c-19.8656 0-36.0448-16.1792-36.0448-36.0448 0-19.8656 16.1792-36.0448 36.0448-36.0448 19.8656 0 36.0448 16.1792 36.0448 36.0448 0 19.8656-16.1792 36.0448-36.0448 36.0448z m0-51.6096c-8.6016 0-15.5648 6.9632-15.5648 15.5648s6.9632 15.5648 15.5648 15.5648c8.6016 0 15.5648-6.9632 15.5648-15.5648s-6.9632-15.5648-15.5648-15.5648z" fill="#1C1D21" p-id="13941"></path><path d="M281.6 746.0864c-14.336 0-25.8048 11.4688-25.8048 25.8048s11.4688 25.8048 25.8048 25.8048h188.8256v-51.6096h-188.8256z" fill="#AA4D2D" p-id="13942"></path><path d="M470.4256 807.936h-188.8256c-19.8656 0-36.0448-16.1792-36.0448-36.0448 0-19.8656 16.1792-36.0448 36.0448-36.0448h188.8256c5.7344 0 10.24 4.5056 10.24 10.24v51.6096c0 5.5296-4.5056 10.24-10.24 10.24z m-188.8256-51.6096c-8.6016 0-15.5648 6.9632-15.5648 15.5648s6.9632 15.5648 15.5648 15.5648h178.5856v-31.1296h-178.5856z" fill="#1C1D21" p-id="13943"></path><path d="M470.4256 771.8912m-25.8048 0a25.8048 25.8048 0 1 0 51.6096 0 25.8048 25.8048 0 1 0-51.6096 0Z" fill="#FFC5B3" p-id="13944"></path><path d="M470.4256 807.936c-19.8656 0-36.0448-16.1792-36.0448-36.0448 0-19.8656 16.1792-36.0448 36.0448-36.0448s36.0448 16.1792 36.0448 36.0448c0 19.8656-16.1792 36.0448-36.0448 36.0448z m0-51.6096c-8.6016 0-15.5648 6.9632-15.5648 15.5648s6.9632 15.5648 15.5648 15.5648 15.5648-6.9632 15.5648-15.5648-6.9632-15.5648-15.5648-15.5648z" fill="#1C1D21" p-id="13945"></path><path d="M419.0208 746.0864c19.2512-18.0224 29.696-40.1408 29.696-62.8736v-14.7456l-31.3344 29.0816v-7.7824c0-28.0576-7.9872-55.7056-23.552-81.5104-15.5648 25.8048-23.552 53.4528-23.552 81.5104v7.7824l-31.3344-29.0816v14.7456c0 22.7328 10.4448 44.8512 29.696 62.8736h50.3808z" fill="#FF3E63" p-id="13946"></path><path d="M419.0208 756.3264H368.64c-2.6624 0-5.12-1.024-6.9632-2.8672-21.0944-19.8656-32.768-44.8512-32.768-70.2464v-14.7456c0-4.096 2.4576-7.7824 6.144-9.4208 3.6864-1.6384 7.9872-0.8192 11.0592 1.8432l14.7456 13.7216c2.2528-24.7808 10.4448-48.9472 24.1664-71.8848 1.8432-3.072 5.12-4.9152 8.8064-4.9152s6.9632 1.8432 8.8064 4.9152c13.7216 22.9376 21.9136 47.104 24.1664 71.8848l14.7456-13.7216c3.072-2.8672 7.3728-3.4816 11.0592-1.8432 3.6864 1.6384 6.144 5.3248 6.144 9.4208v14.7456c0 25.3952-11.6736 50.3808-32.768 70.2464-1.8432 1.8432-4.3008 2.8672-6.9632 2.8672z m-46.08-20.48h41.984c12.9024-13.1072 20.6848-27.8528 22.9376-43.4176l-13.5168 12.4928c-3.072 2.8672-7.3728 3.4816-11.0592 1.8432s-6.144-5.3248-6.144-9.4208v-7.7824c0-20.48-4.5056-40.3456-13.312-59.5968-8.8064 19.2512-13.312 39.3216-13.312 59.5968v7.7824c0 4.096-2.4576 7.7824-6.144 9.4208-3.6864 1.6384-7.9872 0.8192-11.0592-1.8432l-13.5168-12.4928c2.4576 15.5648 10.24 30.3104 23.1424 43.4176zM796.672 563.8144h-129.4336c-5.7344 0-10.24-4.5056-10.24-10.24s4.5056-10.24 10.24-10.24H796.672c5.7344 0 10.24 4.5056 10.24 10.24s-4.5056 10.24-10.24 10.24zM356.7616 563.8144H227.328c-5.7344 0-10.24-4.5056-10.24-10.24s4.5056-10.24 10.24-10.24h129.4336c5.7344 0 10.24 4.5056 10.24 10.24s-4.7104 10.24-10.24 10.24zM187.8016 563.8144h-8.6016c-5.7344 0-10.24-4.5056-10.24-10.24s4.5056-10.24 10.24-10.24h8.6016c5.7344 0 10.24 4.5056 10.24 10.24s-4.5056 10.24-10.24 10.24zM844.5952 563.8144h-8.6016c-5.7344 0-10.24-4.5056-10.24-10.24s4.5056-10.24 10.24-10.24h8.6016c5.7344 0 10.24 4.5056 10.24 10.24s-4.5056 10.24-10.24 10.24z" fill="#1C1D21" p-id="13947"></path><path d="M469.6064 283.4432c-5.7344 0-10.24-4.5056-10.24-10.24v-58.9824c0-5.7344 4.5056-10.24 10.24-10.24s10.24 4.5056 10.24 10.24v58.9824c0 5.7344-4.5056 10.24-10.24 10.24z" fill="#FFECE9" p-id="13948"></path><path d="M422.7072 479.6416c-4.096 0-7.7824-2.4576-9.4208-6.3488-2.048-5.3248 0.4096-11.264 5.5296-13.312 11.264-4.7104 21.7088-9.4208 28.4672-12.6976l18.0224-8.6016c5.12-2.4576 11.264-0.2048 13.7216 4.9152 2.4576 5.12 0.2048 11.264-4.9152 13.7216l-18.0224 8.6016c-6.9632 3.2768-17.6128 8.192-29.4912 13.1072-1.2288 0.4096-2.4576 0.6144-3.8912 0.6144z" fill="#E0E0E0" p-id="13949"></path><path d="M589.4144 224.4608h-154.624c-16.5888 0-30.3104-13.5168-30.3104-30.3104v-1.8432c0-16.5888 13.5168-30.3104 30.3104-30.3104h154.624c16.5888 0 30.3104 13.5168 30.3104 30.3104v1.8432c-0.2048 16.7936-13.7216 30.3104-30.3104 30.3104z m-154.624-41.984c-5.3248 0-9.8304 4.3008-9.8304 9.8304v1.8432c0 5.3248 4.3008 9.8304 9.8304 9.8304h154.624c5.3248 0 9.8304-4.3008 9.8304-9.8304v-1.8432c0-5.3248-4.3008-9.8304-9.8304-9.8304h-154.624z" fill="#1C1D21" p-id="13950"></path></svg>