<svg xmlns="http://www.w3.org/2000/svg" viewBox="0 0 1024 1024" version="1.1"><path d="M512 512m-501.76 0a501.76 501.76 0 1 0 1003.52 0 501.76 501.76 0 1 0-1003.52 0Z" fill="#8CEEF9" p-id="8785"></path><path d="M810.3936 540.672v-78.6432c0-51.6096-30.72-98.0992-78.0288-118.3744l-169.3696-72.704c-16.1792-6.9632-33.1776-10.4448-50.7904-10.4448s-34.6112 3.4816-50.7904 10.4448l-169.3696 72.704a128.7168 128.7168 0 0 0-78.0288 118.3744V540.672h596.3776z" fill="#0ABFB2" p-id="8786"></path><path d="M810.3936 550.912H213.6064c-5.7344 0-10.24-4.5056-10.24-10.24v-78.6432c0-55.7056 32.9728-105.8816 84.1728-127.7952l169.3696-72.704c17.408-7.5776 35.84-11.264 54.8864-11.264s37.4784 3.8912 54.8864 11.264l169.3696 72.704c51.2 21.9136 84.1728 72.0896 84.1728 127.7952V540.672c0.4096 5.7344-4.3008 10.24-9.8304 10.24z m-586.5472-20.48h576.1024v-68.4032c0-47.5136-28.2624-90.3168-71.8848-108.9536l-169.3696-72.704c-14.9504-6.3488-30.72-9.6256-46.8992-9.6256s-31.9488 3.2768-46.8992 9.6256l-169.3696 72.704c-43.6224 18.8416-71.8848 61.44-71.8848 108.9536V530.432z" fill="#1C1D21" p-id="8787"></path><path d="M1010.0736 572.8256c2.4576-19.8656 3.6864-40.1408 3.6864-60.8256H10.24c0 20.48 1.2288 40.7552 3.6864 60.8256h996.1472z" fill="#0ABFB2" p-id="8788"></path><path d="M1010.0736 583.0656H13.9264c-5.12 0-9.6256-3.8912-10.24-9.0112C1.2288 553.3696 0 532.48 0 512c0-5.7344 4.5056-10.24 10.24-10.24h1003.52c5.7344 0 10.24 4.5056 10.24 10.24 0 20.48-1.2288 41.3696-3.6864 62.0544-0.6144 5.12-5.12 9.0112-10.24 9.0112z m-986.9312-20.48h977.92c1.4336-13.312 2.2528-26.8288 2.4576-40.3456H20.6848c0.2048 13.312 1.024 26.8288 2.4576 40.3456z" fill="#1C1D21" p-id="8789"></path><path d="M316.0064 399.9744l169.3696-72.704c16.9984-7.3728 36.2496-7.3728 53.248 0l169.3696 72.704c24.7808 10.6496 40.7552 35.0208 40.7552 62.0544V872.448H275.0464V462.0288c0-27.0336 16.1792-51.4048 40.96-62.0544z" fill="#FFECE9" p-id="8790"></path><path d="M451.1744 760.4224h121.4464c11.264 0 20.48 9.216 20.48 20.48V872.448h-162.4064v-91.5456c0-11.264 9.216-20.48 20.48-20.48zM402.0224 598.016h-40.96c-5.7344 0-10.24-4.5056-10.24-10.24v-40.96c0-5.7344 4.5056-10.24 10.24-10.24h40.96c5.7344 0 10.24 4.5056 10.24 10.24v40.96c0 5.7344-4.7104 10.24-10.24 10.24zM463.4624 598.016h-40.96c-5.7344 0-10.24-4.5056-10.24-10.24v-40.96c0-5.7344 4.5056-10.24 10.24-10.24h40.96c5.7344 0 10.24 4.5056 10.24 10.24v40.96c0 5.7344-4.7104 10.24-10.24 10.24zM402.0224 659.456h-40.96c-5.7344 0-10.24-4.5056-10.24-10.24v-40.96c0-5.7344 4.5056-10.24 10.24-10.24h40.96c5.7344 0 10.24 4.5056 10.24 10.24v40.96c0 5.7344-4.7104 10.24-10.24 10.24zM463.4624 659.456h-40.96c-5.7344 0-10.24-4.5056-10.24-10.24v-40.96c0-5.7344 4.5056-10.24 10.24-10.24h40.96c5.7344 0 10.24 4.5056 10.24 10.24v40.96c0 5.7344-4.7104 10.24-10.24 10.24zM601.4976 598.016h-40.96c-5.7344 0-10.24-4.5056-10.24-10.24v-40.96c0-5.7344 4.5056-10.24 10.24-10.24h40.96c5.7344 0 10.24 4.5056 10.24 10.24v40.96c0 5.7344-4.5056 10.24-10.24 10.24zM662.9376 598.016h-40.96c-5.7344 0-10.24-4.5056-10.24-10.24v-40.96c0-5.7344 4.5056-10.24 10.24-10.24h40.96c5.7344 0 10.24 4.5056 10.24 10.24v40.96c0 5.7344-4.5056 10.24-10.24 10.24zM601.4976 659.456h-40.96c-5.7344 0-10.24-4.5056-10.24-10.24v-40.96c0-5.7344 4.5056-10.24 10.24-10.24h40.96c5.7344 0 10.24 4.5056 10.24 10.24v40.96c0 5.7344-4.5056 10.24-10.24 10.24zM662.9376 659.456h-40.96c-5.7344 0-10.24-4.5056-10.24-10.24v-40.96c0-5.7344 4.5056-10.24 10.24-10.24h40.96c5.7344 0 10.24 4.5056 10.24 10.24v40.96c0 5.7344-4.5056 10.24-10.24 10.24z" fill="#8CEEF9" p-id="8791"></path><path d="M512 1024c-136.8064 0-265.4208-53.248-362.0864-149.9136S0 648.8064 0 512 53.248 246.5792 149.9136 149.9136 375.1936 0 512 0s265.4208 53.248 362.0864 149.9136S1024 375.1936 1024 512s-53.248 265.4208-149.9136 362.0864S648.8064 1024 512 1024z m0-1003.52C241.0496 20.48 20.48 241.0496 20.48 512s220.5696 491.52 491.52 491.52 491.52-220.5696 491.52-491.52S782.9504 20.48 512 20.48z" fill="#1C1D21" p-id="8792"></path><path d="M163.0208 872.448c90.3168 87.4496 213.4016 141.312 348.9792 141.312s258.6624-53.8624 348.9792-141.312H163.0208z" fill="#AAADAD" p-id="8793"></path><path d="M512 1024c-133.7344 0-260.096-51.2-356.1472-144.1792-3.072-2.8672-3.8912-7.3728-2.4576-11.264 1.6384-3.8912 5.3248-6.3488 9.4208-6.3488h697.9584c4.096 0 7.9872 2.4576 9.4208 6.3488 1.6384 3.8912 0.6144 8.3968-2.4576 11.264C772.096 972.8 645.7344 1024 512 1024zM189.2352 882.688c89.4976 78.0288 203.1616 120.832 322.7648 120.832s233.2672-42.8032 322.7648-120.832H189.2352z" fill="#1C1D21" p-id="8794"></path><path d="M748.9536 882.688H275.0464c-5.7344 0-10.24-4.5056-10.24-10.24V462.0288c0-31.1296 18.432-59.1872 47.104-71.4752l169.3696-72.704c19.456-8.3968 41.7792-8.3968 61.2352 0l169.3696 72.704c28.672 12.288 47.104 40.3456 47.104 71.4752V872.448c0.2048 5.7344-4.5056 10.24-10.0352 10.24z m-463.6672-20.48h453.2224V462.0288c0-22.9376-13.5168-43.6224-34.6112-52.6336L534.528 336.6912c-14.336-6.144-30.72-6.144-45.056 0l-169.3696 72.704c-21.0944 9.0112-34.6112 29.696-34.6112 52.6336V862.208z" fill="#1C1D21" p-id="8795"></path><path d="M374.3744 429.6704c-3.8912 0-7.7824-2.2528-9.4208-6.144-2.2528-5.12 0.2048-11.264 5.3248-13.5168l7.168-3.072c5.12-2.2528 11.264 0.2048 13.5168 5.3248 2.2528 5.12-0.2048 11.264-5.3248 13.5168l-7.168 3.072c-1.4336 0.6144-2.6624 0.8192-4.096 0.8192zM316.0064 642.2528c-5.7344 0-10.24-4.5056-10.24-10.24v-169.984c0-14.7456 8.8064-28.0576 22.3232-33.792l12.0832-5.12c5.12-2.2528 11.264 0.2048 13.5168 5.3248 2.2528 5.12-0.2048 11.264-5.3248 13.5168l-12.0832 5.12c-5.9392 2.6624-9.8304 8.3968-9.8304 14.9504v169.984c-0.2048 5.5296-4.7104 10.24-10.4448 10.24z" fill="#FFFFFF" p-id="8796"></path><path d="M512 882.688c-5.7344 0-10.24-4.5056-10.24-10.24v-112.0256c0-5.7344 4.5056-10.24 10.24-10.24s10.24 4.5056 10.24 10.24V872.448c0 5.7344-4.5056 10.24-10.24 10.24zM402.0224 608.256h-40.96c-11.264 0-20.48-9.216-20.48-20.48v-40.96c0-11.264 9.216-20.48 20.48-20.48h40.96c11.264 0 20.48 9.216 20.48 20.48v40.96c0 11.264-9.216 20.48-20.48 20.48z m-40.96-61.44v40.96h40.96v-40.96h-40.96z" fill="#1C1D21" p-id="8797"></path><path d="M463.4624 608.256h-40.96c-11.264 0-20.48-9.216-20.48-20.48v-40.96c0-11.264 9.216-20.48 20.48-20.48h40.96c11.264 0 20.48 9.216 20.48 20.48v40.96c0 11.264-9.216 20.48-20.48 20.48z m-40.96-61.44v40.96h40.96v-40.96h-40.96z" fill="#1C1D21" p-id="8798"></path><path d="M402.0224 669.696h-40.96c-11.264 0-20.48-9.216-20.48-20.48v-40.96c0-11.264 9.216-20.48 20.48-20.48h40.96c11.264 0 20.48 9.216 20.48 20.48v40.96c0 11.264-9.216 20.48-20.48 20.48z m-40.96-61.44v40.96h40.96v-40.96h-40.96z" fill="#1C1D21" p-id="8799"></path><path d="M463.4624 669.696h-40.96c-11.264 0-20.48-9.216-20.48-20.48v-40.96c0-11.264 9.216-20.48 20.48-20.48h40.96c11.264 0 20.48 9.216 20.48 20.48v40.96c0 11.264-9.216 20.48-20.48 20.48z m-40.96-61.44v40.96h40.96v-40.96h-40.96zM601.4976 608.256h-40.96c-11.264 0-20.48-9.216-20.48-20.48v-40.96c0-11.264 9.216-20.48 20.48-20.48h40.96c11.264 0 20.48 9.216 20.48 20.48v40.96c0 11.264-9.216 20.48-20.48 20.48z m-40.96-61.44v40.96h40.96v-40.96h-40.96z" fill="#1C1D21" p-id="8800"></path><path d="M662.9376 608.256h-40.96c-11.264 0-20.48-9.216-20.48-20.48v-40.96c0-11.264 9.216-20.48 20.48-20.48h40.96c11.264 0 20.48 9.216 20.48 20.48v40.96c0 11.264-9.216 20.48-20.48 20.48z m-40.96-61.44v40.96h40.96v-40.96h-40.96z" fill="#1C1D21" p-id="8801"></path><path d="M601.4976 669.696h-40.96c-11.264 0-20.48-9.216-20.48-20.48v-40.96c0-11.264 9.216-20.48 20.48-20.48h40.96c11.264 0 20.48 9.216 20.48 20.48v40.96c0 11.264-9.216 20.48-20.48 20.48z m-40.96-61.44v40.96h40.96v-40.96h-40.96z" fill="#1C1D21" p-id="8802"></path><path d="M662.9376 669.696h-40.96c-11.264 0-20.48-9.216-20.48-20.48v-40.96c0-11.264 9.216-20.48 20.48-20.48h40.96c11.264 0 20.48 9.216 20.48 20.48v40.96c0 11.264-9.216 20.48-20.48 20.48z m-40.96-61.44v40.96h40.96v-40.96h-40.96z" fill="#1C1D21" p-id="8803"></path><path d="M512 330.5472m-111.4112 0a111.4112 111.4112 0 1 0 222.8224 0 111.4112 111.4112 0 1 0-222.8224 0Z" fill="#0ABFB2" p-id="8804"></path><path d="M459.9808 242.2784c-3.6864 0-7.168-2.048-9.0112-5.5296-2.6624-4.9152-0.8192-11.264 4.3008-13.9264 1.4336-0.8192 2.8672-1.4336 4.3008-2.2528 5.12-2.4576 11.264-0.2048 13.7216 4.9152 2.4576 5.12 0.2048 11.264-4.9152 13.7216-1.2288 0.6144-2.4576 1.2288-3.4816 1.8432-1.6384 0.8192-3.2768 1.2288-4.9152 1.2288z" fill="#1C1D21" p-id="8805"></path><path d="M512 452.4032c-67.1744 0-121.6512-54.6816-121.6512-121.6512 0-29.2864 10.6496-57.7536 29.9008-79.872 3.6864-4.3008 10.24-4.7104 14.5408-1.024 4.3008 3.6864 4.7104 10.24 1.024 14.5408-15.9744 18.432-24.7808 41.984-24.7808 66.3552 0 55.9104 45.4656 101.1712 101.1712 101.1712s101.1712-45.4656 101.1712-101.1712S567.9104 229.376 512 229.376c-4.096 0-8.3968 0.2048-12.4928 0.8192-5.5296 0.6144-10.6496-3.2768-11.4688-9.0112s3.2768-10.6496 9.0112-11.4688c4.9152-0.6144 10.0352-0.8192 14.9504-0.8192 67.1744 0 121.6512 54.6816 121.6512 121.6512s-54.4768 121.856-121.6512 121.856z" fill="#1C1D21" p-id="8806"></path><path d="M553.984 311.0912h-22.3232V288.768c0-10.8544-8.8064-19.456-19.456-19.456s-19.456 8.8064-19.456 19.456v22.3232h-22.3232c-10.8544 0-19.456 8.8064-19.456 19.456s8.8064 19.456 19.456 19.456h22.3232v22.3232c0 10.8544 8.8064 19.456 19.456 19.456s19.456-8.8064 19.456-19.456V350.208h22.3232c10.8544 0 19.456-8.8064 19.456-19.456s-8.8064-19.6608-19.456-19.6608z" fill="#FFFFFF" p-id="8807"></path><path d="M512 402.2272c-16.384 0-29.696-13.312-29.696-29.696V360.448h-12.0832c-16.384 0-29.696-13.312-29.696-29.696s13.312-29.696 29.696-29.696h12.0832v-12.288c0-16.384 13.312-29.696 29.696-29.696s29.696 13.312 29.696 29.696v12.0832h12.0832c16.384 0 29.696 13.312 29.696 29.696s-13.312 29.696-29.696 29.696h-12.0832v12.0832c0 16.5888-13.312 29.9008-29.696 29.9008z m-41.984-80.896c-5.12 0-9.216 4.096-9.216 9.216s4.096 9.216 9.216 9.216h22.3232c5.7344 0 10.24 4.5056 10.24 10.24v22.3232c0 5.12 4.096 9.216 9.216 9.216s9.216-4.096 9.216-9.216V350.208c0-5.7344 4.5056-10.24 10.24-10.24h22.3232c5.12 0 9.216-4.096 9.216-9.216s-4.096-9.216-9.216-9.216h-22.3232c-5.7344 0-10.24-4.5056-10.24-10.24v-22.528c0-5.12-4.096-9.216-9.216-9.216s-9.216 4.096-9.216 9.216v22.3232c0 5.7344-4.5056 10.24-10.24 10.24h-22.3232z" fill="#1C1D21" p-id="8808"></path><path d="M163.0208 872.448h112.0256V572.8256H13.9264c14.1312 116.9408 68.608 221.5936 149.0944 299.6224z" fill="#FFECE9" p-id="8809"></path><path d="M275.0464 882.688H163.0208c-2.6624 0-5.12-1.024-7.168-2.8672C71.68 798.3104 17.8176 689.7664 3.6864 574.0544c-0.4096-2.8672 0.6144-5.7344 2.4576-7.9872 1.8432-2.2528 4.7104-3.4816 7.5776-3.4816h261.12c5.7344 0 10.24 4.5056 10.24 10.24V872.448c0.2048 5.7344-4.3008 10.24-10.0352 10.24z m-107.9296-20.48h97.6896V583.0656H25.6C40.96 688.3328 90.9312 787.0464 167.1168 862.208z" fill="#1C1D21" p-id="8810"></path><path d="M860.9792 872.448h-112.0256V572.8256h261.12c-14.1312 116.9408-68.608 221.5936-149.0944 299.6224z" fill="#FFECE9" p-id="8811"></path><path d="M860.9792 882.688h-112.0256c-5.7344 0-10.24-4.5056-10.24-10.24V572.8256c0-5.7344 4.5056-10.24 10.24-10.24h261.12c2.8672 0 5.7344 1.2288 7.5776 3.4816 1.8432 2.2528 2.8672 5.12 2.4576 7.9872-13.9264 115.712-67.9936 224.256-152.1664 305.7664-1.6384 1.8432-4.3008 2.8672-6.9632 2.8672z m-101.7856-20.48h97.6896c76.3904-75.1616 126.1568-173.8752 141.5168-279.1424H759.1936V862.208z" fill="#1C1D21" p-id="8812"></path><path d="M853.8112 690.176h-40.96c-5.7344 0-10.24-4.5056-10.24-10.24v-40.96c0-5.7344 4.5056-10.24 10.24-10.24h40.96c5.7344 0 10.24 4.5056 10.24 10.24v40.96c0 5.7344-4.5056 10.24-10.24 10.24zM915.2512 690.176h-40.96c-5.7344 0-10.24-4.5056-10.24-10.24v-40.96c0-5.7344 4.5056-10.24 10.24-10.24h40.96c5.7344 0 10.24 4.5056 10.24 10.24v40.96c0 5.7344-4.5056 10.24-10.24 10.24z" fill="#8CEEF9" p-id="8813"></path><path d="M853.8112 700.416h-40.96c-11.264 0-20.48-9.216-20.48-20.48v-40.96c0-11.264 9.216-20.48 20.48-20.48h40.96c11.264 0 20.48 9.216 20.48 20.48v40.96c0 11.264-9.216 20.48-20.48 20.48z m-40.96-61.44v40.96h40.96v-40.96h-40.96z" fill="#1C1D21" p-id="8814"></path><path d="M915.2512 700.416h-40.96c-11.264 0-20.48-9.216-20.48-20.48v-40.96c0-11.264 9.216-20.48 20.48-20.48h40.96c11.264 0 20.48 9.216 20.48 20.48v40.96c0 11.264-9.216 20.48-20.48 20.48z m-40.96-61.44v40.96h40.96v-40.96h-40.96z" fill="#1C1D21" p-id="8815"></path><path d="M149.7088 690.176h-40.96c-5.7344 0-10.24-4.5056-10.24-10.24v-40.96c0-5.7344 4.5056-10.24 10.24-10.24h40.96c5.7344 0 10.24 4.5056 10.24 10.24v40.96c0 5.7344-4.5056 10.24-10.24 10.24zM211.1488 690.176h-40.96c-5.7344 0-10.24-4.5056-10.24-10.24v-40.96c0-5.7344 4.5056-10.24 10.24-10.24h40.96c5.7344 0 10.24 4.5056 10.24 10.24v40.96c0 5.7344-4.5056 10.24-10.24 10.24z" fill="#8CEEF9" p-id="8816"></path><path d="M149.7088 700.416h-40.96c-11.264 0-20.48-9.216-20.48-20.48v-40.96c0-11.264 9.216-20.48 20.48-20.48h40.96c11.264 0 20.48 9.216 20.48 20.48v40.96c0 11.264-9.216 20.48-20.48 20.48z m-40.96-61.44v40.96h40.96v-40.96h-40.96z" fill="#1C1D21" p-id="8817"></path><path d="M211.1488 700.416h-40.96c-11.264 0-20.48-9.216-20.48-20.48v-40.96c0-11.264 9.216-20.48 20.48-20.48h40.96c11.264 0 20.48 9.216 20.48 20.48v40.96c0 11.264-9.216 20.48-20.48 20.48z m-40.96-61.44v40.96h40.96v-40.96h-40.96z" fill="#1C1D21" p-id="8818"></path><path d="M473.7024 882.688c-5.7344 0-10.24-4.5056-10.24-10.24v-55.9104c0-5.7344 4.5056-10.24 10.24-10.24s10.24 4.5056 10.24 10.24V872.448c0 5.7344-4.5056 10.24-10.24 10.24zM473.7024 788.48c-5.7344 0-10.24-4.5056-10.24-10.24v-17.8176c0-5.7344 4.5056-10.24 10.24-10.24s10.24 4.5056 10.24 10.24v17.8176c0 5.7344-4.5056 10.24-10.24 10.24zM550.2976 882.688c-5.7344 0-10.24-4.5056-10.24-10.24v-55.9104c0-5.7344 4.5056-10.24 10.24-10.24s10.24 4.5056 10.24 10.24V872.448c0 5.7344-4.5056 10.24-10.24 10.24zM550.2976 788.48c-5.7344 0-10.24-4.5056-10.24-10.24v-17.8176c0-5.7344 4.5056-10.24 10.24-10.24s10.24 4.5056 10.24 10.24v17.8176c0 5.7344-4.5056 10.24-10.24 10.24z" fill="#DCFDFF" p-id="8819"></path><path d="M593.3056 882.688h-162.4064c-5.7344 0-10.24-4.5056-10.24-10.24v-91.5456c0-16.9984 13.7216-30.72 30.72-30.72h121.4464c16.9984 0 30.72 13.7216 30.72 30.72V872.448c0 5.7344-4.7104 10.24-10.24 10.24z m-152.3712-20.48h141.9264v-81.3056c0-5.7344-4.5056-10.24-10.24-10.24h-121.4464c-5.7344 0-10.24 4.5056-10.24 10.24V862.208z" fill="#1C1D21" p-id="8820"></path><path d="M633.856 770.6624h-243.712c-5.7344 0-10.24-4.5056-10.24-10.24s4.5056-10.24 10.24-10.24h243.712c5.7344 0 10.24 4.5056 10.24 10.24s-4.5056 10.24-10.24 10.24z" fill="#1C1D21" p-id="8821"></path></svg>