<svg xmlns="http://www.w3.org/2000/svg" viewBox="0 0 1024 1024" version="1.1"><path d="M512 512m-501.76 0a501.76 501.76 0 1 0 1003.52 0 501.76 501.76 0 1 0-1003.52 0Z" fill="#8CEEF9" p-id="13828"></path><path d="M859.9552 745.6768H164.2496c-14.336 0-25.8048-11.6736-25.8048-25.8048 0-14.336 11.6736-25.8048 25.8048-25.8048h695.7056c14.336 0 25.8048 11.6736 25.8048 25.8048 0 14.1312-11.6736 25.8048-25.8048 25.8048z" fill="#E0E0E0" p-id="13829"></path><path d="M859.9552 755.9168H164.0448c-19.8656 0-36.0448-16.1792-36.0448-36.0448s16.1792-36.0448 36.0448-36.0448h695.7056c19.8656 0 36.0448 16.1792 36.0448 36.0448s-15.9744 36.0448-35.84 36.0448zM164.0448 704.1024c-8.6016 0-15.5648 6.9632-15.5648 15.5648s6.9632 15.5648 15.5648 15.5648h695.7056c8.6016 0 15.5648-6.9632 15.5648-15.5648s-6.9632-15.5648-15.5648-15.5648H164.0448z" fill="#1C1D21" p-id="13830"></path><path d="M512 1024c-136.8064 0-265.4208-53.248-362.0864-149.9136C53.248 777.4208 0 648.8064 0 512S53.248 246.5792 149.9136 149.9136C246.5792 53.248 375.1936 0 512 0s265.4208 53.248 362.0864 149.9136C970.752 246.5792 1024 375.1936 1024 512s-53.248 265.4208-149.9136 362.0864C777.4208 970.752 648.8064 1024 512 1024z m0-1003.52C241.0496 20.48 20.48 241.0496 20.48 512s220.5696 491.52 491.52 491.52 491.52-220.5696 491.52-491.52S782.9504 20.48 512 20.48z" fill="#1C1D21" p-id="13831"></path><path d="M345.4976 472.4736l96.256-126.5664c-14.336-14.336-37.4784-14.336-51.8144 0L367.0016 368.64c-3.6864 3.6864-10.0352 1.024-10.0352-4.096v-134.5536c0-10.0352-7.7824-18.432-17.6128-18.8416-10.4448-0.4096-19.0464 7.9872-19.0464 18.2272V193.536c0-10.0352-7.7824-18.432-17.6128-18.8416-10.4448-0.4096-19.0464 7.9872-19.0464 18.2272v25.1904c0-10.4448-8.6016-18.6368-19.0464-18.2272-10.0352 0.4096-17.6128 8.8064-17.6128 18.8416v66.1504-24.9856c0-10.4448-8.6016-18.6368-19.0464-18.2272-10.0352 0.4096-17.6128 8.8064-17.6128 18.8416v212.1728h135.168z" fill="#FFC5B3" p-id="13832"></path><path d="M345.4976 482.7136h-135.168c-5.7344 0-10.24-4.5056-10.24-10.24V260.7104c0-15.7696 12.0832-28.4672 27.4432-29.0816 3.072 0 6.144 0.2048 9.216 1.2288v-14.336c0-15.7696 12.0832-28.4672 27.4432-29.0816 3.072-0.2048 6.3488 0.2048 9.216 1.2288 0.6144-6.9632 3.4816-13.312 8.6016-18.2272 5.5296-5.5296 13.1072-8.192 20.8896-7.9872 15.36 0.6144 27.4432 13.312 27.4432 29.0816v8.3968c2.8672-0.8192 5.9392-1.2288 9.216-1.2288 15.36 0.6144 27.4432 13.312 27.4432 29.0816v124.1088l15.36-15.36c18.2272-18.2272 48.128-18.2272 66.3552 0 3.6864 3.6864 4.096 9.4208 0.8192 13.5168l-96.256 126.5664c-1.6384 2.6624-4.7104 4.096-7.7824 4.096z m-124.928-20.48h119.808l86.8352-114.2784c-9.8304-4.7104-21.9136-3.072-30.1056 5.12l-22.7328 22.7328c-4.7104 4.7104-11.4688 5.9392-17.6128 3.4816s-10.0352-8.3968-10.0352-14.9504v-134.5536c0-4.5056-3.4816-8.3968-7.7824-8.6016-2.2528 0-4.3008 0.8192-5.9392 2.2528-1.6384 1.6384-2.4576 3.6864-2.4576 5.7344 0 0.8192 0 1.4336-0.2048 2.2528-1.024 4.5056-5.12 7.9872-10.0352 7.9872-5.7344 0-10.24-4.5056-10.24-10.24V193.536c0-4.5056-3.4816-8.3968-7.7824-8.6016-2.2528 0-4.3008 0.8192-5.9392 2.2528-1.6384 1.6384-2.4576 3.6864-2.4576 5.7344v25.1904c0 5.7344-4.5056 10.24-10.24 10.24s-10.24-4.5056-10.24-10.24c0-2.2528-0.8192-4.3008-2.4576-5.7344-1.6384-1.6384-3.6864-2.4576-5.9392-2.2528-4.3008 0.2048-7.7824 3.8912-7.7824 8.6016v44.2368c0 5.7344-4.5056 10.24-10.24 10.24s-10.24-4.5056-10.24-10.24v-2.6624c0-2.2528-0.8192-4.3008-2.4576-5.7344-1.6384-1.6384-3.6864-2.2528-5.9392-2.2528-4.3008 0.2048-7.7824 3.8912-7.7824 8.6016v201.3184z" fill="#1C1D21" p-id="13833"></path><path d="M246.9888 321.3312c-5.7344 0-10.24-4.5056-10.24-10.24v-50.176c0-5.7344 4.5056-10.24 10.24-10.24s10.24 4.5056 10.24 10.24v50.176c0 5.7344-4.5056 10.24-10.24 10.24zM283.648 321.3312c-5.7344 0-10.24-4.5056-10.24-10.24v-92.9792c0-5.7344 4.5056-10.24 10.24-10.24s10.24 4.5056 10.24 10.24v92.9792c0 5.7344-4.5056 10.24-10.24 10.24zM320.3072 321.3312c-5.7344 0-10.24-4.5056-10.24-10.24V229.376c0-5.7344 4.5056-10.24 10.24-10.24s10.24 4.5056 10.24 10.24v81.7152c0 5.7344-4.5056 10.24-10.24 10.24z" fill="#1C1D21" p-id="13834"></path><path d="M210.3296 512h135.5776v181.8624h-135.5776z" fill="#508DEF" p-id="13835"></path><path d="M345.9072 704.1024h-135.5776c-5.7344 0-10.24-4.5056-10.24-10.24V512c0-5.7344 4.5056-10.24 10.24-10.24h135.5776c5.7344 0 10.24 4.5056 10.24 10.24v181.8624c0 5.7344-4.5056 10.24-10.24 10.24z m-125.3376-20.48h115.0976V522.24h-115.0976v161.3824z" fill="#1C1D21" p-id="13836"></path><path d="M251.2896 382.3616c-5.7344 0-10.24-4.5056-10.24-10.24v-10.24c0-5.7344 4.5056-10.24 10.24-10.24s10.24 4.5056 10.24 10.24v10.24c0 5.5296-4.5056 10.24-10.24 10.24zM251.2896 663.1424c-5.7344 0-10.24-4.5056-10.24-10.24V412.2624c0-5.7344 4.5056-10.24 10.24-10.24s10.24 4.5056 10.24 10.24v240.64c0 5.7344-4.5056 10.24-10.24 10.24z" fill="#FFECE9" p-id="13837"></path><path d="M207.0528 472.4736h140.6976c5.5296 0 10.24 4.5056 10.24 10.24v36.4544c0 5.5296-4.5056 10.24-10.24 10.24h-140.6976c-5.5296 0-10.24-4.5056-10.24-10.24v-36.4544c0-5.5296 4.5056-10.24 10.24-10.24z" fill="#508DEF" p-id="13838"></path><path d="M251.2896 663.1424c-5.7344 0-10.24-4.5056-10.24-10.24v-180.4288c0-5.7344 4.5056-10.24 10.24-10.24s10.24 4.5056 10.24 10.24v180.4288c0 5.7344-4.5056 10.24-10.24 10.24z" fill="#ABD1FF" p-id="13839"></path><path d="M347.7504 539.648h-140.6976c-11.264 0-20.48-9.216-20.48-20.48v-36.4544c0-11.264 9.216-20.48 20.48-20.48h140.6976c11.264 0 20.48 9.216 20.48 20.48v36.4544c0 11.264-9.216 20.48-20.48 20.48z m0-56.9344h-140.6976v36.2496h140.6976v-36.2496z" fill="#1C1D21" p-id="13840"></path><path d="M678.5024 472.4736l-96.256-126.5664c14.336-14.336 37.4784-14.336 51.8144 0l22.7328 22.7328c3.6864 3.6864 10.0352 1.024 10.0352-4.096v-134.5536c0-10.0352 7.7824-18.432 17.6128-18.8416 10.4448-0.4096 19.0464 7.9872 19.0464 18.2272V193.536c0-10.0352 7.7824-18.432 17.6128-18.8416 10.4448-0.4096 19.0464 7.9872 19.0464 18.2272v25.1904c0-10.4448 8.6016-18.6368 19.0464-18.2272 10.0352 0.4096 17.6128 8.8064 17.6128 18.8416v66.1504-24.9856c0-10.4448 8.6016-18.6368 19.0464-18.2272 10.0352 0.4096 17.6128 8.8064 17.6128 18.8416v212.1728h-134.9632z" fill="#FF9E5C" p-id="13841"></path><path d="M813.6704 482.7136h-135.168c-3.2768 0-6.144-1.4336-8.192-4.096l-96.256-126.5664c-3.072-4.096-2.6624-9.8304 0.8192-13.5168 18.2272-18.2272 48.128-18.2272 66.3552 0l15.36 15.36v-124.1088c0-15.7696 12.0832-28.4672 27.4432-29.0816 3.072-0.2048 6.144 0.2048 9.216 1.2288v-8.3968c0-15.7696 12.0832-28.4672 27.4432-29.0816 7.7824-0.2048 15.1552 2.6624 20.8896 7.9872 5.12 4.9152 8.192 11.264 8.6016 18.2272 2.8672-0.8192 5.9392-1.2288 9.216-1.2288 15.36 0.6144 27.4432 13.312 27.4432 29.0816v14.336c2.8672-0.8192 5.9392-1.2288 9.216-1.2288 15.36 0.6144 27.4432 13.312 27.4432 29.0816v211.7632c0.4096 5.7344-4.3008 10.24-9.8304 10.24z m-130.048-20.48h119.808v-201.5232c0-4.5056-3.4816-8.3968-7.7824-8.6016-2.2528 0-4.3008 0.8192-5.9392 2.2528-1.6384 1.6384-2.4576 3.6864-2.4576 5.7344v2.6624c0 5.7344-4.5056 10.24-10.24 10.24s-10.24-4.5056-10.24-10.24v-44.2368c0-4.5056-3.4816-8.3968-7.7824-8.6016-2.2528 0-4.3008 0.8192-5.9392 2.2528-1.6384 1.6384-2.4576 3.6864-2.4576 5.7344 0 5.7344-4.5056 10.24-10.24 10.24s-10.24-4.5056-10.24-10.24V193.1264c0-2.2528-0.8192-4.3008-2.4576-5.7344-1.6384-1.6384-3.6864-2.2528-5.9392-2.2528-4.3008 0.2048-7.7824 3.8912-7.7824 8.6016V229.376c0 5.7344-4.5056 10.24-10.24 10.24s-10.24-4.5056-10.24-10.24c0-2.2528-0.8192-4.3008-2.4576-5.7344-1.6384-1.6384-3.6864-2.2528-5.9392-2.2528-4.3008 0.2048-7.7824 3.8912-7.7824 8.6016V364.544c0 6.5536-3.8912 12.288-10.0352 14.9504-6.144 2.4576-12.9024 1.2288-17.6128-3.4816l-22.7328-22.7328c-8.192-8.192-20.2752-9.8304-30.1056-5.12l86.8352 114.0736z" fill="#1C1D21" p-id="13842"></path><path d="M777.0112 321.3312c-5.7344 0-10.24-4.5056-10.24-10.24v-50.176c0-5.7344 4.5056-10.24 10.24-10.24s10.24 4.5056 10.24 10.24v50.176c0 5.7344-4.7104 10.24-10.24 10.24zM740.352 321.3312c-5.7344 0-10.24-4.5056-10.24-10.24v-92.9792c0-5.7344 4.5056-10.24 10.24-10.24s10.24 4.5056 10.24 10.24v92.9792c0 5.7344-4.7104 10.24-10.24 10.24zM703.6928 321.3312c-5.7344 0-10.24-4.5056-10.24-10.24V229.376c0-5.7344 4.5056-10.24 10.24-10.24s10.24 4.5056 10.24 10.24v81.7152c0 5.7344-4.7104 10.24-10.24 10.24z" fill="#1C1D21" p-id="13843"></path><path d="M678.0928 512h135.5776v181.8624h-135.5776z" fill="#0ABFB2" p-id="13844"></path><path d="M813.6704 704.1024h-135.5776c-5.7344 0-10.24-4.5056-10.24-10.24V512c0-5.7344 4.5056-10.24 10.24-10.24h135.5776c5.7344 0 10.24 4.5056 10.24 10.24v181.8624c0 5.7344-4.7104 10.24-10.24 10.24z m-125.3376-20.48h115.0976V522.24h-115.0976v161.3824z" fill="#1C1D21" p-id="13845"></path><path d="M816.9472 472.4736h-140.6976c-5.5296 0-10.24 4.5056-10.24 10.24v36.4544c0 5.5296 4.5056 10.24 10.24 10.24h140.6976c5.5296 0 10.24-4.5056 10.24-10.24v-36.4544c0-5.5296-4.5056-10.24-10.24-10.24z" fill="#0ABFB2" p-id="13846"></path><path d="M512 1013.76c78.848 0 153.3952-18.2272 219.9552-50.5856-57.5488-77.4144-142.5408-191.8976-188.2112-253.3376-15.7696-21.2992-47.5136-21.2992-63.488 0l-188.2112 253.3376C358.6048 995.5328 433.152 1013.76 512 1013.76z" fill="#AAADAD" p-id="13847"></path><path d="M512 1024c-78.6432 0-154.2144-17.408-224.4608-51.6096-2.6624-1.4336-4.7104-3.8912-5.5296-6.7584-0.8192-2.8672 0-6.144 1.6384-8.6016l73.728-99.328c3.2768-4.5056 9.8304-5.5296 14.336-2.048 4.5056 3.2768 5.5296 9.8304 2.048 14.336l-66.3552 89.2928c64.3072 29.4912 132.9152 44.2368 204.1856 44.2368s140.0832-14.9504 204.1856-44.2368l-180.6336-243.3024c-5.5296-7.5776-14.1312-11.8784-23.552-11.8784s-17.8176 4.3008-23.552 11.8784L434.5856 788.48c-3.2768 4.5056-9.8304 5.5296-14.336 2.048-4.5056-3.2768-5.5296-9.8304-2.048-14.336l53.8624-72.704c9.4208-12.6976 23.9616-20.0704 39.936-20.0704 15.9744 0 30.5152 7.3728 39.936 20.0704l188.2112 253.3376c1.8432 2.4576 2.4576 5.5296 1.6384 8.6016-0.8192 2.8672-2.6624 5.5296-5.5296 6.7584C666.2144 1006.592 590.6432 1024 512 1024z" fill="#1C1D21" p-id="13848"></path><path d="M394.0352 836.4032c-2.048 0-4.3008-0.6144-6.144-2.048-4.5056-3.2768-5.5296-9.8304-2.048-14.336l9.8304-13.1072c3.2768-4.5056 9.8304-5.5296 14.336-2.048 4.5056 3.2768 5.5296 9.8304 2.048 14.336l-9.8304 13.1072c-2.048 2.6624-5.12 4.096-8.192 4.096z" fill="#1C1D21" p-id="13849"></path><path d="M524.0832 107.52l-12.0832 12.0832-12.0832-12.0832c-8.3968-8.3968-19.6608-13.1072-31.5392-13.1072-24.576 0-44.6464 20.0704-44.6464 44.6464 0 22.3232 9.216 43.6224 25.3952 58.9824l62.8736 59.392 62.8736-59.392c16.1792-15.36 25.3952-36.6592 25.3952-58.9824 0-24.576-20.0704-44.6464-44.6464-44.6464-11.8784 0-23.1424 4.7104-31.5392 13.1072z" fill="#FF3E63" p-id="13850"></path><path d="M512 267.6736c-2.4576 0-5.12-1.024-6.9632-2.8672l-62.8736-59.392c-18.2272-17.2032-28.672-41.3696-28.672-66.56 0-30.3104 24.576-54.8864 54.8864-54.8864 14.7456 0 28.4672 5.7344 38.7072 15.9744l4.9152 4.9152 4.9152-4.9152c10.4448-10.4448 24.1664-15.9744 38.7072-15.9744 30.3104 0 54.8864 24.576 54.8864 54.8864 0 24.9856-10.4448 49.3568-28.672 66.56l-62.8736 59.392c-1.8432 2.048-4.5056 2.8672-6.9632 2.8672z m-43.6224-163.0208c-19.0464 0-34.4064 15.36-34.4064 34.4064 0 19.456 8.192 38.2976 22.3232 51.6096l55.7056 52.8384 55.7056-52.8384c14.1312-13.312 22.3232-32.1536 22.3232-51.6096 0-19.0464-15.36-34.4064-34.4064-34.4064-9.216 0-17.8176 3.4816-24.3712 10.0352l-12.0832 12.0832c-4.096 4.096-10.4448 4.096-14.5408 0l-12.0832-12.0832c-6.3488-6.3488-14.9504-10.0352-24.1664-10.0352z" fill="#1C1D21" p-id="13851"></path><path d="M512 782.5408m-30.5152 0a30.5152 30.5152 0 1 0 61.0304 0 30.5152 30.5152 0 1 0-61.0304 0Z" fill="#E0E0E0" p-id="13852"></path><path d="M512 823.0912c-22.3232 0-40.7552-18.2272-40.7552-40.5504s18.2272-40.7552 40.7552-40.7552 40.7552 18.2272 40.7552 40.7552-18.432 40.5504-40.7552 40.5504z m0-60.8256c-11.0592 0-20.2752 9.0112-20.2752 20.2752 0 11.0592 9.0112 20.0704 20.2752 20.0704s20.2752-9.0112 20.2752-20.0704c0-11.264-9.216-20.2752-20.2752-20.2752z" fill="#1C1D21" p-id="13853"></path><path d="M719.872 382.3616c-5.7344 0-10.24-4.5056-10.24-10.24v-10.24c0-5.7344 4.5056-10.24 10.24-10.24s10.24 4.5056 10.24 10.24v10.24c0 5.5296-4.7104 10.24-10.24 10.24zM719.872 663.1424c-5.7344 0-10.24-4.5056-10.24-10.24V412.2624c0-5.7344 4.5056-10.24 10.24-10.24s10.24 4.5056 10.24 10.24v240.64c0 5.7344-4.7104 10.24-10.24 10.24z" fill="#FFC5B3" p-id="13854"></path><path d="M719.872 663.1424c-5.7344 0-10.24-4.5056-10.24-10.24v-180.4288c0-5.7344 4.5056-10.24 10.24-10.24s10.24 4.5056 10.24 10.24v180.4288c0 5.7344-4.7104 10.24-10.24 10.24z" fill="#8CEEF9" p-id="13855"></path><path d="M816.9472 539.648h-140.6976c-11.264 0-20.48-9.216-20.48-20.48v-36.4544c0-11.264 9.216-20.48 20.48-20.48h140.6976c11.264 0 20.48 9.216 20.48 20.48v36.4544c0 11.264-9.216 20.48-20.48 20.48z m-140.6976-56.9344v36.2496h140.6976v-36.2496h-140.6976z m140.6976 0z" fill="#1C1D21" p-id="13856"></path></svg>