<svg xmlns="http://www.w3.org/2000/svg" viewBox="0 0 1024 1024" version="1.1"><path d="M512 512m-501.76 0a501.76 501.76 0 1 0 1003.52 0 501.76 501.76 0 1 0-1003.52 0Z" fill="#8CEEF9" p-id="8875"></path><path d="M552.3456 762.6752S512 807.1168 512 862.208c0-55.0912-40.3456-99.5328-40.3456-99.5328h80.6912z" fill="#E0E0E0" p-id="8876"></path><path d="M512 872.448c-5.7344 0-10.24-4.5056-10.24-10.24 0-50.5856-37.2736-92.16-37.6832-92.5696-2.6624-3.072-3.4816-7.3728-1.8432-11.0592 1.6384-3.6864 5.3248-6.144 9.4208-6.144h80.6912c4.096 0 7.7824 2.4576 9.4208 6.144 1.6384 3.6864 1.024 7.9872-1.8432 11.0592-0.6144 0.6144-37.6832 42.3936-37.6832 92.5696 0 5.5296-4.5056 10.24-10.24 10.24z m-19.6608-99.5328c6.3488 9.4208 13.7216 22.3232 19.6608 37.4784 5.9392-15.1552 13.312-28.0576 19.6608-37.4784h-39.3216z" fill="#1C1D21" p-id="8877"></path><path d="M512 1024c-136.8064 0-265.4208-53.248-362.0864-149.9136C53.248 777.4208 0 648.8064 0 512S53.248 246.5792 149.9136 149.9136C246.5792 53.248 375.1936 0 512 0s265.4208 53.248 362.0864 149.9136C970.752 246.5792 1024 375.1936 1024 512s-53.248 265.4208-149.9136 362.0864C777.4208 970.752 648.8064 1024 512 1024z m0-1003.52C241.0496 20.48 20.48 241.0496 20.48 512s220.5696 491.52 491.52 491.52 491.52-220.5696 491.52-491.52S782.9504 20.48 512 20.48z" fill="#1C1D21" p-id="8878"></path><path d="M423.7312 743.0144a88.2688 24.9856 0 1 0 176.5376 0 88.2688 24.9856 0 1 0-176.5376 0Z" fill="#E0E0E0" p-id="8879"></path><path d="M512 778.24c-36.6592 0-98.5088-7.3728-98.5088-35.2256s62.0544-35.2256 98.5088-35.2256 98.5088 7.3728 98.5088 35.2256S548.6592 778.24 512 778.24z m-77.4144-35.2256c5.5296 5.12 31.5392 14.7456 77.4144 14.7456s71.8848-9.6256 77.4144-14.7456c-5.5296-5.12-31.5392-14.7456-77.4144-14.7456s-71.8848 9.8304-77.4144 14.7456z m155.648 1.2288z" fill="#1C1D21" p-id="8880"></path><path d="M407.552 702.6688a104.448 29.4912 0 1 0 208.896 0 104.448 29.4912 0 1 0-208.896 0Z" fill="#E0E0E0" p-id="8881"></path><path d="M512 742.4c-5.7344 0-10.24-4.5056-10.24-10.24s4.5056-10.24 10.24-10.24c55.296 0 89.9072-12.288 94.0032-19.2512-4.096-6.9632-38.7072-19.2512-94.0032-19.2512s-89.7024 12.0832-94.0032 19.0464c2.048 2.8672 13.9264 11.4688 49.5616 16.384 5.5296 0.8192 9.4208 5.9392 8.8064 11.4688-0.8192 5.5296-5.9392 9.6256-11.4688 8.8064-25.1904-3.4816-67.584-12.9024-67.584-36.6592 0-31.3344 72.0896-39.7312 114.688-39.7312s114.688 8.3968 114.688 39.7312-72.0896 39.936-114.688 39.936z" fill="#1C1D21" p-id="8882"></path><path d="M385.8432 658.8416a126.1568 35.6352 0 1 0 252.3136 0 126.1568 35.6352 0 1 0-252.3136 0Z" fill="#E0E0E0" p-id="8883"></path><path d="M476.3648 703.2832h-0.8192c-23.3472-2.048-99.7376-10.8544-99.7376-44.2368 0-31.5392 70.656-45.8752 136.3968-45.8752s136.3968 14.336 136.3968 45.8752c0 26.2144-47.3088 37.2736-75.5712 41.5744-5.5296 0.8192-10.8544-3.072-11.6736-8.6016-0.8192-5.5296 3.072-10.8544 8.6016-11.6736 43.2128-6.5536 57.9584-18.0224 58.1632-21.2992 0-1.4336-5.7344-8.6016-30.1056-15.36-22.9376-6.3488-53.248-9.8304-85.8112-9.8304s-62.8736 3.4816-85.8112 9.8304c-24.3712 6.7584-29.9008 13.9264-30.1056 15.36 0.2048 4.9152 24.7808 19.2512 80.896 23.9616 5.7344 0.4096 9.8304 5.3248 9.4208 11.0592-0.6144 5.12-5.12 9.216-10.24 9.216z" fill="#1C1D21" p-id="8884"></path><path d="M359.424 607.6416a152.576 43.008 0 1 0 305.152 0 152.576 43.008 0 1 0-305.152 0Z" fill="#E0E0E0" p-id="8885"></path><path d="M512 660.8896c-5.7344 0-10.24-4.5056-10.24-10.24s4.5056-10.24 10.24-10.24c94.0032 0 142.336-22.9376 142.336-32.768s-48.3328-32.768-142.336-32.768-142.336 22.9376-142.336 32.768c0 5.12 17.408 19.2512 69.2224 27.4432 5.5296 0.8192 9.4208 6.144 8.6016 11.6736s-6.144 9.4208-11.6736 8.6016c-32.3584-5.12-86.4256-18.2272-86.4256-47.7184 0-36.6592 84.3776-53.248 162.816-53.248s162.816 16.5888 162.816 53.248-84.5824 53.248-163.0208 53.248z" fill="#1C1D21" p-id="8886"></path><path d="M332.8 544.9728a179.2 50.5856 0 1 0 358.4 0 179.2 50.5856 0 1 0-358.4 0Z" fill="#E0E0E0" p-id="8887"></path><path d="M512 605.7984c-48.7424 0-94.8224-5.3248-129.4336-15.1552-39.7312-11.264-60.0064-26.624-60.0064-45.6704s20.0704-34.4064 60.0064-45.6704c34.816-9.8304 80.6912-15.1552 129.4336-15.1552s94.8224 5.3248 129.4336 15.1552c39.7312 11.264 60.0064 26.624 60.0064 45.6704 0 32.1536-59.1872 47.104-94.6176 53.248-5.5296 1.024-10.8544-2.8672-11.8784-8.3968-1.024-5.5296 2.8672-10.8544 8.3968-11.8784 56.5248-9.6256 77.6192-25.3952 77.6192-32.9728 0-13.7216-59.5968-40.3456-168.96-40.3456s-168.96 26.624-168.96 40.3456 59.5968 40.3456 168.96 40.3456c11.264 0 22.528-0.2048 33.5872-0.8192 5.7344-0.2048 10.4448 4.096 10.8544 9.6256s-4.096 10.4448-9.6256 10.8544c-11.4688 0.6144-23.1424 0.8192-34.816 0.8192z" fill="#1C1D21" p-id="8888"></path><path d="M297.5744 471.8592a214.4256 60.416 0 1 0 428.8512 0 214.4256 60.416 0 1 0-428.8512 0Z" fill="#E0E0E0" p-id="8889"></path><path d="M512 542.5152c-19.456 0-38.912-0.8192-57.5488-2.2528-5.7344-0.4096-9.8304-5.3248-9.4208-11.0592 0.4096-5.7344 5.3248-9.8304 11.0592-9.4208 18.2272 1.4336 37.0688 2.048 55.9104 2.048 124.7232 0 204.1856-29.696 204.1856-50.176s-79.4624-50.176-204.1856-50.176-204.1856 29.696-204.1856 50.176c0 9.8304 23.9616 28.672 89.9072 40.7552 5.5296 1.024 9.216 6.3488 8.192 11.8784-1.024 5.5296-6.3488 9.216-11.8784 8.192-39.936-7.168-106.7008-24.7808-106.7008-60.8256 0-46.4896 113.0496-70.656 224.6656-70.656s224.6656 24.3712 224.6656 70.656c0 46.6944-113.0496 70.8608-224.6656 70.8608z" fill="#1C1D21" p-id="8890"></path><path d="M255.3856 380.3136a256.6144 72.2944 0 1 0 513.2288 0 256.6144 72.2944 0 1 0-513.2288 0Z" fill="#E0E0E0" p-id="8891"></path><path d="M321.7408 395.8784c-1.2288 0-2.4576-0.2048-3.4816-0.6144-4.9152-1.8432-9.4208-3.6864-13.5168-5.5296-5.12-2.4576-7.3728-8.6016-4.9152-13.7216 2.4576-5.12 8.3968-7.3728 13.7216-4.9152 3.4816 1.6384 7.5776 3.2768 11.8784 4.9152 5.3248 2.048 7.9872 7.7824 5.9392 13.1072-1.6384 4.3008-5.5296 6.7584-9.6256 6.7584zM512 421.888c-41.3696 0-82.5344-2.8672-118.5792-8.6016-5.5296-0.8192-9.4208-6.144-8.6016-11.6736 0.8192-5.5296 6.144-9.4208 11.6736-8.6016 35.2256 5.5296 75.1616 8.3968 115.5072 8.3968 54.4768 0 107.52-5.12 149.2992-14.5408 5.5296-1.2288 11.0592 2.2528 12.288 7.7824 1.2288 5.5296-2.2528 11.0592-7.7824 12.288-43.2128 9.6256-97.6896 14.9504-153.8048 14.9504z" fill="#FFFFFF" p-id="8892"></path><path d="M512 462.848c-5.7344 0-10.24-4.5056-10.24-10.24s4.5056-10.24 10.24-10.24c12.0832 0 24.1664-0.2048 36.0448-0.6144 5.7344-0.2048 10.4448 4.096 10.6496 9.8304 0.2048 5.7344-4.096 10.4448-9.8304 10.6496-12.0832 0.4096-24.576 0.6144-36.864 0.6144z" fill="#1C1D21" p-id="8893"></path><path d="M443.5968 460.3904h-0.8192c-91.136-7.168-197.632-32.3584-197.632-79.872 0-24.576 28.4672-45.6704 82.5344-61.0304 49.3568-13.9264 114.688-21.504 184.1152-21.504s134.7584 7.5776 184.1152 21.504c54.0672 15.1552 82.5344 36.2496 82.5344 61.0304 0 49.3568-108.7488 69.2224-155.648 75.5712-5.5296 0.8192-10.8544-3.2768-11.4688-8.8064-0.8192-5.5296 3.2768-10.8544 8.8064-11.4688 90.5216-12.0832 137.8304-36.864 137.8304-55.296 0-26.0096-93.7984-62.0544-246.3744-62.0544s-246.3744 36.2496-246.3744 62.0544c0 11.0592 17.408 23.9616 46.6944 34.6112 32.9728 12.0832 79.872 20.8896 132.096 24.9856 5.7344 0.4096 9.8304 5.3248 9.4208 11.0592 0 5.12-4.5056 9.216-9.8304 9.216z" fill="#1C1D21" p-id="8894"></path><path d="M227.9424 292.6592a284.0576 80.0768 0 1 0 568.1152 0 284.0576 80.0768 0 1 0-568.1152 0Z" fill="#E0E0E0" p-id="8895"></path><path d="M359.424 292.6592a152.576 28.4672 0 1 0 305.152 0 152.576 28.4672 0 1 0-305.152 0Z" fill="#AAADAD" p-id="8896"></path><path d="M512 331.3664c-41.3696 0-80.2816-3.072-109.7728-8.6016-36.6592-6.9632-53.0432-16.1792-53.0432-30.3104s16.384-23.3472 53.0432-30.3104c29.4912-5.5296 68.4032-8.6016 109.7728-8.6016s80.2816 3.072 109.7728 8.6016c36.6592 6.9632 53.0432 16.1792 53.0432 30.3104s-16.384 23.3472-53.0432 30.3104c-29.4912 5.5296-68.4032 8.6016-109.7728 8.6016z m-140.288-38.7072c12.288 7.168 59.8016 18.2272 140.288 18.2272s128-11.0592 140.288-18.2272c-12.288-7.168-59.8016-18.2272-140.288-18.2272s-128 10.8544-140.288 18.2272z m283.2384 2.048z" fill="#1C1D21" p-id="8897"></path><path d="M512 382.976c-142.5408 0-294.2976-31.744-294.2976-90.3168s151.552-90.3168 294.2976-90.3168 294.2976 31.744 294.2976 90.3168S654.5408 382.976 512 382.976z m0-160.1536c-169.5744 0-273.8176 40.7552-273.8176 69.8368S342.4256 362.496 512 362.496s273.8176-40.7552 273.8176-69.8368-104.2432-69.8368-273.8176-69.8368z" fill="#1C1D21" p-id="8898"></path><path d="M871.2192 862.208H152.7808c91.136 93.3888 218.3168 151.552 359.2192 151.552s268.0832-57.9584 359.2192-151.552z" fill="#FF8939" p-id="8899"></path><path d="M512 1024c-70.2464 0-138.24-13.9264-202.3424-41.5744-61.8496-26.624-117.1456-64.7168-164.2496-113.0496-2.8672-2.8672-3.6864-7.3728-2.048-11.0592 1.6384-3.8912 5.3248-6.3488 9.4208-6.3488h718.4384c4.096 0 7.7824 2.4576 9.4208 6.3488 1.6384 3.8912 0.8192 8.192-2.048 11.0592-47.104 48.3328-102.4 86.4256-164.2496 113.0496-64.1024 27.648-132.096 41.5744-202.3424 41.5744zM177.9712 872.448c91.136 84.5824 208.6912 131.072 334.0288 131.072 125.3376 0 242.8928-46.2848 334.0288-131.072H177.9712z" fill="#1C1D21" p-id="8900"></path><path d="M458.3424 871.8336c-5.7344 0-10.24-4.5056-10.24-10.24 0-29.696-24.1664-53.6576-53.6576-53.6576-5.7344 0-10.24-4.5056-10.24-10.24s4.5056-10.24 10.24-10.24c40.96 0 74.1376 33.3824 74.1376 74.1376 0 5.7344-4.7104 10.24-10.24 10.24zM565.6576 871.8336c-5.7344 0-10.24-4.5056-10.24-10.24 0-40.96 33.3824-74.1376 74.1376-74.1376 5.7344 0 10.24 4.5056 10.24 10.24s-4.5056 10.24-10.24 10.24c-29.696 0-53.6576 24.1664-53.6576 53.6576 0 5.7344-4.5056 10.24-10.24 10.24zM347.9552 807.936h-9.6256c-5.7344 0-10.24-4.5056-10.24-10.24s4.5056-10.24 10.24-10.24h9.6256c5.7344 0 10.24 4.5056 10.24 10.24s-4.7104 10.24-10.24 10.24zM685.8752 807.936h-9.6256c-5.7344 0-10.24-4.5056-10.24-10.24s4.5056-10.24 10.24-10.24h9.6256c5.7344 0 10.24 4.5056 10.24 10.24s-4.7104 10.24-10.24 10.24z" fill="#1C1D21" p-id="8901"></path><path d="M761.6512 698.368v9.6256h9.6256l-9.6256-9.6256z" fill="#FF8939" p-id="8902"></path><path d="M923.8528 545.5872c-34.816-9.216-73.3184-0.4096-100.7616 27.0336-27.2384 27.2384-36.2496 65.9456-27.0336 100.7616 34.816 9.216 73.3184 0.4096 100.7616-27.0336 27.4432-27.2384 36.2496-65.9456 27.0336-100.7616z" fill="#0ABFB2" p-id="8903"></path><path d="M823.0912 687.104c-9.8304 0-19.6608-1.2288-29.4912-3.8912-3.4816-1.024-6.3488-3.6864-7.168-7.168-10.4448-39.3216 0.8192-81.7152 29.696-110.592 28.8768-28.8768 71.0656-40.1408 110.592-29.696 3.4816 1.024 6.3488 3.6864 7.168 7.168 10.4448 39.3216-0.8192 81.7152-29.696 110.592-21.7088 21.7088-51.2 33.5872-81.1008 33.5872z m-18.432-22.3232c30.72 6.144 62.6688-3.4816 84.992-25.6 22.1184-22.1184 31.744-54.272 25.6-84.992-30.72-6.144-62.6688 3.4816-84.992 25.6-22.1184 22.3232-31.5392 54.4768-25.6 84.992z" fill="#1C1D21" p-id="8904"></path><path d="M726.4256 871.6288c-5.7344 0-10.24-4.5056-10.24-10.24v-77.6192c0-28.8768 11.264-55.9104 31.5392-76.3904l168.7552-168.7552c4.096-4.096 10.4448-4.096 14.5408 0s4.096 10.4448 0 14.5408l-168.7552 168.7552c-16.5888 16.5888-25.6 38.5024-25.6 61.8496v77.6192c0 5.5296-4.5056 10.24-10.24 10.24z" fill="#1C1D21" p-id="8905"></path><path d="M925.2864 707.9936c-11.8784-20.48-33.9968-34.4064-59.392-34.4064-25.3952 0-47.5136 13.7216-59.392 34.4064 11.8784 20.48 33.9968 34.4064 59.392 34.4064 25.3952-0.2048 47.5136-13.9264 59.392-34.4064z" fill="#0ABFB2" p-id="8906"></path><path d="M865.8944 752.4352c-28.0576 0-54.272-15.1552-68.1984-39.5264-1.8432-3.072-1.8432-7.168 0-10.24 14.1312-24.3712 40.3456-39.5264 68.1984-39.5264 28.0576 0 54.272 15.1552 68.1984 39.5264 1.8432 3.072 1.8432 7.168 0 10.24-14.1312 24.3712-40.1408 39.5264-68.1984 39.5264z m-47.3088-44.4416c10.8544 14.9504 28.4672 24.1664 47.3088 24.1664s36.2496-9.0112 47.3088-24.1664c-10.8544-14.9504-28.4672-24.1664-47.3088-24.1664-18.8416 0-36.4544 9.0112-47.3088 24.1664z" fill="#1C1D21" p-id="8907"></path><path d="M925.2864 718.2336h-163.6352c-5.7344 0-10.24-4.5056-10.24-10.24s4.5056-10.24 10.24-10.24h163.6352c5.7344 0 10.24 4.5056 10.24 10.24s-4.5056 10.24-10.24 10.24z" fill="#1C1D21" p-id="8908"></path><path d="M761.6512 544.3584c20.48 11.8784 34.4064 33.9968 34.4064 59.392 0 25.3952-13.7216 47.5136-34.4064 59.392-20.48-11.8784-34.4064-33.9968-34.4064-59.392 0-25.3952 13.9264-47.5136 34.4064-59.392z" fill="#0ABFB2" p-id="8909"></path><path d="M761.6512 673.3824c-1.8432 0-3.4816-0.4096-5.12-1.4336-24.3712-14.1312-39.5264-40.3456-39.5264-68.1984 0-28.0576 15.1552-54.272 39.5264-68.1984 3.072-1.8432 7.168-1.8432 10.24 0 24.3712 14.1312 39.5264 40.3456 39.5264 68.1984 0 28.0576-15.1552 54.272-39.5264 68.1984-1.6384 1.024-3.2768 1.4336-5.12 1.4336z m0-116.9408c-14.9504 10.8544-24.1664 28.4672-24.1664 47.3088s9.0112 36.2496 24.1664 47.3088c14.9504-10.8544 24.1664-28.4672 24.1664-47.3088 0-18.8416-9.216-36.2496-24.1664-47.3088z" fill="#1C1D21" p-id="8910"></path><path d="M761.6512 718.2336c-5.7344 0-10.24-4.5056-10.24-10.24v-163.6352c0-5.7344 4.5056-10.24 10.24-10.24s10.24 4.5056 10.24 10.24v163.6352c0 5.5296-4.5056 10.24-10.24 10.24z" fill="#1C1D21" p-id="8911"></path><path d="M262.3488 698.368v9.6256h-9.6256l9.6256-9.6256z" fill="#FF8939" p-id="8912"></path><path d="M100.1472 545.5872c34.816-9.216 73.3184-0.4096 100.7616 27.0336 27.2384 27.2384 36.2496 65.9456 27.0336 100.7616-34.816 9.216-73.3184 0.4096-100.7616-27.0336-27.4432-27.2384-36.2496-65.9456-27.0336-100.7616z" fill="#0ABFB2" p-id="8913"></path><path d="M200.9088 687.104c-30.1056 0-59.392-11.8784-81.1008-33.3824-28.8768-28.8768-40.1408-71.0656-29.696-110.592 1.024-3.4816 3.6864-6.3488 7.168-7.168 39.3216-10.4448 81.7152 0.8192 110.592 29.696 28.8768 28.8768 40.1408 71.0656 29.696 110.592-1.024 3.4816-3.6864 6.3488-7.168 7.168-9.6256 2.4576-19.6608 3.6864-29.4912 3.6864z m-92.16-132.9152c-6.144 30.72 3.4816 62.6688 25.6 84.992 22.1184 22.1184 54.272 31.744 84.992 25.6 6.144-30.72-3.4816-62.6688-25.6-84.992S139.264 548.0448 108.7488 554.1888z" fill="#1C1D21" p-id="8914"></path><path d="M297.5744 871.6288c-5.7344 0-10.24-4.5056-10.24-10.24v-77.6192c0-23.3472-9.0112-45.2608-25.6-61.8496L92.9792 552.96c-4.096-4.096-4.096-10.4448 0-14.5408s10.4448-4.096 14.5408 0l168.7552 168.7552c20.48 20.48 31.5392 47.5136 31.5392 76.3904v77.6192c0 5.7344-4.5056 10.4448-10.24 10.4448z" fill="#1C1D21" p-id="8915"></path><path d="M98.7136 707.9936c11.8784-20.48 33.9968-34.4064 59.392-34.4064 25.3952 0 47.5136 13.7216 59.392 34.4064-11.8784 20.48-33.9968 34.4064-59.392 34.4064-25.3952-0.2048-47.5136-13.9264-59.392-34.4064z" fill="#0ABFB2" p-id="8916"></path><path d="M158.1056 752.4352c-28.0576 0-54.272-15.1552-68.1984-39.5264-1.8432-3.072-1.8432-7.168 0-10.24 14.1312-24.3712 40.3456-39.5264 68.1984-39.5264 28.0576 0 54.272 15.1552 68.1984 39.5264 1.8432 3.072 1.8432 7.168 0 10.24-13.9264 24.3712-40.1408 39.5264-68.1984 39.5264z m-47.104-44.4416c10.8544 14.9504 28.4672 24.1664 47.3088 24.1664s36.2496-9.0112 47.3088-24.1664c-10.8544-14.9504-28.4672-24.1664-47.3088-24.1664-18.8416 0-36.4544 9.0112-47.3088 24.1664z" fill="#1C1D21" p-id="8917"></path><path d="M262.3488 718.2336H98.7136c-5.7344 0-10.24-4.5056-10.24-10.24s4.5056-10.24 10.24-10.24h163.6352c5.7344 0 10.24 4.5056 10.24 10.24s-4.5056 10.24-10.24 10.24z" fill="#1C1D21" p-id="8918"></path><path d="M262.3488 544.3584c-20.48 11.8784-34.4064 33.9968-34.4064 59.392 0 25.3952 13.7216 47.5136 34.4064 59.392 20.48-11.8784 34.4064-33.9968 34.4064-59.392 0-25.3952-13.9264-47.5136-34.4064-59.392z" fill="#0ABFB2" p-id="8919"></path><path d="M262.3488 673.3824c-1.8432 0-3.4816-0.4096-5.12-1.4336-24.3712-14.1312-39.5264-40.3456-39.5264-68.1984 0-28.0576 15.1552-54.272 39.5264-68.1984 3.072-1.8432 7.168-1.8432 10.24 0 24.3712 14.1312 39.5264 40.3456 39.5264 68.1984 0 28.0576-15.1552 54.272-39.5264 68.1984-1.6384 1.024-3.2768 1.4336-5.12 1.4336z m0-116.9408c-14.9504 10.8544-24.1664 28.4672-24.1664 47.3088 0 18.6368 9.0112 36.2496 24.1664 47.3088 14.9504-10.8544 24.1664-28.4672 24.1664-47.3088s-9.216-36.2496-24.1664-47.3088z" fill="#1C1D21" p-id="8920"></path><path d="M262.3488 718.2336c-5.7344 0-10.24-4.5056-10.24-10.24v-163.6352c0-5.7344 4.5056-10.24 10.24-10.24s10.24 4.5056 10.24 10.24v163.6352c0 5.5296-4.5056 10.24-10.24 10.24z" fill="#1C1D21" p-id="8921"></path><path d="M371.9168 485.5808c-0.8192 0-1.8432-0.2048-2.8672-0.4096-4.096-1.2288-7.9872-2.2528-11.6736-3.4816-5.3248-1.8432-8.192-7.5776-6.3488-12.9024 1.8432-5.3248 7.5776-8.192 12.9024-6.3488 3.2768 1.024 6.9632 2.2528 10.6496 3.2768 5.5296 1.4336 8.6016 7.168 7.168 12.6976-1.2288 4.3008-5.3248 7.168-9.8304 7.168zM512 501.5552c-35.84 0-71.0656-2.6624-101.9904-7.5776-5.5296-0.8192-9.4208-6.144-8.3968-11.6736 0.8192-5.5296 6.144-9.4208 11.6736-8.3968 29.9008 4.9152 63.8976 7.3728 98.7136 7.3728 43.8272 0 86.4256-4.096 120.2176-11.4688 10.24-2.2528 19.6608-4.7104 27.648-7.5776 5.3248-1.8432 11.264 1.024 12.9024 6.3488 1.8432 5.3248-1.024 11.264-6.3488 12.9024-8.8064 2.8672-18.8416 5.7344-29.9008 7.9872-35.0208 7.9872-79.4624 12.0832-124.5184 12.0832z" fill="#FFFFFF" p-id="8922"></path></svg>