<svg xmlns="http://www.w3.org/2000/svg" viewBox="0 0 1024 1024" version="1.1"><path d="M512 512m-501.76 0a501.76 501.76 0 1 0 1003.52 0 501.76 501.76 0 1 0-1003.52 0Z" fill="#8CEEF9" p-id="13108"></path><path d="M512 1024c-136.8064 0-265.4208-53.248-362.0864-149.9136S0 648.8064 0 512 53.248 246.5792 149.9136 149.9136 375.1936 0 512 0s265.4208 53.248 362.0864 149.9136S1024 375.1936 1024 512s-53.248 265.4208-149.9136 362.0864S648.8064 1024 512 1024z m0-1003.52C241.0496 20.48 20.48 241.0496 20.48 512s220.5696 491.52 491.52 491.52 491.52-220.5696 491.52-491.52S782.9504 20.48 512 20.48z" fill="#1C1D21" p-id="13109"></path><path d="M981.8112 486.1952c-15.9744 0-28.8768-12.9024-28.8768-28.8768 0 15.9744-12.9024 28.8768-28.8768 28.8768s-28.8768-12.9024-28.8768-28.8768c0 15.9744-12.9024 28.8768-28.8768 28.8768s-28.8768-12.9024-28.8768-28.8768c0 15.9744-12.9024 28.8768-28.8768 28.8768s-28.8768-12.9024-28.8768-28.8768c0 15.9744-12.9024 28.8768-28.8768 28.8768s-28.8768-12.9024-28.8768-28.8768c0 15.9744-12.9024 28.8768-28.8768 28.8768s-28.8768-12.9024-28.8768-28.8768H359.8336c0 15.9744-12.9024 28.8768-28.8768 28.8768s-28.8768-12.9024-28.8768-28.8768c0 15.9744-12.9024 28.8768-28.8768 28.8768s-28.8768-12.9024-28.8768-28.8768c0 15.9744-12.9024 28.8768-28.8768 28.8768s-28.8768-12.9024-28.8768-28.8768c0 15.9744-12.9024 28.8768-28.8768 28.8768s-28.8768-12.9024-28.8768-28.8768c0 15.9744-12.9024 28.8768-28.8768 28.8768s-28.8768-12.9024-28.8768-28.8768c0 15.9744-12.9024 28.8768-28.8768 28.8768s-28.8768-12.9024-28.8768-28.672C11.264 475.3408 10.24 493.568 10.24 512c0 277.0944 224.6656 501.76 501.76 501.76s501.76-224.6656 501.76-501.76c0-18.432-1.024-36.6592-3.072-54.6816 0 15.9744-12.9024 28.8768-28.8768 28.8768z" fill="#508DEF" p-id="13110"></path><path d="M512 1024c-136.8064 0-265.4208-53.248-362.0864-149.9136S0 648.8064 0 512c0-18.432 1.024-37.0688 3.072-55.5008 0.6144-5.3248 5.3248-9.4208 10.6496-9.216 5.3248 0.2048 9.6256 4.7104 9.6256 10.24 0 10.24 8.3968 18.432 18.6368 18.432s18.6368-8.3968 18.6368-18.6368c0-5.7344 4.5056-10.24 10.24-10.24s10.24 4.5056 10.24 10.24c0 10.24 8.3968 18.6368 18.6368 18.6368s18.6368-8.3968 18.6368-18.6368c0-5.7344 4.5056-10.24 10.24-10.24s10.24 4.5056 10.24 10.24c0 10.24 8.3968 18.6368 18.6368 18.6368s18.6368-8.3968 18.6368-18.6368c0-5.7344 4.5056-10.24 10.24-10.24s10.24 4.5056 10.24 10.24c0 10.24 8.3968 18.6368 18.6368 18.6368s18.6368-8.3968 18.6368-18.6368c0-5.7344 4.5056-10.24 10.24-10.24s10.24 4.5056 10.24 10.24c0 10.24 8.3968 18.6368 18.6368 18.6368s18.6368-8.3968 18.6368-18.6368c0-5.7344 4.5056-10.24 10.24-10.24s10.24 4.5056 10.24 10.24c0 10.24 8.3968 18.6368 18.6368 18.6368s18.6368-8.3968 18.6368-18.6368c0-5.7344 4.5056-10.24 10.24-10.24h304.3328c5.7344 0 10.24 4.5056 10.24 10.24 0 10.24 8.3968 18.6368 18.6368 18.6368s18.6368-8.3968 18.6368-18.6368c0-5.7344 4.5056-10.24 10.24-10.24s10.24 4.5056 10.24 10.24c0 10.24 8.3968 18.6368 18.6368 18.6368s18.6368-8.3968 18.6368-18.6368c0-5.7344 4.5056-10.24 10.24-10.24s10.24 4.5056 10.24 10.24c0 10.24 8.3968 18.6368 18.6368 18.6368s18.6368-8.3968 18.6368-18.6368c0-5.7344 4.5056-10.24 10.24-10.24s10.24 4.5056 10.24 10.24c0 10.24 8.3968 18.6368 18.6368 18.6368s18.6368-8.3968 18.6368-18.6368c0-5.7344 4.5056-10.24 10.24-10.24s10.24 4.5056 10.24 10.24c0 10.24 8.3968 18.6368 18.6368 18.6368s18.6368-8.3968 18.6368-18.6368c0-5.7344 4.5056-10.24 10.24-10.24s10.24 4.5056 10.24 10.24c0 10.24 8.3968 18.6368 18.6368 18.6368s18.6368-8.3968 18.6368-18.6368c0-5.7344 4.5056-10.24 10.24-10.24 5.3248 0 9.6256 3.8912 10.24 9.216 2.048 18.6368 3.072 37.2736 3.072 55.7056 0 136.8064-53.248 265.4208-149.9136 362.0864S648.8064 1024 512 1024zM20.8896 490.2912c-0.4096 7.3728-0.4096 14.5408-0.4096 21.7088 0 270.9504 220.5696 491.52 491.52 491.52s491.52-220.5696 491.52-491.52c0-7.168-0.2048-14.5408-0.4096-21.7088-6.144 3.8912-13.312 6.144-21.0944 6.144-11.4688 0-21.7088-4.9152-28.8768-12.6976-7.168 7.7824-17.408 12.6976-28.8768 12.6976s-21.7088-4.9152-28.8768-12.6976c-7.168 7.7824-17.408 12.6976-28.8768 12.6976s-21.7088-4.9152-28.8768-12.6976c-7.168 7.7824-17.408 12.6976-28.8768 12.6976s-21.7088-4.9152-28.8768-12.6976c-7.168 7.7824-17.408 12.6976-28.8768 12.6976s-21.7088-4.9152-28.8768-12.6976c-7.168 7.7824-17.408 12.6976-28.8768 12.6976-18.0224 0-33.1776-12.288-37.6832-28.8768H368.64c-4.5056 16.5888-19.6608 28.8768-37.6832 28.8768-11.4688 0-21.7088-4.9152-28.8768-12.6976-7.168 7.7824-17.408 12.6976-28.8768 12.6976s-21.7088-4.9152-28.8768-12.6976c-7.168 7.7824-17.408 12.6976-28.8768 12.6976s-21.7088-4.9152-28.8768-12.6976c-7.168 7.7824-17.408 12.6976-28.8768 12.6976s-21.7088-4.9152-28.8768-12.6976c-7.168 7.7824-17.408 12.6976-28.8768 12.6976s-21.7088-4.9152-28.8768-12.6976c-7.168 7.7824-17.408 12.6976-28.8768 12.6976-7.7824 0-15.1552-2.2528-21.2992-6.144z" fill="#1C1D21" p-id="13111"></path><path d="M539.0336 118.784v180.4288h-54.0672V172.8512c0-29.9008 24.1664-54.0672 54.0672-54.0672zM484.9664 637.5424v-180.4288h54.0672v126.3616c0 29.696-24.1664 54.0672-54.0672 54.0672zM714.5472 213.8112l-127.5904 127.5904-38.2976-38.2976 89.2928-89.2928c21.0944-21.0944 55.5008-21.0944 76.5952 0zM309.4528 542.3104l127.5904-127.5904 38.2976 38.2976-89.2928 89.2928c-21.0944 21.0944-55.5008 21.0944-76.5952 0zM771.2768 405.0944h-180.4288v-54.0672h126.3616c29.9008 0 54.0672 24.1664 54.0672 54.0672zM252.7232 351.0272h180.4288v54.0672h-126.3616c-29.9008 0-54.0672-24.1664-54.0672-54.0672zM676.2496 580.608l-127.5904-127.5904 38.2976-38.2976 89.2928 89.2928c21.0944 21.0944 21.0944 55.5008 0 76.5952zM347.7504 175.5136l127.5904 127.5904-38.2976 38.2976-89.2928-89.2928c-21.0944-21.0944-21.0944-55.296 0-76.5952z" fill="#C67552" p-id="13112"></path><path d="M539.0336 309.4528h-54.0672c-5.7344 0-10.24-4.5056-10.24-10.24V172.8512c0-35.4304 28.8768-64.3072 64.3072-64.3072 5.7344 0 10.24 4.5056 10.24 10.24v180.4288c0 5.7344-4.5056 10.24-10.24 10.24z m-43.8272-20.48h33.5872V130.2528c-19.2512 4.7104-33.5872 21.9136-33.5872 42.5984v116.1216zM484.9664 647.7824c-5.7344 0-10.24-4.5056-10.24-10.24v-180.4288c0-5.7344 4.5056-10.24 10.24-10.24h54.0672c5.7344 0 10.24 4.5056 10.24 10.24v126.3616c0 35.2256-28.8768 64.3072-64.3072 64.3072z m10.24-180.6336v158.72c19.2512-4.7104 33.5872-21.9136 33.5872-42.5984v-116.1216h-33.5872z" fill="#1C1D21" p-id="13113"></path><path d="M586.9568 351.6416c-2.6624 0-5.3248-1.024-7.168-3.072l-38.2976-38.2976c-4.096-4.096-4.096-10.4448 0-14.5408l89.2928-89.2928c25.1904-25.1904 65.9456-25.1904 91.136 0 1.8432 1.8432 3.072 4.5056 3.072 7.168s-1.024 5.3248-3.072 7.168l-127.5904 127.5904c-2.2528 2.4576-4.7104 3.2768-7.3728 3.2768zM563.2 303.104l23.7568 23.7568 112.2304-112.2304c-16.9984-10.4448-39.3216-8.192-54.0672 6.3488L563.2 303.104zM347.7504 568.32c-16.384 0-32.9728-6.3488-45.4656-18.8416-1.8432-1.8432-3.072-4.5056-3.072-7.168s1.024-5.3248 3.072-7.168l127.5904-127.5904c4.096-4.096 10.4448-4.096 14.5408 0l38.2976 38.2976c4.096 4.096 4.096 10.4448 0 14.5408L393.216 549.6832c-12.4928 12.4928-28.8768 18.6368-45.4656 18.6368z m-22.9376-26.8288c16.9984 10.4448 39.3216 8.192 54.0672-6.3488l82.1248-82.1248-23.7568-23.7568-112.4352 112.2304z" fill="#1C1D21" p-id="13114"></path><path d="M771.2768 415.3344h-180.4288c-5.7344 0-10.24-4.5056-10.24-10.24v-54.0672c0-5.7344 4.5056-10.24 10.24-10.24h126.3616c35.4304 0 64.3072 28.8768 64.3072 64.3072 0 5.7344-4.5056 10.24-10.24 10.24z m-170.1888-20.48H759.808c-4.7104-19.2512-21.9136-33.5872-42.5984-33.5872h-116.1216v33.5872zM433.152 415.3344h-126.3616c-35.4304 0-64.3072-28.8768-64.3072-64.3072 0-5.7344 4.5056-10.24 10.24-10.24h180.4288c5.7344 0 10.24 4.5056 10.24 10.24v54.0672c0 5.7344-4.5056 10.24-10.24 10.24zM264.192 361.2672c4.7104 19.2512 21.9136 33.5872 42.5984 33.5872h116.1216v-33.5872H264.192z" fill="#1C1D21" p-id="13115"></path><path d="M676.2496 590.848c-2.6624 0-5.3248-1.024-7.168-3.072l-127.5904-127.5904c-4.096-4.096-4.096-10.4448 0-14.5408L579.584 407.552c4.096-4.096 10.4448-4.096 14.5408 0l89.2928 89.2928c25.1904 25.1904 25.1904 65.9456 0 91.136-1.8432 1.8432-4.5056 2.8672-7.168 2.8672zM563.2 453.0176l112.2304 112.2304c10.4448-16.9984 8.192-39.3216-6.3488-54.0672l-82.1248-82.1248-23.7568 23.9616zM437.0432 351.6416c-2.6624 0-5.3248-1.024-7.168-3.072l-89.2928-89.2928c-25.1904-25.1904-25.1904-65.9456 0-91.136 1.8432-1.8432 4.5056-3.072 7.168-3.072s5.3248 1.024 7.168 3.072l127.5904 127.5904c4.096 4.096 4.096 10.4448 0 14.5408L444.416 348.7744c-2.048 2.048-4.7104 2.8672-7.3728 2.8672z m-88.4736-160.768c-10.4448 16.9984-8.192 39.3216 6.3488 54.0672l82.1248 82.1248L460.8 303.104l-112.2304-112.2304z" fill="#1C1D21" p-id="13116"></path><path d="M512 378.0608m-183.0912 0a183.0912 183.0912 0 1 0 366.1824 0 183.0912 183.0912 0 1 0-366.1824 0Z" fill="#C67552" p-id="13117"></path><path d="M342.4256 318.8736c-1.2288 0-2.4576-0.2048-3.6864-0.6144-5.3248-2.048-7.7824-7.9872-5.7344-13.312v-0.2048c0-0.2048 0-0.2048 0.2048-0.4096 0-0.2048 0.2048-0.2048 0.2048-0.4096v-0.2048c2.2528-5.12 8.192-7.7824 13.312-5.5296 5.12 2.2528 7.7824 8.192 5.5296 13.312 0 0.2048 0 0.2048-0.2048 0.4096 0 0.2048 0 0.2048-0.2048 0.4096-1.4336 4.096-5.3248 6.5536-9.4208 6.5536zM426.1888 550.0928c-1.6384 0-3.2768-0.4096-4.7104-1.2288-63.488-33.5872-102.8096-99.1232-102.8096-170.8032 0-9.6256 0.6144-19.2512 2.048-28.672 0.8192-5.5296 5.9392-9.4208 11.6736-8.6016 5.5296 0.8192 9.4208 5.9392 8.6016 11.6736-1.2288 8.3968-1.8432 16.9984-1.8432 25.6 0 64.1024 35.2256 122.6752 91.9552 152.7808 4.9152 2.6624 6.9632 8.8064 4.3008 13.9264-1.8432 3.4816-5.5296 5.3248-9.216 5.3248zM512 571.392c-15.5648 0-30.9248-1.8432-45.8752-5.5296-5.5296-1.4336-8.8064-6.9632-7.5776-12.288 1.4336-5.5296 6.9632-8.8064 12.288-7.5776 13.312 3.2768 27.0336 4.9152 40.96 4.9152 21.7088 0 42.8032-3.8912 62.8736-11.6736 5.3248-2.048 11.264 0.6144 13.312 5.7344 2.048 5.3248-0.6144 11.264-5.7344 13.312-22.3232 8.8064-46.08 13.1072-70.2464 13.1072zM620.9536 535.552c-3.072 0-6.144-1.4336-8.192-4.096-3.2768-4.5056-2.4576-10.8544 2.048-14.336 43.8272-32.5632 70.0416-84.3776 70.0416-139.0592 0-95.232-77.6192-172.8512-172.8512-172.8512-15.9744 0-31.744 2.2528-46.8992 6.5536-5.5296 1.6384-11.0592-1.6384-12.6976-7.168-1.4336-5.5296 1.6384-11.0592 7.168-12.6976 16.9984-4.7104 34.6112-7.168 52.6336-7.168 106.7008 0 193.3312 86.6304 193.3312 193.3312 0 61.0304-29.2864 118.9888-78.2336 155.4432-2.048 1.4336-4.3008 2.048-6.3488 2.048zM356.1472 292.2496c-1.8432 0-3.6864-0.4096-5.3248-1.4336-4.7104-3.072-6.3488-9.216-3.2768-14.1312 18.0224-29.0816 43.4176-53.0432 73.5232-69.2224 4.9152-2.6624 11.264-0.8192 13.9264 4.3008s0.8192 11.264-4.3008 13.9264c-27.0336 14.336-49.7664 35.84-65.7408 61.8496-2.048 3.072-5.5296 4.7104-8.8064 4.7104z" fill="#1C1D21" p-id="13118"></path><path d="M499.9168 251.2896c-5.3248 0-9.6256-4.096-10.24-9.4208-0.4096-5.7344 3.6864-10.6496 9.216-11.0592 4.3008-0.4096 8.6016-0.6144 12.9024-0.6144 5.7344 0 10.24 4.5056 10.24 10.24s-4.5056 10.24-10.24 10.24c-3.6864 0-7.3728 0.2048-11.0592 0.4096-0.2048 0.2048-0.4096 0.2048-0.8192 0.2048zM392.3968 456.2944c-3.4816 0-6.9632-1.8432-8.8064-5.12-12.6976-22.1184-19.456-47.5136-19.456-73.1136 0-55.5008 30.72-105.6768 79.872-131.2768 5.12-2.6624 11.264-0.6144 13.7216 4.3008 2.6624 5.12 0.6144 11.264-4.3008 13.7216-42.5984 22.1184-68.8128 65.3312-68.8128 113.0496 0 22.1184 5.7344 43.8272 16.5888 62.8736 2.8672 4.9152 1.024 11.264-3.8912 13.9264-1.4336 1.2288-3.072 1.6384-4.9152 1.6384z" fill="#FFA364" p-id="13119"></path><path d="M512 378.0608m-47.104 0a47.104 47.104 0 1 0 94.208 0 47.104 47.104 0 1 0-94.208 0Z" fill="#8CEEF9" p-id="13120"></path><path d="M512 435.4048c-31.5392 0-57.344-25.6-57.344-57.344s25.6-57.344 57.344-57.344 57.344 25.6 57.344 57.344-25.8048 57.344-57.344 57.344z m0-94.0032c-20.2752 0-36.864 16.5888-36.864 36.864s16.5888 36.864 36.864 36.864 36.864-16.5888 36.864-36.864-16.5888-36.864-36.864-36.864z" fill="#1C1D21" p-id="13121"></path><path d="M512 341.4016c-5.7344 0-10.24-4.5056-10.24-10.24v-39.3216c0-5.7344 4.5056-10.24 10.24-10.24s10.24 4.5056 10.24 10.24v39.3216c0 5.5296-4.5056 10.24-10.24 10.24zM512 267.6736c-5.7344 0-10.24-4.5056-10.24-10.24v-4.3008c0-5.7344 4.5056-10.24 10.24-10.24s10.24 4.5056 10.24 10.24v4.3008c0 5.7344-4.5056 10.24-10.24 10.24zM512 474.5216c-5.7344 0-10.24-4.5056-10.24-10.24v-39.3216c0-5.7344 4.5056-10.24 10.24-10.24s10.24 4.5056 10.24 10.24v39.3216c0 5.5296-4.5056 10.24-10.24 10.24zM512 514.4576c-5.7344 0-10.24-4.5056-10.24-10.24v-4.3008c0-5.7344 4.5056-10.24 10.24-10.24s10.24 4.5056 10.24 10.24v4.3008c0 5.5296-4.5056 10.24-10.24 10.24zM545.1776 355.7376c-2.6624 0-5.3248-1.024-7.168-3.072-4.096-4.096-4.096-10.4448 0-14.5408l27.8528-27.8528c4.096-4.096 10.4448-4.096 14.5408 0s4.096 10.4448 0 14.5408l-27.8528 27.8528c-2.048 2.048-4.7104 3.072-7.3728 3.072zM597.6064 303.3088c-2.6624 0-5.3248-1.024-7.168-3.072-4.096-4.096-4.096-10.4448 0-14.5408l3.072-3.072c4.096-4.096 10.4448-4.096 14.5408 0s4.096 10.4448 0 14.5408l-3.072 3.072c-2.048 2.048-4.7104 3.072-7.3728 3.072zM450.9696 449.1264c-2.6624 0-5.3248-1.024-7.168-3.072-4.096-4.096-4.096-10.4448 0-14.5408l27.8528-27.8528c4.096-4.096 10.4448-4.096 14.5408 0s4.096 10.4448 0 14.5408l-27.8528 27.8528c-2.048 2.048-4.7104 3.072-7.3728 3.072zM423.3216 477.5936c-2.6624 0-5.3248-1.024-7.168-3.072-4.096-4.096-4.096-10.4448 0-14.5408l3.072-3.072c4.096-4.096 10.4448-4.096 14.5408 0s4.096 10.4448 0 14.5408l-3.072 3.072c-2.2528 2.2528-4.7104 3.072-7.3728 3.072zM598.2208 388.3008h-39.3216c-5.7344 0-10.24-4.5056-10.24-10.24s4.5056-10.24 10.24-10.24h39.3216c5.7344 0 10.24 4.5056 10.24 10.24s-4.7104 10.24-10.24 10.24zM637.5424 388.9152h-4.3008c-5.7344 0-10.24-4.5056-10.24-10.24s4.5056-10.24 10.24-10.24h4.3008c5.7344 0 10.24 4.5056 10.24 10.24s-4.7104 10.24-10.24 10.24zM465.1008 388.3008h-39.3216c-5.7344 0-10.24-4.5056-10.24-10.24s4.5056-10.24 10.24-10.24h39.3216c5.7344 0 10.24 4.5056 10.24 10.24s-4.7104 10.24-10.24 10.24zM390.7584 388.9152h-4.3008c-5.7344 0-10.24-4.5056-10.24-10.24s4.5056-10.24 10.24-10.24h4.3008c5.7344 0 10.24 4.5056 10.24 10.24s-4.5056 10.24-10.24 10.24zM573.0304 449.1264c-2.6624 0-5.3248-1.024-7.168-3.072l-27.8528-27.8528c-4.096-4.096-4.096-10.4448 0-14.5408s10.4448-4.096 14.5408 0l27.8528 27.8528c4.096 4.096 4.096 10.4448 0 14.5408-2.2528 2.048-4.9152 3.072-7.3728 3.072zM600.6784 477.5936c-2.6624 0-5.3248-1.024-7.168-3.072l-3.072-3.072c-4.096-4.096-4.096-10.4448 0-14.5408s10.4448-4.096 14.5408 0l3.072 3.072c4.096 4.096 4.096 10.4448 0 14.5408-2.048 2.2528-4.7104 3.072-7.3728 3.072zM478.8224 355.1232c-2.6624 0-5.3248-1.024-7.168-3.072l-27.8528-27.8528c-4.096-4.096-4.096-10.4448 0-14.5408s10.4448-4.096 14.5408 0l27.8528 27.8528c4.096 4.096 4.096 10.4448 0 14.5408-2.048 2.048-4.7104 3.072-7.3728 3.072zM426.3936 303.3088c-2.6624 0-5.3248-1.024-7.168-3.072l-3.072-3.072c-4.096-4.096-4.096-10.4448 0-14.5408s10.4448-4.096 14.5408 0l3.072 3.072c4.096 4.096 4.096 10.4448 0 14.5408-2.2528 2.048-4.9152 3.072-7.3728 3.072zM387.6864 739.328c-12.0832 0-22.9376-5.12-30.3104-13.5168-7.5776 8.192-18.432 13.5168-30.3104 13.5168-12.288 0-23.3472-5.3248-30.72-13.9264-7.5776 8.6016-18.432 13.9264-30.72 13.9264-5.7344 0-10.24-4.5056-10.24-10.24s4.5056-10.24 10.24-10.24c11.264 0 20.48-9.216 20.48-20.48 0-5.7344 4.5056-10.24 10.24-10.24s10.24 4.5056 10.24 10.24c0 11.264 9.216 20.48 20.48 20.48 9.6256 0 17.8176-6.7584 20.0704-15.7696-0.2048-1.6384-0.2048-3.072-0.2048-4.7104 0-5.7344 4.5056-10.24 10.24-10.24h0.8192c5.7344 0 10.24 4.5056 10.24 10.24 0 1.6384 0 3.2768-0.2048 4.7104 2.048 9.0112 10.24 15.7696 20.0704 15.7696 5.7344 0 10.24 4.5056 10.24 10.24s-4.9152 10.24-10.6496 10.24zM757.3504 739.328c-12.0832 0-22.9376-5.12-30.3104-13.5168-7.5776 8.192-18.432 13.5168-30.3104 13.5168-12.288 0-23.3472-5.3248-30.72-13.9264-7.5776 8.6016-18.432 13.9264-30.72 13.9264h-46.4896c-5.7344 0-10.24-4.5056-10.24-10.24s4.5056-10.24 10.24-10.24h46.4896c11.264 0 20.48-9.216 20.48-20.48 0-5.7344 4.5056-10.24 10.24-10.24s10.24 4.5056 10.24 10.24c0 11.264 9.216 20.48 20.48 20.48 9.6256 0 17.8176-6.7584 20.0704-15.7696-0.2048-1.6384-0.2048-3.072-0.2048-4.7104 0-5.7344 4.5056-10.24 10.24-10.24h0.8192c5.7344 0 10.24 4.5056 10.24 10.24 0 1.6384 0 3.072-0.2048 4.7104 2.048 9.0112 10.24 15.7696 20.0704 15.7696 5.7344 0 10.24 4.5056 10.24 10.24s-4.9152 10.24-10.6496 10.24zM572.6208 865.28c-12.0832 0-22.9376-5.12-30.3104-13.5168-7.5776 8.192-18.432 13.5168-30.3104 13.5168-12.288 0-23.3472-5.3248-30.72-13.9264-7.5776 8.6016-18.432 13.9264-30.72 13.9264-5.7344 0-10.24-4.5056-10.24-10.24s4.5056-10.24 10.24-10.24c11.264 0 20.48-9.216 20.48-20.48 0-5.7344 4.5056-10.24 10.24-10.24s10.24 4.5056 10.24 10.24c0 11.264 9.216 20.48 20.48 20.48 9.6256 0 17.8176-6.7584 20.0704-15.7696-0.2048-1.6384-0.2048-3.072-0.2048-4.7104 0-5.7344 4.5056-10.24 10.24-10.24h0.8192c5.7344 0 10.24 4.5056 10.24 10.24 0 1.6384 0 3.072-0.2048 4.7104 2.048 9.0112 10.24 15.7696 20.0704 15.7696 5.7344 0 10.24 4.5056 10.24 10.24s-5.12 10.24-10.6496 10.24zM556.4416 739.328h-6.144c-5.7344 0-10.24-4.5056-10.24-10.24s4.5056-10.24 10.24-10.24h6.144c5.7344 0 10.24 4.5056 10.24 10.24s-4.5056 10.24-10.24 10.24zM387.6864 865.28h-21.7088c-5.7344 0-10.24-4.5056-10.24-10.24s4.5056-10.24 10.24-10.24h21.7088c5.7344 0 10.24 4.5056 10.24 10.24s-4.5056 10.24-10.24 10.24zM325.2224 865.28h-9.4208c-5.7344 0-10.24-4.5056-10.24-10.24s4.5056-10.24 10.24-10.24h9.4208c5.7344 0 10.24 4.5056 10.24 10.24s-4.7104 10.24-10.24 10.24zM871.8336 739.328h-20.48c-5.7344 0-10.24-4.5056-10.24-10.24s4.5056-10.24 10.24-10.24h20.48c5.7344 0 10.24 4.5056 10.24 10.24s-4.5056 10.24-10.24 10.24zM191.2832 739.328h-14.5408c-5.7344 0-10.24-4.5056-10.24-10.24s4.5056-10.24 10.24-10.24h14.5408c5.7344 0 10.24 4.5056 10.24 10.24s-4.7104 10.24-10.24 10.24z" fill="#1C1D21" p-id="13122"></path></svg>