<svg xmlns="http://www.w3.org/2000/svg" viewBox="0 0 1024 1024" version="1.1"><path d="M512 512m-501.76 0a501.76 501.76 0 1 0 1003.52 0 501.76 501.76 0 1 0-1003.52 0Z" fill="#FFECE9" p-id="11791"></path><path d="M332.8 872.448h-163.84c-7.9872 0-14.336-6.3488-14.336-14.336v-17.8176c0-7.9872 6.3488-14.336 14.336-14.336h163.84c7.9872 0 14.336 6.3488 14.336 14.336v17.8176c0 7.9872-6.3488 14.336-14.336 14.336z" fill="#FF8939" p-id="11792"></path><path d="M203.3664 882.688c-5.7344 0-10.24-4.5056-10.24-10.24v-46.4896c0-5.7344 4.5056-10.24 10.24-10.24s10.24 4.5056 10.24 10.24V872.448c0 5.7344-4.5056 10.24-10.24 10.24zM250.88 882.688c-5.7344 0-10.24-4.5056-10.24-10.24v-46.4896c0-5.7344 4.5056-10.24 10.24-10.24s10.24 4.5056 10.24 10.24V872.448c0 5.7344-4.5056 10.24-10.24 10.24zM298.3936 882.688c-5.7344 0-10.24-4.5056-10.24-10.24v-46.4896c0-5.7344 4.5056-10.24 10.24-10.24s10.24 4.5056 10.24 10.24V872.448c0 5.7344-4.7104 10.24-10.24 10.24z" fill="#FFC5B3" p-id="11793"></path><path d="M332.8 882.688h-163.84c-13.5168 0-24.576-11.0592-24.576-24.576v-17.8176c0-13.5168 11.0592-24.576 24.576-24.576h163.84c13.5168 0 24.576 11.0592 24.576 24.576v17.8176c0 13.5168-11.0592 24.576-24.576 24.576z m-163.84-46.4896c-2.2528 0-4.096 1.8432-4.096 4.096v17.8176c0 2.2528 1.8432 4.096 4.096 4.096h163.84c2.2528 0 4.096-1.8432 4.096-4.096v-17.8176c0-2.2528-1.8432-4.096-4.096-4.096h-163.84z" fill="#1C1D21" p-id="11794"></path><path d="M378.2656 825.9584h-163.84c-7.9872 0-14.336-6.3488-14.336-14.336v-17.8176c0-7.9872 6.3488-14.336 14.336-14.336h163.84c7.9872 0 14.336 6.3488 14.336 14.336v17.8176c0 7.9872-6.5536 14.336-14.336 14.336z" fill="#FF8939" p-id="11795"></path><path d="M248.832 836.1984c-5.7344 0-10.24-4.5056-10.24-10.24v-46.4896c0-5.7344 4.5056-10.24 10.24-10.24s10.24 4.5056 10.24 10.24v46.4896c0 5.7344-4.5056 10.24-10.24 10.24zM296.3456 836.1984c-5.7344 0-10.24-4.5056-10.24-10.24v-46.4896c0-5.7344 4.5056-10.24 10.24-10.24s10.24 4.5056 10.24 10.24v46.4896c0 5.7344-4.7104 10.24-10.24 10.24zM343.6544 836.1984c-5.7344 0-10.24-4.5056-10.24-10.24v-46.4896c0-5.7344 4.5056-10.24 10.24-10.24s10.24 4.5056 10.24 10.24v46.4896c0 5.7344-4.5056 10.24-10.24 10.24z" fill="#FFC5B3" p-id="11796"></path><path d="M378.2656 836.1984h-163.84c-13.5168 0-24.576-11.0592-24.576-24.576v-17.8176c0-13.5168 11.0592-24.576 24.576-24.576h163.84c13.5168 0 24.576 11.0592 24.576 24.576v17.8176c0 13.7216-11.0592 24.576-24.576 24.576z m-163.84-46.2848c-2.2528 0-4.096 1.8432-4.096 4.096v17.8176c0 2.2528 1.8432 4.096 4.096 4.096h163.84c2.2528 0 4.096-1.8432 4.096-4.096v-17.8176c0-2.2528-1.8432-4.096-4.096-4.096h-163.84z" fill="#1C1D21" p-id="11797"></path><path d="M378.2656 779.6736h-163.84c-7.9872 0-14.336-6.3488-14.336-14.336V747.52c0-7.9872 6.3488-14.336 14.336-14.336h163.84c7.9872 0 14.336 6.3488 14.336 14.336v17.8176c0 7.7824-6.5536 14.336-14.336 14.336z" fill="#FF8939" p-id="11798"></path><path d="M248.832 789.9136c-5.7344 0-10.24-4.5056-10.24-10.24V733.184c0-5.7344 4.5056-10.24 10.24-10.24s10.24 4.5056 10.24 10.24v46.4896c0 5.5296-4.5056 10.24-10.24 10.24zM296.3456 789.9136c-5.7344 0-10.24-4.5056-10.24-10.24V733.184c0-5.7344 4.5056-10.24 10.24-10.24s10.24 4.5056 10.24 10.24v46.4896c0 5.5296-4.7104 10.24-10.24 10.24zM343.6544 789.9136c-5.7344 0-10.24-4.5056-10.24-10.24V733.184c0-5.7344 4.5056-10.24 10.24-10.24s10.24 4.5056 10.24 10.24v46.4896c0 5.5296-4.5056 10.24-10.24 10.24z" fill="#FFC5B3" p-id="11799"></path><path d="M378.2656 789.9136h-163.84c-13.5168 0-24.576-11.0592-24.576-24.576V747.52c0-13.5168 11.0592-24.576 24.576-24.576h163.84c13.5168 0 24.576 11.0592 24.576 24.576v17.8176c0 13.5168-11.0592 24.576-24.576 24.576z m-163.84-46.4896c-2.2528 0-4.096 1.8432-4.096 4.096v17.8176c0 2.2528 1.8432 4.096 4.096 4.096h163.84c2.2528 0 4.096-1.8432 4.096-4.096V747.52c0-2.2528-1.8432-4.096-4.096-4.096h-163.84z" fill="#1C1D21" p-id="11800"></path><path d="M341.8112 741.5808l26.4192 44.4416c12.288 20.6848 18.8416 44.2368 18.8416 68.4032 0 10.0352 7.9872 18.0224 18.0224 18.0224h25.8048c6.9632 0 13.312-4.096 16.384-10.4448l22.9376-48.5376-128.4096-71.8848zM682.1888 741.5808l-26.4192 44.4416c-12.288 20.6848-18.8416 44.2368-18.8416 68.4032 0 10.0352-7.9872 18.0224-18.0224 18.0224h-25.8048c-6.9632 0-13.312-4.096-16.384-10.4448l-22.9376-48.5376 128.4096-71.8848z" fill="#FFC5B3" p-id="11801"></path><path d="M430.8992 882.688h-25.8048c-15.5648 0-28.2624-12.6976-28.2624-28.2624 0-22.3232-5.9392-44.032-17.408-63.0784l-26.4192-44.4416c-2.4576-3.8912-1.8432-9.0112 1.4336-12.288 3.2768-3.2768 8.3968-4.096 12.288-1.8432L475.136 804.864c4.7104 2.6624 6.5536 8.3968 4.3008 13.312l-22.9376 48.5376c-4.7104 9.6256-14.7456 15.9744-25.6 15.9744z m-60.8256-113.4592l6.7584 11.4688c13.312 22.3232 20.2752 47.7184 20.2752 73.728 0 4.3008 3.4816 7.7824 7.7824 7.7824h25.8048c3.072 0 5.7344-1.8432 6.9632-4.5056l18.8416-39.936-86.4256-48.5376zM618.9056 882.688h-25.8048c-10.8544 0-20.8896-6.3488-25.6-16.1792L544.768 817.9712c-2.2528-4.9152-0.4096-10.6496 4.3008-13.312l128.4096-72.0896c4.096-2.2528 9.0112-1.6384 12.288 1.8432 3.2768 3.2768 3.8912 8.3968 1.4336 12.288l-26.4192 44.4416c-11.4688 19.0464-17.408 40.96-17.408 63.0784-0.2048 15.7696-12.9024 28.4672-28.4672 28.4672zM567.296 817.9712l18.8416 39.936c1.2288 2.6624 4.096 4.5056 6.9632 4.5056h25.8048c4.3008 0 7.7824-3.4816 7.7824-7.7824 0-26.0096 6.9632-51.4048 20.2752-73.728l6.7584-11.4688-86.4256 48.5376z" fill="#1C1D21" p-id="11802"></path><path d="M512 1024c-136.8064 0-265.4208-53.248-362.0864-149.9136S0 648.8064 0 512 53.248 246.5792 149.9136 149.9136 375.1936 0 512 0s265.4208 53.248 362.0864 149.9136S1024 375.1936 1024 512s-53.248 265.4208-149.9136 362.0864S648.8064 1024 512 1024z m0-1003.52C241.0496 20.48 20.48 241.0496 20.48 512s220.5696 491.52 491.52 491.52 491.52-220.5696 491.52-491.52S782.9504 20.48 512 20.48z" fill="#1C1D21" p-id="11803"></path><path d="M512 586.752m-230.8096 0a230.8096 230.8096 0 1 0 461.6192 0 230.8096 230.8096 0 1 0-461.6192 0Z" fill="#FFC5B3" p-id="11804"></path><path d="M512 827.8016c-132.9152 0-241.0496-108.1344-241.0496-241.0496S379.0848 345.7024 512 345.7024s241.0496 108.1344 241.0496 241.0496S644.9152 827.8016 512 827.8016z m0-461.6192c-121.6512 0-220.5696 98.9184-220.5696 220.5696S390.3488 807.3216 512 807.3216s220.5696-98.9184 220.5696-220.5696S633.6512 366.1824 512 366.1824z" fill="#1C1D21" p-id="11805"></path><path d="M397.5168 445.6448c-3.072 0-6.144-1.4336-8.192-4.096-3.4816-4.5056-2.4576-10.8544 2.048-14.336 2.8672-2.2528 5.9392-4.3008 8.8064-6.3488 4.7104-3.072 11.0592-2.048 14.1312 2.6624s2.048 11.0592-2.6624 14.1312c-2.6624 1.8432-5.3248 3.6864-7.9872 5.7344-1.8432 1.6384-4.096 2.2528-6.144 2.2528zM392.6016 744.448c-2.2528 0-4.5056-0.8192-6.3488-2.2528-47.104-38.2976-74.1376-95.0272-74.1376-155.4432 0-46.2848 16.1792-91.3408 45.6704-126.976 3.6864-4.3008 10.0352-4.9152 14.336-1.4336 4.3008 3.6864 4.9152 10.0352 1.4336 14.336-26.4192 31.9488-40.96 72.4992-40.96 114.0736 0 54.272 24.3712 105.2672 66.56 139.4688 4.3008 3.4816 5.12 10.0352 1.4336 14.336-2.048 2.6624-5.12 3.8912-7.9872 3.8912z" fill="#FFECE9" p-id="11806"></path><path d="M427.008 511.5904m-35.84 0a35.84 35.84 0 1 0 71.68 0 35.84 35.84 0 1 0-71.68 0Z" fill="#FFECE9" p-id="11807"></path><path d="M596.992 511.5904m-35.84 0a35.84 35.84 0 1 0 71.68 0 35.84 35.84 0 1 0-71.68 0Z" fill="#FFECE9" p-id="11808"></path><path d="M427.008 557.6704c-25.3952 0-46.08-20.6848-46.08-46.08s20.6848-46.08 46.08-46.08 46.08 20.6848 46.08 46.08-20.6848 46.08-46.08 46.08z m0-71.68c-14.1312 0-25.6 11.4688-25.6 25.6s11.4688 25.6 25.6 25.6 25.6-11.4688 25.6-25.6-11.4688-25.6-25.6-25.6zM596.992 557.6704c-25.3952 0-46.08-20.6848-46.08-46.08s20.6848-46.08 46.08-46.08 46.08 20.6848 46.08 46.08-20.6848 46.08-46.08 46.08z m0-71.68c-14.1312 0-25.6 11.4688-25.6 25.6s11.4688 25.6 25.6 25.6 25.6-11.4688 25.6-25.6-11.4688-25.6-25.6-25.6z" fill="#1C1D21" p-id="11809"></path><path d="M512 651.0592m-65.536 0a65.536 65.536 0 1 0 131.072 0 65.536 65.536 0 1 0-131.072 0Z" fill="#FFECE9" p-id="11810"></path><path d="M512 726.8352c-41.7792 0-75.776-33.9968-75.776-75.776s33.9968-75.776 75.776-75.776 75.776 33.9968 75.776 75.776-33.9968 75.776-75.776 75.776z m0-131.072c-30.5152 0-55.296 24.7808-55.296 55.296s24.7808 55.296 55.296 55.296 55.296-24.7808 55.296-55.296-24.7808-55.296-55.296-55.296zM512 784.9984c-17.8176 0-34.4064-9.6256-43.4176-24.9856-2.8672-4.9152-1.2288-11.0592 3.6864-13.9264 4.9152-2.8672 11.0592-1.2288 13.9264 3.6864 5.3248 9.216 15.1552 14.7456 25.6 14.7456s20.48-5.7344 25.6-14.7456c2.8672-4.9152 9.0112-6.5536 13.9264-3.6864s6.5536 9.0112 3.6864 13.9264c-8.6016 15.36-25.1904 24.9856-43.008 24.9856z" fill="#1C1D21" p-id="11811"></path><path d="M489.0624 670.5152c-5.7344 0-10.24-4.5056-10.24-10.24v-18.0224c0-5.7344 4.5056-10.24 10.24-10.24s10.24 4.5056 10.24 10.24v18.0224c0 5.5296-4.5056 10.24-10.24 10.24zM534.9376 670.5152c-5.7344 0-10.24-4.5056-10.24-10.24v-18.0224c0-5.7344 4.5056-10.24 10.24-10.24s10.24 4.5056 10.24 10.24v18.0224c0 5.5296-4.7104 10.24-10.24 10.24z" fill="#1C1D21" p-id="11812"></path><path d="M822.0672 318.8736c9.216 34.4064 0.2048 72.4992-26.624 99.328-27.0336 27.0336-65.1264 35.84-99.328 26.624-9.216-34.4064-0.2048-72.4992 26.624-99.328s65.1264-35.6352 99.328-26.624z" fill="#FFC5B3" p-id="11813"></path><path d="M722.5344 458.752c-9.6256 0-19.456-1.2288-29.0816-3.8912-3.4816-1.024-6.3488-3.6864-7.168-7.168-10.4448-38.912 0.8192-80.896 29.2864-109.3632 28.4672-28.4672 70.2464-39.7312 109.3632-29.2864 3.4816 1.024 6.3488 3.6864 7.168 7.168 10.4448 38.912-0.8192 80.896-29.2864 109.3632-21.504 21.504-50.5856 33.1776-80.2816 33.1776z m-18.0224-22.3232c30.1056 5.9392 61.8496-3.4816 83.5584-25.3952 21.9136-21.9136 31.3344-53.4528 25.3952-83.5584-30.1056-5.9392-61.8496 3.4816-83.5584 25.3952-21.9136 21.9136-31.3344 53.4528-25.3952 83.5584z" fill="#1C1D21" p-id="11814"></path><path d="M667.2384 355.9424c14.5408 10.6496 24.3712 30.3104 24.3712 53.0432s-9.8304 42.3936-24.3712 53.0432c-14.5408-10.6496-24.3712-30.3104-24.3712-53.0432s9.8304-42.5984 24.3712-53.0432z" fill="#FF3E63" p-id="11815"></path><path d="M667.2384 472.064c-2.048 0-4.3008-0.6144-5.9392-2.048-17.8176-12.9024-28.672-35.84-28.672-61.2352s10.6496-48.3328 28.672-61.2352c3.6864-2.6624 8.3968-2.6624 12.0832 0 17.8176 13.1072 28.672 35.84 28.672 61.2352s-10.6496 48.3328-28.672 61.2352c-2.048 1.4336-4.096 2.048-6.144 2.048z m0-102.6048c-8.8064 9.6256-14.1312 23.9616-14.1312 39.3216s5.3248 29.696 14.1312 39.3216c8.8064-9.6256 14.1312-23.9616 14.1312-39.3216s-5.3248-29.696-14.1312-39.3216z" fill="#1C1D21" p-id="11816"></path><path d="M696.1152 455.2704c-2.6624 0-5.3248-1.024-7.168-3.072-4.096-4.096-4.096-10.4448 0-14.5408l46.6944-46.6944c4.096-4.096 10.4448-4.096 14.5408 0s4.096 10.4448 0 14.5408l-46.6944 46.6944c-2.2528 2.048-4.7104 3.072-7.3728 3.072zM766.976 384.4096c-2.6624 0-5.3248-1.024-7.168-3.072-4.096-4.096-4.096-10.4448 0-14.5408l6.3488-6.3488c4.096-4.096 10.4448-4.096 14.5408 0s4.096 10.4448 0 14.5408l-6.3488 6.3488c-2.048 2.048-4.7104 3.072-7.3728 3.072z" fill="#1C1D21" p-id="11817"></path><path d="M201.9328 318.8736c-9.216 34.4064-0.2048 72.4992 26.624 99.328 27.0336 27.0336 65.1264 35.84 99.328 26.624 9.216-34.4064 0.2048-72.4992-26.624-99.328-26.8288-26.8288-65.1264-35.6352-99.328-26.624z" fill="#FFC5B3" p-id="11818"></path><path d="M301.4656 458.752c-29.696 0-58.7776-11.6736-80.0768-33.1776-28.4672-28.4672-39.7312-70.2464-29.2864-109.3632 1.024-3.4816 3.6864-6.3488 7.168-7.168 38.912-10.4448 80.896 0.8192 109.3632 29.2864 28.4672 28.4672 39.7312 70.2464 29.2864 109.3632-1.024 3.4816-3.6864 6.3488-7.168 7.168-9.8304 2.6624-19.6608 3.8912-29.2864 3.8912z m-91.136-131.2768c-5.9392 30.1056 3.4816 61.8496 25.3952 83.5584 21.9136 21.9136 53.4528 31.3344 83.5584 25.3952 5.9392-30.1056-3.4816-61.8496-25.3952-83.5584-21.7088-21.9136-53.248-31.3344-83.5584-25.3952z" fill="#1C1D21" p-id="11819"></path><path d="M327.8848 455.2704c-2.6624 0-5.3248-1.024-7.168-3.072L274.0224 405.504c-4.096-4.096-4.096-10.4448 0-14.5408s10.4448-4.096 14.5408 0l46.6944 46.6944c4.096 4.096 4.096 10.4448 0 14.5408-2.048 2.048-4.7104 3.072-7.3728 3.072zM257.024 384.4096c-2.6624 0-5.3248-1.024-7.168-3.072l-6.3488-6.3488c-4.096-4.096-4.096-10.4448 0-14.5408s10.4448-4.096 14.5408 0l6.3488 6.3488c4.096 4.096 4.096 10.4448 0 14.5408-2.2528 2.048-4.7104 3.072-7.3728 3.072z" fill="#1C1D21" p-id="11820"></path><path d="M611.328 270.9504V378.88c-61.8496 35.4304-138.0352 35.4304-199.8848 0v-108.1344h199.8848z" fill="#AAADAD" p-id="11821"></path><path d="M454.0416 407.3472c-5.7344 0-10.24-4.5056-10.24-10.24v-126.3616c0-5.7344 4.5056-10.24 10.24-10.24s10.24 4.5056 10.24 10.24v126.3616c0 5.7344-4.7104 10.24-10.24 10.24z" fill="#E0E0E0" p-id="11822"></path><path d="M163.0208 872.448c90.3168 87.4496 213.4016 141.312 348.9792 141.312s258.6624-53.8624 348.9792-141.312H163.0208z" fill="#0ABFB2" p-id="11823"></path><path d="M512 1024c-133.7344 0-260.096-51.2-356.1472-144.1792-3.072-2.8672-3.8912-7.3728-2.4576-11.264 1.6384-3.8912 5.3248-6.3488 9.4208-6.3488h697.9584c4.096 0 7.9872 2.4576 9.4208 6.3488 1.6384 3.8912 0.6144 8.3968-2.4576 11.264C772.096 972.8 645.7344 1024 512 1024zM189.2352 882.688c89.4976 78.0288 203.1616 120.832 322.7648 120.832s233.2672-42.8032 322.7648-120.832H189.2352zM667.2384 366.1824c-5.7344 0-10.24-4.5056-10.24-10.24v-81.1008c0-5.7344 4.5056-10.24 10.24-10.24s10.24 4.5056 10.24 10.24v81.1008c0 5.5296-4.7104 10.24-10.24 10.24z" fill="#1C1D21" p-id="11824"></path><path d="M280.7808 570.5728l-63.488 151.1424c-3.072 7.3728-11.4688 10.6496-18.8416 7.5776l-16.384-6.9632c-7.3728-3.072-10.6496-11.4688-7.5776-18.8416l63.488-151.1424c3.072-7.3728 11.4688-10.6496 18.8416-7.5776l16.384 6.9632c7.3728 3.2768 10.6496 11.6736 7.5776 18.8416z" fill="#FF8939" p-id="11825"></path><path d="M230.8096 700.2112c-1.2288 0-2.6624-0.2048-3.8912-0.8192l-42.8032-18.0224c-5.12-2.2528-7.5776-8.192-5.5296-13.312 2.2528-5.12 8.192-7.5776 13.312-5.5296l42.8032 18.0224c5.12 2.2528 7.5776 8.192 5.5296 13.312-1.6384 3.8912-5.5296 6.3488-9.4208 6.3488zM249.0368 656.384c-1.2288 0-2.6624-0.2048-3.8912-0.8192l-42.8032-18.0224c-5.12-2.2528-7.5776-8.192-5.5296-13.312 2.2528-5.12 8.192-7.5776 13.312-5.5296l42.8032 18.0224c5.12 2.2528 7.5776 8.192 5.5296 13.312-1.6384 4.096-5.3248 6.3488-9.4208 6.3488zM267.4688 612.5568c-1.2288 0-2.6624-0.2048-3.8912-0.8192l-42.8032-18.0224c-5.12-2.2528-7.5776-8.192-5.5296-13.312 2.2528-5.12 8.192-7.5776 13.312-5.5296l42.8032 18.0224c5.12 2.2528 7.5776 8.192 5.5296 13.312-1.6384 4.096-5.3248 6.3488-9.4208 6.3488z" fill="#FFC5B3" p-id="11826"></path><path d="M204.1856 740.7616c-3.2768 0-6.5536-0.6144-9.4208-1.8432l-16.384-6.9632c-12.4928-5.3248-18.432-19.6608-13.1072-32.1536l63.488-151.1424c2.4576-6.144 7.3728-10.6496 13.312-13.312 6.144-2.4576 12.6976-2.4576 18.8416 0l16.384 6.9632c12.4928 5.3248 18.432 19.6608 13.1072 32.1536l-63.488 151.1424c-2.4576 6.144-7.3728 10.6496-13.312 13.312-3.072 1.2288-6.3488 1.8432-9.4208 1.8432z m47.104-186.5728c-0.6144 0-1.2288 0.2048-1.6384 0.2048-0.6144 0.2048-1.6384 0.8192-2.2528 2.2528l-63.488 151.1424c-0.8192 2.048 0.2048 4.5056 2.2528 5.3248l16.384 6.9632c1.4336 0.6144 2.4576 0.2048 3.072 0 0.6144-0.2048 1.6384-0.8192 2.2528-2.2528l63.488-151.1424c0.8192-2.048-0.2048-4.5056-2.2528-5.3248l-16.384-6.9632c-0.4096-0.2048-1.024-0.2048-1.4336-0.2048z m29.4912 16.384z" fill="#1C1D21" p-id="11827"></path><path d="M752.8448 761.0368m-111.4112 0a111.4112 111.4112 0 1 0 222.8224 0 111.4112 111.4112 0 1 0-222.8224 0Z" fill="#D66112" p-id="11828"></path><path d="M694.0672 813.4656c0-61.44 49.7664-111.4112 111.4112-111.4112 17.2032 0 33.3824 3.8912 47.9232 10.8544-18.0224-37.4784-56.1152-63.2832-100.5568-63.2832-61.44 0-111.4112 49.7664-111.4112 111.4112 0 44.2368 25.8048 82.5344 63.2832 100.5568-6.7584-14.7456-10.6496-30.9248-10.6496-48.128z" fill="#FF8939" p-id="11829"></path><path d="M759.808 750.7968h-13.7216c-0.8192 0-1.2288-0.6144-1.2288-1.2288v-16.1792c0-0.8192 0.6144-1.2288 1.2288-1.2288h25.3952c5.5296 0 10.24-4.5056 10.24-10.24 0-5.5296-4.5056-10.24-10.24-10.24h-8.6016V694.272c0-4.3008-3.4816-7.7824-7.7824-7.7824s-7.7824 3.4816-7.7824 7.7824v17.408h-1.2288c-11.8784 0-21.7088 9.8304-21.7088 21.7088v16.1792c0 11.8784 9.8304 21.7088 21.7088 21.7088h13.7216c0.8192 0 1.2288 0.6144 1.2288 1.2288v16.1792c0 0.8192-0.6144 1.2288-1.2288 1.2288h-25.3952c-5.5296 0-10.24 4.5056-10.24 10.24 0 5.5296 4.5056 10.24 10.24 10.24h12.6976v17.408c0 4.3008 3.4816 7.7824 7.7824 7.7824s7.7824-3.4816 7.7824-7.7824v-17.6128c10.6496-1.4336 18.8416-10.4448 18.8416-21.504v-16.1792c0-12.0832-9.8304-21.7088-21.7088-21.7088z" fill="#FFF0CC" p-id="11830"></path><path d="M752.8448 882.4832c-66.9696 0-121.6512-54.4768-121.6512-121.6512s54.4768-121.6512 121.6512-121.6512 121.6512 54.4768 121.6512 121.6512-54.4768 121.6512-121.6512 121.6512z m0-222.6176c-55.7056 0-101.1712 45.4656-101.1712 101.1712s45.4656 101.1712 101.1712 101.1712 101.1712-45.4656 101.1712-101.1712-45.4656-101.1712-101.1712-101.1712zM511.3856 415.744c-36.2496 0-72.704-9.216-105.0624-27.8528-3.2768-1.8432-5.12-5.12-5.12-8.8064v-108.1344c0-5.7344 4.5056-10.24 10.24-10.24h199.8848c5.7344 0 10.24 4.5056 10.24 10.24V378.88c0 3.6864-2.048 6.9632-5.12 8.8064-32.3584 18.6368-68.8128 28.0576-105.0624 28.0576z m-89.7024-42.8032c55.9104 29.696 123.6992 29.696 179.4048 0v-91.7504h-179.4048v91.7504z" fill="#1C1D21" p-id="11831"></path><path d="M493.7728 182.8864l-136.8064 59.8016c-15.1552 6.5536-15.1552 25.3952 0 31.9488l136.8064 59.8016c11.4688 5.12 25.1904 5.12 36.6592 0l136.8064-59.8016c15.1552-6.5536 15.1552-25.3952 0-31.9488L530.432 182.8864c-11.6736-4.9152-25.1904-4.9152-36.6592 0z" fill="#AAADAD" p-id="11832"></path><path d="M565.248 268.9024h-106.496c-5.7344 0-10.24-4.5056-10.24-10.24s4.5056-10.24 10.24-10.24h106.496c5.7344 0 10.24 4.5056 10.24 10.24s-4.5056 10.24-10.24 10.24zM611.1232 268.9024h-7.168c-5.7344 0-10.24-4.5056-10.24-10.24s4.5056-10.24 10.24-10.24h7.168c5.7344 0 10.24 4.5056 10.24 10.24s-4.5056 10.24-10.24 10.24zM420.0448 268.9024h-7.168c-5.7344 0-10.24-4.5056-10.24-10.24s4.5056-10.24 10.24-10.24h7.168c5.7344 0 10.24 4.5056 10.24 10.24s-4.5056 10.24-10.24 10.24z" fill="#1C1D21" p-id="11833"></path><path d="M512 348.5696c-7.5776 0-15.36-1.6384-22.3232-4.7104l-136.8064-59.8016c-10.8544-4.7104-17.408-14.336-17.408-25.3952 0-10.8544 6.7584-20.6848 17.408-25.3952l136.8064-59.8016c14.336-6.144 30.5152-6.144 44.8512 0l136.8064 59.8016c10.8544 4.7104 17.408 14.336 17.408 25.3952 0 10.8544-6.7584 20.6848-17.408 25.3952L534.528 343.8592c-7.168 3.072-14.9504 4.7104-22.528 4.7104z m-14.1312-156.2624l-136.8064 59.8016c-3.2768 1.4336-5.12 3.8912-5.12 6.5536 0 2.6624 1.8432 5.12 5.12 6.5536l136.8064 59.8016c8.8064 3.8912 19.456 3.8912 28.4672 0l136.8064-59.8016c3.2768-1.4336 5.12-3.8912 5.12-6.5536 0-2.6624-1.8432-5.12-5.12-6.5536L526.336 192.3072c-9.0112-3.8912-19.6608-3.8912-28.4672 0z" fill="#1C1D21" p-id="11834"></path><path d="M426.1888 17.6128c-16.384 19.456-26.2144 44.4416-26.2144 71.68 0 61.44 49.7664 111.4112 111.4112 111.4112 61.44 0 111.4112-49.7664 111.4112-111.4112 0-27.4432-9.8304-52.4288-26.4192-71.8848C568.9344 12.6976 540.672 10.24 512 10.24c-29.2864 0-57.9584 2.4576-85.8112 7.3728z" fill="#D66112" p-id="11835"></path><path d="M426.1888 17.6128c-16.384 19.456-26.2144 44.4416-26.2144 71.68 0 44.2368 25.8048 82.5344 63.2832 100.5568-6.9632-14.5408-10.8544-30.9248-10.8544-47.9232 0-61.44 49.7664-111.4112 111.4112-111.4112 17.2032 0 33.3824 3.8912 47.9232 10.8544-4.096-8.6016-9.4208-16.5888-15.5648-23.9616C568.9344 12.6976 540.672 10.24 512 10.24c-29.2864 0-57.9584 2.4576-85.8112 7.3728z" fill="#FF8939" p-id="11836"></path><path d="M518.3488 79.0528h-13.7216c-0.8192 0-1.2288-0.6144-1.2288-1.2288v-16.1792c0-0.8192 0.6144-1.2288 1.2288-1.2288h25.3952c5.5296 0 10.24-4.5056 10.24-10.24 0-5.5296-4.5056-10.24-10.24-10.24h-8.6016V22.528c0-4.3008-3.4816-7.7824-7.7824-7.7824S505.856 18.2272 505.856 22.528v17.408h-1.2288c-11.8784 0-21.7088 9.8304-21.7088 21.7088V77.824c0 11.8784 9.8304 21.7088 21.7088 21.7088h13.7216c0.8192 0 1.2288 0.6144 1.2288 1.2288v16.1792c0 0.8192-0.6144 1.2288-1.2288 1.2288h-25.3952c-5.5296 0-10.24 4.5056-10.24 10.24 0 5.5296 4.5056 10.24 10.24 10.24h12.6976v17.408c0 4.3008 3.4816 7.7824 7.7824 7.7824s7.7824-3.4816 7.7824-7.7824v-17.6128c10.6496-1.4336 18.8416-10.4448 18.8416-21.504v-16.1792c0-11.8784-9.8304-21.7088-21.7088-21.7088z" fill="#FFF0CC" p-id="11837"></path><path d="M511.3856 210.944c-49.5616 0-93.5936-29.4912-112.4352-75.3664-2.2528-5.3248 0.4096-11.264 5.5296-13.312 5.3248-2.048 11.264 0.4096 13.312 5.5296C433.5616 165.888 470.2208 190.464 511.3856 190.464c55.7056 0 101.1712-45.4656 101.1712-101.1712 0-22.7328-7.5776-44.6464-21.504-62.464-52.6336-8.3968-106.7008-8.3968-159.3344 0.2048-5.12 6.5536-9.4208 13.5168-12.6976 21.0944-2.2528 5.12-8.3968 7.5776-13.5168 5.12-5.12-2.2528-7.5776-8.3968-5.12-13.5168 4.7104-10.4448 10.6496-20.0704 18.0224-28.672 1.6384-1.8432 3.6864-3.072 6.144-3.4816C453.2224 2.4576 482.7136 0 512 0c28.672 0 57.7536 2.4576 86.016 7.168 2.4576 0.4096 4.5056 1.6384 6.144 3.4816 18.6368 21.9136 28.8768 49.7664 28.8768 78.4384 0 67.1744-54.6816 121.856-121.6512 121.856z" fill="#1C1D21" p-id="11838"></path><path d="M400.5888 110.1824c-5.12 0-9.6256-3.8912-10.24-9.216-0.4096-3.8912-0.6144-7.7824-0.6144-11.6736 0-5.7344 4.5056-10.24 10.24-10.24s10.24 4.5056 10.24 10.24c0 3.2768 0.2048 6.5536 0.4096 9.6256 0.6144 5.5296-3.6864 10.6496-9.216 11.264h-0.8192z" fill="#1C1D21" p-id="11839"></path></svg>