<svg xmlns="http://www.w3.org/2000/svg" viewBox="0 0 1024 1024" version="1.1"><path d="M512 512m-501.76 0a501.76 501.76 0 1 0 1003.52 0 501.76 501.76 0 1 0-1003.52 0Z" fill="#8CEEF9" p-id="9343"></path><path d="M512 1024c-136.8064 0-265.4208-53.248-362.0864-149.9136C53.248 777.4208 0 648.8064 0 512S53.248 246.5792 149.9136 149.9136C246.5792 53.248 375.1936 0 512 0s265.4208 53.248 362.0864 149.9136C970.752 246.5792 1024 375.1936 1024 512s-53.248 265.4208-149.9136 362.0864C777.4208 970.752 648.8064 1024 512 1024z m0-1003.52C241.0496 20.48 20.48 241.0496 20.48 512s220.5696 491.52 491.52 491.52 491.52-220.5696 491.52-491.52S782.9504 20.48 512 20.48z" fill="#1C1D21" p-id="9344"></path><path d="M797.696 636.928h-571.392c-23.7568 0-43.008 19.2512-43.008 43.008v211.1488c88.064 76.3904 202.9568 122.6752 328.704 122.6752s240.64-46.2848 328.704-122.6752V679.936c0-23.7568-19.2512-43.008-43.008-43.008z" fill="#C67552" p-id="9345"></path><path d="M512 1024c-123.2896 0-242.4832-44.4416-335.4624-125.1328-2.2528-1.8432-3.4816-4.7104-3.4816-7.7824v-117.5552c0-5.7344 4.5056-10.24 10.24-10.24s10.24 4.5056 10.24 10.24v113.0496C282.2144 961.9456 395.264 1003.52 512 1003.52s229.7856-41.5744 318.464-117.1456V679.936c0-18.0224-14.7456-32.768-32.768-32.768h-571.392c-18.0224 0-32.768 14.7456-32.768 32.768v10.24c0 5.7344-4.5056 10.24-10.24 10.24s-10.24-4.5056-10.24-10.24v-10.24c0-29.2864 23.9616-53.248 53.248-53.248h571.392c29.2864 0 53.248 23.9616 53.248 53.248v211.1488c0 2.8672-1.2288 5.7344-3.4816 7.7824C754.4832 979.5584 635.2896 1024 512 1024z" fill="#1C1D21" p-id="9346"></path><path d="M183.296 744.8576c-5.7344 0-10.24-4.5056-10.24-10.24v-8.192c0-5.7344 4.5056-10.24 10.24-10.24s10.24 4.5056 10.24 10.24v8.192c0 5.5296-4.5056 10.24-10.24 10.24z" fill="#1C1D21" p-id="9347"></path><path d="M224.256 700.416c-5.7344 0-10.24-4.5056-10.24-10.24v-10.24c0-5.7344 4.5056-10.24 10.24-10.24s10.24 4.5056 10.24 10.24v10.24c0 5.7344-4.5056 10.24-10.24 10.24zM224.256 882.2784c-5.7344 0-10.24-4.5056-10.24-10.24v-125.952c0-5.7344 4.5056-10.24 10.24-10.24s10.24 4.5056 10.24 10.24v125.952c0 5.5296-4.5056 10.24-10.24 10.24z" fill="#FFA364" p-id="9348"></path><path d="M797.696 636.928h-78.0288c23.7568 0 43.008 19.2512 43.008 43.008v266.6496c27.8528-15.9744 53.8624-34.816 78.0288-55.7056V679.936c0-23.7568-19.2512-43.008-43.008-43.008z" fill="#AA4D2D" p-id="9349"></path><path d="M762.6752 957.0304c-1.8432 0-3.4816-0.4096-5.12-1.4336-3.072-1.8432-5.12-5.12-5.12-8.8064V679.936c0-18.0224-14.7456-32.768-32.768-32.768-5.7344 0-10.24-4.5056-10.24-10.24s4.5056-10.24 10.24-10.24h78.0288c29.2864 0 53.248 23.9616 53.248 53.248v211.1488c0 2.8672-1.2288 5.7344-3.4816 7.7824-24.576 21.2992-51.4048 40.3456-79.6672 56.7296-1.6384 1.024-3.4816 1.4336-5.12 1.4336z m-1.2288-309.8624c7.168 9.0112 11.264 20.48 11.264 32.768v248.6272c20.2752-12.6976 39.5264-26.8288 57.5488-42.1888V679.936c0-18.0224-14.7456-32.768-32.768-32.768h-36.0448z m79.2576 243.9168z" fill="#1C1D21" p-id="9350"></path><path d="M512 1013.76c6.7584 0 13.5168-0.2048 20.0704-0.4096v-111.8208c0-11.264-9.216-20.48-20.48-20.48h-100.5568c-11.264 0-20.48 9.216-20.48 20.48v97.4848c38.912 9.6256 79.6672 14.7456 121.4464 14.7456z" fill="#AA4D2D" p-id="9351"></path><path d="M512 1024c-41.7792 0-83.5584-5.12-123.904-15.1552-4.5056-1.2288-7.7824-5.3248-7.7824-10.0352v-97.4848c0-16.9984 13.7216-30.72 30.72-30.72h100.5568c16.9984 0 30.72 13.7216 30.72 30.72v111.8208c0 5.5296-4.3008 10.0352-9.8304 10.24-7.3728 0.4096-14.1312 0.6144-20.48 0.6144z m-111.2064-33.1776c36.2496 8.3968 73.728 12.6976 111.2064 12.6976 3.2768 0 6.5536 0 9.8304-0.2048v-101.9904c0-5.7344-4.5056-10.24-10.24-10.24h-100.5568c-5.7344 0-10.24 4.5056-10.24 10.24v89.4976z" fill="#1C1D21" p-id="9352"></path><path d="M369.8688 636.928h-118.784l29.9008-363.52c0.4096-5.3248 4.9152-9.4208 10.24-9.4208H329.728c5.3248 0 9.8304 4.096 10.24 9.4208L369.8688 636.928zM555.008 636.928h-118.784l29.9008-363.52c0.4096-5.3248 4.9152-9.4208 10.24-9.4208h38.5024c5.3248 0 9.8304 4.096 10.24 9.4208L555.008 636.928zM740.1472 636.928h-118.784L651.264 273.6128c0.4096-5.3248 4.9152-9.4208 10.24-9.4208h38.5024c5.3248 0 9.8304 4.096 10.24 9.4208L740.1472 636.928z" fill="#FFECE9" p-id="9353"></path><path d="M369.8688 647.168h-118.784c-2.8672 0-5.5296-1.2288-7.5776-3.2768-1.8432-2.048-2.8672-4.9152-2.6624-7.7824l29.9008-363.52c0.8192-10.4448 9.8304-18.8416 20.48-18.8416H329.728c10.6496 0 19.456 8.192 20.48 18.8416l29.9008 363.52c0.2048 2.8672-0.8192 5.7344-2.6624 7.7824-1.8432 2.2528-4.7104 3.2768-7.5776 3.2768z m-107.52-20.48h96.4608L329.728 274.432h-38.5024l-28.8768 352.256zM555.008 647.168h-118.784c-2.8672 0-5.5296-1.2288-7.5776-3.2768-1.8432-2.048-2.8672-4.9152-2.6624-7.7824l29.9008-363.52c0.8192-10.4448 9.8304-18.8416 20.48-18.8416h38.5024c10.6496 0 19.456 8.192 20.48 18.8416L565.248 636.1088c0.2048 2.8672-0.8192 5.7344-2.6624 7.7824-2.048 2.2528-4.7104 3.2768-7.5776 3.2768z m-107.7248-20.48h96.4608l-29.0816-352.256h-38.5024l-28.8768 352.256z" fill="#1C1D21" p-id="9354"></path><path d="M275.6608 339.968l-6.144 73.728h81.92l-5.9392-73.728zM460.8 339.968l-6.144 73.728h81.92l-6.144-73.728zM645.7344 339.968l-5.9392 73.728h81.92l-6.144-73.728zM263.5776 487.424l-6.144 73.728h106.2912l-6.144-73.728zM448.512 487.424l-5.9392 73.728h106.0864l-5.9392-73.728zM633.6512 487.424l-6.144 73.728h106.2912l-6.144-73.728z" fill="#FF3E63" p-id="9355"></path><path d="M740.1472 647.168h-118.784c-2.8672 0-5.5296-1.2288-7.5776-3.2768-1.8432-2.048-2.8672-4.9152-2.6624-7.7824L641.024 272.7936c0.8192-10.4448 9.8304-18.8416 20.48-18.8416h38.5024c10.6496 0 19.456 8.192 20.48 18.8416l29.9008 363.52c0.2048 2.8672-0.8192 5.7344-2.6624 7.7824-2.048 2.048-4.7104 3.072-7.5776 3.072z m-107.7248-20.48h96.4608l-29.0816-352.256H661.504l-29.0816 352.256zM351.4368 423.936h-81.92c-2.8672 0-5.5296-1.2288-7.5776-3.2768-1.8432-2.048-2.8672-4.9152-2.6624-7.7824l6.144-73.728c0.4096-5.3248 4.9152-9.4208 10.24-9.4208h69.8368c5.3248 0 9.8304 4.096 10.24 9.4208l6.144 73.728c0.2048 2.8672-0.8192 5.7344-2.6624 7.7824-2.048 2.048-4.9152 3.2768-7.7824 3.2768zM280.576 403.456h59.8016l-4.3008-53.248h-50.9952l-4.5056 53.248zM536.576 423.936h-81.92c-2.8672 0-5.5296-1.2288-7.5776-3.2768-1.8432-2.048-2.8672-4.9152-2.6624-7.7824l6.144-73.728c0.4096-5.3248 4.9152-9.4208 10.24-9.4208h69.632c5.3248 0 9.8304 4.096 10.24 9.4208l6.144 73.728c0.2048 2.8672-0.8192 5.7344-2.6624 7.7824-2.048 2.048-4.7104 3.2768-7.5776 3.2768z m-70.8608-20.48h59.8016l-4.3008-53.248h-50.9952l-4.5056 53.248z" fill="#1C1D21" p-id="9356"></path><path d="M721.7152 423.936h-81.92c-2.8672 0-5.5296-1.2288-7.5776-3.2768-1.8432-2.048-2.8672-4.9152-2.6624-7.7824l6.144-73.728c0.4096-5.3248 4.9152-9.4208 10.24-9.4208h69.8368c5.3248 0 9.8304 4.096 10.24 9.4208l6.144 73.728c0.2048 2.8672-0.8192 5.7344-2.6624 7.7824-2.2528 2.048-4.9152 3.2768-7.7824 3.2768z m-70.8608-20.48H710.656l-4.3008-53.248H655.36l-4.5056 53.248zM363.7248 571.392h-106.2912c-2.8672 0-5.5296-1.2288-7.5776-3.2768-1.8432-2.048-2.8672-4.9152-2.6624-7.7824l6.144-73.728c0.4096-5.3248 4.9152-9.4208 10.24-9.4208h94.208c5.3248 0 9.8304 4.096 10.24 9.4208l6.144 73.728c0.2048 2.8672-0.8192 5.7344-2.6624 7.7824-2.2528 2.048-4.9152 3.2768-7.7824 3.2768z m-95.232-20.48h83.968l-4.3008-53.248h-75.3664l-4.3008 53.248zM548.6592 571.392H442.368c-2.8672 0-5.5296-1.2288-7.5776-3.2768-1.8432-2.048-2.8672-4.9152-2.6624-7.7824l6.144-73.728c0.4096-5.3248 4.9152-9.4208 10.24-9.4208h94.208c5.3248 0 9.8304 4.096 10.24 9.4208l6.144 73.728c0.2048 2.8672-0.8192 5.7344-2.6624 7.7824-2.048 2.048-4.9152 3.2768-7.7824 3.2768z m-95.0272-20.48h83.968l-4.3008-53.248h-75.3664l-4.3008 53.248zM733.7984 571.392h-106.2912c-2.8672 0-5.5296-1.2288-7.5776-3.2768-1.8432-2.048-2.8672-4.9152-2.6624-7.7824l6.144-73.728c0.4096-5.3248 4.9152-9.4208 10.24-9.4208h94.208c5.3248 0 9.8304 4.096 10.24 9.4208l6.144 73.728c0.2048 2.8672-0.8192 5.7344-2.6624 7.7824-2.2528 2.048-4.9152 3.2768-7.7824 3.2768z m-95.232-20.48h83.968l-4.3008-53.248H643.072l-4.5056 53.248z" fill="#1C1D21" p-id="9357"></path><path d="M346.5216 787.0464h-76.3904c-5.7344 0-10.24-4.5056-10.24-10.24V700.416c0-5.7344 4.5056-10.24 10.24-10.24h76.3904c5.7344 0 10.24 4.5056 10.24 10.24v76.3904c0 5.7344-4.7104 10.24-10.24 10.24z" fill="#8CEEF9" p-id="9358"></path><path d="M269.9264 787.0464c-5.7344 0-10.24-4.5056-10.24-10.24V700.416c0-5.7344 4.5056-10.24 10.24-10.24h76.3904c5.7344 0 10.24 4.5056 10.24 10.24l-86.6304 86.6304z" fill="#FFECE9" p-id="9359"></path><path d="M499.5072 787.0464h-76.3904c-5.7344 0-10.24-4.5056-10.24-10.24V700.416c0-5.7344 4.5056-10.24 10.24-10.24h76.3904c5.7344 0 10.24 4.5056 10.24 10.24v76.3904c0 5.7344-4.5056 10.24-10.24 10.24z" fill="#8CEEF9" p-id="9360"></path><path d="M423.1168 787.0464c-5.7344 0-10.24-4.5056-10.24-10.24V700.416c0-5.7344 4.5056-10.24 10.24-10.24h76.3904c5.7344 0 10.24 4.5056 10.24 10.24l-86.6304 86.6304z" fill="#FFECE9" p-id="9361"></path><path d="M652.6976 787.0464h-76.3904c-5.7344 0-10.24-4.5056-10.24-10.24V700.416c0-5.7344 4.5056-10.24 10.24-10.24h76.3904c5.7344 0 10.24 4.5056 10.24 10.24v76.3904c0 5.7344-4.5056 10.24-10.24 10.24z" fill="#8CEEF9" p-id="9362"></path><path d="M576.3072 787.0464c-5.7344 0-10.24-4.5056-10.24-10.24V700.416c0-5.7344 4.5056-10.24 10.24-10.24h76.3904c5.7344 0 10.24 4.5056 10.24 10.24l-86.6304 86.6304z" fill="#FFECE9" p-id="9363"></path><path d="M346.5216 797.2864h-76.3904c-11.264 0-20.48-9.216-20.48-20.48V700.416c0-11.264 9.216-20.48 20.48-20.48h76.3904c11.264 0 20.48 9.216 20.48 20.48v76.3904c0 11.4688-9.216 20.48-20.48 20.48zM269.9264 700.416v76.3904h76.3904V700.416h-76.3904zM499.5072 797.2864h-76.3904c-11.264 0-20.48-9.216-20.48-20.48V700.416c0-11.264 9.216-20.48 20.48-20.48h76.3904c11.264 0 20.48 9.216 20.48 20.48v76.3904c0 11.4688-9.0112 20.48-20.48 20.48zM423.1168 700.416v76.3904h76.3904V700.416h-76.3904zM652.6976 797.2864h-76.3904c-11.264 0-20.48-9.216-20.48-20.48V700.416c0-11.264 9.216-20.48 20.48-20.48h76.3904c11.264 0 20.48 9.216 20.48 20.48v76.3904c0 11.4688-9.216 20.48-20.48 20.48zM576.3072 700.416v76.3904h76.3904V700.416h-76.3904z" fill="#1C1D21" p-id="9364"></path><path d="M493.3632 162.816m-36.864 0a36.864 36.864 0 1 0 73.728 0 36.864 36.864 0 1 0-73.728 0Z" fill="#FFECE9" p-id="9365"></path><path d="M310.4768 162.816m-36.864 0a36.864 36.864 0 1 0 73.728 0 36.864 36.864 0 1 0-73.728 0Z" fill="#FFECE9" p-id="9366"></path><path d="M680.7552 162.816m-36.864 0a36.864 36.864 0 1 0 73.728 0 36.864 36.864 0 1 0-73.728 0Z" fill="#FFECE9" p-id="9367"></path><path d="M493.3632 209.92c-26.0096 0-47.104-21.0944-47.104-47.104s21.0944-47.104 47.104-47.104 47.104 21.0944 47.104 47.104-21.0944 47.104-47.104 47.104z m0-73.728c-14.7456 0-26.624 11.8784-26.624 26.624s11.8784 26.624 26.624 26.624 26.624-11.8784 26.624-26.624-11.8784-26.624-26.624-26.624zM310.4768 209.92c-26.0096 0-47.104-21.0944-47.104-47.104s21.0944-47.104 47.104-47.104 47.104 21.0944 47.104 47.104-21.0944 47.104-47.104 47.104z m0-73.728c-14.7456 0-26.624 11.8784-26.624 26.624s11.8784 26.624 26.624 26.624 26.624-11.8784 26.624-26.624-11.8784-26.624-26.624-26.624zM680.7552 209.92c-26.0096 0-47.104-21.0944-47.104-47.104s21.0944-47.104 47.104-47.104 47.104 21.0944 47.104 47.104-21.2992 47.104-47.104 47.104z m0-73.728c-14.7456 0-26.624 11.8784-26.624 26.624s11.8784 26.624 26.624 26.624 26.624-11.8784 26.624-26.624-12.0832-26.624-26.624-26.624z" fill="#1C1D21" p-id="9368"></path></svg>