<svg xmlns="http://www.w3.org/2000/svg" viewBox="0 0 1024 1024" version="1.1"><path d="M512 512m-501.76 0a501.76 501.76 0 1 0 1003.52 0 501.76 501.76 0 1 0-1003.52 0Z" fill="#8CEEF9" p-id="10439"></path><path d="M485.5808 660.2752h-95.0272l23.9616-290.816c0.4096-4.3008 3.8912-7.5776 8.192-7.5776h30.72c4.3008 0 7.7824 3.2768 8.192 7.5776l23.9616 290.816zM633.4464 660.2752h-95.0272l23.9616-290.816c0.4096-4.3008 3.8912-7.5776 8.192-7.5776h30.72c4.3008 0 7.7824 3.2768 8.192 7.5776l23.9616 290.816z" fill="#FFECE9" p-id="10440"></path><path d="M485.5808 670.5152h-95.0272c-2.8672 0-5.5296-1.2288-7.5776-3.2768s-2.8672-4.9152-2.6624-7.7824l23.9616-290.816c0.8192-9.4208 8.8064-16.9984 18.432-16.9984h30.72c9.4208 0 17.6128 7.3728 18.432 16.9984L495.616 659.456c0.2048 2.8672-0.8192 5.7344-2.6624 7.7824s-4.5056 3.2768-7.3728 3.2768z m-83.968-20.48h72.704l-22.9376-277.7088h-27.0336l-22.7328 277.7088zM633.4464 670.5152h-95.0272c-2.8672 0-5.5296-1.2288-7.5776-3.2768s-2.8672-4.9152-2.6624-7.7824l23.9616-290.816c0.8192-9.4208 8.8064-16.9984 18.432-16.9984h30.72c9.4208 0 17.6128 7.3728 18.432 16.9984l23.9616 290.816c0.2048 2.8672-0.8192 5.7344-2.6624 7.7824s-4.7104 3.2768-7.5776 3.2768z m-83.7632-20.48h72.704l-22.9376-277.7088h-27.0336l-22.7328 277.7088z" fill="#1C1D21" p-id="10441"></path><path d="M409.3952 422.912l-4.9152 59.392h66.1504l-4.9152-59.392zM558.2848 422.912l-4.9152 59.392h66.1504l-4.9152-59.392zM400.384 540.672l-4.9152 58.9824h84.992l-4.9152-58.9824zM548.4544 540.672l-4.9152 58.9824h84.992l-4.9152-58.9824z" fill="#FF3E63" p-id="10442"></path><path d="M470.6304 492.544h-65.9456c-2.8672 0-5.5296-1.2288-7.5776-3.2768s-2.8672-4.9152-2.6624-7.7824l4.9152-59.392c0.4096-5.3248 4.9152-9.4208 10.24-9.4208h56.1152c5.3248 0 9.8304 4.096 10.24 9.4208l4.9152 59.392c0.2048 2.8672-0.8192 5.7344-2.6624 7.7824s-4.9152 3.2768-7.5776 3.2768z m-54.8864-20.48h43.6224l-3.2768-38.912h-37.2736l-3.072 38.912zM619.52 492.544h-65.9456c-2.8672 0-5.5296-1.2288-7.5776-3.2768s-2.8672-4.9152-2.6624-7.7824l4.9152-59.392c0.4096-5.3248 4.9152-9.4208 10.24-9.4208h56.1152c5.3248 0 9.8304 4.096 10.24 9.4208l4.9152 59.392c0.2048 2.8672-0.8192 5.7344-2.6624 7.7824s-4.7104 3.2768-7.5776 3.2768z m-54.8864-20.48H608.256l-3.2768-38.912h-37.2736l-3.072 38.912zM480.4608 609.8944h-84.992c-2.8672 0-5.5296-1.2288-7.5776-3.2768s-2.8672-4.9152-2.6624-7.7824l4.9152-58.9824c0.4096-5.3248 4.9152-9.4208 10.24-9.4208h75.3664c5.3248 0 9.8304 4.096 10.24 9.4208l4.9152 58.9824c0.2048 2.8672-0.8192 5.7344-2.6624 7.7824s-4.9152 3.2768-7.7824 3.2768z m-73.9328-20.48h62.8736l-3.072-38.5024h-56.5248l-3.2768 38.5024zM628.5312 609.8944h-84.992c-2.8672 0-5.5296-1.2288-7.5776-3.2768s-2.8672-4.9152-2.6624-7.7824l4.9152-58.9824c0.4096-5.3248 4.9152-9.4208 10.24-9.4208h75.3664c5.3248 0 9.8304 4.096 10.24 9.4208l4.9152 58.9824c0.2048 2.8672-0.8192 5.7344-2.6624 7.7824s-4.9152 3.2768-7.7824 3.2768z m-73.9328-20.48h62.8736L614.4 550.912h-56.5248l-3.2768 38.5024z" fill="#1C1D21" p-id="10443"></path><path d="M709.632 862.6176v-164.6592c0-20.8896-16.7936-37.6832-37.6832-37.6832H352.0512c-20.8896 0-37.6832 16.7936-37.6832 37.6832v164.6592h395.264z" fill="#C67552" p-id="10444"></path><path d="M709.632 872.8576h-395.264c-5.7344 0-10.24-4.5056-10.24-10.24v-164.6592c0-26.4192 21.504-47.9232 47.9232-47.9232H671.744c26.4192 0 47.9232 21.504 47.9232 47.9232v164.6592c0.2048 5.5296-4.5056 10.24-10.0352 10.24z m-385.024-20.48h374.784v-154.4192c0-15.1552-12.288-27.4432-27.4432-27.4432H352.0512c-15.1552 0-27.4432 12.288-27.4432 27.4432v154.4192z" fill="#1C1D21" p-id="10445"></path><path d="M475.3408 807.1168h-70.8608c-5.7344 0-10.24-4.5056-10.24-10.24v-70.8608c0-5.7344 4.5056-10.24 10.24-10.24h70.8608c5.7344 0 10.24 4.5056 10.24 10.24v70.8608c0 5.7344-4.7104 10.24-10.24 10.24z" fill="#508DEF" p-id="10446"></path><path d="M403.6608 807.1168c-5.3248 0-9.6256-4.3008-9.6256-9.6256v-72.0896c0-5.3248 4.3008-9.6256 9.6256-9.6256h72.0896c5.3248 0 9.6256 4.3008 9.6256 9.6256l-81.7152 81.7152z" fill="#ABD1FF" p-id="10447"></path><path d="M619.7248 807.1168H548.864c-5.7344 0-10.24-4.5056-10.24-10.24v-70.8608c0-5.7344 4.5056-10.24 10.24-10.24h70.8608c5.7344 0 10.24 4.5056 10.24 10.24v70.8608c0 5.7344-4.7104 10.24-10.24 10.24z" fill="#508DEF" p-id="10448"></path><path d="M548.2496 807.1168c-5.3248 0-9.6256-4.3008-9.6256-9.6256v-72.0896c0-5.3248 4.3008-9.6256 9.6256-9.6256h72.0896c5.3248 0 9.6256 4.3008 9.6256 9.6256l-81.7152 81.7152z" fill="#ABD1FF" p-id="10449"></path><path d="M475.3408 817.3568h-70.8608c-11.264 0-20.48-9.216-20.48-20.48v-70.8608c0-11.264 9.216-20.48 20.48-20.48h70.8608c11.264 0 20.48 9.216 20.48 20.48v70.8608c0 11.264-9.216 20.48-20.48 20.48z m-71.0656-91.3408v70.8608h71.0656v-70.8608h-71.0656zM619.7248 817.3568H548.864c-11.264 0-20.48-9.216-20.48-20.48v-70.8608c0-11.264 9.216-20.48 20.48-20.48h70.8608c11.264 0 20.48 9.216 20.48 20.48v70.8608c0 11.264-9.216 20.48-20.48 20.48z m-71.0656-91.3408v70.8608h71.0656v-70.8608h-71.0656z" fill="#1C1D21" p-id="10450"></path><path d="M512 1013.76c140.6976 0 267.8784-57.9584 359.0144-151.1424H152.9856C244.1216 955.8016 371.3024 1013.76 512 1013.76z" fill="#0ABFB2" p-id="10451"></path><path d="M512 1024c-139.0592 0-269.1072-54.8864-366.1824-154.2144-2.8672-2.8672-3.6864-7.3728-2.048-11.0592 1.6384-3.8912 5.3248-6.3488 9.4208-6.3488h717.824c4.096 0 7.7824 2.4576 9.4208 6.3488 1.6384 3.8912 0.8192 8.192-2.048 11.0592-97.28 99.328-227.328 154.2144-366.3872 154.2144zM178.176 872.8576c91.136 84.3776 208.6912 130.6624 333.824 130.6624s242.688-46.2848 333.824-130.6624H178.176z" fill="#1C1D21" p-id="10452"></path><path d="M512 1024c-136.8064 0-265.4208-53.248-362.0864-149.9136C53.248 777.4208 0 648.8064 0 512S53.248 246.5792 149.9136 149.9136C246.5792 53.248 375.1936 0 512 0s265.4208 53.248 362.0864 149.9136C970.752 246.5792 1024 375.1936 1024 512s-53.248 265.4208-149.9136 362.0864C777.4208 970.752 648.8064 1024 512 1024z m0-1003.52C241.0496 20.48 20.48 241.0496 20.48 512s220.5696 491.52 491.52 491.52 491.52-220.5696 491.52-491.52S782.9504 20.48 512 20.48z" fill="#1C1D21" p-id="10453"></path><path d="M272.7936 400.7936l-95.6416-84.7872c-19.8656-17.6128-50.9952-3.4816-50.9952 22.9376v493.3632c8.6016 10.4448 17.6128 20.48 27.2384 30.1056h182.272V540.0576c-0.2048-53.248-23.1424-103.8336-62.8736-139.264z" fill="#AAADAD" p-id="10454"></path><path d="M230.6048 503.3984h51.8144v51.8144h-51.8144z" fill="#508DEF" p-id="10455"></path><path d="M178.9952 503.3984h51.8144v51.8144H178.9952z" fill="#ABD1FF" p-id="10456"></path><path d="M230.6048 555.008h51.8144v51.8144h-51.8144z" fill="#508DEF" p-id="10457"></path><path d="M178.9952 555.008h51.8144v51.8144H178.9952z" fill="#ABD1FF" p-id="10458"></path><path d="M230.6048 606.8224h51.8144v51.8144h-51.8144z" fill="#508DEF" p-id="10459"></path><path d="M178.9952 606.8224h51.8144v51.8144H178.9952z" fill="#ABD1FF" p-id="10460"></path><path d="M230.6048 658.432h51.8144v51.8144h-51.8144z" fill="#508DEF" p-id="10461"></path><path d="M178.9952 658.432h51.8144v51.8144H178.9952z" fill="#ABD1FF" p-id="10462"></path><path d="M204.8 786.432h51.8144v71.68H204.8z" fill="#C67552" p-id="10463"></path><path d="M335.4624 872.8576h-182.272c-2.6624 0-5.3248-1.024-7.3728-3.072-9.6256-10.0352-19.0464-20.2752-27.648-30.72-1.4336-1.8432-2.4576-4.096-2.4576-6.5536v-370.688c0-5.7344 4.5056-10.24 10.24-10.24s10.24 4.5056 10.24 10.24v367.0016c6.7584 7.9872 13.9264 15.9744 21.2992 23.552h167.7312V540.0576c0-50.176-21.504-98.304-59.1872-131.4816l-95.6416-84.7872c-6.144-5.5296-14.336-6.7584-21.9136-3.2768-7.5776 3.4816-12.0832 10.4448-12.0832 18.6368V372.736c0 5.7344-4.5056 10.24-10.24 10.24s-10.24-4.5056-10.24-10.24v-33.5872c0-16.384 9.216-30.72 24.1664-37.2736 14.9504-6.7584 31.744-4.096 44.032 6.7584l95.6416 84.7872c41.984 37.2736 66.1504 90.7264 66.1504 146.8416v322.56c-0.2048 5.3248-4.9152 10.0352-10.4448 10.0352z" fill="#1C1D21" p-id="10464"></path><path d="M125.952 433.152c-5.7344 0-10.24-4.5056-10.24-10.24v-10.24c0-5.7344 4.5056-10.24 10.24-10.24s10.24 4.5056 10.24 10.24v10.24c0 5.7344-4.7104 10.24-10.24 10.24z" fill="#1C1D21" p-id="10465"></path><path d="M179.6096 382.976c-5.7344 0-10.24-4.5056-10.24-10.24v-10.8544c0-5.7344 4.5056-10.24 10.24-10.24s10.24 4.5056 10.24 10.24v10.8544c0 5.7344-4.7104 10.24-10.24 10.24zM179.6096 757.1456c-5.7344 0-10.24-4.5056-10.24-10.24V410.624c0-5.7344 4.5056-10.24 10.24-10.24s10.24 4.5056 10.24 10.24v336.2816c0 5.5296-4.7104 10.24-10.24 10.24z" fill="#E0E0E0" p-id="10466"></path><path d="M282.4192 565.248h-51.8144c-5.7344 0-10.24-4.5056-10.24-10.24v-51.8144c0-5.7344 4.5056-10.24 10.24-10.24h51.8144c5.7344 0 10.24 4.5056 10.24 10.24V555.008c0 5.7344-4.7104 10.24-10.24 10.24z m-41.5744-20.48h31.3344v-31.3344h-31.3344V544.768z" fill="#1C1D21" p-id="10467"></path><path d="M230.6048 565.248H178.9952c-5.7344 0-10.24-4.5056-10.24-10.24v-51.8144c0-5.7344 4.5056-10.24 10.24-10.24h51.8144c5.7344 0 10.24 4.5056 10.24 10.24V555.008c-0.2048 5.7344-4.7104 10.24-10.4448 10.24z m-41.3696-20.48h31.3344v-31.3344H189.2352V544.768z" fill="#1C1D21" p-id="10468"></path><path d="M282.4192 617.0624h-51.8144c-5.7344 0-10.24-4.5056-10.24-10.24V555.008c0-5.7344 4.5056-10.24 10.24-10.24h51.8144c5.7344 0 10.24 4.5056 10.24 10.24v51.8144c0 5.5296-4.7104 10.24-10.24 10.24z m-41.5744-20.48h31.3344V565.248h-31.3344v31.3344z" fill="#1C1D21" p-id="10469"></path><path d="M230.6048 617.0624H178.9952c-5.7344 0-10.24-4.5056-10.24-10.24V555.008c0-5.7344 4.5056-10.24 10.24-10.24h51.8144c5.7344 0 10.24 4.5056 10.24 10.24v51.8144c-0.2048 5.5296-4.7104 10.24-10.4448 10.24z m-41.3696-20.48h31.3344V565.248H189.2352v31.3344z" fill="#1C1D21" p-id="10470"></path><path d="M282.4192 668.672h-51.8144c-5.7344 0-10.24-4.5056-10.24-10.24v-51.8144c0-5.7344 4.5056-10.24 10.24-10.24h51.8144c5.7344 0 10.24 4.5056 10.24 10.24v51.8144c0 5.7344-4.7104 10.24-10.24 10.24z m-41.5744-20.48h31.3344v-31.3344h-31.3344v31.3344z" fill="#1C1D21" p-id="10471"></path><path d="M230.6048 668.672H178.9952c-5.7344 0-10.24-4.5056-10.24-10.24v-51.8144c0-5.7344 4.5056-10.24 10.24-10.24h51.8144c5.7344 0 10.24 4.5056 10.24 10.24v51.8144c-0.2048 5.7344-4.7104 10.24-10.4448 10.24z m-41.3696-20.48h31.3344v-31.3344H189.2352v31.3344z" fill="#1C1D21" p-id="10472"></path><path d="M282.4192 720.4864h-51.8144c-5.7344 0-10.24-4.5056-10.24-10.24v-51.8144c0-5.7344 4.5056-10.24 10.24-10.24h51.8144c5.7344 0 10.24 4.5056 10.24 10.24v51.8144c0 5.5296-4.7104 10.24-10.24 10.24z m-41.5744-20.48h31.3344v-31.3344h-31.3344v31.3344z" fill="#1C1D21" p-id="10473"></path><path d="M230.6048 720.4864H178.9952c-5.7344 0-10.24-4.5056-10.24-10.24v-51.8144c0-5.7344 4.5056-10.24 10.24-10.24h51.8144c5.7344 0 10.24 4.5056 10.24 10.24v51.8144c-0.2048 5.5296-4.7104 10.24-10.4448 10.24z m-41.3696-20.48h31.3344v-31.3344H189.2352v31.3344zM256.6144 868.352H204.8c-5.7344 0-10.24-4.5056-10.24-10.24v-71.68c0-5.7344 4.5056-10.24 10.24-10.24h51.8144c5.7344 0 10.24 4.5056 10.24 10.24v71.68c0 5.7344-4.7104 10.24-10.24 10.24zM215.04 847.872h31.3344v-51.2H215.04v51.2z" fill="#1C1D21" p-id="10474"></path><path d="M279.552 796.672H181.8624c-5.7344 0-10.24-4.5056-10.24-10.24s4.5056-10.24 10.24-10.24h97.6896c5.7344 0 10.24 4.5056 10.24 10.24s-4.5056 10.24-10.24 10.24z" fill="#1C1D21" p-id="10475"></path><path d="M544.1536 254.1568V176.7424c0-6.5536 5.3248-11.8784 11.8784-11.8784h31.5392c10.4448 0 15.7696-12.6976 8.3968-20.0704l-75.5712-75.5712c-4.5056-4.5056-12.0832-4.5056-16.5888 0l-75.776 75.5712c-7.3728 7.3728-2.2528 20.0704 8.3968 20.0704h31.5392c6.5536 0 11.8784 5.3248 11.8784 11.8784v77.6192" fill="#FF3E63" p-id="10476"></path><path d="M544.1536 264.3968c-5.7344 0-10.24-4.5056-10.24-10.24V176.7424c0-12.0832 9.8304-22.1184 22.1184-22.1184h31.5392c0.4096 0 1.024 0 1.4336-1.024 0.4096-1.024-0.2048-1.4336-0.4096-1.6384l-75.5712-75.5712c-0.4096-0.4096-0.8192-0.4096-1.024-0.4096s-0.8192 0-1.024 0.4096l-75.5712 75.5712c-0.2048 0.2048-0.8192 0.8192-0.4096 1.6384 0.4096 1.024 1.024 1.024 1.4336 1.024h31.5392c12.0832 0 22.1184 9.8304 22.1184 22.1184v77.6192c0 5.7344-4.5056 10.24-10.24 10.24s-10.24-4.5056-10.24-10.24V176.7424c0-0.8192-0.6144-1.6384-1.6384-1.6384h-31.5392c-9.0112 0-16.9984-5.3248-20.2752-13.5168-3.4816-8.192-1.6384-17.6128 4.7104-23.9616l75.5712-75.5712c8.6016-8.6016 22.528-8.6016 31.1296 0l75.5712 75.5712c6.3488 6.3488 8.192 15.7696 4.7104 23.9616-3.4816 8.192-11.4688 13.5168-20.2752 13.5168h-31.5392c-0.8192 0-1.6384 0.6144-1.6384 1.6384v77.6192c0 5.5296-4.5056 10.0352-10.24 10.0352zM480.256 305.152c-5.7344 0-10.24-4.5056-10.24-10.24v-9.216c0-5.7344 4.5056-10.24 10.24-10.24s10.24 4.5056 10.24 10.24v9.216c0 5.7344-4.7104 10.24-10.24 10.24zM543.744 305.152c-5.7344 0-10.24-4.5056-10.24-10.24v-9.216c0-5.7344 4.5056-10.24 10.24-10.24s10.24 4.5056 10.24 10.24v9.216c0 5.7344-4.5056 10.24-10.24 10.24z" fill="#1C1D21" p-id="10477"></path><path d="M898.048 832.512V339.1488c0-26.4192-31.3344-40.5504-50.9952-22.9376l-95.6416 84.7872c-39.936 35.2256-62.6688 86.016-62.6688 139.264v322.56h182.272c9.4208-9.8304 18.432-19.8656 27.0336-30.3104z" fill="#AAADAD" p-id="10478"></path><path d="M845.0048 382.976c-5.7344 0-10.24-4.5056-10.24-10.24v-10.8544c0-5.7344 4.5056-10.24 10.24-10.24s10.24 4.5056 10.24 10.24v10.8544c0 5.7344-4.5056 10.24-10.24 10.24zM845.0048 757.1456c-5.7344 0-10.24-4.5056-10.24-10.24V410.624c0-5.7344 4.5056-10.24 10.24-10.24s10.24 4.5056 10.24 10.24v336.2816c0 5.5296-4.5056 10.24-10.24 10.24z" fill="#E0E0E0" p-id="10479"></path><path d="M898.048 509.952c-5.7344 0-10.24-4.5056-10.24-10.24v-8.6016c0-5.7344 4.5056-10.24 10.24-10.24s10.24 4.5056 10.24 10.24v8.6016c0 5.7344-4.5056 10.24-10.24 10.24zM898.048 636.928c-5.7344 0-10.24-4.5056-10.24-10.24v-80.896c0-5.7344 4.5056-10.24 10.24-10.24s10.24 4.5056 10.24 10.24V626.688c0 5.7344-4.5056 10.24-10.24 10.24z" fill="#1C1D21" p-id="10480"></path><path d="M871.0144 872.8576h-182.272c-5.7344 0-10.24-4.5056-10.24-10.24V540.0576c0-56.1152 24.1664-109.568 66.1504-146.8416l95.6416-84.7872c12.288-10.8544 29.0816-13.312 44.032-6.7584 14.9504 6.7584 24.1664 21.0944 24.1664 37.2736V452.608c0 5.7344-4.5056 10.24-10.24 10.24s-10.24-4.5056-10.24-10.24v-113.4592c0-8.192-4.5056-15.36-12.0832-18.6368-7.5776-3.4816-15.7696-2.2528-21.9136 3.2768l-95.6416 84.7872a175.7184 175.7184 0 0 0-59.1872 131.4816v312.32h167.7312c7.3728-7.7824 14.5408-15.5648 21.2992-23.552v-156.672c0-5.7344 4.5056-10.24 10.24-10.24s10.24 4.5056 10.24 10.24v160.5632c0 2.4576-0.8192 4.7104-2.4576 6.5536-8.6016 10.4448-18.0224 20.6848-27.648 30.72-2.2528 1.6384-4.9152 2.8672-7.5776 2.8672z" fill="#1C1D21" p-id="10481"></path><path d="M741.5808 503.3984h51.8144v51.8144h-51.8144z" fill="#ABD1FF" p-id="10482"></path><path d="M793.3952 503.3984h51.8144v51.8144h-51.8144z" fill="#508DEF" p-id="10483"></path><path d="M741.5808 555.008h51.8144v51.8144h-51.8144z" fill="#ABD1FF" p-id="10484"></path><path d="M793.3952 555.008h51.8144v51.8144h-51.8144z" fill="#508DEF" p-id="10485"></path><path d="M741.5808 606.8224h51.8144v51.8144h-51.8144z" fill="#ABD1FF" p-id="10486"></path><path d="M793.3952 606.8224h51.8144v51.8144h-51.8144z" fill="#508DEF" p-id="10487"></path><path d="M741.5808 658.432h51.8144v51.8144h-51.8144z" fill="#ABD1FF" p-id="10488"></path><path d="M793.3952 658.432h51.8144v51.8144h-51.8144z" fill="#508DEF" p-id="10489"></path><path d="M793.3952 565.248h-51.8144c-5.7344 0-10.24-4.5056-10.24-10.24v-51.8144c0-5.7344 4.5056-10.24 10.24-10.24h51.8144c5.7344 0 10.24 4.5056 10.24 10.24V555.008c0 5.7344-4.7104 10.24-10.24 10.24z m-41.5744-20.48h31.3344v-31.3344h-31.3344V544.768z" fill="#1C1D21" p-id="10490"></path><path d="M845.0048 565.248h-51.8144c-5.7344 0-10.24-4.5056-10.24-10.24v-51.8144c0-5.7344 4.5056-10.24 10.24-10.24h51.8144c5.7344 0 10.24 4.5056 10.24 10.24V555.008c0 5.7344-4.5056 10.24-10.24 10.24z m-41.3696-20.48h31.3344v-31.3344h-31.3344V544.768z" fill="#1C1D21" p-id="10491"></path><path d="M793.3952 617.0624h-51.8144c-5.7344 0-10.24-4.5056-10.24-10.24V555.008c0-5.7344 4.5056-10.24 10.24-10.24h51.8144c5.7344 0 10.24 4.5056 10.24 10.24v51.8144c0 5.5296-4.7104 10.24-10.24 10.24z m-41.5744-20.48h31.3344V565.248h-31.3344v31.3344z" fill="#1C1D21" p-id="10492"></path><path d="M845.0048 617.0624h-51.8144c-5.7344 0-10.24-4.5056-10.24-10.24V555.008c0-5.7344 4.5056-10.24 10.24-10.24h51.8144c5.7344 0 10.24 4.5056 10.24 10.24v51.8144c0 5.5296-4.5056 10.24-10.24 10.24z m-41.3696-20.48h31.3344V565.248h-31.3344v31.3344z" fill="#1C1D21" p-id="10493"></path><path d="M793.3952 668.672h-51.8144c-5.7344 0-10.24-4.5056-10.24-10.24v-51.8144c0-5.7344 4.5056-10.24 10.24-10.24h51.8144c5.7344 0 10.24 4.5056 10.24 10.24v51.8144c0 5.7344-4.7104 10.24-10.24 10.24z m-41.5744-20.48h31.3344v-31.3344h-31.3344v31.3344z" fill="#1C1D21" p-id="10494"></path><path d="M845.0048 668.672h-51.8144c-5.7344 0-10.24-4.5056-10.24-10.24v-51.8144c0-5.7344 4.5056-10.24 10.24-10.24h51.8144c5.7344 0 10.24 4.5056 10.24 10.24v51.8144c0 5.7344-4.5056 10.24-10.24 10.24z m-41.3696-20.48h31.3344v-31.3344h-31.3344v31.3344z" fill="#1C1D21" p-id="10495"></path><path d="M793.3952 720.4864h-51.8144c-5.7344 0-10.24-4.5056-10.24-10.24v-51.8144c0-5.7344 4.5056-10.24 10.24-10.24h51.8144c5.7344 0 10.24 4.5056 10.24 10.24v51.8144c0 5.5296-4.7104 10.24-10.24 10.24z m-41.5744-20.48h31.3344v-31.3344h-31.3344v31.3344z" fill="#1C1D21" p-id="10496"></path><path d="M845.0048 720.4864h-51.8144c-5.7344 0-10.24-4.5056-10.24-10.24v-51.8144c0-5.7344 4.5056-10.24 10.24-10.24h51.8144c5.7344 0 10.24 4.5056 10.24 10.24v51.8144c0 5.5296-4.5056 10.24-10.24 10.24z m-41.3696-20.48h31.3344v-31.3344h-31.3344v31.3344z" fill="#1C1D21" p-id="10497"></path><path d="M767.3856 786.432H819.2v71.68h-51.8144z" fill="#C67552" p-id="10498"></path><path d="M819.2 868.352h-51.8144c-5.7344 0-10.24-4.5056-10.24-10.24v-71.68c0-5.7344 4.5056-10.24 10.24-10.24H819.2c5.7344 0 10.24 4.5056 10.24 10.24v71.68c0 5.7344-4.5056 10.24-10.24 10.24z m-41.5744-20.48H808.96v-51.2h-31.3344v51.2z" fill="#1C1D21" p-id="10499"></path><path d="M842.1376 796.672h-97.6896c-5.7344 0-10.24-4.5056-10.24-10.24s4.5056-10.24 10.24-10.24h97.6896c5.7344 0 10.24 4.5056 10.24 10.24s-4.5056 10.24-10.24 10.24z" fill="#1C1D21" p-id="10500"></path></svg>