<svg xmlns="http://www.w3.org/2000/svg" viewBox="0 0 1024 1024" version="1.1"><path d="M512 512m-501.76 0a501.76 501.76 0 1 0 1003.52 0 501.76 501.76 0 1 0-1003.52 0Z" fill="#0ABFB2" p-id="13598"></path><path d="M490.496 673.1776h-171.4176c-32.768 0-59.392-26.624-59.392-59.392s26.624-59.392 59.392-59.392h386.048c32.768 0 59.392 26.624 59.392 59.392s-26.624 59.392-59.392 59.392H649.216" fill="#AAADAD" p-id="13599"></path><path d="M512 1024c-136.8064 0-265.4208-53.248-362.0864-149.9136C53.248 777.4208 0 648.8064 0 512S53.248 246.5792 149.9136 149.9136C246.5792 53.248 375.1936 0 512 0s265.4208 53.248 362.0864 149.9136C970.752 246.5792 1024 375.1936 1024 512s-53.248 265.4208-149.9136 362.0864C777.4208 970.752 648.8064 1024 512 1024z m0-1003.52C241.0496 20.48 20.48 241.0496 20.48 512s220.5696 491.52 491.52 491.52 491.52-220.5696 491.52-491.52S782.9504 20.48 512 20.48z" fill="#1C1D21" p-id="13600"></path><path d="M374.9888 994.7136c43.6224 12.288 89.4976 19.0464 137.0112 19.0464 47.5136 0 93.5936-6.5536 137.0112-19.0464v-321.536H374.9888v321.536z" fill="#AAADAD" p-id="13601"></path><path d="M705.1264 683.4176H649.216c-5.7344 0-10.24-4.5056-10.24-10.24s4.5056-10.24 10.24-10.24h55.9104c27.2384 0 49.152-22.1184 49.152-49.152s-22.1184-49.152-49.152-49.152H318.8736c-27.2384 0-49.152 22.1184-49.152 49.152s22.1184 49.152 49.152 49.152H552.96c5.7344 0 10.24 4.5056 10.24 10.24s-4.5056 10.24-10.24 10.24H318.8736c-38.5024 0-69.632-31.3344-69.632-69.632s31.3344-69.632 69.632-69.632h386.048c38.5024 0 69.632 31.3344 69.632 69.632s-31.1296 69.632-69.4272 69.632z" fill="#1C1D21" p-id="13602"></path><path d="M318.8736 642.4576c-15.7696 0-28.672-12.9024-28.672-28.672s12.9024-28.672 28.672-28.672h71.4752c5.7344 0 10.24 4.5056 10.24 10.24s-4.5056 10.24-10.24 10.24h-71.4752c-4.5056 0-8.192 3.6864-8.192 8.192s3.6864 8.192 8.192 8.192c5.7344 0 10.24 4.5056 10.24 10.24s-4.5056 10.24-10.24 10.24z" fill="#E0E0E0" p-id="13603"></path><path d="M649.6256 727.8592c-5.5296 0-10.24-4.5056-10.24-10.24-0.2048-14.7456-0.2048-29.696-0.4096-44.4416 0-5.7344 4.5056-10.24 10.0352-10.4448 5.5296 0 10.24 4.5056 10.4448 10.0352 0.2048 14.7456 0.4096 29.696 0.4096 44.4416 0 5.9392-4.5056 10.6496-10.24 10.6496zM650.0352 791.3472c-5.5296 0-10.24-4.5056-10.24-10.24l-0.2048-17.2032c0-5.7344 4.5056-10.24 10.24-10.24 5.5296 0 10.24 4.5056 10.24 10.24l0.2048 17.2032c0.2048 5.5296-4.5056 10.0352-10.24 10.24 0.2048 0 0 0 0 0zM512 1024c-47.9232 0-95.4368-6.5536-141.1072-19.6608-4.3008-1.2288-7.3728-5.3248-7.3728-9.8304-0.4096-109.9776 0-218.112 1.2288-321.3312 0-5.5296 4.7104-10.0352 10.24-10.0352h0.2048c5.7344 0 10.24 4.7104 10.0352 10.4448-1.2288 100.7616-1.6384 206.0288-1.2288 313.344 41.5744 11.264 84.7872 16.7936 128.2048 16.7936 43.4176 0 86.6304-5.7344 128.2048-16.7936 0.2048-53.0432 0.2048-102.4 0-150.7328 0-5.7344 4.5056-10.24 10.24-10.24s10.24 4.5056 10.24 10.24c0.2048 50.7904 0.2048 102.6048 0 158.72 0 4.5056-3.072 8.6016-7.3728 9.8304-46.08 12.6976-93.5936 19.2512-141.5168 19.2512z" fill="#1C1D21" p-id="13604"></path><path d="M429.056 954.5728c-5.7344 0-10.24-4.7104-10.24-10.24l0.6144-156.672c0-5.7344 4.5056-10.24 10.24-10.24s10.24 4.7104 10.24 10.24l-0.6144 156.672c0 5.7344-4.7104 10.24-10.24 10.24zM429.6704 739.9424c-5.7344 0-10.24-4.7104-10.24-10.24v-11.8784c0-5.7344 4.5056-10.24 10.24-10.24s10.24 4.7104 10.24 10.24v11.8784c0 5.7344-4.5056 10.24-10.24 10.24z" fill="#E0E0E0" p-id="13605"></path><path d="M600.064 683.4176h-6.7584c-5.7344 0-10.24-4.5056-10.24-10.24s4.5056-10.24 10.24-10.24h6.7584c5.7344 0 10.24 4.5056 10.24 10.24s-4.5056 10.24-10.24 10.24z" fill="#1C1D21" p-id="13606"></path><path d="M684.8512 554.3936H339.1488v-176.9472c0-95.4368 77.4144-172.8512 172.8512-172.8512 95.4368 0 172.8512 77.4144 172.8512 172.8512v176.9472z" fill="#FFC5B3" p-id="13607"></path><path d="M684.8512 564.6336H339.1488c-5.7344 0-10.24-4.5056-10.24-10.24v-176.9472c0-100.9664 82.1248-183.0912 183.0912-183.0912s183.0912 82.1248 183.0912 183.0912v176.9472c0 5.5296-4.5056 10.24-10.24 10.24z m-335.4624-20.48h325.2224v-166.7072c0-89.7024-72.9088-162.6112-162.6112-162.6112s-162.6112 72.9088-162.6112 162.6112v166.7072z" fill="#1C1D21" p-id="13608"></path><path d="M426.5984 301.2608c-2.6624 0-5.3248-1.024-7.3728-3.072-3.8912-4.096-3.8912-10.4448 0-14.5408 2.8672-2.8672 5.9392-5.7344 9.216-8.192 4.3008-3.6864 10.8544-2.8672 14.336 1.4336 3.6864 4.3008 2.8672 10.8544-1.4336 14.336-2.6624 2.2528-5.3248 4.5056-7.7824 6.9632-1.8432 2.2528-4.3008 3.072-6.9632 3.072zM390.5536 513.2288c-5.7344 0-10.24-4.5056-10.24-10.24v-125.5424c0-15.36 2.6624-30.3104 7.7824-44.6464 1.8432-5.3248 7.7824-7.9872 13.1072-6.144 5.3248 1.8432 7.9872 7.7824 6.144 13.1072-4.3008 12.0832-6.5536 24.7808-6.5536 37.6832v125.5424c0 5.7344-4.7104 10.24-10.24 10.24z" fill="#FFECE9" p-id="13609"></path><path d="M448.1024 113.8688v26.8288c0 35.2256 28.672 63.8976 63.8976 63.8976s63.8976-28.672 63.8976-63.8976V113.8688" fill="#FFC5B3" p-id="13610"></path><path d="M512 214.8352c-40.7552 0-74.1376-33.1776-74.1376-74.1376V113.8688c0-5.7344 4.5056-10.24 10.24-10.24h127.5904c5.7344 0 10.24 4.5056 10.24 10.24v26.8288c0.2048 40.96-33.1776 74.1376-73.9328 74.1376z m-53.6576-90.7264v16.5888c0 29.4912 23.9616 53.6576 53.6576 53.6576s53.6576-23.9616 53.6576-53.6576v-16.5888h-107.3152z" fill="#1C1D21" p-id="13611"></path><path d="M521.4208 370.688h-18.8416c-1.024 0-1.8432-0.8192-1.8432-1.8432v-21.9136c0-1.024 0.8192-1.8432 1.8432-1.8432h34.4064c7.5776 0 13.9264-6.144 13.9264-13.9264 0-7.5776-6.144-13.9264-13.9264-13.9264h-11.6736v-23.7568c0-5.7344-4.7104-10.4448-10.4448-10.4448s-10.4448 4.7104-10.4448 10.4448v23.7568h-1.6384c-16.1792 0-29.4912 13.312-29.4912 29.4912V368.64c0 16.1792 13.312 29.4912 29.4912 29.4912h18.8416c1.024 0 1.8432 0.8192 1.8432 1.8432V421.888c0 1.024-0.8192 1.8432-1.8432 1.8432h-34.4064c-7.5776 0-13.9264 6.144-13.9264 13.9264 0 7.5776 6.144 13.9264 13.9264 13.9264h17.408v23.7568c0 5.7344 4.7104 10.4448 10.4448 10.4448s10.4448-4.7104 10.4448-10.4448v-23.9616c14.336-1.8432 25.6-14.336 25.6-29.2864v-21.9136c-0.2048-16.1792-13.5168-29.4912-29.696-29.4912z" fill="#FF8939" p-id="13612"></path><path d="M514.8672 283.4432c5.7344 0 10.4448 4.7104 10.4448 10.4448v23.7568h11.6736c7.5776 0 13.9264 6.144 13.9264 13.9264 0 7.5776-6.144 13.9264-13.9264 13.9264h-34.4064c-1.024 0-1.8432 0.8192-1.8432 1.8432v21.9136c0 1.024 0.8192 1.8432 1.8432 1.8432h18.8416c16.1792 0 29.4912 13.312 29.4912 29.4912v21.9136c0 14.9504-11.264 27.2384-25.6 29.2864v23.9616c0 5.7344-4.7104 10.4448-10.4448 10.4448s-10.4448-4.7104-10.4448-10.4448v-23.7568h-17.408c-7.5776 0-13.9264-6.144-13.9264-13.9264 0-7.5776 6.144-13.9264 13.9264-13.9264h34.4064c1.024 0 1.8432-0.8192 1.8432-1.8432v-21.9136c0-1.024-0.8192-1.8432-1.8432-1.8432h-18.8416c-16.1792 0-29.4912-13.312-29.4912-29.4912v-21.9136c0-16.1792 13.312-29.4912 29.4912-29.4912h1.6384v-23.7568c0-5.7344 4.7104-10.4448 10.6496-10.4448m0-20.48c-16.9984 0-30.9248 13.9264-30.9248 30.9248v6.9632c-18.2272 7.3728-31.1296 25.3952-31.1296 46.2848v21.9136c0 15.5648 7.168 29.2864 18.2272 38.5024-10.8544 5.7344-18.2272 17.2032-18.2272 30.3104 0 17.8176 13.7216 32.5632 31.1296 34.2016v3.2768c0 16.9984 13.9264 30.9248 30.9248 30.9248s30.9248-13.9264 30.9248-30.9248v-9.6256c15.36-8.6016 25.6-25.1904 25.6-43.6224v-21.9136c0-15.5648-7.168-29.2864-18.2272-38.5024 10.8544-5.7344 18.2272-17.2032 18.2272-30.3104 0-15.9744-10.8544-29.2864-25.6-33.1776v-4.3008c0-16.9984-13.9264-30.9248-30.9248-30.9248zM512 158.9248c-5.7344 0-10.24-4.5056-10.24-10.24v-34.816c0-5.7344 4.5056-10.24 10.24-10.24s10.24 4.5056 10.24 10.24v34.816c0 5.7344-4.5056 10.24-10.24 10.24z" fill="#1C1D21" p-id="13613"></path><path d="M430.8992 605.5936h-4.5056c-5.7344 0-10.24-4.5056-10.24-10.24s4.5056-10.24 10.24-10.24h4.5056c5.7344 0 10.24 4.5056 10.24 10.24s-4.7104 10.24-10.24 10.24z" fill="#E0E0E0" p-id="13614"></path><path d="M471.04 1022.3616c-5.7344 0-10.24-4.5056-10.24-10.24V673.1776c0-5.7344 4.5056-10.24 10.24-10.24s10.24 4.5056 10.24 10.24v338.944c0 5.7344-4.5056 10.24-10.24 10.24zM552.96 1022.3616c-5.7344 0-10.24-4.5056-10.24-10.24V673.1776c0-5.7344 4.5056-10.24 10.24-10.24s10.24 4.5056 10.24 10.24v338.944c0 5.7344-4.7104 10.24-10.24 10.24zM786.432 346.5216c-5.7344 0-10.24-4.5056-10.24-10.24v-45.2608c0-5.7344 4.5056-10.24 10.24-10.24s10.24 4.5056 10.24 10.24v45.2608c0 5.7344-4.5056 10.24-10.24 10.24z" fill="#1C1D21" p-id="13615"></path><path d="M808.96 323.9936h-45.056c-5.7344 0-10.24-4.5056-10.24-10.24s4.5056-10.24 10.24-10.24h45.056c5.7344 0 10.24 4.5056 10.24 10.24s-4.5056 10.24-10.24 10.24z" fill="#1C1D21" p-id="13616"></path><path d="M786.432 346.5216c-5.7344 0-10.24-4.5056-10.24-10.24v-45.2608c0-5.7344 4.5056-10.24 10.24-10.24s10.24 4.5056 10.24 10.24v45.2608c0 5.7344-4.5056 10.24-10.24 10.24z" fill="#1C1D21" p-id="13617"></path><path d="M808.96 323.9936h-45.056c-5.7344 0-10.24-4.5056-10.24-10.24s4.5056-10.24 10.24-10.24h45.056c5.7344 0 10.24 4.5056 10.24 10.24s-4.5056 10.24-10.24 10.24zM345.4976 214.6304c-5.7344 0-10.24-4.5056-10.24-10.24v-45.056c0-5.7344 4.5056-10.24 10.24-10.24s10.24 4.5056 10.24 10.24v45.2608c0 5.5296-4.5056 10.0352-10.24 10.0352z" fill="#1C1D21" p-id="13618"></path><path d="M368.0256 192.1024h-45.2608c-5.7344 0-10.24-4.5056-10.24-10.24s4.5056-10.24 10.24-10.24h45.2608c5.7344 0 10.24 4.5056 10.24 10.24s-4.5056 10.24-10.24 10.24zM235.9296 513.2288c-5.7344 0-10.24-4.5056-10.24-10.24v-45.2608c0-5.7344 4.5056-10.24 10.24-10.24s10.24 4.5056 10.24 10.24v45.2608c0 5.7344-4.7104 10.24-10.24 10.24z" fill="#1C1D21" p-id="13619"></path><path d="M258.4576 490.7008h-45.2608c-5.7344 0-10.24-4.5056-10.24-10.24s4.5056-10.24 10.24-10.24h45.2608c5.7344 0 10.24 4.5056 10.24 10.24s-4.5056 10.24-10.24 10.24zM786.432 535.7568c-5.7344 0-10.24-4.5056-10.24-10.24v-45.2608c0-5.7344 4.5056-10.24 10.24-10.24s10.24 4.5056 10.24 10.24v45.2608c0 5.7344-4.5056 10.24-10.24 10.24z" fill="#1C1D21" p-id="13620"></path><path d="M808.96 513.2288h-45.056c-5.7344 0-10.24-4.5056-10.24-10.24s4.5056-10.24 10.24-10.24h45.056c5.7344 0 10.24 4.5056 10.24 10.24s-4.5056 10.24-10.24 10.24z" fill="#1C1D21" p-id="13621"></path></svg>