<svg xmlns="http://www.w3.org/2000/svg" viewBox="0 0 1024 1024" version="1.1"><path d="M512 512m-501.76 0a501.76 501.76 0 1 0 1003.52 0 501.76 501.76 0 1 0-1003.52 0Z" fill="#FFECE9" p-id="9422"></path><path d="M473.4976 920.9856h76.8c11.0592 0 21.504-5.3248 28.0576-14.1312 9.8304-13.5168 15.7696-30.3104 15.7696-48.5376 0-31.5392-17.8176-58.9824-43.8272-72.704-12.9024-6.7584-20.8896-20.48-20.8896-35.0208v-93.7984h-35.4304v93.7984c0 14.5408-7.9872 28.2624-20.8896 35.0208-26.0096 13.7216-43.8272 41.1648-43.8272 72.704 0 18.0224 5.9392 34.816 15.7696 48.5376 6.9632 9.0112 17.408 14.1312 28.4672 14.1312z" fill="#ABD1FF" p-id="9423"></path><path d="M550.5024 785.8176c-12.9024-6.7584-20.8896-20.48-20.8896-35.0208V737.28h-35.4304v13.312c0 14.5408-7.9872 28.2624-20.8896 35.0208-26.0096 13.7216-43.8272 41.1648-43.8272 72.704 0 18.0224 5.9392 34.816 15.7696 48.5376 6.5536 9.0112 16.9984 14.1312 28.0576 14.1312h76.8c11.0592 0 21.504-5.3248 28.0576-14.1312 9.8304-13.5168 15.7696-30.3104 15.7696-48.5376 0.4096-31.3344-17.408-58.7776-43.4176-72.4992z" fill="#508DEF" p-id="9424"></path><path d="M508.3136 821.4528c-2.8672 0-5.7344-1.2288-7.5776-3.4816-3.6864-4.3008-3.2768-10.6496 0.8192-14.5408 1.2288-1.024 2.2528-2.048 3.2768-3.072 3.8912-4.096 10.4448-4.096 14.5408 0 4.096 3.8912 4.096 10.4448 0 14.5408-1.4336 1.4336-2.8672 2.6624-4.3008 4.096-2.048 1.6384-4.5056 2.4576-6.7584 2.4576zM476.7744 890.2656c-3.4816 0-6.7584-1.6384-8.8064-4.9152-5.12-8.192-7.7824-17.408-7.7824-27.0336 0-12.0832 4.3008-23.9616 12.0832-33.1776 3.6864-4.3008 10.0352-4.9152 14.336-1.2288 4.3008 3.6864 4.9152 10.0352 1.2288 14.336-4.7104 5.5296-7.168 12.6976-7.168 20.0704 0 5.7344 1.6384 11.4688 4.5056 16.1792 3.072 4.7104 1.4336 11.0592-3.2768 14.1312-1.4336 1.2288-3.2768 1.6384-5.12 1.6384z" fill="#ABD1FF" p-id="9425"></path><path d="M550.5024 931.2256h-76.8c-14.336 0-27.8528-6.9632-36.2496-18.432-11.6736-15.9744-17.8176-34.816-17.8176-54.4768 0-5.9392 0.6144-11.8784 1.6384-17.6128 1.024-5.5296 6.3488-9.216 12.0832-8.192 5.5296 1.024 9.216 6.3488 8.192 12.0832-0.8192 4.5056-1.2288 9.0112-1.2288 13.7216 0 15.36 4.7104 30.1056 13.7216 42.3936 4.5056 6.3488 11.8784 10.0352 19.8656 10.0352h76.8c7.7824 0 15.1552-3.6864 19.8656-10.0352 9.0112-12.288 13.7216-27.0336 13.7216-42.3936 0-26.8288-14.7456-51.2-38.2976-63.6928-16.1792-8.6016-26.2144-25.3952-26.2144-44.032V747.52h-14.9504v3.072c0 18.6368-10.0352 35.4304-26.2144 44.032-1.6384 0.8192-3.2768 1.8432-4.9152 2.8672-4.7104 3.072-11.0592 1.6384-14.1312-3.072s-1.6384-11.0592 3.072-14.1312l6.144-3.6864c9.4208-5.12 15.36-14.9504 15.36-26.0096V737.28c0-5.7344 4.5056-10.24 10.24-10.24h35.4304c5.7344 0 10.24 4.5056 10.24 10.24v13.312c0 11.0592 5.9392 21.0944 15.36 26.0096 30.3104 16.1792 49.152 47.5136 49.152 81.7152 0 19.6608-6.144 38.5024-17.8176 54.4768-8.3968 11.6736-21.9136 18.432-36.2496 18.432z" fill="#1C1D21" p-id="9426"></path><path d="M442.5728 824.5248c-1.8432 0-3.6864-0.6144-5.5296-1.6384-4.7104-3.072-6.144-9.4208-3.072-14.1312 1.024-1.6384 2.2528-3.2768 3.4816-4.9152 3.2768-4.5056 9.8304-5.5296 14.336-2.2528s5.5296 9.8304 2.2528 14.336c-0.8192 1.2288-1.8432 2.4576-2.6624 3.8912-2.048 3.072-5.5296 4.7104-8.8064 4.7104zM529.6128 747.52h-35.4304c-5.7344 0-10.24-4.5056-10.24-10.24v-80.4864c0-5.7344 4.5056-10.24 10.24-10.24h35.4304c5.7344 0 10.24 4.5056 10.24 10.24V737.28c0 5.7344-4.5056 10.24-10.24 10.24z m-24.9856-20.48h14.9504v-60.0064h-14.9504V727.04z" fill="#1C1D21" p-id="9427"></path><path d="M512 1024c-136.8064 0-265.4208-53.248-362.0864-149.9136C53.248 777.4208 0 648.8064 0 512S53.248 246.5792 149.9136 149.9136C246.5792 53.248 375.1936 0 512 0s265.4208 53.248 362.0864 149.9136C970.752 246.5792 1024 375.1936 1024 512s-53.248 265.4208-149.9136 362.0864C777.4208 970.752 648.8064 1024 512 1024z m0-1003.52C241.0496 20.48 20.48 241.0496 20.48 512s220.5696 491.52 491.52 491.52 491.52-220.5696 491.52-491.52S782.9504 20.48 512 20.48z" fill="#1C1D21" p-id="9428"></path><path d="M512 640.6144c-5.7344 0-10.24-4.5056-10.24-10.24v-181.6576c0-5.7344 4.5056-10.24 10.24-10.24s10.24 4.5056 10.24 10.24v181.6576c0 5.7344-4.5056 10.24-10.24 10.24z" fill="#1C1D21" p-id="9429"></path><path d="M681.5744 465.7152c-32.3584-18.6368-70.2464-21.0944-98.9184-2.8672s-40.7552 52.4288-35.0208 88.2688c32.3584 18.6368 70.2464 21.0944 98.9184 2.8672 28.672-18.432 40.7552-52.6336 35.0208-88.2688z" fill="#0ABFB2" p-id="9430"></path><path d="M512 584.0896c-3.4816 0-6.7584-1.6384-8.6016-4.7104-3.072-4.7104-1.6384-11.0592 3.072-14.1312l168.7552-107.52c4.7104-3.072 11.0592-1.6384 14.1312 3.072s1.6384 11.0592-3.072 14.1312l-168.7552 107.52c-1.6384 1.024-3.6864 1.6384-5.5296 1.6384z" fill="#1C1D21" p-id="9431"></path><path d="M602.112 576.512c-19.6608 0-40.3456-5.5296-59.5968-16.5888-2.6624-1.6384-4.5056-4.3008-4.9152-7.168-6.5536-40.96 8.8064-78.848 39.7312-98.5088 30.72-19.6608 72.704-18.6368 109.3632 2.6624 2.6624 1.6384 4.5056 4.3008 4.9152 7.168 6.5536 40.96-8.8064 78.848-39.7312 98.5088-14.5408 9.216-31.744 13.9264-49.7664 13.9264z m-45.056-31.9488c29.0816 15.1552 60.8256 15.5648 83.968 0.8192 22.7328-14.5408 34.6112-42.1888 31.1296-73.1136-29.0816-15.1552-60.8256-15.5648-83.968-0.8192-22.7328 14.5408-34.4064 42.1888-31.1296 73.1136z" fill="#1C1D21" p-id="9432"></path><path d="M601.088 527.1552c-0.6144 0-1.2288 0-1.8432-0.2048-5.5296-1.024-9.216-6.3488-8.3968-11.8784l11.264-64.3072c1.024-5.5296 6.3488-9.216 11.8784-8.3968 5.5296 1.024 9.216 6.3488 8.3968 11.8784l-11.264 64.3072c-0.8192 5.12-5.12 8.6016-10.0352 8.6016z" fill="#1C1D21" p-id="9433"></path><path d="M667.648 541.9008c-0.8192 0-1.4336 0-2.2528-0.2048l-66.56-14.7456c-5.5296-1.2288-9.0112-6.7584-7.7824-12.288 1.2288-5.5296 6.7584-9.0112 12.288-7.7824l66.56 14.7456c5.5296 1.2288 9.0112 6.7584 7.7824 12.288-1.024 4.7104-5.3248 7.9872-10.0352 7.9872z" fill="#1C1D21" p-id="9434"></path><path d="M342.4256 465.7152c32.3584-18.6368 70.2464-21.0944 98.9184-2.8672s40.7552 52.4288 35.0208 88.2688c-32.3584 18.6368-70.2464 21.0944-98.9184 2.8672-28.672-18.432-40.7552-52.6336-35.0208-88.2688z" fill="#0ABFB2" p-id="9435"></path><path d="M512 584.0896c-1.8432 0-3.6864-0.6144-5.5296-1.6384L337.92 474.9312c-4.7104-3.072-6.144-9.4208-3.072-14.1312 3.072-4.7104 9.4208-6.144 14.1312-3.072l168.7552 107.52c4.7104 3.072 6.144 9.4208 3.072 14.1312-2.048 2.8672-5.5296 4.7104-8.8064 4.7104z" fill="#1C1D21" p-id="9436"></path><path d="M421.888 576.512c-18.0224 0-35.2256-4.7104-49.9712-13.9264-30.9248-19.6608-46.2848-57.5488-39.7312-98.5088 0.4096-3.072 2.2528-5.7344 4.9152-7.168 36.864-21.2992 78.6432-22.3232 109.3632-2.6624 30.9248 19.6608 46.2848 57.5488 39.7312 98.5088-0.4096 3.072-2.2528 5.7344-4.9152 7.168-19.0464 11.0592-39.7312 16.5888-59.392 16.5888z m-70.0416-104.448c-3.2768 30.9248 8.3968 58.5728 31.1296 73.1136 23.1424 14.7456 54.8864 14.336 83.968-0.8192 3.2768-30.9248-8.3968-58.5728-31.1296-73.1136-23.3472-14.5408-55.0912-14.1312-83.968 0.8192z" fill="#1C1D21" p-id="9437"></path><path d="M422.912 527.1552c-4.9152 0-9.216-3.4816-10.0352-8.3968l-11.264-64.3072c-1.024-5.5296 2.6624-10.8544 8.3968-11.8784 5.5296-1.024 10.8544 2.6624 11.8784 8.3968l11.264 64.3072c1.024 5.5296-2.6624 10.8544-8.3968 11.8784h-1.8432z" fill="#1C1D21" p-id="9438"></path><path d="M356.352 541.9008c-4.7104 0-9.0112-3.2768-10.0352-7.9872-1.2288-5.5296 2.2528-11.0592 7.7824-12.288l66.56-14.7456c5.5296-1.2288 11.0592 2.2528 12.288 7.7824 1.2288 5.5296-2.2528 11.0592-7.7824 12.288l-66.56 14.7456c-0.8192 0.2048-1.6384 0.2048-2.2528 0.2048z" fill="#1C1D21" p-id="9439"></path><path d="M535.1424 674.2016h-46.4896c-10.4448 0-18.6368-8.3968-18.6368-18.6368V649.216c0-10.4448 8.3968-18.6368 18.6368-18.6368h46.4896c10.4448 0 18.6368 8.3968 18.6368 18.6368v6.3488c0.2048 10.24-8.192 18.6368-18.6368 18.6368z" fill="#ABD1FF" p-id="9440"></path><path d="M535.1424 684.4416h-46.4896c-15.9744 0-28.8768-12.9024-28.8768-28.8768V649.216c0-15.9744 12.9024-28.8768 28.8768-28.8768h46.4896c15.9744 0 28.8768 12.9024 28.8768 28.8768v6.3488c0.2048 15.7696-12.9024 28.8768-28.8768 28.8768z m-46.2848-43.8272c-4.7104 0-8.3968 3.8912-8.3968 8.3968v6.3488c0 4.7104 3.8912 8.3968 8.3968 8.3968h46.4896c4.7104 0 8.3968-3.8912 8.3968-8.3968v-6.144c0-4.7104-3.8912-8.3968-8.3968-8.3968h-46.4896z" fill="#1C1D21" p-id="9441"></path><path d="M654.1312 226.5088c0-80.6912-67.3792-145.8176-148.8896-141.9264-24.9856 1.2288-48.3328 8.8064-68.4032 21.504-38.2976 23.9616-64.512 65.9456-66.7648 113.664-2.6624 56.7296 27.8528 106.496 73.9328 131.6864 11.6736 6.3488 18.8416 18.6368 18.8416 31.744v43.2128c0 12.6976 10.24 23.1424 23.1424 23.1424h52.4288c12.6976 0 23.1424-10.24 23.1424-23.1424V382.976c0-13.1072 7.168-25.3952 18.6368-31.744 44.032-23.9616 73.9328-70.8608 73.9328-124.7232z" fill="#FF9E5C" p-id="9442"></path><path d="M538.2144 459.5712h-52.4288c-18.432 0-33.3824-14.9504-33.3824-33.3824V382.976c0-9.4208-5.12-18.2272-13.312-22.7328-51.6096-28.2624-82.1248-82.3296-79.2576-141.1072 1.6384-32.9728 13.5168-63.8976 34.6112-89.4976 3.6864-4.3008 10.0352-4.9152 14.336-1.4336 4.3008 3.6864 4.9152 10.0352 1.4336 14.336-18.2272 22.1184-28.672 48.9472-29.9008 77.4144-2.4576 50.9952 23.9616 97.8944 68.608 122.2656 14.9504 8.192 24.1664 23.7568 24.1664 40.7552v43.2128c0 6.9632 5.7344 12.9024 12.9024 12.9024h52.4288c6.9632 0 12.9024-5.7344 12.9024-12.9024V382.976c0-16.9984 9.216-32.5632 23.9616-40.7552 42.3936-23.1424 68.8128-67.584 68.8128-115.9168 0-36.4544-14.5408-70.2464-40.96-95.4368-26.4192-25.1904-60.8256-38.0928-97.4848-36.2496-5.12 0.2048-10.4448 0.8192-15.5648 1.6384-5.5296 1.024-10.8544-2.8672-11.8784-8.3968-1.024-5.5296 2.8672-10.8544 8.3968-11.8784 5.9392-1.024 11.8784-1.6384 18.0224-1.8432 42.1888-2.048 82.1248 12.9024 112.4352 41.984 30.5152 29.0816 47.104 68.1984 47.104 110.1824 0 55.9104-30.5152 107.1104-79.4624 133.9392-8.192 4.5056-13.312 13.1072-13.312 22.7328v43.2128c0 18.432-14.7456 33.3824-33.1776 33.3824z" fill="#1C1D21" p-id="9443"></path><path d="M436.8384 116.1216c-3.4816 0-6.7584-1.6384-8.6016-4.7104-3.072-4.7104-1.6384-11.0592 3.2768-14.1312 5.5296-3.4816 11.4688-6.7584 17.408-9.4208 5.12-2.4576 11.264-0.2048 13.5168 5.12 2.4576 5.12 0.2048 11.264-5.12 13.5168-5.12 2.4576-10.24 5.12-15.1552 8.192-1.6384 1.024-3.4816 1.4336-5.3248 1.4336z" fill="#1C1D21" p-id="9444"></path><path d="M462.848 382.976v43.2128c0 12.6976 10.24 23.1424 23.1424 23.1424h52.4288c12.6976 0 23.1424-10.24 23.1424-23.1424V382.976H462.848z" fill="#AAADAD" p-id="9445"></path><path d="M538.2144 459.5712h-52.4288c-18.432 0-33.3824-14.9504-33.3824-33.3824V382.976c0-5.7344 4.5056-10.24 10.24-10.24H561.152c5.7344 0 10.24 4.5056 10.24 10.24v43.2128c0 18.432-14.7456 33.3824-33.1776 33.3824zM473.088 393.216v32.9728c0 6.9632 5.7344 12.9024 12.9024 12.9024h52.4288c6.9632 0 12.9024-5.7344 12.9024-12.9024V393.216H473.088z" fill="#1C1D21" p-id="9446"></path><path d="M589.6192 204.3904h-6.144c-3.072 0-5.5296-1.8432-6.5536-4.7104-1.024-2.6624-2.048-5.3248-3.2768-7.7824-1.2288-2.6624-0.8192-5.9392 1.2288-7.9872l4.3008-4.3008c2.6624-2.6624 2.6624-7.168 0-9.8304l-14.9504-14.9504c-2.6624-2.6624-7.168-2.6624-9.8304 0l-4.3008 4.3008c-2.048 2.048-5.3248 2.6624-7.9872 1.2288-2.4576-1.2288-5.12-2.2528-7.7824-3.2768-2.8672-1.024-4.7104-3.6864-4.7104-6.5536v-6.144c0-3.8912-3.072-6.9632-6.9632-6.9632h-21.0944c-3.8912 0-6.9632 3.072-6.9632 6.9632v6.144c0 3.072-1.8432 5.5296-4.7104 6.5536-2.6624 1.024-5.3248 2.048-7.7824 3.2768-2.6624 1.2288-5.9392 0.8192-7.9872-1.2288l-4.3008-4.3008c-2.6624-2.6624-7.168-2.6624-9.8304 0l-14.9504 14.9504c-2.6624 2.6624-2.6624 7.168 0 9.8304l4.3008 4.3008c2.048 2.048 2.6624 5.3248 1.2288 7.9872-1.2288 2.4576-2.2528 5.12-3.2768 7.7824-1.024 2.8672-3.6864 4.7104-6.5536 4.7104h-6.144c-3.8912 0-6.9632 3.072-6.9632 6.9632v21.0944c0 3.8912 3.072 6.9632 6.9632 6.9632h6.144c3.072 0 5.5296 1.8432 6.5536 4.7104 1.024 2.6624 2.048 5.3248 3.2768 7.7824 1.2288 2.6624 0.8192 5.9392-1.2288 7.9872l-4.3008 4.3008c-2.6624 2.6624-2.6624 7.168 0 9.8304l14.9504 14.9504c2.6624 2.6624 7.168 2.6624 9.8304 0l4.3008-4.3008c2.048-2.048 5.3248-2.6624 7.9872-1.2288 2.4576 1.2288 5.12 2.2528 7.7824 3.2768 2.8672 1.024 4.7104 3.6864 4.7104 6.5536v6.144c0 3.8912 3.072 6.9632 6.9632 6.9632h21.0944c3.8912 0 6.9632-3.072 6.9632-6.9632v-6.144c0-3.072 1.8432-5.5296 4.7104-6.5536 2.6624-1.024 5.3248-2.048 7.7824-3.2768 2.6624-1.2288 5.9392-0.8192 7.9872 1.2288l4.3008 4.3008c2.6624 2.6624 7.168 2.6624 9.8304 0l14.9504-14.9504c2.6624-2.6624 2.6624-7.168 0-9.8304l-4.3008-4.3008c-2.048-2.048-2.6624-5.3248-1.2288-7.9872 1.2288-2.4576 2.2528-5.12 3.2768-7.7824 1.024-2.8672 3.6864-4.7104 6.5536-4.7104h6.144c3.8912 0 6.9632-3.072 6.9632-6.9632v-21.0944c0-3.8912-3.2768-6.9632-6.9632-6.9632zM512 248.832c-14.9504 0-27.0336-12.0832-27.0336-27.0336 0-14.9504 12.0832-27.0336 27.0336-27.0336 14.9504 0 27.0336 12.0832 27.0336 27.0336 0 14.9504-12.0832 27.0336-27.0336 27.0336z" fill="#AAADAD" p-id="9447"></path><path d="M522.4448 316.6208h-21.0944c-9.4208 0-17.2032-7.7824-17.2032-17.2032v-3.8912c-1.6384-0.6144-3.2768-1.2288-4.7104-2.048l-2.6624 2.6624a17.18272 17.18272 0 0 1-24.3712 0l-14.9504-14.9504a17.18272 17.18272 0 0 1 0-24.3712l2.6624-2.6624c-0.6144-1.6384-1.4336-3.072-2.048-4.7104H434.176c-9.4208 0-17.2032-7.7824-17.2032-17.2032v-21.0944c0-9.4208 7.7824-17.2032 17.2032-17.2032h3.8912c0.6144-1.6384 1.2288-3.2768 2.048-4.7104l-2.6624-2.6624c-3.2768-3.2768-5.12-7.5776-5.12-12.0832s1.8432-9.0112 5.12-12.0832l14.9504-14.9504c6.7584-6.7584 17.6128-6.7584 24.3712 0l2.6624 2.6624c1.6384-0.6144 3.072-1.4336 4.7104-2.048v-3.8912c0-9.4208 7.7824-17.2032 17.2032-17.2032h21.0944c9.4208 0 17.2032 7.7824 17.2032 17.2032v3.8912c1.6384 0.6144 3.2768 1.2288 4.7104 2.048l2.6624-2.6624c6.7584-6.7584 17.6128-6.7584 24.3712 0l14.9504 14.9504c6.7584 6.7584 6.7584 17.6128 0 24.3712l-2.6624 2.6624c0.6144 1.6384 1.4336 3.072 2.048 4.7104h3.8912c9.4208 0 17.2032 7.7824 17.2032 17.2032v21.0944c0 9.4208-7.7824 17.2032-17.2032 17.2032H585.728c-0.6144 1.6384-1.2288 3.2768-2.048 4.7104l2.6624 2.6624c3.2768 3.2768 5.12 7.5776 5.12 12.0832s-1.8432 9.0112-5.12 12.0832l-14.9504 14.9504a17.18272 17.18272 0 0 1-24.3712 0l-2.6624-2.6624c-1.6384 0.6144-3.072 1.4336-4.7104 2.048v3.8912c0 9.4208-7.5776 17.2032-17.2032 17.2032z m-17.6128-20.48h14.5408v-2.8672c0-7.3728 4.7104-13.9264 11.6736-16.1792 2.2528-0.8192 4.5056-1.6384 6.7584-2.8672 6.5536-3.2768 14.5408-2.048 19.8656 3.2768l2.048 2.048 10.24-10.24-2.048-2.048c-5.12-5.12-6.5536-13.1072-3.2768-19.8656 1.024-2.2528 2.048-4.3008 2.8672-6.7584 2.4576-6.9632 9.0112-11.6736 16.1792-11.6736h2.8672v-14.5408H583.68c-7.3728 0-13.9264-4.7104-16.1792-11.6736-0.8192-2.2528-1.6384-4.5056-2.8672-6.7584-3.2768-6.5536-2.048-14.5408 3.2768-19.8656l2.048-2.048-10.24-10.24-2.048 2.048c-5.12 5.12-13.1072 6.5536-19.8656 3.2768-2.2528-1.024-4.3008-2.048-6.7584-2.8672-6.9632-2.4576-11.6736-9.0112-11.6736-16.1792v-2.8672h-14.5408v2.8672c0 7.3728-4.7104 13.9264-11.6736 16.1792-2.2528 0.8192-4.5056 1.6384-6.7584 2.8672-6.5536 3.2768-14.5408 2.048-19.8656-3.2768l-2.048-2.048-10.24 10.24 2.048 2.048c5.12 5.12 6.5536 13.1072 3.2768 19.8656-1.024 2.2528-2.048 4.3008-2.8672 6.7584-2.4576 6.9632-9.0112 11.6736-16.1792 11.6736h-2.8672v14.5408h2.8672c7.3728 0 13.9264 4.7104 16.1792 11.6736 0.8192 2.2528 1.6384 4.5056 2.8672 6.7584 3.2768 6.5536 2.048 14.5408-3.2768 19.8656l-2.048 2.048 10.24 10.24 2.048-2.048c5.12-5.12 13.1072-6.5536 19.8656-3.2768 2.2528 1.024 4.3008 2.048 6.7584 2.8672 6.9632 2.4576 11.6736 9.0112 11.6736 16.1792v2.8672z m84.7872-81.5104z" fill="#1C1D21" p-id="9448"></path><path d="M512 259.072c-20.48 0-37.2736-16.5888-37.2736-37.2736 0-20.48 16.5888-37.2736 37.2736-37.2736 20.48 0 37.2736 16.5888 37.2736 37.2736 0 20.48-16.7936 37.2736-37.2736 37.2736z m0-53.8624c-9.216 0-16.7936 7.5776-16.7936 16.7936 0 9.216 7.5776 16.7936 16.7936 16.7936 9.216 0 16.7936-7.5776 16.7936-16.7936 0-9.4208-7.5776-16.7936-16.7936-16.7936z" fill="#1C1D21" p-id="9449"></path><path d="M221.3888 920.9856c81.92 58.368 182.272 92.7744 290.6112 92.7744 107.52 0 207.2576-33.792 288.9728-91.5456l-289.5872-1.2288H221.3888z" fill="#C67552" p-id="9450"></path><path d="M512 1024c-107.1104 0-209.5104-32.768-296.5504-94.6176-3.6864-2.6624-5.12-7.168-3.8912-11.4688 1.4336-4.3008 5.3248-7.168 9.8304-7.168h289.9968l289.5872 1.2288c4.5056 0 8.3968 2.8672 9.6256 7.168 1.4336 4.3008-0.2048 8.8064-3.8912 11.4688-86.4256 61.0304-188.416 93.3888-294.7072 93.3888z m-256.6144-92.7744C332.5952 978.7392 420.4544 1003.52 512 1003.52c90.7264 0 178.176-24.576 254.976-71.2704l-255.5904-1.024h-256z" fill="#1C1D21" p-id="9451"></path></svg>