<svg xmlns="http://www.w3.org/2000/svg" viewBox="0 0 1024 1024" version="1.1"><path d="M512 512m-501.76 0a501.76 501.76 0 1 0 1003.52 0 501.76 501.76 0 1 0-1003.52 0Z" fill="#8CEEF9" p-id="9141"></path><path d="M553.984 274.8416l-95.6416-84.7872c-19.8656-17.6128-50.9952-3.4816-50.9952 22.9376v481.8944h209.5104V414.1056c-0.2048-53.248-22.9376-103.8336-62.8736-139.264z" fill="#AAADAD" p-id="9142"></path><path d="M512 387.4816h51.8144v51.8144H512z" fill="#508DEF" p-id="9143"></path><path d="M460.1856 387.4816H512v51.8144h-51.8144z" fill="#ABD1FF" p-id="9144"></path><path d="M512 439.296h51.8144v51.8144H512z" fill="#508DEF" p-id="9145"></path><path d="M460.1856 439.296H512v51.8144h-51.8144z" fill="#ABD1FF" p-id="9146"></path><path d="M512 490.9056h51.8144V542.72H512z" fill="#508DEF" p-id="9147"></path><path d="M460.1856 490.9056H512V542.72h-51.8144z" fill="#ABD1FF" p-id="9148"></path><path d="M486.1952 618.9056h51.8144v71.68h-51.8144z" fill="#C67552" p-id="9149"></path><path d="M616.6528 705.3312H407.3472c-5.7344 0-10.24-4.5056-10.24-10.24V335.872c0-5.7344 4.5056-10.24 10.24-10.24s10.24 4.5056 10.24 10.24v348.9792h189.0304V414.1056c0-50.176-21.504-98.304-59.1872-131.4816l-95.6416-84.7872c-6.144-5.5296-14.336-6.7584-21.9136-3.2768-7.5776 3.4816-12.0832 10.4448-12.0832 18.6368v33.5872c0 5.7344-4.5056 10.24-10.24 10.24s-10.24-4.5056-10.24-10.24v-33.5872c0-16.384 9.216-30.72 24.1664-37.2736 14.9504-6.7584 31.744-4.096 44.032 6.7584l95.6416 84.5824c41.984 37.2736 66.1504 90.7264 66.1504 146.8416v280.9856c-0.4096 5.7344-4.9152 10.24-10.6496 10.24z" fill="#1C1D21" p-id="9150"></path><path d="M407.3472 307.2c-5.7344 0-10.24-4.5056-10.24-10.24v-10.24c0-5.7344 4.5056-10.24 10.24-10.24s10.24 4.5056 10.24 10.24v10.24c0 5.7344-4.7104 10.24-10.24 10.24z" fill="#1C1D21" p-id="9151"></path><path d="M460.8 257.024c-5.7344 0-10.24-4.5056-10.24-10.24v-10.8544c0-5.7344 4.5056-10.24 10.24-10.24s10.24 4.5056 10.24 10.24v10.8544c0 5.7344-4.5056 10.24-10.24 10.24zM460.8 589.6192c-5.7344 0-10.24-4.5056-10.24-10.24V284.672c0-5.7344 4.5056-10.24 10.24-10.24s10.24 4.5056 10.24 10.24v294.7072c0 5.7344-4.5056 10.24-10.24 10.24z" fill="#E0E0E0" p-id="9152"></path><path d="M563.8144 449.536H512c-5.7344 0-10.24-4.5056-10.24-10.24v-51.8144c0-5.7344 4.5056-10.24 10.24-10.24h51.8144c5.7344 0 10.24 4.5056 10.24 10.24v51.8144c0 5.7344-4.7104 10.24-10.24 10.24z m-41.5744-20.48h31.3344v-31.3344H522.24v31.3344z" fill="#1C1D21" p-id="9153"></path><path d="M512 449.536h-51.8144c-5.7344 0-10.24-4.5056-10.24-10.24v-51.8144c0-5.7344 4.5056-10.24 10.24-10.24H512c5.7344 0 10.24 4.5056 10.24 10.24v51.8144c0 5.7344-4.5056 10.24-10.24 10.24z m-41.3696-20.48H501.76v-31.3344h-31.3344v31.3344z" fill="#1C1D21" p-id="9154"></path><path d="M563.8144 501.1456H512c-5.7344 0-10.24-4.5056-10.24-10.24v-51.8144c0-5.7344 4.5056-10.24 10.24-10.24h51.8144c5.7344 0 10.24 4.5056 10.24 10.24v51.8144c0 5.7344-4.7104 10.24-10.24 10.24z m-41.5744-20.48h31.3344v-31.3344H522.24v31.3344z" fill="#1C1D21" p-id="9155"></path><path d="M512 501.1456h-51.8144c-5.7344 0-10.24-4.5056-10.24-10.24v-51.8144c0-5.7344 4.5056-10.24 10.24-10.24H512c5.7344 0 10.24 4.5056 10.24 10.24v51.8144c0 5.7344-4.5056 10.24-10.24 10.24z m-41.3696-20.48H501.76v-31.3344h-31.3344v31.3344z" fill="#1C1D21" p-id="9156"></path><path d="M563.8144 552.96H512c-5.7344 0-10.24-4.5056-10.24-10.24v-51.8144c0-5.7344 4.5056-10.24 10.24-10.24h51.8144c5.7344 0 10.24 4.5056 10.24 10.24V542.72c0 5.7344-4.7104 10.24-10.24 10.24zM522.24 532.48h31.3344v-31.3344H522.24V532.48z" fill="#1C1D21" p-id="9157"></path><path d="M512 552.96h-51.8144c-5.7344 0-10.24-4.5056-10.24-10.24v-51.8144c0-5.7344 4.5056-10.24 10.24-10.24H512c5.7344 0 10.24 4.5056 10.24 10.24V542.72c0 5.7344-4.5056 10.24-10.24 10.24z m-41.3696-20.48H501.76v-31.3344h-31.3344V532.48zM537.8048 700.8256h-51.8144c-5.7344 0-10.24-4.5056-10.24-10.24v-71.68c0-5.7344 4.5056-10.24 10.24-10.24h51.8144c5.7344 0 10.24 4.5056 10.24 10.24v71.68c0 5.7344-4.5056 10.24-10.24 10.24z m-41.3696-20.48h31.3344v-51.2h-31.3344v51.2z" fill="#1C1D21" p-id="9158"></path><path d="M560.9472 629.1456h-97.6896c-5.7344 0-10.24-4.5056-10.24-10.24s4.5056-10.24 10.24-10.24h97.6896c5.7344 0 10.24 4.5056 10.24 10.24s-4.7104 10.24-10.24 10.24z" fill="#1C1D21" p-id="9159"></path><path d="M684.2368 531.456l-44.032-38.912c-9.0112-7.9872-23.552-1.6384-23.552 10.6496v275.6608h96.256v-183.5008c0-24.3712-10.4448-47.7184-28.672-63.8976z" fill="#AAADAD" p-id="9160"></path><path d="M712.9088 789.0944h-96.256c-5.7344 0-10.24-4.5056-10.24-10.24V503.1936c0-9.6256 5.5296-18.2272 14.336-22.1184 8.8064-3.8912 18.8416-2.4576 26.2144 3.8912l44.032 38.912c20.48 18.2272 32.1536 44.2368 32.1536 71.68v183.5008c0 5.3248-4.5056 10.0352-10.24 10.0352z m-86.016-20.48h75.776v-173.2608c0-21.504-9.216-41.984-25.3952-56.32l-44.032-38.912c-1.6384-1.4336-3.2768-1.024-4.096-0.6144-0.8192 0.4096-2.2528 1.4336-2.2528 3.4816v265.6256z" fill="#1C1D21" p-id="9161"></path><path d="M339.7632 531.456l44.032-38.912c9.0112-7.9872 23.552-1.6384 23.552 10.6496v275.6608h-96.256v-183.5008c0-24.3712 10.4448-47.7184 28.672-63.8976z" fill="#AAADAD" p-id="9162"></path><path d="M407.3472 789.0944h-96.256c-5.7344 0-10.24-4.5056-10.24-10.24v-183.5008c0-27.4432 11.6736-53.4528 32.1536-71.68l44.032-38.912c7.3728-6.3488 17.2032-7.9872 26.2144-3.8912 8.8064 3.8912 14.336 12.4928 14.336 22.1184v275.6608c0 5.7344-4.7104 10.4448-10.24 10.4448z m-86.016-20.48h75.776V503.1936c0-2.2528-1.4336-3.072-2.2528-3.4816s-2.4576-0.8192-4.096 0.6144l-44.032 38.912c-16.1792 14.336-25.3952 34.816-25.3952 56.32v173.056z" fill="#1C1D21" p-id="9163"></path><path d="M352.0512 617.0624c-5.7344 0-10.24-4.5056-10.24-10.24v-11.4688c0-5.7344 4.5056-10.24 10.24-10.24s10.24 4.5056 10.24 10.24v11.4688c0 5.7344-4.7104 10.24-10.24 10.24zM352.0512 748.1344c-5.7344 0-10.24-4.5056-10.24-10.24v-91.3408c0-5.7344 4.5056-10.24 10.24-10.24s10.24 4.5056 10.24 10.24v91.3408c0 5.5296-4.7104 10.24-10.24 10.24zM671.9488 617.0624c-5.7344 0-10.24-4.5056-10.24-10.24v-11.4688c0-5.7344 4.5056-10.24 10.24-10.24s10.24 4.5056 10.24 10.24v11.4688c0 5.7344-4.5056 10.24-10.24 10.24zM671.9488 748.1344c-5.7344 0-10.24-4.5056-10.24-10.24v-91.3408c0-5.7344 4.5056-10.24 10.24-10.24s10.24 4.5056 10.24 10.24v91.3408c0 5.5296-4.5056 10.24-10.24 10.24z" fill="#E0E0E0" p-id="9164"></path><path d="M115.5072 515.072c14.336 3.8912 30.3104 0.2048 41.5744-11.0592s14.9504-27.2384 11.0592-41.5744c-14.336-3.8912-30.3104-0.2048-41.5744 11.0592s-14.9504 27.2384-11.0592 41.5744zM120.4224 440.5248c13.312-6.5536 23.1424-19.6608 24.1664-35.6352 1.2288-15.9744-6.3488-30.5152-18.6368-38.912-13.312 6.5536-23.1424 19.6608-24.1664 35.6352-1.2288 15.9744 6.3488 30.5152 18.6368 38.912z" fill="#FF8939" p-id="9165"></path><path d="M120.4224 450.7648c-2.048 0-4.096-0.6144-5.7344-1.8432-15.7696-10.6496-24.576-29.0816-23.1424-48.128 1.4336-18.8416 12.9024-35.84 30.1056-44.032 3.2768-1.6384 7.168-1.2288 10.24 0.8192 15.7696 10.6496 24.576 29.0816 23.1424 48.128-1.4336 18.8416-12.9024 35.84-30.1056 44.032-1.4336 0.6144-3.072 1.024-4.5056 1.024z m4.5056-72.2944c-7.5776 5.7344-12.4928 14.336-13.1072 23.9616-0.6144 9.6256 2.8672 18.8416 9.4208 25.6 7.5776-5.7344 12.4928-14.336 13.1072-23.9616 0.8192-9.6256-2.8672-18.8416-9.4208-25.6zM126.5664 526.7456c-4.5056 0-9.216-0.6144-13.7216-1.8432-3.4816-1.024-6.3488-3.6864-7.168-7.168-4.9152-18.432 0.4096-38.0928 13.7216-51.6096 13.312-13.5168 33.1776-18.6368 51.6096-13.7216 3.4816 1.024 6.3488 3.6864 7.168 7.168 4.9152 18.432-0.4096 38.0928-13.7216 51.6096-10.24 10.0352-23.9616 15.5648-37.888 15.5648z m-2.2528-20.48c9.4208 0.6144 18.8416-2.8672 25.6-9.6256 6.7584-6.7584 10.24-16.1792 9.6256-25.6-9.4208-0.6144-18.8416 2.8672-25.6 9.6256-6.7584 6.7584-10.24 16.1792-9.6256 25.6z" fill="#1C1D21" p-id="9166"></path><path d="M112.64 515.072c-14.336 3.8912-30.3104 0.2048-41.5744-11.0592s-14.9504-27.2384-11.0592-41.5744c14.336-3.8912 30.3104-0.2048 41.5744 11.0592 11.0592 11.264 14.7456 27.2384 11.0592 41.5744z" fill="#FF8939" p-id="9167"></path><path d="M101.5808 526.7456c-13.9264 0-27.648-5.5296-37.888-15.5648-13.312-13.312-18.6368-33.1776-13.7216-51.6096 1.024-3.4816 3.6864-6.3488 7.168-7.168 18.432-4.9152 38.0928 0.4096 51.6096 13.7216 13.5168 13.5168 18.6368 33.1776 13.7216 51.6096-1.024 3.4816-3.6864 6.3488-7.168 7.168-4.5056 1.2288-9.216 1.8432-13.7216 1.8432z m11.0592-11.6736zM68.608 471.04c-0.6144 9.4208 2.8672 18.8416 9.6256 25.6 6.7584 6.7584 16.1792 10.24 25.6 9.6256 0.6144-9.4208-2.8672-18.8416-9.6256-25.6-6.7584-6.7584-16.1792-10.24-25.6-9.6256z" fill="#1C1D21" p-id="9168"></path><path d="M125.952 606.6176c14.7456 1.4336 29.9008-4.9152 39.1168-18.0224 9.216-13.1072 10.24-29.4912 3.8912-43.008-14.7456-1.4336-29.9008 4.9152-39.1168 18.0224-9.216 13.1072-10.0352 29.4912-3.8912 43.008z" fill="#FF8939" p-id="9169"></path><path d="M129.8432 617.0624c-1.6384 0-3.2768 0-4.7104-0.2048-3.6864-0.4096-6.7584-2.6624-8.3968-5.9392-7.9872-17.2032-6.144-37.6832 4.9152-53.0432 10.8544-15.5648 29.4912-23.9616 48.3328-22.3232 3.6864 0.4096 6.7584 2.6624 8.3968 5.9392 7.9872 17.2032 6.144 37.6832-4.9152 53.0432-10.0352 14.1312-26.4192 22.528-43.6224 22.528zM161.792 556.032c-9.4208 1.024-18.0224 5.9392-23.552 13.7216-5.5296 7.7824-7.3728 17.6128-5.12 26.8288 9.4208-1.024 18.0224-5.9392 23.552-13.7216 5.5296-7.9872 7.3728-17.8176 5.12-26.8288z" fill="#1C1D21" p-id="9170"></path><path d="M123.0848 607.232c-13.5168 6.144-29.9008 5.3248-43.008-3.8912s-19.456-24.3712-18.0224-39.1168c13.5168-6.144 29.9008-5.3248 43.008 3.8912 13.1072 9.0112 19.456 24.1664 18.0224 39.1168z" fill="#FF8939" p-id="9171"></path><path d="M105.0624 621.3632c-10.8544 0-21.7088-3.2768-30.72-9.8304-15.5648-10.8544-23.9616-29.4912-22.3232-48.3328 0.4096-3.6864 2.6624-6.7584 5.9392-8.3968 17.2032-7.9872 37.6832-6.144 53.0432 4.9152 15.5648 10.8544 23.9616 29.4912 22.3232 48.3328-0.4096 3.6864-2.6624 6.7584-5.9392 8.3968-7.168 3.2768-14.7456 4.9152-22.3232 4.9152z m18.0224-14.1312zM72.2944 571.392c1.024 9.4208 5.9392 18.0224 13.7216 23.552 7.7824 5.5296 17.6128 7.3728 26.8288 5.12-1.024-9.4208-5.9392-18.0224-13.7216-23.552s-17.6128-7.3728-26.8288-5.12z" fill="#1C1D21" p-id="9172"></path><path d="M162.2016 702.6688c14.9504-1.024 28.8768-9.6256 35.84-23.9616 6.9632-14.336 5.3248-30.72-2.8672-43.008-14.9504 1.024-28.8768 9.6256-35.84 23.9616-6.9632 14.336-5.3248 30.72 2.8672 43.008z" fill="#FF8939" p-id="9173"></path><path d="M162.2016 712.9088c-3.4816 0-6.5536-1.6384-8.6016-4.5056-10.6496-15.7696-11.8784-36.2496-3.4816-53.248s25.3952-28.4672 44.2368-29.696c3.6864-0.2048 7.168 1.4336 9.216 4.5056 10.6496 15.7696 11.8784 36.2496 3.4816 53.248s-25.3952 28.4672-44.2368 29.696h-0.6144z m27.4432-65.9456c-9.0112 2.4576-16.7936 8.6016-21.0944 17.2032-4.3008 8.6016-4.5056 18.6368-0.8192 27.2384 9.0112-2.4576 16.7936-8.6016 21.0944-17.2032 4.3008-8.6016 4.5056-18.432 0.8192-27.2384z" fill="#1C1D21" p-id="9174"></path><path d="M159.5392 703.6928c-12.288 8.192-28.672 9.8304-43.008 2.8672s-22.9376-20.8896-23.9616-35.84c12.288-8.192 28.672-9.8304 43.008-2.8672s22.9376 20.8896 23.9616 35.84z" fill="#FF8939" p-id="9175"></path><path d="M135.5776 721.1008c-7.9872 0-16.1792-1.8432-23.552-5.5296-16.9984-8.3968-28.4672-25.3952-29.696-44.2368-0.2048-3.6864 1.4336-7.168 4.5056-9.216 15.7696-10.6496 36.2496-11.8784 53.248-3.4816s28.4672 25.3952 29.696 44.2368c0.2048 3.6864-1.4336 7.168-4.5056 9.216-9.0112 6.144-19.456 9.0112-29.696 9.0112z m-31.744-44.8512c2.4576 9.0112 8.6016 16.7936 17.2032 21.0944 8.6016 4.3008 18.6368 4.5056 27.2384 0.8192-2.4576-9.0112-8.6016-16.7936-17.2032-21.0944-8.6016-4.3008-18.6368-4.5056-27.2384-0.8192z" fill="#1C1D21" p-id="9176"></path><path d="M219.5456 782.1312c13.7216-5.9392 23.9616-18.6368 25.8048-34.6112 1.8432-15.7696-5.12-30.72-16.9984-39.5264-13.7216 5.9392-23.9616 18.6368-25.8048 34.6112-1.8432 15.7696 5.12 30.72 16.9984 39.5264z" fill="#FF8939" p-id="9177"></path><path d="M219.5456 792.3712c-2.2528 0-4.3008-0.6144-6.144-2.048-15.1552-11.4688-23.3472-30.1056-21.0944-48.9472 2.2528-18.8416 14.336-35.2256 31.9488-42.8032 3.2768-1.4336 7.168-1.024 10.24 1.2288 15.1552 11.4688 23.3472 30.1056 21.0944 48.9472s-14.336 35.2256-31.9488 42.8032c-1.2288 0.6144-2.6624 0.8192-4.096 0.8192z m7.168-71.8848c-7.7824 5.3248-13.1072 13.7216-14.1312 23.3472-1.024 9.4208 2.048 19.0464 8.3968 26.0096 7.7824-5.3248 13.1072-13.7216 14.1312-23.3472s-2.048-19.0464-8.3968-26.0096z" fill="#1C1D21" p-id="9178"></path><path d="M217.2928 783.9744c-8.8064 11.8784-23.7568 18.8416-39.5264 16.9984-15.7696-1.8432-28.672-12.0832-34.6112-25.8048 8.8064-11.8784 23.7568-18.8416 39.5264-16.9984 15.9744 1.8432 28.672 12.0832 34.6112 25.8048z" fill="#FF8939" p-id="9179"></path><path d="M182.6816 811.6224c-2.048 0-4.096-0.2048-6.144-0.4096C157.696 808.96 141.312 796.672 133.7344 779.264c-1.4336-3.2768-1.024-7.168 1.2288-10.24 11.4688-15.1552 30.1056-23.3472 48.9472-21.0944 18.8416 2.2528 35.2256 14.336 42.8032 31.9488 1.4336 3.2768 1.024 7.168-1.2288 10.24-10.24 13.5168-26.2144 21.504-42.8032 21.504z m-27.0336-34.816c5.3248 7.7824 13.7216 13.1072 23.3472 14.1312 9.4208 1.2288 19.0464-2.048 26.0096-8.3968-5.3248-7.7824-13.7216-13.1072-23.3472-14.1312-9.6256-1.2288-19.0464 2.048-26.0096 8.3968z" fill="#1C1D21" p-id="9180"></path><path d="M514.6624 922.8288h-6.3488C284.672 919.3472 103.8336 736.4608 103.8336 512c0-26.8288 2.6624-53.6576 7.7824-79.872 1.024-5.5296 6.5536-9.216 12.0832-7.9872 5.5296 1.024 9.216 6.5536 7.9872 12.0832-4.9152 24.7808-7.3728 50.3808-7.3728 75.776 0 214.4256 173.6704 388.9152 387.6864 390.3488 214.016-1.4336 387.6864-175.9232 387.6864-390.3488 0-25.6-2.4576-50.9952-7.3728-75.776-1.024-5.5296 2.4576-10.8544 7.9872-12.0832 5.5296-1.024 10.8544 2.4576 12.0832 7.9872 5.12 26.0096 7.7824 53.0432 7.7824 79.872 0 224.4608-180.8384 407.3472-404.6848 410.8288h-0.8192z" fill="#1C1D21" p-id="9181"></path><path d="M908.4928 515.072c-14.336 3.8912-30.3104 0.2048-41.5744-11.0592s-14.9504-27.2384-11.0592-41.5744c14.336-3.8912 30.3104-0.2048 41.5744 11.0592s14.9504 27.2384 11.0592 41.5744zM903.5776 440.5248c-13.312-6.5536-23.1424-19.6608-24.1664-35.6352-1.2288-15.9744 6.3488-30.5152 18.6368-38.912 13.312 6.5536 23.1424 19.6608 24.1664 35.6352 1.2288 15.9744-6.3488 30.5152-18.6368 38.912z" fill="#FF8939" p-id="9182"></path><path d="M903.5776 450.7648c-1.4336 0-3.072-0.4096-4.5056-1.024-17.2032-8.192-28.672-25.1904-30.1056-44.032-1.4336-18.8416 7.5776-37.2736 23.1424-48.128 3.072-2.048 6.9632-2.2528 10.24-0.8192 17.2032 8.192 28.672 25.1904 30.1056 44.032 1.4336 18.8416-7.3728 37.2736-23.1424 48.128-1.6384 1.2288-3.6864 1.8432-5.7344 1.8432z m-4.5056-72.2944c-6.5536 6.7584-10.24 15.9744-9.4208 25.6 0.6144 9.6256 5.5296 18.2272 13.1072 23.9616 6.5536-6.7584 10.24-15.9744 9.4208-25.6s-5.5296-18.2272-13.1072-23.9616zM897.4336 526.7456c-13.9264 0-27.648-5.5296-37.888-15.5648-13.312-13.312-18.6368-33.1776-13.7216-51.6096 1.024-3.4816 3.6864-6.3488 7.168-7.168 18.432-4.9152 38.0928 0.4096 51.6096 13.7216 13.5168 13.5168 18.6368 33.1776 13.7216 51.6096-1.024 3.4816-3.6864 6.3488-7.168 7.168-4.5056 1.2288-9.216 1.8432-13.7216 1.8432z m11.0592-11.6736zM864.6656 471.04c-0.6144 9.4208 2.8672 18.8416 9.6256 25.6 6.7584 6.7584 16.1792 10.24 25.6 9.6256 0.6144-9.4208-2.8672-18.8416-9.6256-25.6-6.9632-6.7584-16.384-10.24-25.6-9.6256z" fill="#1C1D21" p-id="9183"></path><path d="M911.36 515.072c14.336 3.8912 30.3104 0.2048 41.5744-11.0592s14.9504-27.2384 11.0592-41.5744c-14.336-3.8912-30.3104-0.2048-41.5744 11.0592-11.0592 11.264-14.7456 27.2384-11.0592 41.5744z" fill="#FF8939" p-id="9184"></path><path d="M922.4192 526.7456c-4.5056 0-9.216-0.6144-13.7216-1.8432-3.4816-1.024-6.3488-3.6864-7.168-7.168-4.9152-18.432 0.4096-38.0928 13.7216-51.6096 13.312-13.5168 33.1776-18.6368 51.6096-13.7216 3.4816 1.024 6.3488 3.6864 7.168 7.168 4.9152 18.432-0.4096 38.0928-13.7216 51.6096-10.0352 10.0352-23.7568 15.5648-37.888 15.5648z m-2.048-20.48c9.4208 0.6144 18.8416-2.8672 25.6-9.6256 6.7584-6.7584 10.24-16.1792 9.6256-25.6-9.4208-0.6144-18.8416 2.8672-25.6 9.6256-6.9632 6.7584-10.4448 16.1792-9.6256 25.6z" fill="#1C1D21" p-id="9185"></path><path d="M898.048 606.6176c-14.7456 1.4336-29.9008-4.9152-39.1168-18.0224-9.216-13.1072-10.24-29.4912-3.8912-43.008 14.7456-1.4336 29.9008 4.9152 39.1168 18.0224 9.216 13.1072 10.0352 29.4912 3.8912 43.008z" fill="#FF8939" p-id="9186"></path><path d="M894.1568 617.0624c-17.2032 0-33.5872-8.3968-43.6224-22.528-10.8544-15.5648-12.9024-35.84-4.9152-53.0432 1.4336-3.2768 4.7104-5.5296 8.3968-5.9392 18.8416-1.6384 37.4784 6.7584 48.3328 22.3232 10.8544 15.5648 12.9024 35.84 4.9152 53.0432-1.4336 3.2768-4.7104 5.5296-8.3968 5.9392-1.4336 0.2048-3.072 0.2048-4.7104 0.2048z m3.8912-10.4448zM862.208 556.032c-2.2528 9.216-0.4096 19.0464 5.12 26.8288 5.5296 7.7824 14.1312 12.6976 23.552 13.7216 2.2528-9.216 0.4096-19.0464-5.12-26.8288-5.5296-7.9872-14.1312-12.9024-23.552-13.7216z" fill="#1C1D21" p-id="9187"></path><path d="M900.9152 607.232c13.5168 6.144 29.9008 5.3248 43.008-3.8912s19.456-24.3712 18.0224-39.1168c-13.5168-6.144-29.9008-5.3248-43.008 3.8912-13.1072 9.0112-19.456 24.1664-18.0224 39.1168z" fill="#FF8939" p-id="9188"></path><path d="M918.9376 621.3632c-7.5776 0-15.1552-1.6384-22.3232-4.9152-3.2768-1.4336-5.5296-4.7104-5.9392-8.3968-1.6384-18.8416 6.7584-37.4784 22.3232-48.3328 15.5648-10.8544 35.84-12.9024 53.0432-4.9152 3.2768 1.4336 5.5296 4.7104 5.9392 8.3968 1.6384 18.8416-6.7584 37.4784-22.3232 48.3328-9.0112 6.5536-19.8656 9.8304-30.72 9.8304z m-7.7824-21.504c9.216 2.2528 19.0464 0.4096 26.8288-5.12 7.7824-5.5296 12.6976-14.1312 13.7216-23.552-9.216-2.2528-19.0464-0.4096-26.8288 5.12s-12.6976 14.336-13.7216 23.552z" fill="#1C1D21" p-id="9189"></path><path d="M861.7984 702.6688c-14.9504-1.024-28.8768-9.6256-35.84-23.9616-6.9632-14.336-5.3248-30.72 2.8672-43.008 14.9504 1.024 28.8768 9.6256 35.84 23.9616 6.9632 14.336 5.3248 30.72-2.8672 43.008z" fill="#FF8939" p-id="9190"></path><path d="M861.7984 712.9088h-0.6144c-19.0464-1.2288-35.84-12.6976-44.2368-29.696-8.3968-16.9984-6.9632-37.4784 3.4816-53.248 2.048-3.072 5.5296-4.7104 9.216-4.5056 19.0464 1.2288 35.84 12.6976 44.2368 29.696 8.3968 16.9984 6.9632 37.4784-3.4816 53.248-2.048 2.8672-5.3248 4.5056-8.6016 4.5056z m-27.4432-65.9456c-3.6864 8.6016-3.4816 18.6368 0.8192 27.2384 4.3008 8.6016 12.0832 14.7456 21.0944 17.2032 3.6864-8.6016 3.4816-18.6368-0.8192-27.2384-4.3008-8.3968-12.0832-14.7456-21.0944-17.2032z" fill="#1C1D21" p-id="9191"></path><path d="M864.4608 703.6928c12.288 8.192 28.672 9.8304 43.008 2.8672s22.9376-20.8896 23.9616-35.84c-12.288-8.192-28.672-9.8304-43.008-2.8672s-22.9376 20.8896-23.9616 35.84z" fill="#FF8939" p-id="9192"></path><path d="M888.4224 721.1008c-10.4448 0-20.8896-3.072-29.696-9.0112-3.072-2.048-4.7104-5.5296-4.5056-9.216 1.2288-19.0464 12.6976-35.84 29.696-44.2368 16.9984-8.3968 37.4784-6.9632 53.248 3.4816 3.072 2.048 4.7104 5.5296 4.5056 9.216-1.2288 19.0464-12.6976 35.84-29.696 44.2368-7.3728 3.8912-15.36 5.5296-23.552 5.5296z m-12.6976-22.9376c8.6016 3.6864 18.6368 3.4816 27.2384-0.8192 8.6016-4.3008 14.7456-12.0832 17.2032-21.0944-8.6016-3.6864-18.6368-3.4816-27.2384 0.8192-8.6016 4.3008-14.7456 12.0832-17.2032 21.0944z" fill="#1C1D21" p-id="9193"></path><path d="M804.4544 782.1312c-13.7216-5.9392-23.9616-18.6368-25.8048-34.6112-1.8432-15.7696 5.12-30.72 16.9984-39.5264 13.7216 5.9392 23.9616 18.6368 25.8048 34.6112 1.8432 15.7696-5.12 30.72-16.9984 39.5264z" fill="#FF8939" p-id="9194"></path><path d="M804.4544 792.3712c-1.4336 0-2.6624-0.2048-4.096-0.8192-17.408-7.5776-29.696-23.9616-31.9488-42.8032s5.9392-37.6832 21.0944-48.9472c2.8672-2.2528 6.7584-2.6624 10.24-1.2288 17.408 7.5776 29.696 23.9616 31.9488 42.8032 2.2528 18.8416-5.9392 37.6832-21.0944 48.9472-1.8432 1.4336-3.8912 2.048-6.144 2.048z m-7.168-71.8848c-6.3488 6.9632-9.4208 16.384-8.3968 26.0096s6.3488 18.0224 14.1312 23.3472c6.3488-6.9632 9.4208-16.384 8.3968-26.0096-1.2288-9.6256-6.5536-18.0224-14.1312-23.3472z" fill="#1C1D21" p-id="9195"></path><path d="M806.7072 783.9744c8.8064 11.8784 23.7568 18.8416 39.5264 16.9984 15.7696-1.8432 28.672-12.0832 34.6112-25.8048-8.8064-11.8784-23.7568-18.8416-39.5264-16.9984s-28.672 12.0832-34.6112 25.8048z" fill="#FF8939" p-id="9196"></path><path d="M841.3184 811.6224c-16.7936 0-32.768-7.9872-42.8032-21.504-2.2528-2.8672-2.6624-6.7584-1.2288-10.24 7.5776-17.408 23.9616-29.696 42.8032-31.9488 18.8416-2.2528 37.6832 5.9392 48.9472 21.0944 2.2528 2.8672 2.6624 6.7584 1.2288 10.24-7.5776 17.408-23.9616 29.696-42.8032 31.9488-2.048 0.2048-4.096 0.4096-6.144 0.4096zM819.2 782.5408c6.9632 6.3488 16.384 9.4208 26.0096 8.3968 9.4208-1.024 18.0224-6.3488 23.3472-14.1312-6.9632-6.3488-16.384-9.4208-26.0096-8.3968-9.6256 1.024-18.0224 6.3488-23.3472 14.1312z" fill="#1C1D21" p-id="9197"></path><path d="M512 1024c-136.8064 0-265.4208-53.248-362.0864-149.9136S0 648.8064 0 512 53.248 246.5792 149.9136 149.9136 375.1936 0 512 0s265.4208 53.248 362.0864 149.9136S1024 375.1936 1024 512s-53.248 265.4208-149.9136 362.0864S648.8064 1024 512 1024z m0-1003.52C241.0496 20.48 20.48 241.0496 20.48 512s220.5696 491.52 491.52 491.52 491.52-220.5696 491.52-491.52S782.9504 20.48 512 20.48z" fill="#1C1D21" p-id="9198"></path><path d="M512 675.0208c-145.6128 0-263.7824 117.9648-263.7824 263.7824v0.2048C325.0176 986.3168 415.3344 1013.76 512 1013.76s186.9824-27.4432 263.5776-74.752v-0.2048c0.2048-145.8176-117.9648-263.7824-263.5776-263.7824z" fill="#508DEF" p-id="9199"></path><path d="M512 1024c-95.232 0-188.416-26.4192-269.1072-76.3904-3.072-1.8432-4.9152-5.12-4.9152-8.8064v-0.2048c0-150.9376 122.88-273.8176 274.0224-273.8176s274.0224 122.88 274.0224 273.8176v0.4096c0 3.4816-1.8432 6.7584-4.9152 8.6016C700.416 997.5808 607.232 1024 512 1024z m-253.3376-90.7264c76.3904 46.08 163.84 70.2464 253.3376 70.2464s177.152-24.3712 253.3376-70.2464c-2.8672-137.216-115.5072-248.0128-253.3376-248.0128-137.8304 0-250.4704 110.7968-253.3376 248.0128z m516.9152 5.7344z" fill="#1C1D21" p-id="9200"></path><path d="M292.4544 911.9744c-0.6144 0-1.2288 0-1.6384-0.2048-5.5296-1.024-9.4208-6.144-8.3968-11.8784 10.0352-60.0064 42.8032-113.0496 92.16-149.2992 4.5056-3.2768 11.0592-2.4576 14.336 2.2528 3.2768 4.5056 2.4576 11.0592-2.2528 14.336-45.056 33.1776-74.9568 81.5104-84.1728 136.192-0.8192 5.12-5.12 8.6016-10.0352 8.6016z" fill="#ABD1FF" p-id="9201"></path><path d="M493.568 675.0208s-108.7488 2.4576-174.08 83.5584c0 0 35.4304 38.7072 80.6912 58.5728 0 0 11.4688-115.5072 93.3888-142.1312z" fill="#0ABFB2" p-id="9202"></path><path d="M386.048 938.5984s0 27.2384 3.072 60.0064c39.3216 9.8304 80.4864 15.1552 122.6752 15.1552v-75.1616h-125.7472z" fill="#0ABFB2" p-id="9203"></path><path d="M623.8208 817.152s-55.296 27.2384-111.8208 24.7808v-158.5152s73.9328-19.8656 111.8208 133.7344z" fill="#0ABFB2" p-id="9204"></path><path d="M512 1024c-5.7344 0-10.24-4.5056-10.24-10.24V675.0208c0-5.7344 4.5056-10.24 10.24-10.24s10.24 4.5056 10.24 10.24V1013.76c0 5.7344-4.5056 10.24-10.24 10.24z" fill="#1C1D21" p-id="9205"></path><path d="M512 1024c-42.1888 0-84.3776-5.12-125.1328-15.36-4.096-1.024-7.168-4.5056-7.7824-8.8064-2.2528-19.8656-3.2768-40.5504-3.2768-61.0304 0-71.8848 13.5168-139.6736 37.888-190.8736 25.6-53.6576 60.416-83.1488 98.304-83.1488s72.704 29.4912 98.304 83.1488c24.3712 51.2 37.888 118.9888 37.888 190.8736 0 20.6848-1.024 41.1648-3.2768 61.0304-0.4096 4.3008-3.4816 7.7824-7.7824 8.8064-40.7552 10.24-82.944 15.36-125.1328 15.36z m-113.2544-33.5872c73.9328 17.408 152.3712 17.408 226.304 0 1.6384-16.9984 2.4576-34.4064 2.4576-51.8144 0-137.4208-53.0432-253.3376-115.712-253.3376s-115.712 116.1216-115.712 253.3376c0.2048 17.408 1.024 34.816 2.6624 51.8144z m235.9296 8.192z" fill="#1C1D21" p-id="9206"></path><path d="M350.0032 796.2624c-2.4576 0-5.12-1.024-6.9632-2.8672-4.096-3.8912-4.3008-10.4448-0.4096-14.5408 9.8304-10.24 20.48-19.8656 31.9488-28.2624 4.5056-3.2768 11.0592-2.4576 14.336 2.2528 3.2768 4.5056 2.4576 11.0592-2.2528 14.336-10.4448 7.5776-20.2752 16.384-29.0816 25.8048-2.2528 2.2528-4.9152 3.2768-7.5776 3.2768z" fill="#8CEEF9" p-id="9207"></path><path d="M775.7824 948.8384H248.4224c-5.7344 0-10.24-4.5056-10.24-10.24s4.5056-10.24 10.24-10.24h527.36c5.7344 0 10.24 4.5056 10.24 10.24s-4.7104 10.24-10.24 10.24z" fill="#1C1D21" p-id="9208"></path><path d="M512 852.1728c-75.3664 0-148.2752-31.5392-199.8848-86.6304-3.6864-3.8912-3.6864-10.0352 0-13.9264 51.6096-55.0912 124.5184-86.6304 199.8848-86.6304s148.2752 31.5392 199.8848 86.6304c3.6864 3.8912 3.6864 10.0352 0 13.9264-51.6096 55.0912-124.5184 86.6304-199.8848 86.6304z m-178.176-93.7984c47.7184 47.3088 110.592 73.3184 178.176 73.3184s130.4576-26.0096 178.176-73.3184c-47.7184-47.3088-110.592-73.3184-178.176-73.3184s-130.4576 26.0096-178.176 73.3184z" fill="#1C1D21" p-id="9209"></path><path d="M407.3472 223.4368c-5.7344 0-10.24-4.5056-10.24-10.24V127.7952c0-5.7344 4.5056-10.24 10.24-10.24s10.24 4.5056 10.24 10.24v85.4016c0 5.7344-4.7104 10.24-10.24 10.24z" fill="#1C1D21" p-id="9210"></path></svg>