<svg xmlns="http://www.w3.org/2000/svg" viewBox="0 0 1024 1024" version="1.1"><path d="M512 512m-501.76 0a501.76 501.76 0 1 0 1003.52 0 501.76 501.76 0 1 0-1003.52 0Z" fill="#8CEEF9" p-id="11490"></path><path d="M115.5072 515.072c14.336 3.8912 30.3104 0.2048 41.5744-11.0592s14.9504-27.2384 11.0592-41.5744c-14.336-3.8912-30.3104-0.2048-41.5744 11.0592s-14.9504 27.2384-11.0592 41.5744zM120.4224 440.5248c13.312-6.5536 23.1424-19.6608 24.1664-35.6352 1.2288-15.9744-6.3488-30.5152-18.6368-38.912-13.312 6.5536-23.1424 19.6608-24.1664 35.6352-1.2288 15.9744 6.3488 30.5152 18.6368 38.912z" fill="#FF8939" p-id="11491"></path><path d="M120.4224 450.7648c-2.048 0-4.096-0.6144-5.7344-1.8432-15.7696-10.6496-24.576-29.0816-23.1424-48.128 1.4336-18.8416 12.9024-35.84 30.1056-44.032 3.2768-1.6384 7.168-1.2288 10.24 0.8192 15.7696 10.6496 24.576 29.0816 23.1424 48.128-1.4336 18.8416-12.9024 35.84-30.1056 44.032-1.4336 0.6144-3.072 1.024-4.5056 1.024z m4.5056-72.2944c-7.5776 5.7344-12.4928 14.336-13.1072 23.9616-0.6144 9.6256 2.8672 18.8416 9.4208 25.6 7.5776-5.7344 12.4928-14.336 13.1072-23.9616 0.8192-9.6256-2.8672-18.8416-9.4208-25.6zM126.5664 526.7456c-4.5056 0-9.216-0.6144-13.7216-1.8432-3.4816-1.024-6.3488-3.6864-7.168-7.168-4.9152-18.432 0.4096-38.0928 13.7216-51.6096 13.5168-13.5168 33.1776-18.6368 51.6096-13.7216 3.4816 1.024 6.3488 3.6864 7.168 7.168 4.9152 18.432-0.4096 38.0928-13.7216 51.6096-10.24 10.0352-23.9616 15.5648-37.888 15.5648z m-2.2528-20.48c9.4208 0.6144 18.8416-2.8672 25.6-9.6256 6.7584-6.7584 10.24-16.1792 9.6256-25.6-9.4208-0.6144-18.8416 2.8672-25.6 9.6256-6.7584 6.7584-10.24 16.1792-9.6256 25.6z" fill="#1C1D21" p-id="11492"></path><path d="M112.64 515.072c-14.336 3.8912-30.3104 0.2048-41.5744-11.0592s-14.9504-27.2384-11.0592-41.5744c14.336-3.8912 30.3104-0.2048 41.5744 11.0592 11.0592 11.264 14.7456 27.2384 11.0592 41.5744z" fill="#FF8939" p-id="11493"></path><path d="M101.5808 526.7456c-13.9264 0-27.648-5.5296-37.888-15.5648-13.5168-13.312-18.6368-33.1776-13.7216-51.6096 1.024-3.4816 3.6864-6.3488 7.168-7.168 18.432-4.9152 38.0928 0.4096 51.6096 13.7216 13.5168 13.5168 18.6368 33.1776 13.7216 51.6096-1.024 3.4816-3.6864 6.3488-7.168 7.168-4.5056 1.2288-9.216 1.8432-13.7216 1.8432z m11.0592-11.6736zM68.608 471.04c-0.6144 9.4208 2.8672 18.8416 9.6256 25.6s16.1792 10.24 25.6 9.6256c0.6144-9.4208-2.8672-18.8416-9.6256-25.6s-16.1792-10.24-25.6-9.6256z" fill="#1C1D21" p-id="11494"></path><path d="M125.952 606.6176c14.7456 1.4336 29.9008-4.9152 39.1168-18.0224 9.216-13.1072 10.24-29.4912 3.8912-43.008-14.7456-1.4336-29.9008 4.9152-39.1168 18.0224-9.216 13.1072-10.0352 29.4912-3.8912 43.008z" fill="#FF8939" p-id="11495"></path><path d="M129.8432 617.0624c-1.6384 0-3.2768 0-4.7104-0.2048-3.6864-0.4096-6.7584-2.6624-8.3968-5.9392-7.9872-17.2032-6.144-37.6832 4.9152-53.0432 10.8544-15.5648 29.4912-23.9616 48.3328-22.3232 3.6864 0.4096 6.7584 2.6624 8.3968 5.9392 7.9872 17.2032 6.144 37.6832-4.9152 53.0432-10.0352 14.1312-26.4192 22.528-43.6224 22.528zM161.792 556.032c-9.4208 1.024-18.0224 5.9392-23.552 13.7216-5.5296 7.7824-7.3728 17.6128-5.12 26.8288 9.4208-1.024 18.0224-5.9392 23.552-13.7216 5.5296-7.9872 7.3728-17.8176 5.12-26.8288z" fill="#1C1D21" p-id="11496"></path><path d="M123.0848 607.232c-13.5168 6.144-29.9008 5.3248-43.008-3.8912s-19.456-24.3712-18.0224-39.1168c13.5168-6.144 29.9008-5.3248 43.008 3.8912 13.1072 9.0112 19.456 24.1664 18.0224 39.1168z" fill="#FF8939" p-id="11497"></path><path d="M105.0624 621.3632c-10.8544 0-21.7088-3.2768-30.72-9.8304-15.5648-10.8544-23.9616-29.4912-22.3232-48.3328 0.4096-3.6864 2.6624-6.7584 5.9392-8.3968 17.2032-7.9872 37.6832-6.144 53.0432 4.9152 15.5648 10.8544 23.9616 29.4912 22.3232 48.3328-0.4096 3.6864-2.6624 6.7584-5.9392 8.3968-7.168 3.2768-14.7456 4.9152-22.3232 4.9152z m18.0224-14.1312zM72.2944 571.392c1.024 9.4208 5.9392 18.0224 13.7216 23.552 7.7824 5.5296 17.6128 7.3728 26.8288 5.12-1.024-9.4208-5.9392-18.0224-13.7216-23.552-7.7824-5.7344-17.6128-7.3728-26.8288-5.12z" fill="#1C1D21" p-id="11498"></path><path d="M162.2016 702.6688c14.9504-1.024 28.8768-9.6256 35.84-23.9616 6.9632-14.336 5.3248-30.72-2.8672-43.008-14.9504 1.024-28.8768 9.6256-35.84 23.9616-6.9632 14.336-5.3248 30.72 2.8672 43.008z" fill="#FF8939" p-id="11499"></path><path d="M162.2016 712.9088c-3.4816 0-6.5536-1.6384-8.6016-4.5056-10.6496-15.7696-11.8784-36.2496-3.4816-53.248s25.3952-28.4672 44.2368-29.696c3.6864-0.2048 7.168 1.4336 9.216 4.5056 10.6496 15.7696 11.8784 36.2496 3.4816 53.248s-25.3952 28.4672-44.2368 29.696h-0.6144z m27.4432-65.9456c-9.0112 2.4576-16.7936 8.6016-21.0944 17.2032-4.3008 8.6016-4.5056 18.6368-0.8192 27.2384 9.0112-2.4576 16.7936-8.6016 21.0944-17.2032 4.3008-8.6016 4.5056-18.432 0.8192-27.2384z" fill="#1C1D21" p-id="11500"></path><path d="M159.5392 703.6928c-12.288 8.192-28.672 9.8304-43.008 2.8672s-22.9376-20.8896-23.9616-35.84c12.288-8.192 28.672-9.8304 43.008-2.8672s22.9376 20.8896 23.9616 35.84z" fill="#FF8939" p-id="11501"></path><path d="M135.5776 721.1008c-7.9872 0-16.1792-1.8432-23.552-5.5296-16.9984-8.3968-28.4672-25.3952-29.696-44.2368-0.2048-3.6864 1.4336-7.168 4.5056-9.216 15.7696-10.6496 36.2496-11.8784 53.248-3.4816s28.4672 25.3952 29.696 44.2368c0.2048 3.6864-1.4336 7.168-4.5056 9.216-9.0112 6.144-19.456 9.0112-29.696 9.0112z m-31.744-44.8512c2.4576 9.0112 8.6016 16.7936 17.2032 21.0944 8.6016 4.3008 18.6368 4.5056 27.2384 0.8192-2.4576-9.0112-8.6016-16.7936-17.2032-21.0944-8.6016-4.3008-18.6368-4.5056-27.2384-0.8192z" fill="#1C1D21" p-id="11502"></path><path d="M219.5456 782.1312c13.7216-5.9392 23.9616-18.6368 25.8048-34.6112 1.8432-15.7696-5.12-30.72-16.9984-39.5264-13.7216 5.9392-23.9616 18.6368-25.8048 34.6112-1.8432 15.7696 5.12 30.72 16.9984 39.5264z" fill="#FF8939" p-id="11503"></path><path d="M219.5456 792.3712c-2.2528 0-4.3008-0.6144-6.144-2.048-15.1552-11.4688-23.3472-30.1056-21.0944-48.9472 2.2528-18.8416 14.336-35.2256 31.9488-42.8032 3.2768-1.4336 7.168-1.024 10.24 1.2288 15.1552 11.4688 23.3472 30.1056 21.0944 48.9472-2.2528 18.8416-14.336 35.2256-31.9488 42.8032-1.2288 0.6144-2.6624 0.8192-4.096 0.8192z m7.168-71.8848c-7.7824 5.3248-13.1072 13.7216-14.1312 23.3472s2.048 19.0464 8.3968 26.0096c7.7824-5.3248 13.1072-13.7216 14.1312-23.3472s-2.048-19.0464-8.3968-26.0096z" fill="#1C1D21" p-id="11504"></path><path d="M217.2928 783.9744c-8.8064 11.8784-23.7568 18.8416-39.5264 16.9984-15.7696-1.8432-28.672-12.0832-34.6112-25.8048 8.8064-11.8784 23.7568-18.8416 39.5264-16.9984 15.9744 1.8432 28.672 12.0832 34.6112 25.8048z" fill="#FF8939" p-id="11505"></path><path d="M182.6816 811.6224c-2.048 0-4.096-0.2048-6.144-0.4096C157.696 808.96 141.312 796.672 133.7344 779.264c-1.4336-3.2768-1.024-7.168 1.2288-10.24 11.4688-15.1552 30.1056-23.3472 48.9472-21.0944 18.8416 2.2528 35.2256 14.336 42.8032 31.9488 1.4336 3.2768 1.024 7.168-1.2288 10.24-10.24 13.5168-26.2144 21.504-42.8032 21.504z m-27.0336-34.816c5.3248 7.7824 13.7216 13.1072 23.3472 14.1312 9.4208 1.024 19.0464-2.048 26.0096-8.3968-5.3248-7.7824-13.7216-13.1072-23.3472-14.1312-9.6256-1.2288-19.0464 2.048-26.0096 8.3968z" fill="#1C1D21" p-id="11506"></path><path d="M514.6624 922.8288h-6.3488C284.672 919.3472 103.8336 736.4608 103.8336 512c0-26.8288 2.6624-53.6576 7.7824-79.872 1.024-5.5296 6.5536-9.216 12.0832-7.9872 5.5296 1.024 9.216 6.5536 7.9872 12.0832-4.9152 24.7808-7.3728 50.3808-7.3728 75.776 0 214.4256 173.6704 388.9152 387.6864 390.3488 214.016-1.4336 387.6864-175.9232 387.6864-390.3488 0-25.6-2.4576-50.9952-7.3728-75.776-1.024-5.5296 2.4576-10.8544 7.9872-12.0832 5.5296-1.024 10.8544 2.4576 12.0832 7.9872 5.12 26.0096 7.7824 53.0432 7.7824 79.872 0 224.4608-180.8384 407.3472-404.6848 410.8288h-0.8192z" fill="#1C1D21" p-id="11507"></path><path d="M908.4928 515.072c-14.336 3.8912-30.3104 0.2048-41.5744-11.0592s-14.9504-27.2384-11.0592-41.5744c14.336-3.8912 30.3104-0.2048 41.5744 11.0592s14.9504 27.2384 11.0592 41.5744zM903.5776 440.5248c-13.312-6.5536-23.1424-19.6608-24.1664-35.6352-1.2288-15.9744 6.3488-30.5152 18.6368-38.912 13.312 6.5536 23.1424 19.6608 24.1664 35.6352 1.2288 15.9744-6.3488 30.5152-18.6368 38.912z" fill="#FF8939" p-id="11508"></path><path d="M903.5776 450.7648c-1.4336 0-3.072-0.4096-4.5056-1.024-17.2032-8.192-28.672-25.1904-30.1056-44.032-1.4336-18.8416 7.3728-37.2736 23.1424-48.128 3.072-2.048 6.9632-2.4576 10.24-0.8192 17.2032 8.192 28.672 25.1904 30.1056 44.032 1.4336 18.8416-7.3728 37.2736-23.1424 48.128-1.6384 1.2288-3.6864 1.8432-5.7344 1.8432z m-4.5056-72.2944c-6.5536 6.7584-10.24 15.9744-9.4208 25.6 0.6144 9.6256 5.5296 18.2272 13.1072 23.9616 6.5536-6.7584 10.24-15.9744 9.4208-25.6-0.8192-9.6256-5.5296-18.2272-13.1072-23.9616zM897.4336 526.7456c-13.9264 0-27.648-5.5296-37.888-15.5648-13.5168-13.312-18.6368-33.1776-13.7216-51.6096 1.024-3.4816 3.6864-6.3488 7.168-7.168 18.432-4.9152 38.0928 0.4096 51.6096 13.7216 13.5168 13.5168 18.6368 33.1776 13.7216 51.6096-1.024 3.4816-3.6864 6.3488-7.168 7.168-4.5056 1.2288-9.216 1.8432-13.7216 1.8432z m11.0592-11.6736zM864.6656 471.04c-0.6144 9.4208 2.8672 18.8416 9.6256 25.6 6.7584 6.7584 16.1792 10.24 25.6 9.6256 0.6144-9.4208-2.8672-18.8416-9.6256-25.6s-16.384-10.24-25.6-9.6256z" fill="#1C1D21" p-id="11509"></path><path d="M911.36 515.072c14.336 3.8912 30.3104 0.2048 41.5744-11.0592s14.9504-27.2384 11.0592-41.5744c-14.336-3.8912-30.3104-0.2048-41.5744 11.0592-11.0592 11.264-14.7456 27.2384-11.0592 41.5744z" fill="#FF8939" p-id="11510"></path><path d="M922.4192 526.7456c-4.5056 0-9.216-0.6144-13.7216-1.8432-3.4816-1.024-6.3488-3.6864-7.168-7.168-4.9152-18.432 0.4096-38.0928 13.7216-51.6096 13.5168-13.5168 33.1776-18.6368 51.6096-13.7216 3.4816 1.024 6.3488 3.6864 7.168 7.168 4.9152 18.432-0.4096 38.0928-13.7216 51.6096-10.0352 10.0352-23.7568 15.5648-37.888 15.5648z m-2.048-20.48c9.4208 0.6144 18.8416-2.8672 25.6-9.6256 6.7584-6.7584 10.24-16.1792 9.6256-25.6-9.4208-0.6144-18.8416 2.8672-25.6 9.6256-6.9632 6.7584-10.4448 16.1792-9.6256 25.6z" fill="#1C1D21" p-id="11511"></path><path d="M898.048 606.6176c-14.7456 1.4336-29.9008-4.9152-39.1168-18.0224-9.216-13.1072-10.24-29.4912-3.8912-43.008 14.7456-1.4336 29.9008 4.9152 39.1168 18.0224 9.216 13.1072 10.0352 29.4912 3.8912 43.008z" fill="#FF8939" p-id="11512"></path><path d="M894.1568 617.0624c-17.2032 0-33.5872-8.3968-43.6224-22.528-10.8544-15.5648-12.9024-35.84-4.9152-53.0432 1.4336-3.2768 4.7104-5.5296 8.3968-5.9392 18.8416-1.6384 37.4784 6.7584 48.3328 22.3232 10.8544 15.5648 12.9024 35.84 4.9152 53.0432-1.4336 3.2768-4.7104 5.5296-8.3968 5.9392-1.4336 0.2048-3.072 0.2048-4.7104 0.2048z m3.8912-10.4448zM862.208 556.032c-2.2528 9.216-0.4096 19.0464 5.12 26.8288 5.5296 7.7824 14.1312 12.6976 23.552 13.7216 2.2528-9.216 0.4096-19.0464-5.12-26.8288-5.5296-7.9872-14.1312-12.9024-23.552-13.7216z" fill="#1C1D21" p-id="11513"></path><path d="M900.9152 607.232c13.5168 6.144 29.9008 5.3248 43.008-3.8912s19.456-24.3712 18.0224-39.1168c-13.5168-6.144-29.9008-5.3248-43.008 3.8912-13.1072 9.0112-19.456 24.1664-18.0224 39.1168z" fill="#FF8939" p-id="11514"></path><path d="M918.9376 621.3632c-7.5776 0-15.1552-1.6384-22.3232-4.9152-3.2768-1.4336-5.5296-4.7104-5.9392-8.3968-1.6384-18.8416 6.7584-37.4784 22.3232-48.3328 15.5648-10.8544 35.84-12.9024 53.0432-4.9152 3.2768 1.4336 5.5296 4.7104 5.9392 8.3968 1.6384 18.8416-6.7584 37.4784-22.3232 48.3328-9.0112 6.5536-19.8656 9.8304-30.72 9.8304z m-7.7824-21.504c9.216 2.2528 19.0464 0.4096 26.8288-5.12 7.7824-5.5296 12.6976-14.1312 13.7216-23.552-9.216-2.2528-19.0464-0.4096-26.8288 5.12-7.7824 5.5296-12.6976 14.336-13.7216 23.552z" fill="#1C1D21" p-id="11515"></path><path d="M861.7984 702.6688c-14.9504-1.024-28.8768-9.6256-35.84-23.9616-6.9632-14.336-5.3248-30.72 2.8672-43.008 14.9504 1.024 28.8768 9.6256 35.84 23.9616 6.9632 14.336 5.3248 30.72-2.8672 43.008z" fill="#FF8939" p-id="11516"></path><path d="M861.7984 712.9088h-0.6144c-19.0464-1.2288-35.84-12.6976-44.2368-29.696s-6.9632-37.4784 3.4816-53.248c2.048-3.072 5.5296-4.7104 9.216-4.5056 19.0464 1.2288 35.84 12.6976 44.2368 29.696 8.3968 16.9984 6.9632 37.4784-3.4816 53.248-2.048 2.8672-5.3248 4.5056-8.6016 4.5056z m-27.4432-65.9456c-3.6864 8.6016-3.4816 18.6368 0.8192 27.2384 4.3008 8.6016 12.0832 14.7456 21.0944 17.2032 3.6864-8.6016 3.4816-18.6368-0.8192-27.2384-4.3008-8.3968-12.0832-14.7456-21.0944-17.2032z" fill="#1C1D21" p-id="11517"></path><path d="M864.4608 703.6928c12.288 8.192 28.672 9.8304 43.008 2.8672s22.9376-20.8896 23.9616-35.84c-12.288-8.192-28.672-9.8304-43.008-2.8672s-22.9376 20.8896-23.9616 35.84z" fill="#FF8939" p-id="11518"></path><path d="M888.4224 721.1008c-10.4448 0-20.8896-3.072-29.696-9.0112-3.072-2.048-4.7104-5.5296-4.5056-9.216 1.2288-19.0464 12.6976-35.84 29.696-44.2368 16.9984-8.3968 37.4784-6.9632 53.248 3.4816 3.072 2.048 4.7104 5.5296 4.5056 9.216-1.2288 19.0464-12.6976 35.84-29.696 44.2368-7.3728 3.8912-15.36 5.5296-23.552 5.5296z m-12.6976-22.9376c8.6016 3.6864 18.6368 3.4816 27.2384-0.8192s14.7456-12.0832 17.2032-21.0944c-8.6016-3.6864-18.6368-3.4816-27.2384 0.8192-8.6016 4.3008-14.7456 12.0832-17.2032 21.0944z" fill="#1C1D21" p-id="11519"></path><path d="M804.4544 782.1312c-13.7216-5.9392-23.9616-18.6368-25.8048-34.6112-1.8432-15.7696 5.12-30.72 16.9984-39.5264 13.7216 5.9392 23.9616 18.6368 25.8048 34.6112 1.8432 15.7696-5.12 30.72-16.9984 39.5264z" fill="#FF8939" p-id="11520"></path><path d="M804.4544 792.3712c-1.4336 0-2.6624-0.2048-4.096-0.8192-17.408-7.5776-29.696-23.9616-31.9488-42.8032-2.2528-18.8416 5.9392-37.6832 21.0944-48.9472 2.8672-2.2528 6.7584-2.6624 10.24-1.2288 17.408 7.5776 29.696 23.9616 31.9488 42.8032 2.2528 18.8416-5.9392 37.6832-21.0944 48.9472-1.8432 1.4336-3.8912 2.048-6.144 2.048z m-7.168-71.8848c-6.3488 6.9632-9.4208 16.384-8.3968 26.0096s6.3488 18.0224 14.1312 23.3472c6.3488-6.9632 9.4208-16.384 8.3968-26.0096s-6.5536-18.0224-14.1312-23.3472z" fill="#1C1D21" p-id="11521"></path><path d="M806.7072 783.9744c8.8064 11.8784 23.7568 18.8416 39.5264 16.9984 15.7696-1.8432 28.672-12.0832 34.6112-25.8048-8.8064-11.8784-23.7568-18.8416-39.5264-16.9984s-28.672 12.0832-34.6112 25.8048z" fill="#FF8939" p-id="11522"></path><path d="M841.3184 811.6224c-16.5888 0-32.768-7.9872-42.8032-21.504-2.2528-2.8672-2.6624-6.7584-1.2288-10.24 7.5776-17.408 23.9616-29.696 42.8032-31.9488 18.8416-2.2528 37.6832 5.9392 48.9472 21.0944 2.2528 2.8672 2.6624 6.7584 1.2288 10.24-7.5776 17.408-23.9616 29.696-42.8032 31.9488-2.048 0.2048-4.096 0.4096-6.144 0.4096zM819.2 782.5408c6.9632 6.3488 16.384 9.4208 26.0096 8.3968 9.4208-1.024 18.0224-6.3488 23.3472-14.1312-6.9632-6.3488-16.384-9.4208-26.0096-8.3968-9.6256 1.024-18.0224 6.3488-23.3472 14.1312z" fill="#1C1D21" p-id="11523"></path><path d="M512 1024c-136.8064 0-265.4208-53.248-362.0864-149.9136C53.248 777.4208 0 648.8064 0 512S53.248 246.5792 149.9136 149.9136C246.5792 53.248 375.1936 0 512 0s265.4208 53.248 362.0864 149.9136C970.752 246.5792 1024 375.1936 1024 512s-53.248 265.4208-149.9136 362.0864C777.4208 970.752 648.8064 1024 512 1024z m0-1003.52C241.0496 20.48 20.48 241.0496 20.48 512s220.5696 491.52 491.52 491.52 491.52-220.5696 491.52-491.52S782.9504 20.48 512 20.48z" fill="#1C1D21" p-id="11524"></path><path d="M512 675.0208c-145.6128 0-263.7824 117.9648-263.7824 263.7824v0.2048C325.0176 986.3168 415.3344 1013.76 512 1013.76s186.9824-27.4432 263.5776-74.752v-0.2048c0.2048-145.8176-117.9648-263.7824-263.5776-263.7824z" fill="#508DEF" p-id="11525"></path><path d="M512 1024c-95.232 0-188.416-26.4192-269.1072-76.3904-3.072-1.8432-4.7104-5.12-4.9152-8.6016v-0.4096c0-151.1424 122.88-274.0224 274.0224-274.0224s274.0224 122.88 274.0224 274.0224v0.2048c0 3.4816-1.8432 6.7584-4.9152 8.6016C700.416 997.5808 607.232 1024 512 1024z m-253.3376-90.7264c76.3904 46.08 163.84 70.2464 253.3376 70.2464s177.152-24.3712 253.3376-70.2464c-2.8672-137.216-115.5072-248.0128-253.3376-248.0128-137.8304 0-250.4704 110.7968-253.3376 248.0128z m516.9152 5.7344z" fill="#1C1D21" p-id="11526"></path><path d="M292.4544 911.9744c-0.6144 0-1.2288 0-1.6384-0.2048-5.5296-1.024-9.4208-6.144-8.3968-11.8784 10.0352-60.0064 42.8032-113.0496 92.16-149.2992 4.5056-3.2768 11.0592-2.4576 14.336 2.2528 3.2768 4.5056 2.4576 11.0592-2.2528 14.336-45.056 33.1776-74.9568 81.5104-84.1728 136.192-0.8192 5.12-5.12 8.6016-10.0352 8.6016z" fill="#ABD1FF" p-id="11527"></path><path d="M493.568 675.0208s-108.7488 2.4576-174.08 83.5584c0 0 35.4304 38.7072 80.6912 58.5728 0 0 11.4688-115.5072 93.3888-142.1312zM386.048 938.5984s0 27.2384 3.072 60.0064c39.3216 9.8304 80.4864 15.1552 122.6752 15.1552v-75.1616h-125.7472zM623.8208 817.152s-55.296 27.2384-111.8208 24.7808v-158.5152s73.9328-19.8656 111.8208 133.7344z" fill="#0ABFB2" p-id="11528"></path><path d="M512 1024c-5.7344 0-10.24-4.5056-10.24-10.24V675.0208c0-5.7344 4.5056-10.24 10.24-10.24s10.24 4.5056 10.24 10.24V1013.76c0 5.7344-4.5056 10.24-10.24 10.24z" fill="#1C1D21" p-id="11529"></path><path d="M512 1024c-42.1888 0-84.3776-5.12-125.1328-15.36-4.096-1.024-7.168-4.5056-7.7824-8.8064-2.2528-19.8656-3.2768-40.5504-3.2768-61.0304 0-71.8848 13.5168-139.6736 37.888-190.8736 25.6-53.6576 60.416-83.1488 98.304-83.1488s72.704 29.4912 98.304 83.1488c24.3712 51.2 37.888 118.9888 37.888 190.8736 0 20.6848-1.024 41.1648-3.2768 61.0304-0.4096 4.3008-3.4816 7.7824-7.7824 8.8064-40.7552 10.24-82.944 15.36-125.1328 15.36z m-113.2544-33.5872c73.9328 17.408 152.3712 17.408 226.304 0 1.6384-16.9984 2.4576-34.4064 2.4576-51.8144 0-137.4208-53.0432-253.5424-115.712-253.5424s-115.712 116.1216-115.712 253.5424c0.2048 17.408 1.024 34.816 2.6624 51.8144z m235.9296 8.192z" fill="#1C1D21" p-id="11530"></path><path d="M350.0032 796.2624c-2.4576 0-5.12-1.024-6.9632-2.8672-4.096-3.8912-4.3008-10.4448-0.4096-14.5408 9.8304-10.24 20.48-19.8656 31.9488-28.2624 4.5056-3.2768 11.0592-2.4576 14.336 2.2528 3.2768 4.5056 2.4576 11.0592-2.2528 14.336-10.4448 7.5776-20.2752 16.384-29.0816 25.8048-2.2528 2.2528-4.9152 3.2768-7.5776 3.2768z" fill="#8CEEF9" p-id="11531"></path><path d="M775.7824 948.8384H248.4224c-5.7344 0-10.24-4.5056-10.24-10.24s4.5056-10.24 10.24-10.24h527.36c5.7344 0 10.24 4.5056 10.24 10.24s-4.7104 10.24-10.24 10.24zM512 852.1728c-75.3664 0-148.2752-31.5392-199.8848-86.6304-3.6864-3.8912-3.6864-10.0352 0-13.9264 51.6096-55.0912 124.5184-86.6304 199.8848-86.6304s148.2752 31.5392 199.8848 86.6304c3.6864 3.8912 3.6864 10.0352 0 13.9264-51.6096 55.0912-124.5184 86.6304-199.8848 86.6304z m-178.176-93.7984c47.7184 47.3088 110.592 73.3184 178.176 73.3184s130.4576-26.0096 178.176-73.3184c-47.7184-47.3088-110.592-73.3184-178.176-73.3184s-130.4576 26.0096-178.176 73.3184z" fill="#1C1D21" p-id="11532"></path><path d="M735.232 374.9888L643.072 282.624l-51.6096 51.6096c-20.48-20.48-53.6576-20.48-74.1376 0L429.6704 421.888c-11.8784 11.8784-11.8784 31.1296 0 43.008 8.6016 8.6016 22.528 8.6016 30.9248 0l-82.944 82.944h73.728l14.9504-14.9504 14.9504 14.9504h78.0288v113.8688l104.448-104.448c26.0096-26.0096 34.2016-63.0784 24.576-96.0512-5.5296-19.2512 0.2048-39.7312 14.336-53.8624l32.5632-32.3584z" fill="#C67552" p-id="11533"></path><path d="M571.5968 659.8656c-2.8672 0-5.5296-1.024-7.5776-3.2768-3.8912-4.096-3.4816-10.6496 0.6144-14.5408 33.1776-30.3104 63.0784-62.2592 94.8224-95.8464l2.4576-2.4576c20.2752-22.1184 26.0096-56.5248 14.336-87.6544-0.4096-1.024-0.6144-2.048-0.6144-3.072-1.8432-32.3584 19.6608-53.248 38.5024-71.8848l6.3488-6.3488-76.3904-76.3904c-0.4096-0.2048-0.8192-0.6144-1.2288-1.024-4.3008 4.3008-8.6016 8.192-12.9024 12.0832-10.24 9.4208-20.0704 18.432-28.2624 30.1056-1.8432 2.6624-5.12 4.3008-8.3968 4.3008h-4.096c-2.6624 0-5.3248-1.024-7.168-3.072-17.6128-17.6128-42.1888-13.312-57.344 0.2048-8.192 8.192-16.5888 16.384-24.7808 24.1664-23.552 22.9376-47.9232 46.4896-68.608 72.704-0.6144 8.8064 1.6384 19.2512 10.24 23.3472 2.6624 0.8192 6.3488 0.6144 8.3968 0 1.2288-1.2288 2.4576-2.2528 3.4816-3.4816l0.2048-0.2048c1.8432-1.6384 4.3008-2.6624 6.7584-2.6624 0.8192 0 1.6384 0 2.4576 0.2048 1.6384 0.4096 3.2768 1.2288 4.5056 2.4576l1.6384 1.6384c1.024 1.4336 1.6384 3.2768 1.8432 4.9152 0.2048 1.2288 0 2.2528-0.2048 3.4816-0.2048 1.024-0.6144 1.8432-1.024 2.6624-1.8432 3.072-4.096 5.5296-6.9632 7.3728l-2.048 2.048c-7.7824 7.7824-15.5648 15.5648-22.9376 23.3472-13.312 13.7216-27.2384 27.8528-41.3696 41.1648-4.096 3.8912-10.6496 3.6864-14.5408-0.4096-3.8912-4.096-3.6864-10.6496 0.4096-14.5408 13.9264-12.9024 27.0336-26.4192 40.7552-40.5504 2.8672-3.072 5.9392-6.144 9.0112-9.216-15.5648-7.7824-23.552-25.8048-20.48-46.8992 0.2048-1.8432 1.024-3.4816 2.048-4.9152 21.9136-28.2624 47.5136-53.0432 72.2944-77.0048 8.192-7.9872 16.5888-15.9744 24.7808-24.1664l0.4096-0.4096c23.3472-21.0944 56.1152-22.7328 79.4624-5.12 8.192-10.24 17.2032-18.432 26.0096-26.4192 6.3488-5.9392 12.9024-11.8784 19.0464-18.6368 0.2048-0.2048 0.2048-0.4096 0.4096-0.4096 1.8432-1.8432 4.3008-2.8672 6.7584-2.8672h0.4096c2.4576 0 4.9152 1.024 6.9632 3.072l91.9552 91.9552c3.8912 3.8912 4.096 10.0352 0.4096 14.1312-4.5056 4.9152-9.216 9.6256-13.9264 14.336-16.9984 16.5888-33.1776 32.3584-32.5632 54.6816 13.7216 37.888 6.144 79.872-19.0464 107.3152l-2.4576 2.6624c-31.9488 33.9968-62.2592 66.1504-95.8464 97.0752-2.048 1.2288-4.5056 2.048-6.9632 2.048z" fill="#1C1D21" p-id="11534"></path><path d="M642.924544 282.59328l41.562112-41.560064 92.391424 92.391424-41.562112 41.560064z" fill="#FFECE9" p-id="11535"></path><path d="M735.232 385.2288c-2.6624 0-5.3248-1.024-7.168-3.072l-92.3648-92.3648c-1.8432-1.8432-3.072-4.5056-3.072-7.168s1.024-5.3248 3.072-7.168l41.5744-41.5744c4.096-4.096 10.4448-4.096 14.5408 0l92.3648 92.3648c4.096 4.096 4.096 10.4448 0 14.5408l-41.5744 41.5744c-2.048 1.8432-4.5056 2.8672-7.3728 2.8672zM657.408 282.624l77.824 77.824 27.0336-27.0336-77.824-77.824L657.408 282.624z" fill="#1C1D21" p-id="11536"></path><path d="M814.2848 111.4112l-129.6384 129.6384 130.2528 130.2528 123.6992-123.6992c-32.768-52.6336-74.9568-98.9184-124.3136-136.192z" fill="#AAADAD" p-id="11537"></path><path d="M814.6944 381.7472c-2.6624 0-5.3248-1.024-7.168-3.072l-130.2528-130.2528c-1.8432-1.8432-3.072-4.5056-3.072-7.168s1.024-5.3248 3.072-7.168L806.912 104.2432c3.6864-3.6864 9.4208-4.096 13.312-1.024 50.7904 38.2976 93.3888 84.992 126.7712 139.0592 2.4576 4.096 1.8432 9.216-1.4336 12.6976l-123.6992 123.6992c-1.8432 2.048-4.5056 3.072-7.168 3.072z m-115.712-140.6976l115.712 115.712 110.7968-110.7968c-29.9008-46.4896-66.9696-87.04-110.3872-121.2416l-116.1216 116.3264z" fill="#1C1D21" p-id="11538"></path><path d="M520.6016 582.4512l57.5488 57.5488c10.24 10.24 26.624 10.24 36.864 0s10.24-26.624 0-36.864l-57.5488-57.5488M483.5328 619.52l57.5488 57.5488c10.24 10.24 26.624 10.24 36.864 0s10.24-26.624 0-36.864l-57.5488-57.5488" fill="#FFC5B3" p-id="11539"></path><path d="M557.4656 545.5872l56.9344 56.9344c10.24 10.24 26.8288 10.8544 37.0688 1.024 10.4448-10.24 10.6496-26.8288 0.4096-37.2736L563.2 477.5936c8.6016 8.6016 22.528 8.6016 30.9248 0 11.8784-11.8784 11.8784-31.1296 0-43.008l-87.6544-87.6544c-20.48-20.48-53.6576-20.48-74.1376 0L380.928 295.3216l-92.16 92.3648 32.3584 32.3584c14.1312 14.1312 19.8656 34.816 14.336 53.8624-9.6256 32.9728-1.4336 70.0416 24.576 96.0512l143.9744 143.9744c10.24 10.24 27.0336 10.24 37.2736-0.4096 10.0352-10.24 9.216-27.0336-1.024-37.0688l-25.8048-25.8048" fill="#FFC5B3" p-id="11540"></path><path d="M596.7872 658.0224c-9.6256 0-18.8416-3.6864-25.6-10.6496L544.768 620.9536c-4.096-4.096-4.096-10.4448 0-14.5408s10.4448-4.096 14.5408 0L585.728 632.832c3.072 3.072 6.9632 4.7104 11.264 4.7104s8.192-1.6384 11.264-4.7104c6.144-6.144 6.144-16.1792 0-22.3232L550.2976 552.96c-4.096-4.096-4.096-10.4448 0-14.5408s10.4448-4.096 14.5408 0l57.5488 57.5488c14.1312 14.1312 14.1312 37.2736 0 51.4048-6.9632 6.7584-15.9744 10.6496-25.6 10.6496z" fill="#1C1D21" p-id="11541"></path><path d="M559.7184 695.0912c-9.6256 0-18.8416-3.6864-25.6-10.6496L503.808 654.1312c-4.096-4.096-4.096-10.4448 0-14.5408s10.4448-4.096 14.5408 0l30.3104 30.3104c6.144 6.144 16.1792 6.144 22.3232 0 3.072-3.072 4.7104-6.9632 4.7104-11.264s-1.6384-8.192-4.7104-11.264L540.672 617.2672c-4.096-4.096-4.096-10.4448 0-14.5408s10.4448-4.096 14.5408 0l30.3104 30.3104c6.7584 6.7584 10.6496 15.9744 10.6496 25.6s-3.6864 18.8416-10.6496 25.6c-7.168 6.9632-16.1792 10.8544-25.8048 10.8544z" fill="#1C1D21" p-id="11542"></path><path d="M522.6496 732.16c-9.6256 0-18.8416-3.6864-25.6-10.6496L353.0752 577.536c-27.8528-27.8528-38.2976-68.4032-27.2384-106.2912 4.5056-15.36 0-32.1536-11.8784-43.8272l-32.3584-32.3584c-1.8432-1.8432-3.072-4.5056-3.072-7.168s1.024-5.3248 3.072-7.168l92.3648-92.3648c4.096-4.096 10.4448-4.096 14.5408 0l44.8512 44.8512c24.3712-17.6128 58.7776-15.36 80.6912 6.5536l87.6544 87.6544c15.9744 15.9744 15.9744 41.7792 0 57.5488-2.8672 2.8672-6.3488 5.12-9.8304 6.7584l67.584 67.584c6.9632 6.9632 10.6496 16.1792 10.6496 26.0096 0 9.8304-4.096 19.0464-11.0592 25.8048-14.1312 13.7216-37.2736 13.1072-51.4048-1.024l-57.344-57.1392c-4.096-4.096-4.096-10.4448 0-14.5408s10.4448-4.096 14.5408 0l56.9344 56.9344c6.3488 6.3488 16.5888 6.7584 22.7328 0.8192 3.072-3.072 4.7104-6.9632 4.9152-11.264 0-4.3008-1.6384-8.3968-4.7104-11.264l-88.6784-88.6784c-4.096-4.096-4.096-10.4448 0-14.5408s10.4448-4.096 14.5408 0c4.5056 4.5056 11.8784 4.5056 16.5888 0 7.9872-7.9872 7.9872-20.6848 0-28.672l-87.6544-87.6544c-16.384-16.384-43.2128-16.384-59.5968 0-4.096 4.096-10.4448 4.096-14.5408 0L380.928 309.8624l-77.824 77.824 25.1904 25.1904c16.9984 16.9984 23.552 41.5744 16.9984 64.1024-8.8064 30.5152-0.4096 63.488 22.1184 86.016l143.9744 143.9744c3.072 3.072 6.9632 4.7104 11.264 4.7104s8.192-1.8432 11.264-4.9152c5.9392-6.144 5.5296-16.384-0.8192-22.7328l-29.696-29.696c-4.096-4.096-4.096-10.4448 0-14.5408s10.4448-4.096 14.5408 0l29.696 29.696c14.336 14.336 14.7456 37.2736 1.024 51.4048-6.7584 7.168-15.9744 11.0592-25.8048 11.0592 0 0.2048-0.2048 0.2048-0.2048 0.2048z" fill="#1C1D21" p-id="11543"></path><path d="M247.154688 346.185728l92.391424-92.391424 41.562112 41.562112-92.391424 92.391424z" fill="#FFECE9" p-id="11544"></path><path d="M288.768 397.9264c-2.6624 0-5.3248-1.024-7.168-3.072l-41.5744-41.5744c-4.096-4.096-4.096-10.4448 0-14.5408l92.3648-92.3648c4.096-4.096 10.4448-4.096 14.5408 0l41.5744 41.5744c1.8432 1.8432 3.072 4.5056 3.072 7.168s-1.024 5.3248-3.072 7.168l-92.3648 92.3648c-2.048 2.2528-4.7104 3.2768-7.3728 3.2768z m-27.0336-51.6096l27.0336 27.0336 77.824-77.824-27.0336-27.2384-77.824 78.0288z" fill="#1C1D21" p-id="11545"></path><path d="M80.6912 255.5904l128.6144 128.6144 130.2528-130.2528-137.0112-137.0112c-48.7424 38.2976-90.112 85.1968-121.856 138.6496z" fill="#AAADAD" p-id="11546"></path><path d="M209.3056 394.4448c-2.6624 0-5.3248-1.024-7.168-3.072l-128.6144-128.6144c-3.2768-3.2768-3.8912-8.3968-1.6384-12.4928 32.5632-54.4768 74.3424-102.1952 124.3136-141.312 4.096-3.2768 9.8304-2.8672 13.5168 0.8192l137.0112 137.0112c4.096 4.096 4.096 10.4448 0 14.5408l-130.2528 130.2528c-2.048 1.8432-4.5056 2.8672-7.168 2.8672z m-115.712-140.288l115.712 115.712 115.712-115.712-123.2896-123.4944c-42.8032 35.0208-79.0528 76.3904-108.1344 123.4944z" fill="#1C1D21" p-id="11547"></path><path d="M281.6 264.192c-2.6624 0-5.3248-1.024-7.168-3.072l-50.3808-50.3808c-4.096-4.096-4.096-10.4448 0-14.5408s10.4448-4.096 14.5408 0l50.3808 50.3808c4.096 4.096 4.096 10.4448 0 14.5408-2.2528 2.048-4.7104 3.072-7.3728 3.072zM208.0768 190.6688c-2.6624 0-5.3248-1.024-7.168-3.072l-7.7824-7.7824c-4.096-4.096-4.096-10.4448 0-14.5408s10.4448-4.096 14.5408 0l7.7824 7.7824c4.096 4.096 4.096 10.4448 0 14.5408-2.048 2.048-4.7104 3.072-7.3728 3.072zM742.4 251.904c-2.6624 0-5.3248-1.024-7.168-3.072-4.096-4.096-4.096-10.4448 0-14.5408l50.3808-50.3808c4.096-4.096 10.4448-4.096 14.5408 0s4.096 10.4448 0 14.5408L749.568 248.832c-1.8432 2.048-4.5056 3.072-7.168 3.072zM815.9232 178.3808c-2.6624 0-5.3248-1.024-7.168-3.072-4.096-4.096-4.096-10.4448 0-14.5408l7.7824-7.7824c4.096-4.096 10.4448-4.096 14.5408 0s4.096 10.4448 0 14.5408l-7.7824 7.7824c-2.2528 2.048-4.7104 3.072-7.3728 3.072z" fill="#E0E0E0" p-id="11548"></path><path d="M380.1088 537.3952l-33.5872 33.5872c-9.4208 9.4208-9.4208 24.7808 0 34.2016s24.7808 9.4208 34.2016 0l33.5872-33.5872c9.4208-9.4208 9.4208-24.7808 0-34.2016s-24.576-9.4208-34.2016 0z" fill="#C67552" p-id="11549"></path><path d="M363.7248 622.592c-8.8064 0-17.6128-3.2768-24.3712-10.0352-6.5536-6.5536-10.0352-15.1552-10.0352-24.3712s3.4816-17.8176 10.0352-24.3712l33.5872-33.5872c6.5536-6.5536 15.1552-10.0352 24.3712-10.0352s17.8176 3.4816 24.3712 10.0352c13.312 13.312 13.312 35.2256 0 48.7424l-33.5872 33.5872c-6.7584 6.7584-15.5648 10.0352-24.3712 10.0352z m33.5872-81.92c-3.6864 0-7.168 1.4336-9.8304 4.096l-33.5872 33.5872c-2.6624 2.6624-4.096 6.144-4.096 9.8304s1.4336 7.168 4.096 9.8304c5.5296 5.5296 14.336 5.5296 19.6608 0l33.5872-33.5872c5.5296-5.5296 5.5296-14.336 0-19.6608-2.6624-2.6624-6.144-4.096-9.8304-4.096z" fill="#1C1D21" p-id="11550"></path><path d="M414.3104 571.5968l-33.5872 33.5872c-9.4208 9.4208-9.4208 24.7808 0 34.2016s24.7808 9.4208 34.2016 0l33.5872-33.5872c9.4208-9.4208 9.4208-24.7808 0-34.2016s-24.7808-9.4208-34.2016 0z" fill="#C67552" p-id="11551"></path><path d="M397.9264 656.7936c-8.8064 0-17.6128-3.2768-24.3712-10.0352-6.5536-6.5536-10.0352-15.1552-10.0352-24.3712s3.4816-17.8176 10.0352-24.3712l33.5872-33.5872c13.312-13.5168 35.2256-13.5168 48.7424 0 13.312 13.312 13.312 35.2256 0 48.7424l-33.5872 33.5872c-6.7584 6.5536-15.5648 10.0352-24.3712 10.0352z m33.5872-81.92c-3.4816 0-7.168 1.4336-9.8304 4.096l-33.5872 33.5872c-2.6624 2.6624-4.096 6.144-4.096 9.8304 0 3.6864 1.4336 7.168 4.096 9.8304 5.5296 5.5296 14.336 5.5296 19.6608 0l33.5872-33.5872c5.5296-5.5296 5.5296-14.336 0-19.6608-2.6624-2.8672-6.3488-4.096-9.8304-4.096z" fill="#1C1D21" p-id="11552"></path><path d="M448.512 605.7984l-33.5872 33.5872c-9.4208 9.4208-9.4208 24.7808 0 34.2016s24.7808 9.4208 34.2016 0l33.5872-33.5872c9.4208-9.4208 9.4208-24.7808 0-34.2016s-24.7808-9.4208-34.2016 0z" fill="#C67552" p-id="11553"></path><path d="M431.9232 690.9952c-8.8064 0-17.6128-3.2768-24.3712-10.0352-13.5168-13.5168-13.5168-35.2256 0-48.7424l33.5872-33.5872c13.312-13.5168 35.2256-13.5168 48.7424 0 6.5536 6.5536 10.0352 15.1552 10.0352 24.3712s-3.4816 17.8176-10.0352 24.3712l-33.5872 33.5872c-6.7584 6.5536-15.5648 10.0352-24.3712 10.0352z m33.792-81.92c-3.4816 0-7.168 1.4336-9.8304 4.096l-33.5872 33.5872c-5.5296 5.5296-5.5296 14.336 0 19.6608 5.5296 5.5296 14.336 5.5296 19.6608 0l33.5872-33.5872c2.6624-2.6624 4.096-6.144 4.096-9.8304s-1.4336-7.168-4.096-9.8304c-2.8672-2.8672-6.3488-4.096-9.8304-4.096z" fill="#1C1D21" p-id="11554"></path><path d="M482.7136 640l-33.5872 33.5872c-9.4208 9.4208-9.4208 24.7808 0 34.2016s24.7808 9.4208 34.2016 0l33.5872-33.5872c9.4208-9.4208 9.4208-24.7808 0-34.2016s-24.7808-9.4208-34.2016 0z" fill="#C67552" p-id="11555"></path><path d="M466.1248 724.992c-8.8064 0-17.6128-3.2768-24.3712-10.0352-13.5168-13.5168-13.5168-35.2256 0-48.7424l33.5872-33.5872c13.312-13.5168 35.2256-13.312 48.7424 0 13.5168 13.5168 13.5168 35.2256 0 48.7424l-33.5872 33.5872c-6.7584 6.7584-15.5648 10.0352-24.3712 10.0352z m33.5872-81.92c-3.4816 0-7.168 1.4336-9.8304 4.096l-33.5872 33.5872c-5.5296 5.5296-5.5296 14.336 0 19.6608 5.5296 5.5296 14.336 5.5296 19.6608 0l33.5872-33.5872c5.5296-5.5296 5.5296-14.336 0-19.6608-2.6624-2.6624-6.144-4.096-9.8304-4.096z" fill="#1C1D21" p-id="11556"></path><path d="M643.072 282.624l-51.6096 51.6096c-20.48-20.48-53.6576-20.48-74.1376 0L429.6704 421.888c-11.8784 11.8784-11.8784 31.1296 0 43.008 8.6016 8.6016 22.528 8.6016 30.9248 0l80.0768-80.0768" fill="#C67552" p-id="11557"></path><path d="M445.2352 481.4848c-8.6016 0-16.5888-3.2768-22.7328-9.4208-15.9744-15.9744-15.9744-41.7792 0-57.5488l87.6544-87.6544c21.9136-21.9136 56.32-24.1664 80.6912-6.5536l44.8512-44.8512c4.096-4.096 10.4448-4.096 14.5408 0s4.096 10.4448 0 14.5408l-51.6096 51.6096c-4.096 4.096-10.4448 4.096-14.5408 0-16.384-16.384-43.2128-16.384-59.5968 0l-87.6544 87.6544c-7.9872 7.9872-7.9872 20.6848 0 28.672 2.2528 2.2528 5.12 3.4816 8.192 3.4816s6.144-1.2288 8.192-3.4816l86.2208-86.2208c4.096-4.096 10.4448-4.096 14.5408 0s4.096 10.4448 0 14.5408l-86.2208 86.2208c-5.7344 5.7344-13.9264 9.0112-22.528 9.0112z" fill="#1C1D21" p-id="11558"></path></svg>