<svg xmlns="http://www.w3.org/2000/svg" viewBox="0 0 1024 1024" version="1.1"><path d="M512 512m-501.76 0a501.76 501.76 0 1 0 1003.52 0 501.76 501.76 0 1 0-1003.52 0Z" fill="#508DEF" p-id="14169"></path><path d="M512 1024c-136.8064 0-265.4208-53.248-362.0864-149.9136C53.248 777.4208 0 648.8064 0 512S53.248 246.5792 149.9136 149.9136C246.5792 53.248 375.1936 0 512 0s265.4208 53.248 362.0864 149.9136C970.752 246.5792 1024 375.1936 1024 512s-53.248 265.4208-149.9136 362.0864C777.4208 970.752 648.8064 1024 512 1024z m0-1003.52C241.0496 20.48 20.48 241.0496 20.48 512s220.5696 491.52 491.52 491.52 491.52-220.5696 491.52-491.52S782.9504 20.48 512 20.48z" fill="#1C1D21" p-id="14170"></path><path d="M660.8896 814.2848L598.016 775.5776c-24.7808-15.36-39.936-42.3936-39.936-71.68v-25.3952c0-14.1312 8.3968-26.624 21.0944-32.768 54.4768-25.6 92.16-80.896 92.16-145.2032v-73.728c0-88.4736-71.8848-160.3584-160.3584-160.3584-88.4736 0-160.3584 71.8848-160.3584 160.3584v73.728c0 64.1024 37.6832 119.6032 92.16 145.2032 12.6976 5.9392 21.0944 18.6368 21.0944 32.768v25.3952c0 29.2864-15.1552 56.32-39.936 71.68l-62.8736 38.7072c-49.7664 30.72-80.2816 84.3776-81.92 142.5408C348.9792 993.0752 428.032 1013.76 512 1013.76c83.1488 0 161.792-20.2752 230.8096-56.1152-1.2288-58.5728-31.9488-112.64-81.92-143.36z" fill="#FFC5B3" p-id="14171"></path><path d="M660.8896 814.2848L598.016 775.5776c-7.3728-4.5056-13.9264-10.24-19.456-16.5888l-47.7184 42.3936c-11.264 10.0352-28.0576 10.0352-39.3216 0l-47.7184-42.3936c-5.5296 6.3488-12.0832 12.0832-19.456 16.5888l-62.8736 38.7072c-49.7664 30.72-80.2816 84.3776-81.92 142.5408C348.9792 993.0752 428.032 1013.76 512 1013.76c83.1488 0 161.792-20.2752 230.8096-56.1152-1.2288-58.5728-31.9488-112.64-81.92-143.36z" fill="#FFECE9" p-id="14172"></path><path d="M481.28 1012.736c10.24 0.6144 20.2752 1.024 30.72 1.024 9.8304 0 19.456-0.4096 29.0816-0.8192L511.1808 851.968 481.28 1012.736z" fill="#FF3E63" p-id="14173"></path><path d="M512 1024c-10.0352 0-20.2752-0.4096-31.3344-1.024-2.8672-0.2048-5.7344-1.6384-7.3728-3.8912s-2.4576-5.3248-2.048-8.192l29.9008-160.768c0.8192-4.9152 5.12-8.3968 10.0352-8.3968s9.216 3.4816 10.0352 8.3968l29.9008 160.9728c0.6144 2.8672-0.2048 5.9392-2.048 8.192s-4.5056 3.6864-7.3728 3.8912c-10.24 0.6144-20.2752 0.8192-29.696 0.8192z m-18.432-20.8896c11.8784 0.4096 23.1424 0.4096 35.2256 0l-17.6128-95.0272-17.6128 95.0272z" fill="#1C1D21" p-id="14174"></path><path d="M327.2704 491.1104h22.528v-84.7872h-22.528c-20.0704 0-36.2496 16.1792-36.2496 36.2496v12.288c0 20.0704 16.1792 36.2496 36.2496 36.2496zM695.296 491.1104h-22.528v-84.7872h22.528c20.0704 0 36.2496 16.1792 36.2496 36.2496v12.288c0 20.0704-16.384 36.2496-36.2496 36.2496z" fill="#FFC5B3" p-id="14175"></path><path d="M349.7984 501.3504h-22.528c-25.6 0-46.4896-20.8896-46.4896-46.4896v-12.288c0-25.6 20.8896-46.4896 46.4896-46.4896h22.528c5.7344 0 10.24 4.5056 10.24 10.24v84.7872c0 5.5296-4.5056 10.24-10.24 10.24z m-22.528-84.7872c-14.336 0-26.0096 11.6736-26.0096 26.0096v12.288c0 14.336 11.6736 26.0096 26.0096 26.0096h12.288v-64.3072h-12.288zM695.296 501.3504h-22.528c-5.7344 0-10.24-4.5056-10.24-10.24v-84.7872c0-5.7344 4.5056-10.24 10.24-10.24h22.528c25.6 0 46.4896 20.8896 46.4896 46.4896v12.288c0 25.6-20.8896 46.4896-46.4896 46.4896z m-12.4928-20.48h12.288c14.336 0 26.0096-11.6736 26.0096-26.0096v-12.288c0-14.336-11.6736-26.0096-26.0096-26.0096h-12.288v64.3072z" fill="#1C1D21" p-id="14176"></path><path d="M511.1808 266.24c-4.7104 0-9.216 0.2048-13.9264 0.6144-75.3664 6.3488-135.7824 64.9216-145.2032 139.4688 139.264-0.4096 159.744-71.68 159.744-71.68s20.2752 70.656 158.5152 71.4752c-10.0352-78.848-77.4144-139.8784-159.1296-139.8784z" fill="#FF8939" p-id="14177"></path><path d="M743.6288 967.4752c-5.3248 0-9.8304-4.096-10.24-9.4208-2.4576-32.9728-10.8544-60.8256-25.3952-85.4016-3.2768-3.4816-5.5296-6.9632-7.7824-10.6496-0.8192-1.2288-1.6384-2.4576-2.6624-4.096-18.2272-22.9376-42.1888-36.0448-67.3792-49.9712-14.9504-8.192-30.3104-16.7936-45.056-27.648-0.2048 0-0.2048-0.2048-0.4096-0.2048-10.24-8.192-19.456-19.0464-27.0336-31.3344-0.4096-0.6144-0.6144-1.2288-1.024-2.048-0.8192-2.4576-1.6384-4.9152-2.4576-7.168-3.2768-9.6256-6.3488-18.6368-8.192-29.0816v-0.6144c-1.8432-17.6128-2.048-43.6224 16.7936-65.1264 0.2048-0.2048 0.2048-0.4096 0.4096-0.4096 8.3968-8.3968 18.8416-14.1312 28.8768-19.456 6.144-3.2768 12.0832-6.5536 17.408-10.24 23.1424-17.408 34.6112-43.6224 43.6224-66.9696 11.8784-34.2016 10.0352-69.632 8.192-107.1104-0.6144-11.0592-1.2288-22.528-1.4336-33.9968 0-5.7344 4.5056-10.24 10.0352-10.4448h0.2048c5.5296 0 10.24 4.5056 10.24 10.0352 0.2048 11.0592 0.8192 22.3232 1.4336 33.1776 2.048 37.6832 3.8912 76.8-9.216 114.8928 0 0.2048 0 0.2048-0.2048 0.4096-10.0352 26.0096-22.9376 55.5008-50.5856 76.1856 0 0-0.2048 0-0.2048 0.2048-6.3488 4.5056-13.1072 8.192-19.6608 11.6736-9.0112 4.9152-17.6128 9.4208-23.9616 15.7696-10.0352 11.6736-13.7216 27.2384-11.6736 48.9472 1.4336 8.8064 4.096 16.5888 7.3728 25.6 0.6144 2.048 1.4336 4.096 2.2528 6.3488 6.144 9.8304 13.5168 18.432 21.504 24.9856 13.5168 10.0352 28.4672 18.2272 42.5984 26.0096 26.0096 14.336 53.0432 29.2864 73.728 55.7056 0.2048 0.2048 0.4096 0.4096 0.4096 0.6144 1.2288 1.6384 2.048 3.2768 3.072 4.7104 2.2528 3.4816 3.6864 5.9392 5.9392 7.9872 0.6144 0.6144 1.024 1.2288 1.4336 1.8432 16.7936 27.648 26.2144 58.7776 29.0816 95.4368 0.4096 5.7344-3.8912 10.6496-9.4208 11.0592 0-0.2048-0.4096-0.2048-0.6144-0.2048zM279.552 967.0656c-5.7344 0-10.24-4.7104-10.24-10.4448 0.2048-17.2032 1.6384-30.5152 4.7104-43.6224 0-0.2048 0.2048-0.4096 0.2048-0.8192 14.1312-45.056 37.6832-77.6192 71.8848-99.7376 8.8064-5.7344 17.408-10.8544 25.8048-15.9744 24.7808-15.1552 48.128-29.4912 68.8128-50.176 11.264-11.264 13.5168-30.5152 15.36-47.3088l0.2048-1.2288v-5.12c0.2048-15.36-0.2048-25.1904-7.5776-30.72-24.1664-13.312-43.008-26.2144-60.6208-41.984l-0.4096-0.4096c-26.0096-26.0096-41.5744-58.368-45.8752-96.256-2.8672-27.8528-1.8432-55.7056-0.6144-82.5344 0.4096-11.4688 1.024-23.3472 1.024-34.816 0-5.7344 4.7104-10.24 10.4448-10.0352 5.7344 0 10.24 4.7104 10.0352 10.4448-0.2048 11.6736-0.6144 23.7568-1.024 35.4304-1.024 26.0096-2.2528 53.0432 0.6144 79.4624 3.8912 32.768 17.2032 61.0304 39.936 83.7632 16.7936 14.9504 33.9968 26.624 57.344 39.3216 0.4096 0.2048 0.6144 0.4096 1.024 0.6144 17.2032 12.288 16.7936 32.1536 16.5888 48.128v6.5536l-0.2048 1.8432c-2.048 19.2512-4.7104 43.2128-21.0944 59.5968-22.3232 22.3232-46.6944 37.2736-72.704 53.0432-8.192 5.12-16.7936 10.24-25.3952 15.7696-29.9008 19.2512-50.5856 48.128-63.2832 88.2688-2.6624 11.4688-3.8912 23.3472-4.096 38.7072-0.6144 5.7344-5.12 10.24-10.8544 10.24z" fill="#1C1D21" p-id="14178"></path><path d="M512 1024c-82.5344 0-164.4544-20.0704-237.1584-58.1632-3.4816-1.8432-5.5296-5.3248-5.5296-9.4208 1.6384-62.0544 33.9968-118.3744 86.6304-150.9376l62.8736-38.7072c6.3488-3.8912 12.0832-8.8064 17.2032-14.7456 1.6384-2.048 4.096-3.2768 6.7584-3.4816 2.8672-0.4096 5.7344 0.6144 7.9872 2.4576l47.7184 42.3936c7.3728 6.5536 18.432 6.5536 25.8048 0l47.7184-42.3936c1.8432-1.6384 4.3008-2.6624 6.7584-2.6624 3.072 0 5.9392 1.2288 7.7824 3.4816 4.9152 5.7344 10.6496 10.6496 17.2032 14.7456l62.8736 38.7072c53.0432 32.768 85.4016 89.4976 86.6304 151.9616 0 3.8912-2.048 7.5776-5.5296 9.216C675.2256 1004.1344 593.92 1024 512 1024z m-222.0032-73.3184C358.4 985.2928 434.9952 1003.52 512 1003.52c77.6192 0 151.552-17.408 220.3648-52.0192-3.072-52.8384-31.5392-100.5568-76.8-128.6144l-62.8736-38.7072c-5.3248-3.2768-10.24-6.9632-14.7456-11.264l-40.5504 35.84c-15.1552 13.312-37.888 13.312-52.8384 0l-40.5504-35.84c-4.5056 4.3008-9.4208 7.9872-14.7456 11.264l-62.8736 38.7072c-44.6464 27.8528-72.9088 75.1616-76.3904 127.7952z" fill="#1C1D21" p-id="14179"></path><path d="M528.384 860.3648l44.6464-84.7872h-13.1072l-29.0816 25.6c-11.264 10.0352-28.0576 10.0352-39.3216 0l-29.0816-25.6h-13.1072l44.6464 84.7872c8.3968 16.1792 26.0096 16.1792 34.4064 0z" fill="#FF3E63" p-id="14180"></path><path d="M511.1808 882.688c-10.6496 0-20.48-6.5536-26.4192-17.6128L440.32 780.0832c-1.6384-3.2768-1.6384-6.9632 0.2048-10.0352 1.8432-3.072 5.12-4.9152 8.8064-4.9152h13.1072c2.4576 0 4.9152 0.8192 6.7584 2.6624l29.0816 25.6c7.3728 6.5536 18.432 6.5536 25.8048 0l29.0816-25.6c1.8432-1.6384 4.3008-2.6624 6.7584-2.6624h13.1072c3.6864 0 6.9632 1.8432 8.8064 4.9152 1.8432 3.072 2.048 6.9632 0.2048 10.0352l-44.6464 84.7872c-5.7344 11.264-15.5648 17.8176-26.2144 17.8176z m-38.2976-84.3776l30.1056 57.1392c2.2528 4.096 5.3248 6.7584 8.192 6.7584s5.9392-2.4576 8.192-6.7584l30.1056-57.1392-11.8784 10.4448c-15.1552 13.312-37.888 13.312-52.8384 0l-11.8784-10.4448z m55.5008 62.0544z" fill="#1C1D21" p-id="14181"></path><path d="M443.8016 758.784c-0.2048 0-0.2048 0 0 0-1.2288 1.4336-2.6624 2.8672-3.8912 4.096l-1.024 1.024c-1.2288 1.2288-2.6624 2.6624-4.096 3.6864-0.2048 0.2048-0.4096 0.2048-0.4096 0.4096-1.2288 1.024-2.6624 2.048-3.8912 3.072-0.4096 0.4096-1.024 0.6144-1.4336 1.024-1.4336 1.024-2.8672 2.048-4.5056 3.072V866.304l66.9696-65.1264-47.7184-42.3936zM578.56 758.784s0.2048 0 0 0c1.2288 1.4336 2.6624 2.8672 3.8912 4.096l1.024 1.024c1.2288 1.2288 2.6624 2.6624 4.096 3.6864 0.2048 0.2048 0.4096 0.2048 0.4096 0.4096 1.2288 1.024 2.6624 2.048 3.8912 3.072 0.4096 0.4096 1.024 0.6144 1.4336 1.024 1.4336 1.024 2.8672 2.048 4.5056 3.072V866.304l-66.9696-65.1264 47.7184-42.3936z" fill="#FFECE9" p-id="14182"></path><path d="M424.5504 876.544c-1.4336 0-2.6624-0.2048-3.8912-0.8192-3.8912-1.6384-6.3488-5.3248-6.3488-9.4208v-91.136c0-3.4816 1.8432-6.7584 4.9152-8.6016 1.2288-0.8192 2.4576-1.6384 3.8912-2.6624 0.4096-0.2048 0.8192-0.6144 1.2288-1.024 1.2288-1.024 2.4576-1.8432 3.4816-2.6624l0.4096-0.4096c1.024-0.8192 2.2528-2.048 3.4816-3.2768l0.8192-0.8192c1.2288-1.4336 2.4576-2.4576 3.2768-3.4816l0.2048-0.2048c1.6384-1.8432 3.8912-3.072 6.5536-3.2768 2.8672-0.4096 5.7344 0.6144 7.9872 2.4576l47.7184 42.3936c2.048 1.8432 3.2768 4.5056 3.4816 7.3728s-1.024 5.5296-3.072 7.5776l-66.9696 65.1264c-2.048 1.8432-4.7104 2.8672-7.168 2.8672z m10.24-95.8464v61.44l41.7792-40.5504-32.1536-28.4672c-1.024 1.024-1.8432 1.8432-2.8672 2.6624-0.2048 0.2048-0.4096 0.2048-0.6144 0.4096-1.4336 1.2288-2.8672 2.2528-4.3008 3.4816-0.6144 0-1.2288 0.4096-1.8432 1.024 0-0.2048 0 0 0 0z m8.8064-21.9136zM597.8112 876.544c-2.6624 0-5.12-1.024-7.168-2.8672l-66.9696-65.1264c-2.048-2.048-3.072-4.7104-3.072-7.5776s1.2288-5.5296 3.4816-7.3728l47.7184-42.3936c2.2528-2.048 5.3248-2.8672 8.192-2.4576 2.2528 0.4096 4.5056 1.4336 6.144 3.072l0.4096 0.4096c0.8192 1.024 1.8432 2.048 3.2768 3.4816l0.8192 0.8192c1.4336 1.4336 2.4576 2.4576 3.6864 3.2768l0.4096 0.4096c1.024 0.8192 2.2528 1.8432 3.4816 2.6624 0.4096 0.4096 0.8192 0.6144 1.2288 1.024 1.4336 1.024 2.6624 1.8432 3.8912 2.6624 3.072 1.8432 4.9152 5.12 4.9152 8.6016V866.304c0 4.096-2.4576 7.7824-6.3488 9.4208-1.4336 0.6144-2.6624 0.8192-4.096 0.8192z m-52.0192-75.1616l41.7792 40.5504v-61.44h-0.2048c-0.6144-0.4096-1.024-0.8192-1.6384-1.2288-1.6384-1.2288-3.072-2.2528-4.3008-3.4816-0.2048-0.2048-0.4096-0.2048-0.6144-0.4096-1.024-0.8192-1.8432-1.6384-2.8672-2.6624l-32.1536 28.672z" fill="#1C1D21" p-id="14183"></path><path d="M361.472 814.2848c-49.7664 30.72-80.2816 84.3776-81.92 142.5408 2.6624 1.4336 5.5296 2.8672 8.3968 4.3008 0.2048 0 0.2048 0.2048 0.4096 0.2048 11.0592 5.5296 22.1184 10.6496 33.5872 15.36 0.4096 0.2048 1.024 0.4096 1.4336 0.6144l7.9872 3.072c0.4096 0.2048 0.8192 0.2048 1.024 0.4096 7.9872 3.072 16.1792 5.9392 24.3712 8.6016 1.024 0.2048 1.8432 0.6144 2.8672 0.8192 2.2528 0.8192 4.7104 1.4336 6.9632 2.048 1.2288 0.4096 2.2528 0.6144 3.4816 1.024 2.2528 0.6144 4.5056 1.4336 6.7584 2.048 1.024 0.2048 2.048 0.6144 2.8672 0.8192 4.3008 1.2288 8.6016 2.2528 12.6976 3.2768 1.4336 0.4096 2.6624 0.6144 4.096 1.024 2.048 0.4096 4.096 1.024 6.144 1.4336 1.6384 0.4096 3.072 0.6144 4.7104 1.024l6.144 1.2288c1.6384 0.4096 3.2768 0.6144 4.9152 1.024l6.144 1.2288V775.168l-0.2048 0.2048-62.8736 38.912z" fill="#AAADAD" p-id="14184"></path><path d="M424.5504 1016.4224c-0.6144 0-1.2288 0-1.8432-0.2048-51.6096-9.0112-101.376-26.0096-147.8656-50.3808-3.4816-1.8432-5.5296-5.3248-5.5296-9.4208 1.6384-62.0544 33.9968-118.3744 86.6304-150.9376l62.6688-38.7072c0.2048-0.2048 0.2048-0.2048 0.4096-0.2048 3.072-2.048 7.168-2.048 10.4448-0.2048 3.2768 1.8432 5.3248 5.3248 5.3248 9.0112v231.0144c0 3.072-1.4336 5.9392-3.6864 7.7824-1.8432 1.4336-4.3008 2.2528-6.5536 2.2528z m-134.5536-65.7408c39.3216 19.8656 81.1008 34.4064 124.1088 43.2128v-200.2944L366.592 822.8864c-44.8512 27.8528-73.1136 75.1616-76.5952 127.7952z m71.4752-136.3968z" fill="#1C1D21" p-id="14185"></path><path d="M597.8112 775.168v231.2192c51.4048-8.8064 100.1472-25.6 144.9984-48.7424-1.2288-58.5728-31.9488-112.64-81.92-143.36L598.016 775.5776c0-0.2048 0-0.4096-0.2048-0.4096z" fill="#AAADAD" p-id="14186"></path><path d="M597.8112 1016.6272c-2.4576 0-4.7104-0.8192-6.5536-2.4576-2.2528-2.048-3.6864-4.7104-3.6864-7.7824V775.168c0-3.6864 2.048-7.168 5.3248-9.0112 3.2768-1.8432 7.168-1.6384 10.4448 0.2048 0.2048 0 0.4096 0.2048 0.4096 0.4096l62.6688 38.7072c53.0432 32.768 85.4016 89.4976 86.6304 151.9616 0 3.8912-2.048 7.5776-5.5296 9.216-46.4896 24.1664-96.256 40.96-147.8656 49.7664-0.6144 0.2048-1.2288 0.2048-1.8432 0.2048z m10.24-223.0272v200.4992c43.2128-8.6016 84.7872-22.9376 124.1088-42.5984-3.072-52.8384-31.5392-100.5568-76.8-128.6144l-47.3088-29.2864z" fill="#1C1D21" p-id="14187"></path><path d="M374.9888 984.6784c-1.4336 3.072-2.6624 5.9392-3.8912 9.0112 17.408 5.12 35.0208 9.216 53.0432 12.4928l-0.2048-230.8096-57.344 142.1312c-4.9152 12.288 4.096 25.8048 17.408 25.8048 4.7104 0 7.9872 4.9152 5.9392 9.216l-14.9504 32.1536zM638.1568 943.5136c13.312 0 22.528-13.5168 17.408-25.8048L598.016 775.3728v231.0144c18.0224-3.072 35.84-7.168 53.248-12.288-1.2288-3.2768-2.6624-6.3488-4.096-9.4208l-14.9504-31.9488c-1.8432-4.3008 1.2288-9.216 5.9392-9.216z" fill="#AAADAD" p-id="14188"></path><path d="M598.016 1016.6272c-2.4576 0-4.7104-0.8192-6.5536-2.4576-2.2528-2.048-3.6864-4.9152-3.6864-7.7824l0.2048-231.0144c0-4.9152 3.4816-9.0112 8.192-10.0352 4.9152-1.024 9.6256 1.6384 11.4688 6.144l57.5488 142.1312c3.6864 9.0112 2.6624 19.0464-2.8672 27.0336-4.3008 6.3488-11.0592 10.8544-18.432 12.288l12.6976 27.2384c1.4336 3.072 2.8672 6.3488 4.3008 10.0352 1.024 2.6624 0.8192 5.7344-0.4096 8.192-1.2288 2.6624-3.4816 4.5056-6.3488 5.3248-17.8176 5.12-36.0448 9.4208-54.4768 12.4928-0.6144 0.4096-1.024 0.4096-1.6384 0.4096z m10.24-188.6208v166.0928c9.8304-1.8432 19.456-4.096 29.0816-6.7584l-14.1312-30.3104c-2.4576-5.12-2.048-11.264 1.024-15.9744 3.072-4.9152 8.3968-7.7824 14.1312-7.7824 2.8672 0 5.5296-1.4336 7.168-3.6864 1.6384-2.4576 1.8432-5.3248 0.8192-7.9872L608.256 828.0064z" fill="#1C1D21" p-id="14189"></path><path d="M460.3904 618.7008c-1.4336 0-2.8672-0.4096-4.3008-1.024-45.2608-21.2992-74.5472-67.3792-74.5472-117.3504v-73.728c0-8.3968 0.8192-16.5888 2.4576-24.7808 1.024-5.5296 6.3488-9.216 12.0832-8.192 5.5296 1.024 9.216 6.5536 8.192 12.0832-1.2288 6.7584-2.048 13.9264-2.048 20.8896v73.728c0 42.1888 24.576 80.896 62.8736 98.9184 5.12 2.4576 7.3728 8.6016 4.9152 13.7216-2.048 3.4816-5.7344 5.7344-9.6256 5.7344z" fill="#FFECE9" p-id="14190"></path><path d="M459.5712 329.1136c-3.8912 0-7.3728-2.048-9.216-5.7344-2.4576-5.12-0.4096-11.264 4.7104-13.7216 1.8432-0.8192 3.8912-1.8432 5.7344-2.6624 5.12-2.2528 11.264 0.2048 13.5168 5.5296 2.2528 5.12-0.2048 11.264-5.5296 13.5168-1.6384 0.6144-3.2768 1.4336-4.7104 2.2528-1.6384 0.6144-3.072 0.8192-4.5056 0.8192zM394.0352 413.9008c-0.6144 0-1.2288 0-2.048-0.2048-5.5296-1.024-9.216-6.5536-8.192-12.0832 4.9152-25.8048 17.6128-49.152 36.4544-67.584 4.096-3.8912 10.4448-3.8912 14.5408 0.2048 3.8912 4.096 3.8912 10.4448-0.2048 14.5408-15.7696 15.5648-26.4192 35.2256-30.72 56.9344-0.8192 4.9152-5.12 8.192-9.8304 8.192z" fill="#FFC5B3" p-id="14191"></path><path d="M352.0512 416.5632c-2.8672 0-5.7344-1.2288-7.5776-3.4816-2.048-2.2528-2.8672-5.12-2.4576-7.9872 2.4576-19.8656 8.3968-38.912 17.6128-56.7296 2.6624-5.12 8.8064-6.9632 13.7216-4.3008 5.12 2.6624 6.9632 8.8064 4.3008 13.7216-6.144 12.0832-10.8544 24.7808-13.5168 38.0928 60.2112-2.048 94.0032-18.6368 112.2304-32.3584 20.48-15.5648 25.3952-31.5392 25.6-31.5392 1.2288-4.3008 5.3248-7.3728 9.8304-7.3728s8.6016 3.072 9.8304 7.3728c0 0 5.12 15.7696 25.3952 31.3344 18.0224 13.9264 51.6096 30.3104 111.2064 32.5632-14.336-68.8128-75.5712-119.1936-146.8416-119.1936-4.3008 0-8.6016 0.2048-12.9024 0.6144-5.5296 0.4096-10.6496-3.6864-11.0592-9.4208-0.4096-5.7344 3.6864-10.6496 9.4208-11.0592 4.9152-0.4096 9.8304-0.6144 14.7456-0.6144 85.6064 0 158.5152 64.1024 169.1648 148.8896 0.4096 2.8672-0.6144 5.9392-2.4576 7.9872s-4.9152 3.4816-7.7824 3.4816c-100.1472-0.6144-141.9264-37.0688-158.3104-60.2112-16.9984 23.3472-58.9824 59.8016-160.1536 60.2112z" fill="#1C1D21" p-id="14192"></path><path d="M387.4816 334.848c-2.2528 0-4.5056-0.8192-6.5536-2.2528-4.3008-3.6864-4.9152-10.0352-1.4336-14.336 10.24-12.288 22.1184-23.3472 35.2256-32.3584 4.7104-3.2768 11.0592-2.048 14.336 2.6624 3.2768 4.7104 2.048 11.0592-2.6624 14.336-11.6736 7.9872-22.1184 17.6128-31.1296 28.4672-2.048 2.2528-4.9152 3.4816-7.7824 3.4816zM454.656 286.72c-4.096 0-7.9872-2.4576-9.6256-6.5536-2.048-5.3248 0.6144-11.264 5.9392-13.1072 2.6624-1.024 5.3248-1.8432 7.9872-2.6624 5.3248-1.6384 11.0592 1.2288 12.9024 6.5536 1.6384 5.3248-1.2288 11.0592-6.5536 12.9024-2.2528 0.8192-4.7104 1.6384-6.9632 2.4576-1.2288 0.2048-2.4576 0.4096-3.6864 0.4096zM424.3456 1016.4224c-0.6144 0-1.2288 0-1.8432-0.2048-18.2272-3.2768-36.4544-7.3728-54.272-12.6976-2.6624-0.8192-5.12-2.6624-6.3488-5.3248-1.2288-2.6624-1.4336-5.5296-0.4096-8.192 1.4336-3.4816 2.6624-6.7584 4.096-9.6256l12.6976-27.2384c-7.3728-1.4336-14.1312-5.7344-18.432-12.288-5.3248-7.9872-6.5536-18.2272-2.8672-27.0336l57.5488-142.1312c1.8432-4.5056 6.5536-7.168 11.4688-6.144 4.7104 1.024 8.192 5.12 8.192 10.0352l0.2048 230.8096c0 3.072-1.4336 5.9392-3.6864 7.7824-1.6384 1.4336-3.8912 2.2528-6.3488 2.2528z m-39.1168-29.4912c9.6256 2.4576 19.2512 4.7104 28.8768 6.7584v-165.888l-37.888 93.5936c-1.024 2.6624-0.8192 5.5296 0.8192 7.9872 1.6384 2.4576 4.3008 3.6864 7.168 3.6864 5.7344 0 11.0592 2.8672 14.1312 7.7824s3.4816 10.8544 1.024 15.9744l-14.1312 30.1056z" fill="#1C1D21" p-id="14193"></path><path d="M915.6608 692.8384l-6.9632 6.9632c-6.9632 6.9632-18.0224 6.9632-24.9856 0l-144.5888-144.5888 31.9488-31.9488 144.5888 144.5888c6.7584 6.9632 6.7584 18.0224 0 24.9856z" fill="#C67552" p-id="14194"></path><path d="M896.2048 713.1136c-8.3968 0-16.7936-3.2768-23.1424-9.6256l-112.64-112.64-28.4672-28.4672c-4.096-4.096-4.096-10.4448 0-14.5408L763.904 516.096c1.8432-1.8432 4.5056-3.072 7.168-3.072s5.3248 1.024 7.168 3.072l141.1072 141.1072c12.6976 12.6976 12.6976 33.5872 0 46.2848-6.3488 6.3488-14.7456 9.6256-23.1424 9.6256z m-121.4464-136.8064l112.64 112.64c2.2528 2.2528 5.3248 3.6864 8.6016 3.6864s6.3488-1.2288 8.6016-3.6864c2.2528-2.2528 3.6864-5.3248 3.6864-8.6016s-1.2288-6.3488-3.6864-8.6016l-133.9392-133.9392-17.408 17.408 21.504 21.0944z" fill="#1C1D21" p-id="14195"></path><path d="M586.752 370.8928c-49.7664 49.7664-49.7664 130.2528 0 180.0192 49.7664 49.7664 130.2528 49.7664 180.0192 0 49.7664-49.7664 49.7664-130.2528 0-180.0192-49.7664-49.5616-130.2528-49.5616-180.0192 0z" fill="#8CEEF9" p-id="14196"></path><path d="M670.1056 385.024c-5.3248 0-9.8304-4.096-10.24-9.4208-0.4096-5.7344 3.8912-10.6496 9.4208-11.0592 2.4576-0.2048 4.9152-0.2048 7.3728-0.2048 5.7344 0 10.24 4.5056 10.24 10.24s-4.5056 10.24-10.24 10.24c-1.8432 0-3.8912 0-5.7344 0.2048h-0.8192zM590.4384 471.04c-5.7344 0-10.24-4.5056-10.24-10.24 0-25.8048 10.0352-49.9712 28.2624-68.1984 6.144-6.144 12.9024-11.4688 20.48-15.5648 4.9152-2.8672 11.264-1.024 13.9264 3.8912 2.8672 4.9152 1.024 11.264-3.8912 13.9264-5.9392 3.2768-11.264 7.5776-16.1792 12.288-14.336 14.336-22.3232 33.3824-22.3232 53.6576 0.2048 5.7344-4.3008 10.24-10.0352 10.24z" fill="#DCFDFF" p-id="14197"></path><path d="M676.864 598.2208c-35.2256 0-70.4512-13.312-97.28-40.1408-53.6576-53.6576-53.6576-140.9024 0-194.3552 26.0096-26.0096 60.416-40.3456 97.28-40.3456s71.2704 14.336 97.28 40.3456 40.3456 60.416 40.3456 97.28-14.336 71.2704-40.3456 97.28c-27.0336 26.624-62.2592 39.936-97.28 39.936z m0-254.3616c-31.3344 0-60.6208 12.0832-82.7392 34.2016-45.6704 45.6704-45.6704 119.808 0 165.4784s119.808 45.6704 165.4784 0c22.1184-22.1184 34.2016-51.4048 34.2016-82.7392 0-31.3344-12.0832-60.6208-34.2016-82.7392-22.1184-21.9136-51.6096-34.2016-82.7392-34.2016z" fill="#1C1D21" p-id="14198"></path><path d="M638.7712 582.2464c24.7808 7.7824 51.2 7.7824 75.9808 0v-140.6976l-61.8496 38.2976c-8.8064 5.5296-14.1312 14.9504-14.1312 25.3952v77.0048z" fill="#AAADAD" p-id="14199"></path><path d="M676.864 598.4256c-13.7216 0-27.648-2.048-40.96-6.3488-4.3008-1.4336-7.168-5.3248-7.168-9.8304v-77.0048c0-13.9264 7.168-26.624 18.8416-33.9968l61.8496-38.2976c3.072-2.048 7.168-2.048 10.4448-0.2048s5.3248 5.3248 5.3248 9.0112v140.6976c0 4.5056-2.8672 8.3968-7.168 9.8304-13.7216 3.8912-27.4432 6.144-41.1648 6.144z m-27.8528-23.9616c18.2272 4.5056 37.2736 4.5056 55.5008 0v-114.4832l-46.2848 28.672c-5.7344 3.6864-9.216 9.8304-9.216 16.5888v69.2224z" fill="#1C1D21" p-id="14200"></path><path d="M714.752 451.7888c-5.7344 0-10.24-4.5056-10.24-10.24v-24.9856c0-5.7344 4.5056-10.24 10.24-10.24s10.24 4.5056 10.24 10.24v24.9856c0 5.7344-4.5056 10.24-10.24 10.24zM676.864 518.7584c-5.7344 0-10.24-4.5056-10.24-10.24v-2.2528c0-5.7344 4.5056-10.24 10.24-10.24s10.24 4.5056 10.24 10.24v2.2528c0 5.5296-4.7104 10.24-10.24 10.24zM676.864 553.984c-5.7344 0-10.24-4.5056-10.24-10.24v-2.2528c0-5.7344 4.5056-10.24 10.24-10.24s10.24 4.5056 10.24 10.24v2.2528c0 5.7344-4.7104 10.24-10.24 10.24zM512 598.6304c-17.8176 0-34.2016-9.6256-43.2128-24.9856-2.8672-4.9152-1.2288-11.0592 3.6864-13.9264 4.9152-2.8672 11.0592-1.2288 13.9264 3.6864 5.3248 9.0112 14.9504 14.7456 25.3952 14.7456s20.2752-5.5296 25.3952-14.7456c2.8672-4.9152 9.0112-6.5536 13.9264-3.6864 4.9152 2.8672 6.5536 9.0112 3.6864 13.9264-8.6016 15.5648-24.9856 24.9856-42.8032 24.9856z" fill="#1C1D21" p-id="14201"></path><path d="M800.3584 491.1104H714.752v91.3408c19.0464-5.9392 36.864-16.384 52.0192-31.5392 16.9984-17.2032 28.2624-37.888 33.5872-59.8016z" fill="#AAADAD" p-id="14202"></path><path d="M714.752 592.4864c-2.2528 0-4.3008-0.6144-6.144-2.048-2.6624-1.8432-4.096-4.9152-4.096-8.192v-91.3408c0-5.7344 4.5056-10.24 10.24-10.24h85.6064c3.072 0 6.144 1.4336 7.9872 3.8912 1.8432 2.4576 2.6624 5.7344 1.8432 8.8064-5.9392 24.3712-18.432 46.6944-36.4544 64.512-15.5648 15.5648-35.0208 27.4432-56.1152 33.9968-0.8192 0.6144-1.8432 0.6144-2.8672 0.6144z m10.24-91.136v66.1504c12.9024-5.7344 24.3712-13.7216 34.6112-23.9616 12.0832-12.0832 21.2992-26.4192 27.0336-42.3936H724.992z" fill="#1C1D21" p-id="14203"></path><path d="M586.752 550.912c15.1552 15.1552 32.9728 25.6 52.0192 31.5392v-54.4768h-70.2464c5.12 7.9872 11.264 15.7696 18.2272 22.9376z" fill="#AAADAD" p-id="14204"></path><path d="M638.7712 592.4864c-1.024 0-2.048-0.2048-3.072-0.4096-21.0944-6.5536-40.5504-18.432-56.1152-33.9968-7.3728-7.3728-14.1312-15.7696-19.6608-24.7808-2.048-3.072-2.048-7.168-0.2048-10.4448 1.8432-3.2768 5.3248-5.3248 9.0112-5.3248H638.976c5.7344 0 10.24 4.5056 10.24 10.24v54.4768c0 3.2768-1.6384 6.3488-4.096 8.192-2.048 1.4336-4.096 2.048-6.3488 2.048z m-44.6464-48.9472c10.0352 10.0352 21.7088 18.2272 34.6112 23.9616v-29.2864h-39.7312c1.6384 1.8432 3.2768 3.6864 5.12 5.3248z" fill="#1C1D21" p-id="14205"></path></svg>