<svg xmlns="http://www.w3.org/2000/svg" viewBox="0 0 1024 1024" version="1.1"><path d="M512 512m-501.76 0a501.76 501.76 0 1 0 1003.52 0 501.76 501.76 0 1 0-1003.52 0Z" fill="#8CEEF9" p-id="13032"></path><path d="M431.5136 1007.4112c26.2144 4.3008 53.0432 6.3488 80.4864 6.3488 27.4432 0 54.4768-2.2528 80.6912-6.5536v-201.3184h-160.9728v201.5232z" fill="#C67552" p-id="13033"></path><path d="M131.072 331.3664c0 11.8784 9.6256 21.2992 21.2992 21.2992h22.3232c7.5776 0 14.7456 3.072 20.0704 8.3968l0.6144 0.6144c2.8672 2.8672 5.3248 6.3488 6.7584 10.24 4.096 10.8544 1.2288 22.528-6.3488 30.3104l-1.024 1.024c-5.3248 5.3248-12.4928 8.3968-20.0704 8.3968H152.3712c-11.8784 0-21.2992 9.6256-21.2992 21.2992 0 11.8784 9.6256 21.2992 21.2992 21.2992h56.7296c11.8784 0 23.3472-4.7104 31.9488-13.312l16.7936-16.7936c8.3968-8.3968 19.8656-13.312 31.9488-13.312h111.4112v-57.7536h-111.4112c-11.8784 0-23.3472-4.7104-31.9488-13.312l-16.7936-16.7936c-8.3968-8.3968-19.8656-13.312-31.9488-13.312H152.3712c-11.6736 0.4096-21.2992 9.8304-21.2992 21.7088zM891.2896 432.7424c0-11.8784-9.6256-21.2992-21.2992-21.2992h-22.3232c-7.5776 0-14.7456-3.072-20.0704-8.3968l-0.6144-0.6144c-2.8672-2.8672-5.3248-6.3488-6.7584-10.24-4.096-10.8544-1.2288-22.528 6.3488-30.3104l1.024-1.024c5.3248-5.3248 12.4928-8.3968 20.0704-8.3968h22.3232c11.8784 0 21.2992-9.6256 21.2992-21.2992 0-11.8784-9.6256-21.2992-21.2992-21.2992H813.056c-11.8784 0-23.3472 4.7104-31.9488 13.312l-16.7936 16.7936c-8.3968 8.3968-19.8656 13.312-31.9488 13.312h-111.4112v57.7536h111.4112c11.8784 0 23.3472 4.7104 31.9488 13.312l16.7936 16.7936c8.3968 8.3968 19.8656 13.312 31.9488 13.312h56.7296c11.8784-0.2048 21.504-9.8304 21.504-21.7088z" fill="#AAADAD" p-id="13034"></path><path d="M443.392 539.2384h135.3728v219.9552h-135.3728z" fill="#FFC5B3" p-id="13035"></path><path d="M443.392 585.728c-5.7344 0-10.24-4.5056-10.24-10.24v-36.2496c0-5.7344 4.5056-10.24 10.24-10.24s10.24 4.5056 10.24 10.24V575.488c0 5.7344-4.5056 10.24-10.24 10.24zM443.392 624.0256c-5.7344 0-10.24-4.5056-10.24-10.24v-6.7584c0-5.7344 4.5056-10.24 10.24-10.24s10.24 4.5056 10.24 10.24v6.7584c0 5.5296-4.5056 10.24-10.24 10.24zM578.9696 769.4336h-135.3728c-5.7344 0-10.24-4.5056-10.24-10.24v-108.544c0-5.7344 4.5056-10.24 10.24-10.24s10.24 4.5056 10.24 10.24v98.304h114.8928V539.2384c0-5.7344 4.5056-10.24 10.24-10.24s10.24 4.5056 10.24 10.24v219.9552c0 5.5296-4.7104 10.24-10.24 10.24z" fill="#1C1D21" p-id="13036"></path><path d="M493.9776 769.4336c-5.7344 0-10.24-4.5056-10.24-10.24V539.2384c0-5.7344 4.5056-10.24 10.24-10.24s10.24 4.5056 10.24 10.24v219.9552c0 5.5296-4.5056 10.24-10.24 10.24z" fill="#FFECE9" p-id="13037"></path><path d="M571.5968 329.9328H450.56c-27.2384 0-49.3568 22.1184-49.3568 49.3568v59.8016h-40.96v18.6368c0 42.3936 32.5632 77.2096 74.1376 80.896v0.4096h137.216c27.2384 0 49.3568-22.1184 49.3568-49.3568v-110.3872c0.2048-27.2384-21.9136-49.3568-49.3568-49.3568z" fill="#FFC5B3" p-id="13038"></path><path d="M571.5968 549.4784h-13.5168c-5.7344 0-10.24-4.5056-10.24-10.24s4.5056-10.24 10.24-10.24h13.5168c21.504 0 39.1168-17.6128 39.1168-39.1168v-110.3872c0-21.504-17.6128-39.1168-39.1168-39.1168H450.56c-21.504 0-39.1168 17.6128-39.1168 39.1168v59.8016c0 5.7344-4.5056 10.24-10.24 10.24h-30.72v8.3968c0 36.4544 28.4672 67.584 64.7168 70.656 0.6144 0 1.2288 0.2048 1.6384 0.2048h56.9344c5.7344 0 10.24 4.5056 10.24 10.24s-4.5056 10.24-10.24 10.24H434.176c-1.2288 0-2.4576-0.2048-3.4816-0.6144-46.2848-5.3248-80.896-44.032-80.896-90.9312v-18.6368c0-5.7344 4.5056-10.24 10.24-10.24h30.72v-49.5616c0-32.9728 26.8288-59.5968 59.5968-59.5968H571.392c32.9728 0 59.5968 26.8288 59.5968 59.5968v110.3872c0.4096 32.9728-26.4192 59.8016-59.392 59.8016z" fill="#1C1D21" p-id="13039"></path><path d="M593.5104 446.8736c-15.1552 0-27.4432-12.288-27.4432-27.4432v-74.9568c0-15.1552 12.288-27.4432 27.4432-27.4432s27.4432 12.288 27.4432 27.4432v74.9568c0.2048 15.1552-12.288 27.4432-27.4432 27.4432zM538.624 446.8736c-15.1552 0-27.4432-12.288-27.4432-27.4432v-74.9568c0-15.1552 12.288-27.4432 27.4432-27.4432s27.4432 12.288 27.4432 27.4432v74.9568c0 15.1552-12.288 27.4432-27.4432 27.4432zM483.7376 446.8736c-15.1552 0-27.4432-12.288-27.4432-27.4432v-74.9568c0-15.1552 12.288-27.4432 27.4432-27.4432s27.4432 12.288 27.4432 27.4432v74.9568c0 15.1552-12.288 27.4432-27.4432 27.4432z" fill="#FFC5B3" p-id="13040"></path><path d="M428.8512 446.8736c-15.1552 0-27.4432-12.288-27.4432-27.4432v-74.9568c0-15.1552 12.288-27.4432 27.4432-27.4432s27.4432 12.288 27.4432 27.4432v74.9568c0 15.1552-12.288 27.4432-27.4432 27.4432z" fill="#FFC5B3" p-id="13041"></path><path d="M593.5104 457.1136c-20.8896 0-37.6832-16.9984-37.6832-37.6832v-74.9568c0-20.8896 16.9984-37.6832 37.6832-37.6832s37.6832 16.9984 37.6832 37.6832v74.9568c0.2048 20.6848-16.7936 37.6832-37.6832 37.6832z m0-130.048c-9.4208 0-17.2032 7.7824-17.2032 17.2032v74.9568c0 9.4208 7.7824 17.2032 17.2032 17.2032s17.2032-7.7824 17.2032-17.2032v-74.9568c0.2048-9.4208-7.5776-17.2032-17.2032-17.2032z" fill="#1C1D21" p-id="13042"></path><path d="M538.624 457.1136c-20.8896 0-37.6832-16.9984-37.6832-37.6832v-74.9568c0-20.8896 16.9984-37.6832 37.6832-37.6832 20.8896 0 37.6832 16.9984 37.6832 37.6832v74.9568c0 20.6848-16.7936 37.6832-37.6832 37.6832z m0-130.048c-9.4208 0-17.2032 7.7824-17.2032 17.2032v74.9568c0 9.4208 7.7824 17.2032 17.2032 17.2032s17.2032-7.7824 17.2032-17.2032v-74.9568c0-9.4208-7.5776-17.2032-17.2032-17.2032z" fill="#1C1D21" p-id="13043"></path><path d="M483.7376 457.1136c-20.8896 0-37.6832-16.9984-37.6832-37.6832v-74.9568c0-20.8896 16.9984-37.6832 37.6832-37.6832s37.6832 16.9984 37.6832 37.6832v74.9568c0 20.6848-16.9984 37.6832-37.6832 37.6832z m0-130.048c-9.4208 0-17.2032 7.7824-17.2032 17.2032v74.9568c0 9.4208 7.7824 17.2032 17.2032 17.2032s17.2032-7.7824 17.2032-17.2032v-74.9568c0-9.4208-7.7824-17.2032-17.2032-17.2032z" fill="#1C1D21" p-id="13044"></path><path d="M428.8512 457.1136c-20.8896 0-37.6832-16.9984-37.6832-37.6832v-74.9568c0-20.8896 16.9984-37.6832 37.6832-37.6832 20.8896 0 37.6832 16.9984 37.6832 37.6832v74.9568c0 20.6848-16.9984 37.6832-37.6832 37.6832z m0-130.048c-9.4208 0-17.2032 7.7824-17.2032 17.2032v74.9568c0 9.4208 7.7824 17.2032 17.2032 17.2032s17.2032-7.7824 17.2032-17.2032v-74.9568c0-9.4208-7.7824-17.2032-17.2032-17.2032z" fill="#1C1D21" p-id="13045"></path><path d="M438.4768 411.0336h-49.9712c-15.5648 0-28.2624 12.6976-28.2624 28.2624s12.6976 28.2624 28.2624 28.2624h49.9712c15.5648 0 28.2624-12.6976 28.2624-28.2624s-12.4928-28.2624-28.2624-28.2624z" fill="#FFC5B3" p-id="13046"></path><path d="M438.4768 477.7984h-49.9712c-21.2992 0-38.5024-17.2032-38.5024-38.5024s17.2032-38.5024 38.5024-38.5024h49.9712c21.2992 0 38.5024 17.2032 38.5024 38.5024s-17.2032 38.5024-38.5024 38.5024z m-49.9712-56.5248c-10.0352 0-18.0224 8.192-18.0224 18.0224s8.192 18.0224 18.0224 18.0224h49.9712c10.0352 0 18.0224-8.192 18.0224-18.0224s-8.192-18.0224-18.0224-18.0224h-49.9712z" fill="#1C1D21" p-id="13047"></path><path d="M512 1024c-136.8064 0-265.4208-53.248-362.0864-149.9136C53.248 777.4208 0 648.8064 0 512S53.248 246.5792 149.9136 149.9136C246.5792 53.248 375.1936 0 512 0s265.4208 53.248 362.0864 149.9136C970.752 246.5792 1024 375.1936 1024 512s-53.248 265.4208-149.9136 362.0864C777.4208 970.752 648.8064 1024 512 1024z m0-1003.52C241.0496 20.48 20.48 241.0496 20.48 512s220.5696 491.52 491.52 491.52 491.52-220.5696 491.52-491.52S782.9504 20.48 512 20.48z" fill="#1C1D21" p-id="13048"></path><path d="M209.3056 464.4864H152.3712c-17.408 0-31.5392-14.1312-31.5392-31.5392S134.9632 401.408 152.3712 401.408h22.3232c4.7104 0 9.4208-1.8432 12.9024-5.3248l1.024-1.024c5.12-5.12 6.7584-12.4928 4.096-19.456-0.8192-2.2528-2.4576-4.5056-4.5056-6.7584l-0.6144-0.6144c-3.2768-3.2768-7.9872-5.3248-12.9024-5.3248H152.3712c-17.408 0-31.5392-14.1312-31.5392-31.5392s14.1312-31.5392 31.5392-31.5392h56.7296c14.7456 0 28.672 5.7344 39.1168 16.1792l16.7936 16.7936c6.5536 6.5536 15.36 10.24 24.576 10.24H329.728c5.7344 0 10.24 4.5056 10.24 10.24s-4.5056 10.24-10.24 10.24h-39.936c-14.7456 0-28.672-5.7344-39.1168-16.1792l-16.7936-16.7936c-6.5536-6.5536-15.36-10.24-24.576-10.24H152.3712c-6.144 0-11.0592 4.9152-11.0592 11.0592s4.9152 11.0592 11.0592 11.0592h22.3232c10.24 0 20.0704 4.096 27.2384 11.264l0.6144 0.6144c4.3008 4.3008 7.3728 8.8064 9.216 13.9264 5.3248 14.336 1.8432 30.3104-8.8064 41.1648l-1.024 1.024c-7.3728 7.3728-16.9984 11.264-27.2384 11.264H152.3712c-6.144 0-11.0592 4.9152-11.0592 11.0592s4.9152 11.0592 11.0592 11.0592h56.7296c9.216 0 18.0224-3.6864 24.576-10.24l16.7936-16.7936c10.4448-10.4448 24.3712-16.1792 39.1168-16.1792h101.1712v-37.2736h-21.7088c-5.7344 0-10.24-4.5056-10.24-10.24s4.5056-10.24 10.24-10.24h31.9488c5.7344 0 10.24 4.5056 10.24 10.24v57.7536c0 5.7344-4.5056 10.24-10.24 10.24h-111.4112c-9.216 0-18.0224 3.6864-24.576 10.24l-16.7936 16.7936c-10.24 10.4448-24.1664 16.384-38.912 16.384zM869.9904 464.4864H813.056c-14.7456 0-28.672-5.7344-39.1168-16.1792l-16.7936-16.7936c-6.5536-6.5536-15.36-10.24-24.576-10.24h-43.8272c-5.7344 0-10.24-4.5056-10.24-10.24s4.5056-10.24 10.24-10.24h43.8272c14.7456 0 28.672 5.7344 39.1168 16.1792l16.7936 16.7936c6.5536 6.5536 15.36 10.24 24.576 10.24h56.7296c6.144 0 11.0592-4.9152 11.0592-11.0592s-4.9152-11.0592-11.0592-11.0592h-22.3232c-10.24 0-20.0704-4.096-27.2384-11.264l-0.6144-0.6144c-4.3008-4.3008-7.3728-8.8064-9.216-13.9264-5.3248-14.336-1.8432-30.3104 8.8064-41.1648l1.024-1.024c7.3728-7.3728 16.9984-11.264 27.2384-11.264h22.3232c6.144 0 11.0592-4.9152 11.0592-11.0592s-4.9152-11.0592-11.0592-11.0592H813.056c-9.216 0-18.0224 3.6864-24.576 10.24l-16.7936 16.7936c-10.4448 10.4448-24.3712 16.1792-39.1168 16.1792h-101.1712v37.2736h20.6848c5.7344 0 10.24 4.5056 10.24 10.24s-4.5056 10.24-10.24 10.24h-30.9248c-5.7344 0-10.24-4.5056-10.24-10.24v-57.7536c0-5.7344 4.5056-10.24 10.24-10.24h111.4112c9.216 0 18.0224-3.6864 24.576-10.24l16.7936-16.7936c10.4448-10.4448 24.3712-16.1792 39.1168-16.1792h56.7296c17.408 0 31.5392 14.1312 31.5392 31.5392s-14.1312 31.5392-31.5392 31.5392h-22.3232c-4.9152 0-9.4208 1.8432-12.9024 5.3248l-1.024 1.024c-5.12 5.12-6.7584 12.4928-4.096 19.456 0.8192 2.2528 2.4576 4.5056 4.5056 6.7584l0.6144 0.6144c3.4816 3.4816 7.9872 5.3248 12.9024 5.3248h22.3232c17.408 0 31.5392 14.1312 31.5392 31.5392s-13.9264 31.3344-31.3344 31.3344zM428.2368 502.9888c-5.7344 0-10.24-4.5056-10.24-10.24v-25.1904c0-5.7344 4.5056-10.24 10.24-10.24s10.24 4.5056 10.24 10.24v25.1904c0 5.7344-4.5056 10.24-10.24 10.24z" fill="#1C1D21" p-id="13049"></path><path d="M485.7856 1024c-5.7344 0-10.24-4.5056-10.24-10.24v-187.1872c0-5.7344 4.5056-10.24 10.24-10.24s10.24 4.5056 10.24 10.24V1013.76c0 5.7344-4.5056 10.24-10.24 10.24z" fill="#FFA364" p-id="13050"></path><path d="M512 1024c-27.4432 0-54.8864-2.2528-82.1248-6.5536-4.9152-0.8192-8.6016-5.12-8.6016-10.0352v-201.3184c0-5.7344 4.5056-10.24 10.24-10.24h160.9728c5.7344 0 10.24 4.5056 10.24 10.24v201.3184c0 5.12-3.6864 9.216-8.6016 10.0352-27.0336 4.3008-54.6816 6.5536-82.1248 6.5536z m-70.2464-25.3952c46.4896 6.5536 94.0032 6.5536 140.4928 0v-182.272h-140.4928v182.272z" fill="#1C1D21" p-id="13051"></path><path d="M427.6224 759.1936h167.1168c6.7584 0 12.0832 5.3248 12.0832 12.0832v43.2128c0 6.7584-5.3248 12.0832-12.0832 12.0832h-167.1168c-6.7584 0-12.0832-5.3248-12.0832-12.0832v-43.2128c0-6.7584 5.3248-12.0832 12.0832-12.0832z" fill="#C67552" p-id="13052"></path><path d="M485.7856 836.8128c-5.7344 0-10.24-4.5056-10.24-10.24v-67.3792c0-5.7344 4.5056-10.24 10.24-10.24s10.24 4.5056 10.24 10.24v67.3792c0 5.5296-4.5056 10.24-10.24 10.24z" fill="#FFA364" p-id="13053"></path><path d="M594.7392 836.8128h-167.1168c-12.288 0-22.3232-10.0352-22.3232-22.3232v-43.2128c0-12.288 10.0352-22.3232 22.3232-22.3232h167.1168c12.288 0 22.3232 10.0352 22.3232 22.3232v43.2128c0 12.288-10.0352 22.3232-22.3232 22.3232z m-167.1168-67.3792c-1.024 0-1.8432 0.8192-1.8432 1.8432v43.2128c0 1.024 0.8192 1.8432 1.8432 1.8432h167.1168c1.024 0 1.8432-0.8192 1.8432-1.8432v-43.2128c0-1.024-0.8192-1.8432-1.8432-1.8432h-167.1168zM528.9984 549.4784h-4.096c-5.7344 0-10.24-4.5056-10.24-10.24s4.5056-10.24 10.24-10.24h4.096c5.7344 0 10.24 4.5056 10.24 10.24s-4.7104 10.24-10.24 10.24z" fill="#1C1D21" p-id="13054"></path></svg>