<svg xmlns="http://www.w3.org/2000/svg" viewBox="0 0 1024 1024" version="1.1"><path d="M512 512m-501.76 0a501.76 501.76 0 1 0 1003.52 0 501.76 501.76 0 1 0-1003.52 0Z" fill="#8CEEF9" p-id="9056"></path><path d="M624.2304 208.896H575.488V126.976c0-5.7344 4.5056-10.24 10.24-10.24h28.2624c5.7344 0 10.24 4.5056 10.24 10.24v81.92z" fill="#FF8939" p-id="9057"></path><path d="M624.2304 219.136H575.488c-5.7344 0-10.24-4.5056-10.24-10.24V126.976c0-11.264 9.216-20.48 20.48-20.48h28.2624c11.264 0 20.48 9.216 20.48 20.48v81.92c0 5.7344-4.7104 10.24-10.24 10.24zM585.728 198.656h28.2624V126.976H585.728v71.68z" fill="#1C1D21" p-id="9058"></path><path d="M512 1024c-136.8064 0-265.4208-53.248-362.0864-149.9136C53.248 777.4208 0 648.8064 0 512S53.248 246.5792 149.9136 149.9136C246.5792 53.248 375.1936 0 512 0s265.4208 53.248 362.0864 149.9136C970.752 246.5792 1024 375.1936 1024 512s-53.248 265.4208-149.9136 362.0864C777.4208 970.752 648.8064 1024 512 1024z m0-1003.52C241.0496 20.48 20.48 241.0496 20.48 512s220.5696 491.52 491.52 491.52 491.52-220.5696 491.52-491.52S782.9504 20.48 512 20.48z" fill="#1C1D21" p-id="9059"></path><path d="M140.4928 849.3056C232.2432 950.272 364.7488 1013.76 512 1013.76s279.7568-63.488 371.5072-164.4544H140.4928z" fill="#0ABFB2" p-id="9060"></path><path d="M512 1024c-73.5232 0-144.384-15.1552-210.7392-45.2608-64.1024-29.0816-120.832-70.2464-168.3456-122.6752-2.6624-3.072-3.4816-7.3728-1.8432-11.0592 1.6384-3.6864 5.3248-6.144 9.4208-6.144h743.0144c4.096 0 7.7824 2.4576 9.4208 6.144 1.6384 3.6864 1.024 7.9872-1.8432 11.0592-47.5136 52.4288-104.2432 93.5936-168.3456 122.6752-66.3552 30.1056-137.216 45.2608-210.7392 45.2608zM164.4544 859.5456c91.7504 91.7504 217.088 143.9744 347.5456 143.9744s255.7952-52.224 347.5456-143.9744H164.4544z" fill="#1C1D21" p-id="9061"></path><path d="M209.5104 439.296c-38.2976 22.1184-63.8976 63.488-63.8976 110.7968s25.8048 88.6784 63.8976 110.7968c38.2976-22.1184 63.8976-63.488 63.8976-110.7968 0.2048-47.3088-25.6-88.6784-63.8976-110.7968z" fill="#0ABFB2" p-id="9062"></path><path d="M209.5104 671.1296c-1.8432 0-3.4816-0.4096-5.12-1.4336-42.5984-24.576-69.0176-70.4512-69.0176-119.6032s26.4192-95.0272 69.0176-119.6032c3.2768-1.8432 7.168-1.8432 10.24 0 42.5984 24.576 69.0176 70.4512 69.0176 119.6032S257.2288 645.12 214.6304 669.696c-1.4336 0.8192-3.2768 1.4336-5.12 1.4336z m0-219.7504C176.128 473.088 155.8528 510.3616 155.8528 550.0928s20.48 77.2096 53.6576 98.7136c33.3824-21.7088 53.6576-58.9824 53.6576-98.7136s-20.2752-77.2096-53.6576-98.7136z" fill="#1C1D21" p-id="9063"></path><path d="M209.5104 856.8832c-5.7344 0-10.24-4.5056-10.24-10.24V439.296c0-5.7344 4.5056-10.24 10.24-10.24s10.24 4.5056 10.24 10.24v407.3472c0 5.5296-4.5056 10.24-10.24 10.24z" fill="#1C1D21" p-id="9064"></path><path d="M814.4896 439.296c-38.2976 22.1184-63.8976 63.488-63.8976 110.7968s25.8048 88.6784 63.8976 110.7968c38.2976-22.1184 63.8976-63.488 63.8976-110.7968s-25.8048-88.6784-63.8976-110.7968z" fill="#0ABFB2" p-id="9065"></path><path d="M814.4896 671.1296c-1.8432 0-3.4816-0.4096-5.12-1.4336-42.5984-24.576-69.0176-70.4512-69.0176-119.6032s26.4192-95.0272 69.0176-119.6032c3.2768-1.8432 7.168-1.8432 10.24 0 42.5984 24.576 69.0176 70.4512 69.0176 119.6032S862.208 645.12 819.6096 669.696c-1.6384 0.8192-3.4816 1.4336-5.12 1.4336z m0-219.7504c-33.3824 21.7088-53.6576 58.9824-53.6576 98.7136s20.48 77.2096 53.6576 98.7136c33.3824-21.7088 53.6576-58.9824 53.6576-98.7136s-20.48-77.2096-53.6576-98.7136z" fill="#1C1D21" p-id="9066"></path><path d="M814.4896 856.8832c-5.7344 0-10.24-4.5056-10.24-10.24V439.296c0-5.7344 4.5056-10.24 10.24-10.24s10.24 4.5056 10.24 10.24v407.3472c0 5.5296-4.7104 10.24-10.24 10.24z" fill="#1C1D21" p-id="9067"></path><path d="M658.6368 224.4608l-131.6864-101.376c-11.0592-8.6016-26.624-8.6016-37.6832 0l-131.6864 101.376c-10.6496 8.192-4.9152 25.3952 8.6016 25.3952h283.8528c13.312 0 19.2512-16.9984 8.6016-25.3952z" fill="#FF8939" p-id="9068"></path><path d="M649.8304 260.096H365.9776c-10.6496 0-19.6608-6.5536-23.1424-16.5888-3.4816-10.0352-0.2048-20.6848 8.192-27.2384l131.6864-101.376c14.7456-11.264 35.4304-11.264 50.176 0l131.6864 101.376c8.3968 6.5536 11.6736 17.2032 8.192 27.2384-3.2768 10.0352-12.288 16.5888-22.9376 16.5888zM507.904 126.976c-4.5056 0-8.8064 1.4336-12.4928 4.3008l-131.6864 101.376c-1.8432 1.4336-1.6384 3.2768-1.2288 4.3008s1.2288 2.6624 3.6864 2.6624h283.8528c2.4576 0 3.2768-1.6384 3.6864-2.6624s0.6144-2.8672-1.2288-4.3008l-131.6864-101.376c-3.8912-2.8672-8.3968-4.3008-12.9024-4.3008z" fill="#1C1D21" p-id="9069"></path><path d="M505.6512 172.4416c-3.072 0-6.144-1.4336-8.192-4.096-3.4816-4.5056-2.6624-10.8544 1.8432-14.336l2.2528-1.8432c4.5056-3.4816 10.8544-2.6624 14.336 1.8432 3.4816 4.5056 2.6624 10.8544-1.8432 14.336l-2.2528 1.8432c-1.6384 1.4336-3.8912 2.2528-6.144 2.2528zM444.8256 219.136c-3.072 0-6.144-1.4336-8.192-4.096-3.4816-4.5056-2.6624-10.8544 1.8432-14.336l30.72-23.552c4.5056-3.4816 10.8544-2.6624 14.336 1.8432 3.4816 4.5056 2.6624 10.8544-1.8432 14.336l-30.72 23.552c-1.6384 1.6384-3.8912 2.2528-6.144 2.2528z" fill="#FFC9A4" p-id="9070"></path><path d="M390.5536 249.856h234.7008v169.7792H390.5536z" fill="#FFC5B3" p-id="9071"></path><path d="M431.5136 306.7904c-5.7344 0-10.24-4.5056-10.24-10.24V290.816c0-5.7344 4.5056-10.24 10.24-10.24s10.24 4.5056 10.24 10.24v5.5296c0 5.7344-4.5056 10.4448-10.24 10.4448zM431.5136 388.9152c-5.7344 0-10.24-4.5056-10.24-10.24v-43.8272c0-5.7344 4.5056-10.24 10.24-10.24s10.24 4.5056 10.24 10.24v43.8272c0 5.7344-4.5056 10.24-10.24 10.24z" fill="#FFECE9" p-id="9072"></path><path d="M625.2544 429.8752H390.5536c-5.7344 0-10.24-4.5056-10.24-10.24V249.856c0-5.7344 4.5056-10.24 10.24-10.24h234.7008c5.7344 0 10.24 4.5056 10.24 10.24v169.7792c0 5.7344-4.5056 10.24-10.24 10.24z m-224.4608-20.48h214.2208V260.096H400.7936v149.2992z" fill="#1C1D21" p-id="9073"></path><path d="M521.8304 341.8112h-27.648c-7.168 0-12.9024 5.7344-12.9024 12.9024v64.9216h53.4528v-64.9216c0-7.168-5.7344-12.9024-12.9024-12.9024z" fill="#C67552" p-id="9074"></path><path d="M534.7328 429.8752H481.28c-5.7344 0-10.24-4.5056-10.24-10.24v-64.9216c0-12.6976 10.4448-23.1424 23.1424-23.1424h27.648c12.6976 0 23.1424 10.4448 23.1424 23.1424v64.9216c0 5.7344-4.7104 10.24-10.24 10.24z m-43.2128-20.48h32.9728v-54.6816c0-1.4336-1.2288-2.6624-2.6624-2.6624h-27.648c-1.4336 0-2.6624 1.2288-2.6624 2.6624v54.6816z" fill="#1C1D21" p-id="9075"></path><path d="M677.0688 848.896h-337.92V440.1152c0-11.264 9.216-20.48 20.48-20.48h296.96c11.264 0 20.48 9.216 20.48 20.48v408.7808z" fill="#FFECE9" p-id="9076"></path><path d="M338.944 529.408c-5.7344 0-10.24-4.5056-10.24-10.24v-12.288c0-5.7344 4.5056-10.24 10.24-10.24s10.24 4.5056 10.24 10.24v12.288c0 5.7344-4.5056 10.24-10.24 10.24z" fill="#1C1D21" p-id="9077"></path><path d="M677.0688 859.136h-337.92c-5.7344 0-10.24-4.5056-10.24-10.24v-288.768c0-5.7344 4.5056-10.24 10.24-10.24s10.24 4.5056 10.24 10.24v278.528h317.44V440.1152c0-5.7344-4.5056-10.24-10.24-10.24h-296.96c-5.7344 0-10.24 4.5056-10.24 10.24v25.8048c0 5.7344-4.5056 10.24-10.24 10.24s-10.24-4.5056-10.24-10.24v-25.8048c0-16.9984 13.7216-30.72 30.72-30.72h296.96c16.9984 0 30.72 13.7216 30.72 30.72v408.7808c0 5.7344-4.7104 10.24-10.24 10.24z" fill="#1C1D21" p-id="9078"></path><path d="M619.1104 482.7136H396.9024c-5.7344 0-10.24-4.5056-10.24-10.24s4.5056-10.24 10.24-10.24h222.4128c5.7344 0 10.24 4.5056 10.24 10.24s-4.7104 10.24-10.4448 10.24zM619.1104 537.8048H396.9024c-5.7344 0-10.24-4.5056-10.24-10.24s4.5056-10.24 10.24-10.24h222.4128c5.7344 0 10.24 4.5056 10.24 10.24s-4.7104 10.24-10.4448 10.24zM619.1104 592.6912H396.9024c-5.7344 0-10.24-4.5056-10.24-10.24s4.5056-10.24 10.24-10.24h222.4128c5.7344 0 10.24 4.5056 10.24 10.24s-4.7104 10.24-10.4448 10.24zM619.1104 647.7824H396.9024c-5.7344 0-10.24-4.5056-10.24-10.24s4.5056-10.24 10.24-10.24h222.4128c5.7344 0 10.24 4.5056 10.24 10.24s-4.7104 10.24-10.4448 10.24zM542.72 702.8736h-145.8176c-5.7344 0-10.24-4.5056-10.24-10.24s4.5056-10.24 10.24-10.24H542.72c5.7344 0 10.24 4.5056 10.24 10.24s-4.5056 10.24-10.24 10.24zM542.72 757.9648h-145.8176c-5.7344 0-10.24-4.5056-10.24-10.24s4.5056-10.24 10.24-10.24H542.72c5.7344 0 10.24 4.5056 10.24 10.24s-4.5056 10.24-10.24 10.24z" fill="#1C1D21" p-id="9079"></path><path d="M599.4496 924.672l-5.3248-41.5744-40.96 8.6016 60.6208-85.6064 46.2848 32.9728z" fill="#FF3E63" p-id="9080"></path><path d="M720.6912 924.672l5.5296-41.5744 40.96 8.6016-60.6208-85.6064-46.4896 32.9728z" fill="#FF3E63" p-id="9081"></path><path d="M599.4496 934.912c-0.8192 0-1.6384 0-2.4576-0.2048-4.096-1.024-7.168-4.5056-7.7824-8.6016l-3.8912-30.72-30.3104 6.3488c-4.096 0.8192-8.3968-0.8192-10.6496-4.3008-2.2528-3.4816-2.2528-8.192 0.2048-11.4688l60.6208-85.6064c1.6384-2.2528 3.8912-3.6864 6.5536-4.096 2.6624-0.4096 5.3248 0.2048 7.5776 1.6384l46.4896 32.9728c4.7104 3.2768 5.7344 9.6256 2.4576 14.336l-60.6208 85.6064c-1.6384 2.4576-4.9152 4.096-8.192 4.096z m-5.3248-62.0544c2.048 0 4.096 0.6144 5.9392 1.8432 2.2528 1.6384 3.8912 4.3008 4.3008 6.9632l2.048 15.5648 39.5264-55.9104-29.696-21.0944-39.5264 55.9104 15.36-3.2768h2.048z" fill="#1C1D21" p-id="9082"></path><path d="M720.6912 934.912c-3.2768 0-6.3488-1.6384-8.3968-4.3008l-60.6208-85.6064c-3.2768-4.7104-2.2528-11.0592 2.4576-14.336l46.4896-32.9728c2.2528-1.6384 4.9152-2.2528 7.5776-1.6384 2.6624 0.4096 5.12 2.048 6.5536 4.096l60.6208 85.6064c2.4576 3.4816 2.4576 7.9872 0.2048 11.4688-2.2528 3.4816-6.5536 5.3248-10.6496 4.3008l-30.3104-6.3488-3.8912 30.72c-0.6144 4.096-3.6864 7.5776-7.7824 8.6016-0.6144 0.4096-1.4336 0.4096-2.2528 0.4096z m-46.2848-93.3888l39.5264 55.9104 2.048-15.5648c0.4096-2.8672 1.8432-5.3248 4.3008-6.9632 2.2528-1.6384 5.3248-2.2528 7.9872-1.6384l15.36 3.2768-39.5264-55.9104-29.696 20.8896z" fill="#1C1D21" p-id="9083"></path><path d="M660.0704 777.6256m-67.584 0a67.584 67.584 0 1 0 135.168 0 67.584 67.584 0 1 0-135.168 0Z" fill="#FF3E63" p-id="9084"></path><path d="M660.0704 855.4496c-42.8032 0-77.824-34.816-77.824-77.824 0-42.8032 34.816-77.824 77.824-77.824s77.824 34.816 77.824 77.824-34.816 77.824-77.824 77.824z m0-135.168c-31.5392 0-57.344 25.8048-57.344 57.344s25.8048 57.344 57.344 57.344 57.344-25.8048 57.344-57.344-25.6-57.344-57.344-57.344z" fill="#1C1D21" p-id="9085"></path><path d="M660.0704 777.6256m-22.7328 0a22.7328 22.7328 0 1 0 45.4656 0 22.7328 22.7328 0 1 0-45.4656 0Z" fill="#FF8939" p-id="9086"></path><path d="M660.0704 810.5984c-18.2272 0-32.9728-14.7456-32.9728-32.9728s14.7456-32.9728 32.9728-32.9728 32.9728 14.7456 32.9728 32.9728-14.7456 32.9728-32.9728 32.9728z m0-45.2608c-6.7584 0-12.4928 5.5296-12.4928 12.4928s5.5296 12.4928 12.4928 12.4928 12.4928-5.5296 12.4928-12.4928-5.5296-12.4928-12.4928-12.4928z" fill="#1C1D21" p-id="9087"></path></svg>