<svg xmlns="http://www.w3.org/2000/svg" viewBox="0 0 1024 1024" version="1.1"><path d="M512 512m-501.76 0a501.76 501.76 0 1 0 1003.52 0 501.76 501.76 0 1 0-1003.52 0Z" fill="#FFECE9" p-id="9643"></path><path d="M599.6544 694.6816h-19.456c-10.6496 0-19.456 8.8064-19.456 19.456v19.456c0 10.6496 8.8064 19.456 19.456 19.456h19.456c10.6496 0 19.456-8.8064 19.456-19.456v-19.456c0-10.6496-8.8064-19.456-19.456-19.456z" fill="#C67552" p-id="9644"></path><path d="M598.6304 763.2896h-17.408c-16.9984 0-30.72-13.7216-30.72-30.72v-17.408c0-16.9984 13.7216-30.72 30.72-30.72h17.408c16.9984 0 30.72 13.7216 30.72 30.72v17.408c0 16.9984-13.9264 30.72-30.72 30.72z m-17.408-58.368c-5.7344 0-10.24 4.5056-10.24 10.24v17.408c0 5.7344 4.5056 10.24 10.24 10.24h17.408c5.7344 0 10.24-4.5056 10.24-10.24v-17.408c0-5.7344-4.5056-10.24-10.24-10.24h-17.408z" fill="#1C1D21" p-id="9645"></path><path d="M717.4144 458.3424h-20.48c-11.264 0-20.48-9.216-20.48-20.48v-20.48c0-11.264 9.216-20.48 20.48-20.48h20.48c11.264 0 20.48 9.216 20.48 20.48v20.48c0 11.264-9.0112 20.48-20.48 20.48z" fill="#C67552" p-id="9646"></path><path d="M512 1024c-136.8064 0-265.4208-53.248-362.0864-149.9136C53.248 777.4208 0 648.8064 0 512S53.248 246.5792 149.9136 149.9136C246.5792 53.248 375.1936 0 512 0s265.4208 53.248 362.0864 149.9136C970.752 246.5792 1024 375.1936 1024 512s-53.248 265.4208-149.9136 362.0864C777.4208 970.752 648.8064 1024 512 1024z m0-1003.52C241.0496 20.48 20.48 241.0496 20.48 512s220.5696 491.52 491.52 491.52 491.52-220.5696 491.52-491.52S782.9504 20.48 512 20.48z" fill="#1C1D21" p-id="9647"></path><path d="M72.4992 754.0736C157.9008 908.9024 322.7648 1013.76 512 1013.76s354.0992-104.8576 439.5008-259.6864H72.4992z" fill="#AAADAD" p-id="9648"></path><path d="M512 1024c-186.368 0-358.4-101.5808-448.512-265.0112-1.8432-3.072-1.6384-6.9632 0.2048-10.24s5.12-5.12 8.8064-5.12h879.2064c3.6864 0 6.9632 1.8432 8.8064 5.12s1.8432 6.9632 0.2048 10.24C870.4 922.4192 698.368 1024 512 1024zM90.112 764.3136C178.7904 912.384 338.944 1003.52 512 1003.52s333.2096-91.136 421.888-239.2064H90.112z" fill="#1C1D21" p-id="9649"></path><path d="M579.7888 855.8592l-103.8336-103.8336c-13.5168-13.5168-21.0944-31.744-21.0944-50.5856v-48.5376c0-19.0464-7.5776-37.2736-21.0944-50.5856l-73.728-73.728c-13.5168-13.5168-21.0944-31.744-21.0944-50.5856v-192.1024c0-19.0464-7.5776-37.2736-21.0944-50.5856l-32.9728-32.9728c-13.5168-13.5168-21.0944-31.744-21.0944-50.5856V75.776C112.4352 161.9968 10.24 325.0176 10.24 512c0 276.6848 222.6176 500.3264 499.0976 501.76 31.1296 0.2048 61.6448-2.4576 91.3408-7.7824v-99.5328c0-19.0464-7.5776-37.2736-20.8896-50.5856z" fill="#C67552" p-id="9650"></path><path d="M512 1024h-2.6624c-136.6016-0.6144-264.6016-54.272-360.448-150.7328C52.8384 776.8064 0 648.6016 0 512c0-92.16 24.7808-182.272 71.4752-261.12 45.4656-76.3904 110.1824-140.0832 187.392-184.1152 3.072-1.8432 6.9632-1.8432 10.24 0 3.072 1.8432 5.12 5.12 5.12 8.8064v75.1616c0 16.384 6.3488 31.744 18.0224 43.4176l32.9728 32.9728c15.5648 15.5648 23.9616 36.0448 23.9616 57.9584V477.184c0 16.384 6.3488 31.744 18.0224 43.4176l73.728 73.728c15.5648 15.5648 23.9616 36.0448 23.9616 57.9584v48.5376c0 16.384 6.3488 31.744 18.0224 43.4176l103.8336 103.8336c15.5648 15.5648 23.9616 36.0448 23.9616 57.9584V1005.568c0 4.9152-3.4816 9.216-8.3968 10.0352-29.4912 5.7344-60.0064 8.3968-90.3168 8.3968zM253.7472 93.5936C109.3632 183.0912 20.48 341.6064 20.48 512c0 269.7216 219.3408 490.0864 489.0624 491.52 27.0336 0.2048 54.4768-2.048 81.1008-6.144v-90.7264c0-16.384-6.3488-31.744-18.0224-43.4176l-103.8336-103.8336c-15.5648-15.5648-23.9616-36.0448-23.9616-57.9584v-48.5376c0-16.384-6.3488-31.744-18.0224-43.4176l-73.728-73.728c-15.5648-15.5648-23.9616-36.0448-23.9616-57.9584v-192.1024c0-16.384-6.3488-31.744-18.0224-43.4176L277.9136 208.896c-15.5648-15.5648-23.9616-36.0448-23.9616-57.9584v-57.344z" fill="#1C1D21" p-id="9651"></path><path d="M633.0368 695.296l-36.6592-8.192c-7.9872-1.8432-13.1072-9.8304-11.264-17.8176l7.7824-34.816 65.7408 14.7456-7.7824 34.816c-1.8432 7.9872-9.8304 13.1072-17.8176 11.264zM894.1568 754.0736l-36.6592-8.192c-7.9872-1.8432-13.1072-9.8304-11.264-17.8176l7.7824-34.816 65.7408 14.7456-7.7824 34.816c-1.8432 7.9872-9.8304 13.1072-17.8176 11.264z" fill="#AAADAD" p-id="9652"></path><path d="M886.3744 584.0896l-210.1248-47.3088-42.5984 16.5888c-15.36 5.9392-26.8288 19.2512-30.5152 35.4304l-10.24 45.6704 326.8608 73.5232 10.24-45.6704c3.6864-16.1792-1.024-33.1776-12.288-45.2608l-31.3344-32.9728z" fill="#FF3E63" p-id="9653"></path><path d="M886.3744 584.0896l-210.1248-47.3088 24.1664-56.9344c6.5536-15.5648 23.552-24.3712 39.936-20.48l121.2416 27.2384c16.5888 3.6864 28.0576 18.8416 27.2384 35.6352l-2.4576 61.8496z" fill="#8CEEF9" p-id="9654"></path><path d="M676.2496 536.7808l24.1664-56.9344c6.5536-15.5648 23.552-24.3712 39.936-20.48l121.2416 27.2384c16.5888 3.6864 28.0576 18.8416 27.2384 35.6352l-212.5824 14.5408z" fill="#FFECE9" p-id="9655"></path><path d="M886.3744 594.3296c-0.8192 0-1.4336 0-2.2528-0.2048L673.9968 546.816c-2.8672-0.6144-5.5296-2.6624-6.7584-5.3248-1.4336-2.6624-1.4336-5.9392-0.4096-8.6016l24.1664-56.9344c8.6016-20.2752 30.3104-31.3344 51.6096-26.624l121.2416 27.2384c21.504 4.9152 36.2496 24.1664 35.2256 46.08l-2.6624 61.8496c-0.2048 3.072-1.6384 5.9392-4.096 7.7824-1.6384 1.2288-3.6864 2.048-5.9392 2.048z m-195.9936-64.9216L876.544 571.392l2.048-49.5616c0.6144-12.0832-7.5776-22.7328-19.456-25.3952l-121.2416-27.2384c-11.6736-2.6624-23.7568 3.4816-28.2624 14.5408l-19.2512 45.6704z" fill="#1C1D21" p-id="9656"></path><path d="M919.7568 718.2336c-0.8192 0-1.4336 0-2.2528-0.2048l-326.8608-73.5232c-5.5296-1.2288-9.0112-6.7584-7.7824-12.288l10.24-45.6704c4.3008-19.456 18.2272-35.4304 36.864-42.8032l42.5984-16.5888c1.8432-0.8192 3.8912-0.8192 5.9392-0.4096l210.1248 47.3088c2.048 0.4096 3.8912 1.4336 5.12 2.8672l31.3344 33.1776c13.7216 14.5408 19.2512 34.816 14.9504 54.4768l-10.24 45.6704c-1.2288 4.7104-5.3248 7.9872-10.0352 7.9872zM605.184 626.688l306.7904 69.0176 7.9872-35.6352c2.8672-12.9024-0.8192-26.2144-9.8304-35.84l-29.0816-30.9248-203.9808-45.8752-39.5264 15.5648c-12.288 4.7104-21.2992 15.36-24.1664 28.2624l-8.192 35.4304z" fill="#1C1D21" p-id="9657"></path><path d="M636.3136 705.9456c-1.8432 0-3.6864-0.2048-5.5296-0.6144l-36.6592-8.192c-6.5536-1.4336-12.0832-5.3248-15.7696-11.0592-3.4816-5.7344-4.7104-12.288-3.2768-18.8416l7.7824-34.816c1.2288-5.5296 6.7584-9.0112 12.288-7.7824l65.7408 14.7456c2.6624 0.6144 4.9152 2.2528 6.3488 4.5056s1.8432 5.12 1.4336 7.7824l-7.7824 34.816c-2.8672 11.4688-13.1072 19.456-24.576 19.456z m-35.6352-59.1872l-5.5296 24.7808c-0.4096 1.6384 0.2048 2.8672 0.6144 3.4816 0.4096 0.6144 1.2288 1.6384 2.8672 2.048l36.6592 8.192c2.4576 0.6144 4.9152-1.024 5.5296-3.4816l5.5296-24.7808-45.6704-10.24zM897.4336 764.7232c-1.8432 0-3.6864-0.2048-5.5296-0.6144l-36.6592-8.192c-13.5168-3.072-21.9136-16.5888-19.0464-29.9008l7.7824-34.816c1.2288-5.5296 6.7584-9.0112 12.288-7.7824l65.7408 14.7456c5.5296 1.2288 9.0112 6.7584 7.7824 12.288l-7.7824 34.816c-2.8672 11.4688-13.1072 19.456-24.576 19.456z m-35.6352-59.1872l-5.5296 24.7808c-0.6144 2.4576 1.024 4.9152 3.4816 5.5296l36.6592 8.192c2.4576 0.6144 4.9152-1.024 5.5296-3.4816l5.5296-24.7808-45.6704-10.24zM663.7568 602.3168c-0.8192 0-1.4336 0-2.2528-0.2048l-57.344-12.9024c-5.5296-1.2288-9.0112-6.7584-7.7824-12.288 1.2288-5.5296 6.7584-9.0112 12.288-7.7824l57.344 12.9024c5.5296 1.2288 9.0112 6.7584 7.7824 12.288-1.024 4.9152-5.3248 7.9872-10.0352 7.9872zM927.1296 661.7088c-0.8192 0-1.4336 0-2.2528-0.2048l-57.344-12.9024c-5.5296-1.2288-9.0112-6.7584-7.7824-12.288 1.2288-5.5296 6.7584-9.0112 12.288-7.7824l57.344 12.9024c5.5296 1.2288 9.0112 6.7584 7.7824 12.288-1.024 4.7104-5.3248 7.9872-10.0352 7.9872zM797.2864 632.4224c-0.8192 0-1.4336 0-2.2528-0.2048l-57.1392-12.9024c-5.5296-1.2288-9.0112-6.7584-7.7824-12.288 1.2288-5.5296 6.7584-9.0112 12.288-7.7824l57.1392 12.9024c5.5296 1.2288 9.0112 6.7584 7.7824 12.288-1.024 4.7104-5.3248 7.9872-10.0352 7.9872zM885.9648 594.1248c-3.4816 0-6.9632-1.8432-8.8064-4.9152-2.8672-4.9152-1.2288-11.0592 3.4816-14.1312l28.2624-16.9984c7.3728-4.5056 15.9744-5.7344 24.3712-3.8912l5.9392 1.4336c5.5296 1.2288 9.0112 6.7584 7.7824 12.288-1.2288 5.5296-6.7584 9.0112-12.288 7.7824l-5.9392-1.4336c-3.2768-0.8192-6.5536-0.2048-9.4208 1.4336l-28.2624 16.9984c-1.4336 1.024-3.2768 1.4336-5.12 1.4336zM676.4544 547.0208c-3.2768 0-6.5536-1.6384-8.6016-4.5056l-18.2272-27.4432c-1.8432-2.6624-4.7104-4.7104-7.7824-5.3248l-5.9392-1.4336c-5.5296-1.2288-9.0112-6.7584-7.7824-12.288 1.2288-5.5296 6.7584-9.0112 12.288-7.7824l5.9392 1.4336c8.3968 1.8432 15.5648 6.7584 20.48 13.9264l18.2272 27.4432c3.072 4.7104 1.8432 11.0592-2.8672 14.1312-1.6384 1.2288-3.6864 1.8432-5.7344 1.8432zM717.4144 468.5824h-20.48c-16.9984 0-30.72-13.7216-30.72-30.72v-20.48c0-16.9984 13.7216-30.72 30.72-30.72h20.48c16.9984 0 30.72 13.7216 30.72 30.72v20.48c0 16.9984-13.7216 30.72-30.72 30.72z m-20.48-61.44c-5.7344 0-10.24 4.5056-10.24 10.24v20.48c0 5.7344 4.5056 10.24 10.24 10.24h20.48c5.7344 0 10.24-4.5056 10.24-10.24v-20.48c0-5.7344-4.5056-10.24-10.24-10.24h-20.48z" fill="#1C1D21" p-id="9658"></path><path d="M541.696 436.6336h-51.2c-11.264 0-20.48-9.216-20.48-20.48v-51.2c0-11.264 9.216-20.48 20.48-20.48h51.2c11.264 0 20.48 9.216 20.48 20.48v51.2c0 11.264-9.216 20.48-20.48 20.48z" fill="#C67552" p-id="9659"></path><path d="M541.696 446.8736h-51.2c-16.9984 0-30.72-13.7216-30.72-30.72v-51.2c0-16.9984 13.7216-30.72 30.72-30.72h51.2c16.9984 0 30.72 13.7216 30.72 30.72v51.2c0 16.9984-13.7216 30.72-30.72 30.72z m-51.2-92.16c-5.7344 0-10.24 4.5056-10.24 10.24v51.2c0 5.7344 4.5056 10.24 10.24 10.24h51.2c5.7344 0 10.24-4.5056 10.24-10.24v-51.2c0-5.7344-4.5056-10.24-10.24-10.24h-51.2z" fill="#1C1D21" p-id="9660"></path><path d="M423.936 197.0176h-30.72c-6.7584 0-12.288-5.5296-12.288-12.288v-30.72c0-6.7584 5.5296-12.288 12.288-12.288h30.72c6.7584 0 12.288 5.5296 12.288 12.288v30.72c0 6.7584-5.5296 12.288-12.288 12.288z" fill="#C67552" p-id="9661"></path><path d="M423.936 207.2576h-30.72c-12.4928 0-22.528-10.0352-22.528-22.528v-30.72c0-12.4928 10.0352-22.528 22.528-22.528h30.72c12.4928 0 22.528 10.0352 22.528 22.528v30.72c0 12.4928-10.0352 22.528-22.528 22.528z m-30.72-55.296c-1.2288 0-2.048 0.8192-2.048 2.048v30.72c0 1.2288 0.8192 2.048 2.048 2.048h30.72c1.2288 0 2.048-0.8192 2.048-2.048v-30.72c0-1.2288-0.8192-2.048-2.048-2.048h-30.72z" fill="#1C1D21" p-id="9662"></path><path d="M479.232 547.2256h-30.72c-6.7584 0-12.288-5.5296-12.288-12.288v-30.72c0-6.7584 5.5296-12.288 12.288-12.288h30.72c6.7584 0 12.288 5.5296 12.288 12.288v30.72c0 6.7584-5.5296 12.288-12.288 12.288z" fill="#C67552" p-id="9663"></path><path d="M479.232 557.4656h-30.72c-12.4928 0-22.528-10.0352-22.528-22.528v-30.72c0-12.4928 10.0352-22.528 22.528-22.528h30.72c12.4928 0 22.528 10.0352 22.528 22.528v30.72c0 12.4928-10.0352 22.528-22.528 22.528z m-30.72-55.296c-1.2288 0-2.048 0.8192-2.048 2.048v30.72c0 1.2288 0.8192 2.048 2.048 2.048h30.72c1.2288 0 2.048-0.8192 2.048-2.048v-30.72c0-1.2288-0.8192-2.048-2.048-2.048h-30.72z" fill="#1C1D21" p-id="9664"></path><path d="M505.2416 710.0416c-38.2976 22.1184-64.1024 63.488-64.1024 111.0016 0 47.3088 25.8048 88.6784 64.1024 111.0016 38.2976-22.1184 64.1024-63.488 64.1024-111.0016 0-47.3088-25.8048-88.6784-64.1024-111.0016z" fill="#0ABFB2" p-id="9665"></path><path d="M505.2416 942.2848c-1.8432 0-3.4816-0.4096-5.12-1.4336-42.5984-24.7808-69.2224-70.656-69.2224-119.808s26.4192-95.0272 69.2224-119.808c3.2768-1.8432 7.168-1.8432 10.24 0 42.5984 24.7808 69.2224 70.656 69.2224 119.808s-26.4192 95.0272-69.2224 119.808c-1.6384 0.8192-3.2768 1.4336-5.12 1.4336z m0-220.16c-33.3824 21.7088-53.8624 58.9824-53.8624 98.9184 0 39.936 20.48 77.2096 53.8624 98.9184 33.3824-21.7088 53.8624-58.9824 53.8624-98.9184s-20.48-77.2096-53.8624-98.9184z" fill="#1C1D21" p-id="9666"></path><path d="M505.2416 1018.2656c-5.7344 0-10.24-4.5056-10.24-10.24V710.0416c0-5.7344 4.5056-10.24 10.24-10.24s10.24 4.5056 10.24 10.24v297.984c0 5.7344-4.7104 10.24-10.24 10.24z" fill="#1C1D21" p-id="9667"></path><path d="M647.3728 849.92c-28.0576-7.5776-59.392-0.2048-81.5104 21.9136s-29.2864 53.248-21.9136 81.5104c28.0576 7.5776 59.392 0.2048 81.5104-21.9136 22.1184-22.1184 29.4912-53.4528 21.9136-81.5104z" fill="#0ABFB2" p-id="9668"></path><path d="M565.8624 966.2464c-8.192 0-16.384-1.024-24.3712-3.2768-3.4816-1.024-6.3488-3.6864-7.168-7.168-8.6016-32.5632 0.6144-67.584 24.576-91.3408 23.7568-23.7568 58.7776-33.1776 91.3408-24.576 3.4816 1.024 6.3488 3.6864 7.168 7.168 8.6016 32.5632-0.6144 67.584-24.576 91.3408-18.0224 18.2272-42.1888 27.8528-66.9696 27.8528z m-13.1072-21.7088c23.7568 4.3008 48.5376-3.2768 65.7408-20.48 17.2032-17.2032 24.7808-41.984 20.48-65.7408-23.7568-4.3008-48.5376 3.2768-65.7408 20.48-17.2032 17.408-24.7808 41.984-20.48 65.7408z" fill="#1C1D21" p-id="9669"></path><path d="M505.2416 1002.2912c-2.6624 0-5.3248-1.024-7.168-3.072-4.096-4.096-4.096-10.4448 0-14.5408l142.1312-142.1312c4.096-4.096 10.4448-4.096 14.5408 0s4.096 10.4448 0 14.5408L512.4096 999.424c-2.048 1.8432-4.5056 2.8672-7.168 2.8672z" fill="#1C1D21" p-id="9670"></path><path d="M363.1104 849.92c28.0576-7.5776 59.392-0.2048 81.5104 21.9136 22.1184 22.1184 29.2864 53.248 21.9136 81.5104-28.0576 7.5776-59.392 0.2048-81.5104-21.9136-22.3232-22.1184-29.4912-53.4528-21.9136-81.5104z" fill="#0ABFB2" p-id="9671"></path><path d="M444.6208 966.2464c-24.7808 0-49.152-9.8304-66.9696-27.648-23.7568-23.7568-33.1776-58.7776-24.576-91.3408 1.024-3.4816 3.6864-6.3488 7.168-7.168 32.5632-8.6016 67.584 0.6144 91.3408 24.576s33.1776 58.7776 24.576 91.3408c-1.024 3.4816-3.6864 6.3488-7.168 7.168-7.9872 2.048-16.1792 3.072-24.3712 3.072z m-73.1136-107.7248c-4.3008 23.7568 3.2768 48.5376 20.48 65.7408 17.2032 17.2032 41.984 24.7808 65.7408 20.48 4.3008-23.7568-3.2768-48.5376-20.48-65.7408-17.2032-17.2032-41.984-24.7808-65.7408-20.48z" fill="#1C1D21" p-id="9672"></path><path d="M505.2416 1002.2912c-2.6624 0-5.3248-1.024-7.168-3.072l-142.1312-142.1312c-4.096-4.096-4.096-10.4448 0-14.5408s10.4448-4.096 14.5408 0l142.1312 142.1312c4.096 4.096 4.096 10.4448 0 14.5408-2.2528 2.048-4.7104 3.072-7.3728 3.072z" fill="#1C1D21" p-id="9673"></path><path d="M342.016 931.4304c22.1184-22.1184 29.2864-53.248 21.9136-81.5104-28.0576-7.5776-59.392-0.2048-81.5104 21.9136-20.0704 20.0704-27.8528 47.7184-23.3472 73.9328 6.144 3.4816 12.288 6.9632 18.6368 10.24 22.9376 1.2288 46.4896-6.9632 64.3072-24.576z" fill="#0ABFB2" p-id="9674"></path><path d="M282.4192 966.2464c-1.8432 0-3.6864 0-5.5296-0.2048-1.4336 0-2.8672-0.4096-4.096-1.2288-6.5536-3.4816-12.9024-6.9632-19.0464-10.4448-2.6624-1.4336-4.5056-4.096-4.9152-7.168-5.12-30.3104 4.7104-61.2352 26.2144-82.7392 23.7568-23.7568 58.7776-33.1776 91.3408-24.576 3.4816 1.024 6.3488 3.6864 7.168 7.168 8.6016 32.5632-0.6144 67.584-24.576 91.3408-17.408 18.0224-41.5744 27.8528-66.56 27.8528z m-2.2528-20.48c20.2752 0.6144 40.1408-7.168 54.4768-21.7088 17.2032-17.2032 24.7808-41.984 20.48-65.7408-23.7568-4.3008-48.5376 3.2768-65.7408 20.48-15.7696 15.7696-23.552 38.0928-21.2992 60.2112 4.096 2.4576 7.9872 4.5056 12.0832 6.7584z m61.8496-14.336z" fill="#1C1D21" p-id="9675"></path><path d="M270.336 953.5488c-2.6624 0-5.3248-1.024-7.168-3.072-4.096-4.096-4.096-10.4448 0-14.5408l93.3888-93.3888c4.096-4.096 10.4448-4.096 14.5408 0s4.096 10.4448 0 14.5408l-93.3888 93.3888c-2.048 2.048-4.7104 3.072-7.3728 3.072z" fill="#1C1D21" p-id="9676"></path><path d="M150.9376 538.4192L104.0384 491.52c-11.4688-11.4688-18.0224-27.2384-18.0224-43.4176v-78.0288c0-16.384-6.5536-31.9488-18.0224-43.4176l-15.7696-15.7696C25.1904 372.3264 10.24 440.32 10.24 512c0 144.7936 61.0304 275.0464 158.72 366.592V581.8368c0-16.1792-6.5536-31.9488-18.0224-43.4176z" fill="#FFC5B3" p-id="9677"></path><path d="M209.92 857.2928c-5.7344 0-10.24-4.5056-10.24-10.24V581.8368c0-24.576-9.6256-47.7184-27.0336-65.1264l-46.8992-46.8992c-5.7344-5.7344-9.0112-13.5168-9.0112-21.7088v-78.0288c0-5.9392-0.6144-11.6736-1.6384-17.408-1.024-5.5296 2.6624-10.8544 8.192-11.8784s10.8544 2.6624 11.8784 8.192c1.2288 6.9632 2.048 14.1312 2.048 21.2992v78.0288c0 2.6624 1.024 5.3248 3.072 7.168l46.8992 46.8992c21.2992 21.2992 32.9728 49.5616 32.9728 79.6672v265.216c0 5.5296-4.5056 10.0352-10.24 10.0352zM103.2192 314.7776c-2.8672 0-5.9392-1.2288-7.7824-3.6864-1.8432-2.2528-3.6864-4.3008-5.7344-6.144-4.096-4.096-4.096-10.4448 0-14.5408s10.4448-4.096 14.5408 0c2.4576 2.4576 4.7104 4.9152 6.9632 7.5776 3.6864 4.3008 3.072 10.8544-1.2288 14.336-2.048 1.6384-4.3008 2.4576-6.7584 2.4576z" fill="#FFA364" p-id="9678"></path><path d="M168.96 888.832c-2.4576 0-5.12-1.024-6.9632-2.6624-50.5856-47.3088-90.5216-103.424-118.3744-166.7072C14.7456 653.9264 0 584.2944 0 512c0-71.4752 14.336-140.4928 42.8032-205.4144 1.4336-3.072 4.096-5.3248 7.5776-5.9392 3.2768-0.6144 6.7584 0.4096 9.216 2.8672l15.7696 15.7696c13.5168 13.5168 21.0944 31.5392 21.0944 50.5856v78.0288c0 13.7216 5.3248 26.624 14.9504 36.2496l46.8992 46.8992c13.5168 13.5168 21.0944 31.5392 21.0944 50.5856v296.96c0 4.096-2.4576 7.7824-6.144 9.4208-1.6384 0.4096-2.8672 0.8192-4.3008 0.8192zM55.7056 328.704C32.3584 387.072 20.48 448.512 20.48 512c0 129.6384 48.9472 250.0608 138.24 342.2208v-272.384c0-13.7216-5.3248-26.624-14.9504-36.2496l-46.8992-46.8992c-13.5168-13.5168-21.0944-31.5392-21.0944-50.5856v-78.0288c0-13.7216-5.3248-26.624-14.9504-36.2496l-5.12-5.12z" fill="#1C1D21" p-id="9679"></path><path d="M90.3168 709.0176c-3.8912 0-7.7824-2.2528-9.4208-6.144C54.4768 642.6624 40.96 578.56 40.96 512c0-9.216 0.2048-18.432 0.8192-27.4432 0.4096-5.7344 5.12-10.0352 10.8544-9.6256 5.7344 0.4096 10.0352 5.12 9.6256 10.8544-0.4096 8.6016-0.8192 17.408-0.8192 26.2144 0 63.6928 12.9024 124.928 38.2976 182.4768 2.2528 5.12 0 11.264-5.3248 13.5168-1.2288 0.6144-2.6624 1.024-4.096 1.024z" fill="#FFECE9" p-id="9680"></path><path d="M285.696 821.0432c0-47.3088-25.8048-88.6784-64.1024-111.0016-38.2976 22.1184-64.1024 63.488-64.1024 111.0016 0 22.3232 5.7344 43.2128 15.7696 61.44 0.2048 0.2048 0.6144 0.4096 0.8192 0.6144 2.4576 2.2528 4.7104 4.3008 7.168 6.5536 0.8192 0.8192 1.8432 1.6384 2.6624 2.2528 1.8432 1.6384 3.8912 3.2768 5.7344 4.9152 0.8192 0.8192 1.8432 1.4336 2.6624 2.2528 2.6624 2.2528 5.3248 4.3008 7.9872 6.5536 0.6144 0.4096 1.2288 0.8192 1.6384 1.4336 2.2528 1.8432 4.5056 3.4816 6.7584 5.12 1.024 0.8192 2.2528 1.6384 3.2768 2.4576 1.8432 1.4336 3.6864 2.6624 5.5296 4.096 1.024 0.8192 2.2528 1.6384 3.2768 2.4576 2.6624 2.048 5.5296 3.8912 8.3968 5.7344 34.2016-22.9376 56.5248-61.8496 56.5248-105.8816z" fill="#0ABFB2" p-id="9681"></path><path d="M229.376 937.3696c-2.048 0-4.096-0.6144-5.7344-1.8432-20.0704-13.7216-39.3216-28.8768-57.344-45.2608-0.8192-0.8192-1.4336-1.6384-2.048-2.6624-11.0592-20.2752-16.9984-43.2128-16.9984-66.3552 0-49.152 26.4192-95.0272 69.2224-119.808 3.2768-1.8432 7.168-1.8432 10.24 0 42.5984 24.7808 69.2224 70.656 69.2224 119.808 0 45.8752-22.7328 88.6784-60.6208 114.4832-1.8432 1.024-3.8912 1.6384-5.9392 1.6384z m-47.9232-61.2352c15.1552 13.7216 31.1296 26.624 47.9232 38.2976 28.8768-22.3232 46.08-56.7296 46.08-93.3888 0-39.936-20.48-77.2096-53.8624-98.9184-33.3824 21.7088-53.8624 58.9824-53.8624 98.9184 0 19.2512 4.7104 38.2976 13.7216 55.0912z" fill="#1C1D21" p-id="9682"></path><path d="M221.5936 925.0816c-5.7344 0-10.24-4.5056-10.24-10.24v-204.5952c0-5.7344 4.5056-10.24 10.24-10.24s10.24 4.5056 10.24 10.24v204.5952c0 5.5296-4.5056 10.24-10.24 10.24z" fill="#1C1D21" p-id="9683"></path></svg>