<svg xmlns="http://www.w3.org/2000/svg" viewBox="0 0 1024 1024" version="1.1"><path d="M512 512m-501.76 0a501.76 501.76 0 1 0 1003.52 0 501.76 501.76 0 1 0-1003.52 0Z" fill="#0ABFB2" p-id="10554"></path><path d="M868.1472 742.4c-17.6128-10.8544-28.2624-30.1056-28.2624-50.7904v-18.0224c0-10.0352 5.9392-19.0464 14.9504-23.1424 38.7072-18.2272 65.3312-57.5488 65.3312-103.0144v-52.4288c0-62.8736-50.9952-113.8688-113.8688-113.8688-62.8736 0-113.8688 50.9952-113.8688 113.8688v52.4288c0 45.4656 26.8288 84.7872 65.3312 103.0144 9.0112 4.3008 14.9504 13.1072 14.9504 23.1424v18.0224c0 20.6848-10.6496 39.936-28.2624 50.7904L700.2112 770.048c-36.0448 22.3232-58.1632 61.8496-58.1632 104.2432v100.352c9.4208 4.9152 19.0464 9.4208 28.8768 13.5168 108.544-36.2496 200.4992-108.544 261.7344-202.5472-6.144-5.7344-12.6976-11.0592-20.0704-15.5648l-44.4416-27.648z" fill="#FFC5B3" p-id="10555"></path><path d="M868.1472 742.4c-5.3248-3.2768-9.8304-7.168-13.9264-11.8784l-33.9968 30.1056c-7.9872 6.9632-19.8656 6.9632-27.8528 0l-33.9968-30.1056c-3.8912 4.5056-8.6016 8.6016-13.9264 11.8784L700.2112 770.048c-36.0448 22.3232-58.1632 61.8496-58.1632 104.2432v100.352c9.4208 4.9152 19.0464 9.4208 28.8768 13.5168 108.544-36.2496 200.4992-108.544 261.7344-202.5472-6.144-5.7344-12.6976-11.0592-20.0704-15.5648l-44.4416-27.648z" fill="#508DEF" p-id="10556"></path><path d="M870.8096 811.4176c-2.2528 0-4.5056-0.8192-6.3488-2.2528-4.3008-3.4816-5.12-10.0352-1.4336-14.336 1.6384-2.048 3.072-3.8912 4.7104-5.9392 3.4816-4.5056 9.8304-5.3248 14.336-1.8432 4.5056 3.4816 5.3248 9.8304 1.8432 14.336l-4.9152 6.144c-2.2528 2.6624-5.3248 3.8912-8.192 3.8912zM745.0624 919.7568c-3.4816 0-6.9632-1.8432-8.8064-5.12-2.8672-4.9152-1.2288-11.0592 3.6864-13.9264 36.864-21.7088 70.656-48.5376 100.1472-79.872 3.8912-4.096 10.4448-4.3008 14.5408-0.4096 4.096 3.8912 4.3008 10.4448 0.4096 14.5408-30.72 32.5632-65.9456 60.8256-104.6528 83.5584-1.6384 0.8192-3.4816 1.2288-5.3248 1.2288z" fill="#ABD1FF" p-id="10557"></path><path d="M323.7888 770.048l-44.4416-27.4432c-17.6128-10.8544-28.2624-30.1056-28.2624-50.7904V673.792c0-10.0352 5.9392-19.0464 14.9504-23.1424 38.7072-18.2272 65.3312-57.5488 65.3312-103.0144v-52.4288c0-62.8736-50.9952-113.8688-113.8688-113.8688-62.8736 0-113.8688 50.9952-113.8688 113.8688v52.4288c0 45.4656 26.8288 84.7872 65.3312 103.0144 9.0112 4.3008 14.9504 13.1072 14.9504 23.1424v18.0224c0 20.6848-10.6496 39.936-28.2624 50.7904L111.2064 770.048c-7.3728 4.5056-13.9264 9.6256-20.0704 15.5648 61.2352 94.0032 153.1904 166.2976 261.7344 202.5472 9.8304-4.096 19.456-8.6016 28.8768-13.5168v-100.352c0.2048-42.5984-21.7088-81.92-57.9584-104.2432z" fill="#FFC5B3" p-id="10558"></path><path d="M323.7888 770.048l-44.4416-27.4432c-5.3248-3.2768-9.8304-7.168-13.9264-11.8784L231.424 760.6272c-7.9872 6.9632-19.8656 6.9632-27.8528 0l-33.9968-30.1056c-3.8912 4.5056-8.6016 8.6016-13.9264 11.8784L111.2064 770.048c-7.3728 4.5056-13.9264 9.6256-20.0704 15.5648 61.2352 94.0032 153.1904 166.2976 261.7344 202.5472 9.8304-4.096 19.456-8.6016 28.8768-13.5168v-100.352c0.2048-42.5984-21.7088-81.92-57.9584-104.2432z" fill="#508DEF" p-id="10559"></path><path d="M353.0752 998.1952c-1.024 0-2.2528-0.2048-3.2768-0.6144-109.1584-36.4544-203.9808-109.7728-267.0592-206.6432-2.6624-4.096-2.048-9.6256 1.4336-13.1072 6.7584-6.3488 13.9264-11.8784 21.7088-16.7936l44.4416-27.4432c14.7456-9.0112 23.552-24.7808 23.552-42.1888v-18.0224c0-5.9392-3.4816-11.264-9.216-13.9264-43.2128-20.2752-71.2704-64.512-71.2704-112.2304v-52.4288c0-5.3248 0.4096-10.4448 1.024-15.7696 0.6144-5.5296 5.9392-9.6256 11.4688-8.8064 5.5296 0.6144 9.6256 5.7344 8.8064 11.4688-0.6144 4.3008-0.8192 8.8064-0.8192 13.1072v52.4288c0 39.936 23.3472 76.8 59.5968 93.7984 12.6976 5.9392 20.8896 18.6368 20.8896 32.5632v18.0224c0 24.3712-12.4928 46.6944-33.1776 59.5968L116.736 778.6496c-4.096 2.6624-8.192 5.3248-11.8784 8.6016 59.8016 88.2688 147.456 155.4432 248.0128 189.8496 6.3488-2.6624 12.9024-5.7344 19.0464-8.8064v-94.208c0-39.1168-19.8656-74.9568-53.248-95.4368l-44.4416-27.4432c-20.8896-12.9024-33.1776-35.2256-33.1776-59.5968v-18.0224c0-13.7216 8.192-26.4192 20.8896-32.5632 36.2496-16.9984 59.5968-53.8624 59.5968-93.7984v-52.4288c0-4.3008-0.2048-8.8064-0.8192-13.1072-0.6144-5.5296 3.2768-10.6496 8.8064-11.4688 5.5296-0.6144 10.6496 3.2768 11.4688 8.8064 0.6144 5.12 1.024 10.4448 1.024 15.7696v52.4288c0 47.9232-28.0576 91.9552-71.2704 112.2304-5.7344 2.6624-9.216 7.9872-9.216 13.9264v18.0224c0 17.2032 8.8064 32.9728 23.552 42.1888l44.4416 27.4432c39.5264 24.3712 62.8736 66.56 62.8736 112.8448v100.352c0 3.8912-2.048 7.3728-5.5296 9.0112-9.6256 4.9152-19.6608 9.6256-29.696 13.9264-1.4336 0.8192-2.8672 1.024-4.096 1.024z" fill="#1C1D21" p-id="10560"></path><path d="M353.0752 998.1952c-1.024 0-2.2528-0.2048-3.2768-0.6144-109.1584-36.4544-203.9808-109.7728-267.0592-206.6432-2.6624-4.096-2.048-9.6256 1.4336-13.1072 6.7584-6.3488 13.9264-11.8784 21.7088-16.7936l44.4416-27.4432c4.3008-2.6624 8.192-5.9392 11.4688-9.8304 1.6384-2.048 4.096-3.2768 6.7584-3.4816 2.8672-0.2048 5.7344 0.6144 7.7824 2.4576l33.9968 30.1056c4.096 3.6864 10.24 3.6864 14.336 0l33.9968-30.1056c1.8432-1.6384 4.3008-2.6624 6.7584-2.6624 3.072 0 5.7344 1.2288 7.7824 3.4816 3.2768 3.8912 7.168 7.168 11.4688 9.8304l44.4416 27.4432c39.5264 24.3712 62.8736 66.56 62.8736 112.8448v100.352c0 3.8912-2.048 7.3728-5.5296 9.0112-9.6256 4.9152-19.6608 9.6256-29.696 13.9264-1.024 1.024-2.4576 1.2288-3.6864 1.2288z m-248.4224-210.944c59.8016 88.2688 147.456 155.4432 248.0128 189.8496 6.3488-2.6624 12.9024-5.7344 19.0464-8.8064v-94.208c0-39.1168-19.8656-74.9568-53.248-95.4368l-44.4416-27.4432c-3.072-1.8432-6.144-4.096-8.8064-6.5536l-26.8288 23.7568c-11.8784 10.4448-29.696 10.4448-41.5744 0L169.984 744.6528c-2.8672 2.4576-5.7344 4.5056-8.8064 6.5536L116.736 778.6496c-4.096 2.6624-8.192 5.5296-12.0832 8.6016z m277.2992 187.392z" fill="#1C1D21" p-id="10561"></path><path d="M512 1024c-136.8064 0-265.4208-53.248-362.0864-149.9136C53.248 777.4208 0 648.8064 0 512S53.248 246.5792 149.9136 149.9136C246.5792 53.248 375.1936 0 512 0s265.4208 53.248 362.0864 149.9136C970.752 246.5792 1024 375.1936 1024 512s-53.248 265.4208-149.9136 362.0864C777.4208 970.752 648.8064 1024 512 1024z m0-1003.52C241.0496 20.48 20.48 241.0496 20.48 512s220.5696 491.52 491.52 491.52 491.52-220.5696 491.52-491.52S782.9504 20.48 512 20.48z" fill="#1C1D21" p-id="10562"></path><path d="M153.1904 811.4176c-3.072 0-5.9392-1.2288-7.9872-3.8912l-4.9152-6.144c-3.4816-4.5056-2.6624-10.8544 1.8432-14.336 4.5056-3.4816 10.8544-2.6624 14.336 1.8432 1.6384 2.048 3.072 3.8912 4.7104 5.9392 3.4816 4.3008 2.8672 10.8544-1.4336 14.336-1.8432 1.4336-4.3008 2.2528-6.5536 2.2528zM278.9376 919.7568c-1.8432 0-3.4816-0.4096-5.12-1.4336-38.7072-22.7328-73.728-50.7904-104.6528-83.5584-3.8912-4.096-3.6864-10.6496 0.4096-14.5408 4.096-3.8912 10.6496-3.6864 14.5408 0.4096 29.4912 31.3344 63.0784 58.1632 100.1472 79.872 4.9152 2.8672 6.5536 9.216 3.6864 13.9264-2.2528 3.4816-5.5296 5.3248-9.0112 5.3248z" fill="#ABD1FF" p-id="10563"></path><path d="M144.7936 505.4464c-5.7344 0-10.24-4.5056-10.24-10.24V477.184c0-5.7344 4.5056-10.24 10.24-10.24s10.24 4.5056 10.24 10.24v18.0224c0 5.7344-4.7104 10.24-10.24 10.24zM186.5728 623.4112c-1.4336 0-2.8672-0.4096-4.3008-1.024-29.0816-13.7216-47.7184-43.2128-47.7184-75.1616V530.432c0-5.7344 4.5056-10.24 10.24-10.24s10.24 4.5056 10.24 10.24v16.7936c0 24.1664 14.1312 46.4896 36.0448 56.7296 5.12 2.4576 7.3728 8.6016 4.9152 13.7216-1.8432 3.6864-5.5296 5.7344-9.4208 5.7344z" fill="#FFECE9" p-id="10564"></path><path d="M681.1648 540.672h11.6736v-60.2112h-11.6736c-16.5888 0-30.1056 13.5168-30.1056 30.1056 0 16.7936 13.5168 30.1056 30.1056 30.1056zM932.6592 540.672h-11.6736v-60.2112h11.6736c16.5888 0 30.1056 13.5168 30.1056 30.1056 0 16.7936-13.5168 30.1056-30.1056 30.1056z" fill="#FFC5B3" p-id="10565"></path><path d="M692.8384 550.912h-11.6736c-22.3232 0-40.3456-18.0224-40.3456-40.3456s18.0224-40.3456 40.3456-40.3456h11.6736c5.7344 0 10.24 4.5056 10.24 10.24V540.672c0 5.7344-4.7104 10.24-10.24 10.24z m-11.6736-60.0064c-10.8544 0-19.8656 8.8064-19.8656 19.8656s8.8064 19.8656 19.8656 19.8656h1.4336v-39.7312h-1.4336zM932.6592 550.912h-11.6736c-5.7344 0-10.24-4.5056-10.24-10.24v-60.2112c0-5.7344 4.5056-10.24 10.24-10.24h11.6736c22.3232 0 40.3456 18.0224 40.3456 40.3456s-18.0224 40.3456-40.3456 40.3456z m-1.4336-20.48h1.4336c10.8544 0 19.8656-8.8064 19.8656-19.8656s-8.8064-19.8656-19.8656-19.8656h-1.4336V530.432z" fill="#1C1D21" p-id="10566"></path><path d="M670.9248 998.1952c-1.2288 0-2.6624-0.2048-3.8912-0.8192-10.0352-4.096-20.0704-8.8064-29.696-13.9264-3.4816-1.8432-5.5296-5.3248-5.5296-9.0112v-100.352c0-46.2848 23.552-88.4736 62.8736-112.8448l44.4416-27.4432c14.7456-9.0112 23.552-24.7808 23.552-42.1888v-18.0224c0-5.9392-3.4816-11.264-9.216-13.9264-43.2128-20.2752-71.2704-64.512-71.2704-112.2304v-52.4288c0-5.3248 0.4096-10.4448 1.024-15.7696 0.6144-5.5296 5.7344-9.6256 11.4688-8.8064 5.5296 0.6144 9.6256 5.7344 8.8064 11.4688-0.6144 4.3008-0.8192 8.8064-0.8192 13.1072v52.4288c0 39.936 23.3472 76.8 59.5968 93.7984 12.6976 5.9392 20.8896 18.6368 20.8896 32.5632v18.0224c0 24.3712-12.4928 46.6944-33.1776 59.5968l-44.4416 27.4432c-33.3824 20.6848-53.248 56.32-53.248 95.4368v94.208c6.144 3.072 12.6976 5.9392 19.0464 8.8064 100.5568-34.4064 188.0064-101.5808 248.0128-189.8496-3.8912-3.072-7.7824-5.9392-11.8784-8.6016l-44.4416-27.4432c-20.8896-12.9024-33.1776-35.2256-33.1776-59.5968V673.792c0-13.7216 8.192-26.4192 20.8896-32.5632 36.2496-16.9984 59.5968-53.8624 59.5968-93.7984v-52.4288c0-4.3008-0.2048-8.8064-0.8192-13.1072-0.6144-5.5296 3.2768-10.6496 8.8064-11.4688 5.5296-0.6144 10.6496 3.2768 11.4688 8.8064 0.6144 5.12 1.024 10.4448 1.024 15.7696v52.4288c0 47.9232-28.0576 91.9552-71.2704 112.2304-5.7344 2.6624-9.216 7.9872-9.216 13.9264v18.0224c0 17.2032 8.8064 32.9728 23.552 42.1888l44.4416 27.4432c7.7824 4.7104 14.9504 10.4448 21.7088 16.7936 3.4816 3.4816 4.3008 8.8064 1.4336 13.1072-63.0784 96.8704-157.9008 170.1888-267.0592 206.6432-1.2288 0.4096-2.2528 0.4096-3.4816 0.4096z" fill="#1C1D21" p-id="10567"></path><path d="M670.9248 998.1952c-1.2288 0-2.6624-0.2048-3.8912-0.8192-10.0352-4.096-20.0704-8.8064-29.696-13.9264-3.4816-1.8432-5.5296-5.3248-5.5296-9.0112v-100.352c0-46.2848 23.552-88.4736 62.8736-112.8448l44.4416-27.4432c4.3008-2.6624 8.192-5.9392 11.4688-9.8304 1.6384-2.048 4.096-3.2768 6.7584-3.4816 2.8672-0.2048 5.7344 0.6144 7.7824 2.4576l33.9968 30.1056c4.096 3.6864 10.24 3.6864 14.336 0l33.9968-30.1056c1.8432-1.6384 4.3008-2.6624 6.7584-2.6624 3.072 0 5.7344 1.2288 7.7824 3.4816 3.2768 3.8912 7.168 7.168 11.4688 9.8304l44.4416 27.4432c7.7824 4.7104 14.9504 10.4448 21.7088 16.7936 3.4816 3.4816 4.3008 8.8064 1.4336 13.1072-63.0784 96.8704-157.9008 170.1888-267.0592 206.6432-0.8192 0.6144-1.8432 0.6144-3.072 0.6144z m-18.6368-29.9008c6.144 3.072 12.6976 6.144 19.0464 8.8064 100.5568-34.4064 188.0064-101.5808 248.0128-189.8496-3.8912-3.072-7.7824-5.9392-11.8784-8.6016l-44.4416-27.4432c-3.072-1.8432-6.144-4.096-8.8064-6.5536L827.392 768.4096c-11.8784 10.4448-29.696 10.4448-41.5744 0l-26.8288-23.7568c-2.8672 2.4576-5.7344 4.5056-8.8064 6.5536l-44.4416 27.4432c-33.3824 20.6848-53.248 56.32-53.248 95.4368v94.208z" fill="#1C1D21" p-id="10568"></path><path d="M92.16 540.672h11.6736v-60.2112H92.16c-16.5888 0-30.1056 13.5168-30.1056 30.1056 0 16.7936 13.5168 30.1056 30.1056 30.1056zM343.8592 540.672h-11.6736v-60.2112h11.6736c16.5888 0 30.1056 13.5168 30.1056 30.1056-0.2048 16.7936-13.5168 30.1056-30.1056 30.1056z" fill="#FFC5B3" p-id="10569"></path><path d="M103.8336 550.912H92.16c-22.3232 0-40.3456-18.0224-40.3456-40.3456s18.0224-40.3456 40.3456-40.3456h11.6736c5.7344 0 10.24 4.5056 10.24 10.24V540.672c0 5.7344-4.5056 10.24-10.24 10.24zM92.16 490.9056c-10.8544 0-19.8656 8.8064-19.8656 19.8656s8.8064 19.8656 19.8656 19.8656h1.4336v-39.7312H92.16zM343.8592 550.912h-11.6736c-5.7344 0-10.24-4.5056-10.24-10.24v-60.2112c0-5.7344 4.5056-10.24 10.24-10.24h11.6736c22.3232 0 40.3456 18.0224 40.3456 40.3456s-18.2272 40.3456-40.3456 40.3456z m-1.4336-20.48h1.4336c10.8544 0 19.8656-8.8064 19.8656-19.8656s-8.8064-19.8656-19.8656-19.8656h-1.4336V530.432z" fill="#1C1D21" p-id="10570"></path><path d="M217.4976 381.1328c-3.2768 0-6.5536 0.2048-9.8304 0.4096-53.4528 4.5056-96.256 46.08-103.0144 98.9184 98.9184-0.2048 113.2544-50.7904 113.2544-50.7904s14.336 50.176 112.4352 50.7904c-6.9632-55.9104-54.8864-99.328-112.8448-99.328z" fill="#C67552" p-id="10571"></path><path d="M104.6528 490.9056c-2.8672 0-5.7344-1.2288-7.5776-3.4816-2.048-2.2528-2.8672-5.12-2.4576-7.9872 7.3728-57.5488 54.4768-103.0144 112.2304-107.9296 3.4816-0.2048 7.168-0.4096 10.6496-0.4096 62.2592 0 115.0976 46.4896 123.0848 108.3392 0.4096 2.8672-0.6144 5.9392-2.4576 7.9872-2.048 2.2528-4.9152 3.4816-7.7824 3.4816-67.7888-0.4096-98.7136-23.7568-112.4352-40.7552-13.5168 16.9984-44.6464 40.5504-113.2544 40.7552z m112.8448-99.5328c-3.072 0-5.9392 0.2048-9.0112 0.4096-44.2368 3.6864-80.896 35.84-91.5456 78.2336 77.6192-3.8912 90.5216-41.5744 91.136-43.2128 1.2288-4.3008 5.3248-7.3728 9.8304-7.3728 4.5056 0 8.6016 3.072 9.8304 7.5776 0.4096 1.6384 13.312 38.912 90.112 43.008-11.0592-45.6704-52.4288-78.6432-100.352-78.6432z" fill="#1C1D21" p-id="10572"></path><path d="M661.7088 668.8768l-62.8736-38.7072c-24.7808-15.36-39.936-42.3936-39.936-71.68v-25.3952c0-14.1312 8.3968-26.624 21.0944-32.768 54.4768-25.6 92.16-80.896 92.16-145.2032v-73.728C672.3584 192.512 600.4736 120.832 512 120.832s-160.3584 71.8848-160.3584 160.3584v73.728c0 64.1024 37.6832 119.6032 92.16 145.2032 12.6976 5.9392 21.0944 18.6368 21.0944 32.768v25.3952c0 29.2864-15.1552 56.32-39.936 71.68l-62.8736 38.7072c-50.9952 31.5392-81.92 87.04-81.92 146.8416v141.5168C349.5936 993.28 428.4416 1013.76 512 1013.76s162.4064-20.48 231.6288-56.5248v-141.5168c0-59.8016-30.9248-115.5072-81.92-146.8416z" fill="#FFC5B3" p-id="10573"></path><path d="M531.6608 655.7696c-11.264 10.0352-28.0576 10.0352-39.3216 0l-47.7184-42.3936c-5.5296 6.3488-12.0832 12.0832-19.456 16.5888l-62.8736 38.7072c-50.9952 31.5392-81.92 87.04-81.92 146.8416v141.5168C349.5936 993.28 428.4416 1013.76 512 1013.76s162.4064-20.48 231.6288-56.5248v-141.5168c0-59.8016-30.9248-115.5072-81.92-146.8416l-62.8736-38.7072c-7.3728-4.5056-13.9264-10.24-19.456-16.5888l-47.7184 42.1888z" fill="#FFECE9" p-id="10574"></path><path d="M512 706.56l-30.3104 163.0208c-6.144 33.5872-4.9152 68.1984 3.8912 101.1712l11.4688 42.8032c4.9152 0.2048 10.0352 0.2048 14.9504 0.2048 5.12 0 10.0352 0 14.9504-0.2048l11.4688-42.8032c8.8064-32.9728 10.0352-67.584 3.8912-101.1712L512 706.56z" fill="#FF3E63" p-id="10575"></path><path d="M512 1024c-4.9152 0-10.24 0-15.36-0.2048-4.5056-0.2048-8.3968-3.2768-9.6256-7.5776l-11.4688-42.8032c-9.0112-34.2016-10.4448-70.8608-4.096-105.6768l30.3104-163.0208c0.8192-4.9152 5.12-8.3968 10.0352-8.3968s9.216 3.4816 10.0352 8.3968l30.3104 163.0208c6.5536 34.816 5.12 71.4752-4.096 105.6768l-11.4688 42.8032c-1.2288 4.3008-5.12 7.3728-9.6256 7.5776-4.7104 0.2048-10.0352 0.2048-14.9504 0.2048z m-7.168-20.48h14.1312l9.4208-35.4304c8.3968-31.3344 9.6256-64.7168 3.6864-96.6656l-20.0704-108.7488-20.0704 108.7488c-5.9392 31.9488-4.7104 65.3312 3.6864 96.6656l9.216 35.4304z" fill="#1C1D21" p-id="10576"></path><path d="M329.1136 345.7024h22.528v-84.7872h-22.528c-20.0704 0-36.2496 16.1792-36.2496 36.2496v12.288c0 20.0704 16.384 36.2496 36.2496 36.2496zM696.1152 345.7024h-22.528v-84.7872h22.528c20.0704 0 36.2496 16.1792 36.2496 36.2496v12.288c0 20.0704-16.384 36.2496-36.2496 36.2496z" fill="#FFC5B3" p-id="10577"></path><path d="M351.8464 355.9424h-22.528c-25.6 0-46.4896-20.8896-46.4896-46.4896v-12.288c0-25.6 20.8896-46.4896 46.4896-46.4896h22.528c5.7344 0 10.24 4.5056 10.24 10.24v84.7872c0 5.5296-4.7104 10.24-10.24 10.24z m-22.7328-84.7872c-14.336 0-26.0096 11.6736-26.0096 26.0096v12.288c0 14.336 11.6736 26.0096 26.0096 26.0096h12.288v-64.3072h-12.288zM696.1152 355.9424h-22.528c-5.7344 0-10.24-4.5056-10.24-10.24v-84.7872c0-5.7344 4.5056-10.24 10.24-10.24h22.528c25.6 0 46.4896 20.8896 46.4896 46.4896v12.288c0 25.6-20.8896 46.4896-46.4896 46.4896z m-12.4928-20.48h12.288c14.336 0 26.0096-11.6736 26.0096-26.0096v-12.288c0-14.336-11.6736-26.0096-26.0096-26.0096h-12.288v64.3072z" fill="#1C1D21" p-id="10578"></path><path d="M512 120.832c-4.7104 0-9.216 0.2048-13.9264 0.6144-75.3664 6.3488-135.7824 64.9216-145.2032 139.4688 139.264-0.4096 159.744-71.68 159.744-71.68s20.2752 70.656 158.5152 71.4752C661.0944 181.8624 593.7152 120.832 512 120.832z" fill="#FF8939" p-id="10579"></path><path d="M512 1024c-82.1248 0-163.84-20.0704-236.3392-57.7536-3.4816-1.8432-5.5296-5.3248-5.5296-9.0112v-141.5168c0-63.8976 32.3584-122.0608 86.8352-155.648l62.8736-38.7072c21.9136-13.5168 35.0208-37.0688 35.0208-63.0784v-25.3952c0-10.0352-5.9392-19.0464-15.36-23.3472-59.5968-28.0576-98.0992-88.6784-98.0992-154.4192v-73.728c0-7.168 0.4096-14.5408 1.4336-21.504 0.6144-5.5296 5.7344-9.6256 11.4688-8.8064 5.5296 0.6144 9.6256 5.7344 8.8064 11.4688-0.8192 6.3488-1.2288 12.6976-1.2288 19.0464v73.728c0 57.9584 33.792 111.2064 86.2208 135.9872 16.384 7.7824 27.0336 24.1664 27.0336 41.984v25.3952c0 32.9728-16.7936 63.0784-44.8512 80.4864L367.4112 677.888c-48.3328 29.9008-77.0048 81.5104-77.0048 138.24v135.168C358.8096 985.2928 435.2 1003.52 512 1003.52s153.1904-18.2272 221.3888-52.6336v-135.168c0-56.7296-28.8768-108.3392-77.0048-138.24l-62.8736-38.7072c-28.0576-17.408-44.8512-47.3088-44.8512-80.4864v-25.3952c0-17.8176 10.6496-34.2016 27.0336-41.984 52.4288-24.576 86.2208-78.0288 86.2208-135.9872v-73.728c0-6.3488-0.4096-12.6976-1.2288-19.0464-0.6144-5.5296 3.2768-10.6496 8.8064-11.4688 5.5296-0.6144 10.6496 3.2768 11.4688 8.8064 0.8192 7.168 1.4336 14.336 1.4336 21.7088v73.728c0 65.7408-38.5024 126.3616-98.0992 154.4192-9.4208 4.5056-15.36 13.5168-15.36 23.3472v25.3952c0 25.8048 13.1072 49.3568 35.0208 63.0784l62.8736 38.7072c54.272 33.5872 86.8352 91.7504 86.8352 155.648v141.5168c0 3.8912-2.048 7.3728-5.5296 9.0112C675.84 1003.9296 594.1248 1024 512 1024z" fill="#1C1D21" p-id="10580"></path><path d="M512 1024c-82.1248 0-163.84-20.0704-236.3392-57.7536-3.4816-1.8432-5.5296-5.3248-5.5296-9.0112v-141.5168c0-63.8976 32.3584-122.0608 86.8352-155.648l62.8736-38.7072c6.3488-3.8912 12.0832-8.8064 17.2032-14.7456 1.6384-1.8432 3.8912-3.072 6.3488-3.4816 3.072-0.4096 6.144 0.4096 8.3968 2.4576l47.7184 42.3936c7.3728 6.5536 18.432 6.5536 25.8048 0l47.7184-42.3936c1.8432-1.6384 4.3008-2.6624 6.7584-2.6624 3.072 0 5.9392 1.2288 7.7824 3.4816 4.9152 5.7344 10.6496 10.6496 17.2032 14.7456l62.8736 38.7072c54.272 33.5872 86.8352 91.7504 86.8352 155.648v141.5168c0 3.8912-2.048 7.3728-5.5296 9.0112C675.84 1003.9296 594.1248 1024 512 1024z m-221.3888-73.1136C358.8096 985.2928 435.2 1003.52 512 1003.52s153.1904-18.2272 221.3888-52.6336v-135.168c0-56.7296-28.8768-108.3392-77.0048-138.24l-62.8736-38.7072c-5.3248-3.2768-10.24-6.9632-14.7456-11.264l-40.5504 35.84c-15.1552 13.312-37.888 13.312-52.8384 0l-40.5504-35.84c-4.5056 4.3008-9.4208 7.9872-14.7456 11.264l-62.8736 38.7072c-48.3328 29.9008-77.0048 81.5104-77.0048 138.24v135.168z m241.0496-295.1168z" fill="#1C1D21" p-id="10581"></path><path d="M529.2032 714.9568l44.6464-84.7872h-13.1072l-29.0816 25.6c-11.264 10.0352-28.0576 10.0352-39.3216 0l-29.0816-25.6h-13.1072l44.6464 84.7872c8.3968 16.1792 26.0096 16.1792 34.4064 0z" fill="#FF3E63" p-id="10582"></path><path d="M512 737.28c-10.6496 0-20.48-6.5536-26.4192-17.6128L440.9344 634.88c-1.6384-3.2768-1.6384-6.9632 0.2048-10.0352 1.8432-3.072 5.12-4.9152 8.8064-4.9152h13.1072c2.4576 0 4.9152 0.8192 6.7584 2.6624l29.0816 25.6c7.3728 6.5536 18.432 6.5536 25.8048 0l29.0816-25.6c1.8432-1.6384 4.3008-2.6624 6.7584-2.6624h13.1072c3.6864 0 6.9632 1.8432 8.8064 4.9152 1.8432 3.072 2.048 6.9632 0.2048 10.0352l-44.6464 84.7872c-5.5296 11.0592-15.36 17.6128-26.0096 17.6128z m-38.2976-84.3776l30.1056 57.1392c2.2528 4.096 5.3248 6.7584 8.192 6.7584s5.9392-2.4576 8.192-6.7584l30.1056-57.1392-11.8784 10.4448c-15.1552 13.312-37.888 13.312-52.8384 0l-11.8784-10.4448z" fill="#1C1D21" p-id="10583"></path><path d="M444.6208 613.376c-0.2048 0-0.2048 0 0 0-1.2288 1.4336-2.6624 2.8672-3.8912 4.096l-1.024 1.024c-1.2288 1.2288-2.6624 2.6624-4.096 3.6864-0.2048 0.2048-0.4096 0.2048-0.4096 0.4096-1.2288 1.024-2.6624 2.048-3.8912 3.072-0.4096 0.4096-1.024 0.6144-1.4336 1.024-1.4336 1.024-2.8672 2.048-4.5056 3.072V720.896l66.9696-65.1264-47.7184-42.3936zM579.3792 613.376s0.2048 0 0 0c1.2288 1.4336 2.6624 2.8672 3.8912 4.096l1.024 1.024c1.2288 1.2288 2.6624 2.6624 4.096 3.6864 0.2048 0.2048 0.4096 0.2048 0.4096 0.4096 1.2288 1.024 2.6624 2.048 3.8912 3.072 0.4096 0.4096 1.024 0.6144 1.4336 1.024 1.4336 1.024 2.8672 2.048 4.5056 3.072V720.896l-66.9696-65.1264 47.7184-42.3936z" fill="#FFECE9" p-id="10584"></path><path d="M425.3696 731.136c-1.4336 0-2.6624-0.2048-3.8912-0.8192-3.8912-1.6384-6.3488-5.3248-6.3488-9.4208v-91.136c0-3.4816 1.8432-6.7584 4.9152-8.6016 1.2288-0.8192 2.4576-1.6384 3.8912-2.6624 0.4096-0.2048 0.8192-0.6144 1.2288-1.024 1.2288-1.024 2.4576-1.8432 3.4816-2.6624l0.4096-0.4096c1.024-0.8192 2.2528-2.048 3.4816-3.2768l0.8192-0.8192c1.2288-1.4336 2.4576-2.4576 3.2768-3.4816l0.4096-0.4096c1.6384-1.6384 3.6864-2.8672 5.9392-3.072 3.072-0.4096 6.144 0.4096 8.3968 2.4576l47.7184 42.3936c2.048 1.8432 3.2768 4.5056 3.4816 7.3728 0 2.8672-1.024 5.5296-3.072 7.5776l-66.9696 65.1264c-2.048 1.8432-4.7104 2.8672-7.168 2.8672z m10.24-95.8464v61.44l41.7792-40.5504-32.1536-28.4672c-1.024 1.024-1.8432 1.8432-2.8672 2.6624-0.2048 0.2048-0.4096 0.2048-0.6144 0.4096-1.4336 1.2288-2.8672 2.2528-4.3008 3.4816-0.6144 0-1.2288 0.4096-1.8432 1.024 0-0.2048 0 0 0 0z m8.8064-21.9136zM598.6304 731.136c-2.6624 0-5.12-1.024-7.168-2.8672l-66.9696-65.1264c-2.048-2.048-3.072-4.7104-3.072-7.5776s1.2288-5.5296 3.4816-7.3728l47.7184-42.3936c2.2528-2.048 5.3248-2.8672 8.192-2.4576 2.2528 0.4096 4.5056 1.4336 5.9392 3.072l0.4096 0.4096c1.024 1.024 2.048 2.2528 3.2768 3.4816l0.8192 0.8192c1.4336 1.4336 2.4576 2.4576 3.6864 3.2768l0.4096 0.4096c1.024 0.8192 2.048 1.8432 3.4816 2.6624 0.4096 0.4096 0.8192 0.6144 1.2288 1.024 1.4336 1.024 2.6624 1.8432 3.8912 2.6624 3.072 1.8432 4.9152 5.12 4.9152 8.6016V720.896c0 4.096-2.4576 7.7824-6.3488 9.4208-1.2288 0.6144-2.4576 0.8192-3.8912 0.8192z m-52.0192-75.1616l41.7792 40.5504v-61.44h-0.2048c-0.6144-0.4096-1.024-0.8192-1.6384-1.2288-1.6384-1.2288-3.072-2.2528-4.3008-3.4816-0.2048-0.2048-0.4096-0.2048-0.6144-0.4096-1.024-0.8192-1.8432-1.6384-2.8672-2.6624l-32.1536 28.672z" fill="#1C1D21" p-id="10585"></path><path d="M425.3696 629.76l-0.2048 0.2048-62.8736 38.7072c-50.9952 31.5392-81.92 87.04-81.92 146.8416v141.5168c44.8512 23.3472 93.5936 40.1408 144.9984 49.152V629.76z" fill="#AAADAD" p-id="10586"></path><path d="M425.3696 1016.4224c-0.6144 0-1.2288 0-1.8432-0.2048-51.6096-9.0112-101.376-25.8048-147.8656-50.176-3.4816-1.8432-5.5296-5.3248-5.5296-9.0112v-141.5168c0-63.8976 32.3584-122.0608 86.8352-155.648l62.6688-38.7072c0.2048-0.2048 0.4096-0.2048 0.4096-0.4096 3.072-1.8432 7.168-2.048 10.4448-0.2048 3.2768 1.8432 5.3248 5.3248 5.3248 9.0112v376.4224c0 3.072-1.4336 5.9392-3.6864 7.7824-2.048 1.8432-4.5056 2.6624-6.7584 2.6624z m-134.7584-65.536c39.3216 19.8656 81.3056 34.4064 124.5184 43.008V648.192l-47.5136 29.2864c-48.3328 29.9008-77.0048 81.5104-77.0048 138.24v135.168z" fill="#1C1D21" p-id="10587"></path><path d="M598.6304 629.76l0.2048 0.2048 62.8736 38.7072c50.9952 31.5392 81.92 87.04 81.92 146.8416v141.5168c-44.8512 23.3472-93.5936 40.1408-144.9984 49.152V629.76z" fill="#AAADAD" p-id="10588"></path><path d="M598.6304 1016.4224c-2.4576 0-4.7104-0.8192-6.5536-2.4576-2.2528-2.048-3.6864-4.9152-3.6864-7.7824V629.76c0-3.6864 2.048-7.168 5.3248-9.0112 3.2768-1.8432 7.168-1.6384 10.4448 0.2048 0.2048 0 0.2048 0.2048 0.4096 0.2048l62.6688 38.7072c54.272 33.5872 86.8352 91.7504 86.8352 155.648v141.5168c0 3.8912-2.048 7.3728-5.5296 9.0112-46.4896 24.1664-96.256 41.1648-147.8656 50.176-0.8192 0.2048-1.4336 0.2048-2.048 0.2048z m10.24-368.2304v345.7024c43.2128-8.6016 84.992-23.1424 124.5184-43.008v-135.168c0-56.7296-28.8768-108.3392-77.0048-138.24l-47.5136-29.2864z" fill="#1C1D21" p-id="10589"></path><path d="M424.96 629.9648L367.4112 772.096c-4.9152 12.288 4.096 25.8048 17.408 25.8048 4.7104 0 7.9872 4.9152 5.9392 9.216l-14.9504 31.9488c-15.5648 33.3824-19.456 71.0656-10.8544 106.9056l11.8784 49.152c15.7696 4.5056 31.9488 7.9872 48.3328 10.8544l-0.2048-376.0128zM598.8352 629.9648l57.5488 142.1312c4.9152 12.288-4.096 25.8048-17.408 25.8048-4.7104 0-7.9872 4.9152-5.9392 9.216l14.9504 31.9488c15.5648 33.3824 19.456 71.0656 10.8544 106.9056l-11.8784 49.152c-15.7696 4.5056-31.9488 7.9872-48.3328 10.8544l0.2048-376.0128z" fill="#AAADAD" p-id="10590"></path><path d="M598.6304 1016.4224c-2.4576 0-4.7104-0.8192-6.5536-2.4576-2.2528-2.048-3.6864-4.9152-3.6864-7.7824l0.2048-376.2176c0-4.9152 3.4816-9.0112 8.192-10.0352 4.9152-1.024 9.6256 1.6384 11.4688 6.144l57.5488 142.1312c3.6864 9.0112 2.6624 19.0464-2.8672 27.0336-4.3008 6.3488-11.0592 10.8544-18.432 12.288l12.6976 27.2384c16.5888 35.4304 20.48 75.776 11.4688 113.664l-11.8784 49.152c-0.8192 3.6864-3.6864 6.5536-7.168 7.3728-16.1792 4.5056-32.768 8.192-49.3568 11.0592-0.4096 0.4096-1.024 0.4096-1.6384 0.4096z m10.4448-333.824l-0.2048 311.296c9.8304-2.048 19.6608-4.3008 29.4912-6.9632l10.4448-43.2128c7.9872-33.3824 4.5056-69.0176-10.0352-100.352l-14.9504-31.9488c-2.4576-5.12-2.048-11.264 1.024-15.9744 3.072-4.9152 8.3968-7.7824 14.1312-7.7824 2.8672 0 5.5296-1.4336 7.168-3.6864 1.6384-2.4576 1.8432-5.3248 0.8192-7.9872l-37.888-93.3888z" fill="#1C1D21" p-id="10591"></path><path d="M461.2096 473.2928c-1.4336 0-2.8672-0.4096-4.3008-1.024-45.2608-21.2992-74.5472-67.3792-74.5472-117.3504v-73.728c0-8.3968 0.8192-16.5888 2.4576-24.7808 1.024-5.5296 6.5536-9.216 12.0832-8.192s9.216 6.5536 8.192 12.0832c-1.2288 6.7584-2.048 13.9264-2.048 20.8896v73.728c0 42.1888 24.576 80.896 62.8736 98.9184 5.12 2.4576 7.3728 8.6016 4.9152 13.7216-2.048 3.4816-5.7344 5.7344-9.6256 5.7344z" fill="#FFECE9" p-id="10592"></path><path d="M460.3904 183.7056c-3.8912 0-7.3728-2.048-9.216-5.7344-2.4576-5.12-0.4096-11.264 4.7104-13.7216 1.8432-0.8192 3.8912-1.8432 5.7344-2.6624 5.12-2.2528 11.264 0.2048 13.5168 5.5296 2.2528 5.12-0.2048 11.264-5.5296 13.5168-1.6384 0.6144-3.2768 1.4336-4.7104 2.2528-1.6384 0.6144-3.072 0.8192-4.5056 0.8192zM394.8544 268.4928c-0.6144 0-1.2288 0-2.048-0.2048-5.5296-1.024-9.216-6.5536-8.192-12.0832 4.9152-25.8048 17.6128-49.152 36.4544-67.584 4.096-3.8912 10.4448-3.8912 14.5408 0.2048 3.8912 4.096 3.8912 10.4448-0.2048 14.5408-15.7696 15.5648-26.4192 35.2256-30.72 56.9344-0.8192 4.9152-5.12 8.192-9.8304 8.192z" fill="#FFC5B3" p-id="10593"></path><path d="M352.8704 271.1552c-2.8672 0-5.7344-1.2288-7.5776-3.4816-2.048-2.2528-2.8672-5.12-2.4576-7.9872 2.4576-19.8656 8.3968-38.912 17.6128-56.7296 2.6624-5.12 8.8064-6.9632 13.7216-4.3008 5.12 2.6624 6.9632 8.8064 4.3008 13.7216-6.144 12.0832-10.8544 24.7808-13.5168 38.0928 60.2112-2.048 94.0032-18.6368 112.2304-32.3584 20.48-15.5648 25.3952-31.5392 25.6-31.5392 1.2288-4.3008 5.3248-7.3728 9.8304-7.3728s8.6016 3.072 9.8304 7.3728c0 0 5.12 15.7696 25.3952 31.3344 18.0224 13.7216 51.6096 30.3104 111.2064 32.5632C644.5056 181.4528 583.4752 131.072 512 131.072c-4.3008 0-8.6016 0.2048-12.9024 0.6144-5.5296 0.4096-10.6496-3.6864-11.0592-9.4208-0.4096-5.7344 3.6864-10.6496 9.4208-11.0592 4.9152-0.4096 9.8304-0.6144 14.7456-0.6144 85.6064 0 158.5152 64.1024 169.1648 148.8896 0.4096 2.8672-0.6144 5.9392-2.4576 7.9872-1.8432 2.2528-4.7104 3.4816-7.5776 3.4816-100.1472-0.6144-141.9264-37.0688-158.3104-60.2112-16.9984 23.552-58.9824 60.0064-160.1536 60.416 0.2048 0 0 0 0 0z" fill="#1C1D21" p-id="10594"></path><path d="M388.3008 189.44c-2.2528 0-4.5056-0.8192-6.5536-2.2528-4.3008-3.6864-4.9152-10.0352-1.4336-14.336 10.24-12.288 22.1184-23.3472 35.2256-32.3584 4.7104-3.2768 11.0592-2.048 14.336 2.6624 3.2768 4.7104 2.048 11.0592-2.6624 14.336-11.6736 7.9872-22.1184 17.6128-31.1296 28.4672-1.8432 2.2528-4.9152 3.4816-7.7824 3.4816zM455.4752 141.312c-4.096 0-7.9872-2.4576-9.6256-6.5536-2.048-5.3248 0.6144-11.264 5.9392-13.1072 2.6624-1.024 5.3248-1.8432 7.9872-2.6624 5.3248-1.6384 11.0592 1.2288 12.9024 6.5536s-1.2288 11.0592-6.5536 12.9024c-2.2528 0.8192-4.7104 1.6384-6.9632 2.4576-1.2288 0.2048-2.4576 0.4096-3.6864 0.4096z" fill="#1C1D21" p-id="10595"></path><path d="M321.3312 941.8752c-5.7344 0-10.24-4.5056-10.24-10.24v-115.9168c0-49.5616 25.1904-94.6176 67.3792-120.832l9.216-5.7344c4.7104-3.072 11.0592-1.4336 14.1312 3.2768s1.4336 11.0592-3.2768 14.1312l-9.216 5.7344c-36.0448 22.3232-57.5488 60.8256-57.5488 103.424v115.9168c-0.2048 5.5296-4.9152 10.24-10.4448 10.24z" fill="#E0E0E0" p-id="10596"></path><path d="M425.1648 1016.4224c-0.6144 0-1.2288 0-1.8432-0.2048-16.5888-2.8672-33.1776-6.5536-49.3568-11.0592-3.4816-1.024-6.3488-3.8912-7.168-7.3728l-11.8784-49.152c-9.216-37.888-5.12-78.4384 11.4688-113.664l12.6976-27.2384c-7.3728-1.4336-14.1312-5.7344-18.432-12.288-5.3248-7.9872-6.5536-18.2272-2.8672-27.0336l57.5488-142.1312c1.8432-4.5056 6.5536-7.168 11.4688-6.144 4.7104 1.024 8.192 5.12 8.192 10.0352l0.2048 376.2176c0 3.072-1.4336 5.9392-3.6864 7.7824-1.6384 1.4336-3.8912 2.2528-6.3488 2.2528zM385.4336 987.136c9.8304 2.6624 19.6608 4.9152 29.4912 6.9632l-0.2048-311.296-37.888 93.5936c-1.024 2.6624-0.8192 5.5296 0.8192 7.9872 1.6384 2.4576 4.3008 3.6864 7.168 3.6864 5.7344 0 11.0592 2.8672 14.1312 7.7824s3.4816 10.8544 1.024 15.9744L385.024 843.776c-14.5408 31.1296-18.2272 66.7648-10.0352 100.352l10.4448 43.008z" fill="#1C1D21" p-id="10597"></path><path d="M879.2064 505.4464c-5.7344 0-10.24-4.5056-10.24-10.24V477.184c0-5.7344 4.5056-10.24 10.24-10.24s10.24 4.5056 10.24 10.24v18.0224c0 5.7344-4.5056 10.24-10.24 10.24zM837.4272 623.4112c-3.8912 0-7.5776-2.2528-9.216-5.9392-2.4576-5.12-0.2048-11.264 4.9152-13.7216 21.9136-10.24 36.0448-32.5632 36.0448-56.7296V530.432c0-5.7344 4.5056-10.24 10.24-10.24s10.24 4.5056 10.24 10.24v16.7936c0 31.9488-18.8416 61.6448-47.7184 75.1616-1.6384 0.8192-3.072 1.024-4.5056 1.024z" fill="#FFECE9" p-id="10598"></path><path d="M806.5024 381.1328c-3.2768 0-6.5536 0.2048-9.8304 0.4096-53.4528 4.5056-96.256 46.08-103.0144 98.9184 98.9184-0.2048 113.2544-50.7904 113.2544-50.7904s14.336 50.176 112.4352 50.7904c-7.168-55.9104-54.8864-99.328-112.8448-99.328z" fill="#C67552" p-id="10599"></path><path d="M693.6576 490.9056c-2.8672 0-5.7344-1.2288-7.5776-3.4816-2.048-2.2528-2.8672-5.12-2.4576-7.9872 7.3728-57.5488 54.4768-103.0144 112.2304-107.9296 3.4816-0.2048 7.168-0.4096 10.6496-0.4096 62.2592 0 115.0976 46.4896 123.0848 108.3392 0.4096 2.8672-0.6144 5.9392-2.4576 7.9872-2.048 2.2528-4.9152 3.4816-7.7824 3.4816-67.7888-0.4096-98.7136-23.7568-112.4352-40.7552-13.7216 16.9984-44.8512 40.5504-113.2544 40.7552z m112.8448-99.5328c-3.072 0-5.9392 0.2048-9.0112 0.4096-44.2368 3.6864-80.896 35.84-91.5456 78.2336 77.6192-3.8912 90.5216-41.5744 91.136-43.2128 1.2288-4.3008 5.3248-7.3728 9.8304-7.3728 4.5056 0 8.6016 3.072 9.8304 7.5776 0.4096 1.6384 13.312 38.912 90.112 43.008-11.264-45.6704-52.4288-78.6432-100.352-78.6432z" fill="#1C1D21" p-id="10600"></path></svg>