<svg xmlns="http://www.w3.org/2000/svg" viewBox="0 0 1024 1024" version="1.1"><path d="M512 512m-501.76 0a501.76 501.76 0 1 0 1003.52 0 501.76 501.76 0 1 0-1003.52 0Z" fill="#8CEEF9" p-id="9569"></path><path d="M512 1024c-136.8064 0-265.4208-53.248-362.0864-149.9136S0 648.8064 0 512 53.248 246.5792 149.9136 149.9136C246.5792 53.248 375.1936 0 512 0s265.4208 53.248 362.0864 149.9136C970.752 246.5792 1024 375.1936 1024 512s-53.248 265.4208-149.9136 362.0864S648.8064 1024 512 1024z m0-1003.52C241.0496 20.48 20.48 241.0496 20.48 512s220.5696 491.52 491.52 491.52 491.52-220.5696 491.52-491.52S782.9504 20.48 512 20.48z" fill="#1C1D21" p-id="9570"></path><path d="M781.5168 776.192H242.4832c-22.528 0-40.96-18.432-40.96-40.96V406.3232c0-22.528 18.432-40.96 40.96-40.96h539.0336c22.528 0 40.96 18.432 40.96 40.96V735.232c0 22.528-18.2272 40.96-40.96 40.96z" fill="#508DEF" p-id="9571"></path><path d="M242.4832 776.192c-22.528 0-40.96-18.432-40.96-40.96V406.3232c0-22.528 18.432-40.96 40.96-40.96h539.0336L242.4832 776.192z" fill="#ABD1FF" p-id="9572"></path><path d="M603.136 375.6032H591.872c-5.7344 0-10.24-4.5056-10.24-10.24s4.5056-10.24 10.24-10.24h11.264c5.7344 0 10.24 4.5056 10.24 10.24s-4.5056 10.24-10.24 10.24zM541.696 375.6032h-102.4c-5.7344 0-10.24-4.5056-10.24-10.24s4.5056-10.24 10.24-10.24h102.4c5.7344 0 10.24 4.5056 10.24 10.24s-4.5056 10.24-10.24 10.24z" fill="#1C1D21" p-id="9573"></path><path d="M781.5168 786.432H242.4832c-28.2624 0-51.2-22.9376-51.2-51.2V406.3232c0-28.2624 22.9376-51.2 51.2-51.2H391.168c5.7344 0 10.24 4.5056 10.24 10.24s-4.5056 10.24-10.24 10.24h-148.6848c-16.9984 0-30.72 13.7216-30.72 30.72V735.232c0 16.9984 13.7216 30.72 30.72 30.72h539.0336c16.9984 0 30.72-13.7216 30.72-30.72V406.3232c0-16.9984-13.7216-30.72-30.72-30.72H649.216c-5.7344 0-10.24-4.5056-10.24-10.24s4.5056-10.24 10.24-10.24h132.3008c28.2624 0 51.2 22.9376 51.2 51.2V735.232c0 28.2624-22.9376 51.2-51.2 51.2z" fill="#1C1D21" p-id="9574"></path><path d="M242.4832 429.4656c-5.7344 0-10.24-4.5056-10.24-10.24v-12.9024c0-5.7344 4.5056-10.24 10.24-10.24s10.24 4.5056 10.24 10.24v12.9024c0 5.5296-4.7104 10.24-10.24 10.24zM242.4832 720.2816c-5.7344 0-10.24-4.5056-10.24-10.24V466.944c0-5.7344 4.5056-10.24 10.24-10.24s10.24 4.5056 10.24 10.24v243.0976c0 5.5296-4.7104 10.24-10.24 10.24z" fill="#FFFFFF" p-id="9575"></path><path d="M201.5232 710.0416V735.232c0 22.528 18.432 40.96 40.96 40.96h539.0336c22.528 0 40.96-18.432 40.96-40.96v-25.1904H201.5232z" fill="#FFECE9" p-id="9576"></path><path d="M781.5168 786.432H242.4832c-28.2624 0-51.2-22.9376-51.2-51.2v-25.1904c0-5.7344 4.5056-10.24 10.24-10.24h620.9536c5.7344 0 10.24 4.5056 10.24 10.24V735.232c0 28.2624-22.9376 51.2-51.2 51.2z m-569.7536-66.1504v14.9504c0 16.9984 13.7216 30.72 30.72 30.72h539.0336c16.9984 0 30.72-13.7216 30.72-30.72v-14.9504H211.7632z" fill="#1C1D21" p-id="9577"></path><path d="M737.28 599.4496h-142.336c-5.7344 0-10.24-4.5056-10.24-10.24v-142.336c0-5.7344 4.5056-10.24 10.24-10.24H737.28c5.7344 0 10.24 4.5056 10.24 10.24v142.336c0 5.7344-4.5056 10.24-10.24 10.24z" fill="#FFECE9" p-id="9578"></path><path d="M737.28 609.6896h-142.336c-11.264 0-20.48-9.216-20.48-20.48v-142.336c0-11.264 9.216-20.48 20.48-20.48H737.28c11.264 0 20.48 9.216 20.48 20.48v142.336c0 11.264-9.0112 20.48-20.48 20.48z m-142.336-162.816v142.336H737.28v-142.336h-142.336z" fill="#1C1D21" p-id="9579"></path><path d="M705.7408 599.4496H626.688v-23.3472c0-18.0224 14.7456-32.768 32.768-32.768h13.312c18.0224 0 32.768 14.7456 32.768 32.768v23.3472z" fill="#AAADAD" p-id="9580"></path><path d="M666.2144 512.6144m-30.9248 0a30.9248 30.9248 0 1 0 61.8496 0 30.9248 30.9248 0 1 0-61.8496 0Z" fill="#FFC5B3" p-id="9581"></path><path d="M705.7408 609.6896H626.688c-5.7344 0-10.24-4.5056-10.24-10.24v-23.3472c0-23.7568 19.2512-43.008 43.008-43.008h13.312c23.7568 0 43.008 19.2512 43.008 43.008v23.3472c0.2048 5.7344-4.5056 10.24-10.0352 10.24z m-68.8128-20.48h58.368v-13.1072c0-12.4928-10.0352-22.528-22.528-22.528H659.456c-12.4928 0-22.528 10.0352-22.528 22.528v13.1072z" fill="#1C1D21" p-id="9582"></path><path d="M666.2144 553.7792c-22.7328 0-41.1648-18.432-41.1648-41.1648 0-22.7328 18.432-41.1648 41.1648-41.1648s41.1648 18.432 41.1648 41.1648c-0.2048 22.7328-18.6368 41.1648-41.1648 41.1648z m0-61.6448c-11.264 0-20.6848 9.216-20.6848 20.6848 0 11.264 9.216 20.6848 20.6848 20.6848s20.6848-9.216 20.6848-20.6848c-0.2048-11.4688-9.4208-20.6848-20.6848-20.6848zM405.504 446.8736h-113.4592c-5.7344 0-10.24-4.5056-10.24-10.24s4.5056-10.24 10.24-10.24H405.504c5.7344 0 10.24 4.5056 10.24 10.24s-4.5056 10.24-10.24 10.24zM405.504 517.7344h-113.4592c-5.7344 0-10.24-4.5056-10.24-10.24s4.5056-10.24 10.24-10.24H405.504c5.7344 0 10.24 4.5056 10.24 10.24s-4.5056 10.24-10.24 10.24zM405.504 588.3904h-113.4592c-5.7344 0-10.24-4.5056-10.24-10.24s4.5056-10.24 10.24-10.24H405.504c5.7344 0 10.24 4.5056 10.24 10.24s-4.5056 10.24-10.24 10.24zM405.504 659.2512h-113.4592c-5.7344 0-10.24-4.5056-10.24-10.24s4.5056-10.24 10.24-10.24H405.504c5.7344 0 10.24 4.5056 10.24 10.24s-4.5056 10.24-10.24 10.24zM460.8 446.8736h-13.312c-5.7344 0-10.24-4.5056-10.24-10.24s4.5056-10.24 10.24-10.24h13.312c5.7344 0 10.24 4.5056 10.24 10.24s-4.5056 10.24-10.24 10.24zM460.8 517.7344h-13.312c-5.7344 0-10.24-4.5056-10.24-10.24s4.5056-10.24 10.24-10.24h13.312c5.7344 0 10.24 4.5056 10.24 10.24s-4.5056 10.24-10.24 10.24zM460.8 588.3904h-13.312c-5.7344 0-10.24-4.5056-10.24-10.24s4.5056-10.24 10.24-10.24h13.312c5.7344 0 10.24 4.5056 10.24 10.24s-4.5056 10.24-10.24 10.24zM460.8 659.2512h-13.312c-5.7344 0-10.24-4.5056-10.24-10.24s4.5056-10.24 10.24-10.24h13.312c5.7344 0 10.24 4.5056 10.24 10.24s-4.5056 10.24-10.24 10.24zM729.7024 659.2512h-144.384c-5.7344 0-10.24-4.5056-10.24-10.24s4.5056-10.24 10.24-10.24h144.384c5.7344 0 10.24 4.5056 10.24 10.24s-4.5056 10.24-10.24 10.24z" fill="#1C1D21" p-id="9583"></path><path d="M938.5984 776.192H85.4016C173.8752 918.7328 331.776 1013.76 512 1013.76s338.1248-95.0272 426.5984-237.568z" fill="#0ABFB2" p-id="9584"></path><path d="M512 1024c-88.6784 0-176.128-23.1424-252.7232-66.7648-74.3424-42.1888-137.4208-103.0144-182.4768-175.7184-2.048-3.072-2.048-7.168-0.2048-10.4448 1.8432-3.2768 5.3248-5.3248 9.0112-5.3248h853.4016c3.6864 0 7.168 2.048 9.0112 5.3248 1.8432 3.2768 1.6384 7.168-0.2048 10.4448-45.056 72.704-108.3392 133.5296-182.4768 175.7184C688.128 1000.8576 600.6784 1024 512 1024zM104.2432 786.432C195.7888 922.624 346.9312 1003.52 512 1003.52s316.2112-80.896 407.7568-217.088H104.2432z" fill="#1C1D21" p-id="9585"></path><path d="M512 189.8496m-121.4464 0a121.4464 121.4464 0 1 0 242.8928 0 121.4464 121.4464 0 1 0-242.8928 0Z" fill="#FFECE9" p-id="9586"></path><path d="M512 321.536c-72.704 0-131.6864-59.1872-131.6864-131.6864 0-72.704 59.1872-131.6864 131.6864-131.6864s131.6864 59.1872 131.6864 131.6864c0 72.704-58.9824 131.6864-131.6864 131.6864z m0-242.8928c-61.44 0-111.2064 49.9712-111.2064 111.2064S450.56 301.056 512 301.056s111.2064-49.9712 111.2064-111.2064S573.44 78.6432 512 78.6432z" fill="#1C1D21" p-id="9587"></path><path d="M488.2432 241.664l-44.4416-44.4416c-4.096-4.096-4.096-10.4448 0-14.5408l11.6736-11.6736c4.096-4.096 10.4448-4.096 14.5408 0l18.2272 18.2272c4.096 4.096 10.4448 4.096 14.5408 0l51.2-51.2c4.096-4.096 10.4448-4.096 14.5408 0l11.6736 11.6736c4.096 4.096 4.096 10.4448 0 14.5408L502.784 241.664c-3.8912 3.8912-10.4448 3.8912-14.5408 0z" fill="#0ABFB2" p-id="9588"></path><path d="M495.616 254.7712c-5.3248 0-10.4448-2.048-14.5408-5.9392l-44.4416-44.4416c-3.8912-3.8912-5.9392-9.0112-5.9392-14.5408s2.048-10.6496 5.9392-14.5408l11.6736-11.6736c3.8912-3.8912 9.0112-5.9392 14.5408-5.9392s10.6496 2.048 14.5408 5.9392l18.2272 18.2272 51.2-51.2c7.9872-7.9872 21.0944-7.9872 29.0816 0l11.6736 11.6736c7.9872 7.9872 7.9872 21.0944 0 29.0816l-77.4144 77.4144c-4.096 4.096-9.4208 5.9392-14.5408 5.9392z m0-20.48l77.4144-77.4144-11.6736-11.6736-51.2 51.2c-7.9872 7.9872-21.0944 7.9872-29.0816 0L462.848 178.176l-11.6736 11.6736 44.4416 44.4416z" fill="#1C1D21" p-id="9589"></path></svg>