<svg xmlns="http://www.w3.org/2000/svg" viewBox="0 0 1024 1024" version="1.1"><path d="M512 512m-501.76 0a501.76 501.76 0 1 0 1003.52 0 501.76 501.76 0 1 0-1003.52 0Z" fill="#8CEEF9" p-id="14865"></path><path d="M928.1536 681.984c-32.768 0-59.392 26.624-59.392 59.392 0-32.768-26.624-59.392-59.392-59.392s-59.392 26.624-59.392 59.392c0-32.768-26.624-59.392-59.392-59.392s-59.392 26.624-59.392 59.392c0-32.768-26.624-59.392-59.392-59.392s-59.392 26.624-59.392 59.392c0-32.768-26.624-59.392-59.392-59.392s-59.392 26.624-59.392 59.392c0-32.768-26.624-59.392-59.392-59.392s-59.392 26.624-59.392 59.392c0-32.768-26.624-59.392-59.392-59.392s-59.392 26.624-59.392 59.392c0-32.768-26.624-59.392-59.392-59.392-19.2512 0-36.2496 9.0112-47.104 23.1424C124.3136 886.3744 303.3088 1013.76 512 1013.76s387.6864-127.3856 463.2576-308.6336c-10.8544-14.1312-27.8528-23.1424-47.104-23.1424z" fill="#0ABFB2" p-id="14866"></path><path d="M512 1024c-103.0144 0-202.3424-30.5152-287.3344-88.064-82.7392-56.32-146.8416-134.7584-185.344-226.9184a10.24 10.24 0 0 1 1.4336-10.24c13.312-17.2032 33.3824-27.2384 55.0912-27.2384 25.1904 0 47.104 13.312 59.392 33.3824 12.288-20.0704 34.4064-33.3824 59.392-33.3824s47.104 13.312 59.392 33.3824c12.288-20.0704 34.4064-33.3824 59.392-33.3824s47.104 13.312 59.392 33.3824c12.288-20.0704 34.4064-33.3824 59.392-33.3824 25.1904 0 47.104 13.312 59.392 33.3824 12.288-20.0704 34.4064-33.3824 59.392-33.3824s47.104 13.312 59.392 33.3824c12.288-20.0704 34.4064-33.3824 59.392-33.3824s47.104 13.312 59.392 33.3824c12.288-20.0704 34.4064-33.3824 59.392-33.3824s47.104 13.312 59.392 33.3824c12.288-20.0704 34.4064-33.3824 59.392-33.3824 21.7088 0 41.7792 9.8304 55.0912 27.2384 2.2528 2.8672 2.6624 6.7584 1.4336 10.24-38.5024 92.16-102.6048 170.5984-185.344 226.9184-84.1728 57.5488-183.5008 88.064-286.5152 88.064zM60.6208 706.9696C138.6496 887.3984 314.9824 1003.52 512 1003.52s373.3504-116.1216 451.3792-296.5504c-9.216-9.4208-21.7088-14.7456-35.2256-14.7456-27.2384 0-49.152 22.1184-49.152 49.152 0 5.7344-4.5056 10.24-10.24 10.24s-10.24-4.5056-10.24-10.24c0-27.2384-22.1184-49.152-49.152-49.152s-49.152 22.1184-49.152 49.152c0 5.7344-4.5056 10.24-10.24 10.24s-10.24-4.5056-10.24-10.24c0-27.2384-22.1184-49.152-49.152-49.152s-49.152 22.1184-49.152 49.152c0 5.7344-4.5056 10.24-10.24 10.24s-10.24-4.5056-10.24-10.24c0-27.2384-22.1184-49.152-49.152-49.152s-49.152 22.1184-49.152 49.152c0 5.7344-4.5056 10.24-10.24 10.24s-10.24-4.5056-10.24-10.24c0-27.2384-22.1184-49.152-49.152-49.152s-49.152 22.1184-49.152 49.152c0 5.7344-4.5056 10.24-10.24 10.24s-10.24-4.5056-10.24-10.24c0-27.2384-22.1184-49.152-49.152-49.152-27.2384 0-49.152 22.1184-49.152 49.152 0 5.7344-4.5056 10.24-10.24 10.24s-10.24-4.5056-10.24-10.24c0-27.2384-22.1184-49.152-49.152-49.152s-49.152 22.1184-49.152 49.152c0 5.7344-4.5056 10.24-10.24 10.24s-10.24-4.5056-10.24-10.24c0-27.2384-22.1184-49.152-49.152-49.152-14.336 0-26.8288 5.3248-36.0448 14.7456z" fill="#1C1D21" p-id="14867"></path><path d="M909.7216 751.616c-5.7344 0-10.24-4.5056-10.24-10.24 0-11.6736 6.9632-22.1184 17.8176-26.624 5.12-2.2528 11.264 0.4096 13.312 5.5296 2.2528 5.3248-0.4096 11.264-5.5296 13.312-3.072 1.2288-5.12 4.3008-5.12 7.5776 0 5.9392-4.7104 10.4448-10.24 10.4448zM827.8016 751.616c-5.7344 0-10.24-4.5056-10.24-10.24 0-4.5056-3.6864-8.192-8.192-8.192s-8.192 3.6864-8.192 8.192c0 5.7344-4.5056 10.24-10.24 10.24s-10.24-4.5056-10.24-10.24c0-15.7696 12.9024-28.672 28.672-28.672s28.672 12.9024 28.672 28.672c0 5.7344-4.7104 10.24-10.24 10.24zM708.8128 751.616c-5.7344 0-10.24-4.5056-10.24-10.24 0-4.5056-3.6864-8.192-8.192-8.192s-8.192 3.6864-8.192 8.192c0 5.7344-4.5056 10.24-10.24 10.24s-10.24-4.5056-10.24-10.24c0-15.7696 12.9024-28.672 28.672-28.672s28.672 12.9024 28.672 28.672c0 5.7344-4.5056 10.24-10.24 10.24zM352.0512 751.616c-5.7344 0-10.24-4.5056-10.24-10.24 0-4.5056-3.6864-8.192-8.192-8.192s-8.192 3.6864-8.192 8.192c0 5.7344-4.5056 10.24-10.24 10.24s-10.24-4.5056-10.24-10.24c0-15.7696 12.9024-28.672 28.672-28.672s28.672 12.9024 28.672 28.672c0 5.7344-4.5056 10.24-10.24 10.24zM233.2672 751.616c-5.7344 0-10.24-4.5056-10.24-10.24 0-4.5056-3.6864-8.192-8.192-8.192s-8.192 3.6864-8.192 8.192c0 5.7344-4.5056 10.24-10.24 10.24s-10.24-4.5056-10.24-10.24c0-15.7696 12.9024-28.672 28.672-28.672s28.672 12.9024 28.672 28.672c0 5.7344-4.7104 10.24-10.24 10.24zM114.2784 751.616c-5.7344 0-10.24-4.5056-10.24-10.24 0-3.2768-2.048-6.3488-5.12-7.5776-5.3248-2.2528-7.7824-8.192-5.5296-13.312s8.192-7.7824 13.312-5.5296c10.8544 4.5056 17.8176 14.9504 17.8176 26.624 0 5.5296-4.5056 10.0352-10.24 10.0352z" fill="#5AFFDF" p-id="14868"></path><path d="M512 1024c-136.8064 0-265.4208-53.248-362.0864-149.9136C53.248 777.4208 0 648.8064 0 512S53.248 246.5792 149.9136 149.9136C246.5792 53.248 375.1936 0 512 0s265.4208 53.248 362.0864 149.9136C970.752 246.5792 1024 375.1936 1024 512s-53.248 265.4208-149.9136 362.0864C777.4208 970.752 648.8064 1024 512 1024z m0-1003.52C241.0496 20.48 20.48 241.0496 20.48 512s220.5696 491.52 491.52 491.52 491.52-220.5696 491.52-491.52S782.9504 20.48 512 20.48z" fill="#1C1D21" p-id="14869"></path><path d="M140.4928 849.3056C232.2432 950.272 364.7488 1013.76 512 1013.76s279.7568-63.488 371.5072-164.4544H140.4928z" fill="#C67552" p-id="14870"></path><path d="M512 1024c-73.5232 0-144.384-15.1552-210.7392-45.2608-64.1024-29.0816-120.832-70.2464-168.3456-122.6752-2.6624-3.072-3.4816-7.3728-1.8432-11.0592 1.6384-3.6864 5.3248-6.144 9.4208-6.144h743.0144c4.096 0 7.7824 2.4576 9.4208 6.144 1.6384 3.6864 1.024 7.9872-1.8432 11.0592-47.5136 52.4288-104.2432 93.5936-168.3456 122.6752-66.3552 30.1056-137.216 45.2608-210.7392 45.2608zM164.4544 859.5456c91.7504 91.7504 217.088 143.9744 347.5456 143.9744s255.7952-52.224 347.5456-143.9744H164.4544z" fill="#1C1D21" p-id="14871"></path><path d="M512 115.3024c-53.248 30.72-88.8832 88.2688-88.8832 154.0096 0 65.9456 35.84 123.2896 88.8832 154.0096 53.248-30.72 88.8832-88.2688 88.8832-154.0096S565.248 146.2272 512 115.3024z" fill="#0ABFB2" p-id="14872"></path><path d="M512 433.7664c-1.8432 0-3.4816-0.4096-5.12-1.4336-57.9584-33.5872-94.0032-96.0512-94.0032-163.0208s36.0448-129.4336 94.0032-163.0208c3.072-1.8432 7.168-1.8432 10.24 0 57.9584 33.5872 94.0032 96.0512 94.0032 163.0208s-36.0448 129.4336-94.0032 163.0208c-1.6384 1.024-3.2768 1.4336-5.12 1.4336z m0-306.3808c-48.7424 30.5152-78.6432 84.5824-78.6432 142.1312 0 57.5488 30.1056 111.616 78.6432 142.1312 48.7424-30.5152 78.6432-84.5824 78.6432-142.1312 0-57.7536-29.9008-111.616-78.6432-142.1312z" fill="#1C1D21" p-id="14873"></path><path d="M512 723.3536c-5.7344 0-10.24-4.5056-10.24-10.24V115.3024c0-5.7344 4.5056-10.24 10.24-10.24s10.24 4.5056 10.24 10.24v597.8112c0 5.7344-4.5056 10.24-10.24 10.24z" fill="#1C1D21" p-id="14874"></path><path d="M689.9712 115.3024c-53.248 30.72-88.8832 88.2688-88.8832 154.0096 0 65.9456 35.84 123.2896 88.8832 154.0096 53.248-30.72 88.8832-88.2688 88.8832-154.0096s-35.6352-123.0848-88.8832-154.0096z" fill="#0ABFB2" p-id="14875"></path><path d="M689.9712 433.7664c-1.8432 0-3.4816-0.4096-5.12-1.4336-57.9584-33.5872-94.0032-96.0512-94.0032-163.0208s36.0448-129.4336 94.0032-163.0208c3.072-1.8432 7.168-1.8432 10.24 0 57.9584 33.5872 94.0032 96.0512 94.0032 163.0208s-36.0448 129.4336-94.0032 163.0208c-1.6384 1.024-3.2768 1.4336-5.12 1.4336z m0-306.3808c-48.7424 30.5152-78.6432 84.5824-78.6432 142.1312 0 57.5488 30.1056 111.616 78.6432 142.1312 48.7424-30.5152 78.6432-84.5824 78.6432-142.1312 0-57.7536-29.9008-111.616-78.6432-142.1312z" fill="#1C1D21" p-id="14876"></path><path d="M689.9712 692.224c-5.7344 0-10.24-4.5056-10.24-10.24V115.3024c0-5.7344 4.5056-10.24 10.24-10.24s10.24 4.5056 10.24 10.24V681.984c0 5.5296-4.5056 10.24-10.24 10.24z" fill="#1C1D21" p-id="14877"></path><path d="M956.6208 279.3472c-29.0816-55.296-68.1984-104.6528-114.8928-145.408-38.5024 32.5632-62.8736 81.3056-62.8736 135.5776 0 65.9456 35.84 123.2896 88.8832 154.0096 50.7904-29.2864 85.6064-82.5344 88.8832-144.1792z" fill="#0ABFB2" p-id="14878"></path><path d="M867.9424 433.7664c-1.8432 0-3.4816-0.4096-5.12-1.4336-57.9584-33.5872-94.0032-96.0512-94.0032-163.0208 0-55.296 24.1664-107.52 66.3552-143.36 3.8912-3.2768 9.6256-3.2768 13.312 0 48.128 41.984 87.6544 91.9552 117.1456 148.48 0.8192 1.6384 1.2288 3.4816 1.2288 5.3248-3.4816 63.488-38.5024 120.6272-93.7984 152.576-1.6384 1.024-3.2768 1.4336-5.12 1.4336zM841.728 147.6608c-33.5872 31.744-52.6336 75.5712-52.6336 121.856 0 57.5488 30.1056 111.616 78.6432 142.1312 45.4656-28.4672 74.5472-76.5952 78.2336-130.048-26.624-50.5856-61.6448-95.6416-104.2432-133.9392z" fill="#1C1D21" p-id="14879"></path><path d="M867.9424 744.0384c-5.7344 0-10.24-4.5056-10.24-10.24v-575.488c0-5.7344 4.5056-10.24 10.24-10.24s10.24 4.5056 10.24 10.24v575.2832c0 5.7344-4.5056 10.4448-10.24 10.4448z" fill="#1C1D21" p-id="14880"></path><path d="M67.3792 279.3472c3.2768 61.6448 38.0928 115.0976 88.6784 144.1792 53.248-30.72 88.8832-88.2688 88.8832-154.0096 0-54.272-24.3712-103.0144-62.8736-135.5776-46.4896 40.7552-85.6064 89.9072-114.688 145.408z" fill="#0ABFB2" p-id="14881"></path><path d="M156.0576 433.7664c-1.8432 0-3.4816-0.4096-5.12-1.4336-20.48-11.8784-38.5024-27.2384-53.248-45.8752-3.4816-4.5056-2.8672-10.8544 1.6384-14.336 4.5056-3.4816 10.8544-2.8672 14.336 1.6384 11.8784 14.9504 26.2144 27.648 42.3936 37.888 48.7424-30.5152 78.6432-84.5824 78.6432-142.1312 0-46.2848-19.0464-90.3168-52.6336-121.856-42.3936 38.5024-77.6192 83.3536-104.448 133.9392 0.4096 6.3488 1.2288 12.4928 2.4576 18.6368 1.024 5.5296-2.6624 10.8544-8.192 11.8784s-10.8544-2.6624-11.8784-8.192c-1.4336-7.9872-2.4576-15.9744-2.8672-23.9616 0-1.8432 0.2048-3.6864 1.2288-5.3248 29.696-56.5248 69.0176-106.496 117.1456-148.48 3.8912-3.2768 9.4208-3.2768 13.312 0 42.1888 35.84 66.3552 88.064 66.3552 143.36 0 66.9696-36.0448 129.4336-94.0032 163.0208-1.6384 0.8192-3.2768 1.2288-5.12 1.2288z" fill="#1C1D21" p-id="14882"></path><path d="M88.2688 363.9296c-3.6864 0-7.168-2.048-9.0112-5.3248-1.4336-2.8672-3.072-5.7344-4.3008-8.6016-2.4576-5.12-0.2048-11.264 4.9152-13.7216 5.12-2.4576 11.264-0.2048 13.7216 4.9152 1.2288 2.6624 2.4576 5.12 3.8912 7.5776 2.6624 4.9152 0.8192 11.264-4.096 13.9264-1.8432 0.8192-3.4816 1.2288-5.12 1.2288zM156.0576 744.0384c-5.7344 0-10.24-4.5056-10.24-10.24v-575.488c0-5.7344 4.5056-10.24 10.24-10.24s10.24 4.5056 10.24 10.24v575.2832c0 5.7344-4.5056 10.4448-10.24 10.4448z" fill="#1C1D21" p-id="14883"></path><path d="M334.0288 115.3024c-53.248 30.72-88.8832 88.2688-88.8832 154.0096 0 65.9456 35.84 123.2896 88.8832 154.0096 53.248-30.72 88.8832-88.2688 88.8832-154.0096 0.2048-65.7408-35.6352-123.0848-88.8832-154.0096z" fill="#0ABFB2" p-id="14884"></path><path d="M334.0288 433.7664c-1.8432 0-3.4816-0.4096-5.12-1.4336-57.9584-33.5872-94.0032-96.0512-94.0032-163.0208s36.0448-129.4336 94.0032-163.0208c3.072-1.8432 7.168-1.8432 10.24 0 57.9584 33.5872 94.0032 96.0512 94.0032 163.0208s-36.0448 129.4336-94.0032 163.0208c-1.6384 1.024-3.2768 1.4336-5.12 1.4336z m0-306.3808c-48.7424 30.5152-78.6432 84.5824-78.6432 142.1312 0 57.5488 30.1056 111.616 78.6432 142.1312 48.7424-30.5152 78.6432-84.5824 78.6432-142.1312 0.2048-57.7536-29.9008-111.616-78.6432-142.1312z" fill="#1C1D21" p-id="14885"></path><path d="M334.0288 695.0912c-5.7344 0-10.24-4.5056-10.24-10.24v-569.344c0-5.7344 4.5056-10.24 10.24-10.24s10.24 4.5056 10.24 10.24v569.344c0 5.5296-4.5056 10.24-10.24 10.24z" fill="#1C1D21" p-id="14886"></path><path d="M359.6288 713.1136H403.456v-56.7296h-43.8272c-14.1312 0-25.6 11.4688-25.6 25.6v5.5296c0 14.1312 11.4688 25.6 25.6 25.6z" fill="#FF8939" p-id="14887"></path><path d="M403.456 723.3536h-43.8272c-19.6608 0-35.84-15.9744-35.84-35.84V681.984c0-19.6608 15.9744-35.84 35.84-35.84H403.456c5.7344 0 10.24 4.5056 10.24 10.24v56.7296c0 5.7344-4.7104 10.24-10.24 10.24z m-43.8272-56.7296c-8.3968 0-15.36 6.9632-15.36 15.36v5.5296c0 8.3968 6.9632 15.36 15.36 15.36H393.216v-36.2496h-33.5872z" fill="#1C1D21" p-id="14888"></path><path d="M686.2848 583.0656h-7.7824c-6.7584 0-13.1072-2.6624-18.0224-7.3728l-11.4688-11.4688c-4.7104-4.7104-11.264-7.3728-18.0224-7.3728h-30.3104c-13.9264 0-25.3952 11.4688-25.3952 25.3952v51.2c0 12.9024-10.4448 23.1424-23.1424 23.1424h-141.9264c-16.9984 0-30.5152 13.7216-30.5152 30.5152v162.2016h50.176V790.528c0-15.7696 12.6976-28.4672 28.4672-28.4672h103.424c9.4208 0 17.2032 7.5776 17.2032 17.2032v70.0416h50.176V647.9872c0-12.9024 10.4448-23.1424 23.1424-23.1424h33.1776c11.4688 0 21.2992-9.0112 21.504-20.48 0.4096-11.6736-9.0112-21.2992-20.6848-21.2992z" fill="#FF8939" p-id="14889"></path><path d="M629.1456 859.5456h-50.176c-5.7344 0-10.24-4.5056-10.24-10.24v-70.0416c0-3.8912-3.072-6.9632-6.9632-6.9632h-103.424c-10.0352 0-18.2272 8.192-18.2272 18.2272v58.5728c0 5.7344-4.5056 10.24-10.24 10.24h-50.176c-5.7344 0-10.24-4.5056-10.24-10.24v-162.2016c0-22.528 18.2272-40.7552 40.7552-40.7552h141.9264c7.168 0 12.9024-5.7344 12.9024-12.9024v-51.2c0-19.6608 15.9744-35.6352 35.6352-35.6352h30.3104c9.4208 0 18.432 3.6864 25.1904 10.4448l11.4688 11.4688c2.8672 2.8672 6.7584 4.5056 10.6496 4.5056h7.7824c8.3968 0 16.384 3.2768 22.1184 9.4208 5.9392 5.9392 9.0112 13.9264 9.0112 22.3232-0.4096 16.7936-14.5408 30.5152-31.744 30.5152h-33.1776c-7.168 0-12.9024 5.7344-12.9024 12.9024v201.1136c0 5.7344-4.5056 10.4448-10.24 10.4448z m-39.936-20.48h29.696v-77.0048-113.8688c0-18.432 14.9504-33.3824 33.3824-33.3824h33.1776c6.144 0 11.264-4.7104 11.264-10.4448 0-2.8672-1.024-5.5296-3.072-7.5776s-4.7104-3.2768-7.5776-3.2768h-7.7824c-9.4208 0-18.432-3.6864-25.1904-10.4448l-11.4688-11.4688c-2.8672-2.8672-6.7584-4.5056-10.6496-4.5056h-30.3104c-8.3968 0-15.1552 6.7584-15.1552 15.1552v51.2c0 18.432-14.9504 33.3824-33.3824 33.3824h-141.9264c-11.264 0-20.2752 9.216-20.2752 20.2752v151.9616h29.696V790.528c0-21.2992 17.408-38.7072 38.7072-38.7072h103.424c15.1552 0 27.4432 12.288 27.4432 27.4432v59.8016z" fill="#1C1D21" p-id="14890"></path><path d="M575.2832 506.2656c-3.4816 13.312-0.2048 28.0576 10.24 38.5024 10.4448 10.4448 25.1904 13.9264 38.5024 10.24 3.4816-13.312 0.2048-28.0576-10.24-38.5024-10.4448-10.4448-25.1904-13.9264-38.5024-10.24z" fill="#FF8939" p-id="14891"></path><path d="M613.7856 566.6816c-13.1072 0-26.0096-5.12-35.6352-14.7456-12.6976-12.6976-17.6128-31.1296-12.9024-48.5376 1.024-3.4816 3.6864-6.3488 7.168-7.168 17.2032-4.7104 35.84 0.4096 48.5376 12.9024s17.6128 31.1296 12.9024 48.5376c-1.024 3.4816-3.6864 6.3488-7.168 7.168-4.096 1.4336-8.6016 1.8432-12.9024 1.8432z m-29.696-51.6096c-0.4096 8.192 2.6624 16.384 8.6016 22.528 5.9392 5.9392 14.1312 9.0112 22.528 8.6016 0.4096-8.192-2.6624-16.384-8.6016-22.528-5.9392-5.9392-14.1312-9.0112-22.528-8.6016z" fill="#1C1D21" p-id="14892"></path><path d="M510.976 692.8384m-10.24 0a10.24 10.24 0 1 0 20.48 0 10.24 10.24 0 1 0-20.48 0Z" fill="#FFECE9" p-id="14893"></path><path d="M445.8496 723.5584m-10.24 0a10.24 10.24 0 1 0 20.48 0 10.24 10.24 0 1 0-20.48 0Z" fill="#FFECE9" p-id="14894"></path><path d="M569.9584 730.9312m-10.24 0a10.24 10.24 0 1 0 20.48 0 10.24 10.24 0 1 0-20.48 0Z" fill="#FFECE9" p-id="14895"></path><path d="M579.9936 684.8512m-10.24 0a10.24 10.24 0 1 0 20.48 0 10.24 10.24 0 1 0-20.48 0Z" fill="#FFECE9" p-id="14896"></path><path d="M635.6992 591.4624m-10.24 0a10.24 10.24 0 1 0 20.48 0 10.24 10.24 0 1 0-20.48 0Z" fill="#1C1D21" p-id="14897"></path><path d="M625.664 565.4528c-5.7344 0-10.24-4.5056-10.24-10.24v-66.7648l-36.0448-33.1776c-4.096-3.8912-4.5056-10.24-0.6144-14.5408 3.8912-4.096 10.24-4.5056 14.5408-0.6144l39.3216 36.0448c2.048 1.8432 3.2768 4.7104 3.2768 7.5776V555.008c0 5.7344-4.7104 10.4448-10.24 10.4448z" fill="#1C1D21" p-id="14898"></path><path d="M625.664 494.1824c-5.7344 0-10.24-4.5056-10.24-10.24v-30.3104c0-8.6016-3.2768-16.5888-9.4208-22.528l-23.1424-23.1424c-4.096-4.096-4.096-10.4448 0-14.5408s10.4448-4.096 14.5408 0l23.1424 23.1424c9.8304 9.8304 15.36 22.9376 15.36 37.0688v30.3104c0 5.7344-4.7104 10.24-10.24 10.24z" fill="#1C1D21" p-id="14899"></path></svg>