<svg xmlns="http://www.w3.org/2000/svg" viewBox="0 0 1024 1024" version="1.1"><path d="M512 512m-501.76 0a501.76 501.76 0 1 0 1003.52 0 501.76 501.76 0 1 0-1003.52 0Z" fill="#FFECE9" p-id="13261"></path><path d="M512 1024c-136.8064 0-265.4208-53.248-362.0864-149.9136C53.248 777.4208 0 648.8064 0 512S53.248 246.5792 149.9136 149.9136C246.5792 53.248 375.1936 0 512 0s265.4208 53.248 362.0864 149.9136C970.752 246.5792 1024 375.1936 1024 512s-53.248 265.4208-149.9136 362.0864C777.4208 970.752 648.8064 1024 512 1024z m0-1003.52C241.0496 20.48 20.48 241.0496 20.48 512s220.5696 491.52 491.52 491.52 491.52-220.5696 491.52-491.52S782.9504 20.48 512 20.48z" fill="#1C1D21" p-id="13262"></path><path d="M668.0576 414.72c-20.0704-6.5536-39.936-14.336-59.1872-23.552l-50.176-23.552c-10.8544-4.9152-18.0224-15.7696-18.0224-27.648v-15.1552c0-8.8064 5.12-16.7936 13.1072-20.6848 33.5872-15.7696 56.9344-50.176 56.9344-89.7024V168.7552c0-54.6816-44.4416-99.1232-99.1232-99.1232s-99.1232 44.4416-99.1232 99.1232v45.6704c0 39.7312 23.3472 73.9328 56.9344 89.7024 7.9872 3.6864 13.1072 11.6736 13.1072 20.6848v15.1552c0 11.8784-6.9632 22.7328-18.0224 27.648l-49.152 23.3472c-19.6608 9.4208-40.1408 16.7936-60.6208 24.1664-17.408 6.3488-29.9008 22.9376-29.9008 42.5984v281.8048h45.2608V532.2752c2.2528 19.2512 9.6256 37.4784 21.2992 53.0432l41.1648 45.4656v193.7408h157.9008V630.784l41.1648-45.4656c14.336-19.0464 22.1184-41.984 22.1184-65.7408v219.9552h45.2608V457.728c0.2048-20.0704-12.9024-37.0688-30.9248-43.008z" fill="#C67552" p-id="13263"></path><path d="M590.6432 834.7648h-157.9008c-5.7344 0-10.24-4.5056-10.24-10.24v-189.8496l-38.5024-42.5984-0.6144-0.6144c-1.024-1.4336-2.048-2.6624-3.072-4.096v152.1664c0 5.7344-4.5056 10.24-10.24 10.24h-45.2608c-5.7344 0-10.24-4.5056-10.24-10.24V457.728c0-23.3472 14.7456-44.4416 36.6592-52.224 20.48-7.3728 40.5504-14.7456 59.5968-23.7568l49.152-23.3472s0.2048 0 0.2048-0.2048c7.168-3.2768 11.8784-10.4448 11.8784-18.2272v-15.1552c0-4.9152-2.8672-9.216-7.168-11.264-38.0928-18.0224-62.8736-56.9344-62.8736-98.9184V168.7552c0-60.416 49.152-109.3632 109.3632-109.3632s109.3632 49.152 109.3632 109.3632v45.6704c0 42.1888-24.576 81.1008-62.8736 98.9184-4.5056 2.048-7.168 6.5536-7.168 11.264v15.1552c0 7.9872 4.7104 15.1552 11.8784 18.2272 0 0 0.2048 0 0.2048 0.2048l50.176 23.552c18.6368 8.8064 38.0928 16.384 57.9584 22.9376 22.9376 7.3728 38.2976 28.672 38.2976 52.6336v281.8048c0 5.7344-4.5056 10.24-10.24 10.24h-45.2608c-5.7344 0-10.24-4.5056-10.24-10.24v-153.1904c-1.2288 1.8432-2.4576 3.4816-3.6864 5.3248l-0.6144 0.6144-38.5024 42.5984v189.8496c0.2048 5.7344-4.5056 10.4448-10.0352 10.4448z m-147.8656-20.48h137.4208V630.784c0-2.4576 1.024-4.9152 2.6624-6.9632l40.96-45.056c12.6976-16.9984 19.8656-38.0928 19.8656-59.392 0-5.7344 4.5056-10.24 10.24-10.24s10.24 4.5056 10.24 10.24V729.088h24.7808V457.728c0-15.1552-9.6256-28.4672-24.1664-33.1776-20.6848-6.7584-40.96-14.7456-60.2112-23.9616L554.3936 376.832c-14.5408-6.5536-23.9616-21.0944-23.9616-37.0688v-15.1552c0-12.6976 7.3728-24.3712 19.0464-29.9008 31.1296-14.5408 50.9952-46.2848 50.9952-80.4864V168.7552c0-48.9472-39.936-88.8832-88.8832-88.8832s-88.8832 39.936-88.8832 88.8832v45.6704c0 34.2016 20.0704 65.9456 50.9952 80.4864 11.4688 5.5296 19.0464 17.2032 19.0464 29.9008v15.1552c0 15.9744-9.4208 30.5152-23.9616 36.864L419.84 400.1792c-19.8656 9.4208-40.5504 16.9984-61.44 24.576-13.9264 4.9152-23.1424 18.2272-23.1424 32.9728v271.5648h24.7808v-197.0176c0-5.3248 4.3008-9.8304 9.6256-10.24 5.3248-0.4096 10.0352 3.6864 10.8544 9.0112 2.048 17.2032 8.6016 33.792 19.0464 47.7184l40.96 45.056c1.6384 1.8432 2.6624 4.3008 2.6624 6.9632v183.5008z" fill="#1C1D21" p-id="13264"></path><path d="M405.0944 450.3552c-4.096 0-7.9872-2.4576-9.4208-6.3488-2.048-5.3248 0.4096-11.264 5.7344-13.312 10.0352-3.8912 18.8416-7.7824 27.2384-11.8784l9.8304-4.7104c5.12-2.4576 11.264-0.2048 13.7216 4.9152 2.4576 5.12 0.2048 11.264-4.9152 13.7216l-9.8304 4.7104c-8.8064 4.096-18.2272 8.192-28.4672 12.288-1.4336 0.4096-2.6624 0.6144-3.8912 0.6144z m70.8608-32.5632c-3.8912 0-7.5776-2.2528-9.216-5.9392-2.4576-5.12-0.2048-11.264 4.9152-13.7216l5.7344-2.6624c5.12-2.4576 11.264-0.2048 13.7216 4.9152 2.4576 5.12 0.2048 11.264-4.9152 13.7216l-5.7344 2.6624c-1.6384 0.6144-3.072 1.024-4.5056 1.024z m-22.528-193.1264c-5.7344 0-10.24-4.5056-10.24-10.24V168.7552c0-18.8416 7.9872-37.0688 21.7088-49.9712 4.096-3.8912 10.6496-3.6864 14.5408 0.4096 3.8912 4.096 3.6864 10.6496-0.4096 14.5408-9.6256 9.0112-15.36 21.9136-15.36 35.0208v45.6704c0 5.7344-4.5056 10.24-10.24 10.24z m50.7904-103.424c-5.12 0-9.4208-3.6864-10.24-9.0112-0.6144-5.5296 3.2768-10.6496 8.8064-11.4688 2.8672-0.4096 5.7344-0.6144 8.6016-0.6144 5.7344 0 10.24 4.5056 10.24 10.24s-4.5056 10.24-10.24 10.24c-2.048 0-4.096 0.2048-6.144 0.4096-0.2048 0.2048-0.6144 0.2048-1.024 0.2048z" fill="#FFA364" p-id="13265"></path><path d="M400.7936 208.6912h11.6736V156.2624h-11.6736c-13.5168 0-24.576 11.0592-24.576 24.576v3.072c0 13.7216 11.0592 24.7808 24.576 24.7808zM623.2064 208.6912h-11.6736V156.2624h11.6736c13.5168 0 24.576 11.0592 24.576 24.576v3.072c0 13.7216-11.0592 24.7808-24.576 24.7808z" fill="#C67552" p-id="13266"></path><path d="M412.4672 218.9312h-11.6736c-19.2512 0-34.816-15.5648-34.816-34.816v-3.072c0-19.2512 15.5648-34.816 34.816-34.816h11.6736c5.7344 0 10.24 4.5056 10.24 10.24V208.896c0 5.3248-4.5056 10.0352-10.24 10.0352z m-11.6736-52.4288c-7.9872 0-14.336 6.5536-14.336 14.336v3.072c0 7.9872 6.5536 14.336 14.336 14.336h1.4336V166.5024h-1.4336zM623.2064 218.9312h-11.6736c-5.7344 0-10.24-4.5056-10.24-10.24V156.2624c0-5.7344 4.5056-10.24 10.24-10.24h11.6736c19.2512 0 34.816 15.5648 34.816 34.816v3.072c0 19.2512-15.5648 35.0208-34.816 35.0208z m-1.4336-20.48h1.4336c7.9872 0 14.336-6.5536 14.336-14.336v-3.072c0-7.9872-6.5536-14.336-14.336-14.336h-1.4336v31.744zM370.0736 542.5152c-5.7344 0-10.24-4.5056-10.24-10.24v-30.1056c0-5.7344 4.5056-10.24 10.24-10.24s10.24 4.5056 10.24 10.24v30.1056c0 5.7344-4.7104 10.24-10.24 10.24zM653.9264 542.5152c-5.7344 0-10.24-4.5056-10.24-10.24v-30.1056c0-5.7344 4.5056-10.24 10.24-10.24s10.24 4.5056 10.24 10.24v30.1056c0 5.7344-4.5056 10.24-10.24 10.24z" fill="#1C1D21" p-id="13267"></path><path d="M465.1008 587.5712h-13.312c-11.264 0-22.3232-4.9152-29.9008-13.312l-59.392-65.1264c-3.8912-4.096-3.4816-10.6496 0.6144-14.5408 4.096-3.8912 10.6496-3.4816 14.5408 0.6144l59.1872 65.3312c3.6864 4.096 9.216 6.5536 14.7456 6.5536h13.312c5.7344 0 10.24 4.5056 10.24 10.24s-4.5056 10.24-10.0352 10.24zM465.1008 531.456h-13.312c-11.264 0-22.3232-4.9152-29.9008-13.312l-29.0816-31.9488c-3.8912-4.096-3.4816-10.6496 0.6144-14.5408 4.096-3.8912 10.6496-3.4816 14.5408 0.6144l29.0816 31.9488c3.6864 4.096 9.216 6.5536 14.7456 6.5536h13.312c5.7344 0 10.24 4.5056 10.24 10.24s-4.7104 10.4448-10.24 10.4448zM572.416 531.456H559.104c-5.7344 0-10.24-4.5056-10.24-10.24s4.5056-10.24 10.24-10.24h13.312c5.5296 0 11.0592-2.4576 14.7456-6.5536l29.0816-31.9488c3.8912-4.096 10.24-4.5056 14.5408-0.6144 4.096 3.8912 4.5056 10.24 0.6144 14.5408l-29.0816 31.9488c-7.5776 8.3968-18.6368 13.1072-29.9008 13.1072zM572.416 587.5712H559.104c-5.7344 0-10.24-4.5056-10.24-10.24s4.5056-10.24 10.24-10.24h13.312c5.5296 0 11.0592-2.4576 14.7456-6.5536l59.1872-65.3312c3.8912-4.096 10.24-4.5056 14.5408-0.6144 4.096 3.8912 4.5056 10.24 0.6144 14.5408l-59.1872 65.3312c-7.5776 8.3968-18.6368 13.1072-29.9008 13.1072zM370.0736 466.944c-5.7344 0-10.24-4.5056-10.24-10.24v-6.144c0-5.7344 4.5056-10.24 10.24-10.24s10.24 4.5056 10.24 10.24v6.144c0 5.7344-4.7104 10.24-10.24 10.24zM653.9264 466.944c-5.7344 0-10.24-4.5056-10.24-10.24v-6.144c0-5.7344 4.5056-10.24 10.24-10.24s10.24 4.5056 10.24 10.24v6.144c0 5.7344-4.5056 10.24-10.24 10.24zM512 540.0576c-5.7344 0-10.24-4.5056-10.24-10.24v-59.8016c0-5.7344 4.5056-10.24 10.24-10.24s10.24 4.5056 10.24 10.24v59.8016c0 5.7344-4.5056 10.24-10.24 10.24zM512 439.7056c-5.7344 0-10.24-4.5056-10.24-10.24v-6.144c0-5.7344 4.5056-10.24 10.24-10.24s10.24 4.5056 10.24 10.24v6.144c0 5.7344-4.5056 10.24-10.24 10.24z" fill="#1C1D21" p-id="13268"></path><path d="M318.0544 690.7904l-15.7696-15.7696c-21.9136-21.9136-49.152-38.2976-78.848-47.5136 9.216 29.696 25.6 56.7296 47.5136 78.848l15.7696 15.7696 31.3344-31.3344z" fill="#FF9E5C" p-id="13269"></path><path d="M286.72 732.3648c-2.6624 0-5.3248-1.024-7.168-3.072l-15.7696-15.7696c-23.1424-23.1424-40.3456-51.8144-49.9712-82.944-1.024-3.6864-0.2048-7.5776 2.4576-10.24 2.6624-2.6624 6.5536-3.6864 10.24-2.4576 31.1296 9.6256 60.0064 27.0336 82.944 49.9712l15.7696 15.7696c4.096 4.096 4.096 10.4448 0 14.5408l-31.3344 31.3344c-1.8432 1.8432-4.5056 2.8672-7.168 2.8672zM240.8448 645.12c9.0112 20.0704 21.7088 38.5024 37.2736 54.0672l8.6016 8.6016 16.7936-16.7936-8.6016-8.6016c-15.5648-15.5648-33.9968-28.2624-54.0672-37.2736z" fill="#1C1D21" p-id="13270"></path><path d="M443.5968 874.2912h-60.416l23.1424 23.1424c11.8784 11.8784 28.2624 18.6368 45.056 18.6368H512L488.8576 892.928c-12.0832-11.8784-28.2624-18.6368-45.2608-18.6368zM400.9984 831.6928h-60.416l23.1424 23.1424c11.8784 11.8784 28.2624 18.6368 45.056 18.6368h60.416l-23.1424-23.1424c-11.8784-11.8784-28.0576-18.6368-45.056-18.6368zM358.4 789.0944h-60.416l23.1424 23.1424c11.8784 11.8784 28.2624 18.6368 45.056 18.6368h60.416L403.456 807.7312c-11.8784-12.0832-28.0576-18.6368-45.056-18.6368zM315.8016 746.2912h-60.416l23.1424 23.1424c11.8784 11.8784 28.2624 18.6368 45.056 18.6368h60.416l-23.1424-23.1424c-11.8784-11.8784-28.2624-18.6368-45.056-18.6368zM273.2032 703.6928h-60.416l23.1424 23.1424c11.8784 11.8784 28.2624 18.6368 45.056 18.6368h60.416l-23.1424-23.1424c-12.0832-11.8784-28.2624-18.6368-45.056-18.6368z" fill="#FF9E5C" p-id="13271"></path><path d="M470.016 847.872v-60.416l23.1424 23.1424c11.8784 11.8784 18.6368 28.2624 18.6368 45.056v60.416L488.8576 892.928c-12.0832-11.8784-18.8416-28.0576-18.8416-45.056zM427.4176 805.2736v-60.416L450.56 768c11.8784 11.8784 18.6368 28.2624 18.6368 45.056v60.416l-23.1424-23.1424c-11.8784-11.8784-18.6368-28.2624-18.6368-45.056zM384.8192 762.6752v-60.416l23.1424 23.1424c11.8784 11.8784 18.6368 28.2624 18.6368 45.056v60.416L403.456 807.7312c-11.8784-12.0832-18.6368-28.2624-18.6368-45.056zM342.2208 719.872V659.456l23.1424 23.1424c11.8784 11.8784 18.6368 28.2624 18.6368 45.056v60.416l-23.1424-23.1424c-11.8784-11.8784-18.6368-28.0576-18.6368-45.056zM299.6224 677.2736v-60.416l23.1424 23.1424c11.8784 11.8784 18.6368 28.2624 18.6368 45.056V745.472l-23.1424-23.1424c-12.0832-11.8784-18.6368-28.0576-18.6368-45.056z" fill="#FF9E5C" p-id="13272"></path><path d="M512 926.5152h-60.416c-19.8656 0-38.2976-7.7824-52.4288-21.7088l-23.1424-23.1424c-2.8672-2.8672-3.8912-7.3728-2.2528-11.0592 1.6384-3.8912 5.3248-6.3488 9.4208-6.3488h60.416c19.8656 0 38.2976 7.7824 52.4288 21.7088l23.1424 23.1424c2.8672 2.8672 3.8912 7.3728 2.2528 11.0592-1.6384 3.6864-5.3248 6.3488-9.4208 6.3488z m-104.0384-41.984l5.7344 5.7344c10.0352 10.0352 23.552 15.7696 37.888 15.7696h35.6352l-5.7344-5.7344c-10.0352-10.0352-23.552-15.7696-37.888-15.7696h-35.6352z" fill="#1C1D21" p-id="13273"></path><path d="M469.4016 883.712h-60.416c-19.8656 0-38.2976-7.7824-52.4288-21.7088l-23.1424-23.1424c-2.8672-2.8672-3.8912-7.3728-2.2528-11.0592 1.6384-3.8912 5.3248-6.3488 9.4208-6.3488h60.416c19.8656 0 38.2976 7.7824 52.4288 21.7088l23.1424 23.1424c2.8672 2.8672 3.8912 7.3728 2.2528 11.0592-1.6384 3.8912-5.3248 6.3488-9.4208 6.3488z m-104.0384-41.7792l5.7344 5.7344c10.0352 10.0352 23.552 15.7696 37.888 15.7696h35.6352l-5.7344-5.7344c-10.0352-10.0352-23.552-15.7696-37.888-15.7696h-35.6352z" fill="#1C1D21" p-id="13274"></path><path d="M426.8032 841.1136h-60.416c-19.8656 0-38.2976-7.7824-52.4288-21.7088L290.816 796.2624c-2.8672-2.8672-3.8912-7.3728-2.2528-11.0592 1.6384-3.8912 5.3248-6.3488 9.4208-6.3488H358.4c19.8656 0 38.2976 7.7824 52.4288 21.7088l23.1424 23.1424c2.8672 2.8672 3.8912 7.3728 2.2528 11.0592-1.6384 3.8912-5.3248 6.3488-9.4208 6.3488z m-104.0384-41.7792l5.7344 5.7344c10.0352 10.0352 23.552 15.7696 37.888 15.7696h35.6352l-5.7344-5.7344c-10.0352-10.0352-23.552-15.7696-37.888-15.7696h-35.6352z" fill="#1C1D21" p-id="13275"></path><path d="M384 798.5152H323.584c-19.8656 0-38.2976-7.7824-52.4288-21.7088L248.2176 753.664c-2.8672-2.8672-3.8912-7.3728-2.2528-11.0592 1.6384-3.8912 5.3248-6.3488 9.4208-6.3488h60.416c19.8656 0 38.2976 7.7824 52.4288 21.7088l23.1424 23.1424c2.8672 2.8672 3.8912 7.3728 2.2528 11.0592-1.6384 3.8912-5.3248 6.3488-9.6256 6.3488z m-103.8336-41.984l5.7344 5.7344c10.0352 10.0352 23.552 15.7696 37.888 15.7696h35.6352l-5.7344-5.7344c-10.0352-10.0352-23.552-15.7696-37.888-15.7696h-35.6352z" fill="#1C1D21" p-id="13276"></path><path d="M341.4016 755.9168h-60.416c-19.8656 0-38.2976-7.7824-52.4288-21.7088l-23.1424-23.1424c-2.8672-2.8672-3.8912-7.3728-2.2528-11.0592 1.6384-3.8912 5.3248-6.3488 9.4208-6.3488h60.416c19.8656 0 38.2976 7.7824 52.4288 21.7088l23.1424 23.1424c2.8672 2.8672 3.8912 7.3728 2.2528 11.0592-1.4336 3.8912-5.3248 6.3488-9.4208 6.3488zM237.568 713.9328l5.7344 5.7344c10.0352 10.0352 23.552 15.7696 37.888 15.7696h35.6352l-5.7344-5.7344c-10.0352-10.0352-23.552-15.7696-37.888-15.7696H237.568zM512 926.5152c-2.6624 0-5.3248-1.024-7.168-3.072l-23.1424-23.1424c-13.9264-13.9264-21.7088-32.5632-21.7088-52.4288v-60.416c0-4.096 2.4576-7.7824 6.3488-9.4208 3.8912-1.6384 8.192-0.6144 11.0592 2.2528l23.1424 23.1424c13.9264 13.9264 21.7088 32.5632 21.7088 52.4288v60.416c0 4.096-2.4576 7.7824-6.3488 9.4208-1.2288 0.4096-2.6624 0.8192-3.8912 0.8192z m-31.744-114.2784V847.872c0 14.336 5.5296 27.648 15.7696 37.888l5.7344 5.7344v-35.6352c0-14.336-5.5296-27.648-15.7696-37.888l-5.7344-5.7344z" fill="#1C1D21" p-id="13277"></path><path d="M469.4016 883.712c-2.6624 0-5.3248-1.024-7.168-3.072l-23.1424-23.1424c-13.9264-13.9264-21.7088-32.5632-21.7088-52.4288v-60.416c0-4.096 2.4576-7.7824 6.3488-9.4208 3.8912-1.6384 8.192-0.6144 11.0592 2.2528l23.1424 23.1424c13.9264 13.9264 21.7088 32.5632 21.7088 52.4288v60.416c0 4.096-2.4576 7.7824-6.3488 9.4208-1.2288 0.6144-2.6624 0.8192-3.8912 0.8192z m-31.744-114.0736v35.6352c0 14.336 5.5296 27.648 15.7696 37.888l5.7344 5.7344v-35.6352c0-14.336-5.5296-27.648-15.7696-37.888l-5.7344-5.7344z" fill="#1C1D21" p-id="13278"></path><path d="M426.8032 841.1136c-2.6624 0-5.3248-1.024-7.168-3.072l-23.1424-23.1424c-13.9264-13.9264-21.7088-32.5632-21.7088-52.4288v-60.416c0-4.096 2.4576-7.7824 6.3488-9.4208 3.8912-1.6384 8.192-0.6144 11.0592 2.2528l23.1424 23.1424c13.9264 13.9264 21.7088 32.5632 21.7088 52.4288v60.416c0 4.096-2.4576 7.7824-6.3488 9.4208-1.2288 0.6144-2.6624 0.8192-3.8912 0.8192zM395.0592 727.04v35.6352c0 14.336 5.5296 27.648 15.7696 37.888l5.7344 5.7344v-35.6352c0-14.336-5.5296-27.648-15.7696-37.888l-5.7344-5.7344z" fill="#1C1D21" p-id="13279"></path><path d="M384 798.5152c-2.6624 0-5.3248-1.024-7.168-3.072l-23.1424-23.1424c-13.9264-13.9264-21.7088-32.5632-21.7088-52.4288V659.456c0-4.096 2.4576-7.7824 6.3488-9.4208 3.8912-1.6384 8.192-0.6144 11.0592 2.2528l23.1424 23.1424c13.9264 13.9264 21.7088 32.5632 21.7088 52.4288v60.416c0 4.096-2.4576 7.7824-6.3488 9.4208-1.2288 0.6144-2.4576 0.8192-3.8912 0.8192z m-31.5392-114.2784v35.6352c0 14.336 5.5296 27.648 15.7696 37.888l5.7344 5.7344v-35.6352c0-14.336-5.5296-27.648-15.7696-37.888l-5.7344-5.7344z" fill="#1C1D21" p-id="13280"></path><path d="M341.4016 755.9168c-2.6624 0-5.3248-1.024-7.168-3.072l-23.1424-23.1424c-13.9264-13.9264-21.7088-32.5632-21.7088-52.4288v-60.416c0-4.096 2.4576-7.7824 6.3488-9.4208 3.8912-1.6384 8.192-0.6144 11.0592 2.2528l23.1424 23.1424c13.9264 13.9264 21.7088 32.5632 21.7088 52.4288v60.416c0 4.096-2.4576 7.7824-6.3488 9.4208-1.2288 0.4096-2.4576 0.8192-3.8912 0.8192z m-31.5392-114.2784v35.6352c0 14.336 5.5296 27.648 15.7696 37.888l5.7344 5.7344v-35.6352c0-14.336-5.5296-27.648-15.7696-37.888l-5.7344-5.7344z" fill="#1C1D21" p-id="13281"></path><path d="M705.9456 690.7904l15.7696-15.7696c21.9136-21.9136 49.152-38.2976 78.848-47.5136-9.216 29.696-25.6 56.7296-47.5136 78.848l-15.7696 15.7696-31.3344-31.3344z" fill="#FF9E5C" p-id="13282"></path><path d="M737.28 732.3648c-2.6624 0-5.3248-1.024-7.168-3.072l-31.3344-31.3344c-4.096-4.096-4.096-10.4448 0-14.5408l15.7696-15.7696c23.1424-23.1424 51.8144-40.3456 82.944-49.9712 3.6864-1.024 7.5776-0.2048 10.24 2.4576 2.6624 2.6624 3.6864 6.5536 2.4576 10.24-9.6256 31.1296-27.0336 60.0064-49.9712 82.944l-15.7696 15.7696c-1.8432 2.2528-4.5056 3.2768-7.168 3.2768z m-16.7936-41.5744l16.7936 16.7936 8.6016-8.6016c15.5648-15.5648 28.2624-33.9968 37.2736-54.0672-20.0704 9.0112-38.5024 21.7088-54.0672 37.2736l-8.6016 8.6016z" fill="#1C1D21" p-id="13283"></path><path d="M580.4032 874.2912h60.416l-23.1424 23.1424c-11.8784 11.8784-28.2624 18.6368-45.056 18.6368H512l23.1424-23.1424c12.0832-11.8784 28.2624-18.6368 45.2608-18.6368zM623.0016 831.6928h60.416l-23.1424 23.1424c-11.8784 11.8784-28.2624 18.6368-45.056 18.6368h-60.416l23.1424-23.1424c11.8784-11.8784 28.0576-18.6368 45.056-18.6368zM665.6 789.0944h60.416l-23.1424 23.1424c-11.8784 11.8784-28.2624 18.6368-45.056 18.6368h-60.416l23.1424-23.1424c11.8784-12.0832 28.0576-18.6368 45.056-18.6368zM708.1984 746.2912h60.416L745.472 769.6384c-11.8784 11.8784-28.2624 18.6368-45.056 18.6368h-60.416l23.1424-23.1424c11.8784-12.0832 28.2624-18.8416 45.056-18.8416zM750.7968 703.6928h60.416l-23.1424 23.1424c-11.8784 11.8784-28.2624 18.6368-45.056 18.6368h-60.416l23.1424-23.1424c12.0832-11.8784 28.2624-18.6368 45.056-18.6368z" fill="#FF9E5C" p-id="13284"></path><path d="M553.984 847.872v-60.416l-23.1424 23.1424c-11.8784 11.8784-18.6368 28.2624-18.6368 45.056v60.416l23.1424-23.1424c11.8784-11.8784 18.6368-28.0576 18.6368-45.056zM596.5824 805.2736v-60.416L573.2352 768c-11.8784 11.8784-18.6368 28.2624-18.6368 45.056v60.416l23.1424-23.1424c12.0832-11.8784 18.8416-28.2624 18.8416-45.056zM639.1808 762.6752v-60.416l-23.1424 23.1424c-11.8784 11.8784-18.6368 28.2624-18.6368 45.056v60.416l23.1424-23.1424c11.8784-12.0832 18.6368-28.2624 18.6368-45.056zM681.7792 719.872V659.456l-23.1424 23.1424c-11.8784 11.8784-18.6368 28.2624-18.6368 45.056v60.416l23.1424-23.1424c11.8784-11.8784 18.6368-28.0576 18.6368-45.056zM724.3776 677.2736v-60.416l-23.1424 23.1424c-11.8784 11.8784-18.6368 28.2624-18.6368 45.056V745.472l23.1424-23.1424c12.0832-11.8784 18.6368-28.0576 18.6368-45.056z" fill="#FF9E5C" p-id="13285"></path><path d="M572.416 926.5152H512c-4.096 0-7.7824-2.4576-9.4208-6.3488-1.6384-3.8912-0.6144-8.192 2.2528-11.0592l23.1424-23.1424c13.9264-13.9264 32.5632-21.7088 52.4288-21.7088h60.416c4.096 0 7.7824 2.4576 9.4208 6.3488 1.6384 3.8912 0.6144 8.192-2.2528 11.0592L624.64 904.8064c-13.9264 13.9264-32.5632 21.7088-52.224 21.7088z m-35.6352-20.48h35.6352c14.336 0 27.648-5.5296 37.888-15.7696l5.7344-5.7344h-35.6352c-14.336 0-27.648 5.5296-37.888 15.7696l-5.7344 5.7344z" fill="#1C1D21" p-id="13286"></path><path d="M615.0144 883.712h-60.416c-4.096 0-7.7824-2.4576-9.4208-6.3488-1.6384-3.8912-0.6144-8.192 2.2528-11.0592l23.1424-23.1424c13.9264-13.9264 32.5632-21.7088 52.4288-21.7088h60.416c4.096 0 7.7824 2.4576 9.4208 6.3488 1.6384 3.8912 0.6144 8.192-2.2528 11.0592l-23.1424 23.1424c-14.1312 14.1312-32.5632 21.7088-52.4288 21.7088z m-35.6352-20.48h35.6352c14.336 0 27.648-5.5296 37.888-15.7696l5.7344-5.7344h-35.6352c-14.336 0-27.648 5.5296-37.888 15.7696l-5.7344 5.7344z" fill="#1C1D21" p-id="13287"></path><path d="M657.6128 841.1136h-60.416c-4.096 0-7.7824-2.4576-9.4208-6.3488-1.6384-3.8912-0.6144-8.192 2.2528-11.0592l23.1424-23.1424c13.9264-13.9264 32.5632-21.7088 52.4288-21.7088h60.416c4.096 0 7.7824 2.4576 9.4208 6.3488 1.6384 3.8912 0.6144 8.192-2.2528 11.0592l-23.1424 23.1424c-13.9264 14.1312-32.5632 21.7088-52.4288 21.7088z m-35.6352-20.48h35.6352c14.336 0 27.648-5.5296 37.888-15.7696l5.7344-5.7344H665.6c-14.336 0-27.648 5.5296-37.888 15.7696l-5.7344 5.7344z" fill="#1C1D21" p-id="13288"></path><path d="M700.2112 798.5152h-60.416c-4.096 0-7.7824-2.4576-9.4208-6.3488-1.6384-3.8912-0.6144-8.192 2.2528-11.0592l23.1424-23.1424c13.9264-13.9264 32.5632-21.7088 52.4288-21.7088h60.416c4.096 0 7.7824 2.4576 9.4208 6.3488 1.6384 3.8912 0.6144 8.192-2.2528 11.0592l-23.1424 23.1424c-13.9264 13.9264-32.5632 21.7088-52.4288 21.7088z m-35.6352-20.48h35.6352c14.336 0 27.648-5.5296 37.888-15.7696l5.7344-5.7344h-35.6352c-14.336 0-27.648 5.5296-37.888 15.7696l-5.7344 5.7344z" fill="#1C1D21" p-id="13289"></path><path d="M743.0144 755.9168h-60.416c-4.096 0-7.7824-2.4576-9.4208-6.3488-1.6384-3.8912-0.6144-8.192 2.2528-11.0592l23.1424-23.1424c13.9264-13.9264 32.5632-21.7088 52.4288-21.7088h60.416c4.096 0 7.7824 2.4576 9.4208 6.3488 1.6384 3.8912 0.6144 8.192-2.2528 11.0592l-23.1424 23.1424c-14.1312 13.9264-32.768 21.7088-52.4288 21.7088z m-35.6352-20.48h35.6352c14.336 0 27.648-5.5296 37.888-15.7696l5.7344-5.7344h-35.6352c-14.336 0-27.648 5.5296-37.888 15.7696l-5.7344 5.7344zM512 926.5152c-1.2288 0-2.6624-0.2048-3.8912-0.8192-3.8912-1.6384-6.3488-5.3248-6.3488-9.4208v-60.416c0-19.8656 7.7824-38.2976 21.7088-52.4288l23.1424-23.1424c2.8672-2.8672 7.3728-3.8912 11.0592-2.2528 3.8912 1.6384 6.3488 5.3248 6.3488 9.4208V847.872c0 19.8656-7.7824 38.2976-21.7088 52.4288l-23.1424 23.1424c-1.8432 1.8432-4.5056 3.072-7.168 3.072z m31.744-114.2784l-5.7344 5.7344c-10.0352 10.0352-15.7696 23.552-15.7696 37.888v35.6352l5.7344-5.7344c10.0352-10.0352 15.7696-23.552 15.7696-37.888v-35.6352z" fill="#1C1D21" p-id="13290"></path><path d="M554.5984 883.712c-1.2288 0-2.6624-0.2048-3.8912-0.8192-3.8912-1.6384-6.3488-5.3248-6.3488-9.4208V813.056c0-19.8656 7.7824-38.2976 21.7088-52.4288l23.1424-23.1424c2.8672-2.8672 7.3728-3.8912 11.0592-2.2528 3.8912 1.6384 6.3488 5.3248 6.3488 9.4208v60.416c0 19.8656-7.7824 38.2976-21.7088 52.4288L561.7664 880.64c-1.8432 2.048-4.5056 3.072-7.168 3.072z m31.744-114.0736l-5.7344 5.7344c-10.0352 10.0352-15.7696 23.552-15.7696 37.888v35.6352l5.7344-5.7344c10.0352-10.0352 15.7696-23.552 15.7696-37.888v-35.6352z" fill="#1C1D21" p-id="13291"></path><path d="M597.1968 841.1136c-1.2288 0-2.6624-0.2048-3.8912-0.8192-3.8912-1.6384-6.3488-5.3248-6.3488-9.4208v-60.416c0-19.8656 7.7824-38.2976 21.7088-52.4288l23.1424-23.1424c2.8672-2.8672 7.3728-3.8912 11.0592-2.2528 3.8912 1.6384 6.3488 5.3248 6.3488 9.4208v60.416c0 19.8656-7.7824 38.2976-21.7088 52.4288l-23.1424 23.1424c-1.8432 2.048-4.5056 3.072-7.168 3.072z m31.744-114.0736l-5.7344 5.7344c-10.0352 10.0352-15.7696 23.552-15.7696 37.888v35.6352l5.7344-5.7344c10.0352-10.0352 15.7696-23.552 15.7696-37.888V727.04z" fill="#1C1D21" p-id="13292"></path><path d="M640 798.5152c-1.2288 0-2.6624-0.2048-3.8912-0.8192-3.8912-1.6384-6.3488-5.3248-6.3488-9.4208v-60.416c0-19.8656 7.7824-38.2976 21.7088-52.4288l23.1424-23.1424c2.8672-2.8672 7.3728-3.8912 11.0592-2.2528 3.8912 1.6384 6.3488 5.3248 6.3488 9.4208v60.416c0 19.8656-7.7824 38.2976-21.7088 52.4288L647.168 795.4432c-2.048 2.048-4.5056 3.072-7.168 3.072z m31.5392-114.2784l-5.7344 5.7344c-10.0352 10.0352-15.7696 23.552-15.7696 37.888v35.6352l5.7344-5.7344c10.0352-10.0352 15.7696-23.552 15.7696-37.888v-35.6352z" fill="#1C1D21" p-id="13293"></path><path d="M682.5984 755.9168c-1.2288 0-2.6624-0.2048-3.8912-0.8192-3.8912-1.6384-6.3488-5.3248-6.3488-9.4208v-60.416c0-19.8656 7.7824-38.2976 21.7088-52.4288l23.1424-23.1424c2.8672-2.8672 7.3728-3.8912 11.0592-2.2528 3.8912 1.6384 6.3488 5.3248 6.3488 9.4208v60.416c0 19.8656-7.7824 38.2976-21.7088 52.4288l-23.1424 23.1424c-1.8432 2.048-4.5056 3.072-7.168 3.072z m31.5392-114.2784l-5.7344 5.7344c-10.0352 10.0352-15.7696 23.552-15.7696 37.888V720.896l5.7344-5.7344c10.0352-10.0352 15.7696-23.552 15.7696-37.888v-35.6352zM558.8992 972.8c-2.6624 0-5.3248-1.024-7.168-3.072l-52.8384-52.8384c-4.096-4.096-4.096-10.4448 0-14.5408s10.4448-4.096 14.5408 0l52.8384 52.8384c4.096 4.096 4.096 10.4448 0 14.5408-2.2528 2.048-4.7104 3.072-7.3728 3.072z" fill="#1C1D21" p-id="13294"></path><path d="M465.1008 972.8c-2.6624 0-5.3248-1.024-7.168-3.072-4.096-4.096-4.096-10.4448 0-14.5408l52.8384-52.8384c4.096-4.096 10.4448-4.096 14.5408 0s4.096 10.4448 0 14.5408l-52.8384 52.8384c-2.048 2.048-4.7104 3.072-7.3728 3.072zM472.064 741.376c-5.7344 0-10.24-4.5056-10.24-10.24v-57.1392c0-8.8064 3.2768-16.9984 9.4208-23.3472l14.336-14.7456c3.8912-4.096 10.4448-4.096 14.5408-0.2048s4.096 10.4448 0.2048 14.5408l-14.336 14.7456c-2.4576 2.4576-3.6864 5.7344-3.6864 9.0112V731.136c0 5.7344-4.5056 10.24-10.24 10.24zM551.936 741.376c-5.7344 0-10.24-4.5056-10.24-10.24v-57.1392c0-3.4816-1.2288-6.5536-3.6864-9.0112l-14.336-14.7456c-3.8912-4.096-3.8912-10.4448 0.2048-14.5408 4.096-3.8912 10.4448-3.8912 14.5408 0.2048l14.336 14.7456c6.144 6.3488 9.4208 14.5408 9.4208 23.3472V731.136c0 5.7344-4.7104 10.24-10.24 10.24zM540.2624 276.48c-3.4816 0-6.9632-1.8432-8.8064-5.12-4.096-6.9632-11.4688-11.264-19.456-11.264s-15.36 4.3008-19.456 11.264c-2.8672 4.9152-9.0112 6.5536-13.9264 3.6864-4.9152-2.8672-6.5536-9.0112-3.6864-13.9264 7.5776-13.1072 21.9136-21.2992 37.0688-21.2992s29.4912 8.192 37.0688 21.2992c2.8672 4.9152 1.2288 11.0592-3.6864 13.9264-1.6384 1.024-3.4816 1.4336-5.12 1.4336z" fill="#1C1D21" p-id="13295"></path></svg>