<svg xmlns="http://www.w3.org/2000/svg" viewBox="0 0 1024 1024" version="1.1"><path d="M512 512m-501.76 0a501.76 501.76 0 1 0 1003.52 0 501.76 501.76 0 1 0-1003.52 0Z" fill="#8CEEF9" p-id="11227"></path><path d="M355.1232 400.7936c-2.6624 0-5.3248-1.024-7.168-3.072-4.096-4.096-4.096-10.4448 0-14.5408L419.84 311.296v-96.6656h-95.6416l-72.4992 72.4992c-4.096 4.096-10.4448 4.096-14.5408 0s-4.096-10.4448 0-14.5408l75.3664-75.3664c1.8432-1.8432 4.5056-3.072 7.168-3.072H430.08c5.7344 0 10.24 4.5056 10.24 10.24V315.392c0 2.6624-1.024 5.3248-3.072 7.168l-74.9568 74.9568c-2.048 2.2528-4.7104 3.2768-7.168 3.2768z" fill="#1C1D21" p-id="11228"></path><path d="M512 1024c-136.8064 0-265.4208-53.248-362.0864-149.9136S0 648.8064 0 512 53.248 246.5792 149.9136 149.9136 375.1936 0 512 0s265.4208 53.248 362.0864 149.9136S1024 375.1936 1024 512s-53.248 265.4208-149.9136 362.0864S648.8064 1024 512 1024z m0-1003.52C241.0496 20.48 20.48 241.0496 20.48 512s220.5696 491.52 491.52 491.52 491.52-220.5696 491.52-491.52S782.9504 20.48 512 20.48z" fill="#1C1D21" p-id="11229"></path><path d="M163.0208 872.448c90.3168 87.4496 213.4016 141.312 348.9792 141.312s258.6624-53.8624 348.9792-141.312H163.0208z" fill="#0ABFB2" p-id="11230"></path><path d="M512 1024c-133.7344 0-260.096-51.2-356.1472-144.1792-3.072-2.8672-3.8912-7.3728-2.4576-11.264 1.6384-3.8912 5.3248-6.3488 9.4208-6.3488h697.9584c4.096 0 7.9872 2.4576 9.4208 6.3488 1.6384 3.8912 0.6144 8.3968-2.4576 11.264C772.096 972.8 645.7344 1024 512 1024zM189.2352 882.688c89.4976 78.0288 203.1616 120.832 322.7648 120.832s233.2672-42.8032 322.7648-120.832H189.2352z" fill="#1C1D21" p-id="11231"></path><path d="M215.4496 872.448h80.4864c30.72-14.9504 52.0192-46.4896 52.0192-83.1488 0-42.5984-28.8768-78.6432-68.4032-89.088V484.7616h-47.9232v215.4496c-39.3216 10.6496-68.4032 46.4896-68.4032 89.088 0.2048 36.6592 21.2992 68.1984 52.224 83.1488z" fill="#FF3E63" p-id="11232"></path><path d="M732.5696 745.0624h-102.4v-51.2h102.4c42.3936 0 76.8-34.4064 76.8-76.8v-183.9104c0-42.3936-34.4064-76.8-76.8-76.8h-51.2v-51.2h51.2c70.656 0 128 57.344 128 128v183.9104c0 70.4512-57.344 128-128 128z" fill="#E0E0E0" p-id="11233"></path><path d="M732.5696 755.3024h-102.4c-5.7344 0-10.24-4.5056-10.24-10.24v-51.2c0-5.7344 4.5056-10.24 10.24-10.24h102.4c36.6592 0 66.56-29.9008 66.56-66.56v-183.9104c0-36.6592-29.9008-66.56-66.56-66.56h-51.2c-5.7344 0-10.24-4.5056-10.24-10.24v-51.2c0-5.7344 4.5056-10.24 10.24-10.24h51.2c76.1856 0 138.24 62.0544 138.24 138.24v15.7696c0 5.7344-4.5056 10.24-10.24 10.24s-10.24-4.5056-10.24-10.24v-15.7696c0-64.9216-52.8384-117.76-117.76-117.76h-40.96v30.72h40.96c47.9232 0 87.04 39.1168 87.04 87.04v183.9104c0 47.9232-39.1168 87.04-87.04 87.04h-92.16v30.72h92.16c64.9216 0 117.76-52.8384 117.76-117.76 0-5.7344 4.5056-10.24 10.24-10.24s10.24 4.5056 10.24 10.24c0 76.1856-61.8496 138.24-138.24 138.24z" fill="#1C1D21" p-id="11234"></path><path d="M860.5696 590.848c-5.7344 0-10.24-4.5056-10.24-10.24v-45.4656c0-5.7344 4.5056-10.24 10.24-10.24s10.24 4.5056 10.24 10.24v45.4656c0 5.7344-4.5056 10.24-10.24 10.24zM860.5696 504.4224c-5.7344 0-10.24-4.5056-10.24-10.24v-9.6256c0-5.7344 4.5056-10.24 10.24-10.24s10.24 4.5056 10.24 10.24v9.6256c0 5.7344-4.5056 10.24-10.24 10.24zM630.1696 704.1024c-5.7344 0-10.24-4.5056-10.24-10.24V647.168c0-5.7344 4.5056-10.24 10.24-10.24s10.24 4.5056 10.24 10.24v46.6944c0 5.5296-4.5056 10.24-10.24 10.24z" fill="#1C1D21" p-id="11235"></path><path d="M723.1488 657.408h-185.7536c-5.7344 0-10.24-4.5056-10.24-10.24s4.5056-10.24 10.24-10.24h185.7536c5.7344 0 10.24 4.5056 10.24 10.24s-4.7104 10.24-10.24 10.24z" fill="#1C1D21" p-id="11236"></path><path d="M844.1856 872.448h-362.496l114.0736-101.7856c18.432-16.5888 42.3936-25.6 67.1744-25.6 24.7808 0 48.7424 9.216 67.1744 25.6l114.0736 101.7856z" fill="#E0E0E0" p-id="11237"></path><path d="M844.1856 882.688h-362.496c-4.3008 0-7.9872-2.6624-9.6256-6.5536s-0.4096-8.3968 2.6624-11.264l114.0736-101.7856c20.2752-18.2272 46.6944-28.2624 73.9328-28.2624s53.6576 10.0352 73.9328 28.2624l114.0736 101.7856c3.072 2.8672 4.3008 7.3728 2.6624 11.264s-4.9152 6.5536-9.216 6.5536z m-335.4624-20.48h308.8384l-94.0032-83.968c-16.5888-14.7456-38.0928-22.9376-60.416-22.9376-22.3232 0-43.6224 8.192-60.416 22.9376l-94.0032 83.968z" fill="#1C1D21" p-id="11238"></path><path d="M714.5472 403.456l-79.6672-19.2512c-5.5296-1.2288-8.8064-6.9632-7.5776-12.288l37.2736-154.624c1.2288-5.5296 6.9632-8.8064 12.288-7.5776l79.6672 19.2512c5.5296 1.2288 8.8064 6.9632 7.5776 12.288L727.04 395.8784c-1.4336 5.5296-6.9632 8.8064-12.4928 7.5776z" fill="#E0E0E0" p-id="11239"></path><path d="M702.0544 400.384l-54.4768-13.1072-24.1664 99.9424c-1.2288 5.5296 2.048 11.0592 7.5776 12.288L665.6 507.904c5.5296 1.2288 11.0592-2.048 12.288-7.5776l24.1664-99.9424z" fill="#E0E0E0" p-id="11240"></path><path d="M717.0048 413.9008c-1.6384 0-3.2768-0.2048-4.9152-0.6144l-79.6672-19.2512c-11.0592-2.6624-17.8176-13.7216-15.1552-24.7808l37.2736-154.624c2.6624-11.0592 13.7216-17.8176 24.7808-15.1552l79.6672 19.2512c5.3248 1.2288 9.8304 4.5056 12.6976 9.216 2.8672 4.7104 3.6864 10.24 2.4576 15.5648l-37.2736 154.624c-1.2288 5.3248-4.5056 9.8304-9.216 12.6976-3.2768 2.048-6.9632 3.072-10.6496 3.072z m0-20.48l37.2736-154.624-79.6672-19.2512-37.2736 154.624 79.6672 19.2512z" fill="#1C1D21" p-id="11241"></path><path d="M695.9104 272.9984c-0.8192 0-1.6384 0-2.4576-0.2048-5.5296-1.2288-8.8064-6.9632-7.5776-12.288l1.4336-6.144c1.2288-5.5296 6.9632-8.8064 12.288-7.5776 5.5296 1.2288 8.8064 6.9632 7.5776 12.288l-1.4336 6.144c-1.024 4.7104-5.3248 7.7824-9.8304 7.7824zM674.4064 361.6768c-0.8192 0-1.6384 0-2.4576-0.2048-5.5296-1.2288-8.8064-6.9632-7.5776-12.288l12.9024-53.6576c1.2288-5.5296 6.9632-8.8064 12.288-7.5776 5.5296 1.2288 8.8064 6.9632 7.5776 12.288l-12.9024 53.6576c-1.024 4.7104-5.3248 7.7824-9.8304 7.7824z" fill="#FFFFFF" p-id="11242"></path><path d="M667.8528 518.3488c-1.6384 0-3.2768-0.2048-4.7104-0.6144l-34.6112-8.3968c-5.3248-1.2288-9.8304-4.5056-12.6976-9.216-2.8672-4.7104-3.6864-10.24-2.4576-15.5648l24.1664-99.9424c1.2288-5.5296 6.9632-8.8064 12.288-7.5776l54.4768 13.1072c2.6624 0.6144 4.9152 2.2528 6.3488 4.7104 1.4336 2.2528 1.8432 5.12 1.2288 7.7824l-24.1664 99.9424c-2.2528 9.4208-10.6496 15.7696-19.8656 15.7696z m-12.9024-118.784L633.2416 489.472l34.6112 8.3968 21.7088-89.9072-34.6112-8.3968z" fill="#1C1D21" p-id="11243"></path><path d="M638.5664 553.5744c-0.8192 0-1.6384 0-2.4576-0.2048-5.5296-1.2288-8.8064-6.9632-7.5776-12.288l9.6256-39.7312c1.2288-5.5296 6.7584-8.8064 12.288-7.5776 5.5296 1.2288 8.8064 6.9632 7.5776 12.288l-9.6256 39.7312c-1.024 4.7104-5.12 7.7824-9.8304 7.7824zM628.5312 594.7392c-0.8192 0-1.6384 0-2.4576-0.2048-5.5296-1.2288-8.8064-6.9632-7.5776-12.288l1.8432-7.9872c1.2288-5.5296 6.9632-8.8064 12.288-7.5776 5.5296 1.2288 8.8064 6.9632 7.5776 12.288l-1.8432 7.9872c-1.024 4.7104-5.12 7.7824-9.8304 7.7824z" fill="#1C1D21" p-id="11244"></path><path d="M755.3024 320.9216m-53.248 0a53.248 53.248 0 1 0 106.496 0 53.248 53.248 0 1 0-106.496 0Z" fill="#AAADAD" p-id="11245"></path><path d="M755.3024 384.4096c-35.0208 0-63.488-28.4672-63.488-63.488s28.4672-63.488 63.488-63.488 63.488 28.4672 63.488 63.488-28.4672 63.488-63.488 63.488z m0-106.496c-23.7568 0-43.008 19.2512-43.008 43.008s19.2512 43.008 43.008 43.008 43.008-19.2512 43.008-43.008-19.456-43.008-43.008-43.008z" fill="#1C1D21" p-id="11246"></path><path d="M661.504 763.0848m-32.9728 0a32.9728 32.9728 0 1 0 65.9456 0 32.9728 32.9728 0 1 0-65.9456 0Z" fill="#AAADAD" p-id="11247"></path><path d="M661.504 806.0928c-23.7568 0-43.2128-19.456-43.2128-43.2128s19.456-43.2128 43.2128-43.2128 43.008 19.6608 43.008 43.4176-19.2512 43.008-43.008 43.008z m0-65.7408c-12.4928 0-22.7328 10.24-22.7328 22.7328s10.24 22.7328 22.7328 22.7328 22.7328-10.24 22.7328-22.7328-10.24-22.7328-22.7328-22.7328zM295.936 882.688h-80.4864c-1.6384 0-3.072-0.4096-4.5056-1.024-35.0208-16.9984-57.7536-53.248-57.7536-92.3648 0-43.6224 27.648-82.3296 68.4032-96.6656V484.7616c0-5.7344 4.5056-10.24 10.24-10.24h47.9232c5.7344 0 10.24 4.5056 10.24 10.24v208.0768c40.5504 14.336 68.4032 53.0432 68.4032 96.6656 0 39.1168-22.7328 75.1616-57.7536 92.3648-1.6384 0.4096-3.072 0.8192-4.7104 0.8192z m-78.2336-20.48h75.776c27.4432-14.1312 44.2368-41.984 44.2368-72.9088 0-37.0688-24.9856-69.632-60.8256-79.2576-4.5056-1.2288-7.5776-5.3248-7.5776-9.8304V495.0016h-27.4432v205.2096c0 4.7104-3.072 8.6016-7.5776 9.8304-35.84 9.6256-60.8256 42.1888-60.8256 79.2576 0.2048 30.9248 16.9984 58.7776 44.2368 72.9088z" fill="#1C1D21" p-id="11248"></path><path d="M237.9776 751.4112c-4.096 0-8.192-2.6624-9.6256-6.7584-1.8432-5.3248 0.8192-11.264 6.144-13.1072 1.6384-0.6144 3.4816-1.2288 5.12-1.6384 5.5296-1.4336 11.0592 1.8432 12.4928 7.168 1.4336 5.5296-1.8432 11.0592-7.168 12.4928-1.2288 0.4096-2.2528 0.6144-3.4816 1.024-1.024 0.6144-2.2528 0.8192-3.4816 0.8192zM226.304 841.728c-2.048 0-4.096-0.6144-5.7344-1.8432-16.5888-11.4688-26.4192-30.3104-26.4192-50.5856 0-11.0592 3.072-22.1184 8.8064-31.5392 2.8672-4.9152 9.216-6.3488 14.1312-3.4816 4.9152 2.8672 6.3488 9.216 3.4816 14.1312-3.8912 6.3488-5.7344 13.7216-5.7344 21.0944 0 13.7216 6.3488 26.0096 17.6128 33.792 4.7104 3.2768 5.7344 9.6256 2.6624 14.336-2.4576 2.6624-5.7344 4.096-8.8064 4.096z" fill="#FFAEC3" p-id="11249"></path><path d="M231.6288 484.7616h47.9232v104.6528h-47.9232z" fill="#8CEEF9" p-id="11250"></path><path d="M279.7568 599.6544h-47.9232c-5.7344 0-10.24-4.5056-10.24-10.24v-104.6528c0-5.7344 4.5056-10.24 10.24-10.24h47.9232c5.7344 0 10.24 4.5056 10.24 10.24v104.6528c0 5.5296-4.7104 10.24-10.24 10.24z m-37.888-20.48h27.4432v-84.1728h-27.4432v84.1728z" fill="#1C1D21" p-id="11251"></path><path d="M305.5616 495.0016h-99.7376c-5.7344 0-10.24-4.5056-10.24-10.24s4.5056-10.24 10.24-10.24h99.7376c5.7344 0 10.24 4.5056 10.24 10.24s-4.7104 10.24-10.24 10.24z" fill="#1C1D21" p-id="11252"></path><path d="M399.9744 872.448h80.4864c30.72-14.9504 52.0192-46.4896 52.0192-83.1488 0-42.5984-28.8768-78.6432-68.4032-89.088V484.7616h-47.9232v215.4496c-39.3216 10.6496-68.4032 46.4896-68.4032 89.088 0.2048 36.6592 21.504 68.1984 52.224 83.1488z" fill="#508DEF" p-id="11253"></path><path d="M480.6656 882.688h-80.4864c-1.6384 0-3.072-0.4096-4.5056-1.024-35.0208-16.9984-57.7536-53.248-57.7536-92.3648 0-43.6224 27.648-82.3296 68.4032-96.6656V484.7616c0-5.7344 4.5056-10.24 10.24-10.24h47.9232c5.7344 0 10.24 4.5056 10.24 10.24v208.0768c40.5504 14.336 68.4032 53.0432 68.4032 96.6656 0 39.1168-22.7328 75.1616-57.7536 92.3648-1.6384 0.4096-3.2768 0.8192-4.7104 0.8192z m-78.2336-20.48h75.776c27.4432-14.1312 44.2368-41.984 44.2368-72.9088 0-37.0688-24.9856-69.632-60.8256-79.2576-4.5056-1.2288-7.5776-5.3248-7.5776-9.8304V495.0016h-27.4432v205.2096c0 4.7104-3.072 8.6016-7.5776 9.8304-35.84 9.6256-60.8256 42.1888-60.8256 79.2576 0 30.9248 16.9984 58.7776 44.2368 72.9088z" fill="#1C1D21" p-id="11254"></path><path d="M416.3584 484.7616h47.9232v104.6528h-47.9232z" fill="#8CEEF9" p-id="11255"></path><path d="M464.2816 599.6544h-47.9232c-5.7344 0-10.24-4.5056-10.24-10.24v-104.6528c0-5.7344 4.5056-10.24 10.24-10.24h47.9232c5.7344 0 10.24 4.5056 10.24 10.24v104.6528c0 5.5296-4.5056 10.24-10.24 10.24z m-37.6832-20.48h27.4432v-84.1728h-27.4432v84.1728z" fill="#1C1D21" p-id="11256"></path><path d="M490.0864 495.0016h-99.7376c-5.7344 0-10.24-4.5056-10.24-10.24s4.5056-10.24 10.24-10.24h99.7376c5.7344 0 10.24 4.5056 10.24 10.24s-4.5056 10.24-10.24 10.24zM255.5904 818.9952c-5.7344 0-10.24-4.5056-10.24-10.24v-45.6704c0-5.7344 4.5056-10.24 10.24-10.24s10.24 4.5056 10.24 10.24v45.6704c0 5.5296-4.5056 10.24-10.24 10.24z" fill="#1C1D21" p-id="11257"></path><path d="M278.528 796.0576h-45.6704c-5.7344 0-10.24-4.5056-10.24-10.24s4.5056-10.24 10.24-10.24H278.528c5.7344 0 10.24 4.5056 10.24 10.24s-4.7104 10.24-10.24 10.24zM440.32 818.9952c-5.7344 0-10.24-4.5056-10.24-10.24v-45.6704c0-5.7344 4.5056-10.24 10.24-10.24s10.24 4.5056 10.24 10.24v45.6704c0 5.5296-4.5056 10.24-10.24 10.24z" fill="#1C1D21" p-id="11258"></path><path d="M463.0528 796.0576h-45.6704c-5.7344 0-10.24-4.5056-10.24-10.24s4.5056-10.24 10.24-10.24h45.6704c5.7344 0 10.24 4.5056 10.24 10.24s-4.5056 10.24-10.24 10.24z" fill="#1C1D21" p-id="11259"></path><path d="M422.7072 751.4112c-4.096 0-8.192-2.6624-9.6256-6.7584-1.8432-5.3248 0.8192-11.264 6.144-13.1072 1.6384-0.6144 3.4816-1.2288 5.12-1.6384 5.5296-1.4336 11.0592 1.8432 12.4928 7.168 1.4336 5.5296-1.8432 11.0592-7.168 12.4928-1.2288 0.4096-2.2528 0.6144-3.4816 1.024-1.2288 0.6144-2.4576 0.8192-3.4816 0.8192zM410.8288 841.728c-2.048 0-4.096-0.6144-5.7344-1.8432-16.5888-11.4688-26.4192-30.3104-26.4192-50.5856 0-11.0592 3.072-22.1184 8.8064-31.5392 2.8672-4.9152 9.216-6.3488 14.1312-3.4816 4.9152 2.8672 6.3488 9.216 3.4816 14.1312-3.8912 6.3488-5.7344 13.7216-5.7344 21.0944 0 13.7216 6.3488 26.0096 17.6128 33.792 4.7104 3.2768 5.7344 9.6256 2.6624 14.336-2.2528 2.6624-5.5296 4.096-8.8064 4.096z" fill="#ABD1FF" p-id="11260"></path><path d="M409.74634 335.833333a28.672 28.672 0 1 0 40.547624-40.549039 28.672 28.672 0 1 0-40.547624 40.549039Z" fill="#FFFFFF" p-id="11261"></path><path d="M409.809212 224.807387a28.672 28.672 0 1 0 40.547623-40.549039 28.672 28.672 0 1 0-40.547623 40.549039Z" fill="#FFFFFF" p-id="11262"></path><path d="M299.651655 224.863266a28.672 28.672 0 1 0 40.547624-40.549039 28.672 28.672 0 1 0-40.547624 40.549039Z" fill="#FFFFFF" p-id="11263"></path><path d="M224.207429 300.197431a28.672 28.672 0 1 0 40.547624-40.549039 28.672 28.672 0 1 0-40.547624 40.549039Z" fill="#FFFFFF" p-id="11264"></path><path d="M336.824514 408.764627a25.8048 25.8048 0 1 0 36.492861-36.494135 25.8048 25.8048 0 1 0-36.492861 36.494135Z" fill="#FFFFFF" p-id="11265"></path><path d="M430.08 354.5088c-10.0352 0-19.8656-3.8912-27.4432-11.4688-7.3728-7.3728-11.4688-17.2032-11.4688-27.4432 0-10.4448 4.096-20.0704 11.4688-27.4432 7.3728-7.3728 17.2032-11.4688 27.4432-11.4688 10.4448 0 20.0704 4.096 27.4432 11.4688 7.3728 7.3728 11.4688 17.2032 11.4688 27.4432 0 10.4448-4.096 20.0704-11.4688 27.4432-7.5776 7.7824-17.6128 11.4688-27.4432 11.4688z m0-57.344c-4.9152 0-9.6256 1.8432-13.1072 5.3248-3.4816 3.4816-5.3248 8.192-5.3248 13.1072 0 4.9152 1.8432 9.6256 5.3248 13.1072 7.168 7.168 18.8416 7.168 26.0096 0 3.4816-3.4816 5.3248-8.192 5.3248-13.1072 0-4.9152-1.8432-9.6256-5.3248-13.1072-3.4816-3.2768-7.9872-5.3248-12.9024-5.3248zM430.08 243.5072c-10.4448 0-20.0704-4.096-27.4432-11.4688-7.3728-7.3728-11.4688-17.2032-11.4688-27.4432 0-10.4448 4.096-20.0704 11.4688-27.4432 15.1552-15.1552 39.936-15.1552 55.0912 0 7.3728 7.3728 11.4688 17.2032 11.4688 27.4432 0 10.4448-4.096 20.0704-11.4688 27.4432-7.5776 7.3728-17.408 11.4688-27.648 11.4688z m0-57.344c-4.7104 0-9.4208 1.8432-13.1072 5.3248-3.4816 3.4816-5.3248 8.192-5.3248 13.1072 0 4.9152 1.8432 9.6256 5.3248 13.1072 3.4816 3.4816 8.192 5.3248 13.1072 5.3248 4.9152 0 9.6256-1.8432 13.1072-5.3248 3.4816-3.4816 5.3248-8.192 5.3248-13.1072 0-4.9152-1.8432-9.6256-5.3248-13.1072-3.6864-3.4816-8.3968-5.3248-13.1072-5.3248zM319.8976 243.5072c-10.4448 0-20.0704-4.096-27.4432-11.4688-7.3728-7.3728-11.4688-17.2032-11.4688-27.4432 0-10.4448 4.096-20.0704 11.4688-27.4432 15.1552-15.1552 39.936-15.1552 55.0912 0 7.3728 7.3728 11.4688 17.2032 11.4688 27.4432 0 10.4448-4.096 20.0704-11.4688 27.4432-7.5776 7.3728-17.2032 11.4688-27.648 11.4688z m0-57.344c-4.7104 0-9.4208 1.8432-13.1072 5.3248-3.4816 3.4816-5.3248 8.192-5.3248 13.1072 0 4.9152 1.8432 9.6256 5.3248 13.1072 3.4816 3.4816 8.192 5.3248 13.1072 5.3248 4.9152 0 9.6256-1.8432 13.1072-5.3248 3.4816-3.4816 5.3248-8.192 5.3248-13.1072 0-4.9152-1.8432-9.6256-5.3248-13.1072-3.6864-3.4816-8.3968-5.3248-13.1072-5.3248zM244.5312 318.8736c-10.0352 0-19.8656-3.8912-27.4432-11.4688-7.3728-7.3728-11.4688-17.2032-11.4688-27.4432 0-10.4448 4.096-20.0704 11.4688-27.4432 7.3728-7.3728 17.2032-11.4688 27.4432-11.4688 10.4448 0 20.0704 4.096 27.4432 11.4688 15.1552 15.1552 15.1552 39.936 0 55.0912-7.5776 7.5776-17.6128 11.264-27.4432 11.264z m0-57.344c-4.9152 0-9.6256 1.8432-13.1072 5.3248-3.4816 3.4816-5.3248 8.192-5.3248 13.1072 0 4.9152 1.8432 9.6256 5.3248 13.1072 7.168 7.168 18.8416 7.168 26.0096 0s7.168-18.8416 0-26.0096c-3.4816-3.4816-7.9872-5.5296-12.9024-5.5296zM355.1232 429.4656c-10.4448 0-20.0704-4.096-27.4432-11.4688-15.1552-15.1552-15.1552-39.936 0-55.0912 15.1552-15.1552 39.936-15.1552 55.0912 0 7.3728 7.3728 11.4688 17.2032 11.4688 27.4432 0 10.4448-4.096 20.0704-11.4688 27.4432-7.5776 7.5776-17.408 11.6736-27.648 11.6736z m0-57.344c-4.7104 0-9.4208 1.8432-13.1072 5.3248-7.168 7.168-7.168 18.8416 0 26.0096 3.4816 3.4816 8.192 5.3248 13.1072 5.3248 4.9152 0 9.6256-1.8432 13.1072-5.3248 3.4816-3.4816 5.3248-8.192 5.3248-13.1072 0-4.9152-1.8432-9.6256-5.3248-13.1072-3.6864-3.2768-8.3968-5.12-13.1072-5.12z" fill="#1C1D21" p-id="11266"></path><path d="M149.2992 385.4336c-2.6624 0-5.3248-1.024-7.168-3.072-4.096-4.096-4.096-10.4448 0-14.5408L147.456 362.496c4.096-4.096 10.4448-4.096 14.5408 0s4.096 10.4448 0 14.5408l-5.3248 5.3248c-2.048 2.048-4.7104 3.072-7.3728 3.072z" fill="#1C1D21" p-id="11267"></path><path d="M180.0192 354.7136c-2.6624 0-5.3248-1.024-7.168-3.072-4.096-4.096-4.096-10.4448 0-14.5408L217.088 292.864c4.096-4.096 10.4448-4.096 14.5408 0s4.096 10.4448 0 14.5408l-44.2368 44.2368c-2.2528 2.048-4.9152 3.072-7.3728 3.072z" fill="#1C1D21" p-id="11268"></path></svg>