<svg xmlns="http://www.w3.org/2000/svg" viewBox="0 0 1024 1024" version="1.1"><path d="M512 512m-501.76 0a501.76 501.76 0 1 0 1003.52 0 501.76 501.76 0 1 0-1003.52 0Z" fill="#8CEEF9" p-id="16822"></path><path d="M512 1024c-136.8064 0-265.4208-53.248-362.0864-149.9136C53.248 777.4208 0 648.8064 0 512S53.248 246.5792 149.9136 149.9136C246.5792 53.248 375.1936 0 512 0s265.4208 53.248 362.0864 149.9136C970.752 246.5792 1024 375.1936 1024 512s-53.248 265.4208-149.9136 362.0864C777.4208 970.752 648.8064 1024 512 1024z m0-1003.52C241.0496 20.48 20.48 241.0496 20.48 512s220.5696 491.52 491.52 491.52 491.52-220.5696 491.52-491.52S782.9504 20.48 512 20.48z" fill="#1C1D21" p-id="16823"></path><path d="M728.2688 832.9216c0-55.9104-28.8768-107.7248-76.3904-137.0112l-58.5728-36.2496c-23.1424-14.336-37.2736-39.7312-37.2736-66.9696v-7.3728c0-13.1072 7.7824-24.9856 19.6608-30.5152 50.7904-23.9616 86.016-75.5712 86.016-135.5776v-69.4272c0-82.7392-66.9696-149.7088-149.7088-149.7088-82.7392 0-149.7088 66.9696-149.7088 149.7088v69.4272c0 60.0064 35.2256 111.616 86.016 135.5776 11.8784 5.5296 19.6608 17.408 19.6608 30.5152v7.3728c0 27.2384-14.1312 52.6336-37.2736 66.9696l-58.5728 36.2496c-47.5136 29.2864-76.3904 81.3056-76.3904 137.0112v132.096c65.536 31.3344 138.8544 48.9472 216.2688 48.9472s150.7328-17.6128 216.2688-48.9472v-132.096z" fill="#FFC5B3" p-id="16824"></path><path d="M347.136 416.1536h15.36v-79.0528h-15.36c-21.9136 0-39.5264 17.6128-39.5264 39.5264 0 21.9136 17.6128 39.5264 39.5264 39.5264zM678.0928 416.1536h-15.36v-79.0528h15.36c21.9136 0 39.5264 17.6128 39.5264 39.5264 0 21.9136-17.8176 39.5264-39.5264 39.5264z" fill="#FFC5B3" p-id="16825"></path><path d="M362.496 426.3936h-15.36c-27.4432 0-49.7664-22.3232-49.7664-49.7664s22.3232-49.7664 49.7664-49.7664h15.36c5.7344 0 10.24 4.5056 10.24 10.24v79.0528c0 5.7344-4.7104 10.24-10.24 10.24z m-15.36-79.0528c-16.1792 0-29.2864 13.1072-29.2864 29.2864s13.1072 29.2864 29.2864 29.2864h5.12v-58.5728h-5.12zM678.0928 426.3936h-15.36c-5.7344 0-10.24-4.5056-10.24-10.24v-79.0528c0-5.7344 4.5056-10.24 10.24-10.24h15.36c27.4432 0 49.7664 22.3232 49.7664 49.7664s-22.3232 49.7664-49.7664 49.7664z m-5.12-20.48h5.12c16.1792 0 29.2864-13.1072 29.2864-29.2864s-13.1072-29.2864-29.2864-29.2864h-5.12v58.5728z" fill="#1C1D21" p-id="16826"></path><path d="M512 1024c-77.2096 0-151.552-16.7936-220.5696-49.9712-3.4816-1.6384-5.7344-5.3248-5.7344-9.216v-132.096c0-59.8016 30.3104-114.2784 81.3056-145.8176l58.5728-36.2496c20.2752-12.4928 32.3584-34.4064 32.3584-58.1632v-7.3728c0-9.0112-5.3248-17.2032-13.9264-21.2992-55.9104-26.2144-91.9552-83.1488-91.9552-144.7936v-69.4272c0-88.2688 71.68-159.9488 159.9488-159.9488 42.8032 0 82.944 16.5888 113.0496 46.8992 30.1056 30.1056 46.8992 70.4512 46.8992 113.0496v69.4272c0 61.6448-36.0448 118.5792-91.9552 144.7936-8.6016 4.096-13.9264 12.0832-13.9264 21.2992v7.3728c0 23.9616 12.0832 45.6704 32.3584 58.1632l58.5728 36.2496c50.9952 31.5392 81.3056 86.016 81.3056 145.8176v132.096c0 3.8912-2.2528 7.5776-5.7344 9.216C663.552 1007.2064 589.2096 1024 512 1024z m-206.0288-65.536c64.7168 29.9008 133.9392 45.056 206.0288 45.056s141.312-15.1552 206.0288-45.056v-125.5424c0-52.6336-26.8288-100.7616-71.68-128.4096L587.776 668.2624c-26.4192-16.384-42.1888-44.6464-42.1888-75.5712v-7.3728c0-16.7936 10.0352-32.5632 25.6-39.7312 48.7424-22.9376 80.0768-72.4992 80.0768-126.1568v-69.4272c0-37.2736-14.5408-72.2944-40.7552-98.5088s-61.44-40.7552-98.5088-40.7552c-76.8 0-139.4688 62.464-139.4688 139.4688v69.4272c0 53.8624 31.5392 103.424 80.0768 126.1568 15.5648 7.3728 25.6 22.9376 25.6 39.7312v7.3728c0 31.1296-15.7696 59.392-42.1888 75.5712L377.6512 704.512c-44.8512 27.648-71.68 75.776-71.68 128.4096V958.464z m422.2976 6.3488z" fill="#1C1D21" p-id="16827"></path><path d="M728.2688 832.9216c0-55.9104-28.8768-107.7248-76.3904-137.0112l-39.936-24.7808c-31.3344 10.8544-64.9216 16.7936-99.7376 16.7936-35.0208 0-68.608-5.9392-99.9424-16.7936l-39.936 24.7808c-47.5136 29.2864-76.3904 81.3056-76.3904 137.0112v132.096c65.536 31.3344 138.8544 48.9472 216.2688 48.9472s150.7328-17.6128 216.2688-48.9472v-132.096z" fill="#508DEF" p-id="16828"></path><path d="M512 1024c-77.2096 0-151.552-16.7936-220.5696-49.9712-3.4816-1.6384-5.7344-5.3248-5.7344-9.216v-132.096c0-59.8016 30.3104-114.2784 81.3056-145.8176l39.936-24.7808c2.6624-1.6384 5.7344-2.048 8.8064-1.024 30.9248 10.8544 63.488 16.1792 96.4608 16.1792s65.536-5.5296 96.4608-16.1792c2.8672-1.024 6.144-0.6144 8.8064 1.024l39.936 24.7808c50.9952 31.5392 81.3056 86.016 81.3056 145.8176v132.096c0 3.8912-2.2528 7.5776-5.7344 9.216C663.552 1007.2064 589.2096 1024 512 1024z m-206.0288-65.536c64.7168 29.9008 133.9392 45.056 206.0288 45.056 71.8848 0 141.312-15.1552 206.0288-45.056v-125.5424c0-52.6336-26.8288-100.7616-71.68-128.4096l-35.84-22.1184c-31.744 10.4448-64.9216 15.7696-98.5088 15.7696-33.792 0-66.7648-5.3248-98.5088-15.7696L377.6512 704.512c-44.8512 27.648-71.68 75.776-71.68 128.4096V958.464z m422.2976 6.3488z" fill="#1C1D21" p-id="16829"></path><path d="M386.6624 745.6768c-3.2768 0-6.3488-1.4336-8.3968-4.3008-3.2768-4.5056-2.2528-11.0592 2.2528-14.336 2.4576-1.8432 5.12-3.4816 7.7824-5.12 4.7104-2.8672 11.0592-1.4336 14.1312 3.2768s1.4336 11.0592-3.2768 14.1312c-2.2528 1.4336-4.5056 2.8672-6.5536 4.3008-1.8432 1.4336-3.8912 2.048-5.9392 2.048zM336.6912 948.6336c-5.7344 0-10.24-4.5056-10.24-10.24v-105.472c0-28.2624 8.8064-55.0912 25.6-77.6192 3.2768-4.5056 9.8304-5.5296 14.336-2.048 4.5056 3.2768 5.5296 9.8304 2.048 14.336-14.1312 18.8416-21.504 41.5744-21.504 65.536v105.472c0 5.3248-4.5056 10.0352-10.24 10.0352z" fill="#ABD1FF" p-id="16830"></path><path d="M362.9056 337.1008h63.8976c47.3088 0 85.8112-38.2976 85.8112-85.8112l-0.6144-51.2c-78.4384 0-142.5408 60.2112-149.0944 137.0112z" fill="#FF8939" p-id="16831"></path><path d="M512.6144 200.0896l-0.6144 51.2c0 47.3088 38.2976 85.8112 85.8112 85.8112h63.488c-6.7584-76.5952-70.656-136.6016-148.6848-137.0112z" fill="#FF8939" p-id="16832"></path><path d="M426.8032 347.3408h-63.8976c-2.8672 0-5.5296-1.2288-7.5776-3.2768s-2.8672-4.9152-2.6624-7.7824c3.2768-39.7312 21.504-76.5952 50.7904-103.8336 29.696-27.4432 68.1984-42.3936 108.544-42.3936 5.5296 0 10.24 4.5056 10.24 10.0352l0.6144 51.2c0 53.0432-43.008 96.0512-96.0512 96.0512z m-52.224-20.48h52.4288c41.5744 0 75.5712-33.792 75.5712-75.5712l-0.4096-40.5504c-63.8976 4.7104-117.1456 53.248-127.5904 116.1216z" fill="#1C1D21" p-id="16833"></path><path d="M661.0944 347.3408h-63.488c-52.8384 0-96.0512-43.008-96.0512-96.0512l0.6144-51.2c0-5.5296 4.7104-10.24 10.24-10.0352 40.1408 0.2048 78.6432 15.36 108.1344 42.5984 29.2864 27.2384 47.3088 63.8976 50.5856 103.6288 0.2048 2.8672-0.8192 5.7344-2.6624 7.7824s-4.5056 3.2768-7.3728 3.2768z m-138.4448-136.6016l-0.4096 40.5504c0 41.5744 33.792 75.3664 75.5712 75.3664h51.8144c-10.4448-63.2832-62.6688-111.0016-126.976-115.9168zM386.6624 1008.4352c-5.7344 0-10.24-4.5056-10.24-10.24v-67.9936c0-5.7344 4.5056-10.24 10.24-10.24s10.24 4.5056 10.24 10.24v67.9936c0 5.7344-4.7104 10.24-10.24 10.24zM386.6624 905.8304c-5.7344 0-10.24-4.5056-10.24-10.24v-6.144c0-5.7344 4.5056-10.24 10.24-10.24s10.24 4.5056 10.24 10.24v6.144c0 5.7344-4.7104 10.24-10.24 10.24z" fill="#1C1D21" p-id="16834"></path><path d="M596.3776 835.3792h-4.3008c-3.4816 0-6.3488-2.2528-7.168-5.5296-1.6384-6.144-4.096-11.8784-7.168-17.2032-1.6384-2.8672-1.024-6.5536 1.2288-8.8064l3.072-3.072c2.8672-2.8672 2.8672-7.5776 0-10.4448l-9.8304-9.8304c-2.8672-2.8672-7.5776-2.8672-10.4448 0l-3.072 3.072c-2.2528 2.2528-5.9392 2.8672-8.8064 1.2288-5.3248-3.072-11.0592-5.5296-17.2032-7.168-3.2768-0.8192-5.5296-3.8912-5.5296-7.168V765.952c0-4.096-3.2768-7.3728-7.3728-7.3728H505.856c-4.096 0-7.3728 3.2768-7.3728 7.3728v4.3008c0 3.4816-2.2528 6.3488-5.5296 7.168-6.144 1.6384-11.8784 4.096-17.2032 7.168-2.8672 1.6384-6.5536 1.024-8.8064-1.2288l-3.072-3.072c-2.8672-2.8672-7.5776-2.8672-10.4448 0l-9.8304 9.8304c-2.8672 2.8672-2.8672 7.5776 0 10.4448l3.072 3.072c2.2528 2.2528 2.8672 5.9392 1.2288 8.8064-3.072 5.3248-5.5296 11.0592-7.168 17.2032-0.8192 3.2768-3.8912 5.5296-7.168 5.5296h-4.3008c-4.096 0-7.3728 3.2768-7.3728 7.3728v13.9264c0 4.096 3.2768 7.3728 7.3728 7.3728h4.3008c3.4816 0 6.3488 2.2528 7.168 5.5296 1.6384 6.144 4.096 11.8784 7.168 17.2032 1.6384 2.8672 1.024 6.5536-1.2288 8.8064l-3.072 3.072c-2.8672 2.8672-2.8672 7.5776 0 10.4448l9.8304 9.8304c2.8672 2.8672 7.5776 2.8672 10.4448 0l3.072-3.072c2.2528-2.2528 5.9392-2.8672 8.8064-1.2288 5.3248 3.072 11.0592 5.5296 17.2032 7.168 3.2768 0.8192 5.5296 3.8912 5.5296 7.168v4.3008c0 4.096 3.2768 7.3728 7.3728 7.3728h13.9264c4.096 0 7.3728-3.2768 7.3728-7.3728v-4.3008c0-3.4816 2.2528-6.3488 5.5296-7.168 6.144-1.6384 11.8784-4.096 17.2032-7.168 2.8672-1.6384 6.5536-1.024 8.8064 1.2288l3.072 3.072c2.8672 2.8672 7.5776 2.8672 10.4448 0l9.8304-9.8304c2.8672-2.8672 2.8672-7.5776 0-10.4448l-3.072-3.072c-2.2528-2.2528-2.8672-5.9392-1.2288-8.8064 3.072-5.3248 5.5296-11.0592 7.168-17.2032 0.8192-3.2768 3.8912-5.5296 7.168-5.5296h4.3008c4.096 0 7.3728-3.2768 7.3728-7.3728v-13.9264c0.2048-3.8912-3.072-7.168-7.3728-7.168zM512.6144 888.832c-21.504 0-38.912-17.408-38.912-38.912s17.408-38.912 38.912-38.912 38.912 17.408 38.912 38.912-17.408 38.912-38.912 38.912z" fill="#E0E0E0" p-id="16835"></path><path d="M519.5776 951.296h-13.9264c-9.8304 0-17.6128-7.9872-17.6128-17.6128v-2.2528c-5.3248-1.6384-10.6496-3.8912-15.5648-6.5536l-1.4336 1.4336c-3.2768 3.2768-7.7824 5.12-12.4928 5.12s-9.216-1.8432-12.4928-5.12l-9.8304-9.8304c-3.2768-3.2768-5.12-7.7824-5.12-12.4928s1.8432-9.216 5.12-12.4928l1.4336-1.4336c-2.6624-4.9152-4.9152-10.24-6.5536-15.5648h-2.2528c-9.8304 0-17.6128-7.9872-17.6128-17.6128v-13.9264c0-9.8304 7.9872-17.6128 17.6128-17.6128h2.2528c1.6384-5.3248 3.8912-10.6496 6.5536-15.5648l-1.4336-1.4336c-3.2768-3.2768-5.12-7.7824-5.12-12.4928s1.8432-9.216 5.12-12.4928l9.8304-9.8304c3.2768-3.2768 7.7824-5.12 12.4928-5.12s9.216 1.8432 12.4928 5.12l1.4336 1.4336c4.9152-2.6624 10.24-4.9152 15.5648-6.5536V765.952c0-9.8304 7.9872-17.6128 17.6128-17.6128h13.9264c9.8304 0 17.6128 7.9872 17.6128 17.6128v2.2528c5.3248 1.6384 10.6496 3.8912 15.5648 6.5536l1.4336-1.4336c3.2768-3.2768 7.7824-5.12 12.4928-5.12s9.216 1.8432 12.4928 5.12l9.8304 9.8304c3.2768 3.2768 5.12 7.7824 5.12 12.4928s-1.8432 9.216-5.12 12.4928l-1.4336 1.4336c2.6624 4.9152 4.9152 10.24 6.5536 15.5648h2.2528c9.8304 0 17.6128 7.9872 17.6128 17.6128v13.9264c0 9.8304-7.9872 17.6128-17.6128 17.6128h-2.2528c-1.6384 5.3248-3.8912 10.6496-6.5536 15.5648l1.4336 1.4336c3.2768 3.2768 5.12 7.7824 5.12 12.4928s-1.8432 9.216-5.12 12.4928l-9.8304 9.8304c-3.2768 3.2768-7.7824 5.12-12.4928 5.12s-9.216-1.8432-12.4928-5.12l-1.4336-1.4336c-4.9152 2.6624-10.24 4.9152-15.5648 6.5536v2.2528c0 10.0352-7.7824 17.8176-17.6128 17.8176z m-11.264-20.48h8.3968v-1.4336c0-7.9872 5.3248-14.9504 13.1072-16.9984 5.12-1.4336 10.24-3.4816 14.7456-6.144 6.7584-3.8912 15.5648-2.6624 21.2992 2.8672l1.024 1.024 5.9392-5.9392-1.024-1.024c-5.5296-5.5296-6.7584-14.336-2.8672-21.0944 2.6624-4.7104 4.7104-9.6256 6.144-14.7456 2.048-7.7824 9.216-13.1072 16.9984-13.1072h1.4336V845.824h-1.4336c-7.9872 0-14.9504-5.3248-16.9984-13.1072-1.4336-5.12-3.4816-10.24-6.144-14.7456-3.8912-6.7584-2.6624-15.5648 2.8672-21.0944l1.024-1.024-5.9392-5.9392-1.024 1.024c-5.5296 5.5296-14.336 6.7584-21.0944 2.8672-4.7104-2.6624-9.6256-4.7104-14.7456-6.144-7.7824-2.048-13.1072-9.216-13.1072-16.9984v-1.4336h-8.3968v1.4336c0 7.9872-5.3248 14.9504-13.1072 16.9984-5.12 1.4336-10.24 3.4816-14.7456 6.144-6.7584 3.8912-15.5648 2.6624-21.2992-2.8672l-1.024-1.024-5.9392 5.9392 1.024 1.024c5.5296 5.5296 6.7584 14.336 2.8672 21.0944-2.6624 4.7104-4.7104 9.6256-6.144 14.9504-2.048 7.7824-9.216 13.1072-16.9984 13.1072h-1.4336v8.3968h1.4336c7.9872 0 14.9504 5.3248 16.9984 13.1072 1.4336 5.12 3.4816 10.24 6.144 14.7456 3.8912 6.7584 2.6624 15.5648-2.8672 21.0944l-1.024 1.024 5.9392 5.9392 1.024-1.024c5.5296-5.5296 14.336-6.7584 21.2992-2.8672 4.7104 2.6624 9.6256 4.7104 14.7456 6.144 7.7824 2.048 13.1072 9.216 13.1072 16.9984v1.2288z m88.064-85.1968z" fill="#1C1D21" p-id="16836"></path><path d="M512.6144 849.7152m-38.912 0a38.912 38.912 0 1 0 77.824 0 38.912 38.912 0 1 0-77.824 0Z" fill="#8CEEF9" p-id="16837"></path><path d="M512.6144 899.072c-27.0336 0-49.152-22.1184-49.152-49.152s22.1184-49.152 49.152-49.152 49.152 22.1184 49.152 49.152-22.1184 49.152-49.152 49.152z m0-78.0288c-15.7696 0-28.672 12.9024-28.672 28.672s12.9024 28.672 28.672 28.672 28.672-12.9024 28.672-28.672-12.9024-28.672-28.672-28.672z" fill="#1C1D21" p-id="16838"></path><path d="M889.0368 547.84H884.736c-3.4816 0-6.3488-2.2528-7.168-5.5296-1.6384-6.144-4.096-11.8784-7.168-17.2032-1.6384-2.8672-1.024-6.5536 1.2288-8.8064l3.072-3.072c2.8672-2.8672 2.8672-7.5776 0-10.4448l-9.8304-9.8304c-2.8672-2.8672-7.5776-2.8672-10.4448 0l-3.072 3.072c-2.2528 2.2528-5.9392 2.8672-8.8064 1.2288-5.3248-3.072-11.0592-5.5296-17.2032-7.168-3.2768-0.8192-5.5296-3.8912-5.5296-7.168v-4.3008c0-4.096-3.2768-7.3728-7.3728-7.3728h-13.9264c-4.096 0-7.3728 3.2768-7.3728 7.3728v4.3008c0 3.4816-2.2528 6.3488-5.5296 7.168-6.144 1.6384-11.8784 4.096-17.2032 7.168-2.8672 1.6384-6.5536 1.024-8.8064-1.2288l-3.072-3.072c-2.8672-2.8672-7.5776-2.8672-10.4448 0l-9.8304 9.8304c-2.8672 2.8672-2.8672 7.5776 0 10.4448l3.072 3.072c2.2528 2.2528 2.8672 5.9392 1.2288 8.8064-3.072 5.3248-5.5296 11.0592-7.168 17.2032-0.8192 3.2768-3.8912 5.5296-7.168 5.5296h-4.3008c-4.096 0-7.3728 3.2768-7.3728 7.3728v13.9264c0 4.096 3.2768 7.3728 7.3728 7.3728h4.3008c3.4816 0 6.3488 2.2528 7.168 5.5296 1.6384 6.144 4.096 11.8784 7.168 17.2032 1.6384 2.8672 1.024 6.5536-1.2288 8.8064l-3.072 3.072c-2.8672 2.8672-2.8672 7.5776 0 10.4448l9.8304 9.8304c2.8672 2.8672 7.5776 2.8672 10.4448 0l3.072-3.072c2.2528-2.2528 5.9392-2.8672 8.8064-1.2288 5.3248 3.072 11.0592 5.5296 17.2032 7.168 3.2768 0.8192 5.5296 3.8912 5.5296 7.168v4.3008c0 4.096 3.2768 7.3728 7.3728 7.3728h13.9264c4.096 0 7.3728-3.2768 7.3728-7.3728v-4.3008c0-3.4816 2.2528-6.3488 5.5296-7.168 6.144-1.6384 11.8784-4.096 17.2032-7.168 2.8672-1.6384 6.5536-1.024 8.8064 1.2288l3.072 3.072c2.8672 2.8672 7.5776 2.8672 10.4448 0l9.8304-9.8304c2.8672-2.8672 2.8672-7.5776 0-10.4448l-3.072-3.072c-2.2528-2.2528-2.8672-5.9392-1.2288-8.8064 3.072-5.3248 5.5296-11.0592 7.168-17.2032 0.8192-3.2768 3.8912-5.5296 7.168-5.5296h4.3008c4.096 0 7.3728-3.2768 7.3728-7.3728v-13.9264c0-3.8912-3.2768-7.3728-7.3728-7.3728z m-83.968 53.4528c-21.504 0-38.912-17.408-38.912-38.912s17.408-38.912 38.912-38.912 38.912 17.408 38.912 38.912c0.2048 21.504-17.408 38.912-38.912 38.912z" fill="#E0E0E0" p-id="16839"></path><path d="M812.2368 663.9616h-13.9264c-9.8304 0-17.6128-7.9872-17.6128-17.6128v-2.2528c-5.3248-1.6384-10.6496-3.8912-15.5648-6.5536l-1.4336 1.4336c-3.2768 3.2768-7.7824 5.12-12.4928 5.12s-9.216-1.8432-12.4928-5.12l-9.8304-9.8304c-6.9632-6.9632-6.9632-18.0224 0-24.9856l1.4336-1.4336c-2.6624-4.9152-4.9152-10.24-6.5536-15.5648h-2.2528c-9.8304 0-17.6128-7.9872-17.6128-17.6128v-13.9264c0-9.8304 7.9872-17.6128 17.6128-17.6128h2.2528c1.6384-5.3248 3.8912-10.6496 6.5536-15.5648l-1.4336-1.4336c-3.2768-3.2768-5.12-7.7824-5.12-12.4928s1.8432-9.216 5.12-12.4928l9.8304-9.8304c3.2768-3.2768 7.7824-5.12 12.4928-5.12s9.216 1.8432 12.4928 5.12l1.4336 1.4336c4.9152-2.6624 10.24-4.9152 15.5648-6.5536v-2.2528c0-9.8304 7.9872-17.6128 17.6128-17.6128h13.9264c9.8304 0 17.6128 7.9872 17.6128 17.6128v2.2528c5.3248 1.6384 10.6496 3.8912 15.5648 6.5536l1.4336-1.4336c3.2768-3.2768 7.7824-5.12 12.4928-5.12s9.216 1.8432 12.4928 5.12l9.8304 9.8304c3.2768 3.2768 5.12 7.7824 5.12 12.4928s-1.8432 9.216-5.12 12.4928l-1.4336 1.4336c2.6624 4.9152 4.9152 10.24 6.5536 15.5648h2.2528c9.8304 0 17.6128 7.9872 17.6128 17.6128v13.9264c0 9.8304-7.9872 17.6128-17.6128 17.6128H886.784c-1.6384 5.3248-3.8912 10.6496-6.5536 15.5648l1.4336 1.4336c6.9632 6.9632 6.9632 18.0224 0 24.9856l-9.8304 9.8304c-3.2768 3.2768-7.7824 5.12-12.4928 5.12s-9.216-1.8432-12.4928-5.12l-1.4336-1.4336c-4.9152 2.6624-10.24 4.9152-15.5648 6.5536v2.2528c0 9.6256-7.9872 17.6128-17.6128 17.6128z m-11.264-20.48h8.3968v-1.4336c0-7.9872 5.3248-14.9504 13.1072-16.9984 5.12-1.4336 10.24-3.4816 14.9504-6.144 6.7584-3.8912 15.5648-2.6624 21.0944 2.8672l1.024 1.024 5.9392-5.9392-1.024-1.024c-5.5296-5.5296-6.7584-14.336-2.8672-21.0944 2.6624-4.7104 4.7104-9.6256 6.144-14.9504 2.048-7.7824 9.216-13.1072 16.9984-13.1072h1.4336v-8.3968h-1.4336c-7.9872 0-14.9504-5.3248-16.9984-13.1072-1.4336-5.12-3.4816-10.24-6.144-14.9504-3.8912-6.7584-2.6624-15.5648 2.8672-21.0944l1.024-1.024-5.9392-5.9392-1.024 1.024c-5.5296 5.5296-14.336 6.7584-21.0944 2.8672-4.7104-2.6624-9.6256-4.7104-14.9504-6.144-7.7824-2.048-13.1072-9.216-13.1072-16.9984v-1.6384h-8.3968v1.4336c0 7.9872-5.3248 14.9504-13.1072 16.9984-5.12 1.4336-10.24 3.4816-14.7456 6.144-6.9632 3.8912-15.5648 2.6624-21.0944-2.8672l-1.024-1.024-5.9392 5.9392 1.024 1.024c5.5296 5.5296 6.7584 14.336 2.8672 21.0944-2.6624 4.7104-4.7104 9.6256-6.144 14.9504-2.048 7.7824-9.216 13.1072-16.9984 13.1072h-1.4336v8.3968h1.4336c7.9872 0 14.9504 5.3248 16.9984 13.1072 1.4336 5.12 3.4816 10.24 6.144 14.7456 3.8912 6.9632 2.6624 15.5648-2.8672 21.0944l-1.024 1.024 5.9392 5.9392 1.024-1.024c5.5296-5.5296 14.336-6.7584 21.0944-2.8672 4.7104 2.6624 9.6256 4.7104 14.7456 6.144 7.7824 2.048 13.1072 9.216 13.1072 16.9984v1.8432z m88.064-85.4016z" fill="#1C1D21" p-id="16840"></path><path d="M805.0688 562.3808m-38.912 0a38.912 38.912 0 1 0 77.824 0 38.912 38.912 0 1 0-77.824 0Z" fill="#8CEEF9" p-id="16841"></path><path d="M805.0688 611.5328c-27.0336 0-49.152-22.1184-49.152-49.152 0-27.2384 22.1184-49.152 49.152-49.152s49.152 22.1184 49.152 49.152c0.2048 27.0336-21.9136 49.152-49.152 49.152z m0-77.824c-15.7696 0-28.672 12.9024-28.672 28.672s12.9024 28.672 28.672 28.672 28.672-12.9024 28.672-28.672-12.6976-28.672-28.672-28.672z" fill="#1C1D21" p-id="16842"></path><path d="M302.6944 547.84h-4.3008c-3.4816 0-6.3488-2.2528-7.168-5.5296-1.6384-6.144-4.096-11.8784-7.168-17.2032-1.6384-2.8672-1.024-6.5536 1.2288-8.8064l3.072-3.072c2.8672-2.8672 2.8672-7.5776 0-10.4448l-9.8304-9.8304c-2.8672-2.8672-7.5776-2.8672-10.4448 0l-3.072 3.072c-2.2528 2.2528-5.9392 2.8672-8.8064 1.2288-5.3248-3.072-11.0592-5.5296-17.2032-7.168-3.2768-0.8192-5.5296-3.8912-5.5296-7.168v-4.3008c0-4.096-3.2768-7.3728-7.3728-7.3728h-13.9264c-4.096 0-7.3728 3.2768-7.3728 7.3728v4.3008c0 3.4816-2.2528 6.3488-5.5296 7.168-6.144 1.6384-11.8784 4.096-17.2032 7.168-2.8672 1.6384-6.5536 1.024-8.8064-1.2288l-3.072-3.072c-2.8672-2.8672-7.5776-2.8672-10.4448 0l-9.8304 9.8304c-2.8672 2.8672-2.8672 7.5776 0 10.4448l3.072 3.072c2.2528 2.2528 2.8672 5.9392 1.2288 8.8064-3.072 5.3248-5.5296 11.0592-7.168 17.2032-0.8192 3.2768-3.8912 5.5296-7.168 5.5296h-4.3008c-4.096 0-7.3728 3.2768-7.3728 7.3728v13.9264c0 4.096 3.2768 7.3728 7.3728 7.3728H139.264c3.4816 0 6.3488 2.2528 7.168 5.5296 1.6384 6.144 4.096 11.8784 7.168 17.2032 1.6384 2.8672 1.024 6.5536-1.2288 8.8064l-3.072 3.072c-2.8672 2.8672-2.8672 7.5776 0 10.4448l9.8304 9.8304c2.8672 2.8672 7.5776 2.8672 10.4448 0l3.072-3.072c2.2528-2.2528 5.9392-2.8672 8.8064-1.2288 5.3248 3.072 11.0592 5.5296 17.2032 7.168 3.2768 0.8192 5.5296 3.8912 5.5296 7.168v4.3008c0 4.096 3.2768 7.3728 7.3728 7.3728h13.9264c4.096 0 7.3728-3.2768 7.3728-7.3728v-4.3008c0-3.4816 2.2528-6.3488 5.5296-7.168 6.144-1.6384 11.8784-4.096 17.2032-7.168 2.8672-1.6384 6.5536-1.024 8.8064 1.2288l3.072 3.072c2.8672 2.8672 7.5776 2.8672 10.4448 0l9.8304-9.8304c2.8672-2.8672 2.8672-7.5776 0-10.4448l-3.072-3.072c-2.2528-2.2528-2.8672-5.9392-1.2288-8.8064 3.072-5.3248 5.5296-11.0592 7.168-17.2032 0.8192-3.2768 3.8912-5.5296 7.168-5.5296h4.3008c4.096 0 7.3728-3.2768 7.3728-7.3728v-13.9264c0.8192-3.8912-2.6624-7.3728-6.7584-7.3728z m-83.7632 53.4528c-21.504 0-38.912-17.408-38.912-38.912s17.408-38.912 38.912-38.912 38.912 17.408 38.912 38.912-17.408 38.912-38.912 38.912z" fill="#E0E0E0" p-id="16843"></path><path d="M225.8944 663.9616h-13.9264c-9.8304 0-17.6128-7.9872-17.6128-17.6128v-2.2528c-5.3248-1.6384-10.6496-3.8912-15.5648-6.5536l-1.4336 1.4336c-3.2768 3.2768-7.7824 5.12-12.4928 5.12s-9.216-1.8432-12.4928-5.12l-9.8304-9.8304c-6.9632-6.9632-6.9632-18.0224 0-24.9856l1.4336-1.4336c-2.6624-4.9152-4.9152-10.24-6.5536-15.5648H135.168c-9.8304 0-17.6128-7.9872-17.6128-17.6128v-13.9264c0-9.8304 7.9872-17.6128 17.6128-17.6128h2.048c1.6384-5.3248 3.8912-10.6496 6.5536-15.5648l-1.4336-1.4336c-3.2768-3.2768-5.12-7.7824-5.12-12.4928s1.8432-9.216 5.12-12.4928l9.8304-9.8304c3.2768-3.2768 7.7824-5.12 12.4928-5.12s9.216 1.8432 12.4928 5.12l1.4336 1.4336c4.9152-2.6624 10.24-4.9152 15.5648-6.5536v-2.2528c0-9.8304 7.9872-17.6128 17.6128-17.6128h13.9264c9.8304 0 17.6128 7.9872 17.6128 17.6128v2.2528c5.3248 1.6384 10.6496 3.8912 15.5648 6.5536l1.4336-1.4336c3.2768-3.2768 7.7824-5.12 12.4928-5.12s9.216 1.8432 12.4928 5.12l9.8304 9.8304c3.2768 3.2768 5.12 7.7824 5.12 12.4928s-1.8432 9.216-5.12 12.4928l-1.4336 1.4336c2.6624 4.9152 4.9152 10.24 6.5536 15.5648h2.2528c9.8304 0 17.6128 7.9872 17.6128 17.6128v13.9264c0 9.8304-7.9872 17.6128-17.6128 17.6128h-2.2528c-1.6384 5.3248-3.8912 10.6496-6.5536 15.5648l1.4336 1.4336c6.9632 6.9632 6.9632 18.0224 0 24.9856l-9.8304 9.8304c-3.2768 3.2768-7.7824 5.12-12.4928 5.12s-9.216-1.8432-12.4928-5.12l-1.4336-1.4336c-4.9152 2.6624-10.24 4.9152-15.5648 6.5536v2.2528c0.2048 9.6256-7.7824 17.6128-17.408 17.6128z m-11.264-20.48h8.3968v-1.4336c0-7.9872 5.3248-14.9504 13.1072-16.9984 5.12-1.4336 10.24-3.4816 14.9504-6.144 6.7584-3.8912 15.5648-2.6624 21.0944 2.8672l1.024 1.024 5.9392-5.9392-1.024-1.024c-5.5296-5.5296-6.7584-14.336-2.8672-21.0944 2.6624-4.7104 4.7104-9.6256 6.144-14.7456 2.048-7.7824 9.216-13.1072 16.9984-13.1072h1.4336v-8.3968h-1.4336c-7.9872 0-14.9504-5.3248-16.9984-13.1072-1.4336-5.12-3.4816-10.24-6.144-14.7456-3.8912-6.7584-2.6624-15.5648 2.8672-21.0944l1.024-1.024-5.9392-5.9392-1.024 1.024c-5.5296 5.5296-14.336 6.7584-21.0944 2.8672-4.7104-2.6624-9.6256-4.7104-14.9504-6.144-7.7824-2.048-13.1072-9.216-13.1072-16.9984v-2.048h-8.3968v1.4336c0 7.9872-5.3248 14.9504-13.1072 16.9984-5.12 1.4336-10.24 3.4816-14.7456 6.144-6.7584 3.8912-15.5648 2.6624-21.0944-2.8672l-1.024-1.024-5.9392 5.9392 1.024 1.024c5.5296 5.5296 6.7584 14.336 2.8672 21.0944-2.6624 4.7104-4.7104 9.6256-6.144 14.9504-2.048 7.7824-9.216 13.1072-16.9984 13.1072h-1.4336v8.3968h1.2288c7.9872 0 14.9504 5.3248 16.9984 13.1072 1.4336 5.12 3.4816 10.24 6.144 14.7456 3.8912 6.9632 2.6624 15.5648-2.8672 21.2992l-1.024 1.024 5.9392 5.9392 1.024-1.024c5.5296-5.5296 14.336-6.7584 21.2992-2.8672 4.7104 2.6624 9.6256 4.7104 14.7456 6.144 7.7824 2.048 13.1072 9.216 13.1072 16.9984v1.6384z m88.064-85.4016z" fill="#1C1D21" p-id="16844"></path><path d="M218.9312 562.3808m-38.912 0a38.912 38.912 0 1 0 77.824 0 38.912 38.912 0 1 0-77.824 0Z" fill="#8CEEF9" p-id="16845"></path><path d="M218.9312 611.5328c-27.0336 0-49.152-22.1184-49.152-49.152 0-27.2384 22.1184-49.152 49.152-49.152s49.152 22.1184 49.152 49.152-22.1184 49.152-49.152 49.152z m0-77.824c-15.7696 0-28.672 12.9024-28.672 28.672s12.9024 28.672 28.672 28.672 28.672-12.9024 28.672-28.672-12.9024-28.672-28.672-28.672zM637.5424 1008.4352c-5.7344 0-10.24-4.5056-10.24-10.24v-67.9936c0-5.7344 4.5056-10.24 10.24-10.24s10.24 4.5056 10.24 10.24v67.9936c0 5.7344-4.7104 10.24-10.24 10.24zM637.5424 905.8304c-5.7344 0-10.24-4.5056-10.24-10.24v-6.144c0-5.7344 4.5056-10.24 10.24-10.24s10.24 4.5056 10.24 10.24v6.144c0 5.7344-4.7104 10.24-10.24 10.24zM512.6144 527.9744c-19.0464 0-36.864-10.24-46.4896-26.8288-2.8672-4.9152-1.2288-11.0592 3.6864-13.9264 4.9152-2.8672 11.0592-1.2288 13.9264 3.6864 5.9392 10.24 16.9984 16.5888 28.672 16.5888s22.7328-6.3488 28.672-16.5888c2.8672-4.9152 9.0112-6.5536 13.9264-3.6864s6.5536 9.0112 3.6864 13.9264c-9.216 16.5888-27.0336 26.8288-46.08 26.8288z" fill="#1C1D21" p-id="16846"></path><path d="M512 161.3824m-97.8944 0a97.8944 97.8944 0 1 0 195.7888 0 97.8944 97.8944 0 1 0-195.7888 0Z" fill="#0ABFB2" p-id="16847"></path><path d="M512 269.5168c-59.5968 0-108.1344-48.5376-108.1344-108.1344 0-59.5968 48.5376-108.1344 108.1344-108.1344s108.1344 48.5376 108.1344 108.1344c0 59.5968-48.5376 108.1344-108.1344 108.1344z m0-195.7888c-48.3328 0-87.6544 39.3216-87.6544 87.6544s39.3216 87.6544 87.6544 87.6544 87.6544-39.3216 87.6544-87.6544S560.3328 73.728 512 73.728z" fill="#1C1D21" p-id="16848"></path><path d="M549.6832 141.5168h-20.0704v-20.0704c0-9.6256-7.7824-17.6128-17.6128-17.6128-9.6256 0-17.6128 7.7824-17.6128 17.6128v20.0704h-20.0704c-9.6256 0-17.6128 7.7824-17.6128 17.6128 0 9.6256 7.7824 17.6128 17.6128 17.6128h20.0704v20.0704c0 9.6256 7.7824 17.6128 17.6128 17.6128 9.6256 0 17.6128-7.7824 17.6128-17.6128v-20.0704h20.0704c9.6256 0 17.6128-7.7824 17.6128-17.6128s-7.7824-17.6128-17.6128-17.6128z" fill="#8CEEF9" p-id="16849"></path><path d="M512 224.6656c-15.36 0-27.8528-12.4928-27.8528-27.8528v-9.8304h-9.8304c-15.36 0-27.8528-12.4928-27.8528-27.8528s12.4928-27.8528 27.8528-27.8528h9.8304v-9.8304c0-15.36 12.4928-27.8528 27.8528-27.8528s27.8528 12.4928 27.8528 27.8528v9.8304h9.8304c15.36 0 27.8528 12.4928 27.8528 27.8528s-12.4928 27.8528-27.8528 27.8528h-9.8304v9.8304c0 15.36-12.4928 27.8528-27.8528 27.8528z m-37.6832-72.9088c-4.096 0-7.3728 3.2768-7.3728 7.3728s3.2768 7.3728 7.3728 7.3728h20.0704c5.7344 0 10.24 4.5056 10.24 10.24v20.0704c0 4.096 3.2768 7.3728 7.3728 7.3728s7.3728-3.2768 7.3728-7.3728v-20.0704c0-5.7344 4.5056-10.24 10.24-10.24h20.0704c4.096 0 7.3728-3.2768 7.3728-7.3728s-3.2768-7.3728-7.3728-7.3728h-20.0704c-5.7344 0-10.24-4.5056-10.24-10.24v-20.0704c0-4.096-3.2768-7.3728-7.3728-7.3728s-7.3728 3.2768-7.3728 7.3728v20.0704c0 5.7344-4.5056 10.24-10.24 10.24h-20.0704z" fill="#1C1D21" p-id="16850"></path></svg>