<svg xmlns="http://www.w3.org/2000/svg" viewBox="0 0 1024 1024" version="1.1"><path d="M512 512m-501.76 0a501.76 501.76 0 1 0 1003.52 0 501.76 501.76 0 1 0-1003.52 0Z" fill="#8CEEF9" p-id="12159"></path><path d="M148.48 857.7024c83.3536 87.6544 198.2464 145.2032 326.4512 154.624h74.5472c128.2048-9.4208 242.8928-66.9696 326.4512-154.624H148.48z" fill="#C67552" p-id="12160"></path><path d="M512 1024c-136.8064 0-265.4208-53.248-362.0864-149.9136C53.248 777.4208 0 648.8064 0 512S53.248 246.5792 149.9136 149.9136C246.5792 53.248 375.1936 0 512 0s265.4208 53.248 362.0864 149.9136C970.752 246.5792 1024 375.1936 1024 512s-53.248 265.4208-149.9136 362.0864C777.4208 970.752 648.8064 1024 512 1024z m0-1003.52C241.0496 20.48 20.48 241.0496 20.48 512s220.5696 491.52 491.52 491.52 491.52-220.5696 491.52-491.52S782.9504 20.48 512 20.48z" fill="#1C1D21" p-id="12161"></path><path d="M514.048 330.5472m-126.3616 0a126.3616 126.3616 0 1 0 252.7232 0 126.3616 126.3616 0 1 0-252.7232 0Z" fill="#D66112" p-id="12162"></path><path d="M447.2832 390.144c0-69.8368 56.5248-126.3616 126.3616-126.3616 19.456 0 37.888 4.5056 54.4768 12.288-20.2752-42.3936-63.6928-71.8848-114.0736-71.8848-69.8368 0-126.3616 56.5248-126.3616 126.3616 0 50.176 29.2864 93.5936 71.8848 114.0736-7.9872-16.5888-12.288-35.0208-12.288-54.4768z" fill="#FF8939" p-id="12163"></path><path d="M514.048 467.1488c-75.3664 0-136.6016-61.2352-136.6016-136.6016s61.2352-136.6016 136.6016-136.6016 136.6016 61.2352 136.6016 136.6016-61.44 136.6016-136.6016 136.6016z m0-252.5184c-64.1024 0-116.1216 52.0192-116.1216 116.1216s52.0192 116.1216 116.1216 116.1216 116.1216-52.0192 116.1216-116.1216-52.224-116.1216-116.1216-116.1216z" fill="#1C1D21" p-id="12164"></path><path d="M521.8304 319.0784h-15.7696c-0.8192 0-1.4336-0.6144-1.4336-1.4336v-18.2272c0-0.8192 0.6144-1.4336 1.4336-1.4336h28.672c6.3488 0 11.4688-5.12 11.4688-11.4688 0-6.3488-5.12-11.4688-11.4688-11.4688h-9.8304v-19.8656c0-4.9152-3.8912-8.8064-8.8064-8.8064s-8.8064 3.8912-8.8064 8.8064v19.8656h-1.4336c-13.5168 0-24.576 11.0592-24.576 24.576v18.2272c0 13.5168 11.0592 24.576 24.576 24.576h15.7696c0.8192 0 1.4336 0.6144 1.4336 1.4336v18.2272c0 0.8192-0.6144 1.4336-1.4336 1.4336h-28.672c-6.3488 0-11.4688 5.12-11.4688 11.4688 0 6.3488 5.12 11.4688 11.4688 11.4688h14.5408v19.8656c0 4.9152 3.8912 8.8064 8.8064 8.8064s8.8064-3.8912 8.8064-8.8064v-20.0704c12.0832-1.6384 21.2992-11.8784 21.2992-24.3712v-18.2272c0-13.5168-11.0592-24.576-24.576-24.576z" fill="#FFF0CC" p-id="12165"></path><path d="M400.9984 669.2864h222.208v193.536H400.9984z" fill="#AAADAD" p-id="12166"></path><path d="M450.7648 734.0032c-5.7344 0-10.24-4.5056-10.24-10.24v-4.7104c0-5.7344 4.5056-10.24 10.24-10.24s10.24 4.5056 10.24 10.24v4.7104c0 5.7344-4.5056 10.24-10.24 10.24zM450.7648 840.0896c-5.7344 0-10.24-4.5056-10.24-10.24v-61.0304c0-5.7344 4.5056-10.24 10.24-10.24s10.24 4.5056 10.24 10.24v61.0304c0 5.7344-4.5056 10.24-10.24 10.24z" fill="#E0E0E0" p-id="12167"></path><path d="M623.0016 866.9184c-5.7344 0-10.24-4.5056-10.24-10.24V765.952c0-5.7344 4.5056-10.24 10.24-10.24s10.24 4.5056 10.24 10.24v90.7264c0 5.7344-4.5056 10.24-10.24 10.24zM400.9984 867.328c-5.5296 0-10.24-4.5056-10.24-10.24-0.4096-63.0784-0.4096-126.3616-0.4096-187.5968 0-5.7344 4.5056-10.24 10.24-10.24h221.7984c5.7344 0 10.24 4.5056 10.24 10.24s-4.5056 10.24-10.24 10.24H410.8288c0 58.1632 0 117.9648 0.4096 177.3568 0 5.5296-4.5056 10.24-10.24 10.24z" fill="#1C1D21" p-id="12168"></path><path d="M638.976 669.2864H385.024c-10.4448 0-18.6368-8.3968-18.6368-18.6368v-8.192c0-10.4448 8.3968-18.6368 18.6368-18.6368h253.952c10.4448 0 18.6368 8.3968 18.6368 18.6368v8.192c0 10.24-8.3968 18.6368-18.6368 18.6368z" fill="#AAADAD" p-id="12169"></path><path d="M638.976 679.5264H385.024c-15.9744 0-28.8768-12.9024-28.8768-28.8768v-8.192c0-15.9744 12.9024-28.8768 28.8768-28.8768h253.952c15.9744 0 28.8768 12.9024 28.8768 28.8768v8.192c0 15.7696-12.9024 28.8768-28.8768 28.8768z m-253.952-45.6704c-4.7104 0-8.3968 3.8912-8.3968 8.3968v8.192c0 4.7104 3.8912 8.3968 8.3968 8.3968h253.952c4.7104 0 8.3968-3.8912 8.3968-8.3968v-8.192c0-4.7104-3.8912-8.3968-8.3968-8.3968H385.024z" fill="#1C1D21" p-id="12170"></path><path d="M439.7056 496.2304c-5.3248 19.6608-0.2048 41.5744 15.36 57.1392 15.36 15.36 37.2736 20.48 57.1392 15.36 5.3248-19.6608 0.2048-41.5744-15.36-57.1392-15.5648-15.5648-37.4784-20.6848-57.1392-15.36z" fill="#0ABFB2" p-id="12171"></path><path d="M496.8448 580.8128c-18.2272 0-36.0448-7.168-49.152-20.2752-17.408-17.408-24.3712-43.008-18.0224-66.9696 1.024-3.4816 3.6864-6.3488 7.168-7.168 23.7568-6.3488 49.5616 0.4096 66.9696 18.0224 17.408 17.408 24.3712 43.008 18.0224 66.9696-1.024 3.4816-3.6864 6.3488-7.168 7.168-5.9392 1.4336-11.8784 2.2528-17.8176 2.2528z m-48.5376-75.9808c-2.048 14.9504 3.072 30.3104 13.9264 41.1648 10.8544 10.8544 26.2144 15.7696 41.1648 13.9264 2.048-14.9504-3.072-30.3104-13.9264-41.1648-10.8544-10.8544-26.2144-15.9744-41.1648-13.9264z" fill="#1C1D21" p-id="12172"></path><path d="M588.3904 496.2304c5.3248 19.6608 0.2048 41.5744-15.36 57.1392-15.36 15.36-37.2736 20.48-57.1392 15.36-5.3248-19.6608-0.2048-41.5744 15.36-57.1392 15.5648-15.5648 37.2736-20.6848 57.1392-15.36z" fill="#0ABFB2" p-id="12173"></path><path d="M531.2512 580.8128c-5.9392 0-11.8784-0.8192-17.8176-2.2528-3.4816-1.024-6.3488-3.6864-7.168-7.168-6.3488-23.7568 0.4096-49.5616 18.0224-66.9696 17.408-17.408 43.008-24.3712 66.9696-18.0224 3.4816 1.024 6.3488 3.6864 7.168 7.168 6.3488 23.7568-0.4096 49.5616-18.0224 66.9696-13.312 13.1072-31.1296 20.2752-49.152 20.2752z m-6.5536-20.8896c14.9504 2.048 30.3104-3.072 41.1648-13.9264 10.8544-10.8544 15.7696-26.2144 13.9264-41.1648-14.9504-2.048-30.3104 3.072-41.1648 13.9264-10.8544 10.8544-15.9744 26.0096-13.9264 41.1648z" fill="#1C1D21" p-id="12174"></path><path d="M514.2528 633.856c-5.7344 0-10.24-4.5056-10.24-10.24v-161.3824c0-5.7344 4.5056-10.24 10.24-10.24s10.24 4.5056 10.24 10.24v161.3824c0 5.7344-4.5056 10.24-10.24 10.24z" fill="#1C1D21" p-id="12175"></path><path d="M622.3872 722.5344c-5.7344 0-10.24-4.5056-10.24-10.24v-42.8032c0-5.7344 4.5056-10.24 10.24-10.24s10.24 4.5056 10.24 10.24v42.8032c0 5.7344-4.5056 10.24-10.24 10.24z" fill="#1C1D21" p-id="12176"></path><path d="M549.2736 1022.5664h-75.3664c-126.7712-9.216-245.1456-65.3312-333.0048-157.696-2.8672-2.8672-3.6864-7.3728-2.048-11.0592 1.6384-3.6864 5.3248-6.144 9.4208-6.144h727.2448c4.096 0 7.7824 2.4576 9.4208 6.144 1.6384 3.6864 0.8192 8.192-2.048 11.0592-87.8592 92.3648-206.2336 148.48-333.0048 157.696h-0.6144z m-74.1376-20.48h73.728c113.4592-8.3968 219.7504-55.7056 302.08-134.144h-677.888c82.3296 78.4384 188.6208 125.7472 302.08 134.144z" fill="#1C1D21" p-id="12177"></path></svg>