<svg xmlns="http://www.w3.org/2000/svg" viewBox="0 0 1024 1024" version="1.1"><path d="M512 512m-501.76 0a501.76 501.76 0 1 0 1003.52 0 501.76 501.76 0 1 0-1003.52 0Z" fill="#8CEEF9" p-id="15622"></path><path d="M512 595.3536l-36.2496 94.0032c-5.5296 14.336-2.048 30.5152 9.0112 41.1648l0.6144 0.6144c14.7456 14.336 38.2976 14.336 53.248 0l0.6144-0.6144c11.0592-10.6496 14.5408-26.8288 9.0112-41.1648-13.1072-34.4064-36.2496-94.0032-36.2496-94.0032z" fill="#508DEF" p-id="15623"></path><path d="M734.208 535.1424c-14.5408 0-26.4192 11.8784-26.4192 26.4192v156.672h53.0432v-156.672c-0.2048-14.5408-12.0832-26.4192-26.624-26.4192z" fill="#FFC5B3" p-id="15624"></path><path d="M681.3696 535.1424c-14.5408 0-26.4192 11.8784-26.4192 26.4192v198.4512l53.0432-4.3008v-194.1504c-0.2048-14.5408-11.8784-26.4192-26.624-26.4192z" fill="#FFC5B3" p-id="15625"></path><path d="M760.6272 728.4736h-53.0432c-5.7344 0-10.24-4.5056-10.24-10.24v-156.672c0-20.2752 16.384-36.6592 36.6592-36.6592 20.2752 0 36.6592 16.384 36.6592 36.6592v156.672c0.2048 5.7344-4.3008 10.24-10.0352 10.24z m-42.5984-20.48h32.5632v-146.432c0-9.0112-7.3728-16.1792-16.1792-16.1792s-16.1792 7.3728-16.1792 16.1792v146.432z" fill="#1C1D21" p-id="15626"></path><path d="M654.9504 770.2528c-2.6624 0-5.12-1.024-6.9632-2.6624-2.048-1.8432-3.2768-4.7104-3.2768-7.5776v-198.4512c0-20.2752 16.384-36.6592 36.6592-36.6592 20.2752 0 36.6592 16.384 36.6592 36.6592V755.712c0 5.3248-4.096 9.8304-9.4208 10.24l-53.0432 4.3008h-0.6144z m52.8384-14.5408z m-26.4192-210.3296c-9.0112 0-16.1792 7.3728-16.1792 16.1792v187.392l32.5632-2.6624v-184.7296c-0.2048-9.0112-7.3728-16.1792-16.384-16.1792z" fill="#1C1D21" p-id="15627"></path><path d="M316.2112 718.2336v-156.672c0-14.5408-11.8784-26.4192-26.4192-26.4192-14.5408 0-26.4192 11.8784-26.4192 26.4192v156.672h52.8384zM316.2112 760.0128v-198.4512c0-14.5408 11.8784-26.4192 26.4192-26.4192 14.5408 0 26.4192 11.8784 26.4192 26.4192v198.4512h-52.8384z" fill="#FFC5B3" p-id="15628"></path><path d="M316.2112 728.4736h-53.0432c-5.7344 0-10.24-4.5056-10.24-10.24v-156.672c0-20.2752 16.384-36.6592 36.6592-36.6592 20.2752 0 36.6592 16.384 36.6592 36.6592v156.672c0.2048 5.7344-4.3008 10.24-10.0352 10.24z m-42.5984-20.48h32.5632v-146.432c0-9.0112-7.3728-16.1792-16.1792-16.1792s-16.1792 7.3728-16.1792 16.1792v146.432z" fill="#1C1D21" p-id="15629"></path><path d="M369.0496 770.2528h-53.0432c-5.7344 0-10.24-4.5056-10.24-10.24v-198.4512c0-20.2752 16.384-36.6592 36.6592-36.6592 20.2752 0 36.6592 16.384 36.6592 36.6592v198.4512c0.2048 5.7344-4.3008 10.24-10.0352 10.24z m-42.5984-20.48h32.5632v-188.2112c0-9.0112-7.3728-16.1792-16.1792-16.1792s-16.1792 7.3728-16.1792 16.1792v188.2112z" fill="#1C1D21" p-id="15630"></path><path d="M512 1024c-136.8064 0-265.4208-53.248-362.0864-149.9136C53.248 777.4208 0 648.8064 0 512S53.248 246.5792 149.9136 149.9136C246.5792 53.248 375.1936 0 512 0s265.4208 53.248 362.0864 149.9136C970.752 246.5792 1024 375.1936 1024 512s-53.248 265.4208-149.9136 362.0864C777.4208 970.752 648.8064 1024 512 1024z m0-1003.52C241.0496 20.48 20.48 241.0496 20.48 512s220.5696 491.52 491.52 491.52 491.52-220.5696 491.52-491.52S782.9504 20.48 512 20.48z" fill="#1C1D21" p-id="15631"></path><path d="M168.5504 877.7728C258.2528 962.1504 379.0848 1013.76 512 1013.76s253.7472-51.6096 343.4496-135.9872c-102.1952-38.0928-219.136-59.8016-343.4496-59.8016S270.7456 839.68 168.5504 877.7728z" fill="#C67552" p-id="15632"></path><path d="M512 1024c-130.6624 0-255.1808-49.3568-350.4128-138.8544-2.6624-2.4576-3.6864-5.9392-3.072-9.4208 0.6144-3.4816 3.072-6.3488 6.5536-7.5776 105.8816-39.5264 225.8944-60.416 346.9312-60.416 121.0368 0 241.0496 20.8896 346.9312 60.416 3.2768 1.2288 5.7344 4.096 6.5536 7.5776 0.6144 3.4816-0.4096 6.9632-3.072 9.4208C767.1808 974.6432 642.6624 1024 512 1024zM188.0064 881.664C277.7088 960.3072 392.192 1003.52 512 1003.52s234.2912-43.2128 323.9936-121.856c-99.7376-35.0208-211.3536-53.248-323.9936-53.248-112.64-0.2048-224.256 18.2272-323.9936 53.248z" fill="#1C1D21" p-id="15633"></path><path d="M512 84.1728c-32.3584 16.384-54.272 46.8992-54.272 81.7152 0 35.0208 21.9136 65.536 54.272 81.7152 32.3584-16.384 54.272-46.8992 54.272-81.7152S544.3584 100.5568 512 84.1728z" fill="#0ABFB2" p-id="15634"></path><path d="M512 258.048c-1.6384 0-3.072-0.4096-4.5056-1.024-36.864-18.6368-60.0064-53.4528-60.0064-90.9312 0-37.4784 22.9376-72.2944 60.0064-90.9312 2.8672-1.4336 6.3488-1.4336 9.216 0 36.864 18.6368 60.0064 53.4528 60.0064 90.9312 0 37.4784-22.9376 72.2944-60.0064 90.9312-1.6384 0.6144-3.072 1.024-4.7104 1.024z m0-162.2016c-27.2384 15.5648-44.032 41.984-44.032 70.2464s16.7936 54.6816 44.032 70.2464c27.2384-15.5648 44.032-41.984 44.032-70.2464s-16.7936-54.6816-44.032-70.2464z" fill="#1C1D21" p-id="15635"></path><path d="M512 320.512c-5.7344 0-10.24-4.5056-10.24-10.24V84.1728c0-5.7344 4.5056-10.24 10.24-10.24s10.24 4.5056 10.24 10.24v226.0992c0 5.7344-4.5056 10.24-10.24 10.24z" fill="#1C1D21" p-id="15636"></path><path d="M512 192.7168c-2.6624 0-5.3248-1.024-7.3728-3.072l-47.104-47.5136c-3.8912-4.096-3.8912-10.4448 0-14.5408 4.096-3.8912 10.4448-3.8912 14.5408 0l47.104 47.5136c3.8912 4.096 3.8912 10.4448 0 14.5408-2.048 2.2528-4.5056 3.072-7.168 3.072z" fill="#1C1D21" p-id="15637"></path><path d="M512 192.7168c-2.6624 0-5.12-1.024-7.168-2.8672-4.096-3.8912-4.096-10.4448 0-14.5408l47.104-47.5136c3.8912-4.096 10.4448-4.096 14.5408 0 4.096 3.8912 4.096 10.4448 0 14.5408l-47.104 47.5136c-2.048 1.8432-4.7104 2.8672-7.3728 2.8672z" fill="#1C1D21" p-id="15638"></path><path d="M139.264 426.5984c16.384 32.3584 46.8992 54.272 81.7152 54.272 35.0208 0 65.536-21.9136 81.7152-54.272-16.384-32.3584-46.8992-54.272-81.7152-54.272S155.648 394.24 139.264 426.5984z" fill="#0ABFB2" p-id="15639"></path><path d="M221.184 491.1104c-37.4784 0-72.2944-22.9376-90.9312-60.0064-1.4336-2.8672-1.4336-6.3488 0-9.216 18.6368-36.864 53.4528-60.0064 90.9312-60.0064s72.2944 22.9376 90.9312 60.0064c1.4336 2.8672 1.4336 6.3488 0 9.216-18.6368 37.0688-53.4528 60.0064-90.9312 60.0064z m-70.2464-64.512c15.5648 27.2384 41.984 44.032 70.2464 44.032s54.6816-16.7936 70.2464-44.032c-15.5648-27.2384-41.984-44.032-70.2464-44.032-28.2624 0-54.6816 16.7936-70.2464 44.032z" fill="#1C1D21" p-id="15640"></path><path d="M365.3632 436.8384H139.264c-5.7344 0-10.24-4.5056-10.24-10.24s4.5056-10.24 10.24-10.24h226.0992c5.7344 0 10.24 4.5056 10.24 10.24s-4.5056 10.24-10.24 10.24z" fill="#1C1D21" p-id="15641"></path><path d="M190.0544 483.9424c-2.6624 0-5.3248-1.024-7.3728-3.072-3.8912-4.096-3.8912-10.4448 0-14.5408l47.5136-47.104c4.096-3.8912 10.4448-3.8912 14.5408 0 3.8912 4.096 3.8912 10.4448 0 14.5408l-47.5136 47.104c-1.8432 2.2528-4.5056 3.072-7.168 3.072z" fill="#1C1D21" p-id="15642"></path><path d="M237.568 436.8384c-2.6624 0-5.12-1.024-7.168-2.8672l-47.5136-47.104c-4.096-3.8912-4.096-10.4448 0-14.5408 3.8912-4.096 10.4448-4.096 14.5408 0l47.5136 47.104c4.096 3.8912 4.096 10.4448 0 14.5408-2.048 1.8432-4.7104 2.8672-7.3728 2.8672z" fill="#1C1D21" p-id="15643"></path><path d="M884.736 426.5984c-16.384 32.3584-46.8992 54.272-81.7152 54.272-35.0208 0-65.536-21.9136-81.7152-54.272 16.384-32.3584 46.8992-54.272 81.7152-54.272s65.3312 21.9136 81.7152 54.272z" fill="#0ABFB2" p-id="15644"></path><path d="M802.816 491.1104c-37.4784 0-72.2944-22.9376-90.9312-60.0064-1.4336-2.8672-1.4336-6.3488 0-9.216 18.6368-36.864 53.4528-60.0064 90.9312-60.0064s72.2944 22.9376 90.9312 60.0064c1.4336 2.8672 1.4336 6.3488 0 9.216-18.432 37.0688-53.4528 60.0064-90.9312 60.0064z m-70.0416-64.512c15.5648 27.2384 41.984 44.032 70.2464 44.032s54.6816-16.7936 70.2464-44.032c-15.5648-27.2384-41.984-44.032-70.2464-44.032-28.2624 0-54.6816 16.7936-70.2464 44.032z" fill="#1C1D21" p-id="15645"></path><path d="M884.736 436.8384H658.6368c-5.7344 0-10.24-4.5056-10.24-10.24s4.5056-10.24 10.24-10.24H884.736c5.7344 0 10.24 4.5056 10.24 10.24s-4.7104 10.24-10.24 10.24z" fill="#1C1D21" p-id="15646"></path><path d="M833.9456 483.9424c-2.6624 0-5.12-1.024-7.168-2.8672l-47.5136-47.104c-4.096-3.8912-4.096-10.4448 0-14.5408 3.8912-4.096 10.4448-4.096 14.5408 0l47.5136 47.104c4.096 3.8912 4.096 10.4448 0 14.5408-2.2528 1.8432-4.7104 2.8672-7.3728 2.8672z" fill="#1C1D21" p-id="15647"></path><path d="M786.432 436.8384c-2.6624 0-5.3248-1.024-7.3728-3.072-3.8912-4.096-3.8912-10.4448 0-14.5408l47.5136-47.104c4.096-3.8912 10.4448-3.8912 14.5408 0 3.8912 4.096 3.8912 10.4448 0 14.5408l-47.5136 47.104c-2.048 2.2528-4.7104 3.072-7.168 3.072z" fill="#1C1D21" p-id="15648"></path><path d="M444.8256 820.0192L292.864 699.8016c-18.6368-14.7456-29.4912-37.2736-29.4912-61.0304v-77.2096c0-14.5408-11.8784-26.4192-26.4192-26.4192-14.5408 0-26.4192 11.8784-26.4192 26.4192v148.0704c0 20.6848 8.192 40.3456 22.7328 54.8864l107.1104 107.1104c14.5408 14.5408 22.7328 34.4064 22.7328 54.8864V991.232c35.6352 11.0592 73.1136 18.2272 111.616 21.0944l-0.4096-131.6864c0-23.552-11.0592-46.08-29.4912-60.6208zM683.6224 871.6288l107.1104-107.1104c14.5408-14.5408 22.7328-34.4064 22.7328-54.8864v-148.0704c0-14.5408-11.8784-26.4192-26.4192-26.4192-14.5408 0-26.4192 11.8784-26.4192 26.4192v77.2096c0 23.7568-10.8544 46.2848-29.4912 61.0304l-151.9616 120.2176c-18.6368 14.7456-29.4912 37.0688-29.4912 60.6208l-0.4096 131.6864c38.7072-2.8672 75.9808-10.0352 111.616-21.0944v-64.512c0-20.6848 8.192-40.3456 22.7328-55.0912z" fill="#FFC5B3" p-id="15649"></path><path d="M474.7264 1022.5664h-0.8192c-38.7072-2.8672-77.2096-10.0352-114.0736-21.504-4.3008-1.2288-7.168-5.3248-7.168-9.8304v-64.512c0-18.0224-6.9632-35.0208-19.8656-47.7184l-107.1104-107.1104c-16.5888-16.5888-25.8048-38.7072-25.8048-62.2592v-148.0704c0-20.2752 16.384-36.6592 36.6592-36.6592s36.6592 16.384 36.6592 36.6592v77.2096c0 20.6848 9.4208 40.1408 25.6 52.8384l151.9616 120.2176c21.0944 16.7936 33.3824 41.7792 33.3824 68.608l0.4096 131.6864c0 2.8672-1.2288 5.5296-3.2768 7.5776-1.4336 2.048-3.8912 2.8672-6.5536 2.8672z m-101.376-38.912c29.696 8.6016 60.2112 14.5408 91.136 17.6128l-0.4096-120.6272c0-20.6848-9.4208-39.936-25.6-52.6336l-151.9616-120.2176c-21.2992-16.7936-33.3824-41.984-33.3824-69.0176v-77.2096c0-9.0112-7.3728-16.1792-16.1792-16.1792s-16.1792 7.3728-16.1792 16.1792v148.0704c0 18.0224 6.9632 35.0208 19.8656 47.7184l107.1104 107.1104c16.5888 16.5888 25.8048 38.7072 25.8048 62.2592v56.9344zM549.2736 1022.5664c-2.6624 0-5.12-1.024-6.9632-2.6624-2.048-1.8432-3.2768-4.7104-3.2768-7.5776l0.4096-131.6864c0-27.0336 12.288-52.0192 33.3824-68.608l151.9616-120.2176c16.1792-12.9024 25.6-32.1536 25.6-52.8384v-77.2096c0-20.2752 16.384-36.6592 36.6592-36.6592 20.2752 0 36.6592 16.384 36.6592 36.6592v148.0704c0 23.552-9.216 45.6704-25.8048 62.2592l-107.1104 107.1104c-12.6976 12.6976-19.8656 29.696-19.8656 47.7184V991.232c0 4.5056-2.8672 8.3968-7.168 9.8304-36.864 11.4688-75.1616 18.6368-114.0736 21.504h-0.4096z m237.7728-477.184c-9.0112 0-16.1792 7.3728-16.1792 16.1792v77.2096c0 27.0336-12.0832 52.224-33.3824 69.0176l-151.9616 120.2176c-16.1792 12.9024-25.6 31.9488-25.6 52.6336l-0.4096 120.6272c30.9248-3.072 61.44-8.8064 91.136-17.6128v-56.9344c0-23.552 9.216-45.6704 25.8048-62.2592l107.1104-107.1104c12.6976-12.6976 19.8656-29.696 19.8656-47.7184v-148.0704c0-9.0112-7.3728-16.1792-16.384-16.1792zM660.8896 991.232z" fill="#1C1D21" p-id="15650"></path><path d="M557.6704 286.1056c-1.024 38.912 37.2736 66.7648 73.9328 53.6576-23.7568 30.9248-9.0112 75.9808 28.2624 86.8352-37.2736 11.0592-52.0192 56.1152-28.2624 86.8352-36.6592-13.1072-74.9568 14.7456-73.9328 53.6576-21.9136-32.1536-69.4272-32.1536-91.3408 0 1.024-38.912-37.2736-66.7648-73.9328-53.6576 23.7568-30.9248 9.0112-75.9808-28.2624-86.8352 37.2736-11.0592 52.0192-56.1152 28.2624-86.8352 36.6592 13.1072 74.9568-14.7456 73.9328-53.6576 21.9136 31.9488 69.4272 31.9488 91.3408 0z" fill="#FF8939" p-id="15651"></path><path d="M557.6704 577.536c-3.2768 0-6.5536-1.6384-8.3968-4.5056-8.6016-12.4928-22.1184-19.6608-37.2736-19.6608s-28.672 7.168-37.2736 19.6608c-2.6624 3.6864-7.3728 5.3248-11.6736 3.8912-4.3008-1.4336-7.168-5.5296-7.168-10.0352 0.4096-15.1552-6.3488-28.8768-18.6368-37.6832-12.288-8.8064-27.4432-11.0592-41.5744-5.9392-4.3008 1.4336-9.0112 0-11.6736-3.6864-2.6624-3.6864-2.6624-8.6016 0.2048-12.288 9.216-12.0832 11.8784-27.0336 7.168-41.5744-4.7104-14.336-15.7696-24.9856-30.1056-29.2864-4.3008-1.2288-7.3728-5.3248-7.3728-9.8304s3.072-8.6016 7.3728-9.8304c14.5408-4.3008 25.6-14.9504 30.1056-29.2864 4.7104-14.336 2.048-29.4912-7.168-41.5744-2.8672-3.6864-2.8672-8.6016-0.2048-12.288 2.6624-3.6864 7.3728-5.12 11.6736-3.6864 14.336 5.12 29.4912 2.8672 41.5744-5.9392 12.288-8.8064 19.0464-22.7328 18.6368-37.6832-0.2048-4.5056 2.6624-8.6016 7.168-10.0352 4.3008-1.4336 9.0112 0.2048 11.6736 3.8912 8.6016 12.4928 22.1184 19.6608 37.2736 19.6608s28.672-7.168 37.2736-19.6608c2.6624-3.6864 7.3728-5.3248 11.6736-3.8912 4.3008 1.4336 7.168 5.5296 7.168 10.0352-0.4096 15.1552 6.3488 28.8768 18.6368 37.6832 12.288 8.8064 27.4432 11.0592 41.5744 5.9392 4.3008-1.4336 9.0112 0 11.6736 3.6864 2.6624 3.6864 2.6624 8.6016-0.2048 12.288-9.216 12.0832-11.8784 27.0336-7.168 41.5744 4.7104 14.336 15.7696 24.9856 30.1056 29.2864 4.3008 1.2288 7.3728 5.3248 7.3728 9.8304s-3.072 8.6016-7.3728 9.8304c-14.5408 4.3008-25.6 14.9504-30.1056 29.2864-4.7104 14.336-2.048 29.4912 7.168 41.5744 2.8672 3.6864 2.8672 8.6016 0.2048 12.288-2.6624 3.6864-7.3728 5.12-11.6736 3.6864-14.336-5.12-29.4912-2.8672-41.5744 5.9392-12.288 8.8064-19.0464 22.7328-18.6368 37.6832 0.2048 4.5056-2.6624 8.6016-7.168 10.0352-1.2288 0.4096-2.2528 0.6144-3.2768 0.6144zM512 532.8896c14.1312 0 27.648 4.5056 38.7072 12.4928 4.3008-13.1072 12.4928-24.576 23.9616-32.768s24.9856-12.4928 38.5024-12.4928c-4.3008-13.1072-4.3008-27.2384 0-40.5504s12.6976-24.7808 23.9616-32.768c-11.0592-7.9872-19.456-19.456-23.9616-32.768-4.3008-13.312-4.3008-27.648 0-40.5504-13.7216 0-27.2384-4.3008-38.5024-12.4928-11.4688-8.192-19.6608-19.8656-23.9616-32.768-11.0592 7.9872-24.576 12.4928-38.7072 12.4928s-27.648-4.5056-38.7072-12.4928c-4.3008 13.1072-12.4928 24.576-23.9616 32.768s-24.9856 12.4928-38.5024 12.4928c4.3008 13.1072 4.3008 27.2384 0 40.5504s-12.6976 24.7808-23.9616 32.768c11.0592 7.9872 19.456 19.456 23.9616 32.768 4.3008 13.312 4.3008 27.648 0 40.5504 13.7216 0 27.2384 4.3008 38.5024 12.4928 11.4688 8.192 19.6608 19.8656 23.9616 32.768 11.0592-7.9872 24.576-12.4928 38.7072-12.4928z" fill="#1C1D21" p-id="15652"></path><path d="M486.1952 357.9904c-2.2528 0-4.5056-0.6144-6.3488-2.2528-3.8912-3.072-5.7344-9.216-1.4336-14.5408l0.2048-0.4096c0.2048-0.2048 0.4096-0.4096 0.6144-0.8192 3.6864-4.3008 10.0352-4.9152 14.336-1.4336 0.4096 0.2048 7.7824 6.3488 1.024 15.1552l-0.2048 0.2048c-2.048 2.6624-5.12 4.096-8.192 4.096zM444.8256 485.7856c-5.5296 0-10.0352-4.3008-10.24-9.8304-0.4096-7.7824-1.6384-15.36-4.096-22.7328-2.4576-7.3728-5.7344-14.336-10.0352-20.8896-2.2528-3.4816-2.2528-7.7824 0-11.264 4.3008-6.5536 7.5776-13.5168 10.0352-20.8896 2.4576-7.3728 3.8912-15.1552 4.096-22.7328 0.2048-4.096 2.8672-7.7824 6.5536-9.216 4.5056-1.6384 8.8064-3.6864 12.9024-6.144 4.9152-2.8672 11.264-1.2288 13.9264 3.6864 2.8672 4.9152 1.2288 11.264-3.6864 13.9264-3.072 1.8432-6.3488 3.4816-9.6256 4.9152-0.8192 7.3728-2.2528 14.5408-4.7104 21.7088-2.2528 6.9632-5.3248 13.7216-9.0112 20.2752 3.6864 6.3488 6.7584 13.1072 9.0112 20.2752 3.072 9.216 4.7104 18.6368 5.12 28.2624 0.2048 5.7344-4.096 10.4448-9.8304 10.6496h-0.4096z" fill="#FFC9A4" p-id="15653"></path><path d="M512 752.4352c-12.0832 0-24.3712-4.5056-33.792-13.7216l-0.6144-0.6144c-13.9264-13.5168-18.432-34.2016-11.4688-52.224l36.2496-94.0032c1.4336-3.8912 5.3248-6.5536 9.6256-6.5536 6.9632 0 9.216 5.5296 10.6496 9.216l35.4304 91.5456c6.9632 18.2272 2.4576 38.7072-11.4688 52.224l-0.6144 0.6144c-9.6256 8.8064-21.9136 13.5168-33.9968 13.5168z m0-128.6144l-26.8288 69.4272c-4.096 10.4448-1.4336 22.3232 6.5536 30.1056l0.6144 0.6144c10.8544 10.6496 28.0576 10.6496 38.912 0l0.6144-0.6144c8.192-7.7824 10.6496-19.6608 6.5536-30.1056-7.3728-20.2752-18.432-49.152-26.4192-69.4272z" fill="#1C1D21" p-id="15654"></path></svg>