<svg xmlns="http://www.w3.org/2000/svg" viewBox="0 0 1024 1024" version="1.1"><path d="M512 512m-501.76 0a501.76 501.76 0 1 0 1003.52 0 501.76 501.76 0 1 0-1003.52 0Z" fill="#8CEEF9" p-id="14091"></path><path d="M512 1024c-136.8064 0-265.4208-53.248-362.0864-149.9136C53.248 777.4208 0 648.8064 0 512S53.248 246.5792 149.9136 149.9136C246.5792 53.248 375.1936 0 512 0s265.4208 53.248 362.0864 149.9136C970.752 246.5792 1024 375.1936 1024 512s-53.248 265.4208-149.9136 362.0864C777.4208 970.752 648.8064 1024 512 1024z m0-1003.52C241.0496 20.48 20.48 241.0496 20.48 512s220.5696 491.52 491.52 491.52 491.52-220.5696 491.52-491.52S782.9504 20.48 512 20.48z" fill="#1C1D21" p-id="14092"></path><path d="M643.6864 805.2736l239.4112-315.1872c-35.6352-35.6352-93.3888-35.6352-129.024 0l-56.5248 56.5248c-9.216 9.216-24.9856 2.6624-24.9856-10.24V201.1136c0-24.7808-19.2512-45.8752-44.032-46.6944-26.0096-1.024-47.3088 19.8656-47.3088 45.6704V110.7968c0-24.7808-19.2512-45.8752-44.032-46.6944-26.0096-1.024-47.3088 19.8656-47.3088 45.6704v62.464c0-25.8048-21.2992-46.4896-47.3088-45.6704-24.7808 0.8192-44.032 21.9136-44.032 46.6944l-0.2048 164.6592 0.2048-62.2592c0-25.8048-21.2992-46.4896-47.3088-45.6704-24.7808 0.8192-44.032 21.9136-44.032 46.6944V804.864h336.4864z" fill="#FFC5B3" p-id="14093"></path><path d="M643.6864 815.5136H307.6096c-5.7344 0-10.24-4.5056-10.24-10.24v-247.808c0-5.7344 4.5056-10.24 10.24-10.24s10.24 4.5056 10.24 10.24v237.3632h320.9216l230.6048-303.7184c-31.744-25.6-78.4384-23.552-107.9296 5.9392l-56.5248 56.5248c-7.168 7.168-17.8176 9.216-27.0336 5.3248-9.4208-3.8912-15.36-12.9024-15.36-22.9376V201.1136c0-19.456-15.36-35.84-33.9968-36.4544-9.6256-0.4096-18.8416 3.072-25.8048 9.8304-6.9632 6.7584-10.8544 15.7696-10.8544 25.3952 0 5.7344-4.5056 10.24-10.24 10.24s-10.24-4.5056-10.24-10.24V110.7968c0-19.456-15.36-35.84-33.9968-36.4544-9.6256-0.4096-18.8416 3.072-25.8048 9.8304-6.9632 6.7584-10.8544 15.7696-10.8544 25.3952V172.032c0 5.7344-4.5056 10.24-10.24 10.24s-10.24-4.5056-10.24-10.24c0-9.6256-3.8912-18.6368-10.8544-25.3952-6.9632-6.7584-16.1792-10.24-25.8048-9.8304-18.8416 0.6144-33.9968 16.9984-33.9968 36.4544v110.1824c0 5.7344-4.5056 10.24-10.24 10.24s-10.24-4.5056-10.24-10.24v-6.5536c0-9.6256-3.8912-18.6368-10.8544-25.3952-6.9632-6.7584-16.1792-10.24-25.8048-9.8304-18.8416 0.6144-33.9968 16.9984-33.9968 36.4544v26.4192h7.168c5.7344 0 10.24 4.5056 10.24 10.24s-4.5056 10.24-10.24 10.24h-17.408c-5.7344 0-10.24-4.5056-10.24-10.24v-36.6592c0-30.3104 24.1664-55.9104 53.8624-56.9344 13.7216-0.4096 26.8288 3.8912 37.4784 12.4928V173.2608c0-30.3104 24.1664-55.9104 53.8624-56.9344 13.7216-0.4096 26.8288 3.8912 37.4784 12.4928v-19.2512c0-15.36 6.144-29.4912 16.9984-40.1408 11.0592-10.6496 25.6-16.1792 40.7552-15.5648 29.696 1.024 53.8624 26.624 53.8624 56.9344v46.08c10.4448-8.6016 23.552-13.1072 37.4784-12.4928 29.696 1.024 53.8624 26.624 53.8624 56.9344v335.0528c0 2.4576 1.6384 3.6864 2.6624 4.096 1.024 0.4096 3.072 0.8192 4.7104-1.024l56.5248-56.5248c39.5264-39.5264 104.0384-39.5264 143.5648 0 3.6864 3.6864 4.096 9.4208 0.8192 13.5168L651.8784 811.4176c-1.8432 2.4576-4.9152 4.096-8.192 4.096z" fill="#1C1D21" p-id="14094"></path><path d="M307.6096 506.88c-5.7344 0-10.24-4.5056-10.24-10.24v-126.976c0-5.7344 4.5056-10.24 10.24-10.24s10.24 4.5056 10.24 10.24v126.976c0 5.5296-4.5056 10.24-10.24 10.24z" fill="#1C1D21" p-id="14095"></path><path d="M353.28 533.7088c-5.7344 0-10.24-4.5056-10.24-10.24V405.504c0-5.7344 4.5056-10.24 10.24-10.24s10.24 4.5056 10.24 10.24v117.9648c0 5.7344-4.7104 10.24-10.24 10.24zM353.28 374.784c-5.7344 0-10.24-4.5056-10.24-10.24v-7.5776c0-5.7344 4.5056-10.24 10.24-10.24s10.24 4.5056 10.24 10.24v7.5776c0 5.7344-4.7104 10.24-10.24 10.24z" fill="#FFECE9" p-id="14096"></path><path d="M398.9504 413.696c-5.7344 0-10.24-4.5056-10.24-10.24v-124.928c0-5.7344 4.5056-10.24 10.24-10.24s10.24 4.5056 10.24 10.24v124.928c0 5.7344-4.7104 10.24-10.24 10.24zM490.0864 413.696c-5.7344 0-10.24-4.5056-10.24-10.24V172.2368c0-5.7344 4.5056-10.24 10.24-10.24s10.24 4.5056 10.24 10.24V403.456c0 5.7344-4.5056 10.24-10.24 10.24zM581.4272 413.696c-5.7344 0-10.24-4.5056-10.24-10.24V200.0896c0-5.7344 4.5056-10.24 10.24-10.24s10.24 4.5056 10.24 10.24V403.456c0 5.7344-4.7104 10.24-10.24 10.24z" fill="#1C1D21" p-id="14097"></path><path d="M299.2128 805.2736h350.208c13.9264 0 25.3952 11.264 25.3952 25.3952v47.7184c0 13.9264-11.264 25.3952-25.3952 25.3952h-350.208c-13.9264 0-25.3952-11.264-25.3952-25.3952v-47.7184c0-14.1312 11.4688-25.3952 25.3952-25.3952z" fill="#508DEF" p-id="14098"></path><path d="M645.12 903.5776H307.6096v66.7648c62.464 27.8528 131.6864 43.4176 204.3904 43.4176 46.08 0 90.7264-6.3488 133.12-17.8176v-92.3648z" fill="#508DEF" p-id="14099"></path><path d="M512 1024c-72.4992 0-142.7456-14.9504-208.4864-44.2368-3.6864-1.6384-6.144-5.3248-6.144-9.4208v-66.7648c0-5.7344 4.5056-10.24 10.24-10.24H645.12c5.7344 0 10.24 4.5056 10.24 10.24v92.3648c0 4.7104-3.072 8.6016-7.5776 9.8304-44.032 12.0832-89.7024 18.2272-135.7824 18.2272z m-194.1504-60.416c61.44 26.4192 126.7712 39.936 194.1504 39.936 41.5744 0 82.944-5.12 122.88-15.5648v-74.1376H317.8496v49.7664z" fill="#1C1D21" p-id="14100"></path><path d="M308.8384 805.2736h24.3712v98.304h-24.3712zM359.8336 805.2736h24.3712v98.304h-24.3712zM411.0336 805.2736h24.3712v98.304h-24.3712zM462.2336 805.2736h24.3712v98.304h-24.3712zM513.2288 805.2736h24.3712v98.304h-24.3712zM564.4288 805.2736h24.3712v98.304h-24.3712zM615.6288 805.2736h24.3712v98.304h-24.3712z" fill="#ABD1FF" p-id="14101"></path><path d="M649.6256 913.8176h-350.208c-19.6608 0-35.6352-15.9744-35.6352-35.6352v-47.7184c0-19.6608 15.9744-35.6352 35.6352-35.6352h350.208c19.6608 0 35.6352 15.9744 35.6352 35.6352v47.7184c-0.2048 19.6608-16.1792 35.6352-35.6352 35.6352z m-350.4128-98.304c-8.3968 0-15.1552 6.7584-15.1552 15.1552v47.7184c0 8.3968 6.7584 15.1552 15.1552 15.1552h350.208c8.3968 0 15.1552-6.7584 15.1552-15.1552v-47.7184c0-8.3968-6.7584-15.1552-15.1552-15.1552h-350.208z" fill="#1C1D21" p-id="14102"></path><path d="M431.3088 620.7488m-72.9088 0a72.9088 72.9088 0 1 0 145.8176 0 72.9088 72.9088 0 1 0-145.8176 0Z" fill="#FF8939" p-id="14103"></path><path d="M491.1104 640.4096c-1.6384-6.144-2.6624-12.6976-2.6624-19.456 0-11.8784 2.8672-23.1424 7.9872-33.1776-12.0832-23.552-36.6592-39.7312-64.9216-39.7312-17.6128 0-33.792 6.3488-46.4896 16.5888 15.36 43.8272 56.9344 75.3664 106.0864 75.776z" fill="#D66112" p-id="14104"></path><path d="M431.3088 704.1024c-45.8752 0-83.1488-37.2736-83.1488-83.1488 0-45.8752 37.2736-83.1488 83.1488-83.1488s83.1488 37.2736 83.1488 83.1488c0.2048 45.8752-37.2736 83.1488-83.1488 83.1488z m0-146.0224c-34.6112 0-62.6688 28.0576-62.6688 62.6688s28.0576 62.6688 62.6688 62.6688 62.6688-28.0576 62.6688-62.6688-28.0576-62.6688-62.6688-62.6688z" fill="#1C1D21" p-id="14105"></path><path d="M561.3568 620.7488m-72.9088 0a72.9088 72.9088 0 1 0 145.8176 0 72.9088 72.9088 0 1 0-145.8176 0Z" fill="#FF8939" p-id="14106"></path><path d="M561.3568 547.84c-28.4672 0-52.8384 16.1792-64.9216 39.7312-5.12 10.0352-7.9872 21.2992-7.9872 33.1776 0 6.7584 1.024 13.312 2.6624 19.456h0.8192c3.2768 0 6.7584-0.2048 10.0352-0.4096 46.8992-4.096 85.8112-36.864 98.7136-80.6912-11.4688-7.168-24.7808-11.264-39.3216-11.264z" fill="#D66112" p-id="14107"></path><path d="M561.3568 704.1024c-45.8752 0-83.1488-37.2736-83.1488-83.1488 0-45.8752 37.2736-83.1488 83.1488-83.1488s83.1488 37.2736 83.1488 83.1488c0.2048 45.8752-37.2736 83.1488-83.1488 83.1488z m0-146.0224c-34.6112 0-62.6688 28.0576-62.6688 62.6688s28.0576 62.6688 62.6688 62.6688 62.6688-28.0576 62.6688-62.6688-28.0576-62.6688-62.6688-62.6688z" fill="#1C1D21" p-id="14108"></path><path d="M435.8144 614.1952h-9.0112c-0.4096 0-0.8192-0.4096-0.8192-0.8192v-10.6496c0-0.4096 0.4096-0.8192 0.8192-0.8192h16.5888c3.6864 0 6.7584-3.072 6.7584-6.7584 0-3.6864-3.072-6.7584-6.7584-6.7584h-5.7344v-11.4688c0-2.8672-2.2528-5.12-5.12-5.12s-5.12 2.2528-5.12 5.12v11.4688h-0.8192c-7.7824 0-14.1312 6.3488-14.1312 14.1312v10.6496c0 7.7824 6.3488 14.1312 14.1312 14.1312h9.0112c0.4096 0 0.8192 0.4096 0.8192 0.8192v10.6496c0 0.4096-0.4096 0.8192-0.8192 0.8192h-16.5888c-3.6864 0-6.7584 3.072-6.7584 6.7584 0 3.6864 3.072 6.7584 6.7584 6.7584h8.3968v11.4688c0 2.8672 2.2528 5.12 5.12 5.12s5.12-2.2528 5.12-5.12v-11.6736c6.9632-0.8192 12.288-6.9632 12.288-14.1312v-10.6496c0.2048-7.5776-6.144-13.9264-14.1312-13.9264z" fill="#FFF0CC" p-id="14109"></path><path d="M491.9296 527.1552m-72.9088 0a72.9088 72.9088 0 1 0 145.8176 0 72.9088 72.9088 0 1 0-145.8176 0Z" fill="#D66112" p-id="14110"></path><path d="M453.2224 561.5616c0-40.3456 32.768-72.9088 72.9088-72.9088 11.264 0 21.9136 2.4576 31.5392 7.168-11.6736-24.576-36.864-41.5744-65.9456-41.5744-40.3456 0-72.9088 32.768-72.9088 72.9088 0 29.0816 16.9984 54.0672 41.5744 65.9456-4.5056-9.6256-7.168-20.2752-7.168-31.5392z" fill="#FF8939" p-id="14111"></path><path d="M565.8624 614.1952h-9.0112c-0.4096 0-0.8192-0.4096-0.8192-0.8192v-10.6496c0-0.4096 0.4096-0.8192 0.8192-0.8192h16.5888c3.6864 0 6.7584-3.072 6.7584-6.7584 0-3.6864-3.072-6.7584-6.7584-6.7584h-5.7344v-11.4688c0-2.8672-2.2528-5.12-5.12-5.12s-5.12 2.2528-5.12 5.12v11.4688h-0.8192c-7.7824 0-14.1312 6.3488-14.1312 14.1312v10.6496c0 7.7824 6.3488 14.1312 14.1312 14.1312h9.0112c0.4096 0 0.8192 0.4096 0.8192 0.8192v10.6496c0 0.4096-0.4096 0.8192-0.8192 0.8192h-16.5888c-3.6864 0-6.7584 3.072-6.7584 6.7584 0 3.6864 3.072 6.7584 6.7584 6.7584h8.3968v11.4688c0 2.8672 2.2528 5.12 5.12 5.12s5.12-2.2528 5.12-5.12v-11.6736c6.9632-0.8192 12.288-6.9632 12.288-14.1312v-10.6496c0.2048-7.5776-6.144-13.9264-14.1312-13.9264z" fill="#FFF0CC" p-id="14112"></path><path d="M491.9296 610.304c-45.8752 0-83.1488-37.2736-83.1488-83.1488 0-45.8752 37.2736-83.1488 83.1488-83.1488 45.8752 0 83.1488 37.2736 83.1488 83.1488 0 45.8752-37.2736 83.1488-83.1488 83.1488z m0-146.0224c-34.6112 0-62.6688 28.0576-62.6688 62.6688s28.0576 62.6688 62.6688 62.6688 62.6688-28.0576 62.6688-62.6688-28.0576-62.6688-62.6688-62.6688z" fill="#1C1D21" p-id="14113"></path><path d="M496.4352 520.3968H487.424c-0.4096 0-0.8192-0.4096-0.8192-0.8192v-10.6496c0-0.4096 0.4096-0.8192 0.8192-0.8192h16.5888c3.6864 0 6.7584-3.072 6.7584-6.7584 0-3.6864-3.072-6.7584-6.7584-6.7584h-5.7344V483.328c0-2.8672-2.2528-5.12-5.12-5.12s-5.12 2.2528-5.12 5.12v11.4688h-0.6144c-7.7824 0-14.1312 6.3488-14.1312 14.1312v10.6496c0 7.7824 6.3488 14.1312 14.1312 14.1312h9.0112c0.4096 0 0.8192 0.4096 0.8192 0.8192v10.6496c0 0.4096-0.4096 0.8192-0.8192 0.8192h-16.5888c-3.6864 0-6.7584 3.072-6.7584 6.7584 0 3.6864 3.072 6.7584 6.7584 6.7584h8.3968v11.4688c0 2.8672 2.2528 5.12 5.12 5.12s5.12-2.2528 5.12-5.12v-11.6736c6.9632-0.8192 12.288-6.9632 12.288-14.1312V534.528c-0.2048-7.7824-6.5536-14.1312-14.336-14.1312z" fill="#FFF0CC" p-id="14114"></path><path d="M423.3216 322.56h-24.576c-5.7344 0-10.24-4.5056-10.24-10.24s4.5056-10.24 10.24-10.24h24.576c5.7344 0 10.24 4.5056 10.24 10.24s-4.7104 10.24-10.24 10.24zM510.5664 322.56h-20.48c-5.7344 0-10.24-4.5056-10.24-10.24s4.5056-10.24 10.24-10.24h20.48c5.7344 0 10.24 4.5056 10.24 10.24s-4.5056 10.24-10.24 10.24zM605.184 322.56h-23.7568c-5.7344 0-10.24-4.5056-10.24-10.24s4.5056-10.24 10.24-10.24h23.7568c5.7344 0 10.24 4.5056 10.24 10.24s-4.5056 10.24-10.24 10.24z" fill="#1C1D21" p-id="14115"></path></svg>