<svg xmlns="http://www.w3.org/2000/svg" viewBox="0 0 1024 1024" version="1.1"><path d="M512 512m-501.76 0a501.76 501.76 0 1 0 1003.52 0 501.76 501.76 0 1 0-1003.52 0Z" fill="#0ABFB2" p-id="13521"></path><path d="M512 1024c-136.8064 0-265.4208-53.248-362.0864-149.9136C53.248 777.4208 0 648.8064 0 512S53.248 246.5792 149.9136 149.9136C246.5792 53.248 375.1936 0 512 0s265.4208 53.248 362.0864 149.9136C970.752 246.5792 1024 375.1936 1024 512s-53.248 265.4208-149.9136 362.0864C777.4208 970.752 648.8064 1024 512 1024z m0-1003.52C241.0496 20.48 20.48 241.0496 20.48 512s220.5696 491.52 491.52 491.52 491.52-220.5696 491.52-491.52S782.9504 20.48 512 20.48z" fill="#1C1D21" p-id="13522"></path><path d="M511.7952 670.5152m-48.3328 0a48.3328 48.3328 0 1 0 96.6656 0 48.3328 48.3328 0 1 0-96.6656 0Z" fill="#FFC5B3" p-id="13523"></path><path d="M511.7952 729.088c-32.3584 0-58.5728-26.2144-58.5728-58.5728s26.2144-58.5728 58.5728-58.5728 58.5728 26.2144 58.5728 58.5728-26.2144 58.5728-58.5728 58.5728z m0-96.6656c-21.0944 0-38.0928 16.9984-38.0928 38.0928s16.9984 38.0928 38.0928 38.0928 38.0928-16.9984 38.0928-38.0928c0-20.8896-16.9984-38.0928-38.0928-38.0928z" fill="#1C1D21" p-id="13524"></path><path d="M511.7952 353.4848m-48.3328 0a48.3328 48.3328 0 1 0 96.6656 0 48.3328 48.3328 0 1 0-96.6656 0Z" fill="#C67552" p-id="13525"></path><path d="M511.7952 412.0576c-32.3584 0-58.5728-26.2144-58.5728-58.5728s26.2144-58.5728 58.5728-58.5728 58.5728 26.2144 58.5728 58.5728-26.2144 58.5728-58.5728 58.5728z m0-96.6656c-21.0944 0-38.0928 16.9984-38.0928 38.0928s16.9984 38.0928 38.0928 38.0928 38.0928-16.9984 38.0928-38.0928-16.9984-38.0928-38.0928-38.0928z" fill="#1C1D21" p-id="13526"></path><path d="M353.4848 512m-48.3328 0a48.3328 48.3328 0 1 0 96.6656 0 48.3328 48.3328 0 1 0-96.6656 0Z" fill="#FFECE9" p-id="13527"></path><path d="M353.28 570.5728c-32.3584 0-58.5728-26.2144-58.5728-58.5728s26.2144-58.5728 58.5728-58.5728 58.5728 26.2144 58.5728 58.5728-26.2144 58.5728-58.5728 58.5728z m0-96.6656c-21.0944 0-38.0928 16.9984-38.0928 38.0928s16.9984 38.0928 38.0928 38.0928 38.0928-16.9984 38.0928-38.0928c0.2048-21.0944-16.9984-38.0928-38.0928-38.0928z" fill="#1C1D21" p-id="13528"></path><path d="M670.5152 512m-48.3328 0a48.3328 48.3328 0 1 0 96.6656 0 48.3328 48.3328 0 1 0-96.6656 0Z" fill="#FF8939" p-id="13529"></path><path d="M670.72 570.5728c-32.3584 0-58.5728-26.2144-58.5728-58.5728s26.2144-58.5728 58.5728-58.5728 58.5728 26.2144 58.5728 58.5728-26.4192 58.5728-58.5728 58.5728z m0-96.6656c-21.0944 0-38.0928 16.9984-38.0928 38.0928s16.9984 38.0928 38.0928 38.0928 38.0928-16.9984 38.0928-38.0928c-0.2048-21.0944-17.2032-38.0928-38.0928-38.0928z" fill="#1C1D21" p-id="13530"></path><path d="M454.4512 837.8368v10.0352c0 31.744 25.8048 57.5488 57.5488 57.5488 31.744 0 57.5488-25.8048 57.5488-57.5488v-10.0352c0-32.768 9.216-64.7168 26.0096-92.9792 18.0224-30.3104 30.3104-70.2464 34.2016-114.8928h-2.4576c-13.312 51.2-59.8016 89.088-115.0976 89.088s-101.7856-37.888-115.0976-89.088h-2.4576c3.8912 44.6464 16.1792 84.7872 34.2016 114.8928 16.5888 28.0576 25.6 60.2112 25.6 92.9792z" fill="#FFC5B3" p-id="13531"></path><path d="M569.5488 186.1632V176.128c0-31.744-25.8048-57.5488-57.5488-57.5488-31.744 0-57.5488 25.8048-57.5488 57.5488v10.0352c0 32.768-9.216 64.7168-26.0096 92.9792-18.0224 30.3104-30.3104 70.2464-34.2016 114.8928h2.4576c13.312-51.2 59.8016-89.088 115.0976-89.088s101.7856 37.888 115.0976 89.088h2.4576c-3.8912-44.6464-16.1792-84.7872-34.2016-114.8928-16.5888-28.0576-25.6-60.2112-25.6-92.9792z" fill="#C67552" p-id="13532"></path><path d="M186.1632 454.4512H176.128c-31.744 0-57.5488 25.8048-57.5488 57.5488 0 31.744 25.8048 57.5488 57.5488 57.5488h10.0352c32.768 0 64.7168 9.216 92.9792 26.0096 30.3104 18.0224 70.2464 30.3104 114.8928 34.2016v-2.4576c-51.2-13.312-89.088-59.8016-89.088-115.0976s37.888-101.7856 89.088-115.0976v-2.4576c-44.6464 3.8912-84.7872 16.1792-114.8928 34.2016-28.0576 16.5888-60.2112 25.6-92.9792 25.6z" fill="#FFECE9" p-id="13533"></path><path d="M394.0352 640h-0.8192c-45.4656-3.8912-86.8352-16.384-119.1936-35.6352-26.8288-15.9744-57.1392-24.3712-87.6544-24.3712h-10.24c-37.2736 0-67.7888-30.3104-67.7888-67.7888S138.6496 444.416 176.128 444.416h10.0352c14.7456 0 29.4912-2.048 43.8272-5.9392 5.5296-1.4336 11.0592 1.8432 12.4928 7.168s-1.8432 11.0592-7.168 12.4928c-16.1792 4.3008-32.5632 6.5536-49.152 6.5536H176.128c-26.0096 0-47.3088 21.2992-47.3088 47.3088s21.2992 47.3088 47.3088 47.3088h10.0352c34.2016 0 68.1984 9.4208 98.0992 27.4432 15.7696 9.4208 34.4064 17.2032 54.6816 22.9376-27.4432-23.9616-44.4416-59.1872-44.4416-97.4848 0-38.2976 16.9984-73.5232 44.4416-97.4848-8.3968 2.4576-16.5888 5.12-24.576 8.192-5.3248 2.048-11.264-0.6144-13.312-5.7344-2.048-5.3248 0.6144-11.264 5.7344-13.312 26.0096-10.24 55.0912-16.7936 86.016-19.456 2.8672-0.2048 5.7344 0.6144 7.7824 2.6624 2.048 1.8432 3.2768 4.7104 3.2768 7.5776v2.4576c0 4.7104-3.072 8.8064-7.5776 9.8304-47.9232 12.4928-81.3056 55.7056-81.3056 105.2672s33.3824 92.7744 81.3056 105.2672c4.5056 1.2288 7.5776 5.3248 7.5776 9.8304v2.4576c0 2.8672-1.2288 5.5296-3.2768 7.5776-1.6384 1.6384-4.096 2.6624-6.5536 2.6624z" fill="#1C1D21" p-id="13534"></path><path d="M271.7696 442.9824c-3.6864 0-7.168-2.048-9.0112-5.3248-2.6624-4.9152-0.8192-11.264 4.096-13.9264 2.2528-1.2288 4.7104-2.6624 6.9632-3.8912 4.9152-2.8672 11.0592-1.2288 14.1312 3.4816 2.8672 4.9152 1.2288 11.0592-3.4816 14.1312-2.6624 1.4336-5.12 3.072-7.7824 4.5056-1.6384 0.6144-3.2768 1.024-4.9152 1.024zM512 915.6608c-37.2736 0-67.7888-30.3104-67.7888-67.7888v-10.0352c0-14.7456-2.048-29.4912-5.9392-43.8272-1.4336-5.5296 1.8432-11.0592 7.168-12.4928 5.5296-1.4336 11.0592 1.8432 12.4928 7.168 4.3008 16.1792 6.5536 32.5632 6.5536 49.152v10.0352c0 26.0096 21.2992 47.3088 47.3088 47.3088S559.104 873.8816 559.104 847.872v-10.0352c0-34.2016 9.4208-68.1984 27.4432-98.0992 9.4208-15.7696 17.2032-34.4064 22.9376-54.6816-23.9616 27.4432-59.1872 44.4416-97.4848 44.4416-38.2976 0-73.5232-16.9984-97.4848-44.4416 2.4576 8.3968 5.12 16.5888 8.192 24.576 2.048 5.3248-0.6144 11.264-5.7344 13.312-5.3248 2.048-11.264-0.6144-13.312-5.7344-10.24-26.0096-16.7936-55.0912-19.456-86.016-0.2048-2.8672 0.6144-5.7344 2.6624-7.7824 1.8432-2.048 4.7104-3.2768 7.5776-3.2768h2.4576c4.7104 0 8.8064 3.072 9.8304 7.5776 12.4928 47.9232 55.7056 81.3056 105.2672 81.3056s92.7744-33.3824 105.2672-81.3056c1.2288-4.5056 5.3248-7.5776 9.8304-7.5776h2.4576c2.8672 0 5.5296 1.2288 7.5776 3.2768 1.8432 2.048 2.8672 4.9152 2.6624 7.7824-3.8912 45.4656-16.384 86.8352-35.6352 119.1936-15.9744 26.8288-24.3712 57.1392-24.3712 87.6544v10.0352c0 37.2736-30.5152 67.584-67.7888 67.584z" fill="#1C1D21" p-id="13535"></path><path d="M432.7424 762.4704c-3.6864 0-7.168-2.048-9.0112-5.3248-1.2288-2.4576-2.6624-4.7104-3.8912-6.9632-2.8672-4.9152-1.2288-11.0592 3.4816-14.1312 4.9152-2.8672 11.0592-1.2288 14.1312 3.4816 1.4336 2.4576 3.072 5.12 4.5056 7.7824 2.6624 4.9152 0.8192 11.264-4.096 13.9264-1.8432 0.8192-3.4816 1.2288-5.12 1.2288z" fill="#1C1D21" p-id="13536"></path><path d="M262.9632 491.7248c-4.096 0-7.9872-2.4576-9.6256-6.7584-2.048-5.3248 0.8192-11.264 5.9392-13.1072 1.4336-0.4096 2.6624-1.024 4.096-1.6384 5.3248-2.048 11.264 0.4096 13.312 5.7344 2.048 5.3248-0.4096 11.264-5.7344 13.312-1.4336 0.6144-2.8672 1.2288-4.3008 1.6384-1.2288 0.6144-2.4576 0.8192-3.6864 0.8192zM159.5392 522.24c-5.7344 0-10.24-4.5056-10.24-10.24 0-14.7456 12.0832-26.8288 26.8288-26.8288h10.0352c14.5408 0 29.2864-1.6384 43.6224-4.7104 5.5296-1.2288 11.0592 2.2528 12.0832 7.7824 1.2288 5.5296-2.2528 11.0592-7.7824 12.0832-15.7696 3.2768-31.9488 5.12-47.9232 5.12H176.128c-3.4816 0-6.3488 2.8672-6.3488 6.3488 0 5.9392-4.5056 10.4448-10.24 10.4448z" fill="#FFFFFF" p-id="13537"></path><path d="M481.4848 771.2768c-4.096 0-7.9872-2.4576-9.6256-6.7584-0.4096-1.4336-1.024-2.6624-1.6384-4.096-2.048-5.3248 0.4096-11.264 5.7344-13.312 5.3248-2.048 11.264 0.4096 13.312 5.7344 0.6144 1.4336 1.2288 2.8672 1.6384 4.3008 2.048 5.3248-0.6144 11.264-5.9392 13.1072-1.024 0.8192-2.2528 1.024-3.4816 1.024zM512 874.7008c-14.7456 0-26.8288-12.0832-26.8288-26.8288v-10.0352c0-14.5408-1.6384-29.2864-4.7104-43.6224-1.2288-5.5296 2.2528-11.0592 7.7824-12.0832 5.5296-1.2288 11.0592 2.2528 12.0832 7.7824 3.2768 15.7696 5.12 31.9488 5.12 47.9232v10.0352c0 3.4816 2.8672 6.3488 6.3488 6.3488 5.7344 0 10.24 4.5056 10.24 10.24s-4.3008 10.24-10.0352 10.24z" fill="#FFECE9" p-id="13538"></path><path d="M837.8368 569.5488h10.0352c31.744 0 57.5488-25.8048 57.5488-57.5488 0-31.744-25.8048-57.5488-57.5488-57.5488h-10.0352c-32.768 0-64.7168-9.216-92.9792-26.0096-30.3104-18.0224-70.2464-30.3104-114.8928-34.2016v2.4576c51.2 13.312 89.088 59.8016 89.088 115.0976s-37.888 101.7856-89.088 115.0976v2.4576c44.6464-3.8912 84.7872-16.1792 114.8928-34.2016 28.0576-16.5888 60.2112-25.6 92.9792-25.6z" fill="#FF8939" p-id="13539"></path><path d="M756.736 554.3936c-4.096 0-7.9872-2.4576-9.6256-6.5536-2.048-5.3248 0.4096-11.264 5.7344-13.312 1.4336-0.6144 2.8672-1.2288 4.3008-1.6384 5.3248-2.048 11.264 0.8192 13.1072 5.9392 2.048 5.3248-0.8192 11.264-5.9392 13.1072-1.4336 0.4096-2.6624 1.024-4.096 1.6384-1.024 0.4096-2.2528 0.8192-3.4816 0.8192zM791.9616 543.5392c-4.7104 0-9.0112-3.2768-10.0352-8.192-1.2288-5.5296 2.2528-11.0592 7.7824-12.0832 15.7696-3.2768 31.9488-5.12 47.9232-5.12h10.0352c3.4816 0 6.3488-2.8672 6.3488-6.3488 0-5.7344 4.5056-10.24 10.24-10.24s10.24 4.5056 10.24 10.24c0 14.7456-12.0832 26.8288-26.8288 26.8288H837.632c-14.5408 0-29.2864 1.6384-43.6224 4.7104-0.6144 0.2048-1.2288 0.2048-2.048 0.2048z" fill="#FFC9A4" p-id="13540"></path><path d="M544.1536 277.504c-4.096 0-7.9872-2.4576-9.6256-6.5536-0.6144-1.4336-1.2288-2.8672-1.6384-4.3008-2.048-5.3248 0.6144-11.264 5.9392-13.1072 5.3248-2.048 11.264 0.8192 13.1072 5.9392 0.4096 1.4336 1.024 2.6624 1.6384 4.096 2.048 5.3248-0.4096 11.264-5.7344 13.312-1.2288 0.4096-2.4576 0.6144-3.6864 0.6144zM533.2992 242.2784c-4.7104 0-9.0112-3.2768-10.0352-8.192-3.2768-15.7696-5.12-31.9488-5.12-47.9232V176.128c0-3.4816-2.8672-6.3488-6.3488-6.3488-5.7344 0-10.24-4.5056-10.24-10.24s4.5056-10.24 10.24-10.24c14.7456 0 26.8288 12.0832 26.8288 26.8288v10.0352c0 14.5408 1.6384 29.2864 4.7104 43.6224 1.2288 5.5296-2.2528 11.0592-7.7824 12.0832-0.8192 0.2048-1.4336 0.4096-2.2528 0.4096z" fill="#FFA364" p-id="13541"></path><path d="M629.9648 640c-2.4576 0-5.12-1.024-6.9632-2.6624-2.048-1.8432-3.2768-4.7104-3.2768-7.5776v-2.4576c0-4.7104 3.072-8.8064 7.5776-9.8304 47.9232-12.4928 81.3056-55.7056 81.3056-105.2672s-33.3824-92.7744-81.3056-105.2672c-4.5056-1.2288-7.5776-5.3248-7.5776-9.8304v-2.4576c0-2.8672 1.2288-5.5296 3.2768-7.5776s4.9152-2.8672 7.7824-2.6624c45.4656 3.8912 86.8352 16.384 119.1936 35.6352 26.8288 15.9744 57.1392 24.3712 87.6544 24.3712h10.0352c37.2736 0 67.7888 30.3104 67.7888 67.7888s-30.3104 67.7888-67.7888 67.7888H837.632c-14.7456 0-29.4912 2.048-43.8272 5.9392-5.5296 1.4336-11.0592-1.8432-12.4928-7.168-1.4336-5.5296 1.8432-11.0592 7.168-12.4928 16.1792-4.3008 32.5632-6.5536 49.152-6.5536h10.0352c26.0096 0 47.3088-21.2992 47.3088-47.3088s-21.2992-47.3088-47.3088-47.3088H837.632c-34.2016 0-68.1984-9.4208-98.0992-27.4432-15.7696-9.4208-34.4064-17.2032-54.6816-22.9376 27.4432 23.9616 44.4416 59.1872 44.4416 97.4848 0 38.2976-16.9984 73.5232-44.4416 97.4848 8.3968-2.4576 16.5888-5.12 24.576-8.192 5.3248-2.048 11.264 0.6144 13.312 5.7344 2.048 5.3248-0.6144 11.264-5.7344 13.312-26.0096 10.24-55.0912 16.7936-86.016 19.456h-1.024z" fill="#1C1D21" p-id="13542"></path><path d="M744.8576 605.5936c-3.4816 0-6.9632-1.8432-8.8064-4.9152-2.8672-4.9152-1.2288-11.0592 3.4816-14.1312 2.6624-1.4336 5.12-3.072 7.7824-4.5056 4.9152-2.6624 11.264-0.8192 13.9264 4.096 2.6624 4.9152 0.8192 11.264-4.096 13.9264-2.2528 1.2288-4.7104 2.6624-6.9632 3.8912-1.6384 1.2288-3.4816 1.6384-5.3248 1.6384zM629.76 404.2752h-2.4576c-4.7104 0-8.8064-3.072-9.8304-7.5776-12.4928-47.9232-55.7056-81.3056-105.2672-81.3056s-92.7744 33.3824-105.2672 81.3056c-1.2288 4.5056-5.3248 7.5776-9.8304 7.5776h-2.4576c-2.8672 0-5.5296-1.2288-7.5776-3.2768-1.8432-2.048-2.8672-4.9152-2.6624-7.7824 3.8912-45.4656 16.384-86.8352 35.6352-119.1936 15.9744-26.8288 24.3712-57.1392 24.3712-87.6544v-10.24c0-37.2736 30.3104-67.7888 67.7888-67.7888s67.7888 30.3104 67.7888 67.7888v10.0352c0 14.7456 2.048 29.4912 5.9392 43.8272 1.4336 5.5296-1.8432 11.0592-7.168 12.4928-5.5296 1.4336-11.0592-1.8432-12.4928-7.168-4.3008-16.1792-6.5536-32.5632-6.5536-49.152V176.128c0-26.0096-21.2992-47.3088-47.3088-47.3088S464.6912 150.1184 464.6912 176.128v10.0352c0 34.2016-9.4208 68.1984-27.4432 98.0992-9.4208 15.7696-17.2032 34.4064-22.9376 54.6816 23.9616-27.4432 59.1872-44.4416 97.4848-44.4416 38.2976 0 73.5232 16.9984 97.4848 44.4416-2.4576-8.3968-5.12-16.5888-8.192-24.576-2.048-5.3248 0.6144-11.264 5.7344-13.312 5.3248-2.048 11.264 0.6144 13.312 5.7344 10.24 26.0096 16.7936 55.0912 19.456 86.016 0.2048 2.8672-0.6144 5.7344-2.6624 7.7824-1.6384 2.4576-4.3008 3.6864-7.168 3.6864z" fill="#1C1D21" p-id="13543"></path><path d="M595.3536 289.3824c-3.4816 0-6.9632-1.8432-8.8064-4.9152-1.4336-2.4576-3.072-5.12-4.5056-7.7824-2.6624-4.9152-0.8192-11.264 4.096-13.9264 4.9152-2.6624 11.264-0.8192 13.9264 4.096 1.2288 2.4576 2.6624 4.7104 3.8912 6.9632 2.8672 4.9152 1.2288 11.0592-3.4816 14.1312-1.4336 1.024-3.2768 1.4336-5.12 1.4336z" fill="#1C1D21" p-id="13544"></path></svg>