<svg xmlns="http://www.w3.org/2000/svg" viewBox="0 0 1024 1024" version="1.1"><path d="M512 512m-501.76 0a501.76 501.76 0 1 0 1003.52 0 501.76 501.76 0 1 0-1003.52 0Z" fill="#8CEEF9" p-id="17246"></path><path d="M401.6128 442.9824l-32.768 32.768c-5.3248 5.3248-14.5408 1.6384-14.5408-5.9392v-194.3552c0-14.336-11.264-26.624-25.6-27.0336-15.1552-0.6144-27.4432 11.4688-27.4432 26.4192v-51.8144c0-14.336-11.264-26.624-25.6-27.0336-15.1552-0.6144-27.4432 11.4688-27.4432 26.4192v36.2496c0-14.9504-12.288-27.0336-27.4432-26.4192-14.336 0.4096-25.6 12.6976-25.6 27.0336V319.488c0-14.9504-12.288-27.0336-27.4432-26.4192-14.336 0.4096-25.6 12.6976-25.6 27.0336v531.2512c53.4528 58.1632 120.4224 103.6288 195.7888 131.4816V651.6736c0-17.408 5.7344-34.2016 16.1792-48.128l122.0608-160.5632c-20.2752-20.48-53.8624-20.48-74.5472 0zM881.4592 851.5584V320.1024c0-14.336-11.264-26.624-25.6-27.0336-15.1552-0.6144-27.4432 11.4688-27.4432 26.4192v-60.2112c0-14.336-11.264-26.624-25.6-27.0336-15.1552-0.6144-27.4432 11.4688-27.4432 26.4192v-36.2496c0-14.9504-12.288-27.0336-27.4432-26.4192-14.336 0.4096-25.6 12.6976-25.6 27.0336v51.8144c0-14.9504-12.288-27.0336-27.4432-26.4192-14.336 0.4096-25.6 12.6976-25.6 27.0336v194.3552c0 7.5776-9.216 11.264-14.5408 5.9392l-32.768-32.768c-20.6848-20.6848-54.272-20.6848-74.9568 0l122.0608 160.5632c10.4448 13.9264 16.1792 30.72 16.1792 48.128v331.1616c75.776-27.8528 142.7456-73.3184 196.1984-131.2768z" fill="#C67552" p-id="17247"></path><path d="M512 1024c-136.8064 0-265.4208-53.248-362.0864-149.9136C53.248 777.4208 0 648.8064 0 512S53.248 246.5792 149.9136 149.9136C246.5792 53.248 375.1936 0 512 0s265.4208 53.248 362.0864 149.9136C970.752 246.5792 1024 375.1936 1024 512s-53.248 265.4208-149.9136 362.0864C777.4208 970.752 648.8064 1024 512 1024z m0-1003.52C241.0496 20.48 20.48 241.0496 20.48 512s220.5696 491.52 491.52 491.52 491.52-220.5696 491.52-491.52S782.9504 20.48 512 20.48z" fill="#1C1D21" p-id="17248"></path><path d="M195.584 403.0464c-5.7344 0-10.24-4.5056-10.24-10.24v-72.4992c0-5.7344 4.5056-10.24 10.24-10.24s10.24 4.5056 10.24 10.24v72.4992c0 5.7344-4.7104 10.24-10.24 10.24zM248.4224 403.0464c-5.7344 0-10.24-4.5056-10.24-10.24v-134.144c0-5.7344 4.5056-10.24 10.24-10.24s10.24 4.5056 10.24 10.24v134.144c0 5.7344-4.5056 10.24-10.24 10.24zM301.4656 403.0464c-5.7344 0-10.24-4.5056-10.24-10.24v-117.9648c0-5.7344 4.5056-10.24 10.24-10.24s10.24 4.5056 10.24 10.24v117.9648c0 5.7344-4.7104 10.24-10.24 10.24z" fill="#1C1D21" p-id="17249"></path><path d="M338.3296 993.0752c-1.2288 0-2.4576-0.2048-3.4816-0.6144-75.776-27.8528-144.7936-74.3424-199.8848-134.144-1.6384-1.8432-2.6624-4.3008-2.6624-6.9632V320.1024c0-20.2752 15.5648-36.6592 35.4304-37.2736 6.144-0.2048 12.288 1.024 17.6128 3.6864v-27.2384c0-20.2752 15.5648-36.6592 35.4304-37.2736 6.144-0.2048 12.0832 1.024 17.6128 3.6864v-3.2768c0-10.0352 3.8912-19.456 11.264-26.4192 7.168-6.9632 16.7936-10.6496 26.8288-10.24 19.8656 0.6144 35.4304 16.9984 35.4304 37.2736v18.8416c5.3248-2.6624 11.264-3.8912 17.6128-3.6864 19.8656 0.6144 35.4304 16.9984 35.4304 37.2736v190.2592l29.9008-29.9008c24.576-24.576 64.7168-24.576 89.2928 0 3.6864 3.6864 4.096 9.4208 0.8192 13.5168l-122.0608 160.5632c-9.0112 11.8784-14.1312 26.8288-14.1312 41.7792v331.1616c0 3.2768-1.6384 6.5536-4.3008 8.3968-2.048 1.2288-4.096 1.8432-6.144 1.8432z m-185.5488-145.6128c48.9472 52.4288 109.1584 93.7984 175.3088 120.4224V651.6736c0-19.456 6.5536-38.7072 18.2272-54.272l115.9168-152.7808c-16.5888-10.8544-38.912-9.0112-53.4528 5.5296l-32.768 32.768c-5.3248 5.3248-13.312 6.9632-20.48 4.096-6.9632-2.8672-11.4688-9.6256-11.4688-17.2032v-194.3552c0-9.0112-6.9632-16.5888-15.5648-16.7936-4.5056-0.2048-8.6016 1.4336-11.8784 4.5056-3.2768 3.072-4.9152 7.168-4.9152 11.6736 0 5.7344-4.5056 10.24-10.24 10.24s-10.24-4.5056-10.24-10.24v-51.8144c0-9.0112-6.9632-16.5888-15.5648-16.7936-4.5056-0.2048-8.6016 1.4336-11.8784 4.5056-3.2768 3.072-4.9152 7.168-4.9152 11.6736v36.2496c0 5.7344-4.5056 10.24-10.24 10.24s-10.24-4.5056-10.24-10.24c0-4.5056-1.8432-8.6016-4.9152-11.6736-3.2768-3.072-7.3728-4.7104-11.8784-4.5056-8.6016 0.2048-15.5648 7.7824-15.5648 16.7936V319.488c0 5.7344-4.5056 10.24-10.24 10.24s-10.24-4.5056-10.24-10.24c0-4.5056-1.8432-8.6016-4.9152-11.6736-3.2768-3.072-7.3728-4.7104-11.8784-4.5056-8.6016 0.2048-15.5648 7.7824-15.5648 16.7936v527.36z" fill="#1C1D21" p-id="17250"></path><path d="M183.5008 502.784c-5.7344 0-10.24-4.5056-10.24-10.24V479.232c0-5.7344 4.5056-10.24 10.24-10.24s10.24 4.5056 10.24 10.24v13.312c0 5.7344-4.5056 10.24-10.24 10.24zM183.5008 845.4144c-5.7344 0-10.24-4.5056-10.24-10.24V541.696c0-5.7344 4.5056-10.24 10.24-10.24s10.24 4.5056 10.24 10.24v293.4784c0 5.5296-4.5056 10.24-10.24 10.24z" fill="#FFA364" p-id="17251"></path><path d="M828.416 403.0464c-5.7344 0-10.24-4.5056-10.24-10.24v-72.4992c0-5.7344 4.5056-10.24 10.24-10.24s10.24 4.5056 10.24 10.24v72.4992c0 5.7344-4.5056 10.24-10.24 10.24zM775.5776 403.0464c-5.7344 0-10.24-4.5056-10.24-10.24v-134.144c0-5.7344 4.5056-10.24 10.24-10.24s10.24 4.5056 10.24 10.24v134.144c0 5.7344-4.5056 10.24-10.24 10.24zM722.5344 403.0464c-5.7344 0-10.24-4.5056-10.24-10.24v-117.9648c0-5.7344 4.5056-10.24 10.24-10.24s10.24 4.5056 10.24 10.24v117.9648c0 5.7344-4.5056 10.24-10.24 10.24z" fill="#1C1D21" p-id="17252"></path><path d="M685.6704 993.0752c-2.048 0-4.096-0.6144-5.9392-1.8432-2.6624-1.8432-4.3008-5.12-4.3008-8.3968V651.6736c0-14.9504-4.9152-29.9008-14.1312-41.7792l-122.0608-160.5632c-3.072-4.096-2.6624-9.8304 0.8192-13.5168 11.8784-11.8784 27.8528-18.432 44.6464-18.432 16.7936 0 32.768 6.5536 44.6464 18.432l29.9008 29.9008v-190.2592c0-20.2752 15.5648-36.6592 35.4304-37.2736 6.144-0.2048 12.0832 1.024 17.6128 3.6864v-18.8416c0-20.2752 15.5648-36.6592 35.4304-37.2736 10.0352-0.4096 19.6608 3.2768 26.8288 10.24s11.264 16.384 11.264 26.4192v3.2768c5.3248-2.6624 11.264-3.8912 17.6128-3.6864 19.8656 0.6144 35.4304 16.9984 35.4304 37.2736v27.2384c5.3248-2.6624 11.4688-3.8912 17.6128-3.6864 19.8656 0.6144 35.4304 16.9984 35.4304 37.2736v531.2512c0 2.6624-1.024 5.12-2.6624 6.9632-54.8864 59.8016-124.1088 106.0864-199.8848 134.144-1.2288 0.4096-2.4576 0.6144-3.6864 0.6144z m-124.1088-548.2496l115.9168 152.7808c11.8784 15.5648 18.2272 34.816 18.2272 54.272v316.2112c66.1504-26.624 126.3616-68.1984 175.3088-120.4224V320.1024c0-9.0112-6.9632-16.5888-15.5648-16.7936-4.5056-0.2048-8.6016 1.4336-11.8784 4.5056-3.2768 3.072-4.9152 7.168-4.9152 11.6736 0 5.7344-4.5056 10.24-10.24 10.24s-10.24-4.5056-10.24-10.24v-60.2112c0-9.0112-6.9632-16.5888-15.5648-16.7936-4.5056-0.2048-8.6016 1.4336-11.8784 4.5056-3.2768 3.072-4.9152 7.168-4.9152 11.6736 0 5.7344-4.5056 10.24-10.24 10.24s-10.24-4.5056-10.24-10.24v-36.2496c0-4.5056-1.8432-8.6016-4.9152-11.6736-3.2768-3.072-7.3728-4.7104-11.8784-4.5056-8.6016 0.2048-15.5648 7.7824-15.5648 16.7936v51.8144c0 5.7344-4.5056 10.24-10.24 10.24s-10.24-4.5056-10.24-10.24c0-4.5056-1.8432-8.6016-4.9152-11.6736-3.2768-3.072-7.3728-4.7104-11.8784-4.5056-8.6016 0.2048-15.5648 7.7824-15.5648 16.7936v194.3552c0 7.5776-4.5056 14.336-11.4688 17.2032-6.9632 2.8672-14.9504 1.2288-20.48-4.096l-32.768-32.768c-7.9872-7.9872-18.8416-12.4928-30.1056-12.4928-8.8064 0.2048-16.7936 2.6624-23.7568 7.168z m319.8976 406.7328z" fill="#1C1D21" p-id="17253"></path><path d="M662.528 536.9856c-3.072 0-6.144-1.4336-8.192-4.096l-5.7344-7.5776c-3.4816-4.5056-2.4576-10.8544 2.048-14.336 4.5056-3.4816 10.8544-2.4576 14.336 2.048l5.7344 7.5776c3.4816 4.5056 2.4576 10.8544-2.048 14.336-1.8432 1.4336-4.096 2.048-6.144 2.048zM726.6304 929.9968c-5.7344 0-10.24-4.5056-10.24-10.24V651.6736c0-23.9616-7.9872-47.5136-22.528-66.56l-11.8784-15.5648c-3.4816-4.5056-2.4576-10.8544 2.048-14.336 4.5056-3.4816 10.8544-2.4576 14.336 2.048l11.8784 15.5648c17.2032 22.528 26.624 50.5856 26.624 79.0528v268.0832c0 5.5296-4.5056 10.0352-10.24 10.0352z" fill="#FFA364" p-id="17254"></path><path d="M337.92 737.28H142.7456c-11.264 0-20.48-9.216-20.48-20.48v-66.56c0-11.264 9.216-20.48 20.48-20.48H337.92c11.264 0 20.48 9.216 20.48 20.48V716.8c0 11.264-9.216 20.48-20.48 20.48zM881.2544 737.28H686.08c-11.264 0-20.48-9.216-20.48-20.48v-66.56c0-11.264 9.216-20.48 20.48-20.48h195.1744c11.264 0 20.48 9.216 20.48 20.48V716.8c0 11.264-9.0112 20.48-20.48 20.48z" fill="#AAADAD" p-id="17255"></path><path d="M402.8416 758.1696c-8.8064 0-17.408-3.2768-23.9616-10.0352l-20.6848-20.6848c-13.312-13.312-13.312-34.816 0-48.128 6.3488-6.3488 14.9504-10.0352 23.9616-10.0352 9.0112 0 17.6128 3.4816 23.9616 10.0352l20.6848 20.6848c6.3488 6.3488 10.0352 14.9504 10.0352 23.9616 0 9.0112-3.4816 17.6128-10.0352 23.9616-6.5536 6.7584-15.1552 10.24-23.9616 10.24z m-20.6848-68.1984c-3.6864 0-6.9632 1.4336-9.6256 3.8912-5.3248 5.3248-5.3248 13.9264 0 19.0464l20.6848 20.6848c5.3248 5.3248 13.9264 5.3248 19.0464 0 2.4576-2.4576 3.8912-5.9392 3.8912-9.6256 0-3.6864-1.4336-6.9632-3.8912-9.6256l-20.6848-20.6848c-2.4576-2.4576-5.7344-3.6864-9.4208-3.6864z" fill="#1C1D21" p-id="17256"></path><path d="M457.1136 812.4416c-8.8064 0-17.408-3.2768-23.9616-10.0352l-20.6848-20.6848c-6.3488-6.3488-10.0352-14.9504-10.0352-23.9616 0-9.0112 3.4816-17.6128 10.0352-23.9616s14.9504-10.0352 23.9616-10.0352c9.0112 0 17.6128 3.4816 23.9616 10.0352l20.6848 20.6848c6.3488 6.3488 10.0352 14.9504 10.0352 23.9616 0 9.0112-3.4816 17.6128-10.0352 23.9616-6.5536 6.7584-15.1552 10.0352-23.9616 10.0352z m-20.6848-68.1984c-3.4816 0-6.9632 1.2288-9.6256 3.8912-2.4576 2.4576-3.8912 5.9392-3.8912 9.6256s1.4336 6.9632 3.8912 9.6256l20.6848 20.6848c5.3248 5.3248 13.9264 5.3248 19.0464 0 2.4576-2.4576 3.8912-5.9392 3.8912-9.6256s-1.4336-6.9632-3.8912-9.6256l-20.6848-20.6848c-2.4576-2.6624-5.9392-3.8912-9.4208-3.8912zM621.1584 758.1696c-8.8064 0-17.408-3.2768-23.9616-10.0352-6.3488-6.3488-10.0352-14.9504-10.0352-23.9616 0-9.0112 3.4816-17.6128 10.0352-23.9616l20.6848-20.6848c6.3488-6.3488 14.9504-10.0352 23.9616-10.0352 9.0112 0 17.6128 3.4816 23.9616 10.0352 13.312 13.312 13.312 34.816 0 48.128l-20.6848 20.48c-6.5536 6.5536-15.36 10.0352-23.9616 10.0352z m20.6848-68.1984c-3.6864 0-6.9632 1.4336-9.6256 3.8912l-20.6848 20.6848c-2.4576 2.4576-3.8912 5.9392-3.8912 9.6256 0 3.6864 1.4336 6.9632 3.8912 9.6256 5.3248 5.3248 13.9264 5.3248 19.0464 0l20.6848-20.6848c5.3248-5.3248 5.3248-13.9264 0-19.0464-2.4576-2.8672-5.7344-4.096-9.4208-4.096z m-37.4784 17.408z" fill="#1C1D21" p-id="17257"></path><path d="M566.8864 812.4416c-8.8064 0-17.408-3.2768-23.9616-10.0352-6.3488-6.3488-10.0352-14.9504-10.0352-23.9616 0-9.0112 3.4816-17.6128 10.0352-23.9616l20.6848-20.6848c6.3488-6.3488 14.9504-10.0352 23.9616-10.0352 9.0112 0 17.6128 3.4816 23.9616 10.0352s10.0352 14.9504 10.0352 23.9616c0 9.0112-3.4816 17.6128-10.0352 23.9616l-20.6848 20.6848c-6.5536 6.7584-15.36 10.0352-23.9616 10.0352z m20.6848-68.1984c-3.4816 0-6.9632 1.2288-9.6256 3.8912l-20.6848 20.6848c-2.4576 2.4576-3.8912 5.9392-3.8912 9.6256s1.4336 6.9632 3.8912 9.6256c5.3248 5.3248 13.9264 5.3248 19.0464 0l20.6848-20.6848c2.4576-2.4576 3.8912-5.9392 3.8912-9.6256s-1.4336-6.9632-3.8912-9.6256c-2.4576-2.6624-5.9392-3.8912-9.4208-3.8912z m-37.4784 17.408z" fill="#1C1D21" p-id="17258"></path><path d="M183.5008 744.2432c-5.7344 0-10.24-4.5056-10.24-10.24v-104.2432c0-5.7344 4.5056-10.24 10.24-10.24s10.24 4.5056 10.24 10.24v104.2432c0 5.5296-4.5056 10.24-10.24 10.24z" fill="#E0E0E0" p-id="17259"></path><path d="M337.92 747.52H142.7456c-16.9984 0-30.72-13.7216-30.72-30.72v-66.56c0-16.9984 13.7216-30.72 30.72-30.72H337.92c16.9984 0 30.72 13.7216 30.72 30.72V716.8c0 16.9984-13.7216 30.72-30.72 30.72z m-195.1744-107.52c-5.7344 0-10.24 4.5056-10.24 10.24V716.8c0 5.7344 4.5056 10.24 10.24 10.24H337.92c5.7344 0 10.24-4.5056 10.24-10.24v-66.56c0-5.7344-4.5056-10.24-10.24-10.24H142.7456z" fill="#1C1D21" p-id="17260"></path><path d="M726.6304 747.52c-5.7344 0-10.24-4.5056-10.24-10.24v-85.6064c0-6.7584-0.6144-13.5168-1.8432-20.0704-1.024-5.5296 2.6624-10.8544 8.192-11.8784s10.8544 2.6624 11.8784 8.192c1.4336 7.9872 2.2528 15.9744 2.2528 23.9616V737.28c0 5.7344-4.5056 10.24-10.24 10.24z" fill="#E0E0E0" p-id="17261"></path><path d="M881.2544 747.52H686.08c-16.9984 0-30.72-13.7216-30.72-30.72v-66.56c0-16.9984 13.7216-30.72 30.72-30.72h195.1744c16.9984 0 30.72 13.7216 30.72 30.72V716.8c0 16.9984-13.7216 30.72-30.72 30.72zM686.08 640c-5.7344 0-10.24 4.5056-10.24 10.24V716.8c0 5.7344 4.5056 10.24 10.24 10.24h195.1744c5.7344 0 10.24-4.5056 10.24-10.24v-66.56c0-5.7344-4.5056-10.24-10.24-10.24H686.08zM485.9904 836.1984c-5.7344 0-10.24-4.5056-10.24-10.24 0-7.3728-6.144-13.5168-13.5168-13.5168-7.3728 0-13.5168 6.144-13.5168 13.5168 0 5.7344-4.5056 10.24-10.24 10.24s-10.24-4.5056-10.24-10.24c0-18.8416 15.36-33.9968 33.9968-33.9968s33.9968 15.36 33.9968 33.9968c0 5.7344-4.5056 10.24-10.24 10.24zM438.4768 874.496c-5.7344 0-10.24-4.5056-10.24-10.24v-5.12c0-5.7344 4.5056-10.24 10.24-10.24s10.24 4.5056 10.24 10.24v5.12c0 5.7344-4.5056 10.24-10.24 10.24zM485.9904 874.496c-5.7344 0-10.24-4.5056-10.24-10.24v-5.12c0-5.7344 4.5056-10.24 10.24-10.24s10.24 4.5056 10.24 10.24v5.12c0 5.7344-4.5056 10.24-10.24 10.24zM585.5232 836.1984c-5.7344 0-10.24-4.5056-10.24-10.24 0-7.3728-6.144-13.5168-13.5168-13.5168-7.3728 0-13.5168 6.144-13.5168 13.5168 0 5.7344-4.5056 10.24-10.24 10.24s-10.24-4.5056-10.24-10.24c0-18.8416 15.1552-33.9968 33.9968-33.9968s33.9968 15.36 33.9968 33.9968c0 5.7344-4.5056 10.24-10.24 10.24zM538.0096 874.496c-5.7344 0-10.24-4.5056-10.24-10.24v-5.12c0-5.7344 4.5056-10.24 10.24-10.24s10.24 4.5056 10.24 10.24v5.12c0 5.7344-4.5056 10.24-10.24 10.24zM585.5232 874.496c-5.7344 0-10.24-4.5056-10.24-10.24v-5.12c0-5.7344 4.5056-10.24 10.24-10.24s10.24 4.5056 10.24 10.24v5.12c0 5.7344-4.5056 10.24-10.24 10.24z" fill="#1C1D21" p-id="17262"></path></svg>