<svg xmlns="http://www.w3.org/2000/svg" viewBox="0 0 1024 1024" version="1.1"><path d="M512 512m-501.76 0a501.76 501.76 0 1 0 1003.52 0 501.76 501.76 0 1 0-1003.52 0Z" fill="#8CEEF9" p-id="14770"></path><path d="M747.52 593.92H537.3952v-123.904c0-11.264 9.216-20.48 20.48-20.48H727.04c11.264 0 20.48 9.216 20.48 20.48V593.92z" fill="#ABD1FF" p-id="14771"></path><path d="M537.3952 558.08H747.52V593.92H537.3952z" fill="#AAADAD" p-id="14772"></path><path d="M787.8656 644.5056H236.1344c-13.9264 0-25.1904-11.264-25.1904-25.1904 0-13.9264 11.264-25.1904 25.1904-25.1904h551.5264c13.9264 0 25.1904 11.264 25.1904 25.1904 0.2048 13.7216-11.0592 25.1904-24.9856 25.1904z" fill="#FFECE9" p-id="14773"></path><path d="M787.8656 654.7456h-107.1104c-5.7344 0-10.24-4.5056-10.24-10.24s4.5056-10.24 10.24-10.24h107.1104c8.192 0 14.9504-6.7584 14.9504-14.9504s-6.7584-14.9504-14.9504-14.9504H236.1344c-8.192 0-14.9504 6.7584-14.9504 14.9504s6.7584 14.9504 14.9504 14.9504h342.2208c5.7344 0 10.24 4.5056 10.24 10.24s-4.5056 10.24-10.24 10.24H236.1344c-19.6608 0-35.4304-15.9744-35.4304-35.4304s15.9744-35.4304 35.4304-35.4304h551.5264c19.6608 0 35.4304 15.9744 35.4304 35.4304s-15.7696 35.4304-35.2256 35.4304z" fill="#1C1D21" p-id="14774"></path><path d="M642.4576 654.7456H628.736c-5.7344 0-10.24-4.5056-10.24-10.24s4.5056-10.24 10.24-10.24h13.7216c5.7344 0 10.24 4.5056 10.24 10.24s-4.5056 10.24-10.24 10.24z" fill="#1C1D21" p-id="14775"></path><path d="M512 1013.76c140.6976 0 267.8784-57.9584 359.0144-151.1424H152.9856C244.1216 955.8016 371.3024 1013.76 512 1013.76z" fill="#0ABFB2" p-id="14776"></path><path d="M512 1024c-139.0592 0-269.1072-54.8864-366.1824-154.2144-2.8672-2.8672-3.6864-7.3728-2.048-11.0592 1.6384-3.8912 5.3248-6.3488 9.4208-6.3488h717.824c4.096 0 7.7824 2.4576 9.4208 6.3488 1.6384 3.8912 0.8192 8.192-2.048 11.0592-97.28 99.328-227.328 154.2144-366.3872 154.2144zM178.176 872.8576c91.136 84.3776 208.6912 130.6624 333.824 130.6624s242.688-46.2848 333.824-130.6624H178.176z" fill="#1C1D21" p-id="14777"></path><path d="M512 1024c-136.8064 0-265.4208-53.248-362.0864-149.9136C53.248 777.4208 0 648.8064 0 512S53.248 246.5792 149.9136 149.9136C246.5792 53.248 375.1936 0 512 0s265.4208 53.248 362.0864 149.9136C970.752 246.5792 1024 375.1936 1024 512s-53.248 265.4208-149.9136 362.0864C777.4208 970.752 648.8064 1024 512 1024z m0-1003.52C241.0496 20.48 20.48 241.0496 20.48 512s220.5696 491.52 491.52 491.52 491.52-220.5696 491.52-491.52S782.9504 20.48 512 20.48z" fill="#1C1D21" p-id="14778"></path><path d="M267.264 644.5056H305.152v218.112h-37.888z" fill="#C67552" p-id="14779"></path><path d="M305.152 872.8576h-37.888c-5.7344 0-10.24-4.5056-10.24-10.24V644.5056c0-5.7344 4.5056-10.24 10.24-10.24H305.152c5.7344 0 10.24 4.5056 10.24 10.24v218.112c0 5.5296-4.5056 10.24-10.24 10.24z m-27.648-20.48h17.408v-197.632h-17.408v197.632z" fill="#1C1D21" p-id="14780"></path><path d="M718.848 644.5056h37.888v218.112H718.848z" fill="#C67552" p-id="14781"></path><path d="M756.736 872.8576H718.848c-5.7344 0-10.24-4.5056-10.24-10.24V644.5056c0-5.7344 4.5056-10.24 10.24-10.24h37.888c5.7344 0 10.24 4.5056 10.24 10.24v218.112c0 5.5296-4.5056 10.24-10.24 10.24z m-27.648-20.48h17.408v-197.632H729.088v197.632z" fill="#1C1D21" p-id="14782"></path><path d="M475.9552 693.6576h-71.0656c-33.9968 0-61.44-27.4432-61.44-61.44v-105.0624c0-33.9968 27.4432-61.44 61.44-61.44h71.0656c33.9968 0 61.44 27.4432 61.44 61.44v105.0624c0 33.792-27.4432 61.44-61.44 61.44z" fill="#FFECE9" p-id="14783"></path><path d="M506.6752 771.6864h-132.5056c-16.9984 0-30.72-13.7216-30.72-30.72v-16.7936c0-16.9984 13.7216-30.72 30.72-30.72h132.5056c16.9984 0 30.72 13.7216 30.72 30.72v16.7936c0 16.9984-13.7216 30.72-30.72 30.72z" fill="#FFECE9" p-id="14784"></path><path d="M475.9552 703.8976h-71.0656c-39.5264 0-71.68-32.1536-71.68-71.68v-105.0624c0-39.5264 32.1536-71.68 71.68-71.68h71.0656c39.5264 0 71.68 32.1536 71.68 71.68v105.0624c0 39.5264-32.1536 71.68-71.68 71.68z m-70.8608-228.1472c-28.2624 0-51.2 22.9376-51.2 51.2v105.0624c0 28.2624 22.9376 51.2 51.2 51.2h71.0656c28.2624 0 51.2-22.9376 51.2-51.2v-105.0624c0-28.2624-22.9376-51.2-51.2-51.2h-71.0656z" fill="#1C1D21" p-id="14785"></path><path d="M384.6144 544.768c-5.7344 0-10.24-4.5056-10.24-10.24v-7.5776c0-5.7344 4.5056-10.24 10.24-10.24s10.24 4.5056 10.24 10.24v7.5776c0 5.7344-4.7104 10.24-10.24 10.24zM384.6144 642.4576c-5.7344 0-10.24-4.5056-10.24-10.24v-57.9584c0-5.7344 4.5056-10.24 10.24-10.24s10.24 4.5056 10.24 10.24v57.9584c0 5.5296-4.7104 10.24-10.24 10.24z" fill="#FFFFFF" p-id="14786"></path><path d="M506.6752 781.9264h-132.5056c-22.528 0-40.96-18.432-40.96-40.96v-16.7936c0-22.528 18.432-40.96 40.96-40.96h132.5056c22.528 0 40.96 18.432 40.96 40.96v16.7936c0 22.7328-18.432 40.96-40.96 40.96z m-132.3008-78.0288c-11.264 0-20.48 9.216-20.48 20.48v16.7936c0 11.264 9.216 20.48 20.48 20.48h132.5056c11.264 0 20.48-9.216 20.48-20.48v-16.7936c0-11.264-9.216-20.48-20.48-20.48h-132.5056z" fill="#1C1D21" p-id="14787"></path><path d="M377.0368 771.6864h37.888v90.7264h-37.888zM466.1248 771.6864h37.888v90.7264h-37.888z" fill="#C67552" p-id="14788"></path><path d="M414.9248 872.8576h-37.888c-5.7344 0-10.24-4.5056-10.24-10.24v-90.7264c0-5.7344 4.5056-10.24 10.24-10.24h37.888c5.7344 0 10.24 4.5056 10.24 10.24v90.7264c0 5.5296-4.7104 10.24-10.24 10.24z m-27.648-20.48h17.408v-70.2464h-17.408v70.2464zM504.0128 872.8576h-37.888c-5.7344 0-10.24-4.5056-10.24-10.24v-90.7264c0-5.7344 4.5056-10.24 10.24-10.24h37.888c5.7344 0 10.24 4.5056 10.24 10.24v90.7264c0 5.5296-4.7104 10.24-10.24 10.24z m-27.648-20.48h17.408v-70.2464h-17.408v70.2464zM747.52 604.16H537.3952c-5.7344 0-10.24-4.5056-10.24-10.24v-123.904c0-16.9984 13.7216-30.72 30.72-30.72H727.04c16.9984 0 30.72 13.7216 30.72 30.72V593.92c0 5.7344-4.5056 10.24-10.24 10.24z m-199.8848-20.48H737.28v-113.664c0-5.7344-4.5056-10.24-10.24-10.24h-169.1648c-5.7344 0-10.24 4.5056-10.24 10.24V583.68z" fill="#1C1D21" p-id="14789"></path><path d="M578.3552 503.808c-5.7344 0-10.24-4.5056-10.24-10.24v-3.072c0-5.7344 4.5056-10.24 10.24-10.24s10.24 4.5056 10.24 10.24v3.072c0 5.7344-4.5056 10.24-10.24 10.24zM578.3552 563.2c-5.7344 0-10.24-4.5056-10.24-10.24v-20.8896c0-5.7344 4.5056-10.24 10.24-10.24s10.24 4.5056 10.24 10.24V552.96c0 5.7344-4.5056 10.24-10.24 10.24z" fill="#FFFFFF" p-id="14790"></path><path d="M136.8064 855.2448c-5.7344 0-10.24-4.5056-10.24-10.24V518.5536c0-5.7344 4.5056-10.24 10.24-10.24s10.24 4.5056 10.24 10.24v326.4512c0 5.7344-4.7104 10.24-10.24 10.24z" fill="#1C1D21" p-id="14791"></path><path d="M886.3744 387.072c-21.7088 12.4928-36.2496 36.0448-36.2496 62.8736 0 26.8288 14.5408 50.176 36.2496 62.8736 21.7088-12.4928 36.2496-36.0448 36.2496-62.8736 0-26.8288-14.5408-50.3808-36.2496-62.8736z" fill="#0ABFB2" p-id="14792"></path><path d="M886.3744 522.8544c-1.8432 0-3.4816-0.4096-5.12-1.4336-25.6-14.7456-41.3696-42.1888-41.3696-71.68s15.7696-56.9344 41.3696-71.68c3.072-1.8432 7.168-1.8432 10.24 0 25.6 14.7456 41.3696 42.1888 41.3696 71.68s-15.7696 56.9344-41.3696 71.68c-1.6384 1.024-3.4816 1.4336-5.12 1.4336z m0-123.6992c-16.1792 11.6736-26.0096 30.5152-26.0096 50.5856s9.8304 38.912 26.0096 50.5856c16.1792-11.6736 26.0096-30.5152 26.0096-50.5856s-9.8304-38.912-26.0096-50.5856z" fill="#1C1D21" p-id="14793"></path><path d="M886.3744 855.2448c-5.7344 0-10.24-4.5056-10.24-10.24V518.5536c0-5.7344 4.5056-10.24 10.24-10.24s10.24 4.5056 10.24 10.24v326.4512c0 5.7344-4.7104 10.24-10.24 10.24z" fill="#1C1D21" p-id="14794"></path><path d="M805.0688 465.1008c21.504-5.7344 45.4656-0.2048 62.464 16.7936 16.9984 16.9984 22.528 40.7552 16.7936 62.464-21.504 5.7344-45.4656 0.2048-62.464-16.7936-16.9984-16.9984-22.528-40.96-16.7936-62.464z" fill="#0ABFB2" p-id="14795"></path><path d="M867.5328 556.6464c-19.6608 0-38.912-7.7824-53.0432-21.9136-18.8416-18.8416-26.2144-46.4896-19.456-72.2944 1.024-3.4816 3.6864-6.3488 7.168-7.168 25.8048-6.9632 53.4528 0.6144 72.2944 19.456 18.8416 18.8416 26.2144 46.4896 19.456 72.2944-1.024 3.4816-3.6864 6.3488-7.168 7.168-6.3488 1.6384-12.9024 2.4576-19.2512 2.4576z m-53.8624-82.944c-2.4576 16.9984 3.072 34.2016 15.36 46.4896s29.4912 17.8176 46.4896 15.36c2.4576-16.9984-3.072-34.2016-15.36-46.4896s-29.4912-17.8176-46.4896-15.36z" fill="#1C1D21" p-id="14796"></path><path d="M888.6272 544.1536c21.504 5.7344 45.4656 0.2048 62.464-16.7936 16.9984-16.9984 22.528-40.7552 16.7936-62.464-21.504-5.7344-45.4656-0.2048-62.464 16.7936-16.9984 16.9984-22.7328 40.96-16.7936 62.464z" fill="#0ABFB2" p-id="14797"></path><path d="M905.216 556.6464c-6.3488 0-12.9024-0.8192-19.2512-2.4576-3.4816-1.024-6.3488-3.6864-7.168-7.168-6.9632-25.8048 0.6144-53.4528 19.456-72.2944 18.8416-18.8416 46.4896-26.2144 72.2944-19.456 3.4816 1.024 6.3488 3.6864 7.168 7.168 6.9632 25.8048-0.6144 53.4528-19.456 72.2944-14.336 14.1312-33.5872 21.9136-53.0432 21.9136z m-7.9872-21.0944c16.9984 2.4576 34.2016-3.072 46.4896-15.36s17.8176-29.4912 15.36-46.4896c-16.9984-2.4576-34.2016 3.072-46.4896 15.36s-18.0224 29.4912-15.36 46.4896z" fill="#1C1D21" p-id="14798"></path><path d="M137.6256 387.072c-21.7088 12.4928-36.2496 36.0448-36.2496 62.8736 0 26.8288 14.5408 50.176 36.2496 62.8736 21.7088-12.4928 36.2496-36.0448 36.2496-62.8736 0-26.8288-14.5408-50.3808-36.2496-62.8736z" fill="#0ABFB2" p-id="14799"></path><path d="M137.6256 522.8544c-1.8432 0-3.4816-0.4096-5.12-1.4336-25.6-14.7456-41.3696-42.1888-41.3696-71.68s15.7696-56.9344 41.3696-71.68c3.072-1.8432 7.168-1.8432 10.24 0 25.6 14.7456 41.3696 42.1888 41.3696 71.68s-15.7696 56.9344-41.3696 71.68c-1.6384 1.024-3.2768 1.4336-5.12 1.4336z m0-123.6992c-16.1792 11.6736-26.0096 30.5152-26.0096 50.5856s9.8304 38.912 26.0096 50.5856c16.1792-11.6736 26.0096-30.5152 26.0096-50.5856s-9.8304-38.912-26.0096-50.5856z" fill="#1C1D21" p-id="14800"></path><path d="M56.32 465.1008c21.504-5.7344 45.4656-0.2048 62.464 16.7936 16.9984 16.9984 22.528 40.7552 16.7936 62.464-21.504 5.7344-45.4656 0.2048-62.464-16.7936-16.9984-16.9984-22.528-40.96-16.7936-62.464z" fill="#0ABFB2" p-id="14801"></path><path d="M118.784 556.6464c-19.6608 0-38.912-7.7824-53.0432-21.9136-18.8416-18.8416-26.2144-46.4896-19.456-72.2944 1.024-3.4816 3.6864-6.3488 7.168-7.168 25.8048-6.9632 53.4528 0.6144 72.2944 19.456 18.8416 18.8416 26.2144 46.4896 19.456 72.2944-1.024 3.4816-3.6864 6.3488-7.168 7.168-6.3488 1.6384-12.6976 2.4576-19.2512 2.4576z m-53.8624-82.944c-2.4576 16.9984 3.072 34.2016 15.36 46.4896s29.4912 17.8176 46.4896 15.36c2.4576-16.9984-3.072-34.2016-15.36-46.4896-12.0832-12.288-29.4912-17.8176-46.4896-15.36z" fill="#1C1D21" p-id="14802"></path><path d="M139.8784 544.1536c21.504 5.7344 45.4656 0.2048 62.464-16.7936 16.9984-16.9984 22.528-40.7552 16.7936-62.464-21.504-5.7344-45.4656-0.2048-62.464 16.7936-16.9984 16.9984-22.528 40.96-16.7936 62.464z" fill="#0ABFB2" p-id="14803"></path><path d="M156.4672 556.6464c-6.3488 0-12.9024-0.8192-19.2512-2.4576-3.4816-1.024-6.3488-3.6864-7.168-7.168-6.9632-25.8048 0.6144-53.4528 19.456-72.2944 18.8416-18.8416 46.4896-26.2144 72.2944-19.456 3.4816 1.024 6.3488 3.6864 7.168 7.168 6.9632 25.8048-0.6144 53.4528-19.456 72.2944-14.1312 14.1312-33.3824 21.9136-53.0432 21.9136z m-7.9872-21.0944c16.9984 2.4576 34.2016-3.072 46.4896-15.36s17.8176-29.4912 15.36-46.4896c-16.9984-2.4576-34.2016 3.072-46.4896 15.36s-17.8176 29.4912-15.36 46.4896z" fill="#1C1D21" p-id="14804"></path><path d="M268.6976 154.2144c10.24 0 18.6368 8.3968 18.6368 18.6368s-8.3968 18.6368-18.6368 18.6368h-8.192c-14.5408 0-26.4192 11.8784-26.4192 26.4192 0 14.5408 11.8784 26.4192 26.4192 26.4192h220.5696c14.5408 0 26.4192-11.8784 26.4192-26.4192 0-14.5408-11.8784-26.4192-26.4192-26.4192h-132.5056c-10.24 0-18.6368-8.3968-18.6368-18.6368s8.3968-18.6368 18.6368-18.6368h9.4208c19.6608 0 35.6352-15.9744 35.6352-35.6352 0-19.6608-15.9744-35.6352-35.6352-35.6352h-106.2912C218.5216 103.2192 188.0064 126.976 160.3584 154.2144h108.3392z" fill="#FFECE9" p-id="14805"></path><path d="M415.3344 254.3616h-13.312c-5.7344 0-10.24-4.5056-10.24-10.24s4.5056-10.24 10.24-10.24h13.312c5.7344 0 10.24 4.5056 10.24 10.24s-4.5056 10.24-10.24 10.24z" fill="#1C1D21" p-id="14806"></path><path d="M481.0752 254.3616H452.608c-5.7344 0-10.24-4.5056-10.24-10.24s4.5056-10.24 10.24-10.24h28.4672c9.0112 0 16.1792-7.168 16.1792-16.1792s-7.168-16.1792-16.1792-16.1792h-132.5056c-15.9744 0-28.8768-12.9024-28.8768-28.8768s12.9024-28.8768 28.8768-28.8768h9.4208c13.9264 0 25.3952-11.4688 25.3952-25.3952 0-13.9264-11.4688-25.3952-25.3952-25.3952h-103.424c-24.1664 14.7456-46.8992 31.744-68.1984 50.7904h82.3296c15.9744 0 28.8768 12.9024 28.8768 28.8768s-12.9024 28.8768-28.8768 28.8768h-8.192c-9.0112 0-16.1792 7.168-16.1792 16.1792s7.168 16.1792 16.1792 16.1792h99.1232c5.7344 0 10.24 4.5056 10.24 10.24s-4.5056 10.24-10.24 10.24h-99.1232c-20.2752 0-36.6592-16.384-36.6592-36.6592s16.384-36.6592 36.6592-36.6592h8.192c4.5056 0 8.3968-3.6864 8.3968-8.3968 0-4.5056-3.6864-8.3968-8.3968-8.3968H160.3584c-4.096 0-7.9872-2.4576-9.4208-6.3488s-0.6144-8.192 2.2528-11.264c28.2624-27.648 59.5968-52.224 93.184-72.704 1.6384-1.024 3.4816-1.4336 5.3248-1.4336h106.2912c25.1904 0 45.8752 20.48 45.8752 45.8752 0 25.1904-20.48 45.8752-45.8752 45.8752h-9.4208c-4.5056 0-8.3968 3.6864-8.3968 8.3968 0 4.5056 3.6864 8.3968 8.3968 8.3968h132.5056c20.2752 0 36.6592 16.384 36.6592 36.6592s-16.5888 36.6592-36.6592 36.6592z" fill="#1C1D21" p-id="14807"></path><path d="M592.4864 82.944h-86.8352c-19.8656 0-36.864 16.384-36.4544 36.2496 0.4096 19.2512 16.1792 34.816 35.6352 34.816h87.6544c19.6608 0 35.6352-15.9744 35.6352-35.6352 0-19.456-15.9744-35.4304-35.6352-35.4304z" fill="#FFECE9" p-id="14808"></path><path d="M592.4864 164.4544h-87.6544c-24.7808 0-45.2608-20.0704-45.8752-45.056-0.2048-12.0832 4.5056-23.7568 13.1072-32.5632 8.8064-9.0112 21.0944-14.1312 33.5872-14.1312h32.1536c5.7344 0 10.24 4.5056 10.24 10.24s-4.5056 10.24-10.24 10.24h-32.1536c-7.168 0-13.9264 2.8672-19.0464 7.9872-4.7104 4.9152-7.3728 11.264-7.168 17.8176 0.2048 13.7216 11.6736 24.7808 25.3952 24.7808h87.6544c13.9264 0 25.3952-11.4688 25.3952-25.3952 0-13.9264-11.4688-25.3952-25.3952-25.3952h-17.2032c-5.7344 0-10.24-4.5056-10.24-10.24s4.5056-10.24 10.24-10.24h17.2032c25.1904 0 45.8752 20.48 45.8752 45.8752 0 25.6-20.6848 46.08-45.8752 46.08z" fill="#1C1D21" p-id="14809"></path><path d="M735.4368 233.472m-54.8864 0a54.8864 54.8864 0 1 0 109.7728 0 54.8864 54.8864 0 1 0-109.7728 0Z" fill="#FF8939" p-id="14810"></path><path d="M735.4368 298.5984c-35.84 0-65.1264-29.2864-65.1264-65.1264s29.2864-65.1264 65.1264-65.1264 65.1264 29.2864 65.1264 65.1264-29.2864 65.1264-65.1264 65.1264z m0-109.7728c-24.576 0-44.6464 20.0704-44.6464 44.6464s20.0704 44.6464 44.6464 44.6464 44.6464-20.0704 44.6464-44.6464-20.0704-44.6464-44.6464-44.6464zM735.4368 157.2864c-5.7344 0-10.24-4.5056-10.24-10.24v-6.5536c0-5.7344 4.5056-10.24 10.24-10.24s10.24 4.5056 10.24 10.24v6.5536c0 5.5296-4.5056 10.24-10.24 10.24zM735.4368 336.6912c-5.7344 0-10.24-4.5056-10.24-10.24v-6.5536c0-5.7344 4.5056-10.24 10.24-10.24s10.24 4.5056 10.24 10.24v6.5536c0 5.7344-4.5056 10.24-10.24 10.24zM796.672 182.4768c-2.6624 0-5.3248-1.024-7.168-3.072-4.096-4.096-4.096-10.4448 0-14.5408l4.5056-4.5056c4.096-4.096 10.4448-4.096 14.5408 0s4.096 10.4448 0 14.5408l-4.5056 4.5056c-2.048 2.048-4.7104 3.072-7.3728 3.072zM669.696 309.4528c-2.6624 0-5.3248-1.024-7.168-3.072-4.096-4.096-4.096-10.4448 0-14.5408l4.5056-4.5056c4.096-4.096 10.4448-4.096 14.5408 0s4.096 10.4448 0 14.5408l-4.5056 4.5056c-2.048 2.048-4.7104 3.072-7.3728 3.072zM828.416 243.712h-6.5536c-5.7344 0-10.24-4.5056-10.24-10.24s4.5056-10.24 10.24-10.24h6.5536c5.7344 0 10.24 4.5056 10.24 10.24s-4.5056 10.24-10.24 10.24zM649.0112 243.712h-6.5536c-5.7344 0-10.24-4.5056-10.24-10.24s4.5056-10.24 10.24-10.24h6.5536c5.7344 0 10.24 4.5056 10.24 10.24s-4.7104 10.24-10.24 10.24zM801.1776 309.4528c-2.6624 0-5.3248-1.024-7.168-3.072l-4.5056-4.5056c-4.096-4.096-4.096-10.4448 0-14.5408s10.4448-4.096 14.5408 0l4.5056 4.5056c4.096 4.096 4.096 10.4448 0 14.5408-2.048 2.048-4.7104 3.072-7.3728 3.072zM674.4064 182.4768c-2.6624 0-5.3248-1.024-7.168-3.072l-4.5056-4.5056c-4.096-4.096-4.096-10.4448 0-14.5408s10.4448-4.096 14.5408 0l4.5056 4.5056c4.096 4.096 4.096 10.4448 0 14.5408-2.2528 2.048-4.9152 3.072-7.3728 3.072zM747.52 567.9104H539.2384c-5.7344 0-10.24-4.5056-10.24-10.24s4.5056-10.24 10.24-10.24H747.52c5.7344 0 10.24 4.5056 10.24 10.24s-4.5056 10.24-10.24 10.24z" fill="#1C1D21" p-id="14811"></path></svg>