<svg xmlns="http://www.w3.org/2000/svg" viewBox="0 0 1024 1024" version="1.1"><path d="M512 512m-501.76 0a501.76 501.76 0 1 0 1003.52 0 501.76 501.76 0 1 0-1003.52 0Z" fill="#8CEEF9" p-id="9931"></path><path d="M668.672 820.6336h-313.344c-23.7568 0-42.8032 19.2512-42.8032 42.8032s19.2512 42.8032 42.8032 42.8032h313.1392c23.7568 0 42.8032-19.2512 42.8032-42.8032s-19.0464-42.8032-42.5984-42.8032zM463.4624 734.8224h-71.0656c-23.7568 0-42.8032 19.2512-42.8032 42.8032s19.2512 42.8032 42.8032 42.8032h239.2064c23.7568 0 42.8032-19.2512 42.8032-42.8032s-19.2512-42.8032-42.8032-42.8032h-168.1408zM601.4976 649.0112h-178.9952c-23.7568 0-42.8032 19.2512-42.8032 42.8032s19.2512 42.8032 42.8032 42.8032h178.9952c23.7568 0 42.8032-19.2512 42.8032-42.8032s-19.0464-42.8032-42.8032-42.8032z" fill="#FF8939" p-id="9932"></path><path d="M510.976 700.2112h-88.4736c-5.7344 0-10.24-4.5056-10.24-10.24s4.5056-10.24 10.24-10.24h88.4736c5.7344 0 10.24 4.5056 10.24 10.24s-4.5056 10.24-10.24 10.24z" fill="#FFC5B3" p-id="9933"></path><path d="M578.7648 584.2944h-9.0112c-15.1552 0-29.0816-7.9872-36.6592-20.8896-4.7104-7.9872-9.4208-15.9744-13.312-22.3232-3.4816-5.9392-12.0832-5.9392-15.5648 0l-13.312 22.3232c-7.5776 12.9024-21.7088 20.8896-36.6592 20.8896h-9.0112c-17.408 0-32.5632 13.5168-33.3824 30.9248-0.8192 18.6368 13.9264 33.9968 32.3584 33.9968H579.584c18.432 0 33.1776-15.36 32.3584-33.9968-0.6144-17.6128-15.7696-30.9248-33.1776-30.9248z" fill="#FF8939" p-id="9934"></path><path d="M512 1024c-136.8064 0-265.4208-53.248-362.0864-149.9136S0 648.8064 0 512 53.248 246.5792 149.9136 149.9136 375.1936 0 512 0s265.4208 53.248 362.0864 149.9136S1024 375.1936 1024 512s-53.248 265.4208-149.9136 362.0864S648.8064 1024 512 1024z m0-1003.52C241.0496 20.48 20.48 241.0496 20.48 512s220.5696 491.52 491.52 491.52 491.52-220.5696 491.52-491.52S782.9504 20.48 512 20.48z" fill="#1C1D21" p-id="9935"></path><path d="M512 1013.76c117.1456 0 224.8704-40.1408 310.272-107.52h-620.544C287.1296 973.6192 394.8544 1013.76 512 1013.76z" fill="#0ABFB2" p-id="9936"></path><path d="M512 1024c-116.1216 0-225.6896-37.888-316.6208-109.568-3.4816-2.6624-4.7104-7.3728-3.2768-11.4688 1.4336-4.096 5.3248-6.9632 9.6256-6.9632h620.544c4.3008 0 8.192 2.6624 9.6256 6.9632 1.4336 4.096 0 8.6016-3.2768 11.4688-90.9312 71.68-200.4992 109.568-316.6208 109.568z m-279.3472-107.52c82.1248 56.9344 178.176 87.04 279.3472 87.04s197.0176-29.9008 279.3472-87.04H232.6528z" fill="#1C1D21" p-id="9937"></path><path d="M668.672 916.48h-313.344c-29.2864 0-53.0432-23.7568-53.0432-53.0432s23.7568-53.0432 53.0432-53.0432H534.528c5.7344 0 10.24 4.5056 10.24 10.24s-4.5056 10.24-10.24 10.24h-179.2c-18.0224 0-32.5632 14.5408-32.5632 32.5632s14.5408 32.5632 32.5632 32.5632h313.1392c18.0224 0 32.5632-14.5408 32.5632-32.5632s-14.5408-32.5632-32.5632-32.5632h-46.4896c-5.7344 0-10.24-4.5056-10.24-10.24s4.5056-10.24 10.24-10.24h46.4896c29.2864 0 53.0432 23.7568 53.0432 53.0432s-23.552 53.0432-52.8384 53.0432z" fill="#1C1D21" p-id="9938"></path><path d="M583.2704 830.8736h-8.192c-5.7344 0-10.24-4.5056-10.24-10.24s4.5056-10.24 10.24-10.24h8.192c5.7344 0 10.24 4.5056 10.24 10.24s-4.7104 10.24-10.24 10.24zM520.192 745.0624h-28.672c-5.7344 0-10.24-4.5056-10.24-10.24s4.5056-10.24 10.24-10.24h28.672c5.7344 0 10.24 4.5056 10.24 10.24s-4.5056 10.24-10.24 10.24zM631.6032 830.8736c-5.7344 0-10.24-4.5056-10.24-10.24s4.5056-10.24 10.24-10.24c18.0224 0 32.5632-14.5408 32.5632-32.5632s-14.5408-32.5632-32.5632-32.5632h-73.1136c-5.7344 0-10.24-4.5056-10.24-10.24s4.5056-10.24 10.24-10.24h73.1136c29.2864 0 53.0432 23.7568 53.0432 53.0432s-23.7568 53.0432-53.0432 53.0432zM392.3968 830.8736c-29.2864 0-53.0432-23.7568-53.0432-53.0432s23.7568-53.0432 53.0432-53.0432H444.416c5.7344 0 10.24 4.5056 10.24 10.24s-4.5056 10.24-10.24 10.24h-52.0192c-18.0224 0-32.5632 14.5408-32.5632 32.5632s14.5408 32.5632 32.5632 32.5632c5.7344 0 10.24 4.5056 10.24 10.24s-4.5056 10.24-10.24 10.24zM514.048 659.2512h-9.8304c-5.7344 0-10.24-4.5056-10.24-10.24s4.5056-10.24 10.24-10.24h9.8304c5.7344 0 10.24 4.5056 10.24 10.24s-4.5056 10.24-10.24 10.24z" fill="#1C1D21" p-id="9939"></path><path d="M601.4976 745.0624c-5.7344 0-10.24-4.5056-10.24-10.24s4.5056-10.24 10.24-10.24c18.0224 0 32.5632-14.5408 32.5632-32.5632s-14.5408-32.5632-32.5632-32.5632h-55.296c-5.7344 0-10.24-4.5056-10.24-10.24s4.5056-10.24 10.24-10.24h55.296c29.2864 0 53.0432 23.7568 53.0432 53.0432s-23.7568 53.0432-53.0432 53.0432zM422.5024 745.0624c-29.2864 0-53.0432-23.7568-53.0432-53.0432S393.216 638.976 422.5024 638.976h35.2256c5.7344 0 10.24 4.5056 10.24 10.24s-4.5056 10.24-10.24 10.24h-35.2256c-18.0224 0-32.5632 14.5408-32.5632 32.5632s14.5408 32.5632 32.5632 32.5632c5.7344 0 10.24 4.5056 10.24 10.24s-4.5056 10.24-10.24 10.24z" fill="#1C1D21" p-id="9940"></path><path d="M579.7888 659.2512c-5.7344 0-10.24-4.5056-10.24-10.24s4.5056-10.24 10.24-10.24c6.144 0 11.8784-2.4576 15.9744-6.9632 4.3008-4.5056 6.3488-10.24 6.144-16.384-0.6144-11.6736-10.8544-21.0944-23.1424-21.0944h-9.0112c-18.6368 0-36.0448-10.0352-45.4656-26.0096l-12.0832-20.6848-12.0832 20.6848c-9.4208 15.9744-26.8288 26.0096-45.4656 26.0096h-9.0112c-12.0832 0-22.528 9.4208-23.1424 21.0944-0.2048 6.144 1.8432 11.8784 6.144 16.384s10.0352 6.9632 15.9744 6.9632c5.7344 0 10.24 4.5056 10.24 10.24s-4.5056 10.24-10.24 10.24c-11.8784 0-22.7328-4.7104-30.9248-13.312s-12.288-19.6608-11.6736-31.5392c1.024-22.7328 20.2752-40.5504 43.6224-40.5504h9.0112c11.4688 0 22.1184-6.144 27.8528-15.9744l13.312-22.3232c3.4816-5.9392 9.6256-9.4208 16.5888-9.4208 6.9632 0 13.1072 3.4816 16.5888 9.4208l13.312 22.3232c5.7344 9.8304 16.384 15.9744 27.8528 15.9744h9.0112c23.3472 0 42.3936 17.8176 43.6224 40.5504 0.6144 11.8784-3.6864 22.9376-11.6736 31.5392-8.6016 8.6016-19.6608 13.312-31.3344 13.312z" fill="#1C1D21" p-id="9941"></path><path d="M553.3696 700.2112h-6.9632c-5.7344 0-10.24-4.5056-10.24-10.24s4.5056-10.24 10.24-10.24h6.9632c5.7344 0 10.24 4.5056 10.24 10.24s-4.7104 10.24-10.24 10.24zM531.2512 787.8656h-108.7488c-5.7344 0-10.24-4.5056-10.24-10.24s4.5056-10.24 10.24-10.24h108.7488c5.7344 0 10.24 4.5056 10.24 10.24s-4.5056 10.24-10.24 10.24zM565.6576 873.6768h-194.3552c-5.7344 0-10.24-4.5056-10.24-10.24s4.5056-10.24 10.24-10.24h194.3552c5.7344 0 10.24 4.5056 10.24 10.24s-4.5056 10.24-10.24 10.24zM583.2704 787.8656h-8.6016c-5.7344 0-10.24-4.5056-10.24-10.24s4.5056-10.24 10.24-10.24h8.6016c5.7344 0 10.24 4.5056 10.24 10.24s-4.7104 10.24-10.24 10.24zM629.3504 873.6768h-19.456c-5.7344 0-10.24-4.5056-10.24-10.24s4.5056-10.24 10.24-10.24h19.456c5.7344 0 10.24 4.5056 10.24 10.24s-4.5056 10.24-10.24 10.24zM509.1328 626.688h-44.8512c-5.7344 0-10.24-4.5056-10.24-10.24s4.5056-10.24 10.24-10.24h44.8512c5.7344 0 10.24 4.5056 10.24 10.24s-4.5056 10.24-10.24 10.24zM546.4064 626.688h-2.048c-5.7344 0-10.24-4.5056-10.24-10.24s4.5056-10.24 10.24-10.24h2.048c5.7344 0 10.24 4.5056 10.24 10.24s-4.5056 10.24-10.24 10.24z" fill="#FFC5B3" p-id="9942"></path><path d="M387.6864 454.4512c8.6016-8.6016 22.528-8.6016 30.9248 0l18.2272 18.2272c8.6016 8.6016 8.6016 22.528 0 30.9248-8.6016 8.6016-22.528 8.6016-30.9248 0l-18.2272-18.2272c-8.6016-8.3968-8.6016-22.3232 0-30.9248z" fill="#AAADAD" p-id="9943"></path><path d="M421.4784 520.3968c-8.6016 0-16.5888-3.2768-22.7328-9.4208l-18.2272-18.2272c-12.4928-12.4928-12.4928-32.9728 0-45.4656 12.4928-12.4928 32.9728-12.4928 45.4656 0l18.2272 18.2272c6.144 6.144 9.4208 14.1312 9.4208 22.7328s-3.2768 16.5888-9.4208 22.7328c-6.144 5.9392-14.1312 9.4208-22.7328 9.4208z m-18.2272-62.0544c-3.072 0-5.9392 1.2288-8.192 3.4816-4.5056 4.5056-4.5056 11.8784 0 16.5888l18.2272 18.2272c4.5056 4.5056 11.8784 4.5056 16.5888 0 4.5056-4.5056 4.5056-11.8784 0-16.5888l-18.2272-18.2272c-2.4576-2.4576-5.5296-3.4816-8.3968-3.4816z" fill="#1C1D21" p-id="9944"></path><path d="M427.8272 473.7024c-2.6624 0-5.3248-1.024-7.168-3.072-4.096-4.096-4.096-10.4448 0-14.5408l15.36-15.36c4.096-4.096 10.4448-4.096 14.5408 0s4.096 10.4448 0 14.5408l-15.36 15.36c-2.048 2.2528-4.7104 3.072-7.3728 3.072zM381.3376 520.192c-2.6624 0-5.3248-1.024-7.168-3.072-4.096-4.096-4.096-10.4448 0-14.5408l15.36-15.36c4.096-4.096 10.4448-4.096 14.5408 0s4.096 10.4448 0 14.5408l-15.36 15.36c-2.048 2.048-4.7104 3.072-7.3728 3.072z" fill="#1C1D21" p-id="9945"></path><path d="M693.8624 668.0576c0-12.0832 9.8304-21.9136 21.9136-21.9136h25.8048c12.0832 0 21.9136 9.8304 21.9136 21.9136 0 12.0832-9.8304 21.9136-21.9136 21.9136h-25.8048c-12.0832 0-21.9136-9.8304-21.9136-21.9136z" fill="#AAADAD" p-id="9946"></path><path d="M741.5808 700.2112h-25.8048c-17.8176 0-32.1536-14.336-32.1536-32.1536s14.336-32.1536 32.1536-32.1536h25.8048c17.8176 0 32.1536 14.336 32.1536 32.1536s-14.336 32.1536-32.1536 32.1536z m-25.8048-43.8272c-6.3488 0-11.6736 5.3248-11.6736 11.6736s5.3248 11.6736 11.6736 11.6736h25.8048c6.3488 0 11.6736-5.3248 11.6736-11.6736s-5.3248-11.6736-11.6736-11.6736h-25.8048z" fill="#1C1D21" p-id="9947"></path><path d="M728.6784 656.384c-5.7344 0-10.24-4.5056-10.24-10.24v-21.7088c0-5.7344 4.5056-10.24 10.24-10.24s10.24 4.5056 10.24 10.24v21.7088c0 5.7344-4.5056 10.24-10.24 10.24zM728.6784 721.92c-5.7344 0-10.24-4.5056-10.24-10.24v-21.7088c0-5.7344 4.5056-10.24 10.24-10.24s10.24 4.5056 10.24 10.24v21.7088c0 5.7344-4.5056 10.24-10.24 10.24z" fill="#1C1D21" p-id="9948"></path><path d="M716.5952 467.3536c8.6016 8.6016 8.6016 22.528 0 30.9248l-18.2272 18.2272c-8.6016 8.6016-22.528 8.6016-30.9248 0-8.6016-8.6016-8.6016-22.528 0-30.9248l18.2272-18.2272c8.3968-8.6016 22.3232-8.6016 30.9248 0z" fill="#AAADAD" p-id="9949"></path><path d="M682.8032 533.0944c-8.192 0-16.384-3.072-22.7328-9.4208-12.4928-12.4928-12.4928-32.9728 0-45.4656l18.2272-18.2272c12.4928-12.4928 32.9728-12.4928 45.4656 0 12.4928 12.4928 12.4928 32.9728 0 45.4656l-18.2272 18.2272c-6.144 6.3488-14.336 9.4208-22.7328 9.4208z m18.2272-62.0544c-3.072 0-5.9392 1.2288-8.192 3.4816l-18.2272 18.2272c-4.5056 4.5056-4.5056 11.8784 0 16.5888 4.5056 4.5056 11.8784 4.5056 16.5888 0l18.2272-18.2272c4.5056-4.5056 4.5056-11.8784 0-16.5888-2.2528-2.2528-5.3248-3.4816-8.3968-3.4816z" fill="#1C1D21" p-id="9950"></path><path d="M722.944 533.0944c-2.6624 0-5.3248-1.024-7.168-3.072l-15.36-15.36c-4.096-4.096-4.096-10.4448 0-14.5408s10.4448-4.096 14.5408 0l15.36 15.36c4.096 4.096 4.096 10.4448 0 14.5408-2.2528 2.048-4.7104 3.072-7.3728 3.072zM676.4544 486.6048c-2.6624 0-5.3248-1.024-7.168-3.072l-15.36-15.36c-4.096-4.096-4.096-10.4448 0-14.5408s10.4448-4.096 14.5408 0l15.36 15.36c4.096 4.096 4.096 10.4448 0 14.5408-2.048 2.048-4.7104 3.072-7.3728 3.072z" fill="#1C1D21" p-id="9951"></path><path d="M204.8 592.4864c12.0832 0 21.9136 9.8304 21.9136 21.9136v25.8048c0 12.0832-9.8304 21.9136-21.9136 21.9136-12.0832 0-21.9136-9.8304-21.9136-21.9136V614.4c0-12.0832 9.8304-21.9136 21.9136-21.9136z" fill="#AAADAD" p-id="9952"></path><path d="M204.8 672.3584c-17.8176 0-32.1536-14.336-32.1536-32.1536V614.4c0-17.8176 14.336-32.1536 32.1536-32.1536s32.1536 14.336 32.1536 32.1536v25.8048c0.2048 17.8176-14.336 32.1536-32.1536 32.1536z m0-69.632c-6.3488 0-11.6736 5.3248-11.6736 11.6736v25.8048c0 6.3488 5.3248 11.6736 11.6736 11.6736s11.6736-5.3248 11.6736-11.6736V614.4c0.2048-6.3488-5.12-11.6736-11.6736-11.6736z" fill="#1C1D21" p-id="9953"></path><path d="M248.6272 637.5424h-21.7088c-5.7344 0-10.24-4.5056-10.24-10.24s4.5056-10.24 10.24-10.24h21.7088c5.7344 0 10.24 4.5056 10.24 10.24s-4.7104 10.24-10.24 10.24zM182.8864 637.5424H161.1776c-5.7344 0-10.24-4.5056-10.24-10.24s4.5056-10.24 10.24-10.24h21.7088c5.7344 0 10.24 4.5056 10.24 10.24s-4.5056 10.24-10.24 10.24zM204.8 563.2c-5.7344 0-10.24-4.5056-10.24-10.24v-5.5296c0-5.7344 4.5056-10.24 10.24-10.24s10.24 4.5056 10.24 10.24v5.5296c0 5.7344-4.5056 10.24-10.24 10.24zM204.8 522.8544c-5.7344 0-10.24-4.5056-10.24-10.24v-5.5296c0-5.7344 4.5056-10.24 10.24-10.24s10.24 4.5056 10.24 10.24v5.5296c0 5.7344-4.5056 10.24-10.24 10.24zM362.9056 439.9104c-2.6624 0-5.3248-1.024-7.168-3.072l-3.8912-3.8912c-4.096-4.096-4.096-10.4448 0-14.5408s10.4448-4.096 14.5408 0l3.8912 3.8912c4.096 4.096 4.096 10.4448 0 14.5408-2.2528 2.048-4.9152 3.072-7.3728 3.072zM334.4384 411.4432c-2.6624 0-5.3248-1.024-7.168-3.072l-3.8912-3.8912c-4.096-4.096-4.096-10.4448 0-14.5408s10.4448-4.096 14.5408 0l3.8912 3.8912c4.096 4.096 4.096 10.4448 0 14.5408-2.2528 2.048-4.9152 3.072-7.3728 3.072zM740.7616 453.4272c-2.6624 0-5.3248-1.024-7.168-3.072-4.096-4.096-4.096-10.4448 0-14.5408l3.8912-3.8912c4.096-4.096 10.4448-4.096 14.5408 0s4.096 10.4448 0 14.5408l-3.8912 3.8912c-2.2528 2.048-4.7104 3.072-7.3728 3.072zM769.2288 424.96c-2.6624 0-5.3248-1.024-7.168-3.072-4.096-4.096-4.096-10.4448 0-14.5408l3.8912-3.8912c4.096-4.096 10.4448-4.096 14.5408 0s4.096 10.4448 0 14.5408l-3.8912 3.8912c-2.048 2.048-4.7104 3.072-7.3728 3.072zM810.1888 678.2976h-5.5296c-5.7344 0-10.24-4.5056-10.24-10.24s4.5056-10.24 10.24-10.24h5.5296c5.7344 0 10.24 4.5056 10.24 10.24s-4.5056 10.24-10.24 10.24zM850.5344 678.2976h-5.5296c-5.7344 0-10.24-4.5056-10.24-10.24s4.5056-10.24 10.24-10.24h5.5296c5.7344 0 10.24 4.5056 10.24 10.24s-4.7104 10.24-10.24 10.24z" fill="#1C1D21" p-id="9954"></path><path d="M512 246.784m-164.0448 0a164.0448 164.0448 0 1 0 328.0896 0 164.0448 164.0448 0 1 0-328.0896 0Z" fill="#E0E0E0" p-id="9955"></path><path d="M432.128 113.4592c-3.6864 0-7.168-1.8432-9.0112-5.3248-2.6624-4.9152-1.024-11.264 3.8912-13.9264 1.2288-0.6144 2.4576-1.2288 3.4816-1.8432 4.9152-2.6624 11.264-0.8192 13.9264 4.3008 2.6624 4.9152 0.8192 11.264-4.3008 13.9264-1.024 0.6144-2.048 1.024-3.072 1.6384-1.4336 0.8192-3.2768 1.2288-4.9152 1.2288zM396.288 140.4928c-2.6624 0-5.3248-1.024-7.168-3.072-3.8912-4.096-3.8912-10.4448 0-14.5408 2.2528-2.2528 4.5056-4.3008 6.7584-6.3488 4.3008-3.6864 10.6496-3.4816 14.5408 0.8192 3.6864 4.3008 3.4816 10.6496-0.8192 14.5408-2.048 1.8432-3.8912 3.6864-5.9392 5.5296-2.2528 2.2528-4.7104 3.072-7.3728 3.072z" fill="#1C1D21" p-id="9956"></path><path d="M512 421.0688c-96.0512 0-174.2848-78.2336-174.2848-174.2848 0-33.3824 9.4208-65.9456 27.4432-94.0032 3.072-4.7104 9.4208-6.144 14.1312-3.072 4.7104 3.072 6.144 9.4208 3.072 14.1312-15.7696 24.576-24.1664 53.248-24.1664 82.944 0 84.7872 69.0176 153.8048 153.8048 153.8048s153.8048-69.0176 153.8048-153.8048-69.0176-154.0096-153.8048-154.0096c-10.4448 0-20.8896 1.024-30.9248 3.072-5.5296 1.2288-10.8544-2.4576-12.0832-7.9872-1.2288-5.5296 2.4576-10.8544 7.9872-12.0832 11.4688-2.2528 23.3472-3.4816 35.2256-3.4816 96.0512 0 174.2848 78.2336 174.2848 174.2848-0.2048 96.256-78.4384 174.4896-174.4896 174.4896z" fill="#1C1D21" p-id="9957"></path><path d="M577.9456 180.8384c-9.216-9.216-24.1664-9.216-33.3824 0L512 213.1968l-32.5632-32.5632c-9.216-9.216-24.1664-9.216-33.3824 0s-9.216 24.1664 0 33.3824l32.5632 32.5632-32.5632 32.5632c-9.216 9.216-9.216 24.1664 0 33.3824s24.1664 9.216 33.3824 0l32.5632-32.5632 32.5632 32.5632c9.216 9.216 24.1664 9.216 33.3824 0s9.216-24.1664 0-33.3824l-32.5632-32.5632 32.5632-32.5632c9.216-9.0112 9.216-23.9616 0-33.1776z" fill="#FF3E63" p-id="9958"></path><path d="M561.152 329.728c-8.6016 0-17.408-3.2768-23.9616-9.8304L512 294.7072l-25.1904 25.1904c-13.312 13.312-34.816 13.312-47.9232 0-13.312-13.312-13.312-34.816 0-47.9232l25.1904-25.1904-25.1904-25.1904c-13.312-13.312-13.312-34.816 0-47.9232s34.816-13.312 47.9232 0L512 198.656l25.1904-25.1904c13.312-13.312 34.816-13.312 47.9232 0 13.312 13.312 13.312 34.816 0 47.9232l-25.1904 25.1904 25.1904 25.1904c13.312 13.312 13.312 34.816 0 47.9232-6.5536 6.7584-15.1552 10.0352-23.9616 10.0352z m-49.152-59.8016c2.6624 0 5.3248 1.024 7.168 3.072l32.5632 32.5632c5.3248 5.3248 13.7216 5.3248 19.0464 0 5.3248-5.3248 5.3248-13.7216 0-19.0464L538.2144 253.952c-4.096-4.096-4.096-10.4448 0-14.5408l32.5632-32.5632c5.3248-5.3248 5.3248-13.7216 0-19.0464-5.3248-5.3248-13.7216-5.3248-19.0464 0l-32.5632 32.5632c-1.8432 1.8432-4.5056 3.072-7.168 3.072s-5.3248-1.024-7.168-3.072l-32.5632-32.5632c-5.3248-5.3248-13.7216-5.3248-19.0464 0-5.3248 5.3248-5.3248 13.7216 0 19.0464l32.5632 32.5632c4.096 4.096 4.096 10.4448 0 14.5408l-32.5632 32.5632c-5.3248 5.3248-5.3248 13.7216 0 19.0464 5.3248 5.3248 13.7216 5.3248 19.0464 0l32.5632-32.5632c1.8432-2.048 4.5056-3.072 7.168-3.072z" fill="#1C1D21" p-id="9959"></path></svg>