<svg xmlns="http://www.w3.org/2000/svg" viewBox="0 0 1024 1024" version="1.1"><path d="M512 512m-501.76 0a501.76 501.76 0 1 0 1003.52 0 501.76 501.76 0 1 0-1003.52 0Z" fill="#8CEEF9" p-id="12700"></path><path d="M1013.76 512c0-24.9856-1.8432-49.5616-5.3248-73.728l-1.2288-1.2288c-4.5056 11.0592-15.36 19.0464-28.0576 19.0464-16.7936 0-30.3104-13.5168-30.3104-30.3104 0 16.7936-13.5168 30.3104-30.3104 30.3104-16.7936 0-30.3104-13.5168-30.3104-30.3104 0 16.7936-13.5168 30.3104-30.3104 30.3104s-30.3104-13.5168-30.3104-30.3104c0 16.7936-13.5168 30.3104-30.3104 30.3104s-30.3104-13.5168-30.3104-30.3104c0 16.7936-13.5168 30.3104-30.3104 30.3104-5.5296 0-10.8544-1.4336-15.36-4.096-29.9008-17.408-64.7168-24.7808-99.328-23.7568l-248.0128 7.168c-25.1904 0.8192-49.5616 7.5776-72.4992 18.0224-3.8912 1.6384-7.9872 2.6624-12.4928 2.6624-16.7936 0-30.3104-13.5168-30.3104-30.3104 0 16.7936-13.5168 30.3104-30.3104 30.3104s-30.3104-13.5168-30.3104-30.3104c0 16.7936-13.5168 30.3104-30.3104 30.3104-16.7936 0-30.3104-13.5168-30.3104-30.3104 0 16.7936-13.5168 30.3104-30.3104 30.3104s-30.3104-13.5168-30.3104-30.3104c0 16.7936-13.5168 30.3104-30.3104 30.3104-15.5648 0-28.2624-11.6736-30.1056-26.8288-3.6864 26.8288-6.144 54.4768-6.144 82.7392 0 277.0944 224.6656 501.76 501.76 501.76s501.76-224.6656 501.76-501.76z" fill="#508DEF" p-id="12701"></path><path d="M534.7328 345.088h-45.6704c-25.6 0-46.4896-20.8896-46.4896-46.4896v-81.1008c0-6.9632 4.3008-13.312 10.6496-16.1792 6.5536-2.6624 13.9264-1.2288 19.0464 3.6864l33.1776 33.1776c6.7584 6.7584 6.7584 17.8176 0 24.576-6.7584 6.7584-17.8176 6.7584-24.576 0l-3.4816-3.4816v39.1168c0 6.3488 5.3248 11.6736 11.6736 11.6736h45.6704c6.3488 0 11.6736-5.3248 11.6736-11.6736V101.376c0-9.6256 7.7824-17.408 17.408-17.408s17.408 7.7824 17.408 17.408v197.0176c0 25.8048-20.8896 46.6944-46.4896 46.6944z" fill="#AAADAD" p-id="12702"></path><path d="M512 1024c-136.8064 0-265.4208-53.248-362.0864-149.9136C53.248 777.4208 0 648.8064 0 512S53.248 246.5792 149.9136 149.9136C246.5792 53.248 375.1936 0 512 0s265.4208 53.248 362.0864 149.9136C970.752 246.5792 1024 375.1936 1024 512s-53.248 265.4208-149.9136 362.0864C777.4208 970.752 648.8064 1024 512 1024z m0-1003.52C241.0496 20.48 20.48 241.0496 20.48 512s220.5696 491.52 491.52 491.52 491.52-220.5696 491.52-491.52S782.9504 20.48 512 20.48z" fill="#1C1D21" p-id="12703"></path><path d="M534.7328 355.328h-45.6704c-31.3344 0-56.7296-25.3952-56.7296-56.7296v-81.1008c0-11.264 6.7584-21.2992 16.9984-25.6 10.4448-4.3008 22.1184-1.8432 30.1056 5.9392l33.1776 33.1776c10.8544 10.8544 10.8544 28.2624 0 39.1168-6.7584 6.7584-16.384 9.216-25.1904 7.5776v20.8896c0 0.8192 0.6144 1.4336 1.4336 1.4336H534.528c0.8192 0 1.4336-0.6144 1.4336-1.4336V101.376c0-15.1552 12.4928-27.648 27.648-27.648s27.648 12.4928 27.648 27.648v197.0176c0.2048 31.3344-25.1904 56.9344-56.5248 56.9344z m-74.5472-145.2032c-1.024 0-1.8432 0.2048-2.6624 0.6144-2.6624 1.024-4.5056 3.6864-4.5056 6.5536v81.1008c0 20.0704 16.1792 36.2496 36.2496 36.2496h45.6704c20.0704 0 36.2496-16.1792 36.2496-36.2496V101.376c0-3.8912-3.2768-7.168-7.168-7.168s-7.168 3.2768-7.168 7.168v197.0176c0 12.0832-9.8304 21.9136-21.9136 21.9136h-45.6704c-12.0832 0-21.9136-9.8304-21.9136-21.9136v-39.1168c0-4.096 2.4576-7.7824 6.3488-9.4208 3.8912-1.6384 8.192-0.6144 11.0592 2.2528l3.4816 3.4816c2.8672 2.8672 7.3728 2.8672 10.24 0s2.8672-7.3728 0-10.0352l-33.1776-33.1776c-1.4336-1.4336-3.2768-2.2528-5.12-2.2528zM512 1024c-136.8064 0-265.4208-53.248-362.0864-149.9136C53.248 777.4208 0 648.8064 0 512c0-28.0576 2.2528-56.5248 6.9632-84.3776 0.8192-5.12 5.12-8.6016 10.4448-8.6016 5.12 0.2048 9.4208 4.096 9.8304 9.0112 1.2288 10.0352 9.6256 17.8176 19.8656 17.8176 11.0592 0 20.0704-9.0112 20.0704-20.0704 0-5.7344 4.5056-10.24 10.24-10.24s10.24 4.5056 10.24 10.24c0 11.0592 9.0112 20.0704 20.0704 20.0704s20.0704-9.0112 20.0704-20.0704c0-5.7344 4.5056-10.24 10.24-10.24s10.24 4.5056 10.24 10.24c0 11.0592 9.0112 20.0704 20.0704 20.0704s20.0704-9.0112 20.0704-20.0704c0-5.7344 4.5056-10.24 10.24-10.24s10.24 4.5056 10.24 10.24c0 11.0592 9.0112 20.0704 20.0704 20.0704s20.0704-9.0112 20.0704-20.0704c0-5.7344 4.5056-10.24 10.24-10.24s10.24 4.5056 10.24 10.24c0 11.0592 9.0112 20.0704 20.0704 20.0704 2.8672 0 5.7344-0.6144 8.192-1.8432 26.0096-11.8784 51.8144-18.2272 76.5952-18.8416l248.0128-7.168c38.7072-1.024 74.752 7.5776 104.6528 25.1904 3.072 1.8432 6.5536 2.6624 10.0352 2.6624 11.0592 0 20.0704-9.0112 20.0704-20.0704 0-5.7344 4.5056-10.24 10.24-10.24s10.24 4.5056 10.24 10.24c0 11.0592 9.0112 20.0704 20.0704 20.0704s20.0704-9.0112 20.0704-20.0704c0-5.7344 4.5056-10.24 10.24-10.24s10.24 4.5056 10.24 10.24c0 11.0592 9.0112 20.0704 20.0704 20.0704s20.0704-9.0112 20.0704-20.0704c0-5.7344 4.5056-10.24 10.24-10.24s10.24 4.5056 10.24 10.24c0 11.0592 9.0112 20.0704 20.0704 20.0704s20.0704-9.0112 20.0704-20.0704c0-5.7344 4.5056-10.24 10.24-10.24s10.24 4.5056 10.24 10.24c0 11.0592 9.0112 20.0704 20.0704 20.0704 8.192 0 15.5648-4.9152 18.6368-12.4928 1.2288-3.2768 4.096-5.5296 7.3728-6.144 3.2768-0.6144 6.7584 0.4096 9.216 2.8672l1.2288 1.2288c1.6384 1.6384 2.6624 3.4816 2.8672 5.7344 3.6864 24.7808 5.5296 50.176 5.5296 75.1616 0 136.8064-53.248 265.4208-149.9136 362.0864C777.4208 970.752 648.8064 1024 512 1024zM23.3472 458.5472c-1.8432 17.8176-2.8672 35.6352-2.8672 53.4528 0 270.9504 220.5696 491.52 491.52 491.52s491.52-220.5696 491.52-491.52c0-17.2032-0.8192-34.6112-2.6624-52.0192-6.3488 4.096-13.9264 6.3488-21.7088 6.3488-12.0832 0-22.9376-5.3248-30.3104-13.5168-7.3728 8.3968-18.2272 13.5168-30.3104 13.5168s-22.9376-5.3248-30.3104-13.5168c-7.3728 8.3968-18.2272 13.5168-30.3104 13.5168s-22.9376-5.3248-30.3104-13.5168c-7.3728 8.3968-18.2272 13.5168-30.3104 13.5168s-22.9376-5.3248-30.3104-13.5168c-7.3728 8.3968-18.2272 13.5168-30.3104 13.5168-7.168 0-14.336-1.8432-20.48-5.5296-26.624-15.5648-59.1872-23.3472-93.7984-22.3232L374.784 445.6448c-22.1184 0.6144-45.056 6.3488-68.608 16.9984-5.3248 2.4576-10.8544 3.6864-16.7936 3.6864-12.0832 0-22.9376-5.3248-30.3104-13.5168-7.3728 8.3968-18.2272 13.5168-30.3104 13.5168s-22.9376-5.3248-30.3104-13.5168c-7.3728 8.3968-18.2272 13.5168-30.3104 13.5168S145.408 461.0048 138.0352 452.608c-7.3728 8.3968-18.2272 13.5168-30.3104 13.5168S84.7872 460.8 77.4144 452.608c-7.3728 8.3968-18.2272 13.5168-30.3104 13.5168-8.8064 0.2048-16.9984-2.6624-23.7568-7.5776z" fill="#1C1D21" p-id="12704"></path><path d="M448.7168 408.1664v65.536c0 35.0208 28.2624 63.2832 63.2832 63.2832 35.0208 0 63.2832-28.2624 63.2832-63.2832v-65.536c0-35.0208-28.2624-63.2832-63.2832-63.2832-35.0208 0.2048-63.2832 28.4672-63.2832 63.2832z" fill="#FFECE9" p-id="12705"></path><path d="M512 547.2256c-40.5504 0-73.5232-32.9728-73.5232-73.5232v-65.536c0-40.5504 32.9728-73.5232 73.5232-73.5232s73.5232 32.9728 73.5232 73.5232v65.536c0 40.5504-32.9728 73.5232-73.5232 73.5232z m0-191.8976c-29.2864 0-53.0432 23.7568-53.0432 53.0432v65.536c0 29.2864 23.7568 53.0432 53.0432 53.0432s53.0432-23.7568 53.0432-53.0432v-65.536c0-29.2864-23.7568-53.0432-53.0432-53.0432z" fill="#1C1D21" p-id="12706"></path><path d="M459.5712 589.2096v18.432h104.6528v-18.432c0-28.8768-23.3472-52.4288-52.4288-52.4288-28.672 0.2048-52.224 23.552-52.224 52.4288z" fill="#FFECE9" p-id="12707"></path><path d="M564.4288 618.0864h-104.6528c-5.7344 0-10.24-4.5056-10.24-10.24v-18.432c0-34.6112 28.0576-62.6688 62.6688-62.6688s62.6688 28.0576 62.6688 62.6688v18.432c-0.2048 5.5296-4.9152 10.24-10.4448 10.24z m-94.6176-20.48h84.1728v-8.192c0-23.1424-18.8416-42.1888-42.1888-42.1888s-42.1888 18.8416-42.1888 42.1888v8.192z" fill="#1C1D21" p-id="12708"></path><path d="M491.52 386.4576m-10.8544 0a10.8544 10.8544 0 1 0 21.7088 0 10.8544 10.8544 0 1 0-21.7088 0Z" fill="#1C1D21" p-id="12709"></path><path d="M448.7168 650.6496v65.536c0 35.0208 28.2624 63.2832 63.2832 63.2832 35.0208 0 63.2832-28.2624 63.2832-63.2832v-65.536c0-35.0208-28.2624-63.2832-63.2832-63.2832-35.0208 0-63.2832 28.4672-63.2832 63.2832z" fill="#FFECE9" p-id="12710"></path><path d="M512 789.7088c-40.5504 0-73.5232-32.9728-73.5232-73.5232v-65.536c0-40.5504 32.9728-73.5232 73.5232-73.5232s73.5232 32.9728 73.5232 73.5232v65.536c0 40.5504-32.9728 73.5232-73.5232 73.5232z m0-192.1024c-29.2864 0-53.0432 23.7568-53.0432 53.0432v65.536c0 29.2864 23.7568 53.0432 53.0432 53.0432s53.0432-23.7568 53.0432-53.0432v-65.536c0-29.0816-23.7568-53.0432-53.0432-53.0432z" fill="#1C1D21" p-id="12711"></path><path d="M459.5712 831.6928v18.432h104.6528v-18.432c0-28.8768-23.3472-52.4288-52.4288-52.4288-28.672 0.2048-52.224 23.552-52.224 52.4288z" fill="#FFECE9" p-id="12712"></path><path d="M564.4288 860.5696c-5.7344 0-10.24-4.5056-10.24-10.24v-18.432c0-23.1424-18.8416-42.1888-42.1888-42.1888s-42.1888 18.8416-42.1888 42.1888v18.432c0 5.7344-4.5056 10.24-10.24 10.24s-10.24-4.5056-10.24-10.24v-18.432c0-34.6112 28.0576-62.6688 62.6688-62.6688s62.6688 28.0576 62.6688 62.6688v18.432c0 5.5296-4.7104 10.24-10.24 10.24z" fill="#1C1D21" p-id="12713"></path><path d="M491.52 628.9408m-10.8544 0a10.8544 10.8544 0 1 0 21.7088 0 10.8544 10.8544 0 1 0-21.7088 0Z" fill="#1C1D21" p-id="12714"></path><path d="M493.7728 863.0272c-5.7344 0-10.24-4.5056-10.24-10.24v-24.9856c0-5.7344 4.5056-10.24 10.24-10.24s10.24 4.5056 10.24 10.24v24.9856c0 5.7344-4.7104 10.24-10.24 10.24zM530.2272 863.0272c-5.7344 0-10.24-4.5056-10.24-10.24v-24.9856c0-5.7344 4.5056-10.24 10.24-10.24s10.24 4.5056 10.24 10.24v24.9856c0 5.7344-4.5056 10.24-10.24 10.24z" fill="#1C1D21" p-id="12715"></path><path d="M340.7872 412.672l-46.2848 46.2848c-24.7808 24.7808-24.7808 64.7168 0 89.4976 24.7808 24.7808 64.7168 24.7808 89.4976 0l46.2848-46.2848c24.7808-24.7808 24.7808-64.7168 0-89.4976-24.7808-24.576-64.7168-24.576-89.4976 0z" fill="#FFECE9" p-id="12716"></path><path d="M339.1488 577.1264c-19.6608 0-38.0928-7.5776-52.0192-21.504-13.9264-13.9264-21.504-32.3584-21.504-52.0192s7.5776-38.0928 21.504-52.0192l46.2848-46.2848c13.9264-13.9264 32.3584-21.504 52.0192-21.504 19.6608 0 38.0928 7.5776 52.0192 21.504 13.9264 13.9264 21.504 32.3584 21.504 52.0192s-7.5776 38.0928-21.504 52.0192l-17.2032 17.2032c-4.096 4.096-10.4448 4.096-14.5408 0s-4.096-10.4448 0-14.5408l17.2032-17.2032c10.0352-10.0352 15.5648-23.3472 15.5648-37.4784s-5.5296-27.4432-15.5648-37.4784c-10.0352-10.0352-23.3472-15.5648-37.4784-15.5648s-27.4432 5.5296-37.4784 15.5648l-46.2848 46.2848c-10.0352 10.0352-15.5648 23.3472-15.5648 37.4784s5.5296 27.4432 15.5648 37.4784c10.0352 10.0352 23.3472 15.5648 37.4784 15.5648s27.4432-5.5296 37.4784-15.5648c4.096-4.096 10.4448-4.096 14.5408 0s4.096 10.4448 0 14.5408c-13.9264 13.9264-32.3584 21.504-52.0192 21.504z" fill="#1C1D21" p-id="12717"></path><path d="M339.1488 536.1664c-8.6016 0-16.7936-3.4816-22.9376-9.6256s-9.6256-14.336-9.6256-22.9376 3.4816-16.7936 9.6256-22.9376l33.9968-33.9968c4.096-4.096 10.4448-4.096 14.5408 0s4.096 10.4448 0 14.5408l-33.9968 33.9968c-2.2528 2.2528-3.4816 5.3248-3.4816 8.6016s1.2288 6.144 3.4816 8.6016c2.2528 2.2528 5.3248 3.4816 8.6016 3.4816 5.7344 0 10.24 4.5056 10.24 10.24s-4.7104 10.0352-10.4448 10.0352z" fill="#FFFFFF" p-id="12718"></path><path d="M220.3648 548.4544l-13.1072 13.1072 74.1376 74.1376 13.1072-13.1072c20.48-20.48 20.48-53.6576 0-74.1376-20.48-20.48-53.6576-20.48-74.1376 0z" fill="#FFECE9" p-id="12719"></path><path d="M281.3952 645.7344c-2.6624 0-5.3248-1.024-7.168-3.072-4.096-4.096-4.096-10.4448 0-14.5408l13.1072-13.1072c16.384-16.384 16.384-43.2128 0-59.5968s-43.2128-16.384-59.5968 0l-13.1072 13.1072c-4.096 4.096-10.4448 4.096-14.5408 0s-4.096-10.4448 0-14.5408l13.1072-13.1072c24.3712-24.3712 64.1024-24.3712 88.4736 0 24.3712 24.3712 24.3712 64.1024 0 88.4736l-13.1072 13.1072c-1.8432 2.4576-4.5056 3.2768-7.168 3.2768zM433.5616 508.7232h-0.4096c-26.0096-1.024-50.3808-11.8784-68.8128-30.1056s-29.0816-42.8032-30.1056-68.8128c-0.2048-5.7344 4.096-10.4448 9.8304-10.6496 5.5296-0.2048 10.4448 4.096 10.6496 9.8304 0.8192 20.8896 9.4208 40.3456 24.1664 55.0912 14.7456 14.7456 34.4064 23.3472 55.0912 24.1664 5.7344 0.2048 10.0352 4.9152 9.8304 10.6496-0.2048 5.5296-4.7104 9.8304-10.24 9.8304z" fill="#1C1D21" p-id="12720"></path><path d="M378.816689 435.331104a10.8544 10.8544 0 1 0 15.350171-15.350707 10.8544 10.8544 0 1 0-15.350171 15.350707Z" fill="#1C1D21" p-id="12721"></path><path d="M229.5808 597.6064c-2.6624 0-5.3248-1.024-7.168-3.072-4.096-4.096-4.096-10.4448 0-14.5408l17.6128-17.6128c4.096-4.096 10.4448-4.096 14.5408 0s4.096 10.4448 0 14.5408l-17.6128 17.6128c-2.048 2.2528-4.7104 3.072-7.3728 3.072zM255.3856 623.616c-2.6624 0-5.3248-1.024-7.168-3.072-4.096-4.096-4.096-10.4448 0-14.5408l17.6128-17.6128c4.096-4.096 10.4448-4.096 14.5408 0s4.096 10.4448 0 14.5408l-17.6128 17.6128c-2.048 2.048-4.7104 3.072-7.3728 3.072z" fill="#1C1D21" p-id="12722"></path><path d="M683.008 412.672l46.2848 46.2848c24.7808 24.7808 24.7808 64.7168 0 89.4976-24.7808 24.7808-64.7168 24.7808-89.4976 0l-46.2848-46.2848c-24.7808-24.7808-24.7808-64.7168 0-89.4976 24.7808-24.576 64.7168-24.576 89.4976 0z" fill="#FFECE9" p-id="12723"></path><path d="M684.4416 577.1264c-19.6608 0-38.0928-7.5776-52.0192-21.504-4.096-4.096-4.096-10.4448 0-14.5408s10.4448-4.096 14.5408 0c10.0352 10.0352 23.3472 15.5648 37.4784 15.5648s27.4432-5.5296 37.4784-15.5648 15.5648-23.3472 15.5648-37.4784-5.5296-27.4432-15.5648-37.4784L675.6352 419.84c-10.0352-10.0352-23.3472-15.5648-37.4784-15.5648s-27.4432 5.5296-37.4784 15.5648c-20.6848 20.6848-20.6848 54.272 0 74.9568l17.2032 17.2032c4.096 4.096 4.096 10.4448 0 14.5408s-10.4448 4.096-14.5408 0l-17.2032-17.2032c-28.672-28.672-28.672-75.1616 0-103.8336 13.9264-13.9264 32.3584-21.504 52.0192-21.504s38.0928 7.5776 52.0192 21.504l46.2848 46.2848c13.9264 13.9264 21.504 32.3584 21.504 52.0192s-7.5776 38.0928-21.504 52.0192c-13.9264 13.7216-32.3584 21.2992-52.0192 21.2992z" fill="#1C1D21" p-id="12724"></path><path d="M803.2256 548.4544l13.1072 13.1072-74.1376 74.1376-13.1072-13.1072c-20.48-20.48-20.48-53.6576 0-74.1376 20.6848-20.48 53.6576-20.48 74.1376 0z" fill="#FFECE9" p-id="12725"></path><path d="M742.4 645.7344c-2.6624 0-5.3248-1.024-7.168-3.072l-13.1072-13.1072c-24.3712-24.3712-24.3712-64.1024 0-88.4736 24.3712-24.3712 64.1024-24.3712 88.4736 0l13.1072 13.1072c4.096 4.096 4.096 10.4448 0 14.5408s-10.4448 4.096-14.5408 0l-13.1072-13.1072c-16.384-16.384-43.2128-16.384-59.5968 0s-16.384 43.2128 0 59.5968l13.1072 13.1072c4.096 4.096 4.096 10.4448 0 14.5408-2.048 2.048-4.7104 2.8672-7.168 2.8672z" fill="#1C1D21" p-id="12726"></path><path d="M629.50099 435.361268a10.8544 10.8544 0 1 0 15.350171-15.350708 10.8544 10.8544 0 1 0-15.350171 15.350708Z" fill="#1C1D21" p-id="12727"></path><path d="M794.0096 597.6064c-2.6624 0-5.3248-1.024-7.168-3.072l-17.6128-17.6128c-4.096-4.096-4.096-10.4448 0-14.5408s10.4448-4.096 14.5408 0l17.6128 17.6128c4.096 4.096 4.096 10.4448 0 14.5408-2.048 2.2528-4.7104 3.072-7.3728 3.072zM768.2048 623.616c-2.6624 0-5.3248-1.024-7.168-3.072l-17.6128-17.6128c-4.096-4.096-4.096-10.4448 0-14.5408s10.4448-4.096 14.5408 0l17.6128 17.6128c4.096 4.096 4.096 10.4448 0 14.5408-2.048 2.048-4.7104 3.072-7.3728 3.072z" fill="#1C1D21" p-id="12728"></path><path d="M340.7872 647.3728l-46.2848 46.2848c-24.7808 24.7808-24.7808 64.7168 0 89.4976 24.7808 24.7808 64.7168 24.7808 89.4976 0l46.2848-46.2848c24.7808-24.7808 24.7808-64.7168 0-89.4976-24.7808-24.7808-64.7168-24.7808-89.4976 0z" fill="#FFECE9" p-id="12729"></path><path d="M339.1488 811.8272c-18.8416 0-37.6832-7.168-52.0192-21.504-13.9264-13.9264-21.504-32.3584-21.504-52.0192 0-19.6608 7.5776-38.0928 21.504-52.0192l46.2848-46.2848c28.672-28.672 75.1616-28.672 103.8336 0 13.9264 13.9264 21.504 32.3584 21.504 52.0192 0 19.6608-7.5776 38.0928-21.504 52.0192l-17.2032 17.2032c-4.096 4.096-10.4448 4.096-14.5408 0s-4.096-10.4448 0-14.5408l17.2032-17.2032c10.0352-10.0352 15.5648-23.3472 15.5648-37.4784s-5.5296-27.4432-15.5648-37.4784c-20.6848-20.6848-54.272-20.6848-74.9568 0l-46.2848 46.2848c-10.0352 10.0352-15.5648 23.3472-15.5648 37.4784s5.5296 27.4432 15.5648 37.4784c20.6848 20.6848 54.272 20.6848 74.9568 0 4.096-4.096 10.4448-4.096 14.5408 0s4.096 10.4448 0 14.5408c-14.1312 14.336-32.9728 21.504-51.8144 21.504z" fill="#1C1D21" p-id="12730"></path><path d="M220.3648 783.1552l-13.1072 13.1072 74.1376 74.1376 13.1072-13.1072c20.48-20.48 20.48-53.6576 0-74.1376-20.48-20.48-53.6576-20.48-74.1376 0z" fill="#FFECE9" p-id="12731"></path><path d="M281.3952 880.4352c-2.6624 0-5.3248-1.024-7.168-3.072-4.096-4.096-4.096-10.4448 0-14.5408l13.1072-13.1072c16.384-16.384 16.384-43.2128 0-59.5968-7.9872-7.9872-18.6368-12.288-29.696-12.288-11.264 0-21.9136 4.3008-29.696 12.288l-13.1072 13.1072c-4.096 4.096-10.4448 4.096-14.5408 0s-4.096-10.4448 0-14.5408l13.1072-13.1072c11.8784-11.8784 27.648-18.432 44.2368-18.432 16.7936 0 32.3584 6.5536 44.2368 18.432 24.3712 24.3712 24.3712 64.1024 0 88.4736l-13.1072 13.1072c-2.048 2.2528-4.7104 3.2768-7.3728 3.2768z" fill="#1C1D21" p-id="12732"></path><path d="M378.850845 670.016059a10.8544 10.8544 0 1 0 15.350172-15.350707 10.8544 10.8544 0 1 0-15.350172 15.350707Z" fill="#1C1D21" p-id="12733"></path><path d="M229.5808 832.3072c-2.6624 0-5.3248-1.024-7.168-3.072-4.096-4.096-4.096-10.4448 0-14.5408l17.6128-17.6128c4.096-4.096 10.4448-4.096 14.5408 0s4.096 10.4448 0 14.5408l-17.6128 17.6128c-2.048 2.048-4.7104 3.072-7.3728 3.072zM255.3856 858.112c-2.6624 0-5.3248-1.024-7.168-3.072-4.096-4.096-4.096-10.4448 0-14.5408l17.6128-17.6128c4.096-4.096 10.4448-4.096 14.5408 0s4.096 10.4448 0 14.5408l-17.6128 17.6128c-2.048 2.048-4.7104 3.072-7.3728 3.072z" fill="#1C1D21" p-id="12734"></path><path d="M683.008 647.3728l46.2848 46.2848c24.7808 24.7808 24.7808 64.7168 0 89.4976-24.7808 24.7808-64.7168 24.7808-89.4976 0l-46.2848-46.2848c-24.7808-24.7808-24.7808-64.7168 0-89.4976 24.7808-24.7808 64.7168-24.7808 89.4976 0z" fill="#FFECE9" p-id="12735"></path><path d="M684.4416 811.8272c-18.8416 0-37.6832-7.168-52.0192-21.504-4.096-4.096-4.096-10.4448 0-14.5408s10.4448-4.096 14.5408 0c20.6848 20.6848 54.272 20.6848 74.9568 0 10.0352-10.0352 15.5648-23.3472 15.5648-37.4784s-5.5296-27.4432-15.5648-37.4784l-46.2848-46.2848c-20.6848-20.6848-54.272-20.6848-74.9568 0-20.6848 20.6848-20.6848 54.272 0 74.9568l17.2032 17.2032c4.096 4.096 4.096 10.4448 0 14.5408s-10.4448 4.096-14.5408 0l-17.2032-17.2032c-28.672-28.672-28.672-75.1616 0-103.8336s75.3664-28.672 103.8336 0l46.2848 46.2848c13.9264 13.9264 21.504 32.3584 21.504 52.0192 0 19.6608-7.5776 38.0928-21.504 52.0192-14.1312 14.1312-32.9728 21.2992-51.8144 21.2992z" fill="#1C1D21" p-id="12736"></path><path d="M803.2256 783.1552l13.1072 13.1072-74.1376 74.1376-13.1072-13.1072c-20.48-20.48-20.48-53.6576 0-74.1376 20.6848-20.48 53.6576-20.48 74.1376 0z" fill="#FFECE9" p-id="12737"></path><path d="M742.4 880.4352c-2.6624 0-5.3248-1.024-7.168-3.072l-13.1072-13.1072c-24.3712-24.3712-24.3712-64.1024 0-88.4736 24.3712-24.3712 64.1024-24.3712 88.4736 0l13.1072 13.1072c4.096 4.096 4.096 10.4448 0 14.5408s-10.4448 4.096-14.5408 0l-13.1072-13.1072c-16.384-16.384-43.2128-16.384-59.5968 0s-16.384 43.2128 0 59.5968l13.1072 13.1072c4.096 4.096 4.096 10.4448 0 14.5408-2.048 1.8432-4.7104 2.8672-7.168 2.8672z" fill="#1C1D21" p-id="12738"></path><path d="M629.536594 670.045623a10.8544 10.8544 0 1 0 15.350172-15.350708 10.8544 10.8544 0 1 0-15.350172 15.350708Z" fill="#1C1D21" p-id="12739"></path><path d="M794.0096 832.3072c-2.6624 0-5.3248-1.024-7.168-3.072l-17.6128-17.6128c-4.096-4.096-4.096-10.4448 0-14.5408s10.4448-4.096 14.5408 0l17.6128 17.6128c4.096 4.096 4.096 10.4448 0 14.5408-2.048 2.048-4.7104 3.072-7.3728 3.072zM768.2048 858.112c-2.6624 0-5.3248-1.024-7.168-3.072l-17.6128-17.6128c-4.096-4.096-4.096-10.4448 0-14.5408s10.4448-4.096 14.5408 0l17.6128 17.6128c4.096 4.096 4.096 10.4448 0 14.5408-2.048 2.048-4.7104 3.072-7.3728 3.072zM563.8144 94.208c-5.7344 0-10.24-4.5056-10.24-10.24V12.9024c0-5.7344 4.5056-10.24 10.24-10.24s10.24 4.5056 10.24 10.24V83.968c0 5.7344-4.5056 10.24-10.24 10.24z" fill="#1C1D21" p-id="12740"></path><path d="M339.1488 770.8672c-8.6016 0-16.7936-3.4816-22.9376-9.6256s-9.6256-14.336-9.6256-22.9376c0-8.6016 3.4816-16.7936 9.6256-22.9376l33.9968-33.9968c4.096-4.096 10.4448-4.096 14.5408 0s4.096 10.4448 0 14.5408l-33.9968 33.9968c-2.2528 2.2528-3.4816 5.3248-3.4816 8.6016s1.2288 6.144 3.4816 8.6016c2.2528 2.2528 5.3248 3.4816 8.6016 3.4816 5.7344 0 10.24 4.5056 10.24 10.24s-4.7104 10.0352-10.4448 10.0352zM512 748.7488c-8.6016 0-16.7936-3.4816-22.9376-9.6256s-9.4208-14.336-9.4208-22.9376v-48.128c0-5.7344 4.5056-10.24 10.24-10.24s10.24 4.5056 10.24 10.24v48.128c0 3.2768 1.2288 6.144 3.4816 8.6016 2.2528 2.2528 5.3248 3.4816 8.6016 3.4816s6.144-1.2288 8.6016-3.4816c4.096-4.096 10.4448-4.096 14.5408 0s4.096 10.4448 0 14.5408c-6.5536 5.9392-14.7456 9.4208-23.3472 9.4208zM512 506.2656c-8.6016 0-16.7936-3.4816-22.9376-9.4208-6.144-6.144-9.4208-14.336-9.4208-22.9376v-48.128c0-5.7344 4.5056-10.24 10.24-10.24s10.24 4.5056 10.24 10.24v48.128c0 3.2768 1.2288 6.144 3.4816 8.6016s5.3248 3.4816 8.6016 3.4816 6.144-1.2288 8.6016-3.4816c4.096-4.096 10.4448-4.096 14.5408 0s4.096 10.4448 0 14.5408c-6.5536 5.7344-14.7456 9.216-23.3472 9.216zM684.4416 536.1664c-5.7344 0-10.24-4.5056-10.24-10.24s4.5056-10.24 10.24-10.24c3.2768 0 6.144-1.2288 8.6016-3.4816 2.2528-2.2528 3.4816-5.3248 3.4816-8.6016s-1.2288-6.144-3.4816-8.6016l-33.9968-33.9968c-4.096-4.096-4.096-10.4448 0-14.5408s10.4448-4.096 14.5408 0l33.9968 33.9968c6.144 6.144 9.6256 14.336 9.6256 22.9376s-3.4816 16.7936-9.6256 22.9376-14.336 9.8304-23.1424 9.8304zM684.4416 770.8672c-5.7344 0-10.24-4.5056-10.24-10.24s4.5056-10.24 10.24-10.24c3.2768 0 6.144-1.2288 8.6016-3.4816 2.2528-2.2528 3.4816-5.3248 3.4816-8.6016s-1.2288-6.144-3.4816-8.6016l-33.9968-33.9968c-4.096-4.096-4.096-10.4448 0-14.5408s10.4448-4.096 14.5408 0l33.9968 33.9968c6.144 6.144 9.6256 14.336 9.6256 22.9376 0 8.6016-3.4816 16.7936-9.6256 22.9376s-14.336 9.8304-23.1424 9.8304z" fill="#FFFFFF" p-id="12741"></path><path d="M433.5616 743.424h-0.4096c-26.0096-1.024-50.3808-11.8784-68.8128-30.1056-18.432-18.432-29.0816-42.8032-30.1056-68.8128-0.2048-5.7344 4.096-10.4448 9.8304-10.6496 5.5296-0.2048 10.4448 4.096 10.6496 9.8304 0.8192 20.8896 9.4208 40.3456 24.1664 55.0912s34.4064 23.3472 55.0912 24.1664c5.7344 0.2048 10.0352 4.9152 9.8304 10.6496-0.2048 5.5296-4.7104 9.8304-10.24 9.8304zM590.2336 743.424c-5.5296 0-10.0352-4.3008-10.24-9.8304-0.2048-5.7344 4.096-10.4448 9.8304-10.6496 20.8896-0.8192 40.3456-9.4208 55.0912-24.1664 14.7456-14.7456 23.3472-34.4064 24.1664-55.0912 0.2048-5.7344 5.12-10.0352 10.6496-9.8304 5.7344 0.2048 10.0352 4.9152 9.8304 10.6496-1.024 26.0096-11.8784 50.3808-30.1056 68.8128-18.432 18.432-42.8032 29.0816-68.8128 30.1056h-0.4096zM590.2336 508.7232c-5.5296 0-10.0352-4.3008-10.24-9.8304-0.2048-5.7344 4.096-10.4448 9.8304-10.6496 20.8896-0.8192 40.3456-9.4208 55.0912-24.1664 14.7456-14.7456 23.3472-34.4064 24.1664-55.0912 0.2048-5.7344 5.12-10.0352 10.6496-9.8304 5.7344 0.2048 10.0352 4.9152 9.8304 10.6496-1.024 26.0096-11.8784 50.3808-30.1056 68.8128-18.432 18.432-42.8032 29.0816-68.8128 30.1056h-0.4096zM512 438.0672c-26.0096 0-50.7904-9.6256-70.0416-27.2384-4.096-3.8912-4.5056-10.24-0.6144-14.5408 3.8912-4.096 10.24-4.5056 14.5408-0.6144 15.36 14.1312 35.2256 21.9136 56.1152 21.9136s40.7552-7.7824 56.1152-21.9136c4.096-3.8912 10.6496-3.4816 14.5408 0.6144 3.8912 4.096 3.4816 10.6496-0.6144 14.5408-19.2512 17.6128-44.032 27.2384-70.0416 27.2384zM512 680.5504c-26.0096 0-50.7904-9.6256-70.0416-27.2384-4.096-3.8912-4.5056-10.24-0.6144-14.5408 3.8912-4.096 10.24-4.5056 14.5408-0.6144 15.36 14.1312 35.2256 21.9136 56.1152 21.9136s40.7552-7.7824 56.1152-21.9136c4.096-3.8912 10.6496-3.4816 14.5408 0.6144 3.8912 4.096 3.4816 10.6496-0.6144 14.5408-19.2512 17.408-44.032 27.2384-70.0416 27.2384z" fill="#1C1D21" p-id="12742"></path></svg>