<svg xmlns="http://www.w3.org/2000/svg" viewBox="0 0 1024 1024" version="1.1"><path d="M512 512m-501.76 0a501.76 501.76 0 1 0 1003.52 0 501.76 501.76 0 1 0-1003.52 0Z" fill="#8CEEF9" p-id="15179"></path><path d="M809.1648 485.7856h0.8192c23.1424 0 40.1408-21.2992 35.4304-44.032-27.648-131.6864-131.4816-235.52-263.168-263.168-22.7328-4.7104-44.032 12.288-44.032 35.4304v0.8192c0 17.2032 12.288 31.9488 29.0816 35.6352 103.0144 21.7088 184.5248 103.2192 206.2336 206.2336 3.6864 16.7936 18.2272 29.0816 35.6352 29.0816z" fill="#FF8939" p-id="15180"></path><path d="M538.2144 809.1648v0.8192c0 23.1424 21.2992 40.1408 44.032 35.4304 131.6864-27.648 235.52-131.4816 263.168-263.168 4.7104-22.7328-12.288-44.032-35.4304-44.032h-0.8192c-17.2032 0-31.9488 12.288-35.6352 29.0816-21.7088 103.0144-103.2192 184.5248-206.2336 206.2336-16.7936 3.6864-29.0816 18.2272-29.0816 35.6352z" fill="#0ABFB2" p-id="15181"></path><path d="M485.7856 214.8352v-0.8192c0-23.1424-21.2992-40.1408-44.032-35.4304-131.6864 27.648-235.52 131.4816-263.168 263.168-4.7104 22.7328 12.288 44.032 35.4304 44.032h0.8192c17.2032 0 31.9488-12.288 35.6352-29.0816 21.7088-103.0144 103.2192-184.5248 206.2336-206.2336 16.7936-3.6864 29.0816-18.2272 29.0816-35.6352z" fill="#508DEF" p-id="15182"></path><path d="M214.8352 538.2144h-0.8192c-23.1424 0-40.1408 21.2992-35.4304 44.032 27.648 131.6864 131.4816 235.52 263.168 263.168 22.7328 4.7104 44.032-12.288 44.032-35.4304v-0.8192c0-17.2032-12.288-31.9488-29.0816-35.6352-103.0144-21.7088-184.5248-103.2192-206.2336-206.2336-3.6864-16.7936-18.2272-29.0816-35.6352-29.0816z" fill="#FF3E63" p-id="15183"></path><path d="M512 1024c-136.8064 0-265.4208-53.248-362.0864-149.9136C53.248 777.4208 0 648.8064 0 512S53.248 246.5792 149.9136 149.9136C246.5792 53.248 375.1936 0 512 0s265.4208 53.248 362.0864 149.9136C970.752 246.5792 1024 375.1936 1024 512s-53.248 265.4208-149.9136 362.0864C777.4208 970.752 648.8064 1024 512 1024z m0-1003.52C241.0496 20.48 20.48 241.0496 20.48 512s220.5696 491.52 491.52 491.52 491.52-220.5696 491.52-491.52S782.9504 20.48 512 20.48z" fill="#1C1D21" p-id="15184"></path><path d="M512 512m-150.1184 0a150.1184 150.1184 0 1 0 300.2368 0 150.1184 150.1184 0 1 0-300.2368 0Z" fill="#D66112" p-id="15185"></path><path d="M432.5376 582.656c0-82.944 67.1744-150.1184 150.1184-150.1184 23.1424 0 45.056 5.3248 64.7168 14.7456-24.1664-50.5856-75.776-85.4016-135.5776-85.4016-82.944 0-150.1184 67.1744-150.1184 150.1184 0 59.8016 34.816 111.2064 85.4016 135.5776-9.216-19.6608-14.5408-41.5744-14.5408-64.9216z" fill="#FF8939" p-id="15186"></path><path d="M408.576 413.4912c-2.6624 0-5.3248-1.024-7.3728-3.2768-3.8912-4.096-3.6864-10.6496 0.4096-14.5408 3.2768-3.072 6.5536-5.9392 10.0352-8.8064 4.3008-3.4816 10.8544-2.8672 14.336 1.6384 3.4816 4.3008 2.8672 10.8544-1.6384 14.336-3.072 2.4576-5.9392 4.9152-8.6016 7.5776-2.2528 2.2528-4.7104 3.072-7.168 3.072z" fill="#1C1D21" p-id="15187"></path><path d="M512 672.3584c-88.4736 0-160.3584-71.8848-160.3584-160.3584 0-26.8288 6.7584-53.248 19.456-76.8 2.6624-4.9152 9.0112-6.7584 13.9264-4.096 4.9152 2.6624 6.7584 9.0112 4.096 13.9264-11.0592 20.48-16.9984 43.6224-16.9984 66.9696 0 77.2096 62.6688 139.8784 139.8784 139.8784s139.8784-62.6688 139.8784-139.8784-62.6688-139.8784-139.8784-139.8784c-12.288 0-24.3712 1.6384-36.0448 4.7104-5.5296 1.4336-11.0592-1.8432-12.4928-7.3728-1.4336-5.5296 1.8432-11.0592 7.3728-12.4928 13.312-3.4816 27.2384-5.3248 41.1648-5.3248 88.4736 0 160.3584 71.8848 160.3584 160.3584s-71.8848 160.3584-160.3584 160.3584z" fill="#1C1D21" p-id="15188"></path><path d="M521.216 498.2784h-18.6368c-1.024 0-1.8432-0.8192-1.8432-1.8432v-21.7088c0-1.024 0.8192-1.8432 1.8432-1.8432h34.2016a13.7216 13.7216 0 0 0 0-27.4432h-11.6736V421.888c0-5.7344-4.7104-10.4448-10.4448-10.4448s-10.4448 4.7104-10.4448 10.4448v23.552h-1.6384c-16.1792 0-29.2864 13.1072-29.2864 29.2864v21.7088c0 16.1792 13.1072 29.2864 29.2864 29.2864h18.6368c1.024 0 1.8432 0.8192 1.8432 1.8432v21.7088c0 1.024-0.8192 1.8432-1.8432 1.8432h-34.2016a13.7216 13.7216 0 0 0 0 27.4432h17.2032V602.112c0 5.7344 4.7104 10.4448 10.4448 10.4448s10.4448-4.7104 10.4448-10.4448v-23.7568c14.336-1.8432 25.3952-14.1312 25.3952-29.0816v-21.7088c0-16.1792-13.1072-29.2864-29.2864-29.2864z" fill="#FFF0CC" p-id="15189"></path><path d="M809.7792 496.0256h-0.8192c-21.9136 0-40.96-15.7696-45.6704-37.2736-21.0944-99.5328-98.9184-177.3568-198.2464-198.2464-21.504-4.5056-37.2736-23.7568-37.2736-45.6704v-0.8192c0-14.1312 6.3488-27.2384 17.2032-36.0448 11.0592-9.0112 25.1904-12.288 39.1168-9.4208 136.192 28.672 242.4832 134.9632 271.1552 271.1552 2.8672 13.9264-0.6144 28.0576-9.4208 39.1168-8.8064 11.0592-21.9136 17.2032-36.0448 17.2032zM574.464 188.2112c-5.9392 0-11.8784 2.048-16.5888 5.9392-6.144 4.9152-9.6256 12.288-9.6256 20.0704v0.8192c0 12.4928 8.6016 22.9376 21.0944 25.6 107.3152 22.7328 191.488 106.7008 214.2208 214.2208 2.6624 12.288 13.1072 21.0944 25.6 21.0944h0.8192c7.7824 0 15.1552-3.4816 20.0704-9.6256 4.9152-6.144 6.9632-14.1312 5.3248-22.1184-26.8288-128.2048-127.1808-228.352-255.1808-255.1808-2.048-0.8192-3.8912-0.8192-5.7344-0.8192zM574.464 856.2688c-10.6496 0-20.8896-3.6864-29.4912-10.4448-10.8544-8.8064-17.2032-21.9136-17.2032-36.0448v-0.8192c0-21.9136 15.7696-40.96 37.2736-45.6704 99.5328-21.0944 177.3568-98.9184 198.2464-198.2464 4.5056-21.504 23.7568-37.2736 45.6704-37.2736h0.8192c14.1312 0 27.2384 6.3488 36.0448 17.2032 9.0112 11.0592 12.288 25.1904 9.4208 39.1168-28.672 136.192-134.9632 242.4832-271.1552 271.1552-3.072 0.8192-6.3488 1.024-9.6256 1.024z m234.7008-307.8144c-12.4928 0-22.9376 8.6016-25.6 21.0944-22.7328 107.3152-106.7008 191.488-214.2208 214.2208-12.288 2.6624-21.0944 13.1072-21.0944 25.6v0.8192c0 7.7824 3.4816 15.1552 9.6256 20.0704 6.144 4.9152 14.1312 6.9632 22.1184 5.3248 128.2048-26.8288 228.352-127.1808 255.1808-255.1808 1.6384-7.7824-0.2048-15.7696-5.3248-22.1184-4.9152-6.144-12.288-9.6256-20.0704-9.6256h-0.6144zM214.8352 496.0256h-0.8192c-14.1312 0-27.2384-6.3488-36.0448-17.2032-9.0112-11.0592-12.288-25.1904-9.4208-39.1168 28.672-136.192 134.9632-242.4832 271.1552-271.1552 13.9264-2.8672 28.0576 0.6144 39.1168 9.4208 10.8544 8.8064 17.2032 21.9136 17.2032 36.0448v0.8192c0 21.9136-15.7696 40.96-37.2736 45.6704-99.5328 21.0944-177.3568 98.9184-198.2464 198.2464-4.7104 21.7088-23.7568 37.2736-45.6704 37.2736zM449.536 188.2112c-1.8432 0-3.6864 0.2048-5.5296 0.6144-128.2048 26.8288-228.352 127.1808-255.1808 255.1808-1.6384 7.7824 0.2048 15.7696 5.3248 22.1184 4.9152 6.144 12.288 9.6256 20.0704 9.6256h0.8192c12.4928 0 22.9376-8.6016 25.6-21.0944 22.7328-107.3152 106.7008-191.488 214.2208-214.2208 12.288-2.6624 21.0944-13.1072 21.0944-25.6v-0.8192c0-7.7824-3.4816-15.1552-9.6256-20.0704-5.12-3.8912-10.8544-5.7344-16.7936-5.7344zM449.536 856.2688c-3.2768 0-6.5536-0.4096-9.8304-1.024-136.192-28.672-242.4832-134.9632-271.1552-271.1552-2.8672-13.9264 0.6144-28.0576 9.4208-39.1168 8.8064-10.8544 21.9136-17.2032 36.0448-17.2032h0.8192c21.9136 0 40.96 15.7696 45.6704 37.2736 21.0944 99.5328 98.9184 177.3568 198.2464 198.2464 21.504 4.5056 37.2736 23.7568 37.2736 45.6704v0.8192c0 14.1312-6.3488 27.2384-17.2032 36.0448-8.3968 6.9632-18.6368 10.4448-29.2864 10.4448zM214.2208 548.4544c-7.7824 0-15.1552 3.4816-20.0704 9.6256-4.9152 6.144-6.9632 14.1312-5.3248 22.1184 26.8288 128.2048 127.1808 228.352 255.1808 255.1808 7.7824 1.6384 15.7696-0.2048 22.1184-5.3248 6.144-4.9152 9.6256-12.288 9.6256-20.0704v-0.8192c0-12.4928-8.6016-22.9376-21.0944-25.6-107.3152-22.7328-191.488-106.7008-214.2208-214.2208-2.6624-12.288-13.1072-21.0944-25.6-21.0944h-0.6144z" fill="#1C1D21" p-id="15190"></path><path d="M302.8992 292.864m-69.0176 0a69.0176 69.0176 0 1 0 138.0352 0 69.0176 69.0176 0 1 0-138.0352 0Z" fill="#FFC5B3" p-id="15191"></path><path d="M721.1008 292.864m-69.0176 0a69.0176 69.0176 0 1 0 138.0352 0 69.0176 69.0176 0 1 0-138.0352 0Z" fill="#FFC5B3" p-id="15192"></path><path d="M302.8992 372.1216c-43.8272 0-79.2576-35.6352-79.2576-79.2576s35.6352-79.2576 79.2576-79.2576 79.2576 35.6352 79.2576 79.2576-35.4304 79.2576-79.2576 79.2576z m0-138.24c-32.3584 0-58.7776 26.4192-58.7776 58.7776s26.4192 58.7776 58.7776 58.7776c32.3584 0 58.7776-26.4192 58.7776-58.7776s-26.2144-58.7776-58.7776-58.7776zM721.1008 372.1216c-43.8272 0-79.2576-35.6352-79.2576-79.2576s35.6352-79.2576 79.2576-79.2576 79.2576 35.6352 79.2576 79.2576-35.6352 79.2576-79.2576 79.2576z m0-138.24c-32.3584 0-58.7776 26.4192-58.7776 58.7776s26.4192 58.7776 58.7776 58.7776c32.3584 0 58.7776-26.4192 58.7776-58.7776s-26.4192-58.7776-58.7776-58.7776z" fill="#1C1D21" p-id="15193"></path><path d="M302.8992 731.136m-69.0176 0a69.0176 69.0176 0 1 0 138.0352 0 69.0176 69.0176 0 1 0-138.0352 0Z" fill="#FFC5B3" p-id="15194"></path><path d="M721.1008 731.136m-69.0176 0a69.0176 69.0176 0 1 0 138.0352 0 69.0176 69.0176 0 1 0-138.0352 0Z" fill="#FFC5B3" p-id="15195"></path><path d="M302.8992 810.5984c-43.8272 0-79.2576-35.6352-79.2576-79.2576s35.6352-79.2576 79.2576-79.2576 79.2576 35.6352 79.2576 79.2576-35.4304 79.2576-79.2576 79.2576z m0-138.24c-32.3584 0-58.7776 26.4192-58.7776 58.7776s26.4192 58.7776 58.7776 58.7776c32.3584 0 58.7776-26.4192 58.7776-58.7776s-26.2144-58.7776-58.7776-58.7776zM721.1008 810.5984c-43.8272 0-79.2576-35.6352-79.2576-79.2576s35.6352-79.2576 79.2576-79.2576 79.2576 35.6352 79.2576 79.2576-35.6352 79.2576-79.2576 79.2576z m0-138.24c-32.3584 0-58.7776 26.4192-58.7776 58.7776s26.4192 58.7776 58.7776 58.7776c32.3584 0 58.7776-26.4192 58.7776-58.7776s-26.4192-58.7776-58.7776-58.7776z" fill="#1C1D21" p-id="15196"></path></svg>