<svg xmlns="http://www.w3.org/2000/svg" viewBox="0 0 1024 1024" version="1.1"><path d="M512 512m-501.76 0a501.76 501.76 0 1 0 1003.52 0 501.76 501.76 0 1 0-1003.52 0Z" fill="#0ABFB2" p-id="13675"></path><path d="M539.648 723.1488l230.6048-269.9264c35.84-41.984 55.5008-95.232 55.5008-150.3232 0-86.2208-70.0416-156.2624-156.2624-156.2624-50.7904 0-98.304 24.576-127.5904 65.9456L512 254.7712l-29.9008-42.1888a156.219392 156.219392 0 0 0-127.5904-65.9456c-86.2208 0-156.2624 70.0416-156.2624 156.2624 0 55.0912 19.6608 108.544 55.5008 150.3232l230.6048 269.9264c14.5408 16.9984 40.7552 16.9984 55.296 0z" fill="#FFECE9" p-id="13676"></path><path d="M513.8432 254.7712h64.1024s32.3584-2.048 32.3584 71.0656v85.1968s-79.872 56.5248-98.9184 178.5856h-0.2048c-18.8416-122.0608-98.9184-178.5856-98.9184-178.5856v-85.1968c0-73.1136 32.3584-71.0656 32.3584-71.0656h64.1024" fill="#0ABFB2" p-id="13677"></path><path d="M512 1024c-136.8064 0-265.4208-53.248-362.0864-149.9136C53.248 777.4208 0 648.8064 0 512S53.248 246.5792 149.9136 149.9136C246.5792 53.248 375.1936 0 512 0s265.4208 53.248 362.0864 149.9136C970.752 246.5792 1024 375.1936 1024 512s-53.248 265.4208-149.9136 362.0864C777.4208 970.752 648.8064 1024 512 1024z m0-1003.52C241.0496 20.48 20.48 241.0496 20.48 512s220.5696 491.52 491.52 491.52 491.52-220.5696 491.52-491.52S782.9504 20.48 512 20.48z" fill="#1C1D21" p-id="13678"></path><path d="M436.4288 184.32l10.0352-7.9872s37.2736 24.3712 62.6688 74.3424h-69.4272c0.2048 0-7.168-44.8512-3.2768-66.3552zM591.0528 184.32l-10.0352-7.9872s-37.2736 24.3712-62.6688 74.3424H587.776c-0.2048 0 7.168-44.8512 3.2768-66.3552z" fill="#C67552" p-id="13679"></path><path d="M512 746.0864c-13.7216 0-26.4192-5.9392-35.4304-16.384L245.9648 459.776c-37.2736-43.8272-57.9584-99.5328-57.9584-157.0816 0-91.7504 74.752-166.5024 166.5024-166.5024 53.8624 0 104.8576 26.2144 135.9872 70.2464l21.504 30.3104 21.504-30.3104c31.1296-44.032 81.92-70.2464 135.9872-70.2464 91.7504 0 166.5024 74.752 166.5024 166.5024 0 57.5488-20.48 113.2544-57.9584 157.0816L547.4304 729.9072c-9.0112 10.24-21.7088 16.1792-35.4304 16.1792zM354.5088 156.672c-80.4864 0-146.0224 65.536-146.0224 146.0224 0 52.6336 18.8416 103.6288 53.0432 143.7696l230.6048 269.9264c4.9152 5.7344 12.0832 9.216 19.8656 9.216s14.7456-3.2768 19.8656-9.216L762.4704 446.464c34.2016-39.936 53.0432-91.136 53.0432-143.7696 0-80.4864-65.536-146.0224-146.0224-146.0224-47.3088 0-91.9552 23.1424-119.1936 61.6448l-29.9008 42.1888c-1.8432 2.6624-5.12 4.3008-8.3968 4.3008s-6.3488-1.6384-8.3968-4.3008l-29.9008-42.1888c-27.2384-38.5024-71.8848-61.6448-119.1936-61.6448z m185.1392 566.4768z" fill="#1C1D21" p-id="13680"></path><path d="M339.968 198.656c-5.12 0-9.4208-3.6864-10.24-9.0112-0.6144-5.5296 3.2768-10.6496 8.8064-11.4688 5.3248-0.6144 10.6496-1.024 15.9744-1.024 5.7344 0 10.24 4.5056 10.24 10.24s-4.5056 10.24-10.24 10.24c-4.5056 0-9.0112 0.2048-13.312 0.8192-0.4096 0.2048-0.8192 0.2048-1.2288 0.2048zM284.8768 436.8384c-2.8672 0-5.7344-1.2288-7.7824-3.6864-31.1296-36.2496-48.128-82.7392-48.128-130.4576 0-46.08 25.1904-88.4736 65.7408-110.3872 4.9152-2.6624 11.264-0.8192 13.9264 4.096 2.6624 4.9152 0.8192 11.264-4.096 13.9264-33.9968 18.432-55.0912 53.8624-55.0912 92.3648 0 43.008 15.36 84.5824 43.2128 117.1456 3.6864 4.3008 3.072 10.8544-1.2288 14.336-1.8432 1.8432-4.096 2.6624-6.5536 2.6624z" fill="#FFFFFF" p-id="13681"></path><path d="M339.968 564.4288c-2.6624 0-5.5296-1.024-7.3728-3.2768-3.8912-4.096-3.6864-10.6496 0.4096-14.5408l27.8528-26.2144c27.2384-25.8048 43.008-62.0544 43.008-99.5328v-128.6144c0-26.4192 21.504-47.7184 47.7184-47.7184H512c5.7344 0 10.24 4.5056 10.24 10.24s-4.5056 10.24-10.24 10.24h-60.416c-15.1552 0-27.2384 12.288-27.2384 27.2384v128.6144c0 43.2128-18.0224 84.7872-49.3568 114.4832l-27.8528 26.2144c-2.048 1.8432-4.7104 2.8672-7.168 2.8672z" fill="#1C1D21" p-id="13682"></path><path d="M436.4288 265.0112c-5.7344 0-10.24-4.5056-10.24-10.24V171.008c0-5.7344 4.5056-10.24 10.24-10.24s10.24 4.5056 10.24 10.24v83.7632c0 5.5296-4.5056 10.24-10.24 10.24z" fill="#1C1D21" p-id="13683"></path><path d="M392.6016 204.1856m-13.7216 0a13.7216 13.7216 0 1 0 27.4432 0 13.7216 13.7216 0 1 0-27.4432 0Z" fill="#1C1D21" p-id="13684"></path><path d="M587.5712 265.0112c-5.7344 0-10.24-4.5056-10.24-10.24V171.008c0-5.7344 4.5056-10.24 10.24-10.24s10.24 4.5056 10.24 10.24v83.7632c0 5.5296-4.5056 10.24-10.24 10.24z" fill="#1C1D21" p-id="13685"></path><path d="M631.3984 204.1856m-13.7216 0a13.7216 13.7216 0 1 0 27.4432 0 13.7216 13.7216 0 1 0-27.4432 0Z" fill="#1C1D21" p-id="13686"></path><path d="M684.032 564.4288c-2.4576 0-5.12-1.024-6.9632-2.8672L649.216 535.3472c-31.3344-29.4912-49.3568-71.2704-49.3568-114.4832v-128.6144c0-15.1552-12.288-27.2384-27.2384-27.2384H512c-5.7344 0-10.24-4.5056-10.24-10.24s4.5056-10.24 10.24-10.24h60.416c26.4192 0 47.7184 21.504 47.7184 47.7184v128.6144c0 37.4784 15.7696 73.728 43.008 99.5328l27.8528 26.2144c4.096 3.8912 4.3008 10.4448 0.4096 14.5408-1.8432 2.2528-4.7104 3.2768-7.3728 3.2768zM512 746.0864c-5.7344 0-10.24-4.5056-10.24-10.24V608.256c0-112.8448-92.9792-184.5248-93.7984-185.1392-4.5056-3.4816-5.3248-9.8304-2.048-14.336 3.4816-4.5056 9.8304-5.3248 14.336-2.048 4.096 3.072 101.9904 78.6432 101.9904 201.5232v127.5904c0 5.7344-4.5056 10.24-10.24 10.24z" fill="#1C1D21" p-id="13687"></path><path d="M511.7952 746.0864c-5.7344 0-10.24-4.5056-10.24-10.24V608.256c0-122.88 97.8944-198.4512 101.9904-201.5232 4.5056-3.4816 10.8544-2.4576 14.336 2.048 3.4816 4.5056 2.4576 10.8544-2.048 14.336-1.2288 1.024-93.7984 72.9088-93.7984 185.1392v127.5904c0 5.7344-4.5056 10.24-10.24 10.24z" fill="#1C1D21" p-id="13688"></path><path d="M279.7568 559.5136l-18.0224-20.2752c-25.1904-28.2624-56.9344-50.176-92.3648-63.2832 9.0112 36.864 26.8288 70.8608 52.0192 99.1232l18.0224 20.2752 40.3456-35.84z" fill="#FF8939" p-id="13689"></path><path d="M239.4112 605.5936c-2.8672 0-5.7344-1.2288-7.5776-3.4816l-18.0224-20.2752c-26.2144-29.4912-45.056-65.3312-54.272-103.424-0.8192-3.6864 0.2048-7.5776 3.072-10.0352 2.8672-2.4576 6.7584-3.2768 10.4448-1.8432 36.864 13.9264 70.2464 36.6592 96.4608 66.1504l18.0224 20.2752c1.8432 2.048 2.6624 4.7104 2.6624 7.3728s-1.4336 5.3248-3.4816 6.9632l-40.3456 35.84c-2.048 1.6384-4.5056 2.4576-6.9632 2.4576z m-54.0672-111.616c9.6256 27.2384 24.3712 52.6336 43.6224 74.3424l11.264 12.6976 24.9856-22.1184-11.264-12.6976c-19.2512-21.7088-42.5984-39.5264-68.608-52.224z" fill="#1C1D21" p-id="13690"></path><path d="M321.7408 681.7792l-73.3184-4.3008 26.4192 29.9008c13.7216 15.36 32.9728 24.7808 53.4528 26.0096l73.3184 4.3008-26.4192-29.9008c-13.7216-15.5648-32.9728-24.9856-53.4528-26.0096zM224.256 572.0064l-73.3184-4.3008 26.4192 29.9008c13.7216 15.36 32.9728 24.7808 53.4528 26.0096l73.3184 4.3008-26.4192-29.9008c-13.7216-15.5648-32.768-24.7808-53.4528-26.0096zM355.7376 651.4688l4.3008-73.3184 26.4192 29.9008c13.7216 15.36 20.6848 35.6352 19.456 56.1152l-4.3008 73.3184-26.4192-29.9008c-13.7216-15.36-20.6848-35.6352-19.456-56.1152zM258.2528 541.696l4.3008-73.3184 26.4192 29.9008c13.7216 15.36 20.6848 35.6352 19.456 56.1152l-4.3008 73.3184-26.4192-29.9008c-13.7216-15.36-20.6848-35.4304-19.456-56.1152z" fill="#FF8939" p-id="13691"></path><path d="M401.6128 747.7248h-0.6144L327.68 743.424c-23.3472-1.4336-44.8512-11.8784-60.416-29.2864l-26.4192-29.9008c-2.6624-3.072-3.2768-7.5776-1.6384-11.264a10.4448 10.4448 0 0 1 9.8304-5.7344l73.3184 4.3008c23.3472 1.4336 44.8512 11.8784 60.416 29.2864l26.4192 29.9008c2.6624 3.072 3.2768 7.5776 1.6384 11.264-1.6384 3.4816-5.12 5.7344-9.216 5.7344z m-129.024-58.7776l10.0352 11.264c11.8784 13.5168 28.4672 21.504 46.2848 22.528l48.7424 2.8672-10.0352-11.264c-11.8784-13.5168-28.4672-21.504-46.2848-22.528l-48.7424-2.8672zM304.3328 637.952h-0.6144l-73.3184-4.3008c-23.3472-1.4336-44.8512-11.8784-60.416-29.2864l-26.624-29.9008c-2.6624-3.072-3.2768-7.5776-1.6384-11.264a10.4448 10.4448 0 0 1 9.8304-5.7344l73.3184 4.3008c23.3472 1.4336 44.8512 11.8784 60.416 29.2864l26.4192 29.9008c2.6624 3.072 3.2768 7.5776 1.6384 11.264-1.6384 3.4816-5.12 5.7344-9.0112 5.7344z m-129.2288-58.5728l10.0352 11.264c11.8784 13.5168 28.4672 21.504 46.2848 22.528l48.7424 2.8672-10.0352-11.264c-11.8784-13.5168-28.4672-21.504-46.2848-22.528l-48.7424-2.8672z" fill="#1C1D21" p-id="13692"></path><path d="M401.6128 747.7248c-2.8672 0-5.7344-1.2288-7.5776-3.4816l-26.4192-29.9008c-15.5648-17.6128-23.3472-40.1408-22.1184-63.488l4.3008-73.3184c0.2048-4.096 2.8672-7.7824 6.9632-9.0112 3.8912-1.4336 8.192-0.2048 11.0592 2.8672l26.4192 29.9008c15.5648 17.6128 23.3472 40.1408 22.1184 63.488l-4.3008 73.3184c-0.2048 4.096-2.8672 7.7824-6.9632 9.0112-1.2288 0.4096-2.2528 0.6144-3.4816 0.6144z m-35.6352-95.6416c-1.024 18.0224 4.9152 35.2256 16.7936 48.7424l10.0352 11.264 2.8672-48.7424c1.024-18.0224-4.9152-35.2256-16.7936-48.7424l-10.0352-11.264-2.8672 48.7424zM304.3328 637.952c-2.8672 0-5.7344-1.2288-7.5776-3.4816L270.336 604.5696c-15.5648-17.6128-23.3472-40.1408-22.1184-63.488l4.3008-73.3184c0.2048-4.096 2.8672-7.7824 6.9632-9.0112 3.8912-1.4336 8.192-0.2048 11.0592 2.8672L296.96 491.52c15.5648 17.6128 23.3472 40.1408 22.1184 63.488l-4.3008 73.3184c-0.2048 4.096-2.8672 7.7824-6.9632 9.0112-1.2288 0.4096-2.4576 0.6144-3.4816 0.6144z m-35.84-95.6416c-1.024 18.0224 4.9152 35.2256 16.7936 48.7424l10.0352 11.264 2.8672-48.7424c1.024-18.0224-4.9152-35.2256-16.7936-48.7424l-10.0352-11.264-2.8672 48.7424z" fill="#1C1D21" p-id="13693"></path><path d="M478.4128 833.9456c-2.8672 0-5.7344-1.2288-7.5776-3.4816l-174.08-195.9936c-3.6864-4.3008-3.2768-10.6496 0.8192-14.5408 4.3008-3.6864 10.6496-3.2768 14.5408 0.8192l174.08 195.9936c3.6864 4.3008 3.2768 10.6496-0.8192 14.5408-2.048 1.8432-4.5056 2.6624-6.9632 2.6624z" fill="#1C1D21" p-id="13694"></path><path d="M744.2432 559.5136l18.0224-20.2752c25.1904-28.2624 56.9344-50.176 92.3648-63.2832-9.0112 36.864-26.8288 70.8608-52.0192 99.1232l-18.0224 20.2752-40.3456-35.84z" fill="#FF8939" p-id="13695"></path><path d="M784.5888 605.5936c-2.4576 0-4.9152-0.8192-6.7584-2.6624L737.4848 567.296c-2.048-1.8432-3.2768-4.3008-3.4816-6.9632s0.8192-5.3248 2.6624-7.3728l18.0224-20.2752c26.2144-29.4912 59.392-52.4288 96.4608-66.1504 3.4816-1.4336 7.5776-0.6144 10.4448 1.8432 2.8672 2.4576 4.096 6.3488 3.072 10.0352-9.4208 38.2976-28.2624 74.1376-54.272 103.424l-18.0224 20.2752c-2.2528 2.2528-4.9152 3.4816-7.7824 3.4816z m-25.8048-46.8992l24.9856 22.1184 11.264-12.6976c19.2512-21.7088 33.9968-46.8992 43.6224-74.3424-26.0096 12.6976-49.3568 30.5152-68.608 52.0192l-11.264 12.9024z" fill="#1C1D21" p-id="13696"></path><path d="M702.2592 681.7792l73.3184-4.3008-26.4192 29.9008c-13.7216 15.36-32.9728 24.7808-53.4528 26.0096l-73.3184 4.3008 26.4192-29.9008c13.7216-15.5648 32.9728-24.9856 53.4528-26.0096zM799.744 572.0064l73.3184-4.3008-26.4192 29.9008c-13.7216 15.36-32.9728 24.7808-53.4528 26.0096l-73.3184 4.3008 26.4192-29.9008c13.7216-15.5648 32.768-24.7808 53.4528-26.0096zM668.2624 651.4688l-4.3008-73.3184-26.4192 29.9008c-13.7216 15.36-20.6848 35.6352-19.456 56.1152l4.3008 73.3184 26.4192-29.9008c13.7216-15.36 20.6848-35.6352 19.456-56.1152zM765.7472 541.696l-4.3008-73.3184-26.4192 29.9008c-13.7216 15.36-20.6848 35.6352-19.456 56.1152l4.3008 73.3184 26.4192-29.9008c13.7216-15.36 20.6848-35.4304 19.456-56.1152z" fill="#FF8939" p-id="13697"></path><path d="M622.3872 747.7248c-3.8912 0-7.5776-2.2528-9.216-5.7344-1.8432-3.6864-1.2288-8.192 1.6384-11.264l26.4192-29.9008c15.5648-17.6128 37.0688-28.0576 60.416-29.2864l73.3184-4.3008c4.096-0.2048 7.9872 2.048 9.8304 5.7344 1.8432 3.6864 1.2288 8.192-1.6384 11.264l-26.4192 29.9008c-15.5648 17.6128-37.0688 28.0576-60.416 29.2864l-73.3184 4.3008h-0.6144z m80.4864-55.9104c-18.0224 1.024-34.4064 9.0112-46.2848 22.528l-10.0352 11.264 48.7424-2.8672c18.0224-1.024 34.4064-9.0112 46.2848-22.528l10.0352-11.264-48.7424 2.8672z m-0.6144-10.0352zM719.6672 637.952c-3.8912 0-7.5776-2.2528-9.216-5.7344-1.8432-3.6864-1.2288-8.192 1.6384-11.264l26.4192-29.9008c15.5648-17.6128 37.0688-28.0576 60.416-29.2864l73.3184-4.3008c4.096-0.2048 7.9872 2.048 9.8304 5.7344 1.8432 3.6864 1.2288 8.192-1.6384 11.264L854.016 604.3648c-15.5648 17.6128-37.0688 28.0576-60.416 29.2864l-73.3184 4.3008h-0.6144z m80.6912-55.7056c-18.0224 1.024-34.4064 9.0112-46.2848 22.528l-10.0352 11.264 48.7424-2.8672c18.0224-1.024 34.4064-9.0112 46.2848-22.528l10.0352-11.264-48.7424 2.8672z m-0.6144-10.24z" fill="#1C1D21" p-id="13698"></path><path d="M622.3872 747.7248c-1.024 0-2.2528-0.2048-3.2768-0.6144-3.8912-1.4336-6.5536-4.9152-6.9632-9.0112l-4.3008-73.3184c-1.4336-23.3472 6.3488-46.08 22.1184-63.488l26.4192-29.9008c2.6624-3.072 7.168-4.3008 11.0592-2.8672 3.8912 1.4336 6.5536 4.9152 6.9632 9.0112l4.3008 73.3184c1.4336 23.3472-6.3488 46.08-22.1184 63.488l-26.4192 29.9008c-2.2528 2.2528-4.9152 3.4816-7.7824 3.4816z m32.768-144.1792l-10.0352 11.264c-11.8784 13.5168-18.0224 30.72-16.7936 48.7424l2.8672 48.7424 10.0352-11.264c11.8784-13.5168 18.0224-30.72 16.7936-48.7424l-2.8672-48.7424zM719.6672 637.952c-1.024 0-2.2528-0.2048-3.2768-0.6144-3.8912-1.4336-6.5536-4.9152-6.9632-9.0112l-4.3008-73.3184c-1.4336-23.3472 6.3488-46.08 22.1184-63.488l26.4192-29.9008c2.6624-3.072 7.168-4.3008 11.0592-2.8672 3.8912 1.4336 6.5536 4.9152 6.9632 9.0112l4.3008 73.3184c1.4336 23.3472-6.3488 46.08-22.1184 63.488l-26.4192 29.9008c-2.048 2.2528-4.9152 3.4816-7.7824 3.4816z m32.9728-144.1792l-10.0352 11.264c-11.8784 13.5168-18.0224 30.72-16.7936 48.7424l2.8672 48.7424 10.0352-11.264c11.8784-13.5168 18.0224-30.72 16.7936-48.7424l-2.8672-48.7424z" fill="#1C1D21" p-id="13699"></path><path d="M545.5872 833.9456c-2.4576 0-4.9152-0.8192-6.7584-2.6624-4.3008-3.6864-4.7104-10.24-0.8192-14.5408l174.08-195.9936c3.6864-4.3008 10.24-4.7104 14.5408-0.8192 4.3008 3.6864 4.7104 10.24 0.8192 14.5408l-174.08 195.9936c-2.048 2.4576-4.9152 3.4816-7.7824 3.4816z" fill="#1C1D21" p-id="13700"></path><path d="M476.7744 714.3424s10.4448 19.0464 8.3968 54.6816c-1.6384 27.0336-8.8064 120.6272-12.288 164.0448l-38.912-96.0512-42.8032 26.8288s11.8784-150.7328 13.9264-186.368c2.048-35.6352-8.3968-54.6816-8.3968-54.6816l80.0768 91.5456z" fill="#FFECE9" p-id="13701"></path><path d="M473.088 943.104c-4.096 0-7.9872-2.4576-9.4208-6.3488l-34.2016-84.5824-32.5632 20.2752c-3.2768 2.048-7.3728 2.048-10.6496 0s-5.12-5.7344-4.9152-9.6256c0.2048-1.4336 11.8784-151.1424 13.9264-186.1632 1.8432-31.744-7.168-48.9472-7.168-49.152-2.4576-4.5056-1.024-10.24 3.2768-13.312 4.3008-2.8672 10.0352-2.2528 13.5168 1.6384l79.872 91.5456 1.2288 1.8432c0.4096 0.8192 11.8784 22.1184 9.6256 60.2112-1.6384 27.648-9.0112 124.1088-12.288 164.2496-0.4096 4.7104-3.8912 8.6016-8.6016 9.4208h-1.6384z m-38.912-116.3264c1.024 0 2.048 0.2048 3.072 0.4096 2.8672 1.024 5.12 3.072 6.3488 5.9392l22.528 55.5008c3.4816-44.6464 7.5776-100.5568 8.8064-120.4224 1.6384-27.8528-5.12-44.4416-6.7584-48.3328l-52.6336-60.2112c0.2048 5.5296 0.4096 11.6736 0 18.2272-1.6384 27.4432-9.0112 123.904-12.288 166.2976l25.6-15.9744c1.6384-1.024 3.4816-1.4336 5.3248-1.4336z" fill="#1C1D21" p-id="13702"></path><path d="M547.2256 714.3424s-10.4448 19.0464-8.3968 54.6816c1.6384 27.0336 8.8064 120.6272 12.288 164.0448l38.912-96.0512 42.8032 26.8288s-11.8784-150.7328-13.9264-186.368 8.3968-54.6816 8.3968-54.6816l-80.0768 91.5456z" fill="#FFECE9" p-id="13703"></path><path d="M550.912 943.104c-0.6144 0-1.024 0-1.6384-0.2048-4.7104-0.8192-8.192-4.5056-8.6016-9.4208-3.072-40.1408-10.6496-136.6016-12.288-164.2496-2.2528-38.0928 9.216-59.392 9.6256-60.2112l1.2288-1.8432 79.872-91.5456c3.4816-3.8912 9.216-4.7104 13.5168-1.6384 4.3008 3.072 5.5296 8.8064 3.072 13.312 0 0-9.0112 17.408-7.168 49.152 2.048 35.2256 13.7216 184.7296 13.9264 186.1632 0.2048 3.8912-1.6384 7.5776-4.9152 9.6256-3.2768 2.048-7.3728 2.048-10.6496 0l-32.5632-20.2752-34.2016 84.5824c-1.2288 4.096-5.12 6.5536-9.216 6.5536z m4.9152-223.232c-1.6384 3.8912-8.3968 20.48-6.7584 48.3328 1.2288 19.8656 5.3248 75.776 8.8064 120.4224l22.528-55.5008c1.2288-2.8672 3.4816-4.9152 6.3488-5.9392 2.8672-1.024 5.9392-0.6144 8.6016 1.024l25.6 15.9744c-3.2768-42.3936-10.6496-138.8544-12.288-166.2976-0.4096-6.5536-0.4096-12.6976 0-18.2272l-52.8384 60.2112z" fill="#1C1D21" p-id="13704"></path></svg>