<svg xmlns="http://www.w3.org/2000/svg" viewBox="0 0 1024 1024" version="1.1"><path d="M512 512m-501.76 0a501.76 501.76 0 1 0 1003.52 0 501.76 501.76 0 1 0-1003.52 0Z" fill="#8CEEF9" p-id="12070"></path><path d="M671.744 822.4768H352.256v-127.3856c0-88.2688 71.4752-159.744 159.744-159.744s159.744 71.4752 159.744 159.744v127.3856z" fill="#AAADAD" p-id="12071"></path><path d="M671.744 832.7168H352.256c-5.7344 0-10.24-4.5056-10.24-10.24v-127.3856c0-93.7984 76.1856-169.984 169.984-169.984s169.984 76.1856 169.984 169.984v127.3856c0 5.7344-4.7104 10.24-10.24 10.24z m-309.248-20.48h299.008v-117.1456c0-82.3296-66.9696-149.504-149.504-149.504s-149.504 66.9696-149.504 149.504v117.1456z" fill="#1C1D21" p-id="12072"></path><path d="M117.76 822.4768C209.7152 939.008 352.0512 1013.76 512 1013.76s302.2848-74.752 394.24-191.2832h-788.48z" fill="#0ABFB2" p-id="12073"></path><path d="M512 1024c-157.696 0-304.3328-71.0656-402.2272-195.1744-2.4576-3.072-2.8672-7.3728-1.2288-10.8544s5.3248-5.7344 9.216-5.7344h788.2752c3.8912 0 7.5776 2.2528 9.216 5.7344s1.2288 7.7824-1.2288 10.8544C816.3328 952.9344 669.696 1024 512 1024zM139.4688 832.7168C233.0624 941.4656 367.616 1003.52 512 1003.52s278.9376-62.0544 372.5312-170.8032H139.4688z" fill="#1C1D21" p-id="12074"></path><path d="M512 1024c-136.8064 0-265.4208-53.248-362.0864-149.9136C53.248 777.4208 0 648.8064 0 512S53.248 246.5792 149.9136 149.9136C246.5792 53.248 375.1936 0 512 0s265.4208 53.248 362.0864 149.9136C970.752 246.5792 1024 375.1936 1024 512s-53.248 265.4208-149.9136 362.0864C777.4208 970.752 648.8064 1024 512 1024z m0-1003.52C241.0496 20.48 20.48 241.0496 20.48 512s220.5696 491.52 491.52 491.52 491.52-220.5696 491.52-491.52S782.9504 20.48 512 20.48z" fill="#1C1D21" p-id="12075"></path><path d="M512 10.24C234.9056 10.24 10.24 234.9056 10.24 512s224.6656 501.76 501.76 501.76 501.76-224.6656 501.76-501.76S789.0944 10.24 512 10.24z m0 943.3088c-243.9168 0-441.5488-197.632-441.5488-441.5488S268.0832 70.4512 512 70.4512 953.5488 268.0832 953.5488 512 755.9168 953.5488 512 953.5488z" fill="#C67552" p-id="12076"></path><path d="M512 1024c-136.8064 0-265.4208-53.248-362.0864-149.9136S0 648.8064 0 512 53.248 246.5792 149.9136 149.9136C246.5792 53.248 375.1936 0 512 0s265.4208 53.248 362.0864 149.9136C970.752 246.5792 1024 375.1936 1024 512s-53.248 265.4208-149.9136 362.0864C777.4208 970.752 648.8064 1024 512 1024z m0-1003.52C241.0496 20.48 20.48 241.0496 20.48 512s220.5696 491.52 491.52 491.52 491.52-220.5696 491.52-491.52S782.9504 20.48 512 20.48z m0 943.3088c-120.6272 0-234.0864-46.8992-319.488-132.3008-85.4016-85.4016-132.3008-198.8608-132.3008-319.488 0-120.6272 46.8992-234.0864 132.3008-319.488s198.8608-132.3008 319.488-132.3008 234.0864 47.104 319.488 132.3008 132.3008 198.8608 132.3008 319.488c0 120.6272-46.8992 234.0864-132.3008 319.488-85.4016 85.1968-198.8608 132.3008-319.488 132.3008z m0-883.0976C274.2272 80.6912 80.6912 274.2272 80.6912 512S274.2272 943.3088 512 943.3088 943.3088 749.7728 943.3088 512 749.7728 80.6912 512 80.6912z" fill="#1C1D21" p-id="12077"></path><path d="M512 10.24c-10.6496 0-21.2992 0.4096-31.744 1.024v105.8816c0 17.6128 14.336 31.744 31.744 31.744 17.6128 0 31.744-14.336 31.744-31.744V11.264c-10.4448-0.6144-21.0944-1.024-31.744-1.024z" fill="#C67552" p-id="12078"></path><path d="M512 159.1296c-23.1424 0-41.984-18.8416-41.984-41.984V11.264c0-5.3248 4.3008-9.8304 9.6256-10.24C490.7008 0.4096 501.5552 0 512 0c10.4448 0 21.2992 0.4096 32.5632 1.024 5.3248 0.4096 9.6256 4.9152 9.6256 10.24v105.8816c-0.2048 23.1424-19.0464 41.984-42.1888 41.984z m-21.504-138.24v96.0512c0 11.8784 9.6256 21.504 21.504 21.504s21.504-9.6256 21.504-21.504V20.8896c-14.7456-0.6144-28.2624-0.6144-43.008 0z" fill="#1C1D21" p-id="12079"></path><path d="M512 1013.76c10.6496 0 21.2992-0.4096 31.744-1.024v-105.8816c0-17.6128-14.336-31.744-31.744-31.744-17.6128 0-31.744 14.336-31.744 31.744v105.8816c10.4448 0.6144 21.0944 1.024 31.744 1.024z" fill="#C67552" p-id="12080"></path><path d="M512 1024c-10.4448 0-21.2992-0.4096-32.5632-1.024-5.3248-0.4096-9.6256-4.9152-9.6256-10.24v-105.8816c0-23.1424 18.8416-41.984 41.984-41.984s41.984 18.8416 41.984 41.984v105.8816c0 5.3248-4.3008 9.8304-9.6256 10.24-10.8544 0.6144-21.7088 1.024-32.1536 1.024z m-21.504-20.8896c7.3728 0.4096 14.5408 0.4096 21.504 0.4096s14.1312-0.2048 21.504-0.4096v-96.0512c0-11.8784-9.6256-21.504-21.504-21.504s-21.504 9.6256-21.504 21.504v96.0512z" fill="#1C1D21" p-id="12081"></path><path d="M1013.76 512c0-10.6496-0.4096-21.2992-1.024-31.744h-105.8816c-17.6128 0-31.744 14.336-31.744 31.744 0 17.6128 14.336 31.744 31.744 31.744h105.8816c0.6144-10.4448 1.024-21.0944 1.024-31.744z" fill="#C67552" p-id="12082"></path><path d="M1012.736 553.984h-105.8816c-23.1424 0-41.984-18.8416-41.984-41.984s18.8416-41.984 41.984-41.984h105.8816c5.3248 0 9.8304 4.3008 10.24 9.6256 0.6144 11.264 1.024 22.1184 1.024 32.5632s-0.4096 21.0944-1.024 32.5632c-0.4096 5.12-4.9152 9.216-10.24 9.216z m-105.8816-63.488c-11.8784 0-21.504 9.6256-21.504 21.504s9.6256 21.504 21.504 21.504h96.0512c0.4096-7.3728 0.4096-14.5408 0.4096-21.504 0-7.168-0.2048-14.1312-0.4096-21.504h-96.0512z" fill="#1C1D21" p-id="12083"></path><path d="M10.24 512c0 10.6496 0.4096 21.2992 1.024 31.744h105.8816c17.6128 0 31.744-14.336 31.744-31.744 0-17.6128-14.336-31.744-31.744-31.744H11.264c-0.6144 10.4448-1.024 21.0944-1.024 31.744z" fill="#C67552" p-id="12084"></path><path d="M117.1456 553.984H11.264c-5.3248 0-9.8304-4.3008-10.24-9.6256-0.6144-11.264-1.024-21.9136-1.024-32.3584 0-10.4448 0.4096-21.2992 1.024-32.5632 0.4096-5.3248 4.9152-9.6256 10.24-9.6256h105.8816c23.1424 0 41.984 18.8416 41.984 41.984s-18.8416 42.1888-41.984 42.1888z m-96.256-20.48h96.0512c11.8784 0 21.504-9.6256 21.504-21.504s-9.6256-21.504-21.504-21.504H20.8896c-0.4096 7.3728-0.4096 14.5408-0.4096 21.504 0 7.168 0.2048 14.1312 0.4096 21.504z" fill="#1C1D21" p-id="12085"></path><path d="M419.84 357.1712c-30.1056-20.0704-69.0176-21.7088-100.7616-4.3008l-105.8816 58.1632c-12.4928 6.9632-20.2752 20.0704-20.2752 34.4064 0 40.3456 23.9616 77.0048 60.8256 93.184l59.1872 26.0096c33.9968 14.9504 72.4992 15.36 106.7008 1.2288V357.1712z" fill="#AAADAD" p-id="12086"></path><path d="M367.8208 586.5472c-20.0704 0-40.3456-4.096-58.9824-12.288l-59.1872-26.0096c-40.7552-17.8176-66.9696-58.1632-66.9696-102.6048 0-18.0224 9.8304-34.816 25.6-43.4176l105.8816-58.1632c35.2256-19.2512 77.824-17.6128 111.2064 4.7104 2.8672 1.8432 4.5056 5.12 4.5056 8.6016v208.6912c0 4.096-2.4576 7.9872-6.3488 9.4208-17.6128 7.3728-36.6592 11.0592-55.7056 11.0592z m-1.8432-235.3152c-14.336 0-28.8768 3.4816-41.984 10.8544l-105.8816 58.1632c-9.216 5.12-15.1552 14.9504-15.1552 25.3952 0 36.2496 21.504 69.2224 54.6816 83.7632l59.1872 26.0096c29.0816 12.9024 62.464 13.9264 92.3648 3.4816v-195.9936c-13.1072-7.7824-28.0576-11.6736-43.2128-11.6736z" fill="#1C1D21" p-id="12087"></path><path d="M277.2992 514.6624c-1.4336 0-2.8672-0.2048-4.096-0.8192l-6.9632-3.072c-5.12-2.2528-7.5776-8.3968-5.3248-13.5168s8.3968-7.5776 13.5168-5.3248l6.9632 3.072c5.12 2.2528 7.5776 8.3968 5.3248 13.5168-1.8432 3.6864-5.5296 6.144-9.4208 6.144zM367.8208 545.5872c-14.7456 0-29.0816-3.072-42.3936-9.0112l-23.1424-10.24c-5.12-2.2528-7.5776-8.3968-5.3248-13.5168s8.3968-7.5776 13.5168-5.3248l23.1424 10.24c10.8544 4.7104 22.3232 7.168 34.2016 7.168 2.8672 0 24.3712-0.4096 32.3584-0.6144 5.5296-0.2048 10.24 4.3008 10.4448 10.0352 0.2048 5.7344-4.3008 10.24-10.0352 10.4448-1.2288 0.2048-28.8768 0.8192-32.768 0.8192z" fill="#E0E0E0" p-id="12088"></path><path d="M258.6624 447.0784c-3.6864 0-7.168-1.8432-9.0112-5.3248-2.6624-4.9152-0.8192-11.264 4.096-13.9264l10.24-5.7344c4.9152-2.6624 11.264-0.8192 13.9264 4.096 2.6624 4.9152 0.8192 11.264-4.096 13.9264l-10.24 5.7344c-1.4336 0.8192-3.072 1.2288-4.9152 1.2288zM297.3696 425.7792c-3.6864 0-7.168-1.8432-9.0112-5.3248-2.6624-4.9152-0.8192-11.264 4.096-13.9264l21.9136-12.0832c35.2256-19.2512 77.824-17.6128 111.2064 4.7104 4.7104 3.072 5.9392 9.4208 2.8672 14.1312-3.072 4.7104-9.4208 5.9392-14.1312 2.8672-27.0336-18.0224-61.6448-19.456-90.112-3.8912l-21.9136 12.0832c-1.6384 1.024-3.2768 1.4336-4.9152 1.4336z" fill="#1C1D21" p-id="12089"></path><path d="M604.16 357.1712c30.1056-20.0704 69.0176-21.7088 100.7616-4.3008l105.8816 58.1632c12.4928 6.9632 20.2752 20.0704 20.2752 34.4064 0 40.3456-23.9616 77.0048-60.8256 93.184l-59.1872 26.0096c-33.9968 14.9504-72.4992 15.36-106.7008 1.2288V357.1712z" fill="#AAADAD" p-id="12090"></path><path d="M656.1792 586.5472c-19.0464 0-38.0928-3.6864-55.9104-11.0592-3.8912-1.6384-6.3488-5.3248-6.3488-9.4208v-208.896c0-3.4816 1.6384-6.5536 4.5056-8.6016 33.3824-22.3232 76.1856-23.9616 111.2064-4.7104l105.8816 58.1632c15.7696 8.8064 25.6 25.3952 25.6 43.4176 0 44.4416-26.2144 84.5824-66.9696 102.6048l-59.1872 26.0096c-18.6368 8.3968-38.7072 12.4928-58.7776 12.4928zM614.4 558.8992c29.9008 10.4448 63.2832 9.216 92.3648-3.4816l59.1872-26.0096c33.1776-14.5408 54.6816-47.5136 54.6816-83.7632 0-10.6496-5.7344-20.2752-15.1552-25.3952l-105.8816-58.1632c-26.8288-14.7456-59.1872-14.336-85.6064 1.024v195.7888z" fill="#1C1D21" p-id="12091"></path><path d="M765.3376 447.0784c-1.6384 0-3.2768-0.4096-4.9152-1.2288l-10.24-5.7344c-4.9152-2.6624-6.7584-9.0112-4.096-13.9264 2.6624-4.9152 9.0112-6.7584 13.9264-4.096l10.24 5.7344c4.9152 2.6624 6.7584 9.0112 4.096 13.9264-2.048 3.2768-5.5296 5.3248-9.0112 5.3248zM726.6304 425.7792c-1.6384 0-3.2768-0.4096-4.9152-1.2288l-21.9136-12.0832c-28.4672-15.5648-63.0784-14.1312-90.112 3.8912-4.7104 3.072-11.0592 1.8432-14.1312-2.8672s-1.8432-11.0592 2.8672-14.1312c33.3824-22.3232 76.1856-23.9616 111.2064-4.7104l21.9136 12.0832c4.9152 2.6624 6.7584 9.0112 4.096 13.9264-1.8432 3.2768-5.3248 5.12-9.0112 5.12z" fill="#1C1D21" p-id="12092"></path><path d="M451.1744 339.3536l-11.4688 5.3248c-24.7808 11.6736-40.7552 36.4544-40.7552 63.8976v112.64c0 27.2384 15.7696 52.0192 40.3456 63.6928l11.0592 5.3248c39.1168 18.6368 84.3776 18.6368 123.2896 0l11.0592-5.3248c24.576-11.6736 40.3456-36.4544 40.3456-63.6928v-112.64c0-27.4432-15.9744-52.4288-40.7552-63.8976l-11.4688-5.3248c-38.5024-18.0224-83.1488-18.0224-121.6512 0z" fill="#AAADAD" p-id="12093"></path><path d="M557.8752 487.6288l21.2992-52.224c3.8912-9.216 13.1072-15.1552 23.1424-14.7456 12.288 0.6144 22.1184 10.4448 22.528 22.528 0.4096 10.0352-5.5296 19.2512-14.7456 23.1424l-52.224 21.2992" fill="#FFECE9" p-id="12094"></path><path d="M558.08 497.8688c-2.6624 0-5.3248-1.024-7.168-3.072-2.8672-2.8672-3.8912-7.3728-2.2528-11.0592l21.2992-52.224c5.3248-13.312 18.6368-21.7088 32.9728-21.0944 17.6128 0.8192 31.5392 14.7456 32.3584 32.3584 0.6144 14.336-7.7824 27.648-21.0944 32.9728l-52.224 21.2992c-1.4336 0.6144-2.6624 0.8192-3.8912 0.8192z m43.2128-66.9696c-5.5296 0-10.4448 3.2768-12.4928 8.3968l-12.0832 29.696 29.696-12.0832c5.3248-2.2528 8.6016-7.3728 8.3968-13.1072-0.4096-6.9632-5.9392-12.4928-12.9024-12.9024h-0.6144z" fill="#1C1D21" p-id="12095"></path><path d="M512 756.1216c16.1792 0 30.1056-11.6736 32.9728-27.648l23.7568-135.9872c-31.9488-29.4912-81.3056-29.4912-113.2544 0l23.7568 135.9872c2.6624 15.9744 16.5888 27.648 32.768 27.648z" fill="#AAADAD" p-id="12096"></path><path d="M512 765.952c-21.2992 0-39.5264-15.1552-43.008-36.0448-3.2768-18.8416-6.5536-37.2736-9.8304-55.9104-4.7104-26.2144-9.216-52.6336-13.9264-79.4624-1.024-5.5296 2.8672-10.8544 8.3968-11.8784 5.5296-1.024 10.8544 2.8672 11.8784 8.3968 4.7104 26.8288 9.216 53.248 13.9264 79.4624 3.2768 18.6368 6.5536 37.0688 9.8304 55.9104 1.8432 11.0592 11.4688 19.2512 22.7328 19.2512 11.4688 0 20.8896-7.9872 22.9376-19.2512 3.2768-18.8416 6.5536-37.4784 9.8304-56.1152 4.7104-26.2144 9.216-52.4288 13.9264-79.2576 1.024-5.5296 6.3488-9.216 11.8784-8.3968 5.5296 1.024 9.216 6.3488 8.3968 11.8784-4.7104 26.8288-9.216 53.0432-13.9264 79.2576-3.2768 18.6368-6.5536 37.2736-9.8304 56.1152-3.8912 20.8896-21.9136 36.0448-43.2128 36.0448z" fill="#1C1D21" p-id="12097"></path><path d="M439.9104 516.7104c-5.7344 0-10.24-4.5056-10.24-10.24v-97.8944c0-15.36 9.0112-29.4912 22.9376-36.0448l11.4688-5.3248c1.6384-0.8192 3.072-1.4336 4.7104-2.048 5.3248-2.2528 11.264 0.4096 13.312 5.5296 2.2528 5.3248-0.4096 11.264-5.5296 13.312-1.2288 0.6144-2.4576 1.024-3.8912 1.6384l-11.4688 5.3248c-6.7584 3.072-11.264 10.0352-11.264 17.6128v97.8944c0.2048 5.7344-4.3008 10.24-10.0352 10.24zM507.4944 377.0368c-5.3248 0-9.8304-4.096-10.24-9.6256-0.4096-5.7344 3.8912-10.4448 9.6256-10.8544 1.8432-0.2048 2.6624-0.2048 3.6864 0h1.4336c5.7344 0 10.24 4.5056 10.24 10.24s-4.5056 10.24-10.24 10.24h-4.5056z" fill="#E0E0E0" p-id="12098"></path><path d="M490.9056 665.3952c-0.8192 0-1.8432-0.2048-2.6624-0.4096l-25.8048-6.7584c-5.5296-1.4336-8.8064-6.9632-7.3728-12.4928s6.9632-8.8064 12.4928-7.3728L493.568 645.12c5.5296 1.4336 8.8064 6.9632 7.3728 12.4928-1.2288 4.7104-5.5296 7.7824-10.0352 7.7824zM494.3872 712.704c-0.8192 0-1.8432-0.2048-2.6624-0.4096l-20.8896-5.5296c-5.5296-1.4336-8.8064-6.9632-7.3728-12.4928 1.4336-5.5296 6.9632-8.8064 12.4928-7.3728l20.8896 5.5296c5.5296 1.4336 8.8064 6.9632 7.3728 12.4928-1.024 4.7104-5.12 7.7824-9.8304 7.7824zM532.8896 665.3952c-4.5056 0-8.6016-3.072-9.8304-7.5776-1.4336-5.5296 1.8432-11.0592 7.3728-12.4928l25.8048-6.7584c5.5296-1.4336 11.0592 1.8432 12.4928 7.3728 1.4336 5.5296-1.8432 11.0592-7.3728 12.4928l-25.8048 6.7584c-0.8192 0-1.6384 0.2048-2.6624 0.2048zM529.408 712.704c-4.5056 0-8.6016-3.072-9.8304-7.5776-1.4336-5.5296 1.8432-11.0592 7.3728-12.4928l20.8896-5.5296c5.5296-1.4336 11.0592 1.8432 12.4928 7.3728 1.4336 5.5296-1.8432 11.0592-7.3728 12.4928l-20.8896 5.5296c-0.8192 0.2048-1.6384 0.2048-2.6624 0.2048z" fill="#1C1D21" p-id="12099"></path><path d="M464.896 487.6288l-21.2992-52.224c-3.8912-9.216-13.1072-15.1552-23.1424-14.7456-12.288 0.6144-22.1184 10.4448-22.528 22.528-0.4096 10.0352 5.5296 19.2512 14.7456 23.1424l52.224 21.2992" fill="#FFECE9" p-id="12100"></path><path d="M464.896 497.8688c-1.2288 0-2.6624-0.2048-3.8912-0.8192l-52.224-21.2992c-13.312-5.3248-21.7088-18.6368-21.0944-32.9728 0.8192-17.6128 14.7456-31.5392 32.3584-32.3584 14.336-0.6144 27.648 7.7824 32.9728 21.0944l21.2992 52.224c1.6384 3.8912 0.6144 8.192-2.2528 11.0592-1.8432 2.048-4.5056 3.072-7.168 3.072z m-43.2128-66.9696h-0.6144c-6.9632 0.4096-12.4928 5.9392-12.9024 12.9024-0.2048 5.7344 3.072 11.0592 8.3968 13.1072l29.696 12.0832-12.0832-29.696c-2.048-5.12-7.168-8.3968-12.4928-8.3968z" fill="#1C1D21" p-id="12101"></path><path d="M747.9296 514.6624c-3.8912 0-7.7824-2.2528-9.4208-6.144-2.2528-5.12 0-11.264 5.3248-13.5168l6.9632-3.072c5.12-2.2528 11.264 0 13.5168 5.3248 2.2528 5.12 0 11.264-5.3248 13.5168l-6.9632 3.072c-1.4336 0.4096-2.8672 0.8192-4.096 0.8192zM657.2032 545.5872c-3.6864 0-31.5392-0.6144-32.768-0.6144-5.7344-0.2048-10.0352-4.7104-10.0352-10.4448s4.7104-10.24 10.4448-10.0352c7.9872 0.2048 29.2864 0.6144 32.3584 0.6144 11.8784 0 23.3472-2.4576 34.2016-7.168l23.1424-10.24c5.12-2.2528 11.264 0 13.5168 5.3248 2.2528 5.12 0 11.264-5.3248 13.5168l-23.1424 10.24c-13.312 5.7344-27.648 8.8064-42.3936 8.8064z" fill="#E0E0E0" p-id="12102"></path><path d="M534.7328 612.7616c-4.9152 0-9.216-3.6864-10.0352-8.6016-0.8192-5.5296 2.8672-10.8544 8.3968-11.6736 3.4816-0.6144 6.9632-1.2288 10.4448-2.048 8.8064-2.048 17.6128-5.3248 25.8048-9.216l11.0592-5.3248c20.8896-10.0352 34.4064-31.3344 34.4064-54.4768v-112.64c0-23.3472-13.7216-44.8512-34.816-54.6816l-11.4688-5.3248c-17.8176-8.3968-36.864-12.4928-56.5248-12.4928s-38.7072 4.3008-56.5248 12.4928l-11.4688 5.3248c-21.0944 9.8304-34.816 31.3344-34.816 54.6816v112.64c0 23.1424 13.5168 44.6464 34.4064 54.4768l11.0592 5.3248c8.192 3.8912 16.9984 6.9632 25.8048 9.216 3.4816 0.8192 6.9632 1.4336 10.4448 2.048 5.5296 0.8192 9.4208 6.144 8.3968 11.6736-0.8192 5.5296-6.144 9.4208-11.6736 8.3968-4.096-0.6144-7.9872-1.4336-12.0832-2.4576-10.24-2.4576-20.2752-5.9392-29.696-10.6496l-11.0592-5.3248c-28.0576-13.312-46.08-41.984-46.08-72.9088v-112.64c0-31.3344 18.2272-60.0064 46.6944-73.3184l11.4688-5.3248c20.2752-9.4208 42.8032-14.5408 65.1264-14.5408s44.8512 4.9152 65.1264 14.5408l11.4688 5.3248c28.2624 13.312 46.6944 41.984 46.6944 73.3184v112.64c0 31.1296-18.0224 59.5968-46.08 72.9088l-11.0592 5.3248c-9.6256 4.5056-19.6608 7.9872-29.696 10.6496a114.688 114.688 0 0 1-12.0832 2.4576c-0.6144 0-1.2288 0.2048-1.6384 0.2048z" fill="#1C1D21" p-id="12103"></path><path d="M447.488 544.768c-12.288-10.6496-31.3344-6.9632-38.7072 7.5776-17.2032 34.2016-38.912 65.3312-64.7168 92.16l-38.7072 40.3456 50.5856-28.0576c35.2256-19.456 66.9696-45.6704 94.208-77.0048 8.8064-10.6496 7.5776-26.2144-2.6624-35.0208zM576.512 544.768c12.288-10.6496 31.3344-6.9632 38.7072 7.5776 17.2032 34.2016 38.912 65.3312 64.7168 92.16l38.7072 40.3456-50.5856-28.0576c-35.2256-19.456-66.9696-45.6704-94.208-77.0048-8.8064-10.6496-7.5776-26.2144 2.6624-35.0208z" fill="#FFECE9" p-id="12104"></path><path d="M305.3568 694.8864c-3.072 0-6.144-1.4336-8.192-4.096-3.072-4.096-2.8672-9.6256 0.8192-13.312l38.7072-40.3456c24.9856-26.0096 46.08-56.1152 63.0784-89.7024 4.9152-9.8304 13.9264-16.5888 24.576-18.6368 10.8544-2.048 21.7088 0.8192 29.9008 7.9872 14.5408 12.6976 16.1792 34.816 3.6864 49.3568-28.0576 32.5632-60.6208 59.1872-96.8704 79.4624l-50.5856 28.0576c-1.8432 0.8192-3.4816 1.2288-5.12 1.2288z m125.7472-146.2272c-1.024 0-1.8432 0-2.8672 0.2048-4.5056 0.8192-8.192 3.6864-10.24 7.7824-15.9744 31.744-35.6352 60.6208-58.5728 86.016 30.72-18.2272 58.5728-41.7792 82.944-70.0416 5.12-5.9392 4.5056-15.1552-1.6384-20.48-2.8672-2.048-6.144-3.4816-9.6256-3.4816zM718.6432 694.8864c-1.6384 0-3.4816-0.4096-4.9152-1.2288L663.1424 665.6c-36.2496-20.0704-69.0176-46.8992-96.8704-79.4624-12.4928-14.5408-10.8544-36.6592 3.6864-49.3568 8.192-7.168 19.2512-10.0352 29.9008-7.9872 10.6496 2.048 19.6608 9.0112 24.576 18.6368 16.7936 33.5872 38.0928 63.6928 63.0784 89.7024l38.7072 40.3456c3.4816 3.6864 3.8912 9.4208 0.8192 13.312-2.2528 2.6624-5.3248 4.096-8.3968 4.096z m-125.7472-146.2272c-3.4816 0-6.9632 1.2288-9.6256 3.6864-6.144 5.3248-6.7584 14.5408-1.6384 20.48 24.1664 28.2624 52.0192 51.6096 82.944 70.0416-22.9376-25.3952-42.5984-54.272-58.5728-86.016-2.048-4.096-5.7344-6.9632-10.24-7.7824-0.8192-0.2048-1.8432-0.4096-2.8672-0.4096z m-16.384-3.8912zM434.176 832.7168c-2.6624 0-5.3248-1.024-7.3728-3.072-3.2768-3.2768-3.2768-3.2768-3.072-30.1056 0-11.264 0.2048-22.528 0.2048-22.528 0-5.5296 4.7104-10.24 10.24-10.24 5.7344 0 10.24 4.7104 10.24 10.24-0.2048 18.8416-0.2048 40.1408 0 43.8272v1.2288c0 6.144-4.5056 10.6496-10.24 10.6496z m0-20.48c5.12 0 9.216 3.6864 10.0352 8.3968-0.6144-4.096-4.5056-8.3968-10.0352-8.3968zM434.176 751.616c-5.7344 0-10.24-4.5056-10.24-10.24v-6.144c0-5.7344 4.5056-10.24 10.24-10.24s10.24 4.5056 10.24 10.24v6.144c0 5.7344-4.5056 10.24-10.24 10.24zM590.0288 832.7168c-2.6624 0-5.3248-1.024-7.3728-3.072-3.2768-3.2768-3.2768-3.2768-3.072-30.1056 0-11.264 0.2048-22.528 0.2048-22.528 0-5.5296 4.7104-10.24 10.24-10.24 5.7344 0 10.24 4.7104 10.24 10.24-0.2048 18.8416-0.2048 40.1408 0 43.8272v1.2288c0 6.144-4.7104 10.6496-10.24 10.6496z m0-20.48c5.12 0 9.216 3.6864 10.0352 8.3968-0.6144-4.096-4.5056-8.3968-10.0352-8.3968zM590.0288 751.616c-5.7344 0-10.24-4.5056-10.24-10.24v-6.144c0-5.7344 4.5056-10.24 10.24-10.24s10.24 4.5056 10.24 10.24v6.144c0 5.7344-4.7104 10.24-10.24 10.24z" fill="#1C1D21" p-id="12105"></path></svg>