<svg xmlns="http://www.w3.org/2000/svg" viewBox="0 0 1024 1024" version="1.1"><path d="M512 512m-501.76 0a501.76 501.76 0 1 0 1003.52 0 501.76 501.76 0 1 0-1003.52 0Z" fill="#8CEEF9" p-id="13349"></path><path d="M151.552 860.9792c91.136 94.208 218.9312 152.7808 360.448 152.7808s269.312-58.5728 360.448-152.7808H151.552z" fill="#0ABFB2" p-id="13350"></path><path d="M512 1024c-136.8064 0-265.4208-53.248-362.0864-149.9136S0 648.8064 0 512 53.248 246.5792 149.9136 149.9136C246.5792 53.248 375.1936 0 512 0s265.4208 53.248 362.0864 149.9136C970.752 246.5792 1024 375.1936 1024 512s-53.248 265.4208-149.9136 362.0864S648.8064 1024 512 1024z m0-1003.52C241.0496 20.48 20.48 241.0496 20.48 512s220.5696 491.52 491.52 491.52 491.52-220.5696 491.52-491.52S782.9504 20.48 512 20.48z" fill="#1C1D21" p-id="13351"></path><path d="M699.8016 781.7216v-399.36c0-15.9744-4.7104-30.72-12.9024-43.2128-1.024-1.6384-2.2528-3.2768-3.4816-4.9152-1.2288-1.6384-2.6624-3.2768-4.096-4.9152-1.8432-2.048-3.6864-3.8912-5.7344-5.7344-1.2288-1.024-2.2528-2.048-3.4816-3.072-13.7216-11.0592-30.9248-17.6128-49.7664-17.6128H244.9408c43.8272 0 79.2576 35.4304 79.2576 79.2576v399.36c0 43.8272 35.4304 79.2576 79.2576 79.2576h375.3984c-43.6224 0.2048-79.0528-35.2256-79.0528-79.0528z" fill="#FFECE9" p-id="13352"></path><path d="M779.0592 871.2192H500.9408c-5.7344 0-10.24-4.5056-10.24-10.24s4.5056-10.24 10.24-10.24h221.184c-19.6608-16.1792-32.1536-40.5504-32.5632-67.7888V382.3616c0-13.312-3.8912-26.4192-11.0592-37.6832l-3.072-4.3008c-1.2288-1.4336-2.2528-2.8672-3.4816-4.3008-1.6384-1.8432-3.2768-3.4816-4.9152-5.12-1.024-0.8192-2.048-1.8432-3.072-2.6624-12.4928-10.0352-27.4432-15.36-43.4176-15.36H301.8752c2.2528 1.8432 4.5056 3.8912 6.5536 5.9392 3.8912 4.096 3.8912 10.4448 0 14.5408-4.096 3.8912-10.4448 3.8912-14.5408 0-13.1072-13.1072-30.5152-20.48-48.9472-20.48-5.7344 0-10.24-4.5056-10.24-10.24s4.5056-10.24 10.24-10.24h375.3984c20.48 0 40.3456 6.9632 56.32 19.8656 1.4336 1.2288 2.8672 2.2528 3.8912 3.4816 2.2528 2.048 4.3008 4.096 6.3488 6.5536 1.6384 1.6384 3.072 3.4816 4.5056 5.5296 1.4336 1.8432 2.6624 3.6864 3.8912 5.5296 9.4208 14.5408 14.5408 31.3344 14.5408 48.7424v399.36c0 38.0928 30.9248 69.0176 69.0176 69.0176 5.7344 0 10.24 4.5056 10.24 10.24s-4.3008 10.4448-10.0352 10.4448zM463.2576 871.2192h-9.8304c-5.7344 0-10.24-4.5056-10.24-10.24s4.5056-10.24 10.24-10.24h9.8304c5.7344 0 10.24 4.5056 10.24 10.24s-4.7104 10.24-10.24 10.24zM415.744 871.2192h-12.0832c-12.6976 0-24.7808-2.6624-36.2496-7.5776-5.12-2.2528-7.5776-8.3968-5.3248-13.5168s8.3968-7.5776 13.5168-5.3248c8.8064 3.8912 18.2272 5.9392 27.8528 5.9392h12.0832c5.7344 0 10.24 4.5056 10.24 10.24s-4.3008 10.24-10.0352 10.24z" fill="#1C1D21" p-id="13353"></path><path d="M341.4016 841.1136c-3.072 0-5.9392-1.4336-7.9872-3.8912-12.4928-15.9744-19.2512-35.2256-19.2512-55.5008v-399.36c0-5.5296-0.6144-10.8544-1.8432-16.1792-1.2288-5.5296 2.048-11.0592 7.5776-12.288 5.5296-1.2288 11.0592 2.048 12.288 7.5776 1.6384 6.7584 2.4576 13.7216 2.4576 20.8896v399.36c0 15.7696 5.12 30.5152 14.7456 42.8032 3.4816 4.5056 2.6624 10.8544-1.6384 14.336-2.048 1.4336-4.096 2.2528-6.3488 2.2528zM631.1936 472.8832h-81.5104c-5.7344 0-10.24-4.5056-10.24-10.24s4.5056-10.24 10.24-10.24h81.5104c5.7344 0 10.24 4.5056 10.24 10.24s-4.5056 10.24-10.24 10.24zM632.2176 521.0112h-188.2112c-5.7344 0-10.24-4.5056-10.24-10.24s4.5056-10.24 10.24-10.24h188.2112c5.7344 0 10.24 4.5056 10.24 10.24s-4.5056 10.24-10.24 10.24zM399.36 569.1392h-3.8912c-5.7344 0-10.24-4.5056-10.24-10.24s4.5056-10.24 10.24-10.24h3.8912c5.7344 0 10.24 4.5056 10.24 10.24s-4.5056 10.24-10.24 10.24zM399.36 617.2672h-3.8912c-5.7344 0-10.24-4.5056-10.24-10.24s4.5056-10.24 10.24-10.24h3.8912c5.7344 0 10.24 4.5056 10.24 10.24s-4.5056 10.24-10.24 10.24zM399.36 665.3952h-3.8912c-5.7344 0-10.24-4.5056-10.24-10.24s4.5056-10.24 10.24-10.24h3.8912c5.7344 0 10.24 4.5056 10.24 10.24s-4.5056 10.24-10.24 10.24zM631.1936 569.1392h-187.1872c-5.7344 0-10.24-4.5056-10.24-10.24s4.5056-10.24 10.24-10.24h187.1872c5.7344 0 10.24 4.5056 10.24 10.24s-4.5056 10.24-10.24 10.24zM631.1936 617.2672h-187.1872c-5.7344 0-10.24-4.5056-10.24-10.24s4.5056-10.24 10.24-10.24h187.1872c5.7344 0 10.24 4.5056 10.24 10.24s-4.5056 10.24-10.24 10.24zM631.1936 665.3952h-187.1872c-5.7344 0-10.24-4.5056-10.24-10.24s4.5056-10.24 10.24-10.24h187.1872c5.7344 0 10.24 4.5056 10.24 10.24s-4.5056 10.24-10.24 10.24zM632.2176 761.6512h-82.7392c-5.7344 0-10.24-4.5056-10.24-10.24s4.5056-10.24 10.24-10.24h82.7392c5.7344 0 10.24 4.5056 10.24 10.24s-4.5056 10.24-10.24 10.24z" fill="#1C1D21" p-id="13354"></path><path d="M298.1888 799.1296v20.0704c0 12.9024 10.4448 23.3472 23.3472 23.3472 12.9024 0 23.3472-10.4448 23.3472-23.3472v-20.0704h-46.6944zM298.1888 434.5856h46.8992v50.5856h-46.8992z" fill="#E0E0E0" p-id="13355"></path><path d="M298.1888 434.5856l17.8176-66.56c1.4336-5.5296 9.4208-5.5296 11.0592 0l17.8176 66.56h-46.6944z" fill="#AAADAD" p-id="13356"></path><path d="M321.536 852.7872c-18.6368 0-33.5872-15.1552-33.5872-33.5872v-20.0704c0-5.7344 4.5056-10.24 10.24-10.24h46.8992c5.7344 0 10.24 4.5056 10.24 10.24v20.0704c0 18.432-15.1552 33.5872-33.792 33.5872z m-13.1072-43.4176v9.8304c0 7.168 5.9392 13.1072 13.1072 13.1072 7.168 0 13.1072-5.9392 13.1072-13.1072v-9.8304h-26.2144z" fill="#1C1D21" p-id="13357"></path><path d="M361.2672 776.3968V507.904c0-12.4928-10.24-22.7328-22.7328-22.7328h-34.2016c-12.4928 0-22.7328 10.24-22.7328 22.7328v268.6976c0 12.4928 10.24 22.7328 22.7328 22.7328h34.2016c12.6976-0.2048 22.7328-10.4448 22.7328-22.9376z" fill="#508DEF" p-id="13358"></path><path d="M338.7392 809.3696h-34.2016c-18.2272 0-32.9728-14.7456-32.9728-32.9728V507.904c0-18.2272 14.7456-32.9728 32.9728-32.9728h34.2016c18.2272 0 32.9728 14.7456 32.9728 32.9728v268.6976c-0.2048 18.0224-14.9504 32.768-32.9728 32.768z m-34.2016-313.9584c-6.7584 0-12.4928 5.5296-12.4928 12.4928v268.6976c0 6.7584 5.5296 12.4928 12.4928 12.4928h34.2016c6.7584 0 12.4928-5.5296 12.4928-12.4928V507.904c0-6.7584-5.5296-12.4928-12.4928-12.4928h-34.2016z" fill="#1C1D21" p-id="13359"></path><path d="M321.536 673.792c-5.7344 0-10.24-4.5056-10.24-10.24v-39.936c0-5.7344 4.5056-10.24 10.24-10.24s10.24 4.5056 10.24 10.24V663.552c0 5.7344-4.5056 10.24-10.24 10.24zM321.536 603.5456c-5.7344 0-10.24-4.5056-10.24-10.24v-4.7104c0-5.7344 4.5056-10.24 10.24-10.24s10.24 4.5056 10.24 10.24v4.7104c0 5.7344-4.5056 10.24-10.24 10.24zM321.536 565.4528c-5.7344 0-10.24-4.5056-10.24-10.24v-70.0416c0-5.7344 4.5056-10.24 10.24-10.24s10.24 4.5056 10.24 10.24v70.0416c0 5.5296-4.5056 10.24-10.24 10.24z" fill="#ABD1FF" p-id="13360"></path><path d="M345.088 444.8256h-46.8992c-3.2768 0-6.144-1.4336-8.192-4.096-1.8432-2.4576-2.6624-5.7344-1.8432-8.8064l17.8176-66.56c1.8432-6.9632 7.9872-11.8784 15.36-11.8784s13.5168 4.7104 15.36 11.8784l17.8176 66.56c0.8192 3.072 0.2048 6.3488-1.8432 8.8064-1.4336 2.6624-4.5056 4.096-7.5776 4.096z m-33.5872-20.48h20.0704L321.536 387.072l-10.0352 37.2736zM321.536 809.3696c-5.7344 0-10.24-4.5056-10.24-10.24v-91.9552c0-5.7344 4.5056-10.24 10.24-10.24s10.24 4.5056 10.24 10.24v91.9552c0 5.5296-4.5056 10.24-10.24 10.24zM361.2672 545.5872h-79.4624c-5.7344 0-10.24-4.5056-10.24-10.24s4.5056-10.24 10.24-10.24h79.4624c5.7344 0 10.24 4.5056 10.24 10.24s-4.5056 10.24-10.24 10.24z" fill="#1C1D21" p-id="13361"></path><path d="M345.088 495.4112h-46.8992c-5.7344 0-10.24-4.5056-10.24-10.24v-50.5856c0-5.7344 4.5056-10.24 10.24-10.24h46.8992c5.7344 0 10.24 4.5056 10.24 10.24v50.5856c0 5.7344-4.7104 10.24-10.24 10.24z m-36.6592-20.48h26.4192v-30.1056h-26.4192v30.1056z" fill="#1C1D21" p-id="13362"></path><path d="M512 122.88c-11.0592 0-21.504 3.8912-29.0816 10.6496-19.8656 17.8176-47.9232 28.8768-79.2576 28.8768v47.9232c0 63.488 30.72 124.1088 84.992 168.1408 12.9024 10.4448 33.3824 10.4448 46.4896 0 54.272-44.032 84.992-104.6528 84.992-168.1408V162.4064c-31.3344 0-59.392-11.0592-79.2576-28.8768-7.3728-6.7584-17.8176-10.6496-28.8768-10.6496z" fill="#0ABFB2" p-id="13363"></path><path d="M512 396.4928c-10.6496 0-21.2992-3.2768-29.696-10.0352-56.5248-45.6704-88.8832-109.9776-88.8832-176.128V162.4064c0-5.7344 4.5056-10.24 10.24-10.24 27.4432 0 53.8624-9.6256 72.2944-26.2144 9.4208-8.6016 22.528-13.312 36.0448-13.312 13.5168 0 26.624 4.7104 35.84 13.1072 18.6368 16.7936 44.8512 26.2144 72.2944 26.2144 5.7344 0 10.24 4.5056 10.24 10.24v47.9232c0 66.1504-32.3584 130.2528-88.8832 176.128-8.192 6.9632-18.8416 10.24-29.4912 10.24zM413.9008 172.2368v38.0928c0 60.0064 29.696 118.3744 81.3056 160.1536 9.216 7.5776 24.3712 7.5776 33.5872 0 51.6096-41.7792 81.3056-100.1472 81.3056-160.1536V172.2368c-28.8768-2.048-55.5008-12.9024-75.776-31.1296-5.5296-5.12-13.7216-7.9872-22.3232-7.9872s-16.5888 2.8672-22.3232 7.9872c-20.0704 18.2272-46.6944 29.0816-75.776 31.1296z" fill="#1C1D21" p-id="13364"></path><path d="M508.5184 176.9472c-2.8672 0-5.7344-1.2288-7.7824-3.4816-3.6864-4.3008-3.2768-10.6496 1.024-14.5408 0.6144-0.6144 1.2288-1.024 1.8432-1.6384 4.3008-3.6864 10.6496-3.4816 14.5408 0.8192 3.6864 4.3008 3.4816 10.6496-0.8192 14.5408-0.6144 0.6144-1.4336 1.2288-2.048 1.8432-2.048 1.6384-4.3008 2.4576-6.7584 2.4576zM445.6448 209.3056c-4.5056 0-8.8064-3.072-9.8304-7.7824-1.4336-5.5296 1.8432-11.0592 7.3728-12.4928 12.288-3.072 23.9616-7.7824 34.816-13.7216 4.9152-2.6624 11.264-0.8192 13.9264 4.096 2.6624 4.9152 0.8192 11.264-4.096 13.9264-12.288 6.7584-25.8048 12.0832-39.7312 15.5648-0.8192 0.2048-1.6384 0.4096-2.4576 0.4096z" fill="#8CEEF9" p-id="13365"></path><path d="M491.3152 302.2848l-38.912-38.912c-3.4816-3.4816-3.4816-9.216 0-12.6976l10.24-10.24c3.4816-3.4816 9.216-3.4816 12.6976 0l15.9744 15.9744c3.4816 3.4816 9.216 3.4816 12.6976 0l44.6464-44.6464c3.4816-3.4816 9.216-3.4816 12.6976 0l10.24 10.24c3.4816 3.4816 3.4816 9.216 0 12.6976l-67.584 67.584c-3.4816 3.4816-9.216 3.4816-12.6976 0z" fill="#FFFFFF" p-id="13366"></path><path d="M497.664 315.1872c-5.12 0-10.0352-2.048-13.5168-5.5296l-38.912-38.912c-7.5776-7.5776-7.5776-19.6608 0-27.2384l10.24-10.24c3.6864-3.6864 8.3968-5.5296 13.5168-5.5296s10.0352 2.048 13.5168 5.5296l15.1552 15.1552 43.8272-43.8272c7.5776-7.5776 19.6608-7.5776 27.2384 0l10.24 10.24c7.5776 7.5776 7.5776 19.6608 0 27.2384l-67.584 67.584c-3.8912 3.4816-8.6016 5.5296-13.7216 5.5296z m0.8192-20.0704z m-37.888-38.0928l37.0688 37.0688 65.7408-65.7408-8.3968-8.3968-43.8272 43.8272c-3.6864 3.6864-8.3968 5.5296-13.5168 5.5296s-10.0352-2.048-13.5168-5.5296l-15.1552-15.1552-8.3968 8.3968zM736.256 871.2192H595.968c-5.7344 0-10.24-4.5056-10.24-10.24s4.5056-10.24 10.24-10.24h140.288c5.7344 0 10.24 4.5056 10.24 10.24s-4.5056 10.24-10.24 10.24z" fill="#1C1D21" p-id="13367"></path><path d="M512 1024c-70.656 0-138.8544-14.1312-203.1616-41.984-62.0544-26.8288-117.3504-65.1264-164.6592-113.8688-2.8672-2.8672-3.6864-7.3728-2.048-11.0592s5.3248-6.144 9.4208-6.144h106.496c5.7344 0 10.24 4.5056 10.24 10.24s-4.5056 10.24-10.24 10.24H176.5376C267.8784 956.8256 386.048 1003.52 512 1003.52s244.1216-46.6944 335.4624-132.3008h-23.1424c-5.7344 0-10.24-4.5056-10.24-10.24s4.5056-10.24 10.24-10.24H872.448c4.096 0 7.7824 2.4576 9.4208 6.144s0.8192 8.192-2.048 11.0592c-47.3088 48.7424-102.6048 87.04-164.6592 113.8688-64.3072 28.0576-132.5056 42.1888-203.1616 42.1888z" fill="#1C1D21" p-id="13368"></path></svg>