<svg xmlns="http://www.w3.org/2000/svg" viewBox="0 0 1024 1024" version="1.1"><path d="M512 512m-501.76 0a501.76 501.76 0 1 0 1003.52 0 501.76 501.76 0 1 0-1003.52 0Z" fill="#8CEEF9" p-id="15708"></path><path d="M526.1312 758.784m-78.848 0a78.848 78.848 0 1 0 157.696 0 78.848 78.848 0 1 0-157.696 0Z" fill="#AAADAD" p-id="15709"></path><path d="M526.1312 847.872c-49.152 0-89.088-39.936-89.088-89.088s39.936-89.088 89.088-89.088 89.088 39.936 89.088 89.088-39.936 89.088-89.088 89.088z m0-157.696c-37.888 0-68.608 30.72-68.608 68.608s30.72 68.608 68.608 68.608 68.608-30.72 68.608-68.608-30.72-68.608-68.608-68.608z" fill="#1C1D21" p-id="15710"></path><path d="M526.1312 761.0368m-29.9008 0a29.9008 29.9008 0 1 0 59.8016 0 29.9008 29.9008 0 1 0-59.8016 0Z" fill="#E0E0E0" p-id="15711"></path><path d="M526.1312 801.1776c-22.1184 0-40.1408-18.0224-40.1408-40.1408s18.0224-40.1408 40.1408-40.1408 40.1408 18.0224 40.1408 40.1408-17.8176 40.1408-40.1408 40.1408z m0-60.0064c-10.8544 0-19.6608 8.8064-19.6608 19.6608s8.8064 19.6608 19.6608 19.6608 19.6608-8.8064 19.6608-19.6608c0.2048-10.8544-8.8064-19.6608-19.6608-19.6608z" fill="#1C1D21" p-id="15712"></path><path d="M512 1024c-136.8064 0-265.4208-53.248-362.0864-149.9136C53.248 777.4208 0 648.8064 0 512S53.248 246.5792 149.9136 149.9136C246.5792 53.248 375.1936 0 512 0s265.4208 53.248 362.0864 149.9136C970.752 246.5792 1024 375.1936 1024 512s-53.248 265.4208-149.9136 362.0864C777.4208 970.752 648.8064 1024 512 1024z m0-1003.52C241.0496 20.48 20.48 241.0496 20.48 512s220.5696 491.52 491.52 491.52 491.52-220.5696 491.52-491.52S782.9504 20.48 512 20.48z" fill="#1C1D21" p-id="15713"></path><path d="M681.984 750.7968H361.472V218.112H681.984c11.264 0 20.48 9.216 20.48 20.48v491.7248c0 11.264-9.216 20.48-20.48 20.48z" fill="#E0E0E0" p-id="15714"></path><path d="M615.0144 228.352h-7.5776c-5.7344 0-10.24-4.5056-10.24-10.24s4.5056-10.24 10.24-10.24h7.5776c5.7344 0 10.24 4.5056 10.24 10.24s-4.5056 10.24-10.24 10.24zM567.9104 228.352h-65.3312c-5.7344 0-10.24-4.5056-10.24-10.24s4.5056-10.24 10.24-10.24h65.3312c5.7344 0 10.24 4.5056 10.24 10.24s-4.5056 10.24-10.24 10.24z" fill="#1C1D21" p-id="15715"></path><path d="M681.984 761.0368H361.472c-5.7344 0-10.24-4.5056-10.24-10.24V218.112c0-5.7344 4.5056-10.24 10.24-10.24h85.8112c5.7344 0 10.24 4.5056 10.24 10.24s-4.5056 10.24-10.24 10.24h-75.5712v512.2048H681.984c5.7344 0 10.24-4.5056 10.24-10.24V238.592c0-5.7344-4.5056-10.24-10.24-10.24h-29.2864c-5.7344 0-10.24-4.5056-10.24-10.24s4.5056-10.24 10.24-10.24H681.984c16.9984 0 30.72 13.7216 30.72 30.72v491.7248c0 16.7936-13.7216 30.72-30.72 30.72z" fill="#1C1D21" p-id="15716"></path><path d="M705.3312 538.2144H437.6576c-11.264 0-20.48-9.216-20.48-20.48V293.6832c0-11.264 9.216-20.48 20.48-20.48h267.6736c11.264 0 20.48 9.216 20.48 20.48v224.0512c0 11.264-9.216 20.48-20.48 20.48z" fill="#508DEF" p-id="15717"></path><path d="M437.6576 538.2144c-11.264 0-20.48-9.216-20.48-20.48V293.6832c0-11.264 9.216-20.48 20.48-20.48h267.6736L437.6576 538.2144z" fill="#ABD1FF" p-id="15718"></path><path d="M458.1376 336.4864c-5.7344 0-10.24-4.5056-10.24-10.24v-12.0832c0-5.7344 4.5056-10.24 10.24-10.24s10.24 4.5056 10.24 10.24v12.0832c0 5.7344-4.7104 10.24-10.24 10.24zM458.1376 548.4544c-5.7344 0-10.24-4.5056-10.24-10.24v-163.6352c0-5.7344 4.5056-10.24 10.24-10.24s10.24 4.5056 10.24 10.24v163.6352c0 5.7344-4.7104 10.24-10.24 10.24z" fill="#FFFFFF" p-id="15719"></path><path d="M10.4448 498.688c2.048 91.136 23.552 176.7424 60.2112 251.904h290.816v-532.48H105.2672c-57.344 79.2576-92.16 175.9232-94.8224 280.576z" fill="#E0E0E0" p-id="15720"></path><path d="M70.656 761.0368c-3.8912 0-7.3728-2.048-9.216-5.7344C22.7328 675.84 2.2528 589.6192 0.2048 498.8928v-0.4096c2.6624-103.6288 36.2496-202.5472 96.8704-286.3104 1.8432-2.6624 4.9152-4.3008 8.192-4.3008h256.2048c5.7344 0 10.24 4.5056 10.24 10.24v532.6848c0 5.7344-4.5056 10.24-10.24 10.24s-10.24-4.5056-10.24-10.24V228.352H110.592c-56.32 79.4624-87.2448 172.8512-89.9072 270.336 2.048 87.6544 21.9136 170.8032 59.1872 247.3984 2.4576 5.12 0.4096 11.264-4.7104 13.7216-1.6384 0.8192-3.072 1.2288-4.5056 1.2288z" fill="#1C1D21" p-id="15721"></path><path d="M361.472 679.936v70.8608h354.0992c11.264 0 20.48-9.216 20.48-20.48V679.936H361.472z" fill="#FF3E63" p-id="15722"></path><path d="M715.5712 761.0368H361.472c-5.7344 0-10.24-4.5056-10.24-10.24V679.936c0-5.7344 4.5056-10.24 10.24-10.24h374.5792c5.7344 0 10.24 4.5056 10.24 10.24v50.3808c0 16.7936-13.9264 30.72-30.72 30.72z m-343.8592-20.48h343.8592c5.7344 0 10.24-4.5056 10.24-10.24V690.176H371.712v50.3808z" fill="#1C1D21" p-id="15723"></path><path d="M70.656 750.7968h290.816V679.936H41.7792c8.192 24.3712 17.8176 48.128 28.8768 70.8608z" fill="#FF3E63" p-id="15724"></path><path d="M277.9136 474.3168H153.6c-11.264 0-20.48-9.216-20.48-20.48v-160.1536c0-11.264 9.216-20.48 20.48-20.48h124.3136c11.264 0 20.48 9.216 20.48 20.48v160.1536c0 11.264-9.216 20.48-20.48 20.48z" fill="#508DEF" p-id="15725"></path><path d="M153.6 474.3168c-11.264 0-20.48-9.216-20.48-20.48v-160.1536c0-11.264 9.216-20.48 20.48-20.48h124.3136l-113.4592 201.1136H153.6z" fill="#ABD1FF" p-id="15726"></path><path d="M69.8368 274.8416c-32.3584 60.2112-52.8384 127.7952-58.1632 199.4752h50.5856c11.264 0 20.48-9.216 20.48-20.48v-160.1536c0-8.6016-5.5296-15.9744-12.9024-18.8416z" fill="#508DEF" p-id="15727"></path><path d="M62.2592 484.5568H11.6736c-2.8672 0-5.5296-1.2288-7.5776-3.2768-1.8432-2.048-2.8672-4.9152-2.6624-7.7824 5.3248-71.8848 25.1904-140.288 59.392-203.5712 2.4576-4.5056 7.9872-6.5536 12.9024-4.7104 11.6736 4.7104 19.2512 15.9744 19.2512 28.4672v160.1536c0 16.9984-13.9264 30.72-30.72 30.72z m-39.5264-20.48h39.3216c5.7344 0 10.24-4.5056 10.24-10.24v-160.1536c0-0.6144 0-1.024-0.2048-1.6384-26.8288 54.0672-43.4176 111.8208-49.3568 172.032z" fill="#1C1D21" p-id="15728"></path><path d="M627.3024 679.936H692.224c5.7344 0 10.24-4.5056 10.24-10.24v-29.696c0-5.7344-4.5056-10.24-10.24-10.24h-65.1264c-5.7344 0-10.24 4.5056-10.24 10.24V669.696c0.2048 5.7344 4.7104 10.24 10.4448 10.24zM427.4176 679.936h65.1264c5.7344 0 10.24-4.5056 10.24-10.24v-29.696c0-5.7344-4.5056-10.24-10.24-10.24h-65.1264c-5.7344 0-10.24 4.5056-10.24 10.24V669.696c0 5.7344 4.5056 10.24 10.24 10.24z" fill="#FF8939" p-id="15729"></path><path d="M692.224 690.176h-65.1264c-11.264 0-20.48-9.216-20.48-20.48v-29.696c0-11.264 9.216-20.48 20.48-20.48H692.224c11.264 0 20.48 9.216 20.48 20.48V669.696c0 11.264-9.216 20.48-20.48 20.48z m-64.9216-50.176V669.696H692.224v-29.696h-64.9216zM492.3392 690.176h-65.1264c-11.264 0-20.48-9.216-20.48-20.48v-29.696c0-11.264 9.216-20.48 20.48-20.48h65.1264c11.264 0 20.48 9.216 20.48 20.48V669.696c0 11.264-9.216 20.48-20.48 20.48z m-64.9216-50.176V669.696h65.1264v-29.696h-65.1264z" fill="#1C1D21" p-id="15730"></path><path d="M893.7472 837.632H130.2528c91.9552 107.7248 228.9664 176.128 381.7472 176.128s289.5872-68.4032 381.7472-176.128z" fill="#0ABFB2" p-id="15731"></path><path d="M512 1024c-149.9136 0-292.0448-65.536-389.5296-179.8144-2.6624-3.072-3.2768-7.3728-1.4336-10.8544 1.6384-3.6864 5.3248-5.9392 9.216-5.9392h180.4288c5.7344 0 10.24 4.5056 10.24 10.24s-4.5056 10.24-10.24 10.24H153.1904c92.7744 99.1232 222.4128 155.648 358.8096 155.648s266.0352-56.5248 358.8096-155.648H428.032c-5.7344 0-10.24-4.5056-10.24-10.24s4.5056-10.24 10.24-10.24h465.7152c4.096 0 7.5776 2.2528 9.216 5.9392 1.6384 3.6864 1.024 7.9872-1.4336 10.8544C804.0448 958.464 661.9136 1024 512 1024z" fill="#1C1D21" p-id="15732"></path><path d="M382.976 847.872h-21.504c-5.7344 0-10.24-4.5056-10.24-10.24s4.5056-10.24 10.24-10.24H382.976c5.7344 0 10.24 4.5056 10.24 10.24s-4.5056 10.24-10.24 10.24z" fill="#1C1D21" p-id="15733"></path><path d="M857.2928 518.9632m-88.064 0a88.064 88.064 0 1 0 176.128 0 88.064 88.064 0 1 0-176.128 0Z" fill="#FF9E5C" p-id="15734"></path><path d="M857.2928 617.2672c-54.272 0-98.304-44.032-98.304-98.304s44.032-98.304 98.304-98.304 98.304 44.032 98.304 98.304-44.032 98.304-98.304 98.304z m0-176.3328c-43.008 0-77.824 35.0208-77.824 77.824 0 43.008 35.0208 77.824 77.824 77.824 43.008 0 77.824-35.0208 77.824-77.824s-34.816-77.824-77.824-77.824z" fill="#1C1D21" p-id="15735"></path><path d="M837.2224 604.7744V837.632h39.936V604.7744c-6.3488 1.4336-13.1072 2.4576-20.0704 2.4576s-13.312-1.024-19.8656-2.4576z" fill="#E0E0E0" p-id="15736"></path><path d="M877.1584 847.872h-39.936c-5.7344 0-10.24-4.5056-10.24-10.24V604.7744c0-3.072 1.4336-6.144 3.8912-7.9872s5.7344-2.6624 8.8064-1.8432c11.6736 2.6624 23.552 2.6624 35.2256 0 3.072-0.8192 6.3488 0 8.8064 1.8432 2.4576 1.8432 3.8912 4.9152 3.8912 7.9872V837.632c-0.2048 5.7344-4.7104 10.24-10.4448 10.24z m-29.696-20.48h19.456V616.8576c-6.5536 0.6144-12.9024 0.6144-19.456 0V827.392zM705.3312 548.4544H437.6576c-16.9984 0-30.72-13.7216-30.72-30.72V293.6832c0-16.9984 13.7216-30.72 30.72-30.72h267.6736c16.9984 0 30.72 13.7216 30.72 30.72v224.0512c0 16.9984-13.9264 30.72-30.72 30.72zM437.6576 283.4432c-5.7344 0-10.24 4.5056-10.24 10.24v224.0512c0 5.7344 4.5056 10.24 10.24 10.24h267.6736c5.7344 0 10.24-4.5056 10.24-10.24V293.6832c0-5.7344-4.5056-10.24-10.24-10.24H437.6576z" fill="#1C1D21" p-id="15737"></path><path d="M174.08 332.3904c-5.7344 0-10.24-4.5056-10.24-10.24v-7.9872c0-5.7344 4.5056-10.24 10.24-10.24s10.24 4.5056 10.24 10.24v7.9872c0 5.7344-4.5056 10.24-10.24 10.24zM174.08 484.5568c-5.7344 0-10.24-4.5056-10.24-10.24V360.448c0-5.7344 4.5056-10.24 10.24-10.24s10.24 4.5056 10.24 10.24v113.8688c0 5.7344-4.5056 10.24-10.24 10.24z" fill="#FFFFFF" p-id="15738"></path><path d="M277.9136 484.5568H153.6c-16.9984 0-30.72-13.7216-30.72-30.72v-160.1536c0-16.9984 13.7216-30.72 30.72-30.72h124.3136c16.9984 0 30.72 13.7216 30.72 30.72v160.1536c0 16.9984-13.7216 30.72-30.72 30.72zM153.6 283.4432c-5.7344 0-10.24 4.5056-10.24 10.24v160.1536c0 5.7344 4.5056 10.24 10.24 10.24h124.3136c5.7344 0 10.24-4.5056 10.24-10.24v-160.1536c0-5.7344-4.5056-10.24-10.24-10.24H153.6z" fill="#1C1D21" p-id="15739"></path><path d="M878.1824 550.0928h-41.7792c-5.7344 0-10.24-4.5056-10.24-10.24v-41.7792c0-5.7344 4.5056-10.24 10.24-10.24h41.7792c5.7344 0 10.24 4.5056 10.24 10.24v41.7792c0 5.5296-4.5056 10.24-10.24 10.24z" fill="#E0E0E0" p-id="15740"></path><path d="M878.1824 560.3328h-41.7792c-11.264 0-20.48-9.216-20.48-20.48v-41.7792c0-11.264 9.216-20.48 20.48-20.48h41.7792c11.264 0 20.48 9.216 20.48 20.48v41.7792c0 11.264-9.216 20.48-20.48 20.48z m0-62.2592h-41.7792v41.7792h41.7792v-41.7792z" fill="#1C1D21" p-id="15741"></path><path d="M842.3424 574.464c-5.7344 0-10.24-4.5056-10.24-10.24v-14.1312c0-5.7344 4.5056-10.24 10.24-10.24s10.24 4.5056 10.24 10.24v14.1312c0 5.7344-4.5056 10.24-10.24 10.24zM872.2432 574.464c-5.7344 0-10.24-4.5056-10.24-10.24v-14.1312c0-5.7344 4.5056-10.24 10.24-10.24s10.24 4.5056 10.24 10.24v14.1312c0 5.7344-4.7104 10.24-10.24 10.24z" fill="#1C1D21" p-id="15742"></path><path d="M319.488 690.176c-5.7344 0-10.24-4.5056-10.24-10.24v-93.184c0-5.7344 4.5056-10.24 10.24-10.24s10.24 4.5056 10.24 10.24V679.936c0 5.7344-4.5056 10.24-10.24 10.24zM319.488 563.2c-5.7344 0-10.24-4.5056-10.24-10.24v-7.168c0-5.7344 4.5056-10.24 10.24-10.24s10.24 4.5056 10.24 10.24v7.168c0 5.7344-4.5056 10.24-10.24 10.24z" fill="#FFFFFF" p-id="15743"></path><path d="M361.472 761.0368h-53.4528c-5.7344 0-10.24-4.5056-10.24-10.24s4.5056-10.24 10.24-10.24h43.2128V690.176H56.1152c6.144 17.2032 13.1072 33.9968 20.8896 50.3808h22.7328c5.7344 0 10.24 4.5056 10.24 10.24s-4.5056 10.24-10.24 10.24H70.656c-3.8912 0-7.5776-2.2528-9.216-5.7344-11.264-22.9376-21.0944-47.3088-29.2864-72.0896-1.024-3.072-0.6144-6.5536 1.4336-9.216 1.8432-2.6624 5.12-4.3008 8.3968-4.3008h319.6928c5.7344 0 10.24 4.5056 10.24 10.24v70.8608c-0.2048 5.5296-4.7104 10.24-10.4448 10.24z" fill="#1C1D21" p-id="15744"></path><path d="M229.5808 758.784m-78.848 0a78.848 78.848 0 1 0 157.696 0 78.848 78.848 0 1 0-157.696 0Z" fill="#AAADAD" p-id="15745"></path><path d="M229.5808 847.872c-49.152 0-89.088-39.936-89.088-89.088S180.4288 669.696 229.5808 669.696s89.088 39.936 89.088 89.088-39.936 89.088-89.088 89.088z m0-157.696c-37.888 0-68.608 30.72-68.608 68.608s30.72 68.608 68.608 68.608 68.608-30.72 68.608-68.608-30.72-68.608-68.608-68.608z" fill="#1C1D21" p-id="15746"></path><path d="M229.5808 758.784m-30.72 0a30.72 30.72 0 1 0 61.44 0 30.72 30.72 0 1 0-61.44 0Z" fill="#E0E0E0" p-id="15747"></path><path d="M229.5808 799.744c-22.528 0-40.96-18.432-40.96-40.96s18.432-40.96 40.96-40.96 40.96 18.432 40.96 40.96-18.2272 40.96-40.96 40.96z m0-61.44c-11.264 0-20.48 9.216-20.48 20.48s9.216 20.48 20.48 20.48 20.48-9.216 20.48-20.48-9.216-20.48-20.48-20.48z" fill="#1C1D21" p-id="15748"></path></svg>