<svg xmlns="http://www.w3.org/2000/svg" viewBox="0 0 1024 1024" version="1.1"><path d="M512 512m-501.76 0a501.76 501.76 0 1 0 1003.52 0 501.76 501.76 0 1 0-1003.52 0Z" fill="#8CEEF9" p-id="15802"></path><path d="M512 1024c-136.8064 0-265.4208-53.248-362.0864-149.9136C53.248 777.4208 0 648.8064 0 512S53.248 246.5792 149.9136 149.9136C246.5792 53.248 375.1936 0 512 0s265.4208 53.248 362.0864 149.9136C970.752 246.5792 1024 375.1936 1024 512s-53.248 265.4208-149.9136 362.0864C777.4208 970.752 648.8064 1024 512 1024z m0-1003.52C241.0496 20.48 20.48 241.0496 20.48 512s220.5696 491.52 491.52 491.52 491.52-220.5696 491.52-491.52S782.9504 20.48 512 20.48z" fill="#1C1D21" p-id="15803"></path><path d="M842.752 724.992h-661.504c-11.264 0-20.48-9.216-20.48-20.48V282.2144c0-11.264 9.216-20.48 20.48-20.48h661.7088c11.264 0 20.48 9.216 20.48 20.48V704.512c-0.2048 11.264-9.216 20.48-20.6848 20.48z" fill="#C67552" p-id="15804"></path><path d="M160.768 353.0752c-5.7344 0-10.24-4.5056-10.24-10.24v-8.3968c0-5.7344 4.5056-10.24 10.24-10.24s10.24 4.5056 10.24 10.24v8.3968c0 5.5296-4.7104 10.24-10.24 10.24zM160.768 532.8896c-5.7344 0-10.24-4.5056-10.24-10.24v-139.264c0-5.7344 4.5056-10.24 10.24-10.24s10.24 4.5056 10.24 10.24v139.264c0 5.5296-4.7104 10.24-10.24 10.24z" fill="#1C1D21" p-id="15805"></path><path d="M841.728 735.232H182.272c-17.6128 0-31.9488-14.336-31.9488-31.9488V581.632c0-5.7344 4.5056-10.24 10.24-10.24s10.24 4.5056 10.24 10.24v121.6512c0 6.3488 5.12 11.4688 11.4688 11.4688h659.456c6.3488 0 11.4688-5.12 11.4688-11.4688v-419.84c0-6.3488-5.12-11.4688-11.4688-11.4688H182.272c-6.3488 0-11.4688 5.12-11.4688 11.4688v9.216c0 5.7344-4.5056 10.24-10.24 10.24s-10.24-4.5056-10.24-10.24v-9.216c0-17.6128 14.336-31.9488 31.9488-31.9488h659.456c17.6128 0 31.9488 14.336 31.9488 31.9488v420.0448c-0.2048 17.408-14.336 31.744-31.9488 31.744z" fill="#1C1D21" p-id="15806"></path><path d="M512 251.904c28.2624-44.4416 77.2096-71.4752 129.8432-71.4752h117.3504c12.288 0 22.3232 10.0352 22.3232 22.3232v428.4416c0 12.288-10.0352 22.3232-22.3232 22.3232h-117.3504c-52.6336 0-101.7856 27.0336-129.8432 71.4752-28.2624-44.4416-77.2096-71.4752-129.8432-71.4752h-117.3504c-12.288 0-22.3232-10.0352-22.3232-22.3232V202.9568c0-12.288 10.0352-22.3232 22.3232-22.3232h117.3504c52.6336 0 101.5808 26.8288 129.8432 71.2704z" fill="#FFC5B3" p-id="15807"></path><path d="M512 735.232c-3.4816 0-6.7584-1.8432-8.6016-4.7104-26.4192-41.7792-71.8848-66.56-121.2416-66.56h-117.3504c-18.0224 0-32.5632-14.5408-32.5632-32.5632V202.9568c0-18.0224 14.5408-32.5632 32.5632-32.5632h117.3504c51.4048 0 98.9184 23.552 129.8432 63.8976 30.9248-40.1408 78.4384-63.8976 129.8432-63.8976h117.3504c18.0224 0 32.5632 14.5408 32.5632 32.5632v428.4416c0 18.0224-14.5408 32.5632-32.5632 32.5632h-117.3504c-49.3568 0-94.8224 24.9856-121.2416 66.56-1.8432 2.8672-5.12 4.7104-8.6016 4.7104zM264.8064 190.8736c-6.5536 0-12.0832 5.3248-12.0832 12.0832v428.4416c0 6.5536 5.3248 12.0832 12.0832 12.0832h117.3504c51.4048 0 98.9184 23.552 129.8432 63.8976 30.9248-40.1408 78.4384-63.8976 129.8432-63.8976h117.3504c6.5536 0 12.0832-5.3248 12.0832-12.0832V202.9568c0-6.5536-5.3248-12.0832-12.0832-12.0832h-117.3504c-49.3568 0-94.8224 24.9856-121.2416 66.56-1.8432 2.8672-5.12 4.7104-8.6016 4.7104s-6.7584-1.8432-8.6016-4.7104c-26.4192-41.7792-71.8848-66.56-121.2416-66.56h-117.3504z" fill="#1C1D21" p-id="15808"></path><path d="M382.1568 255.7952h-4.9152c-5.7344 0-10.24-4.5056-10.24-10.24s4.5056-10.24 10.24-10.24h4.9152c5.7344 0 10.24 4.5056 10.24 10.24s-4.7104 10.24-10.24 10.24zM307.4048 597.8112c-5.7344 0-10.24-4.5056-10.24-10.24V251.904c0-9.216 7.5776-16.7936 16.7936-16.7936h20.6848c5.7344 0 10.24 4.5056 10.24 10.24s-4.5056 10.24-10.24 10.24h-16.7936v331.776c-0.2048 5.7344-4.7104 10.4448-10.4448 10.4448z" fill="#FFECE9" p-id="15809"></path><path d="M512 562.3808c-5.7344 0-10.24-4.5056-10.24-10.24V251.904c0-5.7344 4.5056-10.24 10.24-10.24s10.24 4.5056 10.24 10.24v300.2368c0 5.7344-4.5056 10.24-10.24 10.24zM461.2096 318.6688c-1.8432 0-3.6864-0.4096-5.3248-1.4336-22.3232-13.312-47.9232-20.48-73.9328-20.48h-88.6784c-5.7344 0-10.24-4.5056-10.24-10.24s4.5056-10.24 10.24-10.24h88.6784c29.696 0 58.9824 7.9872 84.3776 23.3472 4.9152 2.8672 6.3488 9.216 3.4816 14.1312-1.6384 3.2768-5.12 4.9152-8.6016 4.9152zM461.2096 383.3856c-1.8432 0-3.6864-0.4096-5.3248-1.4336-22.3232-13.312-47.9232-20.48-73.9328-20.48h-88.6784c-5.7344 0-10.24-4.5056-10.24-10.24s4.5056-10.24 10.24-10.24h88.6784c29.696 0 58.9824 7.9872 84.3776 23.3472 4.9152 2.8672 6.3488 9.216 3.4816 14.1312-1.6384 3.072-5.12 4.9152-8.6016 4.9152zM461.2096 447.8976c-1.8432 0-3.6864-0.4096-5.3248-1.4336-22.3232-13.312-47.9232-20.48-73.9328-20.48h-88.6784c-5.7344 0-10.24-4.5056-10.24-10.24s4.5056-10.24 10.24-10.24h88.6784c29.696 0 58.9824 7.9872 84.3776 23.3472 4.9152 2.8672 6.3488 9.216 3.4816 14.1312-1.6384 3.072-5.12 4.9152-8.6016 4.9152zM461.2096 512.4096c-1.8432 0-3.6864-0.4096-5.3248-1.4336-22.3232-13.312-47.9232-20.48-73.9328-20.48h-88.6784c-5.7344 0-10.24-4.5056-10.24-10.24s4.5056-10.24 10.24-10.24h88.6784c29.696 0 58.9824 7.9872 84.3776 23.3472 4.9152 2.8672 6.3488 9.216 3.4816 14.1312-1.6384 3.072-5.12 4.9152-8.6016 4.9152zM461.2096 576.9216c-1.8432 0-3.6864-0.4096-5.3248-1.4336-22.3232-13.312-47.9232-20.48-73.9328-20.48h-88.6784c-5.7344 0-10.24-4.5056-10.24-10.24s4.5056-10.24 10.24-10.24h88.6784c29.696 0 58.9824 7.9872 84.3776 23.3472 4.9152 2.8672 6.3488 9.216 3.4816 14.1312-1.6384 3.2768-5.12 4.9152-8.6016 4.9152zM562.7904 318.6688c-3.4816 0-6.9632-1.8432-8.8064-4.9152-2.8672-4.9152-1.4336-11.0592 3.4816-14.1312 25.6-15.36 54.6816-23.3472 84.3776-23.3472h88.6784c5.7344 0 10.24 4.5056 10.24 10.24s-4.5056 10.24-10.24 10.24h-88.6784c-26.0096 0-51.6096 7.168-73.9328 20.48-1.4336 1.024-3.2768 1.4336-5.12 1.4336zM562.7904 383.3856c-3.4816 0-6.9632-1.8432-8.8064-4.9152-2.8672-4.9152-1.4336-11.0592 3.4816-14.1312 25.6-15.36 54.6816-23.3472 84.3776-23.3472h88.6784c5.7344 0 10.24 4.5056 10.24 10.24s-4.5056 10.24-10.24 10.24h-88.6784c-26.0096 0-51.6096 7.168-73.9328 20.48-1.4336 0.8192-3.2768 1.4336-5.12 1.4336zM562.7904 447.8976c-3.4816 0-6.9632-1.8432-8.8064-4.9152-2.8672-4.9152-1.4336-11.0592 3.4816-14.1312 25.6-15.36 54.6816-23.3472 84.3776-23.3472h88.6784c5.7344 0 10.24 4.5056 10.24 10.24s-4.5056 10.24-10.24 10.24h-88.6784c-26.0096 0-51.6096 7.168-73.9328 20.48-1.4336 1.024-3.2768 1.4336-5.12 1.4336zM562.7904 512.4096c-3.4816 0-6.9632-1.8432-8.8064-4.9152-2.8672-4.9152-1.4336-11.0592 3.4816-14.1312 25.6-15.36 54.6816-23.3472 84.3776-23.3472h88.6784c5.7344 0 10.24 4.5056 10.24 10.24s-4.5056 10.24-10.24 10.24h-88.6784c-26.0096 0-51.6096 7.168-73.9328 20.48-1.4336 1.024-3.2768 1.4336-5.12 1.4336zM562.7904 576.9216c-3.4816 0-6.9632-1.8432-8.8064-4.9152-2.8672-4.9152-1.4336-11.0592 3.4816-14.1312 25.6-15.36 54.6816-23.3472 84.3776-23.3472h88.6784c5.7344 0 10.24 4.5056 10.24 10.24s-4.5056 10.24-10.24 10.24h-88.6784c-26.0096 0-51.6096 7.168-73.9328 20.48-1.4336 1.024-3.2768 1.4336-5.12 1.4336zM512 631.1936c-5.7344 0-10.24-4.5056-10.24-10.24V600.064c0-5.7344 4.5056-10.24 10.24-10.24s10.24 4.5056 10.24 10.24v20.8896c0 5.7344-4.5056 10.24-10.24 10.24z" fill="#1C1D21" p-id="15810"></path><path d="M724.1728 788.6848H268.288c-15.1552 0-27.4432 12.288-27.4432 27.4432s12.288 27.4432 27.4432 27.4432h455.8848c15.1552 0 27.4432-12.288 27.4432-27.4432s-12.288-27.4432-27.4432-27.4432z" fill="#508DEF" p-id="15811"></path><path d="M705.3312 843.3664h18.8416c15.1552 0 27.4432-12.288 27.4432-27.4432s-12.288-27.4432-27.4432-27.4432h-18.8416v54.8864z" fill="#ABD1FF" p-id="15812"></path><path d="M724.1728 853.6064H268.288c-20.6848 0-37.6832-16.7936-37.6832-37.6832S247.3984 778.24 268.288 778.24h455.8848c20.6848 0 37.6832 16.7936 37.6832 37.6832s-16.9984 37.6832-37.6832 37.6832zM268.288 798.9248c-9.4208 0-17.2032 7.7824-17.2032 17.2032s7.7824 17.2032 17.2032 17.2032h455.8848c9.4208 0 17.2032-7.7824 17.2032-17.2032s-7.7824-17.2032-17.2032-17.2032H268.288z" fill="#1C1D21" p-id="15813"></path><path d="M783.1552 826.368H751.616c-5.7344 0-10.24-4.5056-10.24-10.24s4.5056-10.24 10.24-10.24h31.5392c5.7344 0 10.24 4.5056 10.24 10.24s-4.5056 10.24-10.24 10.24zM700.8256 853.6064c-5.7344 0-10.24-4.5056-10.24-10.24v-54.6816c0-5.7344 4.5056-10.24 10.24-10.24s10.24 4.5056 10.24 10.24v54.6816c0 5.7344-4.5056 10.24-10.24 10.24z" fill="#1C1D21" p-id="15814"></path></svg>