<svg xmlns="http://www.w3.org/2000/svg" viewBox="0 0 1024 1024" version="1.1"><path d="M512 512m-501.76 0a501.76 501.76 0 1 0 1003.52 0 501.76 501.76 0 1 0-1003.52 0Z" fill="#0ABFB2" p-id="15019"></path><path d="M661.7088 668.8768l-62.8736-38.7072c-24.7808-15.36-39.936-42.3936-39.936-71.68v-25.3952c0-14.1312 8.3968-26.624 21.0944-32.768 54.4768-25.6 92.16-80.896 92.16-145.2032v-73.728C672.3584 192.512 600.4736 120.832 512 120.832s-160.3584 71.8848-160.3584 160.3584v73.728c0 64.1024 37.6832 119.6032 92.16 145.2032 12.6976 5.9392 21.0944 18.6368 21.0944 32.768v25.3952c0 29.2864-15.1552 56.32-39.936 71.68l-62.8736 38.7072c-50.9952 31.5392-81.92 87.04-81.92 146.8416v141.5168C349.5936 993.28 428.4416 1013.76 512 1013.76s162.4064-20.48 231.6288-56.5248v-141.5168c0-59.8016-30.9248-115.5072-81.92-146.8416z" fill="#FFC5B3" p-id="15020"></path><path d="M531.6608 655.7696c-11.264 10.0352-28.0576 10.0352-39.3216 0l-47.7184-42.3936c-5.5296 6.3488-12.0832 12.0832-19.456 16.5888l-62.8736 38.7072c-50.9952 31.5392-81.92 87.04-81.92 146.8416v141.5168C349.5936 993.28 428.4416 1013.76 512 1013.76s162.4064-20.48 231.6288-56.5248v-141.5168c0-59.8016-30.9248-115.5072-81.92-146.8416l-62.8736-38.7072c-7.3728-4.5056-13.9264-10.24-19.456-16.5888l-47.7184 42.1888z" fill="#FFECE9" p-id="15021"></path><path d="M512 1024c-136.8064 0-265.4208-53.248-362.0864-149.9136S0 648.8064 0 512 53.248 246.5792 149.9136 149.9136 375.1936 0 512 0s265.4208 53.248 362.0864 149.9136S1024 375.1936 1024 512s-53.248 265.4208-149.9136 362.0864S648.8064 1024 512 1024z m0-1003.52C241.0496 20.48 20.48 241.0496 20.48 512s220.5696 491.52 491.52 491.52 491.52-220.5696 491.52-491.52S782.9504 20.48 512 20.48z" fill="#1C1D21" p-id="15022"></path><path d="M512 706.56l-30.3104 163.0208c-6.144 33.5872-4.9152 68.1984 3.8912 101.1712l11.4688 42.8032c4.9152 0.2048 10.0352 0.2048 14.9504 0.2048 5.12 0 10.0352 0 14.9504-0.2048l11.4688-42.8032c8.8064-32.9728 10.0352-67.584 3.8912-101.1712L512 706.56z" fill="#FF3E63" p-id="15023"></path><path d="M512 1024c-4.9152 0-10.24 0-15.36-0.2048-4.5056-0.2048-8.3968-3.2768-9.6256-7.5776l-11.4688-42.8032c-9.0112-34.2016-10.4448-70.8608-4.096-105.6768l30.3104-163.0208c0.8192-4.9152 5.12-8.3968 10.0352-8.3968s9.216 3.4816 10.0352 8.3968l30.3104 163.0208c6.5536 34.816 5.12 71.4752-4.096 105.6768l-11.4688 42.8032c-1.2288 4.3008-5.12 7.5776-9.6256 7.5776-4.7104 0.2048-10.0352 0.2048-14.9504 0.2048z m-7.168-20.48h14.1312l9.4208-35.4304c8.3968-31.3344 9.6256-64.7168 3.6864-96.6656l-20.0704-108.7488-20.0704 108.7488c-5.9392 31.9488-4.7104 65.3312 3.6864 96.6656l9.216 35.4304z" fill="#1C1D21" p-id="15024"></path><path d="M329.1136 345.7024h22.528v-84.7872h-22.528c-20.0704 0-36.2496 16.1792-36.2496 36.2496v12.288c0 20.0704 16.384 36.2496 36.2496 36.2496zM696.1152 345.7024h-22.528v-84.7872h22.528c20.0704 0 36.2496 16.1792 36.2496 36.2496v12.288c0 20.0704-16.384 36.2496-36.2496 36.2496z" fill="#FFC5B3" p-id="15025"></path><path d="M351.8464 355.9424h-22.528c-25.6 0-46.4896-20.8896-46.4896-46.4896v-12.288c0-25.6 20.8896-46.4896 46.4896-46.4896h22.528c5.7344 0 10.24 4.5056 10.24 10.24v84.7872c0 5.5296-4.7104 10.24-10.24 10.24z m-22.7328-84.7872c-14.336 0-26.0096 11.6736-26.0096 26.0096v12.288c0 14.336 11.6736 26.0096 26.0096 26.0096h12.288v-64.3072h-12.288zM696.1152 355.9424h-22.528c-5.7344 0-10.24-4.5056-10.24-10.24v-84.7872c0-5.7344 4.5056-10.24 10.24-10.24h22.528c25.6 0 46.4896 20.8896 46.4896 46.4896v12.288c0 25.6-20.8896 46.4896-46.4896 46.4896z m-12.4928-20.48h12.288c14.336 0 26.0096-11.6736 26.0096-26.0096v-12.288c0-14.336-11.6736-26.0096-26.0096-26.0096h-12.288v64.3072z" fill="#1C1D21" p-id="15026"></path><path d="M512 120.832c-4.7104 0-9.216 0.2048-13.9264 0.6144-75.3664 6.3488-135.7824 64.9216-145.2032 139.4688 139.264-0.4096 159.744-71.68 159.744-71.68s20.2752 70.656 158.5152 71.4752C661.0944 181.8624 593.7152 120.832 512 120.832z" fill="#FF8939" p-id="15027"></path><path d="M512 1024c-82.1248 0-163.84-20.0704-236.3392-57.7536-3.4816-1.8432-5.5296-5.3248-5.5296-9.0112v-141.5168c0-63.8976 32.3584-122.0608 86.8352-155.648l62.8736-38.7072c21.9136-13.5168 35.0208-37.0688 35.0208-63.0784v-25.3952c0-10.0352-5.9392-19.0464-15.36-23.3472-59.5968-28.0576-98.0992-88.6784-98.0992-154.4192v-73.728c0-7.168 0.4096-14.5408 1.4336-21.504 0.6144-5.5296 5.9392-9.6256 11.4688-8.8064 5.5296 0.6144 9.6256 5.7344 8.8064 11.4688-0.8192 6.3488-1.2288 12.6976-1.2288 19.0464v73.728c0 57.9584 33.792 111.2064 86.2208 135.9872 16.384 7.7824 27.0336 24.1664 27.0336 41.984v25.3952c0 32.9728-16.7936 63.0784-44.8512 80.4864L367.4112 677.888c-48.3328 29.9008-77.0048 81.5104-77.0048 138.24v135.168C358.8096 985.2928 435.2 1003.52 512 1003.52s153.1904-18.2272 221.3888-52.6336v-135.168c0-56.7296-28.8768-108.3392-77.0048-138.24l-62.8736-38.7072c-28.0576-17.408-44.8512-47.3088-44.8512-80.4864v-25.3952c0-17.8176 10.6496-34.2016 27.0336-41.984 52.4288-24.576 86.2208-78.0288 86.2208-135.9872v-73.728c0-6.3488-0.4096-12.6976-1.2288-19.0464-0.6144-5.5296 3.2768-10.6496 8.8064-11.4688 5.5296-0.8192 10.6496 3.2768 11.4688 8.8064 0.8192 7.168 1.4336 14.336 1.4336 21.7088v73.728c0 65.7408-38.5024 126.3616-98.0992 154.4192-9.4208 4.5056-15.36 13.5168-15.36 23.3472v25.3952c0 25.8048 13.1072 49.3568 35.0208 63.0784l62.8736 38.7072c54.272 33.5872 86.8352 91.7504 86.8352 155.648v141.5168c0 3.8912-2.048 7.3728-5.5296 9.0112C675.84 1003.9296 594.1248 1024 512 1024z" fill="#1C1D21" p-id="15028"></path><path d="M618.9056 380.928c-22.7328 0-43.8272 10.0352-58.9824 26.8288-11.6736 13.1072-28.8768 21.504-47.9232 21.504s-36.0448-8.192-47.9232-21.504c-15.1552-16.7936-36.4544-26.8288-58.9824-26.8288h-52.224c0 86.8352 70.4512 157.2864 157.2864 157.2864h3.6864c86.8352 0 157.2864-70.4512 157.2864-157.2864h-52.224z" fill="#FF8939" p-id="15029"></path><path d="M512 1024c-82.1248 0-163.84-20.0704-236.3392-57.7536-3.4816-1.8432-5.5296-5.3248-5.5296-9.0112v-141.5168c0-63.8976 32.3584-122.0608 86.8352-155.648l62.8736-38.7072c6.3488-3.8912 12.0832-8.8064 17.2032-14.7456 1.6384-1.8432 3.8912-3.072 6.3488-3.4816 3.072-0.4096 5.9392 0.4096 8.192 2.4576l47.7184 42.3936c7.3728 6.5536 18.432 6.5536 25.8048 0l47.7184-42.3936c1.8432-1.6384 4.3008-2.6624 6.7584-2.6624 3.072 0 5.9392 1.2288 7.7824 3.4816 4.9152 5.7344 10.6496 10.6496 17.2032 14.7456l62.8736 38.7072c54.272 33.5872 86.8352 91.7504 86.8352 155.648v141.5168c0 3.8912-2.048 7.3728-5.5296 9.0112C675.84 1003.9296 594.1248 1024 512 1024z m-221.3888-73.1136C358.8096 985.2928 435.2 1003.52 512 1003.52s153.1904-18.2272 221.3888-52.6336v-135.168c0-56.7296-28.8768-108.3392-77.0048-138.24l-62.8736-38.7072c-5.3248-3.2768-10.24-6.9632-14.7456-11.264l-40.5504 35.84c-15.1552 13.312-37.888 13.312-52.8384 0l-40.5504-35.84c-4.5056 4.3008-9.4208 7.9872-14.7456 11.264l-62.8736 38.7072c-48.3328 29.9008-77.0048 81.5104-77.0048 138.24v135.168z" fill="#1C1D21" p-id="15030"></path><path d="M529.2032 714.9568l44.6464-84.7872h-13.1072l-29.0816 25.6c-11.264 10.0352-28.0576 10.0352-39.3216 0l-29.0816-25.6h-13.1072l44.6464 84.7872c8.3968 16.1792 26.0096 16.1792 34.4064 0z" fill="#FF3E63" p-id="15031"></path><path d="M512 737.28c-10.6496 0-20.48-6.5536-26.4192-17.6128L440.9344 634.88c-1.6384-3.072-1.6384-6.9632 0.2048-10.0352s5.12-4.9152 8.8064-4.9152h13.1072c2.4576 0 4.9152 0.8192 6.7584 2.6624l29.0816 25.6c7.3728 6.5536 18.432 6.5536 25.8048 0l29.0816-25.6c1.8432-1.6384 4.3008-2.6624 6.7584-2.6624h13.1072c3.6864 0 6.9632 1.8432 8.8064 4.9152s2.048 6.9632 0.2048 10.0352l-44.6464 84.7872c-5.5296 11.0592-15.36 17.6128-26.0096 17.6128z m-38.2976-84.3776l30.1056 57.1392c2.2528 4.096 5.3248 6.7584 8.192 6.7584s5.9392-2.4576 8.192-6.7584l30.1056-57.1392-11.8784 10.4448c-15.1552 13.312-37.888 13.312-52.8384 0l-11.8784-10.4448z m55.5008 62.0544z" fill="#1C1D21" p-id="15032"></path><path d="M444.6208 613.376c-0.2048 0-0.2048 0 0 0-1.2288 1.4336-2.6624 2.8672-3.8912 4.096l-1.024 1.024c-1.2288 1.2288-2.6624 2.6624-4.096 3.6864-0.2048 0.2048-0.4096 0.2048-0.4096 0.4096-1.2288 1.024-2.6624 2.048-3.8912 3.072-0.4096 0.4096-1.024 0.6144-1.4336 1.024-1.4336 1.024-2.8672 2.048-4.5056 3.072V720.896l66.9696-65.1264-47.7184-42.3936zM579.3792 613.376s0.2048 0 0 0c1.2288 1.4336 2.6624 2.8672 3.8912 4.096l1.024 1.024c1.2288 1.2288 2.6624 2.6624 4.096 3.6864 0.2048 0.2048 0.4096 0.2048 0.4096 0.4096 1.2288 1.024 2.6624 2.048 3.8912 3.072 0.4096 0.4096 1.024 0.6144 1.4336 1.024 1.4336 1.024 2.8672 2.048 4.5056 3.072V720.896l-66.9696-65.1264 47.7184-42.3936z" fill="#FFECE9" p-id="15033"></path><path d="M425.3696 731.136c-1.4336 0-2.6624-0.2048-3.8912-0.8192-3.8912-1.6384-6.3488-5.3248-6.3488-9.4208v-91.136c0-3.4816 1.8432-6.7584 4.9152-8.6016 1.2288-0.8192 2.4576-1.6384 3.8912-2.6624 0.4096-0.2048 0.8192-0.6144 1.2288-1.024 1.2288-1.024 2.4576-1.8432 3.4816-2.6624l0.4096-0.4096c1.024-0.8192 2.2528-2.048 3.4816-3.2768l0.8192-0.8192c1.4336-1.4336 2.4576-2.4576 3.2768-3.4816l0.6144-0.6144c1.6384-1.6384 3.6864-2.6624 5.7344-2.8672 3.072-0.4096 5.9392 0.4096 8.192 2.4576l47.7184 42.3936c2.048 1.8432 3.4816 4.5056 3.4816 7.3728s-1.024 5.5296-3.072 7.5776l-66.9696 65.1264c-1.8432 1.8432-4.5056 2.8672-6.9632 2.8672z m10.24-95.8464v61.44l41.7792-40.5504-32.1536-28.4672c-1.024 1.024-1.8432 1.8432-2.8672 2.6624-0.2048 0.2048-0.4096 0.4096-0.6144 0.4096-1.4336 1.024-2.8672 2.2528-4.3008 3.4816-0.6144 0-1.2288 0.4096-1.8432 1.024 0-0.2048 0 0 0 0z m8.8064-21.9136z m0 0zM598.6304 731.136c-2.6624 0-5.12-1.024-7.168-2.8672l-66.9696-65.1264c-2.048-2.048-3.072-4.7104-3.072-7.5776 0-2.8672 1.2288-5.5296 3.4816-7.3728l47.7184-42.3936c2.2528-2.048 5.3248-2.8672 8.192-2.4576 2.2528 0.4096 4.3008 1.4336 5.9392 3.072l0.4096 0.4096c1.024 1.024 2.048 2.2528 3.2768 3.4816 0.2048 0.4096 0.6144 0.6144 0.8192 0.8192 1.4336 1.4336 2.4576 2.4576 3.6864 3.2768l0.4096 0.4096c1.024 0.8192 2.2528 1.8432 3.4816 2.6624 0.4096 0.2048 0.8192 0.6144 1.2288 1.024 1.4336 1.024 2.6624 1.8432 3.8912 2.6624 3.072 1.8432 4.9152 5.12 4.9152 8.6016V720.896c0 4.096-2.4576 7.7824-6.3488 9.4208-1.2288 0.6144-2.4576 0.8192-3.8912 0.8192z m-52.0192-75.1616l41.7792 40.5504v-61.44h-0.2048c-0.6144-0.4096-1.024-0.8192-1.6384-1.2288-1.6384-1.2288-3.072-2.2528-4.3008-3.4816l-0.4096-0.4096c-1.024-0.8192-1.8432-1.6384-2.8672-2.6624l-32.3584 28.672z" fill="#1C1D21" p-id="15034"></path><path d="M425.3696 629.76l-0.2048 0.2048-62.8736 38.7072c-50.9952 31.5392-81.92 87.04-81.92 146.8416v141.5168c44.8512 23.3472 93.5936 40.1408 144.9984 49.152V629.76z" fill="#AAADAD" p-id="15035"></path><path d="M425.3696 1016.4224c-0.6144 0-1.2288 0-1.8432-0.2048-51.6096-9.0112-101.376-25.8048-147.8656-50.176-3.4816-1.8432-5.5296-5.3248-5.5296-9.0112v-141.5168c0-63.8976 32.3584-122.0608 86.8352-155.648l62.6688-38.7072c0.2048 0 0.2048-0.2048 0.4096-0.2048 3.072-2.048 7.168-2.2528 10.4448-0.4096 3.2768 1.8432 5.3248 5.3248 5.3248 9.0112v376.4224c0 3.072-1.4336 5.9392-3.6864 7.7824-2.048 1.8432-4.5056 2.6624-6.7584 2.6624z m-134.7584-65.536c39.3216 19.8656 81.3056 34.4064 124.5184 43.008V648.192l-47.5136 29.2864c-48.3328 29.9008-77.0048 81.5104-77.0048 138.24v135.168z" fill="#1C1D21" p-id="15036"></path><path d="M598.6304 629.76l0.2048 0.2048 62.8736 38.7072c50.9952 31.5392 81.92 87.04 81.92 146.8416v141.5168c-44.8512 23.3472-93.5936 40.1408-144.9984 49.152V629.76z" fill="#AAADAD" p-id="15037"></path><path d="M598.6304 1016.4224c-2.4576 0-4.7104-0.8192-6.5536-2.4576-2.2528-2.048-3.6864-4.9152-3.6864-7.7824V629.76c0-3.6864 2.048-7.168 5.3248-9.0112s7.168-1.6384 10.4448 0.2048c0 0 0.2048 0.2048 0.4096 0.2048l62.6688 38.7072c54.272 33.5872 86.8352 91.7504 86.8352 155.648v141.5168c0 3.8912-2.048 7.3728-5.5296 9.0112-46.4896 24.1664-96.256 41.1648-147.8656 50.176-0.8192 0.2048-1.4336 0.2048-2.048 0.2048z m10.24-368.2304v345.7024c43.2128-8.6016 84.992-23.1424 124.5184-43.008v-135.168c0-56.7296-28.8768-108.3392-77.0048-138.24l-47.5136-29.2864z" fill="#1C1D21" p-id="15038"></path><path d="M424.96 629.9648L367.4112 772.096c-4.9152 12.288 4.096 25.8048 17.408 25.8048 4.7104 0 7.9872 4.9152 5.9392 9.216l-14.9504 31.9488c-15.5648 33.3824-19.456 71.0656-10.8544 106.9056l11.8784 49.152c15.7696 4.5056 31.9488 7.9872 48.3328 10.8544l-0.2048-376.0128zM598.8352 629.9648l57.5488 142.1312c4.9152 12.288-4.096 25.8048-17.408 25.8048-4.7104 0-7.9872 4.9152-5.9392 9.216l14.9504 31.9488c15.5648 33.3824 19.456 71.0656 10.8544 106.9056l-11.8784 49.152c-15.7696 4.5056-31.9488 7.9872-48.3328 10.8544l0.2048-376.0128z" fill="#AAADAD" p-id="15039"></path><path d="M598.6304 1016.4224c-2.4576 0-4.7104-0.8192-6.5536-2.4576-2.2528-2.048-3.6864-4.9152-3.6864-7.7824l0.2048-376.2176c0-4.9152 3.4816-9.0112 8.192-10.0352 4.9152-1.024 9.6256 1.6384 11.4688 6.144l57.5488 142.1312c3.6864 9.0112 2.6624 19.0464-2.8672 27.0336-4.3008 6.3488-11.0592 10.8544-18.432 12.288l12.6976 27.2384c16.5888 35.4304 20.48 75.776 11.4688 113.664l-11.8784 49.152c-0.8192 3.6864-3.6864 6.5536-7.168 7.3728-16.1792 4.5056-32.768 8.192-49.3568 11.0592-0.4096 0.4096-1.024 0.4096-1.6384 0.4096z m10.4448-333.824l-0.2048 311.296c9.8304-2.048 19.8656-4.3008 29.4912-6.9632l10.4448-43.2128c7.9872-33.3824 4.5056-69.0176-10.0352-100.352l-14.9504-31.9488c-2.4576-5.12-2.048-11.264 1.024-15.9744 3.072-4.9152 8.3968-7.7824 14.1312-7.7824 2.8672 0 5.5296-1.4336 7.168-3.6864 1.6384-2.4576 1.8432-5.3248 0.8192-7.9872l-37.888-93.3888z" fill="#1C1D21" p-id="15040"></path><path d="M868.352 757.76l-43.4176-48.5376-43.2128 48.5376v-163.4304H868.352z" fill="#FF3E63" p-id="15041"></path><path d="M781.7216 768c-1.2288 0-2.4576-0.2048-3.6864-0.6144-3.8912-1.4336-6.5536-5.3248-6.5536-9.6256v-163.4304c0-5.7344 4.5056-10.24 10.24-10.24H868.352c5.7344 0 10.24 4.5056 10.24 10.24V757.76c0 4.3008-2.6624 7.9872-6.5536 9.6256-3.8912 1.4336-8.3968 0.4096-11.264-2.6624l-35.6352-39.936-35.6352 39.936c-2.048 2.048-4.9152 3.2768-7.7824 3.2768z m43.2128-69.0176c2.8672 0 5.7344 1.2288 7.5776 3.4816l25.3952 28.4672v-126.3616h-66.1504v126.3616L817.152 702.464c2.2528-2.2528 4.9152-3.4816 7.7824-3.4816z" fill="#1C1D21" p-id="15042"></path><path d="M932.0448 570.1632c-3.072-6.5536-2.8672-14.1312 0.4096-20.6848 2.8672-5.7344 5.3248-11.4688 7.3728-17.6128 2.2528-6.9632 7.5776-12.288 14.336-14.9504 20.6848-7.7824 20.6848-36.864 0-44.6464-6.7584-2.4576-12.0832-7.9872-14.336-14.9504-2.048-6.144-4.5056-12.0832-7.3728-17.6128-3.2768-6.5536-3.4816-14.1312-0.4096-20.6848 9.216-20.0704-11.4688-40.7552-31.5392-31.5392-6.5536 3.072-14.1312 2.8672-20.6848-0.4096-5.7344-2.8672-11.4688-5.3248-17.6128-7.3728-6.9632-2.2528-12.288-7.5776-14.9504-14.336-7.7824-20.6848-36.864-20.6848-44.6464 0-2.4576 6.7584-7.9872 12.0832-14.9504 14.336-6.144 2.048-12.0832 4.5056-17.6128 7.3728-6.5536 3.2768-14.1312 3.4816-20.6848 0.4096-20.0704-9.216-40.7552 11.4688-31.5392 31.5392 3.072 6.5536 2.8672 14.1312-0.4096 20.6848-2.8672 5.7344-5.3248 11.4688-7.3728 17.6128-2.2528 6.9632-7.5776 12.288-14.336 14.9504-20.6848 7.7824-20.6848 36.864 0 44.6464 6.7584 2.4576 12.0832 7.9872 14.336 14.9504 2.048 6.144 4.5056 12.0832 7.3728 17.6128 3.2768 6.5536 3.4816 14.1312 0.4096 20.6848-9.216 20.0704 11.4688 40.7552 31.5392 31.5392 6.5536-3.072 14.1312-2.8672 20.6848 0.4096 5.7344 2.8672 11.4688 5.3248 17.6128 7.3728 6.9632 2.2528 12.288 7.5776 14.9504 14.336 7.7824 20.6848 36.864 20.6848 44.6464 0 2.4576-6.7584 7.9872-12.0832 14.9504-14.336 6.144-2.048 12.0832-4.5056 17.6128-7.3728 6.5536-3.2768 14.1312-3.4816 20.6848-0.4096 20.0704 9.216 40.7552-11.4688 31.5392-31.5392z" fill="#FF8939" p-id="15043"></path><path d="M824.9344 649.4208c-14.336 0-26.8288-8.6016-31.9488-22.1184-1.4336-3.8912-4.5056-6.7584-8.3968-8.192-6.5536-2.048-13.1072-4.7104-19.2512-7.9872-3.6864-1.8432-7.9872-2.048-11.6736-0.2048-13.1072 5.9392-28.0576 3.2768-38.2976-6.9632s-12.9024-25.1904-6.9632-38.2976v-0.2048c1.6384-3.6864 1.6384-7.9872-0.2048-11.6736-3.072-6.144-5.7344-12.6976-7.9872-19.2512-1.2288-3.8912-4.3008-6.9632-8.192-8.3968-13.5168-4.9152-22.1184-17.6128-22.1184-31.9488s8.6016-26.8288 22.1184-31.9488c3.8912-1.4336 6.7584-4.5056 8.192-8.3968 2.048-6.5536 4.7104-13.1072 7.9872-19.2512 1.8432-3.6864 2.048-7.9872 0.2048-11.6736-5.9392-13.1072-3.2768-28.0576 6.9632-38.2976 10.0352-10.0352 24.9856-12.9024 38.0928-6.9632h0.2048c3.6864 1.6384 7.9872 1.6384 11.6736-0.2048 6.144-3.072 12.6976-5.7344 19.2512-7.9872 3.8912-1.2288 6.9632-4.3008 8.3968-8.192 4.9152-13.5168 17.6128-22.1184 31.9488-22.1184s26.8288 8.6016 31.9488 22.1184c1.4336 3.8912 4.5056 6.7584 8.3968 8.192 6.5536 2.048 13.1072 4.7104 19.2512 7.9872 3.6864 1.8432 7.9872 2.048 11.6736 0.2048h0.2048c13.1072-5.9392 27.8528-3.072 38.0928 6.9632 10.24 10.24 12.9024 25.1904 6.9632 38.2976-1.6384 3.6864-1.6384 7.9872 0.2048 11.6736 3.072 6.144 5.7344 12.6976 7.9872 19.2512 1.2288 3.8912 4.3008 6.9632 8.192 8.3968 13.5168 4.9152 22.1184 17.6128 22.1184 31.9488s-8.6016 26.8288-22.1184 31.9488c-3.8912 1.4336-6.7584 4.5056-8.192 8.3968-2.048 6.5536-4.7104 13.1072-7.9872 19.2512-1.8432 3.6864-2.048 7.9872-0.2048 11.6736v0.2048c5.9392 13.1072 3.072 28.0576-6.9632 38.0928-10.24 10.24-25.1904 12.9024-38.2976 6.9632h-0.2048c-3.6864-1.6384-7.9872-1.6384-11.6736 0.2048-6.144 3.072-12.6976 5.7344-19.2512 7.9872-3.8912 1.2288-6.9632 4.3008-8.3968 8.192-4.7104 13.7216-17.408 22.3232-31.744 22.3232z m-65.536-60.0064c5.3248 0 10.6496 1.2288 15.36 3.6864 5.12 2.6624 10.6496 4.9152 16.1792 6.7584 9.8304 3.2768 17.6128 10.6496 21.2992 20.48 3.072 8.192 10.4448 8.8064 12.6976 8.8064 2.2528 0 9.6256-0.6144 12.6976-8.8064 3.6864-9.8304 11.4688-17.2032 21.2992-20.48 5.5296-1.8432 11.0592-4.096 16.1792-6.7584 9.216-4.7104 20.0704-4.9152 29.4912-0.6144h0.2048c7.9872 3.4816 13.5168-1.2288 15.1552-2.8672 1.6384-1.6384 6.3488-7.168 2.6624-15.1552v-0.2048c-4.3008-9.4208-4.096-20.2752 0.6144-29.4912 2.6624-5.12 4.9152-10.6496 6.7584-16.1792 3.2768-9.8304 10.6496-17.6128 20.48-21.2992 8.192-3.072 8.8064-10.4448 8.8064-12.6976s-0.6144-9.6256-8.8064-12.6976c-9.8304-3.6864-17.2032-11.4688-20.48-21.2992-1.8432-5.5296-4.096-11.0592-6.7584-16.1792-4.7104-9.216-4.9152-20.0704-0.6144-29.4912 3.4816-7.9872-1.2288-13.5168-2.8672-15.1552-1.6384-1.6384-7.3728-6.3488-15.1552-2.6624h-0.2048c-9.4208 4.3008-20.0704 3.8912-29.2864-0.8192-5.12-2.6624-10.6496-4.9152-16.1792-6.7584-9.8304-3.2768-17.6128-10.6496-21.2992-20.48-3.072-8.192-10.4448-8.8064-12.6976-8.8064-2.2528 0-9.6256 0.6144-12.6976 8.8064-3.6864 9.8304-11.4688 17.2032-21.2992 20.48-5.5296 1.8432-11.0592 4.096-16.1792 6.7584-9.216 4.7104-20.0704 4.9152-29.4912 0.6144h-0.2048c-7.9872-3.6864-13.7216 1.2288-15.1552 2.6624-1.6384 1.6384-6.3488 7.168-2.8672 15.1552 4.3008 9.4208 4.096 20.2752-0.6144 29.4912-2.6624 5.12-4.9152 10.6496-6.7584 16.1792-3.2768 9.8304-10.6496 17.6128-20.48 21.2992-8.192 3.072-8.8064 10.4448-8.8064 12.6976s0.6144 9.6256 8.8064 12.6976c9.8304 3.6864 17.2032 11.4688 20.48 21.2992 1.8432 5.5296 4.096 11.0592 6.7584 16.1792 4.7104 9.216 4.9152 20.0704 0.6144 29.4912v0.2048c-3.4816 7.9872 1.2288 13.5168 2.8672 15.1552 1.6384 1.6384 7.168 6.3488 15.1552 2.8672h0.2048c4.5056-1.8432 9.4208-2.8672 14.1312-2.8672z" fill="#1C1D21" p-id="15044"></path><path d="M824.9344 494.7968m-78.4384 0a78.4384 78.4384 0 1 0 156.8768 0 78.4384 78.4384 0 1 0-156.8768 0Z" fill="#FFECE9" p-id="15045"></path><path d="M824.9344 583.2704c-48.9472 0-88.6784-39.7312-88.6784-88.6784s39.7312-88.6784 88.6784-88.6784 88.6784 39.7312 88.6784 88.6784-39.7312 88.6784-88.6784 88.6784z m0-156.672c-37.4784 0-68.1984 30.5152-68.1984 68.1984s30.5152 68.1984 68.1984 68.1984c37.4784 0 68.1984-30.5152 68.1984-68.1984s-30.5152-68.1984-68.1984-68.1984z" fill="#1C1D21" p-id="15046"></path><path d="M826.1632 534.1184c-5.7344 0-10.24-4.5056-10.24-10.24v-44.032c-4.096 3.072-9.6256 2.6624-13.312-1.024-4.096-4.096-4.096-10.4448 0-14.5408l16.384-16.384c2.8672-2.8672 7.3728-3.8912 11.0592-2.2528 3.8912 1.6384 6.3488 5.3248 6.3488 9.4208v68.608c0 5.9392-4.5056 10.4448-10.24 10.4448z" fill="#1C1D21" p-id="15047"></path><path d="M843.1616 538.0096h-33.3824c-5.7344 0-10.24-4.5056-10.24-10.24s4.5056-10.24 10.24-10.24h33.3824c5.7344 0 10.24 4.5056 10.24 10.24s-4.7104 10.24-10.24 10.24z" fill="#1C1D21" p-id="15048"></path><path d="M461.2096 473.2928c-1.4336 0-2.8672-0.4096-4.3008-1.024-45.2608-21.2992-74.5472-67.3792-74.5472-117.3504v-73.728c0-8.3968 0.8192-16.5888 2.4576-24.7808 1.024-5.5296 6.5536-9.216 12.0832-8.192s9.216 6.5536 8.192 12.0832c-1.2288 6.7584-2.048 13.9264-2.048 20.8896v73.728c0 42.1888 24.576 80.896 62.8736 98.9184 5.12 2.4576 7.3728 8.6016 4.9152 13.7216-2.048 3.4816-5.7344 5.7344-9.6256 5.7344z" fill="#FFECE9" p-id="15049"></path><path d="M460.3904 183.7056c-3.8912 0-7.3728-2.048-9.216-5.7344-2.4576-5.12-0.4096-11.264 4.7104-13.7216 1.8432-0.8192 3.6864-1.8432 5.7344-2.6624 5.12-2.2528 11.264 0.2048 13.5168 5.3248s-0.2048 11.264-5.3248 13.5168c-1.6384 0.6144-3.2768 1.4336-4.9152 2.2528-1.6384 0.8192-3.072 1.024-4.5056 1.024zM394.8544 268.4928c-0.6144 0-1.2288 0-2.048-0.2048-5.5296-1.024-9.216-6.5536-8.192-12.0832 4.9152-25.8048 17.6128-49.152 36.4544-67.584 4.096-3.8912 10.4448-3.8912 14.5408 0.2048 3.8912 4.096 3.8912 10.4448-0.2048 14.5408-15.7696 15.5648-26.4192 35.2256-30.72 56.9344-0.8192 4.9152-5.12 8.192-9.8304 8.192zM461.2096 473.2928c-1.4336 0-2.8672-0.4096-4.3008-1.024-36.0448-16.9984-62.6688-50.176-71.4752-89.2928-1.2288-5.5296 2.2528-11.0592 7.7824-12.288 5.5296-1.2288 11.0592 2.2528 12.288 7.7824 7.3728 32.768 29.9008 60.8256 60.2112 75.1616 5.12 2.4576 7.3728 8.6016 4.9152 13.7216-1.8432 3.6864-5.5296 5.9392-9.4208 5.9392z" fill="#FFC5B3" p-id="15050"></path><path d="M352.8704 271.1552c-2.8672 0-5.7344-1.2288-7.5776-3.4816-2.048-2.2528-2.8672-5.12-2.4576-7.9872 2.4576-19.8656 8.3968-38.912 17.6128-56.7296 2.6624-5.12 8.8064-6.9632 13.7216-4.3008 5.12 2.6624 6.9632 8.8064 4.3008 13.7216-6.144 12.0832-10.8544 24.7808-13.5168 38.0928 119.1936-4.096 137.6256-63.2832 137.6256-63.8976 1.2288-4.3008 5.3248-7.3728 9.8304-7.3728s8.6016 3.072 9.8304 7.3728c0 0 5.12 15.7696 25.3952 31.3344 18.0224 13.9264 51.6096 30.3104 111.2064 32.5632-14.336-69.0176-75.3664-119.3984-146.8416-119.3984-4.3008 0-8.6016 0.2048-12.9024 0.6144-5.7344 0.4096-10.6496-3.6864-11.0592-9.4208-0.4096-5.7344 3.6864-10.6496 9.4208-11.0592 4.9152-0.4096 9.8304-0.6144 14.7456-0.6144 85.6064 0 158.5152 64.1024 169.1648 148.8896 0.4096 2.8672-0.6144 5.9392-2.4576 7.9872-1.8432 2.2528-4.7104 3.4816-7.5776 3.4816-100.1472-0.6144-141.9264-37.0688-158.3104-60.2112-16.9984 23.552-58.9824 60.0064-160.1536 60.416 0.2048 0 0 0 0 0z" fill="#1C1D21" p-id="15051"></path><path d="M388.3008 189.44c-2.2528 0-4.5056-0.8192-6.5536-2.2528-4.3008-3.6864-4.9152-10.0352-1.4336-14.336 10.24-12.288 22.1184-23.3472 35.2256-32.3584 4.7104-3.2768 11.0592-2.048 14.336 2.6624 3.2768 4.7104 2.048 11.0592-2.6624 14.336-11.6736 7.9872-22.1184 17.6128-31.1296 28.4672-1.8432 2.2528-4.9152 3.4816-7.7824 3.4816zM455.4752 141.312c-4.096 0-7.9872-2.4576-9.6256-6.5536-2.048-5.3248 0.6144-11.264 5.9392-13.1072 2.6624-1.024 5.3248-1.8432 7.9872-2.6624 5.3248-1.6384 11.0592 1.2288 12.9024 6.5536 1.6384 5.3248-1.2288 11.0592-6.5536 12.9024-2.2528 0.8192-4.7104 1.6384-6.9632 2.4576-1.2288 0.2048-2.4576 0.4096-3.6864 0.4096zM513.8432 548.2496h-3.6864c-92.3648 0-167.5264-75.1616-167.5264-167.5264 0-5.7344 4.5056-10.24 10.24-10.24h52.224c25.1904 0 49.3568 11.0592 66.56 30.3104 10.24 11.4688 24.9856 18.0224 40.1408 18.0224s29.9008-6.5536 40.1408-18.0224c17.2032-19.2512 41.5744-30.3104 66.56-30.3104h52.224c5.7344 0 10.24 4.5056 10.24 10.24 0.4096 92.3648-74.752 167.5264-167.1168 167.5264zM363.52 391.168c5.3248 76.1856 69.0176 136.8064 146.6368 136.8064h3.6864c77.6192 0 141.312-60.416 146.6368-136.8064h-41.5744c-19.2512 0-38.0928 8.6016-51.4048 23.552-14.1312 15.7696-34.4064 24.7808-55.5008 24.7808s-41.3696-9.0112-55.5008-24.7808c-13.312-14.9504-32.1536-23.552-51.4048-23.552h-41.5744z" fill="#1C1D21" p-id="15052"></path><path d="M321.3312 941.8752c-5.7344 0-10.24-4.5056-10.24-10.24v-115.9168c0-49.5616 25.1904-94.6176 67.3792-120.832l9.216-5.7344c4.9152-3.072 11.0592-1.4336 14.1312 3.2768s1.4336 11.0592-3.2768 14.1312l-9.216 5.7344c-36.0448 22.3232-57.5488 60.8256-57.5488 103.424v115.9168c-0.2048 5.5296-4.9152 10.24-10.4448 10.24z" fill="#E0E0E0" p-id="15053"></path><path d="M425.1648 1016.4224c-0.6144 0-1.2288 0-1.8432-0.2048-16.5888-2.8672-33.1776-6.5536-49.3568-11.0592-3.4816-1.024-6.3488-3.8912-7.168-7.3728l-11.8784-49.152c-9.216-37.888-5.12-78.4384 11.4688-113.664l12.6976-27.2384c-7.3728-1.4336-14.1312-5.7344-18.432-12.288-5.3248-7.9872-6.5536-18.2272-2.8672-27.0336l57.5488-142.1312c1.8432-4.5056 6.5536-7.168 11.4688-6.144 4.7104 1.024 8.192 5.12 8.192 10.0352l0.2048 376.2176c0 3.072-1.4336 5.9392-3.6864 7.7824-1.6384 1.4336-3.8912 2.2528-6.3488 2.2528zM385.4336 987.136c9.8304 2.6624 19.6608 4.9152 29.4912 6.9632l-0.2048-311.296-37.888 93.5936c-1.024 2.6624-0.8192 5.5296 0.8192 7.9872 1.6384 2.4576 4.3008 3.6864 7.168 3.6864 5.7344 0 11.0592 2.8672 14.1312 7.7824s3.4816 10.8544 1.024 15.9744L385.024 843.776c-14.5408 31.1296-18.2272 66.7648-10.0352 100.352l10.4448 43.008z" fill="#1C1D21" p-id="15054"></path></svg>