<svg xmlns="http://www.w3.org/2000/svg" viewBox="0 0 1024 1024" version="1.1"><path d="M512 512m-501.76 0a501.76 501.76 0 1 0 1003.52 0 501.76 501.76 0 1 0-1003.52 0Z" fill="#8CEEF9" p-id="13758"></path><path d="M512 350.0032c-89.4976 0-161.9968 72.4992-161.9968 161.9968s72.4992 161.9968 161.9968 161.9968 161.9968-72.4992 161.9968-161.9968-72.4992-161.9968-161.9968-161.9968z m0 264.8064c-56.7296 0-102.8096-46.08-102.8096-102.8096 0-56.7296 46.08-102.8096 102.8096-102.8096 56.7296 0 102.8096 46.08 102.8096 102.8096 0 56.7296-46.08 102.8096-102.8096 102.8096z" fill="#DCFDFF" p-id="13759"></path><path d="M512 684.2368c-95.0272 0-172.2368-77.2096-172.2368-172.2368s77.2096-172.2368 172.2368-172.2368 172.2368 77.2096 172.2368 172.2368-77.2096 172.2368-172.2368 172.2368z m0-323.9936c-83.7632 0-151.7568 68.1984-151.7568 151.7568s68.1984 151.7568 151.7568 151.7568 151.7568-68.1984 151.7568-151.7568-67.9936-151.7568-151.7568-151.7568z m0 264.8064c-62.464 0-113.0496-50.7904-113.0496-113.0496s50.7904-113.0496 113.0496-113.0496 113.0496 50.7904 113.0496 113.0496-50.5856 113.0496-113.0496 113.0496z m0-205.6192c-50.9952 0-92.5696 41.5744-92.5696 92.5696s41.5744 92.5696 92.5696 92.5696 92.5696-41.5744 92.5696-92.5696-41.5744-92.5696-92.5696-92.5696z" fill="#1C1D21" p-id="13760"></path><path d="M512 1024c-136.8064 0-265.4208-53.248-362.0864-149.9136C53.248 777.4208 0 648.8064 0 512S53.248 246.5792 149.9136 149.9136C246.5792 53.248 375.1936 0 512 0s265.4208 53.248 362.0864 149.9136C970.752 246.5792 1024 375.1936 1024 512s-53.248 265.4208-149.9136 362.0864C777.4208 970.752 648.8064 1024 512 1024z m0-1003.52C241.0496 20.48 20.48 241.0496 20.48 512s220.5696 491.52 491.52 491.52 491.52-220.5696 491.52-491.52S782.9504 20.48 512 20.48z" fill="#1C1D21" p-id="13761"></path><path d="M512 614.4c-19.456 0-37.4784-5.3248-53.0432-14.7456l-139.0592 222.4128c-5.5296 8.8064-2.4576 20.2752 6.5536 25.3952 54.8864 30.72 118.1696 48.3328 185.7536 48.3328s130.6624-17.6128 185.7536-48.3328c9.0112-5.12 11.8784-16.5888 6.5536-25.3952l-139.0592-222.4128c-15.9744 9.4208-33.9968 14.7456-53.4528 14.7456zM614.4 512v2.8672h259.8912c10.24 0 18.6368-8.6016 18.0224-19.0464-5.9392-121.4464-68.8128-227.9424-162.6112-293.4784-8.3968-5.9392-20.0704-3.4816-25.6 5.3248L567.5008 425.984c28.2624 18.2272 46.8992 49.9712 46.8992 86.016zM456.4992 425.984l-136.6016-218.3168c-5.5296-8.8064-17.2032-11.264-25.6-5.3248-93.7984 65.536-156.672 172.032-162.6112 293.4784-0.4096 10.24 7.7824 19.0464 18.0224 19.0464H409.6V512c0-36.0448 18.6368-67.7888 46.8992-86.016z" fill="#FF3E63" p-id="13762"></path><path d="M512 512m-45.4656 0a45.4656 45.4656 0 1 0 90.9312 0 45.4656 45.4656 0 1 0-90.9312 0Z" fill="#DCFDFF" p-id="13763"></path><path d="M638.5664 727.4496c-3.4816 0-6.7584-1.6384-8.6016-4.7104l-4.5056-7.168c-3.072-4.7104-1.6384-11.0592 3.2768-14.1312 4.7104-3.072 11.0592-1.6384 14.1312 3.2768l4.5056 7.168c3.072 4.7104 1.6384 11.0592-3.2768 14.1312-1.8432 1.024-3.6864 1.4336-5.5296 1.4336z" fill="#1C1D21" p-id="13764"></path><path d="M512 906.0352c-66.7648 0-132.7104-17.2032-190.6688-49.5616-6.7584-3.8912-11.6736-10.0352-13.5168-17.6128-1.8432-7.5776-0.6144-15.5648 3.4816-22.1184l139.0592-222.4128c3.072-4.7104 9.216-6.144 13.9264-3.2768 14.336 8.6016 30.9248 13.312 47.7184 13.312s33.3824-4.5056 47.7184-13.312c4.7104-2.8672 11.0592-1.4336 13.9264 3.2768l43.4176 69.2224c3.072 4.7104 1.6384 11.0592-3.2768 14.1312-4.7104 3.072-11.0592 1.6384-14.1312-3.2768l-38.2976-61.0304c-15.36 7.5776-32.1536 11.4688-49.3568 11.4688s-34.2016-3.8912-49.3568-11.4688L328.4992 827.392c-1.2288 1.8432-1.4336 4.096-1.024 6.144 0.6144 2.048 1.8432 3.8912 3.6864 4.9152 54.8864 30.72 117.3504 46.8992 180.6336 46.8992s125.7472-16.1792 180.6336-46.8992c1.8432-1.024 3.2768-2.8672 3.6864-4.9152 0.6144-2.048 0.2048-4.3008-1.024-6.144l-38.0928-61.0304c-3.072-4.7104-1.6384-11.0592 3.2768-14.1312 4.7104-3.072 11.0592-1.6384 14.1312 3.2768l38.0928 61.0304c4.096 6.5536 5.3248 14.5408 3.4816 22.1184-1.8432 7.5776-6.7584 13.9264-13.5168 17.6128-57.7536 32.5632-123.6992 49.7664-190.464 49.7664z" fill="#1C1D21" p-id="13765"></path><path d="M472.2688 666.0096c-1.8432 0-3.6864-0.4096-5.3248-1.6384-4.7104-3.072-6.3488-9.216-3.2768-14.1312l3.072-5.12c3.072-4.7104 9.216-6.3488 14.1312-3.2768 4.7104 3.072 6.3488 9.216 3.2768 14.1312l-3.072 5.12c-2.048 3.072-5.5296 4.9152-8.8064 4.9152zM367.8208 832.9216c-1.8432 0-3.6864-0.4096-5.3248-1.6384-4.7104-3.072-6.3488-9.216-3.2768-14.1312l77.2096-123.2896c3.072-4.7104 9.216-6.3488 14.1312-3.2768 4.7104 3.072 6.3488 9.216 3.2768 14.1312l-77.2096 123.2896c-2.048 3.2768-5.5296 4.9152-8.8064 4.9152z" fill="#FFAEC3" p-id="13766"></path><path d="M788.0704 262.7584c-2.6624 0-5.3248-1.024-7.3728-3.2768-2.6624-2.8672-5.3248-5.5296-7.9872-8.192-4.096-3.8912-4.096-10.4448 0-14.5408 3.8912-4.096 10.4448-4.096 14.5408 0l8.6016 8.6016c3.8912 4.096 3.6864 10.6496-0.4096 14.5408-2.4576 1.8432-4.9152 2.8672-7.3728 2.8672z" fill="#1C1D21" p-id="13767"></path><path d="M874.2912 525.1072H614.4c-2.8672 0-5.3248-1.024-7.3728-3.072-1.8432-2.048-3.072-4.7104-2.8672-7.3728v-0.8192-1.6384c0-31.3344-15.7696-60.2112-42.1888-77.4144-4.7104-3.072-6.144-9.216-3.072-13.9264l136.6016-218.3168c4.096-6.5536 10.8544-11.264 18.432-12.6976 7.5776-1.6384 15.36 0 21.7088 4.5056 4.5056 3.072 8.8064 6.3488 13.1072 9.4208 4.5056 3.4816 5.3248 9.8304 1.8432 14.336a10.15808 10.15808 0 0 1-14.336 1.8432c-4.096-3.072-8.192-6.144-12.288-9.0112-1.8432-1.2288-3.8912-1.6384-5.9392-1.2288-2.048 0.4096-3.8912 1.6384-5.12 3.4816l-131.4816 210.1248c25.3952 19.8656 40.96 49.152 43.008 81.3056h249.856c2.2528 0 4.3008-0.8192 5.7344-2.4576 1.4336-1.6384 2.2528-3.6864 2.2528-5.7344-3.4816-69.632-26.4192-136.6016-66.3552-193.7408-3.2768-4.7104-2.048-11.0592 2.4576-14.336 4.7104-3.2768 11.0592-2.048 14.336 2.4576 42.1888 60.2112 66.3552 130.8672 70.0416 204.3904 0.4096 7.7824-2.4576 15.36-7.7824 20.8896-5.5296 5.7344-12.9024 9.0112-20.6848 9.0112z" fill="#1C1D21" p-id="13768"></path><path d="M723.1488 264.8064c-1.8432 0-3.6864-0.4096-5.3248-1.6384-4.7104-3.072-6.3488-9.216-3.2768-14.1312l2.4576-3.8912c3.072-4.7104 9.216-6.3488 14.1312-3.2768 4.7104 3.072 6.3488 9.216 3.2768 14.1312l-2.4576 3.8912c-2.048 3.072-5.3248 4.9152-8.8064 4.9152zM650.24 484.1472c-4.5056 0-8.6016-3.072-9.8304-7.5776-5.12-18.8416-14.7456-36.6592-27.4432-51.4048-2.8672-3.4816-3.2768-8.3968-1.024-12.0832l77.824-124.5184c3.072-4.7104 9.216-6.3488 14.1312-3.2768 4.7104 3.072 6.3488 9.216 3.2768 14.1312l-73.9328 118.1696c12.288 15.7696 21.504 34.2016 26.8288 53.6576 1.4336 5.5296-1.6384 11.0592-7.168 12.4928-0.8192 0.4096-1.8432 0.4096-2.6624 0.4096z" fill="#FFAEC3" p-id="13769"></path><path d="M342.6304 254.3616c-3.4816 0-6.7584-1.6384-8.6016-4.7104l-4.5056-7.3728c-3.072-4.7104-1.6384-11.0592 3.2768-14.1312 4.7104-3.072 11.0592-1.6384 14.1312 3.2768l4.5056 7.3728c3.072 4.7104 1.6384 11.0592-3.2768 14.1312-1.8432 0.8192-3.6864 1.4336-5.5296 1.4336z" fill="#1C1D21" p-id="13770"></path><path d="M409.6 525.1072H149.7088c-7.7824 0-15.1552-3.2768-20.48-8.8064-5.3248-5.7344-8.192-13.1072-7.7824-20.8896 3.072-61.2352 19.6608-119.1936 49.7664-172.2368 28.672-50.9952 69.2224-95.6416 117.3504-129.024 6.3488-4.5056 14.1312-6.144 21.7088-4.5056 7.5776 1.6384 14.336 6.144 18.432 12.6976l-17.408 10.8544c-1.2288-1.8432-3.072-3.072-5.12-3.4816-2.048-0.4096-4.3008 0-5.9392 1.2288-94.8224 66.3552-152.576 170.3936-158.3104 285.4912-0.2048 2.048 0.6144 4.096 2.048 5.7344 1.4336 1.6384 3.4816 2.4576 5.7344 2.4576h249.856c2.048-32.1536 17.6128-61.6448 43.008-81.3056l-87.4496-139.8784c-3.072-4.7104-1.6384-11.0592 3.2768-14.1312 4.7104-3.072 11.0592-1.6384 14.1312 3.2768l92.5696 147.8656c2.8672 4.7104 1.6384 11.0592-3.072 13.9264-26.4192 16.9984-42.1888 46.08-42.1888 77.4144V514.2528c0 2.8672-1.024 5.5296-2.8672 7.3728-1.8432 2.4576-4.5056 3.4816-7.3728 3.4816z" fill="#1C1D21" p-id="13771"></path><path d="M293.888 264.6016c-2.8672 0-5.9392-1.2288-7.7824-3.6864-3.6864-4.3008-3.072-10.8544 1.2288-14.336 1.6384-1.2288 3.072-2.6624 4.7104-3.8912 4.5056-3.4816 10.8544-2.8672 14.336 1.6384 3.4816 4.3008 2.8672 10.8544-1.6384 14.336l-4.3008 3.6864c-2.048 1.4336-4.3008 2.2528-6.5536 2.2528zM174.4896 484.1472h-1.2288c-5.5296-0.6144-9.6256-5.7344-9.0112-11.4688 8.6016-72.2944 39.1168-139.0592 87.8592-192.9216 3.8912-4.096 10.24-4.5056 14.5408-0.6144 4.096 3.8912 4.5056 10.24 0.6144 14.5408-46.08 50.5856-74.5472 113.4592-82.7392 181.4528-0.4096 5.12-4.9152 9.0112-10.0352 9.0112z" fill="#FFAEC3" p-id="13772"></path><path d="M475.9552 494.592c-2.2528 0-4.3008-0.6144-6.144-2.048a10.15808 10.15808 0 0 1-1.8432-14.336c0.4096-0.6144 1.024-1.2288 1.4336-1.8432 3.6864-4.3008 10.0352-4.9152 14.336-1.2288 4.3008 3.6864 4.9152 10.0352 1.2288 14.336-0.4096 0.4096-0.6144 0.8192-1.024 1.2288-2.048 2.4576-4.9152 3.8912-7.9872 3.8912z" fill="#1C1D21" p-id="13773"></path><path d="M512 567.7056c-25.3952 0-47.5136-16.9984-53.8624-41.5744-1.4336-5.5296 1.8432-11.0592 7.3728-12.4928 5.5296-1.4336 11.0592 1.8432 12.4928 7.3728 4.096 15.5648 18.0224 26.2144 34.2016 26.2144 19.456 0 35.2256-15.7696 35.2256-35.2256s-15.7696-35.2256-35.2256-35.2256h-2.6624c-5.7344 0.4096-10.4448-3.8912-10.8544-9.4208s3.8912-10.4448 9.4208-10.8544c1.4336 0 2.6624-0.2048 4.096-0.2048 30.72 0 55.7056 24.9856 55.7056 55.7056S542.72 567.7056 512 567.7056z" fill="#1C1D21" p-id="13774"></path></svg>