<svg xmlns="http://www.w3.org/2000/svg" viewBox="0 0 1024 1024" version="1.1"><path d="M512 512m-501.76 0a501.76 501.76 0 1 0 1003.52 0 501.76 501.76 0 1 0-1003.52 0Z" fill="#8CEEF9" p-id="14690"></path><path d="M715.5712 758.784v-18.432c0-15.7696-12.9024-28.672-28.672-28.672h-4.096c0-15.7696-12.9024-28.672-28.672-28.672H369.8688c-15.7696 0-28.672 12.9024-28.672 28.672h-4.096c-15.7696 0-28.672 12.9024-28.672 28.672v18.432" fill="#FF8939" p-id="14691"></path><path d="M512 1024c-136.8064 0-265.4208-53.248-362.0864-149.9136S0 648.8064 0 512 53.248 246.5792 149.9136 149.9136 375.1936 0 512 0s265.4208 53.248 362.0864 149.9136S1024 375.1936 1024 512s-53.248 265.4208-149.9136 362.0864S648.8064 1024 512 1024z m0-1003.52C241.0496 20.48 20.48 241.0496 20.48 512s220.5696 491.52 491.52 491.52 491.52-220.5696 491.52-491.52S782.9504 20.48 512 20.48z" fill="#1C1D21" p-id="14692"></path><path d="M654.1312 252.1088c-4.9152 2.8672-11.0592 1.2288-13.9264-3.6864L579.584 143.5648l-2.4576-3.6864c-0.2048-0.2048-0.2048-0.4096-0.4096-0.6144-0.8192-1.2288-1.8432-2.2528-2.8672-3.2768l-0.2048-0.2048c-8.3968-9.0112-20.2752-14.5408-32.768-14.5408h-64.7168c-15.9744 0-30.72 8.3968-38.5024 22.3232l-55.296 95.8464c-5.7344 9.8304-2.2528 22.3232 7.5776 28.0576l51.6096 29.9008c9.8304 5.7344 22.3232 2.2528 28.0576-7.5776l39.1168-67.7888 44.2368 76.5952c2.8672 4.9152 1.2288 11.264-3.6864 13.9264-5.3248 3.072-10.0352 5.7344-10.0352 5.7344l90.112 11.4688 33.9968-82.944-9.216 5.3248z" fill="#8CEEF9" p-id="14693"></path><path d="M629.3504 329.728l33.9968-82.944-9.216 5.3248c-4.9152 2.8672-11.0592 1.2288-13.9264-3.6864L579.584 143.5648l-2.4576-3.6864c-0.2048-0.2048-0.2048-0.4096-0.4096-0.6144-0.8192-1.2288-1.8432-2.2528-2.8672-3.2768l-0.2048-0.2048c-2.048-2.2528-4.5056-4.5056-7.168-6.144-5.12 3.6864-9.6256 8.3968-12.9024 14.1312l-45.2608 78.4384 44.2368 76.5952c2.8672 4.9152 1.2288 11.264-3.6864 13.9264-5.3248 3.072-10.0352 5.7344-10.0352 5.7344l90.5216 11.264zM574.0544 619.7248c0-5.7344 4.5056-10.24 10.24-10.24h120.832c1.4336 0 2.8672 0 4.3008-0.2048h0.8192l4.3008-0.6144h0.2048c12.0832-2.6624 22.528-10.24 28.8768-21.2992l32.3584-56.1152c7.9872-13.7216 7.9872-30.72 0-44.6464l-55.296-95.8464c-5.7344-9.8304-18.2272-13.1072-28.0576-7.5776L641.024 413.0816c-9.8304 5.7344-13.1072 18.2272-7.5776 28.0576l39.1168 67.7888h-88.4736c-5.7344 0-10.24-4.5056-10.24-10.24v-11.4688l-54.8864 72.2944 54.8864 71.0656 0.2048-10.8544z" fill="#0ABFB2" p-id="14694"></path><path d="M519.168 559.3088l54.8864 71.0656v-10.6496c0-5.7344 4.5056-10.24 10.24-10.24h120.832c1.4336 0 2.8672 0 4.3008-0.2048h0.8192l4.3008-0.6144h0.2048c3.072-0.6144 6.144-1.6384 9.0112-3.072-0.6144-6.3488-2.4576-12.4928-5.7344-18.2272l-45.2608-78.4384h-88.4736c-5.7344 0-10.24-4.5056-10.24-10.24v-11.4688l-54.8864 72.0896zM304.5376 367.8208c4.9152 2.8672 6.5536 9.0112 3.6864 13.9264L247.808 486.6048c-0.8192 1.2288-1.4336 2.6624-2.048 3.8912 0 0.2048-0.2048 0.4096-0.2048 0.6144-0.6144 1.4336-1.024 2.6624-1.6384 4.096v0.2048c-3.6864 11.6736-2.4576 24.7808 3.8912 35.6352l32.3584 56.1152c7.9872 13.7216 22.7328 22.3232 38.5024 22.3232h110.592c11.264 0 20.48-9.216 20.48-20.48v-59.5968c0-11.264-9.216-20.48-20.48-20.48h-78.2336L395.264 432.128c2.8672-4.9152 9.0112-6.5536 13.9264-3.6864 5.3248 3.072 10.0352 5.7344 10.0352 5.7344l-35.2256-83.7632-88.8832 12.0832 9.4208 5.3248z" fill="#0ABFB2" p-id="14695"></path><path d="M384.2048 350.4128l-88.8832 12.0832 9.216 5.3248c4.9152 2.8672 6.5536 9.0112 3.6864 13.9264L247.808 486.6048c-0.8192 1.2288-1.4336 2.6624-2.048 3.8912 0 0.2048-0.2048 0.4096-0.2048 0.6144-0.6144 1.4336-1.024 2.6624-1.6384 4.096v0.2048c-1.024 3.072-1.6384 6.144-1.8432 9.216 5.7344 2.6624 12.0832 4.096 18.6368 4.096h90.5216L395.264 432.128c2.8672-4.9152 9.0112-6.5536 13.9264-3.6864 5.3248 3.072 10.0352 5.7344 10.0352 5.7344l-35.0208-83.7632zM654.1312 252.1088c-4.9152 2.8672-11.0592 1.2288-13.9264-3.6864L579.584 143.5648l-2.4576-3.6864c-0.2048-0.2048-0.2048-0.4096-0.4096-0.6144-0.8192-1.2288-1.8432-2.2528-2.8672-3.2768l-0.2048-0.2048c-8.3968-9.0112-20.2752-14.5408-32.768-14.5408h-64.7168c-15.9744 0-30.72 8.3968-38.5024 22.3232l-55.296 95.8464c-5.7344 9.8304-2.2528 22.3232 7.5776 28.0576l51.6096 29.9008c9.8304 5.7344 22.3232 2.2528 28.0576-7.5776l39.1168-67.7888 44.2368 76.5952c2.8672 4.9152 1.2288 11.264-3.6864 13.9264-5.3248 3.072-10.0352 5.7344-10.0352 5.7344l90.112 11.4688 33.9968-82.944-9.216 5.3248z" fill="#0ABFB2" p-id="14696"></path><path d="M629.3504 329.728l33.9968-82.944-9.216 5.3248c-4.9152 2.8672-11.0592 1.2288-13.9264-3.6864L579.584 143.5648l-2.4576-3.6864c-0.2048-0.2048-0.2048-0.4096-0.4096-0.6144-0.8192-1.2288-1.8432-2.2528-2.8672-3.2768l-0.2048-0.2048c-2.048-2.2528-4.5056-4.5056-7.168-6.144-5.12 3.6864-9.6256 8.3968-12.9024 14.1312l-45.2608 78.4384 44.2368 76.5952c2.8672 4.9152 1.2288 11.264-3.6864 13.9264-5.3248 3.072-10.0352 5.7344-10.0352 5.7344l90.5216 11.264z" fill="#0ABFB2" p-id="14697"></path><path d="M428.032 252.3136c-1.6384 0-3.4816-0.4096-5.12-1.4336-4.9152-2.8672-6.5536-9.0112-3.6864-13.9264l27.0336-46.8992c2.8672-4.9152 9.0112-6.5536 13.9264-3.6864 4.9152 2.8672 6.5536 9.0112 3.6864 13.9264l-27.0336 46.8992c-1.8432 3.2768-5.3248 5.12-8.8064 5.12z m43.008-74.3424c-1.6384 0-3.4816-0.4096-5.12-1.4336-4.9152-2.8672-6.5536-9.0112-3.6864-13.9264l2.048-3.6864c2.8672-4.9152 9.0112-6.5536 13.9264-3.6864 4.9152 2.8672 6.5536 9.0112 3.6864 13.9264l-2.048 3.6864c-1.8432 3.2768-5.3248 5.12-8.8064 5.12z" fill="#8CEEF9" p-id="14698"></path><path d="M629.3504 339.968h-1.2288l-90.112-11.4688c-4.3008-0.6144-7.9872-3.8912-8.8064-8.192-0.8192-4.3008 1.024-8.6016 4.9152-10.8544l10.0352-5.7344-35.4304-61.2352-30.3104 52.4288c-8.3968 14.7456-27.2384 19.6608-41.984 11.264l-51.6096-29.9008c-14.7456-8.3968-19.6608-27.2384-11.264-41.984l55.296-95.8464c9.8304-16.9984 27.8528-27.4432 47.5136-27.4432h64.7168c15.36 0 29.9008 6.5536 40.3456 17.8176l0.4096 0.4096c1.024 1.2288 2.2528 2.6624 3.2768 4.096l0.4096 0.6144 0.2048 0.2048c1.2288 1.6384 2.048 3.072 2.8672 4.5056l60.416 104.6528 9.216-5.3248c3.8912-2.2528 8.6016-1.6384 11.8784 1.2288 3.2768 2.8672 4.3008 7.5776 2.6624 11.6736L638.7712 333.824c-1.6384 3.6864-5.3248 6.144-9.4208 6.144zM563.2 311.0912l59.5968 7.5776 22.7328-55.296c-5.7344-1.024-11.0592-4.5056-14.336-9.8304l-60.416-104.6528c-0.4096-0.8192-1.024-1.8432-1.8432-2.8672l-0.4096-0.4096c-0.6144-1.024-1.4336-1.8432-2.048-2.6624l-0.2048-0.2048c-6.5536-7.168-15.7696-11.0592-25.1904-11.0592h-64.7168c-12.288 0-23.552 6.5536-29.696 17.2032l-55.296 95.8464c-1.4336 2.4576-1.6384 5.12-1.024 7.7824s2.4576 4.9152 4.7104 6.144l51.6096 29.9008c4.9152 2.8672 11.264 1.2288 13.9264-3.6864L499.712 217.088c1.8432-3.072 5.12-5.12 8.6016-5.12h0.2048c3.4816 0 6.7584 1.8432 8.6016 4.7104 0 0 0.2048 0.2048 0.2048 0.4096l44.2368 76.5952c2.6624 4.7104 3.4816 10.24 2.048 15.5648 0 0.4096-0.2048 1.024-0.4096 1.8432z" fill="#1C1D21" p-id="14699"></path><path d="M629.3504 339.968h-1.2288l-90.112-11.4688c-4.3008-0.6144-7.9872-3.8912-8.8064-8.192-0.8192-4.3008 1.024-8.6016 4.9152-10.8544l10.0352-5.7344-44.4416-76.5952c0-0.2048-0.2048-0.4096-0.2048-0.6144-1.6384-3.072-1.4336-6.7584 0.2048-9.6256l45.2608-78.4384c3.8912-6.9632 9.216-12.6976 15.7696-17.408 3.4816-2.4576 8.192-2.4576 11.8784 0 3.072 2.2528 6.144 4.9152 8.8064 7.5776l0.4096 0.4096c1.024 1.2288 2.2528 2.6624 3.2768 4.096l0.4096 0.6144 0.2048 0.2048c1.2288 1.6384 2.048 3.072 2.8672 4.5056l60.416 104.6528 9.216-5.3248c3.8912-2.2528 8.6016-1.6384 11.8784 1.2288 3.2768 2.8672 4.3008 7.5776 2.6624 11.6736l-33.9968 82.944c-1.6384 3.8912-5.3248 6.3488-9.4208 6.3488zM563.2 311.0912l59.5968 7.5776 22.7328-55.296c-5.7344-1.024-11.0592-4.5056-14.336-9.8304l-60.416-104.6528c-0.4096-0.8192-1.024-1.8432-1.8432-2.8672l-0.4096-0.4096c-0.6144-0.8192-1.2288-1.6384-1.8432-2.2528-1.4336 1.6384-2.8672 3.4816-3.8912 5.5296l-42.1888 73.3184 41.3696 71.4752c2.6624 4.7104 3.4816 10.24 2.048 15.5648-0.4096 0.4096-0.6144 1.024-0.8192 1.8432zM574.0544 640.6144c-3.072 0-6.144-1.4336-8.192-3.8912l-54.8864-71.0656c-2.8672-3.6864-2.8672-8.8064 0-12.4928l54.8864-72.2944c2.6624-3.4816 7.168-4.9152 11.4688-3.4816 4.096 1.4336 6.9632 5.3248 6.9632 9.6256v11.4688h70.8608l-30.3104-52.4288c-8.3968-14.7456-3.4816-33.5872 11.264-41.984l51.6096-29.9008c7.168-4.096 15.36-5.12 23.3472-3.072 7.9872 2.048 14.5408 7.168 18.6368 14.336l55.296 95.8464c9.8304 16.9984 9.8304 37.888 0 54.8864l-32.3584 56.1152c-7.5776 13.312-20.6848 22.7328-35.6352 26.0096 0 0-0.2048 0-0.4096 0.2048-1.6384 0.4096-3.2768 0.6144-5.12 0.8192h-0.6144-0.2048c-2.048 0.2048-3.6864 0.2048-5.3248 0.2048h-120.832v10.6496c0 4.3008-2.8672 8.192-6.9632 9.6256-1.2288 0.6144-2.2528 0.8192-3.4816 0.8192z m-41.984-81.3056l36.4544 47.3088c3.6864-4.5056 9.4208-7.3728 15.7696-7.3728h120.832c1.024 0 2.048 0 3.4816-0.2048h0.6144c1.2288-0.2048 2.2528-0.4096 3.2768-0.6144h0.2048c9.4208-2.048 17.6128-7.9872 22.3232-16.384l32.3584-56.1152c6.144-10.6496 6.144-23.7568 0-34.4064l-55.296-95.8464c-1.4336-2.4576-3.4816-4.096-6.144-4.7104-2.6624-0.6144-5.3248-0.4096-7.7824 1.024L646.3488 421.888c-4.9152 2.8672-6.5536 9.0112-3.6864 13.9264l39.1168 67.7888c1.8432 3.072 1.8432 7.168 0 10.24s-5.12 5.12-8.8064 5.12h-88.4736c-6.3488 0-12.0832-2.8672-15.9744-7.5776l-36.4544 47.9232z" fill="#1C1D21" p-id="14700"></path><path d="M740.7616 517.12c-3.4816 0-6.9632-1.8432-8.8064-5.12l-3.072-5.12c-2.8672-4.9152-1.2288-11.0592 3.6864-13.9264 4.9152-2.8672 11.0592-1.2288 13.9264 3.6864l3.072 5.12c2.8672 4.9152 1.2288 11.0592-3.6864 13.9264-1.6384 1.024-3.4816 1.4336-5.12 1.4336z m-18.8416-32.5632c-3.4816 0-6.9632-1.8432-8.8064-5.12l-26.2144-45.4656c-2.8672-4.9152-1.2288-11.0592 3.6864-13.9264 4.9152-2.8672 11.264-1.2288 13.9264 3.6864l26.2144 45.4656c2.8672 4.9152 1.2288 11.0592-3.6864 13.9264-1.6384 1.024-3.2768 1.4336-5.12 1.4336z" fill="#8CEEF9" p-id="14701"></path><path d="M574.0544 640.6144c-3.072 0-6.144-1.4336-8.192-3.8912l-54.8864-71.0656c-2.8672-3.6864-2.8672-8.8064 0-12.4928l54.8864-72.2944c2.6624-3.4816 7.168-4.9152 11.4688-3.4816 4.096 1.4336 6.9632 5.3248 6.9632 9.6256v11.4688h88.4736c3.6864 0 6.9632 2.048 8.8064 5.12l45.2608 78.4384c3.8912 6.9632 6.3488 14.336 7.168 22.3232 0.4096 4.3008-2.048 8.3968-5.9392 10.24-3.4816 1.6384-7.168 2.8672-11.0592 3.6864 0 0-0.2048 0-0.4096 0.2048-1.6384 0.4096-3.2768 0.6144-5.12 0.8192h-0.6144-0.2048c-2.048 0.2048-3.6864 0.2048-5.3248 0.2048h-120.832v10.6496c0 4.3008-2.8672 8.192-6.9632 9.6256-1.2288 0.6144-2.2528 0.8192-3.4816 0.8192z m-41.984-81.3056l36.4544 47.3088c3.6864-4.5056 9.4208-7.3728 15.7696-7.3728h120.832c1.024 0 2.048 0 3.4816-0.2048h0.6144c1.024-0.2048 1.8432-0.2048 2.8672-0.4096-0.8192-2.2528-1.6384-4.3008-2.8672-6.144l-42.1888-73.3184h-82.5344c-6.3488 0-12.0832-2.8672-15.9744-7.5776l-36.4544 47.7184zM429.4656 619.7248h-110.592c-19.456 0-37.6832-10.4448-47.5136-27.4432l-32.3584-56.1152c-7.5776-13.312-9.4208-29.2864-4.7104-43.8272v-0.2048c0.6144-1.6384 1.2288-3.4816 1.8432-5.12l0.4096-0.6144c0.8192-1.8432 1.6384-3.4816 2.4576-4.9152l60.416-104.6528-9.216-5.3248c-3.8912-2.2528-5.7344-6.5536-4.9152-10.8544 0.8192-4.3008 4.3008-7.5776 8.6016-8.192l88.8832-12.0832c4.5056-0.6144 9.0112 1.8432 10.8544 6.144l35.2256 83.7632c1.6384 4.096 0.6144 8.8064-2.6624 11.6736-3.2768 2.8672-7.9872 3.4816-11.8784 1.2288l-10.0352-5.7344-35.4304 61.2352h60.6208c16.9984 0 30.72 13.7216 30.72 30.72v59.5968c0 16.9984-13.9264 30.72-30.72 30.72z m-111.0016-250.0608c2.048 5.5296 1.6384 11.8784-1.4336 17.2032L256.6144 491.52c-0.4096 0.8192-1.024 1.8432-1.4336 3.072v0.2048l-0.2048 0.2048-1.2288 3.072v0.2048c-2.8672 9.216-1.8432 19.2512 3.072 27.4432l32.3584 56.1152c6.144 10.6496 17.408 17.2032 29.696 17.2032h110.592c5.7344 0 10.24-4.5056 10.24-10.24v-59.5968c0-5.7344-4.5056-10.24-10.24-10.24h-78.2336c-3.6864 0-7.168-2.048-9.0112-5.3248-1.8432-3.2768-1.6384-6.9632 0.2048-10.24l44.2368-76.5952c2.6624-4.7104 7.168-8.192 12.4928-9.6256 0.6144-0.2048 1.4336-0.4096 2.048-0.4096l-23.3472-55.5008-59.392 8.3968z m-19.0464 7.168z" fill="#1C1D21" p-id="14702"></path><path d="M351.0272 519.168h-90.5216c-7.9872 0-15.5648-1.6384-22.9376-5.12-3.8912-1.8432-6.3488-5.9392-5.9392-10.24 0.4096-3.8912 1.024-7.7824 2.2528-11.4688v-0.2048c0.6144-1.6384 1.2288-3.4816 1.8432-5.12l0.4096-0.6144c0.8192-1.8432 1.6384-3.4816 2.4576-4.9152L299.008 376.832l-9.216-5.3248c-3.8912-2.2528-5.7344-6.5536-4.9152-10.8544 0.8192-4.3008 4.3008-7.5776 8.6016-8.192l88.8832-12.0832c4.5056-0.6144 9.0112 1.8432 10.8544 6.144l35.2256 83.7632c1.6384 4.096 0.6144 8.8064-2.6624 11.6736-3.2768 2.8672-7.9872 3.4816-11.8784 1.2288l-10.0352-5.7344-43.8272 76.5952c-1.8432 3.072-5.3248 5.12-9.0112 5.12z m-97.28-21.2992c2.2528 0.4096 4.5056 0.6144 6.7584 0.6144h84.5824l41.3696-71.4752c2.6624-4.7104 7.168-8.192 12.4928-9.6256 0.6144-0.2048 1.4336-0.4096 2.048-0.4096l-23.3472-55.5008-59.1872 7.9872c2.048 5.5296 1.6384 11.8784-1.4336 17.2032l-60.416 104.6528c-0.4096 0.8192-1.024 1.8432-1.4336 3.072v0.2048l-0.2048 0.2048c-0.4096 1.4336-0.8192 2.2528-1.2288 3.072z" fill="#1C1D21" p-id="14703"></path><path d="M342.016 415.3344c-1.6384 0-3.4816-0.4096-5.12-1.4336-4.9152-2.8672-6.5536-9.0112-3.6864-13.9264l1.6384-2.6624c2.8672-4.9152 9.0112-6.5536 13.9264-3.6864 4.9152 2.8672 6.5536 9.0112 3.6864 13.9264l-1.6384 2.6624c-1.8432 3.2768-5.12 5.12-8.8064 5.12zM305.7664 478.208c-1.6384 0-3.4816-0.4096-5.12-1.4336-4.9152-2.8672-6.5536-9.0112-3.6864-13.9264l20.6848-35.84c2.8672-4.9152 9.0112-6.5536 13.9264-3.6864 4.9152 2.8672 6.5536 9.0112 3.6864 13.9264l-20.48 35.84c-2.048 3.2768-5.3248 5.12-9.0112 5.12z" fill="#8CEEF9" p-id="14704"></path><path d="M629.3504 339.968h-1.2288l-90.112-11.4688c-4.3008-0.6144-7.9872-3.8912-8.8064-8.192-0.8192-4.3008 1.024-8.6016 4.9152-10.8544l10.0352-5.7344-35.4304-61.2352-30.3104 52.4288c-8.3968 14.7456-27.2384 19.6608-41.984 11.264l-51.6096-29.9008c-14.7456-8.3968-19.6608-27.2384-11.264-41.984l55.296-95.8464c9.8304-16.9984 27.8528-27.4432 47.5136-27.4432h64.7168c15.36 0 29.9008 6.5536 40.3456 17.8176l0.4096 0.4096c1.024 1.2288 2.2528 2.6624 3.2768 4.096l0.4096 0.6144 0.2048 0.2048c1.2288 1.6384 2.048 3.072 2.8672 4.5056l60.416 104.6528 9.216-5.3248c3.8912-2.2528 8.6016-1.6384 11.8784 1.2288 3.2768 2.8672 4.3008 7.5776 2.6624 11.6736L638.7712 333.824c-1.6384 3.6864-5.3248 6.144-9.4208 6.144zM563.2 311.0912l59.5968 7.5776 22.7328-55.296c-5.7344-1.024-11.0592-4.5056-14.336-9.8304l-60.416-104.6528c-0.4096-0.8192-1.024-1.8432-1.8432-2.8672l-0.4096-0.4096c-0.6144-1.024-1.4336-1.8432-2.048-2.6624l-0.2048-0.2048c-6.5536-7.168-15.7696-11.0592-25.1904-11.0592h-64.7168c-12.288 0-23.552 6.5536-29.696 17.2032l-55.296 95.8464c-1.4336 2.4576-1.6384 5.12-1.024 7.7824s2.4576 4.9152 4.7104 6.144l51.6096 29.9008c4.9152 2.8672 11.264 1.2288 13.9264-3.6864L499.712 217.088c1.8432-3.072 5.12-5.12 8.6016-5.12h0.2048c3.4816 0 6.7584 1.8432 8.6016 4.7104 0 0 0.2048 0.2048 0.2048 0.4096l44.2368 76.5952c2.6624 4.7104 3.4816 10.24 2.048 15.5648 0 0.4096-0.2048 1.024-0.4096 1.8432z" fill="#1C1D21" p-id="14705"></path><path d="M629.3504 339.968h-1.2288l-90.112-11.4688c-4.3008-0.6144-7.9872-3.8912-8.8064-8.192-0.8192-4.3008 1.024-8.6016 4.9152-10.8544l10.0352-5.7344-44.4416-76.5952c0-0.2048-0.2048-0.4096-0.2048-0.6144-1.6384-3.072-1.4336-6.7584 0.2048-9.6256l45.2608-78.4384c3.8912-6.9632 9.216-12.6976 15.7696-17.408 3.4816-2.4576 8.192-2.4576 11.8784 0 3.072 2.2528 6.144 4.9152 8.8064 7.5776l0.4096 0.4096c1.024 1.2288 2.2528 2.6624 3.2768 4.096l0.4096 0.6144 0.2048 0.2048c1.2288 1.6384 2.048 3.072 2.8672 4.5056l60.416 104.6528 9.216-5.3248c3.8912-2.2528 8.6016-1.6384 11.8784 1.2288 3.2768 2.8672 4.3008 7.5776 2.6624 11.6736l-33.9968 82.944c-1.6384 3.8912-5.3248 6.3488-9.4208 6.3488zM563.2 311.0912l59.5968 7.5776 22.7328-55.296c-5.7344-1.024-11.0592-4.5056-14.336-9.8304l-60.416-104.6528c-0.4096-0.8192-1.024-1.8432-1.8432-2.8672l-0.4096-0.4096c-0.6144-0.8192-1.2288-1.6384-1.8432-2.2528-1.4336 1.6384-2.8672 3.4816-3.8912 5.5296l-42.1888 73.3184 41.3696 71.4752c2.6624 4.7104 3.4816 10.24 2.048 15.5648-0.4096 0.4096-0.6144 1.024-0.8192 1.8432z" fill="#1C1D21" p-id="14706"></path><path d="M258.6624 945.152C333.0048 988.7744 419.6352 1013.76 512 1013.76s178.9952-24.9856 253.3376-68.608V813.056H258.6624v132.096zM779.264 813.056h-534.528c-11.264 0-20.48-9.216-20.48-20.48v-13.312c0-11.264 9.216-20.48 20.48-20.48h534.528c11.264 0 20.48 9.216 20.48 20.48v13.312c0 11.264-9.216 20.48-20.48 20.48z" fill="#E0E0E0" p-id="14707"></path><path d="M512 1024c-90.9312 0-180.4288-24.1664-258.6624-70.0416-3.072-1.8432-5.12-5.12-5.12-8.8064V813.056c0-5.7344 4.5056-10.24 10.24-10.24h506.6752c5.7344 0 10.24 4.5056 10.24 10.24v132.096c0 3.6864-1.8432 6.9632-5.12 8.8064-77.824 45.8752-167.3216 70.0416-258.2528 70.0416z m-243.0976-84.7872c73.728 41.984 157.696 64.3072 243.0976 64.3072s169.3696-22.1184 243.0976-64.3072V823.296H268.9024v115.9168z" fill="#1C1D21" p-id="14708"></path><path d="M299.6224 931.2256c-5.7344 0-10.24-4.5056-10.24-10.24V854.016c0-5.7344 4.5056-10.24 10.24-10.24s10.24 4.5056 10.24 10.24v66.9696c0 5.7344-4.7104 10.24-10.24 10.24z" fill="#FFFFFF" p-id="14709"></path><path d="M779.264 823.296h-534.528c-16.9984 0-30.72-13.7216-30.72-30.72v-13.312c0-16.9984 13.7216-30.72 30.72-30.72h24.9856c5.7344 0 10.24 4.5056 10.24 10.24s-4.5056 10.24-10.24 10.24h-24.9856c-5.7344 0-10.24 4.5056-10.24 10.24v13.312c0 5.7344 4.5056 10.24 10.24 10.24h534.528c5.7344 0 10.24-4.5056 10.24-10.24v-13.312c0-5.7344-4.5056-10.24-10.24-10.24H704.512c-5.7344 0-10.24-4.5056-10.24-10.24s4.5056-10.24 10.24-10.24h74.752c16.9984 0 30.72 13.7216 30.72 30.72v13.312c0 16.9984-13.7216 30.72-30.72 30.72z" fill="#1C1D21" p-id="14710"></path><path d="M393.8304 868.352c-13.7216 0-24.9856 11.0592-24.9856 24.9856v99.7376c16.1792 4.9152 32.9728 8.8064 49.7664 12.0832v-111.8208c0.2048-13.9264-11.0592-24.9856-24.7808-24.9856zM512 868.352c-13.7216 0-24.9856 11.0592-24.9856 24.9856v119.808a508.57984 508.57984 0 0 0 49.9712 0v-119.808c0-13.9264-11.264-24.9856-24.9856-24.9856zM630.1696 868.352c-13.7216 0-24.9856 11.0592-24.9856 24.9856v111.8208c16.9984-3.2768 33.5872-7.168 49.7664-12.0832v-99.7376c0-13.9264-11.0592-24.9856-24.7808-24.9856z" fill="#AAADAD" p-id="14711"></path><path d="M418.816 1015.3984c-0.6144 0-1.2288 0-1.8432-0.2048-16.9984-3.2768-34.2016-7.3728-50.7904-12.288-4.3008-1.2288-7.3728-5.3248-7.3728-9.8304v-99.7376c0-19.456 15.7696-35.2256 35.2256-35.2256s35.2256 15.7696 35.2256 35.2256v111.8208c0 3.072-1.4336 5.9392-3.6864 7.7824-2.048 1.6384-4.5056 2.4576-6.7584 2.4576z m-39.5264-30.1056c9.6256 2.6624 19.456 5.12 29.2864 7.168v-99.328c0-7.9872-6.5536-14.7456-14.7456-14.7456s-14.7456 6.5536-14.7456 14.7456v92.16zM512 1024c-8.3968 0-16.7936-0.2048-25.3952-0.6144-5.5296-0.2048-9.8304-4.7104-9.8304-10.24v-119.808c0-19.456 15.7696-35.2256 35.2256-35.2256s35.2256 15.7696 35.2256 35.2256v119.808c0 5.5296-4.3008 10.0352-9.8304 10.24-8.6016 0.4096-16.9984 0.6144-25.3952 0.6144z m24.9856-10.8544z m-39.7312-9.8304c9.8304 0.2048 19.456 0.2048 29.2864 0v-109.9776c0-7.9872-6.5536-14.7456-14.7456-14.7456s-14.7456 6.5536-14.7456 14.7456v109.9776zM605.184 1015.3984c-2.4576 0-4.7104-0.8192-6.5536-2.4576-2.2528-2.048-3.6864-4.9152-3.6864-7.7824v-111.8208c0-19.456 15.7696-35.2256 35.2256-35.2256s35.2256 15.7696 35.2256 35.2256v99.7376c0 4.5056-3.072 8.6016-7.3728 9.8304-16.7936 4.9152-33.792 9.0112-50.7904 12.288-0.8192 0-1.4336 0.2048-2.048 0.2048z m49.7664-22.3232zM630.1696 878.592c-7.9872 0-14.7456 6.5536-14.7456 14.7456v99.328c9.8304-2.048 19.6608-4.5056 29.2864-7.168v-92.16c0-8.192-6.5536-14.7456-14.5408-14.7456z" fill="#1C1D21" p-id="14712"></path><path d="M668.672 769.024h-47.104c-5.7344 0-10.24-4.5056-10.24-10.24s4.5056-10.24 10.24-10.24h47.104c5.7344 0 10.24 4.5056 10.24 10.24s-4.5056 10.24-10.24 10.24z" fill="#1C1D21" p-id="14713"></path><path d="M473.088 769.024h-161.792c-5.7344 0-10.24-4.5056-10.24-10.24s4.5056-10.24 10.24-10.24h161.792c5.7344 0 10.24 4.5056 10.24 10.24s-4.5056 10.24-10.24 10.24z" fill="#1C1D21" p-id="14714"></path><path d="M516.096 769.024h-8.8064c-5.7344 0-10.24-4.5056-10.24-10.24s4.5056-10.24 10.24-10.24h8.8064c5.7344 0 10.24 4.5056 10.24 10.24s-4.5056 10.24-10.24 10.24z" fill="#1C1D21" p-id="14715"></path><path d="M715.5712 769.024c-5.7344 0-10.24-4.5056-10.24-10.24v-18.432c0-10.24-8.192-18.432-18.432-18.432h-4.096c-5.7344 0-10.24-4.5056-10.24-10.24 0-10.24-8.192-18.432-18.432-18.432H369.8688c-10.24 0-18.432 8.192-18.432 18.432 0 5.7344-4.5056 10.24-10.24 10.24h-4.096c-10.24 0-18.432 8.192-18.432 18.432v18.432c0 5.7344-4.5056 10.24-10.24 10.24s-10.24-4.5056-10.24-10.24v-18.432c0-19.8656 14.7456-36.2496 33.9968-38.5024 4.3008-16.5888 19.6608-29.0816 37.6832-29.0816h284.2624c18.0224 0 33.1776 12.288 37.6832 29.0816 19.0464 2.4576 33.9968 18.8416 33.9968 38.5024v18.432c0 5.7344-4.7104 10.24-10.24 10.24z" fill="#1C1D21" p-id="14716"></path></svg>