<svg xmlns="http://www.w3.org/2000/svg" viewBox="0 0 1024 1024" version="1.1"><path d="M512 512m-501.76 0a501.76 501.76 0 1 0 1003.52 0 501.76 501.76 0 1 0-1003.52 0Z" fill="#0ABFB2" p-id="14953"></path><path d="M512 1024c-136.8064 0-265.4208-53.248-362.0864-149.9136C53.248 777.4208 0 648.8064 0 512S53.248 246.5792 149.9136 149.9136C246.5792 53.248 375.1936 0 512 0s265.4208 53.248 362.0864 149.9136C970.752 246.5792 1024 375.1936 1024 512s-53.248 265.4208-149.9136 362.0864C777.4208 970.752 648.8064 1024 512 1024z m0-1003.52C241.0496 20.48 20.48 241.0496 20.48 512s220.5696 491.52 491.52 491.52 491.52-220.5696 491.52-491.52S782.9504 20.48 512 20.48z" fill="#1C1D21" p-id="14954"></path><path d="M880.2304 502.784h-217.088c-11.6736 0-20.8896 9.4208-20.8896 21.0944s9.4208 21.0944 20.8896 21.0944h217.088c11.6736 0 20.8896-9.4208 20.8896-21.0944s-9.4208-21.0944-20.8896-21.0944zM361.0624 502.784h-217.088c-11.6736 0-20.8896 9.4208-20.8896 21.0944S132.3008 544.768 143.7696 544.768h217.088c11.6736 0 20.8896-9.4208 20.8896-21.0944s-9.216-20.8896-20.6848-20.8896z" fill="#FF3E63" p-id="14955"></path><path d="M880.2304 555.008h-217.088c-17.2032 0-31.3344-13.9264-31.3344-31.3344s13.9264-31.3344 31.3344-31.3344h217.088c17.2032 0 31.3344 13.9264 31.3344 31.3344s-14.1312 31.3344-31.3344 31.3344z m-217.2928-41.984c-5.9392 0-10.8544 4.9152-10.8544 10.8544s4.9152 10.8544 10.8544 10.8544h217.088c5.9392 0 10.8544-4.9152 10.8544-10.8544s-4.9152-10.8544-10.8544-10.8544h-217.088zM361.0624 555.008h-217.088c-17.2032 0-31.3344-13.9264-31.3344-31.3344s13.9264-31.3344 31.3344-31.3344h217.088c17.2032 0 31.3344 13.9264 31.3344 31.3344s-14.1312 31.3344-31.3344 31.3344zM143.7696 513.024c-5.9392 0-10.8544 4.9152-10.8544 10.8544s4.9152 10.8544 10.8544 10.8544h217.088c5.9392 0 10.8544-4.9152 10.8544-10.8544s-4.9152-10.8544-10.8544-10.8544h-217.088z" fill="#1C1D21" p-id="14956"></path><path d="M150.1184 606.6176c0 56.5248 45.8752 102.4 102.4 102.4s102.4-45.8752 102.4-102.4V544.768h-204.8v61.8496zM669.2864 606.6176c0 56.5248 45.8752 102.4 102.4 102.4s102.4-45.8752 102.4-102.4V544.768h-204.8v61.8496z" fill="#FF3E63" p-id="14957"></path><path d="M771.6864 678.2976c-39.5264 0-71.68-32.1536-71.68-71.68V585.728c0-5.7344 4.5056-10.24 10.24-10.24s10.24 4.5056 10.24 10.24v20.8896c0 28.2624 22.9376 51.2 51.2 51.2 5.7344 0 10.24 4.5056 10.24 10.24s-4.7104 10.24-10.24 10.24z" fill="#FFAEC3" p-id="14958"></path><path d="M252.5184 719.2576c-62.0544 0-112.64-50.5856-112.64-112.64V544.768c0-5.7344 4.5056-10.24 10.24-10.24h204.8c5.7344 0 10.24 4.5056 10.24 10.24v61.8496c0 62.2592-50.5856 112.64-112.64 112.64z m-92.16-164.2496v51.6096c0 50.7904 41.3696 92.16 92.16 92.16s92.16-41.3696 92.16-92.16V555.008h-184.32z" fill="#1C1D21" p-id="14959"></path><path d="M252.5184 678.2976c-39.5264 0-71.68-32.1536-71.68-71.68V585.728c0-5.7344 4.5056-10.24 10.24-10.24s10.24 4.5056 10.24 10.24v20.8896c0 28.2624 22.9376 51.2 51.2 51.2 5.7344 0 10.24 4.5056 10.24 10.24s-4.7104 10.24-10.24 10.24z" fill="#FFAEC3" p-id="14960"></path><path d="M771.6864 719.2576c-62.0544 0-112.64-50.5856-112.64-112.64V544.768c0-5.7344 4.5056-10.24 10.24-10.24h204.8c5.7344 0 10.24 4.5056 10.24 10.24v61.8496c0 62.2592-50.5856 112.64-112.64 112.64z m-92.16-164.2496v51.6096c0 50.7904 41.3696 92.16 92.16 92.16s92.16-41.3696 92.16-92.16V555.008h-184.32zM354.9184 415.3344c-5.7344 0-10.24-4.5056-10.24-10.24 0-50.7904-41.3696-92.16-92.16-92.16s-92.16 41.3696-92.16 92.16c0 5.7344-4.5056 10.24-10.24 10.24s-10.24-4.5056-10.24-10.24c0-62.0544 50.5856-112.64 112.64-112.64s112.64 50.5856 112.64 112.64c0 5.7344-4.7104 10.24-10.24 10.24zM150.1184 513.024c-5.7344 0-10.24-4.5056-10.24-10.24v-34.816c0-5.7344 4.5056-10.24 10.24-10.24s10.24 4.5056 10.24 10.24v34.816c0 5.7344-4.7104 10.24-10.24 10.24zM354.9184 513.024c-5.7344 0-10.24-4.5056-10.24-10.24v-34.816c0-5.7344 4.5056-10.24 10.24-10.24s10.24 4.5056 10.24 10.24v34.816c0 5.7344-4.7104 10.24-10.24 10.24zM150.1184 449.1264c-5.7344 0-10.24-4.5056-10.24-10.24V436.224c0-5.7344 4.5056-10.24 10.24-10.24s10.24 4.5056 10.24 10.24v2.6624c0 5.7344-4.7104 10.24-10.24 10.24zM354.9184 449.1264c-5.7344 0-10.24-4.5056-10.24-10.24V436.224c0-5.7344 4.5056-10.24 10.24-10.24s10.24 4.5056 10.24 10.24v2.6624c0 5.7344-4.7104 10.24-10.24 10.24zM874.0864 415.3344c-5.7344 0-10.24-4.5056-10.24-10.24 0-50.7904-41.3696-92.16-92.16-92.16s-92.16 41.3696-92.16 92.16c0 5.7344-4.5056 10.24-10.24 10.24s-10.24-4.5056-10.24-10.24c0-62.0544 50.5856-112.64 112.64-112.64s112.64 50.5856 112.64 112.64c0 5.7344-4.7104 10.24-10.24 10.24zM669.2864 513.024c-5.7344 0-10.24-4.5056-10.24-10.24v-34.816c0-5.7344 4.5056-10.24 10.24-10.24s10.24 4.5056 10.24 10.24v34.816c0 5.7344-4.7104 10.24-10.24 10.24zM874.0864 513.024c-5.7344 0-10.24-4.5056-10.24-10.24v-34.816c0-5.7344 4.5056-10.24 10.24-10.24s10.24 4.5056 10.24 10.24v34.816c0 5.7344-4.7104 10.24-10.24 10.24zM669.2864 449.1264c-5.7344 0-10.24-4.5056-10.24-10.24V436.224c0-5.7344 4.5056-10.24 10.24-10.24s10.24 4.5056 10.24 10.24v2.6624c0 5.7344-4.7104 10.24-10.24 10.24zM874.0864 449.1264c-5.7344 0-10.24-4.5056-10.24-10.24V436.224c0-5.7344 4.5056-10.24 10.24-10.24s10.24 4.5056 10.24 10.24v2.6624c0 5.7344-4.7104 10.24-10.24 10.24z" fill="#1C1D21" p-id="14961"></path><path d="M474.112 312.9344H252.5184c-5.7344 0-10.24-4.5056-10.24-10.24s4.5056-10.24 10.24-10.24h221.7984c5.7344 0 10.24 4.5056 10.24 10.24s-4.7104 10.24-10.4448 10.24zM771.6864 312.9344H549.888c-5.7344 0-10.24-4.5056-10.24-10.24s4.5056-10.24 10.24-10.24h221.7984c5.7344 0 10.24 4.5056 10.24 10.24s-4.7104 10.24-10.24 10.24z" fill="#1C1D21" p-id="14962"></path><path d="M731.7504 851.968h-72.704c-28.8768 0-53.0432-21.7088-56.1152-50.5856l-61.2352-575.0784c-1.6384-15.1552-14.336-26.624-29.696-26.624s-28.0576 11.4688-29.696 26.624l-61.2352 575.0784c-3.072 28.672-27.2384 50.5856-56.1152 50.5856h-72.704c-25.1904 0-45.6704 20.48-45.6704 45.6704V937.984c77.0048 47.9232 167.7312 75.776 265.216 75.776s188.2112-27.8528 265.216-75.776v-40.3456c0.2048-25.1904-20.2752-45.6704-45.2608-45.6704z" fill="#FF8939" p-id="14963"></path><path d="M512 1024c-96.0512 0-189.6448-26.8288-270.5408-77.4144-3.072-1.8432-4.9152-5.12-4.9152-8.6016v-40.3456c0-30.72 24.9856-55.9104 55.9104-55.9104h72.704c23.7568 0 43.4176-17.8176 46.08-41.3696L472.064 225.28c2.2528-20.48 19.2512-35.84 39.936-35.84s37.6832 15.36 39.936 35.84l61.2352 575.0784c2.4576 23.552 22.3232 41.3696 46.08 41.3696h72.704c30.72 0 55.9104 24.9856 55.9104 55.9104V937.984c0 3.4816-1.8432 6.7584-4.9152 8.6016C701.6448 997.1712 608.0512 1024 512 1024z m-254.976-91.7504C333.824 978.944 421.6832 1003.52 512 1003.52s178.176-24.576 254.976-71.2704v-34.816c0-19.456-15.7696-35.4304-35.4304-35.4304h-72.704c-34.2016 0-62.6688-25.6-66.3552-59.5968L531.456 227.328c-1.024-10.0352-9.4208-17.6128-19.456-17.6128s-18.432 7.5776-19.456 17.6128l-61.2352 575.0784c-3.6864 33.9968-32.1536 59.5968-66.3552 59.5968h-72.704c-19.456 0-35.4304 15.7696-35.4304 35.4304v34.816z m520.192 5.7344z" fill="#1C1D21" p-id="14964"></path><path d="M475.5456 686.6944h-1.024c-5.5296-0.6144-9.6256-5.7344-9.0112-11.264l1.4336-13.9264c0.6144-5.5296 5.7344-9.6256 11.264-9.0112 5.5296 0.6144 9.6256 5.7344 9.0112 11.264l-1.4336 13.9264c-0.6144 5.12-4.9152 9.0112-10.24 9.0112zM364.9536 903.168H321.536c-5.7344 0-10.24-4.5056-10.24-10.24s4.5056-10.24 10.24-10.24h43.4176c44.6464 0 81.92-33.5872 86.6304-78.0288l7.9872-75.1616c0.6144-5.5296 5.5296-9.6256 11.264-9.0112 5.5296 0.6144 9.6256 5.7344 9.0112 11.264l-7.9872 75.1616c-5.7344 54.8864-51.6096 96.256-106.9056 96.256z" fill="#FFC9A4" p-id="14965"></path></svg>