<svg xmlns="http://www.w3.org/2000/svg" viewBox="0 0 1024 1024" version="1.1"><path d="M512 512m-501.76 0a501.76 501.76 0 1 0 1003.52 0 501.76 501.76 0 1 0-1003.52 0Z" fill="#8CEEF9" p-id="17076"></path><path d="M512 1024c-136.8064 0-265.4208-53.248-362.0864-149.9136S0 648.8064 0 512 53.248 246.5792 149.9136 149.9136 375.1936 0 512 0s265.4208 53.248 362.0864 149.9136S1024 375.1936 1024 512s-53.248 265.4208-149.9136 362.0864S648.8064 1024 512 1024z m0-1003.52C241.0496 20.48 20.48 241.0496 20.48 512s220.5696 491.52 491.52 491.52 491.52-220.5696 491.52-491.52S782.9504 20.48 512 20.48z" fill="#1C1D21" p-id="17077"></path><path d="M434.5856 227.328v83.968c0 39.3216 31.744 71.0656 71.0656 71.0656h12.6976c39.3216 0 71.0656-31.744 71.0656-71.0656v-83.968h-154.8288z" fill="#FF8939" p-id="17078"></path><path d="M475.5456 282.2144c-5.7344 0-10.24-4.5056-10.24-10.24V268.288c0-5.7344 4.5056-10.24 10.24-10.24s10.24 4.5056 10.24 10.24v3.4816c0 5.7344-4.7104 10.4448-10.24 10.4448zM505.6512 351.6416c-22.3232 0-40.3456-18.0224-40.3456-40.3456v-10.6496c0-5.7344 4.5056-10.24 10.24-10.24s10.24 4.5056 10.24 10.24v10.6496c0 11.0592 9.0112 19.8656 19.8656 19.8656 5.7344 0 10.24 4.5056 10.24 10.24s-4.5056 10.24-10.24 10.24z" fill="#FFC5B3" p-id="17079"></path><path d="M518.3488 392.6016h-12.6976c-44.8512 0-81.3056-36.4544-81.3056-81.3056v-12.9024c0-5.7344 4.5056-10.24 10.24-10.24s10.24 4.5056 10.24 10.24v12.9024c0 33.5872 27.2384 60.8256 60.8256 60.8256h12.6976c33.5872 0 60.8256-27.2384 60.8256-60.8256v-73.728h-134.5536v12.6976c0 5.7344-4.5056 10.24-10.24 10.24s-10.24-4.5056-10.24-10.24V227.328c0-5.7344 4.5056-10.24 10.24-10.24h155.0336c5.7344 0 10.24 4.5056 10.24 10.24v83.968c0 44.8512-36.4544 81.3056-81.3056 81.3056z" fill="#1C1D21" p-id="17080"></path><path d="M512 635.2896c-5.7344 0-10.24-4.5056-10.24-10.24V382.3616c0-5.7344 4.5056-10.24 10.24-10.24s10.24 4.5056 10.24 10.24v242.688c0 5.5296-4.5056 10.24-10.24 10.24zM474.5216 237.568c-5.7344 0-10.24-4.5056-10.24-10.24V178.176c0-5.7344 4.5056-10.24 10.24-10.24s10.24 4.5056 10.24 10.24v49.152c0 5.7344-4.5056 10.24-10.24 10.24zM549.4784 237.568c-5.7344 0-10.24-4.5056-10.24-10.24V178.176c0-5.7344 4.5056-10.24 10.24-10.24s10.24 4.5056 10.24 10.24v49.152c0 5.7344-4.7104 10.24-10.24 10.24z" fill="#1C1D21" p-id="17081"></path><path d="M697.7536 424.7552c-35.4304-21.504-76.8-24.1664-108.1344-3.2768-31.3344 20.8896-44.6464 60.2112-38.5024 101.1712 35.4304 21.504 76.8 24.1664 108.1344 3.2768 31.3344-20.8896 44.6464-60.0064 38.5024-101.1712z" fill="#0ABFB2" p-id="17082"></path><path d="M512 559.104c-3.2768 0-6.5536-1.6384-8.6016-4.5056-3.072-4.7104-1.8432-11.0592 2.8672-14.1312l184.5248-123.2896c4.7104-3.072 11.0592-1.8432 14.1312 2.8672s1.8432 11.0592-2.8672 14.1312l-184.5248 123.2896c-1.6384 1.024-3.4816 1.6384-5.5296 1.6384z" fill="#1C1D21" p-id="17083"></path><path d="M610.7136 550.5024c-21.504 0-43.8272-6.3488-64.9216-19.0464-2.6624-1.6384-4.3008-4.3008-4.9152-7.168-6.9632-46.2848 9.4208-88.8832 42.8032-111.2064 33.3824-22.3232 79.0528-21.0944 119.1936 3.072 2.6624 1.6384 4.3008 4.3008 4.9152 7.168 6.9632 46.2848-9.4208 88.8832-42.8032 111.2064-15.9744 10.6496-34.816 15.9744-54.272 15.9744z m-50.176-34.2016c32.1536 17.8176 67.3792 18.2272 92.9792 1.2288 25.6-17.2032 38.7072-49.9712 34.6112-86.2208-32.1536-17.8176-67.3792-18.2272-92.9792-1.2288s-38.7072 49.7664-34.6112 86.2208z" fill="#1C1D21" p-id="17084"></path><path d="M609.4848 493.9776c-0.6144 0-1.2288 0-1.6384-0.2048-5.5296-1.024-9.4208-6.144-8.3968-11.8784l12.288-73.728c1.024-5.5296 6.144-9.4208 11.8784-8.3968 5.5296 1.024 9.4208 6.144 8.3968 11.8784l-12.288 73.728c-1.024 4.9152-5.3248 8.6016-10.24 8.6016z" fill="#1C1D21" p-id="17085"></path><path d="M682.3936 510.7712c-0.8192 0-1.6384 0-2.2528-0.2048l-72.9088-16.9984c-5.5296-1.2288-9.0112-6.7584-7.5776-12.288 1.2288-5.5296 6.7584-9.0112 12.288-7.5776l72.9088 16.9984c5.5296 1.2288 9.0112 6.7584 7.5776 12.288-1.2288 4.7104-5.3248 7.7824-10.0352 7.7824z" fill="#1C1D21" p-id="17086"></path><path d="M326.2464 424.7552c35.4304-21.504 76.8-24.1664 108.1344-3.2768 31.3344 20.8896 44.6464 60.2112 38.5024 101.1712-35.4304 21.504-76.8 24.1664-108.1344 3.2768-31.3344-20.8896-44.6464-60.0064-38.5024-101.1712z" fill="#0ABFB2" p-id="17087"></path><path d="M512 559.104c-2.048 0-3.8912-0.6144-5.7344-1.6384L321.7408 434.176c-4.7104-3.072-5.9392-9.4208-2.8672-14.1312 3.072-4.7104 9.4208-5.9392 14.1312-2.8672l184.5248 123.2896c4.7104 3.072 5.9392 9.4208 2.8672 14.1312-1.8432 2.8672-5.12 4.5056-8.3968 4.5056z" fill="#1C1D21" p-id="17088"></path><path d="M413.2864 550.5024c-19.6608 0-38.2976-5.3248-54.272-15.9744-33.3824-22.3232-49.9712-64.9216-42.8032-111.2064 0.4096-3.072 2.2528-5.7344 4.9152-7.168 40.1408-24.1664 85.6064-25.3952 119.1936-3.072 33.3824 22.3232 49.9712 64.9216 42.8032 111.2064-0.4096 3.072-2.2528 5.7344-4.9152 7.168-20.8896 12.6976-43.4176 19.0464-64.9216 19.0464zM335.872 431.104c-4.096 36.4544 9.0112 69.2224 34.6112 86.2208 25.6 17.2032 60.8256 16.5888 92.9792-1.2288 4.096-36.4544-9.0112-69.2224-34.6112-86.2208-25.6-16.9984-61.0304-16.384-92.9792 1.2288z" fill="#1C1D21" p-id="17089"></path><path d="M414.5152 493.9776c-4.9152 0-9.216-3.4816-10.0352-8.6016l-12.288-73.728c-1.024-5.5296 2.8672-10.8544 8.3968-11.8784 5.5296-1.024 10.8544 2.8672 11.8784 8.3968l12.288 73.728c1.024 5.5296-2.8672 10.8544-8.3968 11.8784-0.8192 0-1.4336 0.2048-1.8432 0.2048z" fill="#1C1D21" p-id="17090"></path><path d="M341.6064 510.7712c-4.7104 0-8.8064-3.2768-10.0352-7.9872-1.2288-5.5296 2.048-11.0592 7.5776-12.288l72.9088-16.9984c5.5296-1.2288 11.0592 2.2528 12.288 7.5776 1.2288 5.5296-2.048 11.0592-7.5776 12.288l-72.9088 16.9984c-0.6144 0.4096-1.4336 0.4096-2.2528 0.4096z" fill="#1C1D21" p-id="17091"></path><path d="M148.48 859.136c83.3536 87.6544 198.2464 145.2032 326.4512 154.624h74.5472c128.2048-9.4208 242.8928-66.9696 326.4512-154.624H148.48z" fill="#C67552" p-id="17092"></path><path d="M400.9984 670.5152h222.208v193.536H400.9984z" fill="#AAADAD" p-id="17093"></path><path d="M450.7648 735.4368c-5.7344 0-10.24-4.5056-10.24-10.24v-4.7104c0-5.7344 4.5056-10.24 10.24-10.24s10.24 4.5056 10.24 10.24v4.7104c0 5.5296-4.5056 10.24-10.24 10.24zM450.7648 841.5232c-5.7344 0-10.24-4.5056-10.24-10.24v-61.0304c0-5.7344 4.5056-10.24 10.24-10.24s10.24 4.5056 10.24 10.24v61.0304c0 5.5296-4.5056 10.24-10.24 10.24z" fill="#E0E0E0" p-id="17094"></path><path d="M623.0016 774.9632c-5.7344 0-10.24-4.5056-10.24-10.24v-17.8176c0-5.7344 4.5056-10.24 10.24-10.24s10.24 4.5056 10.24 10.24v17.8176c0 5.7344-4.5056 10.24-10.24 10.24zM623.0016 868.352c-5.7344 0-10.24-4.5056-10.24-10.24v-52.0192c0-5.7344 4.5056-10.24 10.24-10.24s10.24 4.5056 10.24 10.24V858.112c0 5.5296-4.5056 10.24-10.24 10.24zM400.9984 868.7616c-5.5296 0-10.24-4.5056-10.24-10.24-0.4096-63.0784-0.4096-126.3616-0.4096-187.5968 0-5.7344 4.5056-10.24 10.24-10.24h221.7984c5.7344 0 10.24 4.5056 10.24 10.24s-4.5056 10.24-10.24 10.24H410.8288c0 58.1632 0 117.9648 0.4096 177.3568 0 5.5296-4.5056 10.24-10.24 10.24z" fill="#1C1D21" p-id="17095"></path><path d="M638.976 670.5152H385.024c-10.4448 0-18.6368-8.3968-18.6368-18.6368v-8.192c0-10.4448 8.3968-18.6368 18.6368-18.6368h253.952c10.4448 0 18.6368 8.3968 18.6368 18.6368v8.192c0 10.4448-8.3968 18.6368-18.6368 18.6368z" fill="#AAADAD" p-id="17096"></path><path d="M638.976 680.7552H385.024c-15.9744 0-28.8768-12.9024-28.8768-28.8768v-8.192c0-15.9744 12.9024-28.8768 28.8768-28.8768h253.952c15.9744 0 28.8768 12.9024 28.8768 28.8768v8.192c0 15.9744-12.9024 28.8768-28.8768 28.8768z m-253.952-45.4656c-4.7104 0-8.3968 3.8912-8.3968 8.3968v8.192c0 4.7104 3.8912 8.3968 8.3968 8.3968h253.952c4.7104 0 8.3968-3.8912 8.3968-8.3968v-8.192c0-4.7104-3.8912-8.3968-8.3968-8.3968H385.024z" fill="#1C1D21" p-id="17097"></path><path d="M622.3872 723.968c-5.7344 0-10.24-4.5056-10.24-10.24v-42.8032c0-5.7344 4.5056-10.24 10.24-10.24s10.24 4.5056 10.24 10.24v42.8032c0 5.5296-4.5056 10.24-10.24 10.24zM549.2736 1024h-75.3664c-126.7712-9.216-245.1456-65.3312-333.0048-157.696-2.8672-2.8672-3.6864-7.3728-2.048-11.0592 1.6384-3.6864 5.3248-6.144 9.4208-6.144h727.2448c4.096 0 7.7824 2.4576 9.4208 6.144 1.6384 3.6864 0.8192 8.192-2.048 11.0592-87.8592 92.3648-206.2336 148.48-333.0048 157.696h-0.6144zM475.136 1003.52h73.728c113.4592-8.3968 219.7504-55.7056 302.08-134.144h-677.888c82.3296 78.4384 188.6208 125.7472 302.08 134.144z" fill="#1C1D21" p-id="17098"></path></svg>