<svg xmlns="http://www.w3.org/2000/svg" viewBox="0 0 1024 1024" version="1.1"><path d="M512 512m-501.76 0a501.76 501.76 0 1 0 1003.52 0 501.76 501.76 0 1 0-1003.52 0Z" fill="#8CEEF9" p-id="17316"></path><path d="M699.5968 751.8208H359.2192c-16.9984 0-30.72-13.7216-30.72-30.72V374.5792c0-16.9984 13.7216-30.72 30.72-30.72h340.1728c16.9984 0 30.72 13.7216 30.72 30.72v346.5216c0.2048 16.9984-13.5168 30.72-30.5152 30.72z" fill="#508DEF" p-id="17317"></path><path d="M512 1024c-136.8064 0-265.4208-53.248-362.0864-149.9136C53.248 777.4208 0 648.8064 0 512S53.248 246.5792 149.9136 149.9136C246.5792 53.248 375.1936 0 512 0s265.4208 53.248 362.0864 149.9136C970.752 246.5792 1024 375.1936 1024 512s-53.248 265.4208-149.9136 362.0864C777.4208 970.752 648.8064 1024 512 1024z m0-1003.52C241.0496 20.48 20.48 241.0496 20.48 512s220.5696 491.52 491.52 491.52 491.52-220.5696 491.52-491.52S782.9504 20.48 512 20.48z" fill="#1C1D21" p-id="17318"></path><path d="M328.4992 492.544c-5.7344 0-10.24-4.5056-10.24-10.24v-18.0224c0-5.7344 4.5056-10.24 10.24-10.24s10.24 4.5056 10.24 10.24v18.0224c0 5.5296-4.5056 10.24-10.24 10.24z" fill="#1C1D21" p-id="17319"></path><path d="M696.5248 762.0608H362.2912c-24.3712 0-44.032-19.8656-44.032-44.032v-186.1632c0-5.7344 4.5056-10.24 10.24-10.24s10.24 4.5056 10.24 10.24v186.1632c0 12.9024 10.6496 23.552 23.552 23.552H696.32c12.9024 0 23.552-10.6496 23.552-23.552V377.6512c0-12.9024-10.6496-23.552-23.552-23.552H362.2912c-12.9024 0-23.552 10.6496-23.552 23.552v38.2976c0 5.7344-4.5056 10.24-10.24 10.24s-10.24-4.5056-10.24-10.24v-38.2976c0-24.3712 19.8656-44.032 44.032-44.032H696.32c24.3712 0 44.032 19.8656 44.032 44.032v340.3776c0.2048 24.3712-19.6608 44.032-43.8272 44.032z" fill="#1C1D21" p-id="17320"></path><path d="M373.76 437.6576c-5.7344 0-10.24-4.5056-10.24-10.24v-22.528c0-5.7344 4.5056-10.24 10.24-10.24s10.24 4.5056 10.24 10.24v22.528c0 5.5296-4.7104 10.24-10.24 10.24zM373.76 717.0048c-5.7344 0-10.24-4.5056-10.24-10.24V493.1584c0-5.7344 4.5056-10.24 10.24-10.24s10.24 4.5056 10.24 10.24v213.6064c0 5.7344-4.7104 10.24-10.24 10.24z" fill="#ABD1FF" p-id="17321"></path><path d="M698.7776 343.8592h-71.4752c17.408 0 31.5392 14.1312 31.5392 31.5392v344.8832c0 17.408-14.1312 31.5392-31.5392 31.5392h71.4752c17.408 0 31.5392-14.1312 31.5392-31.5392V375.3984c0-17.408-14.1312-31.5392-31.5392-31.5392z" fill="#256DD6" p-id="17322"></path><path d="M698.7776 762.0608h-71.4752c-5.7344 0-10.24-4.5056-10.24-10.24s4.5056-10.24 10.24-10.24c11.6736 0 21.2992-9.6256 21.2992-21.2992V375.3984c0-11.6736-9.6256-21.2992-21.2992-21.2992-5.7344 0-10.24-4.5056-10.24-10.24s4.5056-10.24 10.24-10.24h71.4752c23.1424 0 41.7792 18.8416 41.7792 41.7792v344.8832c0 23.1424-18.8416 41.7792-41.7792 41.7792z m-35.6352-20.48h35.6352c11.6736 0 21.2992-9.6256 21.2992-21.2992V375.3984c0-11.6736-9.6256-21.2992-21.2992-21.2992h-35.6352c3.6864 6.144 5.9392 13.5168 5.9392 21.2992v344.8832c0 7.7824-2.2528 15.1552-5.9392 21.2992zM549.888 353.4848c-5.7344 0-10.24-4.5056-10.24-10.24v-51.8144c0-30.3104-24.576-54.8864-54.8864-54.8864s-54.8864 24.576-54.8864 54.8864v51.8144c0 5.7344-4.5056 10.24-10.24 10.24s-10.24-4.5056-10.24-10.24v-51.8144c0-41.5744 33.792-75.3664 75.3664-75.3664 41.5744 0 75.3664 33.792 75.3664 75.3664v51.8144c0 5.5296-4.5056 10.24-10.24 10.24z" fill="#1C1D21" p-id="17323"></path><path d="M618.7008 353.4848c-5.7344 0-10.24-4.5056-10.24-10.24v-51.8144c0-30.3104-24.576-54.8864-54.8864-54.8864s-54.8864 24.576-54.8864 54.8864v51.8144c0 5.7344-4.5056 10.24-10.24 10.24s-10.24-4.5056-10.24-10.24v-51.8144c0-41.5744 33.792-75.3664 75.3664-75.3664 41.5744 0 75.3664 33.792 75.3664 75.3664v51.8144c0 5.5296-4.7104 10.24-10.24 10.24z" fill="#1C1D21" p-id="17324"></path><path d="M427.2128 111.2064c12.0832 20.8896 34.6112 34.816 60.416 34.816 25.8048 0 48.3328-14.1312 60.416-34.816-12.0832-20.8896-34.6112-34.816-60.416-34.816-25.8048-0.2048-48.3328 13.9264-60.416 34.816z" fill="#0ABFB2" p-id="17325"></path><path d="M487.6288 156.2624c-28.4672 0-55.0912-15.36-69.2224-39.936-1.8432-3.072-1.8432-7.168 0-10.24 14.336-24.576 40.7552-39.936 69.2224-39.936s55.0912 15.36 69.2224 39.936c1.8432 3.072 1.8432 7.168 0 10.24-14.1312 24.576-40.7552 39.936-69.2224 39.936z m-48.128-45.056c11.0592 15.36 29.0816 24.576 48.128 24.576s37.0688-9.216 48.128-24.576c-11.0592-15.36-29.0816-24.576-48.128-24.576s-37.0688 9.216-48.128 24.576z" fill="#1C1D21" p-id="17326"></path><path d="M912.7936 428.6464c-20.8896 12.0832-34.816 34.6112-34.816 60.416 0 25.8048 14.1312 48.3328 34.816 60.416 20.8896-12.0832 34.816-34.6112 34.816-60.416 0.2048-26.0096-13.9264-48.5376-34.816-60.416z" fill="#0ABFB2" p-id="17327"></path><path d="M912.7936 559.7184c-1.8432 0-3.4816-0.4096-5.12-1.4336-24.576-14.336-39.936-40.7552-39.936-69.2224s15.36-55.0912 39.936-69.2224c3.072-1.8432 7.168-1.8432 10.24 0 24.576 14.336 39.936 40.7552 39.936 69.2224s-15.36 55.0912-39.936 69.2224c-1.4336 0.8192-3.2768 1.4336-5.12 1.4336z m0-118.9888c-15.36 11.0592-24.576 29.0816-24.576 48.128s9.216 37.0688 24.576 48.128c15.36-11.0592 24.576-29.0816 24.576-48.128s-9.216-37.0688-24.576-48.128z" fill="#1C1D21" p-id="17328"></path><path d="M596.3776 912.7936c-12.0832-20.8896-34.6112-34.816-60.416-34.816-25.8048 0-48.3328 14.1312-60.416 34.816 12.0832 20.8896 34.6112 34.816 60.416 34.816 25.8048 0.2048 48.3328-13.9264 60.416-34.816z" fill="#0ABFB2" p-id="17329"></path><path d="M535.9616 958.0544c-28.4672 0-55.0912-15.36-69.2224-39.936-1.8432-3.072-1.8432-7.168 0-10.24 14.336-24.576 40.7552-39.936 69.2224-39.936 28.4672 0 55.0912 15.36 69.2224 39.936 1.8432 3.072 1.8432 7.168 0 10.24-14.1312 24.576-40.7552 39.936-69.2224 39.936z m-48.128-45.2608c11.0592 15.36 29.0816 24.576 48.128 24.576s37.0688-9.216 48.128-24.576c-11.0592-15.36-29.0816-24.576-48.128-24.576s-37.0688 9.4208-48.128 24.576z" fill="#1C1D21" p-id="17330"></path><path d="M111.2064 595.3536c20.8896-12.0832 34.816-34.6112 34.816-60.416 0-25.8048-14.1312-48.3328-34.816-60.416-20.8896 12.0832-34.816 34.6112-34.816 60.416-0.2048 26.0096 13.9264 48.5376 34.816 60.416z" fill="#0ABFB2" p-id="17331"></path><path d="M111.2064 605.5936c-1.8432 0-3.4816-0.4096-5.12-1.4336-24.576-14.336-39.936-40.7552-39.936-69.2224s15.36-55.0912 39.936-69.2224c3.072-1.8432 7.168-1.8432 10.24 0 24.576 14.336 39.936 40.7552 39.936 69.2224s-15.36 55.0912-39.936 69.2224c-1.6384 1.024-3.4816 1.4336-5.12 1.4336z m0-118.784c-15.36 11.0592-24.576 29.0816-24.576 48.128s9.216 37.0688 24.576 48.128c15.36-11.0592 24.576-29.0816 24.576-48.128s-9.216-37.0688-24.576-48.128z" fill="#1C1D21" p-id="17332"></path><path d="M428.6464 923.0336c-0.6144 0-1.4336 0-2.048-0.2048-80.0768-16.5888-152.9856-56.1152-211.1488-114.2784-58.1632-58.1632-97.6896-131.072-114.0736-211.1488-1.2288-5.5296 2.4576-11.0592 7.9872-12.0832 5.5296-1.2288 11.0592 2.4576 12.0832 7.9872 32.1536 155.8528 153.8048 277.2992 309.4528 309.4528 5.5296 1.2288 9.0112 6.5536 7.9872 12.0832-1.2288 4.9152-5.5296 8.192-10.24 8.192zM595.3536 923.0336c-4.7104 0-9.0112-3.2768-10.0352-8.192-1.2288-5.5296 2.4576-11.0592 7.9872-12.0832 155.648-32.1536 277.2992-153.8048 309.4528-309.4528 1.2288-5.5296 6.5536-9.0112 12.0832-7.9872 5.5296 1.2288 9.0112 6.5536 7.9872 12.0832-16.5888 80.0768-56.1152 152.9856-114.0736 211.1488-58.1632 58.1632-131.072 97.6896-211.1488 114.2784-0.8192 0.2048-1.4336 0.2048-2.2528 0.2048zM912.7936 438.8864c-4.7104 0-9.0112-3.2768-10.0352-8.192-32.1536-155.8528-153.8048-277.2992-309.4528-309.4528-5.5296-1.2288-9.0112-6.5536-7.9872-12.0832s6.5536-9.0112 12.0832-7.9872c80.0768 16.5888 152.9856 56.1152 211.1488 114.2784 58.1632 58.1632 97.6896 131.072 114.0736 211.1488 1.2288 5.5296-2.4576 11.0592-7.9872 12.0832-0.4096 0-1.024 0.2048-1.8432 0.2048zM111.2064 438.8864c-0.6144 0-1.4336 0-2.048-0.2048-5.5296-1.2288-9.0112-6.5536-7.9872-12.0832 16.5888-80.0768 56.1152-152.9856 114.0736-211.1488 58.1632-58.1632 131.072-97.6896 211.1488-114.2784 5.5296-1.2288 11.0592 2.4576 12.0832 7.9872 1.2288 5.5296-2.4576 11.0592-7.9872 12.0832-155.648 32.1536-277.2992 153.8048-309.4528 309.4528-0.8192 4.7104-5.12 8.192-9.8304 8.192z" fill="#1C1D21" p-id="17333"></path><path d="M514.048 674.4064v-147.0464h50.7904L491.3152 446.464l-73.728 80.896h50.7904v147.0464" fill="#0ABFB2" p-id="17334"></path><path d="M514.048 684.6464c-5.7344 0-10.24-4.5056-10.24-10.24v-146.8416c0-5.7344 4.5056-10.24 10.24-10.24h27.648l-50.5856-55.5008-50.5856 55.5008h27.648c5.7344 0 10.24 4.5056 10.24 10.24v146.8416c0 5.7344-4.5056 10.24-10.24 10.24s-10.24-4.5056-10.24-10.24v-136.6016h-40.5504c-4.096 0-7.7824-2.4576-9.4208-6.144-1.6384-3.6864-1.024-7.9872 1.8432-11.0592l73.728-80.896c1.8432-2.048 4.7104-3.2768 7.5776-3.2768s5.7344 1.2288 7.5776 3.2768l73.728 80.896c2.6624 3.072 3.4816 7.3728 1.8432 11.0592-1.6384 3.6864-5.3248 6.144-9.4208 6.144H524.288v136.6016c0 5.5296-4.5056 10.24-10.24 10.24zM468.3776 762.0608c-5.7344 0-10.24-4.5056-10.24-10.24v-33.1776c0-5.7344 4.5056-10.24 10.24-10.24s10.24 4.5056 10.24 10.24v33.1776c0 5.7344-4.7104 10.24-10.24 10.24zM514.048 762.0608c-5.7344 0-10.24-4.5056-10.24-10.24v-33.1776c0-5.7344 4.5056-10.24 10.24-10.24s10.24 4.5056 10.24 10.24v33.1776c0 5.7344-4.5056 10.24-10.24 10.24z" fill="#1C1D21" p-id="17335"></path></svg>