<svg xmlns="http://www.w3.org/2000/svg" viewBox="0 0 1024 1024" version="1.1"><path d="M512 512m-501.76 0a501.76 501.76 0 1 0 1003.52 0 501.76 501.76 0 1 0-1003.52 0Z" fill="#8CEEF9" p-id="15250"></path><path d="M715.5712 758.784v-18.432c0-15.7696-12.9024-28.672-28.672-28.672h-4.096c0-15.7696-12.9024-28.672-28.672-28.672H369.8688c-15.7696 0-28.672 12.9024-28.672 28.672h-4.096c-15.7696 0-28.672 12.9024-28.672 28.672v18.432" fill="#FF8939" p-id="15251"></path><path d="M715.5712 769.024c-5.7344 0-10.24-4.5056-10.24-10.24v-18.432c0-10.24-8.192-18.432-18.432-18.432h-4.096c-5.7344 0-10.24-4.5056-10.24-10.24 0-10.24-8.192-18.432-18.432-18.432H369.8688c-10.24 0-18.432 8.192-18.432 18.432 0 5.7344-4.5056 10.24-10.24 10.24h-4.096c-10.24 0-18.432 8.192-18.432 18.432v18.432c0 5.7344-4.5056 10.24-10.24 10.24s-10.24-4.5056-10.24-10.24v-18.432c0-19.8656 14.7456-36.2496 33.9968-38.5024 4.3008-16.5888 19.6608-29.0816 37.6832-29.0816h284.2624c18.0224 0 33.1776 12.288 37.6832 29.0816 19.0464 2.4576 33.9968 18.8416 33.9968 38.5024v18.432c0 5.7344-4.7104 10.24-10.24 10.24z" fill="#1C1D21" p-id="15252"></path><path d="M512 1024c-136.8064 0-265.4208-53.248-362.0864-149.9136S0 648.8064 0 512 53.248 246.5792 149.9136 149.9136 375.1936 0 512 0s265.4208 53.248 362.0864 149.9136S1024 375.1936 1024 512s-53.248 265.4208-149.9136 362.0864S648.8064 1024 512 1024z m0-1003.52C241.0496 20.48 20.48 241.0496 20.48 512s220.5696 491.52 491.52 491.52 491.52-220.5696 491.52-491.52S782.9504 20.48 512 20.48z" fill="#1C1D21" p-id="15253"></path><path d="M258.6624 945.152C333.0048 988.7744 419.6352 1013.76 512 1013.76s178.9952-24.9856 253.3376-68.608V813.056H258.6624v132.096zM779.264 813.056h-534.528c-11.264 0-20.48-9.216-20.48-20.48v-13.312c0-11.264 9.216-20.48 20.48-20.48h534.528c11.264 0 20.48 9.216 20.48 20.48v13.312c0 11.264-9.216 20.48-20.48 20.48z" fill="#E0E0E0" p-id="15254"></path><path d="M512 1024c-90.9312 0-180.4288-24.1664-258.6624-70.0416-3.072-1.8432-5.12-5.12-5.12-8.8064V813.056c0-5.7344 4.5056-10.24 10.24-10.24h506.6752c5.7344 0 10.24 4.5056 10.24 10.24v132.096c0 3.6864-1.8432 6.9632-5.12 8.8064-77.824 45.8752-167.3216 70.0416-258.2528 70.0416z m-243.0976-84.7872c73.728 41.984 157.696 64.3072 243.0976 64.3072s169.3696-22.1184 243.0976-64.3072V823.296H268.9024v115.9168z" fill="#1C1D21" p-id="15255"></path><path d="M299.6224 931.2256c-5.7344 0-10.24-4.5056-10.24-10.24V854.016c0-5.7344 4.5056-10.24 10.24-10.24s10.24 4.5056 10.24 10.24v66.9696c0 5.7344-4.7104 10.24-10.24 10.24z" fill="#FFFFFF" p-id="15256"></path><path d="M779.264 823.296h-534.528c-16.9984 0-30.72-13.7216-30.72-30.72v-13.312c0-16.9984 13.7216-30.72 30.72-30.72h24.9856c5.7344 0 10.24 4.5056 10.24 10.24s-4.5056 10.24-10.24 10.24h-24.9856c-5.7344 0-10.24 4.5056-10.24 10.24v13.312c0 5.7344 4.5056 10.24 10.24 10.24h534.528c5.7344 0 10.24-4.5056 10.24-10.24v-13.312c0-5.7344-4.5056-10.24-10.24-10.24H704.512c-5.7344 0-10.24-4.5056-10.24-10.24s4.5056-10.24 10.24-10.24h74.752c16.9984 0 30.72 13.7216 30.72 30.72v13.312c0 16.9984-13.7216 30.72-30.72 30.72z" fill="#1C1D21" p-id="15257"></path><path d="M393.8304 868.352c-13.7216 0-24.9856 11.0592-24.9856 24.9856v99.7376c16.1792 4.9152 32.9728 8.8064 49.7664 12.0832v-111.8208c0.2048-13.9264-11.0592-24.9856-24.7808-24.9856zM512 868.352c-13.7216 0-24.9856 11.0592-24.9856 24.9856v119.808a508.57984 508.57984 0 0 0 49.9712 0v-119.808c0-13.9264-11.264-24.9856-24.9856-24.9856zM630.1696 868.352c-13.7216 0-24.9856 11.0592-24.9856 24.9856v111.8208c16.9984-3.2768 33.5872-7.168 49.7664-12.0832v-99.7376c0-13.9264-11.0592-24.9856-24.7808-24.9856z" fill="#AAADAD" p-id="15258"></path><path d="M418.816 1015.3984c-0.6144 0-1.2288 0-1.8432-0.2048-16.9984-3.2768-34.2016-7.3728-50.7904-12.288-4.3008-1.2288-7.3728-5.3248-7.3728-9.8304v-99.7376c0-19.456 15.7696-35.2256 35.2256-35.2256s35.2256 15.7696 35.2256 35.2256v111.8208c0 3.072-1.4336 5.9392-3.6864 7.7824-2.048 1.6384-4.5056 2.4576-6.7584 2.4576z m-39.5264-30.1056c9.6256 2.6624 19.456 5.12 29.2864 7.168v-99.328c0-7.9872-6.5536-14.7456-14.7456-14.7456s-14.7456 6.5536-14.7456 14.7456v92.16zM512 1024c-8.3968 0-16.7936-0.2048-25.3952-0.6144-5.5296-0.2048-9.8304-4.7104-9.8304-10.24v-119.808c0-19.456 15.7696-35.2256 35.2256-35.2256s35.2256 15.7696 35.2256 35.2256v119.808c0 5.5296-4.3008 10.0352-9.8304 10.24-8.6016 0.4096-16.9984 0.6144-25.3952 0.6144z m24.9856-10.8544z m-39.7312-9.8304c9.8304 0.2048 19.456 0.2048 29.2864 0v-109.9776c0-7.9872-6.5536-14.7456-14.7456-14.7456s-14.7456 6.5536-14.7456 14.7456v109.9776zM605.184 1015.3984c-2.4576 0-4.7104-0.8192-6.5536-2.4576-2.2528-2.048-3.6864-4.9152-3.6864-7.7824v-111.8208c0-19.456 15.7696-35.2256 35.2256-35.2256s35.2256 15.7696 35.2256 35.2256v99.7376c0 4.5056-3.072 8.6016-7.3728 9.8304-16.7936 4.9152-33.792 9.0112-50.7904 12.288-0.8192 0-1.4336 0.2048-2.048 0.2048z m49.7664-22.3232zM630.1696 878.592c-7.9872 0-14.7456 6.5536-14.7456 14.7456v99.328c9.8304-2.048 19.6608-4.5056 29.2864-7.168v-92.16c0-8.192-6.5536-14.7456-14.5408-14.7456zM668.672 769.024h-47.104c-5.7344 0-10.24-4.5056-10.24-10.24s4.5056-10.24 10.24-10.24h47.104c5.7344 0 10.24 4.5056 10.24 10.24s-4.5056 10.24-10.24 10.24zM473.088 769.024h-161.792c-5.7344 0-10.24-4.5056-10.24-10.24s4.5056-10.24 10.24-10.24h161.792c5.7344 0 10.24 4.5056 10.24 10.24s-4.5056 10.24-10.24 10.24zM516.096 769.024h-8.8064c-5.7344 0-10.24-4.5056-10.24-10.24s4.5056-10.24 10.24-10.24h8.8064c5.7344 0 10.24 4.5056 10.24 10.24s-4.5056 10.24-10.24 10.24z" fill="#1C1D21" p-id="15259"></path><path d="M747.7248 377.4464c2.4576-32.1536-1.8432-64.3072-12.288-94.4128 6.144-3.072 11.0592-8.3968 13.9264-15.1552 6.5536-15.36-0.8192-33.1776-16.1792-39.5264l-43.4176-18.2272c-9.0112-3.6864-19.2512-3.072-27.4432 2.048-8.3968 5.12-13.7216 13.7216-14.336 23.552l-3.6864 47.104c-0.6144 9.216 2.6624 17.6128 8.8064 23.7568 4.9152 4.9152 11.6736 8.192 19.0464 8.8064 3.4816 0.2048 6.7584 0 10.0352-0.8192 15.9744 59.1872 0.2048 124.1088-45.6704 170.1888-61.6448 61.6448-157.4912 69.2224-227.7376 18.0224-13.5168-9.8304-32.3584-6.7584-42.1888 6.7584-8.8064 12.288-7.3728 28.8768 3.072 39.1168 1.024 1.024 2.2528 2.2528 3.6864 3.072 45.056 32.768 100.5568 48.5376 156.4672 44.4416 56.5248-4.096 109.568-28.4672 149.7088-68.608 39.5264-40.5504 63.8976-93.5936 68.1984-150.1184zM375.3984 483.7376l3.6864-47.104c1.2288-16.5888-11.264-31.1296-27.8528-32.5632-3.2768-0.2048-6.5536 0-9.6256 0.8192-15.7696-59.1872 0-123.904 45.8752-169.5744 61.6448-61.6448 157.4912-69.2224 227.7376-18.0224 13.5168 9.8304 32.3584 6.7584 42.1888-6.7584 9.8304-13.5168 6.7584-32.3584-6.7584-42.1888-45.056-32.768-100.5568-48.5376-156.4672-44.4416-56.5248 4.096-109.568 28.4672-149.7088 68.608s-64.512 93.184-68.608 149.7088c-2.4576 31.9488 1.8432 63.8976 12.0832 94.0032-6.144 3.072-11.264 8.3968-14.1312 15.1552-4.9152 11.6736-1.8432 24.7808 6.5536 33.1776 2.6624 2.6624 5.9392 4.9152 9.6256 6.5536l43.4176 18.2272c9.0112 3.6864 19.2512 3.072 27.4432-2.048 8.3968-5.12 13.7216-13.9264 14.5408-23.552z" fill="#0ABFB2" p-id="15260"></path><path d="M747.7248 387.6864h-0.8192c-5.7344-0.4096-9.8304-5.3248-9.4208-11.0592 0.6144-7.3728 0.8192-14.9504 0.6144-22.528-0.2048-5.7344 4.3008-10.4448 10.0352-10.4448 5.7344 0 10.4448 4.3008 10.4448 10.0352 0.2048 8.192 0 16.384-0.6144 24.576-0.4096 5.3248-4.9152 9.4208-10.24 9.4208z" fill="#1C1D21" p-id="15261"></path><path d="M511.7952 606.6176c-52.0192 0-102.8096-16.384-144.9984-46.8992-1.6384-1.2288-3.2768-2.6624-4.9152-4.096-14.1312-14.1312-15.9744-36.2496-4.096-52.4288 13.1072-18.0224 38.5024-22.1184 56.5248-9.0112 66.3552 48.128 156.4672 40.96 214.6304-16.9984 39.936-39.936 56.7296-97.28 45.2608-151.552-1.024 0-1.8432 0-2.8672-0.2048-9.6256-0.8192-18.6368-4.9152-25.6-11.6736-8.3968-8.3968-12.6976-19.8656-11.6736-31.744l3.6864-47.104c1.024-12.9024 8.192-24.7808 19.2512-31.5392 11.0592-6.7584 24.7808-7.7824 36.864-2.8672l43.4176 18.2272c20.6848 8.6016 30.3104 32.3584 21.7088 53.0432-2.4576 5.9392-6.3488 11.264-11.264 15.36 2.048 6.9632 3.8912 13.9264 5.5296 21.0944 1.2288 5.5296-2.2528 11.0592-7.7824 12.0832-5.5296 1.2288-11.0592-2.2528-12.0832-7.7824-1.8432-8.8064-4.3008-17.6128-7.168-26.2144-1.6384-4.7104 0.4096-10.0352 4.9152-12.4928 4.096-2.2528 7.3728-5.7344 9.216-10.0352 4.3008-10.24-0.6144-21.9136-10.6496-26.2144l-43.4176-18.2272c-5.9392-2.4576-12.6976-2.048-18.2272 1.4336-5.5296 3.2768-9.0112 9.216-9.4208 15.5648l-3.6864 47.104c-0.4096 5.7344 1.6384 11.4688 5.7344 15.7696 3.2768 3.2768 7.7824 5.5296 12.6976 5.7344 2.2528 0.2048 4.3008 0 6.5536-0.6144 5.5296-1.4336 11.0592 1.8432 12.4928 7.168 17.408 63.8976-1.2288 132.9152-48.3328 180.0192-65.1264 65.1264-166.5024 73.3184-241.0496 19.0464-9.0112-6.5536-21.504-4.5056-28.0576 4.5056-5.7344 7.9872-4.9152 18.8416 2.048 25.8048 0.8192 0.8192 1.6384 1.4336 2.4576 2.048 43.2128 31.3344 96.256 46.4896 149.7088 42.3936 54.0672-4.096 104.8576-27.2384 143.1552-65.7408 27.2384-27.2384 47.3088-61.44 57.7536-98.5088 1.6384-5.5296 7.168-8.6016 12.6976-7.168 5.5296 1.6384 8.6016 7.168 7.168 12.6976-11.4688 40.5504-33.1776 77.6192-63.0784 107.52-41.7792 41.7792-97.28 67.1744-156.2624 71.68-6.5536 0.6144-12.6976 0.8192-18.8416 0.8192zM275.2512 375.808c-5.5296 0-10.0352-4.5056-10.24-10.0352-0.2048-8.192 0-16.384 0.6144-24.3712 0.4096-5.7344 5.3248-9.8304 11.0592-9.4208 5.7344 0.4096 9.8304 5.3248 9.4208 11.0592-0.6144 7.3728-0.8192 14.9504-0.6144 22.3232 0.2048 5.7344-4.3008 10.4448-10.0352 10.4448h-0.2048z" fill="#1C1D21" p-id="15262"></path><path d="M345.088 521.8304c-5.3248 0-10.6496-1.024-15.5648-3.072l-43.4176-18.2272c-4.9152-2.048-9.216-4.9152-12.9024-8.6016-11.6736-11.6736-15.1552-29.0816-8.8064-44.2368 2.4576-5.9392 6.5536-11.264 11.4688-15.5648-2.6624-8.6016-4.7104-17.2032-6.3488-26.0096-1.024-5.5296 2.6624-10.8544 8.192-11.8784s10.8544 2.6624 11.8784 8.192c2.048 10.4448 4.7104 20.6848 8.192 30.72 1.6384 4.9152-0.4096 10.0352-5.12 12.4928-4.3008 2.048-7.5776 5.7344-9.4208 10.0352-3.072 7.5776-1.4336 16.1792 4.3008 21.9136 1.8432 1.8432 3.8912 3.2768 6.3488 4.3008l43.4176 18.2272c5.9392 2.4576 12.6976 2.048 18.2272-1.4336 5.5296-3.2768 9.0112-9.216 9.4208-15.5648l3.6864-47.104c0.4096-5.3248-1.2288-10.4448-4.7104-14.5408s-8.3968-6.5536-13.7216-6.9632c-2.048-0.2048-4.3008 0-6.3488 0.6144-5.3248 1.4336-10.8544-1.8432-12.288-7.3728-16.9984-63.6928 1.4336-132.5056 48.5376-179.6096 65.1264-65.1264 166.5024-73.3184 241.0496-19.0464 9.0112 6.5536 21.504 4.5056 28.0576-4.5056 6.5536-9.0112 4.5056-21.504-4.5056-28.0576-43.2128-31.3344-96.256-46.4896-149.7088-42.3936-54.0672 4.096-104.8576 27.2384-143.1552 65.7408-28.4672 28.4672-48.9472 64.1024-58.9824 103.2192-1.4336 5.5296-6.9632 8.8064-12.4928 7.3728-5.5296-1.4336-8.8064-6.9632-7.3728-12.4928 11.0592-42.5984 33.3824-81.3056 64.3072-112.4352 41.7792-41.7792 97.28-67.1744 156.2624-71.68 58.1632-4.3008 116.3264 12.0832 163.2256 46.2848 18.0224 13.1072 22.1184 38.5024 9.0112 56.5248s-38.5024 22.1184-56.5248 9.0112c-66.3552-48.128-156.4672-40.96-214.6304 16.9984-39.7312 39.7312-56.7296 97.0752-45.2608 151.1424 0.8192 0 1.6384 0 2.6624 0.2048 10.8544 0.8192 20.6848 5.7344 27.648 13.9264 6.9632 8.192 10.4448 18.6368 9.6256 29.4912l-3.6864 47.104c-1.024 12.9024-8.192 24.7808-19.2512 31.5392-6.5536 3.6864-13.9264 5.7344-21.2992 5.7344z" fill="#1C1D21" p-id="15263"></path></svg>