<svg xmlns="http://www.w3.org/2000/svg" viewBox="0 0 1024 1024" version="1.1"><path d="M512 512m-501.76 0a501.76 501.76 0 1 0 1003.52 0 501.76 501.76 0 1 0-1003.52 0Z" fill="#FFECE9" p-id="13422"></path><path d="M512 848.2816h61.2352v58.1632H512z" fill="#E0E0E0" p-id="13423"></path><path d="M573.2352 916.48H512c-5.7344 0-10.24-4.5056-10.24-10.24v-58.1632c0-5.7344 4.5056-10.24 10.24-10.24h61.2352c5.7344 0 10.24 4.5056 10.24 10.24v58.1632c0 5.7344-4.7104 10.24-10.24 10.24z m-50.9952-20.48h40.7552v-37.6832H522.24v37.6832z" fill="#1C1D21" p-id="13424"></path><path d="M512 1024c-136.8064 0-265.4208-53.248-362.0864-149.9136C53.248 777.4208 0 648.8064 0 512S53.248 246.5792 149.9136 149.9136C246.5792 53.248 375.1936 0 512 0s265.4208 53.248 362.0864 149.9136C970.752 246.5792 1024 375.1936 1024 512s-53.248 265.4208-149.9136 362.0864C777.4208 970.752 648.8064 1024 512 1024z m0-1003.52C241.0496 20.48 20.48 241.0496 20.48 512s220.5696 491.52 491.52 491.52 491.52-220.5696 491.52-491.52S782.9504 20.48 512 20.48z" fill="#1C1D21" p-id="13425"></path><path d="M512 1013.76c117.1456 0 224.8704-40.1408 310.272-107.52h-620.544C287.1296 973.6192 394.8544 1013.76 512 1013.76z" fill="#C67552" p-id="13426"></path><path d="M512 1024c-116.1216 0-225.6896-37.888-316.6208-109.568-3.4816-2.6624-4.7104-7.3728-3.2768-11.4688s5.3248-6.9632 9.6256-6.9632h620.544c4.3008 0 8.192 2.6624 9.6256 6.9632s0 8.6016-3.2768 11.4688c-90.9312 71.68-200.4992 109.568-316.6208 109.568z m-279.3472-107.52c82.1248 56.9344 178.176 87.04 279.3472 87.04s197.0176-29.9008 279.3472-87.04H232.6528z" fill="#1C1D21" p-id="13427"></path><path d="M725.1968 848.2816H299.008c-16.9984 0-30.72-13.7216-30.72-30.72V353.4848c0-16.9984 13.7216-30.72 30.72-30.72h426.1888c16.9984 0 30.72 13.7216 30.72 30.72v464.0768c0 16.7936-13.7216 30.72-30.72 30.72z" fill="#E0E0E0" p-id="13428"></path><path d="M268.288 558.2848c-5.7344 0-10.24-4.5056-10.24-10.24v-8.3968c0-5.7344 4.5056-10.24 10.24-10.24s10.24 4.5056 10.24 10.24v8.3968c0 5.7344-4.5056 10.24-10.24 10.24z" fill="#1C1D21" p-id="13429"></path><path d="M725.1968 858.5216H299.008c-22.528 0-40.96-18.432-40.96-40.96V586.5472c0-5.7344 4.5056-10.24 10.24-10.24s10.24 4.5056 10.24 10.24v231.0144c0 11.264 9.216 20.48 20.48 20.48h426.1888c11.264 0 20.48-9.216 20.48-20.48V353.4848c0-11.264-9.216-20.48-20.48-20.48H299.008c-11.264 0-20.48 9.216-20.48 20.48v148.8896c0 5.7344-4.5056 10.24-10.24 10.24s-10.24-4.5056-10.24-10.24v-148.8896c0-22.528 18.432-40.96 40.96-40.96h426.1888c22.528 0 40.96 18.432 40.96 40.96v464.0768c0 22.528-18.432 40.96-40.96 40.96z" fill="#1C1D21" p-id="13430"></path><path d="M728.6784 322.7648H690.176v525.5168h38.5024c15.1552 0 27.2384-12.288 27.2384-27.2384v-471.04c0-15.1552-12.0832-27.2384-27.2384-27.2384z" fill="#AAADAD" p-id="13431"></path><path d="M728.6784 858.5216H690.176c-5.7344 0-10.24-4.5056-10.24-10.24V322.7648c0-5.7344 4.5056-10.24 10.24-10.24h38.5024c20.6848 0 37.4784 16.7936 37.4784 37.4784v471.04c0 20.48-16.7936 37.4784-37.4784 37.4784z m-28.2624-20.48h28.2624c9.4208 0 16.9984-7.5776 16.9984-16.9984v-471.04c0-9.4208-7.5776-16.9984-16.9984-16.9984H700.416v505.0368zM491.52 678.912c-5.7344 0-10.24-4.5056-10.24-10.24v-166.2976c0-5.7344 4.5056-10.24 10.24-10.24s10.24 4.5056 10.24 10.24v166.2976c0 5.5296-4.5056 10.24-10.24 10.24z" fill="#1C1D21" p-id="13432"></path><path d="M432.7424 654.5408c-2.6624 0-5.3248-1.024-7.168-3.072-4.096-4.096-4.096-10.4448 0-14.5408l117.5552-117.5552c4.096-4.096 10.4448-4.096 14.5408 0s4.096 10.4448 0 14.5408l-117.5552 117.5552c-2.048 2.048-4.7104 3.072-7.3728 3.072z" fill="#1C1D21" p-id="13433"></path><path d="M574.6688 595.7632h-166.2976c-5.7344 0-10.24-4.5056-10.24-10.24s4.5056-10.24 10.24-10.24h166.2976c5.7344 0 10.24 4.5056 10.24 10.24s-4.5056 10.24-10.24 10.24z" fill="#1C1D21" p-id="13434"></path><path d="M550.2976 654.5408c-2.6624 0-5.3248-1.024-7.168-3.072l-117.5552-117.5552c-4.096-4.096-4.096-10.4448 0-14.5408s10.4448-4.096 14.5408 0l117.5552 117.5552c4.096 4.096 4.096 10.4448 0 14.5408-2.048 2.048-4.7104 3.072-7.3728 3.072z" fill="#1C1D21" p-id="13435"></path><path d="M491.52 585.5232m-45.8752 0a45.8752 45.8752 0 1 0 91.7504 0 45.8752 45.8752 0 1 0-91.7504 0Z" fill="#AAADAD" p-id="13436"></path><path d="M491.52 678.912c-51.4048 0-93.3888-41.984-93.3888-93.3888s41.984-93.3888 93.3888-93.3888 93.3888 41.984 93.3888 93.3888-41.7792 93.3888-93.3888 93.3888z m0-166.2976c-40.1408 0-72.9088 32.768-72.9088 72.9088s32.768 72.9088 72.9088 72.9088 72.9088-32.768 72.9088-72.9088-32.5632-72.9088-72.9088-72.9088z" fill="#1C1D21" p-id="13437"></path><path d="M491.52 641.4336c-30.9248 0-56.1152-25.1904-56.1152-56.1152s25.1904-56.1152 56.1152-56.1152 56.1152 25.1904 56.1152 56.1152-25.1904 56.1152-56.1152 56.1152z m0-91.5456c-19.6608 0-35.6352 15.9744-35.6352 35.6352s15.9744 35.6352 35.6352 35.6352c19.6608 0 35.6352-15.9744 35.6352-35.6352s-15.9744-35.6352-35.6352-35.6352z" fill="#1C1D21" p-id="13438"></path><path d="M491.52 585.5232m-10.0352 0a10.0352 10.0352 0 1 0 20.0704 0 10.0352 10.0352 0 1 0-20.0704 0Z" fill="#1C1D21" p-id="13439"></path><path d="M278.3232 467.968h-20.0704c-8.6016 0-15.36-6.9632-15.36-15.36 0-8.6016 6.9632-15.36 15.36-15.36h20.0704c8.6016 0 15.36 6.9632 15.36 15.36 0 8.6016-6.9632 15.36-15.36 15.36z" fill="#E0E0E0" p-id="13440"></path><path d="M278.3232 478.208h-20.0704c-14.1312 0-25.6-11.4688-25.6-25.6s11.4688-25.6 25.6-25.6h20.0704c14.1312 0 25.6 11.4688 25.6 25.6s-11.4688 25.6-25.6 25.6z m-20.0704-30.72c-2.8672 0-5.12 2.2528-5.12 5.12s2.2528 5.12 5.12 5.12h20.0704c2.8672 0 5.12-2.2528 5.12-5.12s-2.2528-5.12-5.12-5.12h-20.0704z" fill="#1C1D21" p-id="13441"></path><path d="M278.3232 733.7984h-20.0704c-8.6016 0-15.36-6.9632-15.36-15.36 0-8.6016 6.9632-15.36 15.36-15.36h20.0704c8.6016 0 15.36 6.9632 15.36 15.36s-6.9632 15.36-15.36 15.36z" fill="#E0E0E0" p-id="13442"></path><path d="M278.3232 744.0384h-20.0704c-14.1312 0-25.6-11.4688-25.6-25.6s11.4688-25.6 25.6-25.6h20.0704c14.1312 0 25.6 11.4688 25.6 25.6s-11.4688 25.6-25.6 25.6z m-20.0704-30.9248c-2.8672 0-5.12 2.2528-5.12 5.12s2.2528 5.12 5.12 5.12h20.0704c2.8672 0 5.12-2.2528 5.12-5.12s-2.2528-5.12-5.12-5.12h-20.0704z" fill="#1C1D21" p-id="13443"></path><path d="M709.632 577.7408c0 23.552-19.0464 42.8032-42.8032 42.8032-23.552 0-42.8032-19.0464-42.8032-42.8032h85.6064z" fill="#FF8939" p-id="13444"></path><path d="M666.8288 630.5792c-29.2864 0-53.0432-23.7568-53.0432-53.0432 0-5.7344 4.5056-10.24 10.24-10.24h85.4016c5.7344 0 10.24 4.5056 10.24 10.24 0.2048 29.2864-23.552 53.0432-52.8384 53.0432z m-30.72-42.5984c4.3008 12.9024 16.384 22.3232 30.72 22.3232s26.4192-9.4208 30.72-22.3232h-61.44z" fill="#1C1D21" p-id="13445"></path><path d="M552.5504 734.6176c0-63.0784 51.2-114.2784 114.2784-114.2784s114.2784 51.2 114.2784 114.2784v171.6224H552.5504v-171.6224z" fill="#FF8939" p-id="13446"></path><path d="M781.1072 916.48H552.5504c-5.7344 0-10.24-4.5056-10.24-10.24v-171.6224c0-68.608 55.9104-124.5184 124.5184-124.5184s124.5184 55.9104 124.5184 124.5184v171.6224c0 5.7344-4.5056 10.24-10.24 10.24z m-218.3168-20.48h208.0768v-161.3824c0-57.344-46.6944-104.0384-104.0384-104.0384s-104.0384 46.6944-104.0384 104.0384v161.3824z" fill="#1C1D21" p-id="13447"></path><path d="M611.7376 773.12a28.4672 20.0704 90 1 0 40.1408 0 28.4672 20.0704 90 1 0-40.1408 0Z" fill="#FFC5B3" p-id="13448"></path><path d="M631.808 811.8272c-16.9984 0-30.3104-16.9984-30.3104-38.7072s13.312-38.7072 30.3104-38.7072 30.3104 16.9984 30.3104 38.7072-13.312 38.7072-30.3104 38.7072z m0-56.9344c-4.5056 0-9.8304 7.9872-9.8304 18.2272s5.3248 18.2272 9.8304 18.2272 9.8304-7.9872 9.8304-18.2272-5.12-18.2272-9.8304-18.2272z" fill="#1C1D21" p-id="13449"></path><path d="M681.7792 773.12a28.4672 20.0704 90 1 0 40.1408 0 28.4672 20.0704 90 1 0-40.1408 0Z" fill="#FFC5B3" p-id="13450"></path><path d="M701.8496 811.8272c-16.9984 0-30.3104-16.9984-30.3104-38.7072s13.312-38.7072 30.3104-38.7072 30.3104 16.9984 30.3104 38.7072-13.312 38.7072-30.3104 38.7072z m0-56.9344c-4.5056 0-9.8304 7.9872-9.8304 18.2272s5.3248 18.2272 9.8304 18.2272 9.8304-7.9872 9.8304-18.2272-5.3248-18.2272-9.8304-18.2272z" fill="#1C1D21" p-id="13451"></path><path d="M646.7584 744.6528a28.4672 20.0704 90 1 0 40.1408 0 28.4672 20.0704 90 1 0-40.1408 0Z" fill="#FFC5B3" p-id="13452"></path><path d="M666.8288 783.36c-16.9984 0-30.3104-16.9984-30.3104-38.7072s13.312-38.7072 30.3104-38.7072 30.3104 16.9984 30.3104 38.7072-13.312 38.7072-30.3104 38.7072z m0-56.9344c-4.5056 0-9.8304 7.9872-9.8304 18.2272s5.3248 18.2272 9.8304 18.2272 9.8304-7.9872 9.8304-18.2272-5.3248-18.2272-9.8304-18.2272z" fill="#1C1D21" p-id="13453"></path><path d="M646.7584 801.5872a28.4672 20.0704 90 1 0 40.1408 0 28.4672 20.0704 90 1 0-40.1408 0Z" fill="#FFC5B3" p-id="13454"></path><path d="M666.8288 840.4992c-16.9984 0-30.3104-16.9984-30.3104-38.7072s13.312-38.7072 30.3104-38.7072 30.3104 16.9984 30.3104 38.7072-13.312 38.7072-30.3104 38.7072z m0-57.1392c-4.5056 0-9.8304 7.9872-9.8304 18.2272s5.3248 18.2272 9.8304 18.2272 9.8304-7.9872 9.8304-18.2272-5.3248-18.2272-9.8304-18.2272zM702.6688 679.1168c-5.7344 0-10.24-4.5056-10.24-10.24v-12.9024c0-14.1312-11.4688-25.3952-25.3952-25.3952s-25.3952 11.4688-25.3952 25.3952v12.9024c0 5.7344-4.5056 10.24-10.24 10.24s-10.24-4.5056-10.24-10.24v-12.9024c0-25.3952 20.6848-45.8752 45.8752-45.8752s45.8752 20.6848 45.8752 45.8752v12.9024c0 5.7344-4.7104 10.24-10.24 10.24z" fill="#1C1D21" p-id="13455"></path><path d="M302.8992 848.2816h61.2352v58.1632h-61.2352z" fill="#E0E0E0" p-id="13456"></path><path d="M364.1344 848.2816h38.0928v58.1632h-38.0928z" fill="#AAADAD" p-id="13457"></path><path d="M364.1344 916.48h-61.2352c-5.7344 0-10.24-4.5056-10.24-10.24v-58.1632c0-5.7344 4.5056-10.24 10.24-10.24h61.2352c5.7344 0 10.24 4.5056 10.24 10.24v58.1632c0 5.7344-4.5056 10.24-10.24 10.24z m-50.9952-20.48h40.7552v-37.6832h-40.7552v37.6832z" fill="#1C1D21" p-id="13458"></path><path d="M402.2272 916.48h-38.0928c-5.7344 0-10.24-4.5056-10.24-10.24v-58.1632c0-5.7344 4.5056-10.24 10.24-10.24h38.0928c5.7344 0 10.24 4.5056 10.24 10.24v58.1632c0 5.7344-4.5056 10.24-10.24 10.24z m-27.8528-20.48h17.6128v-37.6832h-17.6128v37.6832z" fill="#1C1D21" p-id="13459"></path><path d="M512 86.016c-24.1664 13.9264-40.3456 39.936-40.3456 69.8368 0 29.9008 16.1792 55.9104 40.3456 69.8368 24.1664-13.9264 40.3456-39.936 40.3456-69.8368 0-29.9008-16.1792-55.9104-40.3456-69.8368z" fill="#0ABFB2" p-id="13460"></path><path d="M512 235.9296c-1.8432 0-3.4816-0.4096-5.12-1.4336-28.0576-16.1792-45.4656-46.4896-45.4656-78.6432s17.408-62.464 45.4656-78.6432c3.072-1.8432 7.168-1.8432 10.24 0 28.0576 16.1792 45.4656 46.4896 45.4656 78.6432s-17.408 62.464-45.4656 78.6432c-1.6384 1.024-3.2768 1.4336-5.12 1.4336z m0-137.8304c-18.6368 13.1072-30.1056 34.816-30.1056 57.7536s11.4688 44.6464 30.1056 57.7536c18.6368-13.1072 30.1056-34.816 30.1056-57.7536s-11.4688-44.6464-30.1056-57.7536z" fill="#1C1D21" p-id="13461"></path><path d="M512 333.0048c-5.7344 0-10.24-4.5056-10.24-10.24v-96.8704c0-5.7344 4.5056-10.24 10.24-10.24s10.24 4.5056 10.24 10.24v96.8704c0 5.5296-4.5056 10.24-10.24 10.24z" fill="#1C1D21" p-id="13462"></path><path d="M445.0304 193.3312c17.8176-4.7104 37.4784-0.2048 51.4048 13.7216 13.9264 13.9264 18.432 33.5872 13.7216 51.4048-17.8176 4.7104-37.4784 0.2048-51.4048-13.7216-13.7216-14.1312-18.432-33.792-13.7216-51.4048z" fill="#0ABFB2" p-id="13463"></path><path d="M496.4352 270.336c-16.5888 0-32.9728-6.5536-44.8512-18.6368-15.9744-15.9744-22.3232-39.3216-16.384-61.2352 1.024-3.4816 3.6864-6.3488 7.168-7.168 21.9136-5.7344 45.2608 0.4096 61.2352 16.384 15.9744 15.9744 22.3232 39.3216 16.384 61.2352-1.024 3.4816-3.6864 6.3488-7.168 7.168-5.3248 1.6384-10.8544 2.2528-16.384 2.2528z m-42.5984-68.4032c-1.4336 12.9024 2.8672 26.0096 12.288 35.4304 9.216 9.216 22.3232 13.7216 35.4304 12.288 1.4336-12.9024-2.8672-26.0096-12.288-35.4304-9.4208-9.216-22.528-13.7216-35.4304-12.288z" fill="#1C1D21" p-id="13464"></path><path d="M513.8432 258.2528c17.8176 4.7104 37.4784 0.2048 51.4048-13.7216 13.9264-13.9264 18.432-33.5872 13.7216-51.4048-17.8176-4.7104-37.4784-0.2048-51.4048 13.7216-13.9264 14.1312-18.432 33.792-13.7216 51.4048z" fill="#0ABFB2" p-id="13465"></path><path d="M527.36 270.336c-5.5296 0-10.8544-0.6144-16.384-2.048-3.4816-1.024-6.3488-3.6864-7.168-7.168-5.7344-21.9136 0.4096-45.2608 16.384-61.2352 15.9744-15.9744 39.3216-22.3232 61.2352-16.384 3.4816 1.024 6.3488 3.6864 7.168 7.168 5.7344 21.9136-0.4096 45.2608-16.384 61.2352-11.8784 11.8784-28.0576 18.432-44.8512 18.432z m-4.9152-20.6848c12.9024 1.4336 26.0096-2.8672 35.4304-12.288 9.216-9.216 13.7216-22.528 12.288-35.4304-12.9024-1.4336-26.0096 2.8672-35.4304 12.288-9.216 9.4208-13.7216 22.528-12.288 35.4304z" fill="#1C1D21" p-id="13466"></path><path d="M327.4752 389.3248c-5.7344 0-10.24-4.5056-10.24-10.24v-15.5648c0-5.7344 4.5056-10.24 10.24-10.24s10.24 4.5056 10.24 10.24v15.5648c0 5.7344-4.7104 10.24-10.24 10.24zM327.4752 817.5616c-5.7344 0-10.24-4.5056-10.24-10.24V437.248c0-5.7344 4.5056-10.24 10.24-10.24s10.24 4.5056 10.24 10.24v370.0736c0 5.5296-4.7104 10.24-10.24 10.24z" fill="#FFFFFF" p-id="13467"></path></svg>