<svg xmlns="http://www.w3.org/2000/svg" viewBox="0 0 1024 1024" version="1.1"><path d="M512 512m-501.76 0a501.76 501.76 0 1 0 1003.52 0 501.76 501.76 0 1 0-1003.52 0Z" fill="#8CEEF9" p-id="15108"></path><path d="M536.9856 491.3152v-1.4336-0.6144c-0.4096-5.9392-1.024-11.8784-1.8432-17.8176-0.2048-0.8192-0.4096-1.8432-0.4096-2.6624-0.4096-2.048-0.6144-4.096-1.024-6.144-0.2048-1.4336-0.6144-2.6624-0.8192-4.096-0.4096-1.4336-0.6144-3.072-1.024-4.5056-0.4096-1.6384-0.8192-3.2768-1.4336-4.9152-0.4096-1.024-0.6144-2.048-1.024-3.2768-0.6144-1.8432-1.2288-3.8912-1.8432-5.7344-0.2048-0.6144-0.4096-1.2288-0.6144-2.048l-2.4576-6.7584c0-0.2048-0.2048-0.4096-0.2048-0.6144-19.6608-48.5376-59.5968-86.8352-109.3632-104.2432-0.4096-0.2048-1.024-0.4096-1.4336-0.6144-2.048-0.6144-4.096-1.4336-6.144-2.048-1.024-0.2048-1.8432-0.6144-2.8672-0.8192-1.6384-0.4096-3.4816-1.024-5.12-1.4336-1.2288-0.4096-2.6624-0.6144-4.096-1.024s-2.8672-0.6144-4.3008-1.024c-1.6384-0.4096-3.4816-0.6144-5.3248-1.024-1.2288-0.2048-2.2528-0.4096-3.4816-0.6144-2.2528-0.4096-4.7104-0.6144-6.9632-0.8192-0.6144 0-1.4336-0.2048-2.048-0.2048-3.072-0.4096-6.144-0.6144-9.216-0.8192h-0.2048c-1.8432 0-3.8912-0.2048-5.7344-0.2048-1.2288 0-2.6624-0.2048-3.8912-0.2048-1.2288 0-2.6624 0-3.8912 0.2048-1.8432 0-3.8912 0-5.7344 0.2048h-0.2048c-3.072 0.2048-6.144 0.4096-9.216 0.8192-0.6144 0-1.4336 0.2048-2.048 0.2048-2.2528 0.2048-4.7104 0.6144-6.9632 0.8192-1.2288 0.2048-2.2528 0.4096-3.4816 0.6144-1.8432 0.2048-3.4816 0.6144-5.3248 1.024-1.4336 0.2048-2.8672 0.6144-4.3008 1.024-1.4336 0.4096-2.6624 0.6144-4.096 1.024-1.8432 0.4096-3.4816 0.8192-5.12 1.4336-1.024 0.2048-1.8432 0.6144-2.8672 0.8192-2.048 0.6144-4.096 1.2288-6.144 2.048-0.4096 0.2048-1.024 0.4096-1.4336 0.6144-49.7664 17.408-89.7024 55.7056-109.3632 104.2432 0 0.2048-0.2048 0.4096-0.2048 0.6144l-2.4576 6.7584c-0.2048 0.6144-0.4096 1.2288-0.6144 2.048-0.6144 1.8432-1.2288 3.8912-1.8432 5.7344-0.4096 1.024-0.6144 2.048-1.024 3.2768-0.4096 1.6384-1.024 3.2768-1.4336 4.9152-0.4096 1.4336-0.6144 2.8672-1.024 4.5056-0.2048 1.4336-0.6144 2.6624-0.8192 4.096-0.4096 2.048-0.8192 4.096-1.024 6.144-0.2048 0.8192-0.4096 1.8432-0.4096 2.6624-0.8192 5.9392-1.6384 11.8784-1.8432 17.8176v2.048c-0.2048 2.4576-0.2048 4.9152-0.2048 7.3728v6.5536c0 1.2288 0 2.4576 0.2048 3.8912 0 1.024 0.2048 2.2528 0.2048 3.2768 0 1.2288 0.2048 2.4576 0.2048 3.6864 0 1.024 0.2048 2.048 0.2048 3.2768 0.2048 1.2288 0.2048 2.4576 0.4096 3.6864 0.2048 1.024 0.2048 2.048 0.4096 3.072l0.6144 3.6864 0.6144 3.072c0.2048 1.2288 0.4096 2.4576 0.8192 3.6864l0.6144 3.072c0.2048 1.2288 0.6144 2.4576 0.8192 3.6864 0.2048 1.024 0.4096 1.8432 0.6144 2.8672 0.4096 1.2288 0.6144 2.6624 1.024 3.8912 0.2048 0.8192 0.4096 1.8432 0.8192 2.6624 0.4096 1.4336 0.8192 2.6624 1.2288 4.096 0.2048 0.8192 0.4096 1.6384 0.8192 2.2528 0.6144 1.8432 1.2288 3.4816 1.8432 5.3248 0.2048 0.4096 0.2048 0.8192 0.4096 1.024l2.4576 6.144c0.2048 0.6144 0.6144 1.2288 0.8192 1.8432l1.8432 4.3008c0.4096 0.8192 0.8192 1.6384 1.2288 2.2528l1.8432 3.6864c0.4096 0.8192 0.8192 1.6384 1.4336 2.4576 0.6144 1.024 1.2288 2.2528 1.8432 3.2768 0.4096 0.8192 1.024 1.6384 1.4336 2.4576 0.6144 1.024 1.2288 2.048 1.8432 3.2768 0.6144 0.8192 1.024 1.6384 1.6384 2.4576 0.6144 1.024 1.2288 2.048 2.048 3.072 0.6144 0.8192 1.2288 1.6384 1.6384 2.4576 0.6144 1.024 1.4336 2.048 2.048 2.8672l1.8432 2.4576c0.6144 1.024 1.4336 1.8432 2.048 2.8672l1.8432 2.4576c0.8192 0.8192 1.4336 1.8432 2.2528 2.6624 0.6144 0.8192 1.4336 1.6384 2.048 2.4576 0.8192 0.8192 1.6384 1.8432 2.2528 2.6624 0.6144 0.8192 1.4336 1.4336 2.048 2.2528l2.4576 2.4576 2.2528 2.2528 2.4576 2.4576c0.8192 0.8192 1.4336 1.4336 2.2528 2.048 0.8192 0.8192 1.6384 1.6384 2.6624 2.4576 0.8192 0.6144 1.6384 1.4336 2.2528 2.048 0.8192 0.8192 1.8432 1.4336 2.6624 2.2528 0.8192 0.6144 1.6384 1.2288 2.4576 2.048 0.8192 0.8192 1.8432 1.4336 2.8672 2.2528l2.4576 1.8432c1.024 0.6144 1.8432 1.4336 2.8672 2.048l2.4576 1.8432c1.024 0.6144 2.048 1.4336 3.072 2.048 0.8192 0.6144 1.6384 1.024 2.4576 1.6384l3.072 1.8432c0.8192 0.6144 1.6384 1.024 2.4576 1.6384 1.024 0.6144 2.2528 1.2288 3.2768 1.8432 0.8192 0.4096 1.6384 1.024 2.4576 1.4336 1.2288 0.6144 2.2528 1.2288 3.4816 1.8432l2.4576 1.2288c1.2288 0.6144 2.4576 1.2288 3.8912 1.8432 0.6144 0.4096 1.4336 0.6144 2.048 1.024 14.7456 6.5536 24.1664 21.0944 24.1664 37.2736v28.2624c0 11.8784-9.6256 21.2992-21.2992 21.2992h-18.432c-1.8432 0-3.4816 0-5.12 0.2048h-1.024l-4.9152 0.6144c-0.2048 0-0.6144 0.2048-0.8192 0.2048-1.6384 0.2048-3.072 0.6144-4.7104 1.024h-0.4096c-1.6384 0.4096-3.2768 0.8192-4.7104 1.4336-0.2048 0-0.6144 0.2048-0.8192 0.2048-1.6384 0.6144-3.072 1.2288-4.5056 1.8432-0.2048 0-0.4096 0.2048-0.6144 0.2048-1.4336 0.6144-2.8672 1.4336-4.3008 2.048-0.2048 0-0.2048 0.2048-0.4096 0.2048l-4.3008 2.4576c-0.2048 0.2048-0.4096 0.2048-0.6144 0.4096-1.4336 0.8192-2.8672 1.8432-4.096 2.8672-1.4336 1.024-2.6624 2.048-4.096 3.2768l-0.2048 0.2048c-1.2288 1.2288-2.4576 2.2528-3.6864 3.4816 0 0.2048-0.2048 0.2048-0.2048 0.4096-2.4576 2.4576-4.7104 5.3248-6.7584 8.192v0.2048c-1.024 1.4336-2.048 2.8672-2.8672 4.5056v0.2048c-1.8432 3.072-3.4816 6.3488-4.7104 9.8304v0.2048c-3.072 7.7824-4.7104 15.9744-4.7104 24.7808v77.6192C280.3712 971.1616 391.168 1013.76 512 1013.76h2.048v-191.2832c0-8.8064-1.6384-17.2032-4.7104-24.7808v-0.2048c-1.2288-3.4816-2.8672-6.5536-4.7104-9.8304v-0.2048c-0.8192-1.6384-1.8432-3.072-2.8672-4.5056v-0.2048c-2.048-2.8672-4.3008-5.5296-6.7584-8.192 0-0.2048-0.2048-0.2048-0.2048-0.4096-1.2288-1.2288-2.4576-2.4576-3.6864-3.4816l-0.2048-0.2048c-1.2288-1.2288-2.6624-2.2528-4.096-3.2768s-2.6624-2.048-4.096-2.8672c-0.2048-0.2048-0.4096-0.2048-0.6144-0.4096l-4.3008-2.4576c-0.2048 0-0.2048-0.2048-0.4096-0.2048-1.4336-0.8192-2.8672-1.4336-4.3008-2.048-0.2048 0-0.4096-0.2048-0.6144-0.2048-1.4336-0.6144-3.072-1.2288-4.5056-1.8432-0.2048 0-0.6144-0.2048-0.8192-0.2048-1.6384-0.6144-3.072-1.024-4.7104-1.4336h-0.4096c-1.6384-0.4096-3.072-0.6144-4.7104-1.024-0.2048 0-0.6144-0.2048-0.8192-0.2048l-4.9152-0.6144h-1.024c-1.6384-0.2048-3.4816-0.2048-5.12-0.2048h-18.432c-11.8784 0-21.2992-9.6256-21.2992-21.2992v-28.2624c0-16.1792 9.4208-30.5152 24.1664-37.2736 0.6144-0.4096 1.4336-0.6144 2.048-1.024 1.2288-0.6144 2.6624-1.2288 3.8912-1.8432l2.4576-1.2288c1.2288-0.6144 2.2528-1.2288 3.4816-1.8432 0.8192-0.4096 1.6384-1.024 2.4576-1.4336 1.024-0.6144 2.2528-1.2288 3.2768-1.8432 0.8192-0.4096 1.6384-1.024 2.4576-1.6384l3.072-1.8432c0.8192-0.6144 1.6384-1.024 2.4576-1.6384 1.024-0.6144 2.048-1.2288 3.072-2.048l2.4576-1.8432c1.024-0.6144 1.8432-1.4336 2.8672-2.048l2.4576-1.8432c1.024-0.8192 1.8432-1.4336 2.8672-2.2528 0.8192-0.6144 1.6384-1.2288 2.4576-2.048 0.8192-0.8192 1.8432-1.4336 2.6624-2.2528 0.8192-0.6144 1.6384-1.4336 2.2528-2.048 0.8192-0.8192 1.6384-1.6384 2.6624-2.4576 0.8192-0.6144 1.4336-1.4336 2.2528-2.048l2.4576-2.4576 2.2528-2.2528 2.4576-2.4576c0.6144-0.8192 1.4336-1.4336 2.048-2.2528 0.8192-0.8192 1.6384-1.8432 2.2528-2.6624 0.6144-0.8192 1.4336-1.6384 2.048-2.4576 0.8192-0.8192 1.4336-1.8432 2.2528-2.6624l1.8432-2.4576c0.8192-1.024 1.4336-1.8432 2.048-2.8672l1.8432-2.4576c0.6144-1.024 1.4336-2.048 2.048-2.8672 0.6144-0.8192 1.2288-1.6384 1.6384-2.4576 0.6144-1.024 1.2288-2.048 2.048-3.072 0.6144-0.8192 1.024-1.6384 1.6384-2.4576 0.6144-1.024 1.2288-2.048 1.8432-3.2768 0.4096-0.8192 1.024-1.6384 1.4336-2.4576 0.6144-1.024 1.2288-2.2528 1.8432-3.2768 0.4096-0.8192 0.8192-1.6384 1.4336-2.4576l1.8432-3.6864c0.4096-0.8192 0.8192-1.6384 1.2288-2.2528l1.8432-4.3008c0.2048-0.6144 0.6144-1.2288 0.8192-1.8432l2.4576-6.144c0.2048-0.4096 0.2048-0.8192 0.4096-1.024 0.6144-1.6384 1.2288-3.4816 1.8432-5.3248 0.2048-0.8192 0.4096-1.6384 0.8192-2.2528 0.4096-1.4336 0.8192-2.6624 1.2288-4.096 0.2048-0.8192 0.4096-1.8432 0.8192-2.6624 0.4096-1.2288 0.8192-2.4576 1.024-3.8912 0.2048-1.024 0.4096-1.8432 0.6144-2.8672 0.2048-1.2288 0.6144-2.4576 0.8192-3.6864l0.6144-3.072c0.2048-1.2288 0.4096-2.4576 0.8192-3.6864l0.6144-3.072 0.6144-3.6864c0.2048-1.024 0.2048-2.048 0.4096-3.072 0.2048-1.2288 0.4096-2.4576 0.4096-3.6864 0.2048-1.024 0.2048-2.048 0.2048-3.2768 0.2048-1.2288 0.2048-2.4576 0.2048-3.6864 0-1.024 0.2048-2.2528 0.2048-3.2768 0-1.2288 0.2048-2.4576 0.2048-3.8912v-3.2768-2.048-1.2288c0.2048-2.8672 0.2048-5.3248 0-7.7824z" fill="#FFC5B3" p-id="15109"></path><path d="M512 1024c-118.1696 0-233.472-41.1648-324.608-116.1216-2.4576-1.8432-3.6864-4.9152-3.6864-7.9872v-77.6192c0-9.8304 1.8432-19.456 5.3248-28.4672 0 0 0-0.2048 0.2048-0.2048 1.4336-3.6864 3.2768-7.5776 5.3248-11.0592 0 0 0-0.2048 0.2048-0.2048 1.024-1.8432 2.048-3.4816 3.2768-5.12 0 0 0-0.2048 0.2048-0.2048 2.2528-3.2768 4.9152-6.3488 7.5776-9.4208l0.4096-0.4096c1.4336-1.4336 2.8672-2.8672 4.3008-4.096l0.2048-0.2048c1.4336-1.2288 2.8672-2.4576 4.5056-3.6864l0.2048-0.2048c1.4336-1.024 3.072-2.2528 4.7104-3.2768l0.6144-0.4096c1.8432-1.2288 3.4816-2.048 5.12-3.072l0.4096-0.2048 4.9152-2.4576 0.6144-0.2048c1.6384-0.6144 3.4816-1.4336 5.3248-2.048l1.024-0.4096c2.048-0.6144 3.6864-1.2288 5.5296-1.6384 0.2048 0 0.4096 0 0.6144-0.2048 1.6384-0.4096 3.2768-0.8192 5.3248-1.024l1.024-0.2048c1.8432-0.2048 3.6864-0.6144 5.7344-0.6144h1.024c2.2528-0.2048 4.096-0.2048 5.9392-0.2048h18.432c6.144 0 11.0592-4.9152 11.0592-11.0592v-28.2624c0-11.8784-7.168-22.9376-18.0224-27.8528-0.4096-0.2048-1.024-0.4096-1.4336-0.6144l-1.024-0.4096-3.6864-1.8432c-0.6144-0.2048-1.2288-0.6144-1.8432-0.8192l-1.4336-0.8192c-1.024-0.6144-2.048-1.024-3.072-1.6384-0.6144-0.4096-1.2288-0.8192-2.048-1.024l-1.2288-0.6144c-1.024-0.6144-2.048-1.024-2.8672-1.6384-0.6144-0.4096-1.4336-0.8192-2.048-1.2288l-0.8192-0.4096-3.072-1.8432c-0.6144-0.4096-1.2288-0.8192-2.048-1.2288l-0.6144-0.4096c-1.2288-0.8192-2.2528-1.4336-3.072-2.048-0.8192-0.6144-1.6384-1.024-2.2528-1.6384l-0.2048-0.2048c-1.024-0.8192-2.048-1.4336-3.072-2.2528l-2.4576-1.8432-0.2048-0.2048c-1.024-0.8192-2.048-1.6384-2.8672-2.2528-0.8192-0.6144-1.6384-1.4336-2.4576-2.048-1.024-0.8192-1.8432-1.6384-2.8672-2.4576-0.8192-0.8192-1.6384-1.4336-2.4576-2.2528-0.8192-0.8192-1.8432-1.6384-2.6624-2.4576-0.8192-0.8192-1.6384-1.4336-2.4576-2.2528-0.8192-0.8192-1.8432-1.6384-2.6624-2.6624-0.8192-0.8192-1.4336-1.6384-2.2528-2.2528-0.8192-0.8192-1.6384-1.8432-2.4576-2.6624-0.8192-0.8192-1.4336-1.6384-2.2528-2.4576-0.8192-1.024-1.6384-1.8432-2.4576-2.8672-0.6144-0.8192-1.4336-1.6384-2.048-2.4576-0.8192-1.024-1.6384-1.8432-2.4576-2.8672-0.6144-0.8192-1.4336-1.6384-2.048-2.4576-0.8192-1.024-1.4336-2.048-2.2528-3.072l-0.2048-0.4096c-0.6144-0.8192-1.024-1.4336-1.6384-2.2528-0.8192-1.024-1.4336-2.048-2.048-3.072l-0.4096-0.4096c-0.4096-0.8192-1.024-1.4336-1.4336-2.2528-0.8192-1.024-1.4336-2.2528-2.048-3.2768l-0.4096-0.6144c-0.4096-0.6144-0.8192-1.4336-1.2288-2.048-0.6144-1.024-1.2288-1.8432-1.6384-2.8672l-0.8192-1.2288c-0.4096-0.6144-0.8192-1.2288-1.024-1.8432-0.6144-1.024-1.024-2.048-1.6384-3.072l-0.6144-1.2288c-0.4096-0.6144-0.6144-1.2288-1.024-1.8432-0.6144-1.024-1.024-2.048-1.6384-3.072l-0.8192-1.4336c-0.2048-0.6144-0.6144-1.024-0.8192-1.6384-0.6144-1.4336-1.2288-2.6624-1.8432-4.096l-0.4096-1.024-0.6144-1.2288c-1.024-2.2528-1.8432-4.3008-2.6624-6.5536-0.2048-0.2048-0.2048-0.6144-0.4096-0.8192l-0.2048-0.4096c-0.6144-1.8432-1.4336-3.6864-2.048-5.5296-0.2048-0.6144-0.4096-1.024-0.6144-1.6384l-0.4096-1.4336c-0.4096-1.2288-0.8192-2.4576-1.2288-3.8912l-0.6144-1.8432-0.4096-1.4336c-0.4096-1.2288-0.6144-2.2528-1.024-3.4816-0.2048-0.6144-0.4096-1.4336-0.6144-2.048l-0.4096-1.4336c-0.2048-1.2288-0.6144-2.2528-0.8192-3.4816-0.2048-0.8192-0.4096-1.6384-0.4096-2.2528l-0.2048-1.024c-0.2048-1.2288-0.4096-2.4576-0.8192-3.6864-0.2048-0.8192-0.2048-1.6384-0.4096-2.6624l-0.2048-0.6144c-0.2048-1.4336-0.4096-2.6624-0.6144-3.8912-0.2048-1.024-0.2048-2.048-0.4096-3.072v-0.4096c-0.2048-1.2288-0.4096-2.6624-0.4096-3.8912 0-1.024-0.2048-1.8432-0.2048-2.8672v-0.6144c-0.2048-1.4336-0.2048-2.6624-0.4096-4.096 0-1.2288-0.2048-2.2528-0.2048-3.4816 0-1.4336-0.2048-2.6624-0.2048-4.096V501.76v-1.4336-1.2288c0-2.4576 0-5.12 0.2048-7.7824v-0.6144-1.6384c0.4096-6.144 1.024-12.4928 2.048-18.8416 0-0.6144 0.2048-1.2288 0.4096-1.8432l0.2048-1.024c0.4096-2.048 0.8192-4.3008 1.2288-6.3488 0.2048-1.024 0.4096-2.2528 0.8192-3.2768l0.4096-1.4336c0.4096-1.4336 0.6144-2.8672 1.024-4.3008 0.4096-1.6384 1.024-3.4816 1.4336-5.12l0.2048-0.4096c0.2048-1.024 0.6144-2.048 0.8192-2.8672 0.6144-2.048 1.2288-4.096 2.048-6.144 0.2048-0.6144 0.4096-1.4336 0.8192-2.048 0.8192-2.4576 1.8432-4.7104 2.6624-6.9632l0.2048-0.2048v-0.2048c8.192-20.48 19.8656-39.3216 34.6112-55.9104 3.6864-4.3008 10.24-4.7104 14.5408-0.8192 4.3008 3.6864 4.7104 10.24 0.8192 14.5408-13.1072 14.7456-23.552 31.5392-30.9248 49.9712l-0.2048 0.4096c-0.8192 2.048-1.6384 4.3008-2.4576 6.3488l-0.6144 1.8432c-0.6144 1.8432-1.2288 3.6864-1.8432 5.3248-0.2048 0.8192-0.6144 1.6384-0.8192 2.6624l-0.2048 0.4096c-0.4096 1.4336-0.8192 3.072-1.2288 4.7104-0.4096 1.2288-0.6144 2.4576-0.8192 3.8912l-0.4096 1.4336c-0.2048 0.8192-0.4096 1.8432-0.6144 2.6624-0.4096 1.8432-0.8192 3.8912-1.024 5.7344l-0.2048 1.2288c0 0.4096-0.2048 0.8192-0.2048 1.2288-0.8192 5.7344-1.4336 11.264-1.8432 16.7936v2.048c0 2.2528-0.2048 4.5056-0.2048 6.7584v6.144c0 1.2288 0 2.4576 0.2048 3.6864 0 1.024 0 2.048 0.2048 3.072 0 1.2288 0.2048 2.4576 0.2048 3.4816v0.6144c0 0.8192 0.2048 1.6384 0.2048 2.4576 0.2048 1.2288 0.2048 2.2528 0.4096 3.4816v0.4096c0.2048 0.8192 0.2048 1.8432 0.4096 2.6624 0.2048 1.2288 0.4096 2.2528 0.6144 3.4816l0.2048 0.8192c0.2048 0.8192 0.2048 1.4336 0.4096 2.2528 0.2048 1.024 0.4096 2.2528 0.6144 3.2768l0.2048 1.2288c0.2048 0.6144 0.2048 1.2288 0.4096 1.8432 0.2048 1.024 0.4096 2.048 0.6144 2.8672l0.4096 1.6384c0.2048 0.6144 0.2048 1.2288 0.4096 1.6384 0.2048 1.024 0.6144 2.048 0.8192 3.072l0.4096 1.6384c0.2048 0.4096 0.2048 1.024 0.4096 1.4336 0.4096 1.024 0.6144 2.2528 1.024 3.2768l0.4096 1.6384c0.2048 0.4096 0.2048 0.8192 0.4096 1.2288l1.8432 4.9152 0.4096 1.024c0.8192 2.048 1.6384 3.8912 2.4576 5.9392 0.2048 0.2048 0.2048 0.6144 0.4096 0.8192l0.6144 1.2288c0.6144 1.2288 1.024 2.4576 1.6384 3.4816l0.6144 1.2288 0.8192 1.6384c0.4096 0.8192 0.8192 1.8432 1.4336 2.6624 0.2048 0.6144 0.6144 1.024 0.8192 1.4336l0.8192 1.4336c0.4096 0.8192 1.024 1.8432 1.4336 2.6624 0.2048 0.6144 0.6144 1.024 1.024 1.6384l0.8192 1.4336c0.4096 0.8192 1.024 1.6384 1.4336 2.4576 0.4096 0.6144 0.8192 1.2288 1.024 1.8432l0.4096 0.6144c0.6144 1.024 1.2288 2.048 1.8432 2.8672l1.2288 1.8432 0.4096 0.4096c0.6144 1.024 1.2288 1.8432 1.8432 2.8672 0.4096 0.6144 1.024 1.4336 1.4336 2.048l0.2048 0.4096c0.6144 0.8192 1.4336 1.8432 2.048 2.6624 0.6144 0.8192 1.2288 1.4336 1.8432 2.2528 0.6144 0.8192 1.4336 1.8432 2.048 2.6624 0.6144 0.8192 1.2288 1.4336 1.8432 2.2528 0.8192 0.8192 1.4336 1.6384 2.2528 2.4576 0.6144 0.6144 1.2288 1.4336 2.048 2.2528 0.8192 0.8192 1.4336 1.6384 2.2528 2.4576l2.048 2.048c0.8192 0.8192 1.6384 1.6384 2.4576 2.2528l2.048 2.048c0.8192 0.8192 1.6384 1.4336 2.4576 2.2528 0.8192 0.6144 1.4336 1.2288 2.2528 2.048 0.8192 0.8192 1.6384 1.4336 2.4576 2.2528 0.8192 0.6144 1.4336 1.2288 2.2528 1.8432 0.8192 0.6144 1.8432 1.4336 2.6624 2.048l0.2048 0.2048c0.6144 0.6144 1.4336 1.024 2.048 1.6384 0.8192 0.6144 1.8432 1.2288 2.6624 2.048l0.4096 0.2048c0.6144 0.4096 1.4336 1.024 2.048 1.4336 0.8192 0.6144 1.8432 1.2288 2.6624 1.8432l0.8192 0.6144c0.6144 0.4096 1.024 0.8192 1.6384 1.024 0.8192 0.6144 1.8432 1.2288 2.6624 1.6384l0.8192 0.4096c0.6144 0.4096 1.2288 0.8192 1.8432 1.024 0.8192 0.4096 1.6384 1.024 2.4576 1.4336l1.4336 0.8192c0.6144 0.2048 1.024 0.6144 1.6384 0.8192 0.8192 0.4096 1.8432 1.024 2.6624 1.4336l1.4336 0.8192c0.4096 0.2048 1.024 0.4096 1.4336 0.8192 1.024 0.6144 2.048 1.024 3.2768 1.6384l1.2288 0.6144c0.4096 0.2048 0.6144 0.4096 1.024 0.4096 18.2272 8.3968 30.1056 26.624 30.1056 46.4896v28.2624c0 17.408-14.1312 31.5392-31.5392 31.5392h-18.432c-1.2288 0-2.6624 0-4.5056 0.2048h-0.8192c-1.4336 0.2048-2.8672 0.2048-4.096 0.6144l-0.8192 0.2048c-1.4336 0.2048-2.8672 0.6144-4.096 0.8192 0 0-0.4096 0-0.4096 0.2048-1.024 0.2048-2.4576 0.6144-3.8912 1.2288l-0.8192 0.2048c-1.4336 0.4096-2.6624 1.024-3.8912 1.4336l-0.6144 0.2048-3.6864 1.8432-0.4096 0.2048c-1.024 0.6144-2.2528 1.2288-3.4816 2.048l-0.4096 0.4096c-1.2288 0.8192-2.4576 1.6384-3.4816 2.4576 0 0-0.2048 0-0.2048 0.2048-1.024 0.8192-2.2528 1.8432-3.4816 2.8672l-0.2048 0.2048c-1.024 0.8192-2.048 1.8432-3.072 3.072l-0.2048 0.2048c-2.048 2.048-3.8912 4.5056-5.7344 6.9632v0.2048c-0.8192 1.2288-1.6384 2.4576-2.4576 3.8912-1.6384 2.6624-2.8672 5.5296-4.096 8.3968v0.2048c-2.4576 6.5536-3.8912 13.7216-3.8912 20.8896v72.704c84.7872 68.1984 190.8736 106.496 299.8272 108.3392v-181.0432c0-7.168-1.2288-14.336-3.8912-21.0944v-0.2048c-1.2288-2.8672-2.4576-5.7344-3.8912-8.192 0 0 0-0.2048-0.2048-0.2048-0.6144-1.2288-1.4336-2.4576-2.4576-3.6864l-0.2048-0.2048c-1.6384-2.4576-3.4816-4.7104-5.7344-6.9632l-0.2048-0.2048c-1.2288-1.2288-2.2528-2.2528-3.2768-3.072l-0.2048-0.2048c-1.024-1.024-2.2528-1.8432-3.2768-2.6624l-0.2048-0.2048c-1.024-0.6144-2.048-1.4336-3.4816-2.4576l-0.4096-0.2048c-1.4336-0.8192-2.4576-1.6384-3.6864-2.2528l-0.2048-0.2048-3.6864-1.8432-0.4096-0.2048c-1.2288-0.6144-2.6624-1.024-3.8912-1.6384l-0.8192-0.2048c-1.4336-0.4096-2.8672-0.8192-4.096-1.2288h-0.4096c-1.2288-0.4096-2.4576-0.6144-4.096-0.8192l-0.8192-0.2048c-1.4336-0.2048-2.8672-0.4096-4.096-0.6144h-0.8192c-1.6384-0.2048-3.072-0.2048-4.5056-0.2048h-18.432c-17.408 0-31.5392-14.1312-31.5392-31.5392v-28.2624c0-20.0704 11.8784-38.2976 30.1056-46.4896 0.4096-0.2048 0.6144-0.4096 1.024-0.4096l1.4336-0.6144c1.024-0.4096 2.048-1.024 3.072-1.4336 0.4096-0.2048 0.8192-0.4096 1.4336-0.6144l1.6384-0.8192c0.8192-0.4096 1.8432-0.8192 2.6624-1.4336 0.6144-0.2048 1.024-0.6144 1.6384-0.8192l1.4336-0.8192c0.8192-0.4096 1.6384-1.024 2.4576-1.4336 0.6144-0.4096 1.2288-0.8192 1.8432-1.024l0.8192-0.4096c0.8192-0.6144 1.8432-1.024 2.6624-1.6384 0.6144-0.4096 1.2288-0.8192 1.6384-1.2288l0.6144-0.4096c1.024-0.6144 1.8432-1.2288 2.8672-1.8432 0.6144-0.4096 1.2288-0.8192 1.8432-1.4336l0.4096-0.4096c0.8192-0.6144 1.8432-1.2288 2.6624-2.048 0.6144-0.4096 1.2288-1.024 1.8432-1.4336l0.4096-0.4096c0.8192-0.6144 1.8432-1.4336 2.6624-2.048 0.8192-0.6144 1.4336-1.2288 2.2528-1.8432 0.8192-0.6144 1.6384-1.4336 2.4576-2.048 0.8192-0.6144 1.4336-1.2288 2.2528-1.8432 0.8192-0.8192 1.6384-1.4336 2.4576-2.2528 0.8192-0.6144 1.4336-1.4336 2.048-2.048 0.8192-0.8192 1.6384-1.4336 2.4576-2.2528l2.048-2.048c0.8192-0.8192 1.4336-1.6384 2.2528-2.4576 0.6144-0.6144 1.2288-1.4336 2.048-2.2528 0.8192-0.8192 1.4336-1.6384 2.2528-2.4576 0.6144-0.8192 1.2288-1.4336 1.8432-2.2528 0.6144-0.8192 1.4336-1.6384 2.048-2.6624l0.2048-0.2048c0.6144-0.6144 1.024-1.4336 1.6384-2.048 0.6144-0.8192 1.4336-1.8432 2.048-2.6624l0.2048-0.2048c0.4096-0.6144 1.024-1.4336 1.4336-2.048 0.6144-0.8192 1.2288-1.8432 1.8432-2.6624l0.4096-0.4096 1.2288-1.8432c0.6144-0.8192 1.024-1.6384 1.6384-2.6624l0.6144-1.024c0.4096-0.6144 0.6144-1.024 1.024-1.6384 0.6144-0.8192 1.024-1.8432 1.6384-2.6624l0.6144-1.024c0.4096-0.6144 0.6144-1.024 1.024-1.6384 0.4096-0.8192 1.024-1.8432 1.4336-2.6624l0.8192-1.4336c0.2048-0.4096 0.6144-1.024 0.8192-1.4336 0.4096-1.024 1.024-1.8432 1.4336-2.8672l0.6144-1.4336 0.6144-1.2288c0.6144-1.2288 1.2288-2.4576 1.6384-3.6864l0.6144-1.2288c0.2048-0.2048 0.2048-0.6144 0.4096-0.8192 0.8192-1.8432 1.6384-3.8912 2.4576-5.9392l0.4096-1.024 1.8432-4.9152c0.2048-0.4096 0.2048-0.8192 0.4096-1.2288l0.4096-1.4336c0.4096-1.2288 0.8192-2.2528 1.024-3.4816 0.2048-0.6144 0.2048-1.024 0.4096-1.4336l0.4096-1.8432c0.2048-1.024 0.6144-1.8432 0.8192-2.8672 0.2048-0.6144 0.2048-1.2288 0.4096-1.8432l0.4096-1.4336c0.2048-1.024 0.4096-2.048 0.6144-2.8672 0.2048-0.6144 0.2048-1.4336 0.4096-2.048l0.2048-1.2288 0.6144-3.072c0.2048-0.8192 0.2048-1.4336 0.4096-2.2528v-0.6144c0.2048-1.2288 0.4096-2.4576 0.6144-3.4816 0.2048-0.8192 0.2048-1.6384 0.4096-2.2528v-0.6144c0.2048-1.2288 0.2048-2.2528 0.4096-3.4816 0-1.024 0.2048-1.8432 0.2048-2.6624v-0.2048c0.2048-1.2288 0.2048-2.4576 0.2048-3.4816s0.2048-2.048 0.2048-3.072c0-1.2288 0.2048-2.4576 0.2048-3.6864v-4.096-1.2288-0.8192c0-2.2528 0-4.5056-0.2048-6.9632v-2.048c-0.4096-5.5296-0.8192-11.0592-1.8432-16.7936 0-0.4096-0.2048-0.8192-0.2048-1.4336l-0.2048-1.2288c-0.4096-1.8432-0.6144-3.8912-1.024-5.7344-0.2048-1.024-0.4096-1.8432-0.6144-2.8672l-0.2048-1.2288c-0.2048-1.2288-0.6144-2.4576-0.8192-3.6864-0.4096-1.6384-0.8192-3.072-1.2288-4.7104l-0.2048-0.4096c-0.2048-0.8192-0.4096-1.6384-0.8192-2.6624l-1.8432-5.5296-0.6144-1.8432c-0.8192-2.2528-1.6384-4.3008-2.4576-6.3488l-0.2048-0.4096c-18.6368-46.08-56.32-82.1248-103.2192-98.5088l-1.4336-0.4096c-1.8432-0.6144-3.6864-1.2288-5.7344-1.8432-0.8192-0.2048-1.8432-0.6144-2.6624-0.8192l-4.9152-1.2288c-1.2288-0.2048-2.4576-0.6144-3.4816-0.8192l-0.8192-0.2048c-1.2288-0.2048-2.2528-0.6144-3.4816-0.8192-1.6384-0.4096-3.2768-0.6144-4.9152-0.8192l-1.2288-0.2048c-0.6144-0.2048-1.4336-0.2048-2.048-0.4096-2.2528-0.4096-4.3008-0.6144-6.5536-0.8192l-1.024-0.2048c-0.2048 0-0.6144 0-0.8192-0.2048-3.072-0.4096-5.7344-0.6144-8.6016-0.6144h-0.2048c-1.4336 0-2.6624 0-4.096-0.2048H348.7744c-1.2288 0-2.6624 0-3.8912 0.2048h-0.2048c-2.6624 0.2048-5.5296 0.4096-8.6016 0.6144-0.2048 0-0.6144 0-0.8192 0.2048l-1.024 0.2048c-2.2528 0.2048-4.3008 0.6144-6.5536 0.8192-0.6144 0.2048-1.4336 0.2048-2.048 0.4096l-1.2288 0.2048c-1.6384 0.2048-3.2768 0.6144-4.9152 0.8192-1.2288 0.2048-2.4576 0.6144-3.4816 0.8192l-0.6144 0.2048c-1.4336 0.4096-2.6624 0.6144-3.6864 0.8192-1.6384 0.4096-3.2768 0.8192-4.9152 1.4336-0.8192 0.2048-1.8432 0.4096-2.6624 0.8192-2.048 0.6144-3.8912 1.2288-5.7344 1.8432l-1.4336 0.4096c-6.7584 2.4576-13.5168 5.3248-20.0704 8.3968-5.12 2.4576-11.264 0.4096-13.7216-4.5056s-0.4096-11.264 4.5056-13.7216c7.168-3.6864 14.7456-6.7584 22.3232-9.4208l1.6384-0.6144c2.048-0.8192 4.3008-1.4336 6.3488-2.048 1.024-0.2048 2.048-0.6144 2.8672-0.8192 1.8432-0.6144 3.6864-1.024 5.5296-1.4336 1.4336-0.4096 2.6624-0.6144 4.096-1.024h0.2048l0.6144-0.2048c1.4336-0.4096 2.6624-0.6144 4.096-0.8192 1.8432-0.4096 3.6864-0.6144 5.5296-1.024l1.2288-0.2048c0.8192-0.2048 1.6384-0.2048 2.4576-0.4096 2.048-0.4096 4.3008-0.6144 7.3728-1.024h0.6144c0.4096 0 1.024-0.2048 1.4336-0.2048 3.4816-0.4096 6.5536-0.6144 9.6256-0.8192h0.4096c1.4336 0 2.8672 0 4.5056-0.2048h11.264c1.4336 0 3.072 0 4.5056 0.2048h0.2048c3.072 0.2048 6.144 0.4096 9.6256 0.8192 0.4096 0 1.024 0.2048 1.4336 0.2048h0.6144c2.8672 0.4096 5.12 0.6144 7.3728 1.024 0.8192 0.2048 1.6384 0.2048 2.4576 0.4096l1.024 0.2048c1.8432 0.4096 3.6864 0.6144 5.5296 1.024 1.4336 0.2048 2.6624 0.6144 4.096 0.8192l0.8192 0.2048c1.4336 0.4096 2.6624 0.6144 3.8912 1.024 1.8432 0.4096 3.6864 1.024 5.5296 1.4336 1.024 0.2048 2.048 0.6144 3.072 0.8192 2.048 0.6144 4.3008 1.2288 6.3488 2.048l1.6384 0.6144c52.4288 18.432 94.4128 58.5728 115.3024 110.1824l0.2048 0.6144c0.8192 2.2528 1.8432 4.7104 2.6624 6.9632 0.2048 0.6144 0.4096 1.4336 0.8192 2.048 0.6144 2.048 1.4336 4.096 2.048 6.144 0.2048 1.024 0.6144 1.8432 0.8192 2.8672l0.2048 0.4096c0.4096 1.8432 1.024 3.4816 1.4336 5.3248 0.4096 1.4336 0.6144 2.8672 1.024 4.3008l0.2048 1.2288c0.2048 1.2288 0.6144 2.2528 0.8192 3.4816 0.4096 2.048 0.8192 4.3008 1.2288 6.3488l0.2048 0.8192c0.2048 0.6144 0.2048 1.2288 0.4096 1.8432 1.024 6.3488 1.6384 12.4928 2.048 18.8416v2.4576c0.2048 2.4576 0.2048 5.12 0.2048 7.5776V508.1088c0 1.4336 0 2.6624-0.2048 4.096 0 1.2288-0.2048 2.2528-0.2048 3.4816 0 1.2288-0.2048 2.6624-0.4096 3.8912v0.2048c0 1.024-0.2048 2.048-0.2048 3.072-0.2048 1.2288-0.2048 2.6624-0.4096 3.8912v0.6144c-0.2048 0.8192-0.2048 1.8432-0.4096 2.6624-0.2048 1.2288-0.4096 2.6624-0.6144 3.8912l-0.2048 0.6144c-0.2048 0.8192-0.2048 1.8432-0.4096 2.6624-0.2048 1.2288-0.4096 2.2528-0.6144 3.4816l-0.2048 1.024-0.6144 2.4576c-0.2048 1.2288-0.6144 2.2528-0.8192 3.4816l-0.4096 1.4336c-0.2048 0.8192-0.4096 1.4336-0.6144 2.2528-0.2048 1.2288-0.6144 2.2528-1.024 3.2768l-0.4096 1.6384c-0.2048 0.6144-0.4096 1.2288-0.6144 2.048-0.4096 1.2288-0.8192 2.6624-1.2288 3.8912l-0.4096 1.2288c-0.2048 0.6144-0.4096 1.024-0.6144 1.6384-0.6144 1.8432-1.2288 3.6864-2.048 5.5296l-0.4096-1.2288c-0.8192 2.2528-1.8432 4.5056-2.6624 6.5536l-0.6144 1.2288-0.4096 0.8192-1.8432 4.3008c-0.2048 0.6144-0.6144 1.2288-0.8192 1.6384l-0.6144 1.2288c-0.6144 1.024-1.024 2.2528-1.6384 3.2768-0.4096 0.6144-0.6144 1.2288-1.024 1.8432l-0.8192 1.4336c-0.6144 1.024-1.024 2.048-1.6384 3.072-0.4096 0.6144-0.8192 1.4336-1.2288 2.048l-0.6144 1.024-1.8432 3.072c-0.4096 0.6144-0.8192 1.2288-1.2288 2.048l-0.6144 1.024c-0.6144 1.024-1.2288 2.048-1.8432 2.8672-0.4096 0.8192-1.024 1.4336-1.4336 2.2528l-0.2048 0.4096c-0.8192 1.024-1.4336 2.048-2.2528 3.072-0.6144 0.8192-1.024 1.4336-1.6384 2.2528l-0.2048 0.2048c-0.8192 1.024-1.4336 2.048-2.2528 3.072l-1.8432 2.4576-0.2048 0.2048c-0.8192 1.024-1.6384 1.8432-2.2528 2.8672-0.6144 0.8192-1.4336 1.6384-2.048 2.4576-0.8192 1.024-1.6384 1.8432-2.4576 2.8672-0.8192 0.8192-1.4336 1.6384-2.2528 2.4576-0.8192 0.8192-1.6384 1.8432-2.6624 2.6624-0.8192 0.8192-1.4336 1.6384-2.2528 2.2528l-2.6624 2.6624c-0.8192 0.8192-1.6384 1.4336-2.4576 2.2528-0.8192 0.8192-1.8432 1.6384-2.6624 2.4576-0.8192 0.8192-1.6384 1.4336-2.4576 2.2528-1.024 0.8192-1.8432 1.6384-2.8672 2.4576-0.8192 0.6144-1.6384 1.4336-2.4576 2.048-1.024 0.8192-2.048 1.6384-2.8672 2.2528l-0.4096 0.4096c-0.8192 0.6144-1.4336 1.024-2.2528 1.6384-1.024 0.8192-2.048 1.4336-3.072 2.2528l-0.4096 0.4096c-0.8192 0.6144-1.4336 1.024-2.2528 1.6384-1.024 0.8192-2.048 1.4336-3.072 2.048l-0.6144 0.4096c-0.6144 0.4096-1.4336 0.8192-2.048 1.4336l-3.072 1.8432-0.8192 0.4096c-0.6144 0.4096-1.4336 0.8192-2.048 1.2288-1.024 0.6144-1.8432 1.024-2.8672 1.6384l-1.2288 0.6144c-0.6144 0.4096-1.2288 0.8192-2.048 1.024-1.024 0.6144-2.048 1.024-3.072 1.6384l-1.4336 0.8192c-0.6144 0.2048-1.2288 0.6144-1.6384 0.8192-1.2288 0.6144-2.4576 1.2288-3.6864 1.6384l-1.2288 0.6144c-0.4096 0.2048-1.024 0.4096-1.4336 0.6144-11.0592 4.9152-18.0224 15.9744-18.0224 27.8528v28.2624c0 6.144 4.9152 11.0592 11.0592 11.0592h18.432c1.8432 0 3.6864 0 5.9392 0.2048h1.2288c1.8432 0.2048 3.8912 0.4096 5.7344 0.6144l1.024 0.2048c1.8432 0.4096 3.6864 0.6144 5.3248 1.2288h0.4096c1.8432 0.4096 3.6864 1.024 5.5296 1.6384l1.024 0.4096c1.8432 0.6144 3.6864 1.2288 5.3248 2.048l0.4096 0.2048c1.8432 0.8192 3.4816 1.6384 5.12 2.4576l0.4096 0.2048c1.6384 0.8192 3.2768 1.8432 4.9152 2.8672l0.8192 0.4096c1.6384 1.024 3.2768 2.2528 4.7104 3.2768l0.2048 0.2048c1.4336 1.024 2.8672 2.2528 4.5056 3.6864l0.2048 0.2048c1.4336 1.2288 2.8672 2.6624 4.096 4.096l0.2048 0.2048c2.8672 3.072 5.5296 6.144 7.7824 9.4208 1.2288 1.8432 2.2528 3.4816 3.4816 5.3248l0.2048 0.2048c2.048 3.4816 3.8912 7.168 5.3248 11.0592v0.2048c3.4816 9.216 5.3248 18.6368 5.3248 28.4672V1013.76c0 5.7344-4.5056 10.24-10.24 10.24H512z" fill="#1C1D21" p-id="15110"></path><path d="M243.9168 363.52c-3.072 0-6.144-1.4336-8.192-4.096-3.4816-4.5056-2.4576-10.8544 2.048-14.336 1.024-0.8192 1.8432-1.4336 2.8672-2.048 4.5056-3.2768 11.0592-2.2528 14.336 2.2528 3.2768 4.5056 2.2528 11.0592-2.2528 14.336-0.8192 0.6144-1.6384 1.2288-2.6624 1.8432-1.8432 1.4336-4.096 2.048-6.144 2.048z" fill="#1C1D21" p-id="15111"></path><path d="M512 1024c-136.8064 0-265.4208-53.248-362.0864-149.9136S0 648.8064 0 512 53.248 246.5792 149.9136 149.9136 375.1936 0 512 0s265.4208 53.248 362.0864 149.9136S1024 375.1936 1024 512s-53.248 265.4208-149.9136 362.0864S648.8064 1024 512 1024z m0-1003.52C241.0496 20.48 20.48 241.0496 20.48 512s220.5696 491.52 491.52 491.52 491.52-220.5696 491.52-491.52S782.9504 20.48 512 20.48z" fill="#1C1D21" p-id="15112"></path><path d="M210.7392 514.048c-5.7344 0-10.24-4.5056-10.24-10.24 0-4.5056 0.2048-8.8064 0.6144-13.312 0.6144-5.7344 5.5296-9.8304 11.0592-9.216 5.5296 0.6144 9.8304 5.5296 9.216 11.0592-0.4096 3.6864-0.6144 7.5776-0.6144 11.264 0.2048 5.9392-4.3008 10.4448-10.0352 10.4448zM244.1216 601.2928c-2.8672 0-5.5296-1.2288-7.5776-3.4816-11.4688-12.9024-20.48-27.8528-26.8288-44.032-2.048-5.3248 0.6144-11.264 5.9392-13.312s11.264 0.6144 13.312 5.9392c5.3248 13.9264 12.9024 26.624 22.9376 37.6832 3.6864 4.3008 3.4816 10.6496-0.8192 14.5408-2.048 1.6384-4.5056 2.6624-6.9632 2.6624z" fill="#FFECE9" p-id="15113"></path><path d="M353.8944 579.1744m-62.464 0a62.464 62.464 0 1 0 124.928 0 62.464 62.464 0 1 0-124.928 0Z" fill="#DCFDFF" p-id="15114"></path><path d="M353.8944 652.0832c-40.1408 0-72.704-32.5632-72.704-72.704s32.5632-72.704 72.704-72.704 72.704 32.5632 72.704 72.704-32.5632 72.704-72.704 72.704z m0-125.1328c-28.8768 0-52.224 23.3472-52.224 52.224s23.3472 52.224 52.224 52.224 52.224-23.3472 52.224-52.224-23.3472-52.224-52.224-52.224z" fill="#1C1D21" p-id="15115"></path><path d="M353.8944 579.1744m-23.552 0a23.552 23.552 0 1 0 47.104 0 23.552 23.552 0 1 0-47.104 0Z" fill="#FF3E63" p-id="15116"></path><path d="M353.8944 612.9664c-18.6368 0-33.792-15.1552-33.792-33.792s15.1552-33.792 33.792-33.792 33.792 15.1552 33.792 33.792-15.1552 33.792-33.792 33.792z m0-46.8992c-7.3728 0-13.312 5.9392-13.312 13.312s5.9392 13.312 13.312 13.312 13.312-5.9392 13.312-13.312-5.9392-13.312-13.312-13.312zM436.4288 1018.0608c-5.7344 0-10.24-4.5056-10.24-10.24v-94.8224c0-5.7344 4.5056-10.24 10.24-10.24s10.24 4.5056 10.24 10.24v94.8224c0 5.7344-4.5056 10.24-10.24 10.24zM271.5648 962.7648c-5.7344 0-10.24-4.5056-10.24-10.24v-39.3216c0-5.7344 4.5056-10.24 10.24-10.24s10.24 4.5056 10.24 10.24v39.3216c0 5.5296-4.7104 10.24-10.24 10.24zM271.5648 887.1936c-5.7344 0-10.24-4.5056-10.24-10.24v-5.7344c0-5.7344 4.5056-10.24 10.24-10.24s10.24 4.5056 10.24 10.24v5.7344c0 5.5296-4.7104 10.24-10.24 10.24zM436.4288 887.1936c-5.7344 0-10.24-4.5056-10.24-10.24v-5.7344c0-5.7344 4.5056-10.24 10.24-10.24s10.24 4.5056 10.24 10.24v5.7344c0 5.5296-4.5056 10.24-10.24 10.24z" fill="#1C1D21" p-id="15117"></path><path d="M331.3664 420.4544l3.8912 29.696 40.1408-36.4544c20.0704-18.2272 31.1296-42.1888 31.1296-67.1744v-22.528c-0.8192-0.2048-1.4336-0.4096-2.2528-0.6144-1.6384-0.4096-3.4816-1.024-5.12-1.4336-1.2288-0.4096-2.6624-0.6144-4.096-1.024s-2.8672-0.6144-4.3008-1.024c-1.6384-0.4096-3.4816-0.6144-5.3248-1.024-1.2288-0.2048-2.2528-0.4096-3.4816-0.6144-2.2528-0.4096-4.7104-0.6144-6.9632-0.8192-0.6144 0-1.4336-0.2048-2.048-0.2048-3.072-0.4096-6.144-0.6144-9.216-0.8192h-0.2048c-1.8432 0-3.8912-0.2048-5.7344-0.2048-1.2288 0-2.6624-0.2048-3.8912-0.2048-1.2288 0-2.6624 0-3.8912 0.2048-1.8432 0-3.8912 0-5.7344 0.2048h-0.2048c-3.072 0.2048-6.144 0.4096-9.216 0.8192-0.6144 0-1.4336 0.2048-2.048 0.2048-2.2528 0.2048-4.7104 0.6144-6.9632 0.8192-1.2288 0.2048-2.2528 0.4096-3.4816 0.6144-1.8432 0.2048-3.4816 0.6144-5.3248 1.024-1.4336 0.2048-2.8672 0.6144-4.3008 1.024-1.4336 0.4096-2.6624 0.6144-4.096 1.024-1.8432 0.4096-3.4816 0.8192-5.12 1.4336-0.8192 0.2048-1.4336 0.4096-2.2528 0.6144v9.6256c0 16.9984 5.3248 33.9968 15.36 48.7424 7.9872 11.8784 12.9024 24.7808 14.7456 38.0928z" fill="#FF8939" p-id="15118"></path><path d="M335.2576 460.3904c-1.2288 0-2.4576-0.2048-3.4816-0.6144-3.4816-1.2288-6.144-4.5056-6.5536-8.192l-3.8912-29.696c-1.6384-11.8784-5.9392-23.1424-12.9024-33.5872-11.0592-16.5888-16.9984-35.4304-16.9984-54.4768v-9.6256c0-4.5056 3.072-8.6016 7.3728-9.8304 0.8192-0.2048 1.6384-0.4096 2.2528-0.6144 1.8432-0.6144 3.6864-1.024 5.5296-1.4336 1.4336-0.4096 2.6624-0.6144 4.096-1.024h0.2048l0.6144-0.2048c1.4336-0.4096 2.6624-0.6144 4.096-0.8192 1.8432-0.4096 3.6864-0.6144 5.5296-1.024l1.2288-0.2048c0.8192-0.2048 1.6384-0.2048 2.4576-0.4096 2.048-0.4096 4.3008-0.6144 7.3728-1.024h0.6144c0.4096 0 1.024-0.2048 1.4336-0.2048 3.4816-0.4096 6.5536-0.6144 9.6256-0.8192h0.4096c1.4336 0 2.8672 0 4.5056-0.2048h11.264c1.4336 0 3.072 0 4.5056 0.2048h0.2048c3.072 0.2048 6.144 0.4096 9.6256 0.8192 0.4096 0 1.024 0.2048 1.4336 0.2048h0.6144c2.8672 0.4096 5.12 0.6144 7.3728 1.024 0.8192 0.2048 1.6384 0.2048 2.4576 0.4096l1.024 0.2048c1.8432 0.4096 3.6864 0.6144 5.5296 1.024 1.4336 0.2048 2.6624 0.6144 4.096 0.8192l0.8192 0.2048c1.4336 0.4096 2.6624 0.6144 3.8912 1.024 1.8432 0.4096 3.6864 1.024 5.5296 1.4336 0.8192 0.2048 1.6384 0.4096 2.2528 0.6144 4.3008 1.2288 7.3728 5.3248 7.3728 9.8304v22.528c0 27.8528-12.288 54.4768-34.6112 74.752L342.016 457.728c-1.8432 1.8432-4.3008 2.6624-6.7584 2.6624z m-23.552-128.4096v1.8432c0 14.9504 4.7104 29.9008 13.5168 43.008s14.336 27.2384 16.1792 42.3936l1.4336 10.24 25.6-23.1424c18.0224-16.384 27.8528-37.4784 27.8528-59.5968v-14.7456c-1.024-0.2048-2.2528-0.6144-3.2768-0.8192l-0.8192-0.2048c-1.2288-0.2048-2.2528-0.6144-3.4816-0.8192-1.6384-0.4096-3.2768-0.6144-4.9152-0.8192l-1.2288-0.2048c-0.6144-0.2048-1.4336-0.2048-2.048-0.4096-2.2528-0.4096-4.3008-0.6144-6.5536-0.8192l-1.024-0.2048c-0.2048 0-0.6144 0-0.8192-0.2048-3.072-0.4096-5.7344-0.6144-8.6016-0.6144h-0.2048c-1.4336 0-2.6624 0-4.096-0.2048H348.7744c-1.2288 0-2.6624 0-3.8912 0.2048h-0.2048c-2.6624 0.2048-5.5296 0.4096-8.6016 0.6144-0.2048 0-0.6144 0-0.8192 0.2048l-1.024 0.2048c-2.2528 0.2048-4.3008 0.6144-6.5536 0.8192-0.6144 0.2048-1.4336 0.2048-2.048 0.4096l-1.2288 0.2048c-1.6384 0.2048-3.2768 0.6144-4.9152 0.8192-1.2288 0.2048-2.4576 0.6144-3.4816 0.8192l-0.6144 0.2048c-1.4336 0.4096-2.6624 0.6144-3.6864 0.8192z" fill="#1C1D21" p-id="15119"></path><path d="M357.9904 381.952c-3.6864 0-7.168-2.048-9.0112-5.3248-2.048-3.6864-4.3008-7.3728-6.5536-11.0592-0.6144-0.8192-1.024-1.6384-1.6384-2.4576-2.8672-4.9152-1.4336-11.0592 3.4816-14.1312 4.9152-2.8672 11.0592-1.4336 14.1312 3.4816 0.4096 0.6144 0.6144 1.024 1.024 1.6384 2.8672 4.096 5.3248 8.3968 7.7824 12.9024 2.6624 4.9152 0.8192 11.264-4.3008 13.9264-1.6384 0.6144-3.2768 1.024-4.9152 1.024z" fill="#FFC5B3" p-id="15120"></path><path d="M631.808 373.76l-116.5312 3.2768c-14.5408 0.4096-26.2144 12.0832-26.624 26.624L485.376 520.192c-0.2048 7.5776 2.6624 14.9504 7.9872 20.2752L700.416 747.52c10.6496 10.6496 28.0576 10.6496 38.912 0l60.0064-60.0064 60.0064-60.0064c10.6496-10.6496 10.6496-28.0576 0-38.912l-207.2576-206.848c-5.3248-5.3248-12.6976-8.192-20.2752-7.9872z m-49.5616 96.8704c-11.264 11.264-29.4912 11.264-40.5504 0-11.264-11.264-11.264-29.4912 0-40.5504 11.264-11.264 29.4912-11.264 40.5504 0 11.264 11.264 11.264 29.4912 0 40.5504z" fill="#EF4265" p-id="15121"></path><path d="M720.0768 765.952c-10.0352 0-19.456-3.8912-26.624-11.0592L486.1952 547.84c-7.3728-7.3728-11.264-17.408-11.0592-27.648l3.2768-116.5312c0.6144-20.0704 16.5888-36.0448 36.6592-36.6592l116.5312-3.2768c10.4448-0.4096 20.48 3.6864 27.648 11.0592l207.2576 206.848c14.7456 14.7456 14.7456 38.7072 0 53.248l-119.808 119.808c-7.168 7.3728-16.5888 11.264-26.624 11.264z m-87.8592-381.952l-116.5312 3.2768c-9.216 0.2048-16.5888 7.5776-16.7936 16.7936l-3.2768 116.5312c-0.2048 4.7104 1.6384 9.4208 5.12 12.6976l207.0528 207.0528c3.2768 3.2768 7.5776 5.12 12.288 5.12 4.5056 0 9.0112-1.8432 12.288-5.12L851.968 620.544c6.7584-6.7584 6.7584-17.6128 0-24.3712L644.9152 389.12c-3.4816-3.4816-7.9872-5.3248-12.6976-5.12z m-70.2464 105.2672c-10.0352 0-19.8656-3.8912-27.648-11.4688-15.1552-15.1552-15.1552-39.936 0-55.0912 15.1552-15.1552 39.936-15.1552 55.0912 0 15.1552 15.1552 15.1552 39.936 0 55.0912-7.3728 7.7824-17.408 11.4688-27.4432 11.4688z m20.2752-18.6368z m-20.2752-38.7072c-4.7104 0-9.4208 1.8432-13.1072 5.3248-3.4816 3.4816-5.3248 8.192-5.3248 13.1072 0 4.9152 1.8432 9.6256 5.3248 13.1072 7.168 7.168 18.8416 7.168 26.2144 0 7.168-7.168 7.168-18.8416 0-26.2144-3.6864-3.4816-8.3968-5.3248-13.1072-5.3248z" fill="#1C1D21" p-id="15122"></path><path d="M532.6848 532.0704c-2.6624 0-5.3248-1.024-7.168-3.072l-6.3488-6.3488c-4.096-4.096-4.096-10.4448 0-14.5408s10.4448-4.096 14.5408 0l6.3488 6.3488c4.096 4.096 4.096 10.4448 0 14.5408-2.048 2.2528-4.7104 3.072-7.3728 3.072zM701.0304 700.416c-2.6624 0-5.3248-1.024-7.168-3.072l-142.1312-142.1312c-4.096-4.096-4.096-10.4448 0-14.5408s10.4448-4.096 14.5408 0l142.1312 142.1312c4.096 4.096 4.096 10.4448 0 14.5408-2.048 2.048-4.7104 3.072-7.3728 3.072z" fill="#FFAEC3" p-id="15123"></path><path d="M684.8512 561.9712l-11.264 11.264c-0.6144 0.6144-1.6384 0.6144-2.2528 0l-13.1072-13.1072c-0.6144-0.6144-0.6144-1.6384 0-2.2528l20.48-20.48c4.5056-4.5056 4.5056-11.8784 0-16.5888-4.5056-4.5056-11.8784-4.5056-16.5888 0l-6.9632 6.9632-14.1312-14.1312c-3.4816-3.4816-9.0112-3.4816-12.4928 0-3.4816 3.4816-3.4816 9.0112 0 12.4928l14.1312 14.1312-1.024 1.024c-9.6256 9.6256-9.6256 25.6 0 35.2256l13.1072 13.1072c9.6256 9.6256 25.6 9.6256 35.2256 0l11.264-11.264c0.6144-0.6144 1.6384-0.6144 2.2528 0l13.1072 13.1072c0.6144 0.6144 0.6144 1.6384 0 2.2528l-20.48 20.48c-4.5056 4.5056-4.5056 11.8784 0 16.5888 4.5056 4.5056 11.8784 4.5056 16.5888 0l10.4448-10.4448 14.1312 14.1312c3.4816 3.4816 9.0112 3.4816 12.4928 0 3.4816-3.4816 3.4816-9.0112 0-12.4928l-14.336-14.336c7.5776-9.8304 6.7584-23.7568-2.2528-32.768l-13.1072-13.1072c-9.6256-9.4208-25.6-9.4208-35.2256 0.2048z" fill="#FFF0CC" p-id="15124"></path><path d="M634.88 511.1808c2.2528 0 4.5056 0.8192 6.3488 2.6624l14.1312 14.1312 6.9632-6.9632c2.2528-2.2528 5.3248-3.4816 8.192-3.4816 3.072 0 5.9392 1.2288 8.192 3.4816 4.5056 4.5056 4.5056 11.8784 0 16.5888l-20.48 20.48c-0.6144 0.6144-0.6144 1.6384 0 2.2528l13.1072 13.1072c0.2048 0.2048 0.6144 0.4096 1.024 0.4096s0.8192-0.2048 1.024-0.4096l11.264-11.264c4.9152-4.9152 11.264-7.3728 17.6128-7.3728s12.6976 2.4576 17.6128 7.3728l13.1072 13.1072c9.0112 9.0112 9.6256 22.9376 2.2528 32.768l14.336 14.336c3.4816 3.4816 3.4816 9.0112 0 12.4928-1.6384 1.6384-3.8912 2.6624-6.3488 2.6624-2.2528 0-4.5056-0.8192-6.3488-2.6624l-13.9264-14.336-10.4448 10.4448c-2.2528 2.2528-5.3248 3.4816-8.192 3.4816-3.072 0-5.9392-1.2288-8.192-3.4816-4.5056-4.5056-4.5056-11.8784 0-16.5888l20.48-20.48c0.6144-0.6144 0.6144-1.6384 0-2.2528l-13.1072-13.1072c-0.2048-0.2048-0.6144-0.4096-1.024-0.4096s-0.8192 0.2048-1.024 0.4096L690.176 589.824c-4.9152 4.9152-11.264 7.3728-17.6128 7.3728-6.3488 0-12.6976-2.4576-17.6128-7.3728l-13.1072-13.1072c-9.6256-9.6256-9.6256-25.6 0-35.2256l1.024-1.024-14.1312-14.1312c-3.4816-3.4816-3.4816-9.0112 0-12.4928 1.6384-1.8432 3.8912-2.6624 6.144-2.6624m0-20.48c-7.7824 0-15.1552 3.072-20.6848 8.6016-11.4688 11.4688-11.4688 30.1056 0 41.5744l2.6624 2.6624c-1.8432 4.9152-2.6624 10.24-2.6624 15.7696 0 12.0832 4.7104 23.552 13.312 32.1536l13.1072 13.1072c8.6016 8.6016 19.8656 13.312 32.1536 13.312-1.6384 9.8304 1.4336 20.2752 9.0112 27.8528 6.144 6.144 14.1312 9.4208 22.7328 9.4208 6.5536 0 12.9024-2.048 18.2272-5.7344 5.5296 5.5296 12.9024 8.6016 20.6848 8.6016s15.1552-3.072 20.6848-8.6016c11.4688-11.4688 11.4688-30.1056 0-41.5744l-4.5056-4.5056c3.4816-14.9504-0.6144-31.1296-12.0832-42.5984l-13.1072-13.1072c-8.6016-8.6016-19.8656-13.312-32.1536-13.312 0.2048-1.6384 0.4096-3.2768 0.4096-5.12 0-8.6016-3.2768-16.5888-9.4208-22.7328-6.144-6.144-14.1312-9.4208-22.7328-9.4208-4.9152 0-9.8304 1.024-14.1312 3.2768l-1.024-1.024c-5.12-5.5296-12.4928-8.6016-20.48-8.6016z" fill="#1C1D21" p-id="15125"></path></svg>