<svg xmlns="http://www.w3.org/2000/svg" viewBox="0 0 1024 1024" version="1.1"><path d="M512 512m-501.76 0a501.76 501.76 0 1 0 1003.52 0 501.76 501.76 0 1 0-1003.52 0Z" fill="#8CEEF9" p-id="14500"></path><path d="M822.0672 711.4752h-147.6608c-41.7792 0-75.776-33.9968-75.776-75.776s33.9968-75.776 75.776-75.776h147.6608c41.7792 0 75.776 33.9968 75.776 75.776s-33.9968 75.776-75.776 75.776z" fill="#FFECE9" p-id="14501"></path><path d="M822.0672 721.7152h-147.6608c-47.5136 0-86.016-38.5024-86.016-86.016s38.5024-86.016 86.016-86.016h147.6608c47.5136 0 86.016 38.5024 86.016 86.016s-38.7072 86.016-86.016 86.016z m-147.8656-151.552c-36.0448 0-65.536 29.4912-65.536 65.536s29.4912 65.536 65.536 65.536h147.6608c36.0448 0 65.536-29.4912 65.536-65.536s-29.4912-65.536-65.536-65.536h-147.6608z" fill="#1C1D21" p-id="14502"></path><path d="M861.5936 623.4112c-25.6 0-46.4896-20.6848-46.4896-46.4896V530.432c0-15.7696 12.9024-28.672 28.672-28.672h35.4304c15.7696 0 28.672 12.9024 28.672 28.672v46.4896c0.2048 25.8048-20.6848 46.4896-46.2848 46.4896z" fill="#AA4D2D" p-id="14503"></path><path d="M861.5936 633.6512c-31.3344 0-56.7296-25.3952-56.7296-56.7296V530.432c0-21.504 17.408-38.912 38.912-38.912h35.4304c21.504 0 38.912 17.408 38.912 38.912v46.4896c0.2048 31.3344-25.1904 56.7296-56.5248 56.7296z m-17.8176-121.4464c-10.24 0-18.432 8.192-18.432 18.432v46.4896c0 19.8656 16.1792 36.2496 36.2496 36.2496s36.2496-16.1792 36.2496-36.2496v-46.4896c0-10.24-8.192-18.432-18.432-18.432H843.776z" fill="#1C1D21" p-id="14504"></path><path d="M965.2224 581.2224c4.096-15.1552 0.2048-31.9488-11.6736-43.8272-11.8784-11.8784-28.672-15.7696-43.8272-11.6736-4.096 15.1552-0.2048 31.9488 11.6736 43.8272s28.672 15.7696 43.8272 11.6736z" fill="#FFECE9" p-id="14505"></path><path d="M953.5488 593.1008c-14.5408 0-28.8768-5.7344-39.3216-16.1792-13.9264-13.9264-19.456-34.6112-14.336-53.6576 1.024-3.4816 3.6864-6.3488 7.168-7.168 19.0464-5.12 39.7312 0.4096 53.6576 14.336 13.9264 13.9264 19.456 34.6112 14.336 53.6576-1.024 3.4816-3.6864 6.3488-7.168 7.168-4.9152 1.2288-9.6256 1.8432-14.336 1.8432z m11.6736-11.8784zM918.3232 534.528c-0.8192 10.24 2.8672 20.48 10.24 27.8528 7.3728 7.3728 17.6128 11.0592 27.8528 10.24 0.8192-10.24-2.8672-20.48-10.24-27.8528s-17.6128-11.0592-27.8528-10.24z" fill="#1C1D21" p-id="14506"></path><path d="M758.1696 581.2224c-4.096-15.1552-0.2048-31.9488 11.6736-43.8272 11.8784-11.8784 28.672-15.7696 43.8272-11.6736 4.096 15.1552 0.2048 31.9488-11.6736 43.8272-11.8784 11.8784-28.672 15.7696-43.8272 11.6736z" fill="#FFECE9" p-id="14507"></path><path d="M769.8432 593.1008c-4.7104 0-9.6256-0.6144-14.336-1.8432-3.4816-1.024-6.3488-3.6864-7.168-7.168-5.12-19.0464 0.4096-39.7312 14.336-53.6576 13.9264-13.9264 34.6112-19.456 53.6576-14.336 3.4816 1.024 6.3488 3.6864 7.168 7.168 5.12 19.0464-0.4096 39.7312-14.336 53.6576-10.6496 10.4448-24.7808 16.1792-39.3216 16.1792z m-2.8672-20.6848c10.24 0.8192 20.48-2.8672 27.8528-10.24 7.3728-7.3728 11.0592-17.6128 10.24-27.8528-10.24-0.8192-20.48 2.8672-27.8528 10.24-7.5776 7.5776-11.0592 17.8176-10.24 27.8528zM815.104 772.096c-5.7344 0-10.24-4.5056-10.24-10.24v-50.3808c0-5.7344 4.5056-10.24 10.24-10.24s10.24 4.5056 10.24 10.24V761.856c0 5.7344-4.5056 10.24-10.24 10.24zM756.5312 772.096c-5.7344 0-10.24-4.5056-10.24-10.24v-50.3808c0-5.7344 4.5056-10.24 10.24-10.24s10.24 4.5056 10.24 10.24V761.856c0 5.7344-4.5056 10.24-10.24 10.24z" fill="#1C1D21" p-id="14508"></path><path d="M903.7824 481.6896c0-7.168-5.5296-13.312-12.6976-13.5168-3.2768 0-6.3488 1.024-8.6016 3.072-3.6864-7.7824-11.4688-13.1072-20.6848-13.1072s-16.9984 5.3248-20.6848 13.1072c-2.2528-2.048-5.3248-3.072-8.6016-3.072-7.168 0.2048-12.6976 6.3488-12.6976 13.5168v8.192c0 6.7584 5.5296 12.0832 12.0832 12.0832h60.0064c6.7584 0 12.0832-5.5296 12.0832-12.0832v-8.192z" fill="#FFECE9" p-id="14509"></path><path d="M891.4944 512.2048H831.488c-12.288 0-22.3232-10.0352-22.3232-22.3232v-8.192c0-12.9024 10.24-23.552 22.7328-23.7568 1.8432 0 3.6864 0.2048 5.5296 0.6144 6.144-6.5536 14.9504-10.4448 24.1664-10.4448s18.0224 3.8912 24.1664 10.4448c1.8432-0.4096 3.6864-0.6144 5.5296-0.6144 12.4928 0.2048 22.7328 10.8544 22.7328 23.7568v8.192c0 12.288-10.0352 22.3232-22.528 22.3232z m-58.9824-33.792c-1.4336 0-2.6624 1.6384-2.6624 3.2768v8.192c0 1.024 0.8192 1.8432 1.8432 1.8432h60.0064c1.024 0 1.8432-0.8192 1.8432-1.8432v-8.192c0-1.6384-1.2288-3.2768-2.6624-3.2768-0.8192 0-1.4336 0.4096-1.8432 0.6144-2.4576 2.048-5.7344 2.8672-8.8064 2.2528-3.072-0.6144-5.7344-2.6624-7.168-5.5296-2.048-4.3008-6.5536-7.168-11.4688-7.168s-9.4208 2.8672-11.4688 7.168c-1.4336 2.8672-4.096 4.9152-7.168 5.5296-3.072 0.6144-6.3488-0.2048-8.8064-2.2528-0.2048-0.4096-0.8192-0.6144-1.6384-0.6144zM861.5936 595.968c-4.3008 0-8.3968-1.6384-11.4688-4.7104l-4.096-4.096c-4.096-4.096-4.096-10.4448 0-14.5408s10.4448-4.096 14.5408 0l1.024 1.024 1.024-1.024c4.096-4.096 10.4448-4.096 14.5408 0s4.096 10.4448 0 14.5408l-4.096 4.096c-3.072 3.072-7.168 4.7104-11.4688 4.7104z" fill="#1C1D21" p-id="14510"></path><path d="M201.9328 711.4752h147.6608c41.7792 0 75.776-33.9968 75.776-75.776s-33.9968-75.776-75.776-75.776H201.9328c-41.7792 0-75.776 33.9968-75.776 75.776s33.9968 75.776 75.776 75.776z" fill="#FFECE9" p-id="14511"></path><path d="M349.7984 721.7152H201.9328c-47.5136 0-86.016-38.5024-86.016-86.016s38.5024-86.016 86.016-86.016h147.6608c47.5136 0 86.016 38.5024 86.016 86.016s-38.5024 86.016-85.8112 86.016z m-147.8656-151.552c-36.0448 0-65.536 29.4912-65.536 65.536s29.4912 65.536 65.536 65.536h147.6608c36.0448 0 65.536-29.4912 65.536-65.536s-29.4912-65.536-65.536-65.536H201.9328z" fill="#1C1D21" p-id="14512"></path><path d="M162.4064 623.4112c25.6 0 46.4896-20.6848 46.4896-46.4896V530.432c0-15.7696-12.9024-28.672-28.672-28.672H144.5888c-15.7696 0-28.672 12.9024-28.672 28.672v46.4896c0 25.8048 20.8896 46.4896 46.4896 46.4896z" fill="#AA4D2D" p-id="14513"></path><path d="M162.4064 633.6512c-31.3344 0-56.7296-25.3952-56.7296-56.7296V530.432c0-21.504 17.408-38.912 38.912-38.912H180.224c21.504 0 38.912 17.408 38.912 38.912v46.4896c0 31.3344-25.6 56.7296-56.7296 56.7296z m-17.8176-121.4464c-10.24 0-18.432 8.192-18.432 18.432v46.4896c0 19.8656 16.1792 36.2496 36.2496 36.2496s36.2496-16.384 36.2496-36.4544V530.432c0-10.24-8.192-18.432-18.432-18.432H144.5888z" fill="#1C1D21" p-id="14514"></path><path d="M58.7776 581.2224c-4.096-15.1552-0.2048-31.9488 11.6736-43.8272 11.8784-11.8784 28.672-15.7696 43.8272-11.6736 4.096 15.1552 0.2048 31.9488-11.6736 43.8272s-28.672 15.7696-43.8272 11.6736z" fill="#FFECE9" p-id="14515"></path><path d="M70.4512 593.1008c-4.7104 0-9.6256-0.6144-14.336-1.8432-3.4816-1.024-6.3488-3.6864-7.168-7.168-5.12-19.0464 0.4096-39.7312 14.336-53.6576 13.9264-13.9264 34.6112-19.456 53.6576-14.336 3.4816 1.024 6.3488 3.6864 7.168 7.168 5.12 19.0464-0.4096 39.7312-14.336 53.6576-10.4448 10.4448-24.576 16.1792-39.3216 16.1792z m-2.6624-20.6848c10.24 0.8192 20.48-2.8672 27.8528-10.24 7.3728-7.3728 11.0592-17.6128 10.24-27.8528-10.24-0.8192-20.48 2.8672-27.8528 10.24-7.5776 7.5776-11.264 17.8176-10.24 27.8528z" fill="#1C1D21" p-id="14516"></path><path d="M265.8304 581.2224c4.096-15.1552 0.2048-31.9488-11.6736-43.8272-11.8784-11.8784-28.672-15.7696-43.8272-11.6736-4.096 15.1552-0.2048 31.9488 11.6736 43.8272 11.8784 11.8784 28.672 15.7696 43.8272 11.6736z" fill="#FFECE9" p-id="14517"></path><path d="M254.1568 593.1008c-14.5408 0-28.8768-5.7344-39.3216-16.1792-13.9264-13.9264-19.456-34.6112-14.336-53.6576 1.024-3.4816 3.6864-6.3488 7.168-7.168 19.0464-5.12 39.7312 0.4096 53.6576 14.336s19.456 34.6112 14.336 53.6576c-1.024 3.4816-3.6864 6.3488-7.168 7.168-4.7104 1.2288-9.4208 1.8432-14.336 1.8432z m11.6736-11.8784zM219.136 534.528c-0.8192 10.24 2.8672 20.48 10.24 27.8528 7.3728 7.3728 17.6128 11.0592 27.8528 10.24 0.8192-10.24-2.8672-20.48-10.24-27.8528s-17.6128-11.0592-27.8528-10.24zM208.896 772.096c-5.7344 0-10.24-4.5056-10.24-10.24v-50.3808c0-5.7344 4.5056-10.24 10.24-10.24s10.24 4.5056 10.24 10.24V761.856c0 5.7344-4.7104 10.24-10.24 10.24zM267.4688 772.096c-5.7344 0-10.24-4.5056-10.24-10.24v-50.3808c0-5.7344 4.5056-10.24 10.24-10.24s10.24 4.5056 10.24 10.24V761.856c0 5.7344-4.5056 10.24-10.24 10.24z" fill="#1C1D21" p-id="14518"></path><path d="M120.2176 481.6896c0-7.168 5.5296-13.312 12.6976-13.5168 3.2768 0 6.3488 1.024 8.6016 3.072 3.6864-7.7824 11.4688-13.1072 20.6848-13.1072s16.9984 5.3248 20.6848 13.1072c2.2528-2.048 5.3248-3.072 8.6016-3.072 7.168 0.2048 12.6976 6.3488 12.6976 13.5168v8.192c0 6.7584-5.5296 12.0832-12.0832 12.0832H132.5056c-6.7584 0-12.0832-5.5296-12.0832-12.0832v-8.192z" fill="#FFECE9" p-id="14519"></path><path d="M192.3072 512.2048H132.5056c-12.288 0-22.3232-10.0352-22.3232-22.3232v-8.192c0-12.9024 10.24-23.552 22.7328-23.7568 1.8432 0 3.6864 0.2048 5.5296 0.6144 6.144-6.5536 14.9504-10.4448 24.1664-10.4448s18.0224 3.8912 24.1664 10.4448c1.8432-0.4096 3.6864-0.6144 5.5296-0.6144 12.4928 0.2048 22.7328 10.8544 22.7328 23.7568v8.192c-0.2048 12.288-10.4448 22.3232-22.7328 22.3232z m-58.9824-33.792c-1.4336 0-2.6624 1.6384-2.6624 3.2768v8.192c0 1.024 0.8192 1.8432 1.8432 1.8432H192.512c1.024 0 1.8432-0.8192 1.8432-1.8432v-8.192c0-1.6384-1.2288-3.2768-2.6624-3.2768-0.8192 0-1.4336 0.4096-1.8432 0.6144-2.4576 2.048-5.7344 2.8672-8.8064 2.2528-3.072-0.6144-5.7344-2.6624-7.168-5.5296-2.048-4.3008-6.5536-7.168-11.4688-7.168s-9.4208 2.8672-11.4688 7.168c-1.4336 2.8672-4.096 4.9152-7.168 5.5296-3.072 0.6144-6.3488-0.2048-8.8064-2.2528-0.2048-0.4096-0.8192-0.6144-1.6384-0.6144zM162.4064 595.968c-4.3008 0-8.3968-1.6384-11.4688-4.7104l-4.096-4.096c-4.096-4.096-4.096-10.4448 0-14.5408s10.4448-4.096 14.5408 0l1.024 1.024 1.024-1.024c4.096-4.096 10.4448-4.096 14.5408 0s4.096 10.4448 0 14.5408l-4.096 4.096c-3.072 3.072-7.168 4.7104-11.4688 4.7104z" fill="#1C1D21" p-id="14520"></path><path d="M512 1024c-136.8064 0-265.4208-53.248-362.0864-149.9136C53.248 777.4208 0 648.8064 0 512S53.248 246.5792 149.9136 149.9136C246.5792 53.248 375.1936 0 512 0s265.4208 53.248 362.0864 149.9136C970.752 246.5792 1024 375.1936 1024 512s-53.248 265.4208-149.9136 362.0864C777.4208 970.752 648.8064 1024 512 1024z m0-1003.52C241.0496 20.48 20.48 241.0496 20.48 512s220.5696 491.52 491.52 491.52 491.52-220.5696 491.52-491.52S782.9504 20.48 512 20.48z" fill="#1C1D21" p-id="14521"></path><path d="M512 1024c-136.8064 0-265.4208-53.248-362.0864-149.9136C53.248 777.4208 0 648.8064 0 512S53.248 246.5792 149.9136 149.9136C246.5792 53.248 375.1936 0 512 0s265.4208 53.248 362.0864 149.9136C970.752 246.5792 1024 375.1936 1024 512s-53.248 265.4208-149.9136 362.0864C777.4208 970.752 648.8064 1024 512 1024z m0-1003.52C241.0496 20.48 20.48 241.0496 20.48 512s220.5696 491.52 491.52 491.52 491.52-220.5696 491.52-491.52S782.9504 20.48 512 20.48z" fill="#1C1D21" p-id="14522"></path><path d="M76.8 761.856C163.4304 912.384 325.8368 1013.76 512 1013.76s348.5696-101.376 435.2-251.904h-870.4z" fill="#0ABFB2" p-id="14523"></path><path d="M512 1024c-91.7504 0-181.6576-24.576-260.096-70.8608-76.1856-45.056-139.8784-109.3632-183.9104-186.1632-1.8432-3.072-1.8432-7.168 0-10.24s5.12-5.12 8.8064-5.12h870.4c3.6864 0 6.9632 2.048 8.8064 5.12 1.8432 3.072 1.8432 6.9632 0 10.24-44.2368 76.8-107.7248 141.1072-183.9104 186.1632C693.6576 999.424 603.7504 1024 512 1024zM94.8224 772.096C184.32 915.2512 342.6304 1003.52 512 1003.52s327.68-88.2688 417.1776-231.424H94.8224z" fill="#1C1D21" p-id="14524"></path><path d="M406.9376 239.4112h11.0592V189.6448h-11.0592c-12.9024 0-23.3472 10.4448-23.3472 23.3472v2.8672c0 13.1072 10.4448 23.552 23.3472 23.552zM617.6768 239.4112h-11.0592V189.6448h11.0592c12.9024 0 23.3472 10.4448 23.3472 23.3472v2.8672c0.2048 13.1072-10.4448 23.552-23.3472 23.552z" fill="#FFC5B3" p-id="14525"></path><path d="M417.9968 249.6512h-11.0592c-18.6368 0-33.5872-15.1552-33.5872-33.5872v-2.8672c0-18.6368 15.1552-33.5872 33.5872-33.5872h11.0592c5.7344 0 10.24 4.5056 10.24 10.24V239.616c0 5.5296-4.5056 10.0352-10.24 10.0352z m-11.0592-49.7664c-7.168 0-13.1072 5.9392-13.1072 13.1072v2.8672c0 7.168 5.9392 13.1072 13.1072 13.1072h0.8192V199.8848h-0.8192zM617.6768 249.6512h-11.0592c-5.7344 0-10.24-4.5056-10.24-10.24V189.6448c0-5.7344 4.5056-10.24 10.24-10.24h11.0592c18.6368 0 33.5872 15.1552 33.5872 33.5872v2.8672c0.2048 18.8416-14.9504 33.792-33.5872 33.792z m-0.8192-20.48h0.8192c7.168 0 13.1072-5.9392 13.1072-13.1072v-2.8672c0-7.168-5.9392-13.1072-13.1072-13.1072h-0.8192v29.0816z" fill="#1C1D21" p-id="14526"></path><path d="M599.8592 428.8512l-36.864-22.7328c-14.5408-9.0112-23.3472-24.9856-23.3472-41.984v-14.9504c0-8.192 4.9152-15.5648 12.4928-19.2512 31.9488-14.9504 54.0672-47.5136 54.0672-85.1968v-43.008c0-52.0192-42.1888-94.0032-94.0032-94.0032-52.0192 0-94.0032 42.1888-94.0032 94.0032v43.2128c0 37.6832 22.1184 70.0416 54.0672 85.1968 7.5776 3.4816 12.4928 10.8544 12.4928 19.2512v14.9504c0 17.2032-8.8064 32.9728-23.3472 41.984l-36.864 22.7328c-29.9008 18.432-47.9232 50.9952-47.9232 86.2208V995.328c43.2128 12.0832 88.6784 18.6368 135.7824 18.6368s92.5696-6.5536 135.7824-18.6368V515.072c-0.4096-35.2256-18.6368-67.7888-48.3328-86.2208z" fill="#FFC5B3" p-id="14527"></path><path d="M512 107.52c-47.9232 0-87.4496 35.84-93.184 82.1248 81.7152-0.2048 93.5936-41.984 93.5936-41.984s11.8784 41.5744 92.9792 41.984C599.4496 143.36 559.9232 107.52 512 107.52z" fill="#FF8939" p-id="14528"></path><path d="M418.816 199.8848c-2.8672 0-5.7344-1.2288-7.5776-3.4816-2.048-2.2528-2.8672-5.12-2.4576-7.9872 6.5536-52.0192 50.9952-91.136 103.424-91.136s96.8704 39.1168 103.424 91.136c0.4096 2.8672-0.6144 5.9392-2.4576 7.9872-2.048 2.2528-4.9152 3.4816-7.7824 3.4816-54.4768-0.4096-80.6912-18.432-92.7744-32.768-12.4928 14.336-38.912 32.768-93.7984 32.768zM512 117.76c-37.888 0-70.8608 25.6-80.6912 61.2352 60.8256-3.8912 71.0656-33.792 71.2704-34.2016 1.2288-4.3008 5.3248-7.3728 9.8304-7.3728 4.5056 0 8.6016 3.072 9.8304 7.3728 0.4096 1.2288 10.6496 30.1056 70.4512 34.2016-10.0352-35.6352-42.8032-61.2352-80.6912-61.2352z" fill="#1C1D21" p-id="14529"></path><path d="M512 1024c-47.104 0-93.5936-6.3488-138.6496-19.0464-4.5056-1.2288-7.3728-5.3248-7.3728-9.8304V515.072c0-38.912 19.8656-74.3424 52.8384-94.8224l36.864-22.7328c11.6736-7.168 18.6368-19.6608 18.6368-33.3824v-14.9504c0-4.3008-2.4576-7.9872-6.5536-9.8304-36.4544-17.2032-60.0064-54.272-60.0064-94.4128V201.728c0-57.5488 46.6944-104.2432 104.2432-104.2432 27.8528 0 54.0672 10.8544 73.728 30.5152 19.6608 19.6608 30.5152 45.8752 30.5152 73.728v43.2128c0 40.1408-23.552 77.2096-60.0064 94.4128-4.096 1.8432-6.5536 5.7344-6.5536 9.8304v14.9504c0 13.7216 6.9632 26.2144 18.6368 33.3824l36.864 22.7328c33.1776 20.48 52.8384 55.9104 52.8384 94.8224v480.0512c0 4.5056-3.072 8.6016-7.3728 9.8304-45.056 12.6976-91.5456 19.0464-138.6496 19.0464z m-125.5424-36.6592c40.7552 10.8544 82.944 16.1792 125.5424 16.1792 42.5984 0 84.7872-5.5296 125.5424-16.1792V515.072c0-31.744-16.1792-60.6208-43.2128-77.4144l-36.864-22.7328c-17.8176-10.8544-28.2624-29.9008-28.2624-50.7904v-14.9504c0-12.0832 7.168-23.1424 18.2272-28.4672 29.2864-13.7216 48.128-43.6224 48.128-75.776V201.728c0-22.3232-8.8064-43.4176-24.576-59.1872-15.7696-15.7696-36.864-24.576-59.1872-24.576-46.2848 0-83.7632 37.6832-83.7632 83.7632v43.2128c0 32.3584 18.8416 62.0544 48.128 75.776 11.0592 5.3248 18.2272 16.384 18.2272 28.4672v14.9504c0 20.8896-10.6496 39.7312-28.2624 50.7904l-36.864 22.7328c-27.0336 16.7936-43.2128 45.6704-43.2128 77.4144v472.2688z" fill="#1C1D21" p-id="14530"></path><path d="M599.8592 428.8512l-25.1904-15.5648c-19.6608 6.7584-40.7552 10.4448-62.6688 10.4448-21.9136 0-43.008-3.6864-62.6688-10.4448l-25.1904 15.5648c-29.9008 18.432-47.9232 50.9952-47.9232 86.2208v480.0512c43.2128 12.0832 88.6784 18.6368 135.7824 18.6368s92.5696-6.5536 135.7824-18.6368V515.072c0-35.2256-18.2272-67.7888-47.9232-86.2208z" fill="#FF9E5C" p-id="14531"></path><path d="M512 1024c-47.104 0-93.5936-6.3488-138.6496-19.0464-4.5056-1.2288-7.3728-5.3248-7.3728-9.8304V515.072c0-38.912 19.8656-74.3424 52.8384-94.8224l25.1904-15.5648c2.6624-1.6384 5.7344-2.048 8.8064-1.024 19.0464 6.5536 39.1168 10.0352 59.392 10.0352 20.2752 0 40.3456-3.2768 59.392-10.0352 2.8672-1.024 6.144-0.6144 8.8064 1.024l25.1904 15.5648c33.1776 20.48 52.8384 55.9104 52.8384 94.8224v480.0512c0 4.5056-3.072 8.6016-7.3728 9.8304-45.4656 12.6976-91.9552 19.0464-139.0592 19.0464z m-125.5424-36.6592c40.7552 10.8544 82.944 16.1792 125.5424 16.1792 42.5984 0 84.7872-5.5296 125.5424-16.1792V515.072c0-31.744-16.1792-60.6208-43.2128-77.4144l-21.0944-12.9024c-19.8656 6.3488-40.3456 9.6256-61.44 9.6256-20.8896 0-41.5744-3.2768-61.44-9.6256l-21.0944 12.9024c-27.0336 16.7936-43.2128 45.6704-43.2128 77.4144v472.2688z" fill="#1C1D21" p-id="14532"></path><path d="M312.1152 363.52c-36.4544-0.6144-66.3552 30.1056-66.3552 66.56v9.4208c0 12.288 10.0352 22.3232 22.3232 22.3232s22.3232-10.0352 22.3232-22.3232v-10.0352c0-10.6496 7.9872-20.0704 18.6368-21.0944 12.288-1.2288 22.7328 8.6016 22.7328 20.48v551.5264c14.5408 5.5296 29.4912 10.6496 44.6464 14.7456V428.8512c-0.2048-35.6352-28.8768-64.7168-64.3072-65.3312z" fill="#C67552" p-id="14533"></path><path d="M376.2176 1005.3632c-1.024 0-1.8432-0.2048-2.8672-0.4096-15.1552-4.3008-30.5152-9.4208-45.4656-15.1552-3.8912-1.4336-6.5536-5.3248-6.5536-9.6256V428.8512c0-2.8672-1.2288-5.7344-3.4816-7.7824s-5.12-2.8672-7.9872-2.6624c-5.3248 0.4096-9.4208 5.3248-9.4208 11.0592v10.0352c0 18.0224-14.5408 32.5632-32.5632 32.5632s-32.5632-14.5408-32.5632-32.5632V430.08c0-20.48 8.3968-40.5504 23.1424-55.0912 14.5408-14.336 33.5872-21.9136 53.6576-21.7088 40.96 0.6144 74.1376 34.6112 74.1376 75.3664v566.272c0 3.2768-1.4336 6.144-4.096 8.192-1.6384 1.6384-3.8912 2.2528-5.9392 2.2528z m-34.4064-32.1536c7.9872 2.8672 15.9744 5.7344 24.1664 8.192V428.8512c0-29.9008-24.1664-54.4768-54.0672-54.8864-14.5408-0.2048-28.2624 5.3248-38.912 15.7696-10.8544 10.6496-16.9984 25.3952-16.9984 40.5504v9.4208c0 6.5536 5.3248 12.0832 12.0832 12.0832s12.0832-5.3248 12.0832-12.0832v-10.0352c0-16.1792 12.288-29.9008 27.8528-31.3344 8.6016-0.8192 17.408 2.048 23.7568 7.9872 6.3488 5.9392 10.0352 14.1312 10.0352 22.9376v543.9488z" fill="#1C1D21" p-id="14534"></path><path d="M362.9056 673.1776h-29.696c-13.7216 0-24.7808-11.0592-24.7808-24.7808v-15.1552c0-13.7216 11.0592-24.7808 24.7808-24.7808h29.696c17.8176 0 32.1536 14.5408 32.1536 32.3584 0 17.8176-14.336 32.3584-32.1536 32.3584z" fill="#FFC5B3" p-id="14535"></path><path d="M362.9056 683.4176h-29.696c-19.2512 0-35.0208-15.5648-35.0208-35.0208v-15.1552c0-19.2512 15.5648-35.0208 35.0208-35.0208h29.696c23.3472 0 42.5984 19.0464 42.5984 42.5984s-19.2512 42.5984-42.5984 42.5984z m-29.696-64.512c-7.9872 0-14.5408 6.5536-14.5408 14.5408v15.1552c0 7.9872 6.5536 14.5408 14.5408 14.5408h29.696c12.0832 0 22.1184-9.8304 22.1184-22.1184s-9.8304-22.1184-22.1184-22.1184h-29.696z" fill="#1C1D21" p-id="14536"></path><path d="M574.6688 260.096c-13.312 0-25.8048 5.9392-34.6112 15.7696-6.9632 7.7824-16.9984 12.4928-28.0576 12.4928s-21.0944-4.9152-28.0576-12.4928c-8.8064-9.8304-21.2992-15.7696-34.6112-15.7696h-30.72c0 50.9952 41.1648 92.16 92.16 92.16h2.2528c50.9952 0 92.16-41.1648 92.16-92.16h-30.5152z" fill="#FF8939" p-id="14537"></path><path d="M513.024 362.496h-2.2528c-56.5248 0-102.4-45.8752-102.4-102.4 0-5.7344 4.5056-10.24 10.24-10.24h30.72c15.9744 0 31.3344 6.9632 42.1888 19.2512 5.12 5.7344 12.6976 9.216 20.48 9.216s15.1552-3.2768 20.48-9.216c10.8544-12.288 26.2144-19.2512 42.1888-19.2512h30.5152c5.7344 0 10.24 4.5056 10.24 10.24 0 56.5248-45.8752 102.4-102.4 102.4z m-83.3536-92.16c5.12 40.3456 39.5264 71.68 81.3056 71.68h2.2528c41.7792 0 76.1856-31.3344 81.3056-71.68h-19.6608c-10.0352 0-19.8656 4.5056-27.0336 12.288-9.0112 10.24-22.1184 15.9744-35.6352 15.9744s-26.624-5.7344-35.6352-15.9744c-6.9632-7.7824-16.7936-12.288-27.0336-12.288h-19.8656zM440.1152 1018.88c-5.7344 0-10.24-4.5056-10.24-10.24v-116.5312c0-5.7344 4.5056-10.24 10.24-10.24s10.24 4.5056 10.24 10.24v116.5312c0 5.7344-4.5056 10.24-10.24 10.24zM581.632 948.6336c-5.7344 0-10.24-4.5056-10.24-10.24v-70.656c0-5.7344 4.5056-10.24 10.24-10.24s10.24 4.5056 10.24 10.24v70.656c0 5.5296-4.5056 10.24-10.24 10.24zM440.1152 866.9184c-5.7344 0-10.24-4.5056-10.24-10.24V843.776c0-5.7344 4.5056-10.24 10.24-10.24s10.24 4.5056 10.24 10.24v12.9024c0 5.7344-4.5056 10.24-10.24 10.24zM581.632 839.4752c-5.7344 0-10.24-4.5056-10.24-10.24v-12.9024c0-5.7344 4.5056-10.24 10.24-10.24s10.24 4.5056 10.24 10.24v12.9024c0 5.7344-4.5056 10.24-10.24 10.24zM581.632 1018.88c-5.7344 0-10.24-4.5056-10.24-10.24v-33.3824c0-5.7344 4.5056-10.24 10.24-10.24s10.24 4.5056 10.24 10.24v33.3824c0 5.7344-4.5056 10.24-10.24 10.24z" fill="#1C1D21" p-id="14538"></path><path d="M511.5904 703.2832m-23.9616 0a23.9616 23.9616 0 1 0 47.9232 0 23.9616 23.9616 0 1 0-47.9232 0Z" fill="#AA4D2D" p-id="14539"></path><path d="M511.5904 737.4848c-18.8416 0-34.2016-15.36-34.2016-34.2016s15.36-34.2016 34.2016-34.2016 34.2016 15.36 34.2016 34.2016-15.36 34.2016-34.2016 34.2016z m0-47.9232a13.7216 13.7216 0 1 0 0 27.4432 13.7216 13.7216 0 0 0 0-27.4432z" fill="#1C1D21" p-id="14540"></path><path d="M485.5808 782.336c-5.7344 0-10.24-4.5056-10.24-10.24v-13.1072c0-15.7696 6.7584-30.9248 18.6368-41.3696 4.3008-3.6864 10.6496-3.2768 14.5408 1.024 3.6864 4.3008 3.2768 10.6496-1.024 14.5408-7.5776 6.5536-11.6736 15.9744-11.6736 26.0096v13.1072c0 5.5296-4.5056 10.0352-10.24 10.0352zM538.4192 782.336c-5.7344 0-10.24-4.5056-10.24-10.24v-13.1072c0-10.0352-4.3008-19.456-11.6736-26.0096-4.3008-3.6864-4.7104-10.24-1.024-14.5408 3.6864-4.3008 10.24-4.7104 14.5408-1.024 11.8784 10.4448 18.6368 25.6 18.6368 41.3696v13.1072c0 5.9392-4.5056 10.4448-10.24 10.4448z" fill="#1C1D21" p-id="14541"></path><path d="M393.4208 458.5472l-0.4096 1.4336 79.4624 104.448c19.8656 26.0096 59.1872 26.0096 79.0528 0l79.4624-104.448 0.2048-0.6144c-7.9872-12.0832-18.6368-22.528-31.3344-30.5152l-25.1904-15.5648-33.5872 47.3088c-14.336 20.0704-44.2368 20.0704-58.368 0l-33.5872-47.3088-25.1904 15.5648c-12.288 7.7824-22.528 18.0224-30.5152 29.696z" fill="#C67552" p-id="14542"></path><path d="M512 594.3296c-18.8416 0-36.2496-8.6016-47.7184-23.552l-79.4624-104.448c-2.048-2.6624-2.6624-5.9392-1.6384-9.0112l0.4096-1.4336c0.2048-1.024 0.8192-2.048 1.4336-2.8672 9.0112-13.312 20.2752-24.3712 33.792-32.5632l25.1904-15.5648c4.5056-2.8672 10.6496-1.6384 13.7216 2.8672l33.5872 47.3088c4.9152 6.7584 12.4928 10.8544 20.8896 10.8544s15.9744-3.8912 20.8896-10.8544l33.5872-47.3088c1.2288-1.6384 2.8672-3.072 4.9152-3.6864 2.8672-1.024 6.144-0.8192 9.0112 0.8192l25.1904 15.5648c13.9264 8.6016 25.6 19.8656 34.6112 33.5872 1.6384 2.4576 2.048 5.3248 1.4336 8.192l-0.2048 0.6144c-0.4096 1.2288-1.024 2.4576-1.8432 3.6864l-79.4624 104.448c-12.0832 14.7456-29.4912 23.3472-48.3328 23.3472z m-106.7008-134.9632l75.1616 98.9184c7.5776 9.8304 18.8416 15.5648 31.3344 15.5648 12.4928 0 23.7568-5.7344 31.3344-15.5648l75.1616-98.9184c-6.7584-8.6016-14.7456-15.9744-24.1664-21.9136l-16.9984-10.4448-27.8528 39.5264c-8.8064 12.288-22.528 19.456-37.4784 19.456-15.1552 0-28.8768-7.168-37.4784-19.456L446.464 427.2128l-16.9984 10.4448c-9.216 5.7344-17.408 13.1072-24.1664 21.7088z" fill="#1C1D21" p-id="14543"></path><path d="M519.5776 522.24c-3.2768 0-6.3488-1.4336-8.3968-4.3008l-36.6592-51.4048c-3.2768-4.5056-2.2528-11.0592 2.4576-14.336 4.5056-3.2768 11.0592-2.2528 14.336 2.4576l36.6592 51.4048c3.2768 4.5056 2.2528 11.0592-2.4576 14.336-1.8432 1.2288-3.8912 1.8432-5.9392 1.8432zM554.3936 570.9824c-3.072 0-6.144-1.4336-8.192-4.096l-13.5168-17.8176c-3.4816-4.5056-2.4576-10.8544 1.8432-14.336s10.8544-2.4576 14.336 1.8432l13.5168 17.8176c3.4816 4.5056 2.4576 10.8544-1.8432 14.336-1.8432 1.4336-3.8912 2.2528-6.144 2.2528z" fill="#1C1D21" p-id="14544"></path><path d="M417.1776 797.696c-5.7344 0-10.24-4.5056-10.24-10.24v-202.752c0-5.7344 4.5056-10.24 10.24-10.24s10.24 4.5056 10.24 10.24v202.752c0 5.7344-4.7104 10.24-10.24 10.24zM417.1776 558.08c-5.7344 0-10.24-4.5056-10.24-10.24V544.768c0-5.7344 4.5056-10.24 10.24-10.24s10.24 4.5056 10.24 10.24v3.072c0 5.7344-4.7104 10.24-10.24 10.24z" fill="#FFC9A4" p-id="14545"></path><path d="M487.6288 717.6192h-111.4112c-5.7344 0-10.24-4.5056-10.24-10.24s4.5056-10.24 10.24-10.24h111.4112c5.7344 0 10.24 4.5056 10.24 10.24s-4.7104 10.24-10.24 10.24zM647.7824 717.6192h-112.64c-5.7344 0-10.24-4.5056-10.24-10.24s4.5056-10.24 10.24-10.24h112.64c5.7344 0 10.24 4.5056 10.24 10.24s-4.5056 10.24-10.24 10.24z" fill="#1C1D21" p-id="14546"></path></svg>