<svg xmlns="http://www.w3.org/2000/svg" viewBox="0 0 1024 1024" version="1.1"><path d="M512 512m-501.76 0a501.76 501.76 0 1 0 1003.52 0 501.76 501.76 0 1 0-1003.52 0Z" fill="#8CEEF9" p-id="17831"></path><path d="M512 1024c-136.8064 0-265.4208-53.248-362.0864-149.9136C53.248 777.4208 0 648.8064 0 512S53.248 246.5792 149.9136 149.9136C246.5792 53.248 375.1936 0 512 0s265.4208 53.248 362.0864 149.9136C970.752 246.5792 1024 375.1936 1024 512s-53.248 265.4208-149.9136 362.0864C777.4208 970.752 648.8064 1024 512 1024z m0-1003.52C241.0496 20.48 20.48 241.0496 20.48 512s220.5696 491.52 491.52 491.52 491.52-220.5696 491.52-491.52S782.9504 20.48 512 20.48z" fill="#1C1D21" p-id="17832"></path><path d="M698.368 291.6352v322.1504h-194.56V117.3504c0-10.24 12.6976-14.7456 19.0464-6.7584l2.2528 2.6624c34.6112 43.4176 76.5952 80.2816 124.1088 109.1584l15.9744 9.6256c20.48 12.6976 33.1776 35.2256 33.1776 59.5968zM503.808 197.2224l-81.92 68.4032c-18.0224 15.1552-28.672 37.4784-28.672 61.0304v287.1296h110.592V197.2224z" fill="#E0E0E0" p-id="17833"></path><path d="M446.464 244.9408l-24.576 20.48c-18.0224 15.1552-28.672 37.4784-28.672 61.0304v287.1296h53.248v-368.64z" fill="#AAADAD" p-id="17834"></path><path d="M323.584 414.72v199.0656h69.632V392.8064h-47.7184c-12.0832 0-21.9136 9.8304-21.9136 21.9136z" fill="#FF3E63" p-id="17835"></path><path d="M323.584 512.8192v100.7616h-60.416V534.528c0-12.0832 9.8304-21.9136 21.9136-21.9136H323.584z" fill="#E0E0E0" p-id="17836"></path><path d="M698.368 623.8208h-194.56c-5.7344 0-10.24-4.5056-10.24-10.24V117.3504c0-9.0112 5.5296-16.7936 14.1312-19.8656s17.6128-0.4096 23.3472 6.7584l2.2528 2.6624C567.296 149.504 608.256 185.344 654.7456 213.8112l15.9744 9.6256c23.552 14.336 38.2976 40.5504 38.2976 67.9936v322.1504c-0.4096 5.7344-4.9152 10.24-10.6496 10.24z m-184.32-20.48h174.08V291.6352c0-20.48-10.8544-39.936-28.4672-50.5856l-15.9744-9.6256c-48.5376-29.696-91.136-67.1744-126.7712-111.616l-2.2528-2.6624c-0.2048-0.2048-0.2048-0.2048-0.6144-0.2048-0.4096 0.2048-0.4096 0.2048-0.4096 0.4096v485.9904z" fill="#1C1D21" p-id="17837"></path><path d="M503.808 623.8208h-110.592c-5.7344 0-10.24-4.5056-10.24-10.24V326.656c0-26.624 11.6736-51.8144 32.3584-68.8128l81.92-68.4032c3.072-2.4576 7.3728-3.072 10.8544-1.4336 3.6864 1.6384 5.9392 5.3248 5.9392 9.216v416.3584c0 5.7344-4.5056 10.24-10.24 10.24z m-100.352-20.48h90.112V219.136l-65.1264 54.272c-15.7696 13.1072-24.9856 32.5632-24.9856 53.248v276.6848z" fill="#1C1D21" p-id="17838"></path><path d="M448.512 386.6624c-5.7344 0-10.24-4.5056-10.24-10.24v-132.096c0-5.7344 4.5056-10.24 10.24-10.24s10.24 4.5056 10.24 10.24v132.096c0 5.7344-4.5056 10.24-10.24 10.24zM448.512 440.9344c-5.7344 0-10.24-4.5056-10.24-10.24v-12.288c0-5.7344 4.5056-10.24 10.24-10.24s10.24 4.5056 10.24 10.24v12.288c0 5.7344-4.5056 10.24-10.24 10.24zM448.512 501.3504c-5.7344 0-10.24-4.5056-10.24-10.24v-16.384c0-5.7344 4.5056-10.24 10.24-10.24s10.24 4.5056 10.24 10.24v16.384c0 5.7344-4.5056 10.24-10.24 10.24zM393.216 623.8208h-69.632c-5.7344 0-10.24-4.5056-10.24-10.24v-199.0656c0-17.6128 14.336-32.1536 32.1536-32.1536H393.216c5.7344 0 10.24 4.5056 10.24 10.24v220.7744c0 5.9392-4.5056 10.4448-10.24 10.4448z m-59.392-20.48h49.152v-200.2944h-37.4784c-6.3488 0-11.6736 5.12-11.6736 11.6736v188.6208z" fill="#1C1D21" p-id="17839"></path><path d="M323.584 623.8208h-60.416c-5.7344 0-10.24-4.5056-10.24-10.24V534.528c0-17.6128 14.336-32.1536 32.1536-32.1536H323.584c5.7344 0 10.24 4.5056 10.24 10.24v100.7616c0 5.9392-4.5056 10.4448-10.24 10.4448z m-50.176-20.48H313.344v-80.2816h-28.2624c-6.3488 0-11.6736 5.12-11.6736 11.6736v68.608zM546.816 476.5696c-5.7344 0-10.24-4.5056-10.24-10.24v-200.704c0-5.7344 4.5056-10.24 10.24-10.24s10.24 4.5056 10.24 10.24v200.704c0 5.5296-4.5056 10.24-10.24 10.24zM546.816 226.5088c-5.7344 0-10.24-4.5056-10.24-10.24V140.288c0-5.7344 4.5056-10.24 10.24-10.24s10.24 4.5056 10.24 10.24v75.9808c0 5.7344-4.5056 10.24-10.24 10.24zM615.424 491.1104c-19.6608 0-35.84-15.9744-35.84-35.84s15.9744-35.84 35.84-35.84 35.84 15.9744 35.84 35.84-16.1792 35.84-35.84 35.84z m0-51.2c-8.3968 0-15.36 6.9632-15.36 15.36s6.9632 15.36 15.36 15.36 15.36-6.9632 15.36-15.36-6.9632-15.36-15.36-15.36zM615.424 372.1216c-19.6608 0-35.84-15.9744-35.84-35.84s15.9744-35.84 35.84-35.84 35.84 15.9744 35.84 35.84-16.1792 35.84-35.84 35.84z m0-51.2c-8.3968 0-15.36 6.9632-15.36 15.36s6.9632 15.36 15.36 15.36 15.36-6.9632 15.36-15.36c0-8.6016-6.9632-15.36-15.36-15.36z" fill="#1C1D21" p-id="17840"></path><path d="M512 1013.76c252.5184 0 461.2096-186.368 496.4352-429.056-33.3824-1.2288-60.2112-28.672-60.2112-62.464 0 34.4064-28.0576 62.464-62.464 62.464S823.296 556.6464 823.296 522.24c0 34.4064-28.0576 62.464-62.464 62.464S698.368 556.6464 698.368 522.24c0 34.4064-28.0576 62.464-62.464 62.464S573.44 556.6464 573.44 522.24c0 34.4064-28.0576 62.464-62.464 62.464S448.512 556.6464 448.512 522.24c0 34.4064-28.0576 62.464-62.464 62.464S323.584 556.6464 323.584 522.24c0 34.4064-28.0576 62.464-62.464 62.464S198.656 556.6464 198.656 522.24c0 34.4064-28.0576 62.464-62.464 62.464-34.6112 0-62.464-28.0576-62.464-62.464 0 32.9728-25.8048 60.2112-58.1632 62.2592C50.5856 827.1872 259.4816 1013.76 512 1013.76z" fill="#508DEF" p-id="17841"></path><path d="M512 1024c-123.904 0-243.3024-44.8512-336.4864-126.1568-92.16-80.4864-152.7808-191.2832-170.1888-311.9104-0.4096-2.8672 0.4096-5.7344 2.2528-7.9872 1.8432-2.2528 4.5056-3.6864 7.3728-3.6864 27.2384-1.6384 48.5376-24.576 48.5376-52.0192 0-5.7344 4.5056-10.24 10.24-10.24s10.24 4.5056 10.24 10.24c0 28.8768 23.3472 52.224 52.224 52.224S188.416 551.1168 188.416 522.24c0-5.7344 4.5056-10.24 10.24-10.24s10.24 4.5056 10.24 10.24c0 28.8768 23.3472 52.224 52.224 52.224S313.344 551.1168 313.344 522.24c0-5.7344 4.5056-10.24 10.24-10.24s10.24 4.5056 10.24 10.24c0 28.8768 23.3472 52.224 52.224 52.224S438.272 551.1168 438.272 522.24c0-5.7344 4.5056-10.24 10.24-10.24s10.24 4.5056 10.24 10.24c0 28.8768 23.3472 52.224 52.224 52.224S563.2 551.1168 563.2 522.24c0-5.7344 4.5056-10.24 10.24-10.24s10.24 4.5056 10.24 10.24c0 28.8768 23.3472 52.224 52.224 52.224S688.128 551.1168 688.128 522.24c0-5.7344 4.5056-10.24 10.24-10.24s10.24 4.5056 10.24 10.24c0 28.8768 23.3472 52.224 52.224 52.224S813.056 551.1168 813.056 522.24c0-5.7344 4.5056-10.24 10.24-10.24s10.24 4.5056 10.24 10.24c0 28.8768 23.3472 52.224 52.224 52.224S937.984 551.1168 937.984 522.24c0-5.7344 4.5056-10.24 10.24-10.24s10.24 4.5056 10.24 10.24c0 28.2624 22.1184 51.2 50.3808 52.224 2.8672 0 5.7344 1.4336 7.5776 3.6864 1.8432 2.2528 2.6624 5.12 2.2528 7.9872-17.408 120.6272-78.0288 231.2192-170.1888 311.7056A511.95904 511.95904 0 0 1 512 1024zM27.2384 593.1008C66.1504 827.8016 272.7936 1003.52 512 1003.52c239.0016 0 445.44-175.5136 484.7616-409.8048-20.6848-3.8912-38.2976-16.5888-48.5376-33.9968-12.6976 21.2992-35.84 35.4304-62.464 35.4304-26.4192 0-49.7664-14.336-62.464-35.6352-12.6976 21.2992-36.0448 35.6352-62.464 35.6352-26.4192 0-49.7664-14.336-62.464-35.6352-12.6976 21.2992-36.0448 35.6352-62.464 35.6352s-49.7664-14.336-62.464-35.6352c-12.6976 21.2992-36.0448 35.6352-62.464 35.6352-26.4192 0-49.7664-14.336-62.464-35.6352-12.6976 21.2992-36.0448 35.6352-62.464 35.6352-26.4192 0-49.7664-14.336-62.464-35.6352-12.6976 21.2992-36.0448 35.6352-62.464 35.6352s-49.7664-14.336-62.464-35.6352c-12.6976 21.2992-36.0448 35.6352-62.464 35.6352-26.624 0-49.7664-14.336-62.464-35.6352-10.0352 16.7936-26.8288 29.2864-46.4896 33.5872z" fill="#1C1D21" p-id="17842"></path><path d="M322.56 739.328c-12.0832 0-22.9376-5.12-30.3104-13.5168-7.5776 8.192-18.432 13.5168-30.3104 13.5168-12.288 0-23.3472-5.3248-30.72-13.9264-7.5776 8.6016-18.432 13.9264-30.72 13.9264-5.7344 0-10.24-4.5056-10.24-10.24s4.5056-10.24 10.24-10.24c11.264 0 20.48-9.216 20.48-20.48 0-5.7344 4.5056-10.24 10.24-10.24s10.24 4.5056 10.24 10.24c0 11.264 9.216 20.48 20.48 20.48 9.6256 0 17.8176-6.7584 20.0704-15.7696-0.2048-1.6384-0.2048-3.072-0.2048-4.7104 0-5.7344 4.5056-10.24 10.24-10.24h0.8192c5.7344 0 10.24 4.5056 10.24 10.24 0 1.6384 0 3.2768-0.2048 4.7104 2.048 9.0112 10.24 15.7696 20.0704 15.7696 5.7344 0 10.24 4.5056 10.24 10.24s-5.12 10.24-10.6496 10.24zM823.7056 739.328c-12.0832 0-22.9376-5.12-30.3104-13.5168-7.5776 8.192-18.432 13.5168-30.3104 13.5168-12.288 0-23.3472-5.3248-30.72-13.9264-7.5776 8.6016-18.432 13.9264-30.72 13.9264-5.7344 0-10.24-4.5056-10.24-10.24s4.5056-10.24 10.24-10.24c11.264 0 20.48-9.216 20.48-20.48 0-5.7344 4.5056-10.24 10.24-10.24s10.24 4.5056 10.24 10.24c0 11.264 9.216 20.48 20.48 20.48 9.6256 0 17.8176-6.7584 20.0704-15.7696-0.2048-1.6384-0.2048-3.072-0.2048-4.7104 0-5.7344 4.5056-10.24 10.24-10.24h0.8192c5.7344 0 10.24 4.5056 10.24 10.24 0 1.6384 0 3.2768-0.2048 4.7104 2.048 9.0112 10.24 15.7696 20.0704 15.7696 5.7344 0 10.24 4.5056 10.24 10.24s-4.9152 10.24-10.6496 10.24z" fill="#1C1D21" p-id="17843"></path><path d="M625.0496 908.9024H398.9504c-26.624 0-48.128-21.504-48.128-48.128s21.504-48.128 48.128-48.128h225.8944c26.624 0 48.128 21.504 48.128 48.128 0.2048 26.624-21.2992 48.128-47.9232 48.128z" fill="#E0E0E0" p-id="17844"></path><path d="M625.0496 919.1424H398.9504c-32.1536 0-58.368-26.2144-58.368-58.368s26.2144-58.368 58.368-58.368h225.8944c32.1536 0 58.368 26.2144 58.368 58.368s-26.0096 58.368-58.1632 58.368z m-226.0992-96.4608c-20.8896 0-37.888 16.9984-37.888 37.888s16.9984 37.888 37.888 37.888h225.8944c20.8896 0 37.888-16.9984 37.888-37.888s-16.9984-37.888-37.888-37.888H398.9504z" fill="#1C1D21" p-id="17845"></path><path d="M479.4368 812.4416h64.1024v96.4608h-64.1024z" fill="#FF3E63" p-id="17846"></path><path d="M543.5392 919.1424h-64.1024c-5.7344 0-10.24-4.5056-10.24-10.24v-96.4608c0-5.7344 4.5056-10.24 10.24-10.24h64.1024c5.7344 0 10.24 4.5056 10.24 10.24v96.4608c0 5.7344-4.7104 10.24-10.24 10.24z m-53.8624-20.48h43.6224v-75.9808h-43.6224v75.9808z" fill="#1C1D21" p-id="17847"></path><path d="M599.04 812.4416v-18.2272c0-22.528-11.6736-43.4176-30.72-55.0912l-23.552-14.5408c-9.4208-5.7344-14.9504-15.9744-14.9504-27.0336v-9.6256c0-5.3248 3.072-10.0352 7.9872-12.288 20.48-9.6256 34.6112-30.5152 34.6112-54.4768v-27.648c0-33.3824-27.0336-60.2112-60.2112-60.2112-33.3824 0-60.2112 27.0336-60.2112 60.2112v27.648c0 24.1664 14.1312 44.8512 34.6112 54.4768 4.7104 2.2528 7.9872 6.9632 7.9872 12.288v9.6256c0 11.0592-5.7344 21.0944-14.9504 27.0336l-23.552 14.5408c-19.0464 11.8784-30.72 32.768-30.72 55.0912v18.2272h173.6704z" fill="#FFC5B3" p-id="17848"></path><path d="M451.7888 604.7744c52.224-6.7584 60.6208-35.84 60.6208-35.84s8.3968 28.8768 60.0064 35.84v-11.264c0-33.1776-27.0336-60.2112-60.2112-60.2112s-60.2112 27.0336-60.2112 60.2112v11.264z" fill="#FF8939" p-id="17849"></path><path d="M451.7888 615.0144c-2.4576 0-4.9152-0.8192-6.7584-2.4576-2.2528-1.8432-3.4816-4.7104-3.4816-7.7824v-11.264c0-38.7072 31.5392-70.4512 70.2464-70.4512h0.4096c38.7072 0.2048 70.2464 31.744 70.2464 70.4512v11.264c0 2.8672-1.2288 5.7344-3.4816 7.7824-2.2528 1.8432-5.12 2.8672-8.192 2.4576-31.9488-4.3008-49.3568-16.5888-58.5728-27.0336-9.4208 10.4448-27.0336 22.9376-59.1872 27.0336-0.4096-0.2048-0.8192 0-1.2288 0z m60.2112-71.68c-27.2384 0-49.5616 21.9136-49.9712 49.152 34.2016-7.7824 40.3456-26.2144 40.5504-26.4192 1.2288-4.5056 5.3248-7.7824 10.0352-7.5776 4.7104 0 8.6016 3.072 9.6256 7.5776 0.2048 0.6144 6.5536 18.6368 39.936 26.4192-0.6144-27.2384-22.9376-49.152-50.176-49.152z" fill="#1C1D21" p-id="17850"></path><path d="M599.04 822.6816h-174.08c-5.7344 0-10.24-4.5056-10.24-10.24v-18.2272c0-26.2144 13.312-50.176 35.6352-63.8976l23.552-14.5408c6.3488-3.8912 10.24-10.6496 10.24-18.2272v-9.6256c0-1.2288-0.8192-2.4576-2.048-3.072-24.576-11.6736-40.5504-36.6592-40.5504-63.8976v-27.648c0-38.912 31.5392-70.4512 70.4512-70.4512s70.4512 31.5392 70.4512 70.4512v27.648c0 27.2384-15.9744 52.224-40.5504 63.8976-1.2288 0.6144-2.048 1.8432-2.048 3.072v9.6256c0 7.5776 3.8912 14.336 10.24 18.2272l23.552 14.5408c22.3232 13.7216 35.6352 37.6832 35.6352 63.8976v18.2272c0 5.7344-4.5056 10.24-10.24 10.24z m-163.84-20.48h153.6v-7.9872c0-19.0464-9.6256-36.4544-26.0096-46.4896l-23.552-14.5408c-12.4928-7.7824-19.8656-21.0944-19.8656-35.6352v-9.6256c0-9.216 5.5296-17.6128 13.9264-21.504 17.408-8.192 28.672-26.0096 28.672-45.2608v-27.648c0-27.648-22.528-49.9712-49.9712-49.9712s-49.9712 22.528-49.9712 49.9712v27.648c0 19.2512 11.264 37.0688 28.672 45.2608 8.3968 3.8912 13.9264 12.4928 13.9264 21.504v9.6256c0 14.5408-7.3728 28.0576-19.8656 35.6352l-23.552 14.5408c-16.1792 10.0352-26.0096 27.4432-26.0096 46.4896v7.9872z" fill="#1C1D21" p-id="17851"></path><path d="M599.04 812.4416v-18.2272c0-22.528-11.6736-43.4176-30.72-55.0912l-16.1792-10.0352c-12.4928 4.3008-26.0096 6.7584-40.1408 6.7584-14.1312 0-27.648-2.4576-40.1408-6.7584l-16.1792 10.0352c-19.0464 11.8784-30.72 32.768-30.72 55.0912v18.2272h174.08z" fill="#0ABFB2" p-id="17852"></path><path d="M599.04 822.6816h-174.08c-5.7344 0-10.24-4.5056-10.24-10.24v-18.2272c0-26.2144 13.312-50.176 35.6352-63.8976l16.1792-10.0352c2.6624-1.6384 5.7344-2.048 8.8064-1.024 11.8784 4.096 24.1664 6.144 36.864 6.144 12.6976 0 24.9856-2.048 36.864-6.144 2.8672-1.024 6.144-0.6144 8.8064 1.024l16.1792 10.0352c22.3232 13.7216 35.6352 37.6832 35.6352 63.8976v18.2272c-0.4096 5.7344-4.9152 10.24-10.6496 10.24z m-163.84-20.48h153.6v-7.9872c0-19.0464-9.6256-36.4544-26.0096-46.4896l-12.0832-7.3728c-12.4928 3.8912-25.6 5.7344-38.912 5.7344s-26.2144-2.048-38.912-5.7344l-12.0832 7.3728c-16.1792 10.0352-26.0096 27.4432-26.0096 46.4896v7.9872z" fill="#1C1D21" p-id="17853"></path><path d="M420.2496 841.3184h-3.6864c-10.0352 0-18.2272-8.192-18.2272-18.2272v-19.6608c0-6.7584 5.3248-12.0832 12.0832-12.0832h15.9744c6.7584 0 12.0832 5.3248 12.0832 12.0832v19.6608c0 10.0352-8.192 18.2272-18.2272 18.2272z" fill="#FFC5B3" p-id="17854"></path><path d="M420.2496 851.5584h-3.6864c-15.7696 0-28.4672-12.6976-28.4672-28.4672v-19.6608c0-12.288 10.0352-22.3232 22.3232-22.3232h15.9744c12.288 0 22.3232 10.0352 22.3232 22.3232v19.6608c0 15.7696-12.9024 28.4672-28.4672 28.4672z m-10.0352-49.9712c-1.024 0-1.8432 0.8192-1.8432 1.8432v19.6608c0 4.5056 3.6864 7.9872 7.9872 7.9872h3.6864c4.5056 0 7.9872-3.6864 7.9872-7.9872v-19.6608c0-1.024-0.8192-1.8432-1.8432-1.8432h-15.9744z" fill="#1C1D21" p-id="17855"></path><path d="M607.6416 841.3184h-3.6864c-10.0352 0-18.2272-8.192-18.2272-18.2272v-19.6608c0-6.7584 5.3248-12.0832 12.0832-12.0832h15.9744c6.7584 0 12.0832 5.3248 12.0832 12.0832v19.6608c0 10.0352-8.192 18.2272-18.2272 18.2272z" fill="#FFC5B3" p-id="17856"></path><path d="M607.6416 851.5584h-3.6864c-15.7696 0-28.4672-12.6976-28.4672-28.4672v-19.6608c0-12.288 10.0352-22.3232 22.3232-22.3232h15.9744c12.288 0 22.3232 10.0352 22.3232 22.3232v19.6608c0 15.7696-12.9024 28.4672-28.4672 28.4672z m-10.0352-49.9712c-1.024 0-1.8432 0.8192-1.8432 1.8432v19.6608c0 4.5056 3.6864 7.9872 7.9872 7.9872h3.6864c4.5056 0 7.9872-3.6864 7.9872-7.9872v-19.6608c0-1.024-0.8192-1.8432-1.8432-1.8432h-15.9744zM512 822.6816c-5.7344 0-10.24-4.5056-10.24-10.24v-76.5952c0-5.7344 4.5056-10.24 10.24-10.24s10.24 4.5056 10.24 10.24v76.5952c0 5.7344-4.5056 10.24-10.24 10.24z" fill="#1C1D21" p-id="17857"></path><path d="M320.7168 908.9024c17.6128 0 31.9488-14.336 31.9488-31.9488h-0.8192c0 17.6128 14.336 31.9488 31.9488 31.9488s31.9488-14.336 31.9488-31.9488c0 17.6128 14.336 31.9488 31.9488 31.9488s31.9488-14.336 31.9488-31.9488c0 17.6128 14.336 31.9488 31.9488 31.9488s31.9488-14.336 31.9488-31.9488c0 17.6128 14.336 31.9488 31.9488 31.9488s31.9488-14.336 31.9488-31.9488c0 17.6128 14.336 31.9488 31.9488 31.9488s31.9488-14.336 31.9488-31.9488c0 17.6128 14.336 31.9488 31.9488 31.9488v30.1056H320.7168v-30.1056z" fill="#508DEF" p-id="17858"></path><path d="M703.2832 919.1424c-12.6976 0-24.1664-5.7344-31.9488-14.7456-7.7824 9.0112-19.2512 14.7456-31.9488 14.7456s-24.1664-5.7344-31.9488-14.7456c-7.7824 9.0112-19.2512 14.7456-31.9488 14.7456s-24.1664-5.7344-31.9488-14.7456c-7.7824 9.0112-19.2512 14.7456-31.9488 14.7456s-24.1664-5.7344-31.9488-14.7456c-7.7824 9.0112-19.2512 14.7456-31.9488 14.7456s-24.1664-5.7344-31.9488-14.7456c-7.7824 9.0112-19.2512 14.7456-31.9488 14.7456-12.4928 0-23.7568-5.5296-31.5392-14.1312-7.7824 8.6016-19.0464 14.1312-31.5392 14.1312-5.7344 0-10.24-4.5056-10.24-10.24s4.5056-10.24 10.24-10.24c10.24 0 18.8416-7.168 21.0944-16.7936-0.2048-1.6384-0.2048-3.2768-0.2048-4.9152 0-5.7344 4.5056-10.24 10.24-10.24h0.8192c5.7344 0 10.24 4.5056 10.24 10.24 0 1.6384 0 3.2768-0.2048 4.9152 2.2528 9.6256 10.8544 16.7936 21.0944 16.7936 11.8784 0 21.7088-9.8304 21.7088-21.7088 0-5.7344 4.5056-10.24 10.24-10.24s10.24 4.5056 10.24 10.24c0 11.8784 9.8304 21.7088 21.7088 21.7088s21.7088-9.8304 21.7088-21.7088c0-5.7344 4.5056-10.24 10.24-10.24s10.24 4.5056 10.24 10.24c0 11.8784 9.8304 21.7088 21.7088 21.7088s21.7088-9.8304 21.7088-21.7088c0-5.7344 4.5056-10.24 10.24-10.24s10.24 4.5056 10.24 10.24c0 11.8784 9.8304 21.7088 21.7088 21.7088s21.7088-9.8304 21.7088-21.7088c0-5.7344 4.5056-10.24 10.24-10.24s10.24 4.5056 10.24 10.24c0 11.8784 9.8304 21.7088 21.7088 21.7088s21.7088-9.8304 21.7088-21.7088c0-5.7344 4.5056-10.24 10.24-10.24s10.24 4.5056 10.24 10.24c0 11.8784 9.8304 21.7088 21.7088 21.7088 5.7344 0 10.24 4.5056 10.24 10.24s-4.7104 10.24-10.24 10.24zM748.544 919.1424H743.424c-5.7344 0-10.24-4.5056-10.24-10.24s4.5056-10.24 10.24-10.24h5.12c5.7344 0 10.24 4.5056 10.24 10.24s-4.5056 10.24-10.24 10.24zM280.576 919.1424h-5.12c-5.7344 0-10.24-4.5056-10.24-10.24s4.5056-10.24 10.24-10.24h5.12c5.7344 0 10.24 4.5056 10.24 10.24s-4.5056 10.24-10.24 10.24zM379.904 739.328h-6.144c-5.7344 0-10.24-4.5056-10.24-10.24s4.5056-10.24 10.24-10.24h6.144c5.7344 0 10.24 4.5056 10.24 10.24s-4.5056 10.24-10.24 10.24zM650.24 739.328h-6.144c-5.7344 0-10.24-4.5056-10.24-10.24s4.5056-10.24 10.24-10.24h6.144c5.7344 0 10.24 4.5056 10.24 10.24s-4.5056 10.24-10.24 10.24zM526.1312 656.384c-3.4816 0-6.9632-1.8432-8.8064-5.12-1.024-1.8432-3.072-3.072-5.3248-3.072s-4.096 1.2288-5.3248 3.072c-2.8672 4.9152-9.0112 6.5536-13.9264 3.6864-4.9152-2.8672-6.5536-9.0112-3.6864-13.9264 4.7104-8.192 13.5168-13.312 22.9376-13.312s18.2272 5.12 22.9376 13.312c2.8672 4.9152 1.2288 11.0592-3.6864 13.9264-1.6384 1.024-3.2768 1.4336-5.12 1.4336z" fill="#1C1D21" p-id="17859"></path></svg>