<svg xmlns="http://www.w3.org/2000/svg" viewBox="0 0 1024 1024" version="1.1"><path d="M512 512m-501.76 0a501.76 501.76 0 1 0 1003.52 0 501.76 501.76 0 1 0-1003.52 0Z" fill="#0ABFB2" p-id="14425"></path><path d="M512 1024c-136.8064 0-265.4208-53.248-362.0864-149.9136C53.248 777.4208 0 648.8064 0 512S53.248 246.5792 149.9136 149.9136C246.5792 53.248 375.1936 0 512 0s265.4208 53.248 362.0864 149.9136C970.752 246.5792 1024 375.1936 1024 512s-53.248 265.4208-149.9136 362.0864C777.4208 970.752 648.8064 1024 512 1024z m0-1003.52C241.0496 20.48 20.48 241.0496 20.48 512s220.5696 491.52 491.52 491.52 491.52-220.5696 491.52-491.52S782.9504 20.48 512 20.48z" fill="#1C1D21" p-id="14426"></path><path d="M407.3472 496.64H616.448V589.824H407.3472z" fill="#FFFFFF" p-id="14427"></path><path d="M616.6528 600.064H407.3472c-5.7344 0-10.24-4.5056-10.24-10.24v-93.184c0-5.7344 4.5056-10.24 10.24-10.24H616.448c5.7344 0 10.24 4.5056 10.24 10.24V589.824c0.2048 5.7344-4.5056 10.24-10.0352 10.24z m-199.0656-20.48H606.208v-72.704h-188.6208V579.584z" fill="#1C1D21" p-id="14428"></path><path d="M577.536 600.064h-131.072c-59.5968 0-107.9296-48.3328-107.9296-107.9296v-61.6448c0-5.7344 4.5056-10.24 10.24-10.24s10.24 4.5056 10.24 10.24v61.6448c0 48.3328 39.3216 87.4496 87.4496 87.4496h131.072c48.3328 0 87.4496-39.3216 87.4496-87.4496v-61.6448c0-5.7344 4.5056-10.24 10.24-10.24s10.24 4.5056 10.24 10.24v61.6448c0 59.5968-48.5376 107.9296-107.9296 107.9296z" fill="#1C1D21" p-id="14429"></path><path d="M577.536 589.824h-131.072c-54.0672 0-97.6896-43.8272-97.6896-97.6896v40.1408c0 90.112 73.1136 163.2256 163.2256 163.2256s163.2256-73.1136 163.2256-163.2256v-40.1408c0 54.0672-43.8272 97.6896-97.6896 97.6896z" fill="#E0E0E0" p-id="14430"></path><path d="M689.7664 357.376v-64.1024c0-98.0992-78.4384-179.4048-176.5376-180.0192-98.9184-0.8192-179.2 79.2576-179.2 177.7664v66.3552c-16.9984 3.072-29.9008 18.0224-29.9008 35.84 0 20.0704 16.384 36.4544 36.4544 36.4544h29.696v-0.2048c1.024 0 1.8432 0.2048 2.8672 0.2048 18.8416 0 34.2016 15.36 34.2016 34.2016v28.2624c0 21.504 17.408 39.1168 39.1168 39.1168h131.072c21.504 0 39.1168-17.408 39.1168-39.1168v-28.2624c0-18.8416 15.36-34.2016 34.2016-34.2016 1.024 0 2.048 0 2.8672-0.2048v0.2048h29.696c20.0704 0 36.4544-16.384 36.4544-36.4544 0-18.0224-12.9024-32.768-30.1056-35.84z" fill="#E0E0E0" p-id="14431"></path><path d="M512 705.7408c-95.6416 0-173.4656-77.824-173.4656-173.4656v-40.1408c0-5.7344 4.5056-10.24 10.24-10.24s10.24 4.5056 10.24 10.24c0 48.3328 39.3216 87.4496 87.4496 87.4496h131.072c48.3328 0 87.4496-39.3216 87.4496-87.4496 0-5.7344 4.5056-10.24 10.24-10.24s10.24 4.5056 10.24 10.24v40.1408c0 95.6416-77.824 173.4656-173.4656 173.4656z m-150.7328-147.456c12.4928 71.8848 75.3664 126.976 150.7328 126.976s138.24-54.8864 150.7328-126.976C642.8672 583.68 612.1472 600.064 577.536 600.064h-131.072c-34.6112 0-65.3312-16.384-85.1968-41.7792z" fill="#1C1D21" p-id="14432"></path><path d="M445.8496 645.12c-1.8432 0-3.8912-0.6144-5.5296-1.6384-2.2528-1.4336-4.5056-3.072-6.7584-4.7104-4.5056-3.2768-5.5296-9.8304-2.2528-14.336s9.8304-5.5296 14.336-2.2528c1.8432 1.4336 3.6864 2.6624 5.7344 3.8912 4.7104 3.072 6.144 9.4208 3.072 14.1312-2.048 3.2768-5.3248 4.9152-8.6016 4.9152zM512 664.7808c-11.264 0-22.528-1.4336-33.5872-4.3008-5.5296-1.4336-8.8064-6.9632-7.3728-12.4928 1.4336-5.5296 6.9632-8.8064 12.4928-7.3728 9.216 2.4576 18.6368 3.6864 28.2624 3.6864 13.7216 0 27.0336-2.4576 39.7312-7.168 5.3248-2.048 11.264 0.6144 13.312 5.9392s-0.6144 11.264-5.9392 13.312c-14.9504 5.5296-30.72 8.3968-46.8992 8.3968z" fill="#FFFFFF" p-id="14433"></path><path d="M577.536 541.4912h-131.072c-27.2384 0-49.3568-22.1184-49.3568-49.3568v-28.2624c0-13.312-10.6496-23.9616-23.9616-23.9616h-32.5632c-25.8048 0-46.6944-20.8896-46.6944-46.6944 0-19.6608 12.0832-36.864 29.9008-43.6224V290.816c0-38.912 11.6736-76.1856 33.9968-107.7248 3.2768-4.7104 9.6256-5.7344 14.336-2.4576 4.7104 3.2768 5.7344 9.6256 2.4576 14.336-19.8656 28.2624-30.3104 61.44-30.3104 96.0512v66.3552c0 4.9152-3.4816 9.216-8.3968 10.0352-12.4928 2.2528-21.504 13.1072-21.504 25.8048 0 14.5408 11.6736 26.2144 26.2144 26.2144H368.64c0.8192-0.2048 1.6384-0.2048 2.4576-0.2048h0.2048c0.6144 0 1.2288 0.2048 2.048 0.2048 24.576 0 44.4416 19.8656 44.4416 44.4416v28.2624c0 15.9744 12.9024 28.8768 28.8768 28.8768H577.536c15.9744 0 28.8768-12.9024 28.8768-28.8768v-28.2624c0-24.576 19.8656-44.4416 44.4416-44.4416 0.6144 0 1.2288 0 2.048-0.2048h0.2048c0.8192 0 1.6384 0 2.4576 0.2048h27.8528c14.5408 0 26.2144-11.6736 26.2144-26.2144 0-12.6976-9.0112-23.552-21.504-25.8048-4.9152-0.8192-8.3968-5.12-8.3968-10.0352v-64.1024c0-92.9792-74.5472-169.1648-166.2976-169.7792-27.0336-0.2048-52.8384 5.9392-76.8 18.0224-5.12 2.4576-11.264 0.6144-13.7216-4.5056-2.4576-5.12-0.6144-11.264 4.5056-13.7216 26.8288-13.5168 55.9104-20.48 86.2208-20.0704 103.0144 0.8192 186.5728 86.2208 186.5728 190.2592v56.5248c17.8176 6.7584 29.9008 23.9616 29.9008 43.6224 0 25.8048-20.8896 46.6944-46.6944 46.6944h-32.5632c-13.312 0-23.9616 10.6496-23.9616 23.9616v28.2624c0 26.8288-22.3232 48.9472-49.3568 48.9472z" fill="#1C1D21" p-id="14434"></path><path d="M393.4208 168.7552c-2.8672 0-5.5296-1.2288-7.5776-3.4816-3.6864-4.3008-3.4816-10.6496 0.8192-14.5408 1.4336-1.4336 3.072-2.6624 4.7104-4.096 4.3008-3.6864 10.8544-3.072 14.336 1.2288 3.6864 4.3008 3.072 10.8544-1.2288 14.336-1.4336 1.2288-2.8672 2.4576-4.096 3.6864-2.2528 1.8432-4.7104 2.8672-6.9632 2.8672z" fill="#1C1D21" p-id="14435"></path><path d="M506.6752 162.4064c-5.5296 0-10.0352-4.3008-10.24-9.8304-0.2048-5.7344 4.096-10.4448 9.8304-10.6496 1.8432 0 3.8912-0.2048 5.7344-0.2048h1.024c5.7344 0 10.24 4.7104 10.24 10.24 0 5.7344-4.5056 10.24-10.24 10.24h-5.9392c-0.2048 0.2048-0.4096 0.2048-0.4096 0.2048zM383.7952 247.808c-1.2288 0-2.6624-0.2048-3.8912-0.8192-5.12-2.2528-7.7824-8.192-5.5296-13.312 16.5888-39.936 49.7664-70.656 90.7264-84.1728 5.3248-1.8432 11.264 1.024 12.9024 6.5536 1.8432 5.3248-1.024 11.264-6.5536 12.9024-35.2256 11.6736-63.6928 38.2976-78.2336 72.704-1.6384 3.8912-5.3248 6.144-9.4208 6.144z" fill="#FFFFFF" p-id="14436"></path><path d="M453.2224 254.976H450.56c-38.0928 0-69.0176 30.9248-69.0176 69.0176v2.6624c0 22.9376 18.6368 41.3696 41.3696 41.3696h30.1056c22.9376 0 41.3696-18.6368 41.3696-41.3696v-30.1056c0.2048-22.9376-18.2272-41.5744-41.1648-41.5744zM570.7776 254.976h2.6624c38.0928 0 69.0176 30.9248 69.0176 69.0176v2.6624c0 22.9376-18.6368 41.3696-41.3696 41.3696h-30.1056c-22.9376 0-41.3696-18.6368-41.3696-41.3696v-30.1056c-0.2048-22.9376 18.2272-41.5744 41.1648-41.5744z" fill="#AAADAD" p-id="14437"></path><path d="M453.2224 378.2656h-30.1056c-28.4672 0-51.6096-23.1424-51.6096-51.6096v-2.6624c0-43.6224 35.4304-79.2576 79.2576-79.2576h2.6624c28.4672 0 51.6096 23.1424 51.6096 51.6096v30.1056c-0.2048 28.672-23.3472 51.8144-51.8144 51.8144z m-2.6624-113.0496c-32.3584 0-58.7776 26.4192-58.7776 58.7776v2.6624c0 17.2032 13.9264 31.1296 31.1296 31.1296h30.1056c17.2032 0 31.1296-13.9264 31.1296-31.1296v-30.1056c0-17.2032-13.9264-31.1296-31.1296-31.1296H450.56zM600.8832 378.2656h-30.1056c-28.4672 0-51.6096-23.1424-51.6096-51.6096v-30.1056c0-28.4672 23.1424-51.6096 51.6096-51.6096h2.6624c43.6224 0 79.2576 35.4304 79.2576 79.2576v2.6624c-0.2048 28.2624-23.3472 51.4048-51.8144 51.4048z m-30.1056-113.0496c-17.2032 0-31.1296 13.9264-31.1296 31.1296v30.1056c0 17.2032 13.9264 31.1296 31.1296 31.1296h30.1056c17.2032 0 31.1296-13.9264 31.1296-31.1296v-2.6624c0-32.3584-26.4192-58.7776-58.7776-58.7776h-2.4576zM459.9808 600.064c-5.7344 0-10.24-4.5056-10.24-10.24v-58.5728c0-5.7344 4.5056-10.24 10.24-10.24s10.24 4.5056 10.24 10.24V589.824c0 5.7344-4.7104 10.24-10.24 10.24zM512 600.064c-5.7344 0-10.24-4.5056-10.24-10.24v-58.5728c0-5.7344 4.5056-10.24 10.24-10.24s10.24 4.5056 10.24 10.24V589.824c0 5.7344-4.5056 10.24-10.24 10.24zM564.0192 600.064c-5.7344 0-10.24-4.5056-10.24-10.24v-58.5728c0-5.7344 4.5056-10.24 10.24-10.24s10.24 4.5056 10.24 10.24V589.824c0 5.7344-4.5056 10.24-10.24 10.24z" fill="#1C1D21" p-id="14438"></path><path d="M512 482.0992h10.24c13.9264 0 23.3472-14.1312 17.8176-27.0336-7.3728-17.2032-16.384-38.7072-22.3232-52.4288-2.2528-5.12-9.4208-5.12-11.6736 0l-22.1184 52.224c-5.5296 12.6976 3.8912 27.0336 17.8176 27.0336 5.9392 0.2048 10.24 0.2048 10.24 0.2048z" fill="#AAADAD" p-id="14439"></path><path d="M522.24 492.3392h-20.48c-10.0352 0-19.2512-4.9152-24.7808-13.312-5.5296-8.3968-6.5536-18.8416-2.6624-27.8528l22.1184-52.224c2.6624-6.144 8.6016-10.0352 15.1552-10.0352 6.7584 0 12.6976 3.8912 15.1552 10.0352l22.3232 52.4288c3.8912 9.216 2.8672 19.6608-2.6624 27.8528s-14.336 13.1072-24.1664 13.1072z m-10.24-77.0048l-18.6368 43.8272c-1.2288 2.8672-1.024 5.9392 0.8192 8.6016 1.6384 2.6624 4.5056 4.096 7.5776 4.096h20.2752c3.072 0 5.9392-1.4336 7.5776-4.096 1.6384-2.6624 2.048-5.7344 0.8192-8.6016l-18.432-43.8272z" fill="#1C1D21" p-id="14440"></path><path d="M374.3744 749.568c0-1.6384-0.2048-3.2768-0.4096-4.7104h276.0704c-0.2048 1.6384-0.4096 3.072-0.4096 4.7104 0 19.2512 15.7696 35.0208 35.0208 35.0208 19.2512 0 35.0208-15.7696 35.0208-35.0208 0-11.4688-5.5296-21.7088-14.1312-28.0576 8.6016-6.3488 14.1312-16.5888 14.1312-28.0576 0-19.2512-15.7696-35.0208-35.0208-35.0208-19.2512 0-35.0208 15.7696-35.0208 35.0208 0 1.6384 0.2048 3.2768 0.4096 4.7104H373.9648c0.2048-1.6384 0.4096-3.072 0.4096-4.7104 0-19.2512-15.7696-35.0208-35.0208-35.0208-19.2512 0-35.0208 15.7696-35.0208 35.0208 0 11.4688 5.5296 21.7088 14.1312 28.0576-8.6016 6.3488-14.1312 16.5888-14.1312 28.0576 0 19.2512 15.7696 35.0208 35.0208 35.0208 19.2512 0 35.0208-15.5648 35.0208-35.0208z" fill="#E0E0E0" p-id="14441"></path><path d="M684.8512 794.8288c-23.1424 0-42.1888-17.408-44.8512-39.7312h-157.0816c-5.7344 0-10.24-4.5056-10.24-10.24s4.5056-10.24 10.24-10.24h167.3216c2.8672 0 5.7344 1.2288 7.7824 3.4816 1.8432 2.2528 2.8672 5.12 2.4576 8.192-0.2048 1.2288-0.2048 2.2528-0.2048 3.2768 0 13.7216 11.0592 24.7808 24.7808 24.7808s24.7808-11.0592 24.7808-24.7808c0-7.9872-3.6864-15.1552-10.0352-19.8656-2.6624-1.8432-4.096-4.9152-4.096-8.192s1.6384-6.3488 4.096-8.192c6.3488-4.7104 10.0352-12.0832 10.0352-19.8656 0-13.7216-11.0592-24.7808-24.7808-24.7808s-24.7808 11.0592-24.7808 24.7808c0 1.024 0 2.2528 0.2048 3.2768 0.4096 2.8672-0.4096 5.9392-2.4576 8.192-1.8432 2.2528-4.7104 3.4816-7.7824 3.4816H373.9648c-2.8672 0-5.7344-1.2288-7.7824-3.4816-1.8432-2.2528-2.8672-5.12-2.4576-8.192 0.2048-1.2288 0.2048-2.2528 0.2048-3.2768 0-13.7216-11.0592-24.7808-24.7808-24.7808s-24.7808 11.0592-24.7808 24.7808c0 7.9872 3.6864 15.1552 10.0352 19.8656 2.6624 1.8432 4.096 4.9152 4.096 8.192s-1.4336 6.3488-4.096 8.192c-6.3488 4.7104-10.0352 12.0832-10.0352 19.8656 0 13.7216 11.0592 24.7808 24.7808 24.7808s24.7808-11.0592 24.7808-24.7808c0-1.024 0-2.2528-0.2048-3.2768-0.4096-2.8672 0.4096-5.9392 2.4576-8.192 1.8432-2.2528 4.7104-3.4816 7.7824-3.4816H399.36c5.7344 0 10.24 4.5056 10.24 10.24s-4.5056 10.24-10.24 10.24h-15.1552c-2.6624 22.3232-21.9136 39.7312-44.8512 39.7312-24.9856 0-45.2608-20.2752-45.2608-45.2608 0-10.24 3.4816-20.2752 9.8304-28.0576-6.3488-7.9872-9.8304-17.8176-9.8304-28.0576 0-24.9856 20.2752-45.2608 45.2608-45.2608 23.1424 0 42.1888 17.408 44.8512 39.7312h255.5904c2.6624-22.3232 21.9136-39.7312 44.8512-39.7312 24.9856 0 45.2608 20.2752 45.2608 45.2608 0 10.24-3.4816 20.2752-9.8304 28.0576 6.3488 7.9872 9.8304 17.8176 9.8304 28.0576 0.2048 24.9856-20.2752 45.2608-45.056 45.2608z" fill="#1C1D21" p-id="14442"></path><path d="M445.8496 755.0976h-10.24c-5.7344 0-10.24-4.5056-10.24-10.24s4.5056-10.24 10.24-10.24h10.24c5.7344 0 10.24 4.5056 10.24 10.24s-4.7104 10.24-10.24 10.24z" fill="#1C1D21" p-id="14443"></path><path d="M374.3744 875.9296c0-1.6384-0.2048-3.2768-0.4096-4.7104h276.0704c-0.2048 1.6384-0.4096 3.072-0.4096 4.7104 0 19.2512 15.7696 35.0208 35.0208 35.0208 19.2512 0 35.0208-15.7696 35.0208-35.0208 0-11.4688-5.5296-21.7088-14.1312-28.0576 8.6016-6.3488 14.1312-16.5888 14.1312-28.0576 0-19.2512-15.7696-35.0208-35.0208-35.0208-19.2512 0-35.0208 15.7696-35.0208 35.0208 0 1.6384 0.2048 3.2768 0.4096 4.7104H373.9648c0.2048-1.6384 0.4096-3.072 0.4096-4.7104 0-19.2512-15.7696-35.0208-35.0208-35.0208-19.2512 0-35.0208 15.7696-35.0208 35.0208 0 11.4688 5.5296 21.7088 14.1312 28.0576-8.6016 6.3488-14.1312 16.5888-14.1312 28.0576 0 19.2512 15.7696 35.0208 35.0208 35.0208 19.2512 0 35.0208-15.7696 35.0208-35.0208z" fill="#E0E0E0" p-id="14444"></path><path d="M572.0064 881.4592h-10.24c-5.7344 0-10.24-4.5056-10.24-10.24s4.5056-10.24 10.24-10.24h10.24c5.7344 0 10.24 4.5056 10.24 10.24s-4.5056 10.24-10.24 10.24z" fill="#1C1D21" p-id="14445"></path><path d="M684.8512 921.1904c-23.1424 0-42.1888-17.408-44.8512-39.7312h-32.1536c-5.7344 0-10.24-4.5056-10.24-10.24s4.5056-10.24 10.24-10.24h42.3936c2.8672 0 5.7344 1.2288 7.7824 3.4816 1.8432 2.2528 2.8672 5.12 2.4576 8.192-0.2048 1.2288-0.2048 2.2528-0.2048 3.2768 0 13.7216 11.0592 24.7808 24.7808 24.7808s24.7808-11.0592 24.7808-24.7808c0-7.9872-3.6864-15.1552-10.0352-19.8656-2.6624-1.8432-4.096-4.9152-4.096-8.192s1.6384-6.3488 4.096-8.192c6.3488-4.7104 10.0352-12.0832 10.0352-19.8656 0-13.7216-11.0592-24.7808-24.7808-24.7808s-24.7808 11.0592-24.7808 24.7808c0 1.024 0 2.2528 0.2048 3.2768 0.4096 2.8672-0.4096 5.9392-2.4576 8.192-1.8432 2.2528-4.7104 3.4816-7.7824 3.4816H373.9648c-2.8672 0-5.7344-1.2288-7.7824-3.4816-1.8432-2.2528-2.8672-5.12-2.4576-8.192 0.2048-1.2288 0.2048-2.2528 0.2048-3.2768 0-13.7216-11.0592-24.7808-24.7808-24.7808s-24.7808 11.0592-24.7808 24.7808c0 7.9872 3.6864 15.1552 10.0352 19.8656 2.6624 1.8432 4.096 4.9152 4.096 8.192s-1.4336 6.3488-4.096 8.192c-6.3488 4.7104-10.0352 12.0832-10.0352 19.8656 0 13.7216 11.0592 24.7808 24.7808 24.7808s24.7808-11.0592 24.7808-24.7808c0-1.024 0-2.2528-0.2048-3.2768-0.4096-2.8672 0.4096-5.9392 2.4576-8.192 1.8432-2.2528 4.7104-3.4816 7.7824-3.4816H512c5.7344 0 10.24 4.5056 10.24 10.24s-4.5056 10.24-10.24 10.24h-127.7952c-2.6624 22.3232-21.9136 39.7312-44.8512 39.7312-24.9856 0-45.2608-20.2752-45.2608-45.2608 0-10.24 3.4816-20.2752 9.8304-28.0576-6.3488-7.9872-9.8304-17.8176-9.8304-28.0576 0-24.9856 20.2752-45.2608 45.2608-45.2608 23.1424 0 42.1888 17.408 44.8512 39.7312h255.5904c2.6624-22.3232 21.9136-39.7312 44.8512-39.7312 24.9856 0 45.2608 20.2752 45.2608 45.2608 0 10.24-3.4816 20.2752-9.8304 28.0576 6.3488 7.9872 9.8304 17.8176 9.8304 28.0576 0.2048 24.9856-20.2752 45.2608-45.056 45.2608z" fill="#1C1D21" p-id="14446"></path></svg>