<svg xmlns="http://www.w3.org/2000/svg" viewBox="0 0 1024 1024" version="1.1"><path d="M512 512m-501.76 0a501.76 501.76 0 1 0 1003.52 0 501.76 501.76 0 1 0-1003.52 0Z" fill="#8CEEF9" p-id="16649"></path><path d="M512 1024c-136.8064 0-265.4208-53.248-362.0864-149.9136C53.248 777.4208 0 648.8064 0 512S53.248 246.5792 149.9136 149.9136C246.5792 53.248 375.1936 0 512 0s265.4208 53.248 362.0864 149.9136C970.752 246.5792 1024 375.1936 1024 512s-53.248 265.4208-149.9136 362.0864C777.4208 970.752 648.8064 1024 512 1024z m0-1003.52C241.0496 20.48 20.48 241.0496 20.48 512s220.5696 491.52 491.52 491.52 491.52-220.5696 491.52-491.52S782.9504 20.48 512 20.48z" fill="#1C1D21" p-id="16650"></path><path d="M218.7264 270.9504c-1.6384 0-3.4816-0.4096-5.12-1.4336-4.9152-2.8672-6.5536-9.0112-3.8912-13.9264 7.168-12.4928 14.9504-24.576 23.552-36.0448 3.4816-4.5056 9.8304-5.5296 14.336-2.048 4.5056 3.4816 5.5296 9.8304 2.048 14.336-7.9872 10.8544-15.5648 22.1184-22.1184 33.9968-1.8432 3.2768-5.3248 5.12-8.8064 5.12z m586.5472 0c-3.4816 0-6.9632-1.8432-8.8064-5.12-6.7584-11.6736-14.1312-23.1424-22.1184-33.792-3.4816-4.5056-2.4576-10.8544 2.048-14.336 4.5056-3.4816 10.8544-2.4576 14.336 2.048 8.6016 11.4688 16.5888 23.552 23.552 36.0448 2.8672 4.9152 1.024 11.264-3.8912 13.9264-1.6384 0.8192-3.4816 1.2288-5.12 1.2288z m-536.576-66.7648c-2.4576 0-5.12-1.024-7.168-2.8672-4.096-3.8912-4.3008-10.4448-0.2048-14.5408 9.8304-10.24 20.48-20.0704 31.744-29.0816 4.3008-3.4816 10.8544-2.8672 14.336 1.4336 3.4816 4.3008 2.8672 10.8544-1.4336 14.336-10.4448 8.3968-20.48 17.8176-29.9008 27.4432-2.048 2.2528-4.7104 3.2768-7.3728 3.2768z m486.6048-0.2048c-2.6624 0-5.3248-1.024-7.3728-3.072-9.4208-9.6256-19.456-19.0464-29.9008-27.4432-4.3008-3.4816-5.12-10.0352-1.4336-14.336 3.4816-4.3008 10.0352-5.12 14.336-1.4336 11.0592 9.0112 21.7088 18.8416 31.744 29.0816 3.8912 4.096 3.6864 10.6496-0.2048 14.5408-2.048 1.8432-4.7104 2.6624-7.168 2.6624zM333.4144 151.552c-3.4816 0-6.7584-1.6384-8.6016-4.7104-3.072-4.7104-1.6384-11.0592 3.2768-14.1312 12.0832-7.5776 24.7808-14.5408 37.888-20.48 5.12-2.4576 11.264-0.2048 13.5168 4.9152 2.4576 5.12 0.2048 11.264-4.9152 13.5168-12.288 5.7344-24.1664 12.0832-35.6352 19.2512-1.8432 1.024-3.6864 1.6384-5.5296 1.6384z m357.1712-0.2048c-1.8432 0-3.6864-0.4096-5.3248-1.6384-11.4688-7.168-23.3472-13.7216-35.6352-19.2512-5.12-2.4576-7.3728-8.3968-4.9152-13.5168 2.4576-5.12 8.3968-7.3728 13.5168-4.9152 12.9024 5.9392 25.8048 12.9024 37.888 20.48 4.7104 3.072 6.3488 9.216 3.2768 14.1312-2.048 3.072-5.5296 4.7104-8.8064 4.7104zM408.9856 116.3264c-4.3008 0-8.3968-2.8672-9.8304-7.168-1.6384-5.3248 1.2288-11.0592 6.5536-12.9024 13.7216-4.3008 27.648-7.9872 41.7792-10.6496 5.5296-1.024 10.8544 2.6624 11.8784 8.192s-2.6624 10.8544-8.192 11.8784c-13.312 2.4576-26.4192 5.7344-39.3216 9.8304-0.8192 0.6144-1.8432 0.8192-2.8672 0.8192z m205.824 0c-1.024 0-2.048-0.2048-3.072-0.4096-12.9024-4.096-26.0096-7.3728-39.3216-9.8304-5.5296-1.024-9.216-6.3488-8.192-11.8784 1.024-5.5296 6.3488-9.216 11.8784-8.192 14.1312 2.6624 28.0576 6.144 41.7792 10.4448 5.3248 1.6384 8.3968 7.5776 6.5536 12.9024-1.2288 4.096-5.3248 6.9632-9.6256 6.9632z m-123.904-15.36c-5.3248 0-9.8304-4.096-10.24-9.6256-0.4096-5.7344 3.8912-10.4448 9.6256-10.8544 14.336-0.8192 28.8768-0.8192 43.008 0 5.7344 0.4096 10.0352 5.12 9.6256 10.8544-0.4096 5.7344-5.12 10.0352-10.8544 9.6256-13.312-0.8192-27.0336-0.8192-40.5504 0h-0.6144z" fill="#1C1D21" p-id="16651"></path><path d="M323.7888 834.3552L279.3472 806.912c-17.6128-10.8544-28.2624-30.1056-28.2624-50.7904v-18.0224c0-10.0352 5.9392-19.0464 14.9504-23.1424 38.7072-18.2272 65.3312-57.5488 65.3312-103.0144v-52.4288c0-62.8736-50.9952-113.8688-113.8688-113.8688-62.8736 0-113.8688 50.9952-113.8688 113.8688v52.4288c0 45.4656 26.8288 84.7872 65.3312 103.0144 9.0112 4.3008 14.9504 13.1072 14.9504 23.1424v18.0224c0 20.6848-10.6496 39.936-28.2624 50.7904l-33.792 20.8896c65.7408 81.1008 156.0576 141.1072 259.8912 168.96v-57.9584c0.2048-42.5984-21.7088-82.1248-57.9584-104.448z" fill="#FFC5B3" p-id="16652"></path><path d="M381.952 1007.0016c-0.8192 0-1.8432-0.2048-2.6624-0.4096-104.8576-28.0576-196.4032-87.6544-265.216-172.4416-1.8432-2.2528-2.6624-5.3248-2.048-8.192s2.2528-5.5296 4.7104-6.9632l33.792-20.8896c14.7456-9.0112 23.552-24.7808 23.552-42.1888v-18.0224c0-5.9392-3.4816-11.264-9.216-13.9264-43.2128-20.2752-71.2704-64.512-71.2704-112.2304v-52.4288c0-5.3248 0.4096-10.4448 1.024-15.7696 0.6144-5.5296 5.9392-9.6256 11.4688-8.8064 5.5296 0.6144 9.6256 5.7344 8.8064 11.4688-0.6144 4.3008-0.8192 8.8064-0.8192 13.1072v52.4288c0 39.936 23.3472 76.8 59.5968 93.7984 12.6976 5.9392 20.8896 18.6368 20.8896 32.5632v18.0224c0 24.3712-12.4928 46.6944-33.1776 59.5968l-23.7568 14.7456c62.2592 73.1136 142.7456 125.7472 234.2912 152.7808v-44.4416c0-39.1168-19.8656-74.9568-53.248-95.4368l-44.4416-27.4432c-20.8896-12.9024-33.1776-35.2256-33.1776-59.5968v-18.0224c0-13.7216 8.192-26.4192 20.8896-32.5632 36.2496-16.9984 59.5968-53.8624 59.5968-93.7984v-52.4288c0-4.3008-0.2048-8.8064-0.8192-13.1072-0.6144-5.5296 3.2768-10.6496 8.8064-11.4688 5.5296-0.6144 10.6496 3.2768 11.4688 8.8064 0.6144 5.12 1.024 10.4448 1.024 15.7696v52.4288c0 47.9232-28.0576 91.9552-71.2704 112.2304-5.7344 2.6624-9.216 7.9872-9.216 13.9264v18.0224c0 17.2032 8.8064 32.9728 23.552 42.1888l44.4416 27.4432c39.5264 24.3712 62.8736 66.56 62.8736 112.8448v57.9584c0 3.2768-1.4336 6.144-4.096 8.192-2.048 1.4336-4.096 2.2528-6.3488 2.2528z" fill="#1C1D21" p-id="16653"></path><path d="M323.7888 834.3552L279.3472 806.912c-5.3248-3.2768-9.8304-7.168-13.9264-11.8784L231.424 825.1392c-7.9872 6.9632-19.8656 6.9632-27.8528 0l-33.9968-30.1056c-3.8912 4.5056-8.6016 8.6016-13.9264 11.8784l-33.792 20.8896c65.7408 81.1008 156.0576 141.1072 259.8912 168.96v-57.9584c0.2048-42.5984-21.7088-82.1248-57.9584-104.448z" fill="#508DEF" p-id="16654"></path><path d="M381.952 1007.0016c-0.8192 0-1.8432-0.2048-2.6624-0.4096-104.8576-28.0576-196.4032-87.6544-265.216-172.4416-1.8432-2.2528-2.6624-5.3248-2.048-8.192s2.2528-5.5296 4.7104-6.9632l33.792-20.8896c4.3008-2.6624 8.192-5.9392 11.4688-9.8304 1.6384-2.048 4.096-3.2768 6.7584-3.4816 2.8672-0.2048 5.7344 0.6144 7.7824 2.4576l33.9968 30.1056c4.096 3.6864 10.24 3.6864 14.336 0l33.9968-30.1056c1.8432-1.6384 4.3008-2.6624 6.7584-2.6624 3.072 0 5.7344 1.2288 7.7824 3.4816 3.2768 3.8912 7.168 7.168 11.4688 9.8304l44.4416 27.4432c39.5264 24.3712 62.8736 66.56 62.8736 112.8448v57.9584c0 3.2768-1.4336 6.144-4.096 8.192-1.8432 1.8432-3.8912 2.6624-6.144 2.6624zM137.4208 830.2592c62.2592 73.1136 142.7456 125.7472 234.2912 152.7808v-44.4416c0-39.1168-19.8656-74.9568-53.248-95.4368l-44.4416-27.4432c-3.072-1.8432-6.144-4.096-8.8064-6.5536l-26.8288 23.7568c-11.8784 10.4448-29.696 10.4448-41.5744 0L169.984 809.1648c-2.8672 2.4576-5.7344 4.5056-8.8064 6.5536l-23.7568 14.5408z" fill="#1C1D21" p-id="16655"></path><path d="M839.8848 756.1216v-18.0224c0-10.0352 5.9392-19.0464 14.9504-23.1424 38.7072-18.2272 65.3312-57.5488 65.3312-103.0144v-52.4288c0-62.8736-50.9952-113.8688-113.8688-113.8688-62.8736 0-113.8688 50.9952-113.8688 113.8688v52.4288c0 45.4656 26.8288 84.7872 65.3312 103.0144 9.0112 4.3008 14.9504 13.1072 14.9504 23.1424v18.0224c0 20.6848-10.6496 39.936-28.2624 50.7904l-44.4416 27.4432c-36.0448 22.3232-58.1632 61.8496-58.1632 104.2432v57.9584c103.6288-27.8528 194.1504-87.8592 259.8912-168.96L868.1472 806.912c-17.6128-10.8544-28.2624-30.1056-28.2624-50.7904z" fill="#FFC5B3" p-id="16656"></path><path d="M854.4256 795.0336l-33.9968 30.1056c-7.9872 6.9632-19.8656 6.9632-27.8528 0l-33.9968-30.1056c-3.8912 4.5056-8.6016 8.6016-13.9264 11.8784l-44.4416 27.4432c-36.0448 22.3232-58.1632 61.8496-58.1632 104.2432v57.9584c103.6288-27.8528 194.1504-87.8592 259.8912-168.96L868.1472 806.912c-5.3248-3.2768-9.8304-7.168-13.7216-11.8784z" fill="#508DEF" p-id="16657"></path><path d="M144.7936 569.9584c-5.7344 0-10.24-4.5056-10.24-10.24v-18.0224c0-5.7344 4.5056-10.24 10.24-10.24s10.24 4.5056 10.24 10.24v18.0224c0 5.7344-4.7104 10.24-10.24 10.24zM186.5728 687.9232c-1.4336 0-2.8672-0.4096-4.3008-1.024-29.0816-13.7216-47.7184-43.2128-47.7184-75.1616v-16.7936c0-5.7344 4.5056-10.24 10.24-10.24s10.24 4.5056 10.24 10.24v16.7936c0 24.1664 14.1312 46.4896 36.0448 56.7296 5.12 2.4576 7.3728 8.6016 4.9152 13.7216-1.8432 3.6864-5.5296 5.7344-9.4208 5.7344z" fill="#FFECE9" p-id="16658"></path><path d="M681.1648 605.184h11.6736v-60.2112h-11.6736c-16.5888 0-30.1056 13.5168-30.1056 30.1056s13.5168 30.1056 30.1056 30.1056zM932.6592 605.184h-11.6736v-60.2112h11.6736c16.5888 0 30.1056 13.5168 30.1056 30.1056s-13.5168 30.1056-30.1056 30.1056z" fill="#FFC5B3" p-id="16659"></path><path d="M692.8384 615.424h-11.6736c-22.3232 0-40.3456-18.0224-40.3456-40.3456s18.0224-40.3456 40.3456-40.3456h11.6736c5.7344 0 10.24 4.5056 10.24 10.24v60.2112c0 5.7344-4.7104 10.24-10.24 10.24z m-11.6736-60.2112c-10.8544 0-19.8656 8.8064-19.8656 19.8656s8.8064 19.8656 19.8656 19.8656h1.4336v-39.7312h-1.4336zM932.6592 615.424h-11.6736c-5.7344 0-10.24-4.5056-10.24-10.24v-60.2112c0-5.7344 4.5056-10.24 10.24-10.24h11.6736c22.3232 0 40.3456 18.0224 40.3456 40.3456s-18.0224 40.3456-40.3456 40.3456z m-1.4336-20.48h1.4336c10.8544 0 19.8656-8.8064 19.8656-19.8656s-8.8064-19.8656-19.8656-19.8656h-1.4336v39.7312z" fill="#1C1D21" p-id="16660"></path><path d="M642.048 1007.0016c-2.2528 0-4.5056-0.8192-6.144-2.048-2.4576-1.8432-4.096-4.9152-4.096-8.192v-57.9584c0-46.2848 23.552-88.4736 62.8736-112.8448l44.4416-27.4432c14.7456-9.0112 23.552-24.7808 23.552-42.1888v-18.0224c0-5.9392-3.4816-11.264-9.216-13.9264-43.2128-20.2752-71.2704-64.512-71.2704-112.2304v-52.4288c0-5.3248 0.4096-10.4448 1.024-15.7696 0.6144-5.5296 5.9392-9.6256 11.4688-8.8064 5.5296 0.6144 9.6256 5.7344 8.8064 11.4688-0.6144 4.3008-0.8192 8.8064-0.8192 13.1072v52.4288c0 39.936 23.3472 76.8 59.5968 93.7984 12.6976 5.9392 20.8896 18.6368 20.8896 32.5632v18.0224c0 24.3712-12.4928 46.6944-33.1776 59.5968l-44.4416 27.4432c-33.3824 20.6848-53.248 56.32-53.248 95.4368v44.4416c91.5456-27.2384 172.032-79.6672 234.2912-152.7808l-23.7568-14.7456c-20.8896-12.9024-33.1776-35.2256-33.1776-59.5968v-18.0224c0-13.7216 8.192-26.4192 20.8896-32.5632 36.2496-16.9984 59.5968-53.8624 59.5968-93.7984v-52.4288c0-4.3008-0.2048-8.8064-0.8192-13.1072-0.6144-5.5296 3.2768-10.6496 8.8064-11.4688 5.5296-0.6144 10.6496 3.2768 11.4688 8.8064 0.6144 5.12 1.024 10.4448 1.024 15.7696v52.4288c0 47.9232-28.0576 91.9552-71.2704 112.2304-5.7344 2.6624-9.216 7.9872-9.216 13.9264v18.0224c0 17.2032 8.8064 32.9728 23.552 42.1888l33.792 20.8896c2.4576 1.6384 4.3008 4.096 4.7104 6.9632s-0.2048 5.9392-2.048 8.192c-68.608 84.7872-160.3584 144.384-265.216 172.4416-1.024 0-2.048 0.2048-2.8672 0.2048z" fill="#1C1D21" p-id="16661"></path><path d="M642.048 1007.0016c-2.2528 0-4.5056-0.8192-6.144-2.048-2.4576-1.8432-4.096-4.9152-4.096-8.192v-57.9584c0-46.2848 23.552-88.4736 62.8736-112.8448l44.4416-27.4432c4.3008-2.6624 8.192-5.9392 11.4688-9.8304 1.6384-2.048 4.096-3.2768 6.7584-3.4816 2.8672-0.2048 5.7344 0.6144 7.7824 2.4576l33.9968 30.1056c4.096 3.6864 10.24 3.6864 14.336 0l33.9968-30.1056c1.8432-1.6384 4.3008-2.6624 6.7584-2.6624 3.072 0 5.7344 1.2288 7.7824 3.4816 3.2768 3.8912 7.168 7.168 11.4688 9.8304L907.264 819.2c2.4576 1.6384 4.3008 4.096 4.7104 6.9632s-0.2048 5.9392-2.048 8.192c-68.608 84.7872-160.3584 144.384-265.216 172.4416-0.8192 0-1.8432 0.2048-2.6624 0.2048z m116.9408-197.8368c-2.8672 2.4576-5.7344 4.5056-8.8064 6.5536l-44.4416 27.4432c-33.3824 20.6848-53.248 56.32-53.248 95.4368V983.04c91.5456-27.2384 172.032-79.6672 234.2912-152.7808l-23.7568-14.7456c-3.072-1.8432-6.144-4.096-8.8064-6.5536L827.392 832.7168c-11.8784 10.4448-29.696 10.4448-41.3696 0l-27.0336-23.552z" fill="#1C1D21" p-id="16662"></path><path d="M92.16 605.184h11.6736v-60.2112H92.16c-16.5888 0-30.1056 13.5168-30.1056 30.1056s13.5168 30.1056 30.1056 30.1056zM343.8592 605.184h-11.6736v-60.2112h11.6736c16.5888 0 30.1056 13.5168 30.1056 30.1056-0.2048 16.5888-13.5168 30.1056-30.1056 30.1056z" fill="#FFC5B3" p-id="16663"></path><path d="M103.8336 615.424H92.16c-22.3232 0-40.3456-18.0224-40.3456-40.3456s18.0224-40.3456 40.3456-40.3456h11.6736c5.7344 0 10.24 4.5056 10.24 10.24v60.2112c0 5.7344-4.5056 10.24-10.24 10.24zM92.16 555.2128c-10.8544 0-19.8656 8.8064-19.8656 19.8656s8.8064 19.8656 19.8656 19.8656h1.4336v-39.7312H92.16zM343.8592 615.424h-11.6736c-5.7344 0-10.24-4.5056-10.24-10.24v-60.2112c0-5.7344 4.5056-10.24 10.24-10.24h11.6736c22.3232 0 40.3456 18.0224 40.3456 40.3456s-18.2272 40.3456-40.3456 40.3456z m-1.4336-20.48h1.4336c10.8544 0 19.8656-8.8064 19.8656-19.8656s-8.8064-19.8656-19.8656-19.8656h-1.4336v39.7312z" fill="#1C1D21" p-id="16664"></path><path d="M217.4976 445.6448c-3.2768 0-6.5536 0.2048-9.8304 0.4096-53.4528 4.5056-96.256 46.08-103.0144 98.9184 98.9184-0.2048 113.2544-50.7904 113.2544-50.7904s14.336 50.176 112.4352 50.7904c-6.9632-55.9104-54.8864-99.328-112.8448-99.328z" fill="#C67552" p-id="16665"></path><path d="M104.6528 555.2128c-2.8672 0-5.7344-1.2288-7.5776-3.4816-2.048-2.2528-2.8672-5.12-2.4576-7.9872 7.3728-57.5488 54.4768-103.0144 112.2304-107.9296 3.4816-0.2048 7.168-0.4096 10.6496-0.4096 62.2592 0 115.0976 46.4896 123.0848 108.3392 0.4096 2.8672-0.6144 5.9392-2.4576 7.9872-2.048 2.2528-4.7104 3.4816-7.7824 3.4816-67.7888-0.4096-98.7136-23.7568-112.4352-40.7552-13.5168 16.9984-44.6464 40.5504-113.2544 40.7552z m112.8448-99.328c-3.072 0-5.9392 0.2048-9.0112 0.4096-44.2368 3.6864-80.896 35.84-91.5456 78.2336 77.6192-3.8912 90.5216-41.5744 91.136-43.2128 1.2288-4.3008 5.3248-7.3728 9.8304-7.3728 4.5056 0 8.6016 3.072 9.8304 7.5776 0.4096 1.6384 13.312 38.912 90.112 43.008-11.0592-45.6704-52.4288-78.6432-100.352-78.6432z" fill="#1C1D21" p-id="16666"></path><path d="M661.7088 733.184l-62.8736-38.7072c-24.7808-15.36-39.936-42.3936-39.936-71.68v-25.3952c0-14.1312 8.3968-26.624 21.0944-32.768 54.4768-25.6 92.16-80.896 92.16-145.2032v-73.728c0-88.4736-71.8848-160.3584-160.3584-160.3584-88.4736 0-160.3584 71.8848-160.3584 160.3584v73.728c0 64.1024 37.6832 119.6032 92.16 145.2032 12.6976 5.9392 21.0944 18.6368 21.0944 32.768v25.3952c0 29.2864-15.1552 56.32-39.936 71.68L362.2912 733.184c-50.9952 31.5392-81.92 87.04-81.92 146.8416v77.0048C349.5936 993.28 428.4416 1013.76 512 1013.76s162.4064-20.48 231.6288-56.5248v-77.0048c0-60.0064-30.9248-115.5072-81.92-147.0464z" fill="#FFC5B3" p-id="16667"></path><path d="M661.7088 733.184l-62.8736-38.7072c-7.3728-4.5056-13.9264-10.24-19.456-16.5888l-47.7184 42.3936c-11.264 10.0352-28.0576 10.0352-39.3216 0L444.6208 677.888c-5.5296 6.3488-12.0832 12.0832-19.456 16.5888L362.2912 733.184c-50.9952 31.5392-81.92 87.04-81.92 146.8416v77.0048C349.5936 993.28 428.4416 1013.76 512 1013.76s162.4064-20.48 231.6288-56.5248v-77.0048c0-60.0064-30.9248-115.5072-81.92-147.0464z" fill="#FF3E63" p-id="16668"></path><path d="M329.1136 410.2144h22.528v-84.7872h-22.528c-20.0704 0-36.2496 16.1792-36.2496 36.2496v12.288c0 19.8656 16.384 36.2496 36.2496 36.2496zM696.1152 410.2144h-22.528v-84.7872h22.528c20.0704 0 36.2496 16.1792 36.2496 36.2496v12.288c0 19.8656-16.384 36.2496-36.2496 36.2496z" fill="#FFC5B3" p-id="16669"></path><path d="M351.8464 420.4544h-22.528c-25.6 0-46.4896-20.8896-46.4896-46.4896v-12.288c0-25.6 20.8896-46.4896 46.4896-46.4896h22.528c5.7344 0 10.24 4.5056 10.24 10.24v84.7872c0 5.5296-4.7104 10.24-10.24 10.24z m-22.7328-84.7872c-14.336 0-26.0096 11.6736-26.0096 26.0096v12.288c0 14.336 11.6736 26.0096 26.0096 26.0096h12.288v-64.3072h-12.288zM696.1152 420.4544h-22.528c-5.7344 0-10.24-4.5056-10.24-10.24v-84.7872c0-5.7344 4.5056-10.24 10.24-10.24h22.528c25.6 0 46.4896 20.8896 46.4896 46.4896v12.288c0 25.6-20.8896 46.4896-46.4896 46.4896z m-12.4928-20.48h12.288c14.336 0 26.0096-11.6736 26.0096-26.0096v-12.288c0-14.336-11.6736-26.0096-26.0096-26.0096h-12.288v64.3072z" fill="#1C1D21" p-id="16670"></path><path d="M512 185.344c-4.7104 0-9.216 0.2048-13.9264 0.6144-75.3664 6.3488-135.7824 64.9216-145.2032 139.4688 139.264-0.4096 159.744-71.68 159.744-71.68s20.2752 70.656 158.5152 71.4752c-10.0352-78.848-77.4144-139.8784-159.1296-139.8784z" fill="#FF8939" p-id="16671"></path><path d="M512 1024c-82.1248 0-163.84-20.0704-236.3392-57.7536-3.4816-1.8432-5.5296-5.3248-5.5296-9.0112v-77.0048c0-63.8976 32.3584-122.0608 86.8352-155.648l62.8736-38.7072c21.9136-13.5168 35.0208-37.0688 35.0208-63.0784v-25.3952c0-10.0352-5.9392-19.0464-15.36-23.3472-59.5968-28.0576-98.0992-88.6784-98.0992-154.4192v-73.728c0-7.168 0.4096-14.5408 1.4336-21.504 0.6144-5.5296 5.7344-9.6256 11.4688-8.8064 5.5296 0.6144 9.6256 5.7344 8.8064 11.4688-0.8192 6.3488-1.2288 12.6976-1.2288 19.0464v73.728c0 57.9584 33.792 111.2064 86.2208 135.9872 16.384 7.7824 27.0336 24.1664 27.0336 41.984v25.3952c0 32.9728-16.7936 63.0784-44.8512 80.4864l-62.8736 38.7072c-48.3328 29.9008-77.0048 81.5104-77.0048 138.24v70.8608C358.8096 985.2928 435.2 1003.52 512 1003.52s153.1904-18.2272 221.3888-52.6336v-70.8608c0-56.7296-28.8768-108.3392-77.0048-138.24l-62.8736-38.7072c-28.0576-17.408-44.8512-47.3088-44.8512-80.4864v-25.3952c0-17.8176 10.6496-34.2016 27.0336-41.984 52.4288-24.576 86.2208-78.0288 86.2208-135.9872v-73.728c0-6.3488-0.4096-12.6976-1.2288-19.0464-0.6144-5.5296 3.2768-10.6496 8.8064-11.4688 5.5296-0.6144 10.6496 3.2768 11.4688 8.8064 0.8192 7.168 1.4336 14.336 1.4336 21.7088v73.728c0 65.7408-38.5024 126.3616-98.0992 154.4192-9.4208 4.5056-15.36 13.5168-15.36 23.3472v25.3952c0 25.8048 13.1072 49.3568 35.0208 63.0784l62.8736 38.7072c54.272 33.5872 86.8352 91.7504 86.8352 155.648v77.0048c0 3.8912-2.048 7.3728-5.5296 9.0112C675.84 1003.9296 594.1248 1024 512 1024z" fill="#1C1D21" p-id="16672"></path><path d="M321.3312 941.8752c-5.7344 0-10.24-4.5056-10.24-10.24v-51.4048c0-45.4656 20.8896-87.2448 57.5488-114.0736 4.5056-3.2768 11.0592-2.4576 14.336 2.2528 3.2768 4.5056 2.4576 11.0592-2.2528 14.336-31.3344 23.1424-49.152 58.5728-49.152 97.6896V931.84c0 5.3248-4.7104 10.0352-10.24 10.0352zM411.648 761.2416c-3.4816 0-6.7584-1.6384-8.8064-4.9152-3.072-4.7104-1.4336-11.0592 3.2768-14.1312l9.8304-6.144c4.9152-3.072 11.0592-1.4336 14.1312 3.2768s1.4336 11.0592-3.2768 14.1312l-9.8304 6.144c-1.6384 1.024-3.4816 1.6384-5.3248 1.6384zM457.1136 732.3648c-3.072 0-6.144-1.4336-8.192-4.096-3.4816-4.5056-2.6624-10.8544 1.8432-14.336 5.7344-4.5056 11.264-9.4208 15.9744-14.7456 3.6864-4.3008 10.24-4.5056 14.5408-0.8192 4.3008 3.6864 4.5056 10.24 0.8192 14.5408-5.7344 6.3488-12.0832 12.288-18.8416 17.408-1.8432 1.2288-4.096 2.048-6.144 2.048z" fill="#FFAEC3" p-id="16673"></path><path d="M461.2096 537.8048c-1.4336 0-2.8672-0.4096-4.3008-1.024-45.2608-21.2992-74.5472-67.3792-74.5472-117.3504v-73.728c0-8.3968 0.8192-16.5888 2.4576-24.7808 1.024-5.5296 6.5536-9.216 12.0832-8.192s9.216 6.5536 8.192 12.0832c-1.2288 6.7584-2.048 13.9264-2.048 20.8896v73.728c0 42.1888 24.576 80.896 62.8736 98.9184 5.12 2.4576 7.3728 8.6016 4.9152 13.7216-2.048 3.4816-5.7344 5.7344-9.6256 5.7344z" fill="#FFECE9" p-id="16674"></path><path d="M460.3904 248.2176c-3.8912 0-7.3728-2.048-9.216-5.7344-2.4576-5.12-0.4096-11.264 4.7104-13.7216 1.8432-0.8192 3.8912-1.8432 5.7344-2.6624 5.12-2.2528 11.264 0.2048 13.5168 5.5296 2.2528 5.12-0.2048 11.264-5.5296 13.5168-1.6384 0.6144-3.2768 1.4336-4.7104 2.2528-1.6384 0.6144-3.072 0.8192-4.5056 0.8192zM394.8544 333.0048c-0.6144 0-1.2288 0-2.048-0.2048-5.5296-1.024-9.216-6.5536-8.192-12.0832 4.9152-25.8048 17.6128-49.152 36.4544-67.584 4.096-3.8912 10.4448-3.8912 14.5408 0.2048 3.8912 4.096 3.8912 10.4448-0.2048 14.5408-15.7696 15.5648-26.4192 35.2256-30.72 56.9344-0.8192 4.9152-5.12 8.192-9.8304 8.192z" fill="#FFC5B3" p-id="16675"></path><path d="M352.8704 335.4624c-2.8672 0-5.7344-1.2288-7.5776-3.4816-2.048-2.2528-2.8672-5.12-2.4576-7.9872 2.4576-19.8656 8.3968-38.912 17.6128-56.7296 2.6624-5.12 8.8064-6.9632 13.7216-4.3008 5.12 2.6624 6.9632 8.8064 4.3008 13.7216-6.144 12.0832-10.8544 24.7808-13.5168 38.0928 60.2112-2.048 94.0032-18.6368 112.2304-32.3584 20.48-15.5648 25.3952-31.5392 25.6-31.5392 1.2288-4.3008 5.3248-7.3728 9.8304-7.3728s8.6016 3.072 9.8304 7.3728c0 0 5.12 15.7696 25.3952 31.3344 18.0224 13.7216 51.6096 30.3104 111.2064 32.5632-14.336-68.8128-75.5712-119.1936-146.8416-119.1936-4.3008 0-8.6016 0.2048-12.9024 0.6144-5.5296 0.4096-10.6496-3.6864-11.0592-9.4208s3.6864-10.6496 9.4208-11.0592c4.9152-0.4096 9.8304-0.6144 14.7456-0.6144 85.6064 0 158.5152 64.1024 169.1648 148.8896 0.4096 2.8672-0.6144 5.9392-2.4576 7.9872-2.048 2.2528-4.7104 3.4816-7.7824 3.4816-100.1472-0.6144-141.9264-37.0688-158.3104-60.2112-16.9984 23.3472-58.9824 60.0064-160.1536 60.2112 0.2048 0 0 0 0 0z" fill="#1C1D21" p-id="16676"></path><path d="M388.3008 253.952c-2.2528 0-4.5056-0.8192-6.5536-2.2528-4.3008-3.6864-4.9152-10.0352-1.4336-14.336 10.24-12.288 22.1184-23.3472 35.2256-32.3584 4.7104-3.2768 11.0592-2.048 14.336 2.6624 3.2768 4.7104 2.048 11.0592-2.6624 14.336-11.6736 7.9872-22.1184 17.6128-31.1296 28.4672-1.8432 2.2528-4.9152 3.4816-7.7824 3.4816zM455.4752 205.824c-4.096 0-7.9872-2.4576-9.6256-6.5536-2.048-5.3248 0.6144-11.264 5.9392-13.1072 2.6624-1.024 5.3248-1.8432 7.9872-2.6624 5.3248-1.6384 11.0592 1.2288 12.9024 6.5536 1.6384 5.3248-1.2288 11.0592-6.5536 12.9024-2.2528 0.8192-4.7104 1.6384-6.9632 2.4576-1.2288 0.2048-2.4576 0.4096-3.6864 0.4096z" fill="#1C1D21" p-id="16677"></path><path d="M879.2064 569.9584c-5.7344 0-10.24-4.5056-10.24-10.24v-18.0224c0-5.7344 4.5056-10.24 10.24-10.24s10.24 4.5056 10.24 10.24v18.0224c0 5.7344-4.5056 10.24-10.24 10.24zM837.4272 687.9232c-3.8912 0-7.5776-2.2528-9.216-5.9392-2.4576-5.12-0.2048-11.264 4.9152-13.7216 21.9136-10.24 36.0448-32.5632 36.0448-56.7296v-16.7936c0-5.7344 4.5056-10.24 10.24-10.24s10.24 4.5056 10.24 10.24v16.7936c0 31.9488-18.8416 61.6448-47.7184 75.1616-1.6384 1.024-3.072 1.2288-4.5056 1.2288z" fill="#FFECE9" p-id="16678"></path><path d="M806.5024 445.6448c-3.2768 0-6.5536 0.2048-9.8304 0.4096-53.4528 4.5056-96.256 46.08-103.0144 98.9184 98.9184-0.2048 113.2544-50.7904 113.2544-50.7904s14.336 50.176 112.4352 50.7904c-7.168-55.9104-54.8864-99.328-112.8448-99.328z" fill="#C67552" p-id="16679"></path><path d="M693.6576 555.2128c-2.8672 0-5.7344-1.2288-7.5776-3.4816-2.048-2.2528-2.8672-5.12-2.4576-7.9872 7.3728-57.5488 54.4768-103.0144 112.2304-107.9296 3.4816-0.2048 7.168-0.4096 10.6496-0.4096 62.2592 0 115.0976 46.4896 123.0848 108.3392 0.4096 2.8672-0.6144 5.9392-2.4576 7.9872-2.048 2.2528-4.9152 3.4816-7.7824 3.4816-67.7888-0.4096-98.7136-23.7568-112.4352-40.7552-13.7216 16.9984-44.8512 40.5504-113.2544 40.7552z m112.8448-99.328c-3.072 0-5.9392 0.2048-9.0112 0.4096-44.2368 3.6864-80.896 35.84-91.5456 78.2336 77.6192-3.8912 90.5216-41.5744 91.136-43.2128 1.2288-4.3008 5.3248-7.3728 9.8304-7.3728 4.5056 0 8.6016 3.072 9.8304 7.5776 0.4096 1.6384 13.312 38.912 90.112 43.008-11.264-45.6704-52.4288-78.6432-100.352-78.6432z" fill="#1C1D21" p-id="16680"></path><path d="M540.2624 48.5376h-56.5248c-14.7456 0-26.624 11.8784-26.624 26.624v30.1056c0 14.7456 11.8784 26.624 26.624 26.624h8.6016L512 155.648l19.8656-23.7568h8.6016c14.7456 0 26.624-11.8784 26.624-26.624V75.1616c-0.2048-14.7456-12.0832-26.624-26.8288-26.624zM219.3408 315.8016H164.4544c-15.1552 0-27.4432 12.288-27.4432 27.4432V425.3696l19.456-15.5648c8.3968-6.7584 18.8416-10.4448 29.4912-10.4448h33.3824c15.1552 0 27.4432-12.288 27.4432-27.4432v-28.4672c0-15.36-12.288-27.648-27.4432-27.648z" fill="#FFECE9" p-id="16681"></path><path d="M137.0112 435.4048c-1.4336 0-3.072-0.4096-4.5056-1.024-3.4816-1.6384-5.7344-5.3248-5.7344-9.216v-81.92c0-20.8896 16.9984-37.6832 37.6832-37.6832h54.8864c20.8896 0 37.6832 16.9984 37.6832 37.6832v28.4672c0 20.8896-16.9984 37.6832-37.6832 37.6832H185.9584c-8.3968 0-16.5888 2.8672-23.1424 8.192l-19.456 15.5648c-1.8432 1.4336-4.096 2.2528-6.3488 2.2528z m27.4432-109.3632c-9.4208 0-17.2032 7.7824-17.2032 17.2032v60.6208l2.8672-2.2528c10.24-8.192 22.9376-12.6976 36.0448-12.6976h33.3824c9.4208 0 17.2032-7.7824 17.2032-17.2032v-28.4672c0-9.4208-7.7824-17.2032-17.2032-17.2032H164.4544z" fill="#1C1D21" p-id="16682"></path><path d="M804.6592 315.8016h54.8864c15.1552 0 27.4432 12.288 27.4432 27.4432V425.3696l-19.456-15.5648c-8.3968-6.7584-18.8416-10.4448-29.4912-10.4448h-33.3824c-15.1552 0-27.4432-12.288-27.4432-27.4432v-28.4672c0-15.36 12.288-27.648 27.4432-27.648z" fill="#FFECE9" p-id="16683"></path><path d="M886.9888 435.4048c-2.2528 0-4.5056-0.8192-6.3488-2.2528l-19.456-15.5648c-6.5536-5.3248-14.7456-8.192-23.1424-8.192h-33.3824c-20.8896 0-37.6832-16.9984-37.6832-37.6832v-28.4672c0-20.8896 16.9984-37.6832 37.6832-37.6832h54.8864c20.8896 0 37.6832 16.9984 37.6832 37.6832v81.92c0 3.8912-2.2528 7.5776-5.7344 9.216-1.4336 0.6144-2.8672 1.024-4.5056 1.024z m-82.3296-109.3632c-9.4208 0-17.2032 7.7824-17.2032 17.2032v28.4672c0 9.4208 7.7824 17.2032 17.2032 17.2032h33.3824c13.1072 0 25.8048 4.5056 36.0448 12.6976l2.8672 2.2528v-60.6208c0-9.4208-7.7824-17.2032-17.2032-17.2032h-55.0912zM512 165.888c-3.072 0-5.9392-1.4336-7.7824-3.6864l-16.7936-20.0704h-3.6864c-20.2752 0-36.864-16.5888-36.864-36.864V75.1616c0-20.2752 16.5888-36.864 36.864-36.864h56.5248c20.2752 0 36.864 16.5888 36.864 36.864v30.1056c0 20.2752-16.5888 36.864-36.864 36.864H536.576l-16.7936 20.0704c-1.8432 2.2528-4.7104 3.6864-7.7824 3.6864z m-28.2624-107.1104c-9.0112 0-16.384 7.3728-16.384 16.384v30.1056c0 9.0112 7.3728 16.384 16.384 16.384h8.6016c3.072 0 5.9392 1.4336 7.7824 3.6864l11.8784 14.336 11.8784-14.336c1.8432-2.2528 4.9152-3.6864 7.7824-3.6864h8.6016c9.0112 0 16.384-7.3728 16.384-16.384V75.1616c0-9.0112-7.3728-16.384-16.384-16.384h-56.5248zM512 1024c-82.1248 0-163.84-20.0704-236.3392-57.7536-3.4816-1.8432-5.5296-5.3248-5.5296-9.0112v-77.0048c0-63.8976 32.3584-122.0608 86.8352-155.648l62.8736-38.7072c6.3488-3.8912 12.0832-8.8064 17.2032-14.7456 1.6384-1.8432 3.8912-3.072 6.3488-3.4816 3.072-0.4096 6.144 0.4096 8.3968 2.4576l47.7184 42.3936c7.3728 6.5536 18.432 6.5536 25.8048 0l47.7184-42.3936c1.8432-1.6384 4.3008-2.6624 6.7584-2.6624 3.072 0 5.9392 1.2288 7.7824 3.4816 4.9152 5.7344 10.6496 10.6496 17.2032 14.7456l62.8736 38.7072c54.272 33.5872 86.8352 91.7504 86.8352 155.648v77.0048c0 3.8912-2.048 7.3728-5.5296 9.0112C675.84 1003.9296 594.1248 1024 512 1024z m-221.3888-73.1136C358.8096 985.2928 435.2 1003.52 512 1003.52s153.1904-18.2272 221.3888-52.6336v-70.8608c0-56.7296-28.8768-108.3392-77.0048-138.24l-62.8736-38.7072c-5.3248-3.2768-10.24-6.9632-14.7456-11.264l-40.5504 35.84c-15.1552 13.312-37.888 13.312-52.8384 0l-40.5504-35.84c-4.5056 4.3008-9.4208 7.9872-14.7456 11.264l-62.8736 38.7072c-48.3328 29.9008-77.0048 81.5104-77.0048 138.24v70.8608z" fill="#1C1D21" p-id="16684"></path><path d="M381.952 1007.0016c-5.7344 0-10.24-4.5056-10.24-10.24v-68.1984c0-5.7344 4.5056-10.24 10.24-10.24s10.24 4.5056 10.24 10.24v68.1984c0 5.5296-4.7104 10.24-10.24 10.24zM381.952 904.8064c-5.7344 0-10.24-4.5056-10.24-10.24V888.832c0-5.7344 4.5056-10.24 10.24-10.24s10.24 4.5056 10.24 10.24v5.7344c0 5.5296-4.7104 10.24-10.24 10.24zM642.048 1007.0016c-5.7344 0-10.24-4.5056-10.24-10.24v-68.1984c0-5.7344 4.5056-10.24 10.24-10.24s10.24 4.5056 10.24 10.24v68.1984c0 5.5296-4.5056 10.24-10.24 10.24zM642.048 904.8064c-5.7344 0-10.24-4.5056-10.24-10.24V888.832c0-5.7344 4.5056-10.24 10.24-10.24s10.24 4.5056 10.24 10.24v5.7344c0 5.5296-4.5056 10.24-10.24 10.24z" fill="#1C1D21" p-id="16685"></path></svg>