<svg xmlns="http://www.w3.org/2000/svg" viewBox="0 0 1024 1024" version="1.1"><path d="M512 512m-501.76 0a501.76 501.76 0 1 0 1003.52 0 501.76 501.76 0 1 0-1003.52 0Z" fill="#8CEEF9" p-id="15498"></path><path d="M357.376 363.52v-21.9136c0-30.5152-7.3728-60.6208-21.7088-87.6544-14.336 27.0336-21.7088 57.1392-21.7088 87.6544v21.9136h43.4176z" fill="#FF9E5C" p-id="15499"></path><path d="M357.376 373.76h-43.4176c-5.7344 0-10.24-4.5056-10.24-10.24v-21.9136c0-32.1536 7.9872-64.1024 22.9376-92.3648 1.8432-3.2768 5.3248-5.5296 9.0112-5.5296s7.3728 2.048 9.0112 5.5296c14.9504 28.4672 22.9376 60.416 22.9376 92.3648v21.9136c0 5.7344-4.7104 10.24-10.24 10.24z m-33.1776-20.48h22.9376v-11.6736c0-21.2992-3.8912-42.8032-11.4688-62.6688-7.5776 20.0704-11.4688 41.3696-11.4688 62.6688v11.6736z" fill="#1C1D21" p-id="15500"></path><path d="M317.2352 345.9072l-41.7792-46.2848v35.6352c0 18.432 6.5536 36.0448 18.2272 48.9472l41.7792 46.2848v-35.6352c0.2048-18.432-6.3488-36.0448-18.2272-48.9472zM353.8944 345.9072l41.7792-46.2848v35.6352c0 18.432-6.5536 36.0448-18.2272 48.9472l-41.7792 46.2848v-35.6352c0-18.432 6.5536-36.0448 18.2272-48.9472z" fill="#FF9E5C" p-id="15501"></path><path d="M335.6672 440.7296c-2.8672 0-5.5296-1.2288-7.5776-3.2768L286.3104 391.168c-13.5168-14.9504-20.8896-34.816-20.8896-55.9104v-35.6352c0-4.3008 2.6624-7.9872 6.5536-9.6256 3.8912-1.4336 8.3968-0.4096 11.264 2.6624l41.7792 46.2848c13.5168 14.9504 20.8896 34.816 20.8896 55.9104v35.6352c0 4.3008-2.6624 7.9872-6.5536 9.6256-1.2288 0.2048-2.4576 0.6144-3.6864 0.6144z m-49.9712-114.688v9.0112c0 15.7696 5.7344 31.1296 15.7696 42.1888l23.9616 26.624v-9.0112c0-15.7696-5.7344-31.1296-15.7696-42.1888l-23.9616-26.624z" fill="#1C1D21" p-id="15502"></path><path d="M335.6672 440.7296c-1.2288 0-2.4576-0.2048-3.6864-0.6144-3.8912-1.4336-6.5536-5.3248-6.5536-9.6256v-35.6352c0-21.0944 7.3728-40.96 20.8896-55.9104l41.7792-46.2848c2.8672-3.072 7.3728-4.3008 11.264-2.6624 3.8912 1.4336 6.5536 5.3248 6.5536 9.6256v35.6352c0 21.0944-7.3728 40.96-20.8896 55.9104l-41.7792 46.2848c-2.048 2.048-4.7104 3.2768-7.5776 3.2768z m25.8048-88.064c-10.0352 11.0592-15.7696 26.4192-15.7696 42.1888v9.0112l23.9616-26.624c10.0352-11.0592 15.7696-26.4192 15.7696-42.1888v-9.0112l-23.9616 26.624z" fill="#1C1D21" p-id="15503"></path><path d="M317.2352 409.8048l-41.7792-46.2848v35.6352c0 18.432 6.5536 36.0448 18.2272 48.9472l41.7792 46.2848V458.752c0.2048-18.432-6.3488-36.0448-18.2272-48.9472zM353.8944 409.8048l41.7792-46.2848v35.6352c0 18.432-6.5536 36.0448-18.2272 48.9472l-41.7792 46.2848V458.752c0-18.432 6.5536-36.0448 18.2272-48.9472z" fill="#FF9E5C" p-id="15504"></path><path d="M335.6672 504.4224c-2.8672 0-5.5296-1.2288-7.5776-3.2768l-41.7792-46.2848c-13.5168-14.9504-20.8896-34.816-20.8896-55.9104v-35.6352c0-4.3008 2.6624-7.9872 6.5536-9.6256 3.8912-1.4336 8.3968-0.4096 11.264 2.6624l41.7792 46.2848c13.5168 14.9504 20.8896 34.816 20.8896 55.9104v35.6352c0 4.3008-2.6624 7.9872-6.5536 9.6256-1.2288 0.4096-2.4576 0.6144-3.6864 0.6144z m-49.9712-114.4832v9.0112c0 15.7696 5.7344 31.1296 15.7696 42.1888l23.9616 26.624V458.752c0-15.7696-5.7344-31.1296-15.7696-42.1888l-23.9616-26.624z" fill="#1C1D21" p-id="15505"></path><path d="M335.6672 504.4224c-1.2288 0-2.4576-0.2048-3.6864-0.6144-3.8912-1.4336-6.5536-5.3248-6.5536-9.6256V458.752c0-21.0944 7.3728-40.96 20.8896-55.9104l41.7792-46.2848c2.8672-3.072 7.3728-4.3008 11.264-2.6624 3.8912 1.4336 6.5536 5.3248 6.5536 9.6256v35.6352c0 21.0944-7.3728 40.96-20.8896 55.9104l-41.7792 46.2848c-2.048 2.048-4.7104 3.072-7.5776 3.072z m25.8048-87.8592c-10.0352 11.0592-15.7696 26.4192-15.7696 42.1888v9.0112l23.9616-26.624c10.0352-11.0592 15.7696-26.4192 15.7696-42.1888v-9.0112l-23.9616 26.624z" fill="#1C1D21" p-id="15506"></path><path d="M317.2352 473.4976l-41.7792-46.2848V462.848c0 18.432 6.5536 36.0448 18.2272 48.9472l41.7792 46.2848v-35.6352c0.2048-18.2272-6.3488-35.84-18.2272-48.9472zM353.8944 473.4976l41.7792-46.2848V462.848c0 18.432-6.5536 36.0448-18.2272 48.9472l-41.7792 46.2848v-35.6352c0-18.2272 6.5536-35.84 18.2272-48.9472z" fill="#FF9E5C" p-id="15507"></path><path d="M335.6672 568.32c-2.8672 0-5.5296-1.2288-7.5776-3.2768l-41.7792-46.2848c-13.5168-14.9504-20.8896-34.816-20.8896-55.9104v-35.6352c0-4.3008 2.6624-7.9872 6.5536-9.6256 3.8912-1.4336 8.3968-0.4096 11.264 2.6624l41.7792 46.2848c13.5168 14.9504 20.8896 34.816 20.8896 55.9104v35.6352c0 4.3008-2.6624 7.9872-6.5536 9.6256-1.2288 0.4096-2.4576 0.6144-3.6864 0.6144z m-49.9712-114.4832v9.0112c0 15.7696 5.7344 31.1296 15.7696 42.1888l23.9616 26.624v-9.0112c0-15.7696-5.7344-31.1296-15.7696-42.1888l-23.9616-26.624z" fill="#1C1D21" p-id="15508"></path><path d="M335.6672 568.32c-1.2288 0-2.4576-0.2048-3.6864-0.6144-3.8912-1.4336-6.5536-5.3248-6.5536-9.6256v-35.6352c0-21.0944 7.3728-40.96 20.8896-55.9104l41.7792-46.2848c2.8672-3.072 7.3728-4.3008 11.264-2.6624 3.8912 1.4336 6.5536 5.3248 6.5536 9.6256V462.848c0 21.0944-7.3728 40.96-20.8896 55.9104l-41.7792 46.2848c-2.048 2.2528-4.7104 3.2768-7.5776 3.2768z m25.8048-87.8592c-10.0352 11.0592-15.7696 26.4192-15.7696 42.1888v9.0112l23.9616-26.624c10.0352-11.0592 15.7696-26.4192 15.7696-42.1888v-9.0112l-23.9616 26.624z" fill="#1C1D21" p-id="15509"></path><path d="M336.0768 635.904c-5.7344 0-10.24-4.5056-10.24-10.24v-195.3792c0-5.7344 4.5056-10.24 10.24-10.24s10.24 4.5056 10.24 10.24v195.3792c0 5.7344-4.7104 10.24-10.24 10.24z" fill="#1C1D21" p-id="15510"></path><path d="M236.9536 363.52v-21.9136c0-30.5152-7.3728-60.6208-21.7088-87.6544-14.336 27.0336-21.7088 57.1392-21.7088 87.6544v21.9136h43.4176z" fill="#FF9E5C" p-id="15511"></path><path d="M236.9536 373.76H193.536c-5.7344 0-10.24-4.5056-10.24-10.24v-21.9136c0-32.1536 7.9872-64.1024 22.9376-92.3648 1.8432-3.2768 5.3248-5.5296 9.0112-5.5296s7.3728 2.048 9.0112 5.5296c14.9504 28.4672 22.9376 60.416 22.9376 92.3648v21.9136c0 5.7344-4.5056 10.24-10.24 10.24z m-33.1776-20.48h22.9376v-11.6736c0-21.2992-3.8912-42.8032-11.4688-62.6688-7.5776 20.0704-11.4688 41.3696-11.4688 62.6688v11.6736z" fill="#1C1D21" p-id="15512"></path><path d="M197.0176 345.9072l-41.7792-46.2848v35.6352c0 18.432 6.5536 36.0448 18.2272 48.9472l41.7792 46.2848v-35.6352c0-18.432-6.5536-36.0448-18.2272-48.9472zM233.6768 345.9072l41.7792-46.2848v35.6352c0 18.432-6.5536 36.0448-18.2272 48.9472l-41.7792 46.2848v-35.6352c-0.2048-18.432 6.3488-36.0448 18.2272-48.9472z" fill="#FF9E5C" p-id="15513"></path><path d="M215.2448 440.7296c-2.8672 0-5.5296-1.2288-7.5776-3.2768L165.888 390.9632c-13.5168-14.9504-20.8896-34.816-20.8896-55.9104v-35.6352c0-4.3008 2.6624-7.9872 6.5536-9.6256 3.8912-1.4336 8.3968-0.4096 11.264 2.6624l41.7792 46.2848c13.5168 14.9504 20.8896 34.816 20.8896 55.9104v35.6352c0 4.3008-2.6624 7.9872-6.5536 9.6256-1.2288 0.4096-2.4576 0.8192-3.6864 0.8192z m-49.9712-114.688v9.0112c0 15.7696 5.7344 31.1296 15.7696 42.1888l23.9616 26.624v-9.0112c0-15.7696-5.7344-31.1296-15.7696-42.1888l-23.9616-26.624z" fill="#1C1D21" p-id="15514"></path><path d="M215.2448 440.7296c-1.2288 0-2.4576-0.2048-3.6864-0.6144-3.8912-1.4336-6.5536-5.3248-6.5536-9.6256v-35.6352c0-21.0944 7.3728-40.96 20.8896-55.9104l41.7792-46.2848c2.8672-3.072 7.3728-4.3008 11.264-2.6624 3.8912 1.4336 6.5536 5.3248 6.5536 9.6256v35.6352c0 21.0944-7.3728 40.96-20.8896 55.9104l-41.7792 46.2848c-1.8432 2.048-4.7104 3.2768-7.5776 3.2768z m26.0096-88.064c-10.0352 11.0592-15.7696 26.4192-15.7696 42.1888v9.0112l23.9616-26.624c10.0352-11.0592 15.7696-26.4192 15.7696-42.1888v-9.0112l-23.9616 26.624z" fill="#1C1D21" p-id="15515"></path><path d="M197.0176 409.8048l-41.7792-46.2848v35.6352c0 18.432 6.5536 36.0448 18.2272 48.9472l41.7792 46.2848V458.752c0-18.432-6.5536-36.0448-18.2272-48.9472zM233.6768 409.8048l41.7792-46.2848v35.6352c0 18.432-6.5536 36.0448-18.2272 48.9472l-41.7792 46.2848V458.752c-0.2048-18.432 6.3488-36.0448 18.2272-48.9472z" fill="#FF9E5C" p-id="15516"></path><path d="M215.2448 504.4224c-2.8672 0-5.5296-1.2288-7.5776-3.2768L165.888 454.8608c-13.5168-14.9504-20.8896-34.816-20.8896-55.9104v-35.6352c0-4.3008 2.6624-7.9872 6.5536-9.6256 3.8912-1.4336 8.3968-0.4096 11.264 2.6624l41.7792 46.2848c13.5168 14.9504 20.8896 34.816 20.8896 55.9104v35.6352c0 4.3008-2.6624 7.9872-6.5536 9.6256-1.2288 0.4096-2.4576 0.6144-3.6864 0.6144z m-49.9712-114.4832v9.0112c0 15.7696 5.7344 31.1296 15.7696 42.1888l23.9616 26.624V458.752c0-15.7696-5.7344-31.1296-15.7696-42.1888l-23.9616-26.624z" fill="#1C1D21" p-id="15517"></path><path d="M215.2448 504.4224c-1.2288 0-2.4576-0.2048-3.6864-0.6144-3.8912-1.4336-6.5536-5.3248-6.5536-9.6256V458.752c0-21.0944 7.3728-40.96 20.8896-55.9104l41.7792-46.2848c2.8672-3.072 7.3728-4.3008 11.264-2.6624 3.8912 1.4336 6.5536 5.3248 6.5536 9.6256v35.6352c0 21.0944-7.3728 40.96-20.8896 55.9104l-41.7792 46.2848c-1.8432 2.048-4.7104 3.072-7.5776 3.072z m26.0096-87.8592c-10.0352 11.0592-15.7696 26.4192-15.7696 42.1888v9.0112l23.9616-26.624c10.0352-11.0592 15.7696-26.4192 15.7696-42.1888v-9.0112l-23.9616 26.624z" fill="#1C1D21" p-id="15518"></path><path d="M197.0176 473.4976l-41.7792-46.2848V462.848c0 18.432 6.5536 36.0448 18.2272 48.9472l41.7792 46.2848v-35.6352c0-18.2272-6.5536-35.84-18.2272-48.9472zM233.6768 473.4976l41.7792-46.2848V462.848c0 18.432-6.5536 36.0448-18.2272 48.9472l-41.7792 46.2848v-35.6352c-0.2048-18.2272 6.3488-35.84 18.2272-48.9472z" fill="#FF9E5C" p-id="15519"></path><path d="M215.2448 568.32c-2.8672 0-5.5296-1.2288-7.5776-3.2768L165.888 518.7584c-13.5168-14.9504-20.8896-34.816-20.8896-55.9104v-35.6352c0-4.3008 2.6624-7.9872 6.5536-9.6256 3.8912-1.4336 8.3968-0.4096 11.264 2.6624l41.7792 46.2848c13.5168 14.9504 20.8896 34.816 20.8896 55.9104v35.6352c0 4.3008-2.6624 7.9872-6.5536 9.6256-1.2288 0.4096-2.4576 0.6144-3.6864 0.6144z m-49.9712-114.4832v9.0112c0 15.7696 5.7344 31.1296 15.7696 42.1888l23.9616 26.624v-9.0112c0-15.7696-5.7344-31.1296-15.7696-42.1888l-23.9616-26.624z" fill="#1C1D21" p-id="15520"></path><path d="M215.2448 568.32c-1.2288 0-2.4576-0.2048-3.6864-0.6144-3.8912-1.4336-6.5536-5.3248-6.5536-9.6256v-35.6352c0-21.0944 7.3728-40.96 20.8896-55.9104l41.7792-46.2848c2.8672-3.072 7.3728-4.3008 11.264-2.6624 3.8912 1.4336 6.5536 5.3248 6.5536 9.6256V462.848c0 21.0944-7.3728 40.96-20.8896 55.9104l-41.7792 46.2848c-1.8432 2.2528-4.7104 3.2768-7.5776 3.2768z m26.0096-87.8592c-10.0352 11.0592-15.7696 26.4192-15.7696 42.1888v9.0112l23.9616-26.624c10.0352-11.0592 15.7696-26.4192 15.7696-42.1888v-9.0112l-23.9616 26.624z" fill="#1C1D21" p-id="15521"></path><path d="M215.6544 653.312c-5.7344 0-10.24-4.5056-10.24-10.24V430.4896c0-5.7344 4.5056-10.24 10.24-10.24s10.24 4.5056 10.24 10.24V643.072c0 5.7344-4.7104 10.24-10.24 10.24z" fill="#1C1D21" p-id="15522"></path><path d="M669.0816 363.52v-21.9136c0-30.5152 7.3728-60.6208 21.7088-87.6544 14.336 27.0336 21.7088 57.1392 21.7088 87.6544v21.9136h-43.4176z" fill="#FF9E5C" p-id="15523"></path><path d="M712.2944 373.76h-43.4176c-5.7344 0-10.24-4.5056-10.24-10.24v-21.9136c0-32.1536 7.9872-64.1024 22.9376-92.3648 1.8432-3.2768 5.3248-5.5296 9.0112-5.5296s7.3728 2.048 9.0112 5.5296c14.9504 28.4672 22.9376 60.416 22.9376 92.3648v21.9136c0 5.7344-4.5056 10.24-10.24 10.24z m-32.9728-20.48h22.9376v-11.6736c0-21.2992-3.8912-42.8032-11.4688-62.6688-7.5776 20.0704-11.4688 41.3696-11.4688 62.6688v11.6736z" fill="#1C1D21" p-id="15524"></path><path d="M709.0176 345.9072l41.7792-46.2848v35.6352c0 18.432-6.5536 36.0448-18.2272 48.9472l-41.7792 46.2848v-35.6352c0-18.432 6.5536-36.0448 18.2272-48.9472zM672.3584 345.9072l-41.7792-46.2848v35.6352c0 18.432 6.5536 36.0448 18.2272 48.9472l41.7792 46.2848v-35.6352c0.2048-18.432-6.5536-36.0448-18.2272-48.9472z" fill="#FF9E5C" p-id="15525"></path><path d="M690.5856 440.7296c-1.2288 0-2.4576-0.2048-3.6864-0.6144-3.8912-1.4336-6.5536-5.3248-6.5536-9.6256v-35.6352c0-21.0944 7.3728-40.96 20.8896-55.9104l41.7792-46.2848c2.8672-3.072 7.3728-4.3008 11.264-2.6624 3.8912 1.4336 6.5536 5.3248 6.5536 9.6256v35.6352c0 21.0944-7.3728 40.96-20.8896 55.9104L698.368 437.248c-2.048 2.2528-4.9152 3.4816-7.7824 3.4816z m26.0096-88.064c-10.0352 11.0592-15.7696 26.4192-15.7696 42.1888v9.0112l23.9616-26.624c10.0352-11.0592 15.7696-26.4192 15.7696-42.1888v-9.0112l-23.9616 26.624z" fill="#1C1D21" p-id="15526"></path><path d="M690.7904 440.7296c-2.8672 0-5.5296-1.2288-7.5776-3.2768L641.4336 391.168c-13.5168-14.9504-20.8896-34.816-20.8896-55.9104v-35.6352c0-4.3008 2.6624-7.9872 6.5536-9.6256 3.8912-1.4336 8.3968-0.4096 11.264 2.6624l41.7792 46.2848c13.5168 14.9504 20.8896 34.816 20.8896 55.9104v35.6352c0 4.3008-2.6624 7.9872-6.5536 9.6256-1.2288 0.2048-2.4576 0.6144-3.6864 0.6144z m-49.9712-114.688v9.0112c0 15.7696 5.7344 31.1296 15.7696 42.1888l23.9616 26.624v-9.0112c0-15.7696-5.7344-31.1296-15.7696-42.1888l-23.9616-26.624z" fill="#1C1D21" p-id="15527"></path><path d="M709.0176 409.8048l41.7792-46.2848v35.6352c0 18.432-6.5536 36.0448-18.2272 48.9472l-41.7792 46.2848V458.752c0-18.432 6.5536-36.0448 18.2272-48.9472zM672.3584 409.8048l-41.7792-46.2848v35.6352c0 18.432 6.5536 36.0448 18.2272 48.9472l41.7792 46.2848V458.752c0.2048-18.432-6.5536-36.0448-18.2272-48.9472z" fill="#FF9E5C" p-id="15528"></path><path d="M690.5856 504.4224c-1.2288 0-2.4576-0.2048-3.6864-0.6144-3.8912-1.4336-6.5536-5.3248-6.5536-9.6256V458.752c0-21.0944 7.3728-40.96 20.8896-55.9104l41.7792-46.2848c2.8672-3.072 7.3728-4.3008 11.264-2.6624 3.8912 1.4336 6.5536 5.3248 6.5536 9.6256v35.6352c0 21.0944-7.3728 40.96-20.8896 55.9104L698.368 501.1456c-2.048 2.2528-4.9152 3.2768-7.7824 3.2768z m26.0096-87.8592c-10.0352 11.0592-15.7696 26.4192-15.7696 42.1888v9.0112l23.9616-26.624c10.0352-11.0592 15.7696-26.4192 15.7696-42.1888v-9.0112l-23.9616 26.624z" fill="#1C1D21" p-id="15529"></path><path d="M690.7904 504.4224c-2.8672 0-5.5296-1.2288-7.5776-3.2768l-41.7792-46.2848c-13.5168-14.9504-20.8896-34.816-20.8896-55.9104v-35.6352c0-4.3008 2.6624-7.9872 6.5536-9.6256 3.8912-1.4336 8.3968-0.4096 11.264 2.6624l41.7792 46.2848c13.5168 14.9504 20.8896 34.816 20.8896 55.9104v35.6352c0 4.3008-2.6624 7.9872-6.5536 9.6256-1.2288 0.4096-2.4576 0.6144-3.6864 0.6144z m-49.9712-114.4832v9.0112c0 15.7696 5.7344 31.1296 15.7696 42.1888l23.9616 26.624V458.752c0-15.7696-5.7344-31.1296-15.7696-42.1888l-23.9616-26.624z" fill="#1C1D21" p-id="15530"></path><path d="M709.0176 473.4976l41.7792-46.2848V462.848c0 18.432-6.5536 36.0448-18.2272 48.9472l-41.7792 46.2848v-35.6352c0-18.2272 6.5536-35.84 18.2272-48.9472zM672.3584 473.4976l-41.7792-46.2848V462.848c0 18.432 6.5536 36.0448 18.2272 48.9472l41.7792 46.2848v-35.6352c0.2048-18.2272-6.5536-35.84-18.2272-48.9472z" fill="#FF9E5C" p-id="15531"></path><path d="M690.5856 568.32c-1.2288 0-2.4576-0.2048-3.6864-0.6144-3.8912-1.4336-6.5536-5.3248-6.5536-9.6256v-35.6352c0-21.0944 7.3728-40.96 20.8896-55.9104l41.7792-46.2848c2.8672-3.072 7.3728-4.3008 11.264-2.6624 3.8912 1.4336 6.5536 5.3248 6.5536 9.6256V462.848c0 21.0944-7.3728 40.96-20.8896 55.9104L698.368 565.0432c-2.048 2.2528-4.9152 3.2768-7.7824 3.2768z m26.0096-87.8592c-10.0352 11.0592-15.7696 26.4192-15.7696 42.1888v9.0112l23.9616-26.624c10.0352-11.0592 15.7696-26.4192 15.7696-42.1888v-9.0112l-23.9616 26.624z" fill="#1C1D21" p-id="15532"></path><path d="M690.7904 568.32c-2.8672 0-5.5296-1.2288-7.5776-3.2768l-41.7792-46.2848c-13.5168-14.9504-20.8896-34.816-20.8896-55.9104v-35.6352c0-4.3008 2.6624-7.9872 6.5536-9.6256 3.8912-1.4336 8.3968-0.4096 11.264 2.6624l41.7792 46.2848c13.5168 14.9504 20.8896 34.816 20.8896 55.9104v35.6352c0 4.3008-2.6624 7.9872-6.5536 9.6256-1.2288 0.4096-2.4576 0.6144-3.6864 0.6144z m-49.9712-114.4832v9.0112c0 15.7696 5.7344 31.1296 15.7696 42.1888l23.9616 26.624v-9.0112c0-15.7696-5.7344-31.1296-15.7696-42.1888l-23.9616-26.624z" fill="#1C1D21" p-id="15533"></path><path d="M690.3808 635.904c-5.7344 0-10.24-4.5056-10.24-10.24v-195.3792c0-5.7344 4.5056-10.24 10.24-10.24s10.24 4.5056 10.24 10.24v195.3792c0 5.7344-4.7104 10.24-10.24 10.24z" fill="#1C1D21" p-id="15534"></path><path d="M789.2992 363.52v-21.9136c0-30.5152 7.3728-60.6208 21.7088-87.6544 14.336 27.0336 21.7088 57.1392 21.7088 87.6544v21.9136h-43.4176z" fill="#FF9E5C" p-id="15535"></path><path d="M832.7168 373.76h-43.4176c-5.7344 0-10.24-4.5056-10.24-10.24v-21.9136c0-32.1536 7.9872-64.1024 22.9376-92.3648 1.8432-3.2768 5.3248-5.5296 9.0112-5.5296s7.3728 2.048 9.0112 5.5296c14.9504 28.4672 22.9376 60.416 22.9376 92.3648v21.9136c0 5.7344-4.5056 10.24-10.24 10.24z m-33.1776-20.48h22.9376v-11.6736c0-21.2992-3.8912-42.8032-11.4688-62.6688-7.5776 20.0704-11.4688 41.3696-11.4688 62.6688v11.6736z" fill="#1C1D21" p-id="15536"></path><path d="M829.44 345.9072l41.7792-46.2848v35.6352c0 18.432-6.5536 36.0448-18.2272 48.9472L811.008 430.4896v-35.6352c0-18.432 6.5536-36.0448 18.432-48.9472zM792.7808 345.9072l-41.7792-46.2848v35.6352c0 18.432 6.5536 36.0448 18.2272 48.9472l41.7792 46.2848v-35.6352c0-18.432-6.5536-36.0448-18.2272-48.9472z" fill="#FF9E5C" p-id="15537"></path><path d="M811.008 440.7296c-1.2288 0-2.4576-0.2048-3.6864-0.6144-3.8912-1.4336-6.5536-5.3248-6.5536-9.6256v-35.6352c0-21.0944 7.3728-40.96 20.8896-55.9104l41.7792-46.2848c2.8672-3.072 7.3728-4.3008 11.264-2.6624 3.8912 1.4336 6.5536 5.3248 6.5536 9.6256v35.6352c0 21.0944-7.3728 40.96-20.8896 55.9104l-41.7792 46.2848c-1.8432 2.048-4.7104 3.2768-7.5776 3.2768z m26.0096-88.064c-10.0352 11.0592-15.7696 26.4192-15.7696 42.1888v9.0112l23.9616-26.624c10.0352-11.0592 15.7696-26.4192 15.7696-42.1888v-9.0112l-23.9616 26.624z" fill="#1C1D21" p-id="15538"></path><path d="M811.008 440.7296c-2.8672 0-5.5296-1.2288-7.5776-3.2768L761.6512 391.168c-13.5168-14.9504-20.8896-34.816-20.8896-55.9104v-35.6352c0-4.3008 2.6624-7.9872 6.5536-9.6256 3.8912-1.4336 8.3968-0.4096 11.264 2.6624l41.7792 46.2848c13.5168 14.9504 20.8896 34.816 20.8896 55.9104v35.6352c0 4.3008-2.6624 7.9872-6.5536 9.6256-1.2288 0.2048-2.4576 0.6144-3.6864 0.6144z m-49.9712-114.688v9.0112c0 15.7696 5.7344 31.1296 15.7696 42.1888l23.9616 26.624v-9.0112c0-15.7696-5.7344-31.1296-15.7696-42.1888l-23.9616-26.624z" fill="#1C1D21" p-id="15539"></path><path d="M829.44 409.8048l41.7792-46.2848v35.6352c0 18.432-6.5536 36.0448-18.2272 48.9472L811.008 494.1824V458.752c0-18.432 6.5536-36.0448 18.432-48.9472zM792.7808 409.8048l-41.7792-46.2848v35.6352c0 18.432 6.5536 36.0448 18.2272 48.9472l41.7792 46.2848V458.752c0-18.432-6.5536-36.0448-18.2272-48.9472z" fill="#FF9E5C" p-id="15540"></path><path d="M811.008 504.4224c-1.2288 0-2.4576-0.2048-3.6864-0.6144-3.8912-1.4336-6.5536-5.3248-6.5536-9.6256V458.752c0-21.0944 7.3728-40.96 20.8896-55.9104l41.7792-46.2848c2.8672-3.072 7.3728-4.3008 11.264-2.6624 3.8912 1.4336 6.5536 5.3248 6.5536 9.6256v35.6352c0 21.0944-7.3728 40.96-20.8896 55.9104l-41.7792 46.2848c-1.8432 2.048-4.7104 3.072-7.5776 3.072z m26.0096-87.8592c-10.0352 11.0592-15.7696 26.4192-15.7696 42.1888v9.0112l23.9616-26.624c10.0352-11.0592 15.7696-26.4192 15.7696-42.1888v-9.0112l-23.9616 26.624z" fill="#1C1D21" p-id="15541"></path><path d="M811.008 504.4224c-2.8672 0-5.5296-1.2288-7.5776-3.2768l-41.7792-46.2848c-13.5168-14.9504-20.8896-34.816-20.8896-55.9104v-35.6352c0-4.3008 2.6624-7.9872 6.5536-9.6256 3.8912-1.4336 8.3968-0.4096 11.264 2.6624l41.7792 46.2848c13.5168 14.9504 20.8896 34.816 20.8896 55.9104v35.6352c0 4.3008-2.6624 7.9872-6.5536 9.6256-1.2288 0.4096-2.4576 0.6144-3.6864 0.6144z m-49.9712-114.4832v9.0112c0 15.7696 5.7344 31.1296 15.7696 42.1888l23.9616 26.624V458.752c0-15.7696-5.7344-31.1296-15.7696-42.1888l-23.9616-26.624z" fill="#1C1D21" p-id="15542"></path><path d="M829.44 473.4976l41.7792-46.2848V462.848c0 18.432-6.5536 36.0448-18.2272 48.9472L811.008 558.08v-35.6352c0-18.2272 6.5536-35.84 18.432-48.9472zM792.7808 473.4976l-41.7792-46.2848V462.848c0 18.432 6.5536 36.0448 18.2272 48.9472l41.7792 46.2848v-35.6352c0-18.2272-6.5536-35.84-18.2272-48.9472z" fill="#FF9E5C" p-id="15543"></path><path d="M811.008 568.32c-1.2288 0-2.4576-0.2048-3.6864-0.6144-3.8912-1.4336-6.5536-5.3248-6.5536-9.6256v-35.6352c0-21.0944 7.3728-40.96 20.8896-55.9104l41.7792-46.2848c2.8672-3.072 7.3728-4.3008 11.264-2.6624 3.8912 1.4336 6.5536 5.3248 6.5536 9.6256V462.848c0 21.0944-7.3728 40.96-20.8896 55.9104l-41.7792 46.2848c-1.8432 2.2528-4.7104 3.2768-7.5776 3.2768z m26.0096-87.8592c-10.0352 11.0592-15.7696 26.4192-15.7696 42.1888v9.0112l23.9616-26.624c10.0352-11.0592 15.7696-26.4192 15.7696-42.1888v-9.0112l-23.9616 26.624z" fill="#1C1D21" p-id="15544"></path><path d="M811.008 568.32c-2.8672 0-5.5296-1.2288-7.5776-3.2768l-41.7792-46.2848c-13.5168-14.9504-20.8896-34.816-20.8896-55.9104v-35.6352c0-4.3008 2.6624-7.9872 6.5536-9.6256 3.8912-1.4336 8.3968-0.4096 11.264 2.6624l41.7792 46.2848c13.5168 14.9504 20.8896 34.816 20.8896 55.9104v35.6352c0 4.3008-2.6624 7.9872-6.5536 9.6256-1.2288 0.4096-2.4576 0.6144-3.6864 0.6144z m-49.9712-114.4832v9.0112c0 15.7696 5.7344 31.1296 15.7696 42.1888l23.9616 26.624v-9.0112c0-15.7696-5.7344-31.1296-15.7696-42.1888l-23.9616-26.624z" fill="#1C1D21" p-id="15545"></path><path d="M810.8032 653.312c-5.7344 0-10.24-4.5056-10.24-10.24V430.4896c0-5.7344 4.5056-10.24 10.24-10.24s10.24 4.5056 10.24 10.24V643.072c0 5.7344-4.7104 10.24-10.24 10.24z" fill="#1C1D21" p-id="15546"></path><path d="M512 282.8288a104.1408 104.1408 0 0 0-52.224 90.5216c0 38.7072 21.0944 72.4992 52.224 90.5216a104.1408 104.1408 0 0 0 52.224-90.5216c0-38.7072-20.8896-72.4992-52.224-90.5216z" fill="#0ABFB2" p-id="15547"></path><path d="M512 474.3168c-1.8432 0-3.4816-0.4096-5.12-1.4336-35.4304-20.48-57.344-58.5728-57.344-99.5328s21.9136-79.0528 57.344-99.5328c3.072-1.8432 7.168-1.8432 10.24 0 35.4304 20.48 57.344 58.5728 57.344 99.5328s-21.9136 79.0528-57.344 99.5328c-1.6384 1.024-3.2768 1.4336-5.12 1.4336z m0-179.4048c-26.0096 17.408-41.984 47.104-41.984 78.6432 0 31.5392 15.9744 61.0304 41.984 78.6432 26.0096-17.408 41.984-47.104 41.984-78.6432 0-31.744-15.9744-61.2352-41.984-78.6432z" fill="#1C1D21" p-id="15548"></path><path d="M512 653.312c-5.7344 0-10.24-4.5056-10.24-10.24V282.8288c0-5.7344 4.5056-10.24 10.24-10.24s10.24 4.5056 10.24 10.24V643.072c0 5.7344-4.5056 10.24-10.24 10.24z" fill="#1C1D21" p-id="15549"></path><path d="M628.1216 455.4752c-22.9376-6.144-48.5376-0.2048-66.56 17.8176-18.0224 18.0224-23.9616 43.6224-17.8176 66.56 22.9376 6.144 48.5376 0.2048 66.56-17.8176 18.0224-18.0224 23.9616-43.4176 17.8176-66.56z" fill="#0ABFB2" p-id="15550"></path><path d="M561.5616 552.5504c-6.7584 0-13.7216-0.8192-20.2752-2.6624-3.4816-1.024-6.3488-3.6864-7.168-7.168-7.168-27.2384 0.6144-56.5248 20.48-76.3904s49.152-27.8528 76.3904-20.48c3.4816 1.024 6.3488 3.6864 7.168 7.168 7.168 27.2384-0.6144 56.5248-20.48 76.3904-15.1552 14.9504-35.4304 23.1424-56.1152 23.1424z m-9.216-21.2992c18.432 2.8672 37.4784-3.072 50.5856-16.384 13.312-13.312 19.2512-32.3584 16.384-50.5856-18.432-2.8672-37.4784 3.072-50.5856 16.384-13.1072 13.312-19.2512 32.1536-16.384 50.5856z" fill="#1C1D21" p-id="15551"></path><path d="M512 581.8368c-2.6624 0-5.3248-1.024-7.168-3.072-4.096-4.096-4.096-10.4448 0-14.5408l116.1216-116.1216c4.096-4.096 10.4448-4.096 14.5408 0s4.096 10.4448 0 14.5408l-116.1216 116.1216c-2.048 2.2528-4.7104 3.072-7.3728 3.072z" fill="#1C1D21" p-id="15552"></path><path d="M395.8784 455.4752c22.9376-6.144 48.5376-0.2048 66.56 17.8176 18.0224 18.0224 23.9616 43.6224 17.8176 66.56-22.9376 6.144-48.5376 0.2048-66.56-17.8176-18.0224-18.0224-23.9616-43.4176-17.8176-66.56z" fill="#0ABFB2" p-id="15553"></path><path d="M462.4384 552.5504c-20.6848 0-41.1648-8.192-56.1152-23.1424-19.8656-19.8656-27.648-49.152-20.48-76.3904 1.024-3.4816 3.6864-6.3488 7.168-7.168 27.2384-7.168 56.5248 0.6144 76.3904 20.48 19.8656 19.8656 27.648 49.152 20.48 76.3904-1.024 3.4816-3.6864 6.3488-7.168 7.168-6.5536 1.6384-13.5168 2.6624-20.2752 2.6624z m-57.9584-88.4736c-2.8672 18.432 3.072 37.4784 16.384 50.5856 13.312 13.312 32.3584 19.2512 50.5856 16.384 2.8672-18.432-3.072-37.4784-16.384-50.5856-13.312-13.1072-32.1536-19.2512-50.5856-16.384z" fill="#1C1D21" p-id="15554"></path><path d="M512 581.8368c-2.6624 0-5.3248-1.024-7.168-3.072L388.5056 462.848c-4.096-4.096-4.096-10.4448 0-14.5408s10.4448-4.096 14.5408 0l116.1216 116.1216c4.096 4.096 4.096 10.4448 0 14.5408-1.8432 2.048-4.5056 2.8672-7.168 2.8672z" fill="#1C1D21" p-id="15555"></path><path d="M512 616.2432c-163.84 0-321.9456 24.1664-471.04 69.0176C111.616 876.9536 295.7312 1013.76 512 1013.76s400.384-136.8064 471.04-328.4992c-149.0944-44.8512-307.2-69.0176-471.04-69.0176z" fill="#C67552" p-id="15556"></path><path d="M512 1024c-106.9056 0-209.3056-32.5632-296.1408-94.208-84.7872-60.2112-148.6848-143.5648-184.5248-241.0496-1.024-2.6624-0.8192-5.5296 0.4096-8.192s3.4816-4.5056 6.144-5.3248c153.1904-46.08 312.5248-69.4272 473.9072-69.4272s320.7168 23.3472 473.9072 69.4272c2.6624 0.8192 4.9152 2.6624 6.144 5.3248s1.4336 5.5296 0.4096 8.192c-35.84 97.28-99.7376 180.6336-184.5248 240.8448C721.3056 991.4368 618.9056 1024 512 1024zM54.4768 692.0192C128 878.7968 310.4768 1003.52 512 1003.52s384-124.7232 457.5232-311.5008c-148.0704-43.4176-301.8752-65.536-457.5232-65.536s-309.4528 22.1184-457.5232 65.536z" fill="#1C1D21" p-id="15557"></path><path d="M368.64 836.1984c-5.7344 0-10.24-4.5056-10.24-10.24s4.5056-10.24 10.24-10.24c27.0336 0 49.152-22.1184 49.152-49.152V745.472c0-52.0192 42.1888-94.208 94.208-94.208 5.7344 0 10.24 4.5056 10.24 10.24s-4.5056 10.24-10.24 10.24c-40.7552 0-73.728 33.1776-73.728 73.728v20.8896c0 38.5024-31.3344 69.8368-69.632 69.8368z" fill="#1C1D21" p-id="15558"></path><path d="M512 1024c-136.8064 0-265.4208-53.248-362.0864-149.9136C53.248 777.4208 0 648.8064 0 512S53.248 246.5792 149.9136 149.9136C246.5792 53.248 375.1936 0 512 0s265.4208 53.248 362.0864 149.9136C970.752 246.5792 1024 375.1936 1024 512s-53.248 265.4208-149.9136 362.0864C777.4208 970.752 648.8064 1024 512 1024z m0-1003.52C241.0496 20.48 20.48 241.0496 20.48 512s220.5696 491.52 491.52 491.52 491.52-220.5696 491.52-491.52S782.9504 20.48 512 20.48z" fill="#1C1D21" p-id="15559"></path><path d="M335.0528 838.2464h-8.6016c-5.7344 0-10.24-4.5056-10.24-10.24s4.5056-10.24 10.24-10.24h8.6016c5.7344 0 10.24 4.5056 10.24 10.24s-4.5056 10.24-10.24 10.24zM655.36 836.1984c-38.5024 0-69.632-31.3344-69.632-69.632V745.472c0-40.7552-33.1776-73.728-73.728-73.728-5.7344 0-10.24-4.5056-10.24-10.24s4.5056-10.24 10.24-10.24c52.0192 0 94.208 42.1888 94.208 94.208v20.8896c0 27.0336 22.1184 49.152 49.152 49.152 5.7344 0 10.24 4.5056 10.24 10.24s-4.5056 10.4448-10.24 10.4448zM697.5488 838.2464h-8.6016c-5.7344 0-10.24-4.5056-10.24-10.24s4.5056-10.24 10.24-10.24h8.6016c5.7344 0 10.24 4.5056 10.24 10.24s-4.7104 10.24-10.24 10.24zM512 811.008c-5.7344 0-10.24-4.5056-10.24-10.24v-55.9104c0-5.7344 4.5056-10.24 10.24-10.24s10.24 4.5056 10.24 10.24V800.768c0 5.7344-4.5056 10.24-10.24 10.24zM512 864.256c-5.7344 0-10.24-4.5056-10.24-10.24v-10.24c0-5.7344 4.5056-10.24 10.24-10.24s10.24 4.5056 10.24 10.24v10.24c0 5.7344-4.5056 10.24-10.24 10.24z" fill="#1C1D21" p-id="15560"></path><path d="M466.944 680.5504a64.1024 45.056 90 1 0 90.112 0 64.1024 45.056 90 1 0-90.112 0Z" fill="#FFC5B3" p-id="15561"></path><path d="M512 755.0976c-30.9248 0-55.296-32.768-55.296-74.3424 0-41.7792 24.3712-74.3424 55.296-74.3424s55.296 32.768 55.296 74.3424c0 41.5744-24.3712 74.3424-55.296 74.3424z m0-128.4096c-18.8416 0-34.816 24.7808-34.816 53.8624 0 29.2864 15.9744 53.8624 34.816 53.8624s34.816-24.7808 34.816-53.8624c0-29.0816-15.9744-53.8624-34.816-53.8624z" fill="#1C1D21" p-id="15562"></path><path d="M410.0096 20.6848v3.6864c0 56.32 45.6704 101.9904 101.9904 101.9904s101.9904-45.6704 101.9904-101.9904v-3.6864C581.0176 13.7216 547.0208 10.24 512 10.24s-69.0176 3.4816-101.9904 10.4448z" fill="#FF8939" p-id="15563"></path><path d="M512 136.6016c-61.8496 0-112.2304-50.3808-112.2304-112.2304V20.48c0.2048-4.7104 3.4816-8.8064 8.192-9.6256 67.9936-14.1312 140.0832-14.1312 208.0768 0 4.7104 1.024 7.9872 4.9152 8.192 9.6256v3.8912c0 61.8496-50.3808 112.2304-112.2304 112.2304z m-91.7504-107.52c2.4576 48.3328 42.5984 87.04 91.7504 87.04s89.2928-38.7072 91.7504-87.04c-60.2112-11.4688-123.2896-11.4688-183.5008 0z" fill="#1C1D21" p-id="15564"></path><path d="M512 95.6416c-25.6 0-49.3568-13.9264-62.0544-36.2496-2.8672-4.9152-1.024-11.264 3.8912-13.9264 4.9152-2.8672 11.264-1.024 13.9264 3.8912 9.0112 15.9744 26.0096 25.8048 44.2368 25.8048s35.2256-9.8304 44.2368-25.8048c2.8672-4.9152 9.0112-6.5536 13.9264-3.8912 4.9152 2.8672 6.5536 9.0112 3.8912 13.9264-12.6976 22.3232-36.4544 36.2496-62.0544 36.2496z" fill="#FFC9A4" p-id="15565"></path><path d="M512 191.0784c-5.7344 0-10.24-4.5056-10.24-10.24v-12.288c0-5.7344 4.5056-10.24 10.24-10.24s10.24 4.5056 10.24 10.24v12.288c0 5.7344-4.5056 10.24-10.24 10.24zM405.2992 147.0464c-2.6624 0-5.3248-1.024-7.168-3.072-4.096-4.096-4.096-10.4448 0-14.5408l8.6016-8.6016c4.096-4.096 10.4448-4.096 14.5408 0s4.096 10.4448 0 14.5408l-8.6016 8.6016c-2.048 2.048-4.7104 3.072-7.3728 3.072zM618.7008 147.0464c-2.6624 0-5.3248-1.024-7.168-3.072l-8.6016-8.6016c-4.096-4.096-4.096-10.4448 0-14.5408s10.4448-4.096 14.5408 0l8.6016 8.6016c4.096 4.096 4.096 10.4448 0 14.5408-2.2528 2.048-4.7104 3.072-7.3728 3.072z" fill="#1C1D21" p-id="15566"></path><path d="M333.0048 677.4784c-5.12 0-9.6256-3.8912-10.24-9.0112-0.6144-5.5296 3.4816-10.6496 9.0112-11.264 7.3728-0.8192 14.7456-1.6384 22.3232-2.2528 5.7344-0.6144 10.6496 3.4816 11.264 9.216 0.6144 5.5296-3.4816 10.6496-9.216 11.264-7.3728 0.6144-14.7456 1.4336-21.9136 2.2528-0.4096-0.2048-0.8192-0.2048-1.2288-0.2048z" fill="#FFA364" p-id="15567"></path><path d="M96.6656 722.3296c-4.5056 0-8.6016-3.072-9.8304-7.5776-1.4336-5.5296 1.8432-11.0592 7.168-12.4928 54.8864-14.7456 111.0016-26.8288 167.3216-35.6352 5.5296-0.8192 10.8544 2.8672 11.6736 8.6016s-2.8672 10.8544-8.6016 11.6736c-55.5008 8.8064-111.0016 20.48-165.0688 35.0208-0.8192 0.2048-1.6384 0.4096-2.6624 0.4096z" fill="#FFA364" p-id="15568"></path></svg>