<svg xmlns="http://www.w3.org/2000/svg" viewBox="0 0 1024 1024" version="1.1"><path d="M512 512m-501.76 0a501.76 501.76 0 1 0 1003.52 0 501.76 501.76 0 1 0-1003.52 0Z" fill="#FFECE9" p-id="15398"></path><path d="M25.6 388.3008C15.5648 427.8272 10.24 469.4016 10.24 512c0 277.0944 224.6656 501.76 501.76 501.76s501.76-224.6656 501.76-501.76c0-42.5984-5.3248-84.1728-15.36-123.6992h-972.8z" fill="#C67552" p-id="15399"></path><path d="M512 1024c-136.8064 0-265.4208-53.248-362.0864-149.9136C53.248 777.4208 0 648.8064 0 512S53.248 246.5792 149.9136 149.9136C246.5792 53.248 375.1936 0 512 0s265.4208 53.248 362.0864 149.9136C970.752 246.5792 1024 375.1936 1024 512s-53.248 265.4208-149.9136 362.0864C777.4208 970.752 648.8064 1024 512 1024z m0-1003.52C241.0496 20.48 20.48 241.0496 20.48 512s220.5696 491.52 491.52 491.52 491.52-220.5696 491.52-491.52S782.9504 20.48 512 20.48z" fill="#1C1D21" p-id="15400"></path><path d="M512 1024c-136.8064 0-265.4208-53.248-362.0864-149.9136C53.248 777.4208 0 648.8064 0 512c0-42.5984 5.3248-85.1968 15.7696-126.1568 1.2288-4.5056 5.3248-7.7824 9.8304-7.7824h972.8c4.7104 0 8.8064 3.2768 9.8304 7.7824 10.4448 40.96 15.7696 83.5584 15.7696 126.1568 0 136.8064-53.248 265.4208-149.9136 362.0864S648.8064 1024 512 1024zM33.5872 398.5408C24.9856 435.6096 20.48 473.7024 20.48 512c0 270.9504 220.5696 491.52 491.52 491.52s491.52-220.5696 491.52-491.52c0-38.2976-4.5056-76.3904-13.1072-113.4592H33.5872z" fill="#1C1D21" p-id="15401"></path><path d="M512 109.1584c-25.3952 14.7456-42.5984 42.1888-42.5984 73.728 0 31.5392 17.2032 58.9824 42.5984 73.728 25.3952-14.7456 42.5984-42.1888 42.5984-73.728 0-31.3344-17.2032-58.9824-42.5984-73.728z" fill="#0ABFB2" p-id="15402"></path><path d="M512 267.0592c-1.8432 0-3.4816-0.4096-5.12-1.4336-29.4912-16.9984-47.7184-48.7424-47.7184-82.5344 0-33.9968 18.2272-65.536 47.7184-82.5344 3.072-1.8432 7.168-1.8432 10.24 0 29.4912 16.9984 47.7184 48.7424 47.7184 82.5344 0 33.9968-18.2272 65.536-47.7184 82.5344-1.6384 0.8192-3.2768 1.4336-5.12 1.4336z m0-145.8176c-20.0704 13.9264-32.3584 37.0688-32.3584 61.6448s12.288 47.7184 32.3584 61.6448c20.0704-13.9264 32.3584-37.0688 32.3584-61.6448s-12.288-47.7184-32.3584-61.6448z" fill="#1C1D21" p-id="15403"></path><path d="M512 398.5408c-5.7344 0-10.24-4.5056-10.24-10.24v-124.5184c0-5.7344 4.5056-10.24 10.24-10.24s10.24 4.5056 10.24 10.24v124.5184c0 5.7344-4.5056 10.24-10.24 10.24z" fill="#1C1D21" p-id="15404"></path><path d="M416.5632 200.9088c25.3952-6.7584 53.4528-0.2048 73.3184 19.6608 19.8656 19.8656 26.4192 47.9232 19.6608 73.3184-25.3952 6.7584-53.4528 0.2048-73.3184-19.6608-20.0704-19.8656-26.4192-47.9232-19.6608-73.3184z" fill="#0ABFB2" p-id="15405"></path><path d="M489.8816 306.5856c-22.528 0-44.6464-8.8064-61.0304-25.1904-21.7088-21.7088-30.1056-53.4528-22.3232-83.1488 1.024-3.4816 3.6864-6.3488 7.168-7.168 29.696-7.9872 61.44 0.6144 83.1488 22.3232 21.7088 21.7088 30.1056 53.4528 22.3232 83.1488-1.024 3.4816-3.6864 6.3488-7.168 7.168-7.168 2.048-14.7456 2.8672-22.1184 2.8672z m-64.7168-97.0752c-3.4816 20.8896 3.2768 42.3936 18.2272 57.5488 15.1552 15.1552 36.6592 21.7088 57.5488 18.2272 3.4816-20.8896-3.2768-42.3936-18.2272-57.5488-15.1552-14.9504-36.864-21.7088-57.5488-18.2272z" fill="#1C1D21" p-id="15406"></path><path d="M514.6624 293.888c25.3952 6.7584 53.4528 0.2048 73.3184-19.6608 19.8656-19.8656 26.4192-47.9232 19.6608-73.3184-25.3952-6.7584-53.4528-0.2048-73.3184 19.6608-20.0704 19.8656-26.4192 47.9232-19.6608 73.3184z" fill="#0ABFB2" p-id="15407"></path><path d="M534.1184 306.5856c-7.3728 0-14.7456-1.024-22.1184-2.8672-3.4816-1.024-6.3488-3.6864-7.168-7.168-7.9872-29.696 0.6144-61.44 22.3232-83.1488s53.4528-30.3104 83.1488-22.3232c3.4816 1.024 6.3488 3.6864 7.168 7.168 7.9872 29.696-0.6144 61.44-22.3232 83.1488-16.384 16.384-38.5024 25.1904-61.0304 25.1904z m-10.8544-21.2992c20.8896 3.4816 42.3936-3.2768 57.5488-18.2272 15.1552-15.1552 21.7088-36.6592 18.2272-57.5488-20.8896-3.4816-42.3936 3.2768-57.5488 18.2272-15.1552 15.1552-21.9136 36.6592-18.2272 57.5488z" fill="#1C1D21" p-id="15408"></path><path d="M655.9744 711.0656l57.1392 27.8528 79.0528-79.0528c21.504-21.504 27.0336-53.248 16.1792-79.872l28.672-28.672-40.5504-40.5504-28.672 28.672c-26.624-10.8544-58.368-5.3248-79.872 16.1792l-81.1008 81.1008 52.6336 7.168-3.4816 67.1744zM470.2208 812.6464l64.7168 64.7168c10.8544 10.8544 28.672 10.8544 39.5264 0l94.8224-94.8224-57.1392-27.8528 3.4816-67.1744-52.6336-7.168-92.5696 92.5696c-11.0592 11.264-11.0592 28.8768-0.2048 39.7312z" fill="#FF8939" p-id="15409"></path><path d="M836.8128 551.1168L796.672 510.976c-4.7104-4.7104-4.7104-12.4928 0-17.2032l15.36-15.36c4.7104-4.7104 12.4928-4.7104 17.2032 0l40.3456 40.3456c4.7104 4.7104 4.7104 12.4928 0 17.2032l-15.36 15.36c-4.9152 4.5056-12.4928 4.5056-17.408-0.2048z" fill="#508DEF" p-id="15410"></path><path d="M845.4144 565.0432c-5.9392 0-11.6736-2.2528-15.7696-6.5536L789.2992 518.144c-4.3008-4.3008-6.5536-9.8304-6.5536-15.7696s2.2528-11.6736 6.5536-15.7696l15.36-15.36c4.3008-4.3008 9.8304-6.5536 15.7696-6.5536 5.9392 0 11.6736 2.2528 15.7696 6.5536l40.3456 40.3456c4.3008 4.3008 6.5536 9.8304 6.5536 15.7696s-2.2528 11.6736-6.5536 15.7696l-15.36 15.36c-4.096 4.096-9.6256 6.5536-15.7696 6.5536z m-24.7808-80.0768c-0.4096 0-0.8192 0-1.4336 0.6144l-15.36 15.36c-0.4096 0.4096-0.6144 1.024-0.6144 1.4336s0 0.8192 0.6144 1.4336l40.3456 40.3456c0.4096 0.4096 1.024 0.6144 1.4336 0.6144 0.4096 0 0.8192 0 1.4336-0.6144l15.36-15.36c0.4096-0.4096 0.6144-1.024 0.6144-1.4336s0-0.8192-0.6144-1.4336l-40.3456-40.3456c-0.6144-0.4096-1.024-0.6144-1.4336-0.6144zM764.1088 642.048c-2.6624 0-5.3248-1.024-7.168-3.072l-5.7344-5.7344c-4.096-4.096-4.096-10.4448 0-14.5408s10.4448-4.096 14.5408 0l5.7344 5.7344c4.096 4.096 4.096 10.4448 0 14.5408-2.048 2.048-4.7104 3.072-7.3728 3.072z" fill="#1C1D21" p-id="15411"></path><path d="M713.1136 749.1584c-1.4336 0-3.072-0.4096-4.5056-1.024l-57.1392-27.8528c-3.6864-1.8432-5.9392-5.5296-5.7344-9.6256l2.8672-57.7536-43.2128-5.9392c-3.8912-0.6144-7.168-3.2768-8.3968-6.9632-1.2288-3.6864-0.2048-7.7824 2.4576-10.4448l81.1008-81.1008c22.3232-22.3232 54.8864-30.1056 84.5824-20.6848l23.9616-23.9616c4.096-4.096 10.4448-4.096 14.5408 0l40.5504 40.5504c4.096 4.096 4.096 10.4448 0 14.5408l-23.9616 24.1664c9.216 29.696 1.4336 62.2592-20.6848 84.5824l-79.0528 79.0528c-2.048 1.4336-4.7104 2.4576-7.3728 2.4576z m-46.4896-44.4416l44.4416 21.7088 73.9328-73.9328c18.0224-18.0224 23.552-45.056 13.9264-68.8128-1.6384-3.8912-0.6144-8.192 2.2528-11.0592l21.504-21.504-26.0096-26.0096-21.504 21.504c-2.8672 2.8672-7.3728 3.8912-11.0592 2.2528-23.7568-9.6256-50.7904-4.096-68.8128 13.9264L628.736 629.3504l32.1536 4.3008c5.3248 0.6144 9.216 5.3248 8.8064 10.6496l-3.072 60.416z" fill="#1C1D21" p-id="15412"></path><path d="M694.0672 617.472c-2.6624 0-5.3248-1.024-7.168-3.072-4.096-4.096-4.096-10.4448 0-14.5408l22.7328-22.7328c8.192-8.192 18.8416-12.6976 30.3104-12.6976 5.5296 0 11.0592 1.024 16.1792 3.072l12.9024 5.12c5.3248 2.048 7.7824 8.192 5.7344 13.312-2.048 5.3248-8.192 7.7824-13.312 5.7344l-12.9024-5.12c-2.6624-1.024-5.5296-1.6384-8.6016-1.6384-5.9392 0-11.6736 2.2528-15.9744 6.5536l-22.7328 22.7328c-1.8432 2.2528-4.5056 3.2768-7.168 3.2768z" fill="#FFC5B3" p-id="15413"></path><path d="M554.8032 895.7952c-9.8304 0-19.6608-3.6864-27.0336-11.264l-64.7168-64.7168c-7.168-7.168-11.264-16.7936-11.264-27.0336s3.8912-19.8656 11.264-27.0336l92.5696-92.5696c2.2528-2.2528 5.5296-3.2768 8.6016-2.8672l52.6336 7.168c5.3248 0.6144 9.216 5.3248 8.8064 10.6496l-3.072 60.416 50.9952 24.9856c3.072 1.4336 5.12 4.3008 5.5296 7.5776 0.6144 3.2768-0.6144 6.5536-2.8672 9.0112L581.8368 884.736c-7.3728 7.3728-17.2032 11.0592-27.0336 11.0592z m11.8784-204.3904l-89.088 89.088c-3.2768 3.2768-5.12 7.7824-5.12 12.4928s1.8432 9.216 5.12 12.4928l64.7168 64.7168c6.9632 6.9632 18.2272 6.9632 24.9856 0l84.5824-84.5824-44.2368-21.504c-3.6864-1.8432-5.9392-5.5296-5.7344-9.6256l2.8672-57.7536-38.0928-5.3248z" fill="#1C1D21" p-id="15414"></path><path d="M508.5184 803.2256c-2.6624 0-5.3248-1.024-7.168-3.072-4.096-4.096-4.096-10.4448 0-14.5408l64.1024-64.1024c4.096-4.096 10.4448-4.096 14.5408 0s4.096 10.4448 0 14.5408l-64.1024 64.1024c-2.2528 2.048-4.7104 3.072-7.3728 3.072z" fill="#FFC5B3" p-id="15415"></path><path d="M731.3408 609.28c-2.6624 0-5.3248-1.024-7.168-3.072l-43.4176-43.4176c-4.096-4.096-4.096-10.4448 0-14.5408s10.4448-4.096 14.5408 0l43.4176 43.4176c4.096 4.096 4.096 10.4448 0 14.5408-2.048 2.048-4.7104 3.072-7.3728 3.072z" fill="#1C1D21" p-id="15416"></path><path d="M326.8608 539.648l27.8528-57.1392-79.0528-79.0528c-21.504-21.504-53.248-27.0336-79.872-16.1792l-28.672-28.672-40.5504 40.5504 28.672 28.672c-10.8544 26.624-5.3248 58.368 16.1792 79.872l81.1008 81.1008 7.168-52.6336 67.1744 3.4816zM428.6464 725.4016l64.7168-64.7168c10.8544-10.8544 10.8544-28.672 0-39.5264L398.5408 526.336 370.688 583.4752l-67.1744-3.4816-7.168 52.6336 92.5696 92.5696c11.0592 11.0592 28.672 11.0592 39.7312 0.2048z" fill="#FF8939" p-id="15417"></path><path d="M166.912 358.8096l-40.3456 40.3456c-4.7104 4.7104-12.4928 4.7104-17.2032 0l-15.36-15.36c-4.7104-4.7104-4.7104-12.4928 0-17.2032l40.3456-40.3456c4.7104-4.7104 12.4928-4.7104 17.2032 0l15.36 15.36a11.8784 11.8784 0 0 1 0 17.2032z" fill="#508DEF" p-id="15418"></path><path d="M118.1696 412.8768c-5.9392 0-11.6736-2.2528-15.7696-6.5536l-15.36-15.36c-4.3008-4.3008-6.5536-9.8304-6.5536-15.7696s2.2528-11.6736 6.5536-15.7696l40.3456-40.3456c4.3008-4.3008 9.8304-6.5536 15.7696-6.5536 5.9392 0 11.6736 2.2528 15.7696 6.5536l15.36 15.36c8.8064 8.8064 8.8064 22.9376 0 31.744l-40.3456 40.3456c-4.096 4.096-9.8304 6.3488-15.7696 6.3488z m24.7808-80.0768c-0.4096 0-0.8192 0-1.4336 0.6144l-40.3456 40.3456c-0.4096 0.4096-0.6144 1.024-0.6144 1.4336s0 0.8192 0.6144 1.4336l15.36 15.36c0.4096 0.4096 1.024 0.6144 1.4336 0.6144 0.4096 0 0.8192 0 1.4336-0.6144L159.744 351.6416c0.8192-0.8192 0.8192-2.048 0-2.6624l-15.36-15.36c-0.4096-0.6144-1.024-0.8192-1.4336-0.8192z m23.9616 26.0096zM241.8688 447.488c-2.6624 0-5.3248-1.024-7.168-3.072-4.096-4.096-4.096-10.4448 0-14.5408l5.7344-5.7344c4.096-4.096 10.4448-4.096 14.5408 0s4.096 10.4448 0 14.5408l-5.7344 5.7344c-2.048 2.048-4.7104 3.072-7.3728 3.072z" fill="#1C1D21" p-id="15419"></path><path d="M252.5184 599.2448c-2.6624 0-5.3248-1.024-7.168-3.072l-81.1008-81.1008c-22.3232-22.3232-30.1056-54.8864-20.6848-84.5824l-24.1664-24.1664c-1.8432-1.8432-3.072-4.5056-3.072-7.168s1.024-5.3248 3.072-7.168l40.5504-40.5504c4.096-4.096 10.4448-4.096 14.5408 0l23.9616 23.9616c29.696-9.216 62.2592-1.4336 84.5824 20.6848l79.0528 79.0528c3.072 3.072 3.8912 7.7824 2.048 11.6736l-27.8528 57.1392c-1.8432 3.6864-5.5296 5.9392-9.6256 5.7344l-57.7536-2.8672-5.9392 43.2128c-0.6144 3.8912-3.2768 7.168-6.9632 8.3968-1.2288 0.6144-2.2528 0.8192-3.4816 0.8192z m-111.4112-200.0896l21.504 21.504c2.8672 2.8672 3.8912 7.3728 2.2528 11.0592-9.6256 23.7568-4.096 50.7904 13.9264 68.8128l66.56 66.56 4.3008-32.1536c0.6144-5.3248 5.3248-9.216 10.6496-8.8064l60.416 3.072 21.7088-44.4416-73.9328-73.9328c-18.0224-18.0224-45.056-23.552-68.8128-13.9264-3.8912 1.6384-8.192 0.6144-11.0592-2.2528l-21.504-21.504-26.0096 26.0096z" fill="#1C1D21" p-id="15420"></path><path d="M223.232 511.7952c-2.6624 0-5.3248-1.024-7.168-3.072l-22.7328-22.7328c-8.192-8.192-12.4928-18.8416-12.4928-30.3104 0-5.5296 1.024-11.0592 3.072-16.1792l5.12-12.9024c2.048-5.3248 8.192-7.7824 13.312-5.7344 5.3248 2.048 7.7824 8.192 5.7344 13.312l-5.12 12.9024c-1.024 2.6624-1.6384 5.5296-1.6384 8.6016 0 5.9392 2.2528 11.6736 6.5536 15.9744l22.7328 22.7328c4.096 4.096 4.096 10.4448 0 14.5408-2.2528 1.8432-4.9152 2.8672-7.3728 2.8672z" fill="#FFC5B3" p-id="15421"></path><path d="M408.7808 743.8336c-10.24 0-19.8656-3.8912-27.0336-11.264l-92.5696-92.5696c-2.2528-2.2528-3.2768-5.5296-2.8672-8.6016l7.168-52.6336c0.6144-5.3248 5.3248-9.216 10.6496-8.8064l60.416 3.072 24.9856-50.9952c1.4336-3.072 4.3008-5.12 7.5776-5.5296 3.2768-0.6144 6.5536 0.6144 9.0112 2.8672l94.8224 94.8224c14.9504 14.9504 14.9504 39.1168 0 54.0672L436.224 732.9792c-7.5776 6.7584-17.2032 10.8544-27.4432 10.8544z m-101.5808-114.688l89.088 89.088c6.9632 6.9632 18.2272 6.9632 24.9856 0l64.7168-64.7168c6.9632-6.9632 6.9632-18.2272 0-24.9856L401.408 543.744l-21.504 44.2368c-1.8432 3.6864-5.7344 5.9392-9.6256 5.7344l-57.7536-2.8672-5.3248 38.2976z" fill="#1C1D21" p-id="15422"></path><path d="M408.7808 697.344c-2.6624 0-5.3248-1.024-7.168-3.072l-64.1024-64.1024c-4.096-4.096-4.096-10.4448 0-14.5408s10.4448-4.096 14.5408 0l64.1024 64.1024c4.096 4.096 4.096 10.4448 0 14.5408-2.048 2.2528-4.7104 3.072-7.3728 3.072z" fill="#FFC5B3" p-id="15423"></path><path d="M171.4176 517.9392c-2.6624 0-5.3248-1.024-7.168-3.072-4.096-4.096-4.096-10.4448 0-14.5408l43.4176-43.4176c4.096-4.096 10.4448-4.096 14.5408 0s4.096 10.4448 0 14.5408l-43.4176 43.4176c-2.048 2.048-4.7104 3.072-7.3728 3.072z" fill="#1C1D21" p-id="15424"></path><path d="M574.6688 576.9216l-10.8544 10.8544c-6.5536 6.5536-17.2032 6.5536-23.7568 0l-111.8208-111.8208c-6.5536-6.5536-6.5536-17.2032 0-23.7568l10.8544-10.8544c6.5536-6.5536 17.2032-6.5536 23.7568 0l111.8208 111.8208c6.5536 6.5536 6.5536 17.2032 0 23.7568z" fill="#FFECE9" p-id="15425"></path><path d="M551.936 603.136c-7.168 0-14.1312-2.8672-19.0464-7.9872L421.0688 483.328c-5.12-5.12-7.9872-11.8784-7.9872-19.0464s2.8672-14.1312 7.9872-19.0464l10.8544-10.8544c5.12-5.12 11.8784-7.9872 19.0464-7.9872s14.1312 2.8672 19.0464 7.9872l111.8208 111.8208c5.12 5.12 7.9872 11.8784 7.9872 19.0464s-2.8672 14.1312-7.9872 19.0464l-10.8544 10.8544c-5.12 5.12-11.8784 7.9872-19.0464 7.9872z m-100.7616-156.2624c-1.8432 0-3.4816 0.6144-4.7104 1.8432l-10.8544 10.8544c-1.2288 1.2288-1.8432 2.8672-1.8432 4.7104s0.6144 3.4816 1.8432 4.7104l111.8208 111.8208c2.4576 2.4576 6.7584 2.4576 9.4208 0l10.8544-10.8544c1.2288-1.2288 1.8432-2.8672 1.8432-4.7104s-0.6144-3.4816-1.8432-4.7104l-111.8208-111.8208c-1.4336-1.2288-3.072-1.8432-4.7104-1.8432z" fill="#1C1D21" p-id="15426"></path><path d="M574.6688 576.9216l-10.8544 10.8544c-6.5536 6.5536-17.2032 6.5536-23.7568 0l-35.84-35.84 34.816-34.816 35.84 35.84c6.3488 6.7584 6.3488 17.408-0.2048 23.9616z" fill="#AA4D2D" p-id="15427"></path><path d="M551.936 603.136c-7.168 0-14.1312-2.8672-19.0464-7.9872l-35.84-35.84c-1.8432-1.8432-3.072-4.5056-3.072-7.168s1.024-5.3248 3.072-7.168l34.816-34.816c4.096-4.096 10.4448-4.096 14.5408 0l35.84 35.84c5.12 5.12 7.9872 11.8784 7.9872 19.0464s-2.8672 14.1312-7.9872 19.0464l-10.8544 10.8544c-5.5296 5.3248-12.288 8.192-19.456 8.192z m-33.3824-50.9952l28.672 28.672c2.4576 2.4576 6.7584 2.4576 9.4208 0l10.8544-10.8544c1.2288-1.2288 1.8432-2.8672 1.8432-4.7104s-0.6144-3.4816-1.8432-4.7104l-28.672-28.672-20.2752 20.2752z" fill="#1C1D21" p-id="15428"></path><path d="M98.0992 566.6816l10.8544-10.8544c6.5536-6.5536 17.2032-6.5536 23.7568 0l111.8208 111.8208c6.5536 6.5536 6.5536 17.2032 0 23.7568l-10.8544 10.8544c-6.5536 6.5536-17.2032 6.5536-23.7568 0l-111.8208-111.8208c-6.5536-6.5536-6.5536-17.2032 0-23.7568z" fill="#FFECE9" p-id="15429"></path><path d="M221.7984 717.4144c-7.168 0-14.1312-2.8672-19.0464-7.9872l-111.8208-111.8208c-5.12-5.12-7.9872-11.8784-7.9872-19.0464 0-7.168 2.8672-14.1312 7.9872-19.0464l10.8544-10.8544c10.6496-10.6496 27.648-10.6496 38.2976 0l111.8208 111.8208c5.12 5.12 7.9872 11.8784 7.9872 19.0464s-2.8672 14.1312-7.9872 19.0464l-10.8544 10.8544c-5.12 5.12-12.0832 7.9872-19.2512 7.9872z m-100.7616-156.4672c-1.6384 0-3.2768 0.6144-4.7104 1.8432l-10.8544 10.8544c-1.2288 1.2288-1.8432 2.8672-1.8432 4.7104 0 1.8432 0.6144 3.4816 1.8432 4.7104l111.8208 111.8208c2.4576 2.4576 6.7584 2.4576 9.4208 0l10.8544-10.8544c1.2288-1.2288 1.8432-2.8672 1.8432-4.7104s-0.6144-3.4816-1.8432-4.7104l-111.8208-111.8208c-1.2288-1.2288-3.072-1.8432-4.7104-1.8432z m-22.9376 5.7344z" fill="#1C1D21" p-id="15430"></path><path d="M98.0992 566.6816l10.8544-10.8544c6.5536-6.5536 17.2032-6.5536 23.7568 0l35.84 35.84-34.816 34.816-35.84-35.84c-6.3488-6.7584-6.3488-17.408 0.2048-23.9616z" fill="#AA4D2D" p-id="15431"></path><path d="M134.144 636.5184c-2.6624 0-5.3248-1.024-7.168-3.072l-35.84-35.84c-5.12-5.12-7.9872-11.8784-7.9872-19.0464 0-7.168 2.8672-14.1312 7.9872-19.0464l10.8544-10.8544c10.6496-10.6496 27.648-10.6496 38.2976 0L176.128 584.2944c4.096 4.096 4.096 10.4448 0 14.5408l-34.816 34.816c-2.048 1.8432-4.5056 2.8672-7.168 2.8672z m-13.1072-75.5712c-1.6384 0-3.2768 0.6144-4.7104 1.8432l-10.8544 10.8544c-1.2288 1.2288-1.8432 2.8672-1.8432 4.7104 0 1.8432 0.6144 3.4816 1.8432 4.7104l28.672 28.672 20.2752-20.2752-28.672-28.672c-1.2288-1.2288-3.072-1.8432-4.7104-1.8432z m-22.9376 5.7344z" fill="#1C1D21" p-id="15432"></path><path d="M750.592 894.1568c-7.168 7.168-18.8416 7.168-26.2144 0-7.168-7.168-7.168-18.8416 0-26.2144l-0.6144-0.6144c-7.168 7.168-18.8416 7.168-26.2144 0-7.168-7.168-7.168-18.8416 0-26.2144l8.3968-8.3968c14.5408-14.5408 38.2976-14.5408 53.0432 0 14.5408 14.5408 14.5408 38.2976 0 53.0432l-8.3968 8.3968zM846.848 691.8144c7.168-7.168 18.8416-7.168 26.2144 0 7.168 7.168 7.168 18.8416 0 26.2144l0.6144 0.6144c7.168-7.168 18.8416-7.168 26.2144 0 7.168 7.168 7.168 18.8416 0 26.2144l-8.3968 8.3968c-14.5408 14.5408-38.2976 14.5408-53.0432 0-14.5408-14.5408-14.5408-38.2976 0-53.0432l8.3968-8.3968z" fill="#FF3E63" p-id="15433"></path><path d="M838.656 806.0928l-26.624 26.624c-14.5408 14.5408-38.2976 14.5408-53.0432 0-14.5408-14.5408-14.5408-38.2976 0-53.0432l26.624-26.624c14.5408-14.5408 38.2976-14.5408 53.0432 0 14.5408 14.7456 14.5408 38.5024 0 53.0432z" fill="#FF3E63" p-id="15434"></path><path d="M785.408 854.016c-12.288 0-24.3712-4.7104-33.792-13.9264-9.0112-9.0112-13.9264-20.8896-13.9264-33.792 0-12.6976 4.9152-24.7808 13.9264-33.792l26.624-26.624c18.6368-18.6368 48.7424-18.6368 67.3792 0 9.0112 9.0112 13.9264 20.8896 13.9264 33.792 0 12.6976-4.9152 24.7808-13.9264 33.792l-26.624 26.624c-9.216 9.216-21.504 13.9264-33.5872 13.9264z m26.624-101.5808c-6.9632 0-13.9264 2.6624-19.2512 7.9872l-26.624 26.624c-5.12 5.12-7.9872 11.8784-7.9872 19.2512s2.8672 14.1312 7.9872 19.2512c10.6496 10.6496 27.8528 10.6496 38.5024 0l26.624-26.624c5.12-5.12 7.9872-11.8784 7.9872-19.2512s-2.8672-14.1312-7.9872-19.2512c-5.3248-5.3248-12.288-7.9872-19.2512-7.9872z" fill="#1C1D21" p-id="15435"></path><path d="M737.4848 909.7216c-7.5776 0-14.9504-3.072-20.2752-8.3968-5.12-5.12-7.9872-11.6736-8.3968-18.432-6.7584-0.4096-13.312-3.2768-18.432-8.3968-5.5296-5.3248-8.3968-12.6976-8.3968-20.2752s3.072-14.9504 8.3968-20.2752l8.3968-8.3968c9.0112-9.0112 20.8896-13.9264 33.792-13.9264 12.6976 0 24.7808 4.9152 33.792 13.9264s13.9264 20.8896 13.9264 33.792c0 12.6976-4.9152 24.7808-13.9264 33.792l-8.3968 8.3968c-5.5296 5.12-12.6976 8.192-20.48 8.192z m-13.7216-52.6336c2.6624 0 5.3248 1.024 7.168 3.072l0.6144 0.6144c3.8912 4.096 3.8912 10.4448 0 14.5408-3.2768 3.2768-3.2768 8.3968 0 11.6736 1.6384 1.6384 3.6864 2.4576 5.9392 2.4576s4.3008-0.8192 5.9392-2.4576l8.3968-8.3968c5.12-5.12 7.9872-11.8784 7.9872-19.2512s-2.8672-14.1312-7.9872-19.2512-11.8784-7.9872-19.2512-7.9872-14.1312 2.8672-19.2512 7.9872l-8.3968 8.3968c-1.6384 1.6384-2.4576 3.6864-2.4576 5.9392 0 2.2528 0.8192 4.3008 2.4576 5.9392 1.6384 1.6384 3.6864 2.4576 5.9392 2.4576s4.3008-0.8192 5.9392-2.4576c1.6384-2.2528 4.3008-3.2768 6.9632-3.2768zM865.0752 774.3488c-12.6976 0-24.7808-4.9152-33.792-13.9264s-13.9264-20.8896-13.9264-33.792c0-12.6976 4.9152-24.7808 13.9264-33.792l8.3968-8.3968c5.5296-5.5296 12.6976-8.3968 20.2752-8.3968s14.9504 3.072 20.2752 8.3968c5.12 5.12 7.9872 11.6736 8.3968 18.432 6.7584 0.4096 13.312 3.2768 18.432 8.3968 5.5296 5.3248 8.3968 12.6976 8.3968 20.2752s-3.072 14.9504-8.3968 20.2752l-8.3968 8.3968c-9.0112 9.216-20.8896 14.1312-33.5872 14.1312z m-5.12-77.6192c-2.2528 0-4.3008 0.8192-5.9392 2.4576l-8.3968 8.3968c-5.12 5.12-7.9872 11.8784-7.9872 19.2512s2.8672 14.1312 7.9872 19.2512 11.8784 7.9872 19.2512 7.9872 14.1312-2.8672 19.2512-7.9872l8.3968-8.3968c1.6384-1.6384 2.4576-3.6864 2.4576-5.9392 0-2.2528-0.8192-4.3008-2.4576-5.9392-1.6384-1.6384-3.6864-2.4576-5.9392-2.4576s-4.3008 0.8192-5.9392 2.4576c-1.8432 1.8432-4.5056 3.072-7.168 3.072-2.6624 0-5.3248-1.024-7.168-3.072l-0.6144-0.6144c-3.8912-4.096-3.8912-10.4448 0-14.5408 1.6384-1.6384 2.4576-3.6864 2.4576-5.9392 0-2.2528-0.8192-4.3008-2.4576-5.9392-1.4336-1.2288-3.4816-2.048-5.7344-2.048z m-13.1072-4.9152z" fill="#1C1D21" p-id="15436"></path><path d="M838.8608 763.6992c-2.6624 0-5.3248-1.024-7.168-3.072-4.096-4.096-4.096-10.4448 0-14.5408l34.816-34.816c4.096-4.096 10.4448-4.096 14.5408 0s4.096 10.4448 0 14.5408l-34.816 34.816c-2.048 2.048-4.7104 3.072-7.3728 3.072zM724.3776 878.1824c-2.6624 0-5.3248-1.024-7.168-3.072-4.096-4.096-4.096-10.4448 0-14.5408l34.816-34.816c4.096-4.096 10.4448-4.096 14.5408 0s4.096 10.4448 0 14.5408l-34.816 34.816c-2.048 2.048-4.7104 3.072-7.3728 3.072z" fill="#1C1D21" p-id="15437"></path><path d="M263.3728 788.0704c-7.168-7.168-7.168-18.8416 0-26.2144 7.168-7.168 18.8416-7.168 26.2144 0l0.6144-0.6144c-7.168-7.168-7.168-18.8416 0-26.2144 7.168-7.168 18.8416-7.168 26.2144 0l8.3968 8.3968c14.5408 14.5408 14.5408 38.2976 0 53.0432-14.5408 14.5408-38.2976 14.5408-53.0432 0l-8.3968-8.3968zM465.5104 884.3264c7.168 7.168 7.168 18.8416 0 26.2144-7.168 7.168-18.8416 7.168-26.2144 0l-0.6144 0.6144c7.168 7.168 7.168 18.8416 0 26.2144-7.168 7.168-18.8416 7.168-26.2144 0l-8.3968-8.3968c-14.5408-14.5408-14.5408-38.2976 0-53.0432 14.5408-14.5408 38.2976-14.5408 53.0432 0l8.3968 8.3968z" fill="#FF3E63" p-id="15438"></path><path d="M351.232 875.9296l-26.624-26.624c-14.5408-14.5408-14.5408-38.2976 0-53.0432 14.5408-14.5408 38.2976-14.5408 53.0432 0l26.624 26.624c14.5408 14.5408 14.5408 38.2976 0 53.0432-14.7456 14.7456-38.5024 14.7456-53.0432 0z" fill="#FF3E63" p-id="15439"></path><path d="M377.6512 897.2288c-12.6976 0-24.7808-4.9152-33.792-13.9264l-26.624-26.624c-9.0112-9.0112-13.9264-20.8896-13.9264-33.792 0-12.6976 4.9152-24.7808 13.9264-33.792s20.8896-13.9264 33.792-13.9264c12.6976 0 24.7808 4.9152 33.792 13.9264l26.624 26.624c18.6368 18.6368 18.6368 48.7424 0 67.3792-9.0112 9.216-20.8896 14.1312-33.792 14.1312z m-26.624-101.5808c-7.168 0-14.1312 2.8672-19.2512 7.9872s-7.9872 11.8784-7.9872 19.2512 2.8672 14.1312 7.9872 19.2512l26.624 26.624c5.12 5.12 11.8784 7.9872 19.2512 7.9872s14.1312-2.8672 19.2512-7.9872c10.6496-10.6496 10.6496-27.8528 0-38.5024l-26.624-26.624c-5.12-5.12-12.0832-7.9872-19.2512-7.9872z" fill="#1C1D21" p-id="15440"></path><path d="M297.984 817.5616c-12.288 0-24.3712-4.7104-33.792-13.9264l-8.3968-8.3968c-11.264-11.264-11.264-29.4912 0-40.5504 5.12-5.12 11.6736-7.9872 18.432-8.3968 0.4096-6.7584 3.2768-13.312 8.3968-18.432 5.5296-5.5296 12.6976-8.3968 20.2752-8.3968s14.9504 3.072 20.2752 8.3968l8.3968 8.3968c9.0112 9.0112 13.9264 20.8896 13.9264 33.792 0 12.6976-4.9152 24.7808-13.9264 33.792s-21.2992 13.7216-33.5872 13.7216z m-27.4432-36.864l8.3968 8.3968c10.6496 10.6496 27.8528 10.6496 38.5024 0 5.12-5.12 7.9872-11.8784 7.9872-19.2512s-2.8672-14.1312-7.9872-19.2512l-8.3968-8.3968c-1.6384-1.6384-3.6864-2.4576-5.9392-2.4576s-4.3008 0.8192-5.9392 2.4576c-1.6384 1.6384-2.4576 3.6864-2.4576 5.9392s0.8192 4.3008 2.4576 5.9392c1.8432 1.8432 3.072 4.5056 3.072 7.168s-1.024 5.3248-3.072 7.168l-0.6144 0.6144c-4.096 4.096-10.4448 3.8912-14.5408 0-1.6384-1.6384-3.6864-2.4576-5.9392-2.4576s-4.3008 0.8192-5.9392 2.4576c-2.8672 3.2768-2.8672 8.6016 0.4096 11.6736zM425.5744 952.9344c-7.5776 0-14.9504-3.072-20.2752-8.3968l-8.3968-8.3968c-18.6368-18.6368-18.6368-48.7424 0-67.3792 9.0112-9.0112 20.8896-13.9264 33.792-13.9264 12.6976 0 24.7808 4.9152 33.792 13.9264l8.3968 8.3968c11.264 11.264 11.264 29.4912 0 40.5504-4.9152 4.9152-11.4688 7.9872-18.432 8.3968-0.4096 6.7584-3.2768 13.312-8.3968 18.432-5.5296 5.3248-12.6976 8.3968-20.48 8.3968z m5.12-77.6192c-7.168 0-14.1312 2.8672-19.2512 7.9872-10.6496 10.6496-10.6496 27.8528 0 38.5024l8.3968 8.3968c1.6384 1.6384 3.6864 2.4576 5.9392 2.4576s4.3008-0.8192 5.9392-2.4576c3.2768-3.2768 3.2768-8.3968 0-11.6736-1.8432-1.8432-3.072-4.5056-3.072-7.168s1.024-5.3248 3.072-7.168l0.6144-0.6144c4.096-4.096 10.4448-3.8912 14.5408 0 1.6384 1.6384 3.6864 2.4576 5.9392 2.4576s4.3008-0.8192 5.9392-2.4576c3.2768-3.2768 3.2768-8.3968 0-11.6736l-8.3968-8.3968c-5.5296-5.3248-12.4928-8.192-19.6608-8.192z" fill="#1C1D21" p-id="15441"></path><path d="M438.6816 921.3952c-2.6624 0-5.3248-1.024-7.168-3.072l-34.816-34.816c-4.096-4.096-4.096-10.4448 0-14.5408s10.4448-4.096 14.5408 0l34.816 34.816c4.096 4.096 4.096 10.4448 0 14.5408-2.048 2.048-4.7104 3.072-7.3728 3.072zM324.1984 806.912c-2.6624 0-5.3248-1.024-7.168-3.072l-34.816-34.816c-4.096-4.096-4.096-10.4448 0-14.5408s10.4448-4.096 14.5408 0l34.816 34.816c4.096 4.096 4.096 10.4448 0 14.5408-2.048 2.048-4.7104 3.072-7.3728 3.072zM699.8016 483.5328h-53.6576c-2.6624 0-5.3248-1.024-7.168-3.072l-84.992-84.992c-4.096-4.096-4.096-10.4448 0-14.5408s10.4448-4.096 14.5408 0l81.92 81.92h49.5616c5.7344 0 10.24 4.5056 10.24 10.24s-4.9152 10.4448-10.4448 10.4448z" fill="#1C1D21" p-id="15442"></path><path d="M645.9392 511.7952c-5.7344 0-10.24-4.5056-10.24-10.24v-28.2624c0-5.7344 4.5056-10.24 10.24-10.24s10.24 4.5056 10.24 10.24v28.2624c0 5.5296-4.5056 10.24-10.24 10.24zM645.9392 556.4416c-5.7344 0-10.24-4.5056-10.24-10.24v-6.7584c0-5.7344 4.5056-10.24 10.24-10.24s10.24 4.5056 10.24 10.24v6.7584c0 5.5296-4.5056 10.24-10.24 10.24zM907.8784 582.0416c-2.6624 0-5.3248-1.024-7.168-3.072-4.096-4.096-4.096-10.4448 0-14.5408l26.0096-26.0096v-86.8352c0-5.7344 4.5056-10.24 10.24-10.24s10.24 4.5056 10.24 10.24V542.72c0 2.6624-1.024 5.3248-3.072 7.168l-29.0816 29.0816c-1.8432 2.048-4.5056 3.072-7.168 3.072z" fill="#1C1D21" p-id="15443"></path><path d="M936.96 461.824H899.072c-5.7344 0-10.24-4.5056-10.24-10.24s4.5056-10.24 10.24-10.24h37.888c5.7344 0 10.24 4.5056 10.24 10.24s-4.7104 10.24-10.24 10.24zM867.5328 461.824h-7.168c-5.7344 0-10.24-4.5056-10.24-10.24s4.5056-10.24 10.24-10.24h7.168c5.7344 0 10.24 4.5056 10.24 10.24s-4.5056 10.24-10.24 10.24zM274.432 890.6752c-2.6624 0-5.3248-1.024-7.168-3.072l-100.5568-100.5568c-4.096-4.096-4.096-10.4448 0-14.5408s10.4448-4.096 14.5408 0l100.5568 100.5568c4.096 4.096 4.096 10.4448 0 14.5408-2.048 2.048-4.7104 3.072-7.3728 3.072zM144.5888 765.3376c-2.6624 0-5.3248-1.024-7.168-3.072l-5.12-5.12c-4.096-4.096-4.096-10.4448 0-14.5408s10.4448-4.096 14.5408 0l5.12 5.12c4.096 4.096 4.096 10.4448 0 14.5408-2.2528 2.048-4.9152 3.072-7.3728 3.072zM873.6768 615.424c-2.6624 0-5.3248-1.024-7.168-3.072-4.096-4.096-4.096-10.4448 0-14.5408l7.168-7.168c4.096-4.096 10.4448-4.096 14.5408 0s4.096 10.4448 0 14.5408l-7.168 7.168c-2.2528 2.2528-4.7104 3.072-7.3728 3.072z" fill="#1C1D21" p-id="15444"></path></svg>