<svg xmlns="http://www.w3.org/2000/svg" viewBox="0 0 1024 1024" version="1.1"><path d="M512 512m-501.76 0a501.76 501.76 0 1 0 1003.52 0 501.76 501.76 0 1 0-1003.52 0Z" fill="#8CEEF9" p-id="15948"></path><path d="M626.688 503.808H397.312c-9.8304 0-19.0464 4.5056-24.9856 12.288-18.8416 24.3712-28.8768 54.272-28.8768 84.992v143.1552c0 17.408 14.1312 31.5392 31.5392 31.5392h274.0224c17.408 0 31.5392-14.1312 31.5392-31.5392v-143.1552c0-30.72-10.24-60.6208-28.8768-84.992-6.144-7.7824-15.36-12.288-24.9856-12.288z" fill="#C67552" p-id="15949"></path><path d="M649.0112 785.8176H374.9888c-22.9376 0-41.7792-18.6368-41.7792-41.7792v-143.1552c0-32.768 11.0592-65.1264 31.1296-91.136 7.7824-10.24 20.2752-16.1792 32.9728-16.1792h229.376c12.9024 0 25.1904 6.144 32.9728 16.1792 20.0704 26.0096 31.1296 58.368 31.1296 91.136v143.1552c0 23.1424-18.8416 41.7792-41.7792 41.7792zM397.312 514.048c-6.5536 0-12.9024 3.072-16.7936 8.192-17.2032 22.528-26.8288 50.3808-26.8288 78.6432v143.1552c0 11.6736 9.4208 21.2992 21.2992 21.2992h274.0224c11.6736 0 21.2992-9.4208 21.2992-21.2992v-143.1552c0-28.2624-9.4208-56.32-26.8288-78.6432-3.8912-5.12-10.24-8.192-16.7936-8.192H397.312z" fill="#1C1D21" p-id="15950"></path><path d="M512 1013.76c140.6976 0 267.8784-57.9584 359.0144-151.1424H152.9856C244.1216 955.8016 371.3024 1013.76 512 1013.76z" fill="#0ABFB2" p-id="15951"></path><path d="M512 1024c-139.0592 0-269.1072-54.8864-366.1824-154.2144-2.8672-2.8672-3.6864-7.3728-2.048-11.0592 1.6384-3.8912 5.3248-6.3488 9.4208-6.3488h717.824c4.096 0 7.7824 2.4576 9.4208 6.3488 1.6384 3.8912 0.8192 8.192-2.048 11.0592-97.28 99.328-227.328 154.2144-366.3872 154.2144zM178.176 872.8576c91.136 84.3776 208.6912 130.6624 333.824 130.6624s242.688-46.2848 333.824-130.6624H178.176z" fill="#1C1D21" p-id="15952"></path><path d="M512 1024c-136.8064 0-265.4208-53.248-362.0864-149.9136C53.248 777.4208 0 648.8064 0 512S53.248 246.5792 149.9136 149.9136C246.5792 53.248 375.1936 0 512 0s265.4208 53.248 362.0864 149.9136C970.752 246.5792 1024 375.1936 1024 512s-53.248 265.4208-149.9136 362.0864C777.4208 970.752 648.8064 1024 512 1024z m0-1003.52C241.0496 20.48 20.48 241.0496 20.48 512s220.5696 491.52 491.52 491.52 491.52-220.5696 491.52-491.52S782.9504 20.48 512 20.48z" fill="#1C1D21" p-id="15953"></path><path d="M512 1024c-136.8064 0-265.4208-53.248-362.0864-149.9136C53.248 777.4208 0 648.8064 0 512S53.248 246.5792 149.9136 149.9136C246.5792 53.248 375.1936 0 512 0s265.4208 53.248 362.0864 149.9136C970.752 246.5792 1024 375.1936 1024 512s-53.248 265.4208-149.9136 362.0864C777.4208 970.752 648.8064 1024 512 1024z m0-1003.52C241.0496 20.48 20.48 241.0496 20.48 512s220.5696 491.52 491.52 491.52 491.52-220.5696 491.52-491.52S782.9504 20.48 512 20.48z" fill="#1C1D21" p-id="15954"></path><path d="M411.648 287.3344h11.8784v-50.5856H411.648c-12.9024 0-23.3472 10.4448-23.3472 23.3472v3.8912c0 12.6976 10.4448 23.3472 23.3472 23.3472z" fill="#FFC5B3" p-id="15955"></path><path d="M423.3216 297.5744H411.648c-18.6368 0-33.5872-15.1552-33.5872-33.5872V260.096c0-18.6368 15.1552-33.5872 33.5872-33.5872h11.8784c5.7344 0 10.24 4.5056 10.24 10.24v50.5856c-0.2048 5.5296-4.7104 10.24-10.4448 10.24z m-11.6736-50.7904c-7.168 0-13.1072 5.9392-13.1072 13.1072v3.8912c0 7.168 5.9392 13.1072 13.1072 13.1072h1.6384v-30.1056h-1.6384z" fill="#1C1D21" p-id="15956"></path><path d="M611.7376 236.544h-11.8784v50.5856h11.8784c12.9024 0 23.3472-10.4448 23.3472-23.3472v-3.8912c0-12.9024-10.4448-23.3472-23.3472-23.3472z" fill="#FFC5B3" p-id="15957"></path><path d="M611.7376 297.5744h-11.8784c-5.7344 0-10.24-4.5056-10.24-10.24v-50.5856c0-5.7344 4.5056-10.24 10.24-10.24h11.8784c18.6368 0 33.5872 15.1552 33.5872 33.5872v3.8912c0 18.432-15.1552 33.5872-33.5872 33.5872z m-1.6384-20.48h1.6384c7.168 0 13.1072-5.9392 13.1072-13.1072V260.096c0-7.168-5.9392-13.1072-13.1072-13.1072h-1.6384v30.1056z" fill="#1C1D21" p-id="15958"></path><path d="M594.7392 462.2336l-34.816-21.504c-13.7216-8.3968-22.1184-23.552-22.1184-39.7312v-14.1312c0-7.7824 4.7104-14.7456 11.6736-18.0224 30.1056-14.1312 50.9952-44.8512 50.9952-80.2816V247.808c0-48.9472-39.7312-88.6784-88.6784-88.6784s-88.6784 39.7312-88.6784 88.6784v40.7552c0 35.4304 20.8896 66.1504 50.9952 80.2816 7.168 3.2768 11.6736 10.24 11.6736 18.0224v14.1312c0 16.1792-8.3968 31.1296-22.1184 39.7312l-34.816 21.504c-28.0576 17.408-45.2608 48.128-45.2608 81.3056v452.8128c40.7552 11.4688 83.7632 17.6128 128.2048 17.6128 44.4416 0 87.4496-6.144 128-17.6128V543.3344c0.2048-32.9728-16.7936-63.8976-45.056-81.1008z" fill="#FFC5B3" p-id="15959"></path><path d="M512 1024c-44.4416 0-88.4736-5.9392-130.8672-18.0224-4.5056-1.2288-7.3728-5.3248-7.3728-9.8304V543.3344c0-36.864 18.8416-70.4512 50.176-89.9072l34.816-21.504c10.8544-6.7584 17.2032-18.2272 17.2032-30.9248v-14.1312c0-3.6864-2.2528-7.168-5.7344-8.8064-34.6112-16.1792-56.9344-51.4048-56.9344-89.4976V247.808c0-54.4768 44.4416-98.9184 98.9184-98.9184 26.4192 0 51.2 10.24 70.0416 28.8768 18.6368 18.6368 28.8768 43.6224 28.8768 70.0416v40.7552c0 38.0928-22.3232 73.3184-56.9344 89.4976-3.6864 1.6384-5.7344 5.12-5.7344 8.8064v14.1312c0 12.6976 6.3488 24.1664 17.2032 30.9248l34.816 21.504c31.3344 19.456 50.176 53.0432 50.176 89.9072v452.8128c0 4.5056-3.072 8.6016-7.3728 9.8304-42.8032 12.0832-86.8352 18.0224-131.2768 18.0224z m-117.9648-35.6352c38.2976 10.0352 78.0288 15.1552 117.9648 15.1552s79.4624-5.12 117.76-15.1552V543.3344c0-29.696-15.1552-56.9344-40.3456-72.4992l-34.816-21.504c-16.7936-10.4448-27.0336-28.4672-27.0336-48.3328v-14.1312c0-11.6736 6.9632-22.3232 17.6128-27.4432 27.4432-12.9024 45.056-40.7552 45.056-71.0656V247.808c0-20.8896-8.192-40.7552-22.9376-55.5008-14.7456-14.7456-34.6112-22.9376-55.5008-22.9376-43.2128 0-78.4384 35.2256-78.4384 78.4384v40.7552c0 30.3104 17.6128 58.1632 45.056 71.0656 10.6496 5.12 17.6128 15.7696 17.6128 27.4432v14.1312c0 19.8656-10.0352 37.888-27.0336 48.3328L434.176 471.04c-25.3952 15.5648-40.3456 42.8032-40.3456 72.4992v444.8256z" fill="#1C1D21" p-id="15960"></path><path d="M594.7392 462.2336l-23.7568-14.5408c-18.432 6.3488-38.5024 10.0352-59.1872 10.0352-20.6848 0-40.5504-3.4816-59.1872-10.0352l-23.7568 14.5408c-28.0576 17.408-45.2608 48.128-45.2608 81.3056v452.8128c40.7552 11.4688 83.7632 17.6128 128.2048 17.6128 44.4416 0 87.4496-6.144 128-17.6128V543.3344c0.2048-32.9728-16.7936-63.8976-45.056-81.1008z" fill="#FFECE9" p-id="15961"></path><path d="M512 1024c-44.4416 0-88.4736-5.9392-130.8672-18.0224-4.5056-1.2288-7.3728-5.3248-7.3728-9.8304V543.3344c0-36.864 18.8416-70.4512 50.176-89.9072l23.7568-14.5408c2.6624-1.6384 5.7344-2.048 8.8064-1.024 17.8176 6.144 36.6592 9.4208 55.7056 9.4208s37.888-3.072 55.7056-9.4208c2.8672-1.024 6.144-0.6144 8.8064 1.024l23.7568 14.5408c31.3344 19.456 50.176 53.0432 50.176 89.9072v452.8128c0 4.5056-3.072 8.6016-7.3728 9.8304-42.8032 12.0832-86.8352 18.0224-131.2768 18.0224z m-117.9648-35.6352c38.2976 10.0352 78.0288 15.1552 117.9648 15.1552s79.4624-5.12 117.76-15.1552V543.3344c0-29.696-15.1552-56.9344-40.3456-72.4992l-19.6608-12.0832c-18.6368 5.9392-38.0928 9.0112-57.7536 9.0112-19.6608 0-39.1168-3.072-57.7536-9.0112l-19.6608 12.0832c-25.3952 15.5648-40.3456 42.8032-40.3456 72.4992v445.0304z" fill="#1C1D21" p-id="15962"></path><path d="M383.7952 775.5776v220.5696c40.7552 11.4688 83.7632 17.6128 128.2048 17.6128 44.4416 0 87.4496-6.144 128-17.6128V775.5776H383.7952z" fill="#508DEF" p-id="15963"></path><path d="M512 1024c-44.4416 0-88.4736-5.9392-130.8672-18.0224-4.5056-1.2288-7.3728-5.3248-7.3728-9.8304V775.5776c0-5.7344 4.5056-10.24 10.24-10.24h256.2048c5.7344 0 10.24 4.5056 10.24 10.24v220.5696c0 4.5056-3.072 8.6016-7.3728 9.8304-42.5984 12.0832-86.6304 18.0224-131.072 18.0224z m-117.9648-35.6352c38.2976 10.0352 78.0288 15.1552 117.9648 15.1552s79.4624-5.12 117.76-15.1552v-202.5472H394.0352v202.5472z" fill="#1C1D21" p-id="15964"></path><path d="M571.1872 302.8992c-12.4928 0-24.3712 5.5296-32.5632 14.9504-6.5536 7.168-15.9744 11.8784-26.4192 11.8784s-19.8656-4.5056-26.4192-11.8784c-8.3968-9.4208-20.0704-14.9504-32.5632-14.9504H423.936c0 47.9232 38.912 86.8352 86.8352 86.8352h2.048c47.9232 0 86.8352-38.912 86.8352-86.8352h-28.4672z" fill="#FF8939" p-id="15965"></path><path d="M513.024 399.9744h-2.048c-53.6576 0-97.0752-43.6224-97.0752-97.0752 0-5.7344 4.5056-10.24 10.24-10.24h28.8768c15.1552 0 29.9008 6.7584 40.3456 18.2272 4.7104 5.3248 11.6736 8.3968 18.8416 8.3968s14.1312-3.072 18.8416-8.3968c10.4448-11.6736 24.9856-18.2272 40.3456-18.2272h28.8768c5.7344 0 10.24 4.5056 10.24 10.24-0.4096 53.6576-43.8272 97.0752-97.4848 97.0752z m-78.0288-86.8352c5.12 37.4784 37.2736 66.3552 75.9808 66.3552h2.048c38.912 0 71.0656-29.0816 75.9808-66.3552h-18.0224c-9.4208 0-18.432 4.096-24.9856 11.4688-8.6016 9.6256-21.0944 15.1552-33.9968 15.1552s-25.3952-5.5296-33.9968-15.1552c-6.5536-7.3728-15.5648-11.4688-24.9856-11.4688h-18.0224zM512 1024c-5.7344 0-10.24-4.5056-10.24-10.24v-154.8288c0-2.6624 1.024-5.3248 3.072-7.168l26.624-26.624c4.096-4.096 10.4448-4.096 14.5408 0s4.096 10.4448 0 14.5408L522.24 863.232V1013.76c0 5.7344-4.5056 10.24-10.24 10.24z" fill="#1C1D21" p-id="15966"></path><path d="M512 869.1712c-2.6624 0-5.3248-1.024-7.168-3.072l-28.2624-28.2624c-4.096-4.096-4.096-10.4448 0-14.5408s10.4448-4.096 14.5408 0l28.2624 28.2624c4.096 4.096 4.096 10.4448 0 14.5408-2.048 2.048-4.7104 3.072-7.3728 3.072z" fill="#1C1D21" p-id="15967"></path><path d="M662.7328 197.632h-51.4048c-11.6736 0-21.2992-9.6256-21.2992-21.2992 0-43.008-34.816-78.0288-78.0288-78.0288-43.008 0-78.0288 34.816-78.0288 78.0288 0 11.6736-9.6256 21.2992-21.2992 21.2992h-51.6096c-11.0592 0-20.48 8.6016-20.6848 19.6608-0.2048 11.264 8.8064 20.48 20.0704 20.48h302.8992c11.264 0 20.2752-9.216 20.0704-20.48-0.2048-11.0592-9.6256-19.6608-20.6848-19.6608z" fill="#508DEF" p-id="15968"></path><path d="M663.3472 248.0128H360.448c-8.192 0-15.9744-3.2768-21.7088-9.0112-5.7344-5.9392-8.8064-13.5168-8.6016-21.7088 0.2048-16.384 14.1312-29.696 30.9248-29.696h51.6096c6.144 0 11.0592-4.9152 11.0592-11.0592 0-48.5376 39.5264-88.2688 88.2688-88.2688s88.2688 39.5264 88.2688 88.2688c0 6.144 4.9152 11.0592 11.0592 11.0592h51.6096c16.7936 0 30.72 13.312 30.9248 29.696 0.2048 8.192-2.8672 15.9744-8.6016 21.7088-5.9392 5.7344-13.7216 9.0112-21.9136 9.0112z m-302.08-40.1408c-5.7344 0-10.4448 4.3008-10.4448 9.6256 0 2.6624 1.024 5.12 2.8672 7.168 1.8432 1.8432 4.3008 2.8672 6.9632 2.8672H663.552c2.6624 0 5.12-1.024 6.9632-2.8672 1.8432-1.8432 2.8672-4.5056 2.8672-7.168 0-5.3248-4.7104-9.6256-10.4448-9.6256h-51.6096c-17.408 0-31.5392-14.1312-31.5392-31.5392 0-37.2736-30.3104-67.7888-67.7888-67.7888-37.2736 0-67.7888 30.3104-67.7888 67.7888 0 17.408-14.1312 31.5392-31.5392 31.5392h-51.4048z" fill="#1C1D21" p-id="15969"></path><path d="M479.232 207.872h-66.3552c-5.7344 0-10.24-4.5056-10.24-10.24s4.5056-10.24 10.24-10.24H479.232c5.7344 0 10.24 4.5056 10.24 10.24s-4.7104 10.24-10.24 10.24zM538.4192 207.872h-18.0224c-5.7344 0-10.24-4.5056-10.24-10.24s4.5056-10.24 10.24-10.24h18.0224c5.7344 0 10.24 4.5056 10.24 10.24s-4.7104 10.24-10.24 10.24z" fill="#1C1D21" p-id="15970"></path><path d="M234.9056 560.128h-4.9152c-46.8992 1.6384-75.776 52.224-54.4768 94.0032l56.9344 112.0256 56.9344-112.0256c21.2992-41.7792-7.5776-92.3648-54.4768-94.0032z m-2.4576 97.0752c-15.36 0-27.648-12.288-27.648-27.648s12.288-27.648 27.648-27.648 27.648 12.288 27.648 27.648-12.288 27.648-27.648 27.648zM234.9056 257.8432h-4.9152c-46.8992 1.6384-75.776 52.224-54.4768 94.0032l56.9344 112.0256 56.9344-112.0256c21.2992-41.7792-7.5776-92.5696-54.4768-94.0032z m-2.4576 96.8704c-15.36 0-27.648-12.288-27.648-27.648s12.288-27.648 27.648-27.648 27.648 12.288 27.648 27.648-12.288 27.648-27.648 27.648zM794.0096 560.128h-4.9152c-46.8992 1.6384-75.776 52.224-54.4768 94.0032l56.9344 112.0256 56.9344-112.0256c21.2992-41.7792-7.5776-92.3648-54.4768-94.0032z m-2.4576 97.0752c-15.36 0-27.648-12.288-27.648-27.648s12.288-27.648 27.648-27.648 27.648 12.288 27.648 27.648-12.288 27.648-27.648 27.648zM794.0096 257.8432h-4.9152c-46.8992 1.6384-75.776 52.224-54.4768 94.0032l56.9344 112.0256 56.9344-112.0256c21.2992-41.7792-7.5776-92.5696-54.4768-94.0032z m-2.4576 96.8704c-15.36 0-27.648-12.288-27.648-27.648s12.288-27.648 27.648-27.648 27.648 12.288 27.648 27.648-12.288 27.648-27.648 27.648z" fill="#FF3E63" p-id="15971"></path><path d="M232.448 776.6016c-3.8912 0-7.3728-2.2528-9.216-5.5296l-56.9344-112.0256c-11.6736-23.1424-10.8544-50.176 2.4576-72.704 12.9024-21.9136 35.6352-35.4304 61.0304-36.2496h5.5296c25.1904 0.8192 47.9232 14.5408 61.0304 36.2496 13.312 22.3232 14.1312 49.5616 2.4576 72.704L241.664 770.8672c-1.8432 3.4816-5.3248 5.7344-9.216 5.7344z m0-206.2336h-2.048c-18.432 0.6144-34.4064 10.24-44.032 26.2144-9.6256 16.384-10.24 36.0448-1.8432 52.8384l47.7184 94.0032 47.7184-94.0032c8.6016-16.7936 7.9872-36.6592-1.8432-52.8384-9.4208-16.1792-25.6-25.6-44.032-26.2144h-1.6384z" fill="#1C1D21" p-id="15972"></path><path d="M232.448 667.4432c-20.8896 0-37.888-16.9984-37.888-37.888s16.9984-37.888 37.888-37.888 37.888 16.9984 37.888 37.888-16.9984 37.888-37.888 37.888z m0-55.296c-9.6256 0-17.408 7.7824-17.408 17.408s7.7824 17.408 17.408 17.408 17.408-7.7824 17.408-17.408-7.7824-17.408-17.408-17.408zM232.448 474.112c-3.8912 0-7.3728-2.2528-9.216-5.5296l-56.9344-112.0256c-11.6736-23.1424-10.8544-50.176 2.4576-72.704 12.9024-21.9136 35.6352-35.4304 61.0304-36.2496h5.5296c25.1904 0.8192 47.9232 14.5408 61.0304 36.2496 13.312 22.3232 14.1312 49.5616 2.4576 72.704L241.664 468.5824c-1.8432 3.2768-5.3248 5.5296-9.216 5.5296z m0-206.2336h-2.048c-18.432 0.6144-34.4064 10.24-44.032 26.2144-9.6256 16.384-10.24 36.0448-1.8432 52.8384l47.7184 94.0032 47.7184-94.0032c8.6016-16.7936 7.9872-36.6592-1.8432-52.8384-9.4208-16.1792-25.6-25.6-44.032-26.2144h-1.6384z" fill="#1C1D21" p-id="15973"></path><path d="M232.448 364.9536c-20.8896 0-37.888-16.9984-37.888-37.888s16.9984-37.888 37.888-37.888 37.888 16.9984 37.888 37.888-16.9984 37.888-37.888 37.888z m0-55.296c-9.6256 0-17.408 7.7824-17.408 17.408s7.7824 17.408 17.408 17.408 17.408-7.7824 17.408-17.408-7.7824-17.408-17.408-17.408zM791.552 776.6016c-3.8912 0-7.3728-2.2528-9.216-5.5296l-56.9344-112.0256c-11.6736-23.1424-10.8544-50.176 2.4576-72.704 12.9024-21.9136 35.6352-35.4304 61.0304-36.2496h5.5296c25.1904 0.8192 47.9232 14.5408 61.0304 36.2496 13.312 22.3232 14.1312 49.5616 2.4576 72.704L800.768 770.8672c-1.8432 3.4816-5.3248 5.7344-9.216 5.7344z m0-206.2336h-2.048c-18.432 0.6144-34.4064 10.24-44.032 26.2144-9.6256 16.384-10.24 36.0448-1.8432 52.8384l47.7184 94.0032 47.7184-94.0032c8.6016-16.7936 7.9872-36.6592-1.8432-52.8384-9.4208-16.1792-25.6-25.6-44.032-26.2144h-1.6384z" fill="#1C1D21" p-id="15974"></path><path d="M791.552 667.4432c-20.8896 0-37.888-16.9984-37.888-37.888s16.9984-37.888 37.888-37.888 37.888 16.9984 37.888 37.888-16.9984 37.888-37.888 37.888z m0-55.296c-9.6256 0-17.408 7.7824-17.408 17.408s7.7824 17.408 17.408 17.408 17.408-7.7824 17.408-17.408-7.7824-17.408-17.408-17.408zM791.552 474.112c-3.8912 0-7.3728-2.2528-9.216-5.5296l-56.9344-112.0256c-11.6736-23.1424-10.8544-50.176 2.4576-72.704 12.9024-21.9136 35.6352-35.4304 61.0304-36.2496h5.5296c25.1904 0.8192 47.9232 14.5408 61.0304 36.2496 13.312 22.3232 14.1312 49.5616 2.4576 72.704L800.768 468.5824c-1.8432 3.2768-5.3248 5.5296-9.216 5.5296z m0-206.2336h-2.048c-18.432 0.6144-34.4064 10.24-44.032 26.2144-9.6256 16.384-10.24 36.0448-1.8432 52.8384l47.7184 94.0032 47.7184-94.0032c8.6016-16.7936 7.9872-36.6592-1.8432-52.8384-9.4208-16.1792-25.6-25.6-44.032-26.2144h-1.6384z" fill="#1C1D21" p-id="15975"></path><path d="M791.552 364.9536c-20.8896 0-37.888-16.9984-37.888-37.888s16.9984-37.888 37.888-37.888 37.888 16.9984 37.888 37.888-16.9984 37.888-37.888 37.888z m0-55.296c-9.6256 0-17.408 7.7824-17.408 17.408s7.7824 17.408 17.408 17.408 17.408-7.7824 17.408-17.408-7.7824-17.408-17.408-17.408zM274.432 474.112H189.44c-5.7344 0-10.24-4.5056-10.24-10.24s4.5056-10.24 10.24-10.24H274.432c5.7344 0 10.24 4.5056 10.24 10.24s-4.5056 10.24-10.24 10.24zM152.9856 474.112h-6.144c-5.7344 0-10.24-4.5056-10.24-10.24s4.5056-10.24 10.24-10.24h6.144c5.7344 0 10.24 4.5056 10.24 10.24s-4.5056 10.24-10.24 10.24zM114.688 474.112h-6.144c-5.7344 0-10.24-4.5056-10.24-10.24s4.5056-10.24 10.24-10.24h6.144c5.7344 0 10.24 4.5056 10.24 10.24s-4.5056 10.24-10.24 10.24zM355.328 474.112h-6.144c-5.7344 0-10.24-4.5056-10.24-10.24s4.5056-10.24 10.24-10.24h6.144c5.7344 0 10.24 4.5056 10.24 10.24s-4.7104 10.24-10.24 10.24zM317.0304 474.112h-6.144c-5.7344 0-10.24-4.5056-10.24-10.24s4.5056-10.24 10.24-10.24h6.144c5.7344 0 10.24 4.5056 10.24 10.24s-4.5056 10.24-10.24 10.24zM834.1504 474.112h-84.992c-5.7344 0-10.24-4.5056-10.24-10.24s4.5056-10.24 10.24-10.24h84.992c5.7344 0 10.24 4.5056 10.24 10.24s-4.7104 10.24-10.24 10.24zM712.704 474.112h-6.144c-5.7344 0-10.24-4.5056-10.24-10.24s4.5056-10.24 10.24-10.24h6.144c5.7344 0 10.24 4.5056 10.24 10.24s-4.7104 10.24-10.24 10.24zM674.4064 474.112h-6.144c-5.7344 0-10.24-4.5056-10.24-10.24s4.5056-10.24 10.24-10.24h6.144c5.7344 0 10.24 4.5056 10.24 10.24s-4.5056 10.24-10.24 10.24zM914.8416 474.112h-6.144c-5.7344 0-10.24-4.5056-10.24-10.24s4.5056-10.24 10.24-10.24h6.144c5.7344 0 10.24 4.5056 10.24 10.24s-4.5056 10.24-10.24 10.24zM876.544 474.112h-6.144c-5.7344 0-10.24-4.5056-10.24-10.24s4.5056-10.24 10.24-10.24h6.144c5.7344 0 10.24 4.5056 10.24 10.24s-4.5056 10.24-10.24 10.24zM834.1504 776.6016h-84.992c-5.7344 0-10.24-4.5056-10.24-10.24s4.5056-10.24 10.24-10.24h84.992c5.7344 0 10.24 4.5056 10.24 10.24s-4.7104 10.24-10.24 10.24zM876.544 776.6016h-6.144c-5.7344 0-10.24-4.5056-10.24-10.24s4.5056-10.24 10.24-10.24h6.144c5.7344 0 10.24 4.5056 10.24 10.24s-4.5056 10.24-10.24 10.24zM275.0464 776.6016H190.0544c-5.7344 0-10.24-4.5056-10.24-10.24s4.5056-10.24 10.24-10.24h84.992c5.7344 0 10.24 4.5056 10.24 10.24s-4.7104 10.24-10.24 10.24zM153.6 776.6016h-6.144c-5.7344 0-10.24-4.5056-10.24-10.24s4.5056-10.24 10.24-10.24h6.144c5.7344 0 10.24 4.5056 10.24 10.24s-4.7104 10.24-10.24 10.24z" fill="#1C1D21" p-id="15976"></path><path d="M403.8656 694.272c-11.0592 0-20.0704-9.0112-20.0704-20.0704v-190.2592c0-11.0592 9.0112-20.0704 20.0704-20.0704s20.0704 9.0112 20.0704 20.0704v190.2592c0 11.0592-8.8064 20.0704-20.0704 20.0704z" fill="#C67552" p-id="15977"></path><path d="M619.9296 694.272c-11.0592 0-20.0704-9.0112-20.0704-20.0704v-190.2592c0-11.0592 9.0112-20.0704 20.0704-20.0704s20.0704 9.0112 20.0704 20.0704v190.2592c0 11.0592-8.8064 20.0704-20.0704 20.0704z" fill="#C67552" p-id="15978"></path><path d="M403.8656 704.512c-16.7936 0-30.3104-13.5168-30.3104-30.3104v-190.2592c0-16.7936 13.5168-30.3104 30.3104-30.3104s30.3104 13.5168 30.3104 30.3104v190.2592c0 16.7936-13.5168 30.3104-30.3104 30.3104z m0-230.4c-5.3248 0-9.8304 4.5056-9.8304 9.8304v190.2592c0 5.3248 4.5056 9.8304 9.8304 9.8304s9.8304-4.5056 9.8304-9.8304v-190.2592c0-5.3248-4.3008-9.8304-9.8304-9.8304z" fill="#1C1D21" p-id="15979"></path><path d="M619.9296 704.512c-16.7936 0-30.3104-13.5168-30.3104-30.3104v-190.2592c0-16.7936 13.5168-30.3104 30.3104-30.3104 16.7936 0 30.3104 13.5168 30.3104 30.3104v190.2592c0 16.7936-13.5168 30.3104-30.3104 30.3104z m0-230.4c-5.3248 0-9.8304 4.5056-9.8304 9.8304v190.2592c0 5.3248 4.5056 9.8304 9.8304 9.8304s9.8304-4.5056 9.8304-9.8304v-190.2592c0-5.3248-4.3008-9.8304-9.8304-9.8304z" fill="#1C1D21" p-id="15980"></path></svg>