<svg xmlns="http://www.w3.org/2000/svg" viewBox="0 0 1024 1024" version="1.1"><path d="M512 512m-501.76 0a501.76 501.76 0 1 0 1003.52 0 501.76 501.76 0 1 0-1003.52 0Z" fill="#8CEEF9" p-id="17152"></path><path d="M512 1024c-136.8064 0-265.4208-53.248-362.0864-149.9136C53.248 777.4208 0 648.8064 0 512S53.248 246.5792 149.9136 149.9136C246.5792 53.248 375.1936 0 512 0s265.4208 53.248 362.0864 149.9136C970.752 246.5792 1024 375.1936 1024 512s-53.248 265.4208-149.9136 362.0864C777.4208 970.752 648.8064 1024 512 1024z m0-1003.52C241.0496 20.48 20.48 241.0496 20.48 512s220.5696 491.52 491.52 491.52 491.52-220.5696 491.52-491.52S782.9504 20.48 512 20.48z" fill="#1C1D21" p-id="17153"></path><path d="M646.9632 770.048H377.0368V206.848c0-16.9984 13.7216-30.72 30.72-30.72h208.4864c16.9984 0 30.72 13.7216 30.72 30.72v563.2z" fill="#FFC5B3" p-id="17154"></path><path d="M646.9632 780.288H377.0368c-5.7344 0-10.24-4.5056-10.24-10.24V206.848c0-22.528 18.432-40.96 40.96-40.96h208.4864c22.528 0 40.96 18.432 40.96 40.96v563.2c0 5.7344-4.5056 10.24-10.24 10.24z m-259.6864-20.48h249.4464V206.848c0-11.264-9.216-20.48-20.48-20.48H407.7568c-11.264 0-20.48 9.216-20.48 20.48v552.96z" fill="#1C1D21" p-id="17155"></path><path d="M681.1648 176.128H612.352c16.9984 0 30.72 13.7216 30.72 30.72v563.2h68.8128V206.848c0-16.9984-13.7216-30.72-30.72-30.72z" fill="#C67552" p-id="17156"></path><path d="M711.8848 780.288H643.072c-5.7344 0-10.24-4.5056-10.24-10.24V206.848c0-11.264-9.216-20.48-20.48-20.48-5.7344 0-10.24-4.5056-10.24-10.24s4.5056-10.24 10.24-10.24h68.8128c22.528 0 40.96 18.432 40.96 40.96v563.2c0 5.7344-4.7104 10.24-10.24 10.24zM653.312 759.808h48.3328V206.848c0-11.264-9.216-20.48-20.48-20.48h-33.3824c3.4816 5.9392 5.5296 13.1072 5.5296 20.48v552.96z" fill="#1C1D21" p-id="17157"></path><path d="M438.4768 346.9312h147.0464v75.776h-147.0464z" fill="#8CEEF9" p-id="17158"></path><path d="M585.5232 346.9312h-147.0464v75.776z" fill="#FFECE9" p-id="17159"></path><path d="M438.4768 237.1584h147.0464v69.4272h-147.0464z" fill="#8CEEF9" p-id="17160"></path><path d="M585.5232 237.1584h-147.0464v69.4272z" fill="#FFECE9" p-id="17161"></path><path d="M585.5232 432.9472h-147.0464c-5.7344 0-10.24-4.5056-10.24-10.24v-75.776c0-5.7344 4.5056-10.24 10.24-10.24h147.0464c5.7344 0 10.24 4.5056 10.24 10.24v75.776c0 5.5296-4.5056 10.24-10.24 10.24z m-136.8064-20.48h126.5664v-55.296h-126.5664v55.296zM585.5232 317.0304h-147.0464c-5.7344 0-10.24-4.5056-10.24-10.24v-69.4272c0-5.7344 4.5056-10.24 10.24-10.24h147.0464c5.7344 0 10.24 4.5056 10.24 10.24v69.4272c0 5.5296-4.5056 10.24-10.24 10.24z m-136.8064-20.48h126.5664v-48.9472h-126.5664v48.9472z" fill="#1C1D21" p-id="17162"></path><path d="M512 317.0304c-5.7344 0-10.24-4.5056-10.24-10.24v-69.4272c0-5.7344 4.5056-10.24 10.24-10.24s10.24 4.5056 10.24 10.24v69.4272c0 5.5296-4.5056 10.24-10.24 10.24zM512 432.9472c-5.7344 0-10.24-4.5056-10.24-10.24v-75.776c0-5.7344 4.5056-10.24 10.24-10.24s10.24 4.5056 10.24 10.24v75.776c0 5.5296-4.5056 10.24-10.24 10.24z" fill="#1C1D21" p-id="17163"></path><path d="M438.4768 456.704h147.0464v75.776h-147.0464z" fill="#8CEEF9" p-id="17164"></path><path d="M585.5232 456.704h-147.0464v75.776z" fill="#FFECE9" p-id="17165"></path><path d="M585.5232 542.72h-147.0464c-5.7344 0-10.24-4.5056-10.24-10.24v-75.776c0-5.7344 4.5056-10.24 10.24-10.24h147.0464c5.7344 0 10.24 4.5056 10.24 10.24v75.776c0 5.7344-4.5056 10.24-10.24 10.24z m-136.8064-20.48h126.5664v-55.296h-126.5664v55.296z" fill="#1C1D21" p-id="17166"></path><path d="M512 542.72c-5.7344 0-10.24-4.5056-10.24-10.24v-75.776c0-5.7344 4.5056-10.24 10.24-10.24s10.24 4.5056 10.24 10.24v75.776c0 5.7344-4.5056 10.24-10.24 10.24z" fill="#1C1D21" p-id="17167"></path><path d="M438.4768 566.6816h147.0464V655.36h-147.0464z" fill="#8CEEF9" p-id="17168"></path><path d="M585.5232 566.6816h-147.0464V655.36z" fill="#FFECE9" p-id="17169"></path><path d="M585.5232 665.6h-147.0464c-5.7344 0-10.24-4.5056-10.24-10.24v-88.6784c0-5.7344 4.5056-10.24 10.24-10.24h147.0464c5.7344 0 10.24 4.5056 10.24 10.24V655.36c0 5.7344-4.5056 10.24-10.24 10.24z m-136.8064-20.48h126.5664v-68.1984h-126.5664V645.12z" fill="#1C1D21" p-id="17170"></path><path d="M512 665.6c-5.7344 0-10.24-4.5056-10.24-10.24v-88.6784c0-5.7344 4.5056-10.24 10.24-10.24s10.24 4.5056 10.24 10.24V655.36c0 5.7344-4.5056 10.24-10.24 10.24z" fill="#1C1D21" p-id="17171"></path><path d="M236.544 361.6768c-42.5984 24.576-71.2704 70.656-71.2704 123.4944 0 52.8384 28.672 98.9184 71.2704 123.4944 42.5984-24.576 71.2704-70.656 71.2704-123.4944 0-52.8384-28.672-98.9184-71.2704-123.4944z" fill="#0ABFB2" p-id="17172"></path><path d="M236.544 618.9056c-1.8432 0-3.4816-0.4096-5.12-1.4336-47.104-27.2384-76.3904-78.0288-76.3904-132.5056S184.32 380.1088 231.424 352.6656c3.072-1.8432 7.168-1.8432 10.24 0 47.104 27.2384 76.3904 78.0288 76.3904 132.5056S288.768 590.2336 241.664 617.6768c-1.6384 0.8192-3.2768 1.2288-5.12 1.2288z m0-245.3504c-37.888 24.1664-61.0304 66.56-61.0304 111.616s23.3472 87.2448 61.0304 111.616c37.888-24.1664 61.0304-66.56 61.0304-111.616s-23.1424-87.2448-61.0304-111.616z" fill="#1C1D21" p-id="17173"></path><path d="M236.544 742.8096c-5.7344 0-10.24-4.5056-10.24-10.24V361.6768c0-5.7344 4.5056-10.24 10.24-10.24s10.24 4.5056 10.24 10.24v371.0976c0 5.5296-4.5056 10.0352-10.24 10.0352z" fill="#1C1D21" p-id="17174"></path><path d="M394.8544 517.3248c-31.3344-8.3968-66.1504-0.2048-90.7264 24.3712s-32.768 59.392-24.3712 90.7264c31.3344 8.3968 66.1504 0.2048 90.7264-24.3712 24.7808-24.576 32.768-59.392 24.3712-90.7264z" fill="#0ABFB2" p-id="17175"></path><path d="M304.128 645.7344c-9.0112 0-18.0224-1.2288-26.8288-3.4816-3.4816-1.024-6.3488-3.6864-7.168-7.168-9.6256-35.84 0.8192-74.3424 27.0336-100.5568 26.2144-26.2144 64.7168-36.4544 100.5568-27.0336 3.4816 1.024 6.3488 3.6864 7.168 7.168 9.6256 35.84-0.8192 74.3424-27.0336 100.5568-19.6608 19.8656-46.4896 30.5152-73.728 30.5152z m-15.7696-21.9136c27.0336 5.12 55.296-3.4816 74.9568-22.9376 19.6608-19.6608 28.2624-47.9232 22.9376-74.9568-27.0336-5.12-55.296 3.4816-74.9568 22.9376-19.456 19.6608-28.0576 47.9232-22.9376 74.9568z" fill="#1C1D21" p-id="17176"></path><path d="M236.544 685.8752c-2.6624 0-5.3248-1.024-7.168-3.072-4.096-4.096-4.096-10.4448 0-14.5408l158.3104-158.3104c4.096-4.096 10.4448-4.096 14.5408 0s4.096 10.4448 0 14.5408L243.712 683.008c-1.8432 1.8432-4.5056 2.8672-7.168 2.8672z" fill="#1C1D21" p-id="17177"></path><path d="M78.2336 517.3248c31.3344-8.3968 66.1504-0.2048 90.7264 24.3712s32.768 59.392 24.3712 90.7264c-31.5392 8.192-66.3552 0.2048-90.9312-24.3712s-32.5632-59.392-24.1664-90.7264z" fill="#0ABFB2" p-id="17178"></path><path d="M168.96 645.7344c-27.2384 0-54.0672-10.6496-73.728-30.5152-26.2144-26.2144-36.4544-64.7168-27.0336-100.5568 1.024-3.4816 3.6864-6.3488 7.168-7.168 35.84-9.6256 74.3424 0.8192 100.5568 27.0336 26.2144 26.2144 36.4544 64.7168 27.0336 100.5568-1.024 3.4816-3.6864 6.3488-7.168 7.168-8.8064 2.2528-17.8176 3.4816-26.8288 3.4816z m-82.3296-119.808c-5.12 27.0336 3.4816 55.296 22.9376 74.9568 19.6608 19.6608 47.9232 28.2624 74.9568 22.9376 5.12-27.0336-3.4816-55.296-22.9376-74.9568-19.456-19.6608-47.7184-28.2624-74.9568-22.9376z" fill="#1C1D21" p-id="17179"></path><path d="M236.544 685.8752c-2.6624 0-5.3248-1.024-7.168-3.072l-158.3104-158.3104c-4.096-4.096-4.096-10.4448 0-14.5408s10.4448-4.096 14.5408 0l158.3104 158.3104c4.096 4.096 4.096 10.4448 0 14.5408-2.048 2.048-4.7104 3.072-7.3728 3.072z" fill="#1C1D21" p-id="17180"></path><path d="M787.456 361.6768c-42.5984 24.576-71.2704 70.656-71.2704 123.4944 0 52.8384 28.672 98.9184 71.2704 123.4944 42.5984-24.576 71.2704-70.656 71.2704-123.4944 0-52.8384-28.672-98.9184-71.2704-123.4944z" fill="#0ABFB2" p-id="17181"></path><path d="M787.456 618.9056c-1.8432 0-3.4816-0.4096-5.12-1.4336-47.104-27.2384-76.3904-78.0288-76.3904-132.5056s29.2864-105.0624 76.3904-132.5056c3.072-1.8432 7.168-1.8432 10.24 0 47.104 27.2384 76.3904 78.0288 76.3904 132.5056S839.68 590.2336 792.576 617.6768c-1.6384 0.8192-3.2768 1.2288-5.12 1.2288z m0-245.3504c-37.888 24.1664-61.0304 66.56-61.0304 111.616s23.3472 87.2448 61.0304 111.616c37.888-24.1664 61.0304-66.56 61.0304-111.616s-23.1424-87.2448-61.0304-111.616z" fill="#1C1D21" p-id="17182"></path><path d="M787.456 742.8096c-5.7344 0-10.24-4.5056-10.24-10.24V361.6768c0-5.7344 4.5056-10.24 10.24-10.24s10.24 4.5056 10.24 10.24v371.0976c0 5.5296-4.5056 10.0352-10.24 10.0352z" fill="#1C1D21" p-id="17183"></path><path d="M945.7664 517.3248c-31.3344-8.3968-66.1504-0.2048-90.7264 24.3712s-32.768 59.392-24.3712 90.7264c31.3344 8.3968 66.1504 0.2048 90.7264-24.3712 24.7808-24.576 32.768-59.392 24.3712-90.7264z" fill="#0ABFB2" p-id="17184"></path><path d="M855.04 645.7344c-9.0112 0-18.0224-1.2288-26.8288-3.4816-3.4816-1.024-6.3488-3.6864-7.168-7.168-9.6256-35.84 0.8192-74.3424 27.0336-100.5568 26.2144-26.2144 64.7168-36.4544 100.5568-27.0336 3.4816 1.024 6.3488 3.6864 7.168 7.168 9.6256 35.84-0.8192 74.3424-27.0336 100.5568-19.6608 19.8656-46.4896 30.5152-73.728 30.5152z m-15.7696-21.9136c27.0336 5.12 55.296-3.4816 74.9568-22.9376 19.6608-19.6608 28.2624-47.9232 22.9376-74.9568-27.0336-5.12-55.296 3.4816-74.9568 22.9376-19.456 19.6608-28.0576 47.9232-22.9376 74.9568z" fill="#1C1D21" p-id="17185"></path><path d="M787.456 685.8752c-2.6624 0-5.3248-1.024-7.168-3.072-4.096-4.096-4.096-10.4448 0-14.5408l158.3104-158.3104c4.096-4.096 10.4448-4.096 14.5408 0s4.096 10.4448 0 14.5408L794.624 683.008c-1.8432 1.8432-4.5056 2.8672-7.168 2.8672z" fill="#1C1D21" p-id="17186"></path><path d="M629.1456 517.3248c31.3344-8.3968 66.1504-0.2048 90.7264 24.3712s32.768 59.392 24.3712 90.7264c-31.3344 8.3968-66.1504 0.2048-90.7264-24.3712-24.7808-24.576-32.768-59.392-24.3712-90.7264z" fill="#0ABFB2" p-id="17187"></path><path d="M719.872 645.7344c-27.2384 0-54.0672-10.6496-73.728-30.5152-26.2144-26.2144-36.4544-64.7168-27.0336-100.5568 1.024-3.4816 3.6864-6.3488 7.168-7.168 35.84-9.6256 74.3424 0.8192 100.5568 27.0336 26.2144 26.2144 36.4544 64.7168 27.0336 100.5568-1.024 3.4816-3.6864 6.3488-7.168 7.168-8.8064 2.2528-17.8176 3.4816-26.8288 3.4816z m-82.3296-119.808c-5.12 27.0336 3.4816 55.296 22.9376 74.9568 19.6608 19.6608 47.9232 28.2624 74.9568 22.9376 5.12-27.0336-3.4816-55.296-22.9376-74.9568-19.6608-19.6608-47.7184-28.2624-74.9568-22.9376z" fill="#1C1D21" p-id="17188"></path><path d="M787.456 685.8752c-2.6624 0-5.3248-1.024-7.168-3.072l-158.3104-158.3104c-4.096-4.096-4.096-10.4448 0-14.5408s10.4448-4.096 14.5408 0l158.3104 158.3104c4.096 4.096 4.096 10.4448 0 14.5408-2.048 2.048-4.7104 3.072-7.3728 3.072z" fill="#1C1D21" p-id="17189"></path><path d="M533.504 1013.3504c1.6384 0 3.4816-0.2048 5.12-0.2048 4.096-0.2048 7.9872-0.4096 11.8784-0.8192 141.1072-10.6496 265.8304-79.872 350.208-183.0912C805.888 721.3056 666.8288 653.312 512 653.312s-293.888 67.9936-388.7104 175.9232c84.3776 103.2192 209.1008 172.4416 350.208 183.0912 3.8912 0.2048 7.9872 0.6144 11.8784 0.8192 1.6384 0 3.4816 0.2048 5.12 0.2048 2.6624 0.2048 5.3248 0.2048 7.7824 0.2048 4.5056 0.2048 9.0112 0.2048 13.5168 0.2048s9.0112 0 13.5168-0.2048c2.8672 0 5.5296-0.2048 8.192-0.2048z" fill="#0ABFB2" p-id="17190"></path><path d="M489.472 705.1264c-5.5296 0-10.0352-4.3008-10.24-9.8304-0.2048-5.7344 4.096-10.4448 9.8304-10.6496 7.5776-0.4096 15.36-0.6144 22.9376-0.6144 5.7344 0 10.24 4.5056 10.24 10.24s-4.5056 10.24-10.24 10.24c-7.3728 0-14.7456 0.2048-22.1184 0.6144h-0.4096zM178.5856 840.4992c-2.6624 0-5.3248-1.024-7.3728-3.072-3.8912-4.096-3.8912-10.4448 0.2048-14.5408 67.1744-65.7408 151.552-110.3872 243.5072-129.024 5.5296-1.2288 10.8544 2.4576 12.0832 7.9872 1.2288 5.5296-2.4576 10.8544-7.9872 12.0832-88.2688 18.0224-168.96 60.6208-233.2672 123.6992-1.8432 1.8432-4.5056 2.8672-7.168 2.8672z" fill="#5AFFDF" p-id="17191"></path><path d="M512 1024c-4.3008 0-8.8064 0-13.9264-0.2048-2.2528 0-4.5056-0.2048-6.7584-0.2048l-2.6624-0.2048c-1.2288 0-2.4576 0-3.6864-0.2048-4.3008-0.2048-8.3968-0.4096-12.288-0.8192-70.656-5.3248-138.0352-24.9856-200.4992-57.9584-60.6208-32.1536-113.4592-75.5712-156.8768-128.8192-3.072-3.8912-3.072-9.4208 0.2048-13.312C215.8592 708.4032 360.448 643.072 512 643.072s296.1408 65.3312 396.4928 179.4048c3.2768 3.6864 3.4816 9.4208 0.2048 13.312-43.6224 53.248-96.256 96.6656-156.8768 128.8192-62.464 33.1776-129.8432 52.6336-200.2944 57.9584h-0.2048c-3.6864 0.2048-7.7824 0.6144-12.0832 0.8192-1.2288 0-2.4576 0.2048-3.6864 0.2048l-2.6624 0.2048c-2.2528 0-4.5056 0.2048-6.7584 0.2048H512zM136.8064 829.44c84.7872 99.9424 207.2576 162.816 337.5104 172.6464 3.8912 0.2048 7.5776 0.6144 11.8784 0.8192 1.2288 0 2.2528 0 3.4816 0.2048l2.6624 0.2048c2.2528 0 4.3008 0.2048 6.5536 0.2048 4.9152 0.2048 9.216 0.2048 13.312 0.2048s8.6016 0 13.312-0.2048c2.2528 0 4.3008-0.2048 6.5536-0.2048H534.7328c1.2288 0 2.2528 0 3.4816-0.2048 4.096-0.2048 7.9872-0.4096 11.6736-0.8192h0.2048c130.048-9.8304 252.5184-72.704 337.3056-172.6464-96.256-105.472-232.448-165.888-375.1936-165.888S232.8576 723.968 136.8064 829.44z" fill="#1C1D21" p-id="17192"></path></svg>