<svg xmlns="http://www.w3.org/2000/svg" viewBox="0 0 1024 1024" version="1.1"><path d="M512 512m-501.76 0a501.76 501.76 0 1 0 1003.52 0 501.76 501.76 0 1 0-1003.52 0Z" fill="#8CEEF9" p-id="16367"></path><path d="M512 1024c-136.8064 0-265.4208-53.248-362.0864-149.9136C53.248 777.4208 0 648.8064 0 512S53.248 246.5792 149.9136 149.9136C246.5792 53.248 375.1936 0 512 0s265.4208 53.248 362.0864 149.9136C970.752 246.5792 1024 375.1936 1024 512s-53.248 265.4208-149.9136 362.0864C777.4208 970.752 648.8064 1024 512 1024z m0-1003.52C241.0496 20.48 20.48 241.0496 20.48 512s220.5696 491.52 491.52 491.52 491.52-220.5696 491.52-491.52S782.9504 20.48 512 20.48z" fill="#1C1D21" p-id="16368"></path><path d="M512 1013.76c117.1456 0 224.8704-40.1408 310.272-107.52h-620.544C287.1296 973.6192 394.8544 1013.76 512 1013.76z" fill="#0ABFB2" p-id="16369"></path><path d="M512 1024c-116.1216 0-225.6896-37.888-316.6208-109.568-3.4816-2.6624-4.7104-7.3728-3.2768-11.4688s5.3248-6.9632 9.6256-6.9632h620.544c4.3008 0 8.192 2.6624 9.6256 6.9632s0 8.6016-3.2768 11.4688c-90.9312 71.68-200.4992 109.568-316.6208 109.568z m-279.3472-107.52c82.1248 56.9344 178.176 87.04 279.3472 87.04s197.0176-29.9008 279.3472-87.04H232.6528z" fill="#1C1D21" p-id="16370"></path><path d="M725.1968 848.2816H299.008c-16.9984 0-30.72-13.7216-30.72-30.72V353.4848c0-16.9984 13.7216-30.72 30.72-30.72h426.1888c16.9984 0 30.72 13.7216 30.72 30.72v464.0768c0 16.7936-13.7216 30.72-30.72 30.72z" fill="#E0E0E0" p-id="16371"></path><path d="M268.288 558.2848c-5.7344 0-10.24-4.5056-10.24-10.24v-8.3968c0-5.7344 4.5056-10.24 10.24-10.24s10.24 4.5056 10.24 10.24v8.3968c0 5.7344-4.5056 10.24-10.24 10.24z" fill="#1C1D21" p-id="16372"></path><path d="M725.1968 858.5216H299.008c-22.528 0-40.96-18.432-40.96-40.96V586.5472c0-5.7344 4.5056-10.24 10.24-10.24s10.24 4.5056 10.24 10.24v231.0144c0 11.264 9.216 20.48 20.48 20.48h426.1888c11.264 0 20.48-9.216 20.48-20.48V353.4848c0-11.264-9.216-20.48-20.48-20.48H299.008c-11.264 0-20.48 9.216-20.48 20.48v148.8896c0 5.7344-4.5056 10.24-10.24 10.24s-10.24-4.5056-10.24-10.24v-148.8896c0-22.528 18.432-40.96 40.96-40.96h426.1888c22.528 0 40.96 18.432 40.96 40.96v464.0768c0 22.528-18.432 40.96-40.96 40.96z" fill="#1C1D21" p-id="16373"></path><path d="M728.6784 322.7648H690.176v525.5168h38.5024c15.1552 0 27.2384-12.288 27.2384-27.2384v-471.04c0-15.1552-12.0832-27.2384-27.2384-27.2384z" fill="#AAADAD" p-id="16374"></path><path d="M728.6784 858.5216H690.176c-5.7344 0-10.24-4.5056-10.24-10.24V322.7648c0-5.7344 4.5056-10.24 10.24-10.24h38.5024c20.6848 0 37.4784 16.7936 37.4784 37.4784v471.04c0 20.48-16.7936 37.4784-37.4784 37.4784z m-28.2624-20.48h28.2624c9.4208 0 16.9984-7.5776 16.9984-16.9984v-471.04c0-9.4208-7.5776-16.9984-16.9984-16.9984H700.416v505.0368zM491.52 678.912c-5.7344 0-10.24-4.5056-10.24-10.24v-166.2976c0-5.7344 4.5056-10.24 10.24-10.24s10.24 4.5056 10.24 10.24v166.2976c0 5.5296-4.5056 10.24-10.24 10.24z" fill="#1C1D21" p-id="16375"></path><path d="M432.7424 654.5408c-2.6624 0-5.3248-1.024-7.168-3.072-4.096-4.096-4.096-10.4448 0-14.5408l117.5552-117.5552c4.096-4.096 10.4448-4.096 14.5408 0s4.096 10.4448 0 14.5408l-117.5552 117.5552c-2.048 2.048-4.7104 3.072-7.3728 3.072z" fill="#1C1D21" p-id="16376"></path><path d="M574.6688 595.7632h-166.2976c-5.7344 0-10.24-4.5056-10.24-10.24s4.5056-10.24 10.24-10.24h166.2976c5.7344 0 10.24 4.5056 10.24 10.24s-4.5056 10.24-10.24 10.24z" fill="#1C1D21" p-id="16377"></path><path d="M550.2976 654.5408c-2.6624 0-5.3248-1.024-7.168-3.072l-117.5552-117.5552c-4.096-4.096-4.096-10.4448 0-14.5408s10.4448-4.096 14.5408 0l117.5552 117.5552c4.096 4.096 4.096 10.4448 0 14.5408-2.048 2.048-4.7104 3.072-7.3728 3.072z" fill="#1C1D21" p-id="16378"></path><path d="M491.52 585.5232m-45.8752 0a45.8752 45.8752 0 1 0 91.7504 0 45.8752 45.8752 0 1 0-91.7504 0Z" fill="#AAADAD" p-id="16379"></path><path d="M491.52 678.912c-51.4048 0-93.3888-41.984-93.3888-93.3888s41.984-93.3888 93.3888-93.3888 93.3888 41.984 93.3888 93.3888-41.7792 93.3888-93.3888 93.3888z m0-166.2976c-40.1408 0-72.9088 32.768-72.9088 72.9088s32.768 72.9088 72.9088 72.9088 72.9088-32.768 72.9088-72.9088-32.5632-72.9088-72.9088-72.9088z" fill="#1C1D21" p-id="16380"></path><path d="M491.52 641.4336c-30.9248 0-56.1152-25.1904-56.1152-56.1152s25.1904-56.1152 56.1152-56.1152 56.1152 25.1904 56.1152 56.1152-25.1904 56.1152-56.1152 56.1152z m0-91.5456c-19.6608 0-35.6352 15.9744-35.6352 35.6352s15.9744 35.6352 35.6352 35.6352c19.6608 0 35.6352-15.9744 35.6352-35.6352s-15.9744-35.6352-35.6352-35.6352z" fill="#1C1D21" p-id="16381"></path><path d="M491.52 585.5232m-10.0352 0a10.0352 10.0352 0 1 0 20.0704 0 10.0352 10.0352 0 1 0-20.0704 0Z" fill="#1C1D21" p-id="16382"></path><path d="M278.3232 467.968h-20.0704c-8.6016 0-15.36-6.9632-15.36-15.36 0-8.6016 6.9632-15.36 15.36-15.36h20.0704c8.6016 0 15.36 6.9632 15.36 15.36 0 8.6016-6.9632 15.36-15.36 15.36z" fill="#E0E0E0" p-id="16383"></path><path d="M278.3232 478.208h-20.0704c-14.1312 0-25.6-11.4688-25.6-25.6s11.4688-25.6 25.6-25.6h20.0704c14.1312 0 25.6 11.4688 25.6 25.6s-11.4688 25.6-25.6 25.6z m-20.0704-30.72c-2.8672 0-5.12 2.2528-5.12 5.12s2.2528 5.12 5.12 5.12h20.0704c2.8672 0 5.12-2.2528 5.12-5.12s-2.2528-5.12-5.12-5.12h-20.0704z" fill="#1C1D21" p-id="16384"></path><path d="M278.3232 733.7984h-20.0704c-8.6016 0-15.36-6.9632-15.36-15.36 0-8.6016 6.9632-15.36 15.36-15.36h20.0704c8.6016 0 15.36 6.9632 15.36 15.36s-6.9632 15.36-15.36 15.36z" fill="#E0E0E0" p-id="16385"></path><path d="M278.3232 744.0384h-20.0704c-14.1312 0-25.6-11.4688-25.6-25.6s11.4688-25.6 25.6-25.6h20.0704c14.1312 0 25.6 11.4688 25.6 25.6s-11.4688 25.6-25.6 25.6z m-20.0704-30.9248c-2.8672 0-5.12 2.2528-5.12 5.12s2.2528 5.12 5.12 5.12h20.0704c2.8672 0 5.12-2.2528 5.12-5.12s-2.2528-5.12-5.12-5.12h-20.0704z" fill="#1C1D21" p-id="16386"></path><path d="M555.2128 848.2816H616.448v58.1632h-61.2352z" fill="#E0E0E0" p-id="16387"></path><path d="M616.448 916.48h-61.2352c-5.7344 0-10.24-4.5056-10.24-10.24v-58.1632c0-5.7344 4.5056-10.24 10.24-10.24H616.448c5.7344 0 10.24 4.5056 10.24 10.24v58.1632c0 5.7344-4.5056 10.24-10.24 10.24z m-50.9952-20.48H606.208v-37.6832h-40.7552v37.6832z" fill="#1C1D21" p-id="16388"></path><path d="M302.8992 848.2816h61.2352v58.1632h-61.2352z" fill="#E0E0E0" p-id="16389"></path><path d="M364.1344 848.2816h38.0928v58.1632h-38.0928z" fill="#AAADAD" p-id="16390"></path><path d="M364.1344 916.48h-61.2352c-5.7344 0-10.24-4.5056-10.24-10.24v-58.1632c0-5.7344 4.5056-10.24 10.24-10.24h61.2352c5.7344 0 10.24 4.5056 10.24 10.24v58.1632c0 5.7344-4.5056 10.24-10.24 10.24z m-50.9952-20.48h40.7552v-37.6832h-40.7552v37.6832z" fill="#1C1D21" p-id="16391"></path><path d="M402.2272 916.48h-38.0928c-5.7344 0-10.24-4.5056-10.24-10.24v-58.1632c0-5.7344 4.5056-10.24 10.24-10.24h38.0928c5.7344 0 10.24 4.5056 10.24 10.24v58.1632c0 5.7344-4.5056 10.24-10.24 10.24z m-27.8528-20.48h17.6128v-37.6832h-17.6128v37.6832z" fill="#1C1D21" p-id="16392"></path><path d="M753.8688 593.1008v-1.2288h-98.304v1.2288c0 14.7456-8.192 28.0576-20.8896 35.6352-15.5648 9.4208-26.0096 26.4192-26.0096 45.8752v196.608c0 19.456 15.7696 35.0208 35.0208 35.0208h121.856c19.456 0 35.0208-15.7696 35.0208-35.0208v-196.608c0-19.456-10.4448-36.4544-26.0096-45.8752-12.4928-7.5776-20.6848-20.8896-20.6848-35.6352z" fill="#FFECE9" p-id="16393"></path><path d="M704.7168 630.9888c-15.1552 8.8064-25.3952 25.1904-25.3952 43.8272 0 18.6368 10.24 35.0208 25.3952 43.8272 15.1552-8.8064 25.3952-25.1904 25.3952-43.8272 0-18.8416-10.24-35.0208-25.3952-43.8272z" fill="#0ABFB2" p-id="16394"></path><path d="M704.7168 728.8832c-1.8432 0-3.4816-0.4096-5.12-1.4336-18.8416-10.8544-30.5152-31.1296-30.5152-52.6336s11.6736-41.7792 30.5152-52.6336c3.072-1.8432 7.168-1.8432 10.24 0 18.8416 10.8544 30.5152 31.1296 30.5152 52.6336s-11.6736 41.7792-30.5152 52.6336c-1.6384 1.024-3.2768 1.4336-5.12 1.4336z m0-85.6064c-9.4208 7.5776-15.1552 19.2512-15.1552 31.5392s5.7344 23.7568 15.1552 31.5392c9.4208-7.5776 15.1552-19.2512 15.1552-31.5392s-5.7344-23.9616-15.1552-31.5392z" fill="#1C1D21" p-id="16395"></path><path d="M704.7168 901.3248c-5.7344 0-10.24-4.5056-10.24-10.24v-172.4416c0-5.7344 4.5056-10.24 10.24-10.24s10.24 4.5056 10.24 10.24v172.4416c0 5.5296-4.5056 10.24-10.24 10.24z" fill="#1C1D21" p-id="16396"></path><path d="M647.9872 685.4656c14.9504-4.096 31.744-0.2048 43.6224 11.6736 11.8784 11.8784 15.7696 28.4672 11.6736 43.6224-14.9504 4.096-31.744 0.2048-43.6224-11.6736-11.8784-11.8784-15.7696-28.672-11.6736-43.6224z" fill="#0ABFB2" p-id="16397"></path><path d="M691.6096 752.4352c-14.5408 0-28.672-5.7344-39.3216-16.1792-13.9264-13.9264-19.456-34.4064-14.336-53.4528 1.024-3.4816 3.6864-6.3488 7.168-7.168 19.0464-5.12 39.5264 0.4096 53.4528 14.336 13.9264 13.9264 19.456 34.4064 14.336 53.4528-1.024 3.4816-3.6864 6.3488-7.168 7.168-4.7104 1.2288-9.4208 1.8432-14.1312 1.8432z m-34.816-58.1632c-0.8192 10.0352 2.8672 20.2752 10.0352 27.4432 7.3728 7.3728 17.408 10.8544 27.4432 10.0352 0.8192-10.0352-2.8672-20.2752-10.0352-27.4432-7.168-7.168-17.408-10.8544-27.4432-10.0352z" fill="#1C1D21" p-id="16398"></path><path d="M706.1504 740.7616c14.9504 4.096 31.744 0.2048 43.6224-11.6736 11.8784-11.8784 15.7696-28.4672 11.6736-43.6224-14.9504-4.096-31.744-0.2048-43.6224 11.6736-11.6736 11.6736-15.5648 28.4672-11.6736 43.6224z" fill="#0ABFB2" p-id="16399"></path><path d="M717.824 752.4352c-4.7104 0-9.6256-0.6144-14.336-1.8432-3.4816-1.024-6.3488-3.6864-7.168-7.168-5.12-19.0464 0.4096-39.5264 14.336-53.4528 13.9264-13.9264 34.4064-19.456 53.4528-14.336 3.4816 1.024 6.3488 3.6864 7.168 7.168 5.12 19.0464-0.4096 39.5264-14.336 53.4528-10.4448 10.4448-24.576 16.1792-39.1168 16.1792z m-2.6624-20.6848c10.0352 0.8192 20.2752-2.8672 27.4432-10.0352 7.3728-7.3728 10.8544-17.408 10.0352-27.4432-10.0352-0.8192-20.2752 2.8672-27.4432 10.0352-7.3728 7.3728-10.8544 17.408-10.0352 27.4432z" fill="#1C1D21" p-id="16400"></path><path d="M647.9872 732.16c14.9504-4.096 31.744-0.2048 43.6224 11.6736 11.8784 11.8784 15.7696 28.4672 11.6736 43.6224-14.9504 4.096-31.744 0.2048-43.6224-11.6736-11.8784-11.8784-15.7696-28.672-11.6736-43.6224z" fill="#0ABFB2" p-id="16401"></path><path d="M691.6096 799.1296c-14.5408 0-28.672-5.7344-39.3216-16.1792-13.9264-13.9264-19.456-34.4064-14.336-53.4528 1.024-3.4816 3.6864-6.3488 7.168-7.168 19.0464-5.12 39.5264 0.4096 53.4528 14.336 13.9264 13.9264 19.456 34.4064 14.336 53.4528-1.024 3.4816-3.6864 6.3488-7.168 7.168-4.7104 1.2288-9.4208 1.8432-14.1312 1.8432z m-34.816-58.1632c-0.8192 10.0352 2.8672 20.2752 10.0352 27.4432 7.3728 7.3728 17.408 10.8544 27.4432 10.0352 0.8192-10.0352-2.8672-20.2752-10.0352-27.4432-7.168-7.168-17.408-10.8544-27.4432-10.0352z" fill="#1C1D21" p-id="16402"></path><path d="M706.1504 787.456c14.9504 4.096 31.744 0.2048 43.6224-11.6736 11.8784-11.8784 15.7696-28.4672 11.6736-43.6224-14.9504-4.096-31.744-0.2048-43.6224 11.6736-11.6736 11.8784-15.5648 28.4672-11.6736 43.6224z" fill="#0ABFB2" p-id="16403"></path><path d="M717.824 799.1296c-4.7104 0-9.6256-0.6144-14.336-1.8432-3.4816-1.024-6.3488-3.6864-7.168-7.168-5.12-19.0464 0.4096-39.5264 14.336-53.4528 13.9264-13.9264 34.4064-19.456 53.4528-14.336 3.4816 1.024 6.3488 3.6864 7.168 7.168 5.12 19.0464-0.4096 39.5264-14.336 53.4528-10.4448 10.4448-24.576 16.1792-39.1168 16.1792z m-2.6624-20.48c10.0352 0.8192 20.2752-2.8672 27.4432-10.0352 7.3728-7.3728 10.8544-17.408 10.0352-27.4432-10.0352-0.8192-20.2752 2.8672-27.4432 10.0352-7.3728 7.168-10.8544 17.2032-10.0352 27.4432z" fill="#1C1D21" p-id="16404"></path><path d="M765.5424 916.48h-121.856c-24.9856 0-45.2608-20.2752-45.2608-45.2608v-196.608c0-22.3232 11.8784-43.2128 30.9248-54.6816 9.8304-5.9392 15.7696-15.9744 15.7696-26.8288v-1.2288c0-5.7344 4.5056-10.24 10.24-10.24h98.304c5.7344 0 10.24 4.5056 10.24 10.24v1.2288c0 10.8544 5.9392 20.8896 15.7696 26.8288 19.0464 11.4688 30.9248 32.3584 30.9248 54.6816v196.608c0.4096 24.9856-20.0704 45.2608-45.056 45.2608zM664.9856 602.112c-2.6624 14.5408-11.4688 27.2384-24.9856 35.4304-13.1072 7.7824-21.0944 21.7088-21.0944 37.0688v196.608c0 13.7216 11.0592 24.7808 24.7808 24.7808h121.856c13.7216 0 24.7808-11.0592 24.7808-24.7808v-196.608c0-15.36-7.7824-29.0816-21.0944-37.0688-13.312-7.9872-22.3232-20.8896-24.9856-35.4304h-79.2576z" fill="#1C1D21" p-id="16405"></path><path d="M756.9408 543.1296h-104.6528c-7.9872 0-14.336 6.3488-14.336 14.336v20.0704c0 7.9872 6.3488 14.336 14.336 14.336h104.6528c7.9872 0 14.336-6.3488 14.336-14.336v-20.0704c0-7.9872-6.3488-14.336-14.336-14.336z" fill="#FF8939" p-id="16406"></path><path d="M756.9408 602.112h-104.6528c-13.5168 0-24.576-11.0592-24.576-24.576v-20.0704c0-13.5168 11.0592-24.576 24.576-24.576h104.6528c13.5168 0 24.576 11.0592 24.576 24.576v20.0704c0 13.7216-11.0592 24.576-24.576 24.576z m-104.448-48.7424c-2.2528 0-4.096 1.8432-4.096 4.096v20.0704c0 2.2528 1.8432 4.096 4.096 4.096h104.6528c2.2528 0 4.096-1.8432 4.096-4.096v-20.0704c0-2.2528-1.8432-4.096-4.096-4.096h-104.6528zM746.7008 818.9952c-2.8672 0-5.9392-1.2288-7.9872-3.6864-8.3968-10.24-20.8896-15.9744-33.9968-15.9744s-25.6 5.9392-33.9968 15.9744c-3.6864 4.3008-10.0352 4.9152-14.336 1.4336-4.3008-3.6864-4.9152-10.0352-1.4336-14.336 12.288-14.9504 30.5152-23.552 49.7664-23.552s37.4784 8.6016 49.7664 23.552c3.6864 4.3008 3.072 10.8544-1.4336 14.336-1.8432 1.4336-4.096 2.2528-6.3488 2.2528zM662.7328 862.6176c-2.2528 0-4.5056-0.8192-6.5536-2.2528-4.3008-3.6864-4.9152-10.0352-1.4336-14.336 12.288-14.9504 30.5152-23.552 49.7664-23.552 19.456 0 37.4784 8.6016 49.7664 23.552 3.6864 4.3008 3.072 10.8544-1.4336 14.336-4.3008 3.6864-10.8544 3.072-14.336-1.4336-8.3968-10.24-20.8896-15.9744-33.9968-15.9744-13.312 0-25.6 5.9392-33.9968 15.9744-1.8432 2.4576-4.9152 3.6864-7.7824 3.6864z" fill="#1C1D21" p-id="16407"></path><path d="M576.512 86.016V60.8256h-30.5152v24.576c0 18.6368-14.7456 34.2016-33.3824 34.4064-19.0464 0.4096-34.6112-14.9504-34.6112-33.9968V60.8256h-30.5152V86.016c0 19.6608 8.8064 37.2736 22.9376 49.152-13.7216 11.6736-22.528 28.8768-22.9376 48.128v1.2288c0.4096 19.2512 9.216 36.4544 22.9376 48.128-13.9264 11.8784-22.9376 29.4912-22.9376 49.152v40.96h30.5152v-40.5504c0-18.6368 14.7456-34.2016 33.3824-34.4064 19.0464-0.4096 34.6112 14.9504 34.6112 33.9968v40.96h30.5152v-40.96c0-19.6608-8.8064-37.2736-22.9376-49.152 13.7216-11.6736 22.528-28.8768 22.9376-48.128v-0.6144-0.6144c-0.4096-19.2512-9.216-36.4544-22.9376-48.128 13.9264-11.6736 22.9376-29.4912 22.9376-49.152zM512 209.5104c-14.1312 0-25.8048-11.4688-26.0096-25.6 0.2048-14.1312 11.8784-25.6 26.0096-25.6 14.1312 0 25.8048 11.4688 26.0096 25.6-0.2048 14.1312-11.8784 25.6-26.0096 25.6z" fill="#FF3E63" p-id="16408"></path><path d="M576.512 333.0048c-5.7344 0-10.24-4.5056-10.24-10.24v-40.96c0-15.9744-6.9632-30.9248-19.2512-41.3696-2.2528-1.8432-3.6864-4.7104-3.6864-7.7824s1.2288-5.9392 3.6864-7.7824c11.8784-10.0352 19.0464-24.7808 19.2512-40.3456v-0.4096-0.4096c-0.2048-15.5648-7.3728-30.3104-19.2512-40.3456-2.2528-2.048-3.6864-4.7104-3.6864-7.7824s1.2288-5.9392 3.6864-7.7824c12.288-10.4448 19.2512-25.3952 19.2512-41.3696V60.8256c0-5.7344 4.5056-10.24 10.24-10.24s10.24 4.5056 10.24 10.24V86.016c0 18.2272-6.5536 35.6352-18.6368 49.152 11.4688 12.9024 18.0224 29.696 18.432 47.104v3.2768c-0.4096 17.408-7.168 33.9968-18.432 47.104 11.8784 13.5168 18.6368 30.9248 18.6368 49.152v40.96c0 5.5296-4.7104 10.24-10.24 10.24zM447.488 333.0048c-5.7344 0-10.24-4.5056-10.24-10.24v-40.96c0-18.2272 6.5536-35.6352 18.6368-49.152-11.4688-12.9024-18.0224-29.696-18.432-47.104v-1.024-0.6144-0.6144-1.024c0.4096-17.408 7.168-33.9968 18.432-47.104-11.8784-13.5168-18.6368-30.9248-18.6368-49.152V60.8256c0-5.7344 4.5056-10.24 10.24-10.24s10.24 4.5056 10.24 10.24V86.016c0 15.9744 6.9632 30.9248 19.2512 41.3696 2.2528 2.048 3.6864 4.7104 3.6864 7.7824s-1.2288 5.9392-3.6864 7.7824c-11.8784 10.0352-19.0464 24.7808-19.2512 40.3456v0.8192c0.2048 15.5648 7.3728 30.3104 19.2512 40.3456 2.2528 2.048 3.6864 4.7104 3.6864 7.7824s-1.2288 5.9392-3.6864 7.7824c-12.288 10.4448-19.2512 25.3952-19.2512 41.3696v40.96c0 5.9392-4.5056 10.6496-10.24 10.6496z m0-149.7088zM512 126.7712c-10.6496 0-20.48-4.096-28.0576-11.4688-7.7824-7.5776-12.0832-17.8176-12.0832-28.672V60.8256c0-5.7344 4.5056-10.24 10.24-10.24s10.24 4.5056 10.24 10.24v25.6c0 5.3248 2.048 10.24 5.9392 13.9264 3.8912 3.6864 8.8064 5.7344 14.1312 5.5296 10.6496-0.2048 19.2512-9.216 19.2512-20.0704V60.8256c0-5.7344 4.5056-10.24 10.24-10.24s10.24 4.5056 10.24 10.24V86.016c0 21.9136-17.6128 40.1408-39.3216 40.5504-0.4096 0.2048-0.6144 0.2048-0.8192 0.2048zM541.9008 333.0048c-5.7344 0-10.24-4.5056-10.24-10.24v-41.5744c0-5.3248-2.048-10.24-5.9392-13.9264-3.8912-3.6864-8.8064-5.7344-14.1312-5.5296-10.6496 0.2048-19.2512 9.216-19.2512 20.0704v40.96c0 5.7344-4.5056 10.24-10.24 10.24s-10.24-4.5056-10.24-10.24v-40.96c0-21.9136 17.6128-40.1408 39.3216-40.5504 10.8544-0.2048 21.0944 3.8912 28.8768 11.4688 7.7824 7.5776 12.0832 17.8176 12.0832 28.672v41.5744c0 5.3248-4.7104 10.0352-10.24 10.0352z" fill="#1C1D21" p-id="16409"></path><path d="M512 219.7504c-19.6608 0-36.0448-15.9744-36.2496-35.6352v-0.4096c0.4096-19.6608 16.5888-35.6352 36.2496-35.6352s36.0448 15.9744 36.2496 35.6352v0.4096c-0.2048 19.6608-16.5888 35.6352-36.2496 35.6352z m-15.7696-35.84c0.2048 8.3968 7.3728 15.36 15.7696 15.36s15.5648-6.9632 15.7696-15.36c-0.2048-8.3968-7.3728-15.36-15.7696-15.36s-15.5648 6.7584-15.7696 15.36zM541.9008 89.4976h-59.8016c-5.7344 0-10.24-4.5056-10.24-10.24s4.5056-10.24 10.24-10.24h59.8016c5.7344 0 10.24 4.5056 10.24 10.24s-4.7104 10.24-10.24 10.24zM541.9008 298.3936h-59.8016c-5.7344 0-10.24-4.5056-10.24-10.24s4.5056-10.24 10.24-10.24h59.8016c5.7344 0 10.24 4.5056 10.24 10.24s-4.7104 10.24-10.24 10.24z" fill="#1C1D21" p-id="16410"></path><path d="M327.4752 389.3248c-5.7344 0-10.24-4.5056-10.24-10.24v-15.5648c0-5.7344 4.5056-10.24 10.24-10.24s10.24 4.5056 10.24 10.24v15.5648c0 5.7344-4.7104 10.24-10.24 10.24z" fill="#FFFFFF" p-id="16411"></path><path d="M327.4752 817.5616c-5.7344 0-10.24-4.5056-10.24-10.24V437.248c0-5.7344 4.5056-10.24 10.24-10.24s10.24 4.5056 10.24 10.24v370.0736c0 5.5296-4.7104 10.24-10.24 10.24z" fill="#FFFFFF" p-id="16412"></path></svg>