<svg xmlns="http://www.w3.org/2000/svg" viewBox="0 0 1024 1024" version="1.1"><path d="M512 512m-501.76 0a501.76 501.76 0 1 0 1003.52 0 501.76 501.76 0 1 0-1003.52 0Z" fill="#8CEEF9" p-id="14259"></path><path d="M628.1216 219.7504h-0.6144c-5.7344 0-10.24-4.5056-10.24-10.24s4.5056-10.24 10.24-10.24h0.6144c5.7344 0 10.24 4.5056 10.24 10.24s-4.7104 10.24-10.24 10.24z" fill="#1C1D21" p-id="14260"></path><path d="M593.3056 209.5104h-12.4928c-4.7104-7.5776-12.9024-12.4928-22.3232-12.4928-9.4208 0-17.8176 5.12-22.3232 12.4928-1.8432 2.8672-5.9392 2.8672-7.7824 0-4.7104-7.5776-12.9024-12.4928-22.3232-12.4928-9.4208 0-17.8176 5.12-22.3232 12.4928-1.8432 2.8672-5.9392 2.8672-7.7824 0-4.7104-7.5776-12.9024-12.4928-22.3232-12.4928-9.4208 0-17.8176 5.12-22.3232 12.4928-1.8432 2.8672-5.9392 2.8672-7.7824 0-4.7104-7.5776-12.9024-12.4928-22.3232-12.4928-9.4208 0-17.8176 5.12-22.3232 12.4928-1.8432 2.8672-5.9392 2.8672-7.7824 0-4.7104-7.5776-12.9024-12.4928-22.3232-12.4928-14.5408 0-26.2144 11.6736-26.2144 26.2144h-1.6384c-32.9728 0-59.8016 26.8288-59.8016 59.8016V352.256h28.4672v-39.1168c0-14.1312 11.4688-25.3952 25.3952-25.3952h33.5872c0 14.5408 11.6736 26.2144 26.2144 26.2144 9.4208 0 17.8176-5.12 22.3232-12.4928 1.8432-2.8672 5.9392-2.8672 7.7824 0 4.7104 7.5776 12.9024 12.4928 22.3232 12.4928 9.4208 0 17.8176-5.12 22.3232-12.4928 1.8432-2.8672 5.9392-2.8672 7.7824 0 4.7104 7.5776 12.9024 12.4928 22.3232 12.4928 9.4208 0 17.8176-5.12 22.3232-12.4928 1.8432-2.8672 5.9392-2.8672 7.7824 0 4.7104 7.5776 12.9024 12.4928 22.3232 12.4928 9.4208 0 17.8176-5.12 22.3232-12.4928h38.7072" fill="#E0E0E0" p-id="14261"></path><path d="M289.3824 362.496h-28.4672c-5.7344 0-10.24-4.5056-10.24-10.24v-69.4272c0-36.2496 27.648-65.9456 62.8736-69.632 4.3008-15.36 18.432-26.624 35.2256-26.624 10.0352 0 19.456 4.096 26.2144 11.0592 6.7584-7.168 16.1792-11.0592 26.2144-11.0592s19.456 4.096 26.2144 11.0592c6.7584-6.9632 16.1792-11.0592 26.2144-11.0592s19.456 4.096 26.2144 11.0592c6.7584-7.168 16.1792-11.0592 26.2144-11.0592s19.456 4.096 26.2144 11.0592c6.7584-7.168 16.1792-11.0592 26.2144-11.0592 10.8544 0 20.6848 4.5056 27.648 12.4928h7.168c5.7344 0 10.24 4.5056 10.24 10.24s-4.5056 10.24-10.24 10.24h-12.4928c-3.4816 0-6.9632-1.8432-8.8064-4.9152-2.8672-4.7104-7.9872-7.5776-13.7216-7.5776s-10.6496 2.8672-13.7216 7.5776c-2.6624 4.5056-7.3728 6.9632-12.4928 6.9632-5.12 0-9.8304-2.6624-12.4928-6.9632-2.8672-4.7104-7.9872-7.5776-13.7216-7.5776-5.5296 0-10.6496 2.8672-13.7216 7.5776-2.6624 4.5056-7.3728 6.9632-12.4928 6.9632-5.12 0-9.8304-2.6624-12.4928-6.9632-2.8672-4.7104-7.9872-7.5776-13.7216-7.5776-5.5296 0-10.6496 2.8672-13.7216 7.5776-2.6624 4.3008-7.3728 6.9632-12.4928 6.9632-5.12 0-9.8304-2.6624-12.4928-6.9632-2.8672-4.7104-7.9872-7.5776-13.7216-7.5776-5.5296 0-10.6496 2.8672-13.7216 7.5776-2.6624 4.5056-7.3728 6.9632-12.4928 6.9632s-9.8304-2.6624-12.4928-6.9632c-2.8672-4.7104-7.9872-7.5776-13.7216-7.5776-8.8064 0-15.9744 7.168-15.9744 15.9744 0 5.7344-4.5056 10.24-10.24 10.24h-1.6384c-27.2384 0-49.5616 22.3232-49.5616 49.5616V342.016h7.9872v-28.8768c0-19.6608 15.9744-35.6352 35.6352-35.6352h33.5872c5.7344 0 10.24 4.5056 10.24 10.24 0 8.8064 7.168 15.9744 15.9744 15.9744 5.5296 0 10.6496-2.8672 13.7216-7.5776 2.6624-4.5056 7.3728-6.9632 12.4928-6.9632 5.12 0 9.8304 2.6624 12.4928 6.9632 2.8672 4.7104 7.9872 7.5776 13.7216 7.5776 5.5296 0 10.6496-2.8672 13.7216-7.5776 2.6624-4.5056 7.3728-6.9632 12.4928-6.9632 5.12 0 9.8304 2.6624 12.4928 7.168 2.8672 4.7104 7.9872 7.5776 13.7216 7.5776 5.5296 0 10.6496-2.8672 13.7216-7.5776 2.6624-4.5056 7.3728-6.9632 12.4928-6.9632 5.12 0 9.8304 2.6624 12.4928 6.9632 2.8672 4.7104 7.9872 7.5776 13.7216 7.5776 5.5296 0 10.6496-2.8672 13.7216-7.5776 1.8432-3.072 5.12-4.9152 8.8064-4.9152h38.7072c5.7344 0 10.24 4.5056 10.24 10.24s-4.5056 10.24-10.24 10.24h-33.5872c-6.9632 7.9872-16.7936 12.4928-27.648 12.4928-10.0352 0-19.456-4.096-26.2144-11.0592-6.7584 7.168-16.1792 11.0592-26.2144 11.0592s-19.456-4.096-26.2144-11.0592c-6.7584 7.168-16.1792 11.0592-26.2144 11.0592s-19.456-4.096-26.2144-11.0592c-6.7584 6.9632-16.1792 11.0592-26.2144 11.0592-16.5888 0-30.5152-11.0592-35.0208-26.2144h-24.9856c-8.3968 0-15.1552 6.7584-15.1552 15.1552v38.912c0.2048 5.7344-4.5056 10.24-10.0352 10.24z" fill="#1C1D21" p-id="14262"></path><path d="M706.3552 760.0128l-48.7424 48.7424c-9.0112 9.0112-23.3472 9.0112-32.3584 0L225.4848 408.9856c-9.0112-9.0112-9.0112-23.3472 0-32.3584l48.7424-48.7424c9.0112-9.0112 23.3472-9.0112 32.3584 0l399.7696 399.7696c8.8064 9.0112 8.8064 23.552 0 32.3584z" fill="#FFECE9" p-id="14263"></path><path d="M641.4336 825.7536c-8.8064 0-17.2032-3.4816-23.3472-9.6256L218.3168 416.1536c-6.3488-6.3488-9.6256-14.5408-9.6256-23.3472 0-8.8064 3.4816-17.2032 9.6256-23.3472l48.7424-48.7424c6.3488-6.3488 14.5408-9.6256 23.3472-9.6256 8.8064 0 17.2032 3.4816 23.3472 9.6256l51.8144 51.8144c4.096 4.096 4.096 10.4448 0 14.5408s-10.4448 4.096-14.5408 0l-51.8144-51.8144c-2.4576-2.4576-5.5296-3.6864-9.0112-3.6864-3.2768 0-6.5536 1.2288-9.0112 3.6864l-48.7424 48.7424c-2.4576 2.4576-3.6864 5.5296-3.6864 9.0112 0 3.2768 1.2288 6.5536 3.6864 9.0112l399.7696 399.7696c2.4576 2.4576 5.5296 3.6864 9.0112 3.6864 3.2768 0 6.5536-1.2288 9.0112-3.6864l48.7424-48.7424c2.4576-2.4576 3.6864-5.5296 3.6864-9.0112 0-3.2768-1.2288-6.5536-3.6864-9.0112L414.1056 449.9456c-4.096-4.096-4.096-10.4448 0-14.5408s10.4448-4.096 14.5408 0l285.0816 285.0816c6.3488 6.3488 9.6256 14.5408 9.6256 23.3472 0 8.8064-3.4816 17.2032-9.6256 23.3472l-48.7424 48.7424c-6.3488 6.3488-14.7456 9.8304-23.552 9.8304z" fill="#1C1D21" p-id="14264"></path><path d="M393.8304 425.3696c-2.6624 0-5.3248-1.024-7.168-3.072l-7.5776-7.5776c-4.096-4.096-4.096-10.4448 0-14.5408s10.4448-4.096 14.5408 0l7.5776 7.5776c4.096 4.096 4.096 10.4448 0 14.5408-2.2528 2.048-4.7104 3.072-7.3728 3.072z" fill="#1C1D21" p-id="14265"></path><path d="M321.3312 456.9088c-2.6624 0-5.3248-1.024-7.168-3.072l-8.192-8.192c-4.096-4.096-4.096-10.4448 0-14.5408s10.4448-4.096 14.5408 0l8.192 8.192c4.096 4.096 4.096 10.4448 0 14.5408-2.2528 2.048-4.9152 3.072-7.3728 3.072zM641.4336 777.216c-2.6624 0-5.3248-1.024-7.168-3.072L344.6784 484.7616c-4.096-4.096-4.096-10.4448 0-14.5408s10.4448-4.096 14.5408 0L648.8064 759.808c4.096 4.096 4.096 10.4448 0 14.5408-2.048 1.8432-4.7104 2.8672-7.3728 2.8672z" fill="#FFFFFF" p-id="14266"></path><path d="M272.5888 423.7312l48.7424-48.7424c9.0112-9.0112 9.0112-23.3472 0-32.3584l-14.7456-14.7456c-9.0112-9.0112-23.3472-9.0112-32.3584 0l-48.7424 48.7424c-9.0112 9.0112-9.0112 23.3472 0 32.3584l14.7456 14.7456c9.0112 8.8064 23.552 8.8064 32.3584 0z" fill="#FF3E63" p-id="14267"></path><path d="M256.4096 440.7296c-8.8064 0-17.2032-3.4816-23.3472-9.6256l-14.7456-14.7456c-6.3488-6.3488-9.6256-14.5408-9.6256-23.3472 0-8.8064 3.4816-17.2032 9.6256-23.3472l48.7424-48.7424c12.9024-12.9024 33.792-12.9024 46.6944 0l14.7456 14.7456c12.9024 12.9024 12.9024 33.792 0 46.6944l-48.7424 48.7424c-6.144 6.144-14.5408 9.6256-23.3472 9.6256z m33.9968-109.3632c-3.2768 0-6.5536 1.2288-9.0112 3.6864l-48.7424 48.7424c-2.4576 2.4576-3.6864 5.5296-3.6864 9.0112 0 3.2768 1.2288 6.5536 3.6864 9.0112l14.7456 14.7456c2.4576 2.4576 5.5296 3.6864 9.0112 3.6864 3.2768 0 6.5536-1.2288 9.0112-3.6864l48.7424-48.7424c4.9152-4.9152 4.9152-12.9024 0-17.8176l-14.7456-14.7456c-2.6624-2.6624-5.7344-3.8912-9.0112-3.8912z" fill="#1C1D21" p-id="14268"></path><path d="M706.3552 760.0128l-48.7424 48.7424c-9.0112 9.0112-23.3472 9.0112-32.3584 0l-105.472-105.472 81.1008-81.1008 105.472 105.472c8.8064 9.0112 8.8064 23.552 0 32.3584z" fill="#AA4D2D" p-id="14269"></path><path d="M512 1024c-136.8064 0-265.4208-53.248-362.0864-149.9136S0 648.8064 0 512 53.248 246.5792 149.9136 149.9136 375.1936 0 512 0s265.4208 53.248 362.0864 149.9136S1024 375.1936 1024 512s-53.248 265.4208-149.9136 362.0864S648.8064 1024 512 1024z m0-1003.52C241.0496 20.48 20.48 241.0496 20.48 512s220.5696 491.52 491.52 491.52 491.52-220.5696 491.52-491.52S782.9504 20.48 512 20.48z" fill="#1C1D21" p-id="14270"></path><path d="M888.4224 180.4288C796.4672 75.9808 661.9136 10.24 512 10.24 234.9056 10.24 10.24 234.9056 10.24 512s224.6656 501.76 501.76 501.76 501.76-224.6656 501.76-501.76c0-127.1808-47.3088-243.3024-125.3376-331.5712zM512 70.4512c110.592 0 211.5584 40.5504 288.9728 107.7248L178.176 800.9728C111.0016 723.5584 70.4512 622.592 70.4512 512c0-243.9168 197.632-441.5488 441.5488-441.5488z m0 883.0976c-110.592 0-211.5584-40.5504-288.9728-107.7248L845.824 223.0272c67.1744 77.4144 107.7248 178.3808 107.7248 288.9728 0 243.9168-197.632 441.5488-441.5488 441.5488z" fill="#FF3E63" p-id="14271"></path><path d="M512 1024c-136.8064 0-265.4208-53.248-362.0864-149.9136S0 648.8064 0 512 53.248 246.5792 149.9136 149.9136 375.1936 0 512 0c146.8416 0 286.9248 63.2832 384.2048 173.4656C978.5344 267.0592 1024 387.2768 1024 512c0 136.8064-53.248 265.4208-149.9136 362.0864S648.8064 1024 512 1024z m0-1003.52C241.0496 20.48 20.48 241.0496 20.48 512s220.5696 491.52 491.52 491.52 491.52-220.5696 491.52-491.52c0-119.6032-43.6224-235.1104-122.6752-324.8128C787.456 81.3056 653.1072 20.48 512 20.48z m0 943.3088c-108.7488 0-213.6064-39.1168-295.7312-110.1824-2.048-1.8432-3.4816-4.5056-3.4816-7.3728s1.024-5.5296 3.072-7.5776l622.7968-622.7968c2.048-2.048 4.7104-3.072 7.5776-3.072 2.8672 0 5.5296 1.4336 7.3728 3.4816 71.0656 81.92 110.1824 186.9824 110.1824 295.7312 0 120.6272-46.8992 234.0864-132.3008 319.488-85.4016 85.1968-198.8608 132.3008-319.488 132.3008z m-273.8176-118.5792c77.0048 63.2832 173.8752 98.0992 273.8176 98.0992 237.7728 0 431.3088-193.536 431.3088-431.3088 0-100.1472-34.816-196.8128-98.0992-273.8176L238.1824 845.2096zM178.176 811.2128h-0.4096c-2.8672 0-5.5296-1.4336-7.3728-3.4816-71.0656-81.92-110.1824-186.9824-110.1824-295.7312 0-120.6272 46.8992-234.0864 132.3008-319.488 85.4016-85.4016 198.8608-132.3008 319.488-132.3008 108.7488 0 213.6064 39.1168 295.7312 110.1824 2.048 1.8432 3.4816 4.5056 3.4816 7.3728s-1.024 5.5296-3.072 7.5776L185.344 808.1408c-1.8432 2.048-4.5056 3.072-7.168 3.072zM512 80.6912C274.2272 80.6912 80.6912 274.2272 80.6912 512c0 100.1472 34.816 196.8128 98.0992 273.8176L785.8176 178.7904C708.8128 115.5072 612.1472 80.6912 512 80.6912z" fill="#1C1D21" p-id="14272"></path><path d="M629.9648 765.7472c-2.6624 0-5.3248-1.024-7.168-3.072l-81.3056-81.3056c-4.096-4.096-4.096-10.4448 0-14.5408s10.4448-4.096 14.5408 0l81.3056 81.3056c4.096 4.096 4.096 10.4448 0 14.5408-2.048 2.048-4.7104 3.072-7.3728 3.072z" fill="#FFA364" p-id="14273"></path><path d="M641.4336 825.7536c-8.8064 0-17.2032-3.4816-23.3472-9.6256l-106.2912-106.2912c-4.096-4.096-4.096-10.4448 0-14.5408l81.1008-81.1008c4.096-4.096 10.4448-4.096 14.5408 0l106.2912 106.2912c6.3488 6.3488 9.6256 14.5408 9.6256 23.3472 0 8.8064-3.4816 17.2032-9.6256 23.3472l-48.7424 48.7424c-6.3488 6.3488-14.7456 9.8304-23.552 9.8304zM533.504 702.464l98.9184 98.9184c2.4576 2.4576 5.5296 3.6864 9.0112 3.6864 3.2768 0 6.5536-1.2288 9.0112-3.6864l48.7424-48.7424c2.4576-2.4576 3.6864-5.5296 3.6864-9.0112 0-3.2768-1.2288-6.5536-3.6864-9.0112L600.064 635.904 533.504 702.464zM628.1216 309.248h-0.6144c-5.7344 0-10.24-4.5056-10.24-10.24s4.5056-10.24 10.24-10.24h0.6144c5.7344 0 10.24 4.5056 10.24 10.24s-4.7104 10.24-10.24 10.24z" fill="#1C1D21" p-id="14274"></path></svg>