<svg xmlns="http://www.w3.org/2000/svg" viewBox="0 0 1024 1024" version="1.1"><path d="M512 512m-501.76 0a501.76 501.76 0 1 0 1003.52 0 501.76 501.76 0 1 0-1003.52 0Z" fill="#8CEEF9" p-id="16195"></path><path d="M512 1024c-136.8064 0-265.4208-53.248-362.0864-149.9136S0 648.8064 0 512 53.248 246.5792 149.9136 149.9136 375.1936 0 512 0s265.4208 53.248 362.0864 149.9136S1024 375.1936 1024 512s-53.248 265.4208-149.9136 362.0864S648.8064 1024 512 1024z m0-1003.52C241.0496 20.48 20.48 241.0496 20.48 512s220.5696 491.52 491.52 491.52 491.52-220.5696 491.52-491.52S782.9504 20.48 512 20.48z" fill="#1C1D21" p-id="16196"></path><path d="M718.848 521.6256c-15.1552-18.0224-37.4784-28.672-61.0304-28.672H10.6496c-0.2048 6.3488-0.4096 12.6976-0.4096 19.0464 0 31.3344 2.8672 61.8496 8.3968 91.5456h768.6144l-68.4032-81.92z" fill="#E0E0E0" p-id="16197"></path><path d="M718.848 521.6256c-15.1552-18.0224-37.4784-28.672-61.0304-28.672H10.6496c-0.2048 6.3488-0.4096 12.6976-0.4096 19.0464 0 11.4688 0.4096 22.9376 1.2288 34.2016H739.328l-20.48-24.576z" fill="#AAADAD" p-id="16198"></path><path d="M177.152 423.3216H18.0224c-4.096 22.7328-6.5536 45.8752-7.3728 69.632h188.416v-47.7184c0-12.0832-9.8304-21.9136-21.9136-21.9136z" fill="#FF3E63" p-id="16199"></path><path d="M28.8768 375.808c-1.024 3.4816-1.8432 6.7584-2.8672 10.24-0.2048 0.6144-0.4096 1.2288-0.4096 2.048-0.8192 3.072-1.4336 6.144-2.2528 9.216-0.2048 0.8192-0.4096 1.4336-0.6144 2.2528-0.8192 3.4816-1.6384 6.9632-2.2528 10.4448-0.2048 0.8192-0.4096 1.6384-0.6144 2.6624-0.6144 3.4816-1.4336 6.7584-2.048 10.24 0 0.2048 0 0.4096-0.2048 0.8192H129.024v-38.5024c0-12.0832-9.8304-21.9136-21.9136-21.9136H32.768c-1.024 3.4816-2.048 6.9632-3.072 10.24-0.2048 0.6144-0.4096 1.4336-0.8192 2.2528z" fill="#E0E0E0" p-id="16200"></path><path d="M787.2512 613.7856H18.6368c-4.9152 0-9.216-3.4816-10.0352-8.3968C2.8672 574.6688 0 543.3344 0 512c0-5.9392 0.2048-12.0832 0.4096-19.456 0.2048-5.5296 4.7104-9.8304 10.24-9.8304h647.168c26.624 0 51.8144 11.6736 68.8128 32.3584l68.4032 81.92c2.4576 3.072 3.072 7.3728 1.4336 10.8544-1.6384 3.6864-5.3248 5.9392-9.216 5.9392z m-760.0128-20.48h738.0992l-54.272-65.1264c-13.1072-15.7696-32.5632-24.9856-53.248-24.9856H20.48v8.8064c0 27.2384 2.2528 54.4768 6.7584 81.3056z" fill="#1C1D21" p-id="16201"></path><path d="M740.1472 558.4896h-132.096c-5.7344 0-10.24-4.5056-10.24-10.24s4.5056-10.24 10.24-10.24h132.096c5.7344 0 10.24 4.5056 10.24 10.24s-4.7104 10.24-10.24 10.24zM566.0672 558.4896h-12.288c-5.7344 0-10.24-4.5056-10.24-10.24s4.5056-10.24 10.24-10.24h12.288c5.7344 0 10.24 4.5056 10.24 10.24s-4.7104 10.24-10.24 10.24zM509.7472 558.4896h-16.384c-5.7344 0-10.24-4.5056-10.24-10.24s4.5056-10.24 10.24-10.24h16.384c5.7344 0 10.24 4.5056 10.24 10.24s-4.7104 10.24-10.24 10.24zM199.0656 503.1936h-188.416c-2.8672 0-5.5296-1.2288-7.3728-3.072s-2.8672-4.7104-2.8672-7.5776c0.8192-23.9616 3.4816-47.9232 7.5776-71.0656 0.8192-4.9152 5.12-8.3968 10.0352-8.3968h159.1296c17.6128 0 32.1536 14.336 32.1536 32.1536v47.7184c0 5.7344-4.7104 10.24-10.24 10.24z m-177.7664-20.48h167.3216v-37.4784c0-6.3488-5.12-11.6736-11.6736-11.6736H26.624c-2.4576 16.1792-4.3008 32.5632-5.3248 49.152z" fill="#1C1D21" p-id="16202"></path><path d="M129.6384 433.5616H18.0224c-3.072 0-5.9392-1.4336-7.7824-3.6864-2.048-2.2528-2.6624-5.3248-2.2528-8.3968 3.6864-20.6848 8.8064-41.5744 14.9504-61.6448 1.2288-4.3008 5.3248-7.168 9.8304-7.168h74.9568c17.6128 0 32.1536 14.336 32.1536 32.1536v38.5024c0 5.7344-4.7104 10.24-10.24 10.24z m-99.1232-20.48h88.8832v-28.2624c0-6.3488-5.12-11.6736-11.6736-11.6736H40.3456c-3.8912 13.1072-7.168 26.4192-9.8304 39.936z" fill="#1C1D21" p-id="16203"></path><path d="M874.496 622.7968c7.9872-6.3488 3.4816-19.0464-6.7584-19.0464H18.6368c13.1072 71.2704 41.3696 137.216 81.1008 194.56h632.6272l36.4544-59.5968c24.7808-40.5504 56.32-76.3904 93.3888-106.0864l12.288-9.8304z" fill="#E0E0E0" p-id="16204"></path><path d="M732.5696 808.3456h-632.832c-3.2768 0-6.5536-1.6384-8.3968-4.3008-41.7792-60.0064-69.632-126.7712-82.944-198.4512-0.6144-3.072 0.2048-6.144 2.2528-8.3968 2.048-2.2528 4.9152-3.6864 7.7824-3.6864h849.1008c9.0112 0 16.7936 5.5296 19.8656 14.1312s0.4096 17.6128-6.7584 23.3472l-12.288 9.8304c-36.2496 28.8768-66.7648 63.6928-90.9312 103.424l-36.4544 59.5968c-1.6384 2.6624-4.9152 4.5056-8.3968 4.5056z m-627.3024-20.48h621.568l33.3824-54.6816c25.3952-41.5744 57.5488-78.2336 95.6416-108.7488l12.288-9.8304c0.2048-0.2048 0.2048-0.2048 0.2048-0.6144-0.2048-0.4096-0.2048-0.4096-0.4096-0.4096H31.1296c13.1072 62.6688 37.888 121.2416 74.1376 174.2848zM874.496 622.7968z" fill="#1C1D21" p-id="16205"></path><path d="M844.5952 656.7936h-116.5312c-5.7344 0-10.24-4.5056-10.24-10.24s4.5056-10.24 10.24-10.24h116.5312c5.7344 0 10.24 4.5056 10.24 10.24s-4.5056 10.24-10.24 10.24z" fill="#1C1D21" p-id="16206"></path><path d="M170.8032 689.5616m-25.6 0a25.6 25.6 0 1 0 51.2 0 25.6 25.6 0 1 0-51.2 0Z" fill="#AAADAD" p-id="16207"></path><path d="M281.1904 689.5616m-25.6 0a25.6 25.6 0 1 0 51.2 0 25.6 25.6 0 1 0-51.2 0Z" fill="#AAADAD" p-id="16208"></path><path d="M391.5776 689.5616m-25.6 0a25.6 25.6 0 1 0 51.2 0 25.6 25.6 0 1 0-51.2 0Z" fill="#AAADAD" p-id="16209"></path><path d="M501.9648 689.5616m-25.6 0a25.6 25.6 0 1 0 51.2 0 25.6 25.6 0 1 0-51.2 0Z" fill="#AAADAD" p-id="16210"></path><path d="M170.8032 725.4016c-19.6608 0-35.84-15.9744-35.84-35.84s15.9744-35.84 35.84-35.84 35.84 15.9744 35.84 35.84-16.1792 35.84-35.84 35.84z m0-51.2c-8.3968 0-15.36 6.9632-15.36 15.36s6.9632 15.36 15.36 15.36 15.36-6.9632 15.36-15.36-6.9632-15.36-15.36-15.36zM281.1904 725.4016c-19.6608 0-35.84-15.9744-35.84-35.84s15.9744-35.84 35.84-35.84 35.84 15.9744 35.84 35.84-16.1792 35.84-35.84 35.84z m0-51.2c-8.3968 0-15.36 6.9632-15.36 15.36s6.9632 15.36 15.36 15.36 15.36-6.9632 15.36-15.36-6.9632-15.36-15.36-15.36zM391.5776 725.4016c-19.6608 0-35.84-15.9744-35.84-35.84s15.9744-35.84 35.84-35.84 35.84 15.9744 35.84 35.84-15.9744 35.84-35.84 35.84z m0-51.2c-8.3968 0-15.36 6.9632-15.36 15.36s6.9632 15.36 15.36 15.36 15.36-6.9632 15.36-15.36-6.9632-15.36-15.36-15.36zM501.9648 725.4016c-19.6608 0-35.84-15.9744-35.84-35.84s15.9744-35.84 35.84-35.84 35.84 15.9744 35.84 35.84-15.9744 35.84-35.84 35.84z m0-51.2c-8.3968 0-15.36 6.9632-15.36 15.36s6.9632 15.36 15.36 15.36 15.36-6.9632 15.36-15.36-6.7584-15.36-15.36-15.36z" fill="#1C1D21" p-id="16211"></path><path d="M926.1056 789.0944c-4.096 1.8432-8.6016 3.072-13.312 3.072-17.408 0-31.5392-14.1312-31.5392-31.5392 0 17.408-14.1312 31.5392-31.5392 31.5392s-31.5392-14.1312-31.5392-31.5392c0 17.408-14.1312 31.5392-31.5392 31.5392s-31.5392-14.1312-31.5392-31.5392c0 17.408-14.1312 31.5392-31.5392 31.5392s-31.5392-14.1312-31.5392-31.5392c0 17.408-14.1312 31.5392-31.5392 31.5392s-31.5392-14.1312-31.5392-31.5392c0 16.5888-12.9024 30.3104-29.2864 31.3344-16.7936-0.6144-30.3104-14.336-30.3104-31.5392 0 17.408-14.1312 31.5392-31.5392 31.5392s-31.5392-14.1312-31.5392-31.5392c0 17.408-14.1312 31.5392-31.5392 31.5392s-31.5392-14.1312-31.5392-31.5392c0 17.408-14.1312 31.5392-31.5392 31.5392s-31.5392-14.1312-31.5392-31.5392c0 17.408-14.1312 31.5392-31.5392 31.5392s-31.5392-14.1312-31.5392-31.5392c0 17.408-14.1312 31.5392-31.5392 31.5392s-31.5392-14.1312-31.5392-31.5392c0 17.408-14.1312 31.5392-31.5392 31.5392S192.512 778.0352 192.512 760.6272c0 17.408-14.1312 31.5392-31.5392 31.5392s-31.5392-14.1312-31.5392-31.5392c0 16.5888-12.9024 30.3104-29.2864 31.3344l-0.2048 0.4096C190.6688 922.4192 341.4016 1007.616 512 1007.616c172.032 0 323.7888-86.6304 414.1056-218.5216z" fill="#508DEF" p-id="16212"></path><path d="M512 1024c-168.5504 0-326.2464-82.944-421.888-222.0032-2.048-2.8672-2.2528-6.3488-1.024-9.6256 0.6144-1.4336 1.024-2.6624 1.6384-4.096 0.2048-0.6144 0.6144-1.2288 1.024-1.8432l0.2048-0.4096c1.8432-2.4576 4.5056-4.096 7.7824-4.3008 11.0592-0.8192 19.8656-10.0352 19.8656-21.0944 0-5.7344 4.5056-10.24 10.24-10.24s10.24 4.5056 10.24 10.24c0 11.6736 9.4208 21.2992 21.2992 21.2992 11.6736 0 21.2992-9.4208 21.2992-21.2992 0-5.7344 4.5056-10.24 10.24-10.24s10.24 4.5056 10.24 10.24c0 11.6736 9.4208 21.2992 21.2992 21.2992 11.6736 0 21.2992-9.4208 21.2992-21.2992 0-5.7344 4.5056-10.24 10.24-10.24s10.24 4.5056 10.24 10.24c0 11.6736 9.4208 21.2992 21.2992 21.2992s21.2992-9.4208 21.2992-21.2992c0-5.7344 4.5056-10.24 10.24-10.24s10.24 4.5056 10.24 10.24c0 11.6736 9.4208 21.2992 21.2992 21.2992 11.6736 0 21.2992-9.4208 21.2992-21.2992 0-5.7344 4.5056-10.24 10.24-10.24s10.24 4.5056 10.24 10.24c0 11.6736 9.4208 21.2992 21.2992 21.2992 11.6736 0 21.2992-9.4208 21.2992-21.2992 0-5.7344 4.5056-10.24 10.24-10.24s10.24 4.5056 10.24 10.24c0 11.6736 9.4208 21.2992 21.2992 21.2992s21.2992-9.4208 21.2992-21.2992c0-5.7344 4.5056-10.24 10.24-10.24s10.24 4.5056 10.24 10.24c0 11.6736 9.4208 21.2992 21.2992 21.2992 11.6736 0 21.2992-9.4208 21.2992-21.2992 0-5.7344 4.5056-10.24 10.24-10.24s10.24 4.5056 10.24 10.24c0 11.264 8.6016 20.2752 19.6608 21.0944 11.0592-0.8192 19.6608-10.0352 19.6608-21.0944 0-5.7344 4.5056-10.24 10.24-10.24s10.24 4.5056 10.24 10.24c0 11.6736 9.4208 21.2992 21.2992 21.2992 11.6736 0 21.2992-9.4208 21.2992-21.2992 0-5.7344 4.5056-10.24 10.24-10.24s10.24 4.5056 10.24 10.24c0 11.6736 9.4208 21.2992 21.2992 21.2992 11.6736 0 21.2992-9.4208 21.2992-21.2992 0-5.7344 4.5056-10.24 10.24-10.24s10.24 4.5056 10.24 10.24c0 11.6736 9.4208 21.2992 21.2992 21.2992s21.2992-9.4208 21.2992-21.2992c0-5.7344 4.5056-10.24 10.24-10.24s10.24 4.5056 10.24 10.24c0 11.6736 9.4208 21.2992 21.2992 21.2992 11.6736 0 21.2992-9.4208 21.2992-21.2992 0-5.7344 4.5056-10.24 10.24-10.24s10.24 4.5056 10.24 10.24c0 11.6736 9.4208 21.2992 21.2992 21.2992 3.072 0 6.144-0.6144 9.0112-2.048 3.072-1.4336 6.7584-1.2288 9.6256 0.6144 2.8672 1.8432 4.7104 4.9152 4.9152 8.3968v6.3488c0 2.048-0.6144 4.096-1.8432 5.7344C839.0656 940.6464 680.96 1024 512 1024zM113.2544 799.5392C205.824 927.5392 353.8944 1003.52 512 1003.52c157.0816 0 304.128-74.9568 396.6976-201.3184-10.8544-1.024-20.6848-6.3488-27.4432-14.1312-7.5776 8.8064-18.8416 14.336-31.5392 14.336s-23.7568-5.5296-31.5392-14.336c-7.5776 8.8064-18.8416 14.336-31.5392 14.336s-23.7568-5.5296-31.5392-14.336c-7.5776 8.8064-18.8416 14.336-31.5392 14.336s-23.7568-5.5296-31.5392-14.336c-7.5776 8.8064-18.8416 14.336-31.5392 14.336-12.4928 0-23.7568-5.5296-31.5392-14.336-6.7584 7.7824-16.5888 13.1072-27.4432 14.1312-0.6144 0.2048-1.4336 0.2048-2.048 0.2048-12.0832-0.4096-22.7328-5.9392-30.1056-14.336-7.5776 8.8064-18.8416 14.336-31.3344 14.336-12.4928 0-23.7568-5.5296-31.5392-14.336-7.5776 8.8064-18.8416 14.336-31.5392 14.336s-23.7568-5.5296-31.5392-14.336c-7.5776 8.8064-18.8416 14.336-31.5392 14.336s-23.7568-5.5296-31.5392-14.336c-7.5776 8.8064-18.8416 14.336-31.5392 14.336s-23.7568-5.5296-31.5392-14.336c-7.5776 8.8064-18.8416 14.336-31.5392 14.336s-23.7568-5.5296-31.5392-14.336c-7.5776 8.8064-18.8416 14.336-31.5392 14.336s-23.7568-5.5296-31.5392-14.336c-7.5776 8.8064-18.8416 14.336-31.5392 14.336-12.4928 0-23.7568-5.5296-31.5392-14.336-2.8672 4.9152-8.3968 9.0112-14.7456 11.4688z" fill="#1C1D21" p-id="16213"></path><path d="M346.112 492.9536v-15.36c0-19.0464-9.8304-36.6592-26.0096-46.6944l-19.8656-12.288c-7.9872-4.9152-12.6976-13.5168-12.6976-22.7328v-7.9872c0-4.5056 2.6624-8.3968 6.7584-10.4448 17.2032-8.192 29.2864-25.8048 29.2864-46.08v-23.3472c0-28.0576-22.7328-50.9952-50.9952-50.9952-28.0576 0-50.9952 22.7328-50.9952 50.9952v23.3472c0 20.48 11.8784 37.888 29.2864 46.08 4.096 1.8432 6.7584 5.9392 6.7584 10.4448v7.9872c0 9.216-4.7104 17.8176-12.6976 22.7328l-19.8656 12.288c-16.1792 10.0352-26.0096 27.648-26.0096 46.6944v15.36H346.112z" fill="#FFC5B3" p-id="16214"></path><path d="M346.112 503.1936H199.0656c-5.7344 0-10.24-4.5056-10.24-10.24v-15.36c0-22.7328 11.4688-43.4176 30.9248-55.296l19.8656-12.288c4.9152-3.072 7.7824-8.192 7.7824-14.1312v-7.9872c0-0.6144-0.4096-1.024-0.8192-1.024-21.2992-10.0352-35.2256-31.744-35.2256-55.296v-23.3472c0-33.792 27.4432-61.2352 61.2352-61.2352S333.824 274.432 333.824 308.224v23.3472c0 23.552-13.7216 45.2608-35.2256 55.296-0.4096 0.2048-0.8192 0.6144-0.8192 1.024v7.9872c0 5.7344 2.8672 11.0592 7.7824 14.1312l19.8656 12.288c19.2512 11.8784 30.9248 32.5632 30.9248 55.296v15.36c0 5.7344-4.5056 10.24-10.24 10.24z m-136.8064-20.48H335.872v-5.12c0-15.5648-7.9872-29.696-21.0944-37.888l-19.8656-12.288c-11.0592-6.7584-17.6128-18.6368-17.6128-31.5392v-7.9872c0-8.3968 4.9152-15.9744 12.6976-19.6608 14.1312-6.7584 23.3472-21.0944 23.3472-36.864v-23.3472c0-22.528-18.2272-40.7552-40.7552-40.7552s-40.7552 18.2272-40.7552 40.7552v23.3472c0 15.7696 9.216 30.1056 23.3472 36.864 7.5776 3.6864 12.6976 11.264 12.6976 19.6608v7.9872c0 12.9024-6.5536 24.7808-17.6128 31.5392l-19.8656 12.288c-13.312 8.192-21.0944 22.3232-21.0944 37.888v5.12z" fill="#1C1D21" p-id="16215"></path><path d="M272.5888 256.8192c-28.0576 0-50.9952 22.7328-50.9952 50.9952v20.2752c43.6224-13.5168 51.4048-40.5504 51.4048-40.5504s7.7824 26.624 50.5856 40.1408v-20.0704c0-27.8528-22.9376-50.7904-50.9952-50.7904z" fill="#FF8939" p-id="16216"></path><path d="M221.5936 338.3296c-2.2528 0-4.3008-0.6144-6.144-2.048-2.6624-1.8432-4.096-4.9152-4.096-8.192v-20.2752c0-33.792 27.4432-61.2352 61.2352-61.2352 16.384 0 31.744 6.3488 43.2128 17.8176 11.4688 11.4688 17.8176 26.8288 17.8176 43.2128v20.0704c0 3.2768-1.6384 6.3488-4.096 8.192-2.6624 1.8432-5.9392 2.4576-9.216 1.4336-24.7808-7.9872-39.3216-20.0704-47.3088-30.1056-8.192 10.0352-22.9376 22.528-48.3328 30.3104-1.024 0.6144-2.048 0.8192-3.072 0.8192z m50.9952-71.2704c-22.528 0-40.7552 18.2272-40.7552 40.7552v5.5296c25.6-11.6736 31.1296-27.8528 31.3344-28.672 1.2288-4.3008 5.3248-7.3728 9.8304-7.3728 4.5056 0 8.6016 3.072 9.8304 7.3728 0.2048 0.6144 5.5296 16.384 30.5152 28.0576v-5.12c0-10.8544-4.3008-21.0944-11.8784-28.672s-18.0224-11.8784-28.8768-11.8784z" fill="#1C1D21" p-id="16217"></path><path d="M346.112 492.9536v-15.36c0-19.0464-9.8304-36.6592-26.0096-46.6944l-13.5168-8.3968c-10.6496 3.6864-22.1184 5.7344-33.9968 5.7344-11.8784 0-23.3472-2.048-33.9968-5.7344l-13.5168 8.3968c-16.1792 10.0352-26.0096 27.648-26.0096 46.6944v15.36H346.112z" fill="#0ABFB2" p-id="16218"></path><path d="M346.112 503.1936H199.0656c-5.7344 0-10.24-4.5056-10.24-10.24v-15.36c0-22.7328 11.4688-43.4176 30.9248-55.296l13.5168-8.3968c2.6624-1.6384 5.7344-2.048 8.8064-1.024 19.6608 6.7584 41.5744 6.7584 61.2352 0 2.8672-1.024 6.144-0.6144 8.8064 1.024l13.5168 8.3968c19.2512 11.8784 30.9248 32.5632 30.9248 55.296v15.36c-0.2048 5.7344-4.7104 10.24-10.4448 10.24z m-136.8064-20.48H335.872v-5.12c0-15.5648-7.9872-29.696-21.0944-37.888l-9.6256-5.9392c-21.0944 6.3488-44.032 6.3488-65.1264 0l-9.6256 5.9392c-13.312 8.192-21.0944 22.3232-21.0944 37.888v5.12z" fill="#1C1D21" p-id="16219"></path><path d="M493.3632 492.9536v-15.36c0-19.0464-9.8304-36.6592-26.0096-46.6944l-19.8656-12.288c-7.9872-4.9152-12.6976-13.5168-12.6976-22.7328v-7.9872c0-4.5056 2.6624-8.3968 6.7584-10.4448 17.2032-8.192 29.2864-25.8048 29.2864-46.08v-23.3472c0-28.0576-22.7328-50.9952-50.9952-50.9952-28.0576 0-50.9952 22.7328-50.9952 50.9952v23.3472c0 20.48 11.8784 37.888 29.2864 46.08 4.096 1.8432 6.7584 5.9392 6.7584 10.4448v7.9872c0 9.216-4.7104 17.8176-12.6976 22.7328l-19.8656 12.288c-16.1792 10.0352-26.0096 27.648-26.0096 46.6944v15.36h147.0464z" fill="#FFC5B3" p-id="16220"></path><path d="M493.3632 503.1936H346.112c-5.7344 0-10.24-4.5056-10.24-10.24v-15.36c0-22.7328 11.4688-43.4176 30.9248-55.296l19.8656-12.288c4.9152-3.072 7.7824-8.192 7.7824-14.1312v-7.9872c0-0.6144-0.4096-1.024-0.8192-1.024-21.2992-10.0352-35.2256-31.744-35.2256-55.296v-23.3472c0-33.792 27.4432-61.2352 61.2352-61.2352s61.2352 27.4432 61.2352 61.2352v23.3472c0 23.552-13.7216 45.2608-35.2256 55.296-0.4096 0.2048-0.8192 0.6144-0.8192 1.024v7.9872c0 5.7344 2.8672 11.0592 7.7824 14.1312l19.8656 12.288c19.2512 11.8784 30.9248 32.5632 30.9248 55.296v15.36c0.2048 5.7344-4.5056 10.24-10.0352 10.24z m-137.0112-20.48h126.5664v-5.12c0-15.5648-7.9872-29.696-21.0944-37.888l-19.8656-12.288c-11.0592-6.7584-17.6128-18.6368-17.6128-31.5392v-7.9872c0-8.3968 4.9152-15.9744 12.6976-19.6608 14.1312-6.7584 23.3472-21.0944 23.3472-36.864v-23.3472c0-22.528-18.2272-40.7552-40.7552-40.7552s-40.7552 18.2272-40.7552 40.7552v23.3472c0 15.7696 9.216 30.1056 23.3472 36.864 7.5776 3.6864 12.6976 11.264 12.6976 19.6608v7.9872c0 12.9024-6.5536 24.7808-17.6128 31.5392l-19.8656 12.288c-13.312 8.192-21.0944 22.3232-21.0944 37.888v5.12z" fill="#1C1D21" p-id="16221"></path><path d="M493.3632 492.9536v-15.36c0-19.0464-9.8304-36.6592-26.0096-46.6944l-13.5168-8.3968c-10.6496 3.6864-22.1184 5.7344-33.9968 5.7344-11.8784 0-23.3472-2.048-33.9968-5.7344l-13.5168 8.3968c-16.1792 10.0352-26.0096 27.648-26.0096 46.6944v15.36h147.0464z" fill="#C67552" p-id="16222"></path><path d="M493.3632 503.1936H346.112c-5.7344 0-10.24-4.5056-10.24-10.24v-15.36c0-22.7328 11.4688-43.4176 30.9248-55.296l13.5168-8.3968c2.6624-1.6384 5.7344-2.048 8.8064-1.024 19.6608 6.7584 41.5744 6.7584 61.2352 0 2.8672-1.024 6.144-0.6144 8.8064 1.024l13.5168 8.3968c19.2512 11.8784 30.9248 32.5632 30.9248 55.296v15.36c0 5.7344-4.7104 10.24-10.24 10.24z m-137.0112-20.48h126.5664v-5.12c0-15.5648-7.9872-29.696-21.0944-37.888l-9.6256-5.9392c-21.0944 6.3488-44.032 6.3488-65.1264 0l-9.6256 5.9392c-13.312 8.192-21.0944 22.3232-21.0944 37.888v5.12z" fill="#1C1D21" p-id="16223"></path><path d="M639.5904 492.9536v-15.36c0-19.0464-9.8304-36.6592-26.0096-46.6944l-19.8656-12.288c-7.9872-4.9152-12.6976-13.5168-12.6976-22.7328v-7.9872c0-4.5056 2.6624-8.3968 6.7584-10.4448 17.2032-8.192 29.2864-25.8048 29.2864-46.08v-23.3472c0-28.0576-22.7328-50.9952-50.9952-50.9952-28.0576 0-50.9952 22.7328-50.9952 50.9952v23.3472c0 20.48 11.8784 37.888 29.2864 46.08 4.096 1.8432 6.7584 5.9392 6.7584 10.4448v7.9872c0 9.216-4.7104 17.8176-12.6976 22.7328l-19.8656 12.288c-16.1792 10.0352-26.0096 27.648-26.0096 46.6944v15.36h147.0464z" fill="#FFC5B3" p-id="16224"></path><path d="M639.5904 503.1936h-147.0464c-5.7344 0-10.24-4.5056-10.24-10.24v-15.36c0-22.7328 11.4688-43.4176 30.9248-55.296l19.8656-12.288c4.9152-3.072 7.7824-8.192 7.7824-14.1312v-7.9872c0-0.6144-0.4096-1.024-0.8192-1.024-21.2992-10.0352-35.2256-31.744-35.2256-55.296v-23.3472c0-33.792 27.4432-61.2352 61.2352-61.2352s61.2352 27.4432 61.2352 61.2352v23.3472c0 23.552-13.7216 45.2608-35.2256 55.296-0.4096 0.2048-0.8192 0.6144-0.8192 1.024v7.9872c0 5.7344 2.8672 11.0592 7.7824 14.1312l19.8656 12.288c19.2512 11.8784 30.9248 32.5632 30.9248 55.296v15.36c0 5.7344-4.7104 10.24-10.24 10.24z m-137.0112-20.48h126.5664v-5.12c0-15.5648-7.9872-29.696-21.0944-37.888l-19.8656-12.288c-11.0592-6.7584-17.6128-18.6368-17.6128-31.5392v-7.9872c0-8.3968 4.9152-15.9744 12.6976-19.6608 14.1312-6.7584 23.3472-21.0944 23.3472-36.864v-23.3472c0-22.528-18.2272-40.7552-40.7552-40.7552s-40.7552 18.2272-40.7552 40.7552v23.3472c0 15.7696 9.216 30.1056 23.3472 36.864 7.5776 3.6864 12.6976 11.264 12.6976 19.6608v7.9872c0 12.9024-6.5536 24.7808-17.6128 31.5392l-19.8656 12.288c-13.312 8.192-21.0944 22.3232-21.0944 37.888v5.12z" fill="#1C1D21" p-id="16225"></path><path d="M639.5904 492.9536v-15.36c0-19.0464-9.8304-36.6592-26.0096-46.6944l-13.5168-8.3968c-10.6496 3.6864-22.1184 5.7344-33.9968 5.7344-11.8784 0-23.3472-2.048-33.9968-5.7344l-13.5168 8.3968c-16.1792 10.0352-26.0096 27.648-26.0096 46.6944v15.36h147.0464z" fill="#508DEF" p-id="16226"></path><path d="M639.5904 503.1936h-147.0464c-5.7344 0-10.24-4.5056-10.24-10.24v-15.36c0-22.7328 11.4688-43.4176 30.9248-55.296l13.5168-8.3968c2.6624-1.6384 5.7344-2.048 8.8064-1.024 19.6608 6.7584 41.5744 6.7584 61.2352 0 2.8672-1.024 6.144-0.6144 8.8064 1.024l13.5168 8.3968c19.2512 11.8784 30.9248 32.5632 30.9248 55.296v15.36c-0.2048 5.7344-4.9152 10.24-10.4448 10.24z m-137.0112-20.48h126.5664v-5.12c0-15.5648-7.9872-29.696-21.0944-37.888l-9.6256-5.9392c-21.0944 6.3488-44.032 6.3488-65.1264 0l-9.6256 5.9392c-13.312 8.192-21.0944 22.3232-21.0944 37.888v5.12zM376.832 897.2288c-8.3968 0-15.9744-3.2768-21.9136-8.3968-5.7344 5.3248-13.5168 8.3968-21.9136 8.3968-8.6016 0-16.384-3.2768-22.1184-8.8064-5.7344 5.5296-13.5168 8.8064-22.1184 8.8064-5.7344 0-10.24-4.5056-10.24-10.24s4.5056-10.24 10.24-10.24c6.5536 0 11.8784-5.3248 11.8784-11.8784 0-5.7344 4.5056-10.24 10.24-10.24s10.24 4.5056 10.24 10.24c0 6.5536 5.3248 11.8784 11.8784 11.8784 5.5296 0 10.0352-3.6864 11.4688-8.6016-0.2048-1.024-0.2048-2.048-0.2048-3.2768 0-5.7344 4.5056-10.24 10.24-10.24h0.6144c5.7344 0 10.24 4.5056 10.24 10.24 0 1.024 0 2.048-0.2048 3.2768 1.4336 4.9152 5.9392 8.6016 11.4688 8.6016 5.7344 0 10.24 4.5056 10.24 10.24s-4.3008 10.24-10.0352 10.24zM737.28 897.2288c-8.3968 0-15.9744-3.2768-21.9136-8.3968-5.7344 5.3248-13.5168 8.3968-21.9136 8.3968-8.6016 0-16.384-3.2768-22.1184-8.8064-5.7344 5.5296-13.5168 8.8064-22.1184 8.8064-5.7344 0-10.24-4.5056-10.24-10.24s4.5056-10.24 10.24-10.24c6.5536 0 11.8784-5.3248 11.8784-11.8784 0-5.7344 4.5056-10.24 10.24-10.24s10.24 4.5056 10.24 10.24c0 6.5536 5.3248 11.8784 11.8784 11.8784 5.5296 0 10.0352-3.6864 11.4688-8.8064-0.2048-1.024-0.2048-2.048-0.2048-3.2768 0-5.7344 4.5056-10.24 10.24-10.24h0.6144c5.7344 0 10.24 4.5056 10.24 10.24 0 1.024 0 2.048-0.2048 3.2768 1.4336 4.9152 5.9392 8.8064 11.4688 8.8064 5.7344 0 10.24 4.5056 10.24 10.24s-4.3008 10.24-10.0352 10.24zM418.2016 897.2288H413.696c-5.7344 0-10.24-4.5056-10.24-10.24s4.5056-10.24 10.24-10.24h4.5056c5.7344 0 10.24 4.5056 10.24 10.24s-4.7104 10.24-10.24 10.24zM612.5568 897.2288h-4.5056c-5.7344 0-10.24-4.5056-10.24-10.24s4.5056-10.24 10.24-10.24h4.5056c5.7344 0 10.24 4.5056 10.24 10.24s-4.5056 10.24-10.24 10.24z" fill="#1C1D21" p-id="16227"></path><path d="M419.6352 256.8192c-28.0576 0-50.9952 22.7328-50.9952 50.9952v20.2752c43.6224-13.5168 51.4048-40.5504 51.4048-40.5504s7.7824 26.624 50.5856 40.1408v-20.0704c0-27.8528-22.7328-50.7904-50.9952-50.7904z" fill="#FF8939" p-id="16228"></path><path d="M368.8448 338.3296c-2.2528 0-4.3008-0.6144-6.144-2.048-2.6624-1.8432-4.096-4.9152-4.096-8.192v-20.2752c0-33.792 27.4432-61.2352 61.2352-61.2352 16.384 0 31.744 6.3488 43.2128 17.8176 11.4688 11.4688 17.8176 26.8288 17.8176 43.2128v20.0704c0 3.2768-1.6384 6.3488-4.096 8.192s-5.9392 2.4576-9.216 1.4336c-24.7808-7.9872-39.3216-20.0704-47.3088-30.1056-8.192 10.0352-22.9376 22.528-48.3328 30.3104-1.024 0.6144-2.048 0.8192-3.072 0.8192z m50.7904-71.2704c-22.528 0-40.7552 18.2272-40.7552 40.7552v5.5296c25.6-11.6736 31.1296-27.8528 31.3344-28.672 1.2288-4.3008 5.3248-7.3728 9.8304-7.3728 4.5056 0 8.6016 3.072 9.8304 7.3728 0.2048 0.6144 5.5296 16.384 30.5152 28.0576v-5.12c0-10.8544-4.3008-21.0944-11.8784-28.672s-18.0224-11.8784-28.8768-11.8784z" fill="#1C1D21" p-id="16229"></path><path d="M566.0672 256.8192c-28.0576 0-50.9952 22.7328-50.9952 50.9952v20.2752c43.6224-13.5168 51.4048-40.5504 51.4048-40.5504s7.7824 26.624 50.5856 40.1408v-20.0704c-0.2048-27.8528-22.9376-50.7904-50.9952-50.7904z" fill="#FF8939" p-id="16230"></path><path d="M515.072 338.3296c-2.2528 0-4.3008-0.6144-6.144-2.048-2.6624-1.8432-4.096-4.9152-4.096-8.192v-20.2752c0-33.792 27.4432-61.2352 61.2352-61.2352 16.384 0 31.744 6.3488 43.2128 17.8176 11.4688 11.4688 17.8176 26.8288 17.8176 43.2128v20.0704c0 3.2768-1.6384 6.3488-4.096 8.192s-5.9392 2.4576-9.216 1.4336c-24.7808-7.9872-39.3216-20.0704-47.3088-30.1056-8.192 10.0352-22.9376 22.528-48.3328 30.3104-1.024 0.6144-2.048 0.8192-3.072 0.8192z m50.9952-71.2704c-22.528 0-40.7552 18.2272-40.7552 40.7552v5.5296c25.6-11.6736 31.1296-27.8528 31.3344-28.672 1.2288-4.3008 5.3248-7.3728 9.8304-7.3728 4.5056 0 8.6016 3.072 9.8304 7.3728 0.2048 0.6144 5.5296 16.384 30.5152 28.0576v-5.12c0-10.8544-4.3008-21.0944-11.8784-28.672s-18.0224-11.8784-28.8768-11.8784z" fill="#1C1D21" p-id="16231"></path><path d="M680.96 656.7936h-114.8928c-5.7344 0-10.24-4.5056-10.24-10.24s4.5056-10.24 10.24-10.24h114.8928c5.7344 0 10.24 4.5056 10.24 10.24s-4.5056 10.24-10.24 10.24z" fill="#1C1D21" p-id="16232"></path></svg>