<svg xmlns="http://www.w3.org/2000/svg" viewBox="0 0 1024 1024" version="1.1"><path d="M512 512m-501.76 0a501.76 501.76 0 1 0 1003.52 0 501.76 501.76 0 1 0-1003.52 0Z" fill="#8CEEF9" p-id="17473"></path><path d="M512 1024c-136.8064 0-265.4208-53.248-362.0864-149.9136S0 648.8064 0 512 53.248 246.5792 149.9136 149.9136C246.5792 53.248 375.1936 0 512 0s265.4208 53.248 362.0864 149.9136C970.752 246.5792 1024 375.1936 1024 512s-53.248 265.4208-149.9136 362.0864S648.8064 1024 512 1024z m0-1003.52C241.0496 20.48 20.48 241.0496 20.48 512s220.5696 491.52 491.52 491.52 491.52-220.5696 491.52-491.52S782.9504 20.48 512 20.48z" fill="#1C1D21" p-id="17474"></path><path d="M512 675.0208c-145.6128 0-263.7824 117.9648-263.7824 263.7824v0.2048C325.0176 986.3168 415.3344 1013.76 512 1013.76s186.9824-27.4432 263.5776-74.752v-0.2048c0.2048-145.8176-117.9648-263.7824-263.5776-263.7824z" fill="#508DEF" p-id="17475"></path><path d="M292.4544 911.9744c-0.6144 0-1.2288 0-1.6384-0.2048-5.5296-1.024-9.4208-6.144-8.3968-11.8784 10.0352-60.0064 42.8032-113.0496 92.16-149.2992 4.5056-3.2768 11.0592-2.4576 14.336 2.2528 3.2768 4.5056 2.4576 11.0592-2.2528 14.336-45.056 33.1776-74.9568 81.5104-84.1728 136.192-0.8192 5.12-5.12 8.6016-10.0352 8.6016z" fill="#ABD1FF" p-id="17476"></path><path d="M493.568 675.0208s-108.7488 2.4576-174.08 83.5584c0 0 35.4304 38.7072 80.6912 58.5728 0 0 11.4688-115.5072 93.3888-142.1312zM386.048 938.5984s0 27.2384 3.072 60.0064c39.3216 9.8304 80.4864 15.1552 122.6752 15.1552v-75.1616h-125.7472zM623.8208 817.152s-55.296 27.2384-111.8208 24.7808v-158.5152s73.9328-19.8656 111.8208 133.7344z" fill="#0ABFB2" p-id="17477"></path><path d="M512 1024c-5.7344 0-10.24-4.5056-10.24-10.24V675.0208c0-5.7344 4.5056-10.24 10.24-10.24s10.24 4.5056 10.24 10.24V1013.76c0 5.7344-4.5056 10.24-10.24 10.24z" fill="#1C1D21" p-id="17478"></path><path d="M512 1024c-42.1888 0-84.3776-5.12-125.1328-15.36-4.096-1.024-7.168-4.5056-7.7824-8.8064-2.2528-19.8656-3.2768-40.5504-3.2768-61.0304 0-71.8848 13.5168-139.6736 37.888-190.8736 25.6-53.6576 60.416-83.1488 98.304-83.1488s72.704 29.4912 98.304 83.1488c24.3712 51.2 37.888 118.9888 37.888 190.8736 0 20.6848-1.024 41.1648-3.2768 61.0304-0.4096 4.3008-3.4816 7.7824-7.7824 8.8064-40.7552 10.24-82.944 15.36-125.1328 15.36z m-113.2544-33.5872c73.9328 17.408 152.3712 17.408 226.304 0 1.6384-16.9984 2.4576-34.4064 2.4576-51.8144 0-137.4208-53.0432-253.5424-115.712-253.5424s-115.712 116.1216-115.712 253.5424c0.2048 17.408 1.024 34.816 2.6624 51.8144z m235.9296 8.192z" fill="#1C1D21" p-id="17479"></path><path d="M350.0032 796.2624c-2.4576 0-5.12-1.024-6.9632-2.8672-4.096-3.8912-4.3008-10.4448-0.4096-14.5408 9.8304-10.24 20.48-19.8656 31.9488-28.2624 4.5056-3.2768 11.0592-2.4576 14.336 2.2528 3.2768 4.5056 2.4576 11.0592-2.2528 14.336-10.4448 7.5776-20.2752 16.384-29.0816 25.8048-2.2528 2.2528-4.9152 3.2768-7.5776 3.2768z" fill="#8CEEF9" p-id="17480"></path><path d="M775.7824 948.8384H248.4224c-5.7344 0-10.24-4.5056-10.24-10.24s4.5056-10.24 10.24-10.24h527.36c5.7344 0 10.24 4.5056 10.24 10.24s-4.7104 10.24-10.24 10.24zM512 852.1728c-75.3664 0-148.2752-31.5392-199.8848-86.6304-3.6864-3.8912-3.6864-10.0352 0-13.9264 51.6096-55.0912 124.5184-86.6304 199.8848-86.6304s148.2752 31.5392 199.8848 86.6304c3.6864 3.8912 3.6864 10.0352 0 13.9264-51.6096 55.0912-124.5184 86.6304-199.8848 86.6304z m-178.176-93.7984c47.7184 47.3088 110.592 73.3184 178.176 73.3184s130.4576-26.0096 178.176-73.3184c-47.7184-47.3088-110.592-73.3184-178.176-73.3184s-130.4576 26.0096-178.176 73.3184z" fill="#1C1D21" p-id="17481"></path><path d="M512 1024c-95.232 0-188.416-26.4192-269.1072-76.3904-3.072-1.8432-4.9152-5.12-4.9152-8.8064v-0.2048c0-23.3472 2.8672-46.4896 8.6016-68.8128 1.4336-5.5296 6.9632-8.8064 12.4928-7.3728 5.5296 1.4336 8.8064 6.9632 7.3728 12.4928-4.9152 18.8416-7.5776 38.5024-7.9872 58.1632 76.3904 46.08 163.84 70.2464 253.3376 70.2464s177.152-24.3712 253.3376-70.2464c-2.8672-137.216-115.5072-248.0128-253.3376-248.0128-80.0768 0-156.4672 38.5024-203.9808 103.0144-3.2768 4.5056-9.8304 5.5296-14.336 2.2528s-5.5296-9.8304-2.2528-14.336c51.4048-69.632 133.9392-111.4112 220.5696-111.4112 151.1424 0 274.0224 122.88 274.0224 274.0224v0.4096c0 3.4816-1.8432 6.7584-4.9152 8.6016C700.416 997.5808 607.232 1024 512 1024z m-253.3376-84.992z" fill="#1C1D21" p-id="17482"></path><path d="M274.6368 834.1504c-1.4336 0-3.072-0.4096-4.5056-1.024-5.12-2.4576-7.168-8.6016-4.7104-13.7216 1.2288-2.4576 2.4576-4.9152 3.6864-7.168 2.6624-4.9152 8.8064-6.9632 13.7216-4.3008 4.9152 2.6624 6.9632 8.8064 4.3008 13.7216-1.2288 2.2528-2.2528 4.5056-3.2768 6.7584-1.8432 3.4816-5.5296 5.7344-9.216 5.7344z" fill="#1C1D21" p-id="17483"></path><path d="M735.232 374.9888L643.072 282.624l-51.6096 51.6096c-20.48-20.48-53.6576-20.48-74.1376 0L429.6704 421.888c-11.8784 11.8784-11.8784 31.1296 0 43.008 8.6016 8.6016 22.528 8.6016 30.9248 0l-82.944 82.944h73.728l14.9504-14.9504 14.9504 14.9504h78.0288v113.8688l104.448-104.448c26.0096-26.0096 34.2016-63.0784 24.576-96.0512-5.5296-19.2512 0.2048-39.7312 14.336-53.8624l32.5632-32.3584z" fill="#C67552" p-id="17484"></path><path d="M571.5968 659.8656c-2.8672 0-5.5296-1.024-7.5776-3.2768-3.8912-4.096-3.4816-10.6496 0.6144-14.5408 33.1776-30.3104 63.0784-62.2592 94.8224-95.8464l2.4576-2.4576c20.2752-22.1184 26.0096-56.5248 14.336-87.6544-0.4096-1.024-0.6144-2.048-0.6144-3.072-1.8432-32.3584 19.6608-53.248 38.5024-71.8848l6.3488-6.3488-75.9808-75.9808c-0.4096-0.4096-1.024-0.8192-1.6384-1.4336-4.3008 4.3008-8.6016 8.192-12.9024 12.0832-10.24 9.4208-20.0704 18.432-28.2624 30.1056-1.8432 2.6624-5.12 4.3008-8.3968 4.3008h-4.096c-2.6624 0-5.3248-1.024-7.168-3.072-17.6128-17.6128-42.1888-13.312-57.344 0.2048-8.192 8.192-16.5888 16.384-24.7808 24.1664-23.552 22.9376-47.9232 46.4896-68.608 72.704-0.6144 8.8064 1.6384 19.2512 10.24 23.3472 2.6624 0.8192 6.3488 0.6144 8.3968 0 1.2288-1.2288 2.4576-2.2528 3.4816-3.4816l0.2048-0.2048c1.8432-1.6384 4.096-2.4576 6.5536-2.6624 0.8192 0 1.6384 0 2.6624 0.2048 1.6384 0.4096 3.2768 1.2288 4.5056 2.2528l1.6384 1.6384c1.024 1.4336 1.6384 3.2768 1.8432 4.9152 0.2048 1.2288 0 2.2528-0.2048 3.4816-0.2048 1.024-0.6144 1.8432-1.024 2.6624-1.8432 3.072-4.096 5.5296-6.9632 7.3728l-2.048 2.048c-7.7824 7.7824-15.5648 15.5648-22.9376 23.3472-13.312 13.7216-27.2384 27.8528-41.3696 41.1648-4.096 3.8912-10.6496 3.6864-14.5408-0.4096-3.8912-4.096-3.6864-10.6496 0.4096-14.5408 13.9264-12.9024 27.0336-26.4192 40.7552-40.5504 2.8672-3.072 5.9392-6.144 9.0112-9.216-15.5648-7.7824-23.552-25.8048-20.48-46.8992 0.2048-1.8432 1.024-3.4816 2.048-4.9152 21.9136-28.2624 47.5136-53.0432 72.2944-77.0048 8.192-7.9872 16.5888-15.9744 24.7808-24.1664l0.4096-0.4096c23.3472-21.0944 56.1152-22.7328 79.4624-5.12 8.192-10.24 17.2032-18.432 26.0096-26.4192 6.3488-5.9392 12.9024-11.8784 19.0464-18.6368l0.4096-0.4096c4.096-3.8912 10.4448-3.8912 14.336 0.2048l91.9552 91.9552c3.8912 3.8912 4.096 10.0352 0.4096 14.1312-4.5056 4.9152-9.216 9.6256-13.9264 14.336-16.9984 16.5888-33.1776 32.3584-32.5632 54.6816 13.7216 37.888 6.144 79.872-19.0464 107.3152l-2.4576 2.6624c-31.9488 33.9968-62.2592 66.1504-95.8464 97.0752-2.2528 1.4336-4.7104 2.2528-7.168 2.2528z" fill="#1C1D21" p-id="17485"></path><path d="M642.924544 282.59328l41.562112-41.560064 92.391424 92.391424-41.562112 41.560064z" fill="#FFECE9" p-id="17486"></path><path d="M735.232 385.2288c-2.6624 0-5.3248-1.024-7.168-3.072l-92.3648-92.3648c-4.096-4.096-4.096-10.4448 0-14.5408l41.5744-41.5744c1.8432-1.8432 4.5056-3.072 7.168-3.072s5.3248 1.024 7.168 3.072l92.3648 92.3648c1.8432 1.8432 3.072 4.5056 3.072 7.168s-1.024 5.3248-3.072 7.168l-41.5744 41.5744c-1.8432 2.2528-4.5056 3.2768-7.168 3.2768zM657.408 282.624l77.824 77.824 27.0336-27.0336-77.824-77.824L657.408 282.624z" fill="#1C1D21" p-id="17487"></path><path d="M814.2848 111.4112l-129.6384 129.6384 130.2528 130.2528 123.6992-123.6992c-32.768-52.6336-74.9568-98.9184-124.3136-136.192z" fill="#AAADAD" p-id="17488"></path><path d="M814.6944 381.7472c-2.6624 0-5.3248-1.024-7.168-3.072l-130.2528-130.2528c-4.096-4.096-4.096-10.4448 0-14.5408L806.912 104.2432c3.6864-3.6864 9.4208-4.096 13.312-1.024 50.7904 38.2976 93.3888 84.992 126.7712 139.0592 2.4576 4.096 1.8432 9.216-1.4336 12.6976l-123.6992 123.6992c-1.8432 2.048-4.5056 3.072-7.168 3.072z m-115.712-140.6976l115.712 115.712 110.7968-110.7968c-29.9008-46.4896-66.9696-87.04-110.3872-121.2416l-116.1216 116.3264z" fill="#1C1D21" p-id="17489"></path><path d="M520.6016 582.4512l57.5488 57.5488c10.24 10.24 26.624 10.24 36.864 0s10.24-26.624 0-36.864l-57.5488-57.5488M483.5328 619.52l57.5488 57.5488c10.24 10.24 26.624 10.24 36.864 0s10.24-26.624 0-36.864l-57.5488-57.5488" fill="#FFC5B3" p-id="17490"></path><path d="M557.4656 545.5872l56.9344 56.9344c10.24 10.24 26.8288 10.8544 37.0688 1.024 10.4448-10.24 10.6496-26.8288 0.4096-37.2736L563.2 477.5936c8.6016 8.6016 22.528 8.6016 30.9248 0 11.8784-11.8784 11.8784-31.1296 0-43.008l-87.6544-87.6544c-20.48-20.48-53.6576-20.48-74.1376 0L380.928 295.3216l-92.16 92.3648 32.3584 32.3584c14.1312 14.1312 19.8656 34.816 14.336 53.8624-9.6256 32.9728-1.4336 70.0416 24.576 96.0512l143.9744 143.9744c10.24 10.24 27.0336 10.24 37.2736-0.4096 10.0352-10.24 9.216-27.0336-1.024-37.0688l-25.8048-25.8048" fill="#FFC5B3" p-id="17491"></path><path d="M596.7872 658.0224c-9.6256 0-18.8416-3.6864-25.6-10.6496L544.768 620.9536c-4.096-4.096-4.096-10.4448 0-14.5408s10.4448-4.096 14.5408 0L585.728 632.832c3.072 3.072 6.9632 4.7104 11.264 4.7104s8.192-1.6384 11.264-4.7104c6.144-6.144 6.144-16.1792 0-22.3232L550.2976 552.96c-4.096-4.096-4.096-10.4448 0-14.5408s10.4448-4.096 14.5408 0l57.5488 57.5488c14.1312 14.1312 14.1312 37.2736 0 51.4048-6.9632 6.7584-15.9744 10.6496-25.6 10.6496z" fill="#1C1D21" p-id="17492"></path><path d="M559.7184 695.0912c-9.6256 0-18.8416-3.6864-25.6-10.6496L503.808 654.1312c-4.096-4.096-4.096-10.4448 0-14.5408s10.4448-4.096 14.5408 0l30.3104 30.3104c6.144 6.144 16.1792 6.144 22.3232 0s6.144-16.1792 0-22.3232L540.672 617.2672c-4.096-4.096-4.096-10.4448 0-14.5408s10.4448-4.096 14.5408 0l30.3104 30.3104c14.1312 14.1312 14.1312 37.2736 0 51.4048-7.168 6.7584-16.1792 10.6496-25.8048 10.6496z" fill="#1C1D21" p-id="17493"></path><path d="M522.6496 732.16c-9.6256 0-18.8416-3.6864-25.6-10.6496L353.0752 577.536c-27.8528-27.8528-38.2976-68.4032-27.2384-106.2912 4.5056-15.36 0-32.1536-11.8784-43.8272l-32.3584-32.3584c-4.096-4.096-4.096-10.4448 0-14.5408l92.3648-92.3648c4.096-4.096 10.4448-4.096 14.5408 0l44.8512 44.8512c10.6496-7.5776 23.1424-11.6736 36.4544-11.6736 16.7936 0 32.3584 6.5536 44.2368 18.432l87.6544 87.6544c15.9744 15.9744 15.9744 41.7792 0 57.5488-2.8672 2.8672-6.144 5.12-9.8304 6.7584l67.584 67.584c6.9632 6.9632 10.6496 16.1792 10.6496 26.0096 0 9.8304-4.096 19.0464-11.0592 25.8048-14.1312 13.7216-37.2736 13.1072-51.4048-1.024l-57.344-57.1392c-4.096-4.096-4.096-10.4448 0-14.5408s10.4448-4.096 14.5408 0l56.9344 56.9344c6.3488 6.3488 16.5888 6.7584 22.7328 0.8192 3.072-3.072 4.7104-6.9632 4.9152-11.264 0-4.3008-1.6384-8.3968-4.7104-11.264l-88.6784-88.6784c-4.096-4.096-4.096-10.4448 0-14.5408s10.4448-4.096 14.5408 0c2.2528 2.2528 5.12 3.4816 8.192 3.4816s6.144-1.2288 8.192-3.4816c7.9872-7.9872 7.9872-20.6848 0-28.672l-87.6544-87.6544c-7.9872-7.9872-18.6368-12.288-29.9008-12.288s-21.9136 4.3008-29.9008 12.288c-1.8432 1.8432-4.5056 3.072-7.168 3.072s-5.3248-1.024-7.168-3.072L380.928 309.8624l-77.824 77.824 25.1904 25.1904c16.9984 16.9984 23.552 41.5744 16.9984 64.1024-8.8064 30.5152-0.4096 63.488 22.1184 86.016l143.9744 143.9744c3.072 3.072 7.168 4.7104 11.264 4.7104 4.3008 0 8.192-1.8432 11.264-4.9152 5.9392-6.144 5.5296-16.384-0.8192-22.7328l-29.696-29.696c-4.096-4.096-4.096-10.4448 0-14.5408s10.4448-4.096 14.5408 0l29.696 29.696c14.336 14.336 14.7456 37.2736 1.024 51.4048-6.7584 7.168-15.9744 11.0592-25.8048 11.0592 0 0.2048-0.2048 0.2048-0.2048 0.2048z" fill="#1C1D21" p-id="17494"></path><path d="M247.154688 346.185728l92.391424-92.391424 41.562112 41.562112-92.391424 92.391424z" fill="#FFECE9" p-id="17495"></path><path d="M288.768 397.9264c-2.6624 0-5.3248-1.024-7.168-3.072l-41.5744-41.5744c-1.8432-1.8432-3.072-4.5056-3.072-7.168s1.024-5.3248 3.072-7.168l92.3648-92.3648c1.8432-1.8432 4.5056-3.072 7.168-3.072 2.6624 0 5.3248 1.024 7.168 3.072l41.5744 41.5744c4.096 4.096 4.096 10.4448 0 14.5408l-92.3648 92.3648c-2.048 1.8432-4.7104 2.8672-7.168 2.8672z m-27.0336-51.6096l27.0336 27.0336 77.824-77.824-27.0336-27.2384-77.824 78.0288z" fill="#1C1D21" p-id="17496"></path><path d="M80.6912 255.5904l128.6144 128.6144 130.2528-130.2528-137.0112-137.0112c-48.7424 38.2976-90.112 85.1968-121.856 138.6496z" fill="#AAADAD" p-id="17497"></path><path d="M209.3056 394.4448c-2.6624 0-5.3248-1.024-7.168-3.072l-128.6144-128.6144c-3.2768-3.2768-3.8912-8.3968-1.6384-12.4928 32.5632-54.4768 74.3424-102.1952 124.3136-141.312 4.096-3.2768 9.8304-2.8672 13.5168 0.8192l137.0112 137.0112c4.096 4.096 4.096 10.4448 0 14.5408l-130.2528 130.2528c-2.048 1.8432-4.5056 2.8672-7.168 2.8672z m-115.712-140.288l115.712 115.712 115.712-115.712-123.2896-123.4944c-42.8032 35.0208-79.0528 76.3904-108.1344 123.4944z" fill="#1C1D21" p-id="17498"></path><path d="M281.6 264.192c-2.6624 0-5.3248-1.024-7.168-3.072l-50.3808-50.3808c-4.096-4.096-4.096-10.4448 0-14.5408s10.4448-4.096 14.5408 0l50.3808 50.3808c4.096 4.096 4.096 10.4448 0 14.5408-2.2528 2.048-4.7104 3.072-7.3728 3.072zM208.0768 190.6688c-2.6624 0-5.3248-1.024-7.168-3.072l-7.7824-7.7824c-4.096-4.096-4.096-10.4448 0-14.5408s10.4448-4.096 14.5408 0l7.7824 7.7824c4.096 4.096 4.096 10.4448 0 14.5408-2.048 2.048-4.7104 3.072-7.3728 3.072zM742.4 251.904c-2.6624 0-5.3248-1.024-7.168-3.072-4.096-4.096-4.096-10.4448 0-14.5408l50.3808-50.3808c4.096-4.096 10.4448-4.096 14.5408 0s4.096 10.4448 0 14.5408L749.568 248.832c-1.8432 2.048-4.5056 3.072-7.168 3.072zM815.9232 178.3808c-2.6624 0-5.3248-1.024-7.168-3.072-4.096-4.096-4.096-10.4448 0-14.5408l7.7824-7.7824c4.096-4.096 10.4448-4.096 14.5408 0s4.096 10.4448 0 14.5408l-7.7824 7.7824c-2.2528 2.048-4.7104 3.072-7.3728 3.072z" fill="#E0E0E0" p-id="17499"></path><path d="M380.1088 537.3952l-33.5872 33.5872c-9.4208 9.4208-9.4208 24.7808 0 34.2016s24.7808 9.4208 34.2016 0l33.5872-33.5872c9.4208-9.4208 9.4208-24.7808 0-34.2016s-24.576-9.4208-34.2016 0z" fill="#C67552" p-id="17500"></path><path d="M363.7248 622.592c-8.8064 0-17.6128-3.2768-24.3712-10.0352-13.312-13.312-13.312-35.2256 0-48.7424l33.5872-33.5872c6.5536-6.5536 15.1552-10.0352 24.3712-10.0352s17.8176 3.4816 24.3712 10.0352c6.5536 6.5536 10.0352 15.1552 10.0352 24.3712s-3.4816 17.8176-10.0352 24.3712l-33.5872 33.5872c-6.7584 6.7584-15.5648 10.0352-24.3712 10.0352z m33.5872-81.92c-3.6864 0-7.168 1.4336-9.8304 4.096l-33.5872 33.5872c-5.5296 5.5296-5.5296 14.336 0 19.6608 5.5296 5.5296 14.336 5.5296 19.6608 0l33.5872-33.5872c2.6624-2.6624 4.096-6.144 4.096-9.8304s-1.4336-7.168-4.096-9.8304c-2.6624-2.6624-6.144-4.096-9.8304-4.096z" fill="#1C1D21" p-id="17501"></path><path d="M414.3104 571.5968l-33.5872 33.5872c-9.4208 9.4208-9.4208 24.7808 0 34.2016s24.7808 9.4208 34.2016 0l33.5872-33.5872c9.4208-9.4208 9.4208-24.7808 0-34.2016s-24.7808-9.4208-34.2016 0z" fill="#C67552" p-id="17502"></path><path d="M397.9264 656.7936c-8.8064 0-17.6128-3.2768-24.3712-10.0352-13.312-13.5168-13.312-35.2256 0-48.7424l33.5872-33.5872c13.312-13.312 35.2256-13.5168 48.7424 0 6.5536 6.5536 10.0352 15.1552 10.0352 24.3712s-3.4816 17.8176-10.0352 24.3712l-33.5872 33.5872c-6.7584 6.5536-15.5648 10.0352-24.3712 10.0352z m33.5872-81.92c-3.4816 0-7.168 1.4336-9.8304 4.096l-33.5872 33.5872c-5.5296 5.5296-5.5296 14.336 0 19.6608 5.5296 5.5296 14.336 5.3248 19.6608 0l33.5872-33.5872c2.6624-2.6624 4.096-6.144 4.096-9.8304s-1.4336-7.168-4.096-9.8304c-2.6624-2.8672-6.3488-4.096-9.8304-4.096z" fill="#1C1D21" p-id="17503"></path><path d="M448.512 605.7984l-33.5872 33.5872c-9.4208 9.4208-9.4208 24.7808 0 34.2016s24.7808 9.4208 34.2016 0l33.5872-33.5872c9.4208-9.4208 9.4208-24.7808 0-34.2016s-24.7808-9.4208-34.2016 0z" fill="#C67552" p-id="17504"></path><path d="M431.9232 690.9952c-8.8064 0-17.6128-3.2768-24.3712-10.0352-6.5536-6.5536-10.0352-15.1552-10.0352-24.3712s3.4816-17.8176 10.0352-24.3712l33.5872-33.5872c13.312-13.312 35.2256-13.312 48.7424 0 13.312 13.5168 13.312 35.2256 0 48.7424l-33.5872 33.5872c-6.7584 6.5536-15.5648 10.0352-24.3712 10.0352z m33.792-81.92c-3.4816 0-7.168 1.4336-9.8304 4.096l-33.5872 33.5872c-2.6624 2.6624-4.096 6.144-4.096 9.8304s1.4336 7.168 4.096 9.8304c5.5296 5.5296 14.336 5.5296 19.6608 0l33.5872-33.5872c5.5296-5.5296 5.5296-14.336 0-19.6608-2.8672-2.8672-6.3488-4.096-9.8304-4.096z" fill="#1C1D21" p-id="17505"></path><path d="M482.7136 640l-33.5872 33.5872c-9.4208 9.4208-9.4208 24.7808 0 34.2016s24.7808 9.4208 34.2016 0l33.5872-33.5872c9.4208-9.4208 9.4208-24.7808 0-34.2016s-24.7808-9.4208-34.2016 0z" fill="#C67552" p-id="17506"></path><path d="M466.1248 724.992c-8.8064 0-17.6128-3.2768-24.3712-10.0352-6.5536-6.5536-10.0352-15.1552-10.0352-24.3712s3.4816-17.8176 10.0352-24.3712l33.5872-33.5872c13.312-13.5168 35.2256-13.5168 48.7424 0 13.312 13.312 13.312 35.2256 0 48.7424l-33.5872 33.5872c-6.7584 6.7584-15.5648 10.0352-24.3712 10.0352z m33.5872-81.92c-3.4816 0-7.168 1.4336-9.8304 4.096l-33.5872 33.5872c-2.6624 2.6624-4.096 6.144-4.096 9.8304s1.4336 7.168 4.096 9.8304c5.5296 5.5296 14.336 5.5296 19.6608 0l33.5872-33.5872c5.5296-5.5296 5.5296-14.336 0-19.6608-2.6624-2.6624-6.144-4.096-9.8304-4.096z" fill="#1C1D21" p-id="17507"></path><path d="M643.072 282.624l-51.6096 51.6096c-20.48-20.48-53.6576-20.48-74.1376 0L429.6704 421.888c-11.8784 11.8784-11.8784 31.1296 0 43.008 8.6016 8.6016 22.528 8.6016 30.9248 0l80.0768-80.0768" fill="#C67552" p-id="17508"></path><path d="M445.2352 481.4848c-8.6016 0-16.5888-3.2768-22.7328-9.4208-15.9744-15.9744-15.9744-41.7792 0-57.5488l87.6544-87.6544c11.8784-11.8784 27.648-18.432 44.2368-18.432 13.312 0 25.8048 4.096 36.4544 11.6736l44.8512-44.8512c4.096-4.096 10.4448-4.096 14.5408 0s4.096 10.4448 0 14.5408l-51.6096 51.6096c-1.8432 1.8432-4.5056 3.072-7.168 3.072-2.6624 0-5.3248-1.024-7.168-3.072-7.9872-7.9872-18.6368-12.288-29.9008-12.288s-21.9136 4.3008-29.9008 12.288l-87.6544 87.6544c-7.9872 7.9872-7.9872 20.6848 0 28.672 2.2528 2.2528 5.12 3.4816 8.192 3.4816s6.144-1.2288 8.192-3.4816l86.2208-86.2208c4.096-4.096 10.4448-4.096 14.5408 0s4.096 10.4448 0 14.5408l-86.2208 86.2208c-5.9392 5.9392-13.9264 9.216-22.528 9.216z" fill="#1C1D21" p-id="17509"></path><path d="M831.488 496.8448h-5.3248c-51.6096 1.8432-83.3536 57.344-59.8016 103.424l62.464 123.0848 62.464-123.0848c23.3472-46.08-8.192-101.7856-59.8016-103.424z m-2.6624 106.7008c-16.7936 0-30.3104-13.5168-30.3104-30.3104 0-16.7936 13.5168-30.3104 30.3104-30.3104s30.3104 13.5168 30.3104 30.3104c0 16.5888-13.5168 30.3104-30.3104 30.3104z" fill="#FF9E5C" p-id="17510"></path><path d="M828.8256 733.5936c-3.8912 0-7.3728-2.2528-9.216-5.5296l-62.464-123.0848c-12.6976-24.9856-11.6736-54.4768 2.6624-78.848 14.1312-23.7568 38.7072-38.5024 66.1504-39.5264h5.9392c27.4432 1.024 52.0192 15.7696 66.1504 39.5264 14.336 24.3712 15.36 53.6576 2.6624 78.848l-62.464 123.0848c-2.048 3.2768-5.5296 5.5296-9.4208 5.5296z m0-226.5088h-2.2528c-20.6848 0.6144-38.5024 11.4688-49.152 29.4912-10.8544 18.2272-11.4688 40.3456-2.048 59.1872l53.4528 105.0624 53.4528-105.0624c9.6256-18.8416 8.8064-40.96-2.048-59.1872-10.6496-18.0224-28.4672-28.672-49.152-29.4912h-2.2528z" fill="#1C1D21" p-id="17511"></path><path d="M828.8256 613.7856c-22.3232 0-40.5504-18.2272-40.5504-40.5504s18.2272-40.5504 40.5504-40.5504 40.5504 18.2272 40.5504 40.5504-18.2272 40.5504-40.5504 40.5504z m0-60.8256c-11.0592 0-20.0704 9.0112-20.0704 20.0704s9.0112 20.0704 20.0704 20.0704 20.0704-9.0112 20.0704-20.0704-9.0112-20.0704-20.0704-20.0704zM828.8256 733.5936h-57.7536c-5.7344 0-10.24-4.5056-10.24-10.24s4.5056-10.24 10.24-10.24h57.7536c5.7344 0 10.24 4.5056 10.24 10.24s-4.5056 10.24-10.24 10.24zM737.8944 733.5936h-7.7824c-5.7344 0-10.24-4.5056-10.24-10.24s4.5056-10.24 10.24-10.24h7.7824c5.7344 0 10.24 4.5056 10.24 10.24s-4.5056 10.24-10.24 10.24z" fill="#1C1D21" p-id="17512"></path><path d="M132.7104 600.2688l62.464 123.0848 62.464-123.0848c23.3472-46.08-8.3968-101.5808-59.8016-103.424H192.512c-51.6096 1.6384-83.1488 57.344-59.8016 103.424z m32.1536-27.2384c0-16.7936 13.5168-30.3104 30.3104-30.3104s30.3104 13.5168 30.3104 30.3104c0 16.7936-13.5168 30.3104-30.3104 30.3104s-30.3104-13.5168-30.3104-30.3104z" fill="#FF3E63" p-id="17513"></path><path d="M195.1744 733.5936c-3.8912 0-7.3728-2.2528-9.216-5.5296l-62.464-123.0848c-12.6976-24.9856-11.6736-54.4768 2.6624-78.848 14.1312-23.7568 38.7072-38.5024 66.1504-39.5264h5.9392c27.4432 1.024 52.0192 15.7696 66.1504 39.5264 14.336 24.3712 15.36 53.6576 2.6624 78.848l-62.464 123.0848c-2.048 3.2768-5.5296 5.5296-9.4208 5.5296z m-53.4528-138.0352l53.4528 105.0624 53.4528-105.0624c9.6256-18.8416 8.8064-40.96-2.048-59.1872-10.6496-18.0224-28.4672-28.672-49.152-29.4912h-4.5056c-20.6848 0.6144-38.5024 11.4688-49.152 29.4912-10.8544 18.2272-11.4688 40.3456-2.048 59.1872z" fill="#1C1D21" p-id="17514"></path><path d="M195.1744 613.7856c-22.3232 0-40.5504-18.2272-40.5504-40.5504s18.2272-40.5504 40.5504-40.5504 40.5504 18.2272 40.5504 40.5504-18.2272 40.5504-40.5504 40.5504z m0-60.8256c-11.0592 0-20.0704 9.0112-20.0704 20.0704s9.0112 20.0704 20.0704 20.0704 20.0704-9.0112 20.0704-20.0704-9.0112-20.0704-20.0704-20.0704zM252.928 733.5936H195.1744c-5.7344 0-10.24-4.5056-10.24-10.24s4.5056-10.24 10.24-10.24h57.7536c5.7344 0 10.24 4.5056 10.24 10.24s-4.5056 10.24-10.24 10.24zM293.888 733.5936h-7.7824c-5.7344 0-10.24-4.5056-10.24-10.24s4.5056-10.24 10.24-10.24h7.7824c5.7344 0 10.24 4.5056 10.24 10.24s-4.5056 10.24-10.24 10.24z" fill="#1C1D21" p-id="17515"></path></svg>