<svg xmlns="http://www.w3.org/2000/svg" viewBox="0 0 1024 1024" version="1.1"><path d="M512 512m-501.76 0a501.76 501.76 0 1 0 1003.52 0 501.76 501.76 0 1 0-1003.52 0Z" fill="#FFECE9" p-id="15317"></path><path d="M608.256 950.6816V601.088c0-16.9984-13.7216-30.72-30.72-30.72h-84.3776v35.2256l30.3104 36.864-41.984 53.8624v-52.6336l-30.1056-21.7088v-51.6096h-65.9456c-16.9984 0-30.72 13.7216-30.72 30.72v349.5936H608.256zM263.168 570.368H71.0656c-16.9984 0-30.72 13.7216-30.72 30.72v82.1248c39.936 109.9776 117.3504 201.9328 216.6784 260.7104h36.864V601.088c0-16.9984-13.7216-30.72-30.72-30.72z" fill="#FFC5B3" p-id="15318"></path><path d="M640.4096 570.368h-64.512c15.9744 0 28.8768 12.9024 28.8768 28.8768V944.128h64.512V599.2448c0-15.9744-12.9024-28.8768-28.8768-28.8768z" fill="#C67552" p-id="15319"></path><path d="M669.2864 954.368h-64.512c-5.7344 0-10.24-4.5056-10.24-10.24V599.2448c0-10.24-8.3968-18.6368-18.6368-18.6368-5.7344 0-10.24-4.5056-10.24-10.24s4.5056-10.24 10.24-10.24h64.512c21.504 0 39.1168 17.6128 39.1168 39.1168V944.128c0 5.7344-4.7104 10.24-10.24 10.24z m-54.4768-20.48h44.032V599.2448c0-10.24-8.3968-18.6368-18.6368-18.6368h-30.3104c3.072 5.5296 4.7104 11.8784 4.7104 18.6368V933.888z" fill="#1C1D21" p-id="15320"></path><path d="M412.4672 730.9312h138.24v71.0656h-138.24z" fill="#8CEEF9" p-id="15321"></path><path d="M550.7072 730.9312h-138.24v71.0656z" fill="#FFECE9" p-id="15322"></path><path d="M550.7072 812.2368h-138.24c-5.7344 0-10.24-4.5056-10.24-10.24v-71.0656c0-5.7344 4.5056-10.24 10.24-10.24h138.24c5.7344 0 10.24 4.5056 10.24 10.24v71.0656c0 5.5296-4.7104 10.24-10.24 10.24z m-128-20.48h117.76v-50.5856h-117.76v50.5856z" fill="#1C1D21" p-id="15323"></path><path d="M481.4848 812.2368c-5.7344 0-10.24-4.5056-10.24-10.24v-71.0656c0-5.7344 4.5056-10.24 10.24-10.24s10.24 4.5056 10.24 10.24v71.0656c0 5.5296-4.5056 10.24-10.24 10.24z" fill="#1C1D21" p-id="15324"></path><path d="M325.8368 570.368h-64.512c15.9744 0 28.8768 12.9024 28.8768 28.8768V944.128h64.512V599.2448c0-15.9744-12.9024-28.8768-28.8768-28.8768z" fill="#C67552" p-id="15325"></path><path d="M354.7136 954.368h-64.512c-5.7344 0-10.24-4.5056-10.24-10.24V599.2448c0-10.24-8.3968-18.6368-18.6368-18.6368-5.7344 0-10.24-4.5056-10.24-10.24s4.5056-10.24 10.24-10.24h64.512c21.504 0 39.1168 17.6128 39.1168 39.1168V944.128c0 5.7344-4.5056 10.24-10.24 10.24z m-54.272-20.48h44.032V599.2448c0-10.24-8.3968-18.6368-18.6368-18.6368h-30.3104c3.072 5.5296 4.7104 11.8784 4.7104 18.6368V933.888z" fill="#1C1D21" p-id="15326"></path><path d="M97.8944 730.9312v64.512l138.24 6.5536v-71.0656z" fill="#8CEEF9" p-id="15327"></path><path d="M236.1344 730.9312H97.8944v64.512z" fill="#FFECE9" p-id="15328"></path><path d="M97.8944 627.712h138.24v65.3312H97.8944z" fill="#8CEEF9" p-id="15329"></path><path d="M236.1344 627.712H97.8944v65.3312z" fill="#FFECE9" p-id="15330"></path><path d="M236.1344 703.2832H97.8944c-5.7344 0-10.24-4.5056-10.24-10.24v-65.3312c0-5.7344 4.5056-10.24 10.24-10.24h138.24c5.7344 0 10.24 4.5056 10.24 10.24v65.3312c0 5.7344-4.5056 10.24-10.24 10.24z m-128-20.48h117.76v-44.8512H108.1344v44.8512z" fill="#1C1D21" p-id="15331"></path><path d="M167.1168 703.2832c-5.7344 0-10.24-4.5056-10.24-10.24v-65.3312c0-5.7344 4.5056-10.24 10.24-10.24s10.24 4.5056 10.24 10.24v65.3312c0 5.7344-4.7104 10.24-10.24 10.24zM167.1168 812.2368c-5.7344 0-10.24-4.5056-10.24-10.24v-71.0656c0-5.7344 4.5056-10.24 10.24-10.24s10.24 4.5056 10.24 10.24v71.0656c0 5.5296-4.7104 10.24-10.24 10.24z" fill="#1C1D21" p-id="15332"></path><path d="M512 1024c-136.8064 0-265.4208-53.248-362.0864-149.9136C53.248 777.4208 0 648.8064 0 512S53.248 246.5792 149.9136 149.9136C246.5792 53.248 375.1936 0 512 0s265.4208 53.248 362.0864 149.9136C970.752 246.5792 1024 375.1936 1024 512s-53.248 265.4208-149.9136 362.0864C777.4208 970.752 648.8064 1024 512 1024z m0-1003.52C241.0496 20.48 20.48 241.0496 20.48 512s220.5696 491.52 491.52 491.52 491.52-220.5696 491.52-491.52S782.9504 20.48 512 20.48z" fill="#1C1D21" p-id="15333"></path><path d="M236.1344 812.2368H102.4c-3.2768 0-6.3488-1.6384-8.3968-4.3008-1.4336-2.048-2.8672-4.3008-4.5056-6.3488l-0.2048-0.2048c-1.2288-1.6384-1.8432-3.6864-1.8432-5.7344V731.136c0-5.7344 4.5056-10.24 10.24-10.24h138.24c5.7344 0 10.24 4.5056 10.24 10.24v71.0656c0.2048 5.3248-4.3008 10.0352-10.0352 10.0352z m-128-20.48h117.76v-50.5856H108.1344v50.5856z" fill="#1C1D21" p-id="15334"></path><path d="M293.888 954.368h-36.864c-1.8432 0-3.6864-0.4096-5.12-1.4336-102.4-60.416-180.8384-154.8288-221.184-266.0352-0.4096-1.024-0.6144-2.2528-0.6144-3.4816v-82.1248c0-22.528 18.432-40.96 40.96-40.96h192.1024c22.528 0 40.96 18.432 40.96 40.96V944.128c0 5.7344-4.7104 10.24-10.24 10.24z m-34.2016-20.48h23.7568V601.088c0-11.264-9.216-20.48-20.48-20.48H71.0656c-11.264 0-20.48 9.216-20.48 20.48v80.4864c38.5024 105.0624 112.8448 194.56 209.1008 252.3136z" fill="#1C1D21" p-id="15335"></path><path d="M636.928 135.168c-178.3808 0-327.8848 124.1088-367.0016 290.6112-10.24 44.032 22.9376 86.2208 68.1984 86.2208h238.3872c31.3344 0 58.9824-20.8896 67.3792-51.2 22.3232-79.2576 95.0272-137.216 181.4528-137.216 102.4 0 185.7536 81.7152 188.416 183.5008C1011.0976 301.2608 843.3664 135.168 636.928 135.168zM1013.76 507.0848v0z" fill="#8CEEF9" p-id="15336"></path><path d="M576.512 522.24H338.1248c-24.576 0-47.5136-11.0592-62.8736-30.3104-15.36-19.456-20.8896-44.2368-15.36-68.4032 19.456-83.5584 67.3792-159.3344 134.7584-213.4016C463.0528 155.2384 549.0688 124.928 636.928 124.928c102.6048 0 199.0656 39.7312 271.9744 111.8208 72.9088 72.0896 113.664 167.936 114.8928 270.336 0 5.5296-4.5056 10.24-10.0352 10.4448-5.7344 0.2048-10.24-4.3008-10.4448-10.0352-2.4576-97.28-80.6912-173.6704-178.176-173.6704-79.4624 0-149.9136 53.4528-171.6224 129.8432-9.4208 34.4064-41.1648 58.5728-77.0048 58.5728zM636.928 145.408c-171.2128 0-318.0544 116.3264-356.9664 282.8288-4.3008 18.0224 0 36.4544 11.4688 50.9952 11.4688 14.336 28.4672 22.7328 46.8992 22.7328h238.3872c26.624 0 50.3808-18.0224 57.5488-43.6224 23.9616-85.1968 102.6048-144.7936 191.2832-144.7936 52.224 0 101.376 20.0704 138.8544 56.5248 6.7584 6.5536 12.9024 13.5168 18.6368 20.8896C932.2496 248.2176 795.648 145.408 636.928 145.408z" fill="#1C1D21" p-id="15337"></path><path d="M622.592 186.5728c-5.5296 0-10.0352-4.3008-10.24-9.8304-0.2048-5.7344 4.096-10.4448 9.8304-10.6496 4.9152-0.2048 9.8304-0.2048 14.7456-0.2048 5.7344 0 10.24 4.5056 10.24 10.24s-4.5056 10.24-10.24 10.24c-4.7104 0-9.4208 0-13.9264 0.2048h-0.4096zM309.8624 445.44c-0.8192 0-1.6384 0-2.2528-0.2048-5.5296-1.2288-9.0112-6.7584-7.5776-12.288 17.408-74.752 60.2112-142.5408 120.4224-190.8736 33.3824-26.8288 70.656-46.8992 110.7968-59.8016 12.288-3.8912 24.9856-7.168 37.6832-9.6256 5.5296-1.024 10.8544 2.4576 12.0832 7.9872 1.024 5.5296-2.4576 10.8544-7.9872 12.0832-11.8784 2.4576-23.7568 5.5296-35.4304 9.216-37.6832 12.0832-72.704 30.9248-104.2432 56.32-56.7296 45.4656-96.8704 109.1584-113.4592 179.6096-1.2288 4.3008-5.3248 7.5776-10.0352 7.5776z" fill="#DCFDFF" p-id="15338"></path><path d="M608.256 960.9216H354.7136c-5.7344 0-10.24-4.5056-10.24-10.24V601.088c0-22.528 18.432-40.96 40.96-40.96h65.9456c5.7344 0 10.24 4.5056 10.24 10.24v46.2848l25.8048 18.6368c2.6624 1.8432 4.3008 4.9152 4.3008 8.3968v22.9376l18.6368-23.7568-24.9856-30.72c-1.4336-1.8432-2.2528-4.096-2.2528-6.5536v-35.2256c0-5.7344 4.5056-10.24 10.24-10.24H577.536c22.528 0 40.96 18.432 40.96 40.96v349.5936c0 5.7344-4.5056 10.24-10.24 10.24z m-243.3024-20.48H598.016V601.088c0-11.264-9.216-20.48-20.48-20.48h-74.1376v21.2992l28.0576 33.9968c3.072 3.6864 3.072 9.0112 0.2048 12.9024L489.6768 702.464c-2.6624 3.4816-7.3728 4.7104-11.4688 3.4816-4.096-1.4336-6.9632-5.3248-6.9632-9.6256v-47.3088l-25.8048-18.6368c-2.6624-1.8432-4.3008-4.9152-4.3008-8.3968v-41.3696h-55.7056c-11.264 0-20.48 9.216-20.48 20.48v339.3536z" fill="#1C1D21" p-id="15339"></path><path d="M395.6736 697.1392c-5.7344 0-10.24-4.5056-10.24-10.24V649.216c0-5.7344 4.5056-10.24 10.24-10.24s10.24 4.5056 10.24 10.24v37.6832c0 5.5296-4.5056 10.24-10.24 10.24zM395.6736 626.0736c-5.7344 0-10.24-4.5056-10.24-10.24v-4.096c0-5.7344 4.5056-10.24 10.24-10.24s10.24 4.5056 10.24 10.24v4.096c0 5.7344-4.5056 10.24-10.24 10.24z" fill="#FFECE9" p-id="15340"></path><path d="M825.344 323.584c-44.6464 0-85.4016 15.5648-117.76 41.3696 34.4064 57.1392 54.0672 124.3136 54.0672 195.7888 0 210.3296-170.5984 380.928-380.928 380.928-79.872 0-153.8048-24.576-215.04-66.56 90.112 85.8112 211.968 138.6496 346.3168 138.6496 277.0944 0 501.76-224.6656 501.76-501.76v-4.9152c-2.6624-101.7856-86.016-183.5008-188.416-183.5008z" fill="#508DEF" p-id="15341"></path><path d="M512 1024c-132.096 0-257.6384-50.176-353.28-141.5168-3.8912-3.6864-4.3008-9.6256-0.8192-13.9264 3.2768-4.096 9.4208-4.9152 13.7216-2.048 61.8496 42.3936 134.144 64.7168 209.3056 64.7168 204.3904 0 370.688-166.2976 370.688-370.688 0-67.3792-18.2272-133.3248-52.6336-190.6688-2.6624-4.3008-1.6384-10.0352 2.4576-13.312 35.6352-28.4672 78.4384-43.6224 124.1088-43.6224 52.224 0 101.376 20.0704 138.8544 56.5248 37.2736 36.4544 58.5728 84.992 59.8016 137.0112v5.12c0 136.8064-53.248 265.4208-149.9136 362.0864C777.4208 970.752 648.8064 1024 512 1024z m-256.4096-92.5696C332.1856 978.3296 420.4544 1003.52 512 1003.52c270.9504 0 491.52-220.5696 491.52-491.52V507.0848c-2.4576-97.28-80.6912-173.4656-178.176-173.4656-37.888 0-73.9328 11.6736-104.2432 33.792 33.3824 58.7776 50.9952 125.3376 50.9952 193.3312 0 215.6544-175.5136 391.168-391.168 391.168-43.2128 0-85.4016-6.9632-125.3376-20.48z" fill="#1C1D21" p-id="15342"></path><path d="M779.264 402.6368c-3.8912 0-7.7824-2.2528-9.4208-6.144-1.6384-3.6864-3.4816-7.5776-5.12-11.264-2.4576-5.12-0.2048-11.264 4.9152-13.7216 5.12-2.4576 11.264-0.2048 13.7216 4.9152 1.8432 3.8912 3.6864 7.7824 5.3248 11.6736 2.2528 5.12 0 11.264-5.3248 13.5168-1.4336 0.8192-2.8672 1.024-4.096 1.024z" fill="#ABD1FF" p-id="15343"></path><path d="M735.232 819.8144c-2.048 0-4.096-0.6144-5.9392-1.8432-4.5056-3.2768-5.5296-9.6256-2.2528-14.336 50.7904-70.4512 77.824-153.8048 77.824-240.8448 0-35.0208-4.5056-69.8368-13.312-103.6288-1.4336-5.5296 1.8432-11.0592 7.3728-12.4928 5.5296-1.4336 11.0592 1.8432 12.4928 7.3728 9.216 35.4304 13.9264 72.0896 13.9264 108.7488 0 91.3408-28.2624 178.7904-81.7152 252.7232-2.2528 2.8672-5.3248 4.3008-8.3968 4.3008z" fill="#ABD1FF" p-id="15344"></path></svg>