<svg xmlns="http://www.w3.org/2000/svg" viewBox="0 0 1024 1024" version="1.1"><path d="M512 512m-501.76 0a501.76 501.76 0 1 0 1003.52 0 501.76 501.76 0 1 0-1003.52 0Z" fill="#8CEEF9" p-id="16118"></path><path d="M512 1024c-136.8064 0-265.4208-53.248-362.0864-149.9136C53.248 777.4208 0 648.8064 0 512S53.248 246.5792 149.9136 149.9136C246.5792 53.248 375.1936 0 512 0s265.4208 53.248 362.0864 149.9136C970.752 246.5792 1024 375.1936 1024 512s-53.248 265.4208-149.9136 362.0864C777.4208 970.752 648.8064 1024 512 1024z m0-1003.52C241.0496 20.48 20.48 241.0496 20.48 512s220.5696 491.52 491.52 491.52 491.52-220.5696 491.52-491.52S782.9504 20.48 512 20.48z" fill="#1C1D21" p-id="16119"></path><path d="M303.7184 222.6176c-132.096 94.0032-194.7648 268.288-154.4192 425.1648 15.1552 59.1872 44.4416 114.2784 84.5824 160.3584 15.36 17.6128 44.032 6.5536 43.8272-16.7936v-1.024-0.4096c0-16.7936 13.9264-30.1056 30.5152-30.1056h10.8544c62.2592 0 112.8448-50.3808 113.0496-112.8448l1.2288-356.7616c0.2048-66.7648-75.1616-106.2912-129.6384-67.584z" fill="#FF3E63" p-id="16120"></path><path d="M252.5184 826.7776c-10.0352 0-19.456-4.3008-26.4192-12.0832-41.3696-47.5136-71.2704-104.2432-86.6304-164.4544-15.1552-58.9824-16.384-122.4704-3.6864-183.9104 1.2288-5.5296 6.5536-9.0112 12.0832-7.9872 5.5296 1.2288 9.0112 6.5536 7.9872 12.0832-12.0832 58.368-10.8544 118.784 3.4816 174.6944 14.7456 57.1392 43.2128 111.0016 82.3296 156.0576 6.3488 7.168 14.1312 4.9152 16.384 4.096 4.7104-1.8432 9.6256-6.3488 9.6256-14.1312v-1.4336c0-22.3232 18.432-40.3456 40.7552-40.3456h10.8544c56.5248 0 102.6048-46.08 102.8096-102.6048l1.2288-356.7616c0-27.648-14.7456-51.6096-39.3216-64.3072-24.3712-12.4928-52.224-10.6496-74.3424 5.12-20.8896 14.9504-40.5504 32.1536-58.1632 51.4048-3.8912 4.096-10.24 4.5056-14.5408 0.6144-4.096-3.8912-4.5056-10.24-0.6144-14.5408 18.6368-20.2752 39.3216-38.5024 61.44-54.272 28.672-20.2752 64.3072-22.7328 95.6416-6.7584 31.1296 15.9744 50.3808 47.7184 50.3808 82.5344l-1.2288 356.9664c-0.2048 67.7888-55.5008 122.88-123.2896 122.88h-10.8544c-11.264 0-20.2752 9.0112-20.2752 19.8656v1.2288c0.2048 14.9504-8.8064 28.0576-22.7328 33.3824-4.5056 2.048-8.8064 2.6624-12.9024 2.6624z" fill="#1C1D21" p-id="16121"></path><path d="M155.4432 441.1392c-1.024 0-2.048-0.2048-3.072-0.4096-5.3248-1.6384-8.3968-7.3728-6.7584-12.6976 8.6016-28.0576 20.2752-55.5008 34.4064-81.1008 2.6624-4.9152 9.0112-6.7584 13.9264-3.8912 4.9152 2.6624 6.7584 9.0112 3.8912 13.9264-13.5168 24.3712-24.576 50.3808-32.768 77.2096-1.2288 4.096-5.3248 6.9632-9.6256 6.9632zM211.7632 325.632c-2.048 0-4.096-0.6144-5.9392-1.8432-4.7104-3.2768-5.7344-9.6256-2.4576-14.336 1.4336-2.048 2.8672-3.8912 4.096-5.9392 3.2768-4.5056 9.8304-5.5296 14.336-2.2528s5.5296 9.8304 2.2528 14.336c-1.4336 1.8432-2.6624 3.6864-3.8912 5.5296-2.048 3.072-5.12 4.5056-8.3968 4.5056z" fill="#1C1D21" p-id="16122"></path><path d="M263.168 336.0768c-2.2528 0-4.3008-0.6144-6.3488-2.048a10.15808 10.15808 0 0 1-1.8432-14.336c2.2528-2.8672 4.5056-5.7344 6.9632-8.6016 3.6864-4.3008 10.0352-4.9152 14.336-1.4336 4.3008 3.6864 4.9152 10.0352 1.4336 14.336-2.2528 2.6624-4.3008 5.3248-6.5536 8.192-1.8432 2.4576-4.9152 3.8912-7.9872 3.8912zM197.0176 647.7824c-4.5056 0-8.8064-3.072-9.8304-7.7824-9.6256-37.2736-12.9024-76.1856-10.24-115.5072 3.8912-55.0912 20.48-109.9776 47.5136-158.3104 2.6624-4.9152 9.0112-6.7584 13.9264-3.8912 4.9152 2.6624 6.7584 9.0112 3.8912 13.9264-25.6 45.8752-41.1648 97.6896-44.8512 149.9136-2.6624 37.2736 0.6144 73.9328 9.6256 108.9536 1.4336 5.5296-1.8432 11.0592-7.3728 12.4928-0.8192 0-1.6384 0.2048-2.6624 0.2048z" fill="#FFAEC3" p-id="16123"></path><path d="M369.8688 466.944c-2.6624 0-5.3248-1.024-7.168-3.072l-39.7312-39.7312c-4.096-4.096-4.096-10.4448 0-14.5408l36.864-36.864c4.096-4.096 10.4448-4.096 14.5408 0s4.096 10.4448 0 14.5408l-29.696 29.696 32.5632 32.5632c4.096 4.096 4.096 10.4448 0 14.5408-2.2528 2.048-4.7104 2.8672-7.3728 2.8672z" fill="#1C1D21" p-id="16124"></path><path d="M330.1376 427.2128c-2.6624 0-5.3248-1.024-7.168-3.072l-17.6128-17.6128c-4.096-4.096-4.096-10.4448 0-14.5408s10.4448-4.096 14.5408 0l17.6128 17.6128c4.096 4.096 4.096 10.4448 0 14.5408-2.2528 2.048-4.9152 3.072-7.3728 3.072zM285.2864 382.5664c-2.6624 0-5.3248-1.024-7.168-3.072l-7.5776-7.5776c-4.096-4.096-4.096-10.4448 0-14.5408s10.4448-4.096 14.5408 0l7.5776 7.5776c4.096 4.096 4.096 10.4448 0 14.5408-2.048 2.048-4.7104 3.072-7.3728 3.072zM325.632 630.1696c-2.6624 0-5.3248-1.024-7.168-3.072-4.096-4.096-4.096-10.4448 0-14.5408l30.72-30.72v-68.4032c0-5.7344 4.5056-10.24 10.24-10.24s10.24 4.5056 10.24 10.24v72.704c0 2.6624-1.024 5.3248-3.072 7.168l-33.5872 33.5872c-2.048 2.2528-4.7104 3.2768-7.3728 3.2768z" fill="#1C1D21" p-id="16125"></path><path d="M388.7104 596.5824h-29.4912c-5.7344 0-10.24-4.5056-10.24-10.24s4.5056-10.24 10.24-10.24h29.4912c5.7344 0 10.24 4.5056 10.24 10.24s-4.5056 10.24-10.24 10.24zM308.8384 555.008c-2.6624 0-5.3248-1.024-7.168-3.072-4.096-4.096-4.096-10.4448 0-14.5408l36.864-36.864c4.096-4.096 10.4448-4.096 14.5408 0s4.096 10.4448 0 14.5408l-36.864 36.864c-2.048 2.048-4.7104 3.072-7.3728 3.072zM271.7696 592.2816c-2.6624 0-5.3248-1.024-7.168-3.072-4.096-4.096-4.096-10.4448 0-14.5408l12.288-12.288c4.096-4.096 10.4448-4.096 14.5408 0s4.096 10.4448 0 14.5408l-12.288 12.288c-2.2528 2.048-4.7104 3.072-7.3728 3.072z" fill="#1C1D21" p-id="16126"></path><path d="M242.688 469.4016m-48.3328 0a48.3328 48.3328 0 1 0 96.6656 0 48.3328 48.3328 0 1 0-96.6656 0Z" fill="#C67552" p-id="16127"></path><path d="M356.1472 314.1632m-29.0816 0a29.0816 29.0816 0 1 0 58.1632 0 29.0816 29.0816 0 1 0-58.1632 0Z" fill="#C67552" p-id="16128"></path><path d="M242.688 527.9744c-32.3584 0-58.5728-26.2144-58.5728-58.5728s26.2144-58.5728 58.5728-58.5728 58.5728 26.2144 58.5728 58.5728c0 32.1536-26.2144 58.5728-58.5728 58.5728z m0-96.6656c-21.0944 0-38.0928 16.9984-38.0928 38.0928s16.9984 38.0928 38.0928 38.0928 38.0928-16.9984 38.0928-38.0928-16.9984-38.0928-38.0928-38.0928zM356.1472 353.4848c-21.7088 0-39.3216-17.6128-39.3216-39.3216s17.6128-39.3216 39.3216-39.3216 39.3216 17.6128 39.3216 39.3216-17.6128 39.3216-39.3216 39.3216z m0-57.9584c-10.4448 0-18.8416 8.3968-18.8416 18.8416s8.3968 18.8416 18.8416 18.8416 18.8416-8.3968 18.8416-18.8416-8.3968-18.8416-18.8416-18.8416z" fill="#1C1D21" p-id="16129"></path><path d="M720.2816 222.6176c132.096 94.0032 194.7648 268.288 154.4192 425.1648-15.1552 59.1872-44.4416 114.2784-84.5824 160.3584-15.36 17.6128-44.032 6.5536-43.8272-16.7936v-1.024-0.4096c0-16.7936-13.9264-30.1056-30.5152-30.1056h-10.8544c-62.2592 0-112.8448-50.3808-113.0496-112.8448l-1.2288-356.7616c-0.2048-66.7648 75.1616-106.2912 129.6384-67.584z" fill="#FF3E63" p-id="16130"></path><path d="M771.4816 826.7776c-4.096 0-8.3968-0.8192-12.4928-2.2528-13.9264-5.3248-22.9376-18.432-22.7328-33.3824v-1.2288c0-10.8544-9.216-19.8656-20.2752-19.8656h-10.8544c-67.7888 0-123.0848-55.0912-123.2896-122.88l-1.2288-356.7616c0-35.0208 19.2512-66.56 50.3808-82.5344 31.3344-16.1792 66.9696-13.7216 95.6416 6.7584 66.3552 47.3088 116.736 114.2784 145.6128 193.7408 28.672 79.2576 33.1776 163.0208 12.9024 242.0736-15.36 60.2112-45.4656 116.9408-86.6304 164.4544-7.3728 7.7824-16.9984 11.8784-27.0336 11.8784z m-98.304-609.28c-11.264 0-22.528 2.6624-33.1776 8.192-24.576 12.6976-39.3216 36.864-39.3216 64.3072l1.2288 356.7616c0.2048 56.5248 46.2848 102.6048 102.8096 102.6048h10.8544c22.528 0 40.7552 18.0224 40.7552 40.3456v1.4336c0 7.7824 4.9152 12.288 9.6256 14.1312 2.2528 0.8192 10.0352 3.072 16.384-4.096 39.1168-45.056 67.584-98.9184 82.3296-156.0576 39.3216-152.9856-22.528-323.1744-150.528-414.1056-12.288-9.0112-26.624-13.5168-40.96-13.5168z" fill="#1C1D21" p-id="16131"></path><path d="M760.832 336.0768c-3.072 0-6.144-1.4336-8.192-3.8912-2.048-2.6624-4.3008-5.5296-6.5536-8.192-3.6864-4.3008-2.8672-10.8544 1.4336-14.336 4.3008-3.6864 10.8544-2.8672 14.336 1.4336 2.2528 2.8672 4.5056 5.7344 6.9632 8.6016 3.4816 4.5056 2.6624 10.8544-1.8432 14.336-1.8432 1.2288-4.096 2.048-6.144 2.048zM826.9824 647.7824c-0.8192 0-1.6384-0.2048-2.4576-0.4096-5.5296-1.4336-8.8064-6.9632-7.3728-12.4928 9.0112-35.2256 12.288-71.8848 9.6256-108.9536-3.6864-52.224-19.2512-104.0384-44.8512-149.9136-2.6624-4.9152-1.024-11.264 3.8912-13.9264 4.9152-2.6624 11.264-1.024 13.9264 3.8912 27.0336 48.5376 43.4176 103.2192 47.5136 158.3104 2.8672 39.3216-0.6144 78.2336-10.24 115.5072-1.4336 4.9152-5.5296 7.9872-10.0352 7.9872z" fill="#FFAEC3" p-id="16132"></path><path d="M654.1312 466.944c-2.6624 0-5.3248-1.024-7.168-3.072-4.096-4.096-4.096-10.4448 0-14.5408l32.5632-32.5632-29.696-29.696c-4.096-4.096-4.096-10.4448 0-14.5408s10.4448-4.096 14.5408 0l36.864 36.864c4.096 4.096 4.096 10.4448 0 14.5408L661.504 464.0768c-2.048 2.048-4.7104 2.8672-7.3728 2.8672z" fill="#1C1D21" p-id="16133"></path><path d="M693.8624 427.2128c-2.6624 0-5.3248-1.024-7.168-3.072-4.096-4.096-4.096-10.4448 0-14.5408l17.6128-17.6128c4.096-4.096 10.4448-4.096 14.5408 0s4.096 10.4448 0 14.5408l-17.6128 17.6128c-2.048 2.048-4.7104 3.072-7.3728 3.072zM738.7136 382.5664c-2.6624 0-5.3248-1.024-7.168-3.072-4.096-4.096-4.096-10.4448 0-14.5408l7.5776-7.5776c4.096-4.096 10.4448-4.096 14.5408 0s4.096 10.4448 0 14.5408l-7.5776 7.5776c-2.2528 2.048-4.9152 3.072-7.3728 3.072zM698.368 630.1696c-2.6624 0-5.3248-1.024-7.168-3.072L657.408 593.5104c-1.8432-1.8432-3.072-4.5056-3.072-7.168v-72.704c0-5.7344 4.5056-10.24 10.24-10.24s10.24 4.5056 10.24 10.24v68.4032l30.72 30.72c4.096 4.096 4.096 10.4448 0 14.5408-2.048 1.8432-4.7104 2.8672-7.168 2.8672z" fill="#1C1D21" p-id="16134"></path><path d="M664.576 596.5824h-29.4912c-5.7344 0-10.24-4.5056-10.24-10.24s4.5056-10.24 10.24-10.24h29.4912c5.7344 0 10.24 4.5056 10.24 10.24s-4.5056 10.24-10.24 10.24zM715.1616 555.008c-2.6624 0-5.3248-1.024-7.168-3.072l-36.864-36.864c-4.096-4.096-4.096-10.4448 0-14.5408s10.4448-4.096 14.5408 0l36.864 36.864c4.096 4.096 4.096 10.4448 0 14.5408-2.2528 2.048-4.9152 3.072-7.3728 3.072zM752.2304 592.2816c-2.6624 0-5.3248-1.024-7.168-3.072l-12.288-12.288c-4.096-4.096-4.096-10.4448 0-14.5408s10.4448-4.096 14.5408 0l12.288 12.288c4.096 4.096 4.096 10.4448 0 14.5408-2.048 2.048-4.7104 3.072-7.3728 3.072z" fill="#1C1D21" p-id="16135"></path><path d="M781.312 469.4016m-48.3328 0a48.3328 48.3328 0 1 0 96.6656 0 48.3328 48.3328 0 1 0-96.6656 0Z" fill="#C67552" p-id="16136"></path><path d="M667.8528 314.1632m-29.0816 0a29.0816 29.0816 0 1 0 58.1632 0 29.0816 29.0816 0 1 0-58.1632 0Z" fill="#C67552" p-id="16137"></path><path d="M781.312 527.9744c-32.3584 0-58.5728-26.2144-58.5728-58.5728s26.2144-58.5728 58.5728-58.5728 58.5728 26.2144 58.5728 58.5728c0 32.1536-26.4192 58.5728-58.5728 58.5728z m0-96.6656c-21.0944 0-38.0928 16.9984-38.0928 38.0928s16.9984 38.0928 38.0928 38.0928 38.0928-16.9984 38.0928-38.0928-17.2032-38.0928-38.0928-38.0928zM667.8528 353.4848c-21.7088 0-39.3216-17.6128-39.3216-39.3216s17.6128-39.3216 39.3216-39.3216 39.3216 17.6128 39.3216 39.3216-17.8176 39.3216-39.3216 39.3216z m0-57.9584c-10.4448 0-18.8416 8.3968-18.8416 18.8416s8.3968 18.8416 18.8416 18.8416 18.8416-8.3968 18.8416-18.8416-8.6016-18.8416-18.8416-18.8416z" fill="#1C1D21" p-id="16138"></path><path d="M480.8704 129.024v175.7184c0 26.8288-10.6496 52.4288-29.4912 71.2704l-104.8576 104.8576c-7.5776 7.5776-7.5776 19.6608 0 27.0336 7.5776 7.5776 19.6608 7.5776 27.0336 0l121.856-121.856c4.5056-4.5056 10.4448-6.7584 16.5888-6.7584h0.2048c5.9392 0 11.8784 2.2528 16.5888 6.7584l121.856 121.856c7.5776 7.5776 19.6608 7.5776 27.0336 0 7.5776-7.5776 7.5776-19.6608 0-27.0336l-104.8576-104.8576c-18.8416-18.8416-29.4912-44.6464-29.4912-71.2704V129.024" fill="#FFC5B3" p-id="16139"></path><path d="M663.9616 523.6736c-7.5776 0-15.1552-2.8672-20.8896-8.6016L521.216 393.216c-2.4576-2.4576-5.7344-3.8912-9.216-3.8912-3.6864 0-6.9632 1.4336-9.4208 3.8912L380.928 515.072c-11.4688 11.4688-30.1056 11.4688-41.5744 0-11.4688-11.4688-11.4688-30.1056 0-41.5744l104.8576-104.8576c17.2032-17.2032 26.624-39.936 26.624-64.1024V129.024c0-5.7344 4.5056-10.24 10.24-10.24s10.24 4.5056 10.24 10.24v175.7184c0 29.696-11.4688 57.5488-32.5632 78.6432l-104.8576 104.8576c-3.4816 3.4816-3.4816 9.216 0 12.6976 3.4816 3.4816 9.216 3.4816 12.6976 0l121.856-121.856c6.3488-6.3488 14.7456-9.8304 23.7568-9.8304 9.216 0 17.6128 3.4816 23.9616 9.8304l121.856 121.856c3.4816 3.4816 9.216 3.4816 12.6976 0 3.4816-3.4816 3.4816-9.216 0-12.6976l-104.8576-104.8576c-21.0944-21.0944-32.5632-48.9472-32.5632-78.6432V129.024c0-5.7344 4.5056-10.24 10.24-10.24s10.24 4.5056 10.24 10.24v175.7184c0 24.1664 9.4208 46.8992 26.624 64.1024l104.8576 104.8576c11.4688 11.4688 11.4688 30.1056 0 41.5744-6.144 5.5296-13.7216 8.3968-21.2992 8.3968z" fill="#1C1D21" p-id="16140"></path><path d="M543.3344 185.9584h-62.2592c-5.7344 0-10.24-4.5056-10.24-10.24s4.5056-10.24 10.24-10.24h62.2592c5.7344 0 10.24 4.5056 10.24 10.24s-4.7104 10.24-10.24 10.24zM543.3344 230.1952h-62.2592c-5.7344 0-10.24-4.5056-10.24-10.24s4.5056-10.24 10.24-10.24h62.2592c5.7344 0 10.24 4.5056 10.24 10.24s-4.7104 10.24-10.24 10.24zM543.3344 274.6368h-62.2592c-5.7344 0-10.24-4.5056-10.24-10.24s4.5056-10.24 10.24-10.24h62.2592c5.7344 0 10.24 4.5056 10.24 10.24s-4.7104 10.24-10.24 10.24zM543.3344 319.0784h-62.2592c-5.7344 0-10.24-4.5056-10.24-10.24s4.5056-10.24 10.24-10.24h62.2592c5.7344 0 10.24 4.5056 10.24 10.24s-4.7104 10.24-10.24 10.24zM465.5104 426.1888c-2.6624 0-5.3248-1.024-7.168-3.072l-27.0336-27.0336c-4.096-4.096-4.096-10.4448 0-14.5408s10.4448-4.096 14.5408 0l27.0336 27.0336c4.096 4.096 4.096 10.4448 0 14.5408-2.048 2.2528-4.7104 3.072-7.3728 3.072zM432.7424 458.9568c-2.6624 0-5.3248-1.024-7.168-3.072l-27.0336-27.0336c-4.096-4.096-4.096-10.4448 0-14.5408s10.4448-4.096 14.5408 0l27.0336 27.0336c4.096 4.096 4.096 10.4448 0 14.5408-2.048 2.2528-4.7104 3.072-7.3728 3.072zM399.9744 491.7248c-2.6624 0-5.3248-1.024-7.168-3.072l-27.0336-27.0336c-4.096-4.096-4.096-10.4448 0-14.5408s10.4448-4.096 14.5408 0l27.0336 27.0336c4.096 4.096 4.096 10.4448 0 14.5408-2.048 2.2528-4.7104 3.072-7.3728 3.072zM558.4896 426.1888c-2.6624 0-5.3248-1.024-7.168-3.072-4.096-4.096-4.096-10.4448 0-14.5408l27.0336-27.0336c4.096-4.096 10.4448-4.096 14.5408 0s4.096 10.4448 0 14.5408l-27.0336 27.0336c-2.048 2.2528-4.7104 3.072-7.3728 3.072zM591.2576 458.9568c-2.6624 0-5.3248-1.024-7.168-3.072-4.096-4.096-4.096-10.4448 0-14.5408l27.0336-27.0336c4.096-4.096 10.4448-4.096 14.5408 0s4.096 10.4448 0 14.5408l-27.0336 27.0336c-2.048 2.2528-4.7104 3.072-7.3728 3.072zM624.0256 491.7248c-2.6624 0-5.3248-1.024-7.168-3.072-4.096-4.096-4.096-10.4448 0-14.5408l27.0336-27.0336c4.096-4.096 10.4448-4.096 14.5408 0s4.096 10.4448 0 14.5408l-27.0336 27.0336c-2.048 2.2528-4.7104 3.072-7.3728 3.072z" fill="#1C1D21" p-id="16141"></path></svg>