<svg xmlns="http://www.w3.org/2000/svg" viewBox="0 0 1024 1024" version="1.1"><path d="M512 512m-501.76 0a501.76 501.76 0 1 0 1003.52 0 501.76 501.76 0 1 0-1003.52 0Z" fill="#8CEEF9" p-id="16994"></path><path d="M512 1024c-136.8064 0-265.4208-53.248-362.0864-149.9136C53.248 777.4208 0 648.8064 0 512S53.248 246.5792 149.9136 149.9136C246.5792 53.248 375.1936 0 512 0s265.4208 53.248 362.0864 149.9136C970.752 246.5792 1024 375.1936 1024 512s-53.248 265.4208-149.9136 362.0864C777.4208 970.752 648.8064 1024 512 1024z m0-1003.52C241.0496 20.48 20.48 241.0496 20.48 512s220.5696 491.52 491.52 491.52 491.52-220.5696 491.52-491.52S782.9504 20.48 512 20.48z" fill="#1C1D21" p-id="16995"></path><path d="M180.224 492.7488h350.8224v38.2976H180.224z" fill="#E0E0E0" p-id="16996"></path><path d="M376.2176 541.0816h-8.192c-5.7344 0-10.24-4.5056-10.24-10.24s4.5056-10.24 10.24-10.24h8.192c5.7344 0 10.24 4.5056 10.24 10.24s-4.7104 10.24-10.24 10.24z" fill="#1C1D21" p-id="16997"></path><path d="M531.0464 541.0816h-123.2896c-5.7344 0-10.24-4.5056-10.24-10.24s4.5056-10.24 10.24-10.24h113.0496v-17.8176H190.464v17.8176h143.9744c5.7344 0 10.24 4.5056 10.24 10.24s-4.5056 10.24-10.24 10.24H180.224c-5.7344 0-10.24-4.5056-10.24-10.24v-38.2976c0-5.7344 4.5056-10.24 10.24-10.24h350.8224c5.7344 0 10.24 4.5056 10.24 10.24v38.2976c0 5.7344-4.5056 10.24-10.24 10.24z" fill="#1C1D21" p-id="16998"></path><path d="M492.9536 180.4288h38.2976v350.8224h-38.2976z" fill="#E0E0E0" p-id="16999"></path><path d="M492.9536 389.12c-5.7344 0-10.24-4.5056-10.24-10.24v-6.144c0-5.7344 4.5056-10.24 10.24-10.24s10.24 4.5056 10.24 10.24v6.144c0 5.7344-4.7104 10.24-10.24 10.24z" fill="#1C1D21" p-id="17000"></path><path d="M531.0464 541.4912h-38.2976c-5.7344 0-10.24-4.5056-10.24-10.24v-123.2896c0-5.7344 4.5056-10.24 10.24-10.24s10.24 4.5056 10.24 10.24v113.0496h17.8176V190.6688h-17.8176v146.0224c0 5.7344-4.5056 10.24-10.24 10.24s-10.24-4.5056-10.24-10.24V180.4288c0-5.7344 4.5056-10.24 10.24-10.24h38.2976c5.7344 0 10.24 4.5056 10.24 10.24v350.8224c0 5.5296-4.5056 10.24-10.24 10.24z" fill="#1C1D21" p-id="17001"></path><path d="M492.9536 492.7488H843.776v38.2976H492.9536z" fill="#E0E0E0" p-id="17002"></path><path d="M660.0704 502.9888h-10.24c-5.7344 0-10.24-4.5056-10.24-10.24s4.5056-10.24 10.24-10.24h10.24c5.7344 0 10.24 4.5056 10.24 10.24s-4.5056 10.24-10.24 10.24z" fill="#1C1D21" p-id="17003"></path><path d="M843.776 541.0816H492.9536c-5.7344 0-10.24-4.5056-10.24-10.24v-38.2976c0-5.7344 4.5056-10.24 10.24-10.24H612.352c5.7344 0 10.24 4.5056 10.24 10.24s-4.5056 10.24-10.24 10.24h-109.1584v17.8176H833.536v-17.8176h-141.312c-5.7344 0-10.24-4.5056-10.24-10.24s4.5056-10.24 10.24-10.24h151.552c5.7344 0 10.24 4.5056 10.24 10.24v38.2976c0 5.7344-4.7104 10.24-10.24 10.24z" fill="#1C1D21" p-id="17004"></path><path d="M492.9536 492.7488h38.2976v350.8224h-38.2976z" fill="#E0E0E0" p-id="17005"></path><path d="M531.0464 853.8112h-38.2976c-5.7344 0-10.24-4.5056-10.24-10.24V492.7488c0-5.7344 4.5056-10.24 10.24-10.24h38.2976c5.7344 0 10.24 4.5056 10.24 10.24v130.4576c0 5.7344-4.5056 10.24-10.24 10.24s-10.24-4.5056-10.24-10.24v-120.2176h-17.8176v330.3424h17.8176v-144.5888c0-5.7344 4.5056-10.24 10.24-10.24s10.24 4.5056 10.24 10.24v154.8288c0 5.5296-4.5056 10.24-10.24 10.24z" fill="#1C1D21" p-id="17006"></path><path d="M531.0464 671.3344c-5.7344 0-10.24-4.5056-10.24-10.24v-3.072c0-5.7344 4.5056-10.24 10.24-10.24s10.24 4.5056 10.24 10.24v3.072c0 5.5296-4.5056 10.24-10.24 10.24z" fill="#1C1D21" p-id="17007"></path><path d="M201.9328 379.4944c-11.8784 0-21.504 9.6256-21.504 21.504v130.048h126.1568v-66.7648c0-11.8784 9.6256-21.504 21.504-21.504s21.504-9.6256 21.504-21.504V305.152c0-11.264-9.216-20.48-20.48-20.48h-85.1968c-11.264 0-20.48 9.216-20.48 20.48v52.8384c0 11.8784-9.6256 21.504-21.504 21.504z" fill="#0ABFB2" p-id="17008"></path><path d="M226.304 500.3264H221.184c-5.7344 0-10.24-4.5056-10.24-10.24s4.5056-10.24 10.24-10.24h5.12c5.7344 0 10.24 4.5056 10.24 10.24s-4.5056 10.24-10.24 10.24zM305.152 500.3264h-46.08c-5.7344 0-10.24-4.5056-10.24-10.24s4.5056-10.24 10.24-10.24H305.152c5.7344 0 10.24 4.5056 10.24 10.24s-4.5056 10.24-10.24 10.24z" fill="#8CEEF9" p-id="17009"></path><path d="M644.3008 202.1376c0-11.8784-9.6256-21.504-21.504-21.504h-130.048v126.1568h66.7648c11.8784 0 21.504 9.6256 21.504 21.504s9.6256 21.504 21.504 21.504H718.848c11.264 0 20.48-9.216 20.48-20.48v-85.1968c0-11.264-9.216-20.48-20.48-20.48h-52.8384c-11.8784 0-21.7088-9.6256-21.7088-21.504z" fill="#508DEF" p-id="17010"></path><path d="M822.0672 644.3008c11.8784 0 21.504-9.6256 21.504-21.504v-130.048h-126.1568v66.7648c0 11.8784-9.6256 21.504-21.504 21.504s-21.504 9.6256-21.504 21.504V718.848c0 11.264 9.216 20.48 20.48 20.48h85.1968c11.264 0 20.48-9.216 20.48-20.48v-52.8384c0-12.0832 9.6256-21.7088 21.504-21.7088z" fill="#FF3E63" p-id="17011"></path><path d="M379.6992 822.0672c0 11.8784 9.6256 21.504 21.504 21.504h130.048v-126.1568h-66.7648c-11.8784 0-21.504-9.6256-21.504-21.504s-9.6256-21.504-21.504-21.504H305.152c-11.264 0-20.48 9.216-20.48 20.48v85.1968c0 11.264 9.216 20.48 20.48 20.48h52.8384c11.8784 0 21.7088 9.6256 21.7088 21.504z" fill="#FF8939" p-id="17012"></path><path d="M512 510.1568m-76.3904 0a76.3904 76.3904 0 1 0 152.7808 0 76.3904 76.3904 0 1 0-152.7808 0Z" fill="#E0E0E0" p-id="17013"></path><path d="M512 596.5824c-47.7184 0-86.6304-38.912-86.6304-86.6304s38.912-86.6304 86.6304-86.6304 86.6304 38.912 86.6304 86.6304-38.912 86.6304-86.6304 86.6304z m0-152.576c-36.4544 0-66.1504 29.696-66.1504 66.1504s29.696 66.1504 66.1504 66.1504 66.1504-29.696 66.1504-66.1504-29.696-66.1504-66.1504-66.1504z" fill="#1C1D21" p-id="17014"></path><path d="M476.5696 520.3968c-5.7344 0-10.24-4.5056-10.24-10.24 0-25.1904 20.48-45.6704 45.6704-45.6704 5.7344 0 10.24 4.5056 10.24 10.24s-4.5056 10.24-10.24 10.24c-13.9264 0-25.1904 11.264-25.1904 25.1904 0 5.5296-4.5056 10.24-10.24 10.24z" fill="#FFFFFF" p-id="17015"></path><path d="M306.5856 541.2864H180.224c-5.7344 0-10.24-4.5056-10.24-10.24v-130.048c0-17.6128 14.336-31.744 31.744-31.744 6.144 0 11.264-5.12 11.264-11.264V305.152c0-16.9984 13.7216-30.72 30.72-30.72h85.1968c16.9984 0 30.72 13.7216 30.72 30.72v116.1216c0 17.6128-14.336 31.744-31.744 31.744-6.144 0-11.264 5.12-11.264 11.264v66.7648c0.2048 5.7344-4.5056 10.24-10.0352 10.24z m-116.1216-20.48h105.6768v-56.5248c0-17.6128 14.336-31.744 31.744-31.744 6.144 0 11.264-5.12 11.264-11.264V305.152c0-5.7344-4.5056-10.24-10.24-10.24H243.712c-5.7344 0-10.24 4.5056-10.24 10.24v52.8384c0 17.6128-14.336 31.744-31.744 31.744-6.144 0-11.264 5.12-11.264 11.264v119.808z" fill="#1C1D21" p-id="17016"></path><path d="M533.9136 236.7488c-5.7344 0-10.24-4.5056-10.24-10.24v-5.12c0-5.7344 4.5056-10.24 10.24-10.24s10.24 4.5056 10.24 10.24v5.12c0 5.7344-4.7104 10.24-10.24 10.24zM533.9136 315.5968c-5.7344 0-10.24-4.5056-10.24-10.24v-46.08c0-5.7344 4.5056-10.24 10.24-10.24s10.24 4.5056 10.24 10.24v46.08c0 5.7344-4.7104 10.24-10.24 10.24z" fill="#ABD1FF" p-id="17017"></path><path d="M718.848 360.0384h-116.1216c-17.6128 0-31.744-14.336-31.744-31.744 0-6.144-5.12-11.264-11.264-11.264h-66.7648c-5.7344 0-10.24-4.5056-10.24-10.24V180.4288c0-5.7344 4.5056-10.24 10.24-10.24h130.048c17.6128 0 31.744 14.336 31.744 31.744 0 6.144 5.12 11.264 11.264 11.264H718.848c16.9984 0 30.72 13.7216 30.72 30.72v85.1968c0 17.2032-13.7216 30.9248-30.72 30.9248z m-215.6544-63.488h56.5248c17.6128 0 31.744 14.336 31.744 31.744 0 6.144 5.12 11.264 11.264 11.264H718.848c5.7344 0 10.24-4.5056 10.24-10.24v-85.1968c0-5.7344-4.5056-10.24-10.24-10.24h-52.8384c-17.6128 0-31.744-14.336-31.744-31.744 0-6.144-5.12-11.264-11.264-11.264h-119.808v105.6768z" fill="#1C1D21" p-id="17018"></path><path d="M802.816 543.9488h-5.12c-5.7344 0-10.24-4.5056-10.24-10.24s4.5056-10.24 10.24-10.24h5.12c5.7344 0 10.24 4.5056 10.24 10.24s-4.7104 10.24-10.24 10.24zM764.928 543.9488H718.848c-5.7344 0-10.24-4.5056-10.24-10.24s4.5056-10.24 10.24-10.24h46.08c5.7344 0 10.24 4.5056 10.24 10.24s-4.5056 10.24-10.24 10.24z" fill="#FFAEC3" p-id="17019"></path><path d="M780.0832 749.568h-85.1968c-16.9984 0-30.72-13.7216-30.72-30.72v-116.1216c0-17.6128 14.336-31.744 31.744-31.744 6.144 0 11.264-5.12 11.264-11.264v-66.7648c0-5.7344 4.5056-10.24 10.24-10.24H843.776c5.7344 0 10.24 4.5056 10.24 10.24v130.048c0 17.6128-14.336 31.744-31.744 31.744-6.144 0-11.264 5.12-11.264 11.264V718.848c-0.2048 16.7936-13.9264 30.72-30.9248 30.72z m-52.4288-246.5792v56.5248c0 17.6128-14.336 31.744-31.744 31.744-6.144 0-11.264 5.12-11.264 11.264V718.848c0 5.7344 4.5056 10.24 10.24 10.24h85.1968c5.7344 0 10.24-4.5056 10.24-10.24v-52.8384c0-17.6128 14.336-31.744 31.744-31.744 6.144 0 11.264-5.12 11.264-11.264v-119.808h-105.6768z" fill="#1C1D21" p-id="17020"></path><path d="M490.0864 812.8512c-5.7344 0-10.24-4.5056-10.24-10.24v-5.12c0-5.7344 4.5056-10.24 10.24-10.24s10.24 4.5056 10.24 10.24v5.12c0 5.7344-4.5056 10.24-10.24 10.24zM490.0864 775.168c-5.7344 0-10.24-4.5056-10.24-10.24V718.848c0-5.7344 4.5056-10.24 10.24-10.24s10.24 4.5056 10.24 10.24v46.08c0 5.5296-4.5056 10.24-10.24 10.24z" fill="#FFC5B3" p-id="17021"></path><path d="M531.0464 853.8112h-130.048c-17.6128 0-31.744-14.336-31.744-31.744 0-6.144-5.12-11.264-11.264-11.264H305.152c-16.9984 0-30.72-13.7216-30.72-30.72v-85.1968c0-16.9984 13.7216-30.72 30.72-30.72h116.1216c17.6128 0 31.744 14.336 31.744 31.744 0 6.144 5.12 11.264 11.264 11.264h66.7648c5.7344 0 10.24 4.5056 10.24 10.24v126.1568c0 5.7344-4.5056 10.24-10.24 10.24zM305.152 684.4416c-5.7344 0-10.24 4.5056-10.24 10.24v85.1968c0 5.7344 4.5056 10.24 10.24 10.24h52.8384c17.6128 0 31.744 14.336 31.744 31.744 0 6.144 5.12 11.264 11.264 11.264h119.808v-105.6768h-56.5248c-17.6128 0-31.744-14.336-31.744-31.744 0-6.144-5.12-11.264-11.264-11.264H305.152z" fill="#1C1D21" p-id="17022"></path></svg>