<svg xmlns="http://www.w3.org/2000/svg" viewBox="0 0 1024 1024" version="1.1"><path d="M512 512m-501.76 0a501.76 501.76 0 1 0 1003.52 0 501.76 501.76 0 1 0-1003.52 0Z" fill="#FFECE9" p-id="16570"></path><path d="M512 1024c-136.8064 0-265.4208-53.248-362.0864-149.9136S0 648.8064 0 512 53.248 246.5792 149.9136 149.9136 375.1936 0 512 0s265.4208 53.248 362.0864 149.9136S1024 375.1936 1024 512s-53.248 265.4208-149.9136 362.0864S648.8064 1024 512 1024z m0-1003.52C241.0496 20.48 20.48 241.0496 20.48 512s220.5696 491.52 491.52 491.52 491.52-220.5696 491.52-491.52S782.9504 20.48 512 20.48z" fill="#1C1D21" p-id="16571"></path><path d="M450.3552 763.4944V455.68c0-17.408-14.1312-31.5392-31.5392-31.5392h-172.8512c-17.408 0-31.5392 14.1312-31.5392 31.5392v307.6096c0 12.4928 10.0352 22.528 22.528 22.528H428.032c12.288 0 22.3232-10.0352 22.3232-22.3232z" fill="#8CEEF9" p-id="16572"></path><path d="M389.9392 373.5552H274.432c-11.8784 0-21.504 9.6256-21.504 21.504v29.2864h158.3104v-29.2864c0.2048-11.8784-9.4208-21.504-21.2992-21.504z" fill="#AAADAD" p-id="16573"></path><path d="M411.4432 434.3808h-158.3104c-5.7344 0-10.24-4.5056-10.24-10.24v-29.2864c0-17.408 14.1312-31.744 31.744-31.744h115.5072c17.408 0 31.744 14.1312 31.744 31.744v29.2864c-0.2048 5.7344-4.7104 10.24-10.4448 10.24z m-148.0704-20.48h137.8304v-19.0464c0-6.144-5.12-11.264-11.264-11.264H274.432c-6.144 0-11.264 5.12-11.264 11.264v19.0464z" fill="#1C1D21" p-id="16574"></path><path d="M427.8272 796.0576h-191.0784c-18.0224 0-32.768-14.7456-32.768-32.768V455.68c0-22.9376 18.6368-41.7792 41.7792-41.7792h172.8512c22.9376 0 41.7792 18.6368 41.7792 41.7792v307.6096c0.2048 18.2272-14.5408 32.768-32.5632 32.768z m-181.8624-361.6768c-11.6736 0-21.2992 9.6256-21.2992 21.2992v307.6096c0 6.7584 5.5296 12.288 12.288 12.288H428.032c6.7584 0 12.288-5.5296 12.288-12.288V455.68c0-11.6736-9.6256-21.2992-21.2992-21.2992h-173.056z" fill="#1C1D21" p-id="16575"></path><path d="M236.7488 785.8176h191.0784c12.4928 0 22.528-10.0352 22.528-22.528V507.904c-1.4336 9.4208-9.6256 16.7936-19.456 16.7936-10.8544 0-19.6608-8.8064-19.6608-19.6608 0 10.8544-8.8064 19.6608-19.6608 19.6608s-19.6608-8.8064-19.6608-19.6608c0 10.8544-8.8064 19.6608-19.6608 19.6608s-19.6608-8.8064-19.6608-19.6608c0 10.8544-8.8064 19.6608-19.6608 19.6608s-19.6608-8.8064-19.6608-19.6608c0 10.8544-8.8064 19.6608-19.6608 19.6608s-19.6608-8.8064-19.6608-19.6608c0 10.8544-8.8064 19.6608-19.6608 19.6608-8.8064 0-16.384-5.7344-18.8416-13.7216v252.3136c-1.024 12.4928 9.0112 22.528 21.2992 22.528z" fill="#508DEF" p-id="16576"></path><path d="M353.6896 246.784l-12.9024 12.9024c-7.9872 7.9872-7.9872 20.8896 0 28.8768l17.408 17.408 41.984-41.984-17.408-17.408c-8.192-7.7824-21.0944-7.7824-29.0816 0.2048z" fill="#AAADAD" p-id="16577"></path><path d="M742.4 555.4176L649.216 648.3968l-294.912-294.912c-12.0832-12.0832-12.0832-31.5392 0-43.4176l49.5616-49.5616c12.0832-12.0832 31.5392-12.0832 43.4176 0l295.1168 294.912z" fill="#8CEEF9" p-id="16578"></path><path d="M395.264 346.7264c-2.6624 0-5.3248-1.024-7.168-3.072l-4.7104-4.7104c-4.096-4.096-4.096-10.4448 0-14.5408s10.4448-4.096 14.5408 0l4.7104 4.7104c4.096 4.096 4.096 10.4448 0 14.5408-2.2528 2.048-4.9152 3.072-7.3728 3.072zM649.216 600.8832c-2.6624 0-5.3248-1.024-7.168-3.072L419.4304 375.1936c-4.096-4.096-4.096-10.4448 0-14.5408s10.4448-4.096 14.5408 0l222.6176 222.6176c4.096 4.096 4.096 10.4448 0 14.5408-2.048 2.048-4.7104 3.072-7.3728 3.072z" fill="#DCFDFF" p-id="16579"></path><path d="M779.264 518.5536L612.352 685.4656c-8.192 8.192-8.192 21.7088 0 29.9008s21.7088 8.192 29.9008 0l166.912-166.912c8.192-8.192 8.192-21.7088 0-29.9008-8.192-8.3968-21.7088-8.3968-29.9008 0zM839.8848 644.5056l-101.5808 101.5808c-9.0112 9.0112-9.0112 23.9616 0 32.9728 9.0112 9.0112 23.9616 9.0112 32.9728 0l101.5808-101.5808c9.0112-9.0112 9.0112-23.9616 0-32.9728-9.0112-9.216-23.7568-9.216-32.9728 0z" fill="#8CEEF9" p-id="16580"></path><path d="M704.065536 653.49632l43.153408-43.155456 63.2832 63.2832-43.15136 43.155456z" fill="#8CEEF9" p-id="16581"></path><path d="M490.518528 489.588736l93.116416-93.114368 158.861312 158.859264-93.116416 93.116416z" fill="#508DEF" p-id="16582"></path><path d="M649.216 658.6368c-2.6624 0-5.3248-1.024-7.168-3.072l-295.1168-294.912c-15.9744-15.9744-15.9744-41.984 0-57.9584l49.5616-49.5616c7.7824-7.7824 18.0224-12.0832 28.8768-12.0832 10.8544 0 21.2992 4.3008 28.8768 12.0832 4.096 4.096 4.096 10.4448 0 14.5408s-10.4448 4.096-14.5408 0c-7.9872-7.9872-20.8896-7.9872-28.8768 0l-49.5616 49.5616c-7.9872 7.9872-7.9872 20.8896 0 28.8768L649.216 634.0608l78.6432-78.6432-227.9424-227.9424c-4.096-4.096-4.096-10.4448 0-14.5408s10.4448-4.096 14.5408 0L749.568 548.2496c4.096 4.096 4.096 10.4448 0 14.5408l-93.184 93.184c-1.8432 1.8432-4.5056 2.6624-7.168 2.6624z" fill="#1C1D21" p-id="16583"></path><path d="M480.4608 303.9232c-2.6624 0-5.3248-1.024-7.168-3.072l-6.7584-6.7584c-4.096-4.096-4.096-10.4448 0-14.5408s10.4448-4.096 14.5408 0l6.7584 6.7584c4.096 4.096 4.096 10.4448 0 14.5408-2.048 2.048-4.7104 3.072-7.3728 3.072zM649.216 658.6368c-2.6624 0-5.3248-1.024-7.168-3.072L483.328 496.8448c-1.8432-1.8432-3.072-4.5056-3.072-7.168s1.024-5.3248 3.072-7.168l93.184-93.184c1.8432-1.8432 4.5056-3.072 7.168-3.072s5.3248 1.024 7.168 3.072l158.72 158.72c4.096 4.096 4.096 10.4448 0 14.5408l-93.184 93.184c-1.8432 2.048-4.5056 2.8672-7.168 2.8672z m-144.1792-168.96l144.384 144.384 78.6432-78.6432-144.384-144.384-78.6432 78.6432z" fill="#1C1D21" p-id="16584"></path><path d="M627.3024 731.7504c-7.9872 0-16.1792-3.072-22.1184-9.216-12.288-12.288-12.288-32.1536 0-44.4416l166.912-166.912c5.9392-5.9392 13.7216-9.216 22.1184-9.216s16.1792 3.2768 22.1184 9.216c12.288 12.288 12.288 32.1536 0 44.4416l-166.912 166.912c-5.9392 6.144-13.9264 9.216-22.1184 9.216z m166.912-209.1008c-2.8672 0-5.7344 1.2288-7.7824 3.2768l-166.912 166.912c-4.3008 4.3008-4.3008 11.264 0 15.36 4.3008 4.3008 11.264 4.3008 15.36 0l166.912-166.912c4.3008-4.3008 4.3008-11.264 0-15.36-1.8432-2.2528-4.7104-3.2768-7.5776-3.2768zM754.8928 796.0576c-9.0112 0-17.408-3.4816-23.7568-9.8304-6.3488-6.3488-9.8304-14.7456-9.8304-23.7568 0-9.0112 3.4816-17.408 9.8304-23.7568l101.5808-101.5808c6.3488-6.3488 14.7456-9.8304 23.7568-9.8304 9.0112 0 17.408 3.4816 23.7568 9.8304 6.3488 6.3488 9.8304 14.7456 9.8304 23.7568 0 9.0112-3.4816 17.408-9.8304 23.7568l-101.5808 101.5808c-6.3488 6.3488-14.9504 9.8304-23.7568 9.8304z m101.5808-148.2752c-3.2768 0-6.7584 1.2288-9.216 3.8912l-101.5808 101.5808c-5.12 5.12-5.12 13.312 0 18.432 2.4576 2.4576 5.7344 3.8912 9.216 3.8912 3.4816 0 6.7584-1.4336 9.216-3.8912l101.5808-101.5808c2.4576-2.4576 3.8912-5.7344 3.8912-9.216 0-3.4816-1.4336-6.7584-3.8912-9.216-2.6624-2.4576-5.9392-3.8912-9.216-3.8912zM358.1952 316.416c-2.6624 0-5.3248-1.024-7.168-3.072l-17.408-17.408c-11.8784-11.8784-11.8784-31.5392 0-43.4176l12.9024-12.9024c11.8784-11.8784 31.5392-11.8784 43.4176 0l17.408 17.408c4.096 4.096 4.096 10.4448 0 14.5408L365.3632 313.344c-2.048 2.048-4.7104 3.072-7.168 3.072z m2.6624-62.2592l-12.9024 12.9024c-1.8432 1.8432-3.072 4.5056-3.072 7.168 0 2.6624 1.024 5.3248 3.072 7.168l10.24 10.24 27.4432-27.4432-10.24-10.24c-4.096-3.8912-10.4448-3.8912-14.5408 0.2048z" fill="#1C1D21" p-id="16585"></path><path d="M347.136 263.5776c-2.6624 0-5.3248-1.024-7.168-3.072l-50.9952-50.9952c-4.096-4.096-4.096-10.4448 0-14.5408s10.4448-4.096 14.5408 0l50.9952 50.9952c4.096 4.096 4.096 10.4448 0 14.5408-2.048 2.048-4.7104 3.072-7.3728 3.072zM767.5904 727.04c-2.6624 0-5.3248-1.024-7.168-3.072l-63.2832-63.2832c-4.096-4.096-4.096-10.4448 0-14.5408l43.2128-43.2128c1.8432-1.8432 4.5056-3.072 7.168-3.072s5.3248 1.024 7.168 3.072l63.2832 63.2832c4.096 4.096 4.096 10.4448 0 14.5408l-43.2128 43.2128c-1.8432 2.048-4.5056 3.072-7.168 3.072z m-48.9472-73.5232l48.9472 48.9472 28.672-28.672-48.9472-48.9472-28.672 28.672zM423.5264 432.9472c-2.6624 0-5.3248-1.024-7.168-3.072-4.096-4.096-4.096-10.4448 0-14.5408l16.7936-16.7936c4.096-4.096 10.4448-4.096 14.5408 0s4.096 10.4448 0 14.5408l-16.7936 16.7936c-2.048 2.048-4.7104 3.072-7.3728 3.072zM457.1136 466.5344c-2.6624 0-5.3248-1.024-7.168-3.072-4.096-4.096-4.096-10.4448 0-14.5408l16.7936-16.7936c4.096-4.096 10.4448-4.096 14.5408 0s4.096 10.4448 0 14.5408l-16.7936 16.7936c-2.2528 2.048-4.9152 3.072-7.3728 3.072zM490.496 499.9168c-2.6624 0-5.3248-1.024-7.168-3.072-4.096-4.096-4.096-10.4448 0-14.5408l16.7936-16.7936c4.096-4.096 10.4448-4.096 14.5408 0s4.096 10.4448 0 14.5408l-16.7936 16.7936c-2.2528 2.048-4.7104 3.072-7.3728 3.072zM390.144 399.5648c-2.6624 0-5.3248-1.024-7.168-3.072-4.096-4.096-4.096-10.4448 0-14.5408l16.7936-16.7936c4.096-4.096 10.4448-4.096 14.5408 0s4.096 10.4448 0 14.5408l-16.7936 16.7936c-2.2528 2.048-4.7104 3.072-7.3728 3.072zM272.7936 189.0304c-2.6624 0-5.3248-1.024-7.168-3.072l-7.7824-7.7824c-4.096-4.096-4.096-10.4448 0-14.5408s10.4448-4.096 14.5408 0l7.7824 7.7824c4.096 4.096 4.096 10.4448 0 14.5408-2.2528 2.2528-4.7104 3.072-7.3728 3.072z" fill="#1C1D21" p-id="16586"></path><path d="M649.216 600.8832c-2.6624 0-5.3248-1.024-7.168-3.072L548.864 504.6272c-4.096-4.096-4.096-10.4448 0-14.5408s10.4448-4.096 14.5408 0l93.184 93.184c4.096 4.096 4.096 10.4448 0 14.5408-2.048 2.048-4.7104 3.072-7.3728 3.072z" fill="#508DEF" p-id="16587"></path><path d="M557.4656 566.8864c-2.6624 0-5.3248-1.024-7.168-3.072-4.096-4.096-4.096-10.4448 0-14.5408l16.7936-16.7936c4.096-4.096 10.4448-4.096 14.5408 0s4.096 10.4448 0 14.5408l-16.7936 16.7936c-2.2528 2.048-4.9152 3.072-7.3728 3.072zM590.848 600.2688c-2.6624 0-5.3248-1.024-7.168-3.072-4.096-4.096-4.096-10.4448 0-14.5408l16.7936-16.7936c4.096-4.096 10.4448-4.096 14.5408 0s4.096 10.4448 0 14.5408l-16.7936 16.7936c-2.048 2.048-4.7104 3.072-7.3728 3.072z" fill="#1C1D21" p-id="16588"></path><path d="M91.5456 785.8176C181.0432 923.0336 335.872 1013.76 512 1013.76s330.9568-90.7264 420.4544-227.9424H91.5456z" fill="#0ABFB2" p-id="16589"></path><path d="M512 1024c-173.6704 0-334.0288-87.04-429.056-232.6528-2.048-3.072-2.2528-7.168-0.4096-10.4448s5.3248-5.3248 9.0112-5.3248h840.9088c3.6864 0 7.168 2.048 9.0112 5.3248s1.6384 7.3728-0.4096 10.4448C846.0288 936.96 685.6704 1024 512 1024zM110.7968 796.0576C203.1616 926.3104 351.6416 1003.52 512 1003.52s308.8384-77.2096 401.2032-207.4624H110.7968zM523.8784 533.2992c-2.6624 0-5.3248-1.024-7.168-3.072-4.096-4.096-4.096-10.4448 0-14.5408l16.7936-16.7936c4.096-4.096 10.4448-4.096 14.5408 0s4.096 10.4448 0 14.5408l-16.7936 16.7936c-2.048 2.2528-4.7104 3.072-7.3728 3.072z" fill="#1C1D21" p-id="16590"></path><path d="M253.1328 755.0976c-5.7344 0-10.24-4.5056-10.24-10.24V519.9872c0-5.7344 4.5056-10.24 10.24-10.24s10.24 4.5056 10.24 10.24v224.8704c0 5.7344-4.7104 10.24-10.24 10.24z" fill="#508DEF" p-id="16591"></path><path d="M253.1328 530.2272c-5.7344 0-10.24-4.5056-10.24-10.24v-56.32c0-5.7344 4.5056-10.24 10.24-10.24s10.24 4.5056 10.24 10.24v56.32c0 5.5296-4.7104 10.24-10.24 10.24z" fill="#DCFDFF" p-id="16592"></path><path d="M427.8272 796.0576h-191.0784c-18.0224 0-32.768-14.7456-32.768-32.768V510.976c0-5.12 3.6864-9.4208 8.6016-10.0352 4.9152-0.8192 9.8304 2.2528 11.264 6.9632 1.2288 3.8912 4.9152 6.5536 9.0112 6.5536 5.3248 0 9.4208-4.096 9.4208-9.4208 0-5.7344 4.5056-10.24 10.24-10.24s10.24 4.5056 10.24 10.24c0 5.12 4.3008 9.4208 9.4208 9.4208s9.4208-4.096 9.4208-9.4208c0-5.7344 4.5056-10.24 10.24-10.24s10.24 4.5056 10.24 10.24c0 5.12 4.3008 9.4208 9.4208 9.4208s9.4208-4.096 9.4208-9.4208c0-5.7344 4.5056-10.24 10.24-10.24s10.24 4.5056 10.24 10.24c0 5.12 4.3008 9.4208 9.4208 9.4208s9.4208-4.096 9.4208-9.4208c0-4.3008 2.6624-8.192 6.7584-9.6256 1.2288-0.4096 2.4576-0.6144 3.6864-0.6144 5.5296 0 10.24 4.7104 10.24 10.24 0 5.12 4.3008 9.4208 9.4208 9.4208s9.4208-4.096 9.4208-9.4208c0-5.7344 4.5056-10.24 10.24-10.24s10.24 4.5056 10.24 10.24c0 5.12 4.3008 9.4208 9.4208 9.4208 4.7104 0 8.8064-3.4816 9.4208-7.9872 0.8192-5.3248 5.5296-9.216 10.8544-8.8064 5.3248 0.4096 9.4208 4.9152 9.4208 10.24v255.5904c1.2288 18.0224-13.5168 32.5632-31.5392 32.5632z m-203.1616-262.3488v229.7856c0 6.7584 5.5296 12.288 12.288 12.288H428.032c6.7584 0 12.288-5.5296 12.288-12.288V533.504c-2.8672 1.024-6.144 1.4336-9.216 1.4336-7.5776 0-14.5408-2.8672-19.6608-7.3728-5.3248 4.5056-12.288 7.3728-19.6608 7.3728-7.5776 0-14.5408-2.8672-19.8656-7.3728-5.3248 4.7104-12.288 7.3728-19.8656 7.3728-7.5776 0-14.5408-2.8672-19.6608-7.3728-5.3248 4.5056-12.288 7.3728-19.6608 7.3728s-14.5408-2.8672-19.6608-7.3728c-5.3248 4.5056-12.288 7.3728-19.6608 7.3728s-14.5408-2.8672-19.6608-7.3728c-5.3248 4.5056-12.288 7.3728-19.6608 7.3728-3.8912 0-6.7584-0.4096-9.4208-1.2288z" fill="#1C1D21" p-id="16593"></path><path d="M374.9888 629.9648H352.256v-22.7328c0-11.0592-9.0112-19.8656-19.8656-19.8656-11.0592 0-19.8656 9.0112-19.8656 19.8656v22.7328h-22.7328c-11.0592 0-19.8656 9.0112-19.8656 19.8656 0 11.0592 9.0112 19.8656 19.8656 19.8656h22.7328v22.7328c0 11.0592 9.0112 19.8656 19.8656 19.8656 11.0592 0 19.8656-9.0112 19.8656-19.8656V669.696h22.7328c11.0592 0 19.8656-9.0112 19.8656-19.8656 0.2048-10.8544-8.8064-19.8656-19.8656-19.8656z" fill="#FFFFFF" p-id="16594"></path><path d="M332.3904 722.944c-16.5888 0-30.1056-13.5168-30.1056-30.1056v-12.4928h-12.4928c-16.5888 0-30.1056-13.5168-30.1056-30.1056s13.5168-30.1056 30.1056-30.1056h12.4928v-12.4928c0-16.5888 13.5168-30.1056 30.1056-30.1056s30.1056 13.5168 30.1056 30.1056v12.4928h12.4928c16.5888 0 30.1056 13.5168 30.1056 30.1056s-13.5168 30.1056-30.1056 30.1056H362.496v12.4928c0 16.5888-13.5168 30.1056-30.1056 30.1056z m-42.8032-82.7392c-5.3248 0-9.6256 4.3008-9.6256 9.6256s4.3008 9.6256 9.6256 9.6256h22.7328c5.7344 0 10.24 4.5056 10.24 10.24v22.7328c0 5.3248 4.3008 9.6256 9.6256 9.6256s9.6256-4.3008 9.6256-9.6256V669.696c0-5.7344 4.5056-10.24 10.24-10.24H374.784c5.3248 0 9.6256-4.3008 9.6256-9.6256s-4.3008-9.6256-9.6256-9.6256h-22.528c-5.7344 0-10.24-4.5056-10.24-10.24v-22.7328c0-5.3248-4.3008-9.6256-9.6256-9.6256s-9.6256 4.3008-9.6256 9.6256v22.7328c0 5.7344-4.5056 10.24-10.24 10.24h-22.9376z" fill="#1C1D21" p-id="16595"></path></svg>