<svg xmlns="http://www.w3.org/2000/svg" viewBox="0 0 1024 1024" version="1.1"><path d="M512 512m-501.76 0a501.76 501.76 0 1 0 1003.52 0 501.76 501.76 0 1 0-1003.52 0Z" fill="#8CEEF9" p-id="17389"></path><path d="M830.0544 540.8768h-136.3968c-11.264 0-20.48-9.216-20.48-20.48v-219.136c0-11.264 9.216-20.48 20.48-20.48h136.3968c11.264 0 20.48 9.216 20.48 20.48v219.136c0 11.264-9.216 20.48-20.48 20.48z" fill="#E0E0E0" p-id="17390"></path><path d="M693.4528 540.8768h136.3968c11.264 0 20.48-9.216 20.48-20.48v-176.9472c0 12.288-9.8304 22.1184-22.1184 22.1184s-22.1184-9.8304-22.1184-22.1184c0 12.288-9.8304 22.1184-22.1184 22.1184-12.288 0-22.1184-9.8304-22.1184-22.1184 0 12.288-9.8304 22.1184-22.1184 22.1184-12.288 0-22.1184-9.8304-22.1184-22.1184 0 12.288-9.8304 22.1184-22.1184 22.1184-12.288 0-22.1184-9.8304-22.1184-22.1184v176.9472c-0.4096 11.264 8.8064 20.48 20.0704 20.48z" fill="#508DEF" p-id="17391"></path><path d="M717.4144 551.1168c-5.7344 0-10.24-4.5056-10.24-10.24v-82.5344c0-5.7344 4.5056-10.24 10.24-10.24s10.24 4.5056 10.24 10.24v82.5344c0 5.5296-4.7104 10.24-10.24 10.24zM717.4144 436.8384c-5.7344 0-10.24-4.5056-10.24-10.24v-3.6864c0-5.7344 4.5056-10.24 10.24-10.24s10.24 4.5056 10.24 10.24v3.6864c0 5.5296-4.7104 10.24-10.24 10.24zM717.4144 399.36c-5.7344 0-10.24-4.5056-10.24-10.24v-33.792c0-5.7344 4.5056-10.24 10.24-10.24s10.24 4.5056 10.24 10.24V389.12c0 5.7344-4.7104 10.24-10.24 10.24z" fill="#ABD1FF" p-id="17392"></path><path d="M717.4144 356.9664c-5.7344 0-10.24-4.5056-10.24-10.24V280.576c0-5.7344 4.5056-10.24 10.24-10.24s10.24 4.5056 10.24 10.24v66.1504c0 5.7344-4.7104 10.24-10.24 10.24z" fill="#FFFFFF" p-id="17393"></path><path d="M580.1984 540.8768h-136.3968c-11.264 0-20.48-9.216-20.48-20.48v-219.136c0-11.264 9.216-20.48 20.48-20.48h136.3968c11.264 0 20.48 9.216 20.48 20.48v219.136c0 11.264-9.216 20.48-20.48 20.48z" fill="#E0E0E0" p-id="17394"></path><path d="M443.8016 540.8768h136.3968c11.264 0 20.48-9.216 20.48-20.48v-176.9472c0 12.288-9.8304 22.1184-22.1184 22.1184s-22.1184-9.8304-22.1184-22.1184c0 12.288-9.8304 22.1184-22.1184 22.1184-12.288 0-22.1184-9.8304-22.1184-22.1184 0 12.288-9.8304 22.1184-22.1184 22.1184-12.288 0-22.1184-9.8304-22.1184-22.1184 0 12.288-9.8304 22.1184-22.1184 22.1184-12.288 0-22.1184-9.8304-22.1184-22.1184v176.9472c-0.4096 11.264 8.8064 20.48 20.0704 20.48z" fill="#FF8939" p-id="17395"></path><path d="M467.5584 551.1168c-5.7344 0-10.24-4.5056-10.24-10.24v-82.5344c0-5.7344 4.5056-10.24 10.24-10.24s10.24 4.5056 10.24 10.24v82.5344c0 5.5296-4.5056 10.24-10.24 10.24zM467.5584 436.8384c-5.7344 0-10.24-4.5056-10.24-10.24v-3.6864c0-5.7344 4.5056-10.24 10.24-10.24s10.24 4.5056 10.24 10.24v3.6864c0 5.5296-4.5056 10.24-10.24 10.24zM467.5584 399.36c-5.7344 0-10.24-4.5056-10.24-10.24v-33.792c0-5.7344 4.5056-10.24 10.24-10.24s10.24 4.5056 10.24 10.24V389.12c0 5.7344-4.5056 10.24-10.24 10.24z" fill="#FFC5B3" p-id="17396"></path><path d="M467.5584 356.9664c-5.7344 0-10.24-4.5056-10.24-10.24V280.576c0-5.7344 4.5056-10.24 10.24-10.24s10.24 4.5056 10.24 10.24v66.1504c0 5.7344-4.5056 10.24-10.24 10.24z" fill="#FFFFFF" p-id="17397"></path><path d="M512 1024c-136.8064 0-265.4208-53.248-362.0864-149.9136C53.248 777.4208 0 648.8064 0 512S53.248 246.5792 149.9136 149.9136C246.5792 53.248 375.1936 0 512 0s265.4208 53.248 362.0864 149.9136C970.752 246.5792 1024 375.1936 1024 512s-53.248 265.4208-149.9136 362.0864C777.4208 970.752 648.8064 1024 512 1024z m0-1003.52C241.0496 20.48 20.48 241.0496 20.48 512s220.5696 491.52 491.52 491.52 491.52-220.5696 491.52-491.52S782.9504 20.48 512 20.48z" fill="#1C1D21" p-id="17398"></path><path d="M10.24 512c0 9.6256 0.2048 19.2512 0.8192 28.8768h186.5728v-126.976H19.8656C13.5168 445.6448 10.24 478.4128 10.24 512z" fill="#E0E0E0" p-id="17399"></path><path d="M167.3216 465.1008h-17.2032c-5.7344 0-10.24-4.5056-10.24-10.24s4.5056-10.24 10.24-10.24h17.2032c5.7344 0 10.24 4.5056 10.24 10.24s-4.7104 10.24-10.24 10.24zM118.3744 465.1008h-6.7584c-5.7344 0-10.24-4.5056-10.24-10.24s4.5056-10.24 10.24-10.24h6.7584c5.7344 0 10.24 4.5056 10.24 10.24s-4.7104 10.24-10.24 10.24zM77.824 465.1008H54.6816c-5.7344 0-10.24-4.5056-10.24-10.24s4.5056-10.24 10.24-10.24H77.824c5.7344 0 10.24 4.5056 10.24 10.24s-4.5056 10.24-10.24 10.24z" fill="#FFFFFF" p-id="17400"></path><path d="M197.8368 551.1168H11.0592c-5.5296 0-9.8304-4.3008-10.24-9.6256-0.6144-10.24-0.8192-20.0704-0.8192-29.4912 0-33.5872 3.2768-67.3792 9.8304-100.1472 1.024-4.7104 5.12-8.192 10.0352-8.192h177.9712c5.7344 0 10.24 4.5056 10.24 10.24v126.976c0 5.5296-4.7104 10.24-10.24 10.24z m-176.9472-20.48h166.7072v-106.496H28.2624C23.1424 453.0176 20.48 482.5088 20.48 512c0 5.9392 0.2048 12.288 0.4096 18.6368z" fill="#1C1D21" p-id="17401"></path><path d="M167.3216 477.3888a63.488 30.5152 90 1 0 61.0304 0 63.488 30.5152 90 1 0-61.0304 0Z" fill="#AAADAD" p-id="17402"></path><path d="M197.8368 551.1168c-23.1424 0-40.7552-31.744-40.7552-73.728s17.408-73.728 40.7552-73.728 40.7552 31.744 40.7552 73.728-17.6128 73.728-40.7552 73.728z m0-126.976c-7.9872 0-20.2752 21.2992-20.2752 53.248s12.0832 53.248 20.2752 53.248 20.2752-21.2992 20.2752-53.248-12.288-53.248-20.2752-53.248z" fill="#1C1D21" p-id="17403"></path><path d="M235.7248 474.3168h-7.5776l-60.8256 0.2048v2.8672c0 35.0208 13.7216 63.488 30.5152 63.488h29.0816c19.6608 0 35.6352 15.9744 35.6352 35.6352v94.208l83.1488-0.6144v-86.2208c0-60.6208-49.3568-109.7728-109.9776-109.568z" fill="#FF8939" p-id="17404"></path><path d="M262.5536 680.96c-2.6624 0-5.3248-1.024-7.168-3.072-1.8432-1.8432-3.072-4.5056-3.072-7.168v-94.208c0-13.9264-11.4688-25.3952-25.3952-25.3952H197.8368c-23.1424 0-40.7552-31.744-40.7552-73.728v-3.072c0.2048-5.5296 4.7104-10.0352 10.24-10.0352l68.4032-0.2048h0.4096c31.9488 0 62.0544 12.4928 84.5824 35.0208 22.7328 22.7328 35.2256 52.8384 35.2256 84.7872v86.2208c0 5.5296-4.5056 10.24-10.24 10.24l-83.1488 0.6144z m-84.7872-196.4032c1.6384 27.8528 12.4928 45.8752 20.0704 45.8752h29.0816c25.3952 0 45.8752 20.6848 45.8752 45.8752v83.968l62.6688-0.4096v-75.9808c0-26.624-10.4448-51.6096-29.2864-70.4512-18.8416-18.6368-43.6224-29.0816-70.2464-29.0816h-0.4096l-57.7536 0.2048z m57.9584-10.24z" fill="#1C1D21" p-id="17405"></path><path d="M969.728 669.696c-22.9376 0-41.5744-18.6368-41.5744-41.5744 0 22.9376-18.6368 41.5744-41.5744 41.5744-22.9376 0-41.5744-18.6368-41.5744-41.5744 0 22.9376-18.6368 41.5744-41.5744 41.5744-22.9376 0-41.5744-18.6368-41.5744-41.5744 0 22.9376-18.6368 41.5744-41.5744 41.5744-22.9376 0-41.5744-18.6368-41.5744-41.5744 0 22.9376-18.6368 41.5744-41.5744 41.5744s-41.5744-18.6368-41.5744-41.5744c0 22.9376-18.6368 41.5744-41.5744 41.5744s-41.5744-18.6368-41.5744-41.5744c0 22.9376-18.6368 41.5744-41.5744 41.5744-22.9376 0-41.5744-18.6368-41.5744-41.5744 0 22.9376-18.6368 41.5744-41.5744 41.5744s-41.5744-18.6368-41.5744-41.5744c0 22.9376-18.6368 41.5744-41.5744 41.5744s-41.5744-18.6368-41.5744-41.5744c0 22.9376-18.6368 41.5744-41.5744 41.5744-22.9376 0-41.5744-18.6368-41.5744-41.5744 0 22.9376-18.6368 41.5744-41.5744 41.5744-22.9376 0-41.5744-18.6368-41.5744-41.5744 0 22.9376-18.6368 41.5744-41.5744 41.5744-7.5776 0-14.7456-2.048-20.8896-5.7344C98.304 866.9184 287.9488 1013.76 512 1013.76s413.696-146.8416 478.208-349.3888c-6.144 3.4816-13.1072 5.3248-20.48 5.3248z" fill="#FF8939" p-id="17406"></path><path d="M512 1024c-110.7968 0-216.4736-34.816-305.152-100.7616-87.04-64.7168-150.3232-153.1904-182.8864-256-1.2288-4.096 0-8.3968 3.2768-11.0592 3.2768-2.6624 7.9872-3.072 11.4688-0.8192 4.7104 2.8672 10.24 4.3008 15.7696 4.3008 17.2032 0 31.3344-14.1312 31.3344-31.3344 0-5.7344 4.5056-10.24 10.24-10.24s10.24 4.5056 10.24 10.24c0 17.2032 14.1312 31.3344 31.3344 31.3344s31.3344-14.1312 31.3344-31.3344c0-5.7344 4.5056-10.24 10.24-10.24s10.24 4.5056 10.24 10.24c0 17.2032 14.1312 31.3344 31.3344 31.3344s31.3344-14.1312 31.3344-31.3344c0-5.7344 4.5056-10.24 10.24-10.24s10.24 4.5056 10.24 10.24c0 17.2032 14.1312 31.3344 31.3344 31.3344s31.3344-14.1312 31.3344-31.3344c0-5.7344 4.5056-10.24 10.24-10.24s10.24 4.5056 10.24 10.24c0 17.2032 14.1312 31.3344 31.3344 31.3344s31.3344-14.1312 31.3344-31.3344c0-5.7344 4.5056-10.24 10.24-10.24s10.24 4.5056 10.24 10.24c0 17.2032 14.1312 31.3344 31.3344 31.3344s31.3344-14.1312 31.3344-31.3344c0-5.7344 4.5056-10.24 10.24-10.24s10.24 4.5056 10.24 10.24c0 17.2032 14.1312 31.3344 31.3344 31.3344s31.3344-14.1312 31.3344-31.3344c0-5.7344 4.5056-10.24 10.24-10.24s10.24 4.5056 10.24 10.24c0 17.2032 14.1312 31.3344 31.3344 31.3344s31.3344-14.1312 31.3344-31.3344c0-5.7344 4.5056-10.24 10.24-10.24s10.24 4.5056 10.24 10.24c0 17.2032 14.1312 31.3344 31.3344 31.3344s31.3344-14.1312 31.3344-31.3344c0-5.7344 4.5056-10.24 10.24-10.24s10.24 4.5056 10.24 10.24c0 17.2032 14.1312 31.3344 31.3344 31.3344s31.3344-14.1312 31.3344-31.3344c0-5.7344 4.5056-10.24 10.24-10.24s10.24 4.5056 10.24 10.24c0 17.2032 14.1312 31.3344 31.3344 31.3344s31.3344-14.1312 31.3344-31.3344c0-5.7344 4.5056-10.24 10.24-10.24s10.24 4.5056 10.24 10.24c0 17.2032 14.1312 31.3344 31.3344 31.3344 5.3248 0 10.8544-1.4336 15.5648-4.096 3.6864-2.048 8.192-1.6384 11.4688 1.024 3.2768 2.6624 4.5056 6.9632 3.2768 11.0592-32.768 102.8096-96.0512 191.2832-182.8864 255.7952C728.2688 989.184 622.7968 1024 512 1024zM49.9712 679.7312C120.2176 874.2912 303.5136 1003.52 512 1003.52s391.7824-129.2288 462.0288-323.7888c-1.4336 0.2048-3.072 0.2048-4.5056 0.2048-16.9984 0-32.1536-8.192-41.5744-20.8896-9.4208 12.6976-24.576 20.8896-41.5744 20.8896s-32.1536-8.192-41.5744-20.8896c-9.4208 12.6976-24.576 20.8896-41.5744 20.8896s-32.1536-8.192-41.5744-20.8896c-9.4208 12.6976-24.576 20.8896-41.5744 20.8896s-32.1536-8.192-41.5744-20.8896c-9.4208 12.6976-24.576 20.8896-41.5744 20.8896s-32.1536-8.192-41.5744-20.8896c-9.4208 12.6976-24.576 20.8896-41.5744 20.8896s-32.1536-8.192-41.5744-20.8896c-9.4208 12.6976-24.576 20.8896-41.5744 20.8896s-32.1536-8.192-41.5744-20.8896c-9.4208 12.6976-24.576 20.8896-41.5744 20.8896s-32.1536-8.192-41.5744-20.8896c-9.4208 12.6976-24.576 20.8896-41.5744 20.8896s-32.1536-8.192-41.5744-20.8896c-9.4208 12.6976-24.576 20.8896-41.5744 20.8896s-32.1536-8.192-41.5744-20.8896C169.984 671.744 154.8288 679.936 137.8304 679.936c-16.9984 0-32.1536-8.192-41.5744-20.8896C86.8352 671.744 71.68 679.936 54.6816 679.936c-1.6384 0-3.2768 0-4.7104-0.2048z" fill="#1C1D21" p-id="17407"></path><path d="M512 638.3616c-5.7344 0-10.24-4.5056-10.24-10.24V540.672c0-5.7344 4.5056-10.24 10.24-10.24s10.24 4.5056 10.24 10.24v87.4496c0 5.7344-4.5056 10.24-10.24 10.24zM761.6512 638.3616c-5.7344 0-10.24-4.5056-10.24-10.24V540.672c0-5.7344 4.5056-10.24 10.24-10.24s10.24 4.5056 10.24 10.24v87.4496c0 5.7344-4.5056 10.24-10.24 10.24z" fill="#1C1D21" p-id="17408"></path><path d="M830.0544 551.1168h-136.3968c-16.9984 0-30.72-13.7216-30.72-30.72v-219.136c0-16.9984 13.7216-30.72 30.72-30.72h136.3968c16.9984 0 30.72 13.7216 30.72 30.72v219.136c0 16.7936-13.9264 30.72-30.72 30.72z m-136.6016-260.096c-5.7344 0-10.24 4.5056-10.24 10.24v219.136c0 5.7344 4.5056 10.24 10.24 10.24h136.3968c5.7344 0 10.24-4.5056 10.24-10.24v-219.136c0-5.7344-4.5056-10.24-10.24-10.24h-136.3968z" fill="#1C1D21" p-id="17409"></path><path d="M808.96 236.1344h-94.6176c-11.264 0-20.2752-9.0112-20.2752-20.2752v-2.048c0-11.264 9.0112-20.2752 20.2752-20.2752H808.96c11.264 0 20.2752 9.0112 20.2752 20.2752v2.048c0 11.0592-9.0112 20.2752-20.2752 20.2752zM559.3088 236.1344h-94.6176c-11.264 0-20.2752-9.0112-20.2752-20.2752v-2.048c0-11.264 9.0112-20.2752 20.2752-20.2752h94.6176c11.264 0 20.2752 9.0112 20.2752 20.2752v2.048c0 11.0592-9.0112 20.2752-20.2752 20.2752z" fill="#AAADAD" p-id="17410"></path><path d="M770.048 203.776c-5.7344 0-10.24-4.5056-10.24-10.24s4.5056-10.24 10.24-10.24h0.2048c5.7344 0 10.24 4.5056 10.24 10.24s-4.7104 10.24-10.4448 10.24z" fill="#1C1D21" p-id="17411"></path><path d="M808.96 246.3744h-94.6176c-16.7936 0-30.5152-13.7216-30.5152-30.5152v-2.048c0-16.7936 13.7216-30.5152 30.5152-30.5152h23.3472c5.7344 0 10.24 4.5056 10.24 10.24s-4.5056 10.24-10.24 10.24h-23.3472c-5.5296 0-10.0352 4.5056-10.0352 10.0352v2.048c0 5.5296 4.5056 10.0352 10.0352 10.0352H808.96c5.5296 0 10.0352-4.5056 10.0352-10.0352v-2.048c0-5.5296-4.5056-10.0352-10.0352-10.0352h-9.216c-5.7344 0-10.24-4.5056-10.24-10.24s4.5056-10.24 10.24-10.24h9.216c16.7936 0 30.5152 13.7216 30.5152 30.5152v2.048c0 16.7936-13.5168 30.5152-30.5152 30.5152z" fill="#1C1D21" p-id="17412"></path><path d="M761.6512 291.0208c-5.7344 0-10.24-4.5056-10.24-10.24v-44.6464c0-5.7344 4.5056-10.24 10.24-10.24s10.24 4.5056 10.24 10.24v44.6464c0 5.5296-4.5056 10.24-10.24 10.24zM580.1984 551.1168h-136.3968c-16.9984 0-30.72-13.7216-30.72-30.72v-219.136c0-16.9984 13.7216-30.72 30.72-30.72h136.3968c16.9984 0 30.72 13.7216 30.72 30.72v219.136c0 16.7936-13.7216 30.72-30.72 30.72z m-136.3968-260.096c-5.7344 0-10.24 4.5056-10.24 10.24v219.136c0 5.7344 4.5056 10.24 10.24 10.24h136.3968c5.7344 0 10.24-4.5056 10.24-10.24v-219.136c0-5.7344-4.5056-10.24-10.24-10.24h-136.3968zM512 203.776h-0.6144c-5.7344 0-10.24-4.5056-10.24-10.24s4.5056-10.24 10.24-10.24h0.6144c5.7344 0 10.24 4.5056 10.24 10.24s-4.5056 10.24-10.24 10.24z" fill="#1C1D21" p-id="17413"></path><path d="M559.3088 246.3744h-94.6176c-16.7936 0-30.5152-13.7216-30.5152-30.5152v-2.048c0-16.7936 13.7216-30.5152 30.5152-30.5152h18.6368c5.7344 0 10.24 4.5056 10.24 10.24s-4.5056 10.24-10.24 10.24h-18.6368c-5.5296 0-10.0352 4.5056-10.0352 10.0352v2.048c0 5.5296 4.5056 10.0352 10.0352 10.0352h94.6176c5.5296 0 10.0352-4.5056 10.0352-10.0352v-2.048c0-5.5296-4.5056-10.0352-10.0352-10.0352h-11.0592c-5.7344 0-10.24-4.5056-10.24-10.24s4.5056-10.24 10.24-10.24h11.0592c16.7936 0 30.5152 13.7216 30.5152 30.5152v2.048c0 16.7936-13.7216 30.5152-30.5152 30.5152z" fill="#1C1D21" p-id="17414"></path><path d="M808.96 583.2704h-94.6176c-11.264 0-20.2752-9.0112-20.2752-20.2752v-2.048c0-11.264 9.0112-20.2752 20.2752-20.2752H808.96c11.264 0 20.2752 9.0112 20.2752 20.2752v2.048c0 11.264-9.0112 20.2752-20.2752 20.2752zM559.3088 583.2704h-94.6176c-11.264 0-20.2752-9.0112-20.2752-20.2752v-2.048c0-11.264 9.0112-20.2752 20.2752-20.2752h94.6176c11.264 0 20.2752 9.0112 20.2752 20.2752v2.048c0 11.264-9.0112 20.2752-20.2752 20.2752z" fill="#AAADAD" p-id="17415"></path><path d="M808.96 593.5104h-94.6176c-16.7936 0-30.5152-13.7216-30.5152-30.5152v-2.048c0-16.7936 13.7216-30.5152 30.5152-30.5152H808.96c16.7936 0 30.5152 13.7216 30.5152 30.5152v2.048c0 16.7936-13.5168 30.5152-30.5152 30.5152z m-94.6176-42.3936c-5.5296 0-10.0352 4.5056-10.0352 10.0352v2.048c0 5.5296 4.5056 10.0352 10.0352 10.0352H808.96c5.5296 0 10.0352-4.5056 10.0352-10.0352v-2.048c0-5.5296-4.5056-10.0352-10.0352-10.0352h-94.6176zM559.3088 593.5104h-94.6176c-16.7936 0-30.5152-13.7216-30.5152-30.5152v-2.048c0-16.7936 13.7216-30.5152 30.5152-30.5152h94.6176c16.7936 0 30.5152 13.7216 30.5152 30.5152v2.048c0 16.7936-13.7216 30.5152-30.5152 30.5152z m-94.6176-42.3936c-5.5296 0-10.0352 4.5056-10.0352 10.0352v2.048c0 5.5296 4.5056 10.0352 10.0352 10.0352h94.6176c5.5296 0 10.0352-4.5056 10.0352-10.0352v-2.048c0-5.5296-4.5056-10.0352-10.0352-10.0352h-94.6176zM512 291.0208c-5.7344 0-10.24-4.5056-10.24-10.24v-44.6464c0-5.7344 4.5056-10.24 10.24-10.24s10.24 4.5056 10.24 10.24v44.6464c0 5.5296-4.5056 10.24-10.24 10.24z" fill="#1C1D21" p-id="17416"></path><path d="M580.1984 551.1168h-136.3968c-16.9984 0-30.72-13.7216-30.72-30.72v-176.9472c0-5.7344 4.5056-10.24 10.24-10.24s10.24 4.5056 10.24 10.24c0 6.5536 5.3248 11.8784 11.8784 11.8784 6.5536 0 11.8784-5.3248 11.8784-11.8784 0-5.7344 4.5056-10.24 10.24-10.24s10.24 4.5056 10.24 10.24c0 6.5536 5.3248 11.8784 11.8784 11.8784s11.8784-5.3248 11.8784-11.8784c0-5.7344 4.5056-10.24 10.24-10.24s10.24 4.5056 10.24 10.24c0 6.5536 5.3248 11.8784 11.8784 11.8784 6.5536 0 11.8784-5.3248 11.8784-11.8784 0-5.7344 4.5056-10.24 10.24-10.24s10.24 4.5056 10.24 10.24c0 6.5536 5.3248 11.8784 11.8784 11.8784s11.8784-5.3248 11.8784-11.8784c0-5.7344 4.5056-10.24 10.24-10.24s10.24 4.5056 10.24 10.24v176.9472c0.4096 16.7936-13.312 30.72-30.3104 30.72z m-146.6368-177.5616v146.8416c0 5.7344 4.5056 10.24 10.24 10.24h136.3968c5.7344 0 10.24-4.5056 10.24-10.24v-146.8416c-3.6864 1.4336-7.7824 2.2528-11.8784 2.2528-8.6016 0-16.384-3.2768-22.1184-8.8064-5.7344 5.5296-13.5168 8.8064-22.1184 8.8064s-16.384-3.2768-22.1184-8.8064c-5.7344 5.5296-13.5168 8.8064-22.1184 8.8064s-16.384-3.2768-22.1184-8.8064c-5.7344 5.5296-13.5168 8.8064-22.1184 8.8064-4.5056 0-8.6016-0.8192-12.288-2.2528zM830.0544 551.1168h-136.3968c-16.9984 0-30.72-13.7216-30.72-30.72v-176.9472c0-5.7344 4.5056-10.24 10.24-10.24s10.24 4.5056 10.24 10.24c0 6.5536 5.3248 11.8784 11.8784 11.8784s11.8784-5.3248 11.8784-11.8784c0-5.7344 4.5056-10.24 10.24-10.24s10.24 4.5056 10.24 10.24c0 6.5536 5.3248 11.8784 11.8784 11.8784 6.5536 0 11.8784-5.3248 11.8784-11.8784 0-5.7344 4.5056-10.24 10.24-10.24s10.24 4.5056 10.24 10.24c0 6.5536 5.3248 11.8784 11.8784 11.8784s11.8784-5.3248 11.8784-11.8784c0-5.7344 4.5056-10.24 10.24-10.24s10.24 4.5056 10.24 10.24c0 6.5536 5.3248 11.8784 11.8784 11.8784s11.8784-5.3248 11.8784-11.8784c0-5.7344 4.5056-10.24 10.24-10.24s10.24 4.5056 10.24 10.24v176.9472c0.4096 16.7936-13.5168 30.72-30.3104 30.72z m-146.8416-177.5616v146.8416c0 5.7344 4.5056 10.24 10.24 10.24h136.3968c5.7344 0 10.24-4.5056 10.24-10.24v-146.8416c-3.6864 1.4336-7.7824 2.2528-11.8784 2.2528-8.6016 0-16.384-3.2768-22.1184-8.8064-5.7344 5.5296-13.5168 8.8064-22.1184 8.8064s-16.384-3.2768-22.1184-8.8064c-5.7344 5.5296-13.5168 8.8064-22.1184 8.8064s-16.384-3.2768-22.1184-8.8064c-5.7344 5.5296-13.5168 8.8064-22.1184 8.8064-4.5056 0-8.6016-0.8192-12.288-2.2528zM393.8304 775.3728c-12.0832 0-22.9376-5.12-30.3104-13.5168-7.5776 8.192-18.432 13.5168-30.3104 13.5168-12.288 0-23.3472-5.3248-30.72-13.9264-7.5776 8.6016-18.432 13.9264-30.72 13.9264-5.7344 0-10.24-4.5056-10.24-10.24s4.5056-10.24 10.24-10.24c11.264 0 20.48-9.216 20.48-20.48 0-5.7344 4.5056-10.24 10.24-10.24s10.24 4.5056 10.24 10.24c0 11.264 9.216 20.48 20.48 20.48 9.6256 0 17.8176-6.7584 20.0704-15.7696-0.2048-1.6384-0.2048-3.072-0.2048-4.7104 0-5.7344 4.5056-10.24 10.24-10.24h0.8192c5.7344 0 10.24 4.5056 10.24 10.24 0 1.6384 0 3.072-0.2048 4.7104 2.048 9.0112 10.24 15.7696 20.0704 15.7696 5.7344 0 10.24 4.5056 10.24 10.24s-4.9152 10.24-10.6496 10.24zM763.4944 775.3728c-12.0832 0-22.9376-5.12-30.3104-13.5168-7.5776 8.192-18.432 13.5168-30.3104 13.5168-12.288 0-23.3472-5.3248-30.72-13.9264-7.5776 8.6016-18.432 13.9264-30.72 13.9264h-46.4896c-5.7344 0-10.24-4.5056-10.24-10.24s4.5056-10.24 10.24-10.24h46.4896c11.264 0 20.48-9.216 20.48-20.48 0-5.7344 4.5056-10.24 10.24-10.24s10.24 4.5056 10.24 10.24c0 11.264 9.216 20.48 20.48 20.48 9.6256 0 17.8176-6.7584 20.0704-15.7696-0.2048-1.6384-0.2048-3.072-0.2048-4.7104 0-5.7344 4.5056-10.24 10.24-10.24h0.8192c5.7344 0 10.24 4.5056 10.24 10.24 0 1.6384 0 3.072-0.2048 4.7104 2.048 9.0112 10.24 15.7696 20.0704 15.7696 5.7344 0 10.24 4.5056 10.24 10.24s-5.12 10.24-10.6496 10.24zM578.56 901.5296c-12.0832 0-22.9376-5.12-30.3104-13.5168-7.5776 8.192-18.432 13.5168-30.3104 13.5168-12.288 0-23.3472-5.3248-30.72-13.9264-7.5776 8.6016-18.432 13.9264-30.72 13.9264-5.7344 0-10.24-4.5056-10.24-10.24s4.5056-10.24 10.24-10.24c11.264 0 20.48-9.216 20.48-20.48 0-5.7344 4.5056-10.24 10.24-10.24s10.24 4.5056 10.24 10.24c0 11.264 9.216 20.48 20.48 20.48 9.6256 0 17.8176-6.7584 20.0704-15.7696-0.2048-1.6384-0.2048-3.072-0.2048-4.7104 0-5.7344 4.5056-10.24 10.24-10.24h0.8192c5.7344 0 10.24 4.5056 10.24 10.24 0 1.6384 0 3.072-0.2048 4.7104 2.048 9.0112 10.24 15.7696 20.0704 15.7696 5.7344 0 10.24 4.5056 10.24 10.24s-4.9152 10.24-10.6496 10.24zM562.5856 775.3728h-6.144c-5.7344 0-10.24-4.5056-10.24-10.24s4.5056-10.24 10.24-10.24h6.144c5.7344 0 10.24 4.5056 10.24 10.24s-4.5056 10.24-10.24 10.24zM393.8304 901.5296h-21.7088c-5.7344 0-10.24-4.5056-10.24-10.24s4.5056-10.24 10.24-10.24h21.7088c5.7344 0 10.24 4.5056 10.24 10.24s-4.5056 10.24-10.24 10.24zM331.3664 901.5296h-9.4208c-5.7344 0-10.24-4.5056-10.24-10.24s4.5056-10.24 10.24-10.24h9.4208c5.7344 0 10.24 4.5056 10.24 10.24s-4.7104 10.24-10.24 10.24zM877.9776 775.3728h-20.48c-5.7344 0-10.24-4.5056-10.24-10.24s4.5056-10.24 10.24-10.24h20.48c5.7344 0 10.24 4.5056 10.24 10.24s-4.5056 10.24-10.24 10.24zM197.4272 775.3728h-14.5408c-5.7344 0-10.24-4.5056-10.24-10.24s4.5056-10.24 10.24-10.24h14.5408c5.7344 0 10.24 4.5056 10.24 10.24s-4.7104 10.24-10.24 10.24z" fill="#1C1D21" p-id="17417"></path><path d="M583.4752 407.1424H690.176v38.912h-106.7008zM583.4752 501.9648H690.176v38.912h-106.7008z" fill="#FF8939" p-id="17418"></path><path d="M690.176 417.3824h-106.7008c-5.7344 0-10.24-4.5056-10.24-10.24s4.5056-10.24 10.24-10.24H690.176c5.7344 0 10.24 4.5056 10.24 10.24s-4.5056 10.24-10.24 10.24zM690.176 456.2944h-106.7008c-5.7344 0-10.24-4.5056-10.24-10.24s4.5056-10.24 10.24-10.24H690.176c5.7344 0 10.24 4.5056 10.24 10.24s-4.5056 10.24-10.24 10.24zM690.176 512.2048h-106.7008c-5.7344 0-10.24-4.5056-10.24-10.24s4.5056-10.24 10.24-10.24H690.176c5.7344 0 10.24 4.5056 10.24 10.24s-4.5056 10.24-10.24 10.24zM690.176 551.1168h-106.7008c-5.7344 0-10.24-4.5056-10.24-10.24s4.5056-10.24 10.24-10.24H690.176c5.7344 0 10.24 4.5056 10.24 10.24s-4.5056 10.24-10.24 10.24z" fill="#1C1D21" p-id="17419"></path></svg>