<svg xmlns="http://www.w3.org/2000/svg" viewBox="0 0 1024 1024" version="1.1"><path d="M512 512m-501.76 0a501.76 501.76 0 1 0 1003.52 0 501.76 501.76 0 1 0-1003.52 0Z" fill="#FFECE9" p-id="17913"></path><path d="M520.3968 560.7424L492.7488 614.4c-5.3248 10.4448-4.5056 22.9376 2.2528 32.3584 12.4928 17.408 38.2976 17.408 50.5856 0 6.7584-9.4208 7.5776-21.9136 2.2528-32.3584l-27.4432-53.6576zM520.3968 700.8256l-27.648 53.6576c-5.3248 10.4448-4.5056 22.9376 2.2528 32.3584 12.4928 17.408 38.2976 17.408 50.5856 0 6.7584-9.4208 7.5776-21.9136 2.2528-32.3584l-27.4432-53.6576z" fill="#508DEF" p-id="17914"></path><path d="M512 1024c-136.8064 0-265.4208-53.248-362.0864-149.9136C53.248 777.4208 0 648.8064 0 512S53.248 246.5792 149.9136 149.9136C246.5792 53.248 375.1936 0 512 0s265.4208 53.248 362.0864 149.9136C970.752 246.5792 1024 375.1936 1024 512s-53.248 265.4208-149.9136 362.0864C777.4208 970.752 648.8064 1024 512 1024z m0-1003.52C241.0496 20.48 20.48 241.0496 20.48 512s220.5696 491.52 491.52 491.52 491.52-220.5696 491.52-491.52S782.9504 20.48 512 20.48z" fill="#1C1D21" p-id="17915"></path><path d="M490.496 325.0176h-49.152c-14.336 0-28.0576-5.7344-38.2976-15.5648-15.36-14.9504-36.2496-23.9616-59.392-23.9616s-44.032 9.216-59.392 23.9616c-10.24 10.0352-23.9616 15.5648-38.2976 15.5648H113.2544c-3.2768 11.0592-38.2976 22.1184-79.0528 33.5872-5.5296 17.2032-10.24 34.816-13.9264 52.8384h220.9792c15.36 0 29.696 6.3488 40.1408 17.6128 15.5648 16.5888 37.6832 26.8288 62.2592 26.8288s46.6944-10.24 62.2592-26.8288c10.4448-11.0592 24.9856-17.6128 40.1408-17.6128h0.6144c15.36 0 27.8528 12.4928 27.8528 27.8528v77.0048H565.248V399.9744c0-41.3696-33.3824-74.9568-74.752-74.9568z" fill="#AAADAD" p-id="17916"></path><path d="M374.3744 348.9792c-2.6624 0-5.12-1.024-7.168-2.8672-0.8192-0.8192-1.8432-1.6384-2.8672-2.4576a10.15808 10.15808 0 0 1-1.8432-14.336c3.4816-4.5056 9.8304-5.3248 14.336-1.8432 1.6384 1.2288 3.072 2.6624 4.7104 4.096 4.096 3.8912 4.096 10.4448 0.2048 14.5408-2.048 1.8432-4.7104 2.8672-7.3728 2.8672zM312.7296 348.9792c-2.6624 0-5.3248-1.024-7.3728-3.072-3.8912-4.096-3.8912-10.4448 0.2048-14.5408 6.9632-6.7584 15.7696-11.6736 25.1904-13.9264 5.5296-1.4336 11.0592 2.048 12.288 7.5776 1.2288 5.5296-2.048 11.0592-7.5776 12.288-5.9392 1.4336-11.264 4.5056-15.7696 8.6016-1.8432 2.2528-4.3008 3.072-6.9632 3.072zM245.9648 376.2176H129.8432c-5.7344 0-10.24-4.5056-10.24-10.24s4.5056-10.24 10.24-10.24H245.76c11.264 0 22.3232-2.2528 32.768-6.5536 5.12-2.2528 11.264 0.4096 13.312 5.5296 2.2528 5.3248-0.4096 11.264-5.5296 13.312-12.9024 5.5296-26.4192 8.192-40.3456 8.192z" fill="#E0E0E0" p-id="17917"></path><path d="M565.248 526.7456h-90.7264c-5.7344 0-10.24-4.5056-10.24-10.24v-77.0048c0-9.8304-7.9872-17.6128-17.6128-17.6128h-0.6144c-12.288 0-24.1664 5.3248-32.768 14.336-18.0224 19.0464-43.4176 30.1056-69.632 30.1056s-51.6096-11.0592-69.632-30.1056c-8.6016-9.216-20.48-14.336-32.768-14.336H20.2752c-3.072 0-5.9392-1.4336-7.9872-3.6864s-2.6624-5.5296-2.048-8.6016c3.6864-18.0224 8.3968-36.2496 14.1312-54.0672 1.024-3.2768 3.6864-5.7344 6.9632-6.7584 43.8272-12.288 68.1984-21.504 72.2944-27.2384 1.4336-4.096 5.3248-6.9632 9.6256-6.9632h132.7104c11.6736 0 22.7328-4.5056 31.1296-12.6976 18.0224-17.408 41.5744-27.0336 66.56-27.0336s48.5376 9.6256 66.56 27.0336c8.3968 8.192 19.6608 12.6976 31.1296 12.6976H495.616c44.032 0 79.872 35.84 79.872 79.872v121.856c0 5.9392-4.5056 10.4448-10.24 10.4448z m-80.4864-20.48H555.008v-111.616c0-32.768-26.624-59.392-59.392-59.392h-54.4768c-16.9984 0-33.1776-6.5536-45.4656-18.6368-14.1312-13.7216-32.5632-21.0944-52.224-21.0944s-38.0928 7.5776-52.224 21.0944c-12.288 11.8784-28.4672 18.6368-45.4656 18.6368H118.784c-8.6016 9.8304-30.1056 18.432-76.8 31.744-3.4816 11.264-6.5536 22.7328-9.216 34.2016h208.2816c17.8176 0 35.2256 7.5776 47.7184 20.8896 14.336 15.36 33.792 23.7568 54.6816 23.7568s40.3456-8.3968 54.6816-23.7568c12.4928-13.312 29.9008-20.8896 47.7184-20.8896h0.6144c21.0944 0 38.0928 17.2032 38.0928 38.0928v66.9696zM103.424 322.1504z" fill="#1C1D21" p-id="17918"></path><path d="M321.1264 235.52h38.912v49.7664h-38.912z" fill="#AAADAD" p-id="17919"></path><path d="M360.0384 295.5264h-38.912c-5.7344 0-10.24-4.5056-10.24-10.24V235.52c0-5.7344 4.5056-10.24 10.24-10.24h38.912c5.7344 0 10.24 4.5056 10.24 10.24v49.7664c0 5.7344-4.5056 10.24-10.24 10.24z m-28.672-20.48h18.432V245.76h-18.432v29.2864z" fill="#1C1D21" p-id="17920"></path><path d="M418.2016 235.52h-149.0944c-12.288 0-22.1184-9.8304-22.1184-22.1184v-4.096c0-12.288 9.8304-22.1184 22.1184-22.1184h149.0944c12.288 0 22.1184 9.8304 22.1184 22.1184v4.096c0 12.288-9.8304 22.1184-22.1184 22.1184z" fill="#AAADAD" p-id="17921"></path><path d="M360.0384 197.632H350.208c-5.7344 0-10.24-4.5056-10.24-10.24s4.5056-10.24 10.24-10.24h9.8304c5.7344 0 10.24 4.5056 10.24 10.24s-4.5056 10.24-10.24 10.24z" fill="#1C1D21" p-id="17922"></path><path d="M418.2016 245.76h-149.0944c-17.8176 0-32.3584-14.5408-32.3584-32.3584v-4.096c0-17.8176 14.5408-32.3584 32.3584-32.3584h43.008c5.7344 0 10.24 4.5056 10.24 10.24s-4.5056 10.24-10.24 10.24h-43.008c-6.5536 0-11.8784 5.3248-11.8784 11.8784v4.096c0 6.5536 5.3248 11.8784 11.8784 11.8784h149.0944c6.5536 0 11.8784-5.3248 11.8784-11.8784v-4.096c0-6.5536-5.3248-11.8784-11.8784-11.8784h-16.5888c-5.7344 0-10.24-4.5056-10.24-10.24s4.5056-10.24 10.24-10.24h16.5888c17.8176 0 32.3584 14.5408 32.3584 32.3584v4.096c0 17.8176-14.5408 32.3584-32.3584 32.3584z" fill="#1C1D21" p-id="17923"></path><path d="M566.6816 560.5376h-92.3648c-10.8544 0-19.8656-8.8064-19.8656-19.8656v-4.3008c0-10.8544 8.8064-19.8656 19.8656-19.8656h92.3648c10.8544 0 19.8656 8.8064 19.8656 19.8656v4.3008c-0.2048 11.0592-9.0112 19.8656-19.8656 19.8656z" fill="#AAADAD" p-id="17924"></path><path d="M566.6816 570.7776h-92.3648c-16.5888 0-30.1056-13.5168-30.1056-30.1056v-4.3008c0-16.5888 13.5168-30.1056 30.1056-30.1056h92.3648c16.5888 0 30.1056 13.5168 30.1056 30.1056v4.3008c-0.2048 16.5888-13.7216 30.1056-30.1056 30.1056z m-92.3648-44.032c-5.3248 0-9.6256 4.3008-9.6256 9.6256v4.3008c0 5.3248 4.3008 9.6256 9.6256 9.6256h92.3648c5.3248 0 9.6256-4.3008 9.6256-9.6256v-4.3008c0-5.3248-4.3008-9.6256-9.6256-9.6256h-92.3648z" fill="#1C1D21" p-id="17925"></path><path d="M141.5168 290.6112h-79.872c-23.552 47.5136-39.5264 99.5328-46.8992 154.2144h126.7712c17.408 0 31.744-14.1312 31.744-31.744v-90.7264c-0.2048-17.6128-14.336-31.744-31.744-31.744z" fill="#AAADAD" p-id="17926"></path><path d="M141.5168 454.8608H14.7456c-2.8672 0-5.7344-1.2288-7.7824-3.4816-1.8432-2.2528-2.8672-5.12-2.4576-8.192 7.3728-54.8864 23.552-107.7248 47.9232-157.2864 1.6384-3.4816 5.3248-5.7344 9.216-5.7344H141.312c23.1424 0 41.984 18.8416 41.984 41.984v90.7264c0 23.1424-18.8416 41.984-41.7792 41.984z m-114.8928-20.48h114.8928c11.8784 0 21.504-9.6256 21.504-21.504v-90.7264c0-11.8784-9.6256-21.504-21.504-21.504H67.9936c-20.0704 42.5984-33.9968 87.4496-41.3696 133.7344z" fill="#1C1D21" p-id="17927"></path><path d="M94.0032 454.8608c-5.7344 0-10.24-4.5056-10.24-10.24V393.216c0-5.7344 4.5056-10.24 10.24-10.24s10.24 4.5056 10.24 10.24v51.4048c0 5.7344-4.7104 10.24-10.24 10.24zM94.0032 365.568c-5.7344 0-10.24-4.5056-10.24-10.24V346.112c0-5.7344 4.5056-10.24 10.24-10.24s10.24 4.5056 10.24 10.24v9.216c0 5.7344-4.7104 10.24-10.24 10.24zM509.3376 485.9904h-34.6112c-5.7344 0-10.24-4.5056-10.24-10.24s4.5056-10.24 10.24-10.24h34.6112c5.7344 0 10.24 4.5056 10.24 10.24s-4.7104 10.24-10.24 10.24z" fill="#1C1D21" p-id="17928"></path><path d="M512 1013.76c169.984 0 320.1024-84.3776 410.8288-213.6064H101.1712C191.8976 929.3824 342.016 1013.76 512 1013.76z" fill="#FF8939" p-id="17929"></path><path d="M374.3744 956.416c-5.7344 0-10.24-4.5056-10.24-10.24v-12.9024c0-5.7344 4.5056-10.24 10.24-10.24s10.24 4.5056 10.24 10.24v12.9024c0 5.7344-4.5056 10.24-10.24 10.24zM374.3744 864.4608h-92.9792c-5.7344 0-10.24-4.5056-10.24-10.24s4.5056-10.24 10.24-10.24h92.9792c5.7344 0 10.24 4.5056 10.24 10.24s-4.5056 10.24-10.24 10.24zM232.448 864.4608h-11.0592c-5.7344 0-10.24-4.5056-10.24-10.24s4.5056-10.24 10.24-10.24h11.0592c5.7344 0 10.24 4.5056 10.24 10.24s-4.7104 10.24-10.24 10.24zM437.8624 915.456c-2.6624 0-5.3248-1.024-7.168-3.072-4.096-4.096-4.096-10.4448 0-14.5408l30.3104-30.3104v-67.7888c0-5.7344 4.5056-10.24 10.24-10.24s10.24 4.5056 10.24 10.24v71.8848c0 2.6624-1.024 5.3248-3.072 7.168l-33.3824 33.3824c-1.8432 2.2528-4.5056 3.2768-7.168 3.2768zM649.6256 956.416c-5.7344 0-10.24-4.5056-10.24-10.24v-12.9024c0-5.7344 4.5056-10.24 10.24-10.24s10.24 4.5056 10.24 10.24v12.9024c0 5.7344-4.7104 10.24-10.24 10.24zM742.6048 864.4608h-92.9792c-5.7344 0-10.24-4.5056-10.24-10.24s4.5056-10.24 10.24-10.24h92.9792c5.7344 0 10.24 4.5056 10.24 10.24s-4.5056 10.24-10.24 10.24zM802.6112 864.4608h-11.0592c-5.7344 0-10.24-4.5056-10.24-10.24s4.5056-10.24 10.24-10.24h11.0592c5.7344 0 10.24 4.5056 10.24 10.24s-4.5056 10.24-10.24 10.24zM586.1376 915.456c-2.6624 0-5.3248-1.024-7.168-3.072l-33.3824-33.3824c-1.8432-1.8432-3.072-4.5056-3.072-7.168v-71.8848c0-5.7344 4.5056-10.24 10.24-10.24s10.24 4.5056 10.24 10.24v67.7888l30.3104 30.3104c4.096 4.096 4.096 10.4448 0 14.5408-2.048 1.8432-4.7104 2.8672-7.168 2.8672z" fill="#1C1D21" p-id="17930"></path><path d="M374.3744 910.7456c-5.7344 0-10.24-4.5056-10.24-10.24v-46.2848c0-2.6624 1.024-5.3248 3.072-7.168l54.4768-54.4768c4.096-4.096 10.4448-4.096 14.5408 0s4.096 10.4448 0 14.5408l-51.4048 51.4048v41.984c-0.2048 5.5296-4.7104 10.24-10.4448 10.24zM649.6256 910.7456c-5.7344 0-10.24-4.5056-10.24-10.24v-41.984l-51.4048-51.4048c-4.096-4.096-4.096-10.4448 0-14.5408s10.4448-4.096 14.5408 0l54.4768 54.4768c1.8432 1.8432 3.072 4.5056 3.072 7.168v46.2848c-0.2048 5.5296-4.9152 10.24-10.4448 10.24z" fill="#1C1D21" p-id="17931"></path><path d="M512 1024c-166.5024 0-323.1744-81.5104-419.2256-217.9072-2.2528-3.072-2.4576-7.168-0.6144-10.6496 1.8432-3.4816 5.3248-5.5296 9.0112-5.5296h821.6576c3.8912 0 7.3728 2.048 9.0112 5.5296 1.8432 3.4816 1.4336 7.5776-0.6144 10.6496C835.1744 942.4896 678.5024 1024 512 1024zM121.4464 810.3936C214.2208 931.6352 358.8096 1003.52 512 1003.52s297.7792-71.8848 390.5536-193.1264H121.4464zM520.3968 670.1056c-13.5168 0-25.8048-6.3488-33.5872-17.408-9.0112-12.6976-10.24-29.0816-3.072-43.008l27.648-53.6576c1.8432-3.4816 5.3248-5.5296 9.0112-5.5296s7.3728 2.048 9.0112 5.5296l27.648 53.6576c7.168 13.9264 5.9392 30.3104-3.072 43.008-7.7824 11.0592-20.0704 17.408-33.5872 17.408z m0-87.04l-18.6368 36.0448c-3.6864 6.9632-3.072 15.36 1.6384 21.7088 3.8912 5.5296 10.24 8.8064 16.9984 8.8064s13.1072-3.2768 16.9984-8.8064c4.5056-6.3488 5.12-14.7456 1.6384-21.7088l-18.6368-36.0448z" fill="#1C1D21" p-id="17932"></path><path d="M520.3968 809.984c-13.5168 0-25.8048-6.3488-33.5872-17.408-9.0112-12.6976-10.24-29.0816-3.072-43.008l27.648-53.6576c1.8432-3.4816 5.3248-5.5296 9.0112-5.5296s7.3728 2.048 9.0112 5.5296L557.056 749.568c7.168 13.9264 5.9392 30.3104-3.072 43.008-7.7824 11.0592-20.0704 17.408-33.5872 17.408z m0-86.8352l-18.6368 36.0448c-3.6864 6.9632-3.072 15.36 1.6384 21.7088 3.8912 5.5296 10.24 8.8064 16.9984 8.8064s13.1072-3.2768 16.9984-8.8064c4.5056-6.3488 5.12-14.7456 1.6384-21.7088l-18.6368-36.0448z" fill="#1C1D21" p-id="17933"></path><path d="M742.6048 299.4176m-67.9936 0a67.9936 67.9936 0 1 0 135.9872 0 67.9936 67.9936 0 1 0-135.9872 0Z" fill="#FF8939" p-id="17934"></path><path d="M742.6048 377.6512c-43.2128 0-78.2336-35.0208-78.2336-78.2336s35.0208-78.2336 78.2336-78.2336 78.2336 35.0208 78.2336 78.2336-35.0208 78.2336-78.2336 78.2336z m0-135.9872c-31.744 0-57.7536 25.8048-57.7536 57.7536s25.8048 57.7536 57.7536 57.7536c31.744 0 57.7536-25.8048 57.7536-57.7536S774.3488 241.664 742.6048 241.664zM742.6048 186.9824c-5.7344 0-10.24-4.5056-10.24-10.24v-9.216c0-5.7344 4.5056-10.24 10.24-10.24s10.24 4.5056 10.24 10.24v9.216c0 5.7344-4.5056 10.24-10.24 10.24zM742.6048 441.5488c-5.7344 0-10.24-4.5056-10.24-10.24v-9.216c0-5.7344 4.5056-10.24 10.24-10.24s10.24 4.5056 10.24 10.24v9.216c0 5.7344-4.5056 10.24-10.24 10.24zM829.44 223.0272c-2.6624 0-5.3248-1.024-7.168-3.072-4.096-4.096-4.096-10.4448 0-14.5408l6.5536-6.5536c4.096-4.096 10.4448-4.096 14.5408 0s4.096 10.4448 0 14.5408l-6.5536 6.5536c-2.2528 2.048-4.9152 3.072-7.3728 3.072zM649.4208 403.0464c-2.6624 0-5.3248-1.024-7.168-3.072-4.096-4.096-4.096-10.4448 0-14.5408l6.5536-6.5536c4.096-4.096 10.4448-4.096 14.5408 0s4.096 10.4448 0 14.5408l-6.5536 6.5536c-2.2528 2.048-4.9152 3.072-7.3728 3.072zM874.496 309.6576h-9.216c-5.7344 0-10.24-4.5056-10.24-10.24s4.5056-10.24 10.24-10.24h9.216c5.7344 0 10.24 4.5056 10.24 10.24s-4.7104 10.24-10.24 10.24zM619.9296 309.6576h-9.216c-5.7344 0-10.24-4.5056-10.24-10.24s4.5056-10.24 10.24-10.24h9.216c5.7344 0 10.24 4.5056 10.24 10.24s-4.5056 10.24-10.24 10.24zM835.7888 403.0464c-2.6624 0-5.3248-1.024-7.168-3.072l-6.5536-6.5536c-4.096-4.096-4.096-10.4448 0-14.5408s10.4448-4.096 14.5408 0l6.5536 6.5536c4.096 4.096 4.096 10.4448 0 14.5408-2.048 2.048-4.7104 3.072-7.3728 3.072zM655.7696 223.0272c-2.6624 0-5.3248-1.024-7.168-3.072l-6.5536-6.5536c-4.096-4.096-4.096-10.4448 0-14.5408s10.4448-4.096 14.5408 0l6.5536 6.5536c4.096 4.096 4.096 10.4448 0 14.5408-2.048 2.048-4.7104 3.072-7.3728 3.072z" fill="#1C1D21" p-id="17935"></path></svg>