<svg xmlns="http://www.w3.org/2000/svg" viewBox="0 0 1024 1024" version="1.1"><path d="M512 512m-501.76 0a501.76 501.76 0 1 0 1003.52 0 501.76 501.76 0 1 0-1003.52 0Z" fill="#8CEEF9" p-id="17569"></path><path d="M650.24 621.3632l-201.9328-201.9328c-18.2272-18.2272-47.7184-18.2272-65.9456 0L180.224 621.3632h470.016z" fill="#C67552" p-id="17570"></path><path d="M650.24 631.6032H180.224c-4.096 0-7.7824-2.4576-9.4208-6.3488-1.6384-3.8912-0.6144-8.192 2.2528-11.0592l75.5712-75.5712c4.096-4.096 10.4448-4.096 14.5408 0s4.096 10.4448 0 14.5408l-58.1632 58.1632h420.6592l-184.5248-184.5248c-14.1312-14.1312-37.2736-14.1312-51.6096 0l-26.8288 26.8288c-4.096 4.096-10.4448 4.096-14.5408 0s-4.096-10.4448 0-14.5408l26.8288-26.8288c22.1184-22.1184 58.368-22.1184 80.4864 0l201.9328 201.9328c2.8672 2.8672 3.8912 7.3728 2.2528 11.0592-1.4336 3.6864-5.12 6.3488-9.4208 6.3488z" fill="#1C1D21" p-id="17571"></path><path d="M512 1024c-136.8064 0-265.4208-53.248-362.0864-149.9136C53.248 777.4208 0 648.8064 0 512S53.248 246.5792 149.9136 149.9136C246.5792 53.248 375.1936 0 512 0s265.4208 53.248 362.0864 149.9136C970.752 246.5792 1024 375.1936 1024 512s-53.248 265.4208-149.9136 362.0864C777.4208 970.752 648.8064 1024 512 1024z m0-1003.52C241.0496 20.48 20.48 241.0496 20.48 512s220.5696 491.52 491.52 491.52 491.52-220.5696 491.52-491.52S782.9504 20.48 512 20.48z" fill="#1C1D21" p-id="17572"></path><path d="M738.9184 297.5744l-323.584 323.584h586.5472c7.7824-35.2256 11.8784-71.68 11.8784-109.3632 0-16.1792-0.8192-31.9488-2.2528-47.7184l-166.7072-166.7072c-29.2864-29.0816-76.5952-29.0816-105.8816 0.2048z" fill="#C67552" p-id="17573"></path><path d="M729.2928 375.6032c-2.6624 0-5.3248-1.024-7.168-3.072-4.096-4.096-4.096-10.4448 0-14.5408l38.7072-38.7072c4.096-4.096 10.4448-4.096 14.5408 0s4.096 10.4448 0 14.5408l-38.7072 38.7072c-2.2528 2.048-4.9152 3.072-7.3728 3.072zM696.7296 407.9616c-2.6624 0-5.3248-1.024-7.168-3.072-4.096-4.096-4.096-10.4448 0-14.5408l7.7824-7.7824c4.096-4.096 10.4448-4.096 14.5408 0s4.096 10.4448 0 14.5408l-7.7824 7.7824c-2.048 2.048-4.7104 3.072-7.3728 3.072zM476.5696 628.1216c-2.6624 0-5.3248-1.024-7.168-3.072-4.096-4.096-4.096-10.4448 0-14.5408l182.6816-182.6816c4.096-4.096 10.4448-4.096 14.5408 0s4.096 10.4448 0 14.5408l-182.6816 182.6816c-2.048 2.048-4.7104 3.072-7.3728 3.072z" fill="#FFA364" p-id="17574"></path><path d="M1001.8816 631.6032H415.3344c-4.096 0-7.7824-2.4576-9.4208-6.3488-1.6384-3.8912-0.6144-8.192 2.2528-11.0592l323.584-323.584c15.9744-15.9744 37.4784-24.9856 60.2112-24.9856 22.7328 0 44.032 8.8064 60.2112 24.9856l166.7072 166.7072c1.6384 1.6384 2.6624 3.8912 2.8672 6.3488 1.6384 16.384 2.2528 32.768 2.2528 48.7424 0 37.4784-4.096 74.9568-12.288 111.4112-1.024 4.3008-5.12 7.7824-9.8304 7.7824z m-561.7664-20.48h553.3696c6.5536-32.5632 10.0352-65.7408 10.0352-99.1232 0-14.1312-0.6144-28.672-1.8432-43.008L837.632 304.7424c-12.288-12.288-28.4672-18.8416-45.6704-18.8416s-33.3824 6.7584-45.6704 18.8416L440.1152 611.1232z" fill="#1C1D21" p-id="17575"></path><path d="M844.8 297.5744c-29.2864-29.2864-76.5952-29.2864-105.8816 0l-27.4432 27.4432c20.2752 20.6848 48.3328 33.5872 79.6672 33.5872 31.5392 0 60.0064-13.1072 80.2816-34.4064l-26.624-26.624zM415.3344 469.8112c23.1424 0 44.2368-9.0112 59.8016-23.7568l-26.8288-26.8288c-18.2272-18.2272-47.7184-18.2272-65.9456 0l-26.8288 26.8288c15.5648 14.7456 36.6592 23.7568 59.8016 23.7568z" fill="#FF8939" p-id="17576"></path><path d="M791.1424 368.8448c-32.9728 0-63.8976-13.1072-87.04-36.6592-3.8912-4.096-3.8912-10.4448 0-14.336l27.4432-27.4432c33.1776-33.1776 87.04-33.1776 120.2176 0l26.624 26.624c3.8912 3.8912 4.096 10.24 0.2048 14.336-22.7328 24.1664-54.0672 37.4784-87.4496 37.4784z m-64.9216-44.032c18.2272 15.36 40.7552 23.552 64.9216 23.552 24.3712 0 47.3088-8.6016 65.536-24.1664l-19.2512-19.2512c-25.1904-25.1904-66.1504-25.1904-91.3408 0l-19.8656 19.8656zM415.3344 480.0512c-24.9856 0-48.7424-9.4208-66.9696-26.4192-2.048-1.8432-3.2768-4.5056-3.2768-7.3728s1.024-5.5296 3.072-7.3728l26.8288-26.8288c22.1184-22.1184 58.368-22.1184 80.4864 0l26.8288 26.8288c2.048 2.048 3.072 4.7104 3.072 7.3728 0 2.8672-1.2288 5.3248-3.2768 7.3728-18.0224 16.9984-41.7792 26.4192-66.7648 26.4192zM370.688 445.44c12.9024 9.216 28.4672 14.1312 44.6464 14.1312s31.744-4.9152 44.6464-14.1312l-18.8416-18.8416c-14.1312-14.1312-37.2736-14.1312-51.6096 0l-18.8416 18.8416z" fill="#1C1D21" p-id="17577"></path><path d="M1004.544 607.4368c-9.6256-11.8784-24.576-19.456-40.96-19.456-16.5888 0-31.3344 7.5776-40.96 19.456-9.6256-11.8784-24.576-19.456-40.96-19.456s-31.3344 7.5776-40.96 19.456c-9.6256-11.8784-24.576-19.456-40.96-19.456-16.5888 0-31.3344 7.5776-40.96 19.456-9.6256-11.8784-24.576-19.456-40.96-19.456s-31.3344 7.5776-40.96 19.456c-9.6256-11.8784-24.576-19.456-40.96-19.456-16.5888 0-31.3344 7.5776-40.96 19.456-9.6256-11.8784-24.576-19.456-40.96-19.456s-31.3344 7.5776-40.96 19.456c-9.6256-11.8784-24.576-19.456-40.96-19.456-16.5888 0-31.3344 7.5776-40.96 19.456-9.6256-11.8784-24.576-19.456-40.96-19.456s-31.3344 7.5776-40.96 19.456c-9.6256-11.8784-24.576-19.456-40.96-19.456-16.5888 0-31.3344 7.5776-40.96 19.456-9.6256-11.8784-24.576-19.456-40.96-19.456-16.5888 0-31.3344 7.5776-40.96 19.456-9.6256-11.8784-24.576-19.456-40.96-19.456-16.5888 0-31.3344 7.5776-40.96 19.456-9.6256-11.8784-24.576-19.456-40.96-19.456s-31.3344 7.5776-40.96 19.456C63.8976 838.8608 267.4688 1013.76 512 1013.76s448.1024-174.8992 492.544-406.3232z" fill="#0ABFB2" p-id="17578"></path><path d="M512 1024C267.0592 1024 55.5008 849.7152 9.216 609.4848c-0.6144-3.072 0.2048-6.3488 2.4576-8.6016 12.0832-14.5408 29.9008-22.9376 48.7424-22.9376 15.1552 0 29.696 5.3248 40.96 15.1552 11.264-9.6256 25.8048-15.1552 40.96-15.1552s29.696 5.3248 40.96 15.1552c11.264-9.6256 25.8048-15.1552 40.96-15.1552s29.696 5.3248 40.96 15.1552c11.264-9.6256 25.8048-15.1552 40.96-15.1552s29.696 5.3248 40.96 15.1552c11.264-9.6256 25.8048-15.1552 40.96-15.1552s29.696 5.3248 40.96 15.1552c11.264-9.6256 25.8048-15.1552 40.96-15.1552s29.696 5.3248 40.96 15.1552c11.264-9.6256 25.8048-15.1552 40.96-15.1552s29.696 5.3248 40.96 15.1552c11.264-9.6256 25.8048-15.1552 40.96-15.1552s29.696 5.3248 40.96 15.1552c11.264-9.6256 25.8048-15.1552 40.96-15.1552s29.696 5.3248 40.96 15.1552c11.264-9.6256 25.8048-15.1552 40.96-15.1552s29.696 5.3248 40.96 15.1552c11.264-9.6256 25.8048-15.1552 40.96-15.1552s29.696 5.3248 40.96 15.1552c11.264-9.6256 25.8048-15.1552 40.96-15.1552 18.8416 0 36.4544 8.192 48.5376 22.7328 2.2528 2.2528 3.2768 5.7344 2.6624 9.0112C968.4992 849.7152 756.9408 1024 512 1024zM30.3104 610.5088C76.8 838.4512 278.528 1003.52 512 1003.52c233.472 0 435.2-165.0688 481.6896-393.0112-7.9872-7.7824-18.6368-12.288-30.1056-12.288-12.9024 0-24.9856 5.7344-33.1776 15.7696-1.8432 2.4576-4.9152 3.6864-7.9872 3.6864s-5.9392-1.4336-7.9872-3.6864c-8.192-10.0352-20.2752-15.7696-33.1776-15.7696s-24.9856 5.7344-33.1776 15.7696c-1.8432 2.4576-4.9152 3.6864-7.9872 3.6864s-5.9392-1.4336-7.9872-3.6864c-8.192-10.0352-20.2752-15.7696-33.1776-15.7696s-24.9856 5.7344-33.1776 15.7696c-1.8432 2.4576-4.9152 3.6864-7.9872 3.6864s-5.9392-1.4336-7.9872-3.6864c-8.192-10.0352-20.2752-15.7696-33.1776-15.7696s-24.9856 5.7344-33.1776 15.7696c-1.8432 2.4576-4.9152 3.6864-7.9872 3.6864s-5.9392-1.4336-7.9872-3.6864c-8.192-10.0352-20.2752-15.7696-33.1776-15.7696s-24.9856 5.7344-33.1776 15.7696c-1.8432 2.4576-4.9152 3.6864-7.9872 3.6864s-5.9392-1.4336-7.9872-3.6864c-8.192-10.0352-20.2752-15.7696-33.1776-15.7696s-24.9856 5.7344-33.1776 15.7696c-1.8432 2.4576-4.9152 3.6864-7.9872 3.6864s-5.9392-1.4336-7.9872-3.6864c-8.192-10.0352-20.2752-15.7696-33.1776-15.7696s-24.9856 5.7344-33.1776 15.7696c-1.8432 2.4576-4.9152 3.6864-7.9872 3.6864s-5.9392-1.4336-7.9872-3.6864c-8.192-10.0352-20.2752-15.7696-33.1776-15.7696s-24.9856 5.7344-33.1776 15.7696c-1.8432 2.4576-4.9152 3.6864-7.9872 3.6864s-5.9392-1.4336-7.9872-3.6864c-8.192-10.0352-20.2752-15.7696-33.1776-15.7696-12.9024 0-24.9856 5.7344-33.1776 15.7696-1.8432 2.4576-4.9152 3.6864-7.9872 3.6864s-5.9392-1.4336-7.9872-3.6864c-8.192-10.0352-20.2752-15.7696-33.1776-15.7696s-24.9856 5.7344-33.1776 15.7696c-1.8432 2.4576-4.9152 3.6864-7.9872 3.6864s-5.9392-1.4336-7.9872-3.6864c-8.192-10.0352-20.2752-15.7696-33.1776-15.7696-12.9024 0-24.9856 5.7344-33.1776 15.7696-1.8432 2.4576-4.9152 3.6864-7.9872 3.6864s-5.9392-1.4336-7.9872-3.6864c-8.192-10.0352-20.2752-15.7696-33.1776-15.7696-8.8064 0-19.6608 4.5056-27.648 12.288z" fill="#1C1D21" p-id="17579"></path><path d="M41.7792 687.3088C112.8448 877.9776 296.5504 1013.76 512 1013.76s399.1552-135.7824 470.2208-326.4512H41.7792z" fill="#D66112" p-id="17580"></path><path d="M512 1024c-106.496 0-208.4864-32.3584-295.1168-93.5936-84.7872-59.8016-148.48-142.7456-184.7296-239.616-1.2288-3.072-0.8192-6.7584 1.2288-9.4208s5.12-4.3008 8.3968-4.3008H526.336c5.7344 0 10.24 4.5056 10.24 10.24s-4.5056 10.24-10.24 10.24H56.7296C131.6864 881.2544 312.7296 1003.52 512 1003.52s380.3136-122.4704 455.2704-305.9712H736.256c-5.7344 0-10.24-4.5056-10.24-10.24s4.5056-10.24 10.24-10.24h245.9648c3.2768 0 6.5536 1.6384 8.3968 4.3008s2.4576 6.3488 1.2288 9.4208c-36.0448 96.8704-99.9424 179.6096-184.7296 239.616C720.4864 991.6416 618.496 1024 512 1024z" fill="#1C1D21" p-id="17581"></path><path d="M587.3664 697.5488H575.488c-5.7344 0-10.24-4.5056-10.24-10.24s4.5056-10.24 10.24-10.24h11.8784c5.7344 0 10.24 4.5056 10.24 10.24s-4.7104 10.24-10.24 10.24zM674.816 697.5488H643.072c-5.7344 0-10.24-4.5056-10.24-10.24s4.5056-10.24 10.24-10.24h31.9488c5.7344 0 10.24 4.5056 10.24 10.24s-4.7104 10.24-10.4448 10.24z" fill="#1C1D21" p-id="17582"></path><path d="M511.5904 1013.76c172.032 0 323.7888-86.6304 414.3104-218.5216v-6.144c-4.096 1.8432-8.6016 3.072-13.312 3.072-17.408 0-31.5392-14.1312-31.5392-31.5392 0 17.408-14.1312 31.5392-31.5392 31.5392s-31.5392-14.1312-31.5392-31.5392c0 17.408-14.1312 31.5392-31.5392 31.5392s-31.5392-14.1312-31.5392-31.5392c0 17.408-14.1312 31.5392-31.5392 31.5392s-31.5392-14.1312-31.5392-31.5392c0 17.408-14.1312 31.5392-31.5392 31.5392s-31.5392-14.1312-31.5392-31.5392c0 16.5888-12.9024 30.3104-29.2864 31.3344-16.7936-0.6144-30.3104-14.336-30.3104-31.5392 0 17.408-14.1312 31.5392-31.5392 31.5392s-31.5392-14.1312-31.5392-31.5392c0 17.408-14.1312 31.5392-31.5392 31.5392s-31.5392-14.1312-31.5392-31.5392c0 17.408-14.1312 31.5392-31.5392 31.5392s-31.5392-14.1312-31.5392-31.5392c0 17.408-14.1312 31.5392-31.5392 31.5392s-31.5392-14.1312-31.5392-31.5392c0 17.408-14.1312 31.5392-31.5392 31.5392s-31.5392-14.1312-31.5392-31.5392c0 17.408-14.1312 31.5392-31.5392 31.5392s-31.5392-14.1312-31.5392-31.5392c0 17.408-14.1312 31.5392-31.5392 31.5392s-31.5392-14.1312-31.5392-31.5392c0 16.5888-12.9024 30.3104-29.2864 31.3344l-0.2048 0.4096c-0.6144 1.2288-1.024 2.6624-1.6384 3.8912C188.6208 927.5392 339.968 1013.76 511.5904 1013.76z" fill="#508DEF" p-id="17583"></path><path d="M511.5904 1024c-168.5504 0-326.2464-82.944-421.888-222.0032-2.048-2.8672-2.2528-6.3488-1.024-9.6256 0.6144-1.4336 1.024-2.6624 1.6384-4.096 0.2048-0.6144 0.6144-1.2288 1.024-1.8432l0.2048-0.4096c1.8432-2.4576 4.5056-4.096 7.7824-4.3008 11.0592-0.8192 19.8656-10.0352 19.8656-21.0944 0-5.7344 4.5056-10.24 10.24-10.24s10.24 4.5056 10.24 10.24c0 11.6736 9.4208 21.2992 21.2992 21.2992S182.272 772.5056 182.272 760.6272c0-5.7344 4.5056-10.24 10.24-10.24s10.24 4.5056 10.24 10.24c0 11.6736 9.4208 21.2992 21.2992 21.2992s21.2992-9.4208 21.2992-21.2992c0-5.7344 4.5056-10.24 10.24-10.24s10.24 4.5056 10.24 10.24c0 11.6736 9.4208 21.2992 21.2992 21.2992s21.2992-9.4208 21.2992-21.2992c0-5.7344 4.5056-10.24 10.24-10.24s10.24 4.5056 10.24 10.24c0 11.6736 9.4208 21.2992 21.2992 21.2992s21.2992-9.4208 21.2992-21.2992c0-5.7344 4.5056-10.24 10.24-10.24s10.24 4.5056 10.24 10.24c0 11.6736 9.4208 21.2992 21.2992 21.2992s21.2992-9.4208 21.2992-21.2992c0-5.7344 4.5056-10.24 10.24-10.24s10.24 4.5056 10.24 10.24c0 11.6736 9.4208 21.2992 21.2992 21.2992s21.2992-9.4208 21.2992-21.2992c0-5.7344 4.5056-10.24 10.24-10.24s10.24 4.5056 10.24 10.24c0 11.6736 9.4208 21.2992 21.2992 21.2992s21.2992-9.4208 21.2992-21.2992c0-5.7344 4.5056-10.24 10.24-10.24s10.24 4.5056 10.24 10.24c0 11.264 8.6016 20.2752 19.6608 21.0944 11.0592-0.8192 19.6608-10.0352 19.6608-21.0944 0-5.7344 4.5056-10.24 10.24-10.24s10.24 4.5056 10.24 10.24c0 11.6736 9.4208 21.2992 21.2992 21.2992s21.2992-9.4208 21.2992-21.2992c0-5.7344 4.5056-10.24 10.24-10.24s10.24 4.5056 10.24 10.24c0 11.6736 9.4208 21.2992 21.2992 21.2992s21.2992-9.4208 21.2992-21.2992c0-5.7344 4.5056-10.24 10.24-10.24s10.24 4.5056 10.24 10.24c0 11.6736 9.4208 21.2992 21.2992 21.2992s21.2992-9.4208 21.2992-21.2992c0-5.7344 4.5056-10.24 10.24-10.24s10.24 4.5056 10.24 10.24c0 11.6736 9.4208 21.2992 21.2992 21.2992s21.2992-9.4208 21.2992-21.2992c0-5.7344 4.5056-10.24 10.24-10.24s10.24 4.5056 10.24 10.24c0 11.6736 9.4208 21.2992 21.2992 21.2992 3.072 0 6.144-0.6144 9.0112-2.048 3.072-1.4336 6.7584-1.2288 9.6256 0.6144s4.7104 4.9152 4.9152 8.3968v6.3488c0 2.048-0.6144 4.096-1.8432 5.7344C838.656 940.6464 680.7552 1024 511.5904 1024zM113.0496 799.5392c92.3648 128 240.64 203.9808 398.7456 203.9808 157.0816 0 304.128-74.9568 396.6976-201.3184-10.8544-1.024-20.6848-6.3488-27.4432-14.1312-7.5776 8.8064-18.8416 14.336-31.5392 14.336s-23.7568-5.5296-31.5392-14.336c-7.5776 8.8064-18.8416 14.336-31.5392 14.336s-23.7568-5.5296-31.5392-14.336c-7.5776 8.8064-18.8416 14.336-31.5392 14.336s-23.7568-5.5296-31.5392-14.336c-7.5776 8.8064-18.8416 14.336-31.5392 14.336-12.4928 0-23.7568-5.5296-31.5392-14.336-6.7584 7.7824-16.5888 13.1072-27.4432 14.1312-0.6144 0.2048-1.4336 0.2048-2.048 0.2048-12.0832-0.4096-22.7328-5.9392-30.1056-14.336-7.5776 8.8064-18.8416 14.336-31.3344 14.336-12.4928 0-23.7568-5.5296-31.5392-14.336-7.5776 8.8064-18.8416 14.336-31.5392 14.336s-23.7568-5.5296-31.5392-14.336c-7.5776 8.8064-18.8416 14.336-31.5392 14.336s-23.7568-5.5296-31.5392-14.336c-7.5776 8.8064-18.8416 14.336-31.5392 14.336s-23.7568-5.5296-31.5392-14.336c-7.5776 8.8064-18.8416 14.336-31.5392 14.336s-23.7568-5.5296-31.5392-14.336c-7.5776 8.8064-18.8416 14.336-31.5392 14.336s-23.7568-5.5296-31.5392-14.336c-7.5776 8.8064-18.8416 14.336-31.5392 14.336-12.4928 0-23.7568-5.5296-31.5392-14.336-2.8672 4.9152-8.6016 9.0112-14.7456 11.4688z" fill="#1C1D21" p-id="17584"></path><path d="M375.808 898.6624c-8.3968 0-15.9744-3.2768-21.9136-8.3968-5.7344 5.3248-13.5168 8.3968-21.9136 8.3968-8.6016 0-16.384-3.2768-22.1184-8.8064-5.7344 5.5296-13.5168 8.8064-22.1184 8.8064-5.7344 0-10.24-4.5056-10.24-10.24s4.5056-10.24 10.24-10.24c6.5536 0 11.8784-5.3248 11.8784-11.8784 0-5.7344 4.5056-10.24 10.24-10.24s10.24 4.5056 10.24 10.24c0 6.5536 5.3248 11.8784 11.8784 11.8784 5.5296 0 10.0352-3.6864 11.4688-8.8064-0.2048-1.024-0.2048-2.048-0.2048-3.2768 0-5.7344 4.5056-10.24 10.24-10.24h0.6144c5.7344 0 10.24 4.5056 10.24 10.24 0 1.024 0 2.048-0.2048 3.2768 1.4336 4.9152 5.9392 8.8064 11.4688 8.8064 5.7344 0 10.24 4.5056 10.24 10.24s-4.5056 10.24-10.0352 10.24zM736.256 898.6624c-8.3968 0-15.9744-3.2768-21.9136-8.3968-5.7344 5.3248-13.5168 8.3968-21.9136 8.3968-8.6016 0-16.384-3.2768-22.1184-8.8064-5.7344 5.5296-13.5168 8.8064-22.1184 8.8064-5.7344 0-10.24-4.5056-10.24-10.24s4.5056-10.24 10.24-10.24c6.5536 0 11.8784-5.3248 11.8784-11.8784 0-5.7344 4.5056-10.24 10.24-10.24s10.24 4.5056 10.24 10.24c0 6.5536 5.3248 11.8784 11.8784 11.8784 5.5296 0 10.0352-3.6864 11.4688-8.8064-0.2048-1.024-0.2048-2.048-0.2048-3.2768 0-5.7344 4.5056-10.24 10.24-10.24h0.6144c5.7344 0 10.24 4.5056 10.24 10.24 0 1.024 0 2.048-0.2048 3.2768 1.4336 4.9152 5.9392 8.8064 11.4688 8.8064 5.7344 0 10.24 4.5056 10.24 10.24s-4.5056 10.24-10.0352 10.24zM416.9728 898.6624h-4.5056c-5.7344 0-10.24-4.5056-10.24-10.24s4.5056-10.24 10.24-10.24h4.5056c5.7344 0 10.24 4.5056 10.24 10.24s-4.5056 10.24-10.24 10.24zM611.328 898.6624h-4.5056c-5.7344 0-10.24-4.5056-10.24-10.24s4.5056-10.24 10.24-10.24h4.5056c5.7344 0 10.24 4.5056 10.24 10.24s-4.5056 10.24-10.24 10.24z" fill="#1C1D21" p-id="17585"></path><path d="M268.6976 154.2144c10.24 0 18.6368 8.3968 18.6368 18.6368s-8.3968 18.6368-18.6368 18.6368h-8.192c-14.5408 0-26.4192 11.8784-26.4192 26.4192 0 14.5408 11.8784 26.4192 26.4192 26.4192h220.5696c14.5408 0 26.4192-11.8784 26.4192-26.4192 0-14.5408-11.8784-26.4192-26.4192-26.4192h-132.5056c-10.24 0-18.6368-8.3968-18.6368-18.6368s8.3968-18.6368 18.6368-18.6368h9.4208c19.6608 0 35.6352-15.9744 35.6352-35.6352 0-19.6608-15.9744-35.6352-35.6352-35.6352h-106.2912C218.5216 103.2192 188.0064 126.976 160.3584 154.2144h108.3392z" fill="#FFECE9" p-id="17586"></path><path d="M415.3344 254.3616h-13.312c-5.7344 0-10.24-4.5056-10.24-10.24s4.5056-10.24 10.24-10.24h13.312c5.7344 0 10.24 4.5056 10.24 10.24s-4.5056 10.24-10.24 10.24z" fill="#1C1D21" p-id="17587"></path><path d="M481.0752 254.3616H452.608c-5.7344 0-10.24-4.5056-10.24-10.24s4.5056-10.24 10.24-10.24h28.4672c9.0112 0 16.1792-7.168 16.1792-16.1792s-7.168-16.1792-16.1792-16.1792h-132.5056c-15.9744 0-28.8768-12.9024-28.8768-28.8768s12.9024-28.8768 28.8768-28.8768h9.4208c13.9264 0 25.3952-11.4688 25.3952-25.3952s-11.4688-25.3952-25.3952-25.3952h-103.424c-24.1664 14.7456-46.8992 31.744-68.1984 50.7904h82.3296c15.9744 0 28.8768 12.9024 28.8768 28.8768s-12.9024 28.8768-28.8768 28.8768h-8.192c-9.0112 0-16.1792 7.168-16.1792 16.1792s7.168 16.1792 16.1792 16.1792h99.1232c5.7344 0 10.24 4.5056 10.24 10.24s-4.5056 10.24-10.24 10.24h-99.1232c-20.2752 0-36.6592-16.384-36.6592-36.6592s16.384-36.6592 36.6592-36.6592h8.192c4.5056 0 8.3968-3.6864 8.3968-8.3968s-3.6864-8.3968-8.3968-8.3968H160.3584c-4.096 0-7.9872-2.4576-9.4208-6.3488s-0.6144-8.192 2.2528-11.264c28.2624-27.648 59.5968-52.224 93.184-72.704 1.6384-1.024 3.4816-1.4336 5.3248-1.4336h106.2912c25.1904 0 45.8752 20.48 45.8752 45.8752s-20.48 45.8752-45.8752 45.8752h-9.4208c-4.5056 0-8.3968 3.6864-8.3968 8.3968s3.6864 8.3968 8.3968 8.3968h132.5056c20.2752 0 36.6592 16.384 36.6592 36.6592s-16.5888 36.6592-36.6592 36.6592z" fill="#1C1D21" p-id="17588"></path><path d="M592.4864 82.944h-86.8352c-19.8656 0-36.864 16.384-36.4544 36.2496 0.4096 19.2512 16.1792 34.816 35.6352 34.816h87.6544c19.6608 0 35.6352-15.9744 35.6352-35.6352 0-19.456-15.9744-35.4304-35.6352-35.4304z" fill="#FFECE9" p-id="17589"></path><path d="M592.4864 164.4544h-87.6544c-24.7808 0-45.2608-20.0704-45.8752-45.056-0.2048-12.0832 4.5056-23.7568 13.1072-32.5632 8.8064-9.0112 21.0944-14.1312 33.5872-14.1312h32.1536c5.7344 0 10.24 4.5056 10.24 10.24s-4.5056 10.24-10.24 10.24h-32.1536c-7.168 0-13.9264 2.8672-19.0464 7.9872-4.7104 4.9152-7.3728 11.264-7.168 17.8176 0.2048 13.7216 11.6736 24.7808 25.3952 24.7808h87.6544c13.9264 0 25.3952-11.4688 25.3952-25.3952s-11.4688-25.3952-25.3952-25.3952h-17.2032c-5.7344 0-10.24-4.5056-10.24-10.24s4.5056-10.24 10.24-10.24h17.2032c25.1904 0 45.8752 20.48 45.8752 45.8752s-20.6848 46.08-45.8752 46.08z" fill="#1C1D21" p-id="17590"></path><path d="M312.32 289.9968L286.72 339.968c-4.9152 9.6256-4.096 21.2992 2.2528 30.1056 11.4688 16.1792 35.4304 16.1792 47.104 0 6.3488-8.8064 7.168-20.48 2.2528-30.1056l-26.0096-49.9712zM312.32 448.512L286.72 498.2784c-4.9152 9.6256-4.096 21.2992 2.2528 30.1056 11.4688 16.1792 35.4304 16.1792 47.104 0 6.3488-8.8064 7.168-20.48 2.2528-30.1056L312.32 448.512z" fill="#508DEF" p-id="17591"></path><path d="M312.32 392.192c-12.6976 0-24.3712-5.9392-31.744-16.384-8.6016-12.0832-9.6256-27.648-2.8672-40.7552l25.6-49.7664c1.8432-3.4816 5.3248-5.5296 9.0112-5.5296s7.3728 2.048 9.0112 5.5296l25.6 49.7664c6.7584 13.1072 5.5296 28.672-2.8672 40.7552-7.3728 10.4448-18.8416 16.384-31.744 16.384z m0-79.6672l-16.5888 32.1536c-3.2768 6.144-2.6624 13.7216 1.4336 19.456 3.4816 4.9152 9.0112 7.7824 15.1552 7.7824s11.6736-2.8672 15.1552-7.7824c4.096-5.7344 4.7104-13.1072 1.4336-19.456l-16.5888-32.1536zM312.32 550.7072c-12.6976 0-24.3712-5.9392-31.744-16.384-8.6016-12.0832-9.6256-27.648-2.8672-40.7552l25.6-49.7664c1.8432-3.4816 5.3248-5.5296 9.0112-5.5296s7.3728 2.048 9.0112 5.5296l25.6 49.7664c6.7584 13.1072 5.5296 28.672-2.8672 40.7552-7.3728 10.24-18.8416 16.384-31.744 16.384z m0-79.872l-16.5888 32.1536c-3.2768 6.144-2.6624 13.7216 1.4336 19.456 3.4816 4.9152 9.0112 7.7824 15.1552 7.7824s11.6736-2.8672 15.1552-7.7824c4.096-5.7344 4.7104-13.1072 1.4336-19.456l-16.5888-32.1536z" fill="#1C1D21" p-id="17592"></path></svg>