<svg xmlns="http://www.w3.org/2000/svg" viewBox="0 0 1024 1024" version="1.1"><path d="M512 512m-501.76 0a501.76 501.76 0 1 0 1003.52 0 501.76 501.76 0 1 0-1003.52 0Z" fill="#8CEEF9" p-id="16034"></path><path d="M512 1024c-136.8064 0-265.4208-53.248-362.0864-149.9136C53.248 777.4208 0 648.8064 0 512S53.248 246.5792 149.9136 149.9136C246.5792 53.248 375.1936 0 512 0s265.4208 53.248 362.0864 149.9136C970.752 246.5792 1024 375.1936 1024 512s-53.248 265.4208-149.9136 362.0864C777.4208 970.752 648.8064 1024 512 1024z m0-1003.52C241.0496 20.48 20.48 241.0496 20.48 512s220.5696 491.52 491.52 491.52 491.52-220.5696 491.52-491.52S782.9504 20.48 512 20.48z" fill="#1C1D21" p-id="16035"></path><path d="M163.0208 872.448c90.3168 87.4496 213.4016 141.312 348.9792 141.312s258.6624-53.8624 348.9792-141.312H163.0208z" fill="#C67552" p-id="16036"></path><path d="M512 1024c-133.7344 0-260.096-51.2-356.1472-144.1792-3.072-2.8672-3.8912-7.3728-2.4576-11.264 1.6384-3.8912 5.3248-6.3488 9.4208-6.3488h697.9584c4.096 0 7.9872 2.4576 9.4208 6.3488 1.6384 3.8912 0.6144 8.3968-2.4576 11.264C772.096 972.8 645.7344 1024 512 1024zM189.2352 882.688c89.4976 78.0288 203.1616 120.832 322.7648 120.832 119.6032 0 233.2672-42.8032 322.7648-120.832H189.2352z" fill="#1C1D21" p-id="16037"></path><path d="M372.736 380.928v28.0576c-33.792 5.5296-60.8256 30.9248-69.0176 63.6928h-5.5296c-15.7696 0-28.4672 12.6976-28.4672 28.4672s12.6976 28.4672 28.4672 28.4672h2.8672v57.5488h-2.8672c-15.7696 0-28.4672 12.6976-28.4672 28.4672s12.6976 28.4672 28.4672 28.4672h2.8672v57.5488h-2.8672c-15.7696 0-28.4672 12.6976-28.4672 28.4672s12.6976 28.4672 28.4672 28.4672h2.8672v57.5488h-2.8672c-15.7696 0-28.4672 12.6976-28.4672 28.4672s12.6976 28.4672 28.4672 28.4672H725.4016c15.7696 0 28.4672-12.6976 28.4672-28.4672s-12.6976-28.4672-28.4672-28.4672h-2.8672v-57.5488h2.8672c15.7696 0 28.4672-12.6976 28.4672-28.4672s-12.6976-28.4672-28.4672-28.4672h-2.8672v-57.5488h2.8672c15.7696 0 28.4672-12.6976 28.4672-28.4672s-12.6976-28.4672-28.4672-28.4672h-2.8672v-57.5488h2.8672c15.7696 0 28.4672-12.6976 28.4672-28.4672s-12.6976-28.4672-28.4672-28.4672h-5.5296c-8.192-32.768-35.2256-58.1632-69.0176-63.6928V380.928" fill="#ABD1FF" p-id="16038"></path><path d="M722.7392 565.8624c-5.7344 0-10.24-4.5056-10.24-10.24v-26.2144c0-5.7344 4.5056-10.24 10.24-10.24h2.8672c10.0352 0 18.2272-8.192 18.2272-18.2272s-8.192-18.2272-18.2272-18.2272h-5.5296c-4.7104 0-8.8064-3.2768-10.0352-7.7824-7.168-29.0816-31.1296-51.2-60.8256-56.1152-4.9152-0.8192-8.6016-5.12-8.6016-10.0352V380.928c0-5.7344 4.5056-10.24 10.24-10.24s10.24 4.5056 10.24 10.24v19.6608c31.1296 8.192 56.1152 31.3344 66.3552 61.8496 20.2752 1.2288 36.4544 18.0224 36.4544 38.5024 0 18.8416-13.5168 34.4064-31.3344 37.888v16.7936c0.4096 5.7344-4.096 10.24-9.8304 10.24zM301.2608 565.8624c-5.7344 0-10.24-4.5056-10.24-10.24v-16.7936c-17.8176-3.4816-31.3344-19.0464-31.3344-37.888 0-20.48 16.1792-37.4784 36.4544-38.5024 10.4448-30.5152 35.2256-53.6576 66.3552-61.8496V380.928c0-5.7344 4.5056-10.24 10.24-10.24s10.24 4.5056 10.24 10.24v28.0576c0 4.9152-3.6864 9.216-8.6016 10.0352-29.696 4.9152-53.4528 27.0336-60.8256 56.1152-1.2288 4.5056-5.3248 7.7824-10.0352 7.7824h-5.5296c-10.0352 0-18.2272 8.192-18.2272 18.2272s8.192 18.2272 18.2272 18.2272h2.8672c5.7344 0 10.24 4.5056 10.24 10.24v26.2144c0.4096 5.5296-4.096 10.0352-9.8304 10.0352z" fill="#1C1D21" p-id="16039"></path><path d="M512 10.24C386.4576 10.24 271.5648 56.32 183.7056 132.7104c9.6256 11.8784 24.576 19.456 40.96 19.456 16.5888 0 31.3344-7.5776 40.96-19.456 9.6256 11.8784 24.576 19.456 40.96 19.456s31.3344-7.5776 40.96-19.456c9.6256 11.8784 24.576 19.456 40.96 19.456 16.5888 0 31.3344-7.5776 40.96-19.456 9.6256 11.8784 24.576 19.456 40.96 19.456s31.3344-7.5776 40.96-19.456c9.6256 11.8784 24.576 19.456 40.96 19.456 16.5888 0 31.3344-7.5776 40.96-19.456 9.6256 11.8784 24.576 19.456 40.96 19.456s31.3344-7.5776 40.96-19.456c9.6256 11.8784 24.576 19.456 40.96 19.456 16.5888 0 31.3344-7.5776 40.96-19.456 9.6256 11.8784 24.576 19.456 40.96 19.456 16.5888 0 31.3344-7.5776 40.96-19.456C752.4352 56.32 637.5424 10.24 512 10.24z" fill="#FFECE9" p-id="16040"></path><path d="M799.3344 162.4064c-15.1552 0-29.696-5.3248-40.96-15.1552-11.264 9.6256-25.8048 15.1552-40.96 15.1552s-29.696-5.3248-40.96-15.1552c-11.264 9.6256-25.8048 15.1552-40.96 15.1552s-29.696-5.3248-40.96-15.1552c-11.264 9.6256-25.8048 15.1552-40.96 15.1552s-29.696-5.3248-40.96-15.1552c-11.264 9.6256-25.8048 15.1552-40.96 15.1552s-29.696-5.3248-40.96-15.1552c-11.264 9.6256-25.8048 15.1552-40.96 15.1552s-29.696-5.3248-40.96-15.1552c-11.264 9.6256-25.8048 15.1552-40.96 15.1552s-29.696-5.3248-40.96-15.1552c-11.264 9.6256-25.8048 15.1552-40.96 15.1552-19.0464 0-36.864-8.3968-48.9472-23.1424-3.4816-4.3008-3.072-10.6496 1.2288-14.1312C269.9264 44.4416 388.9152 0 512 0c123.0848 0 242.0736 44.4416 335.0528 124.928 4.096 3.6864 4.7104 10.0352 1.2288 14.1312-12.0832 14.7456-29.9008 23.3472-48.9472 23.3472z m-40.96-40.1408c3.072 0 5.9392 1.4336 7.9872 3.6864 8.192 10.0352 20.2752 15.7696 33.1776 15.7696 9.4208 0 18.432-3.072 25.8048-8.6016-88.064-72.704-198.8608-112.64-313.344-112.64-114.4832 0-225.28 39.936-313.1392 112.64 7.3728 5.5296 16.384 8.6016 25.8048 8.6016 12.9024 0 24.9856-5.7344 33.1776-15.7696 1.8432-2.4576 4.9152-3.6864 7.9872-3.6864s5.9392 1.4336 7.9872 3.6864c8.192 10.0352 20.2752 15.7696 33.1776 15.7696 12.9024 0 24.9856-5.7344 33.1776-15.7696 1.8432-2.4576 4.9152-3.6864 7.9872-3.6864s5.9392 1.4336 7.9872 3.6864c8.192 10.0352 20.2752 15.7696 33.1776 15.7696s24.9856-5.7344 33.1776-15.7696c1.8432-2.4576 4.9152-3.6864 7.9872-3.6864s5.9392 1.4336 7.9872 3.6864c8.192 10.0352 20.2752 15.7696 33.1776 15.7696 12.9024 0 24.9856-5.7344 33.1776-15.7696 1.8432-2.4576 4.9152-3.6864 7.9872-3.6864s5.9392 1.4336 7.9872 3.6864c8.192 10.0352 20.2752 15.7696 33.1776 15.7696s24.9856-5.7344 33.1776-15.7696c1.8432-2.4576 4.9152-3.6864 7.9872-3.6864s5.9392 1.4336 7.9872 3.6864c8.192 10.0352 20.2752 15.7696 33.1776 15.7696 12.9024 0 24.9856-5.7344 33.1776-15.7696 1.8432-2.4576 4.9152-3.6864 7.9872-3.6864s5.9392 1.4336 7.9872 3.6864c8.192 10.0352 20.2752 15.7696 33.1776 15.7696s24.9856-5.7344 33.1776-15.7696c0.4096-2.2528 3.4816-3.6864 6.5536-3.6864z" fill="#1C1D21" p-id="16041"></path><path d="M454.0416 184.9344l-25.6 49.7664c-4.9152 9.6256-4.096 21.2992 2.2528 30.1056 11.4688 16.1792 35.4304 16.1792 47.104 0 6.3488-8.8064 7.168-20.48 2.2528-30.1056l-26.0096-49.7664z" fill="#508DEF" p-id="16042"></path><path d="M454.0416 286.9248c-12.6976 0-24.3712-5.9392-31.744-16.384-8.6016-12.0832-9.6256-27.648-2.8672-40.7552L444.8256 180.224c1.8432-3.4816 5.3248-5.5296 9.0112-5.5296s7.3728 2.048 9.0112 5.5296l25.6 49.7664c6.7584 13.1072 5.5296 28.672-2.8672 40.7552-7.168 10.24-18.8416 16.1792-31.5392 16.1792z m0-79.6672l-16.5888 32.1536c-3.2768 6.144-2.6624 13.7216 1.4336 19.456 3.4816 4.9152 9.0112 7.7824 15.1552 7.7824s11.6736-2.8672 15.1552-7.7824c4.096-5.7344 4.7104-13.1072 1.4336-19.456l-16.5888-32.1536z" fill="#1C1D21" p-id="16043"></path><path d="M569.9584 184.9344l-25.6 49.7664c-4.9152 9.6256-4.096 21.2992 2.2528 30.1056 11.4688 16.1792 35.4304 16.1792 47.104 0 6.3488-8.8064 7.168-20.48 2.2528-30.1056l-26.0096-49.7664z" fill="#508DEF" p-id="16044"></path><path d="M569.9584 286.9248c-12.9024 0-24.3712-5.9392-31.744-16.384-8.6016-12.0832-9.6256-27.648-2.8672-40.7552L560.9472 180.224c1.8432-3.4816 5.3248-5.5296 9.0112-5.5296s7.3728 2.048 9.0112 5.5296l25.6 49.7664c6.7584 13.1072 5.5296 28.672-2.8672 40.7552-7.168 10.24-18.8416 16.1792-31.744 16.1792z m0-79.6672l-16.5888 32.1536c-3.2768 6.144-2.6624 13.7216 1.4336 19.456 3.4816 4.9152 9.0112 7.7824 15.1552 7.7824s11.6736-2.8672 15.1552-7.7824c4.096-5.7344 4.7104-13.1072 1.4336-19.456l-16.5888-32.1536z" fill="#1C1D21" p-id="16045"></path><path d="M454.0416 314.9824l-25.6 49.7664c-4.9152 9.6256-4.096 21.2992 2.2528 30.1056 11.4688 16.1792 35.4304 16.1792 47.104 0 6.3488-8.8064 7.168-20.48 2.2528-30.1056l-26.0096-49.7664z" fill="#508DEF" p-id="16046"></path><path d="M454.0416 416.9728c-12.6976 0-24.3712-5.9392-31.744-16.384-8.6016-12.0832-9.6256-27.648-2.8672-40.7552l25.6-49.7664c1.8432-3.4816 5.3248-5.5296 9.0112-5.5296s7.3728 2.048 9.0112 5.5296l25.6 49.7664c6.7584 13.1072 5.5296 28.672-2.8672 40.7552-7.3728 10.4448-19.0464 16.384-31.744 16.384z m0-79.6672l-16.5888 32.1536c-3.2768 6.144-2.6624 13.7216 1.4336 19.456 3.4816 4.9152 9.0112 7.7824 15.1552 7.7824s11.6736-2.8672 15.1552-7.7824c4.096-5.7344 4.7104-13.1072 1.4336-19.456l-16.5888-32.1536z" fill="#1C1D21" p-id="16047"></path><path d="M569.9584 314.9824l-25.6 49.7664c-4.9152 9.6256-4.096 21.2992 2.2528 30.1056 11.4688 16.1792 35.4304 16.1792 47.104 0 6.3488-8.8064 7.168-20.48 2.2528-30.1056l-26.0096-49.7664z" fill="#508DEF" p-id="16048"></path><path d="M569.9584 416.9728c-12.9024 0-24.3712-5.9392-31.744-16.384-8.6016-12.0832-9.6256-27.648-2.8672-40.7552l25.6-49.7664c1.8432-3.4816 5.3248-5.5296 9.0112-5.5296s7.3728 2.048 9.0112 5.5296l25.6 49.7664c6.7584 13.1072 5.5296 28.672-2.8672 40.7552-7.168 10.4448-18.8416 16.384-31.744 16.384z m0-79.6672l-16.5888 32.1536c-3.2768 6.144-2.6624 13.7216 1.4336 19.456 3.4816 4.9152 9.0112 7.7824 15.1552 7.7824s11.6736-2.8672 15.1552-7.7824c4.096-5.7344 4.7104-13.1072 1.4336-19.456l-16.5888-32.1536z" fill="#1C1D21" p-id="16049"></path><path d="M512 420.0448l-25.6 49.7664c-4.9152 9.6256-4.096 21.2992 2.2528 30.1056 11.4688 16.1792 35.4304 16.1792 47.104 0 6.3488-8.8064 7.168-20.48 2.2528-30.1056L512 420.0448z" fill="#508DEF" p-id="16050"></path><path d="M512 522.24c-12.6976 0-24.3712-5.9392-31.744-16.384-8.6016-12.0832-9.6256-27.648-2.8672-40.7552l25.6-49.7664c1.8432-3.4816 5.3248-5.5296 9.0112-5.5296s7.3728 2.048 9.0112 5.5296l25.6 49.7664c6.7584 13.1072 5.5296 28.672-2.8672 40.7552-7.3728 10.4448-19.0464 16.384-31.744 16.384z m0-79.872l-16.5888 32.1536c-3.2768 6.144-2.6624 13.7216 1.4336 19.456 3.4816 4.9152 9.0112 7.7824 15.1552 7.7824s11.6736-2.8672 15.1552-7.7824c4.096-5.7344 4.7104-13.1072 1.4336-19.456L512 442.368z" fill="#1C1D21" p-id="16051"></path><path d="M840.2944 725.1968l-25.6 49.7664c-4.9152 9.6256-4.096 21.2992 2.2528 30.1056 11.4688 16.1792 35.4304 16.1792 47.104 0 6.3488-8.8064 7.168-20.48 2.2528-30.1056l-26.0096-49.7664z" fill="#508DEF" p-id="16052"></path><path d="M840.2944 827.392c-12.6976 0-24.3712-5.9392-31.744-16.384-8.6016-12.0832-9.6256-27.648-2.8672-40.7552l25.6-49.7664c1.8432-3.4816 5.3248-5.5296 9.0112-5.5296 3.8912 0 7.3728 2.048 9.0112 5.5296l25.6 49.7664c6.7584 13.1072 5.5296 28.672-2.8672 40.7552-7.168 10.4448-18.8416 16.384-31.744 16.384z m0-79.872l-16.5888 32.1536c-3.2768 6.144-2.6624 13.7216 1.4336 19.456 3.4816 4.9152 9.0112 7.7824 15.1552 7.7824s11.6736-2.8672 15.1552-7.7824c4.096-5.7344 4.7104-13.1072 1.4336-19.456l-16.5888-32.1536z" fill="#1C1D21" p-id="16053"></path><path d="M840.704 586.9568H722.7392V538.624c0 16.5888-13.5168 30.1056-30.1056 30.1056s-30.1056-13.5168-30.1056-30.1056c0 16.5888-13.5168 30.1056-30.1056 30.1056s-30.1056-13.5168-30.1056-30.1056c0 16.5888-13.5168 30.1056-30.1056 30.1056s-30.1056-13.5168-30.1056-30.1056c0 16.5888-13.5168 30.1056-30.1056 30.1056s-30.1056-13.5168-30.1056-30.1056c0 16.5888-13.5168 30.1056-30.1056 30.1056s-30.1056-13.5168-30.1056-30.1056c0 16.5888-13.5168 30.1056-30.1056 30.1056s-30.1056-13.5168-30.1056-30.1056c0 16.5888-13.5168 30.1056-30.1056 30.1056s-30.1056-13.5168-30.1056-30.1056v48.5376h-2.048c-15.36 0-28.4672 11.6736-29.0816 27.0336-0.8192 16.384 12.288 29.696 28.2624 29.696h2.8672v57.5488h-2.8672c-15.7696 0-28.4672 12.6976-28.4672 28.4672s12.6976 28.4672 28.4672 28.4672h2.8672v57.5488h-2.8672c-15.7696 0-28.4672 12.6976-28.4672 28.4672s12.6976 28.4672 28.4672 28.4672H725.6064c15.7696 0 28.4672-12.6976 28.4672-28.4672s-12.6976-28.4672-28.4672-28.4672h-2.8672v-57.5488h2.8672c15.7696 0 28.4672-12.6976 28.4672-28.4672s-12.6976-28.4672-28.4672-28.4672h-2.8672v-57.5488h80.4864c7.3728 0 13.312 5.9392 13.312 13.312v22.1184h52.6336v-63.8976c-0.2048-15.7696-12.9024-28.4672-28.4672-28.4672z" fill="#508DEF" p-id="16054"></path><path d="M342.2208 604.16c-5.7344 0-10.24-4.5056-10.24-10.24v-26.624c0-5.7344 4.5056-10.24 10.24-10.24s10.24 4.5056 10.24 10.24v26.624c0 5.7344-4.5056 10.24-10.24 10.24zM342.2208 649.8304c-5.7344 0-10.24-4.5056-10.24-10.24v-8.192c0-5.7344 4.5056-10.24 10.24-10.24s10.24 4.5056 10.24 10.24v8.192c0 5.7344-4.5056 10.24-10.24 10.24zM342.2208 882.688c-5.7344 0-10.24-4.5056-10.24-10.24v-193.1264c0-5.7344 4.5056-10.24 10.24-10.24s10.24 4.5056 10.24 10.24V872.448c0 5.7344-4.5056 10.24-10.24 10.24z" fill="#ABD1FF" p-id="16055"></path><path d="M725.6064 882.688H298.3936c-21.2992 0-38.7072-17.408-38.7072-38.7072 0-18.8416 13.5168-34.4064 31.3344-37.888v-38.5024c-17.8176-3.4816-31.3344-19.0464-31.3344-37.888s13.5168-34.4064 31.3344-37.888V653.312c-7.7824-1.4336-14.9504-5.3248-20.6848-11.264-7.3728-7.7824-11.0592-17.8176-10.6496-28.4672 0.8192-17.8176 13.9264-32.3584 31.1296-35.84V538.624c0-5.7344 4.5056-10.24 10.24-10.24s10.24 4.5056 10.24 10.24c0 10.8544 9.0112 19.8656 19.8656 19.8656s19.8656-9.0112 19.8656-19.8656c0-5.7344 4.5056-10.24 10.24-10.24s10.24 4.5056 10.24 10.24c0 10.8544 9.0112 19.8656 19.8656 19.8656 10.8544 0 19.8656-9.0112 19.8656-19.8656 0-5.7344 4.5056-10.24 10.24-10.24s10.24 4.5056 10.24 10.24c0 10.8544 9.0112 19.8656 19.8656 19.8656 10.8544 0 19.8656-9.0112 19.8656-19.8656 0-5.7344 4.5056-10.24 10.24-10.24s10.24 4.5056 10.24 10.24c0 10.8544 9.0112 19.8656 19.8656 19.8656s19.8656-9.0112 19.8656-19.8656c0-5.7344 4.5056-10.24 10.24-10.24s10.24 4.5056 10.24 10.24c0 10.8544 9.0112 19.8656 19.8656 19.8656 10.8544 0 19.8656-9.0112 19.8656-19.8656 0-5.7344 4.5056-10.24 10.24-10.24s10.24 4.5056 10.24 10.24c0 10.8544 9.0112 19.8656 19.8656 19.8656 10.8544 0 19.8656-9.0112 19.8656-19.8656 0-5.7344 4.5056-10.24 10.24-10.24s10.24 4.5056 10.24 10.24c0 10.8544 9.0112 19.8656 19.8656 19.8656 10.8544 0 19.8656-9.0112 19.8656-19.8656 0-5.7344 4.5056-10.24 10.24-10.24s10.24 4.5056 10.24 10.24v38.2976h107.7248c21.2992 0 38.7072 17.408 38.7072 38.7072v63.8976c0 5.7344-4.5056 10.24-10.24 10.24h-52.6336c-5.7344 0-10.24-4.5056-10.24-10.24V657.408c0-1.6384-1.4336-3.072-3.072-3.072h-70.2464V692.224c17.8176 3.4816 31.3344 19.0464 31.3344 37.888s-13.5168 34.4064-31.3344 37.888v38.5024c17.8176 3.4816 31.3344 19.0464 31.3344 37.888 0.2048 20.8896-17.2032 38.2976-38.5024 38.2976z m-427.2128-56.7296c-10.0352 0-18.2272 8.192-18.2272 18.2272s8.192 18.2272 18.2272 18.2272h427.2128c10.0352 0 18.2272-8.192 18.2272-18.2272s-8.192-18.2272-18.2272-18.2272h-2.8672c-5.7344 0-10.24-4.5056-10.24-10.24v-57.5488c0-5.7344 4.5056-10.24 10.24-10.24h2.8672c10.0352 0 18.2272-8.192 18.2272-18.2272s-8.192-18.2272-18.2272-18.2272h-2.8672c-5.7344 0-10.24-4.5056-10.24-10.24v-57.5488c0-5.7344 4.5056-10.24 10.24-10.24h80.4864c12.9024 0 23.552 10.6496 23.552 23.552v11.8784h32.1536v-53.6576c0-10.0352-8.192-18.2272-18.2272-18.2272h-117.9648c-5.7344 0-10.24-4.5056-10.24-10.24V573.44c-5.9392 3.2768-12.6976 5.3248-19.8656 5.3248-11.8784 0-22.7328-5.3248-30.1056-13.5168-7.3728 8.192-18.2272 13.5168-30.1056 13.5168s-22.7328-5.3248-30.1056-13.5168c-7.3728 8.192-18.2272 13.5168-30.1056 13.5168s-22.7328-5.3248-30.1056-13.5168c-7.3728 8.192-18.2272 13.5168-30.1056 13.5168s-22.7328-5.3248-30.1056-13.5168c-7.3728 8.192-18.2272 13.5168-30.1056 13.5168s-22.7328-5.3248-30.1056-13.5168c-7.3728 8.192-18.2272 13.5168-30.1056 13.5168s-22.7328-5.3248-30.1056-13.5168c-7.3728 8.192-18.2272 13.5168-30.1056 13.5168-7.168 0-13.9264-1.8432-19.8656-5.3248v13.312c0 5.7344-4.5056 10.24-10.24 10.24h-2.048c-10.0352 0-18.432 7.7824-18.8416 17.2032-0.2048 5.12 1.4336 9.8304 4.9152 13.312 3.4816 3.6864 8.192 5.5296 13.1072 5.5296h2.8672c5.7344 0 10.24 4.5056 10.24 10.24v57.5488c0 5.7344-4.5056 10.24-10.24 10.24h-2.8672c-10.0352 0-18.2272 8.192-18.2272 18.2272s8.192 18.2272 18.2272 18.2272h2.8672c5.7344 0 10.24 4.5056 10.24 10.24v57.5488c0 5.7344-4.5056 10.24-10.24 10.24h-2.8672z" fill="#1C1D21" p-id="16056"></path><path d="M722.7392 643.6864h80.4864c7.3728 0 13.312 5.9392 13.312 13.312v22.1184h52.6336v-63.8976c0-15.7696-12.6976-28.4672-28.4672-28.4672H722.7392v56.9344z" fill="#FF8939" p-id="16057"></path><path d="M868.9664 689.5616h-52.6336c-5.7344 0-10.24-4.5056-10.24-10.24v-22.1184c0-1.6384-1.4336-3.072-3.072-3.072h-80.4864c-5.7344 0-10.24-4.5056-10.24-10.24v-56.7296c0-5.7344 4.5056-10.24 10.24-10.24h117.9648c21.2992 0 38.7072 17.408 38.7072 38.7072v63.8976c0 5.3248-4.5056 10.0352-10.24 10.0352z m-42.1888-20.48h32.1536v-53.6576c0-10.0352-8.192-18.2272-18.2272-18.2272h-107.7248v36.2496h70.2464c12.9024 0 23.552 10.6496 23.552 23.552v12.0832z" fill="#1C1D21" p-id="16058"></path><path d="M796.672 597.1968c-5.7344 0-10.24-4.5056-10.24-10.24v-37.6832c0-5.7344 4.5056-10.24 10.24-10.24s10.24 4.5056 10.24 10.24v37.6832c0 5.7344-4.5056 10.24-10.24 10.24z" fill="#1C1D21" p-id="16059"></path><path d="M825.7536 559.7184h-57.9584c-5.7344 0-10.24-4.5056-10.24-10.24s4.5056-10.24 10.24-10.24h57.9584c5.7344 0 10.24 4.5056 10.24 10.24s-4.7104 10.24-10.24 10.24z" fill="#1C1D21" p-id="16060"></path><path d="M464.2816 671.1296m-31.1296 0a31.1296 31.1296 0 1 0 62.2592 0 31.1296 31.1296 0 1 0-62.2592 0Z" fill="#ABD1FF" p-id="16061"></path><path d="M592.6912 783.36m-21.504 0a21.504 21.504 0 1 0 43.008 0 21.504 21.504 0 1 0-43.008 0Z" fill="#ABD1FF" p-id="16062"></path><path d="M625.8688 670.72m-21.504 0a21.504 21.504 0 1 0 43.008 0 21.504 21.504 0 1 0-43.008 0Z" fill="#ABD1FF" p-id="16063"></path><path d="M464.2816 712.4992c-22.7328 0-41.3696-18.6368-41.3696-41.3696s18.6368-41.3696 41.3696-41.3696 41.3696 18.6368 41.3696 41.3696c0 22.9376-18.6368 41.3696-41.3696 41.3696z m0-62.2592c-11.4688 0-20.8896 9.4208-20.8896 20.8896s9.4208 20.8896 20.8896 20.8896 20.8896-9.4208 20.8896-20.8896-9.4208-20.8896-20.8896-20.8896zM592.6912 815.104c-17.408 0-31.744-14.1312-31.744-31.744s14.1312-31.744 31.744-31.744 31.744 14.1312 31.744 31.744-14.336 31.744-31.744 31.744z m0-43.008c-6.144 0-11.264 5.12-11.264 11.264s5.12 11.264 11.264 11.264 11.264-5.12 11.264-11.264-5.12-11.264-11.264-11.264zM625.8688 702.464c-17.408 0-31.744-14.1312-31.744-31.744S608.256 638.976 625.8688 638.976s31.744 14.1312 31.744 31.744-14.1312 31.744-31.744 31.744z m0-42.8032c-6.144 0-11.264 5.12-11.264 11.264s5.12 11.264 11.264 11.264 11.264-5.12 11.264-11.264c0-6.3488-4.9152-11.264-11.264-11.264zM372.5312 353.6896c-5.7344 0-10.24-4.5056-10.24-10.24v-10.24c0-5.7344 4.5056-10.24 10.24-10.24s10.24 4.5056 10.24 10.24v10.24c0 5.5296-4.7104 10.24-10.24 10.24zM651.4688 353.6896c-5.7344 0-10.24-4.5056-10.24-10.24v-10.24c0-5.7344 4.5056-10.24 10.24-10.24s10.24 4.5056 10.24 10.24v10.24c0 5.5296-4.5056 10.24-10.24 10.24zM372.5312 310.8864c-5.7344 0-10.24-4.5056-10.24-10.24v-10.24c0-5.7344 4.5056-10.24 10.24-10.24s10.24 4.5056 10.24 10.24v10.24c0 5.7344-4.7104 10.24-10.24 10.24zM651.4688 310.8864c-5.7344 0-10.24-4.5056-10.24-10.24v-10.24c0-5.7344 4.5056-10.24 10.24-10.24s10.24 4.5056 10.24 10.24v10.24c0 5.7344-4.5056 10.24-10.24 10.24z" fill="#1C1D21" p-id="16064"></path></svg>