<svg xmlns="http://www.w3.org/2000/svg" viewBox="0 0 1024 1024" version="1.1"><path d="M512 512m-501.76 0a501.76 501.76 0 1 0 1003.52 0 501.76 501.76 0 1 0-1003.52 0Z" fill="#8CEEF9" p-id="18071"></path><path d="M397.1072 438.0672H530.432v126.976h-133.3248z" fill="#C67552" p-id="18072"></path><path d="M530.432 575.2832h-133.3248c-5.7344 0-10.24-4.5056-10.24-10.24v-126.976c0-5.7344 4.5056-10.24 10.24-10.24H530.432c5.7344 0 10.24 4.5056 10.24 10.24v126.976c0 5.5296-4.5056 10.24-10.24 10.24z m-123.0848-20.48H520.192v-106.496h-112.8448v106.496z" fill="#1C1D21" p-id="18073"></path><path d="M354.9184 177.152c2.8672-4.096 4.3008-9.0112 4.3008-14.336 0-5.12-1.6384-10.0352-4.096-14.1312 6.144-5.7344 10.0352-13.9264 10.0352-23.1424 0-17.408-14.1312-31.5392-31.5392-31.5392s-31.5392 14.1312-31.5392 31.5392c0 9.216 3.8912 17.408 10.0352 23.1424-2.6624 4.096-4.096 8.8064-4.096 14.1312 0 5.3248 1.6384 10.24 4.3008 14.336" fill="#AAADAD" p-id="18074"></path><path d="M354.9184 187.392c-2.048 0-3.8912-0.6144-5.7344-1.8432-4.7104-3.072-5.9392-9.6256-2.6624-14.1312 1.6384-2.4576 2.6624-5.5296 2.6624-8.6016s-0.8192-5.9392-2.4576-8.3968c-2.6624-4.096-2.048-9.6256 1.6384-13.1072 4.5056-4.096 6.7584-9.6256 6.7584-15.7696 0-11.8784-9.6256-21.2992-21.2992-21.2992s-21.2992 9.6256-21.2992 21.2992c0 5.9392 2.4576 11.6736 6.7584 15.7696 3.6864 3.4816 4.3008 9.0112 1.6384 13.1072-1.6384 2.4576-2.4576 5.5296-2.4576 8.3968 0 3.072 0.8192 6.144 2.6624 8.6016 3.072 4.7104 1.8432 11.0592-2.6624 14.1312s-11.0592 1.8432-14.1312-2.6624c-4.096-5.9392-6.144-12.9024-6.144-20.0704 0-4.3008 0.8192-8.3968 2.2528-12.4928-5.3248-7.168-8.192-15.7696-8.192-24.7808 0-23.1424 18.8416-41.7792 41.7792-41.7792s41.7792 18.8416 41.7792 41.7792c0 9.0112-2.8672 17.6128-8.192 24.7808 1.4336 3.8912 2.2528 8.192 2.2528 12.4928 0 7.168-2.048 14.1312-6.144 20.0704-2.2528 2.8672-5.5296 4.5056-8.8064 4.5056z" fill="#1C1D21" p-id="18075"></path><path d="M231.0144 238.7968c2.048-3.072 3.2768-6.7584 3.2768-10.6496 0-3.8912-1.2288-7.3728-3.072-10.4448 4.7104-4.3008 7.5776-10.4448 7.5776-17.2032 0-12.9024-10.4448-23.552-23.552-23.552S191.6928 187.5968 191.6928 200.704c0 6.7584 2.8672 12.9024 7.5776 17.2032-2.048 3.072-3.072 6.5536-3.072 10.4448 0 3.8912 1.2288 7.5776 3.2768 10.6496" fill="#E0E0E0" p-id="18076"></path><path d="M199.4752 249.0368c-3.2768 0-6.5536-1.6384-8.3968-4.5056-3.2768-4.9152-4.9152-10.4448-4.9152-16.384 0-3.072 0.4096-5.9392 1.4336-8.8064-3.6864-5.5296-5.7344-12.0832-5.7344-18.8416 0-18.6368 15.1552-33.792 33.792-33.792s33.792 15.1552 33.792 33.792c0 6.7584-2.048 13.312-5.7344 18.8416 0.8192 2.8672 1.4336 5.7344 1.4336 8.8064 0 5.9392-1.6384 11.4688-4.9152 16.384-3.072 4.7104-9.6256 5.9392-14.1312 2.6624-4.7104-3.072-5.9392-9.6256-2.6624-14.1312 1.024-1.4336 1.4336-3.072 1.4336-4.9152 0-1.6384-0.4096-3.2768-1.4336-4.7104-2.6624-4.096-2.048-9.6256 1.6384-13.1072 2.6624-2.4576 4.3008-5.9392 4.3008-9.6256 0-7.3728-5.9392-13.312-13.312-13.312S202.752 193.3312 202.752 200.704c0 3.6864 1.4336 7.168 4.3008 9.6256 3.6864 3.4816 4.3008 9.0112 1.6384 13.1072-1.024 1.4336-1.4336 3.072-1.4336 4.7104 0 1.8432 0.6144 3.4816 1.4336 4.9152 3.072 4.7104 1.8432 11.0592-2.6624 14.1312-2.6624 1.4336-4.7104 1.8432-6.5536 1.8432z" fill="#1C1D21" p-id="18077"></path><path d="M512 1024c-136.8064 0-265.4208-53.248-362.0864-149.9136C53.248 777.4208 0 648.8064 0 512S53.248 246.5792 149.9136 149.9136C246.5792 53.248 375.1936 0 512 0s265.4208 53.248 362.0864 149.9136C970.752 246.5792 1024 375.1936 1024 512s-53.248 265.4208-149.9136 362.0864C777.4208 970.752 648.8064 1024 512 1024z m0-1003.52C241.0496 20.48 20.48 241.0496 20.48 512s220.5696 491.52 491.52 491.52 491.52-220.5696 491.52-491.52S782.9504 20.48 512 20.48z" fill="#1C1D21" p-id="18078"></path><path d="M428.8512 694.4768V474.112c0-20.0704-16.1792-36.2496-36.2496-36.2496H132.3008c-20.0704 0-36.2496 16.1792-36.2496 36.2496v220.3648h332.8z" fill="#C67552" p-id="18079"></path><path d="M428.8512 704.7168H96.0512c-5.7344 0-10.24-4.5056-10.24-10.24v-128.2048c0-5.7344 4.5056-10.24 10.24-10.24s10.24 4.5056 10.24 10.24v117.9648h312.32V474.112c0-14.336-11.6736-26.0096-26.0096-26.0096H132.3008c-14.336 0-26.0096 11.6736-26.0096 26.0096v10.6496c0 5.7344-4.5056 10.24-10.24 10.24s-10.24-4.5056-10.24-10.24v-10.6496c0-25.6 20.8896-46.4896 46.4896-46.4896h260.3008c25.6 0 46.4896 20.8896 46.4896 46.4896v220.3648c0 5.7344-4.7104 10.24-10.24 10.24z" fill="#1C1D21" p-id="18080"></path><path d="M96.0512 535.9616c-5.7344 0-10.24-4.5056-10.24-10.24v-8.192c0-5.7344 4.5056-10.24 10.24-10.24s10.24 4.5056 10.24 10.24v8.192c0 5.5296-4.5056 10.24-10.24 10.24z" fill="#1C1D21" p-id="18081"></path><path d="M137.0112 679.936c-5.7344 0-10.24-4.5056-10.24-10.24v-139.0592c0-5.7344 4.5056-10.24 10.24-10.24s10.24 4.5056 10.24 10.24V669.696c0 5.7344-4.5056 10.24-10.24 10.24z" fill="#FFA364" p-id="18082"></path><path d="M189.0304 295.1168l-11.6736 142.9504h75.776l-11.6736-142.9504zM307.4048 295.1168l-11.8784 142.9504h75.9808l-11.6736-142.9504z" fill="#FFECE9" p-id="18083"></path><path d="M185.1392 342.4256l-3.8912 47.104h67.9936l-3.8912-47.104zM303.5136 342.4256l-3.8912 47.104h67.9936l-3.8912-47.104z" fill="#FF3E63" p-id="18084"></path><path d="M253.1328 448.3072h-75.776c-2.8672 0-5.5296-1.2288-7.5776-3.2768-1.8432-2.048-2.8672-4.9152-2.6624-7.7824l11.6736-142.7456c0.4096-5.3248 4.9152-9.4208 10.24-9.4208h52.4288c5.3248 0 9.8304 4.096 10.24 9.4208l11.6736 142.7456c0.2048 2.8672-0.8192 5.7344-2.6624 7.7824s-4.7104 3.2768-7.5776 3.2768z m-64.7168-20.48h53.6576l-10.0352-122.2656H198.4512L188.416 427.8272zM371.5072 448.3072h-75.9808c-2.8672 0-5.5296-1.2288-7.5776-3.2768-1.8432-2.048-2.8672-4.9152-2.6624-7.7824l11.6736-142.7456c0.4096-5.3248 4.9152-9.4208 10.24-9.4208h52.4288c5.3248 0 9.8304 4.096 10.24 9.4208l11.6736 142.7456c0.2048 2.8672-0.8192 5.7344-2.6624 7.7824s-4.5056 3.2768-7.3728 3.2768z m-64.7168-20.48H360.448l-10.0352-122.2656h-33.5872l-10.0352 122.2656z" fill="#1C1D21" p-id="18085"></path><path d="M249.2416 399.7696H181.248c-2.8672 0-5.5296-1.2288-7.5776-3.2768-1.8432-2.048-2.8672-4.9152-2.6624-7.7824l3.8912-47.104c0.4096-5.3248 4.9152-9.4208 10.24-9.4208h60.2112c5.3248 0 9.8304 4.096 10.24 9.4208l3.8912 47.104c0.2048 2.8672-0.8192 5.7344-2.6624 7.7824-2.048 2.048-4.7104 3.2768-7.5776 3.2768z m-56.9344-20.48h45.6704l-2.2528-26.624H194.56l-2.2528 26.624zM367.616 399.7696h-67.9936c-2.8672 0-5.5296-1.2288-7.5776-3.2768-1.8432-2.048-2.8672-4.9152-2.6624-7.7824l3.8912-47.104c0.4096-5.3248 4.9152-9.4208 10.24-9.4208h60.2112c5.3248 0 9.8304 4.096 10.24 9.4208l3.8912 47.104c0.2048 2.8672-0.8192 5.7344-2.6624 7.7824-2.048 2.048-4.7104 3.2768-7.5776 3.2768z m-56.9344-20.48H356.352l-2.2528-26.624h-41.3696l-2.048 26.624z" fill="#1C1D21" p-id="18086"></path><path d="M227.328 566.4768H166.0928c-5.7344 0-10.24-4.5056-10.24-10.24v-61.2352c0-5.7344 4.5056-10.24 10.24-10.24H227.328c5.7344 0 10.24 4.5056 10.24 10.24v61.2352c0 5.5296-4.5056 10.24-10.24 10.24z" fill="#8CEEF9" p-id="18087"></path><path d="M164.6592 566.4768c-4.7104 0-8.6016-3.8912-8.6016-8.6016V493.568c0-4.7104 3.8912-8.6016 8.6016-8.6016h64.3072c4.7104 0 8.6016 3.8912 8.6016 8.6016l-72.9088 72.9088z" fill="#FFECE9" p-id="18088"></path><path d="M356.352 566.4768h-61.2352c-5.7344 0-10.24-4.5056-10.24-10.24v-61.2352c0-5.7344 4.5056-10.24 10.24-10.24H356.352c5.7344 0 10.24 4.5056 10.24 10.24v61.2352c0 5.5296-4.5056 10.24-10.24 10.24z" fill="#8CEEF9" p-id="18089"></path><path d="M293.4784 566.4768c-4.7104 0-8.6016-3.8912-8.6016-8.6016V493.568c0-4.7104 3.8912-8.6016 8.6016-8.6016h64.3072c4.7104 0 8.6016 3.8912 8.6016 8.6016l-72.9088 72.9088z" fill="#FFECE9" p-id="18090"></path><path d="M356.352 576.7168h-61.2352c-11.264 0-20.48-9.216-20.48-20.48v-61.2352c0-11.264 9.216-20.48 20.48-20.48H356.352c11.264 0 20.48 9.216 20.48 20.48v61.2352c0 11.264-9.216 20.48-20.48 20.48z m-61.2352-81.7152v61.2352H356.352v-61.2352h-61.2352z" fill="#1C1D21" p-id="18091"></path><path d="M499.9168 501.5552a63.488 30.5152 90 1 0 61.0304 0 63.488 30.5152 90 1 0-61.0304 0Z" fill="#AA4D2D" p-id="18092"></path><path d="M530.432 575.2832c-23.1424 0-40.7552-31.744-40.7552-73.728s17.408-73.728 40.7552-73.728 40.7552 31.744 40.7552 73.728-17.408 73.728-40.7552 73.728z m0-126.976c-7.9872 0-20.2752 21.2992-20.2752 53.248s12.0832 53.248 20.2752 53.248 20.2752-21.2992 20.2752-53.248-12.0832-53.248-20.2752-53.248z" fill="#1C1D21" p-id="18093"></path><path d="M568.5248 498.4832h-7.5776l-60.8256 0.2048v2.8672c0 35.0208 13.7216 63.488 30.5152 63.488h29.0816c19.6608 0 35.6352 15.9744 35.6352 35.6352v94.208l83.1488-0.6144v-86.2208c0-60.6208-49.3568-109.7728-109.9776-109.568z" fill="#AAADAD" p-id="18094"></path><path d="M595.3536 705.1264c-2.6624 0-5.3248-1.024-7.168-3.072-1.8432-1.8432-3.072-4.5056-3.072-7.168v-94.208c0-13.9264-11.4688-25.3952-25.3952-25.3952H530.432c-23.1424 0-40.7552-31.744-40.7552-73.728v-3.072c0.2048-5.5296 4.7104-10.0352 10.24-10.0352l68.4032-0.2048h0.4096c31.9488 0 62.0544 12.4928 84.5824 35.0208 22.7328 22.7328 35.2256 52.8384 35.2256 84.7872V694.272c0 5.5296-4.5056 10.24-10.24 10.24l-82.944 0.6144z m-84.7872-196.4032c1.6384 27.8528 12.4928 45.8752 20.0704 45.8752h29.0816c25.3952 0 45.8752 20.6848 45.8752 45.8752v83.968l62.6688-0.4096v-75.9808c0-26.624-10.4448-51.6096-29.2864-70.4512-18.8416-18.6368-43.6224-29.0816-70.2464-29.0816h-0.4096l-57.7536 0.2048z m57.9584-10.24z" fill="#1C1D21" p-id="18095"></path><path d="M969.728 669.696c-22.9376 0-41.5744-18.6368-41.5744-41.5744 0 22.9376-18.6368 41.5744-41.5744 41.5744-22.9376 0-41.5744-18.6368-41.5744-41.5744 0 22.9376-18.6368 41.5744-41.5744 41.5744-22.9376 0-41.5744-18.6368-41.5744-41.5744 0 22.9376-18.6368 41.5744-41.5744 41.5744-22.9376 0-41.5744-18.6368-41.5744-41.5744 0 22.9376-18.6368 41.5744-41.5744 41.5744s-41.5744-18.6368-41.5744-41.5744c0 22.9376-18.6368 41.5744-41.5744 41.5744s-41.5744-18.6368-41.5744-41.5744c0 22.9376-18.6368 41.5744-41.5744 41.5744-22.9376 0-41.5744-18.6368-41.5744-41.5744 0 22.9376-18.6368 41.5744-41.5744 41.5744s-41.5744-18.6368-41.5744-41.5744c0 22.9376-18.6368 41.5744-41.5744 41.5744s-41.5744-18.6368-41.5744-41.5744c0 22.9376-18.6368 41.5744-41.5744 41.5744-22.9376 0-41.5744-18.6368-41.5744-41.5744 0 22.9376-18.6368 41.5744-41.5744 41.5744-22.9376 0-41.5744-18.6368-41.5744-41.5744 0 22.9376-18.6368 41.5744-41.5744 41.5744-7.5776 0-14.7456-2.048-20.8896-5.7344C98.0992 866.9184 287.9488 1013.76 512 1013.76s413.696-146.8416 478.208-349.3888c-6.144 3.4816-13.1072 5.3248-20.48 5.3248z" fill="#AAADAD" p-id="18096"></path><path d="M512 1024c-110.7968 0-216.4736-34.816-305.152-100.7616-87.04-64.7168-150.3232-153.1904-182.8864-256-1.2288-4.096 0-8.3968 3.2768-11.0592 3.2768-2.6624 7.9872-3.072 11.4688-0.8192 4.7104 2.8672 10.24 4.3008 15.7696 4.3008 17.2032 0 31.3344-14.1312 31.3344-31.3344 0-5.7344 4.5056-10.24 10.24-10.24s10.24 4.5056 10.24 10.24c0 17.2032 14.1312 31.3344 31.3344 31.3344s31.3344-14.1312 31.3344-31.3344c0-5.7344 4.5056-10.24 10.24-10.24s10.24 4.5056 10.24 10.24c0 17.2032 14.1312 31.3344 31.3344 31.3344s31.3344-14.1312 31.3344-31.3344c0-5.7344 4.5056-10.24 10.24-10.24s10.24 4.5056 10.24 10.24c0 17.2032 14.1312 31.3344 31.3344 31.3344s31.3344-14.1312 31.3344-31.3344c0-5.7344 4.5056-10.24 10.24-10.24s10.24 4.5056 10.24 10.24c0 17.2032 14.1312 31.3344 31.3344 31.3344s31.3344-14.1312 31.3344-31.3344c0-5.7344 4.5056-10.24 10.24-10.24s10.24 4.5056 10.24 10.24c0 17.2032 14.1312 31.3344 31.3344 31.3344s31.3344-14.1312 31.3344-31.3344c0-5.7344 4.5056-10.24 10.24-10.24s10.24 4.5056 10.24 10.24c0 17.2032 14.1312 31.3344 31.3344 31.3344s31.3344-14.1312 31.3344-31.3344c0-5.7344 4.5056-10.24 10.24-10.24s10.24 4.5056 10.24 10.24c0 17.2032 14.1312 31.3344 31.3344 31.3344s31.3344-14.1312 31.3344-31.3344c0-5.7344 4.5056-10.24 10.24-10.24s10.24 4.5056 10.24 10.24c0 17.2032 14.1312 31.3344 31.3344 31.3344s31.3344-14.1312 31.3344-31.3344c0-5.7344 4.5056-10.24 10.24-10.24s10.24 4.5056 10.24 10.24c0 17.2032 14.1312 31.3344 31.3344 31.3344s31.3344-14.1312 31.3344-31.3344c0-5.7344 4.5056-10.24 10.24-10.24s10.24 4.5056 10.24 10.24c0 17.2032 14.1312 31.3344 31.3344 31.3344s31.3344-14.1312 31.3344-31.3344c0-5.7344 4.5056-10.24 10.24-10.24s10.24 4.5056 10.24 10.24c0 17.2032 14.1312 31.3344 31.3344 31.3344 5.3248 0 10.8544-1.4336 15.5648-4.096 3.6864-2.048 8.192-1.6384 11.4688 1.024 3.2768 2.6624 4.5056 6.9632 3.2768 11.0592-32.768 102.8096-96.0512 191.2832-182.8864 255.7952C728.2688 989.184 622.7968 1024 512 1024zM49.9712 679.7312C120.2176 874.2912 303.5136 1003.52 512 1003.52s391.7824-129.2288 462.0288-323.7888c-1.4336 0.2048-3.072 0.2048-4.5056 0.2048-16.9984 0-32.1536-8.192-41.5744-20.8896-9.4208 12.6976-24.576 20.8896-41.5744 20.8896s-32.1536-8.192-41.5744-20.8896c-9.4208 12.6976-24.576 20.8896-41.5744 20.8896s-32.1536-8.192-41.5744-20.8896c-9.4208 12.6976-24.576 20.8896-41.5744 20.8896s-32.1536-8.192-41.5744-20.8896c-9.4208 12.6976-24.576 20.8896-41.5744 20.8896s-32.1536-8.192-41.5744-20.8896c-9.4208 12.6976-24.576 20.8896-41.5744 20.8896s-32.1536-8.192-41.5744-20.8896c-9.4208 12.6976-24.576 20.8896-41.5744 20.8896s-32.1536-8.192-41.5744-20.8896c-9.4208 12.6976-24.576 20.8896-41.5744 20.8896s-32.1536-8.192-41.5744-20.8896c-9.4208 12.6976-24.576 20.8896-41.5744 20.8896s-32.1536-8.192-41.5744-20.8896c-9.4208 12.6976-24.576 20.8896-41.5744 20.8896s-32.1536-8.192-41.5744-20.8896C169.984 671.744 154.8288 679.936 137.8304 679.936s-32.1536-8.192-41.5744-20.8896C86.8352 671.744 71.68 679.936 54.6816 679.936c-1.6384 0-3.2768 0-4.7104-0.2048z" fill="#1C1D21" p-id="18097"></path><path d="M137.0112 500.5312c-5.7344 0-10.24-4.5056-10.24-10.24v-8.6016c0-5.7344 4.5056-10.24 10.24-10.24s10.24 4.5056 10.24 10.24v8.6016c0 5.5296-4.5056 10.24-10.24 10.24z" fill="#FFA364" p-id="18098"></path><path d="M227.328 576.7168H166.0928c-11.264 0-20.48-9.216-20.48-20.48v-61.2352c0-11.264 9.216-20.48 20.48-20.48H227.328c11.264 0 20.48 9.216 20.48 20.48v61.2352c0 11.264-9.216 20.48-20.48 20.48z m-61.2352-81.7152v61.2352H227.328v-61.2352H166.0928z" fill="#1C1D21" p-id="18099"></path><path d="M349.3888 238.7968c2.048-3.072 3.2768-6.7584 3.2768-10.6496 0-3.8912-1.2288-7.3728-3.072-10.4448 4.7104-4.3008 7.5776-10.4448 7.5776-17.2032 0-12.9024-10.4448-23.552-23.552-23.552s-23.552 10.4448-23.552 23.552c0 6.7584 2.8672 12.9024 7.5776 17.2032-2.048 3.072-3.072 6.5536-3.072 10.4448 0 3.8912 1.2288 7.5776 3.2768 10.6496" fill="#E0E0E0" p-id="18100"></path><path d="M349.3888 249.0368c-2.048 0-3.8912-0.6144-5.7344-1.8432-4.7104-3.072-5.9392-9.6256-2.6624-14.1312 1.024-1.4336 1.4336-3.072 1.4336-4.9152 0-1.6384-0.4096-3.2768-1.4336-4.7104-2.6624-4.096-2.048-9.6256 1.6384-13.1072 2.6624-2.4576 4.3008-5.9392 4.3008-9.6256 0-7.3728-5.9392-13.312-13.312-13.312s-13.312 5.9392-13.312 13.312c0 3.6864 1.4336 7.168 4.3008 9.6256 3.6864 3.4816 4.3008 9.0112 1.6384 13.1072-1.024 1.4336-1.4336 3.072-1.4336 4.7104 0 1.8432 0.6144 3.4816 1.4336 4.9152 3.072 4.7104 1.8432 11.0592-2.6624 14.1312-4.7104 3.072-11.0592 1.8432-14.1312-2.6624-3.2768-4.9152-4.9152-10.4448-4.9152-16.384 0-3.072 0.4096-5.9392 1.4336-8.8064-3.6864-5.5296-5.7344-12.0832-5.7344-18.8416 0-18.6368 15.1552-33.792 33.792-33.792s33.792 15.1552 33.792 33.792c0 6.7584-2.048 13.312-5.7344 18.8416 0.8192 2.8672 1.4336 5.7344 1.4336 8.8064 0 5.9392-1.6384 11.4688-4.9152 16.384-2.6624 3.072-5.9392 4.5056-9.216 4.5056zM388.3008 799.744c-12.0832 0-22.9376-5.12-30.3104-13.5168-7.5776 8.192-18.432 13.5168-30.3104 13.5168-12.288 0-23.3472-5.3248-30.72-13.9264-7.5776 8.6016-18.432 13.9264-30.72 13.9264-5.7344 0-10.24-4.5056-10.24-10.24s4.5056-10.24 10.24-10.24c11.264 0 20.48-9.216 20.48-20.48 0-5.7344 4.5056-10.24 10.24-10.24s10.24 4.5056 10.24 10.24c0 11.264 9.216 20.48 20.48 20.48 9.6256 0 17.8176-6.7584 20.0704-15.7696-0.2048-1.6384-0.2048-3.072-0.2048-4.7104 0-5.7344 4.5056-10.24 10.24-10.24h0.8192c5.7344 0 10.24 4.5056 10.24 10.24 0 1.6384 0 3.072-0.2048 4.7104 2.048 9.0112 10.24 15.7696 20.0704 15.7696 5.7344 0 10.24 4.5056 10.24 10.24s-4.9152 10.24-10.6496 10.24zM757.9648 799.744c-12.0832 0-22.9376-5.12-30.3104-13.5168-7.5776 8.192-18.432 13.5168-30.3104 13.5168-12.288 0-23.3472-5.3248-30.72-13.9264-7.5776 8.6016-18.432 13.9264-30.72 13.9264h-46.4896c-5.7344 0-10.24-4.5056-10.24-10.24s4.5056-10.24 10.24-10.24h46.4896c11.264 0 20.48-9.216 20.48-20.48 0-5.7344 4.5056-10.24 10.24-10.24s10.24 4.5056 10.24 10.24c0 11.264 9.216 20.48 20.48 20.48 9.6256 0 17.8176-6.7584 20.0704-15.7696-0.2048-1.6384-0.2048-3.072-0.2048-4.7104 0-5.7344 4.5056-10.24 10.24-10.24h0.8192c5.7344 0 10.24 4.5056 10.24 10.24 0 1.6384 0 3.072-0.2048 4.7104 2.048 9.0112 10.24 15.7696 20.0704 15.7696 5.7344 0 10.24 4.5056 10.24 10.24s-5.12 10.24-10.6496 10.24zM573.0304 925.9008c-12.0832 0-22.9376-5.12-30.3104-13.5168-7.5776 8.192-18.432 13.5168-30.3104 13.5168-12.288 0-23.3472-5.3248-30.72-13.9264-7.5776 8.6016-18.432 13.9264-30.72 13.9264-5.7344 0-10.24-4.5056-10.24-10.24s4.5056-10.24 10.24-10.24c11.264 0 20.48-9.216 20.48-20.48 0-5.7344 4.5056-10.24 10.24-10.24s10.24 4.5056 10.24 10.24c0 11.264 9.216 20.48 20.48 20.48 9.6256 0 17.8176-6.7584 20.0704-15.7696-0.2048-1.6384-0.2048-3.072-0.2048-4.7104 0-5.7344 4.5056-10.24 10.24-10.24h0.8192c5.7344 0 10.24 4.5056 10.24 10.24 0 1.6384 0 3.072-0.2048 4.7104 2.048 9.0112 10.24 15.7696 20.0704 15.7696 5.7344 0 10.24 4.5056 10.24 10.24s-4.9152 10.24-10.6496 10.24zM557.056 799.744h-6.144c-5.7344 0-10.24-4.5056-10.24-10.24s4.5056-10.24 10.24-10.24h6.144c5.7344 0 10.24 4.5056 10.24 10.24s-4.5056 10.24-10.24 10.24zM388.3008 925.9008H366.592c-5.7344 0-10.24-4.5056-10.24-10.24s4.5056-10.24 10.24-10.24h21.7088c5.7344 0 10.24 4.5056 10.24 10.24s-4.5056 10.24-10.24 10.24zM325.8368 925.9008h-9.4208c-5.7344 0-10.24-4.5056-10.24-10.24s4.5056-10.24 10.24-10.24h9.4208c5.7344 0 10.24 4.5056 10.24 10.24s-4.7104 10.24-10.24 10.24zM872.448 799.744h-20.48c-5.7344 0-10.24-4.5056-10.24-10.24s4.5056-10.24 10.24-10.24h20.48c5.7344 0 10.24 4.5056 10.24 10.24s-4.5056 10.24-10.24 10.24zM191.6928 799.744h-14.5408c-5.7344 0-10.24-4.5056-10.24-10.24s4.5056-10.24 10.24-10.24h14.5408c5.7344 0 10.24 4.5056 10.24 10.24s-4.5056 10.24-10.24 10.24z" fill="#1C1D21" p-id="18101"></path></svg>