<svg xmlns="http://www.w3.org/2000/svg" viewBox="0 0 1024 1024" version="1.1"><path d="M512 512m-501.76 0a501.76 501.76 0 1 0 1003.52 0 501.76 501.76 0 1 0-1003.52 0Z" fill="#FFECE9" p-id="17989"></path><path d="M636.3136 855.8592H387.6864c-22.528 0-40.96-18.432-40.96-40.96V273.8176c0-7.7824 6.144-13.9264 13.9264-13.9264h302.6944c7.7824 0 13.9264 6.144 13.9264 13.9264v540.8768c0 22.7328-18.432 41.1648-40.96 41.1648z" fill="#ABD1FF" p-id="17990"></path><path d="M512 1024c-136.8064 0-265.4208-53.248-362.0864-149.9136C53.248 777.4208 0 648.8064 0 512S53.248 246.5792 149.9136 149.9136C246.5792 53.248 375.1936 0 512 0s265.4208 53.248 362.0864 149.9136C970.752 246.5792 1024 375.1936 1024 512s-53.248 265.4208-149.9136 362.0864C777.4208 970.752 648.8064 1024 512 1024z m0-1003.52C241.0496 20.48 20.48 241.0496 20.48 512s220.5696 491.52 491.52 491.52 491.52-220.5696 491.52-491.52S782.9504 20.48 512 20.48z" fill="#1C1D21" p-id="17991"></path><path d="M877.3632 855.8592H146.6368C238.1824 953.1392 368.0256 1013.76 512 1013.76c143.9744 0 273.8176-60.6208 365.3632-157.9008z" fill="#C67552" p-id="17992"></path><path d="M512 1024c-71.8848 0-141.312-14.5408-206.6432-43.4176-62.8736-27.8528-118.9888-67.3792-166.2976-117.76-2.8672-3.072-3.4816-7.3728-1.8432-11.0592s5.3248-6.144 9.4208-6.144h730.7264c4.096 0 7.7824 2.4576 9.4208 6.144 1.6384 3.6864 0.8192 8.192-1.8432 11.0592-47.3088 50.3808-103.424 89.9072-166.2976 117.76C653.312 1009.4592 583.8848 1024 512 1024zM171.008 866.0992C262.9632 954.9824 383.1808 1003.52 512 1003.52s249.0368-48.5376 340.992-137.4208h-681.984z" fill="#1C1D21" p-id="17993"></path><path d="M567.0912 13.312C549.0688 11.264 530.6368 10.24 512 10.24c-18.6368 0-37.0688 1.024-55.0912 3.072v424.7552h110.1824V13.312z" fill="#508DEF" p-id="17994"></path><path d="M567.0912 448.3072h-110.1824c-5.7344 0-10.24-4.5056-10.24-10.24V142.1312c0-5.7344 4.5056-10.24 10.24-10.24s10.24 4.5056 10.24 10.24v285.696h89.7024V22.528c-14.9504-1.4336-30.1056-2.048-44.8512-2.048-14.7456 0-29.9008 0.6144-44.8512 2.048v30.5152c0 5.7344-4.5056 10.24-10.24 10.24s-10.24-4.5056-10.24-10.24V13.312c0-5.3248 3.8912-9.6256 9.216-10.24C474.7264 1.024 493.568 0 512.2048 0c18.6368 0 37.4784 1.024 56.1152 3.072 5.12 0.6144 9.216 4.9152 9.216 10.24v424.7552c-0.2048 5.5296-4.9152 10.24-10.4448 10.24z" fill="#1C1D21" p-id="17995"></path><path d="M497.2544 46.8992c-5.7344 0-10.24-4.5056-10.24-10.24V10.4448c0-5.7344 4.5056-10.24 10.24-10.24s10.24 4.5056 10.24 10.24v26.2144c0 5.5296-4.5056 10.24-10.24 10.24zM497.2544 201.1136c-5.7344 0-10.24-4.5056-10.24-10.24V87.8592c0-5.7344 4.5056-10.24 10.24-10.24s10.24 4.5056 10.24 10.24v103.0144c0 5.7344-4.5056 10.24-10.24 10.24zM497.2544 329.5232c-5.7344 0-10.24-4.5056-10.24-10.24v-83.968c0-5.7344 4.5056-10.24 10.24-10.24s10.24 4.5056 10.24 10.24v83.968c0 5.5296-4.5056 10.24-10.24 10.24z" fill="#ABD1FF" p-id="17996"></path><path d="M456.9088 111.4112c-5.7344 0-10.24-4.5056-10.24-10.24v-7.168c0-5.7344 4.5056-10.24 10.24-10.24s10.24 4.5056 10.24 10.24v7.168c0 5.5296-4.5056 10.24-10.24 10.24z" fill="#1C1D21" p-id="17997"></path><path d="M677.2736 814.8992V357.5808c0 15.1552-12.288 27.4432-27.4432 27.4432s-27.4432-12.288-27.4432-27.4432c0 15.1552-12.288 27.4432-27.4432 27.4432s-27.4432-12.288-27.4432-27.4432c0 15.1552-12.288 27.4432-27.4432 27.4432s-27.4432-12.288-27.4432-27.4432c0 15.1552-12.288 27.4432-27.4432 27.4432s-27.4432-12.288-27.4432-27.4432c0 15.1552-12.288 27.4432-27.4432 27.4432s-27.4432-12.288-27.4432-27.4432c0 15.1552-12.288 27.4432-27.4432 27.4432s-27.4432-12.288-27.4432-27.4432v457.3184c0 22.528 18.432 40.96 40.96 40.96h248.6272c21.2992 0 39.7312-18.432 39.7312-40.96z" fill="#508DEF" p-id="17998"></path><path d="M387.6864 814.8992c-5.7344 0-10.24-4.5056-10.24-10.24V510.7712c0-5.7344 4.5056-10.24 10.24-10.24s10.24 4.5056 10.24 10.24v293.888c0 5.5296-4.5056 10.24-10.24 10.24zM387.6864 471.4496c-5.7344 0-10.24-4.5056-10.24-10.24v-23.1424c0-5.7344 4.5056-10.24 10.24-10.24s10.24 4.5056 10.24 10.24v23.1424c0 5.7344-4.5056 10.24-10.24 10.24z" fill="#ABD1FF" p-id="17999"></path><path d="M636.3136 866.0992H387.6864c-28.2624 0-51.2-22.9376-51.2-51.2V357.5808c0-5.7344 4.5056-10.24 10.24-10.24s10.24 4.5056 10.24 10.24c0 9.6256 7.7824 17.2032 17.2032 17.2032s17.2032-7.7824 17.2032-17.2032c0-5.7344 4.5056-10.24 10.24-10.24s10.24 4.5056 10.24 10.24c0 9.6256 7.7824 17.2032 17.2032 17.2032s17.2032-7.7824 17.2032-17.2032c0-5.7344 4.5056-10.24 10.24-10.24s10.24 4.5056 10.24 10.24c0 9.6256 7.7824 17.2032 17.2032 17.2032s17.2032-7.7824 17.2032-17.2032c0-5.7344 4.5056-10.24 10.24-10.24s10.24 4.5056 10.24 10.24c0 9.6256 7.7824 17.2032 17.2032 17.2032s17.2032-7.7824 17.2032-17.2032c0-5.7344 4.5056-10.24 10.24-10.24s10.24 4.5056 10.24 10.24c0 9.6256 7.7824 17.2032 17.2032 17.2032s17.2032-7.7824 17.2032-17.2032c0-5.7344 4.5056-10.24 10.24-10.24s10.24 4.5056 10.24 10.24c0 9.6256 7.7824 17.2032 17.2032 17.2032s17.2032-7.7824 17.2032-17.2032c0-4.3008 2.6624-7.9872 6.5536-9.6256 3.8912-1.4336 8.3968-0.4096 11.264 2.8672 1.6384 1.8432 2.6624 4.3008 2.6624 6.7584v457.1136c1.2288 28.4672-21.7088 51.4048-49.9712 51.4048zM356.9664 391.168v423.7312c0 16.9984 13.7216 30.72 30.72 30.72h248.6272c16.9984 0 30.72-13.7216 30.72-30.72V391.168c-5.12 2.6624-11.0592 4.3008-17.408 4.3008-10.8544 0-20.6848-4.5056-27.4432-11.8784-6.9632 7.3728-16.7936 11.8784-27.4432 11.8784s-20.6848-4.5056-27.4432-11.8784c-6.9632 7.3728-16.7936 11.8784-27.4432 11.8784s-20.6848-4.5056-27.4432-11.8784c-6.9632 7.3728-16.7936 11.8784-27.4432 11.8784s-20.6848-4.5056-27.4432-11.8784c-6.9632 7.3728-16.7936 11.8784-27.4432 11.8784s-20.6848-4.5056-27.4432-11.8784c-6.9632 7.3728-16.7936 11.8784-27.4432 11.8784-7.168 0-13.1072-1.6384-18.2272-4.3008z" fill="#1C1D21" p-id="18000"></path><path d="M636.3136 866.0992H387.6864c-28.2624 0-51.2-22.9376-51.2-51.2V273.8176c0-13.312 10.8544-24.1664 24.1664-24.1664h302.6944c13.312 0 24.1664 10.8544 24.1664 24.1664v540.8768c0 28.4672-22.9376 51.4048-51.2 51.4048z m-275.6608-595.968c-2.048 0-3.6864 1.6384-3.6864 3.6864v540.8768c0 16.9984 13.7216 30.72 30.72 30.72h248.6272c16.9984 0 30.72-13.7216 30.72-30.72V273.8176c0-2.048-1.6384-3.6864-3.6864-3.6864H360.6528z" fill="#1C1D21" p-id="18001"></path><path d="M512 1024c-136.8064 0-265.4208-53.248-362.0864-149.9136C53.248 777.4208 0 648.8064 0 512S53.248 246.5792 149.9136 149.9136C246.5792 53.248 375.1936 0 512 0s265.4208 53.248 362.0864 149.9136C970.752 246.5792 1024 375.1936 1024 512s-53.248 265.4208-149.9136 362.0864C777.4208 970.752 648.8064 1024 512 1024z m0-1003.52C241.0496 20.48 20.48 241.0496 20.48 512s220.5696 491.52 491.52 491.52 491.52-220.5696 491.52-491.52S782.9504 20.48 512 20.48z" fill="#1C1D21" p-id="18002"></path><path d="M387.6864 855.8592h248.6272c22.528 0 40.96-18.432 40.96-40.96v-10.24H346.7264v10.24c0 22.528 18.432 40.96 40.96 40.96z" fill="#ABD1FF" p-id="18003"></path><path d="M636.3136 866.0992H387.6864c-28.2624 0-51.2-22.9376-51.2-51.2v-10.24c0-5.7344 4.5056-10.24 10.24-10.24h330.5472c5.7344 0 10.24 4.5056 10.24 10.24v10.24c0 28.2624-22.9376 51.2-51.2 51.2z m-279.3472-51.2c0 16.9984 13.7216 30.72 30.72 30.72h248.6272c16.9984 0 30.72-13.7216 30.72-30.72H356.9664zM402.0224 215.4496c-5.7344 0-10.24-4.5056-10.24-10.24V172.8512c0-27.8528-22.7328-50.5856-50.5856-50.5856-5.7344 0-10.24-4.5056-10.24-10.24s4.5056-10.24 10.24-10.24c39.3216 0 71.0656 31.9488 71.0656 71.0656v32.3584c0 5.7344-4.7104 10.24-10.24 10.24zM402.0224 297.3696c-5.7344 0-10.24-4.5056-10.24-10.24V239.616c0-5.7344 4.5056-10.24 10.24-10.24s10.24 4.5056 10.24 10.24v47.5136c0 5.7344-4.7104 10.24-10.24 10.24zM402.0224 334.4384c-5.7344 0-10.24-4.5056-10.24-10.24v-6.3488c0-5.7344 4.5056-10.24 10.24-10.24s10.24 4.5056 10.24 10.24v6.3488c0 5.7344-4.7104 10.24-10.24 10.24zM308.4288 122.2656h-10.8544c-5.7344 0-10.24-4.5056-10.24-10.24s4.5056-10.24 10.24-10.24h10.8544c5.7344 0 10.24 4.5056 10.24 10.24s-4.7104 10.24-10.24 10.24zM622.1824 215.4496c-5.7344 0-10.24-4.5056-10.24-10.24V172.8512c0-39.3216 31.9488-71.0656 71.0656-71.0656 5.7344 0 10.24 4.5056 10.24 10.24s-4.5056 10.24-10.24 10.24c-27.8528 0-50.5856 22.7328-50.5856 50.5856v32.3584c0 5.7344-4.7104 10.24-10.24 10.24zM622.1824 297.3696c-5.7344 0-10.24-4.5056-10.24-10.24V239.616c0-5.7344 4.5056-10.24 10.24-10.24s10.24 4.5056 10.24 10.24v47.5136c0 5.7344-4.7104 10.24-10.24 10.24zM622.1824 334.4384c-5.7344 0-10.24-4.5056-10.24-10.24v-6.3488c0-5.7344 4.5056-10.24 10.24-10.24s10.24 4.5056 10.24 10.24v6.3488c0 5.7344-4.7104 10.24-10.24 10.24zM726.6304 122.2656h-10.8544c-5.7344 0-10.24-4.5056-10.24-10.24s4.5056-10.24 10.24-10.24h10.8544c5.7344 0 10.24 4.5056 10.24 10.24s-4.7104 10.24-10.24 10.24zM553.984 767.7952c-2.6624 0-5.3248-1.024-7.168-3.072l-124.928-124.928c-4.096-4.096-4.096-10.4448 0-14.5408s10.4448-4.096 14.5408 0l124.928 124.928c4.096 4.096 4.096 10.4448 0 14.5408-2.2528 2.048-4.9152 3.072-7.3728 3.072z" fill="#1C1D21" p-id="18004"></path><path d="M458.5472 738.0992c-2.6624 0-5.3248-1.024-7.168-3.072-4.096-4.096-4.096-10.4448 0-14.5408l65.7408-65.7408c4.096-4.096 10.4448-4.096 14.5408 0s4.096 10.4448 0 14.5408L465.92 735.232c-2.048 1.8432-4.7104 2.8672-7.3728 2.8672zM425.3696 704.9216c-2.6624 0-5.3248-1.024-7.168-3.072-4.096-4.096-4.096-10.4448 0-14.5408l65.7408-65.7408c4.096-4.096 10.4448-4.096 14.5408 0s4.096 10.4448 0 14.5408l-65.7408 65.7408c-2.048 2.048-4.7104 3.072-7.3728 3.072zM491.7248 771.4816c-2.6624 0-5.3248-1.024-7.168-3.072-4.096-4.096-4.096-10.4448 0-14.5408l65.7408-65.7408c4.096-4.096 10.4448-4.096 14.5408 0s4.096 10.4448 0 14.5408l-65.7408 65.7408c-2.048 2.048-4.7104 3.072-7.3728 3.072z" fill="#1C1D21" p-id="18005"></path><path d="M502.9888 745.0624l-61.44-61.44c-10.6496-10.6496-10.6496-27.8528 0-38.5024 10.6496-10.6496 27.8528-10.6496 38.5024 0l61.44 61.44c10.6496 10.6496 10.6496 27.8528 0 38.5024-10.6496 10.4448-27.8528 10.4448-38.5024 0z" fill="#0ABFB2" p-id="18006"></path><path d="M522.24 763.0848c-9.6256 0-19.2512-3.6864-26.4192-10.8544l-61.44-61.44c-7.168-7.168-11.0592-16.384-11.0592-26.4192s3.8912-19.456 11.0592-26.4192c14.5408-14.5408 38.2976-14.5408 52.8384 0l61.44 61.44c14.5408 14.5408 14.5408 38.2976 0 52.8384-7.3728 7.3728-16.9984 10.8544-26.4192 10.8544z m-61.44-115.712c-4.3008 0-8.6016 1.6384-11.8784 4.9152-3.2768 3.2768-4.9152 7.3728-4.9152 11.8784s1.8432 8.8064 4.9152 11.8784l61.44 61.44c6.5536 6.5536 17.408 6.5536 23.9616 0 6.5536-6.5536 6.5536-17.408 0-23.9616l-61.44-61.44c-3.4816-2.8672-7.7824-4.7104-12.0832-4.7104zM491.3152 536.3712c-5.7344 0-10.24-4.5056-10.24-10.24v-96.6656c0-5.7344 4.5056-10.24 10.24-10.24s10.24 4.5056 10.24 10.24v96.6656c0 5.7344-4.7104 10.24-10.24 10.24z" fill="#1C1D21" p-id="18007"></path><path d="M457.1136 522.24c-2.6624 0-5.3248-1.024-7.168-3.072-4.096-4.096-4.096-10.4448 0-14.5408l68.4032-68.4032c4.096-4.096 10.4448-4.096 14.5408 0s4.096 10.4448 0 14.5408l-68.4032 68.4032c-2.2528 2.048-4.9152 3.072-7.3728 3.072z" fill="#1C1D21" p-id="18008"></path><path d="M539.648 488.0384h-96.6656c-5.7344 0-10.24-4.5056-10.24-10.24s4.5056-10.24 10.24-10.24h96.6656c5.7344 0 10.24 4.5056 10.24 10.24s-4.7104 10.24-10.24 10.24z" fill="#1C1D21" p-id="18009"></path><path d="M525.312 522.24c-2.6624 0-5.3248-1.024-7.168-3.072l-68.4032-68.4032c-4.096-4.096-4.096-10.4448 0-14.5408s10.4448-4.096 14.5408 0l68.4032 68.4032c4.096 4.096 4.096 10.4448 0 14.5408-2.048 2.048-4.7104 3.072-7.3728 3.072z" fill="#1C1D21" p-id="18010"></path><path d="M491.3152 477.7984m-32.9728 0a32.9728 32.9728 0 1 0 65.9456 0 32.9728 32.9728 0 1 0-65.9456 0Z" fill="#0ABFB2" p-id="18011"></path><path d="M491.3152 521.0112c-23.7568 0-43.2128-19.456-43.2128-43.2128s19.456-43.2128 43.2128-43.2128c23.7568 0 43.2128 19.456 43.2128 43.2128s-19.456 43.2128-43.2128 43.2128z m0-65.9456c-12.4928 0-22.7328 10.24-22.7328 22.7328s10.24 22.7328 22.7328 22.7328 22.7328-10.24 22.7328-22.7328-10.24-22.7328-22.7328-22.7328zM590.6432 654.336c-5.7344 0-10.24-4.5056-10.24-10.24v-96.6656c0-5.7344 4.5056-10.24 10.24-10.24s10.24 4.5056 10.24 10.24v96.6656c0 5.7344-4.5056 10.24-10.24 10.24z" fill="#1C1D21" p-id="18012"></path><path d="M556.4416 640.2048c-2.6624 0-5.3248-1.024-7.168-3.072-4.096-4.096-4.096-10.4448 0-14.5408l68.4032-68.4032c4.096-4.096 10.4448-4.096 14.5408 0s4.096 10.4448 0 14.5408l-68.4032 68.4032c-2.048 2.048-4.7104 3.072-7.3728 3.072z" fill="#1C1D21" p-id="18013"></path><path d="M638.976 606.0032h-96.6656c-5.7344 0-10.24-4.5056-10.24-10.24s4.5056-10.24 10.24-10.24H638.976c5.7344 0 10.24 4.5056 10.24 10.24s-4.5056 10.24-10.24 10.24z" fill="#1C1D21" p-id="18014"></path><path d="M624.8448 640.2048c-2.6624 0-5.3248-1.024-7.168-3.072l-68.4032-68.4032c-4.096-4.096-4.096-10.4448 0-14.5408s10.4448-4.096 14.5408 0l68.4032 68.4032c4.096 4.096 4.096 10.4448 0 14.5408-2.2528 2.048-4.7104 3.072-7.3728 3.072z" fill="#1C1D21" p-id="18015"></path><path d="M590.6432 595.7632m-32.9728 0a32.9728 32.9728 0 1 0 65.9456 0 32.9728 32.9728 0 1 0-65.9456 0Z" fill="#0ABFB2" p-id="18016"></path><path d="M590.6432 638.976c-23.7568 0-43.2128-19.456-43.2128-43.2128s19.456-43.2128 43.2128-43.2128 43.2128 19.456 43.2128 43.2128S614.4 638.976 590.6432 638.976z m0-65.7408c-12.4928 0-22.7328 10.24-22.7328 22.7328s10.24 22.7328 22.7328 22.7328 22.7328-10.24 22.7328-22.7328c0-12.6976-10.24-22.7328-22.7328-22.7328z" fill="#1C1D21" p-id="18017"></path></svg>