<svg xmlns="http://www.w3.org/2000/svg" viewBox="0 0 1024 1024" version="1.1"><path d="M512 512m-501.76 0a501.76 501.76 0 1 0 1003.52 0 501.76 501.76 0 1 0-1003.52 0Z" fill="#8CEEF9" p-id="16286"></path><path d="M512 1024c-136.8064 0-265.4208-53.248-362.0864-149.9136C53.248 777.4208 0 648.8064 0 512S53.248 246.5792 149.9136 149.9136C246.5792 53.248 375.1936 0 512 0s265.4208 53.248 362.0864 149.9136C970.752 246.5792 1024 375.1936 1024 512s-53.248 265.4208-149.9136 362.0864C777.4208 970.752 648.8064 1024 512 1024z m0-1003.52C241.0496 20.48 20.48 241.0496 20.48 512s220.5696 491.52 491.52 491.52 491.52-220.5696 491.52-491.52S782.9504 20.48 512 20.48z" fill="#1C1D21" p-id="16287"></path><path d="M728.2688 832.9216c0-55.9104-28.8768-107.7248-76.3904-137.0112l-58.5728-36.2496c-23.1424-14.336-37.2736-39.7312-37.2736-66.9696v-7.3728c0-13.1072 7.7824-24.9856 19.6608-30.5152 50.7904-23.9616 86.016-75.5712 86.016-135.5776v-69.4272c0-82.7392-66.9696-149.7088-149.7088-149.7088-82.7392 0-149.7088 66.9696-149.7088 149.7088v69.4272c0 60.0064 35.2256 111.616 86.016 135.5776 11.8784 5.5296 19.6608 17.408 19.6608 30.5152v7.3728c0 27.2384-14.1312 52.6336-37.2736 66.9696l-58.5728 36.2496c-47.5136 29.2864-76.3904 81.3056-76.3904 137.0112v132.096c65.536 31.3344 138.8544 48.9472 216.2688 48.9472s150.7328-17.6128 216.2688-48.9472v-132.096z" fill="#FFC5B3" p-id="16288"></path><path d="M347.136 416.1536h15.36v-79.0528h-15.36c-21.9136 0-39.5264 17.6128-39.5264 39.5264 0 21.9136 17.6128 39.5264 39.5264 39.5264zM678.0928 416.1536h-15.36v-79.0528h15.36c21.9136 0 39.5264 17.6128 39.5264 39.5264 0 21.9136-17.8176 39.5264-39.5264 39.5264z" fill="#FFC5B3" p-id="16289"></path><path d="M362.496 426.3936h-15.36c-27.4432 0-49.7664-22.3232-49.7664-49.7664s22.3232-49.7664 49.7664-49.7664h15.36c5.7344 0 10.24 4.5056 10.24 10.24v79.0528c0 5.7344-4.7104 10.24-10.24 10.24z m-15.36-79.0528c-16.1792 0-29.2864 13.1072-29.2864 29.2864s13.1072 29.2864 29.2864 29.2864h5.12v-58.5728h-5.12zM678.0928 426.3936h-15.36c-5.7344 0-10.24-4.5056-10.24-10.24v-79.0528c0-5.7344 4.5056-10.24 10.24-10.24h15.36c27.4432 0 49.7664 22.3232 49.7664 49.7664s-22.3232 49.7664-49.7664 49.7664z m-5.12-20.48h5.12c16.1792 0 29.2864-13.1072 29.2864-29.2864s-13.1072-29.2864-29.2864-29.2864h-5.12v58.5728z" fill="#1C1D21" p-id="16290"></path><path d="M512 1024c-77.2096 0-151.552-16.7936-220.5696-49.9712-3.4816-1.6384-5.7344-5.3248-5.7344-9.216v-132.096c0-59.8016 30.3104-114.2784 81.3056-145.8176l58.5728-36.2496c20.2752-12.4928 32.3584-34.4064 32.3584-58.1632v-7.3728c0-9.0112-5.3248-17.2032-13.9264-21.2992-55.9104-26.2144-91.9552-83.1488-91.9552-144.7936v-69.4272c0-88.2688 71.68-159.9488 159.9488-159.9488 42.8032 0 82.944 16.5888 113.0496 46.8992 30.1056 30.1056 46.8992 70.4512 46.8992 113.0496v69.4272c0 61.6448-36.0448 118.5792-91.9552 144.7936-8.6016 4.096-13.9264 12.0832-13.9264 21.2992v7.3728c0 23.9616 12.0832 45.6704 32.3584 58.1632l58.5728 36.2496c50.9952 31.5392 81.3056 86.016 81.3056 145.8176v132.096c0 3.8912-2.2528 7.5776-5.7344 9.216C663.552 1007.2064 589.2096 1024 512 1024z m-206.0288-65.536c64.7168 29.9008 133.9392 45.056 206.0288 45.056s141.312-15.1552 206.0288-45.056v-125.5424c0-52.6336-26.8288-100.7616-71.68-128.4096L587.776 668.2624c-26.4192-16.384-42.1888-44.6464-42.1888-75.5712v-7.3728c0-16.7936 10.0352-32.5632 25.6-39.7312 48.7424-22.9376 80.0768-72.4992 80.0768-126.1568v-69.4272c0-37.2736-14.5408-72.2944-40.7552-98.5088s-61.44-40.7552-98.5088-40.7552c-76.8 0-139.4688 62.464-139.4688 139.4688v69.4272c0 53.8624 31.5392 103.424 80.0768 126.1568 15.5648 7.3728 25.6 22.9376 25.6 39.7312v7.3728c0 31.1296-15.7696 59.392-42.1888 75.5712L377.6512 704.512c-44.8512 27.648-71.68 75.776-71.68 128.4096V958.464z m422.2976 6.3488z" fill="#1C1D21" p-id="16291"></path><path d="M728.2688 832.9216c0-55.9104-28.8768-107.7248-76.3904-137.0112l-39.936-24.7808c-31.3344 10.8544-64.9216 16.7936-99.7376 16.7936-35.0208 0-68.608-5.9392-99.9424-16.7936l-39.936 24.7808c-47.5136 29.2864-76.3904 81.3056-76.3904 137.0112v132.096c65.536 31.3344 138.8544 48.9472 216.2688 48.9472s150.7328-17.6128 216.2688-48.9472v-132.096z" fill="#508DEF" p-id="16292"></path><path d="M512 1024c-77.2096 0-151.552-16.7936-220.5696-49.9712-3.4816-1.6384-5.7344-5.3248-5.7344-9.216v-132.096c0-59.8016 30.3104-114.2784 81.3056-145.8176l39.936-24.7808c2.6624-1.6384 5.7344-2.048 8.8064-1.024 30.9248 10.8544 63.488 16.1792 96.4608 16.1792s65.536-5.5296 96.4608-16.1792c2.8672-1.024 6.144-0.6144 8.8064 1.024l39.936 24.7808c50.9952 31.5392 81.3056 86.016 81.3056 145.8176v132.096c0 3.8912-2.2528 7.5776-5.7344 9.216C663.552 1007.2064 589.2096 1024 512 1024z m-206.0288-65.536c64.7168 29.9008 133.9392 45.056 206.0288 45.056 71.8848 0 141.312-15.1552 206.0288-45.056v-125.5424c0-52.6336-26.8288-100.7616-71.68-128.4096l-35.84-22.1184c-31.744 10.4448-64.9216 15.7696-98.5088 15.7696-33.792 0-66.7648-5.3248-98.5088-15.7696L377.6512 704.512c-44.8512 27.648-71.68 75.776-71.68 128.4096V958.464z m422.2976 6.3488z" fill="#1C1D21" p-id="16293"></path><path d="M386.6624 745.6768c-3.2768 0-6.3488-1.4336-8.3968-4.3008-3.2768-4.5056-2.2528-11.0592 2.2528-14.336 2.4576-1.8432 5.12-3.4816 7.7824-5.12 4.9152-2.8672 11.0592-1.4336 14.1312 3.2768s1.4336 11.0592-3.2768 14.1312c-2.2528 1.4336-4.5056 2.8672-6.5536 4.3008-1.8432 1.4336-3.8912 2.048-5.9392 2.048zM336.6912 948.6336c-5.7344 0-10.24-4.5056-10.24-10.24v-105.472c0-28.2624 8.8064-55.0912 25.6-77.6192 3.2768-4.5056 9.8304-5.5296 14.336-2.048 4.5056 3.2768 5.5296 9.8304 2.048 14.336-14.1312 18.8416-21.504 41.5744-21.504 65.536v105.472c0 5.3248-4.5056 10.0352-10.24 10.0352z" fill="#ABD1FF" p-id="16294"></path><path d="M512.6144 1024c-5.7344 0-10.24-4.5056-10.24-10.24v-101.376c0-5.7344 4.5056-10.24 10.24-10.24s10.24 4.5056 10.24 10.24V1013.76c0 5.7344-4.7104 10.24-10.24 10.24z" fill="#1C1D21" p-id="16295"></path><path d="M435.6096 878.592c20.48-5.5296 43.008-0.2048 59.1872 15.7696 15.9744 15.9744 21.2992 38.7072 15.7696 59.1872-20.48 5.5296-43.008 0.2048-59.1872-15.7696-15.9744-15.9744-21.2992-38.7072-15.7696-59.1872z" fill="#0ABFB2" p-id="16296"></path><path d="M494.7968 965.8368c-18.6368 0-37.0688-7.3728-50.5856-20.8896-18.0224-18.0224-24.9856-44.4416-18.432-69.0176 1.024-3.4816 3.6864-6.3488 7.168-7.168 24.576-6.5536 50.9952 0.6144 69.0176 18.432 18.0224 18.0224 24.9856 44.4416 18.432 69.0176-1.024 3.4816-3.6864 6.3488-7.168 7.168-6.144 1.8432-12.288 2.4576-18.432 2.4576z m-50.5856-78.4384c-2.2528 15.7696 3.072 31.744 14.336 43.2128s27.4432 16.5888 43.2128 14.336c2.2528-15.7696-3.072-31.744-14.336-43.2128-11.264-11.264-27.4432-16.5888-43.2128-14.336z" fill="#1C1D21" p-id="16297"></path><path d="M514.6624 953.5488c20.48 5.5296 43.008 0.2048 59.1872-15.7696 15.9744-15.9744 21.2992-38.7072 15.7696-59.1872-20.48-5.5296-43.008-0.2048-59.1872 15.7696-15.9744 16.1792-21.2992 38.912-15.7696 59.1872z" fill="#0ABFB2" p-id="16298"></path><path d="M530.432 965.8368c-6.144 0-12.288-0.8192-18.432-2.4576-3.4816-1.024-6.3488-3.6864-7.168-7.168-6.5536-24.576 0.6144-50.9952 18.432-69.0176 18.0224-18.0224 44.4416-24.9856 69.0176-18.432 3.4816 1.024 6.3488 3.6864 7.168 7.168 6.5536 24.576-0.6144 50.9952-18.432 69.0176-13.5168 13.5168-31.9488 20.8896-50.5856 20.8896z m-7.168-20.8896c15.7696 2.2528 31.744-3.072 43.2128-14.336 11.264-11.264 16.5888-27.4432 14.336-43.2128-15.7696-2.2528-31.744 3.072-43.2128 14.336-11.264 11.4688-16.384 27.4432-14.336 43.2128z" fill="#1C1D21" p-id="16299"></path><path d="M522.0352 785.2032l-10.24 10.24-10.24-10.24c-7.168-7.168-16.7936-11.0592-26.8288-11.0592-20.8896 0-37.888 16.9984-37.888 37.888 0 18.8416 7.7824 37.0688 21.504 49.9712l53.248 50.3808 53.248-50.3808c13.7216-13.1072 21.504-31.1296 21.504-49.9712 0-20.8896-16.9984-37.888-37.888-37.888-9.6256 0-19.2512 4.096-26.4192 11.0592z" fill="#FF3E63" p-id="16300"></path><path d="M511.7952 922.624c-2.4576 0-5.12-1.024-6.9632-2.8672l-53.248-50.3808c-15.7696-14.9504-24.7808-35.84-24.7808-57.5488 0-26.4192 21.504-48.128 48.128-48.128 12.9024 0 24.9856 4.9152 33.9968 14.1312l3.072 3.072 3.072-3.072c9.0112-9.0112 21.0944-14.1312 33.9968-14.1312 26.4192 0 48.128 21.504 48.128 48.128 0 21.7088-9.0112 42.5984-24.7808 57.5488l-53.248 50.3808c-2.2528 2.048-4.7104 2.8672-7.3728 2.8672zM474.7264 784.384c-15.1552 0-27.648 12.288-27.648 27.648 0 15.9744 6.7584 31.5392 18.432 42.5984l46.2848 43.6224 46.2848-43.6224c11.6736-11.0592 18.432-26.624 18.432-42.5984 0-15.1552-12.288-27.648-27.648-27.648-7.3728 0-14.336 2.8672-19.456 7.9872l-10.24 10.24c-1.8432 1.8432-4.5056 3.072-7.168 3.072s-5.3248-1.024-7.168-3.072l-10.24-10.24c-5.5296-5.12-12.4928-7.9872-19.8656-7.9872z" fill="#1C1D21" p-id="16301"></path><path d="M788.6848 560.3328l-7.7824 7.7824-7.7824-7.7824c-5.3248-5.3248-12.4928-8.3968-20.0704-8.3968-15.7696 0-28.4672 12.6976-28.4672 28.4672 0 14.336 5.9392 27.8528 16.1792 37.6832l40.1408 37.888 40.1408-37.888c10.4448-9.8304 16.1792-23.3472 16.1792-37.6832 0-15.7696-12.6976-28.4672-28.4672-28.4672-7.3728 0-14.7456 3.072-20.0704 8.3968z" fill="#FF3E63" p-id="16302"></path><path d="M780.9024 666.2144c-2.4576 0-5.12-1.024-6.9632-2.8672l-40.1408-37.888c-12.288-11.6736-19.456-28.0576-19.456-45.056 0-21.2992 17.408-38.7072 38.7072-38.7072 10.24 0 20.0704 4.096 27.4432 11.264l0.4096 0.4096 0.4096-0.4096c7.3728-7.3728 16.9984-11.264 27.4432-11.264 21.2992 0 38.7072 17.408 38.7072 38.7072 0 16.9984-7.168 33.3824-19.456 45.056l-40.1408 37.888c-1.8432 1.8432-4.3008 2.8672-6.9632 2.8672z m-27.8528-104.0384c-10.0352 0-18.2272 8.192-18.2272 18.2272 0 11.4688 4.7104 22.3232 13.1072 30.3104l32.9728 31.3344 32.9728-31.3344c8.192-7.7824 13.1072-18.8416 13.1072-30.3104 0-10.0352-8.192-18.2272-18.2272-18.2272-4.9152 0-9.4208 1.8432-12.9024 5.3248l-7.7824 7.7824c-1.8432 1.8432-4.5056 3.072-7.168 3.072s-5.3248-1.024-7.168-3.072l-7.7824-7.7824c-3.4816-3.4816-7.9872-5.3248-12.9024-5.3248z" fill="#1C1D21" p-id="16303"></path><path d="M877.9776 377.2416l-9.4208 9.4208-9.4208-9.4208c-6.5536-6.5536-15.36-10.0352-24.3712-10.0352-19.0464 0-34.6112 15.5648-34.6112 34.6112 0 17.408 7.168 33.792 19.6608 45.6704l48.7424 46.08 48.7424-46.08c12.4928-11.8784 19.6608-28.4672 19.6608-45.6704 0-19.0464-15.5648-34.6112-34.6112-34.6112-9.216-0.2048-18.0224 3.4816-24.3712 10.0352z" fill="#FF3E63" p-id="16304"></path><path d="M868.5568 503.6032c-2.4576 0-5.12-1.024-6.9632-2.8672L812.8512 454.656c-14.5408-13.7216-22.9376-33.1776-22.9376-53.248 0-24.7808 20.0704-44.8512 44.8512-44.8512 11.8784 0 23.1424 4.7104 31.744 13.1072l2.048 2.048 2.048-2.048c8.3968-8.3968 19.6608-13.1072 31.744-13.1072 24.7808 0 44.8512 20.0704 44.8512 44.8512 0 20.0704-8.3968 39.5264-22.9376 53.248l-48.7424 46.08c-1.8432 2.048-4.5056 2.8672-6.9632 2.8672z m-33.792-126.3616c-13.5168 0-24.3712 10.8544-24.3712 24.3712 0 14.336 5.9392 28.4672 16.5888 38.2976l41.5744 39.3216 41.5744-39.3216c10.4448-9.8304 16.5888-23.9616 16.5888-38.2976 0-13.5168-10.8544-24.3712-24.3712-24.3712-6.5536 0-12.6976 2.4576-17.2032 7.168l-9.4208 9.4208c-4.096 4.096-10.4448 4.096-14.5408 0l-9.4208-9.4208c-4.5056-4.5056-10.6496-7.168-16.9984-7.168z m43.2128 0z" fill="#1C1D21" p-id="16305"></path><path d="M235.3152 560.3328l7.7824 7.7824 7.7824-7.7824c5.3248-5.3248 12.4928-8.3968 20.0704-8.3968 15.7696 0 28.4672 12.6976 28.4672 28.4672 0 14.336-5.9392 27.8528-16.1792 37.6832l-40.1408 37.888-40.1408-37.888c-10.4448-9.8304-16.1792-23.3472-16.1792-37.6832 0-15.7696 12.6976-28.4672 28.4672-28.4672 7.3728 0 14.7456 3.072 20.0704 8.3968z" fill="#FF3E63" p-id="16306"></path><path d="M243.0976 666.2144c-2.4576 0-5.12-1.024-6.9632-2.8672l-40.1408-37.888c-12.288-11.6736-19.456-28.0576-19.456-45.056 0-21.2992 17.408-38.7072 38.7072-38.7072 10.24 0 20.0704 4.096 27.4432 11.264l0.4096 0.4096 0.4096-0.4096c7.3728-7.3728 16.9984-11.264 27.4432-11.264 21.2992 0 38.7072 17.408 38.7072 38.7072 0 16.9984-7.168 33.3824-19.456 45.056l-40.1408 37.888c-2.048 1.8432-4.5056 2.8672-6.9632 2.8672z m-27.8528-104.0384c-10.0352 0-18.2272 8.192-18.2272 18.2272 0 11.4688 4.7104 22.3232 13.1072 30.3104l32.9728 31.3344 32.9728-31.3344c8.192-7.7824 13.1072-18.8416 13.1072-30.3104 0-10.0352-8.192-18.2272-18.2272-18.2272-4.9152 0-9.4208 1.8432-12.9024 5.3248l-7.7824 7.7824c-1.8432 1.8432-4.5056 3.072-7.168 3.072-2.6624 0-5.3248-1.024-7.168-3.072l-7.7824-7.7824c-3.4816-3.4816-8.192-5.3248-12.9024-5.3248z" fill="#1C1D21" p-id="16307"></path><path d="M146.0224 377.2416l9.4208 9.4208 9.4208-9.4208c6.5536-6.5536 15.36-10.0352 24.3712-10.0352 19.0464 0 34.6112 15.5648 34.6112 34.6112 0 17.408-7.168 33.792-19.6608 45.6704L155.4432 493.568l-48.7424-46.08c-12.4928-11.8784-19.6608-28.4672-19.6608-45.6704 0-19.0464 15.5648-34.6112 34.6112-34.6112 9.216-0.2048 18.0224 3.4816 24.3712 10.0352z" fill="#FF3E63" p-id="16308"></path><path d="M155.4432 503.6032c-2.4576 0-5.12-1.024-6.9632-2.8672L99.7376 454.656c-14.5408-13.7216-22.9376-33.1776-22.9376-53.248 0-24.7808 20.0704-44.8512 44.8512-44.8512 11.8784 0 23.1424 4.7104 31.744 13.1072l2.048 2.048 2.048-2.048c8.3968-8.3968 19.6608-13.1072 31.744-13.1072 24.7808 0 44.8512 20.0704 44.8512 44.8512 0 20.0704-8.3968 39.5264-22.9376 53.248l-48.7424 46.08c-1.8432 2.048-4.3008 2.8672-6.9632 2.8672z m-33.792-126.3616c-13.5168 0-24.3712 10.8544-24.3712 24.3712 0 14.336 5.9392 28.4672 16.5888 38.2976L155.4432 479.232l41.5744-39.3216c10.4448-9.8304 16.5888-23.9616 16.5888-38.2976 0-13.5168-10.8544-24.3712-24.3712-24.3712-6.5536 0-12.6976 2.4576-17.2032 7.168l-9.4208 9.4208c-4.096 4.096-10.4448 4.096-14.5408 0l-9.4208-9.4208c-4.3008-4.5056-10.4448-7.168-16.9984-7.168z" fill="#1C1D21" p-id="16309"></path><path d="M362.9056 337.1008h63.8976c47.3088 0 85.8112-38.2976 85.8112-85.8112l-0.6144-51.2c-78.4384 0-142.5408 60.2112-149.0944 137.0112z" fill="#FF8939" p-id="16310"></path><path d="M512.6144 200.0896l-0.6144 51.2c0 47.3088 38.2976 85.8112 85.8112 85.8112h63.488c-6.7584-76.5952-70.656-136.6016-148.6848-137.0112z" fill="#FF8939" p-id="16311"></path><path d="M426.8032 347.3408h-63.8976c-2.8672 0-5.5296-1.2288-7.5776-3.2768s-2.8672-4.9152-2.6624-7.7824c3.2768-39.7312 21.504-76.5952 50.7904-103.8336 29.696-27.4432 68.1984-42.3936 108.544-42.3936 5.5296 0 10.24 4.5056 10.24 10.0352l0.6144 51.2c0 53.0432-43.008 96.0512-96.0512 96.0512z m-52.224-20.48h52.4288c41.5744 0 75.5712-33.792 75.5712-75.5712l-0.4096-40.5504c-63.8976 4.7104-117.1456 53.248-127.5904 116.1216z" fill="#1C1D21" p-id="16312"></path><path d="M661.0944 347.3408h-63.488c-52.8384 0-96.0512-43.008-96.0512-96.0512l0.6144-51.2c0-5.5296 4.5056-10.24 10.24-10.0352 40.1408 0.2048 78.6432 15.36 108.1344 42.5984 29.2864 27.2384 47.3088 63.8976 50.5856 103.6288 0.2048 2.8672-0.8192 5.7344-2.6624 7.7824s-4.5056 3.2768-7.3728 3.2768z m-138.4448-136.6016l-0.4096 40.5504c0 41.5744 33.792 75.3664 75.5712 75.3664h51.8144c-10.4448-63.2832-62.6688-111.0016-126.976-115.9168zM386.6624 1008.4352c-5.7344 0-10.24-4.5056-10.24-10.24v-67.9936c0-5.7344 4.5056-10.24 10.24-10.24s10.24 4.5056 10.24 10.24v67.9936c0 5.7344-4.7104 10.24-10.24 10.24zM386.6624 905.8304c-5.7344 0-10.24-4.5056-10.24-10.24v-6.144c0-5.7344 4.5056-10.24 10.24-10.24s10.24 4.5056 10.24 10.24v6.144c0 5.7344-4.7104 10.24-10.24 10.24zM637.5424 1008.4352c-5.7344 0-10.24-4.5056-10.24-10.24v-67.9936c0-5.7344 4.5056-10.24 10.24-10.24s10.24 4.5056 10.24 10.24v67.9936c0 5.7344-4.7104 10.24-10.24 10.24zM637.5424 905.8304c-5.7344 0-10.24-4.5056-10.24-10.24v-6.144c0-5.7344 4.5056-10.24 10.24-10.24s10.24 4.5056 10.24 10.24v6.144c0 5.7344-4.7104 10.24-10.24 10.24zM512.6144 527.9744c-19.0464 0-36.864-10.24-46.4896-26.8288-2.8672-4.9152-1.2288-11.0592 3.6864-13.9264 4.9152-2.8672 11.0592-1.2288 13.9264 3.6864 5.9392 10.24 16.9984 16.5888 28.672 16.5888s22.7328-6.3488 28.672-16.5888c2.8672-4.9152 9.0112-6.5536 13.9264-3.6864 4.9152 2.8672 6.5536 9.0112 3.6864 13.9264-9.216 16.5888-27.0336 26.8288-46.08 26.8288z" fill="#1C1D21" p-id="16313"></path></svg>