<svg xmlns="http://www.w3.org/2000/svg" viewBox="0 0 1024 1024" version="1.1"><path d="M512 512m-501.76 0a501.76 501.76 0 1 0 1003.52 0 501.76 501.76 0 1 0-1003.52 0Z" fill="#8CEEF9" p-id="17737"></path><path d="M590.0288 574.2592m-63.488 0a63.488 63.488 0 1 0 126.976 0 63.488 63.488 0 1 0-126.976 0Z" fill="#FF8939" p-id="17738"></path><path d="M581.0176 647.9872c-40.7552 0-73.728-32.9728-73.728-73.728s32.9728-73.728 73.728-73.728 73.728 32.9728 73.728 73.728-33.1776 73.728-73.728 73.728z m0-126.976c-29.2864 0-53.248 23.9616-53.248 53.248s23.9616 53.248 53.248 53.248 53.248-23.9616 53.248-53.248-23.9616-53.248-53.248-53.248z" fill="#1C1D21" p-id="17739"></path><path d="M442.9824 574.2592m-63.488 0a63.488 63.488 0 1 0 126.976 0 63.488 63.488 0 1 0-126.976 0Z" fill="#FF8939" p-id="17740"></path><path d="M442.9824 647.9872c-40.7552 0-73.728-32.9728-73.728-73.728s32.9728-73.728 73.728-73.728 73.728 32.9728 73.728 73.728-32.9728 73.728-73.728 73.728z m0-126.976c-29.2864 0-53.248 23.9616-53.248 53.248s23.9616 53.248 53.248 53.248 53.248-23.9616 53.248-53.248-23.7568-53.248-53.248-53.248z" fill="#1C1D21" p-id="17741"></path><path d="M610.7136 352.8704l16.5888-101.376c11.6736-71.0656-43.2128-135.7824-115.3024-135.7824-72.0896 0-126.976 64.7168-115.3024 135.7824l16.5888 101.376h197.4272z" fill="#FF8939" p-id="17742"></path><path d="M610.7136 363.1104h-197.2224c-4.9152 0-9.216-3.6864-10.0352-8.6016l-16.5888-101.376c-6.144-36.864 4.3008-74.3424 28.4672-102.8096s59.392-44.8512 96.8704-44.8512 72.704 16.384 96.8704 44.8512 34.6112 65.9456 28.4672 102.8096l-16.5888 101.376c-1.024 5.12-5.3248 8.6016-10.24 8.6016z m-188.6208-20.48h179.8144l15.1552-92.9792c5.12-30.9248-3.6864-62.464-23.9616-86.2208S543.3344 125.952 512 125.952s-61.0304 13.7216-81.3056 37.6832-29.0816 55.296-23.9616 86.2208l15.36 92.7744z" fill="#1C1D21" p-id="17743"></path><path d="M501.76 167.5264c-5.12 0-9.4208-3.6864-10.0352-8.8064-0.8192-5.5296 3.072-10.8544 8.8064-11.4688 3.8912-0.6144 7.7824-0.8192 11.6736-0.8192 5.7344 0 10.24 4.5056 10.24 10.24s-4.5056 10.24-10.24 10.24c-2.8672 0-5.9392 0.2048-8.8064 0.6144h-1.6384zM437.0432 254.976c-4.9152 0-9.216-3.4816-10.0352-8.6016-4.096-24.9856 2.8672-50.3808 19.2512-69.632 4.7104-5.5296 10.0352-10.4448 15.9744-14.5408 4.7104-3.2768 11.0592-2.2528 14.336 2.4576s2.2528 11.0592-2.4576 14.336c-4.5056 3.072-8.6016 6.9632-12.0832 11.0592-12.4928 14.7456-17.8176 33.9968-14.7456 53.0432 0.8192 5.5296-2.8672 10.8544-8.3968 11.6736-0.6144 0.2048-1.2288 0.2048-1.8432 0.2048zM813.6704 486.4l-6.9632-36.4544c-3.4816-18.6368-19.8656-32.1536-38.912-32.1536h-16.9984c-9.8304 0-18.0224 7.9872-18.0224 18.0224v32.768c0 9.8304 7.9872 18.0224 18.0224 18.0224h22.7328l13.312 154.2144c1.8432 20.48-14.336 38.0928-34.816 38.0928h-161.792c-20.2752 0-36.6592-16.384-36.6592-36.6592v-27.648c0-12.288 7.168-23.552 18.2272-28.8768 48.7424-22.7328 82.5344-72.0896 82.5344-129.2288v-65.536c0-78.6432-63.8976-142.5408-142.5408-142.5408-78.6432 0-142.5408 63.8976-142.5408 142.5408v65.536c0 57.344 33.792 106.7008 82.5344 129.2288 11.264 5.12 18.2272 16.5888 18.2272 28.8768v27.648c0 20.2752-16.384 36.6592-36.6592 36.6592h-161.792c-20.48 0-36.6592-17.6128-34.816-38.0928l13.312-154.2144h22.7328c9.8304 0 18.0224-7.9872 18.0224-18.0224v-32.768c0-9.8304-7.9872-18.0224-18.0224-18.0224H256c-19.0464 0-35.2256 13.5168-38.912 32.1536l-6.9632 36.4544-41.7792 221.184c-7.7824 41.3696 23.9616 79.4624 65.9456 79.4624h74.3424c23.552 0 44.2368 15.1552 51.6096 37.2736l11.264 34.4064c14.336 43.8272 14.9504 91.136 1.6384 135.3728 44.032 12.6976 90.5216 19.456 138.6496 19.456s94.6176-6.7584 138.6496-19.456c-13.312-44.2368-12.6976-91.5456 1.6384-135.3728l11.264-34.4064c7.3728-22.3232 28.0576-37.2736 51.6096-37.2736h74.3424c41.984 0 73.728-38.0928 65.9456-79.4624l-41.5744-221.184z" fill="#FFC5B3" p-id="17744"></path><path d="M512 1024c-48.128 0-95.6416-6.7584-141.312-19.8656-2.6624-0.8192-4.9152-2.4576-6.144-4.9152-1.2288-2.4576-1.6384-5.3248-0.8192-7.7824 12.6976-42.3936 12.288-87.2448-1.6384-129.2288l-11.264-34.4064c-5.9392-18.2272-22.7328-30.3104-41.7792-30.3104h-74.3424c-23.1424 0-44.8512-10.24-59.392-27.8528-14.7456-17.8176-20.6848-40.96-16.384-63.6928l22.7328-120.6272c1.024-5.5296 6.3488-9.216 11.8784-8.192 5.5296 1.024 9.216 6.3488 8.192 11.8784l-22.7328 120.6272c-3.072 16.5888 1.2288 33.792 12.0832 46.6944s26.8288 20.48 43.6224 20.48h74.3424c28.0576 0 52.6336 17.8176 61.2352 44.4416l11.264 34.4064c14.1312 42.8032 15.5648 88.064 4.5056 131.4816 40.96 10.8544 83.3536 16.384 125.952 16.384s84.992-5.5296 125.952-16.384c-11.0592-43.4176-9.4208-88.6784 4.5056-131.4816l11.264-34.4064c8.8064-26.624 33.3824-44.4416 61.2352-44.4416h74.3424c16.9984 0 32.9728-7.5776 43.6224-20.48s15.1552-30.1056 12.0832-46.6944l-48.5376-257.6384c-2.6624-13.9264-14.7456-23.7568-28.8768-23.7568h-16.9984c-4.3008 0-7.7824 3.4816-7.7824 7.7824v32.768c0 4.3008 3.4816 7.7824 7.7824 7.7824h22.7328c5.3248 0 9.8304 4.096 10.24 9.4208l13.312 154.2144c1.024 12.4928-3.2768 25.1904-11.6736 34.4064-8.6016 9.216-20.6848 14.7456-33.3824 14.7456h-161.792c-26.0096 0-46.8992-21.0944-46.8992-46.8992v-27.648c0-16.384 9.4208-31.3344 24.1664-38.0928 46.4896-21.7088 76.5952-68.8128 76.5952-120.0128v-65.536c0-72.9088-59.392-132.3008-132.3008-132.3008-72.9088 0-132.3008 59.392-132.3008 132.3008v65.536c0 51.2 30.1056 98.304 76.5952 120.0128 14.7456 6.7584 24.1664 21.7088 24.1664 38.0928v27.648c0 26.0096-21.0944 46.8992-46.8992 46.8992h-161.792c-12.6976 0-24.7808-5.3248-33.3824-14.7456-8.6016-9.216-12.9024-21.9136-11.6736-34.4064l13.312-154.2144c0.4096-5.3248 4.9152-9.4208 10.24-9.4208h22.7328c4.3008 0 7.7824-3.4816 7.7824-7.7824v-32.768c0-4.3008-3.4816-7.7824-7.7824-7.7824H256c-14.1312 0-26.2144 10.0352-28.8768 23.7568l-6.9632 36.4544c-1.024 5.5296-6.3488 9.216-11.8784 8.192-5.5296-1.024-9.216-6.3488-8.192-11.8784l6.9632-36.4544c4.5056-23.552 24.9856-40.5504 48.9472-40.5504h16.9984c15.5648 0 28.2624 12.6976 28.2624 28.2624v32.768c0 15.5648-12.6976 28.2624-28.2624 28.2624h-13.5168l-12.4928 144.7936c-0.6144 6.9632 1.6384 13.7216 6.3488 18.8416 4.7104 5.12 11.264 7.9872 18.2272 7.9872h161.792c14.5408 0 26.4192-11.8784 26.4192-26.4192v-27.648c0-8.3968-4.9152-15.9744-12.288-19.456-53.6576-24.9856-88.4736-79.4624-88.4736-138.6496v-65.536c0-84.1728 68.608-152.7808 152.7808-152.7808 84.1728 0 152.7808 68.608 152.7808 152.7808v65.536c0 59.1872-34.6112 113.664-88.4736 138.6496-7.5776 3.4816-12.288 11.264-12.288 19.456v27.648c0 14.5408 11.8784 26.4192 26.4192 26.4192h161.792c6.9632 0 13.5168-2.8672 18.2272-7.9872 4.7104-5.12 6.9632-11.8784 6.3488-18.8416l-12.4928-144.7936h-13.5168c-15.5648 0-28.2624-12.6976-28.2624-28.2624v-32.768c0-15.5648 12.6976-28.2624 28.2624-28.2624h16.9984c23.9616 0 44.4416 16.9984 48.9472 40.5504l48.5376 257.6384c4.3008 22.7328-1.6384 45.8752-16.384 63.6928-14.7456 17.8176-36.4544 27.8528-59.392 27.8528h-74.3424c-19.0464 0-35.84 12.0832-41.7792 30.3104l-11.264 34.4064c-13.9264 42.1888-14.336 86.8352-1.6384 129.2288 0.8192 2.6624 0.4096 5.5296-0.8192 7.7824-1.2288 2.4576-3.4816 4.096-6.144 4.9152-45.6704 13.1072-93.184 19.8656-141.312 19.8656z" fill="#1C1D21" p-id="17745"></path><path d="M200.0896 551.1168c-0.6144 0-1.2288 0-1.8432-0.2048-5.5296-1.024-9.216-6.3488-8.192-11.8784l3.072-15.9744c1.024-5.5296 6.3488-9.216 11.8784-8.192 5.5296 1.024 9.216 6.3488 8.192 11.8784l-3.072 15.9744c-1.024 5.12-5.3248 8.3968-10.0352 8.3968z" fill="#1C1D21" p-id="17746"></path><path d="M410.4192 408.1664c-5.7344 0-10.24-4.5056-10.24-10.24v-7.3728c0-5.7344 4.5056-10.24 10.24-10.24s10.24 4.5056 10.24 10.24v7.3728c0 5.5296-4.7104 10.24-10.24 10.24zM469.1968 558.2848c-1.4336 0-2.8672-0.4096-4.3008-1.024-39.3216-18.2272-64.7168-58.1632-64.7168-101.376v-24.3712c0-5.7344 4.5056-10.24 10.24-10.24s10.24 4.5056 10.24 10.24v24.3712c0 35.4304 20.6848 67.9936 52.8384 82.944 5.12 2.4576 7.3728 8.3968 4.9152 13.5168-1.6384 3.8912-5.3248 5.9392-9.216 5.9392z" fill="#FFECE9" p-id="17747"></path><path d="M374.3744 352.8704c10.6496 3.6864 22.1184 5.7344 33.9968 5.7344 56.5248 0 102.4-45.8752 102.4-102.4 0-2.8672-0.2048-5.7344-0.4096-8.3968-64.9216 0.8192-119.6032 45.056-135.9872 105.0624z" fill="#FF8939" p-id="17748"></path><path d="M613.1712 358.8096c12.6976 0 24.7808-2.2528 36.0448-6.5536-16.7936-60.2112-71.8848-104.448-137.4208-104.448h-0.8192c-0.2048 2.8672-0.4096 5.7344-0.4096 8.6016 0.2048 56.5248 46.08 102.4 102.6048 102.4z" fill="#FF8939" p-id="17749"></path><path d="M408.3712 369.0496c-12.6976 0-25.3952-2.048-37.4784-6.3488-5.12-1.8432-7.9872-7.168-6.5536-12.288 17.8176-65.536 77.824-111.8208 145.8176-112.64h0.2048c5.3248 0 9.8304 4.096 10.24 9.4208 0.2048 3.4816 0.4096 6.3488 0.4096 9.4208 0 61.8496-50.3808 112.4352-112.64 112.4352zM387.2768 346.112c6.9632 1.6384 13.9264 2.4576 21.0944 2.4576 49.9712 0 90.9312-40.1408 92.16-89.9072-51.4048 4.3008-95.8464 38.912-113.2544 87.4496z" fill="#1C1D21" p-id="17750"></path><path d="M613.1712 369.0496c-62.0544 0-112.64-50.5856-112.64-112.64 0-2.8672 0.2048-5.9392 0.4096-9.4208 0.4096-5.3248 4.9152-9.4208 10.0352-9.4208h0.8192c68.4032 0 129.024 46.08 147.2512 111.8208 1.4336 5.12-1.2288 10.4448-6.3488 12.288-12.4928 4.9152-25.8048 7.3728-39.5264 7.3728z m-92.16-110.592c1.024 49.9712 41.984 90.112 92.16 90.112 7.9872 0 15.7696-1.024 23.3472-3.072-17.6128-49.152-63.2832-83.5584-115.5072-87.04z" fill="#1C1D21" p-id="17751"></path><path d="M512 1024c-136.8064 0-265.4208-53.248-362.0864-149.9136S0 648.8064 0 512 53.248 246.5792 149.9136 149.9136 375.1936 0 512 0s265.4208 53.248 362.0864 149.9136S1024 375.1936 1024 512s-53.248 265.4208-149.9136 362.0864S648.8064 1024 512 1024z m0-1003.52C241.0496 20.48 20.48 241.0496 20.48 512s220.5696 491.52 491.52 491.52 491.52-220.5696 491.52-491.52S782.9504 20.48 512 20.48z" fill="#1C1D21" p-id="17752"></path><path d="M355.328 442.1632h13.9264v-71.8848h-13.9264c-19.8656 0-36.0448 16.1792-36.0448 36.0448 0 19.8656 16.1792 35.84 36.0448 35.84z" fill="#FFC5B3" p-id="17753"></path><path d="M369.2544 452.4032h-13.9264c-25.3952 0-46.2848-20.6848-46.2848-46.2848s20.6848-46.2848 46.2848-46.2848h13.9264c5.7344 0 10.24 4.5056 10.24 10.24v71.8848c0 5.9392-4.7104 10.4448-10.24 10.4448z m-13.9264-71.8848c-14.1312 0-25.8048 11.4688-25.8048 25.8048s11.4688 25.8048 25.8048 25.8048h3.6864v-51.4048h-3.6864z" fill="#1C1D21" p-id="17754"></path><path d="M668.672 442.1632h-13.9264v-71.8848h13.9264c19.8656 0 36.0448 16.1792 36.0448 36.0448 0 19.8656-16.1792 35.84-36.0448 35.84z" fill="#FFC5B3" p-id="17755"></path><path d="M668.672 452.4032h-13.9264c-5.7344 0-10.24-4.5056-10.24-10.24v-71.8848c0-5.7344 4.5056-10.24 10.24-10.24h13.9264c25.3952 0 46.2848 20.6848 46.2848 46.2848s-20.6848 46.08-46.2848 46.08z m-3.6864-20.48h3.6864c14.1312 0 25.8048-11.4688 25.8048-25.8048s-11.4688-25.8048-25.8048-25.8048h-3.6864v51.6096z" fill="#1C1D21" p-id="17756"></path><path d="M378.88 263.5776c0 12.288 10.0352 22.1184 22.1184 22.1184h61.0304v-44.4416h-61.0304c-12.0832 0-22.1184 10.0352-22.1184 22.3232z" fill="#FF3E63" p-id="17757"></path><path d="M462.2336 295.936h-61.0304c-17.8176 0-32.3584-14.5408-32.3584-32.3584s14.5408-32.3584 32.3584-32.3584h61.0304c5.7344 0 10.24 4.5056 10.24 10.24v44.4416c0 5.5296-4.7104 10.0352-10.24 10.0352z m-61.2352-44.4416c-6.5536 0-11.8784 5.3248-11.8784 11.8784s5.3248 11.8784 11.8784 11.8784h50.7904v-23.9616h-50.7904z" fill="#1C1D21" p-id="17758"></path><path d="M646.5536 263.5776c0 12.288-10.0352 22.1184-22.1184 22.1184H563.2v-44.4416h61.0304c12.288 0 22.3232 10.0352 22.3232 22.3232z" fill="#FF3E63" p-id="17759"></path><path d="M624.2304 295.936H563.2c-5.7344 0-10.24-4.5056-10.24-10.24v-44.4416c0-5.7344 4.5056-10.24 10.24-10.24h61.0304c17.8176 0 32.3584 14.5408 32.3584 32.3584s-14.336 32.5632-32.3584 32.5632z m-50.7904-20.48h50.7904c6.5536 0 11.8784-5.3248 11.8784-11.8784s-5.3248-11.8784-11.8784-11.8784H573.44v23.7568z" fill="#1C1D21" p-id="17760"></path><path d="M433.9712 263.5776v30.3104c0 7.3728 7.9872 11.8784 14.336 7.9872l63.6928-38.2976-63.6928-38.2976c-6.3488-3.8912-14.336 0.8192-14.336 7.9872v30.3104zM590.0288 263.5776v30.3104c0 7.3728-7.9872 11.8784-14.336 7.9872L512 263.5776l63.6928-38.2976c6.3488-3.8912 14.336 0.8192 14.336 7.9872v30.3104z" fill="#FF3E63" p-id="17761"></path><path d="M443.392 313.5488c-3.2768 0-6.7584-0.8192-9.6256-2.4576-6.144-3.4816-10.0352-10.0352-10.0352-17.2032v-60.6208c0-7.168 3.8912-13.7216 10.0352-17.2032 6.144-3.4816 13.7216-3.2768 19.8656 0.2048l63.6928 38.2976c3.072 1.8432 4.9152 5.12 4.9152 8.8064s-1.8432 6.9632-4.9152 8.8064l-63.6928 38.2976c-3.072 2.048-6.5536 3.072-10.24 3.072z m0.8192-78.848v57.7536l47.9232-28.8768-47.9232-28.8768z" fill="#1C1D21" p-id="17762"></path><path d="M580.608 313.5488c-3.4816 0-6.9632-1.024-10.24-2.8672L506.6752 272.384c-3.072-1.8432-4.9152-5.12-4.9152-8.8064s1.8432-6.9632 4.9152-8.8064l63.6928-38.2976c6.144-3.6864 13.7216-3.6864 19.8656-0.2048 6.144 3.4816 10.0352 10.0352 10.0352 17.2032v60.6208c0 7.168-3.8912 13.7216-10.0352 17.2032-3.072 1.4336-6.3488 2.2528-9.6256 2.2528z m-48.7424-49.9712l47.9232 28.8768v-57.7536l-47.9232 28.8768z" fill="#1C1D21" p-id="17763"></path><path d="M512 263.5776m-26.4192 0a26.4192 26.4192 0 1 0 52.8384 0 26.4192 26.4192 0 1 0-52.8384 0Z" fill="#FF3E63" p-id="17764"></path><path d="M512 300.2368c-20.2752 0-36.6592-16.384-36.6592-36.6592s16.384-36.6592 36.6592-36.6592 36.6592 16.384 36.6592 36.6592-16.384 36.6592-36.6592 36.6592z m0-52.8384c-9.0112 0-16.1792 7.3728-16.1792 16.1792 0 9.0112 7.3728 16.1792 16.1792 16.1792s16.1792-7.3728 16.1792-16.1792c0-9.0112-7.168-16.1792-16.1792-16.1792z" fill="#1C1D21" p-id="17765"></path><path d="M719.4624 678.5024h-128.8192c-7.7824 0-15.1552-2.4576-21.0944-6.7584l-0.6144 0.6144s-55.5008 63.488-56.7296 64.7168c-1.2288-1.2288-56.7296-64.7168-56.7296-64.7168l-0.8192-0.6144c-5.9392 4.3008-13.312 6.7584-21.0944 6.7584h-128.8192v108.544h4.3008c23.552 0 44.2368 15.1552 51.6096 37.2736l11.264 34.4064c14.336 43.8272 14.9504 91.136 1.6384 135.3728 44.032 12.6976 90.5216 19.456 138.6496 19.456s94.6176-6.7584 138.6496-19.456c-13.312-44.2368-12.6976-91.5456 1.6384-135.3728l11.264-34.4064c7.3728-22.3232 28.0576-37.2736 51.6096-37.2736h4.3008v-108.544z" fill="#508DEF" p-id="17766"></path><path d="M512 1024c-48.128 0-95.6416-6.7584-141.312-19.8656-2.6624-0.8192-4.9152-2.4576-6.144-4.9152-1.2288-2.4576-1.6384-5.3248-0.8192-7.7824 12.6976-42.3936 12.288-87.2448-1.6384-129.2288l-11.264-34.4064c-5.9392-18.2272-22.7328-30.3104-41.7792-30.3104h-4.3008c-5.7344 0-10.24-4.5056-10.24-10.24v-108.544c0-5.7344 4.5056-10.24 10.24-10.24h128.8192c5.5296 0 10.6496-1.6384 15.1552-4.9152 4.096-2.8672 9.6256-2.4576 13.1072 1.2288l0.6144 0.6144 0.4096 0.4096 48.9472 55.9104 48.9472-55.9104c0.2048-0.2048 0.2048-0.4096 0.4096-0.4096l0.6144-0.6144c3.4816-3.4816 9.0112-4.096 13.1072-1.2288 4.5056 3.072 9.8304 4.9152 15.1552 4.9152H718.848c5.7344 0 10.24 4.5056 10.24 10.24v108.544c0 5.7344-4.5056 10.24-10.24 10.24h-4.3008c-19.0464 0-35.84 12.0832-41.7792 30.3104L661.504 862.208c-13.9264 42.1888-14.336 86.8352-1.6384 129.2288 0.8192 2.6624 0.4096 5.5296-0.8192 7.7824-1.2288 2.4576-3.4816 4.096-6.144 4.9152-45.2608 13.1072-92.7744 19.8656-140.9024 19.8656z m-125.952-36.864c40.96 10.8544 83.3536 16.384 125.952 16.384s84.992-5.5296 125.952-16.384c-11.0592-43.4176-9.4208-88.6784 4.5056-131.4816l11.264-34.4064c8.192-24.576 29.9008-41.7792 55.296-44.032v-88.4736h-118.5792c-6.5536 0-12.9024-1.4336-18.8416-3.8912l-52.0192 59.392c-1.8432 2.2528-4.7104 3.4816-7.7824 3.4816s-5.7344-1.2288-7.7824-3.4816l-52.0192-59.392c-5.9392 2.6624-12.288 3.8912-18.8416 3.8912h-118.5792v88.4736c25.3952 2.2528 47.3088 19.456 55.296 44.032l11.264 34.4064c14.336 42.8032 15.9744 88.064 4.9152 131.4816z" fill="#1C1D21" p-id="17767"></path><path d="M512 737.28l-77.824 11.0592c-12.6976 1.8432-21.7088-12.288-14.336-22.9376l35.6352-52.8384L512 737.28zM512 737.28l77.824 11.0592c12.6976 1.8432 21.7088-12.288 14.336-22.9376l-35.6352-52.8384L512 737.28z" fill="#508DEF" p-id="17768"></path><path d="M431.9232 758.784c-8.6016 0-16.384-4.3008-21.0944-11.8784-5.3248-8.6016-5.12-19.0464 0.4096-27.4432l35.6352-52.8384c1.8432-2.6624 4.7104-4.3008 7.7824-4.5056 3.2768-0.2048 6.3488 1.024 8.3968 3.4816l56.7296 64.7168c2.4576 2.8672 3.2768 6.7584 1.8432 10.24-1.2288 3.4816-4.5056 6.144-8.192 6.5536l-77.824 11.0592c-1.2288 0.4096-2.4576 0.6144-3.6864 0.6144z m24.3712-69.4272L428.2368 731.136c-1.4336 2.2528-0.6144 4.096 0 5.12s2.048 2.4576 4.5056 2.048l59.1872-8.3968-35.6352-40.5504z" fill="#1C1D21" p-id="17769"></path><path d="M592.0768 758.784c-1.2288 0-2.4576 0-3.6864-0.2048l-77.824-11.0592c-3.6864-0.6144-6.7584-3.072-8.192-6.5536-1.2288-3.4816-0.6144-7.5776 1.8432-10.24l56.7296-64.7168c2.048-2.4576 5.12-3.6864 8.3968-3.4816 3.072 0.2048 6.144 1.8432 7.7824 4.5056l35.6352 52.8384c5.5296 8.3968 5.7344 18.8416 0.4096 27.4432-4.7104 6.9632-12.4928 11.4688-21.0944 11.4688z m-60.0064-28.8768l59.1872 8.3968c2.6624 0.4096 3.8912-1.2288 4.5056-2.048 0.6144-1.024 1.4336-2.8672 0-5.12l-28.0576-41.7792-35.6352 40.5504z" fill="#1C1D21" p-id="17770"></path><path d="M318.8736 810.3936h11.0592c7.9872 0 14.336-6.3488 14.336-14.336V673.792c0-7.9872-6.3488-14.336-14.336-14.336h-11.0592c-7.9872 0-14.336 6.3488-14.336 14.336v122.2656c0 7.7824 6.5536 14.336 14.336 14.336zM694.0672 810.3936h11.0592c7.9872 0 14.336-6.3488 14.336-14.336V673.792c0-7.9872-6.3488-14.336-14.336-14.336h-11.0592c-7.9872 0-14.336 6.3488-14.336 14.336v122.2656c0 7.7824 6.3488 14.336 14.336 14.336z" fill="#508DEF" p-id="17771"></path><path d="M705.1264 820.6336h-11.0592c-13.5168 0-24.576-11.0592-24.576-24.576V673.792c0-13.5168 11.0592-24.576 24.576-24.576h11.0592c13.5168 0 24.576 11.0592 24.576 24.576v122.2656c0 13.5168-11.0592 24.576-24.576 24.576z m-11.0592-150.9376c-2.2528 0-4.096 1.8432-4.096 4.096v122.2656c0 2.2528 1.8432 4.096 4.096 4.096h11.0592c2.2528 0 4.096-1.8432 4.096-4.096V673.792c0-2.2528-1.8432-4.096-4.096-4.096h-11.0592z" fill="#1C1D21" p-id="17772"></path><path d="M544.768 938.8032h-13.1072v-24.3712c29.696-8.6016 51.4048-35.84 51.4048-68.1984 0-39.1168-31.9488-71.0656-71.0656-71.0656s-71.0656 31.9488-71.0656 71.0656c0 32.3584 21.7088 59.5968 51.4048 68.1984v24.3712H479.232c-10.8544 0-19.6608 8.8064-19.6608 19.6608s8.8064 19.6608 19.6608 19.6608h13.1072v15.7696c0 10.8544 8.8064 19.6608 19.6608 19.6608s19.6608-8.8064 19.6608-19.6608v-15.7696h13.1072c10.8544 0 19.6608-8.8064 19.6608-19.6608s-8.8064-19.6608-19.6608-19.6608z m-60.0064-92.5696c0-14.9504 12.288-27.2384 27.2384-27.2384 14.9504 0 27.2384 12.288 27.2384 27.2384 0 14.9504-12.288 27.2384-27.2384 27.2384-14.9504 0-27.2384-12.288-27.2384-27.2384z" fill="#FF3E63" p-id="17773"></path><path d="M512 1024c-16.5888 0-29.9008-13.5168-29.9008-29.9008v-5.5296H479.232c-16.5888 0-29.9008-13.5168-29.9008-29.9008s13.5168-29.9008 29.9008-29.9008h2.8672v-6.9632c-30.5152-12.0832-51.4048-42.1888-51.4048-75.5712 0-44.8512 36.4544-81.3056 81.3056-81.3056s81.3056 36.4544 81.3056 81.3056c0 33.3824-20.6848 63.2832-51.4048 75.5712v6.9632h2.8672c16.5888 0 29.9008 13.5168 29.9008 29.9008s-13.5168 29.9008-29.9008 29.9008h-2.8672v5.5296c0 16.384-13.312 29.9008-29.9008 29.9008z m-32.768-74.9568c-5.12 0-9.4208 4.3008-9.4208 9.4208s4.3008 9.4208 9.4208 9.4208h13.1072c5.7344 0 10.24 4.5056 10.24 10.24v15.7696c0 5.12 4.3008 9.4208 9.4208 9.4208s9.4208-4.3008 9.4208-9.4208v-15.7696c0-5.7344 4.5056-10.24 10.24-10.24h13.1072c5.12 0 9.4208-4.3008 9.4208-9.4208s-4.3008-9.4208-9.4208-9.4208h-13.1072c-5.7344 0-10.24-4.5056-10.24-10.24v-24.3712c0-4.5056 3.072-8.6016 7.3728-9.8304 25.8048-7.5776 44.032-31.5392 44.032-58.368 0-33.5872-27.2384-60.8256-60.8256-60.8256s-60.8256 27.2384-60.8256 60.8256c0 26.8288 18.0224 50.9952 44.032 58.368 4.3008 1.2288 7.3728 5.3248 7.3728 9.8304v24.3712c0 5.7344-4.5056 10.24-10.24 10.24H479.232z m32.768-65.3312c-20.6848 0-37.4784-16.7936-37.4784-37.4784 0-20.6848 16.7936-37.4784 37.4784-37.4784s37.4784 16.7936 37.4784 37.4784c0 20.6848-16.7936 37.4784-37.4784 37.4784z m0-54.4768c-9.4208 0-16.9984 7.5776-16.9984 16.9984 0 9.4208 7.5776 16.9984 16.9984 16.9984s16.9984-7.5776 16.9984-16.9984c0-9.4208-7.5776-16.9984-16.9984-16.9984z" fill="#1C1D21" p-id="17774"></path><path d="M512 785.6128c-5.7344 0-10.24-4.5056-10.24-10.24V737.28c0-5.7344 4.5056-10.24 10.24-10.24s10.24 4.5056 10.24 10.24v37.888c0 5.7344-4.5056 10.4448-10.24 10.4448z" fill="#1C1D21" p-id="17775"></path><path d="M373.76 781.9264c-2.4576 0-4.9152-0.8192-6.9632-2.6624-15.7696-14.7456-36.4544-22.7328-57.9584-22.7328-5.7344 0-10.24-4.5056-10.24-10.24s4.5056-10.24 10.24-10.24c26.8288 0 52.4288 10.0352 71.8848 28.2624 4.096 3.8912 4.3008 10.24 0.4096 14.5408-1.8432 2.048-4.5056 3.072-7.3728 3.072zM399.36 821.8624c-4.3008 0-8.3968-2.6624-9.6256-6.9632-0.6144-2.048-1.4336-4.096-2.2528-6.144-2.2528-5.3248 0.4096-11.264 5.5296-13.312 5.3248-2.2528 11.264 0.4096 13.312 5.5296 1.024 2.4576 2.048 4.9152 2.8672 7.5776 1.8432 5.3248-1.2288 11.0592-6.5536 12.9024-1.2288 0.4096-2.2528 0.4096-3.2768 0.4096zM421.6832 974.2336h-1.4336c-5.5296-0.8192-9.6256-5.9392-8.8064-11.4688 5.12-38.2976 1.4336-76.3904-10.6496-113.2544-1.8432-5.3248 1.2288-11.0592 6.5536-12.9024 5.3248-1.8432 11.0592 1.2288 12.9024 6.5536 13.1072 39.936 16.9984 81.1008 11.4688 122.2656-0.4096 5.12-4.9152 8.8064-10.0352 8.8064z" fill="#ABD1FF" p-id="17776"></path><path d="M329.9328 820.6336h-11.0592c-13.5168 0-24.576-11.0592-24.576-24.576V673.792c0-13.5168 11.0592-24.576 24.576-24.576h11.0592c13.5168 0 24.576 11.0592 24.576 24.576v122.2656c0 13.5168-11.0592 24.576-24.576 24.576z m-11.0592-150.9376c-2.2528 0-4.096 1.8432-4.096 4.096v122.2656c0 2.2528 1.8432 4.096 4.096 4.096h11.0592c2.2528 0 4.096-1.8432 4.096-4.096V673.792c0-2.2528-1.8432-4.096-4.096-4.096h-11.0592zM512 544.5632c-16.9984 0-32.9728-9.216-41.5744-23.9616-2.8672-4.9152-1.2288-11.0592 3.6864-13.9264 4.9152-2.8672 11.0592-1.2288 13.9264 3.6864 4.9152 8.3968 14.1312 13.7216 23.7568 13.7216s18.8416-5.3248 23.7568-13.7216c2.8672-4.9152 9.0112-6.5536 13.9264-3.6864 4.9152 2.8672 6.5536 9.0112 3.6864 13.9264-8.192 14.7456-24.1664 23.9616-41.1648 23.9616z" fill="#1C1D21" p-id="17777"></path></svg>