<svg xmlns="http://www.w3.org/2000/svg" viewBox="0 0 1024 1024" version="1.1"><path d="M512 512m-501.76 0a501.76 501.76 0 1 0 1003.52 0 501.76 501.76 0 1 0-1003.52 0Z" fill="#8CEEF9" p-id="14328"></path><path d="M512 1024c-136.8064 0-265.4208-53.248-362.0864-149.9136C53.248 777.4208 0 648.8064 0 512S53.248 246.5792 149.9136 149.9136C246.5792 53.248 375.1936 0 512 0s265.4208 53.248 362.0864 149.9136C970.752 246.5792 1024 375.1936 1024 512s-53.248 265.4208-149.9136 362.0864C777.4208 970.752 648.8064 1024 512 1024z m0-1003.52C241.0496 20.48 20.48 241.0496 20.48 512s220.5696 491.52 491.52 491.52 491.52-220.5696 491.52-491.52S782.9504 20.48 512 20.48z" fill="#1C1D21" p-id="14329"></path><path d="M338.7392 189.2352H770.048c32.9728 0 60.8256 25.8048 61.6448 58.7776 0.8192 33.9968-26.4192 61.8496-60.2112 61.8496h-15.9744v424.1408c0 18.0224-14.7456 32.768-32.768 32.768H386.048c-18.0224 0-32.768-14.7456-32.768-32.768V309.8624h-15.9744c-33.792 0-61.2352-27.8528-60.2112-61.8496 0.8192-32.9728 28.672-58.7776 61.6448-58.7776z" fill="#C67552" p-id="14330"></path><path d="M722.7392 777.0112H386.048c-23.7568 0-43.008-19.2512-43.008-43.008V320.1024h-5.7344c-19.2512 0-37.0688-7.5776-50.5856-21.2992-13.312-13.7216-20.48-31.9488-20.0704-50.9952 1.024-37.888 33.1776-68.608 71.8848-68.608H770.048c38.7072 0 70.8608 30.72 71.8848 68.608 0.4096 19.2512-6.5536 37.2736-20.0704 50.9952-13.312 13.7216-31.3344 21.2992-50.5856 21.2992h-5.7344v413.9008c0.2048 23.552-19.0464 43.008-42.8032 43.008z m-384-577.536c-27.648 0-50.7904 21.9136-51.4048 48.7424-0.4096 13.7216 4.7104 26.4192 14.1312 36.2496 9.4208 9.8304 22.3232 15.1552 35.84 15.1552h15.9744c5.7344 0 10.24 4.5056 10.24 10.24v424.1408c0 12.4928 10.0352 22.528 22.528 22.528h336.6912c12.4928 0 22.528-10.0352 22.528-22.528V309.8624c0-5.7344 4.5056-10.24 10.24-10.24h15.9744c13.5168 0 26.4192-5.3248 35.84-15.1552 9.4208-9.8304 14.5408-22.528 14.1312-36.2496-0.6144-26.8288-23.7568-48.7424-51.4048-48.7424H338.7392z" fill="#1C1D21" p-id="14331"></path><path d="M253.952 189.2352h431.3088c32.9728 0 60.8256 25.8048 61.6448 58.7776 0.8192 33.9968-26.4192 61.8496-60.2112 61.8496h-15.9744v424.1408c0 18.0224-14.7456 32.768-32.768 32.768H301.2608c-18.0224 0-32.768-14.7456-32.768-32.768V309.8624h-15.9744c-33.792 0-61.2352-27.8528-60.2112-61.8496 1.024-32.9728 28.8768-58.7776 61.6448-58.7776z" fill="#FFC5B3" p-id="14332"></path><path d="M637.952 777.0112H301.2608c-23.7568 0-43.008-19.2512-43.008-43.008V320.1024h-5.7344c-19.2512 0-37.0688-7.5776-50.5856-21.2992-13.312-13.7216-20.48-31.9488-20.0704-50.9952 1.024-37.888 33.1776-68.608 71.8848-68.608h431.3088c38.7072 0 70.8608 30.72 71.8848 68.608 0.4096 19.2512-6.5536 37.2736-20.0704 50.9952-13.312 13.7216-31.3344 21.2992-50.5856 21.2992h-5.7344v413.9008c0.4096 23.552-18.8416 43.008-42.5984 43.008zM253.952 199.4752c-27.648 0-50.7904 21.9136-51.4048 48.7424-0.4096 13.7216 4.7104 26.4192 14.1312 36.2496 9.4208 9.8304 22.3232 15.1552 35.84 15.1552h15.9744c5.7344 0 10.24 4.5056 10.24 10.24v424.1408c0 12.4928 10.0352 22.528 22.528 22.528h336.6912c12.4928 0 22.528-10.0352 22.528-22.528V309.8624c0-5.7344 4.5056-10.24 10.24-10.24h15.9744c13.5168 0 26.4192-5.3248 35.84-15.1552 9.4208-9.8304 14.5408-22.528 14.1312-36.2496-0.6144-26.8288-23.7568-48.7424-51.4048-48.7424H253.952z" fill="#1C1D21" p-id="14333"></path><path d="M329.9328 379.904c-5.7344 0-10.24-4.5056-10.24-10.24V354.304c0-5.7344 4.5056-10.24 10.24-10.24s10.24 4.5056 10.24 10.24v15.36c0 5.7344-4.5056 10.24-10.24 10.24zM329.9328 520.8064c-5.7344 0-10.24-4.5056-10.24-10.24v-97.28c0-5.7344 4.5056-10.24 10.24-10.24s10.24 4.5056 10.24 10.24v97.28c0 5.5296-4.5056 10.24-10.24 10.24z" fill="#FFECE9" p-id="14334"></path><path d="M389.5296 399.1552m-29.4912 0a29.4912 29.4912 0 1 0 58.9824 0 29.4912 29.4912 0 1 0-58.9824 0Z" fill="#EFA692" p-id="14335"></path><path d="M554.3936 402.2272m-20.8896 0a20.8896 20.8896 0 1 0 41.7792 0 20.8896 20.8896 0 1 0-41.7792 0Z" fill="#EFA692" p-id="14336"></path><path d="M592.0768 540.0576m-29.4912 0a29.4912 29.4912 0 1 0 58.9824 0 29.4912 29.4912 0 1 0-58.9824 0Z" fill="#EFA692" p-id="14337"></path><path d="M593.7152 259.8912m-16.7936 0a16.7936 16.7936 0 1 0 33.5872 0 16.7936 16.7936 0 1 0-33.5872 0Z" fill="#EFA692" p-id="14338"></path><path d="M381.7472 522.0352m-21.0944 0a21.0944 21.0944 0 1 0 42.1888 0 21.0944 21.0944 0 1 0-42.1888 0Z" fill="#EFA692" p-id="14339"></path><path d="M378.4704 259.8912m-21.0944 0a21.0944 21.0944 0 1 0 42.1888 0 21.0944 21.0944 0 1 0-42.1888 0Z" fill="#EFA692" p-id="14340"></path><path d="M485.5808 506.2656m-15.5648 0a15.5648 15.5648 0 1 0 31.1296 0 15.5648 15.5648 0 1 0-31.1296 0Z" fill="#EFA692" p-id="14341"></path><path d="M489.6768 300.8512m-11.4688 0a11.4688 11.4688 0 1 0 22.9376 0 11.4688 11.4688 0 1 0-22.9376 0Z" fill="#EFA692" p-id="14342"></path><path d="M450.7648 632.4224m-11.4688 0a11.4688 11.4688 0 1 0 22.9376 0 11.4688 11.4688 0 1 0-22.9376 0Z" fill="#EFA692" p-id="14343"></path><path d="M755.5072 320.1024h-133.9392c-5.7344 0-10.24-4.5056-10.24-10.24s4.5056-10.24 10.24-10.24h133.9392c5.7344 0 10.24 4.5056 10.24 10.24s-4.7104 10.24-10.24 10.24z" fill="#1C1D21" p-id="14344"></path><path d="M233.6768 553.7792L210.944 531.0464c-31.5392-31.5392-70.4512-55.0912-113.0496-68.1984 13.1072 42.5984 36.6592 81.5104 68.1984 113.0496l22.7328 22.7328 44.8512-44.8512z" fill="#FF9E5C" p-id="14345"></path><path d="M188.6208 608.8704c-2.6624 0-5.3248-1.024-7.168-3.072l-22.7328-22.7328C126.1568 550.5024 101.5808 509.952 88.064 465.92c-1.024-3.6864-0.2048-7.5776 2.4576-10.24 2.6624-2.6624 6.5536-3.6864 10.24-2.4576 44.032 13.7216 84.5824 38.0928 117.3504 70.656l22.7328 22.7328c4.096 4.096 4.096 10.4448 0 14.5408l-44.8512 44.8512c-2.048 1.8432-4.5056 2.8672-7.3728 2.8672zM114.688 479.6416c13.312 33.1776 33.3824 63.6928 58.5728 89.088l15.36 15.36 30.3104-30.3104-15.36-15.36c-25.1904-25.3952-55.7056-45.4656-88.8832-58.7776z" fill="#1C1D21" p-id="14346"></path><path d="M413.9008 816.9472h-86.6304l33.3824 33.3824c17.2032 17.2032 40.3456 26.8288 64.7168 26.8288H512L478.6176 843.776c-16.9984-17.2032-40.3456-26.8288-64.7168-26.8288zM352.8704 755.712H266.24l33.3824 33.3824c17.2032 17.2032 40.3456 26.8288 64.7168 26.8288h86.6304l-33.3824-33.3824c-17.2032-17.2032-40.5504-26.8288-64.7168-26.8288zM291.6352 694.6816h-86.6304l33.3824 33.3824c17.2032 17.2032 40.3456 26.8288 64.7168 26.8288h86.6304L356.352 721.5104c-17.2032-17.2032-40.5504-26.8288-64.7168-26.8288zM230.4 633.4464H143.7696l33.3824 33.3824c17.2032 17.2032 40.3456 26.8288 64.7168 26.8288h86.6304l-33.3824-33.3824c-17.2032-17.2032-40.3456-26.8288-64.7168-26.8288zM169.1648 572.2112H82.5344l33.3824 33.3824c17.2032 17.2032 40.3456 26.8288 64.7168 26.8288h86.6304l-33.3824-33.3824c-16.9984-17.2032-40.3456-26.8288-64.7168-26.8288z" fill="#FF9E5C" p-id="14347"></path><path d="M451.9936 779.0592v-86.6304l33.3824 33.3824c17.2032 17.2032 26.8288 40.3456 26.8288 64.7168v86.6304L478.6176 843.776c-16.9984-17.2032-26.624-40.3456-26.624-64.7168zM390.7584 717.824v-86.6304l33.3824 33.3824c17.2032 17.2032 26.8288 40.3456 26.8288 64.7168v86.6304l-33.3824-33.3824c-17.2032-17.2032-26.8288-40.3456-26.8288-64.7168zM329.5232 656.7936v-86.6304l33.3824 33.3824c17.2032 17.2032 26.8288 40.3456 26.8288 64.7168v86.6304L356.352 721.5104c-17.2032-17.2032-26.8288-40.5504-26.8288-64.7168zM268.288 595.5584v-86.6304l33.3824 33.3824c17.2032 17.2032 26.8288 40.3456 26.8288 64.7168v86.6304l-33.3824-33.3824c-17.2032-17.2032-26.8288-40.5504-26.8288-64.7168zM207.2576 534.3232v-86.6304l33.3824 33.3824c17.2032 17.2032 26.8288 40.3456 26.8288 64.7168v86.6304l-33.3824-33.3824c-17.2032-17.2032-26.8288-40.3456-26.8288-64.7168z" fill="#FF9E5C" p-id="14348"></path><path d="M512 887.3984h-86.6304c-27.2384 0-52.8384-10.6496-71.8848-29.9008l-33.3824-33.3824c-2.8672-2.8672-3.8912-7.3728-2.2528-11.0592 1.6384-3.8912 5.3248-6.3488 9.4208-6.3488h86.6304c27.2384 0 52.8384 10.6496 71.8848 29.9008l33.3824 33.3824c2.8672 2.8672 3.8912 7.3728 2.2528 11.0592-1.6384 3.6864-5.3248 6.3488-9.4208 6.3488z m-159.9488-60.2112l15.7696 15.7696c15.36 15.36 35.84 23.7568 57.5488 23.7568h61.8496l-15.7696-15.7696c-15.36-15.36-35.84-23.7568-57.5488-23.7568h-61.8496z" fill="#1C1D21" p-id="14349"></path><path d="M450.7648 826.1632h-86.6304c-27.2384 0-52.6336-10.6496-71.8848-29.9008l-33.3824-33.3824c-2.8672-2.8672-3.8912-7.3728-2.2528-11.0592 1.6384-3.8912 5.3248-6.3488 9.4208-6.3488h86.6304c27.2384 0 52.6336 10.6496 71.8848 29.9008l33.3824 33.3824c2.8672 2.8672 3.8912 7.3728 2.2528 11.0592-1.4336 3.8912-5.3248 6.3488-9.4208 6.3488zM290.816 765.952l15.7696 15.7696c15.36 15.36 35.84 23.7568 57.5488 23.7568H425.984l-15.7696-15.7696c-15.36-15.36-35.84-23.7568-57.5488-23.7568H290.816z" fill="#1C1D21" p-id="14350"></path><path d="M389.5296 764.928h-86.6304c-27.2384 0-52.8384-10.6496-71.8848-29.9008l-33.3824-33.3824c-2.8672-2.8672-3.8912-7.3728-2.2528-11.0592 1.6384-3.8912 5.3248-6.3488 9.4208-6.3488h86.6304c27.2384 0 52.8384 10.6496 71.8848 29.9008l33.3824 33.3824c2.8672 2.8672 3.8912 7.3728 2.2528 11.0592-1.4336 3.8912-5.12 6.3488-9.4208 6.3488z m-159.744-60.0064l15.7696 15.7696c15.36 15.36 35.84 23.7568 57.5488 23.7568h61.8496l-15.7696-15.7696c-15.36-15.36-35.84-23.7568-57.5488-23.7568h-61.8496z" fill="#1C1D21" p-id="14351"></path><path d="M328.4992 703.6928h-86.6304c-27.2384 0-52.6336-10.6496-71.8848-29.9008l-33.3824-33.3824c-2.8672-2.8672-3.8912-7.3728-2.2528-11.0592 1.6384-3.8912 5.3248-6.3488 9.4208-6.3488h86.6304c27.2384 0 52.6336 10.6496 71.8848 29.9008l33.3824 33.3824c2.8672 2.8672 3.8912 7.3728 2.2528 11.0592-1.6384 3.8912-5.3248 6.3488-9.4208 6.3488z m-159.9488-60.0064L184.32 659.456c15.36 15.36 35.84 23.7568 57.5488 23.7568h61.8496l-15.7696-15.7696c-15.36-15.36-35.84-23.7568-57.5488-23.7568H168.5504z" fill="#1C1D21" p-id="14352"></path><path d="M267.264 642.6624H180.6336c-27.2384 0-52.8384-10.6496-71.8848-29.9008l-33.3824-33.3824c-2.8672-2.8672-3.8912-7.3728-2.2528-11.0592 1.6384-3.8912 5.3248-6.3488 9.4208-6.3488h86.6304c27.2384 0 52.8384 10.6496 71.8848 29.9008l33.3824 33.3824c2.8672 2.8672 3.8912 7.3728 2.2528 11.0592-1.6384 3.6864-5.3248 6.3488-9.4208 6.3488z m-159.9488-60.2112l15.7696 15.7696c15.36 15.36 35.84 23.7568 57.5488 23.7568h61.8496l-15.7696-15.7696c-15.36-15.36-35.84-23.7568-57.5488-23.7568H107.3152zM512 887.3984c-2.6624 0-5.3248-1.024-7.168-3.072l-33.3824-33.3824c-19.2512-19.2512-29.9008-44.8512-29.9008-71.8848v-86.6304c0-4.096 2.4576-7.7824 6.3488-9.4208 3.8912-1.6384 8.192-0.6144 11.0592 2.2528l33.3824 33.3824c19.2512 19.2512 29.9008 44.8512 29.9008 71.8848v86.6304c0 4.096-2.4576 7.7824-6.3488 9.4208-1.2288 0.4096-2.6624 0.8192-3.8912 0.8192z m-49.7664-170.1888v61.8496c0 21.7088 8.3968 42.1888 23.7568 57.5488l15.7696 15.7696V790.528c0-21.7088-8.3968-42.1888-23.7568-57.5488l-15.7696-15.7696z" fill="#1C1D21" p-id="14353"></path><path d="M450.7648 826.1632c-2.6624 0-5.3248-1.024-7.168-3.072l-33.3824-33.3824c-19.2512-19.2512-29.9008-44.8512-29.9008-71.8848v-86.6304c0-4.096 2.4576-7.7824 6.3488-9.4208 3.8912-1.6384 8.192-0.6144 11.0592 2.2528l33.3824 33.3824c19.2512 19.2512 29.9008 44.8512 29.9008 71.8848v86.6304c0 4.096-2.4576 7.7824-6.3488 9.4208-1.2288 0.6144-2.4576 0.8192-3.8912 0.8192z m-49.7664-170.1888v61.8496c0 21.7088 8.3968 42.1888 23.7568 57.5488l15.7696 15.7696v-61.8496c0-21.7088-8.3968-42.1888-23.7568-57.5488l-15.7696-15.7696z" fill="#1C1D21" p-id="14354"></path><path d="M389.7344 764.928c-2.6624 0-5.3248-1.024-7.168-3.072l-33.3824-33.3824c-19.2512-19.2512-29.9008-44.8512-29.9008-71.8848v-86.6304c0-4.096 2.4576-7.7824 6.3488-9.4208 3.8912-1.6384 8.192-0.6144 11.0592 2.2528l33.3824 33.3824c19.2512 19.2512 29.9008 44.8512 29.9008 71.8848v86.6304c0 4.096-2.4576 7.7824-6.3488 9.4208-1.4336 0.6144-2.6624 0.8192-3.8912 0.8192z m-49.9712-170.1888v61.8496c0 21.7088 8.3968 42.1888 23.7568 57.5488l15.7696 15.7696v-61.8496c0-21.7088-8.3968-42.1888-23.7568-57.5488l-15.7696-15.7696z" fill="#1C1D21" p-id="14355"></path><path d="M328.4992 703.6928c-2.6624 0-5.3248-1.024-7.168-3.072l-33.3824-33.3824c-19.2512-19.2512-29.9008-44.8512-29.9008-71.8848v-86.6304c0-4.096 2.4576-7.7824 6.3488-9.4208 3.8912-1.6384 8.192-0.6144 11.0592 2.2528l33.3824 33.3824c19.2512 19.2512 29.9008 44.8512 29.9008 71.8848v86.6304c0 4.096-2.4576 7.7824-6.3488 9.4208-1.2288 0.6144-2.6624 0.8192-3.8912 0.8192zM278.528 533.504v61.8496c0 21.7088 8.3968 42.1888 23.7568 57.5488l15.7696 15.7696v-61.8496c0-21.7088-8.3968-42.1888-23.7568-57.5488l-15.7696-15.7696z" fill="#1C1D21" p-id="14356"></path><path d="M267.264 642.6624c-2.6624 0-5.3248-1.024-7.168-3.072L226.7136 606.208c-19.2512-19.2512-29.9008-44.8512-29.9008-71.8848v-86.6304c0-4.096 2.4576-7.7824 6.3488-9.4208 3.8912-1.6384 8.192-0.6144 11.0592 2.2528l33.3824 33.3824c19.2512 19.2512 29.9008 44.8512 29.9008 71.8848v86.6304c0 4.096-2.4576 7.7824-6.3488 9.4208-1.2288 0.4096-2.6624 0.8192-3.8912 0.8192z m-49.7664-170.1888v61.8496c0 21.7088 8.3968 42.1888 23.7568 57.5488l15.7696 15.7696v-61.8496c0-21.7088-8.3968-42.1888-23.7568-57.5488l-15.7696-15.7696z" fill="#1C1D21" p-id="14357"></path><path d="M790.3232 553.7792l22.7328-22.7328c31.5392-31.5392 70.4512-55.0912 113.0496-68.1984-13.1072 42.5984-36.6592 81.5104-68.1984 113.0496l-22.7328 22.7328-44.8512-44.8512z" fill="#FF9E5C" p-id="14358"></path><path d="M835.3792 608.8704c-2.6624 0-5.3248-1.024-7.168-3.072l-44.8512-44.8512c-4.096-4.096-4.096-10.4448 0-14.5408l22.7328-22.7328c32.5632-32.5632 73.1136-57.1392 117.3504-70.656 3.6864-1.024 7.5776-0.2048 10.24 2.4576 2.6624 2.6624 3.6864 6.5536 2.4576 10.24-13.7216 44.032-38.0928 84.5824-70.656 117.3504l-22.7328 22.7328c-2.048 2.048-4.7104 3.072-7.3728 3.072zM804.864 553.7792l30.3104 30.3104 15.36-15.36c25.3952-25.3952 45.2608-55.9104 58.5728-89.088-33.1776 13.312-63.6928 33.3824-89.088 58.5728l-15.1552 15.5648z" fill="#1C1D21" p-id="14359"></path><path d="M610.0992 816.9472h86.6304l-33.3824 33.3824c-17.2032 17.2032-40.3456 26.8288-64.7168 26.8288H512l33.3824-33.3824c16.9984-17.2032 40.3456-26.8288 64.7168-26.8288zM671.1296 755.712H757.76l-33.3824 33.3824c-17.2032 17.2032-40.3456 26.8288-64.7168 26.8288h-86.6304l33.3824-33.3824c17.2032-17.2032 40.5504-26.8288 64.7168-26.8288zM732.3648 694.6816h86.6304l-33.3824 33.3824c-17.2032 17.2032-40.3456 26.8288-64.7168 26.8288h-86.6304l33.3824-33.3824c17.2032-17.2032 40.5504-26.8288 64.7168-26.8288zM793.6 633.4464h86.6304l-33.3824 33.3824c-17.2032 17.2032-40.3456 26.8288-64.7168 26.8288h-86.6304l33.3824-33.3824c17.2032-17.2032 40.3456-26.8288 64.7168-26.8288zM854.8352 572.2112h86.6304l-33.3824 33.3824c-17.2032 17.2032-40.3456 26.8288-64.7168 26.8288h-86.6304l33.3824-33.3824c16.9984-17.2032 40.3456-26.8288 64.7168-26.8288zM572.0064 779.0592v-86.6304L538.624 725.8112c-17.2032 17.2032-26.8288 40.3456-26.8288 64.7168v86.6304l33.3824-33.3824c17.2032-17.2032 26.8288-40.3456 26.8288-64.7168z" fill="#FF9E5C" p-id="14360"></path><path d="M633.2416 717.824v-86.6304L600.064 664.576c-17.2032 17.2032-26.8288 40.3456-26.8288 64.7168v86.6304l33.3824-33.3824c16.9984-17.2032 26.624-40.3456 26.624-64.7168zM694.4768 656.7936v-86.6304l-33.3824 33.3824c-17.2032 17.2032-26.8288 40.3456-26.8288 64.7168v86.6304l33.3824-33.3824c17.2032-17.2032 26.8288-40.5504 26.8288-64.7168zM755.712 595.5584v-86.6304l-33.3824 33.3824c-17.2032 17.2032-26.8288 40.3456-26.8288 64.7168v86.6304l33.3824-33.3824c17.2032-17.2032 26.8288-40.5504 26.8288-64.7168zM816.7424 534.3232v-86.6304l-33.3824 33.3824c-17.2032 17.2032-26.8288 40.3456-26.8288 64.7168v86.6304l33.3824-33.3824c17.2032-17.2032 26.8288-40.3456 26.8288-64.7168z" fill="#FF9E5C" p-id="14361"></path><path d="M598.6304 887.3984H512c-4.096 0-7.7824-2.4576-9.4208-6.3488-1.6384-3.8912-0.6144-8.192 2.2528-11.0592l33.3824-33.3824c19.2512-19.2512 44.8512-29.9008 71.8848-29.9008h86.6304c4.096 0 7.7824 2.4576 9.4208 6.3488 1.6384 3.8912 0.6144 8.192-2.2528 11.0592l-33.3824 33.3824c-19.0464 19.2512-44.6464 29.9008-71.8848 29.9008z m-61.8496-20.48h61.8496c21.7088 0 42.1888-8.3968 57.5488-23.7568l15.7696-15.7696h-61.8496c-21.7088 0-42.1888 8.3968-57.5488 23.7568l-15.7696 15.7696z" fill="#1C1D21" p-id="14362"></path><path d="M659.8656 826.1632h-86.6304c-4.096 0-7.7824-2.4576-9.4208-6.3488-1.6384-3.8912-0.6144-8.192 2.2528-11.0592l33.3824-33.3824c19.2512-19.2512 44.8512-29.9008 71.8848-29.9008H757.76c4.096 0 7.7824 2.4576 9.4208 6.3488 1.6384 3.8912 0.6144 8.192-2.2528 11.0592l-33.3824 33.3824c-19.0464 19.2512-44.6464 29.9008-71.68 29.9008z m-62.0544-20.48h61.8496c21.7088 0 42.1888-8.3968 57.5488-23.7568l15.7696-15.7696h-61.8496c-21.7088 0-42.1888 8.3968-57.5488 23.7568l-15.7696 15.7696z" fill="#1C1D21" p-id="14363"></path><path d="M721.1008 764.928h-86.6304c-4.096 0-7.7824-2.4576-9.4208-6.3488-1.6384-3.8912-0.6144-8.192 2.2528-11.0592l33.3824-33.3824c19.2512-19.2512 44.8512-29.9008 71.8848-29.9008H819.2c4.096 0 7.7824 2.4576 9.4208 6.3488 1.6384 3.8912 0.6144 8.192-2.2528 11.0592L792.9856 735.232c-19.2512 19.0464-44.8512 29.696-71.8848 29.696z m-62.0544-20.48H720.896c21.7088 0 42.1888-8.3968 57.5488-23.7568l15.7696-15.7696h-61.8496c-21.7088 0-42.1888 8.3968-57.5488 23.7568l-15.7696 15.7696z" fill="#1C1D21" p-id="14364"></path><path d="M782.1312 703.6928h-86.6304c-4.096 0-7.7824-2.4576-9.4208-6.3488-1.6384-3.8912-0.6144-8.192 2.2528-11.0592l33.3824-33.3824c19.2512-19.2512 44.8512-29.9008 71.8848-29.9008h86.6304c4.096 0 7.7824 2.4576 9.4208 6.3488 1.6384 3.8912 0.6144 8.192-2.2528 11.0592L854.016 673.792c-19.0464 19.456-44.6464 29.9008-71.8848 29.9008z m-61.8496-20.48h61.8496c21.7088 0 42.1888-8.3968 57.5488-23.7568l15.7696-15.7696h-61.8496c-21.7088 0-42.1888 8.3968-57.5488 23.7568l-15.7696 15.7696z" fill="#1C1D21" p-id="14365"></path><path d="M843.3664 642.6624h-86.6304c-4.096 0-7.7824-2.4576-9.4208-6.3488-1.6384-3.8912-0.6144-8.192 2.2528-11.0592l33.3824-33.3824c19.2512-19.2512 44.8512-29.9008 71.8848-29.9008h86.6304c4.096 0 7.7824 2.4576 9.4208 6.3488 1.6384 3.8912 0.6144 8.192-2.2528 11.0592l-33.3824 33.3824c-19.0464 19.2512-44.6464 29.9008-71.8848 29.9008z m-61.8496-20.48h61.8496c21.7088 0 42.1888-8.3968 57.5488-23.7568l15.7696-15.7696h-61.8496c-21.7088 0-42.1888 8.3968-57.5488 23.7568l-15.7696 15.7696zM512 887.3984c-1.2288 0-2.6624-0.2048-3.8912-0.8192-3.8912-1.6384-6.3488-5.3248-6.3488-9.4208V790.528c0-27.2384 10.6496-52.8384 29.9008-71.8848l33.3824-33.3824c2.8672-2.8672 7.3728-3.8912 11.0592-2.2528 3.8912 1.6384 6.3488 5.3248 6.3488 9.4208v86.6304c0 27.2384-10.6496 52.8384-29.9008 71.8848l-33.3824 33.3824c-1.8432 2.048-4.5056 3.072-7.168 3.072z m49.7664-170.1888l-15.7696 15.7696c-15.36 15.36-23.7568 35.84-23.7568 57.5488v61.8496l15.7696-15.7696c15.36-15.36 23.7568-35.84 23.7568-57.5488v-61.8496z" fill="#1C1D21" p-id="14366"></path><path d="M573.2352 826.1632c-1.2288 0-2.6624-0.2048-3.8912-0.8192-3.8912-1.6384-6.3488-5.3248-6.3488-9.4208v-86.6304c0-27.2384 10.6496-52.8384 29.9008-71.8848l33.3824-33.3824c2.8672-2.8672 7.3728-3.8912 11.0592-2.2528 3.8912 1.6384 6.3488 5.3248 6.3488 9.4208v86.6304c0 27.2384-10.6496 52.8384-29.9008 71.8848l-33.3824 33.3824c-1.8432 2.048-4.5056 3.072-7.168 3.072z m49.7664-170.1888l-15.7696 15.7696c-15.36 15.36-23.7568 35.84-23.7568 57.5488v61.8496l15.7696-15.7696c15.36-15.36 23.7568-35.84 23.7568-57.5488v-61.8496z" fill="#1C1D21" p-id="14367"></path><path d="M634.2656 764.928c-1.2288 0-2.6624-0.2048-3.8912-0.8192-3.8912-1.6384-6.3488-5.3248-6.3488-9.4208v-86.6304c0-27.2384 10.6496-52.8384 29.9008-71.8848l33.3824-33.3824c2.8672-2.8672 7.3728-3.8912 11.0592-2.2528 3.8912 1.6384 6.3488 5.3248 6.3488 9.4208v86.6304c0 27.2384-10.6496 52.6336-29.9008 71.8848L641.6384 761.856c-2.048 2.048-4.5056 3.072-7.3728 3.072z m49.9712-170.1888l-15.7696 15.7696c-15.36 15.36-23.7568 35.84-23.7568 57.5488v61.8496l15.7696-15.7696c15.36-15.36 23.7568-35.84 23.7568-57.5488v-61.8496z" fill="#1C1D21" p-id="14368"></path><path d="M695.5008 703.6928c-1.2288 0-2.6624-0.2048-3.8912-0.8192-3.8912-1.6384-6.3488-5.3248-6.3488-9.4208v-86.6304c0-27.2384 10.6496-52.8384 29.9008-71.8848l33.3824-33.3824c2.8672-2.8672 7.3728-3.8912 11.0592-2.2528 3.8912 1.6384 6.3488 5.3248 6.3488 9.4208v86.6304c0 27.2384-10.6496 52.8384-29.9008 71.8848l-33.3824 33.3824c-1.8432 2.048-4.5056 3.072-7.168 3.072z m49.9712-170.1888l-15.7696 15.7696c-15.36 15.36-23.7568 35.84-23.7568 57.5488v61.8496l15.7696-15.7696c15.36-15.36 23.7568-35.84 23.7568-57.5488v-61.8496z" fill="#1C1D21" p-id="14369"></path><path d="M756.736 642.6624c-1.2288 0-2.6624-0.2048-3.8912-0.8192-3.8912-1.6384-6.3488-5.3248-6.3488-9.4208v-86.6304c0-27.2384 10.6496-52.6336 29.9008-71.8848l33.3824-33.3824c2.8672-2.8672 7.3728-3.8912 11.0592-2.2528 3.8912 1.6384 6.3488 5.3248 6.3488 9.4208v86.6304c0 27.2384-10.6496 52.6336-29.9008 71.8848L763.904 639.5904c-1.8432 1.8432-4.5056 3.072-7.168 3.072z m49.7664-170.1888l-15.7696 15.7696c-15.36 15.36-23.7568 35.84-23.7568 57.5488v61.8496l15.7696-15.7696c15.36-15.36 23.7568-35.84 23.7568-57.5488v-61.8496zM579.1744 953.9584c-2.6624 0-5.3248-1.024-7.168-3.072l-75.776-75.776c-4.096-4.096-4.096-10.4448 0-14.5408s10.4448-4.096 14.5408 0l75.776 75.776c4.096 4.096 4.096 10.4448 0 14.5408-2.048 2.048-4.7104 3.072-7.3728 3.072z" fill="#1C1D21" p-id="14370"></path><path d="M444.8256 953.9584c-2.6624 0-5.3248-1.024-7.168-3.072-4.096-4.096-4.096-10.4448 0-14.5408l75.776-75.776c4.096-4.096 10.4448-4.096 14.5408 0s4.096 10.4448 0 14.5408l-75.776 75.776c-2.2528 2.048-4.9152 3.072-7.3728 3.072zM316.416 320.1024h-47.9232c-5.7344 0-10.24-4.5056-10.24-10.24s4.5056-10.24 10.24-10.24h47.9232c5.7344 0 10.24 4.5056 10.24 10.24s-4.5056 10.24-10.24 10.24zM378.4704 320.1024h-13.7216c-5.7344 0-10.24-4.5056-10.24-10.24s4.5056-10.24 10.24-10.24h13.7216c5.7344 0 10.24 4.5056 10.24 10.24s-4.7104 10.24-10.24 10.24z" fill="#1C1D21" p-id="14371"></path></svg>