<svg xmlns="http://www.w3.org/2000/svg" viewBox="0 0 1024 1024" version="1.1"><path d="M819.818667 106.666667a140.202667 140.202667 0 0 1 140.096 135.168l0.085333 5.013333v165.930667c0 326.058667-296.32 547.776-595.52 524.16-12.074667-1.024-17.194667-4.821333-17.834667-17.173334l-0.064-2.773333V845.44C171.733333 781.824 67.2 611.690667 64.064 421.632L64 412.842667v-165.973334a140.202667 140.202667 0 0 1 135.168-140.117333L204.16 106.666667H819.84z m0 64H204.16a76.202667 76.202667 0 0 0-76.074667 72.149333l-0.106666 4.053333v165.973334c0 169.834667 90.389333 314.154667 233.28 369.728l7.189333 2.709333 42.112 15.317333v74.112h0.32c257.770667-0.64 480.362667-197.269333 485.034667-453.717333l0.064-8.213333v-165.930667a76.202667 76.202667 0 0 0-72.149334-76.074667L819.797333 170.666667zM283.434667 396.693333c19.349333 0 35.050667 15.701333 35.050666 35.050667 0 81.194667 56.149333 166.293333 138.133334 190.549333 83.050667 24.597333 178.24-11.221333 218.368-70.442666a35.050667 35.050667 0 1 1 58.026666 39.338666c-57.002667 84.096-183.509333 131.712-296.32 98.325334-113.429333-33.6-188.309333-147.050667-188.309333-257.770667 0-19.349333 15.68-35.050667 35.050667-35.050667z m473.898666-0.512c19.562667 0.725333 35.050667 16.213333 35.050667 35.050667 0 18.858667-15.488 34.346667-35.050667 35.050667-19.562667-0.725333-35.050667-16.213333-35.050666-35.050667s15.488-34.325333 35.050666-35.050667z" fill="#333333" p-id="6475"></path></svg>