<svg xmlns="http://www.w3.org/2000/svg" viewBox="0 0 1024 1024" version="1.1"><path d="M832 64a128 128 0 0 1 128 128v640a128 128 0 0 1-128 128H192a128 128 0 0 1-128-128V192a128 128 0 0 1 128-128h640z m0 64H192a64 64 0 0 0-63.893333 60.245333L128 192v640a64 64 0 0 0 60.245333 63.893333L192 896h640a64 64 0 0 0 63.893333-60.245333L896 832V192a64 64 0 0 0-60.245333-63.893333L832 128zM311.466667 341.333333c4.693333 0 8.533333 3.84 8.533333 8.533334v324.266666a8.533333 8.533333 0 0 1-8.533333 8.533334h-46.933334a8.533333 8.533333 0 0 1-8.533333-8.533334V349.866667c0-4.693333 3.84-8.533333 8.533333-8.533334h46.933334z m149.333333 0c4.693333 0 8.533333 3.84 8.533333 8.533334v324.266666a8.533333 8.533333 0 0 1-8.533333 8.533334h-46.933333a8.533333 8.533333 0 0 1-8.533334-8.533334V349.866667c0-4.693333 3.84-8.533333 8.533334-8.533334h46.933333z m149.333333 0c4.693333 0 8.533333 3.84 8.533334 8.533334v324.266666a8.533333 8.533333 0 0 1-8.533334 8.533334h-46.933333a8.533333 8.533333 0 0 1-8.533333-8.533334V349.866667c0-4.693333 3.84-8.533333 8.533333-8.533334h46.933333z m149.333334 0c4.693333 0 8.533333 3.84 8.533333 8.533334v324.266666a8.533333 8.533333 0 0 1-8.533333 8.533334h-46.933334a8.533333 8.533333 0 0 1-8.533333-8.533334V349.866667c0-4.693333 3.84-8.533333 8.533333-8.533334h46.933334z" fill="#333333" p-id="3871"></path></svg>